<?xml version="1.0" encoding="utf-8"?>
<!-- Generator: Adobe Illustrator 15.0.2, SVG Export Plug-In . SVG Version: 6.00 Build 0)  -->
<!DOCTYPE svg PUBLIC "-//W3C//DTD SVG 1.1//EN" "http://www.w3.org/Graphics/SVG/1.1/DTD/svg11.dtd">
<svg version="1.1" id="Calque_1" xmlns="http://www.w3.org/2000/svg" xmlns:xlink="http://www.w3.org/1999/xlink" x="0px" y="0px"
	 width="228px" height="228px" viewBox="0 0 228 228" enable-background="new 0 0 228 228" xml:space="preserve">
<g display="none" opacity="0.2">
	
		<linearGradient id="SVGID_1_" gradientUnits="userSpaceOnUse" x1="99.8267" y1="-160.0898" x2="259.927" y2="-320.1901" gradientTransform="matrix(1 0 0 -1 -66.4897 -126.7559)">
		<stop  offset="0" style="stop-color:#E6E6E6"/>
		<stop  offset="1" style="stop-color:#949494"/>
	</linearGradient>
	<path display="inline" fill="url(#SVGID_1_)" d="M113.387,226.646c-62.453,0-113.261-50.811-113.261-113.261
		c0-62.453,50.808-113.26,113.261-113.26c62.453,0,113.261,50.808,113.261,113.26C226.646,175.838,175.84,226.646,113.387,226.646
		L113.387,226.646z M113.387,8.275c-28.077,0-54.473,10.934-74.325,30.787S8.275,85.309,8.275,113.385
		c0,28.077,10.934,54.472,30.787,74.325s46.249,30.787,74.325,30.787c28.076,0,54.47-10.935,74.321-30.787
		c19.854-19.851,30.788-46.246,30.788-74.325c0-28.076-10.934-54.473-30.788-74.323C167.857,19.209,141.463,8.275,113.387,8.275
		L113.387,8.275z"/>
	<path display="inline" fill="#999999" d="M113.387,0c62.62,0,113.384,50.764,113.384,113.386
		c0,62.621-50.767,113.385-113.384,113.385C50.765,226.771,0,176.007,0,113.386C0,50.764,50.765,0,113.387,0 M113.387,218.372
		c28.044,0,54.406-10.92,74.233-30.75c19.831-19.828,30.75-46.192,30.75-74.236c0-28.042-10.919-54.407-30.75-74.236
		C167.793,19.32,141.432,8.4,113.387,8.4c-28.045,0-54.408,10.92-74.237,30.75C19.32,58.979,8.4,85.343,8.4,113.386
		c0,28.043,10.92,54.408,30.75,74.236C58.979,207.452,85.343,218.372,113.387,218.372 M113.387,0.25
		c-30.22,0-58.631,11.768-80,33.137C12.019,54.755,0.25,83.166,0.25,113.386c0,30.219,11.769,58.631,33.137,79.999
		c21.368,21.368,49.78,33.137,80,33.137c30.218,0,58.63-11.769,79.998-33.137c21.368-21.367,33.137-49.779,33.137-79.999
		c0-30.22-11.769-58.631-33.137-79.999C172.018,12.018,143.605,0.25,113.387,0.25L113.387,0.25z M113.387,218.622
		c-28.111,0-54.538-10.946-74.414-30.823C19.097,167.924,8.15,141.497,8.15,113.386c0-28.11,10.946-54.537,30.823-74.413
		C58.849,19.097,85.276,8.15,113.387,8.15c28.109,0,54.536,10.946,74.41,30.823c19.877,19.875,30.823,46.302,30.823,74.413
		c0,28.112-10.946,54.539-30.823,74.413C167.923,207.676,141.497,218.622,113.387,218.622L113.387,218.622z"/>
</g>
<g>
	<path fill="#009EE0" d="M114.124,4.061c29.483,0,57.204,11.482,78.053,32.331s32.331,48.569,32.331,78.054
		c0,29.486-11.482,57.207-32.331,78.054c-20.849,20.85-48.567,32.332-78.053,32.332c-29.485,0-57.206-11.482-78.056-32.332
		c-20.849-20.85-32.332-48.568-32.332-78.054c0-29.485,11.482-57.206,32.332-78.054C56.918,15.542,84.639,4.061,114.124,4.061
		 M114.124,1.061C51.502,1.061,0.737,51.824,0.737,114.446c0,62.621,50.765,113.386,113.387,113.386
		c62.62,0,113.384-50.766,113.384-113.386C227.508,51.824,176.744,1.061,114.124,1.061L114.124,1.061z"/>
</g>
</svg>
