<?xml version="1.0" encoding="UTF-8" standalone="no"?>
<svg
   xmlns:dc="http://purl.org/dc/elements/1.1/"
   xmlns:cc="http://creativecommons.org/ns#"
   xmlns:rdf="http://www.w3.org/1999/02/22-rdf-syntax-ns#"
   xmlns:svg="http://www.w3.org/2000/svg"
   xmlns="http://www.w3.org/2000/svg"
   xmlns:sodipodi="http://sodipodi.sourceforge.net/DTD/sodipodi-0.dtd"
   xmlns:inkscape="http://www.inkscape.org/namespaces/inkscape"
   version="1.1"
   id="svg4506"
   sodipodi:docname="cps1.svg"
   width="600"
   height="167.10001"
   inkscape:version="0.92.1 r15371">
  <metadata
     id="metadata4512">
    <rdf:RDF>
      <cc:Work
         rdf:about="">
        <dc:format>image/svg+xml</dc:format>
        <dc:type
           rdf:resource="http://purl.org/dc/dcmitype/StillImage" />
        <dc:title></dc:title>
      </cc:Work>
    </rdf:RDF>
  </metadata>
  <defs
     id="defs4510" />
  <sodipodi:namedview
     pagecolor="#ffffff"
     bordercolor="#666666"
     borderopacity="1"
     objecttolerance="10"
     gridtolerance="10"
     guidetolerance="10"
     inkscape:pageopacity="0"
     inkscape:pageshadow="2"
     inkscape:window-width="1280"
     inkscape:window-height="738"
     id="namedview4508"
     showgrid="false"
     fit-margin-top="0"
     fit-margin-left="0"
     fit-margin-right="0"
     fit-margin-bottom="0"
     inkscape:pagecheckerboard="true"
     inkscape:zoom="1.3416667"
     inkscape:cx="300"
     inkscape:cy="83.550006"
     inkscape:window-x="-8"
     inkscape:window-y="-8"
     inkscape:window-maximized="1"
     inkscape:current-layer="svg4506" />
  <g
     id="g4504"
     style="fill:#ffffff">
    <path
       style="color:#000000;clip-rule:nonzero;display:inline;overflow:visible;visibility:visible;opacity:1;isolation:auto;mix-blend-mode:normal;color-interpolation:sRGB;color-interpolation-filters:linearRGB;fill:#ffffff;fill-opacity:1;fill-rule:evenodd;stroke:none;stroke-width:1px;stroke-linecap:butt;stroke-linejoin:miter;stroke-miterlimit:4;stroke-dasharray:none;stroke-dashoffset:0;stroke-opacity:1;color-rendering:auto;image-rendering:auto;shape-rendering:auto;text-rendering:auto"
       d="m 68.607422,118.39453 c -12.483,0 -22.59961,10.11661 -22.59961,22.59961 v 3.50977 c 0,12.477 10.11661,22.5957 22.59961,22.5957 H 531.39258 c 12.483,0 22.59961,-10.1187 22.59961,-22.5957 v -3.50977 c 0,-12.483 -10.11661,-22.59961 -22.59961,-22.59961 z m 206.462888,13.14063 c 1.425,0 2.8308,0.13792 4.2168,0.41992 1.395,0.27 2.60214,0.61425 3.61914,1.03125 l -2.35156,3.86719 c -0.453,-0.225 -0.93608,-0.43705 -1.45508,-0.62305 -1.263,-0.477 -2.55019,-0.71485 -3.86719,-0.71485 -0.468,0 -0.93253,0.0326 -1.39453,0.10157 -0.456,0.057 -0.89822,0.17561 -1.32422,0.34961 -0.378,0.147 -0.70161,0.36797 -0.97461,0.66797 -0.27,0.291 -0.4082,0.62395 -0.4082,1.00195 0,0.57 0.2193,1.01522 0.6543,1.32422 0.438,0.3 1.26365,0.57717 2.47265,0.82617 0.795,0.165 1.55525,0.32747 2.28125,0.48047 0.738,0.156 1.52719,0.36867 2.36719,0.63867 1.659,0.543 2.88002,1.28861 3.66602,2.22461 0.792,0.933 1.1914,2.14377 1.1914,3.63476 0,2.13301 -0.90479,3.86708 -2.71679,5.20508 -1.80001,1.326 -4.25543,1.99024 -7.35743,1.99024 -1.794,0 -3.35731,-0.1548 -4.69531,-0.4668 -1.326,-0.318 -2.57337,-0.71908 -3.73437,-1.20508 l 1.79101,-4.17968 c 0.702,0.399 1.9015,0.84028 2.6875,1.11328 1.434,0.495 2.808,0.74218 4.125,0.74218 0.342,0 0.78589,-0.0309 1.33789,-0.0879 0.555,-0.06 1.00552,-0.15211 1.35352,-0.28711 0.426,-0.177 0.77387,-0.3972 1.04687,-0.6582 0.279,-0.261 0.41992,-0.65016 0.41992,-1.16016 0,-0.474 -0.20437,-0.8817 -0.60937,-1.2207 -0.399,-0.348 -0.98381,-0.61973 -1.75781,-0.80273 -0.816,-0.192 -1.67889,-0.37107 -2.58789,-0.53907 -0.9,-0.171 -1.74993,-0.38939 -2.54493,-0.65039 -1.821,-0.591 -3.13545,-1.39343 -3.93945,-2.39843 -0.795,-1.02 -1.18945,-2.27825 -1.18945,-3.78125 0,-2.013 0.90012,-3.65874 2.70312,-4.92774 1.812,-1.281 4.13961,-1.91601 6.97461,-1.91601 z m 52.60547,0 c 1.425,0 2.83185,0.13792 4.21484,0.41992 1.395,0.27 2.6041,0.61425 3.6211,1.03125 l -2.35352,3.86719 c -0.453,-0.225 -0.93908,-0.43705 -1.45508,-0.62305 -1.26299,-0.477 -2.54914,-0.71485 -3.86914,-0.71485 -0.462,0 -0.92757,0.0326 -1.39257,0.10157 -0.456,0.057 -0.89927,0.17561 -1.32227,0.34961 -0.378,0.147 -0.70461,0.36797 -0.97461,0.66797 -0.273,0.291 -0.4082,0.62395 -0.4082,1.00195 0,0.57 0.21929,1.01522 0.65429,1.32422 0.438,0.3 1.25871,0.57717 2.47071,0.82617 0.795,0.165 1.55825,0.32747 2.28125,0.48047 0.738,0.156 1.52704,0.36867 2.37304,0.63867 1.65601,0.543 2.87716,1.28861 3.66016,2.22461 0.798,0.933 1.19336,2.14377 1.19336,3.63476 0,2.13301 -0.9057,3.86708 -2.7207,5.20508 -1.8,1.326 -4.25452,1.99024 -7.35352,1.99024 -1.791,0 -3.35731,-0.1548 -4.69531,-0.4668 -1.329,-0.318 -2.57038,-0.71908 -3.73438,-1.20508 l 1.79297,-4.17968 c 0.702,0.399 1.9006,0.84028 2.6836,1.11328 1.434,0.495 2.80995,0.74218 4.12695,0.74218 0.339,0 0.78589,-0.0309 1.33789,-0.0879 0.552,-0.06 1.00252,-0.15211 1.35352,-0.28711 0.423,-0.177 0.77297,-0.3972 1.04296,-0.6582 0.282,-0.261 0.42383,-0.65016 0.42383,-1.16016 0,-0.474 -0.20332,-0.8817 -0.61133,-1.2207 -0.396,-0.348 -0.98381,-0.61973 -1.75781,-0.80273 -0.813,-0.192 -1.67694,-0.37107 -2.58593,-0.53907 -0.90301,-0.171 -1.74993,-0.38939 -2.54493,-0.65039 -1.821,-0.591 -3.13545,-1.39343 -3.93945,-2.39843 -0.795,-1.02 -1.19336,-2.27825 -1.19336,-3.78125 0,-2.013 0.90208,-3.65874 2.70508,-4.92774 1.812,-1.281 4.13856,-1.91601 6.97656,-1.91601 z m -183.51758,0.7832 h 9.1875 c 1.374,0 2.53171,0.12328 3.47071,0.36328 0.951,0.234 1.79067,0.58355 2.51367,1.06055 0.873,0.57 1.53619,1.30626 1.99219,2.19726 0.468,0.891 0.69921,1.96099 0.69921,3.20899 0,0.969 -0.17076,1.91961 -0.50976,2.84961 -0.339,0.921 -0.82313,1.69617 -1.45313,2.32617 -0.864,0.852 -1.82562,1.49755 -2.89062,1.93555 -1.056,0.435 -2.37708,0.65234 -3.95508,0.65234 h -3.47461 v 7.04883 h -5.58008 z m 27.35547,0 h 5.58008 v 17.45703 H 187.125 v 4.18555 h -15.61133 z m 28.96485,0 h 6.42578 l 9.87304,21.64258 h -5.77148 l -1.8457,-4.3711 h -10.98047 l -1.95313,4.3711 h -5.625 z m 21.17968,0 h 6.33789 l 5.10157,8.37305 4.87109,-8.37305 h 6.13477 l -8.33008,13.27148 v 8.3711 h -5.58008 v -8.10938 z m 68.48633,0 h 6.33985 l 5.0996,8.37305 4.86914,-8.37305 h 6.13477 l -8.32812,13.27148 v 8.3711 h -5.58594 v -8.10938 z m 53.44336,0 h 19.09766 v 4.18555 h -6.75586 v 17.45703 h -5.58399 v -17.45703 h -6.75781 z m 26.17969,0 h 16.64648 v 4.18555 h -11.09375 v 3.73632 h 10.36914 v 4.18555 h -10.36914 v 5.34961 h 11.09375 v 4.18555 h -16.64648 z m 26.33203,0 h 5.4375 l 7.94141,14.95508 7.92968,-14.95508 h 5.43946 l 0.79492,21.64258 h -5.84961 l -0.49805,-10.43164 -6.04297,10.42773 h -3.85156 l -6.03906,-10.42773 -0.49805,10.43164 h -5.55859 z m 46.52734,0.0527 h 5.82813 1.56054 5.82618 v 1.15235 h -0.0273 c -0.096,0 -4.4082,0.0777 -4.4082,1.88672 v 15.5625 c 0,1.044 1.9662,1.88281 4.4082,1.88281 h 0.0273 v 1.15234 h -5.82618 -1.56054 -5.82813 v -1.15234 h 0.0293 c 2.439,0 4.4043,-0.83881 4.4043,-1.88281 v -15.5625 c 0,-1.809 -4.3083,-1.88672 -4.4043,-1.88672 h -0.0293 z m -292.88867,3.98829 v 6.48242 h 1.59961 c 0.948,0 1.72784,-0.0598 2.33984,-0.17383 0.618,-0.117 1.13769,-0.35122 1.55469,-0.69922 0.36,-0.309 0.61549,-0.67752 0.77149,-1.10352 0.165,-0.435 0.24414,-0.96298 0.24414,-1.58398 0,-0.609 -0.16324,-1.13336 -0.49024,-1.56836 -0.33,-0.447 -0.71539,-0.75659 -1.15039,-0.93359 -0.582,-0.231 -1.14917,-0.35791 -1.70117,-0.37891 -0.552,-0.027 -1.28603,-0.041 -2.20703,-0.041 z m 53.88086,1.5 -3.83984,7.75781 h 7.70898 z"
       id="rect4789"
       inkscape:connector-curvature="0" />
    <path
       style="clip-rule:evenodd;fill:#ffffff;fill-opacity:1;fill-rule:evenodd"
       d="m 432.10742,0 c -17.907,0 -37.47576,6.7345313 -49.63476,21.269531 -8.706,-13.1939998 -23.95219,-21.1367185 -45.49219,-21.1367185 -20.94,0 -35.62406,9.4573594 -46.28906,23.8183595 -7.728,-13.917 -14.56299,-21.1406251 -41.20899,-21.1406251 H 198.11133 V 26.355469 c 0,0 2.44686,0.682937 3.88086,2.335937 0.873,1.002 1.06054,2.544453 1.06054,3.939453 0,1.401 -0.12304,51.251953 -0.12304,51.251953 -2.139,-1.070999 -4.2793,-5.078124 -4.2793,-5.078124 L 169.21484,2.8105469 H 132.55273 L 100.50586,87.363281 V 68.451172 H 77.708984 c 0,0 -2.673609,8.201172 -12.849609,8.201172 -10.956,0 -20.873,-9.091532 -21.5,-25.144532 -0.534,-13.917 11.769344,-21.004109 16.152344,-17.662109 5.625,4.284 -0.541016,10.164063 -0.541016,10.164063 L 77.708984,56.859375 106.07422,26.894531 h 0.002 c 0,0 -13.649967,-26.4960935 -48.167967,-26.4960935 C 21.788203,0.3984375 0,26.087219 0,56.324219 c 0,30.234 27.945328,54.045061 62.736328,54.039061 H 250.5625 V 87.824219 c 0,0 -6.01953,-1.003313 -6.01953,-3.820313 0,-1.545 0.70976,-2.07939 2.13476,-2.40039 18.321,-4.107 33.5975,-15.013125 37.0625,-18.328125 7.308,30.414 33.47118,47.091799 63.95118,47.091799 h 34.24218 V 91.640625 c 0,0 19.45141,21.402345 48.56641,21.402345 22.749,0 40.40039,-15.525392 40.40039,-15.525392 v 12.906252 h 48.29688 V 90.566406 h 29.43164 V 110.36914 H 600 V 84.15625 c 0,0 -1.99756,0.248781 -3.47656,-1.074219 -1.275,-1.131 -1.79961,-2.675297 -2.09961,-4.154297 l -7.12891,-45.478515 c 0,0 -0.1407,-4.185094 0.6543,-5.496094 0.813,-1.329 3.75781,-2.134766 3.75781,-2.134766 V 2.8105469 H 540.60352 L 536.71875,16.050781 531.50195,2.8105469 H 482.00781 V 27.158203 C 472.49481,10.664203 454.11542,0 432.10742,0 Z m -2.00976,10.328125 c 28.353,0 49.66601,19.903563 49.66601,45.601563 0,25.676999 -20.77601,46.785152 -49.66601,46.785152 -28.902,0 -49.67383,-21.105153 -49.67383,-46.785152 0,-25.698 21.30883,-45.601563 49.67383,-45.601563 z M 57.378906,10.595703 c 21.939,0.003 35.177735,16.767578 35.177735,16.767578 L 77.445312,43.208984 c 0,0 -0.801703,0.404297 -1.470703,0.404297 -0.669,0 -1.611328,-0.673828 -1.611328,-0.673828 l -1.86914,-1.595703 c 0,0 -0.539063,-0.131875 -0.539063,-0.671875 0,-0.528 1.476563,-1.875016 1.476563,-4.416016 0,-2.544 -0.535469,-13.113281 -16.855469,-13.113281 -16.32,0 -23.546875,15.251078 -23.546875,27.830078 0,12.576 7.755594,35.585938 33.183594,35.585938 14.787,0 17.919921,-8.302735 17.919921,-8.302735 h 5.082032 V 99.935547 H 61.388672 c -33.174,0 -51.6425782,-25.9615 -51.6425782,-44.6875 0,-28.716 24.9738122,-44.652344 47.6328122,-44.652344 z m 283.345704,0.150391 c 21.942,0 35.18945,16.769531 35.18945,16.769531 l -15.11523,15.845703 c 0,0 -0.80456,0.402344 -1.47656,0.402344 -0.663,0 -1.59961,-0.667969 -1.59961,-0.667969 l -1.87696,-1.611328 c 0,0 -0.53515,-0.127203 -0.53515,-0.658203 0,-0.54 1.46679,-1.884016 1.46679,-4.416016 0,-2.547 -0.52751,-13.115234 -16.85351,-13.115234 -16.323,0 -23.54688,15.249125 -23.54688,27.828125 0,12.567 7.76055,35.582031 33.18555,35.582031 14.787,0 17.92188,-8.296875 17.92188,-8.296875 h 5.08789 v 21.673827 h -27.83594 c -33.171,0 -51.63867,-25.952639 -51.63867,-44.681639 0,-28.713 24.96495,-44.654297 47.62695,-44.654297 z m -201.33594,2.234375 h 22.875 l 27.83203,72.777343 c 0.795,2.001001 2.13271,3.885376 3.47071,5.484376 1.332,1.605 4.54492,2.68164 4.54492,2.68164 v 6.279292 h -33.57031 v -6.419917 c 0,0 2.13693,0.273438 3.21093,-1.601562 1.068,-1.875 1.06753,-3.345844 0.26953,-5.214844 -0.804,-1.878 -6.43554,-16.724609 -6.43554,-16.724609 h -27.41992 c 0,0 -5.61325,14.981406 -6.15625,16.316406 -0.537,1.338 -0.537,3.482453 0,4.814453 0.891,2.226 4.01757,2.554687 4.01757,2.554687 v 6.277346 h -26.89453 v -6.277346 c 0,0 2.4463,-0.844593 4.2793,-2.683593 2.007,-2.007 2.67383,-4.150391 2.67383,-4.150391 z m 69.42969,0 h 42.81055 c 15.786,0 31.56836,5.612687 31.56836,23.804687 0,18.198 -11.50535,24.620875 -21.40235,29.171875 -11.427,5.25 -26.48633,9.369141 -26.48633,9.369141 v 13.908203 c 0,0 0.1348,0.940203 1.4668,2.533203 1.344,1.608 2.81445,2.011719 2.81445,2.011719 v 6.419923 h -31.03906 v -6.277345 c 0,0 1.8698,-0.409141 3.2168,-1.744141 1.332,-1.338 1.60351,-2.943359 1.60351,-2.943359 V 26.355469 c 0,0 0.1245,-2.677188 -0.9375,-3.742188 -1.071,-1.08 -3.61523,-2.546875 -3.61523,-2.546875 z m 339.53711,0 h 33.30469 v 5.210937 c 0,0 -2.21327,0.940485 -3.19727,2.146485 -1.206,1.473 -1.20645,2.540547 -0.93945,4.685547 0.267,2.136 8.8257,60.199796 9.0957,62.341796 0.273,2.142 0.53436,3.34536 1.06836,4.81836 0.531,1.458 3.08203,2.669922 3.08203,2.669922 v 5.398434 h -31.98047 v -5.796872 c 0,0 2.81191,-0.398187 3.75391,-1.742187 0.936,-1.341 1.33041,-2.146297 1.06641,-4.279297 -0.27,-2.142 -7.88868,-50.837891 -7.88868,-50.837891 l -13.91406,43.078125 h -16.85742 l -13.78516,-40.410156 -6.95312,47.630859 c 0,0 -0.27127,2.857969 0.80273,4.417969 1.47,2.142 4.15625,2.142578 4.15625,2.142578 v 5.748042 h -27.70508 v -6.146479 c 0,0 2.2036,-0.339844 3.8086,-2.214844 1.602,-1.869 1.875,-4.283203 1.875,-4.283203 L 497.25391,24.75 c 0,0 0.60859,-2.345156 -0.0664,-3.410156 -0.705,-1.128 -4.48633,-2.074219 -4.48633,-2.074219 v -6.230469 h 31.84571 l 11.50585,35.53125 z M 430.09766,24.216797 c -10.971,0 -25.69141,6.415422 -25.69141,32.107422 0,25.686 13.10941,32.109375 25.69141,32.109375 12.567,0 25.95312,-8.028375 25.95312,-32.109375 0,-24.078 -14.98512,-32.107422 -25.95312,-32.107422 z M 243.5293,25.101562 c -4.42073,0.122081 -7.95703,0.986329 -7.95703,0.986329 v 37.191406 c 0,0 25.14843,-10.430438 25.14843,-25.148438 0,-11.371875 -9.82353,-13.232763 -17.1914,-13.029297 z m -96.24805,6.074219 -8.56641,25.416016 h 17.66407 z"
       id="path4815"
       inkscape:connector-curvature="0" />
  </g>
</svg>
