<?xml version="1.0" encoding="UTF-8" standalone="no"?>
<svg
   xmlns:dc="http://purl.org/dc/elements/1.1/"
   xmlns:cc="http://creativecommons.org/ns#"
   xmlns:rdf="http://www.w3.org/1999/02/22-rdf-syntax-ns#"
   xmlns:svg="http://www.w3.org/2000/svg"
   xmlns="http://www.w3.org/2000/svg"
   xmlns:sodipodi="http://sodipodi.sourceforge.net/DTD/sodipodi-0.dtd"
   xmlns:inkscape="http://www.inkscape.org/namespaces/inkscape"
   version="1.1"
   id="svg5687"
   sodipodi:docname="cps3.svg"
   width="600"
   height="167.10001"
   inkscape:version="0.92.1 r15371">
  <metadata
     id="metadata5693">
    <rdf:RDF>
      <cc:Work
         rdf:about="">
        <dc:format>image/svg+xml</dc:format>
        <dc:type
           rdf:resource="http://purl.org/dc/dcmitype/StillImage" />
        <dc:title></dc:title>
      </cc:Work>
    </rdf:RDF>
  </metadata>
  <defs
     id="defs5691" />
  <sodipodi:namedview
     pagecolor="#ffffff"
     bordercolor="#666666"
     borderopacity="1"
     objecttolerance="10"
     gridtolerance="10"
     guidetolerance="10"
     inkscape:pageopacity="0"
     inkscape:pageshadow="2"
     inkscape:window-width="1280"
     inkscape:window-height="738"
     id="namedview5689"
     showgrid="false"
     fit-margin-top="0"
     fit-margin-left="0"
     fit-margin-right="0"
     fit-margin-bottom="0"
     inkscape:pagecheckerboard="true"
     inkscape:zoom="1.3416667"
     inkscape:cx="300"
     inkscape:cy="83.550006"
     inkscape:window-x="-8"
     inkscape:window-y="-8"
     inkscape:window-maximized="1"
     inkscape:current-layer="svg5687" />
  <g
     id="g5685"
     style="fill:#ffffff">
    <path
       style="color:#000000;clip-rule:nonzero;display:inline;overflow:visible;visibility:visible;opacity:1;isolation:auto;mix-blend-mode:normal;color-interpolation:sRGB;color-interpolation-filters:linearRGB;fill:#ffffff;fill-opacity:1;fill-rule:evenodd;stroke:none;stroke-width:1px;stroke-linecap:butt;stroke-linejoin:miter;stroke-miterlimit:4;stroke-dasharray:none;stroke-dashoffset:0;stroke-opacity:1;color-rendering:auto;image-rendering:auto;shape-rendering:auto;text-rendering:auto"
       d="m 432.10742,0 c -17.907,0 -37.47576,6.7345313 -49.63476,21.269531 -8.706,-13.1939998 -23.95219,-21.1367185 -45.49219,-21.1367185 -20.94,0 -35.62497,9.4573594 -46.29297,23.8183595 -7.725,-13.917 -14.55803,-21.1406251 -41.20703,-21.1406251 H 198.11133 V 26.355469 c 0,0 2.44686,0.682937 3.88086,2.335937 0.873,1.002 1.06054,2.544453 1.06054,3.939453 0,1.404 -0.12304,51.25 -0.12304,51.25 -2.139,-1.068 -4.2793,-5.074218 -4.2793,-5.074218 L 169.21484,2.8105469 H 132.55273 L 100.50586,87.363281 V 68.451172 H 77.708984 c 0,0 -2.673609,8.201172 -12.849609,8.201172 -10.956,0 -20.873,-9.095438 -21.5,-25.148438 -0.534,-13.914 11.766344,-21.000203 16.152344,-17.658203 5.625,4.284 -0.541016,10.164063 -0.541016,10.164063 L 77.708984,56.859375 106.07422,26.892578 h 0.002 c 0,0 -13.649967,-26.4941405 -48.167967,-26.4941405 C 21.788203,0.3984375 0,26.087219 0,56.324219 c 0,30.234 27.945328,54.048061 62.736328,54.039061 H 250.5625 V 87.822266 c 0,0 -6.01758,-1.00136 -6.01758,-3.81836 0,-1.545 0.71081,-2.080437 2.13281,-2.398437 18.324,-4.11 33.5975,-15.015078 37.0625,-18.330078 7.308,30.414 33.47418,47.091799 63.95118,47.091799 h 34.24218 V 91.638672 c 0,0 19.45141,21.404298 48.56641,21.404298 22.749,0 40.4043,-15.525392 40.4043,-15.525392 v 12.906252 h 48.29297 V 90.570312 h 29.43359 V 110.37305 H 600 v -26.2168 c 0,0 -1.99756,0.245781 -3.47656,-1.074219 -1.275,-1.131 -1.80261,-2.675297 -2.09961,-4.154297 l -7.13086,-45.478515 c 0,0 -0.13875,-4.185094 0.65625,-5.496094 0.813,-1.329 3.75781,-2.134766 3.75781,-2.134766 V 2.8105469 H 540.60547 L 536.71875,16.050781 531.50391,2.8105469 h -49.4961 V 27.158203 C 472.49481,10.664203 454.11542,0 432.10742,0 Z m -2.00976,10.328125 c 28.353,0 49.66601,19.903563 49.66601,45.601563 0,25.676999 -20.77601,46.785152 -49.66601,46.785152 -28.902,0 -49.67383,-21.105153 -49.67383,-46.785152 0,-25.698 21.30883,-45.601563 49.67383,-45.601563 z M 57.378906,10.595703 c 21.939,0.003 35.177735,16.767578 35.177735,16.767578 L 77.445312,43.205078 c 0,0 -0.801703,0.408203 -1.470703,0.408203 -0.672,0 -1.611328,-0.673828 -1.611328,-0.673828 L 72.492188,41.34375 c 0,0 -0.53711,-0.128875 -0.53711,-0.671875 0,-0.528 1.476563,-1.875016 1.476563,-4.416016 0,-2.544 -0.534422,-13.113281 -16.857422,-13.113281 -16.317,0 -23.544922,15.251078 -23.544922,27.830078 0,12.576 7.755594,35.585938 33.183594,35.585938 14.787,0 17.916015,-8.302735 17.916015,-8.302735 h 5.085938 V 99.933594 H 61.388672 C 28.214672,99.933594 9.75,73.974047 9.75,55.248047 c 0,-28.719 24.966906,-44.652344 47.628906,-44.652344 z m 283.345704,0.150391 c 21.942,0 35.1875,16.769531 35.1875,16.769531 l -15.11328,15.845703 c 0,0 -0.80456,0.402344 -1.47656,0.402344 -0.663,0 -1.59961,-0.671875 -1.59961,-0.671875 l -1.87696,-1.607422 c 0,0 -0.53515,-0.124203 -0.53515,-0.658203 0,-0.54 1.46679,-1.887016 1.46679,-4.416016 0,-2.544 -0.52751,-13.115234 -16.85351,-13.115234 -16.326,0 -23.54688,15.245219 -23.54688,27.824219 0,12.57 7.76055,35.589843 33.18555,35.589843 14.787,0 17.92188,-8.298828 17.92188,-8.298828 h 5.08593 v 21.669924 h -27.83398 c -33.171,0 -51.63867,-25.946643 -51.63867,-44.681642 0,-28.71 24.96495,-44.652344 47.62695,-44.652344 z m -201.33594,2.234375 h 22.875 l 27.82813,72.78125 c 0.798,1.998 2.13961,3.880562 3.47461,5.476562 1.332,1.608 4.54492,2.685547 4.54492,2.685547 v 6.279292 h -33.57031 v -6.419917 c 0,0 2.13693,0.275531 3.21093,-1.605469 1.068,-1.872 1.06753,-3.341937 0.26953,-5.210937 -0.804,-1.878 -6.43554,-16.724609 -6.43554,-16.724609 h -27.41992 c 0,0 -5.61325,14.982312 -6.15625,16.320312 -0.534,1.335 -0.534,3.478547 0,4.810547 0.891,2.226 4.01757,2.554687 4.01757,2.554687 v 6.277346 h -26.89453 v -6.277346 c 0,0 2.4433,-0.843547 4.2793,-2.685546 2.007,-2.004001 2.67383,-4.146485 2.67383,-4.146485 z m 69.42969,0 h 42.81055 c 15.786,0 31.56445,5.612687 31.56445,23.804687 0,18.195 -11.50144,24.624781 -21.39844,29.175782 -11.43,5.246999 -26.48633,9.363281 -26.48633,9.363281 v 13.910156 c 0,0 0.13375,0.940203 1.46875,2.533203 1.338,1.608 2.8125,2.011719 2.8125,2.011719 v 6.419923 h -31.03906 v -6.275392 c 0,0 1.8698,-0.408094 3.2168,-1.746094 1.329,-1.338 1.60156,-2.943359 1.60156,-2.943359 V 26.355469 c 0,0 0.12345,-2.680188 -0.93555,-3.742188 -1.068,-1.08 -3.61523,-2.546875 -3.61523,-2.546875 z m 339.53711,0 h 33.30859 v 5.214843 c 0,0 -2.21717,0.936579 -3.20117,2.142579 -1.203,1.473 -1.20345,2.5365 -0.93945,4.6875 0.267,2.133 8.8257,60.197843 9.0957,62.339843 0.273,2.142 0.53436,3.34536 1.06836,4.81836 0.534,1.458 3.08203,2.669922 3.08203,2.669922 v 5.398434 h -31.98047 v -5.796872 c 0,0 2.80891,-0.398187 3.75391,-1.742187 0.936,-1.341 1.33041,-2.14225 1.06641,-4.28125 -0.27,-2.139 -7.88868,-50.835938 -7.88868,-50.835938 l -13.91406,43.078125 h -16.85742 l -13.78516,-40.410156 -6.95312,47.630859 c 0,0 -0.27127,2.857969 0.80273,4.417969 1.47,2.142 4.15625,2.142578 4.15625,2.142578 v 5.748042 h -27.70508 v -6.144526 c 0,0 2.2066,-0.33775 3.8086,-2.21875 1.602,-1.866 1.875,-4.28125 1.875,-4.28125 L 497.25391,24.75 c 0,0 0.60559,-2.348156 -0.0664,-3.410156 -0.705,-1.128 -4.48633,-2.076172 -4.48633,-2.076172 v -6.228516 h 31.84571 l 11.50585,35.53125 z M 430.09766,24.216797 c -10.971,0 -25.69141,6.412422 -25.69141,32.107422 0,25.689 13.10941,32.107422 25.69141,32.107422 12.567,0 25.95312,-8.026422 25.95312,-32.107422 0,-24.078 -14.98512,-32.107422 -25.95312,-32.107422 z M 243.5293,25.101562 c -4.42125,0.122081 -7.95703,0.986329 -7.95703,0.986329 v 37.1875 c 0,0 25.15234,-10.426532 25.15234,-25.144532 0,-11.371875 -9.82656,-13.232763 -17.19531,-13.029297 z m -96.24805,6.072266 -8.56641,25.417969 h 17.66407 z M 68.607422,118.39453 c -12.483,0 -22.59961,10.11661 -22.59961,22.59961 v 3.50977 c 0,12.477 10.11661,22.5957 22.59961,22.5957 H 531.39258 c 12.483,0 22.59961,-10.1187 22.59961,-22.5957 v -3.50977 c 0,-12.483 -10.11661,-22.59961 -22.59961,-22.59961 z M 262.4375,131.53516 c 1.425,0 2.8308,0.14001 4.2168,0.41601 1.395,0.273 2.60514,0.61816 3.61914,1.03516 l -2.35156,3.86719 c -0.453,-0.228 -0.93999,-0.43796 -1.45899,-0.62696 -1.257,-0.474 -2.54628,-0.71094 -3.86328,-0.71094 -0.468,0 -0.93449,0.0326 -1.39649,0.10157 -0.456,0.057 -0.89626,0.17861 -1.32226,0.34961 -0.378,0.147 -0.70161,0.36797 -0.97461,0.66797 -0.27,0.291 -0.4082,0.62395 -0.4082,1.00195 0,0.573 0.21929,1.01522 0.65429,1.32422 0.438,0.303 1.26171,0.57808 2.47071,0.83008 0.795,0.162 1.5542,0.32056 2.2832,0.47656 0.738,0.156 1.52719,0.36867 2.36719,0.63867 1.659,0.543 2.88406,1.28756 3.66406,2.22656 0.795,0.93 1.19336,2.13972 1.19336,3.63672 0,2.127 -0.90975,3.86317 -2.71875,5.20117 -1.803,1.326 -4.25256,1.99024 -7.35156,1.99024 -1.797,0 -3.36032,-0.1548 -4.69532,-0.4668 -1.329,-0.321 -2.57728,-0.71908 -3.73828,-1.20508 l 1.79102,-4.18164 c 0.702,0.402 1.9015,0.84224 2.6875,1.11524 1.431,0.495 2.808,0.74218 4.125,0.74218 0.342,0 0.78289,-0.0309 1.33789,-0.0879 0.552,-0.06 1.00551,-0.15301 1.35352,-0.29101 0.42599,-0.174 0.77387,-0.39225 1.04687,-0.65625 0.282,-0.258 0.41992,-0.64821 0.41992,-1.15821 0,-0.474 -0.20437,-0.8817 -0.60937,-1.2207 -0.399,-0.348 -0.98382,-0.61973 -1.75782,-0.80273 -0.816,-0.192 -1.67589,-0.37407 -2.58789,-0.53907 -0.9,-0.174 -1.74992,-0.38939 -2.54492,-0.65039 -1.821,-0.594 -3.13545,-1.39043 -3.93945,-2.39843 -0.792,-1.02 -1.18945,-2.27525 -1.18945,-3.78125 0,-2.013 0.90012,-3.65574 2.70312,-4.92774 1.812,-1.281 4.13961,-1.91601 6.97461,-1.91601 z m 52.60547,0 c 1.425,0 2.83184,0.14001 4.21484,0.41601 1.398,0.273 2.60319,0.61816 3.61719,1.03516 l -2.34961,3.86719 c -0.453,-0.228 -0.93908,-0.43796 -1.45508,-0.62696 -1.26,-0.474 -2.54914,-0.71094 -3.86914,-0.71094 -0.465,0 -0.93058,0.0326 -1.39258,0.10157 -0.456,0.057 -0.89626,0.17861 -1.32226,0.34961 -0.378,0.147 -0.70461,0.36797 -0.97461,0.66797 -0.273,0.291 -0.4082,0.62395 -0.4082,1.00195 0,0.573 0.21929,1.01522 0.65429,1.32422 0.438,0.303 1.25975,0.57808 2.46875,0.83008 0.798,0.162 1.55916,0.32056 2.28516,0.47656 0.735,0.156 1.52719,0.36867 2.36719,0.63867 1.659,0.543 2.88106,1.28756 3.66406,2.22656 0.795,0.93 1.18945,2.13972 1.18945,3.63672 0,2.127 -0.90584,3.86317 -2.71484,5.20117 -1.803,1.326 -4.25647,1.99024 -7.35547,1.99024 -1.791,0 -3.35731,-0.1548 -4.69531,-0.4668 -1.329,-0.321 -2.57338,-0.71908 -3.73438,-1.20508 l 1.79102,-4.18164 c 0.702,0.402 1.90059,0.84224 2.68359,1.11524 1.434,0.495 2.81281,0.74218 4.13281,0.74218 0.339,0 0.78199,-0.0309 1.33399,-0.0879 0.552,-0.06 1.00251,-0.15301 1.35351,-0.29101 0.426,-0.174 0.77388,-0.39225 1.04688,-0.65625 0.282,-0.258 0.41992,-0.64821 0.41992,-1.15821 0,-0.474 -0.20333,-0.8817 -0.61133,-1.2207 -0.396,-0.348 -0.98576,-0.61973 -1.75976,-0.80273 -0.813,-0.192 -1.67394,-0.37407 -2.58594,-0.53907 -0.903,-0.174 -1.74888,-0.38939 -2.54688,-0.65039 -1.818,-0.594 -3.13154,-1.39043 -3.93554,-2.39843 -0.795,-1.02 -1.19336,-2.27525 -1.19336,-3.78125 0,-2.013 0.90208,-3.65574 2.70508,-4.92774 1.812,-1.281 4.13856,-1.91601 6.97656,-1.91601 z m -183.51758,0.7832 h 9.1875 c 1.374,0 2.5347,0.12028 3.4707,0.36328 0.951,0.231 1.78963,0.58355 2.51563,1.06055 0.873,0.573 1.53423,1.30536 1.99023,2.19336 0.468,0.891 0.69922,1.96489 0.69922,3.21289 0,0.969 -0.17076,1.91961 -0.50976,2.84961 -0.339,0.921 -0.82313,1.69917 -1.45313,2.32617 -0.861,0.852 -1.82758,1.49755 -2.89258,1.93555 -1.056,0.435 -2.37303,0.65234 -3.95703,0.65234 h -3.4707 v 7.04883 h -5.58008 z m 27.35547,0 h 5.58008 v 17.45703 h 10.03125 v 4.18555 h -15.61133 z m 34.98242,0 h 6.42969 l 9.87109,21.64258 h -5.77148 l -1.84766,-4.375 h -10.97656 l -1.95313,4.375 h -5.625 z m 15.16211,0 h 6.33789 l 5.10352,8.36914 4.86523,-8.36914 h 6.13867 l -8.33008,13.27148 v 8.3711 h -5.58398 v -8.10938 z m 68.48633,0 h 6.33984 l 5.09961,8.36914 4.8711,-8.36914 h 6.13281 l -8.32813,13.27148 v 8.3711 h -5.58593 v -8.10938 z m 53.4414,0 h 19.10157 v 4.18555 h -6.75781 v 17.45703 h -5.58008 v -17.45703 h -6.76368 z m 26.18165,0 h 16.64648 v 4.18555 H 362.6875 v 3.73437 h 10.36914 v 4.18555 H 362.6875 v 5.35156 h 11.09375 v 4.18555 h -16.64648 z m 26.32812,0 h 5.44141 l 7.9414,14.95703 7.92969,-14.95703 h 5.43945 l 0.79493,21.64258 h -5.85157 l -0.49804,-10.43164 -6.03907,10.42773 h -3.85156 l -6.04492,-10.42773 -0.49414,10.43164 h -5.55859 z m 46.5293,0.0527 h 5.83008 1.56054 5.82813 v 1.15235 h -0.0293 c -0.096,0 -4.4082,0.0786 -4.4082,1.89062 v 15.5586 c 0,1.044 1.9662,1.88281 4.4082,1.88281 h 0.0293 v 1.15234 h -5.82813 -1.56054 -5.83008 v -1.15234 h 0.0312 c 2.439,0 4.40429,-0.83881 4.40429,-1.88281 v -15.5586 c 0,-1.812 -4.30829,-1.89062 -4.40429,-1.89062 h -0.0312 z m 13.22851,0 h 5.82618 1.55859 5.83008 v 1.15235 h -0.0312 c -0.096,0 -4.40235,0.0786 -4.40235,1.89062 v 15.5586 c 0,1.044 1.96335,1.88281 4.40235,1.88281 h 0.0312 v 1.15234 h -5.83008 -1.55859 -5.82618 v -1.15234 h 0.0293 c 2.439,0 4.4043,-0.83881 4.4043,-1.88281 v -15.5586 c 0,-1.812 -4.3083,-1.89062 -4.4043,-1.89062 h -0.0293 z m 13.22266,0 h 5.83008 1.55859 5.82617 v 1.15235 h -0.0254 c -0.099,0 -4.4082,0.0786 -4.4082,1.89062 v 15.5586 c 0,1.044 1.9662,1.88281 4.4082,1.88281 h 0.0254 v 1.15234 h -5.82617 -1.55859 -5.83008 v -1.15234 h 0.0312 c 2.442,0 4.4043,-0.83881 4.4043,-1.88281 v -15.5586 c 0,-1.812 -4.3083,-1.89062 -4.4043,-1.89062 h -0.0312 z m -319.33789,3.98829 v 6.48242 h 1.59961 c 0.951,0 1.72784,-0.0598 2.33984,-0.17383 0.618,-0.117 1.13664,-0.34822 1.55664,-0.69922 0.357,-0.309 0.61249,-0.67752 0.77149,-1.10352 0.162,-0.438 0.24609,-0.96598 0.24609,-1.58398 0,-0.609 -0.16909,-1.13336 -0.49609,-1.56836 -0.33,-0.447 -0.71344,-0.75959 -1.14844,-0.93359 -0.582,-0.234 -1.14813,-0.35791 -1.70313,-0.37891 -0.546,-0.027 -1.28407,-0.041 -2.20507,-0.041 z m 59.89844,1.5 -3.83985,7.75781 h 7.71289 z"
       id="rect4789"
       inkscape:connector-curvature="0" />
  </g>
</svg>
