<?xml version="1.0" encoding="UTF-8" standalone="no"?>
<svg
   xmlns:dc="http://purl.org/dc/elements/1.1/"
   xmlns:cc="http://creativecommons.org/ns#"
   xmlns:rdf="http://www.w3.org/1999/02/22-rdf-syntax-ns#"
   xmlns:svg="http://www.w3.org/2000/svg"
   xmlns="http://www.w3.org/2000/svg"
   id="svg7802"
   version="1.1"
   viewBox="0 0 149.75416 24.341667"
   height="92"
   width="566">
  <defs
     id="defs7796" />
  <metadata
     id="metadata7799">
    <rdf:RDF>
      <cc:Work
         rdf:about="">
        <dc:format>image/svg+xml</dc:format>
        <dc:type
           rdf:resource="http://purl.org/dc/dcmitype/StillImage" />
        <dc:title></dc:title>
      </cc:Work>
    </rdf:RDF>
  </metadata>
  <g
     transform="translate(0,-272.65832)"
     id="layer1">
    <g
       style="fill:#ffffff"
       id="g8394"
       transform="matrix(0.49294396,0,0,0.46899902,4.5735108,270.51352)">
      <path
         style="fill:#ffffff"
         id="path8390"
         d="m 30,20.5 c -6.617,0 -12,5.383 -12,12 0,6.617 5.383,12 12,12 6.617,0 12,-5.383 12,-12 0,-6.617 -5.383,-12 -12,-12 z" />
      <path
         style="fill:#ffffff"
         id="path8392"
         d="m 55.201,15.5 h -8.524 l -4,-10 H 17.323 l -4,10 H 12 v -5 H 6 v 5 H 4.799 C 2.152,15.5 0,17.652 0,20.299 V 49.667 C 0,52.332 2.168,54.5 4.833,54.5 H 55.167 C 57.832,54.5 60,52.332 60,49.667 V 20.299 C 60,17.652 57.848,15.5 55.201,15.5 Z M 10,15.5 H 8 v -3 h 2 z m 20,35 c -9.925,0 -18,-8.075 -18,-18 0,-9.925 8.075,-18 18,-18 9.925,0 18,8.075 18,18 0,9.925 -8.075,18 -18,18 z m 22,-23 c -2.206,0 -4,-1.794 -4,-4 0,-2.206 1.794,-4 4,-4 2.206,0 4,1.794 4,4 0,2.206 -1.794,4 -4,4 z" />
    </g>
    <text
       id="text9037"
       y="288.11755"
       x="127"
       style="font-style:normal;font-weight:normal;font-size:10.58333302px;line-height:1.25;font-family:sans-serif;letter-spacing:0px;word-spacing:0px;fill:#000000;fill-opacity:1;stroke:none;stroke-width:0.26458332"
       xml:space="preserve"><tspan
         style="stroke-width:0.26458332"
         y="297.48132"
         x="127"
         id="tspan9035" /></text>
    <g
       id="text9608"
       style="font-style:normal;font-weight:normal;font-size:10.58333302px;line-height:1.25;font-family:sans-serif;letter-spacing:0px;word-spacing:0px;fill:#ffffff;fill-opacity:1;stroke:none;stroke-width:0.26458332"
       aria-label="Screenshots">
      <path
         id="path5120"
         style="font-style:normal;font-variant:normal;font-weight:600;font-stretch:normal;font-size:14.11111069px;font-family:'Lucida Bright';-inkscape-font-specification:'Lucida Bright, Semi-Bold';font-variant-ligatures:normal;font-variant-caps:normal;font-variant-numeric:normal;font-feature-settings:normal;text-align:start;writing-mode:lr-tb;text-anchor:start;fill:#ffffff;stroke-width:0.26458332"
         d="m 51.213005,281.52893 q 0,1.51584 -1.288465,2.46669 -1.281576,0.94396 -3.486437,0.94396 -1.274685,0 -2.225532,-0.22049 -0.943956,-0.22738 -1.770779,-0.57189 v -2.45979 h 0.289388 q 0.819933,0.65456 1.832791,1.00596 1.019748,0.3514 1.956814,0.3514 0.241157,0 0.633898,-0.0413 0.392741,-0.0413 0.640788,-0.1378 0.303168,-0.12403 0.496093,-0.31006 0.199816,-0.18604 0.199816,-0.55122 0,-0.33762 -0.289388,-0.57877 -0.282498,-0.24805 -0.833713,-0.37896 -0.578776,-0.13781 -1.226454,-0.25494 -0.640788,-0.12402 -1.205784,-0.31006 -1.295355,-0.4203 -1.867241,-1.13688 -0.564996,-0.72347 -0.564996,-1.79145 0,-1.43316 1.281576,-2.33577 1.288465,-0.90951 3.307291,-0.90951 1.012858,0 1.998155,0.19982 0.992188,0.19292 1.715658,0.4892 v 2.36334 h -0.282498 q -0.620117,-0.4961 -1.522732,-0.82683 -0.895725,-0.33762 -1.832791,-0.33762 -0.330729,0 -0.661458,0.0482 -0.323839,0.0414 -0.627007,0.16537 -0.268718,0.10335 -0.461643,0.31695 -0.192926,0.2067 -0.192926,0.47542 0,0.40652 0.310059,0.62701 0.310059,0.21359 1.171332,0.39274 0.564996,0.11713 1.08176,0.22738 0.523655,0.11024 1.123101,0.30316 1.178223,0.38585 1.736329,1.0542 0.564995,0.66146 0.564995,1.72255 z" />
      <path
         id="path5122"
         style="font-style:normal;font-variant:normal;font-weight:600;font-stretch:normal;font-size:14.11111069px;font-family:'Lucida Bright';-inkscape-font-specification:'Lucida Bright, Semi-Bold';font-variant-ligatures:normal;font-variant-caps:normal;font-variant-numeric:normal;font-feature-settings:normal;text-align:start;writing-mode:lr-tb;text-anchor:start;fill:#ffffff;stroke-width:0.26458332"
         d="m 56.924973,284.96025 q -1.012858,0 -1.853461,-0.24116 -0.833713,-0.24116 -1.45383,-0.74414 -0.613227,-0.50299 -0.950846,-1.2678 -0.33762,-0.76481 -0.33762,-1.79145 0,-1.08176 0.35829,-1.86724 0.36518,-0.78548 1.012858,-1.30224 0.627008,-0.48921 1.44694,-0.71658 0.819933,-0.22738 1.701877,-0.22738 0.792372,0 1.460721,0.17225 0.668348,0.17226 1.247124,0.44787 v 2.11529 h -0.351399 q -0.144694,-0.12403 -0.3514,-0.28939 -0.199816,-0.16537 -0.496094,-0.32384 -0.282498,-0.15159 -0.620117,-0.24805 -0.337619,-0.10335 -0.785482,-0.10335 -0.992187,0 -1.529622,0.6339 -0.530545,0.627 -0.530545,1.70876 0,1.11621 0.544325,1.69499 0.551215,0.57878 1.557183,0.57878 0.468533,0 0.840604,-0.10336 0.37896,-0.11024 0.627007,-0.25493 0.234266,-0.13781 0.413411,-0.28939 0.179145,-0.15159 0.33073,-0.29628 h 0.351399 v 2.11529 q -0.585666,0.27561 -1.226454,0.43408 -0.633897,0.16537 -1.405599,0.16537 z" />
      <path
         id="path5124"
         style="font-style:normal;font-variant:normal;font-weight:600;font-stretch:normal;font-size:14.11111069px;font-family:'Lucida Bright';-inkscape-font-specification:'Lucida Bright, Semi-Bold';font-variant-ligatures:normal;font-variant-caps:normal;font-variant-numeric:normal;font-feature-settings:normal;text-align:start;writing-mode:lr-tb;text-anchor:start;fill:#ffffff;stroke-width:0.26458332"
         d="m 66.798617,279.37919 h -0.220486 q -0.158475,-0.0551 -0.509874,-0.0827 -0.3514,-0.0276 -0.585667,-0.0276 -0.530544,0 -0.937066,0.0689 -0.406521,0.0689 -0.875054,0.23427 v 5.18142 h -2.480468 v -7.73768 h 2.480468 v 1.13688 q 0.819933,-0.7028 1.42627,-0.93018 0.606337,-0.23426 1.116211,-0.23426 0.130913,0 0.296278,0.007 0.165364,0.007 0.289388,0.0207 z" />
      <path
         id="path5126"
         style="font-style:normal;font-variant:normal;font-weight:600;font-stretch:normal;font-size:14.11111069px;font-family:'Lucida Bright';-inkscape-font-specification:'Lucida Bright, Semi-Bold';font-variant-ligatures:normal;font-variant-caps:normal;font-variant-numeric:normal;font-feature-settings:normal;text-align:start;writing-mode:lr-tb;text-anchor:start;fill:#ffffff;stroke-width:0.26458332"
         d="M 75.838547,281.3429 H 70.16103 q 0.05512,0.9095 0.689019,1.39181 0.640787,0.48232 1.881022,0.48232 0.785481,0 1.522732,-0.2825 0.73725,-0.2825 1.164442,-0.60634 h 0.275608 v 1.99127 q -0.840604,0.33762 -1.584744,0.4892 -0.744141,0.15159 -1.646756,0.15159 -2.328884,0 -3.569119,-1.04731 -1.240234,-1.04731 -1.240234,-2.98346 0,-1.91547 1.171333,-3.03168 1.178222,-1.1231 3.224609,-1.1231 1.887912,0 2.838758,0.95774 0.950847,0.95084 0.950847,2.74229 z m -2.466689,-1.45383 q -0.02067,-0.7786 -0.38585,-1.17134 -0.36518,-0.39274 -1.136882,-0.39274 -0.71658,0 -1.178222,0.37207 -0.461643,0.37207 -0.516765,1.19201 z" />
      <path
         id="path5128"
         style="font-style:normal;font-variant:normal;font-weight:600;font-stretch:normal;font-size:14.11111069px;font-family:'Lucida Bright';-inkscape-font-specification:'Lucida Bright, Semi-Bold';font-variant-ligatures:normal;font-variant-caps:normal;font-variant-numeric:normal;font-feature-settings:normal;text-align:start;writing-mode:lr-tb;text-anchor:start;fill:#ffffff;stroke-width:0.26458332"
         d="M 85.209207,281.3429 H 79.53169 q 0.05512,0.9095 0.689019,1.39181 0.640788,0.48232 1.881022,0.48232 0.785482,0 1.522733,-0.2825 0.73725,-0.2825 1.164442,-0.60634 h 0.275607 v 1.99127 q -0.840603,0.33762 -1.584743,0.4892 -0.744141,0.15159 -1.646756,0.15159 -2.328884,0 -3.569119,-1.04731 -1.240234,-1.04731 -1.240234,-2.98346 0,-1.91547 1.171332,-3.03168 1.178223,-1.1231 3.22461,-1.1231 1.887912,0 2.838758,0.95774 0.950846,0.95084 0.950846,2.74229 z m -2.466688,-1.45383 q -0.02067,-0.7786 -0.38585,-1.17134 -0.365181,-0.39274 -1.136882,-0.39274 -0.71658,0 -1.178223,0.37207 -0.461642,0.37207 -0.516764,1.19201 z" />
      <path
         id="path5130"
         style="font-style:normal;font-variant:normal;font-weight:600;font-stretch:normal;font-size:14.11111069px;font-family:'Lucida Bright';-inkscape-font-specification:'Lucida Bright, Semi-Bold';font-variant-ligatures:normal;font-variant-caps:normal;font-variant-numeric:normal;font-feature-settings:normal;text-align:start;writing-mode:lr-tb;text-anchor:start;fill:#ffffff;stroke-width:0.26458332"
         d="m 94.731451,284.75354 h -2.49425 v -3.83784 q 0,-0.46853 -0.04823,-0.93017 -0.04823,-0.46853 -0.165364,-0.68902 -0.137804,-0.25494 -0.406522,-0.37207 -0.261827,-0.11713 -0.73725,-0.11713 -0.337619,0 -0.689019,0.11024 -0.34451,0.11024 -0.751031,0.3514 v 5.48459 h -2.480469 v -7.73768 h 2.480469 v 0.85438 q 0.661458,-0.51676 1.267795,-0.79237 0.613227,-0.27561 1.357368,-0.27561 1.254014,0 1.956814,0.73036 0.70969,0.73036 0.70969,2.18419 z" />
      <path
         id="path5132"
         style="font-style:normal;font-variant:normal;font-weight:600;font-stretch:normal;font-size:14.11111069px;font-family:'Lucida Bright';-inkscape-font-specification:'Lucida Bright, Semi-Bold';font-variant-ligatures:normal;font-variant-caps:normal;font-variant-numeric:normal;font-feature-settings:normal;text-align:start;writing-mode:lr-tb;text-anchor:start;fill:#ffffff;stroke-width:0.26458332"
         d="m 103.74382,282.30063 q 0,1.1989 -1.07487,1.93615 -1.07487,0.73036 -2.942113,0.73036 -1.033528,0 -1.874131,-0.19293 -0.840604,-0.19292 -1.350478,-0.42719 v -2.0395 h 0.227376 q 0.186036,0.13092 0.427192,0.28939 0.248047,0.15158 0.69591,0.33073 0.38585,0.15847 0.875054,0.27561 0.489203,0.11024 1.047309,0.11024 0.730361,0 1.081761,-0.15847 0.3514,-0.16537 0.3514,-0.48232 0,-0.2825 -0.20671,-0.40652 -0.2067,-0.13091 -0.78548,-0.24805 -0.275607,-0.062 -0.75103,-0.13091 -0.468533,-0.0758 -0.854383,-0.17914 -1.0542,-0.27561 -1.564074,-0.85439 -0.509874,-0.58566 -0.509874,-1.45383 0,-1.11621 1.054199,-1.85346 1.06109,-0.74414 2.893882,-0.74414 0.86816,0 1.66053,0.17914 0.79927,0.17226 1.24713,0.37208 v 1.95681 h -0.2136 q -0.55121,-0.37896 -1.2609,-0.61323 -0.7028,-0.24115 -1.42627,-0.24115 -0.599448,0 -1.012859,0.16536 -0.406522,0.16536 -0.406522,0.46853 0,0.27561 0.186035,0.4203 0.186036,0.1447 0.875056,0.28939 0.37896,0.0758 0.81304,0.15159 0.44097,0.0689 0.88195,0.17914 0.9784,0.25494 1.44694,0.80615 0.46853,0.54433 0.46853,1.36426 z" />
      <path
         id="path5134"
         style="font-style:normal;font-variant:normal;font-weight:600;font-stretch:normal;font-size:14.11111069px;font-family:'Lucida Bright';-inkscape-font-specification:'Lucida Bright, Semi-Bold';font-variant-ligatures:normal;font-variant-caps:normal;font-variant-numeric:normal;font-feature-settings:normal;text-align:start;writing-mode:lr-tb;text-anchor:start;fill:#ffffff;stroke-width:0.26458332"
         d="m 113.1696,284.75354 h -2.49425 v -3.83784 q 0,-0.46853 -0.0482,-0.93017 -0.0482,-0.46853 -0.16536,-0.68902 -0.13781,-0.25494 -0.40652,-0.37207 -0.26183,-0.11713 -0.73725,-0.11713 -0.33762,0 -0.68902,0.11024 -0.34451,0.11024 -0.75103,0.3514 v 5.48459 h -2.48047 V 274.0324 h 2.48047 v 3.83784 q 0.66145,-0.51676 1.26779,-0.79237 0.61323,-0.27561 1.35737,-0.27561 1.25401,0 1.95681,0.73036 0.70969,0.73036 0.70969,2.18419 z" />
      <path
         id="path5136"
         style="font-style:normal;font-variant:normal;font-weight:600;font-stretch:normal;font-size:14.11111069px;font-family:'Lucida Bright';-inkscape-font-specification:'Lucida Bright, Semi-Bold';font-variant-ligatures:normal;font-variant-caps:normal;font-variant-numeric:normal;font-feature-settings:normal;text-align:start;writing-mode:lr-tb;text-anchor:start;fill:#ffffff;stroke-width:0.26458332"
         d="m 123.36708,280.88814 q 0,1.90859 -1.11621,3.01102 -1.10932,1.09554 -3.12126,1.09554 -2.01193,0 -3.12814,-1.09554 -1.10932,-1.10243 -1.10932,-3.01102 0,-1.92236 1.11621,-3.0179 1.1231,-1.09554 3.12125,-1.09554 2.02572,0 3.12815,1.10243 1.10932,1.10243 1.10932,3.01101 z m -3.05235,1.88103 q 0.24115,-0.29628 0.35829,-0.70969 0.12402,-0.42031 0.12402,-1.15756 0,-0.68213 -0.12402,-1.14377 -0.12403,-0.46164 -0.34451,-0.73725 -0.22049,-0.2825 -0.53055,-0.39963 -0.31006,-0.11713 -0.66835,-0.11713 -0.35829,0 -0.64079,0.0965 -0.2756,0.0965 -0.53054,0.38585 -0.22738,0.26872 -0.36518,0.73725 -0.13091,0.46853 -0.13091,1.17822 0,0.6339 0.11713,1.10243 0.11713,0.46165 0.34451,0.74414 0.22049,0.26872 0.52365,0.39275 0.31006,0.12402 0.7028,0.12402 0.33762,0 0.64079,-0.11024 0.31006,-0.11714 0.52366,-0.38585 z" />
      <path
         id="path5138"
         style="font-style:normal;font-variant:normal;font-weight:600;font-stretch:normal;font-size:14.11111069px;font-family:'Lucida Bright';-inkscape-font-specification:'Lucida Bright, Semi-Bold';font-variant-ligatures:normal;font-variant-caps:normal;font-variant-numeric:normal;font-feature-settings:normal;text-align:start;writing-mode:lr-tb;text-anchor:start;fill:#ffffff;stroke-width:0.26458332"
         d="m 130.10569,284.68464 q -0.39963,0.10335 -0.84749,0.15847 -0.44786,0.062 -1.09554,0.062 -1.44694,0 -2.15663,-0.58566 -0.7028,-0.58567 -0.7028,-2.00505 v -3.61735 h -1.01975 v -1.6812 h 1.01975 v -2.21176 h 2.48047 v 2.21176 h 2.32199 v 1.6812 h -2.32199 v 2.7423 q 0,0.40652 0.007,0.70969 0.007,0.30317 0.11024,0.54432 0.0965,0.24116 0.33762,0.38585 0.24805,0.13781 0.71658,0.13781 0.19292,0 0.50298,-0.0827 0.31695,-0.0827 0.44098,-0.15159 h 0.2067 z" />
      <path
         id="path5140"
         style="font-style:normal;font-variant:normal;font-weight:600;font-stretch:normal;font-size:14.11111069px;font-family:'Lucida Bright';-inkscape-font-specification:'Lucida Bright, Semi-Bold';font-variant-ligatures:normal;font-variant-caps:normal;font-variant-numeric:normal;font-feature-settings:normal;text-align:start;writing-mode:lr-tb;text-anchor:start;fill:#ffffff;stroke-width:0.26458332"
         d="m 138.30501,282.30063 q 0,1.1989 -1.07487,1.93615 -1.07487,0.73036 -2.94211,0.73036 -1.03353,0 -1.87413,-0.19293 -0.8406,-0.19292 -1.35048,-0.42719 v -2.0395 h 0.22738 q 0.18604,0.13092 0.42719,0.28939 0.24805,0.15158 0.69591,0.33073 0.38585,0.15847 0.87506,0.27561 0.4892,0.11024 1.0473,0.11024 0.73036,0 1.08176,-0.15847 0.3514,-0.16537 0.3514,-0.48232 0,-0.2825 -0.2067,-0.40652 -0.20671,-0.13091 -0.78548,-0.24805 -0.27561,-0.062 -0.75103,-0.13091 -0.46854,-0.0758 -0.85439,-0.17914 -1.0542,-0.27561 -1.56407,-0.85439 -0.50988,-0.58566 -0.50988,-1.45383 0,-1.11621 1.0542,-1.85346 1.06109,-0.74414 2.89388,-0.74414 0.86817,0 1.66054,0.17914 0.79926,0.17226 1.24712,0.37208 v 1.95681 h -0.21359 q -0.55122,-0.37896 -1.26091,-0.61323 -0.7028,-0.24115 -1.42627,-0.24115 -0.59944,0 -1.01285,0.16536 -0.40653,0.16536 -0.40653,0.46853 0,0.27561 0.18604,0.4203 0.18604,0.1447 0.87505,0.28939 0.37896,0.0758 0.81305,0.15159 0.44097,0.0689 0.88194,0.17914 0.97841,0.25494 1.44694,0.80615 0.46853,0.54433 0.46853,1.36426 z" />
    </g>
    <g
       id="text9612"
       style="font-style:normal;font-variant:normal;font-weight:normal;font-stretch:normal;font-size:10.58333302px;line-height:1.25;font-family:'Segoe Script';-inkscape-font-specification:'Segoe Script, Normal';font-variant-ligatures:normal;font-variant-caps:normal;font-variant-numeric:normal;font-feature-settings:normal;text-align:start;letter-spacing:0px;word-spacing:0px;writing-mode:lr-tb;text-anchor:start;fill:#ffffff;fill-opacity:1;stroke:none;stroke-width:0.26458332"
       aria-label="Gallery">
      <path
         id="path5143"
         style="font-style:normal;font-variant:normal;font-weight:normal;font-stretch:normal;font-size:10.58333302px;font-family:'Segoe Script';-inkscape-font-specification:'Segoe Script, Normal';font-variant-ligatures:normal;font-variant-caps:normal;font-variant-numeric:normal;font-feature-settings:normal;text-align:start;writing-mode:lr-tb;text-anchor:start;fill:#ffffff;stroke-width:0.26458332"
         d="m 55.56014,286.6009 q 0,0.23255 -0.129191,0.39791 -0.124024,0.1602 -0.356568,0.1602 -0.08785,0 -0.19637,-0.0775 -0.103353,-0.0827 -0.191203,-0.16019 -0.08268,-0.0827 -0.191203,-0.1447 -0.10852,-0.062 -0.237711,-0.062 -0.63562,0 -1.638143,0.42375 -0.501262,0.21704 -0.935344,0.49609 -0.434082,0.27389 -0.852661,0.62012 -0.418579,0.34623 -0.795817,0.76998 -0.37207,0.41858 -0.65629,0.83715 -0.26355,0.37724 -0.413412,0.91468 -0.139526,0.5271 -0.139526,1.02836 0,0.23771 0.242879,0.49609 0.242879,0.24805 0.501261,0.3204 0.315227,0.0827 0.749309,0.0827 0.325561,0.005 0.697631,-0.0775 0.372071,-0.0879 0.744141,-0.23254 0.37207,-0.14986 0.72347,-0.3359 0.3514,-0.1912 0.640788,-0.39791 0.103353,-0.0827 0.217041,-0.1912 0.118856,-0.11369 0.237711,-0.26355 0.124024,-0.14986 0.206706,-0.27905 0.08785,-0.12919 0.139527,-0.24288 0.03617,-0.0517 0.03617,-0.13436 0,-0.0775 -0.03617,-0.1912 -0.03101,-0.11886 -0.03101,-0.1912 0,-0.19121 0.465088,-0.19121 0.144694,0 0.434082,0.21704 0.289388,0.21704 0.289388,0.3359 0,0.0155 -0.320394,0.65629 -0.160197,0.32039 -0.248047,0.49609 -0.08268,0.1757 -0.09819,0.21188 -0.08785,0.20154 -0.1757,0.45475 -0.08785,0.24805 -0.1757,0.55294 -0.180868,0.61495 -0.180868,0.87333 -0.01034,0.0568 0.01034,0.10852 0.02584,0.0568 0.05168,0.0982 0.03101,0.0465 0.05684,0.0775 0.03101,0.0362 0.03101,0.0465 0,0.12402 -0.04651,0.22738 -0.04134,0.10852 -0.118856,0.18603 -0.07235,0.0827 -0.180867,0.12919 -0.103353,0.0465 -0.227376,0.0465 -0.268718,0 -0.361735,-0.18603 -0.09302,-0.18087 -0.09302,-0.49093 0,-0.0827 0.0052,-0.1602 0.01033,-0.0775 0.02067,-0.15503 0.03101,-0.16019 0.07752,-0.35656 0.02584,-0.0982 0.04651,-0.17054 0.02067,-0.0775 0.03101,-0.12919 0.07235,-0.28939 0.07235,-0.39274 0,-0.0517 -0.02067,-0.0517 -0.108521,0 -0.676961,0.28422 -0.289388,0.13952 -0.465088,0.2222 -0.170532,0.0827 -0.232544,0.10852 -0.89917,0.36691 -1.694987,0.36691 -0.511597,0 -1.080037,-0.20671 -0.578776,-0.21187 -0.971517,-0.60461 -0.392741,-0.39791 -0.392741,-0.91984 0,-1.52963 1.410766,-3.16777 0.620118,-0.7183 1.209229,-1.21439 0.578776,-0.4806 1.415934,-0.90951 0.134359,-0.0723 0.304891,-0.14469 0.170532,-0.0775 0.377238,-0.15503 0.418579,-0.1602 0.83199,-0.27906 0.413412,-0.11885 0.769979,-0.16536 0.222209,-0.031 0.666626,-0.031 0.160197,-0.005 0.315226,0.062 0.15503,0.062 0.273886,0.18086 0.118855,0.11369 0.191202,0.26355 0.07235,0.14986 0.06718,0.31006 z" />
      <path
         id="path5145"
         style="font-style:normal;font-variant:normal;font-weight:normal;font-stretch:normal;font-size:10.58333302px;font-family:'Segoe Script';-inkscape-font-specification:'Segoe Script, Normal';font-variant-ligatures:normal;font-variant-caps:normal;font-variant-numeric:normal;font-feature-settings:normal;text-align:start;writing-mode:lr-tb;text-anchor:start;fill:#ffffff;stroke-width:0.26458332"
         d="m 64.231445,290.19241 q 0,0.062 -0.0155,0.14987 -0.0155,0.0827 -0.04651,0.17053 -0.02584,0.0879 -0.06201,0.17053 -0.03101,0.0775 -0.06718,0.12402 -0.03101,0.0413 -0.09302,0.11369 -0.05684,0.0672 -0.129191,0.14986 -0.07235,0.0827 -0.160197,0.1757 -0.08268,0.0879 -0.1757,0.17053 -0.320394,0.29456 -0.630453,0.57361 -0.304891,0.27389 -0.630452,0.48576 -0.325562,0.21188 -0.682129,0.34107 -0.3514,0.12402 -0.764811,0.11885 -0.191203,0 -0.387573,-0.0672 -0.191203,-0.0723 -0.361735,-0.20154 -0.170533,-0.12919 -0.294556,-0.31005 -0.124023,-0.18087 -0.1757,-0.39791 -0.149862,0.15503 -0.315226,0.32556 -0.165365,0.16536 -0.346232,0.3359 -0.1757,0.17053 -0.366903,0.33072 -0.191203,0.1602 -0.392741,0.29456 -0.113688,0.0724 -0.273885,0.15503 -0.155029,0.0827 -0.330729,0.15503 -0.170532,0.0672 -0.346232,0.11369 -0.170532,0.0413 -0.310059,0.0413 -0.211873,0 -0.366902,-0.12919 -0.149862,-0.13436 -0.253215,-0.32556 -0.09819,-0.19121 -0.149861,-0.40825 -0.04651,-0.21704 -0.04651,-0.38757 0,-0.34107 0.09818,-0.69763 0.09819,-0.35657 0.253214,-0.69247 0.160197,-0.34106 0.3514,-0.64595 0.196371,-0.30489 0.382406,-0.54261 0.19637,-0.24804 0.465088,-0.49092 0.268717,-0.24805 0.558105,-0.43925 0.289388,-0.19637 0.568441,-0.31523 0.279053,-0.11885 0.496094,-0.11885 0.10852,0 0.227376,0 0.124023,0 0.242879,0.0155 0.118856,0.0103 0.232544,0.0413 0.113688,0.0258 0.206706,0.0827 0.04651,0.031 0.10852,0.11886 0.06201,0.0879 0.113688,0.19637 0.05684,0.10852 0.09302,0.21704 0.03617,0.10852 0.03617,0.17053 0,0.17054 -0.07751,0.45476 -0.08268,0.35656 -0.155029,0.65112 -0.06718,0.28939 -0.06718,0.59945 0,0.17569 0.05684,0.36173 0.05684,0.18087 0.160197,0.33073 0.108521,0.14986 0.258382,0.24805 0.15503,0.093 0.346232,0.093 0.315227,0 0.645956,-0.12919 0.330729,-0.13436 0.666626,-0.36173 0.341064,-0.23255 0.676961,-0.53227 0.335897,-0.30489 0.661458,-0.64595 0.02584,-0.031 0.08785,-0.10336 0.06718,-0.0775 0.134359,-0.14986 0.07235,-0.0775 0.139526,-0.13436 0.06718,-0.062 0.09819,-0.062 0.10852,0 0.10852,0.21187 z m -4.599202,-0.42891 q 0,-0.0879 -0.01034,-0.21704 -0.01033,-0.12919 -0.06718,-0.21188 -0.05684,-0.0827 -0.139526,-0.0775 -0.08268,0 -0.165365,0 -0.180867,0 -0.3514,0.0568 -0.165364,0.0568 -0.325561,0.1602 -0.160197,0.0982 -0.310059,0.23254 -0.144694,0.1292 -0.28422,0.27389 -0.118856,0.11886 -0.253215,0.29456 -0.129191,0.1757 -0.258382,0.38757 -0.124023,0.2067 -0.242879,0.43925 -0.118856,0.22737 -0.206706,0.45475 -0.08785,0.22221 -0.139526,0.43408 -0.05168,0.20671 -0.05168,0.37724 0,0.0517 0.01033,0.13953 0.0155,0.0827 0.04134,0.16536 0.03101,0.0775 0.07751,0.13436 0.05168,0.0568 0.124023,0.0568 0.237712,0 0.594279,-0.14986 0.485758,-0.2067 0.878499,-0.56327 0.397909,-0.36173 0.676962,-0.83199 0.403076,-0.72864 0.403076,-1.55546 z" />
      <path
         id="path5147"
         style="font-style:normal;font-variant:normal;font-weight:normal;font-stretch:normal;font-size:10.58333302px;font-family:'Segoe Script';-inkscape-font-specification:'Segoe Script, Normal';font-variant-ligatures:normal;font-variant-caps:normal;font-variant-numeric:normal;font-feature-settings:normal;text-align:start;writing-mode:lr-tb;text-anchor:start;fill:#ffffff;stroke-width:0.26458332"
         d="m 68.644612,290.57999 q 0,0.24288 -0.294555,0.75964 -0.05684,0.0982 -0.160197,0.23771 -0.09819,0.13436 -0.222209,0.28422 -0.124023,0.1447 -0.258382,0.29973 -0.134359,0.14986 -0.26355,0.27905 -0.19637,0.19637 -0.434082,0.3824 -0.232544,0.18604 -0.496093,0.3359 -0.258383,0.14986 -0.537435,0.24288 -0.273885,0.0879 -0.542603,0.0879 -0.356567,0 -0.666626,-0.12919 -0.310058,-0.12919 -0.542602,-0.39791 -0.227377,-0.26872 -0.361735,-0.67179 -0.129191,-0.40825 -0.129191,-0.96119 0,-0.37723 0.03617,-0.78548 0.03617,-0.41341 0.09302,-0.82682 0.05684,-0.41341 0.124023,-0.81649 0.07235,-0.40824 0.144694,-0.78548 0.04651,-0.25838 0.07751,-0.42375 0.03617,-0.16536 0.06201,-0.30489 0.02584,-0.13952 0.04651,-0.27905 0.02067,-0.14469 0.05168,-0.35657 0.02067,-0.14469 0.03617,-0.25321 0.02067,-0.11369 0.03101,-0.18604 0.02067,-0.12402 0.06718,-0.23771 0.05168,-0.11369 0.124024,-0.20154 0.07751,-0.0879 0.1757,-0.13952 0.09819,-0.0517 0.217041,-0.0517 0.248047,0 0.366902,0.23254 -0.03101,0.1602 -0.06718,0.31006 -0.03101,0.1447 -0.05684,0.31006 -0.129191,0.65113 -0.211873,1.0542 -0.08268,0.40308 -0.118856,0.56844 -0.06201,0.32556 -0.134359,0.7028 -0.06718,0.37724 -0.129191,0.76998 -0.05684,0.39274 -0.09302,0.77515 -0.03617,0.3824 -0.03617,0.71313 0,0.35657 0.05684,0.65112 0.05684,0.28939 0.180867,0.4961 0.129192,0.2067 0.325562,0.32039 0.201538,0.11369 0.485758,0.11369 0.310059,0 0.609782,-0.13436 0.299724,-0.13952 0.573609,-0.3514 0.279052,-0.21187 0.527099,-0.46509 0.248047,-0.25838 0.454753,-0.49609 0.165364,-0.19637 0.289388,-0.3359 0.124023,-0.14469 0.206706,-0.24288 0.06718,-0.0775 0.149861,-0.16019 0.08785,-0.0827 0.160197,-0.0827 0.08268,0 0.08268,0.14986 z" />
      <path
         id="path5149"
         style="font-style:normal;font-variant:normal;font-weight:normal;font-stretch:normal;font-size:10.58333302px;font-family:'Segoe Script';-inkscape-font-specification:'Segoe Script, Normal';font-variant-ligatures:normal;font-variant-caps:normal;font-variant-numeric:normal;font-feature-settings:normal;text-align:start;writing-mode:lr-tb;text-anchor:start;fill:#ffffff;stroke-width:0.26458332"
         d="m 73.336831,290.57999 q 0,0.24288 -0.294555,0.75964 -0.05684,0.0982 -0.160197,0.23771 -0.09819,0.13436 -0.222209,0.28422 -0.124023,0.1447 -0.258382,0.29973 -0.134359,0.14986 -0.26355,0.27905 -0.19637,0.19637 -0.434082,0.3824 -0.232544,0.18604 -0.496094,0.3359 -0.258382,0.14986 -0.537435,0.24288 -0.273885,0.0879 -0.542602,0.0879 -0.356567,0 -0.666626,-0.12919 -0.310059,-0.12919 -0.542603,-0.39791 -0.227376,-0.26872 -0.361735,-0.67179 -0.129191,-0.40825 -0.129191,-0.96119 0,-0.37723 0.03617,-0.78548 0.03617,-0.41341 0.09302,-0.82682 0.05684,-0.41341 0.124024,-0.81649 0.07235,-0.40824 0.144694,-0.78548 0.04651,-0.25838 0.07751,-0.42375 0.03617,-0.16536 0.06201,-0.30489 0.02584,-0.13952 0.04651,-0.27905 0.02067,-0.14469 0.05168,-0.35657 0.02067,-0.14469 0.03617,-0.25321 0.02067,-0.11369 0.03101,-0.18604 0.02067,-0.12402 0.06718,-0.23771 0.05168,-0.11369 0.124024,-0.20154 0.07751,-0.0879 0.175699,-0.13952 0.09819,-0.0517 0.217041,-0.0517 0.248047,0 0.366903,0.23254 -0.03101,0.1602 -0.06718,0.31006 -0.03101,0.1447 -0.05684,0.31006 -0.129191,0.65113 -0.211874,1.0542 -0.08268,0.40308 -0.118855,0.56844 -0.06201,0.32556 -0.134359,0.7028 -0.06718,0.37724 -0.129191,0.76998 -0.05684,0.39274 -0.09302,0.77515 -0.03617,0.3824 -0.03617,0.71313 0,0.35657 0.05684,0.65112 0.05684,0.28939 0.180867,0.4961 0.129191,0.2067 0.325562,0.32039 0.201538,0.11369 0.485758,0.11369 0.310059,0 0.609782,-0.13436 0.299723,-0.13952 0.573608,-0.3514 0.279053,-0.21187 0.5271,-0.46509 0.248047,-0.25838 0.454753,-0.49609 0.165364,-0.19637 0.289388,-0.3359 0.124023,-0.14469 0.206705,-0.24288 0.06718,-0.0775 0.149862,-0.16019 0.08785,-0.0827 0.160197,-0.0827 0.08268,0 0.08268,0.14986 z" />
      <path
         id="path5151"
         style="font-style:normal;font-variant:normal;font-weight:normal;font-stretch:normal;font-size:10.58333302px;font-family:'Segoe Script';-inkscape-font-specification:'Segoe Script, Normal';font-variant-ligatures:normal;font-variant-caps:normal;font-variant-numeric:normal;font-feature-settings:normal;text-align:start;writing-mode:lr-tb;text-anchor:start;fill:#ffffff;stroke-width:0.26458332"
         d="m 79.243448,290.1459 q 0,0.0775 -0.113688,0.27389 -0.268718,0.38757 -0.604614,0.77515 -0.33073,0.38757 -0.707967,0.73897 -0.372071,0.34623 -0.780315,0.65112 -0.403076,0.29973 -0.816487,0.52193 -0.413412,0.21705 -0.826823,0.3359 -0.408244,0.11886 -0.790649,0.11369 -0.826823,0 -1.286744,-0.48059 -0.454752,-0.48059 -0.454752,-1.45211 0,-0.81132 0.248047,-1.57613 0.253214,-0.76481 0.857828,-1.47278 0.113689,-0.12402 0.253215,-0.23771 0.144694,-0.11369 0.299723,-0.20154 0.160197,-0.0879 0.325562,-0.13952 0.170532,-0.0517 0.341064,-0.062 0.04134,0 0.113688,0.0103 0.07235,0.0103 0.15503,0.0362 0.08268,0.0258 0.160197,0.0672 0.07751,0.0362 0.124023,0.093 0.144694,0.16536 0.227376,0.34106 0.08785,0.1757 0.09819,0.38758 0.01033,0.23771 -0.05684,0.47025 -0.06201,0.22738 -0.217041,0.47026 -0.149861,0.23771 -0.397908,0.49609 -0.248047,0.25322 -0.599447,0.54777 -0.222208,0.18604 -0.496093,0.41341 -0.268718,0.22221 -0.651123,0.47026 0,0.50126 0.299723,0.76481 0.304891,0.25838 0.83199,0.25838 0.294556,0 0.594279,-0.0775 0.299724,-0.0775 0.589112,-0.20154 0.289388,-0.12919 0.558105,-0.28939 0.273885,-0.16536 0.511597,-0.3359 0.439249,-0.32039 0.795817,-0.63562 0.356567,-0.32039 0.707967,-0.67179 l 0.279053,-0.27905 q 0.253214,-0.22221 0.366902,-0.22221 0.06201,0 0.06201,0.0982 z m -3.948079,-1.02836 q -0.0052,-0.0775 -0.02584,-0.14986 -0.0155,-0.0775 -0.05168,-0.13436 -0.03617,-0.0568 -0.08268,-0.0879 -0.04651,-0.0362 -0.108521,-0.0362 -0.273885,0.0155 -0.54777,0.3359 -0.273885,0.31522 -0.516764,0.83715 -0.05684,0.11369 -0.103353,0.25839 -0.04134,0.13952 -0.08268,0.28939 -0.03617,0.14469 -0.06718,0.28938 -0.02584,0.1447 -0.04651,0.25839 0.268717,-0.20154 0.496093,-0.37208 0.227377,-0.17053 0.423747,-0.35139 0.124023,-0.11369 0.253214,-0.24288 0.129192,-0.13436 0.232544,-0.27906 0.108521,-0.14469 0.170533,-0.29972 0.06201,-0.15503 0.05684,-0.31523 z" />
      <path
         id="path5153"
         style="font-style:normal;font-variant:normal;font-weight:normal;font-stretch:normal;font-size:10.58333302px;font-family:'Segoe Script';-inkscape-font-specification:'Segoe Script, Normal';font-variant-ligatures:normal;font-variant-caps:normal;font-variant-numeric:normal;font-feature-settings:normal;text-align:start;writing-mode:lr-tb;text-anchor:start;fill:#ffffff;stroke-width:0.26458332"
         d="m 83.444742,289.54129 q 0,0.031 -0.0052,0.093 -0.0052,0.0568 -0.02584,0.11885 -0.02067,0.0568 -0.05168,0.10336 -0.02584,0.0465 -0.07235,0.0465 -0.03101,0 -0.103353,0 -0.07235,-0.005 -0.155029,-0.0103 -0.07751,-0.005 -0.149862,-0.005 -0.07235,-0.005 -0.103353,-0.005 -0.98702,0.062 -1.64331,0.72347 -0.645956,0.64596 -1.116211,1.726 -0.08785,0.22221 -0.1757,0.45992 -0.08268,0.23771 -0.160197,0.50126 -0.04134,0.14469 -0.06201,0.25838 -0.0155,0.10852 -0.05684,0.23255 -0.01033,0.0413 -0.08785,0.0775 -0.07751,0.0413 -0.1757,0.0723 -0.09302,0.031 -0.180867,0.0517 -0.08785,0.0207 -0.118856,0.0207 -0.356567,0.0207 -0.403076,-0.73897 -0.0155,-0.2067 -0.0155,-0.37207 0.0052,-0.17053 0.0155,-0.32556 0.01033,-0.1602 0.02584,-0.33073 0.02067,-0.1757 0.04134,-0.39274 0.02584,-0.26872 0.06201,-0.62012 0.03617,-0.3514 0.08268,-0.70797 0.04651,-0.35656 0.09819,-0.67696 0.05168,-0.32556 0.108521,-0.53743 0.05684,-0.24288 0.155029,-0.36174 0.103353,-0.11885 0.299724,-0.12919 0.05168,0 0.10852,0.031 0.06201,0.0258 0.108521,0.0724 0.05168,0.0465 0.08268,0.0982 0.03617,0.0517 0.04134,0.093 0.0052,0.12919 -0.0052,0.28422 -0.01033,0.14986 -0.03617,0.31522 -0.02584,0.1602 -0.06201,0.32557 -0.03617,0.16536 -0.07235,0.31522 -0.07235,0.29456 -0.113688,0.50643 -0.03617,0.20671 -0.06201,0.40308 -0.02584,0.19637 -0.05168,0.42374 -0.02584,0.22221 -0.06718,0.55294 0.08785,-0.19637 0.149862,-0.33589 0.06718,-0.13953 0.118856,-0.24288 0.05168,-0.10852 0.09302,-0.19121 0.04651,-0.0827 0.09819,-0.17053 0.05168,-0.093 0.113688,-0.20154 0.06201,-0.10852 0.155029,-0.26355 0.361735,-0.59944 0.775147,-0.97668 0.413411,-0.38241 0.795817,-0.54777 0.434082,-0.20671 0.713134,-0.22221 0.134359,-0.005 0.320394,0.0155 0.186035,0.0207 0.356568,0.0775 0.170532,0.0568 0.289388,0.14986 0.124023,0.0879 0.124023,0.21704 z" />
      <path
         id="path5155"
         style="font-style:normal;font-variant:normal;font-weight:normal;font-stretch:normal;font-size:10.58333302px;font-family:'Segoe Script';-inkscape-font-specification:'Segoe Script, Normal';font-variant-ligatures:normal;font-variant-caps:normal;font-variant-numeric:normal;font-feature-settings:normal;text-align:start;writing-mode:lr-tb;text-anchor:start;fill:#ffffff;stroke-width:0.26458332"
         d="m 89.06197,289.09687 q 0,0.0879 -0.0052,0.20671 -0.0052,0.11369 -0.0155,0.26355 -0.01033,0.14469 -0.02584,0.29972 -0.01033,0.15503 -0.02584,0.3204 -0.0155,0.16536 -0.02584,0.29455 -0.01033,0.12402 -0.0155,0.21187 -0.03617,0.70797 -0.149861,1.45728 -0.113688,0.74414 -0.284221,1.4211 -0.273885,1.12138 -0.795817,1.9172 -0.527099,0.80615 -1.457275,0.80615 -0.609782,0 -1.229899,-0.24288 -0.61495,-0.23771 -1.038696,-0.66663 -0.253215,-0.29972 -0.253215,-0.41341 0,-0.12919 0.07752,-0.29455 0.08268,-0.1602 0.186035,-0.1602 0.05684,0 0.09819,0.062 0.1757,0.24805 0.335897,0.39274 0.687297,0.60979 1.788005,0.60979 0.434082,0 0.759643,-0.41342 0.165365,-0.20153 0.289388,-0.43408 0.129191,-0.23254 0.227376,-0.48576 0.09819,-0.25321 0.1757,-0.51676 0.07751,-0.26355 0.139527,-0.53744 0.05168,-0.25321 0.07751,-0.40307 0.03101,-0.14986 0.03617,-0.20154 0.02584,-0.21704 0.03617,-0.41858 0.01034,-0.20154 0.04134,-0.39791 -0.144694,0.0672 -0.594279,0.34107 -0.263549,0.16019 -0.48059,0.28938 -0.217041,0.1292 -0.387574,0.22738 -0.341064,0.20154 -0.769978,0.38241 -0.434082,0.18086 -0.713135,0.18086 -0.485759,0 -0.749308,-0.38757 -0.26355,-0.38757 -0.26355,-0.894 0,-0.36174 0.07751,-0.80615 0.04134,-0.22221 0.08268,-0.41342 0.04651,-0.19637 0.09819,-0.3669 0.05168,-0.17053 0.118856,-0.40824 0.07235,-0.23771 0.170532,-0.54777 0.05168,-0.17053 0.113688,-0.29456 0.06201,-0.12919 0.139526,-0.21187 0.08268,-0.0879 0.191203,-0.12919 0.108521,-0.0413 0.26355,-0.0413 0.149862,0 0.237712,0.17053 0.08268,0.1602 0.08268,0.33073 0,0.10335 -0.04651,0.18603 -0.02584,0.0413 -0.07235,0.11886 -0.04651,0.0775 -0.118856,0.1912 -0.07235,0.11369 -0.113688,0.1912 -0.04134,0.0724 -0.05168,0.11369 -0.04134,0.12403 -0.07235,0.21704 -0.03101,0.093 -0.05684,0.15503 -0.02067,0.062 -0.04651,0.14986 -0.02584,0.0827 -0.06201,0.19638 -0.06718,0.2222 -0.09819,0.40824 -0.02584,0.18087 -0.02584,0.38757 0,0.20671 0.08268,0.50126 0.08785,0.30489 0.237712,0.30489 0.454752,0 1.100708,-0.26355 0.645955,-0.26871 1.167887,-0.69763 0.521932,-0.42891 0.630452,-0.86299 0.02067,-0.062 0.03101,-0.18604 0.01034,-0.12402 0.0155,-0.27388 0.01033,-0.15503 0.0155,-0.3204 0.0052,-0.16536 0.01033,-0.31522 0.01034,-0.15503 0.02067,-0.27389 0.01033,-0.12402 0.03101,-0.18603 0.134359,-0.47543 0.434082,-0.47543 0.28422,0 0.3514,0.1447 0.07235,0.15503 0.07235,0.49092 z" />
    </g>
    <path
       d="M 144.23549,291.07575 H 91.388108 l 0.611837,0.96275 h 52.847175 z"
       style="fill:#ffffff;fill-opacity:1;fill-rule:nonzero;stroke:none;stroke-width:0.25966954"
       id="path184" />
    <path
       d="m 142.44988,289.60363 h -2.07473 v -1.06829 h 2.07473 z"
       style="fill:#ffffff;fill-opacity:1;fill-rule:nonzero;stroke:none;stroke-width:0.33104357"
       id="path202" />
    <path
       d="m 147.62002,289.60363 h -2.07472 v -1.06829 h 2.07472 z"
       style="fill:#ffffff;fill-opacity:1;fill-rule:nonzero;stroke:none;stroke-width:0.33104357"
       id="path204" />
    <path
       d="m 142.44988,296.04046 h -2.07473 v -1.06829 h 2.07473 z"
       style="fill:#ffffff;fill-opacity:1;fill-rule:nonzero;stroke:none;stroke-width:0.33104357"
       id="path206" />
    <path
       d="m 148.65313,296.04046 h -3.04466 v -1.06829 h 3.04466 z"
       style="fill:#ffffff;fill-opacity:1;fill-rule:nonzero;stroke:none;stroke-width:0.33104357"
       id="path208" />
    <g
       style="fill:#ffffff"
       id="g210"
       transform="matrix(0.32734777,0,0,-0.33478113,147.65315,293.94931)">
      <path
         d="M 0,0 V -9.301 H -3.191 V 0 Z"
         style="fill:#ffffff;fill-opacity:1;fill-rule:nonzero;stroke:none"
         id="path212" />
    </g>
    <path
       d="m 147.65243,290.66455 h -1.04457 v -2.12184 h 1.04457 z"
       style="fill:#ffffff;fill-opacity:1;fill-rule:nonzero;stroke:none;stroke-width:0.33104357"
       id="path214" />
    <path
       d="m 141.41973,296.02707 h -1.04458 v -2.12184 h 1.04458 z"
       style="fill:#ffffff;fill-opacity:1;fill-rule:nonzero;stroke:none;stroke-width:0.33104357"
       id="path216" />
    <path
       d="m 141.41973,290.66455 h -1.04458 v -2.12184 h 1.04458 z"
       style="fill:#ffffff;fill-opacity:1;fill-rule:nonzero;stroke:none;stroke-width:0.33104357"
       id="path218" />
    <path
       d="m 147.65243,292.07766 h -1.04457 v -1.0462 h 1.04457 z"
       style="fill:#ffffff;fill-opacity:1;fill-rule:nonzero;stroke:none;stroke-width:0.33104357"
       id="path220" />
    <path
       d="m 147.65243,293.54299 h -1.04457 v -1.04618 h 1.04457 z"
       style="fill:#ffffff;fill-opacity:1;fill-rule:nonzero;stroke:none;stroke-width:0.33104357"
       id="path222" />
    <path
       d="m 145.27293,289.59291 h -1.04455 v -1.0462 h 1.04455 z"
       style="fill:#ffffff;fill-opacity:1;fill-rule:nonzero;stroke:none;stroke-width:0.33104357"
       id="path224" />
    <path
       d="m 143.84013,289.59291 h -1.04456 v -1.0462 h 1.04456 z"
       style="fill:#ffffff;fill-opacity:1;fill-rule:nonzero;stroke:none;stroke-width:0.33104357"
       id="path226" />
    <path
       d="m 141.41973,292.03782 h -1.04458 v -0.97454 h 1.04458 z"
       style="fill:#ffffff;fill-opacity:1;fill-rule:nonzero;stroke:none;stroke-width:0.33104357"
       id="path228" />
    <path
       d="m 141.41973,293.46298 h -1.04458 v -0.97454 h 1.04458 z"
       style="fill:#ffffff;fill-opacity:1;fill-rule:nonzero;stroke:none;stroke-width:0.33104357"
       id="path230" />
    <path
       d="m 143.84013,296.02941 h -1.04456 v -1.04619 h 1.04456 z"
       style="fill:#ffffff;fill-opacity:1;fill-rule:nonzero;stroke:none;stroke-width:0.33104357"
       id="path232" />
    <path
       d="m 145.27293,296.02941 h -1.04455 v -1.04619 h 1.04455 z"
       style="fill:#ffffff;fill-opacity:1;fill-rule:nonzero;stroke:none;stroke-width:0.33104357"
       id="path234" />
  </g>
</svg>
