<?xml version="1.0" encoding="UTF-8" standalone="no"?>
<svg
   xmlns:dc="http://purl.org/dc/elements/1.1/"
   xmlns:cc="http://creativecommons.org/ns#"
   xmlns:rdf="http://www.w3.org/1999/02/22-rdf-syntax-ns#"
   xmlns:svg="http://www.w3.org/2000/svg"
   xmlns="http://www.w3.org/2000/svg"
   xmlns:xlink="http://www.w3.org/1999/xlink"
   xmlns:sodipodi="http://sodipodi.sourceforge.net/DTD/sodipodi-0.dtd"
   xmlns:inkscape="http://www.inkscape.org/namespaces/inkscape"
   version="1.1"
   id="svg6250"
   sodipodi:docname="odyssey2.svg"
   width="599.99945"
   height="181.52954"
   inkscape:version="0.92.1 r15371">
  <metadata
     id="metadata6256">
    <rdf:RDF>
      <cc:Work
         rdf:about="">
        <dc:format>image/svg+xml</dc:format>
        <dc:type
           rdf:resource="http://purl.org/dc/dcmitype/StillImage" />
        <dc:title />
      </cc:Work>
    </rdf:RDF>
  </metadata>
  <defs
     id="defs6254">
    <linearGradient
       inkscape:collect="always"
       id="linearGradient4495">
      <stop
         style="stop-color:#ffffff;stop-opacity:1;"
         offset="0"
         id="stop4491" />
      <stop
         style="stop-color:#ffffff;stop-opacity:0;"
         offset="1"
         id="stop4493" />
    </linearGradient>
    <linearGradient
       inkscape:collect="always"
       xlink:href="#linearGradient4495"
       id="linearGradient4497"
       x1="270.66602"
       y1="72.892578"
       x2="270.69568"
       y2="216.5583"
       gradientUnits="userSpaceOnUse" />
  </defs>
  <sodipodi:namedview
     pagecolor="#ffffff"
     bordercolor="#666666"
     borderopacity="1"
     objecttolerance="10"
     gridtolerance="10"
     guidetolerance="10"
     inkscape:pageopacity="0"
     inkscape:pageshadow="2"
     inkscape:window-width="1280"
     inkscape:window-height="738"
     id="namedview6252"
     showgrid="false"
     fit-margin-top="0"
     fit-margin-left="0"
     fit-margin-right="0"
     fit-margin-bottom="0"
     inkscape:pagecheckerboard="true"
     inkscape:zoom="1.3416679"
     inkscape:cx="299.99973"
     inkscape:cy="90.764768"
     inkscape:window-x="-8"
     inkscape:window-y="-8"
     inkscape:window-maximized="1"
     inkscape:current-layer="g6248" />
  <g
     id="g6248"
     transform="translate(-3.622779e-4,5.4571547e-4)">
    <path
       style="fill:url(#linearGradient4497);fill-opacity:1"
       d="m 570.13086,0.00585938 c -0.958,-0.114 -2.0933,1.27029692 -4.0293,3.52929682 -1.007,1.849 -0.33828,2.6865782 2.01172,2.5175782 h 17.86133 c 2.874,1.006 0.39808,6.2959216 -2.29492,6.0449216 h -10.90625 c -2.371,0 -4.3985,0.172016 -6.6875,0.916016 -3.745,1.214 -5.57702,3.069953 -7.54102,4.876953 -4.112,4.365 -8.22884,8.72875 -12.33984,13.09375 -1.088,1.097 -1.27841,2.319516 -0.44141,2.978516 0.572,0.452 1.63099,0.548828 3.20899,0.548828 h 26.47851 c 1.804,0 2.7825,0.274484 4.0625,-0.978516 1.609,-1.57 3.21152,-3.1535 4.85352,-4.6875 1.111,-1.039 1.06453,-1.887625 -0.73047,-1.890625 h -12.49024 c -6.271,-0.082 -1.74267,-7.254812 1.73633,-7.507812 h 14.2461 c 3.645,-0.123 8.43598,-2.312938 10.58398,-5.460938 2.482,-3.654 3.59364,-9.3018905 -0.0684,-12.3378905 -1.711,-1.422 -4.69897,-1.64257812 -6.79297,-1.64257812 z M 134.88281,14.330078 c -1.47193,-0.03241 -2.9337,0.0957 -4.4082,0.0957 H 112.39648 83.490234 c -4.425,0 -5.377562,3.274938 -2.976562,6.585938 l 9.822266,13.542969 c 1.828,2.390999 4.047937,2.216796 6.960937,2.216796 h 24.683595 c 1.085,0 8.40367,-0.698781 10.88867,3.449219 l 16.51367,27.585938 c 2.138,3.572 0.0562,3.993172 -3.42578,3.951171 -3.012,-0.036 -4.4698,-0.112078 -5.4668,-1.955078 -5.022,-7.443 -9.5161,-15.14489 -14.53711,-22.58789 -1.754,-2.91 -2.85151,-2.946906 -5.97851,-3.003906 -6.362,0.06 -12.72484,0.124546 -19.08984,0.185546 -1.564004,0.096 -2.297895,1.216032 -1.712895,2.207032 0.669,1.135 0.812531,1.330218 1.894535,2.824218 l 22.30859,30.84375 3.9043,5.396485 69.33398,95.859374 h 26.33594 L 177.12109,85.667969 175.88672,83.091797 148.95508,26.755859 c -5.1555,-10.785 -9.65646,-12.328562 -14.07227,-12.425781 z m -73.689451,0.05469 c -0.651195,0.01161 -1.334265,0.0332 -2.072265,0.0332 H 33.179688 4.265625 c -4.422,0 -5.4040781,3.309609 -2.9550781,6.599609 1.379,1.867 4.3409844,4.886281 6.7089843,7.238281 L 59.880859,80.271484 126.85352,147.44922 c 12.971,13.013 24.19061,24.26512 33.9746,34.07812 h 33.4336 c -8.814,-11.675 -19.2338,-25.49515 -31.7168,-42.03515 C 151.8782,125.36839 135.37127,103.7299 119.73438,83.078125 107.32763,66.663721 93.438158,48.163206 77.615234,26.761719 68.719984,14.729594 65.751727,14.303459 61.193359,14.384766 Z m 152.771481,0.01563 c -0.79979,0.0053 -1.68636,0.02344 -2.67773,0.02344 h -15.84375 c -2.073,0 -3.29336,0.186313 -2.69336,2.195313 2.238,8.139 4.71617,15.79264 6.95117,23.93164 0.587,1.895 0.10261,2.878266 -1.65039,2.947266 -1.919,-0.012 -3.50678,-0.02511 -5.42578,-0.03711 -0.9,0.169 -1.47919,-0.571657 -2.11719,-2.222657 -3.449,-8.561 -6.054,-17.12164 -9.5,-25.68164 -0.16,-0.639 -0.83329,-1.01686 -2.02929,-1.13086 h -23.14063 c -4.422,0 -4.12978,3.265938 -2.55078,6.585938 l 17.35937,36.52539 c 1.997,4.283 4.3888,7.425985 9.2168,7.458985 3.205,0 4.88484,-9.06e-4 8.08984,-0.0039 l 6.8379,16.964843 1.49414,3.708985 h 0.002 l 38.64844,95.861319 h 14.97656 L 223.73047,85.667969 v -0.002 h 0.004 l -1.01368,-3.708985 -4.64648,-17.015625 7.41016,0.02734 c 3.88499,0.103 5.31467,-2.753344 4.76367,-6.277344 -2.331,-10.646 -4.46293,-21.294453 -6.79493,-31.939453 -2.58562,-11.80025 -3.88973,-12.388641 -9.48828,-12.351562 z m 265.92383,0 c -6.12594,-0.03708 -7.80762,0.551312 -15.64062,12.351562 -7.064,10.645 -13.91257,21.293453 -20.97657,31.939453 -2.1,3.524 -1.73578,6.380344 2.57422,6.277344 l 9.92578,-0.02734 -11.08398,15.330078 -3.90234,5.394532 -69.31836,95.863283 h 16.44531 l 83.00586,-95.863283 h 0.002 l 4.10547,-4.744141 13.79297,-15.929687 c 3.518,0.003 5.36586,0.0039 8.88086,0.0039 5.316,-0.033 9.27334,-3.175985 13.27734,-7.458985 l 34.51953,-36.529297 c 3.127,-3.317 4.82866,-6.582031 -0.0273,-6.582031 h -25.4043 c -1.362,0.114 -2.26907,0.49186 -2.70507,1.13086 -7.40701,8.56 -13.89183,17.12064 -21.29883,25.68164 -1.404,1.651 -2.34768,2.391657 -3.26367,2.222657 -2.11501,0.012 -3.86061,0.02511 -5.97461,0.03711 -1.895,-0.069 -2.00646,-1.052266 -0.56446,-2.947266 5.901,-8.139 11.86072,-15.79264 17.76172,-23.93164 1.509,-2.009 0.2517,-2.195313 -2.0293,-2.195313 h -19.17187 c -1.08738,0 -2.05455,-0.01814 -2.92969,-0.02344 z m -186.11719,0.01758 c -0.679,-6.82e-4 -1.39007,0.0078 -2.12695,0.0078 H 265.82617 235.4082 c -4.419,0 -5.97784,3.59136 -5.08984,8.69336 l 6.05469,34.761718 c 0.316,1.82 0.38662,3.15075 1.64062,4.59375 1.352,1.557 3.38311,2.523813 6.53711,2.382813 h 30.78125 c 0.506,3.855 0.33999,7.312156 -4.66601,8.035156 h -28.84961 c -2.103,0 -2.63694,1.088313 -2.33594,2.820313 l 1.33398,7.646484 h -0.002 L 257.9062,181.5293 h 30.25 l 7.79492,-95.863287 0.23633,-2.902344 2.18555,-26.904297 c 0.171,-2.139 0.48251,-3.830813 -0.27149,-5.882813 -0.906,-2.461 -2.6685,-4.383015 -5.9375,-5.166015 -1.753,-0.421 -3.49134,-0.337891 -5.27734,-0.337891 h -24.375 c -1.792,0 -2.58022,0.151344 -2.57422,-0.972656 l 0.0293,-4.943359 c 0.003,-0.991 0.48664,-1.074219 1.93164,-1.074219 h 31.87304 c 2.819,-0.043 5.35275,-0.451875 6.09375,-3.171875 0.34,-1.247 0.45546,-2.424141 0.56446,-3.744141 l 0.65234,-8.042968 c 0.61863,-7.606375 -2.55755,-8.100698 -7.31055,-8.105469 z m 79.03321,0 c -0.66022,-5.69e-4 -1.35452,0.0078 -2.07227,0.0078 H 345.5918 317.04883 v -0.002 c -4.304,0 -7.79216,3.495891 -8.16016,8.462891 l -2.35742,32.054687 c -0.461,6.203 2.84148,10.865828 9.89648,10.548828 h 19.61329 c -0.452,3.754 -1.46663,7.120125 -6.51563,7.828125 h -21.71094 c -2.054,-0.003 -2.83675,1.053235 -2.96875,2.740235 l -0.75781,6.386718 -0.37109,3.115235 -0.0117,0.105469 -11.39453,95.861324 h 29.70703 l 35.39258,-99.349606 9.28125,-26.041015 c 0.693,-2.084 1.40673,-3.728516 1.17773,-5.728516 -0.277,-2.398 -1.52767,-4.26925 -4.51367,-5.03125 -1.602,-0.407 -3.31488,-0.328125 -5.04688,-0.328125 h -21.10547 c -1.74399,0 -2.55657,0.145688 -2.26757,-0.945312 l 1.45117,-5.447266 c 0.259,-0.964 0.73948,-1.044922 2.14648,-1.044922 h 28.39844 c 2.759,-0.042 5.32294,-0.438937 6.71094,-3.085937 0.636,-1.214 1.0388,-2.363485 1.4668,-3.646485 l 2.82617,-8.570312 c 2.43775,-7.408625 -0.50936,-7.886647 -5.13086,-7.890625 z m 82.20312,0 c -0.69703,-5.69e-4 -1.43353,0.0078 -2.1914,0.0078 H 426.2793 396.13672 c -4.545,0 -9.1732,3.497844 -10.9082,8.464844 -14.46136,41.48489 -16.44977,48.203726 -19.99805,57.542969 -4.46582,11.233618 -14.86552,36.601889 -40.47656,101.093749 h 31.36718 l 62.03516,-95.861327 2.66406,-4.115235 5.58985,-8.638672 -7.48243,-0.05078 h -13.52148 c -1.91,0 -2.92152,-0.735641 -2.97852,-1.68164 l -0.23437,-4.283204 c -0.06,-1.075 1.96867,-0.933593 3.51367,-0.933593 h 24.20508 c 0.343,-0.006 0.68048,-0.0152 1.02148,-0.0332 l 8.01758,-12.388672 3.42188,-5.730469 c 0.895,-1.494 0.10608,-3.226281 -1.79493,-3.238281 l -8.63867,-0.06055 H 419.5918 c -1.844,0 -2.827,-0.734594 -2.875,-1.683594 l -0.22461,-4.517578 c -0.042,-0.837 1.90067,-0.699219 3.38867,-0.699219 h 22.64258 c 2.922,-0.042 5.73773,-0.438937 7.92773,-3.085937 0.997,-1.214 1.7352,-2.363485 2.53321,-3.646485 l 5.30468,-8.570312 c 4.58063,-7.408625 1.598,-7.886647 -3.28125,-7.890625 z M 58.9375,37.923828 c 1.085,-0.003 1.604422,0.110156 3.607422,2.535156 l 23.5625,28.472657 c 1.334,1.612 0.445937,2.651156 -0.289063,2.660156 -1.72,0.024 -4.546187,0.08755 -6.242187,0.06055 -1.919,-0.03 -2.464156,-0.463016 -3.660156,-1.791016 l -26.169922,-29.125 c -1.178,-1.311 -1.038282,-2.80364 1.136718,-2.80664 z"
       transform="translate(3.622779e-4,-5.4571547e-4)"
       id="path7"
       inkscape:connector-curvature="0" />
  </g>
</svg>
