<?xml version="1.0" encoding="UTF-8" standalone="no"?>
<svg
   xmlns:dc="http://purl.org/dc/elements/1.1/"
   xmlns:cc="http://creativecommons.org/ns#"
   xmlns:rdf="http://www.w3.org/1999/02/22-rdf-syntax-ns#"
   xmlns:svg="http://www.w3.org/2000/svg"
   xmlns="http://www.w3.org/2000/svg"
   xmlns:xlink="http://www.w3.org/1999/xlink"
   xmlns:sodipodi="http://sodipodi.sourceforge.net/DTD/sodipodi-0.dtd"
   xmlns:inkscape="http://www.inkscape.org/namespaces/inkscape"
   version="1.0"
   width="300.000000pt"
   height="131.000000pt"
   viewBox="0 0 300.000000 131.000000"
   preserveAspectRatio="xMidYMid meet"
   id="svg5588"
   sodipodi:docname="OpenBOR_4.svg"
   inkscape:version="0.92.1 r15371">
  <defs
     id="defs5592">
    <linearGradient
       inkscape:collect="always"
       id="linearGradient6515">
      <stop
         style="stop-color:#ffffff;stop-opacity:1;"
         offset="0"
         id="stop6511" />
      <stop
         style="stop-color:#ffffff;stop-opacity:0;"
         offset="1"
         id="stop6513" />
    </linearGradient>
    <linearGradient
       inkscape:collect="always"
       id="linearGradient6507">
      <stop
         style="stop-color:#ffffff;stop-opacity:1;"
         offset="0"
         id="stop6503" />
      <stop
         style="stop-color:#ffffff;stop-opacity:0;"
         offset="1"
         id="stop6505" />
    </linearGradient>
    <linearGradient
       inkscape:collect="always"
       id="linearGradient6499">
      <stop
         style="stop-color:#ffffff;stop-opacity:1;"
         offset="0"
         id="stop6495" />
      <stop
         style="stop-color:#ffffff;stop-opacity:0;"
         offset="1"
         id="stop6497" />
    </linearGradient>
    <linearGradient
       inkscape:collect="always"
       id="linearGradient6491">
      <stop
         style="stop-color:#ffffff;stop-opacity:1;"
         offset="0"
         id="stop6487" />
      <stop
         style="stop-color:#ffffff;stop-opacity:0;"
         offset="1"
         id="stop6489" />
    </linearGradient>
    <linearGradient
       inkscape:collect="always"
       id="linearGradient6479">
      <stop
         style="stop-color:#ffffff;stop-opacity:1;"
         offset="0"
         id="stop6475" />
      <stop
         style="stop-color:#ffffff;stop-opacity:0;"
         offset="1"
         id="stop6477" />
    </linearGradient>
    <linearGradient
       inkscape:collect="always"
       id="linearGradient6471">
      <stop
         style="stop-color:#ffffff;stop-opacity:1;"
         offset="0"
         id="stop6467" />
      <stop
         style="stop-color:#ffffff;stop-opacity:0;"
         offset="1"
         id="stop6469" />
    </linearGradient>
    <linearGradient
       inkscape:collect="always"
       id="linearGradient6455">
      <stop
         style="stop-color:#ffffff;stop-opacity:1;"
         offset="0"
         id="stop6451" />
      <stop
         style="stop-color:#ffffff;stop-opacity:0;"
         offset="1"
         id="stop6453" />
    </linearGradient>
    <linearGradient
       inkscape:collect="always"
       xlink:href="#linearGradient6455"
       id="linearGradient6457"
       x1="315.13522"
       y1="119.82177"
       x2="455.88718"
       y2="87.52887"
       gradientUnits="userSpaceOnUse" />
    <radialGradient
       inkscape:collect="always"
       xlink:href="#linearGradient6471"
       id="radialGradient6473"
       cx="2704.1864"
       cy="597.17115"
       fx="2704.1864"
       fy="597.17115"
       r="64.351633"
       gradientTransform="matrix(1,0,0,0.77858715,0,132.22137)"
       gradientUnits="userSpaceOnUse" />
    <radialGradient
       inkscape:collect="always"
       xlink:href="#linearGradient6479"
       id="radialGradient6483"
       cx="2832.748"
       cy="817.74524"
       fx="2832.748"
       fy="817.74524"
       r="96.748024"
       gradientTransform="matrix(1,0,0,0.62787027,0,304.3073)"
       gradientUnits="userSpaceOnUse" />
    <linearGradient
       inkscape:collect="always"
       xlink:href="#linearGradient6491"
       id="linearGradient6493"
       x1="234.26035"
       y1="196.56015"
       x2="7.1153846"
       y2="-7.0493016"
       gradientUnits="userSpaceOnUse" />
    <linearGradient
       inkscape:collect="always"
       xlink:href="#linearGradient6499"
       id="linearGradient6501"
       x1="307.43344"
       y1="1388.3816"
       x2="994.35406"
       y2="891.67303"
       gradientUnits="userSpaceOnUse" />
    <linearGradient
       inkscape:collect="always"
       xlink:href="#linearGradient6507"
       id="linearGradient6509"
       x1="-113.15089"
       y1="1359.3969"
       x2="728"
       y2="879"
       gradientUnits="userSpaceOnUse" />
    <linearGradient
       inkscape:collect="always"
       xlink:href="#linearGradient6515"
       id="linearGradient6517"
       x1="-33.261833"
       y1="905.19318"
       x2="973.43933"
       y2="375.64438"
       gradientUnits="userSpaceOnUse" />
  </defs>
  <sodipodi:namedview
     pagecolor="#ffffff"
     bordercolor="#666666"
     borderopacity="1"
     objecttolerance="10"
     gridtolerance="10"
     guidetolerance="10"
     inkscape:pageopacity="0"
     inkscape:pageshadow="2"
     inkscape:window-width="1280"
     inkscape:window-height="738"
     id="namedview5590"
     showgrid="false"
     inkscape:pagecheckerboard="true"
     inkscape:zoom="1.8270271"
     inkscape:cx="190.37052"
     inkscape:cy="55.437608"
     inkscape:window-x="-8"
     inkscape:window-y="-8"
     inkscape:window-maximized="1"
     inkscape:current-layer="svg5588" />
  <metadata
     id="metadata5548">
Created by potrace 1.10, written by Peter Selinger 2001-2011
<rdf:RDF>
  <cc:Work
     rdf:about="">
    <dc:format>image/svg+xml</dc:format>
    <dc:type
       rdf:resource="http://purl.org/dc/dcmitype/StillImage" />
    <dc:title />
  </cc:Work>
</rdf:RDF>
</metadata>
  <g
     transform="translate(0.000000,131.000000) scale(0.100000,-0.100000)"
     fill="#ffffff"
     stroke="none"
     id="g5586"
     style="fill:#ffffff;fill-opacity:1">
    <path
       d="M198 1283 c-3 -15 -15 -18 -75 -18 -56 0 -75 -4 -92 -19 -12 -11 -21 -22 -21 -26 0 -4 31 -30 69 -58 38 -28 75 -63 83 -79 23 -49 136 -67 169 -27 9 11 6 16 -20 25 -42 15 -51 35 -51 118 0 61 -3 72 -22 85 -29 20 -36 20 -40 -1z m39 -98 c2 -59 6 -73 30 -97 18 -19 22 -28 12 -29 -47 -4 -68 7 -119 60 -30 32 -70 66 -87 76 -40 23 -41 28 -8 43 31 14 60 15 84 3 12 -7 25 -5 42 4 13 7 29 12 34 11 6 -2 11 -33 12 -71z"
       id="path5550"
       style="fill:url(#linearGradient6509);fill-opacity:1" />
    <path
       d="M 1491.2101,248.92123 C 1444.2101,268.92123 1430,281 1430,325 c 0,48 -22,82 -74,115 -32,19 -34,23 -26,52 5,17 17,39 26,49 43,48 19,159 -41,189 -21,11 -29,21 -27,36 3,19 -38,106 -112,236 -27,48 -33,87 -16,104 5,5 6,15 0,24 -15,25 -57,-4 -85,-59 -28,-57 -32,-108 -10,-137 20,-27 18,-37 -5,-24 -23,12 -82,-1 -114,-25 -25,-19 -51,-19 -70,1 -23,22 -21,29 25,79 32,35 43,55 47,90 5,47 -5,57 -28,30 -20,-24 -49,-17 -85,21 -38,40 -50,40 -79,1 -16,-22 -21,-47 -24,-128 l -4,-100 -26,37 c -13,20 -44,78 -68,128 -44,96 -91,152 -134,163 -44,11 -134,53 -157,75 l -22,20 -6,-36 c -10,-50 -1,-75 52,-153 69,-102 93,-158 93,-225 0,-32 -3,-58 -7,-58 -5,0 -16,27 -26,60 -23,78 -40,88 -118,65 -33,-10 -59,-20 -59,-22 0,-9 37,-41 66,-58 55,-31 63,-58 72,-233 7,-132 12,-167 30,-203 12,-23 20,-45 17,-47 -2,-2 -21,4 -42,14 -24,12 -53,41 -81,82 -24,34 -49,62 -56,62 -9,0 -13,-26 -15,-93 -2,-84 0,-95 20,-112 23,-22 65,-24 178,-10 42,5 62,5 58,-2 -10,-16 21,-51 53,-58 17,-4 125,5 239,20 140,19 227,25 263,21 69,-9 193,-74 193,-102 0,-30 -62,-46 -131,-33 -31,6 -58,8 -61,6 -8,-8 14,-42 67,-106 74,-88 108,-100 128,-43 10,29 26,39 106,67 31,12 70,38 105,71 30,30 44.8687,56.49661 44.8687,56.49661 z M 1529,175 c 7,-30 15,-55 19,-55 4,0 6,22 5,50 0,28 3,53 8,56 5,3 9,-1 9,-8 0,-7 11,-31 25,-53 l 25,-40 -1,55 c -3,97 -4,96 54,118 91,35 155,52 196,52 22,0 43,5 46,10 11,17 21,11 38,-24 l 16,-35 -41,-36 c -45,-41 -143,-89 -167,-82 -9,3 -24,8 -35,12 -16,7 -17,6 -7,-13 17,-33 14,-35 -41,-29 -46,6 -49,5 -32,-8 10,-8 24,-15 31,-15 7,0 17,-9 23,-19 12,-24 66,-57 105,-66 l 30,-7 -24,20 c -39,32 -24,51 64,84 107,39 234,69 268,63 35,-7 34,5 -3,30 -16,11 -30,26 -30,33 0,31 33,128 48,140 9,6 43,12 76,12 89,1 148,15 164,39 12,18 21,19 77,14 98,-9 179,16 159,49 -5,7 -7,24 -6,38 1,14 -2,32 -7,40 -8,12 -13,12 -30,-4 -25,-22 -28,-10 -5,22 11,17 25,22 56,22 34,0 46,6 74,36 33,34 48,74 21,57 -13,-9 -117,-11 -117,-2 0,3 19,9 42,15 54,12 80,47 86,118 4,46 8,55 26,59 20,3 19,4 -6,16 -50,25 -120,-15 -159,-90 -21,-41 -39,-49 -59,-24 -10,12 -9,15 7,15 25,0 48,25 69,75 9,22 23,44 31,50 13,10 11,14 -16,24 -27,12 -34,11 -56,-3 -15,-10 -29,-24 -32,-32 -4,-11 -15,-13 -48,-8 -37,5 -45,3 -59,-17 -9,-13 -16,-35 -16,-50 0,-27 -25,-57 -37,-45 -4,4 1,20 10,35 25,42 22,54 -10,46 -41,-11 -56,-13 -75,-14 -9,-1 -29,-12 -44,-26 -15,-14 -35,-25 -46,-25 -16,0 -15,7 16,69 55,109 108,158 292,272 91,56 163,103 160,106 -14,14 -274,-93 -403,-166 -51,-28 -79,-53 -111,-97 -71,-98 -132,-192 -147,-228 -10,-24 -39,-51 -96,-91 l -82,-56 7,48 6,47 -42,-61 c -24,-33 -52,-84 -63,-112 -22,-57 -107,-141 -182,-180 -23,-11 -49,-31 -57,-42 l -15,-22 -20,24 c -27,34 -36,18 -12,-22 10,-19 22,-49 26,-67 l 10.3142,-34.82298 C 1521.8054,214.76086 1522,205 1529,175 Z m 1091,1091 c 0,-1 -55,-36 -122,-77 -148,-89 -219,-157 -271,-264 -21,-42 -35,-80 -32,-85 12,-19 54,-10 86,19 21,19 45,31 73,33 50,6 54,3 33,-20 -21,-23 -21,-36 -2,-52 21,-17 65,29 65,68 0,41 19,54 57,40 29,-11 33,-10 58,20 17,20 36,32 51,32 25,0 25,0 8,-32 -9,-18 -23,-44 -30,-58 -8,-17 -23,-26 -43,-28 -35,-4 -39,-17 -14,-44 29,-32 60,-23 84,24 24,46 51,72 91,87 29,10 29,14 12,-95 -5,-38 -39,-71 -78,-78 -29,-5 -70,-35 -51,-37 6,-1 28,-3 50,-5 22,-3 47,-5 56,-6 10,-1 14,-8 12,-16 -7,-17 -46,-32 -83,-32 -30,0 -80,-48 -80,-76 0,-16 26,-19 35,-4 13,22 25,8 25,-30 0,-52 -20,-62 -118,-59 -68,3 -81,0 -109,-20 -24,-18 -48,-25 -105,-28 -149,-8 -151,-10 -178,-125 -12,-53 -12,-60 5,-78 18,-20 17,-20 -11,-20 -43,-1 -128,-24 -229,-61 -74,-28 -90,-39 -95,-59 l -6,-25 -27,27 c -26,26 -27,28 -10,45 10,10 33,19 50,20 18,1 51,12 75,24 48,23 128,96 128,116 0,6 -10,28 -21,48 -16,26 -26,34 -38,29 -9,-4 -38,-10 -66,-15 -64,-9 -118,-24 -175,-46 -75,-30 -82,-36 -82,-77 0,-36 -1,-37 -19,-20 -15,14 -22,15 -32,5 -9,-9 -14,-2 -23,36 -12,57 -5,69 71,118 99,64 151,120 196,213 26,53 44,80 47,70 6,-28 27,-22 113,36 69,46 84,62 105,107 42,89 163,253 213,288 26,17 114,62 196,101 158,73 155,72 155,66 z M 401,1221 c 35,-15 75,-31 89,-34 45,-11 78,-52 130,-158 27,-57 67,-123 88,-145 l 37,-41 3,91 c 3,105 16,165 38,173 9,3 29,-8 50,-28 31,-30 37,-32 64,-22 25,9 30,9 30,-4 0,-18 -31,-73 -41,-73 -4,0 -17,-13 -29,-30 -25,-35 -20,-63 15,-86 22,-15 29,-14 91,11 73,29 101,28 134,-7 30,-33 35,-14 6,25 -47,62 -47,138 2,196 l 27,33 1,-45 c 1,-41 13,-69 69,-158 39,-62 65,-123 65,-152 0,-28 5,-36 33,-48 62,-27 77,-107 33,-181 -36,-62 -33,-78 22,-118 44,-33 47,-39 52,-89 6,-54 33,-91 66,-91 18,0 17,-11 -4,-35 -38,-44 -84,-74 -147,-95 -56,-19 -69,-27 -83,-56 -8,-19 -23,-34 -32,-34 -17,0 -83,65 -118,117 -28,40 -28,45 4,33 62,-24 164,0 164,38 0,44 -120,114 -216,127 -48,6 -139,-2 -396,-37 -77,-10 -89,-10 -112,5 -14,10 -26,27 -26,39 0,22 0,22 -155,2 -58,-7 -93,13 -96,56 -3,51 1,110 9,110 4,0 18,-19 32,-42 30,-49 81,-84 133,-91 21,-3 37,-3 35,1 -46,86 -51,110 -59,252 -12,204 -12,203 -70,252 l -50,42 36,13 c 19,7 42,10 50,7 20,-8 64,-130 80,-220 7,-42 18,-81 24,-87 7,-7 26,-7 65,3 l 54,13 -27,23 c -15,12 -42,24 -61,26 -31,3 -35,7 -43,42 -6,25 -6,51 2,76 27,92 -1,190 -94,319 -28,39 -55,111 -42,111 3,0 33,-13 68,-29 z M 550,673 c 11,-4 6,-9 -15,-18 -31,-14 -55,-5 -55,20 0,12 34,11 70,-2 z"
       id="path5552"
       style="fill:none;stroke:none;stroke-opacity:1;fill-opacity:1"
       inkscape:connector-curvature="0"
       sodipodi:nodetypes="csccccccsccccccccccccccccccccssccsccccccscccccccsccccccccsscssccccscccccccccscccccccsccsccscccsccsccccccscccccccsscccssccsccscccccccccccccsscccccscsccsccccccccccccsscscccccccccssccsccccscsccccccccscccccccccsscccccccccsccccscccsccscccsccscccccccccscccccccsccscc" />
    <path
       d="M1880 595 c-30 -13 -61 -22 -67 -20 -16 5 -17 -11 -2 -21 6 -3 8 -15 6 -26 -4 -15 -1 -18 16 -13 30 9 68 37 81 60 6 11 18 25 26 32 22 18 2 14 -60 -12z m1 -36 c-23 -19 -51 -25 -51 -11 0 8 63 39 70 34 3 -2 -6 -12 -19 -23z"
       id="path5554"
       style="fill:#ffffff;fill-opacity:1" />
    <path
       d="M566 1253 c30 -28 46 -53 57 -93 9 -30 29 -73 44 -95 l28 -40 3 49 c2 31 10 56 23 69 24 26 18 63 -13 90 -18 16 -73 34 -153 52 l-30 7 41 -39z m90 -13 c19 0 64 -45 64 -62 -1 -7 -14 -28 -30 -47 l-29 -34 -16 59 c-10 33 -21 63 -26 69 -14 15 -10 28 7 21 9 -3 22 -6 30 -6z"
       id="path5578"
       style="fill:url(#linearGradient6501);fill-opacity:1" />
    <path
       d="M63 914 c4 -22 9 -68 12 -104 10 -108 31 -166 75 -210 41 -41 60 -50 60 -27 0 7 6 21 13 31 12 17 16 17 43 3 16 -8 46 -18 67 -22 l37 -7 0 38 c0 80 -79 194 -134 194 -12 0 -31 -6 -42 -14 -11 -8 -25 -11 -31 -8 -6 4 -27 39 -46 79 -44 86 -62 102 -54 47z m77 -126 c25 -27 25 -28 58 -11 40 20 68 9 105 -39 26 -33 56 -122 46 -133 -3 -3 -32 4 -64 15 -60 21 -85 16 -85 -16 0 -25 -19 -15 -49 26 -31 42 -47 97 -54 175 -4 41 -3 46 7 31 6 -11 22 -32 36 -48z"
       id="path5580"
       style="fill:url(#linearGradient6517);fill-opacity:1" />
    <path
       d="M2784 845 c-3 -19 -16 -47 -27 -62 l-21 -26 39 6 c29 5 48 16 70 42 21 24 38 35 58 35 29 0 35 11 14 29 -10 8 -22 7 -45 -1 -26 -10 -37 -10 -52 0 -27 17 -28 16 -36 -23z m47 -28 c-4 -12 -17 -23 -29 -25 -19 -3 -20 -1 -10 32 9 30 14 34 29 25 14 -7 16 -15 10 -32z"
       id="path5582"
       style="fill:url(#radialGradient6483);fill-opacity:1" />
    <path
       d="M2707 624 c-26 -14 -52 -22 -57 -19 -20 12 -9 -7 20 -35 38 -37 54 -31 84 31 26 56 21 58 -47 23z m24 -28 c-6 -14 -17 -26 -24 -26 -27 0 -27 14 0 36 33 27 37 25 24 -10z"
       id="path5584"
       style="fill:url(#radialGradient6473);fill-opacity:1" />
  </g>
  <text
     xml:space="preserve"
     style="font-style:normal;font-variant:normal;font-weight:normal;font-stretch:normal;font-size:12px;line-height:1.25;font-family:Impact;-inkscape-font-specification:Impact;letter-spacing:0px;word-spacing:0px;fill:#000000;fill-opacity:1;stroke:none;stroke-width:0.75;"
     x="69.085175"
     y="58.129337"
     id="text6198"><tspan
       sodipodi:role="line"
       id="tspan6196"
       x="69.085175"
       y="66.014038"
       style="stroke-width:0.75;-inkscape-font-specification:Impact;font-family:Impact;font-weight:normal;font-style:normal;font-stretch:normal;font-variant:normal;" /></text>
  <text
     xml:space="preserve"
     style="font-style:normal;font-variant:normal;font-weight:normal;font-stretch:normal;font-size:12px;line-height:1.25;font-family:Impact;-inkscape-font-specification:Impact;letter-spacing:0px;word-spacing:0px;fill:#000000;fill-opacity:1;stroke:none;stroke-width:0.75;"
     x="124.92113"
     y="11.757097"
     id="text6202"><tspan
       sodipodi:role="line"
       id="tspan6200"
       x="124.92113"
       y="19.6418"
       style="stroke-width:0.75;-inkscape-font-specification:Impact;font-family:Impact;font-weight:normal;font-style:normal;font-stretch:normal;font-variant:normal;" /></text>
  <path
     style="font-style:normal;font-variant:normal;font-weight:normal;font-stretch:normal;font-size:12px;line-height:1.25;font-family:Gautami;-inkscape-font-specification:Gautami;letter-spacing:0.39750004px;word-spacing:0px;fill:#ffffff;fill-opacity:1;stroke:none;stroke-width:0.85144162"
     d="m 74.5,46.7 c -1.264472,0 -2.372035,0.16113 -3.322698,0.4834 -0.950662,0.32226 -1.708127,0.78418 -2.27114,1.38574 -0.553784,0.60156 -0.886055,1.26758 -0.996811,1.99805 -0.101527,0.72331 -0.151032,1.95866 -0.151032,3.70605 v 2.97657 c 0,1.79036 0.05537,3.04264 0.166136,3.75878 0.110756,0.71615 0.45687,1.37907 1.038344,1.9878 0.213476,0.22348 0.459828,0.41911 0.723063,0.60205 -0.523789,-0.026 -1.079865,-0.0439 -1.708547,-0.0439 h -5.814726 v 17.39203 h 5.650479 v 16.48829 h 5.82794 v -7.84131 c 0.802987,0 1.297405,0.11051 1.481998,0.33252 0.193832,0.22201 0.290744,0.79899 0.290744,1.72998 v 5.77881 h 5.412595 v -4.58643 c 0,-1.40364 -0.0495,-2.25992 -0.151023,-2.56787 -0.0923,-0.3151 -0.337518,-0.65886 -0.734396,-1.03125 -0.396878,-0.37239 -1.172172,-0.66862 -2.325891,-0.89062 1.273703,-0.0931 2.128084,-0.3724 2.561877,-0.83789 0.433792,-0.4655 0.649433,-1.3755 0.649433,-2.72901 0,-1.48242 -0.308559,-2.55973 -0.926954,-3.23291 -0.214779,-0.23987 -0.46051,-0.43653 -0.721174,-0.61231 h 2.782757 v -3.15234 c 0,-1.6862 0.234313,-3.00276 0.704189,-3.95068 0.469877,-0.94792 1.315655,-1.70947 2.537335,-2.28369 0.69755,-0.32787 1.519492,-0.55075 2.439168,-0.69141 v -0.53467 h -3.641757 v -3.29882 h 3.890956 v -2.57813 h 1.706655 v -7.00341 h 1.563182 c 1.273704,0 2.304074,-0.13656 3.0886,-0.40869 0.793756,-0.27214 1.337681,-0.66195 1.633038,-1.17041 0.295346,-0.50847 0.443651,-1.31722 0.443651,-2.42725 v -1.51465 c 0,-1.08854 -0.07908,-1.89111 -0.235986,-2.40674 -0.147679,-0.52278 -0.438413,-0.9663 -0.872205,-1.33154 -0.424572,-0.36523 -1.065411,-0.64453 -1.923773,-0.83789 -0.849134,-0.19336 -2.06746,-0.29004 -3.654972,-0.29004 H 83.76769 v 16.48828 h -4.389357 c 0.257707,-0.18363 0.496507,-0.37909 0.700412,-0.60058 0.563007,-0.60157 0.895277,-1.26449 0.996809,-1.9878 0.110758,-0.73047 0.166131,-1.96891 0.166131,-3.7163 v -2.97657 c 0,-1.79036 -0.05537,-3.04264 -0.166131,-3.75879 C 80.964792,49.79831 80.618679,49.13538 80.03721,48.52666 79.45574,47.91794 78.686312,47.46367 77.726418,47.16289 76.775762,46.85495 75.699865,46.7 74.5,46.7 Z m 23.838489,0.36621 v 16.48828 h -6.398085 l -1.221469,7.16895 c 1.243671,0.055 2.342275,0.22945 3.277388,0.53613 0.634989,0.2011 1.179641,0.44002 1.6538,0.71045 0.189271,-1.26796 0.431337,-2.74719 0.747609,-4.52637 0.223054,2.18498 0.445267,4.01965 0.66832,5.67774 0.274815,0.31323 0.496274,0.63194 0.662646,0.95508 v -2.61182 h 1.463119 c 0,-1.19401 0.05286,-1.99251 0.158588,-2.39356 0.10571,-0.40104 0.36478,-0.75651 0.775925,-1.0664 0.26647,-0.20101 0.60543,-0.36735 1.00248,-0.50684 l -0.58336,-3.04101 h 1.95018 v 2.57812 h 2.89793 0.54939 2.05971 v 2.80225 c -0.94215,0 -1.61084,0.0253 -2.05971,0.0703 v 1.55713 h 2.05971 v 2.87109 h -1.69157 V 86.4456 h 5.23515 v -0.75147 c 0,-1.42513 -0.17013,-2.5101 -0.51163,-3.25488 -0.25177,-0.55441 -0.72069,-1.05117 -1.39893,-1.49268 h 2.13522 V 67.03495 h 3.46052 v -2.57812 h 0.11512 v -7.90577 l 2.91303,7.59522 c -0.50352,0.28287 -0.90935,0.61472 -1.19315,1.00928 -0.43381,0.61588 -0.65133,1.59033 -0.65133,2.92236 0,0.92383 0.15229,1.68197 0.45687,2.27637 0.31381,0.5944 0.70544,1.06087 1.17616,1.39746 0.47071,0.33659 1.43186,0.87679 2.88094,1.62158 1.44906,0.73763 2.35692,1.264 2.72612,1.5791 0.35996,0.31511 0.53993,0.98421 0.53993,2.0083 0,0.4655 -0.0969,0.81689 -0.29073,1.05323 -0.1846,0.23632 -0.46946,0.35448 -0.85711,0.35448 -0.38764,0 -0.66054,-0.0936 -0.81746,-0.27978 -0.14767,-0.1862 -0.22089,-0.60514 -0.22089,-1.25683 v -2.11524 h -5.41449 v 1.13818 c 0,1.30339 0.17201,2.31006 0.51351,3.01905 0.21238,0.44092 0.58799,0.82643 1.0931,1.17041 h -4.07409 v 17.39062 h 10.10781 v -3.48047 h -4.27797 v -3.82324 h 3.63985 v -3.30908 h -3.63985 v -3.29737 h 3.88906 v -2.23388 c 1.18041,-0.0474 2.23943,-0.23103 3.16034,-0.56983 1.07065,-0.40104 1.79057,-0.89517 2.15976,-1.48242 0.37841,-0.58724 0.56826,-1.50032 0.56826,-2.73925 0,-1.70443 -0.33814,-2.93978 -1.01191,-3.70606 -0.67378,-0.76627 -2.30744,-1.74691 -4.90098,-2.94287 -0.90453,-0.41536 -1.45243,-0.76986 -1.64626,-1.06348 -0.20305,-0.29362 -0.30583,-0.73095 -0.30583,-1.31103 0,-0.45117 0.089,-0.78727 0.2643,-1.00928 0.18459,-0.222 0.45163,-0.33398 0.80235,-0.33398 0.32305,0 0.55442,0.0828 0.69287,0.24756 0.13844,0.16471 0.20766,0.54834 0.20766,1.1499 v 1.28906 h 5.41261 v -0.68848 c 0,-1.38216 -0.176,-2.3597 -0.52672,-2.93261 -0.3415,-0.58008 -1.04758,-1.05892 -2.11823,-1.43848 -0.8804,-0.31482 -1.92536,-0.49269 -3.11691,-0.54639 V 47.0662 h -4.87455 v 7.83106 l -3.26607,-7.83106 h -4.87456 v 16.48828 h -2.02571 v -2.57812 h -4.27798 v -3.82324 h 3.63987 v -3.30909 h -3.63987 v -3.29736 h 3.88908 V 47.0662 Z m -23.810167,2.57813 c 0.359963,0 0.595322,0.1136 0.706074,0.34277 0.119985,0.22201 0.179354,0.73763 0.179354,1.54688 v 7.99218 c 0,1.02409 -0.05538,1.67318 -0.166139,1.94531 -0.110758,0.27214 -0.363946,0.40723 -0.760824,0.40723 -0.387647,0 -0.636848,-0.11816 -0.747611,-0.35449 -0.101517,-0.23633 -0.152917,-0.85938 -0.152917,-1.86914 v -8.12109 c 0,-0.89519 0.07908,-1.4323 0.235987,-1.61133 0.16614,-0.1862 0.401499,-0.27832 0.706076,-0.27832 z m 15.069198,0.39697 c 0.756842,0 1.255241,0.089 1.495222,0.26807 0.239967,0.17903 0.358695,0.56575 0.358695,1.16015 v 1.42969 c 0,0.64453 -0.104875,1.06966 -0.317162,1.27734 -0.203054,0.20052 -0.572877,0.30176 -1.108201,0.30176 -0.119985,0 -0.262414,-0.005 -0.428554,-0.0117 z M 78.171963,64.20049 v 16.25098 c -0.208486,-0.0667 -0.424551,-0.12264 -0.653211,-0.16114 -0.58957,-0.1002 -1.622666,-0.15851 -2.87149,-0.19775 0.220328,-0.17583 0.411705,-0.37758 0.556928,-0.61817 0.350733,-0.56575 0.524837,-1.43587 0.524837,-2.61035 v -1.61133 c 0,-1.13151 -0.239351,-1.9694 -0.719289,-2.51367 -0.479947,-0.55143 -1.393688,-0.94433 -2.74123,-1.18066 1.209096,-0.21485 2.016065,-0.52328 2.422174,-0.92432 0.41534,-0.40104 0.623005,-1.11002 0.623005,-2.12695 0,-1.50391 -0.290735,-2.59196 -0.872205,-3.26514 -0.135383,-0.1584 -0.282605,-0.3015 -0.437997,-0.43506 0.164854,0.006 0.326867,0.0161 0.496515,0.0161 1.264472,0 2.372046,-0.16113 3.322701,-0.48339 0.122932,-0.0417 0.232971,-0.0928 0.349262,-0.13917 z M 67.99053,66.53106 c 0.599933,0.007 1.001425,0.0394 1.204479,0.0967 0.212285,0.0573 0.382405,0.19694 0.511621,0.41894 0.129215,0.21484 0.194454,0.59391 0.194454,1.13818 0,1.03125 -0.07908,1.65739 -0.235987,1.8794 -0.156906,0.21484 -0.52085,0.32227 -1.093092,0.32227 -0.138448,0 -0.332272,0.005 -0.581475,0.0117 z m 0,6.57421 c 0.867596,0.0215 1.403549,0.11052 1.606603,0.26807 0.203053,0.15755 0.303951,0.60872 0.303951,1.35352 v 1.62157 c 0,0.70183 -0.114744,1.14226 -0.345486,1.32129 -0.221513,0.17904 -0.743621,0.28028 -1.565068,0.30177 z m 22.184691,0.8086 -1.045895,6.13037 h -0.04909 v 4.17627 c 0,0.71012 0.05042,1.20419 0.147253,1.50732 0.10371,-0.61406 0.177303,-1.10467 0.300178,-1.7959 0.0855,0.83762 0.171245,1.5528 0.256751,2.31299 0.100278,0.0238 0.208737,0.0396 0.334163,0.0396 0.422889,0 0.69957,-0.11898 0.828785,-0.35595 0.140961,-0.23698 0.211445,-0.74691 0.211445,-1.53076 v -8.36724 c 0,-0.92969 -0.06524,-1.51351 -0.194452,-1.75049 -0.125,-0.23805 -0.389347,-0.35843 -0.789144,-0.36621 z m 7.666753,0.42187 c 0.02689,0.0637 0.06033,0.12636 0.08306,0.19043 0.234933,0.62891 0.353032,1.58594 0.353032,2.87109 v 3.54932 h 0.913741 v -6.61084 z m 1.349843,7.12061 c -0.416152,0.38959 -0.705601,0.79829 -0.838219,1.23047 -0.04804,0.15655 -0.08845,0.34455 -0.12649,0.54052 -0.03761,0.735 -0.09406,1.39418 -0.194451,1.87207 -0.01583,0.37268 -0.02644,0.772 -0.02644,1.20704 v 5.1665 c 0,1.19596 0.05537,2.09521 0.16614,2.69677 0.110758,0.59441 0.387646,1.16374 0.830671,1.70802 0.443027,0.54426 1.089742,1.00308 1.938872,1.37548 0.85837,0.36524 1.7761,0.54785 2.75445,0.54785 0.82145,0 1.53339,-0.13346 2.13332,-0.39843 0.60917,-0.27214 1.11156,-0.67578 1.50844,-1.2129 l 0.53994,1.24512 h 3.66818 v -9.33398 h -5.23515 v 1.06787 h -1.58961 v 1.5747 h 1.17617 v 2.0625 c 0,0.80925 -0.0772,1.35255 -0.23409,1.63184 -0.14769,0.2793 -0.43443,0.41895 -0.85901,0.41895 -0.38765,0 -0.64671,-0.12126 -0.77592,-0.36475 -0.12923,-0.25065 -0.19257,-0.76627 -0.19257,-1.54687 v -3.77637 h -4.644234 z m -25.550809,1.56299 c 0.673772,0 1.136513,0.0859 1.385715,0.25781 0.25844,0.17187 0.387027,0.53402 0.387027,1.08545 v 0.95508 c 0,0.76627 -0.134464,1.222 -0.402127,1.36523 -0.25843,0.13606 -0.715306,0.20362 -1.370615,0.20362 z m 10.083264,4.93066 -1.61793,9.48486 h 6.037503 l 0.345483,-3.12597 h 2.089904 l 0.290735,3.12597 h 5.967647 l -1.702885,-8.87549 c -0.373959,0.18224 -0.771919,0.34518 -1.210138,0.47315 -1.080722,0.3099 -2.324635,0.46435 -3.734272,0.46435 -0.0033,0 -0.0062,1e-5 -0.0094,0 0.07742,0.57965 0.154802,1.2138 0.232208,1.72999 h -1.993572 c 0.0442,-0.46085 0.148326,-1.16213 0.232217,-1.78272 -0.919984,-0.0598 -1.747658,-0.16998 -2.461825,-0.34277 -1.044501,-0.26144 -1.86135,-0.64831 -2.465592,-1.15137 z"
     id="text6206"
     inkscape:connector-curvature="0" />
  <path
     style="opacity:1;fill:url(#linearGradient6457);fill-opacity:1;stroke:none;stroke-width:2.18934894;stroke-miterlimit:4;stroke-dasharray:none;stroke-opacity:1"
     d="m 232.13411,161.1201 c -1.56453,-1.65426 -2.8446,-3.37005 -2.8446,-3.81286 0,-1.26761 2.92646,-3.40447 5.54645,-4.04995 7.66828,-1.8892 9.62564,-2.50898 12.48943,-3.95461 5.98819,-3.02283 15.98789,-11.95307 16.73998,-14.94966 0.38689,-1.54147 -2.02637,-6.77466 -4.45519,-9.66115 -1.16141,-1.38026 -1.80467,-1.71383 -2.90681,-1.50739 -20.39932,3.82109 -29.89633,6.43715 -37.98066,10.46219 -5.1954,2.5867 -5.83373,3.50298 -5.84525,8.39054 -0.004,1.88147 -0.15724,3.42086 -0.33956,3.42086 -0.18232,0 -1.06328,-0.61576 -1.95768,-1.36834 -1.777,-1.49525 -3.15119,-1.72976 -4.16941,-0.71154 -0.95895,0.95895 -1.67391,0.008 -2.59406,-3.44893 -2.13429,-8.01924 -1.1725,-9.52647 11.51566,-18.04633 6.74813,-4.53123 15.33231,-12.68385 18.52456,-17.59324 1.11882,-1.72065 3.6437,-6.154082 5.61086,-9.852073 1.96715,-3.697997 3.94394,-7.093081 4.39287,-7.544634 0.72534,-0.72959 0.87675,-0.714352 1.35977,0.136834 0.30963,0.545624 1.17962,0.954529 2.02153,0.950139 3.02348,-0.01576 17.67353,-9.246392 22.41738,-14.12465 1.28146,-1.317775 3.60867,-4.88539 5.17157,-7.928044 5.95873,-11.600414 20.70297,-31.707141 26.76406,-36.498155 3.97793,-3.144374 42.43543,-22.2582985 43.81005,-21.7742147 0.23092,0.081321 -4.53977,3.2266297 -10.60153,6.9895727 -13.99459,8.687384 -20.28425,13.380829 -26.28316,19.612908 -6.55187,6.806518 -11.47781,14.707191 -14.99465,24.049734 -1.59754,4.243873 -1.59711,4.278169 0.0666,5.368257 2.1312,1.396416 5.99051,0.205837 10.77652,-3.324502 4.3646,-3.219492 6.70285,-4.108262 11.93355,-4.535958 l 3.54393,-0.289775 -0.95671,1.316324 c -3.51832,4.840807 -3.71478,5.613277 -1.9864,7.810557 2.98601,3.796096 8.60765,-0.584802 9.83661,-7.665587 1.06047,-6.109981 2.24857,-7.177432 6.54378,-5.879277 4.45008,1.344957 5.46867,1.078442 8.7761,-2.296267 1.64541,-1.678886 3.65675,-3.402999 4.46965,-3.831361 1.98928,-1.048266 4.26905,-1.015521 4.26905,0.06132 0,1.100147 -5.82583,12.000161 -6.88259,12.877194 -0.44913,0.372748 -2.34779,1.076748 -4.21923,1.564445 -3.06014,0.797471 -3.42037,1.040383 -3.57895,2.413387 -0.13855,1.199599 0.34437,2.047369 2.25416,3.95716 4.2621,4.262099 7.63836,3.105658 11.8429,-4.056442 2.62229,-4.466861 6.04422,-7.981684 9.45974,-9.716545 3.20198,-1.626391 4.8074,-1.70427 4.8074,-0.233205 0,3.032327 -1.88075,13.11689 -2.77212,14.864133 -1.49098,2.922562 -4.9959,5.672964 -8.49923,6.669572 -4.00972,1.140668 -7.88546,3.442795 -7.88546,4.68385 0,0.851624 0.89759,1.06462 6.97855,1.656007 8.66893,0.843069 9.00231,0.935252 8.78931,2.430402 -0.2413,1.693817 -4.30995,3.544622 -9.11985,4.148575 -2.93113,0.368046 -4.58238,0.909784 -6.209,2.037036 -2.9051,2.013233 -5.91238,5.996179 -5.91238,7.830552 0,2.958954 2.74694,3.718637 4.95346,1.369914 1.22324,-1.302077 1.3606,-1.332317 2.01109,-0.442725 1.02539,1.402306 0.8957,7.335392 -0.19436,8.891672 -1.63847,2.33923 -3.85211,2.80042 -13.45749,2.80371 -9.97628,0.003 -11.57685,0.30436 -16.09797,3.02684 -4.28533,2.58049 -5.70364,2.90769 -15.52834,3.58236 -8.92988,0.61322 -13.89072,1.53847 -16.13577,3.00948 -0.74314,0.48693 -1.95847,2.15419 -2.70072,3.70502 -1.32506,2.76855 -4.15167,14.25541 -4.15167,16.8717 0,0.7323 0.73695,2.33355 1.63766,3.55833 l 1.63768,2.22688 -3.81693,0.37612 c -10.55406,1.03996 -38.18812,10.21972 -40.97183,13.61043 -0.40524,0.4936 -1.03401,1.90404 -1.39726,3.13431 l -0.66047,2.23685 z m 15.72031,-56.2759 c 3.16948,-1.53432 12.08597,-10.702824 12.08597,-12.427561 0,-0.945886 -0.70234,-0.762544 -8.24259,2.151638 -3.91243,1.51209 -8.21497,2.900231 -9.5612,3.084749 -2.71883,0.37266 -2.99089,0.990516 -1.35301,3.072744 0.70163,0.89198 1.09467,2.22042 1.09467,3.69992 v 2.30827 l 1.76572,-0.35314 c 0.97114,-0.19423 2.86584,-0.88571 4.21044,-1.53662 z"
     id="path6449"
     inkscape:connector-curvature="0"
     transform="scale(0.74999999)" />
  <path
     style="opacity:1;fill:url(#linearGradient6493);fill-opacity:1;stroke:none;stroke-width:2.18934894;stroke-miterlimit:4;stroke-dasharray:none;stroke-opacity:1"
     d="m 158.84391,170.17948 c -4.60865,-3.3481 -16.43063,-17.44958 -15.45053,-18.42968 0.15549,-0.15549 1.32258,0.0842 2.59353,0.5326 7.78019,2.74501 20.06475,0.44632 21.95099,-4.10747 2.20323,-5.31907 -11.07398,-14.60164 -25.43915,-17.78543 -3.61632,-0.80149 -5.75984,-0.9033 -12.58875,-0.5979 -8.1963,0.36655 -11.76484,0.75212 -38.952451,4.20865 -12.278788,1.56109 -14.616959,1.72396 -16.528211,1.15133 -2.618191,-0.78442 -5.43593,-3.40329 -5.88726,-5.47174 -0.175559,-0.8046 -0.414047,-1.77077 -0.529973,-2.14707 -0.286263,-0.9292 -6.589761,-0.86727 -13.928563,0.13684 -8.270881,1.13163 -12.313508,1.0519 -15.101752,-0.29786 -3.460769,-1.67533 -4.062942,-3.40732 -4.016582,-11.55261 0.02116,-3.71745 0.214744,-7.2061 0.430191,-7.75255 0.378431,-0.95983 0.420829,-0.95983 1.24966,0 0.471866,0.54645 1.847756,2.47136 3.057532,4.27758 4.624278,6.9041 11.442669,11.46895 18.372211,12.30001 3.315824,0.39767 5.003754,0.2287 4.624036,-0.46287 -1.255454,-2.28653 -4.32494,-9.1592 -5.042274,-11.28981 C 56.549771,109.60414 55.397611,100.97358 54.916503,92.366356 53.841392,73.132131 53.042354,66.680929 51.31601,63.297017 50.417011,61.534835 46.276273,57.44024 40.709631,52.808833 l -1.606159,-1.336313 3.629152,-1.207704 c 1.996033,-0.664237 4.566068,-1.130468 5.711188,-1.03607 1.928152,0.158949 2.21189,0.414362 3.838894,3.455659 2.296584,4.292914 5.705022,14.748828 7.493726,22.988164 3.075161,14.165176 3.457209,15.051775 6.486004,15.051775 2.216711,0 13.545957,-2.709933 13.545957,-3.240166 0,-1.423569 -8.826497,-6.595167 -11.275573,-6.606557 -2.114455,-0.0099 -4.440379,-1.141467 -5.036852,-2.450582 -0.324792,-0.712842 -0.85758,-2.768761 -1.183974,-4.568712 -0.50288,-2.773221 -0.424275,-4.032102 0.515088,-8.249292 1.426097,-6.40234 1.431339,-12.839801 0.01502,-18.447284 -1.408891,-5.578072 -5.9781,-14.95436 -10.543982,-21.636875 -1.978935,-2.89632 -4.199985,-6.467696 -4.935668,-7.93639 -1.670762,-3.335459 -3.34731,-8.3835136 -2.924677,-8.8061467 0.17481,-0.1748105 3.832856,1.1753018 8.128989,3.0002497 4.296134,1.824948 9.460207,3.848197 11.475717,4.496109 2.01551,0.647912 4.652405,1.89361 5.859766,2.768218 2.981434,2.15974 7.015011,8.059478 11.373226,16.635124 5.503909,10.830026 10.1323,18.317799 13.91844,22.517156 3.652683,4.051329 4.312974,4.573809 4.328447,3.42505 0.0055,-0.40138 0.24501,-5.572196 0.53245,-11.4907 0.67872,-13.974958 2.27502,-21.788177 4.63665,-22.694417 1.08292,-0.415559 3.42194,0.954931 7.02728,4.117473 3.78667,3.321603 4.82963,3.654061 7.97725,2.542846 3.1639,-1.116965 3.89938,-1.067026 3.89938,0.264767 0,2.040673 -3.21686,7.541557 -5.46828,9.350849 -2.54636,2.04631 -5.2052,6.002655 -5.73468,8.533182 -0.53945,2.578203 1.03905,5.458783 4.04814,7.387411 3.06768,1.966178 4.07235,1.867567 12.20594,-1.198037 9.79251,-3.690861 12.92891,-3.639208 17.29335,0.284802 2.58998,2.328613 4.47506,3.116836 4.47506,1.871192 0,-0.817468 -1.22278,-3.073995 -3.49303,-6.44608 -2.45131,-3.640996 -3.62236,-7.501455 -3.62236,-11.941348 0,-4.463995 1.47797,-8.341405 4.76847,-12.509946 l 2.59228,-3.284024 0.62366,5.199704 c 0.73632,6.139103 1.80764,8.733128 7.48046,18.112731 7.17782,11.868002 10.25999,18.916271 10.25999,23.462454 0,2.605189 1.15973,4.138319 4.35541,5.757693 3.3062,1.675372 6.25761,5.075031 7.13908,8.22332 1.26554,4.520043 0.54668,8.779071 -2.56037,15.169612 -1.53515,3.15748 -2.95887,6.50435 -3.16382,7.43749 -0.61337,2.79266 0.9806,5.20384 6.06447,9.1736 2.52435,1.97116 4.93231,4.24712 5.35101,5.05768 0.41871,0.81057 1.05663,3.44417 1.41761,5.85246 1.16728,7.78752 3.90344,12.14227 8.05299,12.81676 3.34668,0.54399 2.99547,1.76986 -1.86573,6.51215 -5.28382,5.15456 -8.55194,7.12663 -17.49899,10.55937 -7.32491,2.81037 -9.38197,4.23685 -11.19586,7.76386 -1.12557,2.18861 -2.89491,4.21916 -3.6764,4.21916 -0.25587,0 -1.42581,-0.69785 -2.59986,-1.55078 z"
     id="path6485"
     inkscape:connector-curvature="0"
     transform="scale(0.74999999)" />
</svg>
