<?xml version="1.0" encoding="UTF-8" standalone="no"?>
<svg
   version="1.1"
   id="svg15580"
   sodipodi:docname="wiiu.svg"
   width="600.00018"
   height="180.64523"
   inkscape:version="1.1 (c68e22c387, 2021-05-23)"
   xmlns:inkscape="http://www.inkscape.org/namespaces/inkscape"
   xmlns:sodipodi="http://sodipodi.sourceforge.net/DTD/sodipodi-0.dtd"
   xmlns="http://www.w3.org/2000/svg"
   xmlns:svg="http://www.w3.org/2000/svg">
  <defs
     id="defs15584" />
  <sodipodi:namedview
     id="namedview15582"
     pagecolor="#ffffff"
     bordercolor="#111111"
     borderopacity="1"
     inkscape:pageshadow="0"
     inkscape:pageopacity="0"
     inkscape:pagecheckerboard="1"
     showgrid="false"
     fit-margin-top="0"
     fit-margin-left="0"
     fit-margin-right="0"
     fit-margin-bottom="0"
     inkscape:zoom="3.4"
     inkscape:cx="61.911765"
     inkscape:cy="75"
     inkscape:window-width="1280"
     inkscape:window-height="738"
     inkscape:window-x="-8"
     inkscape:window-y="-8"
     inkscape:window-maximized="1"
     inkscape:current-layer="svg15580" />
  <g
     id="g15578"
     transform="translate(5.3219246e-4,-1.8024988e-4)">
    <path
       d="m 70.08,134.778 c 1.708,-6.551 3.305,-12.724 4.928,-18.928 7.503,-28.568 14.868,-57.166 22.695,-85.653 0.813,-3.007 1.786,-5.957 3.196,-8.748 3.575,-7.122 9.151,-11.51 17.167,-12.482 7.341,-0.894 14.246,0.135 19.957,5.333 4.01,3.628 6.285,8.34 7.746,13.433 5.661,20.093 10.859,40.294 16.168,60.471 4.006,15.272 7.962,30.545 11.941,45.791 0.027,0.081 0.081,0.162 0.135,0.27 0.571,-0.054 0.381,-0.567 0.462,-0.867 6.498,-25.429 12.971,-50.828 19.469,-76.256 3.901,-15.246 7.8,-30.492 11.644,-45.738 0.301,-1.164 0.733,-1.546 1.978,-1.546 11.645,0.054 23.289,0.027 34.961,0.027 1.923,0 1.896,0 1.38,1.897 -6.797,24.454 -13.565,48.934 -20.417,73.387 -6.824,24.346 -13.46,48.772 -20.798,72.979 -2.464,8.098 -6.878,14.895 -14.408,19.202 -10.207,5.822 -26.239,4.604 -34.58,-9.127 -2.98,-4.901 -4.63,-10.291 -6.173,-15.732 -8.559,-30.221 -16.764,-60.551 -24.996,-90.881 -0.082,-0.327 -0.19,-0.624 -0.325,-1.029 -0.57,0.867 -0.651,1.759 -0.894,2.599 -7.608,28.001 -15.192,56.001 -23.073,83.948 -1.65,5.849 -2.977,11.78 -5.63,17.305 -2.791,5.795 -6.609,10.615 -12.485,13.595 -10.156,5.117 -23.397,2.437 -30.927,-6.068 -4.603,-5.198 -7.04,-11.399 -8.934,-17.926 C 29.352,116.393 18.926,78.615 8.419,40.839 5.658,30.984 2.923,21.071 0.132,11.188 -0.192,10.05 0.051,9.858 1.162,9.858 c 11.887,0.027 23.778,0.027 35.666,0 1.137,0 1.488,0.409 1.758,1.438 8.448,33.226 16.927,66.454 25.402,99.68 1.897,7.446 3.79,14.868 5.687,22.314 0.081,0.381 0.189,0.732 0.405,1.488 z"
       style="fill:#ffffff"
       id="path15564" />
    <path
       d="m 511.025,135.457 c -19.418,0 -38.859,0 -58.276,0 -4.199,0 -8.368,-0.514 -12.431,-1.732 -11.453,-3.385 -17.791,-11.293 -19.985,-22.803 -0.594,-3.169 -0.864,-6.362 -0.864,-9.558 0,-25.699 0,-51.398 0,-77.097 0,-5.174 0.891,-10.156 3.763,-14.571 4.061,-6.227 10.126,-8.988 17.305,-9.45 7.392,-0.487 14.811,-0.081 22.205,-0.189 1.138,-0.027 1.03,0.624 1.03,1.353 0,8.83 -0.03,17.629 0,26.458 0.054,13.349 -0.354,26.702 0.189,40.024 0.405,10.507 3.358,20.254 10.399,28.406 5.414,6.284 12.32,10.129 20.309,12.133 10.02,2.491 20.092,2.572 30.086,0 16.086,-4.171 25.645,-14.678 29.409,-30.708 1.137,-4.849 1.515,-9.777 1.515,-14.732 -0.027,-20.42 0,-40.837 -0.027,-61.257 0,-1.38 0.381,-1.704 1.708,-1.677 7.013,0.135 14.054,-0.243 21.068,0.189 13.187,0.786 21.446,9.477 21.527,22.721 0.081,16.168 0.027,32.359 0.027,48.526 0,10.48 0.027,20.933 -0.027,31.413 -0.027,4.685 -0.729,9.316 -2.356,13.73 -3.601,9.937 -10.885,15.543 -20.987,17.764 -3.358,0.76 -6.797,1.084 -10.237,1.084 -18.466,-0.027 -36.908,-0.027 -55.35,-0.027 z"
       style="fill:#ffffff"
       id="path15566" />
    <path
       d="m 263.784,120.373 c 0,-19.009 0.027,-37.992 -0.027,-57.004 0,-1.354 0.351,-1.705 1.707,-1.705 11.021,0.054 22.071,0.054 33.091,0 1.273,0 1.543,0.378 1.543,1.597 -0.027,38.184 -0.027,76.394 0,114.575 0,1.245 -0.324,1.573 -1.57,1.573 -11.077,-0.054 -22.151,-0.054 -33.229,0 -1.272,0 -1.542,-0.382 -1.542,-1.6 0.027,-19.144 0.027,-38.289 0.027,-57.436 z"
       style="fill:#ffffff"
       id="path15568" />
    <path
       d="m 337.63,120.373 c 0,-19.009 0.027,-37.992 -0.027,-57.004 0,-1.381 0.354,-1.705 1.708,-1.705 10.993,0.054 21.962,0.054 32.956,0 1.218,0 1.68,0.189 1.68,1.57 -0.054,38.184 -0.027,76.394 0,114.575 0,1.245 -0.327,1.573 -1.572,1.573 -11.075,-0.054 -22.152,-0.054 -33.226,0 -1.3,0 -1.546,-0.382 -1.546,-1.6 0.054,-19.117 0.027,-38.262 0.027,-57.409 z"
       style="fill:#ffffff"
       id="path15570" />
    <path
       d="m 533.447,33.501 c 0,10.643 0.216,21.312 -0.081,31.954 -0.19,7.311 -2.816,13.838 -8.368,18.874 -10.507,9.532 -30.572,7.665 -37.073,-9.586 -1.326,-3.52 -2.002,-7.175 -2.032,-10.912 -0.027,-20.852 -0.027,-41.677 -0.054,-62.529 0,-0.975 0.273,-1.272 1.246,-1.272 15.03,0.027 30.086,0.027 45.116,0 1.083,0 1.327,0.324 1.327,1.353 -0.027,10.696 -0.027,21.392 -0.027,32.118 0.027,0 -0.027,0 -0.054,0 z"
       style="fill:#ffffff"
       id="path15572" />
    <path
       d="m 260.182,21.044 c 0.027,-10.994 8.857,-20.228 19.337,-20.879 7.743,-0.46 14.378,1.815 19.306,7.908 7.908,9.747 5.009,24.045 -5.957,30.113 -10.75,5.958 -23.829,2.653 -29.924,-7.557 -1.867,-3.085 -2.681,-6.47 -2.762,-9.585 z"
       style="fill:#ffffff"
       id="path15574" />
    <path
       d="m 377.221,20.446 c -0.027,9.805 -6.713,17.767 -16.734,20.15 -10.264,2.437 -20.987,-2.899 -24.859,-12.431 -4.957,-12.13 2.762,-25.155 15.246,-27.568 9.046,-1.759 16.789,0.894 22.53,8.343 2.626,3.439 3.682,7.473 3.817,11.506 z"
       style="fill:#ffffff"
       id="path15576" />
  </g>
</svg>
