<svg height="351.58" viewBox="0 0 536.829 632.844" width="298.238" xmlns="http://www.w3.org/2000/svg">
    <g fill="#f4f4f4" fill-opacity=".5">
        <path d="M358.756 606.747q0 .32-.078.54-.114.324-.368.324-.168 0-.352-.077-.221-.093-.242-.23.074 0 .176.027.234.062.293.062.227 0 .341-.227.09-.181.09-.435 0-.178-.116-.509-.115-.333-.115-.464 0-.04.021-.064.024-.027.064-.027.104 0 .203.48.083.406.083.6zM359.782 607.02q0 .271-.157.426-.157.155-.435.155-.152 0-.234-.072-.083-.072-.083-.222 0-.21.275-.424.26-.202.482-.202.102 0 .134.125.018.072.018.213zm-.162.074q0-.032-.008-.061-.005-.032-.022-.072-.042.03-.141.144-.05.058-.088.085 0-.05.01-.083.022-.045.035-.077-.117 0-.245.099-.125.098-.125.213 0 .077.085.077.163 0 .315-.08.184-.096.184-.245zM360.88 607.129q0 .13-.098.293-.112.184-.232.184-.035 0-.059-.037-.02-.04-.02-.078 0-.048.1-.149.105-.104.105-.141 0-.024-.008-.048l-.011-.032q-.2.045-.408.23-.206.183-.312.207-.021-.059-.021-.12 0-.075.034-.157.024-.059.08-.142.094-.14.198-.32l.184-.322q.133-.23.194-.326.032-.048.056-.072.035-.032.083-.042.032.01.045.04.016.03.016.07 0 .09-.117.244-.213.278-.219.288-.12.182-.12.328l.005.027q.147-.072.174-.083.109-.045.186-.045.086 0 .126.059.04.056.04.144zM362.118 606.971q0 .182-.088.387-.096.227-.237.312-.03-.035-.05-.077-.02-.043-.02-.086 0-.045.134-.269.059-.099.053-.173l-.003-.035q-.099.03-.341.179l-.486.298q-.037 0-.069-.026-.03-.03-.03-.064 0-.056.18-.376.053-.096.192-.334.042.056.056.126.013.066.013.16v.061q.245-.147.384-.221.152-.083.208-.083.037 0 .07.085.034.086.034.136zM364.436 607.489q0 .048-.043.074-.04.024-.09.024-.046 0-.116-.01-.157-.024-.202-.024-.08 0-.315.018-.133.011-.192.011-.163 0-.163-.163 0-.154.102-.442.056-.163.21-.534.14-.333.176-.469.014-.043.022-.056.021-.032.053-.032.05 0 .085.075.035.072.035.13 0 .094-.11.315l-.213.43q-.114.25-.114.38 0 .068.056.094.04.019.117.019.059 0 .203-.013.144-.016.192-.016.12 0 .197.034.11.048.11.155zM365.428 607.02q0 .271-.158.426-.157.155-.434.155-.152 0-.235-.072-.083-.072-.083-.222 0-.21.275-.424.261-.202.483-.202.1 0 .133.125.019.072.019.213zm-.163.074q0-.032-.008-.061-.005-.032-.021-.072-.043.03-.142.144-.05.058-.088.085 0-.05.011-.083l.035-.077q-.118 0-.246.099-.125.098-.125.213 0 .077.085.077.163 0 .315-.08.184-.096.184-.245zM366.55 606.963q0 .086-.045.182-.043.096-.11.16l-.002-.038q0-.032.008-.098.008-.067.008-.099 0-.045-.014-.067-.013-.024-.056-.024-.125 0-.312.195l-.402.424q-.016 0-.032-.003l-.054-.013q.008-.096.067-.214.157-.317.163-.338l.032-.126q.01-.04.029-.082.021-.046.048-.08.03-.038.075-.056l.026.32.176-.144q.118-.094.203-.094.085 0 .139.056.053.056.053.139zM367.86 606.654q0 .112-.3.296-.287.176-.418.176-.061 0-.082-.043-.02-.042-.02-.12v-.072q.18 0 .326-.053.147-.053.256-.176-.08-.03-.163-.03-.194 0-.413.15-.24.163-.24.347 0 .176.24.245.037.01.45.075.243.037.243.13 0 .04-.088.064-.088.027-.224.027-.34 0-.538-.104-.262-.139-.262-.445 0-.32.32-.51.272-.16.62-.16.103 0 .188.048.104.06.104.155zM368.92 606.177q0 .058-.14.245-.142.187-.142.285 0 .051.059.102.133.117.133.144 0 .034-.024.066-.021.032-.056.032-.029 0-.082-.032-.038-.02-.144-.104l-.062.118q-.074.141-.101.205l-.08.245q-.07.166-.173.166l-.003-.062q0-.189.122-.448.024-.048.134-.248-.211-.114-.464-.114 0-.099.04-.144.042-.048.14-.048.092 0 .228.032l.133.032q.05-.016.139-.174.216-.378.293-.434.021.035.035.07.016.034.016.066zM369.905 607.129q0 .13-.099.293-.112.184-.232.184-.035 0-.059-.037-.02-.04-.02-.078 0-.048.1-.149.105-.104.105-.141 0-.024-.008-.048l-.011-.032q-.2.045-.408.23-.206.183-.312.207-.021-.059-.021-.12 0-.075.034-.157.024-.059.08-.142.094-.14.198-.32l.184-.322q.133-.23.194-.326.032-.048.056-.072.035-.032.083-.042.032.01.045.04.016.03.016.07 0 .09-.117.244-.213.278-.219.288-.12.182-.12.328l.005.027q.147-.072.174-.083.109-.045.186-.045.086 0 .126.059.04.056.04.144zM372.094 606.26q0 .125-.133.335-.085.134-.28.384-.195.248-.243.326l.2.064q.195.058.195.213l-.157.024-.03-.003v-.021q-.042-.01-.069-.01-.05 0-.16.015-.11.016-.165.016-.072 0-.118-.027-.045-.026-.045-.096 0-.056.205-.317l.387-.493q.208-.283.208-.379 0-.037-.027-.056-.024-.019-.098-.019-.051 0-.211.099-.077.048-.125.048l-.046-.008q-.016-.01-.034-.04-.02-.032-.02-.05 0-.113.217-.206.184-.08.32-.08.115 0 .176.085.053.075.053.195zM373.697 606.74q0 .322-.35.57-.32.227-.658.227-.168 0-.267-.086-.098-.085-.098-.248 0-.362.317-.629.301-.253.675-.253.189 0 .285.112.096.112.096.306zm-.163.06q0-.122-.138-.183-.104-.046-.248-.046-.211 0-.44.206-.23.205-.23.413 0 .085.043.123.045.034.136.034.261 0 .544-.144.333-.17.333-.402zM374.918 606.26q0 .125-.133.335-.085.134-.28.384-.195.248-.243.326l.2.064q.195.058.195.213l-.157.024-.03-.003v-.021q-.042-.01-.069-.01-.05 0-.16.015-.11.016-.165.016-.072 0-.118-.027-.045-.026-.045-.096 0-.056.205-.317l.387-.493q.208-.283.208-.379 0-.037-.027-.056-.024-.019-.098-.019-.051 0-.211.099-.077.048-.125.048l-.046-.008q-.016-.01-.034-.04-.02-.032-.02-.05 0-.113.217-.206.184-.08.32-.08.115 0 .176.085.053.075.053.195zM376.145 606.26q0 .125-.133.335-.086.134-.28.384-.195.248-.243.326l.2.064q.195.058.195.213l-.158.024-.03-.003v-.021q-.042-.01-.068-.01-.051 0-.16.015-.11.016-.166.016-.072 0-.117-.027-.045-.026-.045-.096 0-.056.205-.317l.387-.493q.208-.283.208-.379 0-.037-.027-.056-.024-.019-.099-.019-.05 0-.21.099-.078.048-.126.048l-.045-.008q-.016-.01-.035-.04-.018-.032-.018-.05 0-.113.216-.206.184-.08.32-.08.114 0 .176.085.053.075.053.195z"/>
    </g>
    <g fill="none" stroke="#f4f4f4" stroke-linecap="round">
        <rect height="630.844" rx="22.863" stroke-width="3.6" width="534.556" x="1.129" y="1"/>
        <rect height="150.073" rx="9.29" ry="9.29" stroke-width="1.8" width="473.664" x="29.009" y="459.075"/>
        <rect height="203.009" rx="22.863" ry="22.863" stroke-width="3.6" width="534.556" x="1.129" y="428.835"/>
        <rect height="397.261" rx="22.863" stroke-width="3.6" width="534.556" x="1.129" y="1"/>
        <g stroke-width="1.8">
            <rect height="242.528" rx="6.156" width="468.524" x="35.276" y="28.849"/>
            <path d="M535.813 272.868h-14.398a2.41 2.41 0 0 1-2.415-2.415 2.41 2.41 0 0 1 2.415-2.415h14.414M535.813 258.868h-14.398a2.41 2.41 0 0 1-2.415-2.415 2.41 2.41 0 0 1 2.415-2.415h14.414M535.813 244.868h-14.398a2.41 2.41 0 0 1-2.415-2.415 2.41 2.41 0 0 1 2.415-2.415h14.414M535.813 230.868h-14.398a2.41 2.41 0 0 1-2.415-2.415 2.41 2.41 0 0 1 2.415-2.415h14.414M535.813 216.868h-14.398a2.41 2.41 0 0 1-2.415-2.415 2.41 2.41 0 0 1 2.415-2.415h14.414M535.813 202.868h-14.398a2.41 2.41 0 0 1-2.415-2.415 2.41 2.41 0 0 1 2.415-2.415h14.414M535.813 188.868h-14.398a2.41 2.41 0 0 1-2.415-2.415 2.41 2.41 0 0 1 2.415-2.415h14.414M535.813 174.868h-14.398a2.41 2.41 0 0 1-2.415-2.415 2.41 2.41 0 0 1 2.415-2.415h14.414M535.813 160.868h-14.398a2.41 2.41 0 0 1-2.415-2.415 2.41 2.41 0 0 1 2.415-2.415h14.414M535.813 146.868h-14.398a2.41 2.41 0 0 1-2.415-2.415 2.41 2.41 0 0 1 2.415-2.415h14.414M535.813 132.868h-14.398a2.41 2.41 0 0 1-2.415-2.415 2.41 2.41 0 0 1 2.415-2.415h14.414M535.813 118.868h-14.398a2.41 2.41 0 0 1-2.415-2.415 2.41 2.41 0 0 1 2.415-2.415h14.414M535.813 104.868h-14.398a2.41 2.41 0 0 1-2.415-2.415 2.41 2.41 0 0 1 2.415-2.415h14.414M535.813 90.868h-14.398A2.41 2.41 0 0 1 519 88.453a2.41 2.41 0 0 1 2.415-2.415h14.414M535.813 76.868h-14.398A2.41 2.41 0 0 1 519 74.453a2.41 2.41 0 0 1 2.415-2.415h14.414M535.813 62.868h-14.398A2.41 2.41 0 0 1 519 60.453a2.41 2.41 0 0 1 2.415-2.415h14.414M535.813 48.868h-14.398A2.41 2.41 0 0 1 519 46.453a2.41 2.41 0 0 1 2.415-2.415h14.414M535.813 34.868h-14.398A2.41 2.41 0 0 1 519 32.453a2.41 2.41 0 0 1 2.415-2.415h14.414M1.015 272.868h14.398a2.41 2.41 0 0 0 2.416-2.415 2.41 2.41 0 0 0-2.416-2.415H1M1.015 258.868h14.398a2.41 2.41 0 0 0 2.416-2.415 2.41 2.41 0 0 0-2.416-2.415H1M1.015 244.868h14.398a2.41 2.41 0 0 0 2.416-2.415 2.41 2.41 0 0 0-2.416-2.415H1M1.015 230.868h14.398a2.41 2.41 0 0 0 2.416-2.415 2.41 2.41 0 0 0-2.416-2.415H1M1.015 216.868h14.398a2.41 2.41 0 0 0 2.416-2.415 2.41 2.41 0 0 0-2.416-2.415H1M1.015 202.868h14.398a2.41 2.41 0 0 0 2.416-2.415 2.41 2.41 0 0 0-2.416-2.415H1M1.015 188.868h14.398a2.41 2.41 0 0 0 2.416-2.415 2.41 2.41 0 0 0-2.416-2.415H1M1.015 174.868h14.398a2.41 2.41 0 0 0 2.416-2.415 2.41 2.41 0 0 0-2.416-2.415H1M1.015 160.868h14.398a2.41 2.41 0 0 0 2.416-2.415 2.41 2.41 0 0 0-2.416-2.415H1M1.015 146.868h14.398a2.41 2.41 0 0 0 2.416-2.415 2.41 2.41 0 0 0-2.416-2.415H1M1.015 132.868h14.398a2.41 2.41 0 0 0 2.416-2.415 2.41 2.41 0 0 0-2.416-2.415H1M1.015 118.868h14.398a2.41 2.41 0 0 0 2.416-2.415 2.41 2.41 0 0 0-2.416-2.415H1M1.015 104.868h14.398a2.41 2.41 0 0 0 2.416-2.415 2.41 2.41 0 0 0-2.416-2.415H1M1.015 90.868h14.398a2.41 2.41 0 0 0 2.416-2.415 2.41 2.41 0 0 0-2.416-2.415H1M1.015 76.868h14.398a2.41 2.41 0 0 0 2.416-2.415 2.41 2.41 0 0 0-2.416-2.415H1M1.015 62.868h14.398a2.41 2.41 0 0 0 2.416-2.415 2.41 2.41 0 0 0-2.416-2.415H1M1.015 48.868h14.398a2.41 2.41 0 0 0 2.416-2.415 2.41 2.41 0 0 0-2.416-2.415H1M1.015 34.868h14.398a2.41 2.41 0 0 0 2.416-2.415 2.41 2.41 0 0 0-2.416-2.415H1"/>
            <rect height="34.55" rx="3.783" width="79.94" x="41.743" y="328.517"/>
            <rect height="34.55" rx="3.783" width="29.724" x="128.472" y="328.517"/>
        </g>
        <g stroke-width="3.6">
            <g transform="translate(-.502 19.07)">
                <rect height="21" rx="2.415" width="164.206" x="157.556" y="560.09"/>
                <rect height="21" rx="2.415" width="21" x="71.9" y="560.09"/>
                <rect height="21" rx="2.415" width="21" x="129.556" y="560.09"/>
                <rect height="21" rx="2.415" width="21" x="101.556" y="560.09"/>
                <rect height="21" rx="2.415" width="21" x="42.245" y="560.09"/>
                <rect height="21" rx="2.415" width="21" x="71.9" y="560.09"/>
                <g transform="scale(-1 1)">
                    <rect height="21" rx="2.415" width="21" x="-349.651" y="560.09"/>
                    <rect height="21" rx="2.415" width="21" x="-377.651" y="560.09"/>
                    <rect height="21" rx="2.415" width="21" x="-436.962" y="560.09"/>
                    <rect height="21" rx="2.415" width="21" x="-407.306" y="560.09"/>
                    <rect height="21" rx="2.415" width="21" x="-466.617" y="560.09"/>
                </g>
            </g>
            <rect height="21" rx="2.415" width="21" x="260.998" y="551.16"/>
            <rect height="21" rx="2.415" width="21" x="232.998" y="551.16"/>
            <rect height="21" rx="2.415" width="21" x="204.998" y="551.16"/>
            <rect height="21" rx="2.415" width="21" x="176.998" y="551.16"/>
            <rect height="21" rx="2.415" width="21" x="148.998" y="551.16"/>
            <rect height="21" rx="2.415" width="21" x="120.998" y="551.16"/>
            <rect height="21" rx="2.415" width="72.255" x="41.743" y="551.16"/>
            <rect height="21" rx="2.415" width="65.117" x="400.998" y="551.16"/>
            <rect height="21" rx="2.415" width="21" x="372.998" y="551.16"/>
            <rect height="21" rx="2.415" width="21" x="344.998" y="551.16"/>
            <rect height="21" rx="2.415" width="21" x="316.998" y="551.16"/>
            <rect height="21" rx="2.415" width="21" x="288.998" y="551.16"/>
            <rect height="21" rx="2.415" width="21" x="243.988" y="523.16"/>
            <rect height="21" rx="2.415" width="21" x="215.988" y="523.16"/>
            <rect height="21" rx="2.415" width="21" x="187.988" y="523.16"/>
            <rect height="21" rx="2.415" width="21" x="159.988" y="523.16"/>
            <rect height="21" rx="2.415" width="21" x="131.988" y="523.16"/>
            <rect height="21" rx="2.415" width="21" x="103.988" y="523.16"/>
            <rect height="21" rx="2.415" width="55.245" x="41.743" y="523.16"/>
            <rect height="21" rx="2.415" width="54.127" x="411.988" y="523.16"/>
            <rect height="21" rx="2.415" width="21" x="383.988" y="523.16"/>
            <rect height="21" rx="2.415" width="21" x="355.988" y="523.16"/>
            <rect height="21" rx="2.415" width="21" x="327.988" y="523.16"/>
            <rect height="21" rx="2.415" width="21" x="299.988" y="523.16"/>
            <rect height="21" rx="2.415" width="21" x="271.988" y="523.16"/>
            <rect height="21" rx="2.415" width="21" x="226.788" y="495.16"/>
            <rect height="21" rx="2.415" width="21" x="198.788" y="495.16"/>
            <rect height="21" rx="2.415" width="21" x="170.788" y="495.16"/>
            <rect height="21" rx="2.415" width="21" x="142.788" y="495.16"/>
            <rect height="21" rx="2.415" width="21" x="114.788" y="495.16"/>
            <rect height="21" rx="2.415" width="21" x="86.788" y="495.16"/>
            <rect height="21" rx="2.415" width="38.045" x="41.743" y="495.16"/>
            <rect height="21" rx="2.415" width="71.327" x="394.788" y="495.16"/>
            <rect height="21" rx="2.415" width="21" x="366.788" y="495.16"/>
            <rect height="21" rx="2.415" width="21" x="338.788" y="495.16"/>
            <rect height="21" rx="2.415" width="21" x="310.788" y="495.16"/>
            <rect height="21" rx="2.415" width="21" x="282.788" y="495.16"/>
            <rect height="21" rx="2.415" width="21" x="254.788" y="495.16"/>
            <rect height="21" rx="2.415" width="21" x="209.743" y="467.16"/>
            <rect height="21" rx="2.415" width="21" x="181.743" y="467.16"/>
            <rect height="21" rx="2.415" width="21" x="153.743" y="467.16"/>
            <rect height="21" rx="2.415" width="21" x="125.743" y="467.16"/>
            <rect height="21" rx="2.415" width="21" x="97.743" y="467.16"/>
            <rect height="21" rx="2.415" width="21" x="69.743" y="467.16"/>
            <rect height="21" rx="2.415" width="21" x="377.743" y="467.16"/>
            <rect height="21" rx="2.415" width="21" x="349.743" y="467.16"/>
            <rect height="21" rx="2.415" width="21" x="321.743" y="467.16"/>
            <rect height="21" rx="2.415" width="21" x="293.743" y="467.16"/>
            <rect height="21" rx="2.415" width="21" x="265.743" y="467.16"/>
            <rect height="21" rx="2.415" width="21" x="237.743" y="467.16"/>
            <rect height="21" rx="2.415" width="21" x="405.743" y="467.16"/>
            <rect height="21" rx="2.415" width="21" x="41.743" y="467.16"/>
            <rect height="21" rx="2.415" width="21" x="69.743" y="467.16"/>
            <rect height="21" rx="2.415" width="21" x="41.743" y="467.16"/>
            <rect height="21" rx="2.415" width="32.372" x="433.743" y="467.16"/>
            <rect height="15.096" rx="2.415" width="15.096" x="474.689" y="470.112"/>
        </g>
    </g>
</svg>
