<svg version="1.2" baseProfile="tiny" xmlns="http://www.w3.org/2000/svg" width="598.189" height="350.26" xml:space="preserve">
    <path fill="#F4F4F4" d="M211.423 83.913a.838.838 0 0 0-.71.5 7.757 7.757 0 0 1-2.263 2.894.841.841 0 1 0 1.052 1.315 9.33 9.33 0 0 0 2.762-3.499.84.84 0 0 0-.841-1.21z"/>
    <path fill="#F4F4F4" d="M74.186 74.389c-3.877 0-7.049 3.146-7.049 7.023s3.172 7.05 7.049 7.05h129.955c3.878 0 7.05-3.172 7.05-7.05s-3.171-7.023-7.05-7.023H74.186zm0 1.684h129.955c2.968 0 5.367 2.372 5.367 5.34s-2.398 5.367-5.367 5.367H74.186a5.362 5.362 0 0 1-5.367-5.367c0-2.969 2.399-5.34 5.367-5.34z"/>
    <path fill="#F4F4F4" d="M211.347 83.965a.846.846 0 1 0 .149 1.685l.009-.001h260.317a.843.843 0 0 0 .854-.83.844.844 0 0 0-.831-.854H211.505a.834.834 0 0 0-.158 0zM212.004 82.176a.843.843 0 0 0 .075 1.683H471.249a.843.843 0 0 0 .854-.83.844.844 0 0 0-.83-.854H212.082a.677.677 0 0 0-.078.001zM37.542 91.121a.842.842 0 0 0-.658.841v1.763c0 .465.376.842.842.842h517.563a.842.842 0 0 0 .842-.842v-1.763a.841.841 0 0 0-.842-.841H37.726a.809.809 0 0 0-.184 0zm1.026 1.684h515.879v.079H38.568v-.079zM74.107 88.989a.843.843 0 0 0 .075 1.684H500.238a.843.843 0 0 0 .025-1.684H74.193a1.04 1.04 0 0 0-.079 0h-.007zM208.821 87.174a.846.846 0 0 0 .149 1.685l.009-.001h265.368a.842.842 0 0 0 .025-1.684H208.98a.845.845 0 0 0-.159 0z"/>
    <path fill="#F4F4F4" d="M471.796 83.913a.841.841 0 0 0-.737 1.21 9.346 9.346 0 0 0 2.763 3.499.843.843 0 0 0 1.058-1.31l-.006-.005a7.752 7.752 0 0 1-2.263-2.894.842.842 0 0 0-.809-.5h-.006z"/>
    <path fill="#F4F4F4" d="m212.004 79.151-.079.026a.84.84 0 0 0-.657.973c.072.412.104.828.104 1.263 0 .493-.039.982-.131 1.447a.844.844 0 1 0 1.651.317 8.986 8.986 0 0 0 .157-1.763c0-.199-.04-.382-.053-.579H470.315c-.012.196-.052.379-.052.579 0 .605.068 1.216.184 1.789a.843.843 0 1 0 1.631-.343 7.483 7.483 0 0 1-.135-1.447c0-.434.033-.849.105-1.262a.842.842 0 0 0-.665-.973l-.075-.026a.826.826 0 0 0-.186 0H212.171a.809.809 0 0 0-.184 0h.017zM209.184 74.312a.842.842 0 0 0-.394 1.604h.026a7.186 7.186 0 0 1 1.973 2.657.844.844 0 0 0 1.053.473h259.663a.842.842 0 0 0 1.026-.473c.445-1.044 1.145-1.935 1.999-2.657a.842.842 0 0 0-.396-1.604H209.179h.005zm1.999 1.683h260.954a8.842 8.842 0 0 0-.842 1.368H212.024a8.836 8.836 0 0 0-.841-1.368z"/>
    <path fill="#F4F4F4" d="M37.62 72.549a.841.841 0 0 0-.736.841v1.763c0 .465.376.842.842.842h29.383c-.321.419-.571.895-.815 1.368H37.726a.842.842 0 0 0-.842.842v1.789c0 .465.376.842.842.842H65.32c-.013.196-.053.38-.053.578 0 .259.057.51.079.764h-27.62a.842.842 0 0 0-.842.841v1.789c0 .465.376.842.842.842h28.646a9.18 9.18 0 0 0 1 1.526H37.725a.841.841 0 0 0-.842.841v.027l.052 1.815a.843.843 0 0 0 .842.816H74.29a.843.843 0 0 0 .024-1.684h-35.72v-.132H69.424a.841.841 0 0 0 .71-.421.843.843 0 0 0-.21-1.105c-.01-.007-.016-.019-.026-.026-.96-.748-1.749-1.698-2.263-2.789a.868.868 0 0 0-.026-.053c-.003-.007.003-.02 0-.026a.307.307 0 0 0-.025-.026.746.746 0 0 0-.026-.08l-.027-.025a.842.842 0 0 0-.973-.342h-27.99v-.105h27.489c.265.075.55.017.764-.158l.025-.026a.843.843 0 0 0 .263-.921.204.204 0 0 0-.026-.025 7.29 7.29 0 0 1-.026-2.605.841.841 0 0 0-.815-.973H38.568v-.106h28.2a.838.838 0 0 0 .762-.5 7.277 7.277 0 0 1 2.052-2.709.841.841 0 0 0-.369-1.473l-.078-.026a.779.779 0 0 0-.185-.026H38.568v-.079h515.885v.079H505.47a.833.833 0 0 0-.185.026l-.104.026a.841.841 0 0 0-.343 1.473 7.189 7.189 0 0 1 2.025 2.709c.139.311.45.508.79.5h46.797v.106H508.179a.84.84 0 0 0-.817.973h-.026c.075.419.132.848.132 1.289 0 .448-.055.892-.132 1.316-.003.018-.022.035-.026.052v.026a.845.845 0 0 0 .264.868l.026.026a.84.84 0 0 0 .788.158h46.063v.105h-46.615a.841.841 0 0 0-.946.342l-.026.026a.924.924 0 0 0-.053.08c-.009.017-.019.035-.026.053a7.654 7.654 0 0 1-2.263 2.841l-.026.026a.843.843 0 0 0-.183 1.176l.026.034c.158.2.401.316.657.316h49.428v.131h-54.296a.843.843 0 0 0-.024 1.684h55.133a.842.842 0 0 0 .843-.815l.052-1.815a.841.841 0 0 0-.814-.868h-48.27a9.307 9.307 0 0 0 1-1.526h47.245a.842.842 0 0 0 .841-.842V83.02a.842.842 0 0 0-.841-.842h-46.22c.021-.253.079-.504.079-.763 0-.198-.041-.383-.053-.578h46.193a.842.842 0 0 0 .841-.842v-1.789a.842.842 0 0 0-.841-.842h-47.166c-.244-.473-.495-.949-.816-1.368h47.982a.841.841 0 0 0 .841-.842v-1.763a.841.841 0 0 0-.841-.841H37.725a.41.41 0 0 0-.105-.001z"/>
    <path fill="#F4F4F4" d="M479.187 74.389c-3.879 0-7.025 3.146-7.025 7.023s3.146 7.05 7.025 7.05h21.044c3.878 0 7.023-3.172 7.023-7.05s-3.146-7.023-7.023-7.023h-21.044zm0 1.684h21.044c2.968 0 5.34 2.372 5.34 5.34s-2.372 5.367-5.34 5.367h-21.044c-2.968 0-5.341-2.399-5.341-5.367a5.316 5.316 0 0 1 5.341-5.34zM40.672 55.739a3.74 3.74 0 0 0-3.735 3.735v11.575c0 .465.377.842.842.842h517.724a.842.842 0 0 0 .841-.842V59.474a3.74 3.74 0 0 0-3.735-3.735H40.668h.004zm0 1.683h511.94c1.149 0 2.052.902 2.052 2.052v10.733H38.625V59.474c0-1.149.902-2.052 2.052-2.052h-.005zM37.594 95.803a.842.842 0 0 0-.658.842v210.816a3.74 3.74 0 0 0 3.735 3.735h511.94a3.74 3.74 0 0 0 3.735-3.735l-.01-210.816a.842.842 0 0 0-.841-.842H37.774a.809.809 0 0 0-.184 0h.004zm1.026 1.684h516.039v209.974a2.032 2.032 0 0 1-2.052 2.053H40.668a2.031 2.031 0 0 1-2.052-2.053l.004-209.974z"/>
    <path fill="#F4F4F4" d="M61.506 144.491c-1.555 0-2.815 1.285-2.815 2.841v17.494c0 1.555 1.259 2.84 2.815 2.84h17.493a2.858 2.858 0 0 0 2.841-2.84v-17.494a2.859 2.859 0 0 0-2.841-2.841H61.506zm0 1.684h17.493c.646 0 1.157.511 1.157 1.158v17.494a1.15 1.15 0 0 1-1.157 1.157H61.506c-.646 0-1.132-.514-1.132-1.157v-17.494c.001-.647.486-1.158 1.132-1.158zM86.208 144.491a2.859 2.859 0 0 0-2.841 2.841v17.494a2.858 2.858 0 0 0 2.841 2.84h17.466a2.858 2.858 0 0 0 2.841-2.84v-17.494a2.86 2.86 0 0 0-2.841-2.841H86.208zm0 1.684h17.466a1.15 1.15 0 0 1 1.158 1.158v17.494a1.15 1.15 0 0 1-1.158 1.157H86.208a1.15 1.15 0 0 1-1.158-1.157v-17.494a1.15 1.15 0 0 1 1.158-1.158zM110.882 144.491a2.86 2.86 0 0 0-2.842 2.841v17.494a2.859 2.859 0 0 0 2.842 2.84h17.493c1.424 0 2.546-1.097 2.736-2.472l.027-.053v-.026c.009-.025.019-.052.025-.079a.92.92 0 0 0 .027-.157l.026-.053v-17.494a2.859 2.859 0 0 0-2.841-2.841h-17.493zm0 1.684h17.493a1.15 1.15 0 0 1 1.158 1.158v17.335a.92.92 0 0 0 0 .105.432.432 0 0 0-.026.053c0 .645-.486 1.157-1.131 1.157h-17.493a1.15 1.15 0 0 1-1.158-1.157v-17.494c0-.645.511-1.157 1.157-1.157zM135.553 144.491c-1.555 0-2.815 1.285-2.815 2.841v17.494c0 1.555 1.26 2.84 2.815 2.84h17.493a2.858 2.858 0 0 0 2.841-2.84v-17.494a2.86 2.86 0 0 0-2.841-2.841h-17.493zm0 1.684h17.493a1.15 1.15 0 0 1 1.158 1.158v17.494a1.15 1.15 0 0 1-1.158 1.157h-17.493c-.645 0-1.131-.514-1.131-1.157v-17.494c0-.647.485-1.158 1.131-1.158zM160.259 144.491a2.859 2.859 0 0 0-2.841 2.841v17.494a2.858 2.858 0 0 0 2.841 2.84h17.467a2.857 2.857 0 0 0 2.84-2.84v-17.494a2.858 2.858 0 0 0-2.84-2.841h-17.467zm0 1.684h17.467c.645 0 1.157.511 1.157 1.158v17.494a1.15 1.15 0 0 1-1.157 1.157h-17.467a1.151 1.151 0 0 1-1.158-1.157v-17.494a1.15 1.15 0 0 1 1.158-1.158zM184.932 144.491a2.86 2.86 0 0 0-2.842 2.841v17.494a2.86 2.86 0 0 0 2.842 2.84h17.493c1.555 0 2.814-1.285 2.814-2.84v-17.494c0-1.556-1.26-2.841-2.814-2.841h-17.493zm0 1.684h17.493c.645 0 1.13.511 1.13 1.158v17.494c0 .645-.485 1.157-1.13 1.157h-17.493a1.151 1.151 0 0 1-1.158-1.157v-17.494a1.15 1.15 0 0 1 1.158-1.158zM209.604 144.491c-1.555 0-2.814 1.285-2.814 2.841v17.494c0 1.555 1.259 2.84 2.814 2.84h17.494a2.858 2.858 0 0 0 2.84-2.84v-17.494a2.858 2.858 0 0 0-2.84-2.841h-17.494zm0 1.684h17.494c.645 0 1.157.511 1.157 1.158v17.494a1.15 1.15 0 0 1-1.157 1.157h-17.494c-.646 0-1.131-.514-1.131-1.157v-17.494c.001-.647.486-1.158 1.131-1.158zM234.311 144.491a2.859 2.859 0 0 0-2.841 2.841v17.494a2.858 2.858 0 0 0 2.841 2.84h17.467a2.858 2.858 0 0 0 2.84-2.84v-17.494a2.858 2.858 0 0 0-2.84-2.841h-17.467zm0 1.684h17.467c.645 0 1.157.511 1.157 1.158v17.494a1.15 1.15 0 0 1-1.157 1.157h-17.467a1.151 1.151 0 0 1-1.158-1.157v-17.494a1.15 1.15 0 0 1 1.158-1.158zM258.983 144.491a2.859 2.859 0 0 0-2.841 2.841v17.494a2.858 2.858 0 0 0 2.841 2.84h17.493c1.555 0 2.815-1.285 2.815-2.84v-17.494c0-1.556-1.26-2.841-2.815-2.841h-17.493zm0 1.684h17.493c.646 0 1.132.511 1.132 1.158v17.494c0 .645-.487 1.157-1.132 1.157h-17.493a1.15 1.15 0 0 1-1.157-1.157v-17.494c0-.647.512-1.158 1.157-1.158zM283.656 144.491a2.859 2.859 0 0 0-2.841 2.841v17.494a2.858 2.858 0 0 0 2.841 2.84h17.493a2.858 2.858 0 0 0 2.841-2.84v-17.494a2.858 2.858 0 0 0-2.841-2.841h-17.493zm0 1.684h17.493c.645 0 1.157.511 1.157 1.158v17.494a1.15 1.15 0 0 1-1.157 1.157h-17.493a1.15 1.15 0 0 1-1.157-1.157v-17.494c0-.647.512-1.158 1.157-1.158zM308.363 144.491a2.858 2.858 0 0 0-2.842 2.841v17.494a2.859 2.859 0 0 0 2.842 2.84h17.466a2.858 2.858 0 0 0 2.841-2.84v-17.494a2.858 2.858 0 0 0-2.841-2.841h-17.466zm0 1.684h17.466a1.15 1.15 0 0 1 1.158 1.158v17.494c0 .644-.514 1.157-1.158 1.157h-17.466a1.149 1.149 0 0 1-1.157-1.157v-17.494c0-.647.511-1.158 1.157-1.158zM333.035 144.491a2.859 2.859 0 0 0-2.841 2.841v17.494a2.858 2.858 0 0 0 2.841 2.84h17.494c1.554 0 2.813-1.285 2.813-2.84v-17.494c0-1.556-1.259-2.841-2.813-2.841h-17.494zm0 1.684h17.494c.644 0 1.131.511 1.131 1.158v17.494c0 .645-.487 1.157-1.131 1.157h-17.494a1.15 1.15 0 0 1-1.157-1.157v-17.494a1.15 1.15 0 0 1 1.157-1.158zM357.708 144.491c-1.555 0-2.814 1.285-2.814 2.841v17.494c0 1.554 1.259 2.84 2.814 2.84h17.494a2.857 2.857 0 0 0 2.839-2.84v-17.494a2.857 2.857 0 0 0-2.839-2.841h-17.494zm0 1.684h17.494c.644 0 1.156.511 1.156 1.158v17.494a1.15 1.15 0 0 1-1.156 1.157h-17.494c-.645 0-1.132-.513-1.132-1.157v-17.494c0-.647.487-1.158 1.132-1.158zM382.415 144.491a2.86 2.86 0 0 0-2.842 2.841v17.492a2.86 2.86 0 0 0 2.842 2.841h17.466a2.86 2.86 0 0 0 2.842-2.92V147.33a2.859 2.859 0 0 0-2.842-2.841l-17.466.002zm0 1.684h17.466c.647 0 1.157.511 1.157 1.158v17.492c0 .646-.511 1.157-1.157 1.157h-17.466a1.15 1.15 0 0 1-1.158-1.157v-17.493c0-.647.514-1.158 1.158-1.157zM99.15 168.903a2.859 2.859 0 0 0-2.841 2.841v17.492c0 1.555 1.286 2.815 2.841 2.815h17.493c1.422 0 2.542-1.075 2.736-2.446.01-.019.018-.034.026-.053v-.026a1.15 1.15 0 0 0 .027-.076.845.845 0 0 0 .026-.161.336.336 0 0 0 .026-.05v-17.493a2.859 2.859 0 0 0-2.841-2.84H99.15v-.003zm0 1.683h17.493c.646 0 1.158.514 1.158 1.158v17.335a.989.989 0 0 0 0 .077.654.654 0 0 0-.026.086c0 .645-.486 1.131-1.131 1.131H99.15c-.646 0-1.158-.487-1.158-1.127v-17.495a1.15 1.15 0 0 1 1.158-1.157v-.008zM61.506 168.903c-1.555 0-2.815 1.285-2.815 2.841v17.492a2.813 2.813 0 0 0 2.815 2.815h30.12c1.555 0 2.841-1.259 2.841-2.815v-17.492a2.859 2.859 0 0 0-2.841-2.841h-30.12zm0 1.683h30.12a1.15 1.15 0 0 1 1.157 1.158v17.492c0 .646-.512 1.133-1.157 1.133h-30.12a1.108 1.108 0 0 1-1.132-1.133v-17.492c.001-.645.486-1.158 1.132-1.158zM123.827 168.903a2.858 2.858 0 0 0-2.84 2.841v17.492c0 1.557 1.285 2.815 2.84 2.815h17.494c1.555 0 2.841-1.259 2.841-2.815v-17.492a2.86 2.86 0 0 0-2.841-2.841h-17.494zm0 1.683h17.494a1.15 1.15 0 0 1 1.157 1.158v17.492c0 .646-.512 1.133-1.157 1.133h-17.494c-.645 0-1.157-.488-1.157-1.133v-17.492a1.15 1.15 0 0 1 1.157-1.158zM148.524 168.903a2.858 2.858 0 0 0-2.84 2.841v17.492c0 1.557 1.286 2.815 2.84 2.815h17.468c1.555 0 2.841-1.259 2.841-2.815v-17.492a2.86 2.86 0 0 0-2.841-2.841h-17.468zm0 1.683h17.468a1.15 1.15 0 0 1 1.157 1.158v17.492c0 .646-.512 1.133-1.157 1.133h-17.468c-.645 0-1.157-.488-1.157-1.133v-17.492a1.15 1.15 0 0 1 1.157-1.158zM173.197 168.903a2.858 2.858 0 0 0-2.84 2.841v17.492c0 1.557 1.286 2.815 2.84 2.815h17.494a2.813 2.813 0 0 0 2.814-2.815v-17.492c0-1.555-1.259-2.841-2.814-2.841h-17.494zm0 1.683h17.494c.646 0 1.131.514 1.131 1.158v17.492c0 .646-.485 1.133-1.131 1.133h-17.494c-.645 0-1.157-.488-1.157-1.133v-17.492a1.15 1.15 0 0 1 1.157-1.158zM197.878 168.903c-1.555 0-2.815 1.285-2.815 2.841v17.492a2.813 2.813 0 0 0 2.815 2.815h17.494c1.555 0 2.841-1.259 2.841-2.815v-17.492a2.86 2.86 0 0 0-2.841-2.841h-17.494zm0 1.683h17.494a1.15 1.15 0 0 1 1.157 1.158v17.492c0 .646-.512 1.133-1.157 1.133h-17.494a1.107 1.107 0 0 1-1.131-1.133v-17.492c0-.645.486-1.158 1.131-1.158zM222.576 168.903a2.859 2.859 0 0 0-2.841 2.841v17.492c0 1.557 1.285 2.815 2.841 2.815h17.468c1.554 0 2.841-1.259 2.841-2.815v-17.492a2.86 2.86 0 0 0-2.841-2.841h-17.468zm0 1.683h17.468a1.15 1.15 0 0 1 1.157 1.158v17.492c0 .646-.514 1.133-1.157 1.133h-17.468c-.645 0-1.158-.488-1.158-1.133v-17.492c0-.645.513-1.158 1.158-1.158zM247.249 168.903a2.859 2.859 0 0 0-2.841 2.841v17.492c0 1.557 1.286 2.815 2.841 2.815h17.493a2.814 2.814 0 0 0 2.815-2.815v-17.492c0-1.555-1.259-2.841-2.815-2.841h-17.493zm0 1.683h17.493c.645 0 1.131.514 1.131 1.158v17.492c0 .646-.486 1.133-1.131 1.133h-17.493c-.645 0-1.158-.488-1.158-1.133v-17.492c0-.645.513-1.158 1.158-1.158zM271.922 168.903a2.859 2.859 0 0 0-2.841 2.841v17.492c0 1.557 1.286 2.815 2.841 2.815h17.494c1.554 0 2.841-1.259 2.841-2.815v-17.492a2.86 2.86 0 0 0-2.841-2.841h-17.494zm0 1.683h17.494a1.15 1.15 0 0 1 1.157 1.158v17.492c0 .646-.512 1.133-1.157 1.133h-17.494c-.646 0-1.158-.488-1.158-1.133v-17.492a1.15 1.15 0 0 1 1.158-1.158zM296.628 168.903a2.86 2.86 0 0 0-2.842 2.841v17.492c0 1.557 1.286 2.815 2.842 2.815h17.466c1.555 0 2.842-1.258 2.842-2.815v-17.492a2.86 2.86 0 0 0-2.842-2.841h-17.466zm0 1.683h17.466c.646 0 1.159.514 1.159 1.158v17.492c0 .645-.515 1.133-1.159 1.133h-17.466c-.645 0-1.158-.488-1.158-1.133v-17.492a1.152 1.152 0 0 1 1.158-1.158zM321.301 168.903a2.86 2.86 0 0 0-2.842 2.841v17.492c0 1.556 1.286 2.815 2.842 2.815h17.493a2.813 2.813 0 0 0 2.814-2.815v-17.492c0-1.555-1.258-2.841-2.814-2.841h-17.493zm0 1.683h17.493c.646 0 1.131.514 1.131 1.158v17.492c0 .646-.486 1.133-1.131 1.133h-17.493c-.646 0-1.157-.488-1.157-1.133v-17.492a1.15 1.15 0 0 1 1.157-1.158zM345.974 168.903a2.86 2.86 0 0 0-2.842 2.841v17.492c0 1.557 1.286 2.815 2.842 2.815h17.493c1.556 0 2.841-1.258 2.841-2.815v-17.492a2.859 2.859 0 0 0-2.841-2.841h-17.493zm0 1.683h17.493c.645 0 1.158.514 1.158 1.158v17.492c0 .645-.514 1.133-1.158 1.133h-17.493c-.645 0-1.158-.488-1.158-1.133v-17.492a1.151 1.151 0 0 1 1.158-1.158zM370.68 168.903a2.86 2.86 0 0 0-2.842 2.841v17.492c0 1.556 1.287 2.815 2.842 2.815h17.468c1.554 0 2.84-1.259 2.84-2.815v-17.492a2.858 2.858 0 0 0-2.84-2.841H370.68zm0 1.683h17.468a1.15 1.15 0 0 1 1.157 1.158v17.492c0 .646-.514 1.133-1.157 1.133H370.68c-.646 0-1.157-.488-1.157-1.133v-17.492a1.149 1.149 0 0 1 1.157-1.158zM395.352 168.903a2.857 2.857 0 0 0-2.839 2.841v17.492c0 1.556 1.284 2.815 2.839 2.815h17.495a2.812 2.812 0 0 0 2.813-2.815v-17.492c0-1.555-1.259-2.841-2.813-2.841h-17.495zm0 1.683h17.495c.644 0 1.131.514 1.131 1.158v17.492c0 .645-.487 1.133-1.131 1.133h-17.495c-.646 0-1.155-.488-1.155-1.133v-17.492a1.147 1.147 0 0 1 1.155-1.158zM482.638 168.903a2.86 2.86 0 0 0-2.842 2.841v17.492c0 1.556 1.286 2.815 2.842 2.815h31.75c1.555 0 2.842-1.258 2.842-2.815v-17.492a2.86 2.86 0 0 0-2.842-2.841h-31.75zm0 1.683h31.75c.646 0 1.158.514 1.158 1.158v17.492c0 .645-.514 1.133-1.158 1.133h-31.75c-.647 0-1.157-.488-1.157-1.133v-17.492a1.148 1.148 0 0 1 1.157-1.158zM419.814 168.903a2.86 2.86 0 0 0-2.842 2.841v17.492c0 1.557 1.286 2.815 2.842 2.815h29.437c1.555 0 2.842-1.259 2.842-2.815v-17.492a2.86 2.86 0 0 0-2.842-2.841h-29.437zm0 1.683h29.437a1.15 1.15 0 0 1 1.157 1.158v17.492c0 .646-.511 1.133-1.157 1.133h-29.437c-.645 0-1.157-.488-1.157-1.133v-17.492c0-.645.514-1.158 1.157-1.158zM407.087 144.491a2.858 2.858 0 0 0-2.841 2.841v17.494a2.858 2.858 0 0 0 2.841 2.84h17.493c1.554 0 2.815-1.284 2.815-2.84v-17.494c0-1.556-1.261-2.841-2.815-2.841h-17.493zm0 1.684h17.493c.646 0 1.131.511 1.131 1.158v17.494c0 .644-.486 1.157-1.131 1.157h-17.493a1.15 1.15 0 0 1-1.157-1.157v-17.494c0-.647.512-1.158 1.157-1.158zM54.877 193.314a2.859 2.859 0 0 0-2.841 2.842v17.467a2.86 2.86 0 0 0 2.841 2.841H72.37c1.555 0 2.815-1.286 2.815-2.841v-17.467c0-1.557-1.26-2.842-2.815-2.842H54.877zm0 1.684H72.37c.646 0 1.131.514 1.131 1.158v17.467c0 .646-.485 1.157-1.131 1.157H54.877a1.15 1.15 0 0 1-1.158-1.157v-17.467a1.15 1.15 0 0 1 1.158-1.158zM79.553 193.314a2.859 2.859 0 0 0-2.841 2.842v17.467a2.86 2.86 0 0 0 2.841 2.841h17.492a2.859 2.859 0 0 0 2.841-2.841v-17.467a2.859 2.859 0 0 0-2.841-2.842H79.553zm0 1.684h17.492c.646 0 1.158.514 1.158 1.158v17.467c0 .646-.512 1.157-1.158 1.157H79.553a1.15 1.15 0 0 1-1.158-1.157v-17.467a1.15 1.15 0 0 1 1.158-1.158zM104.227 193.314c-1.555 0-2.815 1.285-2.815 2.842v17.467c0 1.555 1.26 2.841 2.815 2.841h17.493c1.417 0 2.562-1.082 2.762-2.446a.73.73 0 0 0 .026-.079.828.828 0 0 0 .052-.315v-17.467a2.859 2.859 0 0 0-2.841-2.842h-17.492v-.001zm0 1.684h17.493a1.15 1.15 0 0 1 1.157 1.158v17.335a1.067 1.067 0 0 0 0 .08v.052c0 .646-.512 1.157-1.157 1.157h-17.493c-.646 0-1.131-.512-1.131-1.157v-17.467c0-.646.485-1.158 1.131-1.158zM128.928 193.314a2.859 2.859 0 0 0-2.84 2.842v17.467a2.858 2.858 0 0 0 2.84 2.841h17.493c1.555 0 2.814-1.286 2.814-2.841v-17.467c0-1.557-1.26-2.842-2.814-2.842h-17.493zm0 1.684h17.493c.646 0 1.131.514 1.131 1.158v17.467c0 .646-.485 1.157-1.131 1.157h-17.493a1.15 1.15 0 0 1-1.158-1.157v-17.467a1.15 1.15 0 0 1 1.158-1.158zM153.601 193.314a2.859 2.859 0 0 0-2.84 2.842v17.467a2.858 2.858 0 0 0 2.84 2.841h17.493a2.86 2.86 0 0 0 2.841-2.841v-17.467a2.859 2.859 0 0 0-2.841-2.842h-17.493zm0 1.684h17.493a1.15 1.15 0 0 1 1.157 1.158v17.467c0 .646-.512 1.157-1.157 1.157h-17.493a1.15 1.15 0 0 1-1.157-1.157v-17.467c0-.646.511-1.158 1.157-1.158zM178.282 193.314c-1.555 0-2.815 1.285-2.815 2.842v17.467c0 1.555 1.259 2.841 2.815 2.841h17.493a2.86 2.86 0 0 0 2.842-2.841v-17.467a2.86 2.86 0 0 0-2.842-2.842h-17.493zm0 1.684h17.493c.646 0 1.158.514 1.158 1.158v17.467a1.15 1.15 0 0 1-1.158 1.157h-17.493c-.646 0-1.131-.512-1.131-1.157v-17.467c-.001-.646.485-1.158 1.131-1.158zM202.98 193.314a2.86 2.86 0 0 0-2.841 2.842v17.467a2.86 2.86 0 0 0 2.841 2.841h17.493c1.555 0 2.815-1.286 2.815-2.841v-17.467c0-1.557-1.26-2.842-2.815-2.842H202.98zm0 1.684h17.493c.646 0 1.131.514 1.131 1.158v17.467c0 .646-.486 1.157-1.131 1.157H202.98a1.15 1.15 0 0 1-1.158-1.157v-17.467a1.15 1.15 0 0 1 1.158-1.158zM227.653 193.314a2.86 2.86 0 0 0-2.842 2.842v17.467a2.859 2.859 0 0 0 2.842 2.841h17.493a2.858 2.858 0 0 0 2.84-2.841v-17.467a2.858 2.858 0 0 0-2.84-2.842h-17.493zm0 1.684h17.493a1.15 1.15 0 0 1 1.157 1.158v17.467c0 .646-.512 1.157-1.157 1.157h-17.493a1.149 1.149 0 0 1-1.158-1.157v-17.467c0-.646.51-1.158 1.158-1.158zM252.325 193.314c-1.554 0-2.814 1.285-2.814 2.842v17.467c0 1.555 1.259 2.841 2.814 2.841h17.493a2.86 2.86 0 0 0 2.841-2.841v-17.467a2.859 2.859 0 0 0-2.841-2.842h-17.493zm0 1.684h17.493a1.15 1.15 0 0 1 1.157 1.158v17.467c0 .646-.512 1.157-1.157 1.157h-17.493c-.646 0-1.131-.512-1.131-1.157v-17.467c0-.646.486-1.158 1.131-1.158zM277.032 193.314a2.86 2.86 0 0 0-2.842 2.842v17.467a2.86 2.86 0 0 0 2.842 2.841h17.493c1.554 0 2.814-1.286 2.814-2.841v-17.467c0-1.556-1.26-2.842-2.814-2.842h-17.493zm0 1.684h17.493c.645 0 1.131.513 1.131 1.158v17.467c0 .646-.487 1.157-1.131 1.157h-17.493a1.15 1.15 0 0 1-1.158-1.157v-17.467a1.15 1.15 0 0 1 1.158-1.158zM301.704 193.314a2.86 2.86 0 0 0-2.841 2.842v17.467a2.86 2.86 0 0 0 2.841 2.841h17.493a2.86 2.86 0 0 0 2.841-2.841v-17.467a2.859 2.859 0 0 0-2.841-2.842h-17.493zm0 1.684h17.493a1.15 1.15 0 0 1 1.157 1.158v17.467a1.15 1.15 0 0 1-1.157 1.157h-17.493a1.149 1.149 0 0 1-1.157-1.157v-17.467c0-.646.511-1.158 1.157-1.158zM326.376 193.314c-1.553 0-2.813 1.285-2.813 2.842v17.467c0 1.555 1.259 2.841 2.813 2.841h17.494a2.86 2.86 0 0 0 2.842-2.841v-17.467a2.86 2.86 0 0 0-2.842-2.842h-17.494zm0 1.684h17.494a1.15 1.15 0 0 1 1.157 1.158v17.467a1.15 1.15 0 0 1-1.157 1.157h-17.494c-.645 0-1.13-.512-1.13-1.157v-17.467c0-.646.486-1.158 1.13-1.158zM351.084 193.314a2.859 2.859 0 0 0-2.842 2.842v17.467a2.858 2.858 0 0 0 2.842 2.841h17.493c1.554 0 2.814-1.286 2.814-2.841v-17.467c0-1.557-1.26-2.842-2.814-2.842h-17.493zm0 1.684h17.493c.645 0 1.13.514 1.13 1.158v17.467c0 .646-.486 1.157-1.13 1.157h-17.493a1.15 1.15 0 0 1-1.159-1.157v-17.467a1.15 1.15 0 0 1 1.159-1.158zM375.756 193.314a2.86 2.86 0 0 0-2.841 2.842v17.467a2.859 2.859 0 0 0 2.841 2.841h17.492a2.86 2.86 0 0 0 2.842-2.841v-17.467a2.86 2.86 0 0 0-2.842-2.842h-17.492zm0 1.684h17.492a1.15 1.15 0 0 1 1.157 1.158v17.467c0 .646-.512 1.157-1.157 1.157h-17.492a1.15 1.15 0 0 1-1.158-1.157v-17.467a1.15 1.15 0 0 1 1.158-1.158zM482.638 193.314a2.86 2.86 0 0 0-2.842 2.842v17.467a2.86 2.86 0 0 0 2.842 2.841h31.75a2.86 2.86 0 0 0 2.842-2.841v-17.467a2.859 2.859 0 0 0-2.842-2.842h-31.75zm0 1.684h31.75c.646 0 1.158.514 1.158 1.158v17.467a1.15 1.15 0 0 1-1.158 1.157h-31.75a1.148 1.148 0 0 1-1.157-1.157v-17.467a1.148 1.148 0 0 1 1.157-1.158zM401.11 193.314a2.859 2.859 0 0 0-2.841 2.842v17.467a2.859 2.859 0 0 0 2.841 2.841h41.063c1.554 0 2.814-1.286 2.814-2.841v-17.467c0-1.557-1.261-2.842-2.814-2.842H401.11zm0 1.684h41.063c.646 0 1.132.514 1.132 1.158v17.467c0 .646-.488 1.157-1.132 1.157H401.11a1.149 1.149 0 0 1-1.157-1.157v-17.467a1.15 1.15 0 0 1 1.157-1.158zM54.877 217.727c-1.555 0-2.841 1.26-2.841 2.814v17.494a2.858 2.858 0 0 0 2.841 2.84H72.37c1.555 0 2.815-1.284 2.815-2.84v-17.494a2.814 2.814 0 0 0-2.815-2.814H54.877zm0 1.683H72.37c.646 0 1.131.486 1.131 1.131v17.494c0 .645-.485 1.157-1.131 1.157H54.877a1.15 1.15 0 0 1-1.158-1.157v-17.494c.001-.646.512-1.131 1.158-1.131zM79.553 217.727c-1.555 0-2.841 1.26-2.841 2.814v17.494a2.858 2.858 0 0 0 2.841 2.84h29.436c1.416 0 2.561-1.083 2.762-2.445v-.026c.003-.02.024-.034.026-.053a.843.843 0 0 0 .053-.263v-17.547c0-1.555-1.286-2.814-2.841-2.814H79.553zm0 1.683h29.436c.645 0 1.158.486 1.158 1.131v17.494a1.15 1.15 0 0 1-1.158 1.157H79.553a1.15 1.15 0 0 1-1.158-1.157v-17.494c0-.646.511-1.131 1.158-1.131zM116.196 217.727c-1.555 0-2.841 1.26-2.841 2.814v17.494a2.858 2.858 0 0 0 2.841 2.84h17.493c1.555 0 2.814-1.284 2.814-2.84v-17.494a2.813 2.813 0 0 0-2.814-2.814h-17.493zm0 1.683h17.493c.645 0 1.131.486 1.131 1.131v17.494c0 .645-.486 1.157-1.131 1.157h-17.493a1.15 1.15 0 0 1-1.158-1.157v-17.494c.001-.646.512-1.131 1.158-1.131zM140.873 217.727c-1.555 0-2.841 1.26-2.841 2.814v17.494a2.858 2.858 0 0 0 2.841 2.84h17.493a2.858 2.858 0 0 0 2.841-2.84v-17.494c0-1.555-1.286-2.814-2.841-2.814h-17.493zm0 1.683h17.493c.646 0 1.158.486 1.158 1.131v17.494a1.15 1.15 0 0 1-1.158 1.157h-17.493a1.151 1.151 0 0 1-1.158-1.157v-17.494c0-.646.512-1.131 1.158-1.131zM165.571 217.727c-1.555 0-2.841 1.26-2.841 2.814v17.494a2.858 2.858 0 0 0 2.841 2.84h17.467a2.858 2.858 0 0 0 2.841-2.84v-17.494c0-1.555-1.286-2.814-2.841-2.814h-17.467zm0 1.683h17.467c.646 0 1.158.485 1.158 1.131v17.494a1.15 1.15 0 0 1-1.158 1.157h-17.467a1.15 1.15 0 0 1-1.158-1.157v-17.494c0-.646.512-1.131 1.158-1.131zM122.404 242.113a2.859 2.859 0 0 0-2.841 2.841v17.493a2.86 2.86 0 0 0 2.841 2.842h217.702a2.86 2.86 0 0 0 2.841-2.842v-17.493a2.86 2.86 0 0 0-2.841-2.841H122.404zm0 1.684h217.702c.646 0 1.157.512 1.157 1.157v17.493a1.15 1.15 0 0 1-1.157 1.157H122.404a1.15 1.15 0 0 1-1.157-1.157v-17.493c0-.646.511-1.157 1.157-1.157zM190.244 217.727c-1.555 0-2.841 1.26-2.841 2.814v17.494a2.858 2.858 0 0 0 2.841 2.84h17.493c1.555 0 2.815-1.284 2.815-2.84v-17.494a2.814 2.814 0 0 0-2.815-2.814h-17.493zm0 1.683h17.493c.646 0 1.132.486 1.132 1.131v17.494c0 .645-.486 1.157-1.132 1.157h-17.493a1.15 1.15 0 0 1-1.158-1.157v-17.494c0-.646.511-1.131 1.158-1.131zM214.925 217.727c-1.555 0-2.841 1.26-2.841 2.814v17.494a2.858 2.858 0 0 0 2.841 2.84h17.493a2.858 2.858 0 0 0 2.841-2.84v-17.494c0-1.555-1.285-2.814-2.841-2.814h-17.493zm0 1.683h17.493c.647 0 1.158.485 1.158 1.131v17.494a1.15 1.15 0 0 1-1.158 1.157h-17.493a1.15 1.15 0 0 1-1.158-1.157v-17.494c0-.646.512-1.131 1.158-1.131zM239.623 217.727c-1.554 0-2.841 1.26-2.841 2.814v17.494a2.859 2.859 0 0 0 2.841 2.84h17.466a2.858 2.858 0 0 0 2.841-2.84v-17.494c0-1.555-1.286-2.814-2.841-2.814h-17.466zm0 1.683h17.466c.646 0 1.158.486 1.158 1.131v17.494a1.15 1.15 0 0 1-1.158 1.157h-17.466a1.15 1.15 0 0 1-1.158-1.157v-17.494c0-.646.513-1.131 1.158-1.131zM264.295 217.727c-1.555 0-2.841 1.26-2.841 2.814v17.494a2.858 2.858 0 0 0 2.841 2.84h17.493c1.555 0 2.815-1.284 2.815-2.84v-17.494a2.814 2.814 0 0 0-2.815-2.814h-17.493zm0 1.683h17.493c.646 0 1.131.485 1.131 1.131v17.494c0 .645-.485 1.157-1.131 1.157h-17.493a1.151 1.151 0 0 1-1.158-1.157v-17.494c.001-.646.512-1.131 1.158-1.131zM288.976 217.727c-1.553 0-2.84 1.26-2.84 2.814v17.494a2.859 2.859 0 0 0 2.84 2.84h17.494a2.858 2.858 0 0 0 2.841-2.84v-17.494c0-1.555-1.286-2.814-2.841-2.814h-17.494zm0 1.683h17.494c.646 0 1.157.486 1.157 1.131v17.494a1.15 1.15 0 0 1-1.157 1.157h-17.494a1.15 1.15 0 0 1-1.157-1.157v-17.494c0-.646.513-1.131 1.157-1.131zM313.674 217.727c-1.554 0-2.841 1.259-2.841 2.814v17.494a2.858 2.858 0 0 0 2.841 2.84h17.468a2.858 2.858 0 0 0 2.841-2.84v-17.494c0-1.555-1.286-2.814-2.841-2.814h-17.468zm0 1.683h17.468c.646 0 1.157.486 1.157 1.131v17.494a1.15 1.15 0 0 1-1.157 1.157h-17.468a1.15 1.15 0 0 1-1.156-1.157v-17.494c0-.646.511-1.131 1.156-1.131zM338.347 217.727c-1.554 0-2.842 1.259-2.842 2.814v17.494a2.86 2.86 0 0 0 2.842 2.84h17.493c1.555 0 2.813-1.284 2.813-2.84v-17.494a2.812 2.812 0 0 0-2.813-2.814h-17.493zm0 1.683h17.493c.646 0 1.132.486 1.132 1.131v17.494c0 .645-.487 1.157-1.132 1.157h-17.493a1.15 1.15 0 0 1-1.157-1.157v-17.494c-.001-.646.512-1.131 1.157-1.131zM363.02 217.727c-1.554 0-2.842 1.259-2.842 2.814v17.494a2.859 2.859 0 0 0 2.842 2.84h30.436a2.857 2.857 0 0 0 2.841-2.84v-17.494c0-1.555-1.285-2.814-2.841-2.814H363.02zm0 1.683h30.436c.646 0 1.157.486 1.157 1.131v17.494a1.15 1.15 0 0 1-1.157 1.157H363.02a1.15 1.15 0 0 1-1.157-1.157v-17.494c-.001-.646.512-1.131 1.157-1.131zM400.008 217.727c-1.554 0-2.842 1.26-2.842 2.814v17.494a2.86 2.86 0 0 0 2.842 2.84h17.467a2.858 2.858 0 0 0 2.841-2.84v-17.494c0-1.555-1.286-2.814-2.841-2.814h-17.467zm0 1.683h17.467c.646 0 1.157.485 1.157 1.131v17.494a1.15 1.15 0 0 1-1.157 1.157h-17.467a1.15 1.15 0 0 1-1.157-1.157v-17.494c0-.646.512-1.131 1.157-1.131zM482.638 217.727c-1.555 0-2.842 1.26-2.842 2.814v17.494a2.86 2.86 0 0 0 2.842 2.84h31.75a2.859 2.859 0 0 0 2.842-2.84v-17.494c0-1.555-1.286-2.814-2.842-2.814h-31.75zm0 1.683h31.75c.646 0 1.158.486 1.158 1.131v17.494a1.15 1.15 0 0 1-1.158 1.157h-31.75a1.149 1.149 0 0 1-1.157-1.157v-17.494c-.001-.646.51-1.131 1.157-1.131zM424.681 217.727c-1.554 0-2.842 1.26-2.842 2.814v17.494a2.859 2.859 0 0 0 2.842 2.84h17.493c1.554 0 2.814-1.284 2.814-2.84v-17.494a2.814 2.814 0 0 0-2.814-2.814h-17.493zm0 1.683h17.493c.646 0 1.132.486 1.132 1.131v17.494c0 .645-.488 1.157-1.132 1.157h-17.493a1.15 1.15 0 0 1-1.158-1.157v-17.494c-.001-.646.511-1.131 1.158-1.131zM431.76 144.491a2.859 2.859 0 0 0-2.841 2.841v17.494a2.858 2.858 0 0 0 2.841 2.84h17.493a2.86 2.86 0 0 0 2.842-2.84v-17.494a2.86 2.86 0 0 0-2.842-2.841H431.76zm0 1.684h17.493c.647 0 1.157.511 1.157 1.158v17.494c0 .645-.511 1.157-1.157 1.157H431.76a1.15 1.15 0 0 1-1.157-1.157v-17.494a1.15 1.15 0 0 1 1.157-1.158zM482.638 144.491a2.86 2.86 0 0 0-2.842 2.841v17.494a2.86 2.86 0 0 0 2.842 2.84h31.75a2.859 2.859 0 0 0 2.842-2.84v-17.494a2.859 2.859 0 0 0-2.842-2.841h-31.75zm0 1.684h31.75a1.15 1.15 0 0 1 1.158 1.158v17.494c0 .644-.514 1.157-1.158 1.157h-31.75a1.149 1.149 0 0 1-1.157-1.157v-17.494a1.147 1.147 0 0 1 1.157-1.158z"/>
    <path fill="#F4F4F4" d="M56.666 141.73a.842.842 0 0 0-.763.841v47.982h-5.787a.842.842 0 0 0-.842.843v52.11a.84.84 0 0 0 .842.841h66.238v23.07c0 .466.377.843.842.843h227.466a.843.843 0 0 0 .843-.843v-23.385H446.94a.841.841 0 0 0 .842-.842v-47.98h6.444a.842.842 0 0 0 .843-.842v-51.796a.841.841 0 0 0-.843-.841H56.744a.68.68 0 0 0-.078-.001zm.92 1.684h395.799v50.112h-6.446a.842.842 0 0 0-.841.842v47.98H344.663a.842.842 0 0 0-.841.843v23.386H118.038v-23.07a.842.842 0 0 0-.842-.842H50.958v-50.427h5.788a.842.842 0 0 0 .841-.842l-.001-47.982zM478.219 142.235a.842.842 0 0 0-.737.842v99.617c0 .465.377.842.842.842h40.168a.842.842 0 0 0 .843-.842v-99.617a.842.842 0 0 0-.843-.842h-40.168a.92.92 0 0 0-.105 0zm.946 1.684h38.485v97.934h-38.485v-97.934z"/>
    <path fill="#F4F4F4" d="M45.802 133c-2.105 0-3.84 1.709-3.84 3.814v137.472c0 2.106 1.734 3.841 3.84 3.841h502.411c2.104 0 3.813-1.734 3.813-3.841V136.813a3.815 3.815 0 0 0-3.813-3.813H45.802zm0 1.683h502.411c1.195 0 2.13.935 2.13 2.13v137.472c0 1.196-.935 2.158-2.13 2.158H45.802a2.152 2.152 0 0 1-2.157-2.158V136.813c0-1.196.96-2.13 2.157-2.13zM554.29 92.857a.841.841 0 0 0-.842.841v2.947a.84.84 0 1 0 1.683.024v-2.944a.84.84 0 0 0-.814-.867l-.027-.001zM554.29 88.91a.842.842 0 0 0-.842.841v2.132a.842.842 0 0 0 1.683.023v-2.128a.84.84 0 0 0-.814-.868h-.027zM554.188 83.859a.842.842 0 0 0-.735.842v3.288a.842.842 0 0 0 1.684.024v-3.312a.84.84 0 0 0-.949-.842z"/>
    <path fill="#F4F4F4" d="M554.29 78.993a.842.842 0 0 0-.842.842v3.182a.842.842 0 1 0 1.683.024v-3.18a.84.84 0 0 0-.814-.868h-.027z"/>
    <path fill="#F4F4F4" d="M554.188 74.389a.843.843 0 0 0-.735.868v2.946a.841.841 0 1 0 1.684.024v-2.97a.842.842 0 0 0-.949-.868zM554.29 70.208a.841.841 0 0 0-.842.841V73.39a.842.842 0 1 0 1.683.024v-2.339a.84.84 0 0 0-.814-.867h-.027zM38.2 70.208a.841.841 0 0 0-.737.841v2.368a.842.842 0 0 0 1.684.024v-2.392a.842.842 0 0 0-.947-.841z"/>
    <path fill="#F4F4F4" d="M38.12 74.363a.841.841 0 0 0-.657.842v2.999a.842.842 0 0 0 1.684.024v-3.023a.84.84 0 0 0-1.027-.842zM38.12 79.388a.842.842 0 0 0-.657.842v2.736a.842.842 0 0 0 1.684.025V80.231a.841.841 0 0 0-1.027-.843z"/>
    <path fill="#F4F4F4" d="M38.12 83.913a.842.842 0 0 0-.657.841v3.078a.841.841 0 1 0 1.684.024v-3.102a.84.84 0 0 0-1.027-.841zM38.12 89.016a.842.842 0 0 0-.657.842v2.131a.842.842 0 0 0 1.684.024v-2.155a.84.84 0 0 0-1.027-.842zM38.2 93.119a.842.842 0 0 0-.737.842v2.5a.843.843 0 0 0 1.684.023v-2.523a.843.843 0 0 0-.947-.842zM499.337 76.6c-2.715 0-4.944 2.203-4.944 4.919 0 2.716 2.229 4.945 4.944 4.945 2.719 0 4.946-2.229 4.946-4.945 0-2.717-2.227-4.919-4.946-4.919zm0 1.683c1.808 0 3.262 1.429 3.262 3.236s-1.454 3.262-3.262 3.262c-1.806 0-3.261-1.455-3.261-3.262s1.455-3.236 3.261-3.236z"/>
</svg>
