<svg version="1.2" baseProfile="tiny" xmlns="http://www.w3.org/2000/svg" width="598.189" height="350.26" xml:space="preserve">
    <path fill="#F4F4F4" d="M283.098 196.692v-39.636l39.637-.002v39.638h-39.637zm38.636-1v-1.002 1.002zm-36.636-36.633v35.632h35.637v-35.634l-35.637.002z"/>
    <path fill="#F4F4F4" d="M289.577 190.216v-26.682h26.678v26.682h-26.678zm25.679-1.002v-1 1zm-23.679-1h22.678v-22.68h-22.678v22.68z"/>
    <path fill="#F4F4F4" d="M340.903 342.966c-.051 0-.107 0-.17-.004l-75.713-.002-.057.002c-1.528.025-2.554-1.356-2.589-2.783l-8.566-190.533c-.153-1.471-.894-2.08-2.778-2.167v-.997l.707.705-1.414-1.415c.031.031.017-.208.707-.294 2.499-.088 4.677 1.494 4.776 4.061l8.564 190.524c.12.813.302.873.594.899l.088-.002h75.703l.046.004c.025 0 .061.004.104.004.335-.027.271-.047.359-.133.076-.1.172-.41.197-.754l8.563-190.56c.095-2.55 2.278-4.13 4.775-4.042v1.998c-1.884.088-2.627.699-2.778 2.151l-8.566 190.585c-.053.533-.145 1.144-.529 1.734-.363.586-1.129 1.02-1.947 1.02a.64.64 0 0 1-.076-.001z"/>
    <path fill="#F4F4F4" d="M232.491 147.479V6.628h140.848l.002 139.849v1.002h-140.85zm139.849-1.001v-1 1zm-137.85-1h136.85l-.002-136.849H234.492l-.002 136.849z"/>
    <path fill="#F4F4F4" d="M256.879 127.381a4.293 4.293 0 0 1-4.291-4.289V31.015a4.29 4.29 0 0 1 4.291-4.289h92.076a4.293 4.293 0 0 1 4.29 4.289v92.078a4.293 4.293 0 0 1-4.29 4.289h-92.076v-.001zm-2.29-96.366v92.078a2.294 2.294 0 0 0 2.291 2.289h92.076a2.293 2.293 0 0 0 2.288-2.289V31.015a2.291 2.291 0 0 0-2.288-2.288h-92.077a2.291 2.291 0 0 0-2.29 2.288z"/>
    <path fill="#F4F4F4" d="M324.608 103.537h.033-.033zm-.004 0h-43.531a4.595 4.595 0 0 1-4.596-4.594v-43.54a4.596 4.596 0 0 1 4.596-4.594l43.534.002a4.594 4.594 0 0 1 4.594 4.592l.002 43.539h-.002a4.594 4.594 0 0 1-4.56 4.594c.056-.002.144-.015.3-.06.149-.016.659-.361.661-.918-.025-.522-.225-.629-.275-.713-.078-.081-.117-.104-.148-.128l-.216.308-.359 1.512h.004-.004zm0-2.001a2.597 2.597 0 0 0 2.598-2.593V55.405a2.598 2.598 0 0 0-2.595-2.595h-43.534a2.598 2.598 0 0 0-2.595 2.498l-.002 43.634a2.6 2.6 0 0 0 2.597 2.593H324.604v.001z"/>
    <path fill="#F4F4F4" d="M261.175 35.904h26.182l-8.292 7.781 7.385 7.383-1.414 1.414-8.844-8.845 6.11-5.732-19.126-.002v19.125l5.644-6.019 9.217 9.218h.002l-1.416 1.414-7.756-7.759-7.692 8.203zM336.965 53.884l-7.756 7.757-1.416-1.413 9.218-9.221 5.642 6.02V37.904h-19.126l6.114 5.736-8.846 8.843-1.413-1.416 7.384-7.381-8.288-7.781 26.177-.004v26.188zM318.474 118.205l8.293-7.785-7.384-7.379 1.411-1.416 8.846 8.841-6.112 5.738h19.126l-.002-19.125-5.64 6.02-9.218-9.219 1.414-1.416 7.758 7.755 7.686-8.202.004 26.188zM261.178 118.203V92.022l7.688 8.199 7.758-7.756h.002l1.412 1.414-9.217 9.216-5.642-6.017v19.126h19.124l-6.112-5.737 8.846-8.842 1.412 1.415-7.385 7.379 8.294 7.784zM288.118 96.142a4.29 4.29 0 0 1-4.289-4.287v-29.6a4.287 4.287 0 0 1 4.289-4.287l29.596-.002a4.293 4.293 0 0 1 4.291 4.289l-.002 29.597a4.292 4.292 0 0 1-4.291 4.289h-29.594v.001zm-2.29-33.887v29.599a2.292 2.292 0 0 0 2.29 2.286h29.596a2.29 2.29 0 0 0 2.288-2.288l.002-29.597a2.292 2.292 0 0 0-2.29-2.288h-29.596a2.292 2.292 0 0 0-2.29 2.288z"/>
    <path fill="#F4F4F4" d="M291.092 77.125a.794.794 0 0 1 0-.13c.034-6.503 5.313-11.763 11.823-11.766 6.532.002 11.824 5.294 11.824 11.824h.002c-.002 6.532-5.294 11.824-11.826 11.826-6.507-.002-11.785-5.255-11.823-11.754zm11.823 9.752a9.836 9.836 0 0 0 9.825-9.825 9.836 9.836 0 0 0-9.825-9.822 9.835 9.835 0 0 0-9.824 9.822c.01 5.429 4.398 9.818 9.824 9.825zm-9.825-9.874a.327.327 0 0 0-.013-.106c.003.02.01.055.013.106zM261.107 291.442v-2h83.127v2zM269.195 339.724c-1.175-.049-1.921-.068-2.651-.633-.726-.664-.68-1.441-.715-2.022l-2.175-44.071h78.523l-2.173 44.055c-.036.599.01 1.379-.718 2.041-.73.563-1.478.584-2.649.629l-.021-.997v1l-67.421-.002zm-1.11-2.09c.23.045.614.078 1.128.089h67.383c.771-.005 1.227-.095 1.361-.144.021-.088.038-.3.047-.609l2.072-41.973h-74.324l2.072 41.984c.006.296.03.505.047.596.042.016.112.039.214.057zM272.666 77.053a30.119 30.119 0 0 1 3.625-14.367l1.759.951a28.103 28.103 0 0 0-3.383 13.416 28.11 28.11 0 0 0 4.002 14.505l-1.716 1.029a30.135 30.135 0 0 1-4.287-15.534zM288.008 103.38l.987-1.739a28.096 28.096 0 0 0 13.922 3.663 28.1 28.1 0 0 0 14.495-3.999h.002l1.026 1.714a30.118 30.118 0 0 1-15.523 4.285 30.096 30.096 0 0 1-14.909-3.924zM327.016 91.802a28.105 28.105 0 0 0 4.15-14.748 28.104 28.104 0 0 0-3.905-14.34h.002l1.721-1.018a30.124 30.124 0 0 1 4.185 15.357 30.115 30.115 0 0 1-4.447 15.792l-1.706-1.043zM288.457 52.779s.001 0 0 0zm-1.024-1.717a30.128 30.128 0 0 1 15.483-4.258 30.118 30.118 0 0 1 15.197 4.089l-1.011 1.728a28.103 28.103 0 0 0-14.188-3.817 28.109 28.109 0 0 0-14.458 3.975l-1.023-1.717z"/>
</svg>
