<svg height="351.103" viewBox="0 0 2859.727 1615.073" width="621.68" xmlns="http://www.w3.org/2000/svg">
    <path d="M2817.05 1041.245q0 .72-.767 1.932-.49.767-1.61 2.208-1.119 1.426-1.395 1.87.046.016 1.15.369 1.12.337 1.12 1.227-.46.076-.905.137l-.169-.015v-.122q-.245-.061-.399-.061-.291 0-.92.092-.628.092-.95.092-.414 0-.675-.153-.26-.154-.26-.552 0-.322 1.18-1.825 2.208-2.806 2.223-2.837 1.196-1.625 1.196-2.177 0-.215-.153-.322-.138-.107-.567-.107-.292 0-1.212.567-.444.276-.72.276l-.261-.046q-.092-.061-.2-.23-.107-.184-.107-.291 0-.644 1.242-1.181 1.058-.46 1.84-.46.66 0 1.012.49.307.43.307 1.12zm-7.053 0q0 .72-.767 1.932-.49.767-1.61 2.208-1.12 1.426-1.395 1.87.046.016 1.15.369 1.119.337 1.119 1.227-.46.076-.905.137l-.168-.015v-.122q-.246-.061-.399-.061-.291 0-.92.092t-.95.092q-.415 0-.675-.153-.261-.154-.261-.552 0-.322 1.18-1.825 2.209-2.806 2.224-2.837 1.196-1.625 1.196-2.177 0-.215-.153-.322-.138-.107-.568-.107-.291 0-1.211.567-.445.276-.72.276l-.261-.046q-.092-.061-.2-.23-.107-.184-.107-.291 0-.644 1.242-1.181 1.058-.46 1.84-.46.66 0 1.012.49.307.43.307 1.12zm-7.023 2.76q0 1.855-2.009 3.281-1.84 1.304-3.787 1.304-.966 0-1.533-.49-.568-.491-.568-1.427 0-2.085 1.825-3.618 1.733-1.457 3.88-1.457 1.088 0 1.64.644.552.644.552 1.763zm-.935.353q0-.705-.798-1.058-.598-.26-1.426-.26-1.211 0-2.53 1.18-1.318 1.18-1.318 2.376 0 .491.245.706.26.2.782.2 1.503 0 3.128-.829 1.917-.981 1.917-2.315zm-8.28-3.113q0 .72-.767 1.932-.49.767-1.61 2.208-1.12 1.426-1.395 1.87.046.016 1.15.369 1.12.337 1.12 1.227-.46.076-.906.137l-.168-.015v-.122q-.246-.061-.399-.061-.291 0-.92.092t-.95.092q-.415 0-.675-.153-.26-.154-.26-.552 0-.322 1.18-1.825 2.208-2.806 2.223-2.837 1.196-1.625 1.196-2.177 0-.215-.153-.322-.138-.107-.568-.107-.29 0-1.21.567-.446.276-.722.276l-.26-.046q-.092-.061-.2-.23-.107-.184-.107-.291 0-.644 1.242-1.181 1.058-.46 1.84-.46.66 0 1.012.49.307.43.307 1.12zm-12.589 4.999q0 .751-.567 1.687-.644 1.057-1.334 1.057-.2 0-.338-.214-.122-.23-.122-.445 0-.276.582-.859.598-.598.598-.812 0-.138-.046-.276l-.06-.184q-1.15.26-2.347 1.318-1.18 1.058-1.794 1.196-.122-.337-.122-.69 0-.429.199-.904.138-.338.46-.813.537-.813 1.135-1.84l1.058-1.855q.766-1.319 1.119-1.87.184-.277.322-.415.2-.184.475-.245.184.06.261.23.092.169.092.399 0 .52-.675 1.41-1.226 1.595-1.257 1.656-.69 1.043-.69 1.886l.031.153q.843-.414.997-.475.628-.26 1.073-.26.49 0 .72.337.23.322.23.828zm-5.658-5.474q0 .337-.813 1.41-.812 1.074-.812 1.641 0 .291.337.583.767.674.767.828 0 .2-.138.383-.123.184-.322.184-.169 0-.476-.184-.214-.123-.828-.598-.23.445-.352.675-.43.812-.583 1.18l-.46 1.411q-.399.95-.997.95l-.015-.352q0-1.089.706-2.576.138-.276.766-1.426-1.211-.66-2.668-.66 0-.567.23-.827.246-.276.813-.276.521 0 1.303.184l.767.184q.291-.092.797-.997 1.242-2.177 1.687-2.5.123.2.2.4.091.199.091.383zm-6.103 2.745q0 .643-1.717 1.701-1.656 1.013-2.407 1.013-.353 0-.476-.246-.107-.245-.107-.69v-.414q1.027 0 1.87-.307.844-.306 1.473-1.012-.46-.168-.936-.168-1.119 0-2.376.858-1.38.936-1.38 1.994 0 1.012 1.38 1.41.214.061 2.591.43 1.395.214 1.395.751 0 .23-.506.368-.506.153-1.288.153-1.962 0-3.097-.598-1.503-.797-1.503-2.56 0-1.84 1.84-2.929 1.564-.92 3.558-.92.598 0 1.088.276.598.337.598.89zm-7.528 1.778q0 .49-.26 1.043-.246.552-.63.92l-.015-.215q0-.184.046-.567.046-.383.046-.567 0-.261-.077-.384-.077-.138-.322-.138-.72 0-1.794 1.12l-2.315 2.438q-.092 0-.184-.015-.23-.061-.307-.077.046-.552.384-1.227.904-1.825.935-1.947.123-.491.184-.721.061-.23.169-.475.122-.261.276-.46.168-.215.43-.322l.152 1.84q.66-.537 1.012-.828.675-.537 1.166-.537.49 0 .797.322.307.322.307.797zm-6.456.322q0 1.564-.904 2.453-.905.89-2.5.89-.874 0-1.349-.414t-.475-1.273q0-1.211 1.58-2.438 1.502-1.165 2.774-1.165.583 0 .767.72.107.415.107 1.227zm-.935.43q0-.185-.046-.353-.03-.184-.123-.414-.245.169-.812.828-.292.337-.506.49 0-.29.06-.475.124-.26.2-.445-.674 0-1.41.568-.721.567-.721 1.227 0 .444.49.444.936 0 1.81-.46 1.058-.552 1.058-1.41zm-4.769 2.269q0 .276-.245.43-.23.137-.521.137-.26 0-.66-.06-.904-.139-1.165-.139-.46 0-1.81.107-.766.061-1.103.061-.936 0-.936-.935 0-.89.583-2.545.322-.936 1.211-3.067.798-1.917 1.012-2.699.077-.245.123-.322.123-.184.307-.184.291 0 .49.43.2.414.2.751 0 .537-.629 1.81-.629 1.257-1.227 2.468-.659 1.441-.659 2.193 0 .383.322.536.23.108.675.108.337 0 1.165-.077.828-.092 1.104-.092.69 0 1.135.2.628.275.628.888zm-13.324-2.975q0 1.043-.506 2.223-.552 1.304-1.365 1.795-.168-.2-.291-.445-.107-.245-.107-.49 0-.262.766-1.55.338-.567.307-.996l-.015-.2q-.568.17-1.963 1.028-1.38.843-2.79 1.717-.215 0-.4-.153-.168-.169-.168-.368 0-.322 1.027-2.162.307-.552 1.104-1.917.246.322.322.72.077.384.077.92v.354q1.411-.844 2.208-1.273.874-.475 1.196-.475.215 0 .4.49.198.49.198.782zm-7.115.905q0 .751-.567 1.687-.644 1.057-1.334 1.057-.2 0-.337-.214-.123-.23-.123-.445 0-.276.583-.859.597-.598.597-.812 0-.138-.046-.276l-.06-.184q-1.15.26-2.347 1.318-1.18 1.058-1.794 1.196-.122-.337-.122-.69 0-.429.2-.904.137-.338.46-.813.536-.813 1.134-1.84l1.058-1.855q.767-1.319 1.12-1.87.183-.277.321-.415.2-.184.475-.245.185.06.261.23.092.169.092.399 0 .52-.675 1.41-1.226 1.595-1.257 1.656-.69 1.043-.69 1.886l.031.153q.843-.414.997-.475.628-.26 1.073-.26.49 0 .72.337.23.322.23.828zm-6.317-.629q0 1.564-.905 2.453-.905.89-2.5.89-.873 0-1.349-.414-.475-.414-.475-1.273 0-1.211 1.58-2.438 1.502-1.165 2.775-1.165.582 0 .766.72.108.415.108 1.227zm-.936.43q0-.185-.046-.353-.03-.184-.122-.414-.245.169-.813.828-.291.337-.506.49 0-.29.061-.475.123-.26.2-.445-.675 0-1.411.568-.72.567-.72 1.227 0 .444.49.444.935 0 1.81-.46 1.057-.552 1.057-1.41zm-4.968-1.994q0 1.84-.444 3.097-.66 1.871-2.116 1.871-.966 0-2.024-.445-1.273-.536-1.395-1.318.429 0 1.011.153 1.35.353 1.687.353 1.303 0 1.963-1.304.521-1.042.521-2.499 0-1.027-.675-2.929-.659-1.916-.659-2.668 0-.23.123-.368.138-.153.368-.153.598 0 1.165 2.76.476 2.33.476 3.45z" fill="#f4f4f4" fill-opacity=".5"/>
    <g transform="translate(-21.884 -26.36)">
        <g fill="none" stroke="#f4f4f4">
            <path d="M1451.473 1640.434c424.227-7.08 845.88-11.574 1279.32-27.901 66.244-4.446 145.69-31.661 145.807-123.948l3.462-418.446c1.152-304.74 5.928-604.166-58.866-893.372-14.66-51.814-43.23-97.796-135.081-103.918-405.345-22.686-813.734-41.68-1234.642-45.488m0 1613.073c-424.227-7.08-845.88-11.574-1279.32-27.901-66.245-4.446-145.69-31.661-145.807-123.948l-3.462-418.446C28.8 765.4 47.612 465.973 81.75 176.767 96.41 124.953 124.98 78.971 216.83 72.85c405.345-22.686 813.734-41.68 1234.642-45.488" stroke-width="9.2"/>
            <path d="M968.021 231.258h966.677c9.715 0 17.536 7.821 17.536 17.536v749.558a17.497 17.497 0 0 1-17.536 17.536H968.021a17.497 17.497 0 0 1-17.536-17.536V248.794c0-9.715 7.821-17.536 17.536-17.536z" stroke-width="9.2"/>
            <g stroke-width="4.6">
                <circle cx="569.524" cy="364.183" r="9.11"/>
                <circle cx="580.822" cy="316.502" r="9.11"/>
                <circle cx="591.001" cy="266.728" r="9.11"/>
                <circle cx="548.107" cy="261.029" r="9.11"/>
                <circle cx="507.867" cy="258.421" r="9.11"/>
                <circle cx="464.973" cy="252.723" r="9.11"/>
                <circle cx="421.634" cy="248.952" r="9.11"/>
                <circle cx="375.853" cy="243.254" r="9.11"/>
                <circle cx="334.342" cy="238.582" r="9.11"/>
                <circle cx="536.808" cy="309.09" r="9.11"/>
                <circle cx="497.149" cy="304.022" r="9.11"/>
                <circle cx="454.309" cy="296.658" r="9.11"/>
                <circle cx="412.541" cy="292.086" r="9.11"/>
                <circle cx="368.096" cy="281.837" r="9.11"/>
                <circle cx="326.584" cy="275.441" r="9.11"/>
                <circle cx="284.391" cy="269.161" r="9.11"/>
                <circle cx="525.897" cy="354.82" r="9.11"/>
                <circle cx="486.238" cy="349.752" r="9.11"/>
                <circle cx="443.934" cy="339.654" r="9.11"/>
                <circle cx="402.558" cy="331.941" r="9.11"/>
                <circle cx="358.983" cy="320.683" r="9.11"/>
                <circle cx="318.07" cy="311.615" r="9.11"/>
            </g>
            <g stroke-width="4.6">
                <circle cx="611.257" cy="374.39" r="6.555"/>
                <circle cx="598.834" cy="423.97" r="6.555"/>
                <circle cx="557.462" cy="412.701" r="6.555"/>
                <circle cx="623.729" cy="322.727" r="6.555"/>
                <circle cx="634.587" cy="270.38" r="6.555"/>
                <circle cx="643.721" cy="220.988" r="6.555"/>
                <circle cx="599.754" cy="217.977" r="6.555"/>
                <circle cx="557.162" cy="216.478" r="6.555"/>
                <circle cx="513.865" cy="214.362" r="6.555"/>
                <circle cx="470.285" cy="211.806" r="6.555"/>
                <circle cx="426.733" cy="209.464" r="6.555"/>
                <circle cx="382.767" cy="206.453" r="6.555"/>
                <circle cx="340.175" cy="204.954" r="6.555"/>
                <circle cx="296.877" cy="202.838" r="6.555"/>
                <circle cx="514.011" cy="399.719" r="6.555"/>
                <circle cx="474.115" cy="391.541" r="6.555"/>
                <circle cx="431.8" cy="380.411" r="6.555"/>
                <circle cx="390.106" cy="369.973" r="6.555"/>
                <circle cx="350.943" cy="358.469" r="6.555"/>
                <circle cx="309.078" cy="348.497" r="6.555"/>
                <circle cx="267.763" cy="336.773" r="6.555"/>
                <circle cx="275.785" cy="303.338" r="6.555"/>
                <circle cx="234.082" cy="293.995" r="6.555"/>
                <circle cx="241.414" cy="262.054" r="6.555"/>
                <circle cx="249.014" cy="229.448" r="6.555"/>
                <circle cx="290.378" cy="232.533" r="6.555"/>
            </g>
            <path d="M1144.014 1253.338c-31.064 16.331-52.432 48.97-52.432 86.248 0 37.256 21.342 69.88 52.377 86.22m34.966-155.125h189.58c38.173 0 68.904 30.732 68.904 68.905 0 38.174-30.731 68.905-68.905 68.905h-189.58c-38.173 0-68.904-30.731-68.904-68.905 0-38.173 30.731-68.905 68.905-68.905zm-578.695 69.005c-.603-4.9 6.692-14.543 10.001-16.547 18.804-11.391 52.17-17.695 65.019-20.203 146.731-28.642 316.022-49.35 482.74-49.566 10.405-.161 14.644 9.861 8.932 18.173 209.946-1.99 397.727-4.09 556.7 2.954 190.855 8.457 354.237 15.544 485.75 27.898 56.331 5.292 147.313 8.844 172.922 13.188 19.386 3.289 25.073 11.643 24.695 24.103m-1806.76 0c-.602 4.9 6.693 14.543 10.002 16.547 18.804 11.39 52.17 17.694 65.019 20.202 146.731 28.643 316.022 49.35 482.74 49.566 10.405.162 13.869-9.91 8.156-18.22 209.947 1.99 398.504 4.137 557.477-2.907 190.854-8.456 354.236-15.543 485.748-27.898 56.332-5.291 147.314-8.843 172.923-13.188 19.386-3.288 25.073-11.642 24.695-24.102" stroke-width="9.2"/>
        </g>
        <circle cx="1240.881" cy="1331.354" fill="#f4f4f4" r="5.5"/>
        <circle cx="1283.411" cy="1331.825" fill="#f4f4f4" r="5.5"/>
        <circle cx="1326.133" cy="1331.797" fill="#f4f4f4" r="5.5"/>
        <circle cx="1475.687" cy="1331.638" fill="#f4f4f4" r="5.5"/>
        <rect fill="#f4f4f4" height="11" rx="9.649" width="51.684" x="1717.311" y="1321.633"/>
        <g fill="none" stroke="#f4f4f4" stroke-width="4.6">
            <path d="M791.992 184.813c457.245-27.004 899.086-26.945 1325.622 0 11.54.729 20.87 9.308 20.87 20.87v832.942c0 11.562-9.308 20.716-20.87 20.87a49703.942 49703.942 0 0 1-1325.622 0c-11.561-.154-20.87-9.308-20.87-20.87V205.682c0-11.562 9.328-20.188 20.87-20.87zM2842.41 1048.308c-198.054-.512-390.9 27.538-585.572 62.184-19.636 3.494-36-16.056-36-36s16.507-31.783 36-36c251.813-54.476 413.16-59.765 582.246-65.159m0 0c19.072-.639 41.512 17.582 41.612 37.159.101 19.944-24.19 37.508-38.285 37.816"/>
            <rect height="170" rx="85" ry="85" transform="rotate(-17)" width="513" x="1880.664" y="1408.735"/>
            <rect height="170" rx="85" ry="85" transform="rotate(-17)" width="513" x="1932.51" y="1191.6"/>
            <path d="m22.742 1087.248 45.333-7.359c34.36-.544 71.02-.146 93.497 1.01 60.629 2.94 156.642 18.948 235.135 28.486l173.92 25.08c31.234 3.812 57.762 10.668 93.739 11.42l88.78 1.314c485.623-1.151 962.924 4.67 1456.869-3.454 45.277-.48 86.358-6.641 128.955-10.75l342.156-46.51c46.214-6.56 96.252-9.038 162.658-5.95l36.232 4.797"/>
            <path d="m23.495 1109.119 44.102-7.73c17.297-3.562 57.312-1.341 85.624-.838 195.465 4.634 329.19 46.32 491.547 64.946 30.57 2.783 61.253 3.513 89.47 2.639l180.193-2.238 100.51-.19 139.782.02 693.641.333 369.328 1.592c195.628-2.916 319.382-42.137 479.074-63.205 26.533-3.456 50.92-3.346 76.328-3.633l70.453 1.243 36.042 5.027"/>
            <path d="m1451.473 1552.703 1303.85-.802c41.852-.742 92.195-23.98 90.977-92.68l-2.753-357.163m.184-21.397c-.132-11.06-.627-21.998-1.552-31.622m-2.442-75.358c-16.149-268.151-68.807-518.897-114.711-769.295-13.928-72.44-43.235-105.575-94.39-113.885-387.284-42.148-783.425-37.691-1179.163-42.667m0 1504.869-1303.85-.802c-41.852-.742-92.195-23.98-90.977-92.68 3.595-119.26 7.537-238.51 11.073-357.771m.174-21.36c7.592-308.612 58.118-592.555 110.027-875.704 13.928-72.44 43.235-105.575 94.39-113.885 387.284-42.148 783.426-37.692 1179.163-42.667"/>
            <path d="M2320.717 212.695c-33.607 0-64.184 30.575-64.186 64.182a27.968 27.968 0 0 0 0 .002c0 33.608 30.578 64.186 64.186 64.185 33.608 0 64.186-30.577 64.185-64.185a27.968 27.968 0 0 0 0-.002c0-33.607-30.579-64.182-64.185-64.182zM458.008 547.404c-55.077 0-109.815 22.674-148.76 61.62-38.945 38.945-61.617 93.682-61.617 148.76 0 55.076 22.672 109.814 61.617 148.759 38.945 38.945 93.683 61.617 148.76 61.617 55.077 0 109.814-22.672 148.76-61.617s61.618-93.683 61.619-148.76c0-55.077-22.672-109.816-61.617-148.762s-93.685-61.617-148.762-61.617zM22.742 1087.248l45.333-7.359c34.36-.544 71.02-.146 93.497 1.01 60.629 2.94 156.642 18.948 235.135 28.486l173.92 25.08c31.234 3.812 57.762 10.668 93.739 11.42l88.78 1.314c485.623-1.151 962.924 4.67 1456.869-3.454 45.277-.48 86.358-6.641 128.955-10.75l342.156-46.51c46.214-6.56 96.252-9.038 162.658-5.95l36.232 4.797"/>
        </g>
    </g>
    <g fill="none" stroke="#f4f4f4" stroke-width="9.2" transform="translate(-21.884 -26.36)">
        <circle cx="2339.72" cy="621.66" r="68.72"/>
        <circle cx="2592.178" cy="545.427" r="68.72"/>
        <circle cx="2355.617" cy="844.365" r="68.72"/>
        <circle cx="2610.691" cy="765.887" r="68.72"/>
        <circle cx="2320.717" cy="276.88" r="36.22"/>
        <rect height="27.441" rx="13.72" ry="13.72" transform="rotate(-2.5)" width="167.441" x="2591.399" y="1122.215"/>
        <rect height="27.441" rx="13.72" ry="13.72" transform="rotate(-6.5)" width="167.441" x="2310.058" y="1301.313"/>
        <rect height="27.441" rx="13.72" ry="13.72" transform="rotate(-9.5)" width="167.441" x="2045.815" y="1419.983"/>
        <circle cx="458.009" cy="757.783" r="168.11"/>
        <path d="M433.232 616.54a13.69 13.69 0 0 0-13.72 13.72v88.78h-88.78a13.69 13.69 0 0 0-13.72 13.72v50.558a13.69 13.69 0 0 0 13.72 13.721h88.78v88.78a13.69 13.69 0 0 0 13.72 13.72h50.559a13.69 13.69 0 0 0 13.72-13.72v-88.78h88.78a13.69 13.69 0 0 0 13.72-13.72v-50.56a13.69 13.69 0 0 0-13.72-13.72h-88.78v-88.78a13.69 13.69 0 0 0-13.72-13.72z"/>
    </g>
    <g fill="#f4f4f4">
        <path d="m541.793 625.94-5.613 8.528-5.613 8.53-2.916-2.917-2.917-2.916 8.53-5.613zM330.619 837.113l5.613-8.53 5.613-8.528 2.916 2.916 2.916 2.916-8.53 5.613zM329.178 625.865l8.529 5.613 8.53 5.613-2.917 2.916-2.916 2.916-5.613-8.529zM540.9 837.586l-8.53-5.613-8.53-5.613 2.917-2.916 2.916-2.916 5.613 8.53z"/>
    </g>
</svg>
