<svg xmlns="http://www.w3.org/2000/svg" xmlns:xlink="http://www.w3.org/1999/xlink" width="598.189" height="350.26" xml:space="preserve">
    <defs>
        <linearGradient id="a">
            <stop style="stop-color:#000;stop-opacity:0" offset="0"/>
            <stop style="stop-color:#000;stop-opacity:0" offset="1"/>
        </linearGradient>
        <linearGradient xlink:href="#a" id="b" x1="303.683" y1="343.592" x2="300.728" y2="2.743" gradientUnits="userSpaceOnUse" gradientTransform="matrix(.85272 0 0 .87356 38.489 21.332)"/>
    </defs>
    <path style="color:#000;font-style:normal;font-variant:normal;font-weight:400;font-stretch:normal;font-size:medium;line-height:normal;font-family:sans-serif;font-variant-ligatures:normal;font-variant-position:normal;font-variant-caps:normal;font-variant-numeric:normal;font-variant-alternates:normal;font-feature-settings:normal;text-indent:0;text-align:start;text-decoration:none;text-decoration-line:none;text-decoration-style:solid;text-decoration-color:#000;letter-spacing:normal;word-spacing:normal;text-transform:none;writing-mode:lr-tb;direction:ltr;text-orientation:mixed;dominant-baseline:auto;baseline-shift:baseline;text-anchor:start;white-space:normal;shape-padding:0;clip-rule:nonzero;display:inline;overflow:visible;visibility:visible;opacity:1;isolation:auto;mix-blend-mode:normal;color-interpolation:sRGB;color-interpolation-filters:linearRGB;solid-color:#000;solid-opacity:1;vector-effect:none;fill:url(#b);fill-opacity:1;fill-rule:nonzero;stroke:#f4f4f4;stroke-width:1.89876854;stroke-linecap:butt;stroke-linejoin:miter;stroke-miterlimit:4;stroke-dasharray:none;stroke-dashoffset:0;stroke-opacity:1;color-rendering:auto;image-rendering:auto;shape-rendering:auto;text-rendering:auto;enable-background:accumulate" d="M289.853 21.32c-78.393 0-146.996 27.938-174.787 42.396-14.395 7.491-35.005 21.716-51.247 42.262-16.242 20.543-28.107 47.46-24.786 80.127 4.264 41.932 23.083 76.062 43.118 100.17 10.017 12.052 20.336 21.592 29.315 28.366 8.98 6.774 16.566 10.81 21.403 11.769 6.932 1.374 15.54 1.472 23.91-1.694 8.37-3.165 16.459-9.646 22.259-21.3 11.466-23.041 17.976-45.673 40.924-57.648 23.054-12.031 52.942-14.303 59.339-14.303h28.46c6.398 0 36.284 2.273 59.337 14.303l.161.087c22.815 11.998 29.327 34.581 40.766 57.566 5.8 11.654 13.887 18.135 22.257 21.3 8.371 3.165 16.98 3.069 23.912 1.694 4.836-.959 12.423-4.995 21.403-11.769 39.342-31.167 67.471-85.51 72.434-128.536 3.322-32.668-8.545-59.584-24.787-80.132-16.237-20.542-36.848-34.766-51.235-42.256-27.792-14.458-96.394-42.397-174.788-42.397h-7.353l-.011-.005z"/>
    <path d="M157.351 72.562c-43.83 0-79.367 36.766-79.367 82.112s35.538 82.14 79.367 82.14c43.83 0 79.394-36.794 79.394-82.14 0-45.346-35.564-82.112-79.394-82.112zm0 1.771c42.903 0 77.681 35.953 77.681 80.341 0 44.389-34.777 80.369-77.68 80.369-42.905 0-77.655-35.98-77.655-80.369 0-44.388 34.75-80.34 77.654-80.34z" style="fill:#f4f4f4;stroke-width:.87096661"/>
    <path d="M157.351 89.92c-34.57 0-62.589 28.987-62.589 64.754 0 35.767 28.018 64.782 62.59 64.782 34.57 0 62.615-29.016 62.615-64.782S191.922 89.92 157.35 89.92zm0 1.772c33.646 0 60.903 28.172 60.903 62.982s-27.257 63.01-60.903 63.01-60.876-28.2-60.876-63.01 27.23-62.982 60.876-62.982z" style="fill:#f4f4f4;stroke-width:.87096661"/>
    <path d="M157.351 106.115c-25.922 0-46.935 21.74-46.935 48.558 0 26.82 21.013 48.586 46.935 48.586s46.962-21.767 46.962-48.586-21.04-48.558-46.962-48.558zm0 1.772c24.997 0 45.25 20.926 45.25 46.786 0 25.862-20.253 46.814-45.25 46.814-24.996 0-45.222-20.952-45.222-46.814 0-25.86 20.227-46.786 45.222-46.786z" style="fill:#f4f4f4;stroke-width:.87096661"/>
    <path d="M148.84 109.77c-1.559 0-2.837 1.32-2.837 2.935v24.694c0 1.877-.533 3.195-1.445 4.097-.912.903-2.284 1.44-4.148 1.44h-23.628c-1.559 0-2.836 1.322-2.836 2.935v17.635c0 1.613 1.277 2.935 2.836 2.935h23.629c1.73 0 3.115.556 4.067 1.523.952.966 1.525 2.383 1.525 4.264v24.445c0 1.614 1.278 2.935 2.837 2.935h17.045c1.558 0 2.837-1.321 2.837-2.935v-24.362c0-1.874.451-3.322 1.31-4.291.86-.97 2.207-1.578 4.363-1.578h23.547c1.56 0 2.837-1.322 2.837-2.935v-17.635c0-1.612-1.277-2.935-2.837-2.935h-23.52c-2.246 0-3.605-.594-4.443-1.495-.838-.9-1.258-2.221-1.258-4.043v-24.694c0-1.614-1.278-2.935-2.837-2.935zm0 1.771h17.045c.634 0 1.124.506 1.124 1.164v24.694c0 2.096.5 3.957 1.74 5.288 1.238 1.33 3.139 2.02 5.672 2.02h23.521c.635 0 1.125.509 1.125 1.164v17.635c0 .655-.49 1.163-1.125 1.163h-23.547c-2.478 0-4.41.766-5.647 2.16-1.235 1.393-1.739 3.323-1.739 5.482v24.362c0 .658-.489 1.163-1.124 1.163H148.84c-.634 0-1.124-.505-1.124-1.163V172.23c0-2.266-.752-4.182-2.06-5.51-1.309-1.328-3.152-2.049-5.245-2.049h-23.629c-.631 0-1.124-.508-1.124-1.163v-17.635c0-.655.49-1.163 1.124-1.163h23.629c2.179 0 4.03-.657 5.325-1.939 1.294-1.28 1.98-3.138 1.98-5.37v-24.695c0-.658.491-1.164 1.124-1.164z" style="fill:#f4f4f4;stroke-width:.87096661"/>
    <path d="M166.984 123.36c0 11.121 9.232 21.372 20.685 21.372v-1.772c-10.457 0-18.972-9.5-18.972-19.6zM187.056 122.668l-.964.416-7.492 3.295-.616.248.482.47 4.415 4.292.455.443.24-.581 3.078-7.586zm-1.58 1.661-2.461 5.98-3.48-3.405zM157.351 144.152c-5.62 0-10.168 4.705-10.168 10.52 0 5.814 4.549 10.547 10.168 10.547 5.62 0 10.195-4.733 10.195-10.547 0-5.815-4.575-10.52-10.195-10.52zm0 1.771c4.694 0 8.483 3.892 8.483 8.749 0 4.856-3.789 8.775-8.483 8.775-4.694 0-8.455-3.919-8.455-8.775 0-4.857 3.761-8.749 8.455-8.749zM146.031 123.333c0 10.818-9.182 19.628-18.945 19.628v1.772c10.75 0 20.658-9.551 20.658-21.4zM126.422 123.97l.402.997 3.185 7.752.24.637.455-.499 4.148-4.568.428-.47-.562-.249-7.332-3.184zm1.606 1.633 5.78 2.547-3.292 3.6zM127.065 164.643v1.771c10.456 0 18.971 9.498 18.971 19.601h1.713c0-11.123-9.232-21.372-20.684-21.372zM131.397 177.541l-.24.581-3.078 7.586-.401.997.963-.415 7.493-3.295.615-.249-.482-.47-4.415-4.292zm.322 1.523 3.479 3.378-5.941 2.603zM187.647 164.643c-10.75 0-20.658 9.551-20.658 21.4h1.712c0-10.818 9.182-19.629 18.946-19.629zM184.487 176.018l-.455.498-4.148 4.568-.428.47.562.25 7.332 3.183.964.416-.402-.997-3.185-7.752zm-.295 1.606 2.516 6.146-5.78-2.547zM469.037 92.19c-3.484.068-7.19.265-11.05.61-15.445 1.375-33.395 5.193-49.986 13.315-12.384 6.062-26.456 15.218-38.533 24.778-12.077 9.559-22.15 19.486-26.544 27.325-4.412 7.87-4.97 18.17-3.292 27.933 1.678 9.763 5.584 19.001 10.436 24.805 9.623 11.513 26.198 18.007 47.336 12.154 10.557-2.922 17.316-7.272 24.324-12.347 7.008-5.076 14.276-10.893 26.116-16.943 23.725-12.121 43.904-16.637 54.883-20.321 5.549-1.863 11.314-5.086 15.708-10.963 4.393-5.878 7.398-14.376 7.547-26.688.15-12.42-4.843-22.036-11.48-28.903-6.637-6.866-14.89-11.021-21.514-12.735-4.985-1.29-13.497-2.226-23.95-2.02zm.054 1.799c10.356-.194 18.748.717 23.467 1.938 6.314 1.633 14.361 5.667 20.739 12.265 6.376 6.597 11.114 15.706 10.97 27.63-.144 12.027-3.035 20.103-7.17 25.636-4.136 5.532-9.546 8.564-14.879 10.354-10.761 3.61-31.133 8.182-54.99 20.348l-.133.083c-11.98 6.122-19.396 12.013-26.357 17.054-6.962 5.041-13.438 9.24-23.762 12.097-20.622 5.71-36.399-.596-45.597-11.6-4.558-5.452-8.43-14.465-10.061-23.946-1.63-9.48-1.039-19.402 3.077-26.744 4.135-7.374 14.13-17.312 26.117-26.799 11.986-9.487 25.977-18.594 38.212-24.584 16.346-8.003 34.136-11.787 49.423-13.15 3.82-.34 7.493-.516 10.944-.582z" style="fill:#f4f4f4;stroke-width:.87096661"/>
    <path d="M481.959 103.347c-7.252-.227-14.967 1.258-22.451 4.264-19.707 7.91-44.38 17.945-55.954 24.086-9.206 4.884-21.428 10.057-31.815 16.915-10.387 6.858-19.014 15.46-20.684 27.242-3.314 23.384 16.65 40.654 37.757 36.598 10.442-2.006 17.523-6.357 24.832-11.627 7.309-5.27 14.888-11.438 26.571-17.33 11.694-5.899 24.133-10.148 35-13.566 10.867-3.418 20.112-6.006 25.555-8.665 5.553-2.714 10.598-8.66 13.059-16.14 2.46-7.481 2.302-16.508-2.676-25.249-4.98-8.745-12.964-13.859-22.13-15.725a42.037 42.037 0 0 0-7.064-.803zm-.053 1.772c2.33.071 4.603.328 6.797.775 8.773 1.786 16.255 6.571 20.979 14.866 4.725 8.298 4.86 16.76 2.542 23.809-2.319 7.048-7.142 12.656-12.176 15.115-5.143 2.513-14.418 5.1-25.314 8.527-10.895 3.427-23.434 7.708-35.268 13.677-11.845 5.974-19.565 12.27-26.813 17.496-7.248 5.227-14.02 9.375-24.163 11.323-20.066 3.855-38.904-12.323-35.75-34.578 1.564-11.036 9.707-19.287 19.908-26.023 10.202-6.736 22.368-11.89 31.683-16.832 11.364-6.03 36.119-16.094 55.82-24.003 7.293-2.928 14.766-4.369 21.755-4.152z" style="fill:#f4f4f4;stroke-width:.87096661"/>
    <path d="M383.033 152.32c-14.472 0-26.224 12.159-26.224 27.13 0 14.971 11.752 27.131 26.224 27.131 14.47 0 26.223-12.16 26.223-27.13 0-14.972-11.752-27.131-26.223-27.131zm0 1.771c13.545 0 24.51 11.345 24.51 25.36 0 14.013-10.965 25.358-24.51 25.358-13.545 0-24.511-11.345-24.511-25.359 0-14.014 10.965-25.359 24.51-25.359z" style="fill:#f4f4f4;stroke-width:.87096661"/>
    <path d="M383.033 157.334c-11.791 0-21.354 9.92-21.354 22.12 0 12.199 9.562 22.12 21.354 22.12 11.791 0 21.38-9.92 21.38-22.12 0-12.2-9.589-22.12-21.38-22.12zm0 1.772c10.866 0 19.668 9.106 19.668 20.348 0 11.241-8.801 20.348-19.668 20.348-10.866 0-19.642-9.106-19.642-20.348 0-11.242 8.775-20.348 19.642-20.348zM431.575 126.327c-14.471 0-26.223 12.132-26.223 27.104 0 14.971 11.752 27.13 26.223 27.13 14.47 0 26.197-12.16 26.197-27.13 0-14.971-11.726-27.104-26.197-27.104zm0 1.772c13.545 0 24.485 11.317 24.485 25.332 0 14.014-10.938 25.359-24.485 25.359-13.546 0-24.51-11.346-24.51-25.36 0-14.013 10.965-25.331 24.51-25.331z" style="fill:#f4f4f4;stroke-width:.87096661"/>
    <path d="M431.575 131.333c-11.792 0-21.381 9.892-21.381 22.092s9.588 22.12 21.381 22.12c11.792 0 21.354-9.92 21.354-22.12 0-12.2-9.562-22.092-21.354-22.092zm0 1.771c10.865 0 19.642 9.078 19.642 20.321 0 11.242-8.775 20.349-19.642 20.349-10.867 0-19.669-9.107-19.669-20.349s8.803-20.32 19.67-20.32zM482.952 107.14c-14.472 0-26.224 12.157-26.224 27.13 0 14.973 11.752 27.131 26.224 27.131 14.471 0 26.224-12.158 26.224-27.13 0-14.974-11.752-27.132-26.224-27.132zm0 1.771c13.545 0 24.511 11.344 24.511 25.36 0 14.014-10.966 25.358-24.511 25.358-13.546 0-24.511-11.344-24.511-25.359 0-14.015 10.965-25.359 24.511-25.359z" style="fill:#f4f4f4;stroke-width:.87096661"/>
    <path d="M482.952 112.153c-11.792 0-21.354 9.92-21.354 22.12 0 12.2 9.562 22.12 21.354 22.12s21.38-9.92 21.38-22.12c0-12.2-9.588-22.12-21.38-22.12zm0 1.771c10.865 0 19.668 9.107 19.668 20.349s-8.802 20.348-19.668 20.348-19.641-9.106-19.641-20.348c0-11.242 8.774-20.349 19.641-20.349zM417.13 64.229c-1.608-.115-3.254.116-4.87.692l-35.194 12.513c-6.465 2.303-9.907 9.617-7.68 16.306 2.227 6.69 9.294 10.278 15.76 7.973l35.194-12.54c6.465-2.305 9.906-9.617 7.68-16.307-1.67-5.016-6.07-8.293-10.89-8.637zM417.023 66c4.156.291 7.921 3.11 9.366 7.446 1.925 5.785-1.02 12.044-6.61 14.037l-35.185 12.54c-5.59 1.994-11.64-1.053-13.566-6.838-1.926-5.785 1.02-12.072 6.61-14.063l35.184-12.541a10.304 10.304 0 0 1 4.2-.581z" style="fill:#f4f4f4;stroke-width:.87096661"/>
    <path d="M416.213 69.987a6.841 6.841 0 0 0-2.782.36L379.369 82.5c-3.663 1.304-5.598 5.457-4.336 9.247 1.262 3.79 5.275 5.818 8.938 4.512l34.037-12.153c3.663-1.305 5.623-5.457 4.362-9.247-.946-2.842-3.422-4.676-6.155-4.873h-.002zm-.133 1.744c2.069.144 3.962 1.546 4.683 3.71.96 2.884-.504 6.01-3.292 7.004L383.408 94.57c-2.788.994-5.81-.52-6.77-3.405-.96-2.884.504-6.011 3.291-7.004l34.073-12.127a5.136 5.136 0 0 1 2.087-.304z" style="fill:#f4f4f4;stroke-width:.87096661"/>
</svg>
