<svg xmlns="http://www.w3.org/2000/svg" width="598.191" height="350.257" xml:space="preserve">
    <switch>
        <g>
            <path fill="#F7F7F7" d="m119.205 191.525-49.698 47.702-.582.558H2.713L150.972 82.87v71.66l60.524-67.518v104.502h3.388l43.648-96.934h103.085l-15.735 35.074h-60.984l-9.428 21.654h33.285l-15.211 35.444-27.746-.002-9.817 21.825H382.43l10.194-21.823H334.94l39.793-92.172h103.872l-15.243 35.074h-62.961l-9.428 21.654h58.382l-25.066 57.268h75.099l10.194-21.823h-58.576L490.8 94.581h102.264l-15.243 35.074h-60.47l-9.427 21.654h57.601l-39.679 89.371h-356.52v-50.272l-50.122 51.399v-50.282h.001zm-51.084 46.259v-2 2zm105.207-1.106h349.919l36.126-81.371h-57.554l12.911-29.652h60.47l11.764-27.076h-93.533l-36.339 84.174h58.776l-13.935 29.824h-83.762l25.069-57.271h-58.372l12.911-29.652h62.961l11.764-27.076h-95.141l-36.339 84.174h57.882l-13.932 29.824H249.793l13.418-29.824h27.697l11.778-27.446h-33.319l12.91-29.652 61.017-.002L355.44 98.58h-94.325l-43.646 96.938h-9.973v-98.05l-60.524 67.514V92.928L11.998 235.784h55.32l55.888-53.642v49.832l50.122-51.399v56.103z"/>
        </g>
    </switch>
</svg>
