<svg height="378.008" viewBox="0 0 335.627 151.203" width="839.068" xmlns="http://www.w3.org/2000/svg">
    <text fill="#ef00eb" font-family="TrasksHand" font-size=".8" stroke="#0105ff" x="497.206" y="28.698" transform="translate(-430.355 -12.869)"><tspan fill="#fafafa" fill-opacity=".4" stroke="none" x="497.206" y="28.698">John Loreth 2022</tspan></text>
    <g fill="none" stroke="#f4f4f4" stroke-linecap="round" stroke-linejoin="round">
        <g transform="translate(-430.355 -12.869)">
            <rect height="144.364" rx="3.478" stroke-width=".8" width="333.627" x="431.355" y="18.708"/>
            <g stroke-width=".4">
                <rect height="122.482" rx="3.478" width="312.34" x="441.601" y="29.174"/>
                <rect height="23.945" rx="11.973" width="84.508" x="545.021" y="107.3"/>
                <path d="M553.366 63.313h68.698"/>
            </g>
        </g>
        <g stroke-width=".8" transform="translate(-430.355 -12.869)">
            <circle cx="708.98" cy="119.307" r="14"/>
            <circle cx="664.98" cy="119.307" r="14"/>
            <circle cx="708.98" cy="75.307" r="14"/>
            <circle cx="664.98" cy="75.307" r="14"/>
            <rect height="6.677" rx="3.338" width="11.585" x="553.738" y="73.077"/>
            <rect height="8.213" rx="3.338" width="25.199" x="552.537" y="115.195"/>
            <rect height="8.213" rx="3.338" width="25.199" x="595.994" y="115.195"/>
            <path d="M479.885 112.832v16.584a3.33 3.33 0 0 0 3.338 3.338h13.343a3.33 3.33 0 0 0 3.338-3.338v-16.584m0 0h16.584c1.85 0 3.338-1.49 3.338-3.34V96.15c0-1.85-1.488-3.34-3.338-3.34h-16.584m0 0V76.228a3.33 3.33 0 0 0-3.338-3.338h-13.343a3.33 3.33 0 0 0-3.338 3.338V92.81m0 0H463.3c-1.85 0-3.34 1.49-3.34 3.34v13.341c0 1.85 1.49 3.34 3.34 3.34h16.584M431.355 21.741v-4.534a3.331 3.331 0 0 1 3.338-3.338h45.887c1.85 0 3.338 1.378 3.338 4.938M764.946 22.245v-3.917c0-3.077-1.489-4.46-3.338-4.46h-46.134c-1.849 0-3.338 1.99-3.338 4.46"/>
        </g>
    </g>
</svg>
