<svg version="1.2" baseProfile="tiny" xmlns="http://www.w3.org/2000/svg" width="598.189" height="350.26" xml:space="preserve">
    <path fill="#F4F4F4" d="M268.936 295.11c-.332 0-.595.007-.776.017-1.768.065-3.141.522-4.697.547-.747.007-1.625-.158-2.375-.696-.751-.534-1.273-1.319-1.678-2.285-.801-1.94-1.3-4.824-1.809-9.659-1.502-14.521-4.002-42.518-5.252-57.277-1.244-14.679-3.23-25.06-5.932-33.416-2.024-6.223-4.296-9.246-4.258-23.563 0-4.518.208-10.183.688-17.496 1.329-20.258 1.552-48.583 1.552-68.679 0-10.053-.056-18.046-.056-21.971 0-11.768.25-32.016.25-32.02l.014-1.056 1-.344c17.573-6.024 49.376-14.537 52.544-15.514 1.254-.388 2.647-.695 4.325-.692 2.974.004 6.717.908 12.712 3.499 9.118 3.946 32.197 11.977 37.086 13.439 5.338 1.517 7.44 4.423 8.909 7.516 1.173 2.415 3.969 4.816 3.925 11.036 0 .305-.006.615-.017.943-.254 6.558-9.493 214.174-11.006 228.846-.558 5.373-.585 9.428-1.05 12.63-.42 3.147-1.517 5.834-4.281 7.249-1.795.929-4.057 1.331-7.099 1.465a79.62 79.62 0 0 1-3.234.052c-15.77-.002-61.269-2.573-69.485-2.571zm69.486-.429c1.248 0 2.302-.017 3.109-.05 2.833-.115 4.696-.526 5.831-1.129 1.127-.611 1.678-1.309 2.16-2.619.96-2.62.841-7.58 1.579-14.908 1.486-14.328 10.748-222.211 10.992-228.642.011-.296.017-.576.015-.838-.042-5.346-1.92-6.389-3.605-9.694-1.531-2.907-2.427-4.5-7.09-5.984-5.11-1.536-28.031-9.506-37.414-13.561-5.819-2.518-9.198-3.257-11.522-3.25-1.325.002-2.345.223-3.44.559-3.269 1.003-33.843 9.193-51.454 15.144-.051 4.31-.238 20.785-.238 30.923 0 3.904.054 11.91.056 21.971-.002 20.125-.221 48.469-1.559 68.875-.478 7.27-.682 12.876-.682 17.3.037 14.121 1.951 15.929 4.112 22.641 2.796 8.645 4.812 19.264 6.068 34.086 1.248 14.739 3.75 42.743 5.246 57.222.365 3.547.751 5.982 1.172 7.541.416 1.582.878 2.157 1.066 2.266.129.086.246.138.639.145.803.024 2.418-.44 4.542-.545.267-.015.57-.019.931-.021 8.452.001 53.877 2.568 69.486 2.568z"/>
    <path fill="#F4F4F4" d="m334.866 203.677.604-.797-.637.772c-9.141-7.481-14.709-13.213-16.725-25.229a30.795 30.795 0 0 1-.418-5.169c.004-5.742 1.405-11.969 4.184-16.95 2.763-4.964 7.014-8.759 12.646-9.171.426-.031.844-.045 1.256-.047 5.744-.017 10.208 3.032 13.06 7.731 2.872 4.7 4.279 11.04 4.284 17.981 0 .575-.009 1.154-.027 1.757-.482 9.887-2.541 17.36-5.252 22.433-2.715 5.041-6.088 7.835-9.507 7.876a5.72 5.72 0 0 1-3.468-1.187zm3.468-.816c2.186.042 5.217-2.069 7.743-6.82 2.529-4.721 4.549-11.926 5.017-21.566.019-.563.024-1.122.024-1.678.005-6.67-1.378-12.686-3.987-16.938-2.63-4.254-6.336-6.756-11.354-6.773-.362 0-.732.015-1.109.042-4.753.346-8.455 3.532-11.048 8.151-2.576 4.604-3.932 10.56-3.928 15.975-.002 1.683.13 3.313.389 4.833 1.984 11.479 6.914 16.499 16.017 24.014.705.518 1.435.758 2.236.76zM276.02 197.344c-5.593-5.503-7.749-14.204-7.754-24.167 0-1.792.072-3.625.206-5.494.448-6.144 1.574-11.566 3.692-15.582 2.087-4.009 5.376-6.672 9.784-6.721.219-.004.431-.004.637-.004 7.773-.068 11.346 2.62 16.648 8.984 4.174 4.956 5.279 11.929 5.288 17.987 0 2.419-.182 4.7-.436 6.662-.887 7.012-4.142 12.725-13.467 20.633l-.058.049-.058.037c-1.244.78-3.203 1.886-5.761 1.888h-.021c-2.515-.003-5.49-1.115-8.7-4.272zm5.964-49.965c-3.586.076-6.109 2.038-8.054 5.655-1.912 3.607-3.036 8.811-3.465 14.792-.13 1.826-.2 3.611-.2 5.35-.006 9.702 2.147 17.852 7.154 22.739 2.979 2.907 5.394 3.691 7.322 3.697 1.928.002 3.484-.821 4.631-1.54 9.132-7.816 11.867-12.845 12.729-19.321.245-1.888.42-4.085.418-6.406.009-5.824-1.128-12.362-4.813-16.695-5.412-6.297-7.811-8.208-15.122-8.277-.2 0-.397.002-.6.006zM324.375 219.575c-3.207-3.309-7.431-4.434-11.548-4.438-5.119-.021-10.036 1.828-11.789 3.064l-2.4 1.66.876-2.783c5.012-15.923 9.693-25.041 10.539-26.976.378-.892 1.071-1.712 2.154-1.73 1.735.159 2.576 1.653 3.453 3.92 1.214 3.42 8.967 20.513 10.404 26.348l.883 3.592-2.572-2.657zm-22.952-1.896-.953-.3.953.3zm21.719-1.706c-2.511-7.111-8.271-19.966-9.365-23.008-.533-1.545-1.197-2.396-1.484-2.547-.034-.022-.055-.033-.066-.039-.006.005-.014.011-.022.02-.066.057-.194.22-.318.507-.858 1.96-5.021 10.064-9.71 24.429 2.639-1.159 6.494-2.184 10.652-2.197h.022c3.441-.001 7.106.746 10.291 2.835zM277.618 119.694l.726-.689.864.506-.864-.506-.726.689-.519-.547.383-.65c1.495-2.449 4.723-4.789 6.921-5.566l.798-.267.399.742c4.499 8.371 14.857 27.47 14.874 27.497l-1.605 1.166-21.251-22.375zm17.493 15.514a9222.474 9222.474 0 0 1-10.846-20.061c-1.463.73-3.562 2.329-4.647 3.747l15.493 16.314zM307.283 115.097c-1.389-7.364-2.413-11.988-2.415-12l.977-.217.707.707-.707-.707-.977.217-.12-.536.388-.387c1.661-1.612 4.564-2.447 7.469-2.471 2.601.008 5.303.721 6.812 2.86l.225.324-.058.392c-2.999 19.948-5.756 37.998-5.74 39.976l-1.99.132c-1.436-10.852-3.182-20.929-4.571-28.29zm5.483 20.426c1.045-7.446 2.854-19.284 4.776-32.125-.966-1.112-2.858-1.705-4.938-1.697-2.188-.022-4.49.678-5.658 1.542.619 2.87 3.405 16.063 5.82 32.28zM320.476 142.509c3.984-6.971 7.788-14.456 10.596-20.193 2.806-5.739 4.606-9.715 4.612-9.725l.327-.722.779.155c2.38.519 4.29 2.611 5.828 4.784 1.52 2.216 2.58 4.482 2.836 5.907l.105.624-.521.362c-5.985 4.144-20.664 17.805-23.007 20.03l-1.555-1.222zm4.799-4.523c5.27-4.841 13.461-12.197 18.059-15.526-.347-1.064-1.225-2.896-2.359-4.51-1.134-1.67-2.594-3.139-3.84-3.723-1.342 2.91-6.161 13.235-11.86 23.759zM251.595 53.63c6 15 8.25 32.75 8.75 54s-1 39.25-1.75 52.75-1 25 .5 36.75 4.75 45-3 54.5l-1-6s3-9 3.5-16.25-1-24.75-2.25-31.5-2-34.5-.25-47.25 3.5-36.5 1.5-54.5-4.5-30.75-6.5-34.5-.5-9.5.5-8zM283.346 312.545l1.001-17.751 2.996.17-1.002 17.749-2.995-.168zM302.866 295.882l2.956-.507 3 17.5-2.956.508-3-17.501zM283.624 273.999c-5.456-.495-13.376-5.908-13.364-17.953 0-.725.027-1.474.087-2.245.422-5.477 1.226-10.977 3.279-15.283 2.019-4.306 5.542-7.465 10.93-7.638 3.122-.118 8.053-.173 13.595-.175 12.372.002 27.679.277 32.551.806 6.906.687 12.091 2.466 14.939 9.485 1.527 3.712 1.881 8.865 1.89 13.622 0 4.354-.325 8.368-.439 10.442-.129 2.318-.778 4.82-2.724 6.801-1.943 1.979-5.063 3.321-9.833 3.64-1.5.101-3.64.142-6.223.144-13.806-.002-40.18-1.222-44.688-1.646zm-11.283-20.043a26.88 26.88 0 0 0-.081 2.09c.013 11.09 7.109 15.516 11.554 15.964 4.335.411 30.815 1.635 44.5 1.635 2.561 0 4.675-.043 6.088-.139 4.479-.307 7.048-1.525 8.542-3.047 1.492-1.52 2.031-3.457 2.152-5.511.118-2.118.437-6.066.437-10.33.009-4.637-.397-9.658-1.737-12.856-2.651-6.23-6.468-7.452-13.311-8.264-4.624-.508-20.021-.793-32.333-.791-5.525-.002-10.451.057-13.521.171-4.611.202-7.3 2.615-9.2 6.503-1.865 3.884-2.685 9.196-3.09 14.573l-.997-.074.997.076z"/>
    <path fill="#F4F4F4" d="m289.471 273.366.499-41.374 1.999.024-.499 41.376-1.999-.026zM309.095 274.229l.999-41.999 2 .048-1.001 41.999-1.998-.048zM330.721 274.333l1.875-41.125 1.997.092-1.875 41.125-1.997-.092z"/>
    <path fill="#F4F4F4" d="m271.698 253.379.044-1.999 74.624 1.625-.044 2-74.624-1.626z"/>
</svg>
