<svg version="1.2" baseProfile="tiny" xmlns="http://www.w3.org/2000/svg" width="598.189" height="350.26" xml:space="preserve">
    <path fill="#F4F4F4" d="M204.93 37.925c-5.133.001-9.848 1.824-13.328 4.864-3.481 3.032-5.744 7.378-5.74 12.234v176.188c-.014 11.386 3.213 20.748 8.853 28.091 8.464 11.023 21.882 17.366 37.115 21.038 15.253 3.667 32.482 4.691 49.08 4.694h34.901c23.109-.039 48.132-12.276 67.663-29.308 19.476-17.072 33.706-39.03 33.781-59.806V55.028c.004-4.855-2.282-9.202-5.764-12.234-3.481-3.041-8.195-4.863-13.328-4.865H204.931l-.001-.004zm0 1.557h193.232c4.767.001 9.119 1.69 12.307 4.475 3.177 2.768 5.231 6.697 5.229 11.066v140.892c-.074 20.066-13.988 41.733-33.247 58.614-19.313 16.841-44.082 28.905-66.641 28.942-16.758.002-16.717 0-34.901 0-16.533-.004-33.656-1.049-48.716-4.669-15.04-3.627-28.11-9.829-36.265-20.453-5.425-7.066-8.526-16.048-8.514-27.139V55.023c-.003-4.369 2.027-8.298 5.205-11.066 3.188-2.785 7.54-4.474 12.306-4.475h.005zm0 3.672c-3.899-.001-7.406 1.37-9.899 3.551-2.489 2.189-3.961 5.118-3.964 8.318v176.188c.013 10.427 2.877 18.504 7.782 24.928 4.915 6.42 11.966 11.209 20.479 14.74 17.018 7.074 39.751 8.939 61.581 8.926h34.901c21.239.039 45.464-11.581 64.233-28.019 18.827-16.396 32.058-37.558 31.982-55.865V55.029c-.003-3.201-1.474-6.13-3.965-8.318-2.493-2.182-5.998-3.553-9.898-3.551H204.93v-.006zm0 1.557h193.232c3.529-.001 6.682 1.241 8.877 3.162 2.206 1.938 3.426 4.422 3.43 7.15v140.892c.072 17.547-12.851 38.503-31.448 54.699-18.542 16.237-42.547 27.667-63.211 27.629h-34.901c-21.74.015-44.346-1.882-60.998-8.806-8.335-3.453-15.119-8.1-19.823-14.249-4.702-6.155-7.455-13.838-7.467-23.979V55.022c.003-2.728 1.249-5.211 3.454-7.151 2.193-1.912 5.333-3.163 8.853-3.161l.002.001z"/>
    <path fill="#F4F4F4" d="M389.849 157.95c-11.068.926-28.906 8.942-56.55 28.531l-.024.024h-.025c-9.18 7.323-20.646 18.48-30.741 29.283-10.095 10.804-18.786 21.222-22.449 27.216-3.636 5.95-5.389 11.222-3.624 15.469.882 2.122 2.646 3.885 5.302 5.229 2.655 1.345 6.226 2.295 10.847 2.846 18.514 2.204 51.438-3.24 74.911-23.64 23.458-20.391 35.665-52.832 36.992-70.289.334-4.417-.444-8.328-2.822-11.042-2.377-2.713-6.288-4.084-11.82-3.624l.003-.003zm3.697 1.533c3.226.275 5.459 1.405 6.956 3.113 1.994 2.277 2.747 5.731 2.432 9.898-1.282 16.876-13.419 49.192-36.459 69.22-23.028 20.016-55.726 25.44-73.718 23.3-4.505-.537-7.896-1.478-10.312-2.7-2.417-1.222-3.852-2.691-4.572-4.426-1.44-3.468-.008-8.299 3.527-14.083 3.507-5.738 12.195-16.183 22.254-26.947 10.049-10.754 21.479-21.877 30.547-29.112.009-.007.017-.018.025-.024 27.529-19.506 45.3-27.343 55.744-28.213 1.305-.11 2.5-.118 3.576-.026z"/>
    <path fill="#F4F4F4" d="M385.374 185.401c-2.027-2.479-5.114-3.846-8.821-4.256-3.709-.408-8.063.117-12.837 1.479-9.545 2.727-20.733 8.789-31.414 17.524-10.682 8.734-18.843 18.498-23.408 27.315-2.282 4.405-3.682 8.586-4.016 12.301-.336 3.715.412 6.997 2.438 9.474 2.026 2.479 5.11 3.88 8.817 4.288 3.709.41 8.065-.149 12.839-1.514 9.547-2.726 20.749-8.77 31.431-17.505 10.681-8.735 18.827-18.518 23.393-27.333 2.283-4.408 3.678-8.552 4.013-12.267.335-3.713-.41-7.028-2.435-9.506zm-1.205.985c1.717 2.101 2.408 4.936 2.099 8.369-.31 3.433-1.638 7.451-3.854 11.729-4.435 8.561-12.456 18.2-22.997 26.82s-21.599 14.586-30.868 17.232c-4.635 1.324-8.817 1.814-12.244 1.436-3.426-.378-6.067-1.617-7.785-3.718s-2.395-4.918-2.084-8.35c.31-3.433 1.619-7.435 3.835-11.716 4.434-8.559 12.477-18.213 23.016-26.834 10.54-8.621 21.58-14.572 30.85-17.219 4.635-1.323 8.835-1.827 12.262-1.45 3.424.379 6.051 1.6 7.77 3.701z"/>
    <path fill="#F4F4F4" d="M336.458 224.517a2.274 2.274 0 0 0-2.263 2.263c0 1.239 1.021 2.262 2.263 2.262s2.262-1.022 2.262-2.262a2.272 2.272 0 0 0-2.262-2.263zm0 1.556c.399 0 .705.307.705.706 0 .398-.306.705-.705.705s-.705-.307-.705-.705c0-.399.306-.706.705-.706zM342.685 219.505c-1.24 0-2.263 1.021-2.263 2.262s1.022 2.263 2.263 2.263c1.241 0 2.262-1.021 2.262-2.263s-1.021-2.262-2.262-2.262zm0 1.557c.398 0 .705.306.705.705a.694.694 0 0 1-.705.705.694.694 0 0 1-.706-.705c0-.4.306-.705.706-.705zM348.988 214.523a2.273 2.273 0 0 0-2.261 2.263c0 1.239 1.021 2.261 2.261 2.261s2.262-1.021 2.262-2.261a2.274 2.274 0 0 0-2.262-2.263zm0 1.558c.398 0 .706.305.706.705a.696.696 0 0 1-.706.705.694.694 0 0 1-.705-.705c0-.4.306-.705.705-.705zM355.215 209.511c-1.24 0-2.261 1.022-2.261 2.263s1.021 2.262 2.261 2.262 2.262-1.021 2.262-2.262-1.022-2.263-2.262-2.263zm0 1.558c.398 0 .705.304.705.704a.694.694 0 0 1-.705.705.693.693 0 0 1-.705-.705c0-.4.304-.704.705-.704zM427.758 186.481c0 38.657-12.25 57.139-36.846 82.017-25.531 25.816-65.012 29.599-91.301 29.599-13.054 0-37.142-3.248-61.217-3.502-24.075-.255-48.214 2.433-61.558 14.738l1.044 1.136c12.731-11.74 36.541-14.577 60.487-14.323 23.946.252 47.93 3.502 61.242 3.502 26.439 0 66.357-3.729 92.397-30.063 24.688-24.965 37.31-44.116 37.31-83.105h-1.557l-.001.001zM190.751 86.278v3.843H411.977v-3.843H190.751zm1.556 1.557h218.115v.729H192.307v-.729z"/>
    <path fill="#F4F4F4" d="M184.889 5.772c-10.981 0-19.895 8.914-19.895 19.895v263.791c0 25.718 14.775 39.118 32.177 45.871 17.402 6.752 37.473 7.077 48.569 7.077h74.302c66.424 0 115.941-53.903 115.941-120.291V25.669c0-10.979-8.92-19.894-19.9-19.894h-13.131c-.555 0-1.059.343-1.289.706a1.811 1.811 0 0 0-.292.997v16.319a3.527 3.527 0 0 1-3.551 3.551H205.291c-1.979 0-3.575-1.571-3.575-3.551V7.43c0-.386-.04-.782-.316-1.143-.277-.361-.762-.511-1.143-.511h-15.371l.003-.004zm0 1.557h15.273c.006.029 0-.016 0 .097v16.369c0 2.82 2.311 5.107 5.132 5.107h192.53a5.107 5.107 0 0 0 5.108-5.107V7.475c0-.038.036-.113.048-.146h13.106c10.141 0 18.339 8.199 18.339 18.338v196.447c0 65.616-48.8 118.734-114.385 118.734h-74.3c-11.066 0-30.972-.346-48.011-6.957-17.03-6.607-31.171-19.301-31.171-44.432V25.669c0-10.139 8.198-18.337 18.338-18.337l-.007-.003z"/>
    <path fill="#F4F4F4" d="M203.373 5.772v16.126c0 1.259.381 2.343 1.241 2.991s2.011.827 3.454.827h.778V5.773h-4.694l-.779-.001zm1.557 1.557h2.36v16.757c-.799-.073-1.417-.203-1.727-.438-.413-.311-.633-.764-.633-1.751M209.77 5.772v19.944H215.242V5.772H209.77zm1.557 1.557h2.359v16.83h-2.359V7.329zM216.143 5.772v19.944H221.615V5.772H216.143zm1.556 1.557h2.359v16.83h-2.359V7.329zM222.539 5.772v19.944h5.473V5.772H222.539zm1.557 1.557h2.359v16.83h-2.359V7.329zM228.911 5.772v19.944H234.383V5.772H228.911zm1.556 1.557h2.36v16.83h-2.36V7.329zM235.307 5.772v19.944h5.448V5.772h-5.448zm1.557 1.557h2.334v16.83h-2.334V7.329zM241.68 5.772v19.944h5.471V5.772h-5.471zm1.556 1.557h2.359v16.83h-2.359V7.329zM248.076 5.772v19.944h5.448V5.772h-5.448zm1.557 1.557h2.334v16.83h-2.334V7.329zM254.451 5.772v19.944H259.923V5.772H254.451zm1.556 1.557h2.359v16.83h-2.359V7.329zM260.848 5.772v19.944h5.448V5.772h-5.448zm1.557 1.557h2.334v16.83h-2.334V7.329zM267.214 5.772v19.944H272.686V5.772H267.214zm1.557 1.557h2.359v16.83h-2.359V7.329zM273.612 5.772v19.944h5.448V5.772h-5.448zm1.556 1.557h2.334v16.83h-2.334V7.329zM279.986 5.772v19.944H285.458V5.772H279.986zm1.556 1.557h2.36v16.83h-2.36V7.329zM286.36 5.772v19.944H291.832V5.772h-5.472zm1.557 1.557h2.359v16.83h-2.359V7.329zM292.758 5.772v19.944h5.473V5.772H292.758zm1.556 1.557h2.36v16.83h-2.36V7.329zM299.125 5.772v19.944H304.597V5.772h-5.472zm1.556 1.557h2.359v16.83h-2.359V7.329zM305.521 5.772v19.944H310.994V5.772h-5.473zm1.557 1.557h2.358v16.83h-2.358V7.329zM311.896 5.772v19.944h5.471V5.772h-5.471zm1.556 1.557h2.358v16.83h-2.358V7.329zM318.291 5.772v19.944H323.764V5.772h-5.473zm1.558 1.557h2.359v16.83h-2.359V7.329zM324.668 5.772v19.944h5.471V5.772h-5.471zm1.556 1.557h2.359v16.83h-2.359V7.329zM331.064 5.772v19.944h5.472V5.772H331.064zm1.556 1.557h2.359v16.83h-2.359V7.329zM337.432 5.772v19.944h5.47V5.772h-5.47zm1.555 1.557h2.358v16.83h-2.358V7.329zM343.827 5.772v19.944h5.448V5.772h-5.448zm1.558 1.557h2.335v16.83h-2.335V7.329zM350.201 5.772v19.944h5.472V5.772H350.201zm1.558 1.557h2.358v16.83h-2.358V7.329zM356.6 5.772v19.944h5.449V5.772H356.6zm1.556 1.557h2.335v16.83h-2.335V7.329zM362.974 5.772v19.944h5.471V5.772h-5.471zm1.556 1.557h2.358v16.83h-2.358V7.329zM369.364 5.772v19.944H374.811V5.772H369.364zm1.557 1.557h2.335v16.83h-2.335V7.329zM375.737 5.772v19.944h5.472V5.772H375.737zm1.557 1.557h2.359v16.83h-2.359V7.329zM382.111 5.772v19.944h5.471V5.772h-5.471zm1.557 1.557h2.358v16.83h-2.358V7.329zM388.51 5.772v19.944h5.471V5.772h-5.471zm1.555 1.557h2.359v16.83h-2.359V7.329zM394.883 5.772v19.944h.779c1.476 0 2.614-.134 3.478-.779.863-.644 1.216-1.743 1.216-3.04V5.772h-5.473zm1.557 1.557h2.358v14.569c.001 1.057-.196 1.511-.584 1.799-.267.2-1.059.24-1.774.316"/>
    <path fill="#F4F4F4" d="M200.869 7.232v1.557h3.308V7.232h-3.308zM208.043 7.232v1.557h2.432V7.232h-2.432zM214.489 7.232v1.557h2.457V7.232h-2.457zM220.861 7.232v1.557h2.432V7.232h-2.432zM227.232 7.232v1.557h2.433V7.232h-2.433zM233.63 7.232v1.557h2.456V7.232h-2.456zM240.026 7.232v1.557h2.456V7.232h-2.456zM246.45 7.232v1.557h2.432V7.232h-2.432zM252.847 7.232v1.557h2.432V7.232h-2.432zM259.073 7.232v1.557h2.432V7.232h-2.432zM265.588 7.232v1.557h2.432V7.232h-2.432zM271.884 7.232v1.557h2.433V7.232h-2.433zM278.359 7.232v1.557h2.432V7.232h-2.432zM284.655 7.232v1.557h2.457V7.232h-2.457zM291.076 7.232v1.557h2.457V7.232h-2.457zM297.475 7.232v1.557h2.431V7.232h-2.431zM303.941 7.232v1.557h2.433V7.232h-2.433zM310.27 7.232v1.557h2.456V7.232h-2.456zM316.636 7.232v1.557h2.432V7.232h-2.432zM323.01 7.232v1.557h2.432V7.232h-2.432zM329.338 7.232v1.557h2.456V7.232h-2.456zM335.703 7.232v1.557h2.433V7.232h-2.433zM342.225 7.232v1.557h2.433V7.232h-2.433zM348.545 7.232v1.557h2.457V7.232h-2.457zM354.896 7.232v1.557h2.456V7.232h-2.456zM361.292 7.232v1.557h2.432V7.232h-2.432zM367.613 7.232v1.557h2.456V7.232h-2.456zM373.965 7.232v1.557h2.455V7.232h-2.455zM380.432 7.232v1.557h2.456V7.232h-2.456zM386.781 7.232v1.557h2.433V7.232h-2.433zM393.124 7.232v1.557h2.456V7.232h-2.456zM399.553 7.232v1.557h2.456V7.232h-2.456zM422.56 243.71c-2.825 0-5.399 1.4-6.835 3.647-6.897 10.807-10.616 14.714-12.306 16.854-.892 1.129-1.759 2.722-1.606 4.427a3.763 3.763 0 0 0 1.192 2.408c.737.695 1.786 1.234 3.235 1.58 2.728.655 5.926 1.364 9.023 1.192 3.096-.171 6.134-1.29 8.292-4.208 2.073-2.802 3.885-6.436 5.182-9.751 1.292-3.305 2.102-6.175 2.042-7.93v-.024c-.013-4.519-3.697-8.196-8.219-8.195zm0 1.557a6.652 6.652 0 0 1 6.664 6.664v.024c.043 1.125-.664 4.127-1.921 7.345-1.258 3.215-3.039 6.757-4.987 9.387-1.86 2.516-4.352 3.421-7.15 3.575-2.797.154-5.856-.494-8.561-1.143-1.268-.304-2.053-.743-2.529-1.191-.476-.449-.684-.916-.729-1.435-.094-1.04.55-2.373 1.289-3.309 1.57-1.987 5.46-6.122 12.403-17.001 1.138-1.78 3.209-2.919 5.521-2.919v.003z"/>
    <path fill="#F4F4F4" d="M423.144 247.912c-.394.016-.787.156-1.119.341-.1.055-.525.217-1.047.34-.52.123-1.156.231-1.823.316-1.336.17-2.813.192-3.526.023l-.364 1.509c1.134.267 2.649.207 4.085.024a20 20 0 0 0 1.995-.365c.586-.139 1.044-.27 1.435-.486.313-.173.497-.112.486-.122-.006-.004.029.014.049.195.021.182-.003.498-.146.972-.293.973-1.328 3.541-2.505 6.276a276.077 276.077 0 0 1-3.43 7.637c-.918 1.944-1.521 3.032-2.019 3.574-.499.542-.841.678-1.802.779h-.022c-2.008.21-6.546.422-10.24 0l-.193 1.532c3.899.445 8.474.225 10.604 0 1.105-.116 2.045-.424 2.795-1.241.754-.816 1.358-2.021 2.287-3.988a262.5 262.5 0 0 0 3.453-7.686c1.182-2.743 2.19-5.19 2.555-6.396v-.024c.184-.611.271-1.132.219-1.605-.053-.474-.263-.926-.607-1.216a1.6 1.6 0 0 0-1.12-.389z"/>
    <path fill="#F4F4F4" d="M420.364 250.954c-2.592 7.023-5.82 13.817-7.199 15.785l1.289.899c1.666-2.378 4.747-9.047 7.369-16.149l-1.459-.535z"/>
</svg>
