<svg version="1.2" baseProfile="tiny" xmlns="http://www.w3.org/2000/svg" width="598.189" height="350.26" xml:space="preserve">
    <path fill="#F4F4F4" d="M220.665 89.864c-36.656-33.883-100.118-24.541-141.759 20.52-41.65 45.062-45.998 109.076-9.34 142.956 36.658 33.89 100.156 24.539 141.807-20.521 41.651-45.058 45.958-109.075 9.294-142.964l-.002.009zm-1.3 1.406c35.728 33.014 31.679 95.811-9.398 140.256-41.086 44.445-103.382 53.432-139.099 20.413-35.719-33.008-31.636-95.8 9.446-140.255 41.082-44.447 103.343-53.428 139.06-20.414h-.009z"/>
    <path fill="#F4F4F4" d="M205.572 101.549c-30.099-27.824-82.364-19.948-116.741 17.242-34.378 37.191-38.132 89.906-8.033 117.737 30.099 27.822 82.364 19.945 116.742-17.246 34.377-37.191 38.128-89.906 8.029-117.737l.003.004zm-1.3 1.406c29.154 26.95 25.675 78.45-8.138 115.028-33.814 36.579-84.883 44.086-114.033 17.136-29.156-26.941-25.677-78.44 8.136-115.019 33.812-36.583 84.88-44.089 114.033-17.139l.002-.006z"/>
    <path fill="#F4F4F4" d="M289.994 19.325c-33.468 0-69.873 4.176-105.276 14.057-.688.2-1.309.72-1.436 1.406-.127.686.168 1.258.538 1.674 0 0 5.863 6.771 9.362 10.02 1.587 1.474 3.045 3.654 5.772 5.084s6.623 1.968 12.831.479c11.909-2.858 57.564-8.942 74.83-8.942h22.79c17.265 0 62.918 6.084 74.83 8.942 6.207 1.489 10.074.951 12.801-.479s4.217-3.611 5.802-5.084c3.492-3.242 9.093-9.661 9.093-9.661l-1.466-1.256s-5.603 6.438-8.913 9.511c-1.812 1.684-3.131 3.634-5.383 4.815-2.253 1.181-5.549 1.723-11.484.299-12.378-2.97-57.571-9.003-75.278-9.003h-22.79c-17.708 0-62.902 6.033-75.278 9.003-5.937 1.424-9.232.882-11.485-.299-2.252-1.182-3.57-3.132-5.383-4.815-3.292-3.057-9.14-9.787-9.188-9.842 35.19-9.816 71.415-13.997 104.711-13.997h15.992c34.192 0 71.468 4.468 107.554 14.864-.27.313-7.83 9.078-11.036 12.053-1.78 1.652-3.319 3.584-5.831 4.785s-6.063 1.752-11.994.329c-12.383-2.971-57.575-9.003-75.281-9.003h-22.789c-17.708 0-62.901 6.032-75.278 9.002-5.931 1.424-9.48.872-11.993-.329-2.512-1.2-4.051-3.132-5.832-4.785-3.284-3.049-11.245-11.993-11.245-11.993-1.043-1.186-2.641-1.322-3.924-.926C137.219 47.56 97.786 67.749 66.359 98.28c-29.897 29.046-50.694 67.654-57.573 105.066-6.879 37.415.198 73.74 26.26 97.916 28.719 26.641 53.625 28.939 76.056 22.281 22.432-6.658 42.46-22.075 61.969-30.626 18.913-8.288 63.788-28.323 106.234-28.323h37.384c42.446 0 87.32 20.035 106.233 28.323 19.509 8.551 39.509 23.969 61.938 30.626 22.432 6.658 47.37 4.358 76.087-22.281 26.063-24.178 33.139-60.504 26.261-97.916-6.883-37.412-27.68-76.02-57.578-105.066-60.007-58.296-149.146-78.957-223.653-78.957h-16.001l.018.002zm124.053 16.897C456.025 48.386 496.364 68.64 528.3 99.657c29.607 28.762 50.237 67.05 57.035 104.023 6.798 36.969-.202 72.538-25.691 96.184-28.357 26.306-52.246 28.379-74.201 21.863-21.954-6.518-41.894-21.841-61.729-30.536-18.892-8.279-63.965-28.502-107.009-28.502H279.32c-43.046 0-88.12 20.223-107.008 28.502-19.837 8.695-39.777 24.02-61.73 30.536-21.965 6.518-45.855 4.44-74.214-21.869-25.488-23.64-32.488-59.213-25.691-96.185 6.797-36.96 27.427-75.252 57.034-104.012 31.157-30.268 70.291-50.341 111.162-62.598.767-.236 1.52-.136 1.944.359 0 0 7.848 8.877 11.366 12.143 1.62 1.504 3.358 3.704 6.31 5.114 2.953 1.41 7.066 1.94 13.279.449 11.911-2.858 57.564-8.943 74.83-8.943h22.79c17.265 0 62.918 6.084 74.829 8.943 6.214 1.491 10.328.961 13.279-.449 2.953-1.41 4.691-3.61 6.311-5.114 3.538-3.284 11.306-12.382 11.306-12.382l-1.076-.958.006-.003z"/>
    <path fill="#F4F4F4" d="M419.167 66.489c-23.602.603-45.641 9.221-61.76 26.229-36.844 38.876-28.561 106.501 18.155 151.061 46.713 44.563 114.464 49.433 151.301 10.558 36.843-38.876 28.59-106.501-18.126-151.061-26.28-25.068-59.231-37.563-89.57-36.789v.002zm.149 1.914c29.785-.746 62.181 11.514 88.109 36.249 46.096 43.972 54.016 110.405 18.034 148.373-35.982 37.966-102.491 33.354-148.583-10.617-46.096-43.973-54.048-110.406-18.064-148.373 15.744-16.611 37.338-25.052 60.504-25.632z"/>
    <path fill="#F4F4F4" d="M426.575 89.249c-18.995.519-36.874 7.615-50.007 21.534-25.401 26.924-24.646 70.421-.718 104.165l1.561-1.099c-23.492-33.134-24.143-75.587.539-101.745 22.683-24.043 60.07-27.231 92.385-10.528l.87-1.707c-14.413-7.449-29.85-11.021-44.627-10.618l-.003-.002zM497.675 119.423l-1.35 1.35c8.043 8.122 14.432 17.2 19.141 26.708l1.732-.871c-4.801-9.692-11.342-18.919-19.529-27.186h.006zM525.036 191.863c-.902 16.388-6.89 31.783-18.214 43.785-22.895 24.266-60.765 27.285-93.283 10.049l-.896 1.704c33.144 17.569 72.021 14.537 95.585-10.438 11.657-12.346 17.792-28.224 18.721-45.001l-1.914-.09.001-.009zM142.004 108.958c-31.77 0-57.542 25.772-57.542 57.542 0 31.771 25.772 57.543 57.542 57.543 31.771 0 57.543-25.772 57.543-57.543 0-31.769-25.773-57.542-57.543-57.542zm0 1.915c30.737 0 55.629 24.892 55.629 55.628 0 30.737-24.892 55.629-55.629 55.629-30.736 0-55.628-24.892-55.628-55.629-.001-30.736 24.892-55.628 55.628-55.628z"/>
    <path fill="#F4F4F4" d="M144.311 116.792a49.915 49.915 0 0 0-11.843.867c-.01.002-.02-.002-.03 0v.03c-.575.104-1.19.401-1.555.927-.372.539-.502 1.207-.538 1.974l-.748 15.761c-.243 5.26-1.778 9.063-4.486 11.544-2.708 2.482-6.679 3.714-11.993 3.47l-15.462-.718c-.775-.035-1.378-.049-2.003.209-.626.258-1.108.842-1.346 1.465v.089a49.774 49.774 0 0 0-1.974 11.784 49.81 49.81 0 0 0 .778 11.395v.03c.298 1.385 1.644 2.486 3.499 2.572l15.313.688c5.126.234 8.929 1.867 11.425 4.695 2.497 2.827 3.75 6.948 3.499 12.381l-.658 14.565c-.043.931.011 1.653.299 2.303.288.651.848 1.129 1.436 1.376l.06.029h.06a49.616 49.616 0 0 0 11.664 1.945 49.838 49.838 0 0 0 11.575-.809h.03l.03-.029c.64-.161 1.282-.525 1.705-1.137.422-.61.614-1.392.658-2.333l.688-14.505c.246-5.325 1.882-9.339 4.606-11.993 2.724-2.652 6.568-3.993 11.455-3.769l15.672.718c.858.041 1.581.045 2.273-.299.692-.342 1.157-1.013 1.436-1.794v-.06a49.993 49.993 0 0 0 1.854-11.394 49.79 49.79 0 0 0-.808-11.544v-.029l-.047-.058c-.163-.536-.411-1.129-.928-1.585-.516-.456-1.244-.709-2.093-.748l-16.174-.746c-4.832-.223-8.54-1.816-11.007-4.546-2.467-2.73-3.76-6.664-3.529-11.694l.717-15.433c.034-.73.122-1.362-.06-2.034-.181-.672-.807-1.309-1.555-1.556h-.03a49.765 49.765 0 0 0-11.873-2.004h.008zm-.09 1.914c3.961.182 7.789.866 11.426 1.944.233.074.227.055.27.209.046.173.034.694 0 1.435l-.718 15.433c-.249 5.405 1.18 9.908 4.038 13.07 2.857 3.162 7.106 4.933 12.322 5.174l16.18.748c.548.025.784.143.927.27.136.12.223.355.329.688.005.018.024.012.03.03.659 3.546.921 7.217.748 10.976a47.88 47.88 0 0 1-1.765 10.886c-.196.551-.287.64-.449.719-.161.08-.585.155-1.346.119l-15.672-.718c-5.29-.242-9.749 1.247-12.891 4.307-3.141 3.062-4.913 7.603-5.173 13.279l-.689 14.5c-.033.715-.184 1.137-.329 1.346-.146.211-.287.28-.598.359-3.57.671-7.278.952-11.065.777a47.686 47.686 0 0 1-11.125-1.825c-.01-.001-.021.004-.03 0-.289-.123-.339-.178-.419-.358-.084-.188-.157-.665-.12-1.466l.658-14.565c.267-5.773-1.081-10.445-3.978-13.728-2.896-3.28-7.279-5.071-12.771-5.323l-15.313-.718c-1.217-.056-1.59-.529-1.705-1.017-.002-.009.002-.021 0-.03a48.118 48.118 0 0 1-.748-10.947c.18-3.908.802-7.681 1.854-11.274.012-.031.02-.003.03-.03.002-.01-.003-.021 0-.03.091-.223.137-.287.239-.329.119-.049.53-.092 1.226-.06l15.433.718c5.654.26 10.204-1.078 13.369-3.978 3.165-2.899 4.856-7.295 5.115-12.891l.748-15.732c.026-.558.134-.849.209-.957s.085-.145.299-.18h.03a48.041 48.041 0 0 1 11.425-.837v.006z"/>
    <path fill="#F4F4F4" d="M142.004 154.987c-6.336 0-11.484 5.178-11.484 11.514 0 6.336 5.148 11.484 11.484 11.484 6.337 0 11.485-5.148 11.485-11.484s-5.148-11.514-11.485-11.514zm0 1.914c5.303 0 9.571 4.298 9.571 9.6a9.548 9.548 0 0 1-9.571 9.57 9.549 9.549 0 0 1-9.57-9.57c0-5.302 4.268-9.6 9.57-9.6zM109.857 131.214l.568 1.914 1.884 6.34.449 1.466 1.106-1.047 4.247-3.858 1.137-1.017-1.406-.568-6.161-2.482-1.824-.748zm2.961 3.26 2.901 1.167-2.034 1.824-.867-2.991zM110.518 189.259l-.568 1.406-2.483 6.131-.717 1.854 1.884-.568 6.341-1.885 1.465-.448-1.017-1.137-3.888-4.217-1.017-1.136zm.627 3.529 1.825 2.004-2.991.897 1.166-2.901zM171.252 192.072l-1.107 1.017-4.247 3.858-1.137 1.017 1.436.599 6.131 2.452 1.854.748-.598-1.914-1.885-6.341-.447-1.436zm-.958 3.44.898 2.991-2.9-1.167 2.002-1.824zM177.3 134.324l-1.914.568-6.34 1.914-1.466.419 1.017 1.136 3.888 4.247 1.017 1.107.568-1.406 2.482-6.131.748-1.854zm-3.29 2.991-1.136 2.871-1.825-2.003 2.961-.868zM402.055 195.001c-15.183 0-27.516 12.333-27.516 27.516s12.333 27.515 27.516 27.515 27.485-12.332 27.485-27.515-12.303-27.516-27.485-27.516zm0 1.915c14.148 0 25.571 11.452 25.571 25.601s-11.423 25.601-25.571 25.601-25.602-11.452-25.602-25.601 11.453-25.601 25.602-25.601zM452.894 164.232c-15.182 0-27.516 12.332-27.516 27.515 0 15.184 12.334 27.515 27.516 27.515 15.184 0 27.486-12.331 27.486-27.515 0-15.183-12.303-27.515-27.486-27.515zm0 1.914c14.147 0 25.572 11.453 25.572 25.601s-11.425 25.601-25.572 25.601-25.602-11.452-25.602-25.601 11.454-25.601 25.602-25.601zM507.925 144.814c-15.184 0-27.516 12.333-27.516 27.515s12.332 27.486 27.516 27.486c15.183 0 27.515-12.304 27.515-27.486s-12.333-27.515-27.515-27.515zm0 1.914c14.147 0 25.601 11.453 25.601 25.601S522.072 197.9 507.925 197.9c-14.148 0-25.602-11.423-25.602-25.571s11.453-25.601 25.602-25.601zM382.282 136.057c-11.069 0-20.068 8.999-20.068 20.068 0 11.07 8.999 20.068 20.068 20.068s20.068-8.999 20.068-20.068c.001-11.069-8.998-20.068-20.068-20.068zm0 1.914c10.035 0 18.154 8.12 18.154 18.154s-8.119 18.154-18.154 18.154c-10.036 0-18.154-8.12-18.154-18.154 0-10.035 8.118-18.154 18.154-18.154zM428.91 111.771c-11.07 0-20.039 8.999-20.039 20.068s8.969 20.068 20.039 20.068c11.069 0 20.067-8.999 20.067-20.068s-8.998-20.068-20.067-20.068zm0 1.914c10.035 0 18.153 8.119 18.153 18.154s-8.118 18.154-18.153 18.154-18.126-8.12-18.126-18.154c0-10.035 8.091-18.154 18.126-18.154zM478.141 98.491c-11.069 0-20.068 8.999-20.068 20.068s8.999 20.069 20.068 20.069 20.068-9 20.068-20.069-8.999-20.068-20.068-20.068zm0 1.914c10.034 0 18.154 8.12 18.154 18.154 0 10.035-8.118 18.155-18.154 18.155-10.034 0-18.153-8.12-18.153-18.155-.001-10.034 8.118-18.154 18.153-18.154zM272.432 147.005c-4.586 0-8.314 3.729-8.314 8.315s3.729 8.314 8.314 8.314h34.155c4.587 0 8.345-3.729 8.345-8.314s-3.758-8.315-8.345-8.315h-34.155zm0 1.914h34.155c3.553 0 6.431 2.849 6.431 6.4s-2.878 6.4-6.431 6.4h-34.155a6.38 6.38 0 0 1-6.4-6.4 6.379 6.379 0 0 1 6.4-6.4z"/>
    <path fill="#F4F4F4" d="M272.432 143.11c-6.732 0-12.202 5.47-12.202 12.202 0 6.733 5.47 12.202 12.202 12.202h34.155c6.732 0 12.203-5.469 12.203-12.202 0-6.732-5.471-12.202-12.203-12.202h-34.155zm0 1.914h34.155c5.697 0 10.288 4.59 10.288 10.288a10.268 10.268 0 0 1-10.288 10.288h-34.155a10.267 10.267 0 0 1-10.288-10.288c0-5.698 4.59-10.288 10.288-10.288zM183.282 35.116a2.061 2.061 0 0 1-.538.299c-.5.193-1.209.285-1.465.269l-.12 1.914c.715.044 1.514-.096 2.273-.389.38-.146.748-.33 1.078-.598.329-.269.677-.678.718-1.256l-1.915-.149c.01-.153.063-.167-.031-.09z"/>
</svg>
