<svg version="1.2" baseProfile="tiny" xmlns="http://www.w3.org/2000/svg" width="598.189" height="350.26" xml:space="preserve">
    <path fill="#F4F4F4" d="M39.132 82.143c-7.519 0-13.624 6.105-13.624 13.624v142.041c0 7.52 6.105 13.653 13.624 13.653H557.26c7.519 0 13.625-6.134 13.625-13.653V95.767c0-7.519-6.106-13.624-13.625-13.624H344.896v1.933H557.26a11.668 11.668 0 0 1 11.691 11.69v142.041c0 6.475-5.218 11.72-11.691 11.72H39.132c-6.475 0-11.691-5.245-11.691-11.72V95.767c0-6.474 5.216-11.69 11.691-11.69h252.935v-1.933H39.132v-.001z"/>
    <path fill="#F4F4F4" d="M23.455 63.474c-7.519 0-13.624 6.105-13.624 13.625v185.394c0 7.52 6.105 13.625 13.624 13.624h549.458c7.518 0 13.654-6.104 13.654-13.624V77.108c0-7.525-6.129-13.629-13.65-13.629H344.088l-.181.694-.121.454-.029.121v31.325c0 14.148-11.47 25.587-25.617 25.587s-25.586-11.44-25.586-25.587V64.687l-.061-.151-.174-.454-.27-.604H23.463l-.008-.004zm0 1.933H290.62v30.661c0 15.192 12.327 27.521 27.518 27.521 15.193 0 27.551-12.327 27.551-27.521V65.407H572.91c6.474 0 11.721 5.217 11.721 11.692v185.385c0 6.474-5.247 11.689-11.721 11.689H23.454a11.654 11.654 0 0 1-11.687-11.677V77.103c0-6.475 5.217-11.69 11.691-11.69l-.003-.006z"/>
    <path fill="#F4F4F4" d="M287.831 83.2v12.867c0 16.728 13.574 30.3 30.299 30.3 16.727 0 30.329-13.572 30.329-30.3V83.29h-1.934v12.777c0 15.682-12.714 28.367-28.396 28.367s-28.365-12.684-28.365-28.367V83.2h-1.933zM291.524 64.32v1.934h53.136V64.32h-53.136zM149.726 133.043c-19.673 0-35.646 15.974-35.646 35.646s15.973 35.646 35.646 35.646c19.672 0 35.645-15.974 35.645-35.646s-15.973-35.646-35.645-35.646zm0 1.934c18.627 0 33.712 15.085 33.712 33.713 0 18.626-15.085 33.712-33.712 33.712-18.628 0-33.713-15.086-33.713-33.712 0-18.628 15.085-33.713 33.713-33.713z"/>
    <path fill="#F4F4F4" d="M149.726 152.377c-8.993 0-16.313 7.32-16.313 16.313 0 8.992 7.319 16.313 16.313 16.313 8.992 0 16.282-7.32 16.282-16.313-.001-8.993-7.29-16.313-16.282-16.313zm0 1.934c7.947 0 14.349 6.431 14.349 14.379 0 7.947-6.401 14.379-14.349 14.379s-14.379-6.432-14.379-14.379c0-7.948 6.43-14.379 14.379-14.379z"/>
    <path fill="#F4F4F4" d="M149.726 155.941c-7.029 0-12.749 5.719-12.749 12.748 0 7.028 5.72 12.748 12.749 12.748 7.028 0 12.748-5.719 12.748-12.748-.001-7.028-5.72-12.748-12.748-12.748zm0 1.934a10.802 10.802 0 0 1 10.815 10.815 10.802 10.802 0 0 1-10.815 10.814c-5.984 0-10.815-4.831-10.815-10.814s4.83-10.815 10.815-10.815z"/>
    <path fill="#F4F4F4" d="M149.938 142.378c-14.763 0-26.733 12.002-26.733 26.764 0 14.763 11.972 26.735 26.733 26.735 14.763 0 26.765-11.973 26.765-26.735s-12.002-26.764-26.765-26.764zm0 1.934c13.718 0 24.832 11.114 24.832 24.831 0 13.718-11.114 24.801-24.832 24.801-13.717 0-24.8-11.084-24.8-24.801 0-13.718 11.083-24.831 24.8-24.831zM279.102 144.825c-13.458 0-24.377 10.92-24.377 24.378s10.92 24.408 24.377 24.408c13.458 0 24.378-10.95 24.378-24.408s-10.92-24.378-24.378-24.378zm0 1.933c12.413 0 22.445 10.032 22.445 22.445s-10.032 22.474-22.445 22.474-22.444-10.062-22.444-22.474 10.031-22.445 22.444-22.445zM354.231 144.825c-13.458 0-24.378 10.92-24.378 24.378s10.92 24.408 24.378 24.408 24.377-10.95 24.377-24.408-10.919-24.378-24.377-24.378zm0 1.933c12.411 0 22.444 10.032 22.444 22.445s-10.033 22.474-22.444 22.474c-12.414 0-22.445-10.062-22.445-22.474s10.031-22.445 22.445-22.445zM429.359 144.825c-13.458 0-24.378 10.92-24.378 24.378s10.92 24.408 24.378 24.408 24.377-10.95 24.377-24.408-10.919-24.378-24.377-24.378zm0 1.933c12.413 0 22.444 10.032 22.444 22.445s-10.031 22.474-22.444 22.474c-12.412 0-22.445-10.062-22.445-22.474s10.033-22.445 22.445-22.445zM504.489 144.825c-13.456 0-24.381 10.92-24.381 24.383 0 13.458 10.921 24.408 24.379 24.408 13.457 0 24.377-10.95 24.377-24.408 0-13.458-10.92-24.378-24.377-24.378l.002-.005zm0 1.933c12.411 0 22.443 10.032 22.443 22.445s-10.032 22.474-22.443 22.474c-12.414 0-22.445-10.062-22.445-22.474s10.031-22.445 22.445-22.445z"/>
    <path fill="#F4F4F4" d="M149.599 116.157c-14.418 0-27.459 5.835-36.915 15.285-9.449 9.456-15.283 22.498-15.285 36.915.003 14.418 5.836 27.458 15.285 36.915 9.456 9.451 22.496 15.283 36.915 15.284 14.419-.002 27.459-5.835 36.915-15.284 9.45-9.455 15.284-22.495 15.285-36.915-.001-14.417-5.835-27.459-15.285-36.915-9.454-9.449-22.494-15.284-36.917-15.285h.002zm0 1.934c13.897.001 26.447 5.608 35.555 14.711 9.104 9.109 14.71 21.66 14.711 35.555-.001 13.898-5.608 26.416-14.711 35.524-9.108 9.103-21.658 14.74-35.555 14.741-13.896 0-26.446-5.638-35.554-14.741-9.1-9.105-14.706-21.623-14.708-35.524.002-13.896 5.609-26.445 14.708-35.555 9.105-9.104 21.663-14.711 35.554-14.711zM279.102 140.505a28.59 28.59 0 0 0-20.3 8.398c-5.202 5.206-8.426 12.364-8.428 20.3.001 7.935 3.227 15.125 8.428 20.331a28.593 28.593 0 0 0 20.3 8.397c7.936-.001 15.094-3.197 20.3-8.397 5.2-5.206 8.426-12.395 8.427-20.331-.001-7.935-3.227-15.093-8.427-20.3-5.206-5.201-12.364-8.397-20.3-8.398zm0 1.933c7.416.001 14.08 2.968 18.941 7.824 4.855 4.86 7.852 11.525 7.854 18.941-.002 7.415-2.999 14.079-7.854 18.941-4.861 4.855-11.526 7.853-18.941 7.854-7.416-.001-14.08-2.998-18.94-7.854-4.856-4.861-7.853-11.526-7.854-18.941 0-7.416 2.997-14.08 7.854-18.941 4.859-4.856 11.524-7.823 18.94-7.824zM354.231 140.505c-7.938.001-15.095 3.198-20.3 8.398-5.202 5.206-8.427 12.364-8.429 20.3.002 7.935 3.227 15.125 8.429 20.331a28.584 28.584 0 0 0 20.3 8.397c7.933-.002 15.092-3.197 20.3-8.397 5.199-5.206 8.426-12.395 8.428-20.331-.002-7.936-3.229-15.094-8.428-20.3-5.208-5.2-12.365-8.397-20.3-8.398zm0 1.933c7.414.001 14.079 2.969 18.94 7.824 4.854 4.859 7.853 11.524 7.854 18.941-.002 7.415-3 14.08-7.854 18.941-4.861 4.855-11.526 7.852-18.94 7.854-7.416-.002-14.083-2.999-18.94-7.854-4.856-4.86-7.853-11.526-7.854-18.941.002-7.417 2.998-14.08 7.854-18.941 4.857-4.854 11.524-7.823 18.94-7.824zM429.359 140.505c-7.936.001-15.091 3.198-20.3 8.398-5.2 5.207-8.427 12.364-8.429 20.3.002 7.934 3.229 15.125 8.429 20.331 5.209 5.2 12.364 8.396 20.3 8.397 7.933-.001 15.092-3.197 20.3-8.397 5.199-5.206 8.426-12.396 8.428-20.331-.002-7.936-3.229-15.092-8.428-20.3-5.208-5.2-12.365-8.397-20.3-8.398zm0 1.933c7.414.001 14.079 2.969 18.94 7.824 4.855 4.861 7.853 11.524 7.854 18.941-.002 7.414-2.999 14.079-7.854 18.941-4.861 4.855-11.526 7.853-18.94 7.854-7.414-.001-14.077-2.998-18.94-7.854-4.854-4.861-7.853-11.527-7.854-18.941.002-7.416 3-14.079 7.854-18.941 4.852-4.869 11.513-7.838 18.927-7.838l.013.014zM504.489 140.505a28.59 28.59 0 0 0-20.3 8.398c-5.202 5.207-8.429 12.365-8.429 20.3s3.227 15.125 8.429 20.331a28.594 28.594 0 0 0 20.3 8.397c7.933-.002 15.09-3.197 20.3-8.397 5.198-5.206 8.423-12.395 8.427-20.331-.002-7.935-3.229-15.092-8.427-20.3-5.208-5.201-12.365-8.395-20.3-8.398zm0 1.933c7.414.002 14.076 2.968 18.94 7.824 4.855 4.861 7.853 11.525 7.854 18.941-.002 7.415-2.999 14.079-7.854 18.941-4.862 4.855-11.526 7.852-18.94 7.854-7.416-.002-14.081-2.998-18.941-7.854-4.855-4.861-7.854-11.526-7.854-18.941 0-7.416 2.998-14.079 7.854-18.941 4.86-4.856 11.525-7.823 18.941-7.824z"/>
    <path fill="#F4F4F4" d="M149.599 109.481c-32.501.003-58.872 26.374-58.875 58.875.002 32.5 26.373 58.873 58.875 58.875 31.051-.003 56.452-24.095 58.665-54.587h35.676c1.732 17.927 16.789 31.958 35.162 31.959 18.368-.001 33.421-14.041 35.163-31.959h4.803c1.741 17.917 16.795 31.956 35.163 31.959 18.366-.003 33.39-14.044 35.132-31.959h4.833c1.737 17.921 16.793 31.958 35.163 31.959 18.37-.001 33.425-14.036 35.162-31.959h4.803c1.745 17.916 16.796 31.958 35.161 31.959 19.535-.001 35.371-15.868 35.373-35.403-.002-19.535-15.838-35.373-35.373-35.374-17.772.001-32.471 13.122-34.981 30.207h-5.195c-2.514-17.094-17.178-30.214-34.953-30.217-17.776.003-32.44 13.123-34.951 30.208h-5.226c-2.512-17.086-17.178-30.208-34.951-30.208-17.773.001-32.44 13.12-34.951 30.208h-5.226c-2.519-17.075-17.185-30.205-34.95-30.208-17.771.004-32.437 13.125-34.951 30.208h-35.886c-2.21-30.493-27.612-54.552-58.665-54.556v.013zm0 1.934c30.316.003 55.059 23.664 56.821 53.529v.03l.03.061v.936H245.208l.272-.211.09-.06.272-.242.06-.393c2.042-16.523 16.113-29.299 33.199-29.301 17.06.003 31.123 12.756 33.2 29.241l.029.182.091.181.091.151.302.453h8.065l.121-.815.031-.211c2.103-16.458 16.158-29.18 33.198-29.181 17.065.001 31.131 12.744 33.199 29.242l.029.272.182.211.091.151.302.332h7.824l.211-.664.061-.151.03-.091v-.09c2.117-16.493 16.171-29.219 33.232-29.221 17.063.001 31.117 12.728 33.195 29.211v.03l.03.151.121.816h8.217l.241-.574.03-.091.061-.121.03-.151c2.054-16.509 16.123-29.271 33.198-29.272 18.489.001 33.438 14.949 33.44 33.44-.002 18.49-14.951 33.469-33.44 33.471-17.654-.002-32.105-13.64-33.38-30.962v-.242l-.12-.181-.061-.091-.272-.483H462.886l-.121.846v.091l-.029.029v.03c-1.286 17.313-15.709 30.962-33.359 30.962-17.668-.002-32.125-13.684-33.379-31.024v-.302l-.211-.242-.03-.03-.302-.363H388.235l-.272.302-.09.091-.241.242-.031.362c-1.272 17.322-15.694 30.958-33.35 30.962-17.646-.004-32.095-13.625-33.38-30.933v-.151l-.03-.121-.181-.755H312.986l-.271.483-.091.151-.12.181-.031.241c-1.299 17.295-15.715 30.901-33.349 30.903-17.583-.002-31.976-13.53-33.351-30.752 0 .006-.002-.07 0-.09v-.061c0-.084.006-.182-.06-.362-.067-.181-.237-.444-.483-.574l-.242-.121H206.473v1.026c-1.75 29.879-26.527 53.557-56.851 53.56-31.493-.029-56.975-25.511-56.977-56.965.002-31.457 25.485-56.939 56.941-56.942l.013.034z"/>
</svg>
