<svg version="1.2" baseProfile="tiny" xmlns="http://www.w3.org/2000/svg" width="598.189" height="350.26" xml:space="preserve">
    <path fill="#F4F4F4" d="M180.012 7.94c-4.947 0-8.98 4.033-8.98 8.98v315.1c0 4.947 4.033 8.955 8.98 8.955H418.47c4.947 0 8.98-4.008 8.98-8.955V16.92c0-4.946-4.029-8.979-8.98-8.979L180.012 7.94zm0 1.592H418.47a7.38 7.38 0 0 1 7.388 7.388v315.1c0 4.086-3.302 7.363-7.388 7.363H180.012a7.352 7.352 0 0 1-7.387-7.363V16.92a7.38 7.38 0 0 1 7.387-7.388z"/>
    <path fill="#F4F4F4" d="M215.087 33.338c-8.276 0-15 6.725-15 15v52.936H270.062V33.338h-54.975zm0 1.592h53.383v64.752h-66.791V48.338a13.395 13.395 0 0 1 13.408-13.408z"/>
    <path fill="#F4F4F4" d="M271.482 33.338v69.031h-71.17V298.86c0 8.276 6.725 15 15 15h167.866c8.277 0 15.001-6.725 15.001-15V48.334c0-8.276-6.724-15-15.001-15H271.489l-.007.004zm1.592 1.592h110.099a13.393 13.393 0 0 1 13.408 13.408v250.525a13.395 13.395 0 0 1-13.408 13.409H215.307c-7.415 0-13.408-5.994-13.408-13.409V103.964h71.17v-69.03l.005-.004z"/>
    <path fill="#F4F4F4" d="M219.391 106.122c-5.424.002-9.826 4.403-9.826 9.826v117.741c.001 5.422 4.402 9.825 9.826 9.825h159.698c5.422 0 9.825-4.402 9.826-9.825V115.948c-.001-5.423-4.404-9.825-9.826-9.826H219.391zm0 1.592h159.698c4.554.001 8.221 3.682 8.234 8.234v117.741a8.216 8.216 0 0 1-8.234 8.234H219.391a8.215 8.215 0 0 1-8.234-8.234V115.948c.014-4.552 3.678-8.233 8.234-8.234zm0 1.866c-3.519.006-6.387 2.849-6.394 6.368v117.741c.008 3.518 2.875 6.386 6.394 6.392h159.698c3.518-.006 6.386-2.874 6.394-6.392V115.948c-.008-3.52-2.875-6.362-6.394-6.368H219.391zm0 1.592h159.698a4.795 4.795 0 0 1 4.802 4.776v117.741a4.798 4.798 0 0 1-4.802 4.802H219.391a4.796 4.796 0 0 1-4.801-4.802V115.948a4.792 4.792 0 0 1 4.801-4.776z"/>
    <path fill="#F4F4F4" d="M299.24 125.68a9.37 9.37 0 0 0-6.643 2.761l-4.303 4.279c-2.78 2.908-4.33 3.781-9.278 3.781h-5.921c-5.185 0-9.402 4.218-9.402 9.402v5.597c0 2.452-.125 3.951-.572 5.199-.447 1.247-1.245 2.344-2.811 4.005l-4.697 4.696c-3.667 3.666-3.667 9.643 0 13.309l4.502 4.502h.025v.025c1.443 1.275 2.284 2.27 2.811 3.731.527 1.461.747 3.469.747 6.716v4.528c0 5.185 4.219 9.402 9.403 9.402h5.597c5.245 0 6.943 1.182 9.577 3.731l4.328 4.329c3.667 3.666 9.617 3.666 13.284 0l4.079-4.055c1.686-1.696 2.721-2.675 3.932-3.234 1.209-.562 2.713-.771 5.473-.771h6.02c5.186 0 9.403-4.218 9.403-9.402v-5.498c0-3.162.4-5.07 1.169-6.567.767-1.497 1.959-2.653 3.731-4.254l.024-.024 3.159-3.159c3.667-3.666 3.667-9.643 0-13.309l-3.433-3.434-.024-.024c-1.69-1.464-2.814-2.523-3.532-3.98-.721-1.455-1.095-3.39-1.095-6.667v-5.397c0-5.186-4.22-9.402-9.403-9.402h-6.02c-2.729 0-4.357-.36-5.697-1.045-1.34-.686-2.447-1.744-4.029-3.284l-3.757-3.731a9.368 9.368 0 0 0-6.642-2.761l-.005.005zm0 1.592c1.997 0 3.993.759 5.522 2.289l3.756 3.731v.025c1.582 1.539 2.814 2.731 4.428 3.557 1.614.826 3.549 1.219 6.418 1.219h6.02a7.798 7.798 0 0 1 7.812 7.811v5.398c0 3.396.396 5.596 1.269 7.363.865 1.751 2.165 2.985 3.855 4.452.015.013.035.012.05.025l3.384 3.383a7.824 7.824 0 0 1 0 11.069l-3.135 3.109-.025.025c-1.775 1.604-3.14 2.917-4.055 4.7-.919 1.794-1.343 3.996-1.343 7.289v5.497a7.797 7.797 0 0 1-7.811 7.812h-6.021c-2.838 0-4.613.211-6.144.92s-2.686 1.854-4.378 3.558l-4.068 4.044a7.794 7.794 0 0 1-11.045 0l-4.329-4.328h-.025v-.025c-2.725-2.638-5.154-4.179-10.671-4.179h-5.597a7.798 7.798 0 0 1-7.811-7.812v-4.527c0-3.315-.21-5.501-.846-7.264-.632-1.751-1.697-3.013-3.208-4.354l-.025-.024-4.478-4.453a7.824 7.824 0 0 1 0-11.069l4.727-4.701.025-.025c1.619-1.717 2.605-3.007 3.159-4.552s.647-3.25.647-5.746v-5.597a7.797 7.797 0 0 1 7.811-7.811h5.92c5.169 0 7.52-1.217 10.423-4.254l4.278-4.279a7.775 7.775 0 0 1 5.523-2.289l-.012.013z"/>
    <path fill="#F4F4F4" d="M299.24 130.704a8.397 8.397 0 0 0-5.971 2.463l-3.831 3.831c-2.468 2.58-3.817 3.333-8.208 3.333h-5.249c-4.661 0-8.458 3.796-8.458 8.458v4.975c0 2.181-.105 3.509-.498 4.603-.392 1.094-1.096 2.058-2.487 3.532l-4.179 4.179c-3.296 3.296-3.296 8.67 0 11.965l4.005 4.005v.025h.025c1.28 1.132 2 1.999 2.463 3.283.463 1.284.671 3.059.671 5.945v4.03c0 4.662 3.796 8.458 8.458 8.458h4.975c4.653 0 6.121 1.046 8.458 3.309l3.856 3.855a8.44 8.44 0 0 0 11.939 0l3.633-3.632c1.498-1.509 2.398-2.37 3.457-2.86 1.059-.491 2.4-.672 4.852-.672h5.373c4.661 0 8.433-3.796 8.433-8.458v-4.876c0-2.808.345-4.48 1.021-5.796.674-1.315 1.731-2.357 3.308-3.781l.025-.024 2.811-2.812c3.295-3.296 3.295-8.669 0-11.965l-3.034-3.034-.025-.025-.024-.024c-1.502-1.303-2.479-2.229-3.11-3.508-.631-1.278-.97-2.986-.97-5.895v-4.801c0-4.661-3.771-8.458-8.433-8.458h-5.373c-2.42 0-3.849-.319-5.025-.92-1.174-.601-2.158-1.549-3.557-2.911h-.025l-3.309-3.333h-.025a8.4 8.4 0 0 0-5.972-2.464zm0 1.567c1.755 0 3.506.67 4.851 2.015l3.334 3.358h.024c1.407 1.369 2.503 2.441 3.955 3.183 1.45.743 3.187 1.096 5.747 1.095h5.373c3.799 0 6.841 3.066 6.841 6.866v4.801c0 3.027.334 5.002 1.118 6.592.781 1.579 1.972 2.669 3.482 3.98.011.009.016.017.025.024l3.017 3.01a6.876 6.876 0 0 1 0 9.727l-2.786 2.762c-1.594 1.44-2.829 2.616-3.656 4.229s-1.194 3.604-1.194 6.542v4.876a6.832 6.832 0 0 1-6.841 6.865h-5.373c-2.529 0-4.119.183-5.498.821s-2.422 1.667-3.93 3.185l-3.633 3.632a6.842 6.842 0 0 1-9.701 0l-3.856-3.881h-.025c-2.428-2.35-4.627-3.757-9.552-3.757h-4.975a6.852 6.852 0 0 1-6.865-6.865v-4.03c0-2.954-.2-4.906-.771-6.492-.565-1.567-1.52-2.689-2.86-3.88l-.025-.025-3.98-3.979a6.876 6.876 0 0 1 0-9.728l4.204-4.179v-.024c1.444-1.531 2.337-2.689 2.836-4.08.498-1.392.597-2.925.597-5.149v-4.975c0-3.8 3.064-6.866 6.865-6.866h5.249c4.604 0 6.744-1.133 9.329-3.831h.025l3.806-3.805a6.83 6.83 0 0 1 4.851-2.015h-.008z"/>
    <path fill="#F4F4F4" d="M299.24 149.012c-12.714 0-23.036 10.346-23.036 23.06s10.321 23.036 23.036 23.036c12.713 0 23.035-10.321 23.035-23.036 0-12.714-10.322-23.06-23.035-23.06zm0 1.592c11.852 0 21.442 9.614 21.442 21.468s-9.589 21.444-21.442 21.444-21.443-9.59-21.443-21.444c0-11.853 9.589-21.468 21.443-21.468z"/>
    <path fill="#F4F4F4" d="M299.24 156.772c-8.434 0-15.299 6.865-15.299 15.299 0 8.435 6.864 15.275 15.299 15.275 8.433 0 15.299-6.841 15.299-15.275 0-8.433-6.864-15.299-15.299-15.299zm0 1.593c7.573 0 13.706 6.133 13.706 13.706 0 7.574-6.133 13.683-13.706 13.683-7.574 0-13.707-6.108-13.707-13.683 0-7.573 6.133-13.706 13.707-13.706z"/>
    <path fill="#F4F4F4" d="M272.573 40.005a.796.796 0 1 0 .071 1.592h108.813a7.798 7.798 0 0 1 7.812 7.811v248.383a7.799 7.799 0 0 1-7.812 7.812H217.029a7.8 7.8 0 0 1-7.812-7.812v-194.58a.796.796 0 1 0-1.592-.023v194.603c0 5.184 4.218 9.403 9.403 9.403h164.426c5.186 0 9.403-4.22 9.403-9.403V49.408c0-5.185-4.218-9.403-9.403-9.403H272.647a.913.913 0 0 0-.074 0zM217.027 40.005c-5.185 0-9.403 4.218-9.403 9.403v51.095a.796.796 0 1 0 1.592.022V49.408a7.797 7.797 0 0 1 7.811-7.811h52.14a.796.796 0 0 0 .022-1.592h-52.162z"/>
</svg>
