<svg xmlns="http://www.w3.org/2000/svg" width="400" height="204.082">
    <g style="fill:#c83737">
        <path style="fill:maroon;fill-rule:evenodd;stroke:none" d="M207.402 4.668c.572-.084-.424-.45 0 0zm36.625 13.018c-.203.589.564-.121 0 0zm.787.423c-.043.669.636-.276 0 0zm-24.517 11.645c.096.607.53-.343 0 0zm-.705.447c-.16.518.321-.096 0 0zm-25.182 3.824c-.07.6.582-.224 0 0zm67.2 1.32c0 .17.12-.142 0 0zM19.45 42.608c.675.115.051-.532 0 0zM207.642 60.97c.383.683.45-.427 0 0zm53.914 6.467c.083.26.245-.11 0 0zm70.623 4.378c.763.044-.022.08 0 0zm-.82.575c.812.27-.127-.625 0 0zm-.848.273c.121.462.512-.203 0 0zm-.801.256c-.177.505.63.33 0 0zm-.764.543c.04.453.503-.11 0 0zm-.822.328c-.23.607.626-.059 0 0zm19.314 5.977c-.32.512.658.173 0 0zm-32.332.7c.146.228.052-.224 0 0zm-.888.247c-.246.488.687.251 0 0zm-.848.42c-.115.514.564.002 0 0zm-.836.482c.093.521.584-.119 0 0zm-.773.453c.245.54.445-.348 0 0zm-.764.31c-.254.556.587-.042 0 0zm-.863.43c-.15.482.627-.161 0 0zm-.8.395c-.174.56.556-.156 0 0zm-.856.414c-.057.734.574-.07 0 0zm-62.887.485c.271.565.438-.48 0 0zm-.766.334c-.073.587.53-.2 0 0zm-229.93 5.722c-.072.397.322-.071 0 0zm.329.809c-.049.564.55-.24 0 0zm305.363 2.517c.163-.07-.198-.097 0 0zm-.852.118c-.175.537.584-.075 0 0zM35.37 93.64c-.083.697.641-.227 0 0zm283.531.384c-.07.6.582-.224 0 0zm-282.605.077c-.08.25.192-.11 0 0zm251.44.119c-.07.469.528.013 0 0zm-.909.574c.407.273.422-.557 0 0zm30.424.21c.14.293.123-.238 0 0zM3.178 96.53c.041.245.226-.077 0 0zm202.537.737c-.3.633.69.042 0 0zm41.767.96c-.031.412.257-.172 0 0zm-10.886 2.542c.102.398.39-.237 0 0zm1.006 1.25c.178.021-.148-.175 0 0zm34.136.398c.088.62.578-.332 0 0zm-.873.514c-.006.13.137-.111 0 0zm30.504.072c-.134.513.536-.18 0 0zm-.808.385c-.154.649.628-.168 0 0zm-40.584 5.12c-.496.436.538.224 0 0zm27.896 1.458c.018.677.55-.323 0 0zm-.762.38c-.265.599.553-.117 0 0zm-11.058 5.792c.097.527.52-.31 0 0zm-.819.34c-.073.587.53-.2 0 0zm108.65 1.982c.384.548.43-.514 0 0zm-150.515 4.076c.326.48.394-.637 0 0zm21.514 4.742c.406.469.32-.397 0 0zm116.488 4.086c-.151.643.598-.172 0 0zm-.846.45c.338.614.305-.414 0 0zm-132.002 3.853c-.053.709.618-.222 0 0zm-.857.436c-.08.557.648-.266 0 0zm-13.06 6.912c.054.612.572-.299 0 0zm-26.417 4.789c-.044.652.541-.25 0 0zm12.426 27.494c-.063.186.15-.083 0 0zm-57.617 10.344c-.184.538.588-.107 0 0zm-4.523 4.564c.03.575.529-.252 0 0zm5.761 12.5c.138.88.482-.392 0 0z" transform="matrix(.88413 0 0 .84666 29.316 13.865)"/>
        <path style="fill:#fff;fill-rule:evenodd;stroke:none" d="M226.186 5.56c-17.212.69-32.82 12.377-40.168 27.694-2.48 4.977-3.49 10.537-3.516 16.066-.32 8.327.937 16.975 5.524 24.1 7.924 13.234 22.204 23.103 37.827 23.82 18.625.669 36.478-11.506 43.908-28.421 3.444-7.744 5.299-16.6 3.25-25-2.628-11.639-9.403-22.445-19.165-29.403-8.006-5.726-17.808-9.027-27.66-8.855Zm1.253 3.14c15.908-.133 31.903 9.03 38.774 23.56 5.283 11.97 5.088 26.096.115 38.127-6.337 13.797-21 22.883-36.032 23.523-14.104.901-28.862-5.217-37.093-16.924-11.157-15.377-10.695-38.226 1.458-52.922 7.124-8.931 18.138-14.53 29.533-15.17a71.246 71.246 0 0 1 3.245-.195zM39.953 42.413C24.398 42.34 9.591 53.986 6.236 69.241c-2.304 9.886-.92 20.719 4.309 29.449 4.7 7.272 12.001 12.207 18.794 17.345 11.695 8.732 23.176 17.75 34.828 26.544 24.13 18.37 48.356 36.646 72.884 54.485 5.994 2.582 13.497 2.186 18.912-1.511 5.724-4.692 8.086-13.544 4.241-20.116-2.641-4.956-6.384-9.2-9.45-13.882-15.593-21.441-31.868-42.388-47.784-63.595C91.016 82.251 79.1 66.481 66.293 51.448c-6.998-6.61-16.91-9.247-26.34-9.034Zm2.395 2.106c11.587.163 22.42 7.137 28.442 16.865 28.317 36.824 56.588 73.694 83.796 111.347 1.557 2.359 3.517 4.587 4.41 7.297 1.965 8.23-5.581 17.091-14.036 16.385-4.11-.182-7.644-2.575-10.702-5.118-14.26-10.39-28.195-21.22-42.323-31.79-25.936-19.65-51.922-39.25-77.134-59.828C7.025 91.05 5.528 77.975 9.52 67.297c4.474-11.455 15.208-20.273 27.32-22.4 1.82-.287 3.666-.39 5.508-.377zm.125 22.292c-7.12.627-12.685 8.744-9.993 15.54 2.065 6.183 9.895 9.939 15.852 7.08 5.905-2.619 9.05-10.874 5.3-16.474-2.365-3.775-6.66-6.333-11.16-6.145Zm312.673 2.733c-9.773.72-18.067 6.545-26.787 10.506-40.078 20.243-80.24 40.35-119.46 62.222-7.312 5.729-8.34 18.043-1.442 24.526 5.003 4.926 12.735 6.309 19.314 4.127 46.7-9.398 93.587-18.035 139.942-29.022 6.806-1.592 13.378-4.873 17.793-10.421 7.289-8.339 11.515-19.724 9.906-30.856-1.494-11.12-9.1-20.848-18.885-26.094-6.22-3.37-13.309-5.145-20.38-4.988zm4.258 2.748c12.012.102 23.659 7.574 28.56 18.578 5.766 11.341 5.272 26.112-2.678 36.312-5.89 7.642-15.293 11.845-24.712 12.95-46.874 10.053-93.815 19.811-140.922 28.703-7.556.606-14.273-6.45-14.21-13.848-.184-4.786 2.681-9.612 7.173-11.427 7.793-4.132 15.598-8.244 23.387-12.386 36.971-19.454 73.985-38.855 111.599-57.039 3.77-1.366 7.804-1.889 11.803-1.843zM356.791 94.5c-7.362.82-12.839 9.637-9.553 16.48 2.64 6.3 11.453 9.201 17.103 5.118 5.127-3.163 7.193-10.746 3.608-15.791-2.323-3.7-6.76-6.042-11.158-5.807z" transform="matrix(.88413 0 0 .84666 29.316 13.865)"/>
    </g>
</svg>
