<svg width="589" height="350" xmlns="http://www.w3.org/2000/svg">
    <path d="M555.67 108.48a18.52 18.52 0 0 1 18.5 18.5v96a18.52 18.52 0 0 1-18.5 18.5H33.33A18.52 18.52 0 0 1 14.83 223v-96a18.52 18.52 0 0 1 18.5-18.5h522.34m0-1.5H33.33a20.06 20.06 0 0 0-20 20v96a20.06 20.06 0 0 0 20 20h522.34a20.06 20.06 0 0 0 20-20v-96a20.06 20.06 0 0 0-20-20Z" style="fill:#f4f4f4"/>
    <path data-name="bottom bevel" d="M294.5 236H33.33a12.93 12.93 0 0 1-9.19-3.82M294.5 236h261.17a12.93 12.93 0 0 0 9.19-3.82" style="fill:none;stroke:#f4f4f4;stroke-linecap:round;stroke-linejoin:round;stroke-width:1.5px"/>
    <path data-name="top bevel" d="M24.14 118.85a12.92 12.92 0 0 1 9.19-3.85H294.5m270.36 3.81a12.92 12.92 0 0 0-9.19-3.81H294.5" style="fill:none;stroke:#f4f4f4;stroke-linecap:round;stroke-linejoin:round;stroke-width:1.5px"/>
    <circle cx="476.48" cy="175" r="14.5" style="fill:none;stroke:#f4f4f4;stroke-miterlimit:10;stroke-width:1.5px" data-name="2"/>
    <circle cx="426.48" cy="175" r="14.5" style="fill:none;stroke:#f4f4f4;stroke-miterlimit:10;stroke-width:1.5px" data-name="1"/>
    <circle cx="280.48" cy="213.5" r="10.5" style="fill:none;stroke:#f4f4f4;stroke-miterlimit:10;stroke-width:1.5px"/>
    <circle cx="280.48" cy="175" r="14.5" style="fill:none;stroke:#f4f4f4;stroke-miterlimit:10;stroke-width:1.5px"/>
    <circle cx="280.48" cy="175" r="10.5" style="fill:none;stroke:#f4f4f4;stroke-miterlimit:10;stroke-width:1.5px"/>
    <path d="m279 169.06-4.73 5.83a.18.18 0 0 0 0 .22l4.73 5.83a.17.17 0 0 0 .3-.11v-1.26a.17.17 0 0 1 .17-.17h6.09a.17.17 0 0 0 .17-.17v-8.51a.17.17 0 0 0-.17-.17h-6.09a.17.17 0 0 1-.17-.17v-1.21a.17.17 0 0 0-.3-.11Zm4.35 4.05v3.73a.18.18 0 0 1-.17.17h-2.39a.17.17 0 0 1-.17-.17v-3.73a.17.17 0 0 1 .17-.17h2.39a.18.18 0 0 1 .17.17Z" style="fill:#f4f4f4"/>
    <circle cx="280.48" cy="136.5" r="10.5" style="fill:none;stroke:#f4f4f4;stroke-miterlimit:10;stroke-width:1.5px"/>
    <circle cx="186.98" cy="175" r="21.06" style="fill:none;stroke:#f4f4f4;stroke-miterlimit:10;stroke-width:1.5px"/>
    <path d="M134 163.46h-18.64a1 1 0 0 1-1-1v-18.67a3 3 0 0 0-3-3H94.29a3 3 0 0 0-3 3v18.67a1 1 0 0 1-1 1H71.62a3 3 0 0 0-3 3v17.08a3 3 0 0 0 3 3h18.67a1 1 0 0 1 1 1v18.67a3 3 0 0 0 3 3h17.07a3 3 0 0 0 3-3v-18.67a1 1 0 0 1 1-1H134a3 3 0 0 0 3-3v-17.08a3 3 0 0 0-3-3ZM102.83 188.22v13.56m0-53.56v13.56M116.05 175h13.55m-53.55 0H89.6" style="fill:none;stroke:#f4f4f4;stroke-miterlimit:10;stroke-width:1.5px"/>
    <circle cx="37.48" cy="211.5" r="14.5" style="fill:none;stroke:#f4f4f4;stroke-miterlimit:10;stroke-width:1.5px"/>
    <circle cx="37.48" cy="211.5" r="10.5" style="fill:none;stroke:#f4f4f4;stroke-miterlimit:10;stroke-width:1.5px"/>
    <path d="M34 208.63a4.5 4.5 0 1 1 0 5.74m-2.1-2.87h4" style="fill:none;stroke:#f4f4f4;stroke-linecap:round;stroke-miterlimit:10;stroke-width:1.5px"/>
    <path d="M377 165.36a1.21 1.21 0 1 1 1.21 1.2 1.21 1.21 0 0 1-1.21-1.2Zm1.21 8.43a1.21 1.21 0 1 0 1.2 1.21 1.21 1.21 0 0 0-1.18-1.21Zm0 9.65a1.21 1.21 0 1 0 1.2 1.2 1.21 1.21 0 0 0-1.18-1.2Zm-9.65-20a1.93 1.93 0 1 0 1.93 1.93 1.93 1.93 0 0 0-1.91-1.94Zm0 19.28a1.93 1.93 0 1 0 1.93 1.93 1.94 1.94 0 0 0-1.91-1.94Zm0-9.64a1.93 1.93 0 1 0 1.93 1.93 1.94 1.94 0 0 0-1.91-1.94Zm-10.6-.72a2.65 2.65 0 1 0 2.65 2.65 2.66 2.66 0 0 0-2.61-2.66Zm0-9.64a2.65 2.65 0 1 0 2.65 2.65 2.65 2.65 0 0 0-2.61-2.66ZM358 182a2.65 2.65 0 1 0 2.65 2.65A2.66 2.66 0 0 0 358 182Zm-11.09 0a2.65 2.65 0 1 0 2.65 2.65 2.65 2.65 0 0 0-2.67-2.65Zm0-19.28a2.65 2.65 0 1 0 2.65 2.65 2.64 2.64 0 0 0-2.67-2.66Zm0 9.64a2.65 2.65 0 1 0 2.65 2.65 2.65 2.65 0 0 0-2.67-2.66Zm-10.61 10.36a1.93 1.93 0 1 0 1.93 1.93 1.94 1.94 0 0 0-1.95-1.94Zm0-19.28a1.93 1.93 0 1 0 1.93 1.93 1.93 1.93 0 0 0-1.95-1.94Zm0 9.64a1.93 1.93 0 1 0 1.93 1.93 1.94 1.94 0 0 0-1.95-1.94Zm-9.64.72a1.21 1.21 0 1 0 1.2 1.21 1.21 1.21 0 0 0-1.22-1.22Zm0-9.64a1.21 1.21 0 1 0 1.2 1.21 1.21 1.21 0 0 0-1.22-1.22Zm0 19.29a1.21 1.21 0 1 0 1.2 1.2 1.21 1.21 0 0 0-1.22-1.21Z" style="fill:#f4f4f4"/>
    <path style="fill:#f4f4f4" d="M511.79 209.11h6.79v6.79h-6.79z" data-name="1"/>
    <path style="fill:#f4f4f4" d="M511.79 184.11h6.79v6.79h-6.79z" data-name="2"/>
    <path style="fill:#f4f4f4" d="M511.79 159.11h6.79v6.79h-6.79z" data-name="3"/>
    <path style="fill:#f4f4f4" d="M511.79 134.11h6.79v6.79h-6.79z" data-name="4"/>
    <g data-name="LED dots">
        <circle cx="507.39" cy="212.5" r="1.25" style="fill:#f4f4f4"/>
        <path d="M507.39 191.25a1.25 1.25 0 1 1 1.25-1.25 1.25 1.25 0 0 1-1.25 1.25Zm0-5a1.25 1.25 0 1 1 1.25-1.25 1.25 1.25 0 0 1-1.25 1.25ZM507.39 168.75a1.25 1.25 0 1 1 1.25-1.25 1.25 1.25 0 0 1-1.25 1.25Zm0-5a1.25 1.25 0 1 1 1.25-1.25 1.25 1.25 0 0 1-1.25 1.25Zm0-5a1.25 1.25 0 1 1 1.25-1.25 1.25 1.25 0 0 1-1.25 1.25ZM507.39 146.25a1.25 1.25 0 1 1 1.25-1.25 1.25 1.25 0 0 1-1.25 1.25Zm0-5a1.25 1.25 0 1 1 1.25-1.25 1.25 1.25 0 0 1-1.25 1.25Zm0-5a1.25 1.25 0 1 1 1.25-1.25 1.25 1.25 0 0 1-1.25 1.25Zm0-5a1.25 1.25 0 1 1 1.25-1.25 1.25 1.25 0 0 1-1.25 1.25Z" style="fill:#f4f4f4"/>
    </g>
    <path d="M552.77 188.66a3.28 3.28 0 0 1-1.9 2c-.6.23-3.62 1.09-14.45 4.1l-1.62.45v-4.07c0-.02 3-.78 6.56-1.7l6.52-1.66-3-.79c-7.18-1.87-8.34-2.19-8.84-2.43a2.39 2.39 0 0 1-1.32-1.54 4.2 4.2 0 0 1 0-1.5 2.37 2.37 0 0 1 1.49-1.61c.47-.19 2-.6 7.88-2.14l3.7-1c.05 0-2.39-.66-6.46-1.7l-6.54-1.67v-2.07a11.26 11.26 0 0 1 .05-2l3.51 1c9.08 2.52 12.13 3.4 12.66 3.65a3 3 0 0 1 1.77 2 4 4 0 0 1 0 1.46 2.22 2.22 0 0 1-.7 1.17 2.73 2.73 0 0 1-.83.61c-.59.28-1.55.56-8.07 2.34l-2.86.78s1.46.45 3.33 1c4.12 1.13 6.24 1.72 6.82 1.9a3.15 3.15 0 0 1 2.31 2.08 4.2 4.2 0 0 1-.01 1.34Zm-6.31-21.42h-6.24v-3.89h12.48v3.89Zm0-7.82h-6.24v-3.89h12.48v3.89Zm-8.4 6.42a2.28 2.28 0 0 1-1.82 1.76 2.19 2.19 0 0 1-2.45-1.62 2.69 2.69 0 0 1 .19-1.77 2.87 2.87 0 0 1 .88-.92 2.18 2.18 0 0 1 2.84.7 2.7 2.7 0 0 1 .36 1.85Zm0-7.82a2.19 2.19 0 0 1-4.27.14 2.69 2.69 0 0 1 .19-1.77 2.77 2.77 0 0 1 .86-.91 2.19 2.19 0 0 1 2.86.69 2.7 2.7 0 0 1 .36 1.83Z" style="fill:#f4f4f4"/>
</svg>
