<svg height="351.868" viewBox="0 0 3757.564 2814.946" width="469.695" xmlns="http://www.w3.org/2000/svg">
    <g fill="#f4f4f4" fill-opacity=".5" stroke-width="8">
        <path d="M2501.897 1393.5q0 2.56-.618 4.308-.918 2.603-2.944 2.603-1.344 0-2.816-.619-1.771-.746-1.942-1.834.598 0 1.408.213 1.878.49 2.347.49 1.813 0 2.73-1.813.726-1.45.726-3.477 0-1.43-.939-4.075-.917-2.666-.917-3.712 0-.32.17-.512.193-.213.513-.213.832 0 1.62 3.84.662 3.243.662 4.8zM2510.11 1395.675q0 2.176-1.258 3.413-1.259 1.238-3.477 1.238-1.216 0-1.878-.576-.661-.576-.661-1.77 0-1.686 2.197-3.393 2.091-1.621 3.862-1.621.81 0 1.066 1.002.15.576.15 1.707zm-1.3.597q0-.256-.065-.49-.043-.256-.17-.576-.342.234-1.131 1.152-.405.47-.704.682 0-.405.085-.66.17-.364.277-.62-.938 0-1.962.79-1.003.79-1.003 1.706 0 .62.683.62 1.3 0 2.517-.64 1.472-.769 1.472-1.964zM2518.9 1396.55q0 1.045-.79 2.346-.895 1.472-1.855 1.472-.278 0-.47-.298-.17-.32-.17-.619 0-.384.81-1.195.832-.832.832-1.13 0-.192-.064-.384l-.085-.256q-1.6.362-3.264 1.834-1.642 1.472-2.496 1.664-.17-.469-.17-.96 0-.597.277-1.258.192-.47.64-1.13.747-1.132 1.579-2.56l1.472-2.582q1.066-1.835 1.557-2.603.256-.384.448-.576.277-.256.661-.341.256.085.363.32.128.234.128.554 0 .726-.939 1.963-1.706 2.219-1.749 2.304-.96 1.45-.96 2.624l.043.213q1.173-.576 1.387-.66.874-.364 1.493-.364.683 0 1.003.47.32.448.32 1.152zM2528.799 1395.291q0 1.45-.704 3.093-.768 1.814-1.899 2.496-.235-.277-.405-.618-.15-.342-.15-.683 0-.363 1.067-2.155.47-.789.427-1.386l-.021-.278q-.79.235-2.731 1.43-1.92 1.173-3.883 2.39-.298 0-.554-.214-.235-.235-.235-.512 0-.448 1.43-3.008.426-.768 1.535-2.667.342.448.448 1.003.107.533.107 1.28v.49q1.963-1.173 3.072-1.77 1.216-.662 1.664-.662.299 0 .555.683.277.683.277 1.088zM2547.337 1399.43q0 .384-.34.597-.32.192-.726.192-.363 0-.918-.085-1.258-.192-1.62-.192-.641 0-2.518.15-1.067.085-1.536.085-1.302 0-1.302-1.302 0-1.237.811-3.541.448-1.301 1.685-4.267 1.11-2.666 1.408-3.754.107-.342.171-.448.17-.256.427-.256.405 0 .682.597.278.576.278 1.045 0 .747-.875 2.518-.875 1.749-1.707 3.434-.917 2.006-.917 3.05 0 .534.448.748.32.149.939.149.47 0 1.621-.107 1.152-.128 1.536-.128.96 0 1.579.278.874.384.874 1.237zM2555.273 1395.675q0 2.176-1.258 3.413-1.259 1.238-3.478 1.238-1.216 0-1.877-.576t-.661-1.77q0-1.686 2.197-3.393 2.09-1.621 3.861-1.621.811 0 1.067 1.002.15.576.15 1.707zm-1.3.597q0-.256-.065-.49-.043-.256-.17-.576-.342.234-1.131 1.152-.406.47-.704.682 0-.405.085-.66.17-.364.277-.62-.939 0-1.963.79-1.002.79-1.002 1.706 0 .62.682.62 1.302 0 2.518-.64 1.472-.769 1.472-1.964zM2564.255 1395.227q0 .683-.363 1.45-.341.769-.875 1.28l-.02-.298q0-.256.063-.79.064-.533.064-.789 0-.362-.106-.533-.107-.192-.448-.192-1.003 0-2.496 1.557l-3.222 3.392q-.128 0-.256-.02-.32-.086-.426-.107.064-.768.533-1.707 1.259-2.539 1.301-2.71.171-.682.256-1.002.085-.32.235-.661.17-.363.384-.64.235-.299.597-.448l.214 2.56q.917-.747 1.408-1.152.938-.747 1.621-.747t1.11.448q.426.448.426 1.11zM2574.73 1392.752q0 .896-2.39 2.368-2.304 1.408-3.35 1.408-.49 0-.66-.34-.15-.342-.15-.96v-.577q1.43 0 2.603-.427 1.173-.426 2.048-1.408-.64-.234-1.301-.234-1.558 0-3.307 1.194-1.92 1.302-1.92 2.774 0 1.408 1.92 1.962.299.085 3.605.598 1.942.298 1.942 1.045 0 .32-.704.512-.704.213-1.792.213-2.731 0-4.31-.832-2.09-1.109-2.09-3.562 0-2.56 2.56-4.075 2.176-1.28 4.949-1.28.832 0 1.515.384.832.47.832 1.237zM2583.22 1388.934q0 .469-1.13 1.962-1.131 1.494-1.131 2.283 0 .405.47.81 1.066.94 1.066 1.153 0 .277-.192.533-.17.256-.448.256-.235 0-.661-.256-.3-.17-1.152-.832-.32.619-.491.939-.597 1.13-.81 1.642l-.64 1.963q-.555 1.323-1.387 1.323l-.021-.49q0-1.516.98-3.585.193-.384 1.068-1.984-1.686-.917-3.712-.917 0-.79.32-1.152.34-.384 1.13-.384.726 0 1.814.256l1.066.256q.406-.128 1.11-1.387 1.728-3.03 2.346-3.477.17.277.278.554.128.278.128.534zM2591.092 1396.55q0 1.045-.789 2.346-.896 1.472-1.856 1.472-.277 0-.47-.298-.17-.32-.17-.619 0-.384.81-1.195.833-.832.833-1.13 0-.192-.064-.384l-.085-.256q-1.6.362-3.264 1.834-1.643 1.472-2.496 1.664-.171-.469-.171-.96 0-.597.277-1.258.192-.47.64-1.13.747-1.132 1.579-2.56l1.472-2.582q1.067-1.835 1.557-2.603.256-.384.448-.576.278-.256.662-.341.256.085.362.32.128.234.128.554 0 .726-.938 1.963-1.707 2.219-1.75 2.304-.96 1.45-.96 2.624l.043.213q1.174-.576 1.387-.66.875-.364 1.493-.364.683 0 1.003.47.32.448.32 1.152zM2608.607 1389.595q0 1.003-1.067 2.688-.682 1.067-2.24 3.072-1.557 1.984-1.94 2.603l1.6.512q1.556.47 1.556 1.706-.64.107-1.258.192l-.235-.02v-.171q-.341-.085-.555-.085-.405 0-1.28.128-.874.128-1.322.128-.576 0-.939-.214-.363-.213-.363-.768 0-.448 1.643-2.538 3.072-3.904 3.093-3.947 1.664-2.261 1.664-3.03 0-.298-.213-.447-.192-.15-.79-.15-.405 0-1.685.79-.618.384-1.002.384l-.363-.064q-.128-.085-.277-.32-.15-.256-.15-.406 0-.896 1.728-1.642 1.472-.64 2.56-.64.918 0 1.408.682.427.598.427 1.558zM2621.428 1393.435q0 2.581-2.794 4.565-2.56 1.814-5.27 1.814-1.344 0-2.133-.683-.79-.683-.79-1.984 0-2.901 2.54-5.035 2.41-2.026 5.397-2.026 1.514 0 2.282.896t.768 2.453zm-1.3.49q-.001-.98-1.11-1.471-.832-.363-1.984-.363-1.686 0-3.52 1.643-1.835 1.642-1.835 3.306 0 .683.341.982.363.277 1.088.277 2.091 0 4.352-1.152 2.667-1.365 2.667-3.221zM2631.2 1389.595q0 1.003-1.068 2.688-.682 1.067-2.24 3.072-1.557 1.984-1.94 2.603l1.599.512q1.557.47 1.557 1.706-.64.107-1.258.192l-.235-.02v-.171q-.341-.085-.555-.085-.405 0-1.28.128-.874.128-1.322.128-.576 0-.939-.214-.363-.213-.363-.768 0-.448 1.643-2.538 3.072-3.904 3.093-3.947 1.664-2.261 1.664-3.03 0-.298-.213-.447-.192-.15-.79-.15-.405 0-1.685.79-.618.384-1.002.384l-.363-.064q-.128-.085-.277-.32-.15-.256-.15-.406 0-.896 1.728-1.642 1.472-.64 2.56-.64.918 0 1.408.682.427.598.427 1.558zM2641.012 1389.595q0 1.003-1.066 2.688-.683 1.067-2.24 3.072-1.558 1.984-1.942 2.603l1.6.512q1.558.47 1.558 1.706-.64.107-1.259.192l-.235-.02v-.171q-.34-.085-.554-.085-.406 0-1.28.128-.875.128-1.323.128-.576 0-.939-.214-.362-.213-.362-.768 0-.448 1.642-2.538 3.072-3.904 3.094-3.947 1.664-2.261 1.664-3.03 0-.298-.214-.447-.192-.15-.789-.15-.405 0-1.685.79-.619.384-1.003.384l-.363-.064q-.128-.085-.277-.32-.15-.256-.15-.406 0-.896 1.729-1.642 1.472-.64 2.56-.64.917 0 1.408.682.426.598.426 1.558z"/>
    </g>
    <g fill="none" stroke="#f4f4f4">
        <g transform="translate(-385.359 -136.82)">
            <path d="M2263.812 2947.987h1850.787a24.49 24.49 0 0 0 24.544-24.544V166.508a24.49 24.49 0 0 0-24.544-24.544H2264.875m-.405 2806.023H413.682a24.49 24.49 0 0 1-24.544-24.544V166.508a24.49 24.49 0 0 1 24.544-24.544h1849.724" stroke-width="16"/>
            <path d="M2263.78 1171.592h1703.871c13.597 0 24.544-11.429 24.544-25.625V143.477M2264.5 1171.592H560.63c-13.597 0-24.544-11.429-24.544-25.625V142.252" stroke-width="16"/>
            <path d="M2264.207 2637.327h1662.008c17.558 0 31.694-14.136 31.694-31.694v-1028c0-17.558-14.136-31.693-31.694-31.693h-1662.78m.639 1091.387H602.066c-17.558 0-31.693-14.136-31.693-31.694v-1028c0-17.558 14.135-31.693 31.693-31.693h1662.78" stroke-width="8"/>
            <path d="M864.335 730.507h1633.179v138.537H864.335zm2754.983-589.905-2754.982 1.214V855.14a13.875 13.875 0 0 0 13.904 13.906h2727.174c1.65 0 3.179-.411 4.645-.934h334.515V727.668h-325.256z" stroke-width="16"/>
            <rect height="588.543" rx="13.904" stroke-width="16" width="1121.805" x="2497.514" y="141.964"/>
            <g stroke-width="8">
                <rect height="117.632" rx="13.904" ry="13.904" width="633.057" x="2718.819" y="346.914"/>
                <path d="M866.143 279.432h2753.176v244.835H866.143zM2821.996 625.088l454.8-.433M2821.996 590.587l454.8.557-53.24-28.866"/>
                <rect height="51.13" rx="9.125" width="191.401" x="1657.409" y="1458.469"/>
                <rect height="51.13" rx="9.125" width="191.401" x="1427.409" y="1458.469"/>
                <rect height="51.13" rx="9.125" width="191.401" x="1197.409" y="1458.469"/>
                <rect height="51.13" rx="9.125" width="191.401" x="967.409" y="1458.469"/>
                <rect height="51.13" rx="9.125" width="191.401" x="737.409" y="1458.469"/>
            </g>
            <g stroke-width="16">
                <rect height="81.062" rx="9.125" width="155.63" x="2591.685" y="1418.311"/>
                <rect height="81.062" rx="9.125" width="155.63" x="3075.685" y="1418.311"/>
                <rect height="81.062" rx="9.125" width="273.102" x="2774.948" y="1418.311"/>
                <rect height="81.062" rx="9.125" width="155.63" x="3393.685" y="1418.311"/>
            </g>
            <rect height="107.626" rx="9.125" stroke-width="8" width="240.811" x="644.983" y="2694.312"/>
            <rect height="62.837" rx="9.125" stroke-width="8" width="145.609" x="3691.827" y="765.755"/>
            <rect height="24" opacity=".98" rx="2.793" stroke-width="8" width="24" x="3871.402" y="782.934"/>
        </g>
        <g stroke-width="16">
            <rect height="118.7" opacity=".98" rx="14.432" ry="14.432" width="1294.7" x="951.097" y="2306.303"/>
            <rect height="118.7" opacity=".98" rx="14.432" width="118.7" x="2295.097" y="2306.303"/>
            <rect height="118.7" opacity=".98" rx="14.432" width="118.7" x="783.097" y="2306.303"/>
            <rect height="118.7" opacity=".98" rx="14.432" width="118.7" x="615.097" y="2306.303"/>
            <rect height="118.7" opacity=".98" rx="14.432" width="118.7" x="1959.097" y="2138.303"/>
            <rect height="118.7" opacity=".98" rx="14.432" width="118.7" x="1791.097" y="2138.303"/>
            <rect height="118.7" opacity=".98" rx="14.432" width="118.7" x="1623.097" y="2138.303"/>
            <rect height="118.7" opacity=".98" rx="14.432" width="118.7" x="1455.097" y="2138.303"/>
            <rect height="118.7" opacity=".98" rx="14.432" width="118.7" x="1287.097" y="2138.303"/>
            <rect height="118.7" opacity=".98" rx="14.432" width="118.7" x="1119.097" y="2138.303"/>
            <rect height="118.7" opacity=".98" rx="14.432" width="118.7" x="951.097" y="2138.303"/>
            <rect height="118.7" opacity=".98" rx="14.432" width="118.7" x="783.097" y="2138.303"/>
            <rect height="118.7" opacity=".98" rx="14.432" width="118.7" x="615.097" y="2138.303"/>
            <rect height="118.7" opacity=".98" rx="14.432" width="322.7" x="243.097" y="2138.303"/>
            <rect height="118.7" opacity=".98" rx="14.432" width="322.7" x="2463.097" y="2138.303"/>
            <rect height="118.7" opacity=".98" rx="14.432" width="118.7" x="2295.097" y="2138.303"/>
            <rect height="118.7" opacity=".98" rx="14.432" width="118.7" x="2127.097" y="2138.303"/>
            <g transform="translate(-281.359 -304.82)">
                <rect height="118.7" opacity=".98" rx="14.432" width="118.7" x="2330.456" y="2275.124"/>
                <rect height="118.7" opacity=".98" rx="14.432" width="118.7" x="2162.456" y="2275.124"/>
                <rect height="118.7" opacity=".98" rx="14.432" width="118.7" x="1994.456" y="2275.124"/>
                <rect height="118.7" opacity=".98" rx="14.432" width="118.7" x="1826.456" y="2275.124"/>
                <rect height="118.7" opacity=".98" rx="14.432" width="118.7" x="1658.456" y="2275.124"/>
                <rect height="118.7" opacity=".98" rx="14.432" width="118.7" x="1490.456" y="2275.124"/>
                <rect height="118.7" opacity=".98" rx="14.432" width="118.7" x="1322.456" y="2275.124"/>
                <rect height="118.7" opacity=".98" rx="14.432" width="118.7" x="1154.456" y="2275.124"/>
                <rect height="118.7" opacity=".98" rx="14.432" width="118.7" x="986.456" y="2275.124"/>
                <rect height="118.7" opacity=".98" rx="14.432" width="118.7" x="818.456" y="2275.124"/>
                <path d="M3067.156 2379.392a14.4 14.4 0 0 1-14.432 14.432h-203.836a14.4 14.4 0 0 1-14.432-14.432v-89.836a14.4 14.4 0 0 1 14.432-14.432h111.362l.206-3.732v-149.836a14.4 14.4 0 0 1 14.432-14.432h77.836a14.4 14.4 0 0 1 14.432 14.432v168z" opacity=".98"/>
                <rect height="118.7" opacity=".98" rx="14.432" width="118.7" x="2666.456" y="2275.124"/>
                <rect height="118.7" opacity=".98" rx="14.432" width="118.7" x="2498.456" y="2275.124"/>
                <rect height="118.7" opacity=".98" rx="14.432" width="244.7" x="524.456" y="2275.124"/>
            </g>
            <rect height="118.7" opacity=".98" rx="14.432" width="118.7" x="2007.097" y="1802.303"/>
            <rect height="118.7" opacity=".98" rx="14.432" width="118.7" x="1839.097" y="1802.303"/>
            <rect height="118.7" opacity=".98" rx="14.432" width="118.7" x="1671.097" y="1802.303"/>
            <rect height="118.7" opacity=".98" rx="14.432" width="118.7" x="1503.097" y="1802.303"/>
            <rect height="118.7" opacity=".98" rx="14.432" width="118.7" x="1335.097" y="1802.303"/>
            <rect height="118.7" opacity=".98" rx="14.432" width="118.7" x="1167.097" y="1802.303"/>
            <rect height="118.7" opacity=".98" rx="14.432" width="118.7" x="999.097" y="1802.303"/>
            <rect height="118.7" opacity=".98" rx="14.432" width="118.7" x="831.097" y="1802.303"/>
            <rect height="118.7" opacity=".98" rx="14.432" width="118.7" x="663.097" y="1802.303"/>
            <rect height="118.7" opacity=".98" rx="14.432" width="118.7" x="495.097" y="1802.303"/>
            <rect height="118.7" opacity=".98" rx="14.432" width="118.7" x="2511.097" y="1802.303"/>
            <rect height="118.7" opacity=".98" rx="14.432" width="118.7" x="2343.097" y="1802.303"/>
            <rect height="118.7" opacity=".98" rx="14.432" width="118.7" x="2175.097" y="1802.303"/>
            <rect height="118.7" opacity=".98" rx="14.432" ry="14.432" width="202.7" x="243.097" y="1802.303"/>
            <rect height="118.7" opacity=".98" rx="14.432" width="118.7" x="2895.097" y="2138.303"/>
            <rect height="118.7" opacity=".98" rx="14.432" width="118.7" x="3063.097" y="2138.303"/>
            <rect height="118.7" opacity=".98" rx="14.432" width="118.7" x="3231.097" y="2138.303"/>
            <rect height="118.7" opacity=".98" rx="14.432" width="118.7" x="3399.097" y="2138.303"/>
            <rect height="118.7" opacity=".98" rx="14.432" width="118.7" x="2895.097" y="2306.303"/>
            <rect height="118.7" opacity=".98" rx="14.432" width="118.7" x="3063.097" y="2306.303"/>
            <rect height="118.7" opacity=".98" rx="14.432" width="118.7" x="3231.097" y="2306.303"/>
            <rect height="118.7" opacity=".98" rx="14.432" width="118.7" x="3399.097" y="2306.303"/>
            <rect height="118.7" opacity=".98" rx="14.432" width="118.7" x="2895.097" y="1800.303"/>
            <rect height="118.7" opacity=".98" rx="14.432" width="118.7" x="3063.097" y="1800.303"/>
            <rect height="118.7" opacity=".98" rx="14.432" width="118.7" x="3231.097" y="1800.303"/>
            <rect height="118.7" opacity=".98" rx="14.432" width="118.7" x="3399.097" y="1800.303"/>
            <rect height="118.7" opacity=".98" rx="14.432" width="118.7" x="2895.097" y="1968.303"/>
            <rect height="118.7" opacity=".98" rx="14.432" width="118.7" x="3063.097" y="1968.303"/>
            <rect height="118.7" opacity=".98" rx="14.432" width="118.7" x="3231.097" y="1968.303"/>
            <rect height="118.7" opacity=".98" rx="14.432" width="118.7" x="3399.097" y="1968.303"/>
            <rect height="118.7" opacity=".98" rx="14.432" width="118.7" x="2895.097" y="1464.303"/>
            <rect height="118.7" opacity=".98" rx="14.432" width="118.7" x="3063.097" y="1464.303"/>
            <rect height="118.7" opacity=".98" rx="14.432" width="118.7" x="3231.097" y="1464.303"/>
            <rect height="118.7" opacity=".98" rx="14.432" width="118.7" x="3399.097" y="1464.303"/>
            <rect height="118.7" opacity=".98" rx="14.432" width="118.7" x="2895.097" y="1632.303"/>
            <rect height="118.7" opacity=".98" rx="14.432" width="118.7" x="3063.097" y="1632.303"/>
            <rect height="118.7" opacity=".98" rx="14.432" width="118.7" x="3231.097" y="1632.303"/>
            <rect height="118.7" opacity=".98" rx="14.432" width="118.7" x="3399.097" y="1632.303"/>
            <rect height="118.7" opacity=".98" rx="14.432" width="118.7" x="1923.097" y="1634.303"/>
            <rect height="118.7" opacity=".98" rx="14.432" width="118.7" x="1755.097" y="1634.303"/>
            <rect height="118.7" opacity=".98" rx="14.432" width="118.7" x="1587.097" y="1634.303"/>
            <rect height="118.7" opacity=".98" rx="14.432" width="118.7" x="1419.097" y="1634.303"/>
            <rect height="118.7" opacity=".98" rx="14.432" width="118.7" x="1251.097" y="1634.303"/>
            <rect height="118.7" opacity=".98" rx="14.432" width="118.7" x="1083.097" y="1634.303"/>
            <rect height="118.7" opacity=".98" rx="14.432" width="118.7" x="915.097" y="1634.303"/>
            <rect height="118.7" opacity=".98" rx="14.432" width="118.7" x="747.097" y="1634.303"/>
            <rect height="118.7" opacity=".98" rx="14.432" width="118.7" x="579.097" y="1634.303"/>
            <rect height="118.7" opacity=".98" rx="14.432" width="118.7" x="411.097" y="1634.303"/>
            <rect height="118.7" opacity=".98" rx="14.432" width="118.7" x="2427.097" y="1634.303"/>
            <rect height="118.7" opacity=".98" rx="14.432" width="118.7" x="2259.097" y="1634.303"/>
            <rect height="118.7" opacity=".98" rx="14.432" width="118.7" x="2091.097" y="1634.303"/>
            <rect height="118.7" opacity=".98" rx="14.432" width="118.7" x="243.097" y="1634.303"/>
            <rect height="118.7" opacity=".98" rx="14.432" width="190.7" x="2595.097" y="1634.303"/>
            <rect height="118.7" opacity=".98" rx="14.432" ry="14.432" width="226.789" x="517.097" y="1466.303"/>
            <rect height="118.7" opacity=".98" rx="14.432" ry="14.432" width="226.789" x="243.097" y="1466.303"/>
            <rect height="118.7" opacity=".98" rx="14.432" ry="14.432" width="226.789" x="1067.097" y="1466.303"/>
            <rect height="118.7" opacity=".98" rx="14.432" ry="14.432" width="226.789" x="793.097" y="1466.303"/>
            <rect height="118.7" opacity=".98" rx="14.432" ry="14.432" width="226.789" x="1343.097" y="1466.303"/>
        </g>
    </g>
</svg>
