<svg version="1.2" baseProfile="tiny" xmlns="http://www.w3.org/2000/svg" width="598.189" height="350.26" xml:space="preserve">
    <path fill="#F4F4F4" d="M35.325 4.909c-2.444 0-4.725-.055-6.587.65-.931.352-1.752.943-2.318 1.81s-.848 1.962-.848 3.308v325.047c0 1.345.277 2.418.876 3.224.599.805 1.471 1.274 2.403 1.499 1.865.447 4.084.169 6.475.169h526.988c2.391 0 4.609.278 6.475-.169.934-.225 1.806-.694 2.404-1.499.448-.604.658-1.412.763-2.318h.113V10.677c0-1.346-.254-2.441-.82-3.308s-1.415-1.457-2.347-1.81c-1.863-.701-4.144-.646-6.587-.646H35.327l-.002-.004zm0 1.809h526.988c2.447 0 4.595.029 5.938.537.672.253 1.141.597 1.471 1.103.335.504.543 1.217.543 2.318V335.723c0 1.101-.212 1.749-.509 2.149-.298.4-.716.631-1.386.791-1.341.322-3.549.142-6.051.142H35.331c-2.501 0-4.71.181-6.051-.142-.669-.163-1.087-.398-1.384-.796-.298-.398-.509-1.05-.509-2.154V10.677c0-1.101.208-1.814.537-2.318.33-.506.798-.85 1.471-1.103 1.343-.509 3.49-.537 5.937-.537h-.007z"/>
    <path fill="#F4F4F4" d="M52.318 96.32c-8.13 0-15.267 4.208-19.368 10.574l1.499.99c3.78-5.868 10.365-9.755 17.87-9.755h492.489c7.604 0 14.257 3.983 18.011 9.98l1.528-.958c-4.073-6.509-11.299-10.83-19.538-10.83H52.32l-.002-.001z"/>
    <path fill="#F4F4F4" d="M42.14 106.047a12.826 12.826 0 0 0-8.85 3.533l1.244 1.33c1.982-1.882 4.653-3.054 7.606-3.054h512.847c3.265 0 6.176 1.43 8.199 3.676l1.357-1.217c-2.353-2.611-5.77-4.27-9.557-4.27l-512.846.002zM50.114 133.308a3.117 3.117 0 0 0-3.11 3.11v17.926c0 1.712 1.398 3.139 3.11 3.139h28.783c1.711 0 3.139-1.427 3.139-3.139v-.905h-.028v-17.021a3.118 3.118 0 0 0-3.11-3.11H50.114zm0 1.809h28.783c.733 0 1.301.567 1.301 1.301V154.401c-.035.701-.591 1.272-1.301 1.272H50.114c-.734 0-1.301-.595-1.301-1.329v-17.926c0-.733.566-1.301 1.301-1.301zM97.898 133.308a3.117 3.117 0 0 0-3.11 3.11v17.926c0 1.712 1.398 3.139 3.11 3.139h28.783c1.712 0 3.11-1.427 3.11-3.139V136.418a3.118 3.118 0 0 0-3.11-3.11H97.898zm0 1.809h28.783c.734 0 1.301.567 1.301 1.301v17.926c0 .734-.568 1.329-1.301 1.329H97.898c-.733 0-1.301-.595-1.301-1.329v-17.926a1.284 1.284 0 0 1 1.301-1.301zM145.683 133.308a3.117 3.117 0 0 0-3.11 3.11v17.926c0 1.711 1.398 3.139 3.11 3.139h28.783c1.711 0 3.11-1.427 3.11-3.139v-17.926a3.118 3.118 0 0 0-3.11-3.11h-28.783zm0 1.809h28.783c.733 0 1.301.567 1.301 1.301v17.926c0 .734-.568 1.329-1.301 1.329h-28.783c-.734 0-1.301-.594-1.301-1.329v-17.926c0-.733.567-1.301 1.301-1.301zM193.465 133.308c-1.712 0-3.139 1.398-3.139 3.11v17.926c0 1.711 1.427 3.139 3.139 3.139h28.783c1.712 0 3.11-1.427 3.11-3.139v-17.926a3.118 3.118 0 0 0-3.11-3.11h-28.783zm0 1.809h28.783c.734 0 1.301.567 1.301 1.301v17.926c0 .735-.566 1.329-1.301 1.329h-28.783c-.735 0-1.33-.594-1.33-1.329v-17.926c0-.733.596-1.301 1.33-1.301zM241.256 133.308c-1.711 0-3.139 1.398-3.139 3.11v17.926c0 1.711 1.426 3.139 3.139 3.139h28.783c1.712 0 3.11-1.427 3.11-3.139v-17.926a3.117 3.117 0 0 0-3.11-3.11h-28.783zm0 1.809h28.783c.733 0 1.301.567 1.301 1.301v17.926c0 .734-.568 1.329-1.301 1.329h-28.783a1.328 1.328 0 0 1-1.329-1.329v-17.926c0-.733.596-1.301 1.329-1.301zM289.011 133.308a3.117 3.117 0 0 0-3.11 3.11v17.926c0 1.712 1.398 3.139 3.11 3.139h28.783c1.711 0 3.139-1.427 3.139-3.139v-17.926c0-1.711-1.426-3.11-3.139-3.11h-28.783zm0 1.809h28.783c.734 0 1.329.567 1.329 1.301v17.926a1.33 1.33 0 0 1-1.329 1.329h-28.783c-.733 0-1.301-.595-1.301-1.329v-17.926c0-.733.568-1.301 1.301-1.301zM336.793 133.308a3.117 3.117 0 0 0-3.11 3.11v17.926c0 1.711 1.398 3.139 3.11 3.139h28.783c1.712 0 3.139-1.427 3.139-3.139v-17.926c0-1.711-1.426-3.11-3.139-3.11h-28.783zm0 1.809h28.783c.734 0 1.329.567 1.329 1.301v17.926a1.33 1.33 0 0 1-1.329 1.329h-28.783c-.735 0-1.301-.594-1.301-1.329v-17.926c0-.733.567-1.301 1.301-1.301zM384.575 133.308a3.117 3.117 0 0 0-3.11 3.11v17.926c0 1.711 1.398 3.139 3.11 3.139h28.783c1.711 0 3.11-1.427 3.11-3.139v-17.926a3.117 3.117 0 0 0-3.11-3.11h-28.783zm0 1.809h28.783c.734 0 1.301.567 1.301 1.301v17.926c0 .734-.567 1.329-1.301 1.329h-28.783c-.734 0-1.301-.594-1.301-1.329v-17.926c0-.733.568-1.301 1.301-1.301zM432.357 133.308a3.117 3.117 0 0 0-3.11 3.11v17.926c0 1.711 1.397 3.139 3.11 3.139h28.782c1.713 0 3.11-1.427 3.11-3.139v-17.926a3.117 3.117 0 0 0-3.11-3.11h-28.782zm0 1.809h28.782c.735 0 1.301.567 1.301 1.301v17.926c0 .734-.566 1.329-1.301 1.329h-28.782c-.734 0-1.301-.594-1.301-1.329v-17.926a1.284 1.284 0 0 1 1.301-1.301zM480.148 133.308c-1.711 0-3.138 1.398-3.138 3.11v17.926c0 1.711 1.426 3.139 3.138 3.139h28.783c1.712 0 3.11-1.427 3.11-3.139v-17.926a3.118 3.118 0 0 0-3.11-3.11h-28.783zm0 1.809h28.783c.734 0 1.301.567 1.301 1.301v17.926c0 .734-.567 1.329-1.301 1.329h-28.783a1.329 1.329 0 0 1-1.329-1.329v-17.926c0-.733.596-1.301 1.329-1.301zM75.363 180.014a3.117 3.117 0 0 0-3.11 3.11v17.954a3.118 3.118 0 0 0 3.11 3.11h28.783a3.117 3.117 0 0 0 3.11-3.11v-17.954a3.116 3.116 0 0 0-3.11-3.11H75.363zm0 1.809h28.783c.734 0 1.3.567 1.3 1.301v17.954c0 .732-.566 1.301-1.3 1.301H75.363a1.284 1.284 0 0 1-1.301-1.301v-17.954c0-.735.568-1.301 1.301-1.301zM123.144 180.014c-1.712 0-3.139 1.397-3.139 3.11v17.954c0 1.711 1.426 3.11 3.139 3.11h28.783a3.118 3.118 0 0 0 3.11-3.11v-17.954a3.117 3.117 0 0 0-3.11-3.11h-28.783zm0 1.809h28.783c.734 0 1.301.566 1.301 1.301v17.954c0 .733-.566 1.301-1.301 1.301h-28.783c-.734 0-1.329-.569-1.329-1.301v-17.954c0-.735.595-1.301 1.329-1.301zM170.936 180.014c-1.712 0-3.139 1.397-3.139 3.11v17.954c0 1.711 1.426 3.11 3.139 3.11h28.783a3.117 3.117 0 0 0 3.11-3.11v-17.954a3.116 3.116 0 0 0-3.11-3.11h-28.783zm0 1.809h28.783c.734 0 1.301.567 1.301 1.301v17.954c0 .732-.566 1.301-1.301 1.301h-28.783c-.734 0-1.33-.569-1.33-1.301v-17.954c0-.735.596-1.301 1.33-1.301zM218.69 180.014a3.117 3.117 0 0 0-3.11 3.11v17.954a3.117 3.117 0 0 0 3.11 3.11h28.783c1.711 0 3.139-1.398 3.139-3.11v-17.954c0-1.712-1.426-3.11-3.139-3.11H218.69zm0 1.809h28.783c.734 0 1.329.566 1.329 1.301v17.954c0 .732-.596 1.301-1.329 1.301H218.69a1.283 1.283 0 0 1-1.301-1.301v-17.954a1.282 1.282 0 0 1 1.301-1.301zM266.473 180.014a3.117 3.117 0 0 0-3.11 3.11v17.954a3.117 3.117 0 0 0 3.11 3.11h28.783c1.712 0 3.139-1.399 3.139-3.11v-17.954c0-1.712-1.426-3.11-3.139-3.11h-28.783zm0 1.809h28.783c.734 0 1.329.566 1.329 1.301v17.954c0 .733-.595 1.301-1.329 1.301h-28.783a1.283 1.283 0 0 1-1.301-1.301v-17.954c0-.735.567-1.301 1.301-1.301zM314.255 180.014a3.117 3.117 0 0 0-3.111 3.11v17.954a3.118 3.118 0 0 0 3.111 3.11h28.783c1.711 0 3.139-1.398 3.139-3.11v-17.954c0-1.713-1.427-3.11-3.139-3.11h-28.783zm0 1.809h28.783c.732 0 1.329.567 1.329 1.301v17.954c0 .732-.598 1.301-1.329 1.301h-28.783a1.283 1.283 0 0 1-1.301-1.301v-17.954c0-.734.568-1.301 1.301-1.301zM362.046 180.014a3.117 3.117 0 0 0-3.11 3.11v17.954a3.117 3.117 0 0 0 3.11 3.11h28.783a3.117 3.117 0 0 0 3.11-3.11v-17.954a3.117 3.117 0 0 0-3.11-3.11h-28.783zm0 1.809h28.783c.733 0 1.301.566 1.301 1.301v17.954c0 .732-.568 1.301-1.301 1.301h-28.783a1.284 1.284 0 0 1-1.301-1.301v-17.954c0-.735.568-1.301 1.301-1.301zM409.828 180.014a3.117 3.117 0 0 0-3.11 3.11v17.954c0 1.71 1.396 3.11 3.11 3.11h28.783a3.117 3.117 0 0 0 3.11-3.11v-17.954a3.117 3.117 0 0 0-3.11-3.11h-28.783zm0 1.809h28.783c.734 0 1.301.567 1.301 1.301v17.954c0 .732-.568 1.301-1.301 1.301h-28.783a1.28 1.28 0 0 1-1.3-1.301v-17.954a1.28 1.28 0 0 1 1.3-1.301zM457.61 180.014c-1.712 0-3.139 1.396-3.139 3.11v17.954c0 1.711 1.426 3.11 3.139 3.11h28.783a3.116 3.116 0 0 0 3.109-3.11v-17.954a3.116 3.116 0 0 0-3.109-3.11H457.61zm0 1.809h28.783c.733 0 1.3.566 1.3 1.301v17.954c0 .732-.567 1.301-1.3 1.301H457.61c-.732 0-1.329-.569-1.329-1.301v-17.954c0-.734.598-1.301 1.329-1.301zM505.392 180.014c-1.711 0-3.138 1.397-3.138 3.11v17.954c0 1.711 1.426 3.11 3.138 3.11h28.784a3.118 3.118 0 0 0 3.11-3.11v-17.954a3.117 3.117 0 0 0-3.11-3.11h-28.784zm0 1.809h28.784c.733 0 1.301.566 1.301 1.301v17.954c0 .733-.567 1.301-1.301 1.301h-28.784c-.733 0-1.328-.569-1.328-1.301v-17.954c-.001-.735.595-1.301 1.328-1.301zM87.549 226.728c-1.712 0-3.138 1.427-3.138 3.139v17.926c0 1.711 1.426 3.11 3.138 3.11h28.784a3.118 3.118 0 0 0 3.11-3.11V229.867c0-1.711-1.398-3.139-3.11-3.139H87.549zm0 1.81h28.784c.733 0 1.3.595 1.3 1.328v17.926c0 .734-.567 1.301-1.3 1.301H87.549c-.733 0-1.329-.567-1.329-1.301v-17.926a1.33 1.33 0 0 1 1.329-1.328zM135.304 226.728c-1.712 0-3.11 1.427-3.11 3.139v17.926a3.118 3.118 0 0 0 3.11 3.11h28.784c1.712 0 3.138-1.399 3.138-3.11v-17.926c0-1.711-1.426-3.139-3.138-3.139h-28.784zm0 1.81h28.784a1.33 1.33 0 0 1 1.329 1.328v17.926c0 .735-.594 1.301-1.329 1.301h-28.784a1.28 1.28 0 0 1-1.3-1.301v-17.926c0-.734.566-1.328 1.3-1.328zM183.086 226.728c-1.711 0-3.11 1.427-3.11 3.139v17.926a3.118 3.118 0 0 0 3.11 3.11h28.784c1.712 0 3.138-1.398 3.138-3.11v-17.926c0-1.712-1.426-3.139-3.138-3.139h-28.784zm0 1.81h28.784a1.33 1.33 0 0 1 1.329 1.328v17.926c0 .734-.594 1.301-1.329 1.301h-28.784c-.733 0-1.3-.567-1.3-1.301v-17.926c0-.734.568-1.328 1.3-1.328zM230.878 226.728c-1.712 0-3.11 1.427-3.11 3.139v17.926a3.118 3.118 0 0 0 3.11 3.11h28.783c1.711 0 3.138-1.398 3.138-3.11v-17.926c0-1.712-1.426-3.139-3.138-3.139h-28.783zm0 1.81h28.783a1.33 1.33 0 0 1 1.329 1.328v17.926c0 .734-.595 1.301-1.329 1.301h-28.783a1.282 1.282 0 0 1-1.301-1.301v-17.926c0-.734.567-1.328 1.301-1.328zM278.66 226.728c-1.711 0-3.11 1.427-3.11 3.139v17.926a3.118 3.118 0 0 0 3.11 3.11h28.784a3.118 3.118 0 0 0 3.11-3.11v-17.926c0-1.711-1.398-3.139-3.11-3.139H278.66zm0 1.81h28.784c.733 0 1.301.595 1.301 1.328v17.926c0 .734-.567 1.301-1.301 1.301H278.66a1.28 1.28 0 0 1-1.3-1.301v-17.926c-.001-.734.567-1.328 1.3-1.328zM326.442 226.728c-1.713 0-3.11 1.427-3.11 3.139v17.926a3.117 3.117 0 0 0 3.11 3.11h28.783a3.118 3.118 0 0 0 3.11-3.11v-17.926c0-1.711-1.398-3.139-3.11-3.139h-28.783zm0 1.81h28.783c.734 0 1.301.595 1.301 1.328v17.926c0 .734-.567 1.301-1.301 1.301h-28.783a1.282 1.282 0 0 1-1.301-1.301v-17.926c.001-.734.568-1.328 1.301-1.328zM374.225 226.728c-1.712 0-3.139 1.427-3.139 3.139v17.926c0 1.711 1.426 3.11 3.139 3.11h28.782a3.117 3.117 0 0 0 3.11-3.11v-17.926c0-1.711-1.396-3.139-3.11-3.139h-28.782zm0 1.81h28.782c.734 0 1.301.595 1.301 1.328v17.926c0 .734-.566 1.301-1.301 1.301h-28.782c-.734 0-1.329-.567-1.329-1.301v-17.926c0-.734.595-1.328 1.329-1.328zM422.016 226.728c-1.712 0-3.139 1.427-3.139 3.139v17.926c0 1.711 1.426 3.11 3.139 3.11h28.783a3.118 3.118 0 0 0 3.11-3.11v-17.926c0-1.711-1.398-3.139-3.11-3.139h-28.783zm0 1.81h28.783c.734 0 1.301.595 1.301 1.328v17.926c0 .734-.567 1.301-1.301 1.301h-28.783c-.735 0-1.329-.567-1.329-1.301v-17.926c0-.734.594-1.328 1.329-1.328zM469.771 226.728c-1.712 0-3.109 1.427-3.109 3.139v17.926a3.116 3.116 0 0 0 3.109 3.11h28.783c1.712 0 3.139-1.399 3.139-3.11v-17.926c0-1.71-1.425-3.139-3.139-3.139h-28.783zm0 1.81h28.783c.735 0 1.329.594 1.329 1.328v17.926c0 .735-.595 1.301-1.329 1.301h-28.783a1.28 1.28 0 0 1-1.3-1.301v-17.926c0-.734.565-1.328 1.3-1.328zM110.084 273.46c-1.71 0-3.139 1.398-3.139 3.11v17.927c0 1.711 1.427 3.138 3.139 3.138h28.783c1.712 0 3.11-1.427 3.11-3.138V276.57a3.117 3.117 0 0 0-3.11-3.11h-28.783zm0 1.81h28.783a1.28 1.28 0 0 1 1.301 1.301v17.927c0 .733-.566 1.328-1.301 1.328h-28.783a1.33 1.33 0 0 1-1.329-1.328V276.57c0-.735.595-1.3 1.329-1.3zM50.735 273.46a3.118 3.118 0 0 0-3.11 3.11v17.927c0 1.711 1.398 3.138 3.11 3.138h37.209c1.711 0 3.11-1.426 3.11-3.138V276.57a3.118 3.118 0 0 0-3.11-3.11H50.735zm0 1.81h37.209a1.28 1.28 0 0 1 1.301 1.301v17.927c0 .733-.567 1.328-1.301 1.328H50.735c-.733 0-1.301-.596-1.301-1.328V276.57a1.28 1.28 0 0 1 1.301-1.3zM157.87 273.46c-1.71 0-3.138 1.398-3.138 3.11v17.927c0 1.71 1.426 3.138 3.138 3.138h28.784c1.711 0 3.11-1.426 3.11-3.138V276.57a3.117 3.117 0 0 0-3.11-3.11H157.87zm0 1.81h28.784c.733 0 1.3.566 1.3 1.301v17.927c0 .733-.567 1.328-1.3 1.328H157.87a1.33 1.33 0 0 1-1.329-1.328V276.57c0-.735.595-1.3 1.329-1.3zM205.625 273.46a3.118 3.118 0 0 0-3.11 3.11v17.927c0 1.711 1.398 3.138 3.11 3.138h28.783c1.712 0 3.139-1.426 3.139-3.138V276.57c0-1.712-1.427-3.11-3.139-3.11h-28.783zm0 1.81h28.783c.735 0 1.329.566 1.329 1.301v17.927c0 .733-.594 1.328-1.329 1.328h-28.783c-.733 0-1.301-.596-1.301-1.328V276.57c0-.735.567-1.3 1.301-1.3zM253.407 273.46a3.118 3.118 0 0 0-3.11 3.11v17.927c0 1.71 1.398 3.138 3.11 3.138h28.783c1.711 0 3.139-1.426 3.139-3.138V276.57c0-1.712-1.427-3.11-3.139-3.11h-28.783zm0 1.81h28.783c.733 0 1.329.566 1.329 1.301v17.927a1.33 1.33 0 0 1-1.329 1.328h-28.783c-.734 0-1.301-.596-1.301-1.328V276.57c0-.736.566-1.3 1.301-1.3zM301.189 273.46a3.117 3.117 0 0 0-3.11 3.11v17.927c0 1.71 1.398 3.138 3.11 3.138h28.783c1.712 0 3.11-1.427 3.11-3.138V276.57a3.117 3.117 0 0 0-3.11-3.11h-28.783zm0 1.81h28.783c.735 0 1.3.565 1.3 1.301v17.927c0 .733-.564 1.328-1.3 1.328h-28.783c-.735 0-1.301-.596-1.301-1.328V276.57a1.28 1.28 0 0 1 1.301-1.3zM348.98 273.46a3.118 3.118 0 0 0-3.11 3.11v17.927c0 1.71 1.398 3.138 3.11 3.138h28.783c1.712 0 3.11-1.426 3.11-3.138V276.57a3.117 3.117 0 0 0-3.11-3.11H348.98zm0 1.81h28.783a1.28 1.28 0 0 1 1.301 1.301v17.927c0 .733-.566 1.328-1.301 1.328H348.98c-.734 0-1.301-.596-1.301-1.328V276.57a1.28 1.28 0 0 1 1.301-1.3zM396.763 273.46a3.118 3.118 0 0 0-3.11 3.11v17.927c0 1.71 1.397 3.138 3.11 3.138h28.783c1.712 0 3.11-1.426 3.11-3.138V276.57a3.117 3.117 0 0 0-3.11-3.11h-28.783zm0 1.81h28.783a1.28 1.28 0 0 1 1.301 1.301v17.927c0 .733-.565 1.328-1.301 1.328h-28.783c-.736 0-1.301-.596-1.301-1.328V276.57c0-.736.565-1.3 1.301-1.3zM444.545 273.46c-1.711 0-3.139 1.398-3.139 3.11v17.927c0 1.71 1.426 3.138 3.139 3.138h28.783c1.711 0 3.11-1.426 3.11-3.138V276.57a3.117 3.117 0 0 0-3.11-3.11h-28.783zm0 1.81h28.783c.734 0 1.301.566 1.301 1.301v17.927c0 .733-.567 1.328-1.301 1.328h-28.783a1.33 1.33 0 0 1-1.329-1.328V276.57c0-.735.596-1.3 1.329-1.3zM493.458 273.46a3.118 3.118 0 0 0-3.11 3.11v17.927c0 1.71 1.398 3.138 3.11 3.138h49.623c1.711 0 3.109-1.426 3.109-3.138V276.57a3.117 3.117 0 0 0-3.109-3.11h-49.623zm0 1.81h49.623c.734 0 1.3.566 1.3 1.301v17.927c0 .733-.567 1.328-1.3 1.328h-49.623c-.734 0-1.301-.596-1.301-1.328V276.57c0-.735.567-1.3 1.301-1.3zM517.553 226.728c-1.712 0-3.11 1.427-3.11 3.139v17.926a3.118 3.118 0 0 0 3.11 3.11h28.783c1.712 0 3.139-1.398 3.139-3.11v-17.926c0-1.711-1.425-3.139-3.139-3.139h-28.783zm0 1.81h28.783c.735 0 1.329.595 1.329 1.328v17.926c0 .734-.594 1.301-1.329 1.301h-28.783a1.281 1.281 0 0 1-1.301-1.301v-17.926c0-.734.567-1.328 1.301-1.328z"/>
    <path fill="#F4F4F4" d="m507.094 296.424-14.618 34.156 1.668.706 14.59-34.155-1.64-.707zM527.025 249.8l-10.349 24.204 1.669.706 10.349-24.203-1.669-.707zM570.229 148.743l-33.533 78.406 1.669.707 33.532-78.406-1.668-.707zM514.269 296.506l-14.533 33.957 1.668.735 14.533-33.985-1.668-.707zM534.21 249.882l-10.292 24.09 1.64.707 10.323-24.095-1.664-.706-.007.004zM570.311 165.429l-26.465 61.893 1.668.706 26.466-61.893-1.669-.706zM521.543 296.397l-14.788 34.608 1.668.706 14.788-34.607-1.668-.707zM541.476 249.764l-10.35 24.231 1.669.706 10.35-24.23-1.669-.707zM570.148 182.728l-22.507 52.592 1.668.707 22.507-52.592-1.668-.707zM528.637 296.705l-14.59 34.184 1.668.707 14.59-34.185-1.665-.706h-.003zM570.456 198.878l-32.148 75.239 1.64.735 32.177-75.269-1.669-.705zM536.02 296.397l-14.621 34.183 1.664.733 14.622-34.211-1.668-.707.003.002zM570.43 215.897l-25.958 60.706 1.669.707 25.957-60.707-1.668-.706zM45.562 14.042V29.028h26.126v.311H45.448V36.012h35.57V21.675H53.336v-.17h28.021V14.04H46.466l-.904.002zm1.809 1.809h32.176v3.845h-28.02V23.485h27.681v10.716h-31.95v-3.054h26.239v-3.931H47.371V15.851zM81.696 13.815V36.01H90.377V13.816H81.696zm1.81 1.81h5.061v18.576h-5.061V15.625zM81.498 9.065v4.524H90.433V9.065H81.498zm1.81 1.81h5.316v.905h-5.316v-.905zM205.254 13.815v22.648H213.935V13.816H205.254zm1.809 1.81h5.062v19.029h-5.062V15.625zM205.028 9.065v4.524h8.963V9.065h-8.963zm1.809 1.81h5.344v.905h-5.344v-.905zM90.575 14.042V35.899H98.407V21.902h18.463v14.165h7.889V14.04h-33.28l-.904.002zm1.809 1.809h30.565v18.407h-4.27V20.093H96.598V34.089h-4.213V15.851h-.001zM125.442 13.759V36.18H161.181v-7.974h-26.353v-6.361h25.928v-8.087h-35.314v.001zm1.81 1.809h31.696v4.467H133.02V30.016h26.352v4.354h-32.12V15.568z"/>
    <path fill="#F4F4F4" d="M161.091 9.348V36.18h8.511V9.348h-8.511zm1.809 1.809h4.892V34.37H162.9V11.157z"/>
    <path fill="#F4F4F4" d="M169.578 13.759V20.998h27.285v1.301h-27.257v13.883H204.866V13.759H169.578zm1.81 1.809h31.668V34.37h-31.64V24.106h27.257v-4.92h-27.285v-3.618zM213.687 13.759V36.406h8.623V21.392h27.992V13.757h-35.711l-.904.002zm1.81 1.809h32.997v4.015h-27.992v15.014h-5.005V15.568z"/>
    <path fill="#F4F4F4" d="M176.645 26.284V32.137h21.969V26.284h-21.969zm1.809 1.81h18.35v2.234h-18.35v-2.234zM26.419 330.154v1.81h544.74v-1.81H26.419z"/>
</svg>
