<?xml version="1.0" encoding="UTF-8" standalone="no"?>
<svg
   version="1.0"
   width="923"
   height="592.5"
   viewBox="0 0 923 592.5"
   preserveAspectRatio="xMidYMid meet"
   id="svg146"
   sodipodi:docname="megadrivemsu.svg"
   inkscape:version="1.1.2 (0a00cf5339, 2022-02-04, custom)"
   xmlns:inkscape="http://www.inkscape.org/namespaces/inkscape"
   xmlns:sodipodi="http://sodipodi.sourceforge.net/DTD/sodipodi-0.dtd"
   xmlns="http://www.w3.org/2000/svg"
   xmlns:svg="http://www.w3.org/2000/svg">
  <defs
     id="defs150" />
  <sodipodi:namedview
     id="namedview148"
     pagecolor="#ffffff"
     bordercolor="#666666"
     borderopacity="1.0"
     inkscape:pageshadow="2"
     inkscape:pageopacity="0.0"
     inkscape:pagecheckerboard="0"
     showgrid="false"
     inkscape:zoom="0.9021097"
     inkscape:cx="465.02105"
     inkscape:cy="311.49205"
     inkscape:window-width="1920"
     inkscape:window-height="1017"
     inkscape:window-x="-8"
     inkscape:window-y="-8"
     inkscape:window-maximized="1"
     inkscape:current-layer="svg146" />
  <g
     fill="#ffffff"
     id="g140"
     transform="translate(-127,-48.6)">
    <path
       d="m 129.7,640.3 -0.7,-0.6 v -9.4 -9.3 h 6 6 v 9.4 9.4 l -1.6,0.6 c -2.1,0.8 -8.9,0.8 -9.7,-0.1 z"
       id="path2" />
    <path
       d="m 158.7,640.4 -0.7,-0.7 v -9.4 -9.3 h 6 6.1 l -0.3,9.8 -0.3,9.7 -5,0.3 -5.1,0.3 z"
       id="path4" />
    <path
       d="m 187.7,640.3 -0.7,-0.6 v -9.4 -9.3 h 6 6 v 9.4 9.4 l -1.6,0.6 c -2.1,0.8 -8.9,0.8 -9.7,-0.1 z"
       id="path6" />
    <path
       d="m 208.5,640.3 c -1.1,-0.3 -2.6,-1.2 -3.2,-2.1 l -1.3,-1.6 v -7.8 -7.8 h 6.5 6.5 v 1 1 h 15.6 15.5 l -0.3,3.8 -0.3,3.7 -15.5,0.5 -15.5,0.5 1.5,0.7 1.5,0.8 15.5,0.2 15.5,0.3 0.3,2.9 0.4,2.9 -1.4,0.8 -1.3,0.9 -19,-0.1 c -10.4,-0.1 -19.9,-0.3 -21,-0.6 z"
       id="path8" />
    <path
       d="m 255.7,640.4 -0.7,-0.7 v -9.4 -9.3 h 6 6.1 l -0.3,9.8 -0.3,9.7 -5,0.3 -5.1,0.3 z"
       id="path10" />
    <path
       d="m 270.7,640.3 c -0.4,-0.3 -0.7,-2.1 -0.7,-4 V 633 h 12 12 v -6 -6 h 6 6.1 l -0.3,8.7 -0.3,8.7 -2.5,1.3 -2.5,1.3 h -14.6 -14.6 z"
       id="path12" />
    <path
       d="M 313.7,640.3 313,639.7 V 625.3 611 h 6.5 6.5 v 14.4 14.4 l -1.6,0.6 c -0.9,0.3 -3.5,0.6 -5.8,0.6 h -4.3 z"
       id="path14" />
    <path
       d="m 336.3,640.3 -1.3,-0.5 v -9.4 -9.5 l 6.3,0.3 6.2,0.3 0.3,8.9 0.3,8.9 -1.3,0.9 -1.3,0.8 -4,-0.1 c -2.2,0 -4.6,-0.3 -5.2,-0.6 z"
       id="path16" />
    <path
       d="M 374.7,640.4 C 374.3,640 374,638.8 374,637.8 V 636 h -12 -12 v -4 -4 h 12 12 v -3.5 -3.5 h 6 6.1 l -0.3,9.8 -0.3,9.7 -5,0.3 -5.1,0.3 z"
       id="path18" />
    <path
       d="m 415,639.7 -2.5,-1.3 -0.3,-8.7 -0.3,-8.7 h 5.9 5.8 l 1,1 0.9,0.9 15,0.3 15,0.3 v 3.5 3.5 l -15.8,0.3 -15.8,0.3 0.6,0.9 0.6,1 h 16.5 16.4 v 3.4 3.4 l -1.6,0.6 -1.6,0.6 h -18.6 -18.7 z"
       id="path20" />
    <path
       d="m 465.4,639.7 c -0.3,-0.8 -0.4,-5.2 -0.2,-9.8 l 0.3,-8.4 6.3,-0.3 6.2,-0.3 v 9.4 9.5 l -1.6,0.6 c -0.9,0.3 -3.6,0.6 -6,0.6 h -4.5 z"
       id="path22" />
    <path
       d="m 505.3,640.3 -1.3,-0.5 v -9.4 -9.4 h 6.5 6.5 v 9.4 9.4 l -1.6,0.6 c -1.8,0.7 -8.3,0.7 -10.1,-0.1 z"
       id="path24" />
    <path
       d="m 524.7,640.4 -0.7,-0.7 v -9.4 -9.3 h 6 6.1 l -0.3,9.8 -0.3,9.7 -5,0.3 -5.1,0.3 z"
       id="path26" />
    <path
       d="m 563,638.5 -0.9,-2.4 -11.8,-0.3 -11.8,-0.3 -0.3,-3.7 -0.3,-3.7 12.3,-0.3 12.3,-0.3 0.3,-3.2 0.3,-3.3 h 6 5.9 v 9.4 9.4 l -1.6,0.6 c -0.9,0.3 -3.3,0.6 -5.5,0.6 H 564 Z"
       id="path28" />
    <path
       d="m 582.7,640.4 -0.7,-0.7 v -9.4 -9.3 h 6 6.1 l -0.3,9.8 -0.3,9.7 -5,0.3 -5.1,0.3 z"
       id="path30" />
    <path
       d="m 622.3,640.4 -1.3,-0.6 v -1.9 -1.9 h -12 -12 l -0.6,-2.5 -0.6,-2.5 0.5,-1.5 0.6,-1.4 11.8,-0.3 11.8,-0.3 0.3,-3.2 0.3,-3.3 h 6 6 l -0.3,9.8 -0.3,9.7 -4.5,0.2 c -2.5,0.1 -5.1,0 -5.7,-0.3 z"
       id="path32" />
    <path
       d="m 640.7,640.3 -0.7,-0.6 v -9.4 -9.3 h 6.5 6.5 v 9.4 9.4 l -1.6,0.6 c -0.9,0.3 -3.5,0.6 -5.8,0.6 h -4.3 z"
       id="path34" />
    <path
       d="m 679.7,640.4 -0.7,-0.7 v -9.4 -9.3 h 6 6.1 l -0.3,9.8 -0.3,9.7 -5,0.3 -5.1,0.3 z"
       id="path36" />
    <path
       d="m 702.1,639.7 -2.5,-1.2 -0.8,-3.3 -0.9,-3.4 0.3,-5.1 0.3,-5.2 6.2,-0.3 6.2,-0.3 0.3,5.8 0.3,5.8 19.3,0.3 19.2,0.2 v 3.4 3.4 l -1.6,0.6 -1.6,0.6 h -21.1 -21.2 z"
       id="path38" />
    <path
       d="m 760,639.7 -2.5,-1.3 -0.3,-8.7 -0.3,-8.7 h 5.9 5.8 l 1,1 0.9,0.9 15,0.3 15,0.3 v 3.5 3.5 l -15.8,0.3 -15.8,0.3 0.6,0.9 0.6,1 h 16.5 16.4 v 3.4 3.4 l -1.6,0.6 -1.6,0.6 h -18.6 -18.7 z"
       id="path40" />
    <path
       d="m 811.3,640.3 -1.3,-0.5 v -9.4 -9.4 h 6.5 6.5 v 9.4 9.4 l -1.6,0.6 c -1.8,0.7 -8.3,0.7 -10.1,-0.1 z"
       id="path42" />
    <path
       d="m 840.7,640.3 -0.7,-0.6 v -9.4 -9.3 h 6 6 v 9.4 9.4 l -1.6,0.6 c -2.1,0.8 -8.9,0.8 -9.7,-0.1 z"
       id="path44" />
    <path
       d="m 872.3,640.4 -1.3,-0.6 v -9.4 -9.4 h 6 6.1 l -0.3,9.8 -0.3,9.7 -4.5,0.2 c -2.5,0.1 -5.1,0 -5.7,-0.3 z"
       id="path46" />
    <path
       d="m 894,639.7 -2.5,-1.3 -0.3,-8.7 -0.3,-8.7 h 6 6 l 0.6,1 0.6,1 h 15 14.9 v 4 4 h -15.6 -15.5 l 0.6,1 0.6,1 h 16.5 16.4 v 3.4 3.4 l -1.6,0.6 -1.6,0.6 h -18.6 -18.7 z"
       id="path48" />
    <path
       d="m 945.3,640.3 -1.3,-0.5 v -9.4 -9.4 h 6.5 6.5 v 9.4 9.4 l -1.6,0.6 c -1.8,0.7 -8.3,0.7 -10.1,-0.1 z"
       id="path50" />
    <path
       d="m 984.3,640.4 -1.3,-0.6 v -9.4 -9.4 h 6 6.1 l -0.3,9.8 -0.3,9.7 -4.5,0.2 c -2.5,0.1 -5.1,0 -5.7,-0.3 z"
       id="path52" />
    <path
       d="m 1020.7,640.4 -0.7,-0.7 v -9.4 -9.3 h 6 6.1 l -0.3,9.8 -0.3,9.7 -5,0.3 -5.1,0.3 z"
       id="path54" />
    <path
       d="M 129,614.5 V 611 h 34 33.9 l 1.1,1.9 c 0.5,1.1 1,2.7 1,3.5 v 1.6 h -35 -35 z"
       id="path56" />
    <path
       d="M 204,614.5 V 611 h 23.5 23.5 v 3.5 3.5 H 227.5 204 Z"
       id="path58" />
    <path
       d="M 255,614.5 V 611 h 24.3 24.3 l 1.2,1.2 1.2,1.2 v 2.3 2.3 H 280.5 255 Z"
       id="path60" />
    <path
       d="m 335,616.7 c 0,-0.7 0.7,-2.3 1.6,-3.5 l 1.5,-2.2 h 22.8 22.7 l 1.2,1.2 1.2,1.2 v 2.3 2.3 H 360.5 335 Z"
       id="path62" />
    <path
       d="M 412,614.5 V 611 h 23 23 v 3.5 3.5 h -23 -23 z"
       id="path64" />
    <path
       d="m 465.4,616.6 c -0.3,-0.8 -0.4,-2.3 -0.2,-3.3 l 0.3,-1.8 24.1,-0.3 24.1,-0.2 1,1.2 c 0.6,0.7 1.4,2.3 1.7,3.6 l 0.7,2.2 h -25.6 -25.6 z"
       id="path66" />
    <path
       d="M 524,614.5 V 611 h 6 6 v 3.5 3.5 h -6 -6 z"
       id="path68" />
    <path
       d="M 563,614.5 V 611 h 6 6 v 3.5 3.5 h -6 -6 z"
       id="path70" />
    <path
       d="m 582,616.4 c 0,-0.8 0.5,-2.4 1,-3.5 l 1.1,-1.9 h 23.4 23.4 l 1.1,1.9 c 0.5,1.1 1,2.7 1,3.5 V 618 H 607.5 582 Z"
       id="path72" />
    <path
       d="M 640,614.5 V 611 h 24.3 24.3 l 1.2,1.2 1.2,1.2 v 2.3 2.3 H 665.5 640 Z"
       id="path74" />
    <path
       d="m 699,615.7 v -2.3 l 1.2,-1.2 1.2,-1.2 h 24.3 24.3 v 3.5 3.5 H 724.5 699 Z"
       id="path76" />
    <path
       d="M 757,614.5 V 611 h 23 23 v 3.5 3.5 h -23 -23 z"
       id="path78" />
    <path
       d="M 810,614.5 V 611 h 35.3 35.3 l 1.2,1.2 1.2,1.2 v 2.3 2.3 H 846.5 810 Z"
       id="path80" />
    <path
       d="M 891,614.5 V 611 h 23 23 v 3.5 3.5 h -23 -23 z"
       id="path82" />
    <path
       d="M 944,614.5 V 611 h 24.3 24.3 l 1.2,1.2 1.2,1.2 v 2.3 2.3 H 969.5 944 Z"
       id="path84" />
    <path
       d="M 1003,614.5 V 611 h 23 23 v 3.5 3.5 h -23 -23 z"
       id="path86" />
    <path
       d="m 128,465 v -51 h 30.5 30.5 l -0.2,50.8 -0.3,50.7 -30.2,0.3 -30.3,0.2 z"
       id="path88" />
    <path
       d="m 274.5,514.8 c -0.3,-0.7 -0.4,-23.6 -0.3,-50.8 l 0.3,-49.5 h 30.5 30.5 v 50.5 50.5 l -30.3,0.3 -30.3,0.2 z"
       id="path90" />
    <path
       d="M 421.7,515.3 421,514.7 V 464.3 414 h 30.5 30.5 l -0.2,50.8 -0.3,50.7 -29.6,0.3 -29.5,0.2 z"
       id="path92" />
    <path
       d="m 507.5,514.7 c -0.3,-0.7 -0.4,-9.4 -0.3,-19.2 l 0.3,-18 95.6,-0.5 95.6,-0.5 1.6,-1.4 1.7,-1.3 v -3 -2.9 l -3.5,-1.5 -3.4,-1.4 h -83.7 -83.7 l -4.1,-1.2 -4.1,-1.3 -3.6,-3.6 -3.7,-3.7 -2.2,-5.8 -2.3,-5.9 -0.5,-14.7 -0.4,-14.8 h 30.4 30.4 l 1.2,4.5 1.2,4.4 2.7,1.8 2.7,1.8 82.1,0.5 82,0.5 5.5,2.6 5.5,2.6 3.3,3.3 3.3,3.2 2.4,4.8 2.5,4.9 1.1,7.3 1.2,7.3 -0.6,14 -0.6,14 -1.5,5 -1.5,5 -3,4.7 -3,4.7 -4.3,2.3 -4.3,2.3 -118.8,0.3 L 508,516 Z"
       id="path94" />
    <path
       d="m 806.9,515.1 -3.6,-0.7 -3.6,-2.3 -3.7,-2.3 -2.5,-4.1 -2.4,-4.2 -1.5,-6 -1.6,-5.9 V 451.8 414 l 30.3,0.2 30.2,0.3 0.5,28 0.5,28 1.3,2.2 c 0.7,1.3 2.1,2.7 3.2,3.3 l 1.9,1 h 59.6 59.6 l 2.8,-1.5 2.9,-1.4 1.1,-3.2 1.1,-3.2 V 440.9 414 h 30.6 30.5 l -0.3,40.3 -0.3,40.2 -2.3,5.5 -2.2,5.6 -3.7,3.6 c -2.1,1.9 -4.9,4.2 -6.3,4.9 l -2.5,1.4 -108,0.1 -108,0.2 z"
       id="path96" />
    <path
       d="m 128,383 v -19 h 168 168.1 l 3.2,1.3 3.2,1.4 3.7,4.1 3.7,4.1 1.6,5.3 1.7,5.3 0.5,8.3 0.6,8.2 H 305.1 128 Z"
       id="path98" />
    <path
       d="m 507.3,393.8 0.5,-8.3 1.7,-5.2 1.8,-5.2 2.9,-3.6 3,-3.6 3.9,-1.9 3.8,-2 H 638 751 v 19 19 H 628.9 506.7 Z"
       id="path100" />
    <path
       d="m 788,383 v -19 h 30.5 30.5 l -0.2,18.8 -0.3,18.7 -30.2,0.3 -30.3,0.2 z"
       id="path102" />
    <path
       d="m 983,383 v -19 h 30.5 30.5 v 19 19 H 1013.5 983 Z"
       id="path104" />
    <path
       d="m 127,304.9 c 0,-0.6 5.9,-11.1 13.1,-23.2 7.3,-12.2 18,-30.3 23.9,-40.2 l 10.6,-18 3.5,-1.7 3.4,-1.8 h 15.3 15.2 v 5.8 5.9 l 0.6,0.6 0.7,0.6 2.7,-4.2 c 1.5,-2.3 3.7,-5.1 5,-6.2 l 2.2,-2 20.9,-0.3 20.9,-0.3 v 43 43.1 h -12 -12 v -33.1 -33.1 l -1.1,0.4 -1.2,0.4 -19.2,32.4 -19.3,32.5 -14.6,0.3 -14.6,0.3 v -0.9 c 0,-0.4 8.1,-14.5 18,-31.2 9.9,-16.7 18,-30.7 18,-31.2 V 242 h -6.3 -6.4 l -1.5,1.8 c -0.8,0.9 -9.5,15.3 -19.4,32 L 155.6,306 H 141.3 127 Z"
       id="path106" />
    <path
       d="m 281,274.5 v -31.6 l 6.2,-10.5 6.2,-10.5 1.8,-1 1.7,-0.9 31.8,0.2 31.8,0.3 0.3,9.3 0.3,9.2 h -23.4 -23.4 l -2,2.3 c -2.6,3 -6.3,9.5 -6.3,11.2 v 1.5 l 27.4,0.2 27.5,0.3 -5,8.8 -5.1,8.7 H 328.4 306 v 7.5 7.5 l 27.3,0.2 27.2,0.3 0.3,9.3 0.3,9.2 H 321 281 Z"
       id="path108" />
    <path
       d="m 372.1,303.4 -3.1,-2.6 v -26.7 -26.7 l 7.5,-12.7 7.5,-12.6 2,-1.1 1.9,-1 32.8,0.2 32.8,0.3 v 9 9 l -24.7,0.5 -24.7,0.5 -0.9,1 c -0.5,0.6 -3,4.6 -5.6,9 l -4.6,8 v 14.7 14.8 h 20.5 20.5 v -7 -7 h -9 -9 v -1.1 c 0,-0.6 2.3,-4.9 5.1,-9.5 l 5,-8.4 h 16 15.9 v 23.3 l -0.1,23.2 -1.2,1.6 c -0.7,0.9 -2.2,2.1 -3.4,2.7 l -2.2,1.2 h -38 -37.9 z"
       id="path110" />
    <path
       d="m 471,263 v -43 h 23.4 23.3 l 3.4,2.3 3.4,2.3 12.1,20.4 c 6.6,11.3 17.2,29 23.4,39.4 6.1,10.5 11.4,19.6 11.7,20.3 l 0.5,1.4 -14.8,-0.3 -14.8,-0.3 -4.4,-7.2 -4.3,-7.3 H 520 506.1 l -4.7,-8 c -2.6,-4.4 -5.1,-8 -5.6,-8 H 495 v 15.5 15.5 h -12 -12 z m 51,8.4 c 0,-1.3 -16.9,-29 -18.7,-30.6 l -2,-1.8 h -3.1 -3.2 v 15.8 15.9 l 0.7,0.6 0.6,0.7 h 12.9 12.8 z"
       id="path112" />
    <path
       d="m 611,263 v -43 h 34.3 34.4 l 4.2,2.3 4.3,2.2 5.2,8.5 c 2.8,4.7 7.5,12.6 10.4,17.5 l 5.2,9.1 v 3.8 3.7 l -10,16.9 -10.1,16.9 -3.2,2.3 -3.2,2.3 -35.7,0.3 -35.8,0.3 z m 62.8,13.3 6.2,-10.8 V 263 260.5 L 673.7,250 667.4,239.5 651.2,239.2 635,239 v 24 24 h 16.3 16.2 z"
       id="path114" />
    <path
       d="m 712,263 v -43.1 l 35.8,0.3 35.9,0.3 3.5,2.7 3.6,2.7 4.6,7.9 4.6,7.9 v 3.6 3.6 l -7.4,12.5 -7.4,12.5 8.9,15.1 c 4.9,8.3 8.9,15.5 8.9,16 v 1 h -14.4 -14.3 l -12.6,-21.2 -12.6,-21.3 6.5,-0.5 6.5,-0.5 5.1,-8.7 5,-8.7 -1.8,-3 -1.8,-3.1 H 752.3 736 v 33.5 33.5 h -12 -12 z"
       id="path116" />
    <path
       d="m 819,263 v -43 h 12 12 v 43 43 h -12 -12 z"
       id="path118" />
    <path
       d="m 866.7,281.1 -14.7,-24.8 0.2,-17.9 0.3,-17.9 h 12 12 l 0.5,14.2 0.5,14.1 11.5,19.6 c 6.3,10.7 11.8,19.6 12.1,19.6 0.3,0 5.7,-8.7 12,-19.2 l 11.4,-19.3 0.5,-14.5 0.5,-14.5 h 12 12 l 0.3,18.1 0.2,18.1 -12.6,21.4 c -7,11.8 -13.6,22.9 -14.7,24.7 l -1.9,3.2 h -19.7 -19.7 z"
       id="path120" />
    <path
       d="m 964,274.4 v -31.6 l 6.5,-10.8 6.5,-10.8 1.6,-0.6 1.6,-0.6 h 31.9 31.9 v 9.5 9.5 l -23.7,0.2 -23.8,0.3 -3.7,5.5 -3.7,5.5 -0.1,1.7 v 1.8 l 27.5,0.2 27.5,0.3 -5.1,8.8 -5.1,8.7 H 1011.4 989 v 7.5 7.5 l 27.3,0.2 27.2,0.3 0.3,9.3 0.3,9.2 H 1004 964 Z"
       id="path122" />
    <path
       d="m 401.2,158.8 0.3,-8.3 29,-0.5 29,-0.5 3.1,-1.7 c 1.7,-0.9 4.5,-3.3 6.1,-5.2 l 3.1,-3.4 1.2,-3.7 1.2,-3.7 -0.4,-4.8 -0.5,-4.8 -2.7,-4.6 -2.7,-4.5 -4.7,-2.8 -4.6,-2.8 -12.6,-0.5 -12.5,-0.5 -3,-1.7 c -3.6,-1.9 -5.7,-4.2 -7.9,-8.5 L 421,93.1 V 89 84.9 l 1.4,-3.2 1.3,-3.2 3.6,-3.2 3.7,-3.2 3.9,-1.1 3.9,-1 25.9,0.2 25.8,0.3 0.3,8.2 0.3,8.3 -26.3,0.2 -26.3,0.3 v 1.5 1.5 l 12.5,0.5 12.5,0.6 5.7,2.8 5.7,2.7 4.6,4.5 4.6,4.5 3.2,6.7 3.2,6.7 v 9.5 9.5 l -3.2,6.6 -3.3,6.6 -5,4.7 -5.1,4.7 -5.7,2.7 -5.7,2.7 -30.8,0.3 -30.8,0.3 z"
       id="path124" />
    <path
       d="m 520.2,165.1 -5.3,-1.8 -3.7,-3 -3.7,-2.9 -3.2,-4.8 -3.3,-4.8 -1,-3.9 -1.1,-3.9 0.3,-33.2 0.3,-33.3 2.5,-4.9 2.5,-4.8 5.2,-4.8 5.2,-4.8 4.7,-1.6 4.8,-1.6 h 31.3 31.4 l -0.3,7.8 -0.3,7.7 -30.5,0.5 -30.5,0.5 -2.8,1.9 c -1.5,1 -3.8,3.3 -5,5 l -2.2,3.1 -0.3,29.8 -0.3,29.8 2.1,4.4 2.1,4.3 2.7,1.9 2.7,1.8 31,0.5 31,0.5 v 8 8 l -30.5,0.2 -30.5,0.2 z"
       id="path126" />
    <path
       d="m 615.3,165.6 c -2.3,-0.8 -5.7,-2.3 -7.7,-3.5 l -3.5,-2.2 -4.1,-4.6 -4,-4.6 -2.1,-6.8 -2,-6.7 0.3,-30.8 0.3,-30.9 2.6,-5.6 2.7,-5.7 3.9,-3.9 4,-4 4.9,-2.4 4.9,-2.4 31.8,-0.3 31.7,-0.3 v 8.1 8 h -28.3 -28.3 l -4.4,2.3 -4.5,2.2 -2.2,4.5 -2.3,4.4 v 28.3 28.4 l 1.4,3.2 1.4,3.2 3.1,3 3.2,3 22,0.3 21.9,0.3 v -21.5 -21.5 l -14.7,-0.3 -14.8,-0.3 V 99 91.5 L 655.3,91.2 678,91 v 30.7 30.7 l 0.9,-0.9 c 0.4,-0.6 5.1,-13.8 10.4,-29.5 5.4,-15.7 12.1,-35.6 15.1,-44.3 l 5.3,-15.8 3,-3.7 3,-3.7 5.2,-2.9 5.3,-2.9 h 6.4 l 6.3,-0.1 5.8,3 5.7,2.9 3.1,4.1 3.1,4.1 17.2,50.9 c 9.5,28 17.2,51.5 17.2,52.2 v 1.2 l -32.2,-0.2 -32.3,-0.3 v -8 -8 L 747.7,150.2 768.9,150 755,108.7 741.1,67.5 738.9,65.8 736.8,64 h -3.2 -3.2 l -2.1,1.5 -2.1,1.5 -2.6,6.7 c -1.4,3.8 -9,25.8 -17,49 -8,23.3 -14.8,42.7 -15.1,43.3 l -0.6,1 -35.7,-0.1 h -35.7 z"
       id="path128" />
    <path
       d="m 696,165.7 c 0,-0.8 3.9,-12.6 8.6,-26.3 4.7,-13.7 11,-31.9 13.9,-40.4 2.9,-8.5 6.3,-18.4 7.5,-22 l 2.2,-6.5 2,-1.8 c 2.4,-2 3.8,-2.1 6.1,-0.4 l 1.7,1.2 13,38.4 c 7.1,21.1 13,38.5 13,38.7 0,0.2 -8.5,0.4 -19,0.4 h -19 v -5.7 l -0.1,-5.8 -1.3,2.5 c -0.7,1.4 -3.3,8.5 -5.7,15.8 l -4.3,13.2 h -9.3 -9.3 z m 41.3,-37.3 0.5,-0.6 -1.9,-5.6 c -1.1,-3.2 -2.2,-6.4 -2.5,-7.2 l -0.6,-1.5 -2.4,6.9 c -1.3,3.9 -2.4,7.4 -2.4,7.8 v 0.8 h 4.3 c 2.4,0 4.6,-0.3 5,-0.6 z"
       id="path130" />
    <path
       d="m 525.3,145.9 -4.1,-2 -1.6,-3.4 -1.6,-3.3 V 124.1 111 h 28.5 28.5 v 8 8 h -19.4 -19.5 l -0.5,0.9 -0.6,0.9 1.3,1.1 1.4,1.1 24.4,0.2 24.4,0.3 0.3,7.4 0.3,7.4 -1.3,0.8 -1.3,0.9 H 557 529.5 Z"
       id="path132" />
    <path
       d="m 401,139 v -8 l 26.2,-0.2 26.3,-0.3 0.3,-1.7 0.3,-1.8 h -9.8 -9.8 l -5.3,-1.4 -5.2,-1.4 -4.4,-2.6 -4.4,-2.5 -4.5,-5.1 -4.6,-5.1 -2.2,-5.7 -2.3,-5.7 v -9 l -0.1,-9 3.1,-6.5 3.1,-6.5 4.6,-4.7 4.7,-4.7 5.8,-2.8 5.7,-2.8 31.3,-0.3 31.2,-0.3 v 8 8 l -28.7,0.3 -28.8,0.3 -4.7,2.8 -4.7,2.8 -2.7,4.5 -2.7,4.6 -0.5,4.8 -0.4,4.8 1.2,3.7 1.2,3.7 3.1,3.4 3,3.5 4.1,2.1 4.1,2.1 11.5,0.4 11.5,0.4 2.7,1.1 2.8,1 3.4,3.9 3.5,3.8 0.7,3.6 0.6,3.6 -0.5,4.1 -0.5,4 -2.9,3.6 -2.9,3.5 -3.4,1.8 -3.5,1.9 H 429.3 401 Z"
       id="path134" />
    <path
       d="m 617.5,144.8 -2.7,-2.1 -1.4,-3.3 -1.4,-3.3 V 108.4 80.8 l 1.7,-3.5 1.7,-3.6 4.2,-1.9 4.3,-1.8 27.3,0.2 27.3,0.3 v 8 8 l -23.4,0.3 -23.4,0.2 -1.4,1.1 -1.3,1.1 v 18.8 18.8 l 0.6,1.6 0.6,1.6 h 5.9 5.9 v -1.4 -1.5 l -4.7,-0.3 -4.8,-0.3 -0.3,-7.7 -0.3,-7.7 2.3,-0.6 2.3,-0.6 10.5,0.3 10.5,0.3 0.3,18.3 0.2,18.2 h -18.8 -18.9 z"
       id="path136" />
    <path
       d="M 518.7,106.3 518,105.7 V 93 80.3 l 2.3,-3.4 2.2,-3.4 3.5,-1.7 3.5,-1.8 h 28.3 28.2 v 8.5 8.5 h -24.3 -24.3 l -1.2,1.2 c -0.7,0.7 -1.2,1.6 -1.2,2 V 91 h 20 20 v 8 8 h -27.8 -27.9 z"
       id="path138" />
  </g>
  <g
     fill="#ff0000"
     id="g144"
     transform="translate(-127,-48.6)">
    <path
       d="m 129.4,578.7 c -0.2,-0.7 -0.3,-6.7 -0.2,-13.3 l 0.3,-11.9 460.2,-0.3 L 1050,553 V 566.5 580 H 590 129.9 Z"
       id="path142" />
  </g>
</svg>
