<?xml version="1.0" standalone="no"?>
<!DOCTYPE svg PUBLIC "-//W3C//DTD SVG 20010904//EN"
 "http://www.w3.org/TR/2001/REC-SVG-20010904/DTD/svg10.dtd">
<svg version="1.0" xmlns="http://www.w3.org/2000/svg"
 width="3047.000000pt" height="1000.000000pt" viewBox="0 0 3047.000000 1000.000000"
 preserveAspectRatio="xMidYMid meet">

<g transform="translate(0.000000,1000.000000) scale(0.100000,-0.100000)"
fill="#000000" stroke="none">
<path d="M1922 7023 l3 -278 313 -3 312 -2 -2 -278 -3 -277 -310 -5 -310 -5
-3 -307 -2 -308 -275 0 -275 0 -2 588 -3 587 -312 3 -313 2 0 -1150 0 -1150
280 0 280 0 0 -310 0 -310 308 -2 307 -3 3 -267 2 -268 -275 0 -275 0 0 -290
0 -290 275 0 275 0 0 228 c0 125 3 251 6 280 l7 52 308 0 309 0 2 277 3 278
1525 0 1525 0 3 -277 2 -278 309 0 308 0 7 -52 c3 -29 6 -155 6 -280 l0 -228
275 0 275 0 0 290 0 290 -275 0 -275 0 2 268 3 267 308 3 307 2 0 310 0 310
280 0 280 0 0 1150 0 1150 -312 -2 -313 -3 -3 -587 -2 -588 -275 0 -275 0 -2
308 -3 307 -310 5 -310 5 -3 277 -2 278 312 2 313 3 3 278 2 277 -315 0 -315
0 0 -280 0 -280 -312 -2 -313 -3 -3 -277 -2 -278 -900 0 -900 0 -2 278 -3 277
-312 3 -313 2 0 280 0 280 -315 0 -315 0 2 -277z m1253 -2093 l0 -275 -312 -3
-313 -2 0 280 0 280 313 -2 312 -3 0 -275z m2435 0 l0 -280 -312 2 -313 3 -3
265 c-1 146 0 270 3 277 3 10 74 13 315 13 l310 0 0 -280z"/>
<path d="M14023 6400 c-267 -57 -317 -398 -75 -517 51 -25 67 -28 162 -28 88
0 113 4 155 23 60 28 110 73 137 127 27 51 35 150 17 212 -17 64 -95 143 -164
167 -59 21 -174 29 -232 16z"/>
<path d="M27320 5899 l0 -341 -37 30 c-163 128 -423 155 -653 68 -111 -41
-184 -91 -270 -183 -151 -162 -220 -396 -190 -648 33 -283 182 -496 424 -605
99 -45 185 -62 316 -61 172 0 287 37 384 122 l46 41 0 -71 0 -71 255 0 255 0
-2 1028 -3 1027 -262 3 -263 2 0 -341z m-222 -622 c113 -30 191 -118 218 -248
57 -273 -124 -497 -364 -449 -154 32 -240 143 -250 326 -4 75 -1 105 16 161
51 167 209 254 380 210z"/>
<path d="M8770 5150 l0 -970 275 0 275 0 2 253 3 252 275 6 c307 7 375 18 517
84 159 73 265 172 334 310 49 99 69 190 69 318 1 391 -255 654 -690 707 -48 5
-297 10 -572 10 l-488 0 0 -970z m1017 515 c116 -39 177 -128 178 -255 0 -91
-16 -140 -63 -192 -73 -81 -143 -98 -397 -98 l-185 0 0 278 c0 153 3 282 8
286 4 5 97 6 207 3 157 -3 211 -8 252 -22z"/>
<path d="M19700 5268 c-206 -468 -398 -905 -427 -970 l-52 -118 282 2 281 3
75 188 75 187 410 -2 411 -3 75 -187 75 -188 286 0 287 0 -148 333 c-81 182
-274 619 -430 970 l-282 637 -272 0 -271 -1 -375 -851z m770 -3 c62 -154 114
-286 117 -292 4 -10 -48 -13 -241 -13 -135 0 -246 4 -246 9 0 4 50 131 111
282 61 151 115 285 121 299 12 33 5 48 138 -285z"/>
<path d="M18250 5825 l0 -195 -110 0 -110 0 0 -200 0 -200 109 0 109 0 4 -327
c4 -304 6 -333 26 -394 57 -171 179 -280 370 -330 97 -25 293 -28 398 -6 84
18 174 55 174 71 0 6 -28 90 -62 187 l-62 176 -45 -20 c-61 -27 -155 -28 -198
-3 -17 11 -41 36 -52 56 -20 36 -21 52 -21 314 l0 276 170 0 170 0 0 200 0
200 -170 0 -170 0 0 195 0 195 -265 0 -265 0 0 -195z"/>
<path d="M11652 5699 c-126 -16 -255 -73 -333 -146 l-49 -46 0 87 0 86 -250 0
-250 0 0 -750 0 -750 265 0 264 0 3 413 c3 406 3 413 26 462 31 68 83 118 156
151 54 25 75 29 176 31 l115 3 0 232 0 233 -30 1 c-16 1 -59 -2 -93 -7z"/>
<path d="M12596 5699 c-113 -15 -185 -37 -293 -90 -241 -119 -388 -331 -413
-596 -37 -414 218 -751 635 -838 94 -19 290 -22 385 -5 270 47 483 197 590
415 53 106 70 178 77 311 12 240 -69 445 -236 595 -186 168 -459 244 -745 208z
m281 -444 c97 -48 157 -147 169 -283 15 -158 -57 -312 -170 -366 -141 -67
-309 -25 -394 99 -49 72 -65 141 -60 255 5 104 32 176 86 233 91 96 246 122
369 62z"/>
<path d="M15325 5700 c-268 -38 -485 -175 -603 -381 -101 -177 -124 -435 -56
-637 66 -199 238 -375 444 -456 192 -75 451 -91 666 -41 103 23 243 95 311
159 l58 55 -55 58 c-127 134 -215 223 -222 223 -4 0 -32 -18 -64 -40 -88 -61
-139 -75 -284 -75 -114 0 -130 2 -180 26 -31 14 -73 41 -94 59 -34 30 -86 114
-86 140 0 7 177 10 546 10 l546 0 -4 158 c-4 132 -9 169 -30 234 -102 310
-367 497 -727 512 -58 3 -133 1 -166 -4z m249 -390 c30 -12 73 -39 96 -61 38
-37 90 -127 90 -156 0 -10 -68 -13 -305 -13 -237 0 -305 3 -305 13 0 22 46
111 75 145 27 32 84 67 135 83 51 15 158 10 214 -11z"/>
<path d="M17121 5699 c-286 -35 -525 -188 -640 -409 -49 -94 -71 -168 -81
-277 -37 -415 220 -750 645 -838 102 -21 303 -22 407 -1 213 41 390 163 477
326 17 32 31 60 31 64 0 5 -373 198 -396 204 -6 2 -22 -14 -36 -35 -70 -106
-160 -157 -278 -157 -131 0 -226 58 -282 172 -32 64 -33 71 -33 187 0 104 3
126 23 166 51 104 125 160 241 181 111 21 242 -30 304 -119 18 -25 37 -52 43
-60 9 -13 38 -1 200 81 104 53 195 100 203 105 24 15 -44 126 -129 211 -128
128 -298 195 -520 204 -58 3 -138 1 -179 -5z"/>
<path d="M22492 5699 c-126 -16 -255 -73 -333 -146 l-49 -46 0 87 0 86 -250 0
-250 0 0 -750 0 -750 265 0 264 0 3 413 c3 406 3 413 26 462 31 68 83 118 156
151 54 25 75 29 176 31 l115 3 0 232 0 233 -30 1 c-16 1 -59 -2 -93 -7z"/>
<path d="M23451 5699 c-286 -35 -525 -188 -640 -409 -49 -94 -71 -168 -81
-277 -37 -415 220 -750 645 -838 102 -21 303 -22 407 -1 213 41 390 163 477
326 17 32 31 60 31 64 0 5 -373 198 -396 204 -6 2 -22 -14 -36 -35 -70 -106
-160 -157 -278 -157 -131 0 -226 58 -282 172 -32 64 -33 71 -33 187 0 104 3
126 23 166 51 104 125 160 241 181 111 21 242 -30 304 -119 18 -25 37 -52 43
-60 9 -13 38 -1 200 81 104 53 195 100 203 105 24 15 -44 126 -129 211 -128
128 -298 195 -520 204 -58 3 -138 1 -179 -5z"/>
<path d="M24971 5698 c-132 -15 -303 -62 -407 -113 -52 -25 -94 -50 -94 -55 0
-12 168 -350 174 -350 3 0 26 13 53 30 26 16 84 42 128 57 72 25 93 28 220 28
123 0 146 -3 188 -22 62 -29 104 -76 122 -137 8 -27 15 -53 15 -58 0 -4 -75
-8 -167 -8 -295 0 -435 -21 -570 -85 -127 -60 -203 -161 -225 -301 -36 -236
112 -443 367 -509 74 -19 258 -22 340 -5 99 20 177 63 239 132 l56 61 0 -91 0
-92 246 0 246 0 -4 493 c-4 466 -6 496 -26 570 -12 43 -38 109 -58 148 -123
234 -444 351 -843 307z m399 -976 c0 -58 -4 -75 -29 -114 -50 -78 -128 -118
-233 -118 -135 0 -217 82 -188 188 23 89 81 111 293 112 l157 0 0 -68z"/>
<path d="M28785 5700 c-268 -38 -485 -175 -603 -381 -101 -177 -124 -435 -56
-637 66 -199 238 -375 444 -456 192 -75 451 -91 666 -41 103 23 243 95 311
159 l58 55 -55 58 c-127 134 -215 223 -222 223 -4 0 -32 -18 -64 -40 -88 -61
-139 -75 -284 -75 -114 0 -130 2 -180 26 -31 14 -73 41 -94 59 -34 30 -86 114
-86 140 0 7 177 10 546 10 l546 0 -4 158 c-4 132 -9 169 -30 234 -102 310
-367 497 -727 512 -58 3 -133 1 -166 -4z m249 -390 c30 -12 73 -39 96 -61 38
-37 90 -127 90 -156 0 -10 -68 -13 -305 -13 -237 0 -305 3 -305 13 0 22 46
111 75 145 27 32 84 67 135 83 51 15 158 10 214 -11z"/>
<path d="M13850 4918 c0 -731 -1 -765 -20 -805 -29 -65 -69 -85 -160 -80 -42
2 -89 11 -106 20 l-32 16 -62 -177 c-35 -97 -65 -182 -67 -189 -3 -6 19 -20
50 -31 200 -75 467 -69 637 16 71 35 177 141 217 217 69 133 67 94 70 978 l4
797 -266 0 -265 0 0 -762z"/>
</g>
</svg>
