<svg id="Layer_1" data-name="Layer 1" xmlns="http://www.w3.org/2000/svg" viewBox="0 0 1512.65 419.33"><g id="g236"><path d="M1705,406.34H1553.56v-22.5h71.25a15.74,15.74,0,0,0,15.75-15.75V148.34a15.74,15.74,0,0,0-15.75-15.75h-217.5a15.76,15.76,0,0,0-15.75,15.75V368.09a15.76,15.76,0,0,0,15.75,15.75h68.26v22.5h-151.5a43.65,43.65,0,0,1-9.09-.59,10,10,0,0,1-4.46-2.2c-.31-.33-1-1-1.71-1.82-8.44-9.11-35.24-39.45-59.66-67.23-8.49-9.66-16.72-19-23.84-27.16h84.51a15.76,15.76,0,0,0,15.75-15.75V149.84a15.76,15.76,0,0,0-15.75-15.75h-163.5a15.76,15.76,0,0,0-15.75,15.75v255h-64.5V88.34h128.25a15.74,15.74,0,0,0,15.74-15.75V34.35a15.76,15.76,0,0,0-15.74-15.76H869.57a15.77,15.77,0,0,0-15.76,15.76V72.62a15.76,15.76,0,0,0,15.76,15.74h126V404.87H930.32V384.62a15.76,15.76,0,0,0-15.76-15.75h-114v-54h114a15.77,15.77,0,0,0,15.76-15.75V263.87a15.76,15.76,0,0,0-15.76-15.75H799.81V199.37H915.32a15.77,15.77,0,0,0,15.75-15.75v-36a15.76,15.76,0,0,0-15.75-15.75H746.57a15.76,15.76,0,0,0-15.76,15.75V404.87H646l-2.14-1.4c-.45-.63-1.08-1.52-1.77-2.57-5.06-7.52-14.91-23.58-26.5-42.94-17.42-29.12-39-66.07-56.26-95.72-6.18-10.62-11.8-20.31-16.47-28.37H653.57a15.74,15.74,0,0,0,15.74-15.75V36.62a15.74,15.74,0,0,0-15.74-15.75H472.82a15.77,15.77,0,0,0-15.75,15.66L454.91,405l-47,.28c-31.55.18-63.92.37-66.37.37a9.4,9.4,0,0,1-5.19-1.41,6.65,6.65,0,0,1-1.06-.81L220.2,264.32a15.75,15.75,0,0,0-24.27,20.09h0L311.25,423.72h0a35.59,35.59,0,0,0,8.32,7.12,41.09,41.09,0,0,0,22,6.27c5.44,0,129.05-.75,129.09-.75a15.79,15.79,0,0,0,15.66-15.66l2.15-368.34H637.84v150H515.59A15.74,15.74,0,0,0,502,226s27.77,48.22,56.4,97c14.32,24.41,28.85,49,40.29,67.8,5.72,9.42,10.65,17.4,14.48,23.32,1.91,3,3.54,5.41,5,7.41.72,1,1.38,1.91,2.15,2.85.39.47.81,1,1.39,1.57a17.7,17.7,0,0,0,3,2.5c3.28,2.13,5.26,3.73,9.27,5.6a25.88,25.88,0,0,0,6.56,1.92,37.21,37.21,0,0,0,5.66.37H746.59a15.74,15.74,0,0,0,15.75-15.75V163.36H899.59v4.5H784.09a15.77,15.77,0,0,0-15.75,15.76v80.25a15.76,15.76,0,0,0,15.75,15.75H898.84v3.74h-114a15.76,15.76,0,0,0-15.75,15.75v85.5a15.76,15.76,0,0,0,15.75,15.74h114v20.26a15.76,15.76,0,0,0,15.75,15.74h96.76a15.76,15.76,0,0,0,15.75-15.74v-348a15.76,15.76,0,0,0-15.75-15.75h-126V50.12h293.13v6.75H1050.23a15.74,15.74,0,0,0-15.75,15.75V420.68a15.74,15.74,0,0,0,15.75,15.74h96A15.76,15.76,0,0,0,1162,420.68v-255h132V275.93h-103.5a15.75,15.75,0,0,0-11.86,26.12s26.18,29.91,53,60.36c13.39,15.22,26.94,30.57,37.47,42.41,5.26,5.92,9.77,10.95,13.16,14.69,1.69,1.87,3.1,3.4,4.23,4.61.57.61,1.07,1.13,1.53,1.61s.82.85,1.79,1.69a42,42,0,0,0,18.17,9.13,71.83,71.83,0,0,0,16,1.37h167.25A15.74,15.74,0,0,0,1507,422.18v-54a15.74,15.74,0,0,0-15.75-15.75H1423V164.18h186V352.43h-71.25A15.74,15.74,0,0,0,1522,368.18v54a15.74,15.74,0,0,0,15.75,15.75H1705Z" transform="translate(-192.32 -18.59)" style="fill:#fff"/></g></svg>