<?xml version="1.0" encoding="utf-8"?>
<!-- Generator: Adobe Illustrator 15.0.2, SVG Export Plug-In . SVG Version: 6.00 Build 0)  -->
<!DOCTYPE svg PUBLIC "-//W3C//DTD SVG 1.1//EN" "http://www.w3.org/Graphics/SVG/1.1/DTD/svg11.dtd">
<svg version="1.1" id="Calque_1" xmlns="http://www.w3.org/2000/svg" xmlns:xlink="http://www.w3.org/1999/xlink" x="0px" y="0px"
	 width="96px" height="24px" viewBox="0 0 96 24" enable-background="new 0 0 96 24" xml:space="preserve">
<g id="normal">
	<g>
		<g enable-background="new    ">
			<g>
				<defs>
					<path id="SVGID_1_" d="M16.399,19.186c-0.188-0.233-0.423-0.524-0.852-0.824c-0.019-0.116-0.044-0.272-0.063-0.391
						C15.797,18.393,16.105,18.803,16.399,19.186z"/>
				</defs>
				<clipPath id="SVGID_2_">
					<use xlink:href="#SVGID_1_"  overflow="visible"/>
				</clipPath>
				<path clip-path="url(#SVGID_2_)" fill="#815D00" d="M16.399,19.186l-0.14-0.174l-0.138-0.152l-0.109-0.112l-0.153-0.142
					l-0.15-0.125l-0.15-0.11l-0.011-0.009l-0.063-0.391C15.797,18.393,16.105,18.803,16.399,19.186"/>
			</g>
		</g>
		<g enable-background="new    ">
			<g>
				<defs>
					<path id="SVGID_3_" d="M15.82,18.115c0.156,0.42,0.268,0.646,0.584,1.076c-0.295-0.385-0.605-0.795-0.919-1.219L15.82,18.115z"
						/>
				</defs>
				<clipPath id="SVGID_4_">
					<use xlink:href="#SVGID_3_"  overflow="visible"/>
				</clipPath>
				<path clip-path="url(#SVGID_4_)" fill="#815D00" d="M16.079,18.697l0.102,0.172l0.116,0.176l0.107,0.146
					c-0.295-0.385-0.605-0.795-0.919-1.219l0.335,0.144l0.068,0.184l0.082,0.187l0.097,0.191L16.079,18.697"/>
			</g>
		</g>
		<path fill="#FBC94B" d="M16.522,18.893l-0.837-5.224c0.051,0.011,0.102,0.021,0.15,0.031l0.852,5.315l-0.146-0.109L16.522,18.893"
			/>
		<g enable-background="new    ">
			<g>
				
					<linearGradient id="SVGID_5_" gradientUnits="userSpaceOnUse" x1="18.7515" y1="12.8428" x2="19.631" y2="12.1048" gradientTransform="matrix(1 0 0 -1 0.04 23.1543)">
					<stop  offset="0.369" style="stop-color:#FBC744"/>
					<stop  offset="0.7202" style="stop-color:#F9B200"/>
					<stop  offset="0.9464" style="stop-color:#E0A000"/>
					<stop  offset="1" style="stop-color:#A47500"/>
				</linearGradient>
				<path id="SVGID_149_" fill="url(#SVGID_5_)" d="M19.903,9.212c0.2-0.076,0.282-0.113,0.517-0.233
					c1.183-0.632,2.021-1.158,2.223-1.398L22.16,8.157c-0.522,0.623-1.044,1.245-1.566,1.868c-1.263,1.508-1.914,2.286-3.254,3.883
					c-0.045,0.053-0.705-0.04-1.654-0.239l3.596-4.29C19.479,9.339,19.666,9.302,19.903,9.212z"/>
			</g>
		</g>
		<g enable-background="new    ">
			<g>
				
					<linearGradient id="SVGID_6_" gradientUnits="userSpaceOnUse" x1="15.8618" y1="4.8599" x2="14.9536" y2="2.9077" gradientTransform="matrix(1 0 0 -1 0.04 23.1543)">
					<stop  offset="0" style="stop-color:#FABF2B"/>
					<stop  offset="0.75" style="stop-color:#E5A400"/>
					<stop  offset="1" style="stop-color:#815D00"/>
				</linearGradient>
				<path id="SVGID_152_" fill="url(#SVGID_6_)" d="M17.046,19.236c0.105,0.199,0.154,0.273,0.277,0.455
					c0.876,1.231,1.392,2.054,1.233,1.986c-2.206-0.947-4.411-1.895-6.617-2.839c0.234,0.101,0.426-0.825,0.429-2.092l4.428,1.899
					C16.854,18.807,16.933,19.023,17.046,19.236z"/>
			</g>
		</g>
		
			<linearGradient id="SVGID_7_" gradientUnits="userSpaceOnUse" x1="18.4951" y1="13.4482" x2="18.5338" y2="15.6664" gradientTransform="matrix(1 0 0 -1 0.04 23.1543)">
			<stop  offset="0" style="stop-color:#FBCE5C"/>
			<stop  offset="0.7202" style="stop-color:#FDDF96"/>
			<stop  offset="0.9226" style="stop-color:#FABB1F"/>
			<stop  offset="1" style="stop-color:#BD8700"/>
		</linearGradient>
		<path fill="url(#SVGID_7_)" d="M22.666,7.455l-0.108-0.059l-0.003-0.001c-0.002-0.001-0.004-0.002-0.007-0.003
			c-0.002-0.001-0.005-0.002-0.007-0.002c-0.003-0.001-0.006-0.001-0.008-0.002c-0.003-0.001-0.006-0.001-0.009-0.002
			s-0.006-0.001-0.01-0.001c-0.004,0-0.008-0.001-0.012-0.001c-0.005,0-0.011,0-0.017-0.001l-1.8-0.031h-0.04l-0.369-0.006
			L19.908,7.34L19.74,7.335l-1.397-0.024l-0.282-0.005l-0.74-0.013L16.95,7.287l-0.37-0.006l-0.24-0.004L16.1,7.273l-0.263-0.005
			l-0.318-0.005l-0.423-0.007h-0.001c0.021,0,0.039,0.004,0.056,0.013l0.108,0.059c0.239,0.13-0.136,1.156-0.838,2.291
			c1.489,0.025,3.482,0.243,4.963,0.084c0.028-0.003,0.05-0.043,0.071-0.062c0.396-0.344,0.753-0.544,0.967-0.665
			C21.908,8.183,22.852,7.555,22.666,7.455z"/>
		<g enable-background="new    ">
			<g>
				
					<linearGradient id="SVGID_8_" gradientUnits="userSpaceOnUse" x1="8.396" y1="3.6943" x2="9.4114" y2="2.2991" gradientTransform="matrix(1 0 0 -1 0.04 23.1543)">
					<stop  offset="0" style="stop-color:#FBC744"/>
					<stop  offset="0.7024" style="stop-color:#EAA700"/>
					<stop  offset="1" style="stop-color:#815D00"/>
				</linearGradient>
				<path id="SVGID_156_" fill="url(#SVGID_8_)" d="M7.652,20.557c0.041-0.082,0.165-0.328,0.259-0.623
					c0.004-0.012,0.003-0.031,0.013-0.039c1.271-1.026,3.111-2.203,4.444-3.147c-0.002,1.101-0.147,1.944-0.339,2.08
					c-2.191,1.551-4.382,3.103-6.573,4.653c0.335-0.236,1.048-1.146,1.881-2.389C7.486,20.857,7.555,20.752,7.652,20.557z"/>
			</g>
		</g>
		
			<linearGradient id="SVGID_9_" gradientUnits="userSpaceOnUse" x1="5.4668" y1="4.5313" x2="8.2919" y2="3.7743" gradientTransform="matrix(1 0 0 -1 0.04 23.1543)">
			<stop  offset="0" style="stop-color:#815D00"/>
			<stop  offset="0.4405" style="stop-color:#EFAB00"/>
			<stop  offset="1" style="stop-color:#FBC94B"/>
		</linearGradient>
		<path fill="url(#SVGID_9_)" d="M6.57,15.369l-0.108-0.059c-0.036-0.021-0.05-0.049-0.044-0.088L6.41,15.27l-0.064,0.414
			l-0.064,0.412l-0.026,0.17c-0.048,0.303-0.096,0.605-0.143,0.908l-0.024,0.153l-0.064,0.409L5.996,17.91
			c-0.025,0.165-0.052,0.33-0.077,0.494l-0.023,0.148L5.85,18.848c-0.056,0.355-0.111,0.711-0.168,1.066l-0.04,0.257l-0.025,0.161
			c-0.021,0.135-0.042,0.27-0.063,0.404l-0.037,0.236l-0.063,0.398l-0.029,0.191c-0.03,0.19-0.061,0.381-0.09,0.57L5.33,22.164
			l-0.008,0.049c-0.057,0.362-0.113,0.723-0.17,1.084c-0.015,0.098-0.006,0.159,0.03,0.18l0.108,0.059
			c0.186,0.102,1.028-0.922,2.05-2.448c0.358-0.526,0.697-1.209,0.918-1.431l0.793-5.055C7.92,15.156,6.81,15.5,6.57,15.369z"/>
		
			<linearGradient id="SVGID_10_" gradientUnits="userSpaceOnUse" x1="12.4492" y1="17.6992" x2="13.9921" y2="18.4253" gradientTransform="matrix(1 0 0 -1 0.04 23.1543)">
			<stop  offset="0" style="stop-color:#FBCA51"/>
			<stop  offset="0.75" style="stop-color:#FBD26A"/>
			<stop  offset="1" style="stop-color:#F9B200"/>
		</linearGradient>
		<path fill="url(#SVGID_10_)" d="M14.63,5.984c0.226,0.466,0.452,0.932,0.677,1.398c0.124,0.255-0.244,1.201-0.886,2.237
			L12.219,5.07c0.055-0.227,0.102-0.422,0.126-0.703c0.021-0.252,0.021-0.357,0.018-0.616c-0.052-1.592-0.18-2.824-0.338-3.15
			c0.539,1.114,1.079,2.228,1.618,3.342l0.328,0.679L14.63,5.984z"/>
		
			<linearGradient id="SVGID_11_" gradientUnits="userSpaceOnUse" x1="12.1689" y1="17.3887" x2="9.854" y2="18.2967" gradientTransform="matrix(1 0 0 -1 0.04 23.1543)">
			<stop  offset="0" style="stop-color:#FBC94B"/>
			<stop  offset="0.5893" style="stop-color:#FBCC57"/>
			<stop  offset="0.8631" style="stop-color:#D69900"/>
			<stop  offset="1" style="stop-color:#8F6600"/>
		</linearGradient>
		<path fill="url(#SVGID_11_)" d="M12.532,4.938c-0.028-0.103-0.049-0.201-0.068-0.299l-0.017-0.084
			c-0.059-0.326-0.075-0.611-0.085-0.801c-0.005-0.148-0.01-0.294-0.017-0.436c-0.001-0.021-0.002-0.04-0.003-0.061
			c-0.013-0.27-0.026-0.529-0.042-0.769c0-0.009,0-0.02-0.001-0.029c-0.006-0.081-0.012-0.16-0.018-0.237
			c-0.005-0.061-0.01-0.121-0.015-0.179c-0.004-0.041-0.008-0.081-0.011-0.12c-0.004-0.039-0.008-0.078-0.012-0.116
			c-0.003-0.029-0.006-0.058-0.009-0.086c-0.003-0.027-0.006-0.055-0.009-0.082c-0.003-0.027-0.006-0.053-0.009-0.079
			c-0.002-0.018-0.004-0.035-0.006-0.052c-0.001-0.003-0.001-0.005-0.001-0.008c0.001-0.002,0.001-0.004,0.001-0.005
			c-0.003-0.021-0.005-0.043-0.008-0.063C12.199,1.41,12.196,1.39,12.194,1.37l-0.009-0.059c-0.002-0.019-0.005-0.037-0.008-0.055
			c-0.002-0.018-0.005-0.036-0.008-0.054s-0.006-0.035-0.008-0.052c-0.001-0.008-0.003-0.016-0.004-0.024
			c-0.002-0.01-0.004-0.019-0.006-0.029c0,0,0,0,0-0.001c-0.003-0.018-0.006-0.035-0.009-0.052s-0.006-0.034-0.009-0.05
			c-0.004-0.018-0.007-0.035-0.011-0.052c-0.004-0.018-0.007-0.035-0.011-0.051c-0.004-0.016-0.008-0.033-0.011-0.048
			c-0.002-0.007-0.004-0.013-0.005-0.021l-0.003-0.01c0.001-0.007,0-0.013-0.002-0.019c-0.004-0.016-0.008-0.031-0.012-0.045
			s-0.009-0.028-0.013-0.041c-0.004-0.012-0.008-0.024-0.012-0.035C12.05,0.661,12.046,0.65,12.042,0.64l-0.009-0.019L12.03,0.614
			c0,0-0.001-0.001-0.001-0.002c-0.004-0.009-0.008-0.018-0.012-0.025c-0.004-0.007-0.009-0.015-0.013-0.021
			C12,0.558,11.995,0.551,11.99,0.545c-0.005-0.007-0.011-0.012-0.016-0.016c-0.004-0.003-0.007-0.005-0.011-0.007l-0.108-0.059
			c-0.004-0.002-0.007-0.003-0.011-0.004c-0.011-0.003-0.021,0.006-0.031,0.011c-0.006,0.003-0.012,0.001-0.019,0.007
			c-0.018,0.017-0.035,0.044-0.053,0.084c-0.3,0.697-0.6,1.393-0.899,2.09L10.78,2.794l-0.01,0.028L8.813,7.367l-0.02,0.046
			L8.755,7.502L8.456,8.197C8.464,8.179,8.487,8.179,8.526,8.2l0.108,0.059c0.03,0.016,0.068,0.044,0.112,0.081
			C8.748,8.342,8.75,8.343,8.752,8.345l0,0c0.042,0.035,0.09,0.08,0.143,0.131C8.899,8.48,8.904,8.485,8.909,8.49
			C8.912,8.494,8.916,8.498,8.92,8.502C8.968,8.55,9.021,8.604,9.075,8.664c0.004,0.003,0.007,0.007,0.01,0.01
			c0.007,0.007,0.014,0.014,0.02,0.021c0.058,0.063,0.119,0.131,0.183,0.203c0.007,0.007,0.014,0.015,0.02,0.022
			c0.01,0.011,0.02,0.023,0.03,0.034c0.05,0.058,0.103,0.12,0.156,0.183c0.054,0.064,0.109,0.131,0.165,0.199
			C9.69,9.374,9.722,9.412,9.753,9.451c0.08,0.098,0.161,0.201,0.243,0.305c0.016,0.02,0.03,0.038,0.046,0.058
			c0.097,0.125,0.193,0.252,0.289,0.38c0.668-1.551,1.718-3.561,2.226-5.171L12.532,4.938z"/>
		
			<linearGradient id="SVGID_12_" gradientUnits="userSpaceOnUse" x1="5.4907" y1="10.6172" x2="19.415" y2="10.6172" gradientTransform="matrix(1 0 0 -1 0.04 23.1543)">
			<stop  offset="0" style="stop-color:#FCD266"/>
			<stop  offset="1" style="stop-color:#F9B200"/>
		</linearGradient>
		<path fill="url(#SVGID_12_)" d="M12.387,5.416c0,0,0.496,1.025,2.034,4.203c3.461,0.059,5.034,0.023,5.034,0.023
			s-1.264,1.037-3.77,4.027c0.584,3.644,0.837,5.224,0.837,5.224s-1.062-0.82-4.154-2.146c-3.102,2.196-4.11,2.911-4.11,2.911
			s0.195-1.248,0.793-5.057c-1.938-1.771-3.52-3.142-3.52-3.142s1.337-0.233,4.799-1.265C11.884,6.583,12.387,5.416,12.387,5.416z"
			/>
		
			<linearGradient id="SVGID_13_" gradientUnits="userSpaceOnUse" x1="6.0396" y1="11.7271" x2="5.313" y2="13.9517" gradientTransform="matrix(1 0 0 -1 0.04 23.1543)">
			<stop  offset="0.1786" style="stop-color:#FBCA51"/>
			<stop  offset="0.5119" style="stop-color:#FDE099"/>
			<stop  offset="0.8631" style="stop-color:#F9B200"/>
			<stop  offset="1" style="stop-color:#BB8600"/>
		</linearGradient>
		<path fill="url(#SVGID_13_)" d="M10.288,10.137c-0.021-0.028-0.042-0.056-0.063-0.084c-0.018-0.023-0.035-0.046-0.052-0.069
			c-0.018-0.022-0.035-0.045-0.053-0.068c-0.015-0.019-0.029-0.038-0.043-0.057c-0.015-0.019-0.029-0.038-0.044-0.057
			c-0.014-0.017-0.026-0.034-0.04-0.051L9.955,9.704C9.942,9.688,9.931,9.672,9.918,9.656C9.906,9.642,9.895,9.627,9.884,9.613
			C9.872,9.599,9.861,9.585,9.851,9.571C9.839,9.557,9.828,9.543,9.817,9.53c-0.01-0.013-0.02-0.026-0.031-0.039L9.757,9.455
			C9.746,9.442,9.736,9.43,9.727,9.418c-0.009-0.012-0.02-0.024-0.029-0.036C9.689,9.37,9.679,9.359,9.669,9.347
			C9.66,9.336,9.65,9.324,9.641,9.313C9.632,9.302,9.622,9.291,9.613,9.279C9.606,9.27,9.6,9.265,9.593,9.257
			C9.406,9.03,9.229,8.828,9.077,8.666C9.072,8.66,9.067,8.654,9.063,8.649C9.057,8.643,9.051,8.637,9.045,8.631
			c-0.003-0.003-0.007-0.007-0.01-0.01s-0.007-0.007-0.01-0.01S9.019,8.604,9.016,8.6S9.01,8.593,9.006,8.59
			C9.003,8.587,9,8.583,8.997,8.58C8.993,8.577,8.99,8.574,8.987,8.57c-0.003-0.003-0.006-0.006-0.01-0.009l-0.009-0.01
			c-0.004-0.003-0.007-0.006-0.01-0.01c-0.004-0.003-0.007-0.006-0.01-0.01c-0.003-0.003-0.007-0.006-0.01-0.009
			s-0.006-0.006-0.01-0.01C8.927,8.509,8.924,8.506,8.921,8.503S8.915,8.497,8.912,8.494C8.91,8.492,8.908,8.491,8.907,8.489
			C8.902,8.484,8.898,8.481,8.895,8.477L8.889,8.471c-0.005-0.005-0.01-0.009-0.014-0.014C8.87,8.453,8.865,8.449,8.86,8.444
			C8.856,8.44,8.852,8.436,8.848,8.431c-0.006-0.005-0.012-0.01-0.017-0.015C8.819,8.405,8.808,8.395,8.797,8.384L8.771,8.361
			c-0.005-0.004-0.01-0.008-0.015-0.013C8.751,8.344,8.746,8.34,8.742,8.336c-0.005-0.004-0.01-0.007-0.014-0.011
			c-0.003-0.003-0.007-0.006-0.01-0.008C8.715,8.315,8.712,8.313,8.709,8.311C8.707,8.309,8.704,8.306,8.702,8.304
			C8.699,8.302,8.696,8.3,8.694,8.299C8.691,8.297,8.689,8.295,8.687,8.293C8.685,8.292,8.682,8.29,8.68,8.288
			C8.677,8.286,8.675,8.285,8.673,8.283C8.67,8.281,8.668,8.28,8.666,8.278C8.663,8.277,8.661,8.275,8.659,8.274
			C8.656,8.272,8.654,8.271,8.652,8.27S8.648,8.267,8.646,8.266S8.642,8.263,8.64,8.262S8.636,8.26,8.635,8.259L8.526,8.2
			c-0.001,0-0.001,0-0.001,0C8.522,8.199,8.521,8.197,8.518,8.196C8.516,8.195,8.514,8.194,8.512,8.193
			C8.509,8.192,8.507,8.191,8.505,8.19c-0.002,0-0.004-0.001-0.006-0.002S8.494,8.187,8.492,8.186
			C8.489,8.185,8.486,8.185,8.484,8.184c-0.003,0-0.006,0-0.008,0c-0.003,0-0.005,0-0.007,0.001L8.428,8.197L8.165,8.276
			C8.082,8.301,7.999,8.325,7.916,8.35L7.683,8.419L6.938,8.641L6.567,8.752L5.825,8.973l-0.37,0.11l-0.369,0.11l-0.738,0.22
			L3.98,9.523L3.245,9.742L2.879,9.851L2.514,9.96l-0.729,0.217l-0.322,0.096l-0.362,0.108c-0.003,0-0.005,0.001-0.007,0.003
			c-0.002,0.001-0.002,0.002-0.003,0.003c0,0.001,0,0.002,0.001,0.004c0,0.001,0.001,0.002,0.002,0.003l0.003,0.003
			C1.098,10.399,1.1,10.4,1.102,10.401c0.001,0.001,0.003,0.002,0.005,0.003s0.005,0.002,0.007,0.004c0,0,0,0,0.001,0l0.108,0.059
			c0.002,0.001,0.003,0.002,0.005,0.003c0.003,0.001,0.005,0.002,0.007,0.003c0.003,0.001,0.005,0.002,0.008,0.003
			s0.006,0.002,0.009,0.003s0.006,0.002,0.009,0.004c0.003,0.002,0.006,0.002,0.01,0.004c0.003,0.001,0.006,0.003,0.01,0.004
			c0.004,0.001,0.007,0.002,0.011,0.004l0.023,0.009c0.004,0.001,0.009,0.003,0.013,0.004s0.007,0.002,0.01,0.003l0.012,0.004
			c0.004,0.001,0.007,0.002,0.011,0.004c0.008,0.002,0.016,0.005,0.024,0.008c0.008,0.003,0.017,0.005,0.025,0.008
			c0.008,0.003,0.018,0.006,0.027,0.009c0.017,0.005,0.034,0.01,0.052,0.016c0.018,0.005,0.037,0.011,0.056,0.016
			c0.011,0.003,0.021,0.006,0.032,0.009c0.006,0.002,0.011,0.003,0.017,0.005l0.029,0.009c0.01,0.002,0.02,0.005,0.029,0.008
			c0.009,0.003,0.021,0.006,0.03,0.008c0.011,0.003,0.021,0.006,0.031,0.009l0.021,0.006c0.007,0.002,0.014,0.004,0.021,0.006
			l0.021,0.006c0.007,0.002,0.015,0.004,0.021,0.006c0.008,0.002,0.015,0.004,0.022,0.006c0.007,0.002,0.015,0.004,0.021,0.006
			c0.008,0.002,0.016,0.004,0.022,0.006c0.008,0.002,0.015,0.004,0.022,0.006c0.007,0.002,0.015,0.004,0.022,0.006
			c0.007,0.002,0.015,0.004,0.022,0.006c0.007,0.002,0.015,0.004,0.022,0.006c0.007,0.002,0.015,0.004,0.022,0.006
			c0.007,0.002,0.016,0.004,0.023,0.006l0.023,0.006c0.008,0.002,0.016,0.004,0.023,0.006c0.015,0.003,0.028,0.007,0.043,0.011
			c0.028,0.007,0.058,0.015,0.088,0.022c0.006,0.001,0.015,0.003,0.021,0.005c0.164,0.042,0.348,0.087,0.543,0.134
			c0.069,0.017,0.143,0.034,0.215,0.052C3.079,10.969,3.212,11,3.349,11.032c0.07,0.016,0.132,0.031,0.204,0.048
			c0.026,0.006,0.053,0.012,0.08,0.018c0.026,0.006,0.054,0.013,0.08,0.019c0.027,0.006,0.055,0.013,0.082,0.019
			c0.028,0.007,0.057,0.013,0.085,0.02c0.028,0.007,0.058,0.013,0.087,0.02c0.028,0.007,0.058,0.013,0.087,0.02
			c0.03,0.007,0.061,0.014,0.092,0.021c0.032,0.007,0.064,0.015,0.098,0.022c0.009,0.002,0.018,0.004,0.027,0.006
			C4.549,11.31,4.753,11.38,4.92,11.45l0.018,0.007h0.001l0.008,0.003c0.163,0.07,0.291,0.142,0.415,0.211l4.964-1.479
			C10.316,10.175,10.302,10.156,10.288,10.137z"/>
		<path fill="#FBC94B" d="M5.531,11.459l3.52,3.143c-0.007,0.002-0.014,0.006-0.021,0.01l-3.528-3.155L5.531,11.459"/>
		<path fill="#FBC744" d="M5.502,11.456l3.528,3.155c-0.022,0.011-0.044,0.021-0.066,0.031l-3.561-3.2L5.502,11.456"/>
		<path fill="#FAC43D" d="M5.403,11.444l3.561,3.201c-0.021,0.01-0.044,0.021-0.065,0.03l-3.597-3.244L5.403,11.444"/>
		<path fill="#FAC235" d="M5.302,11.431l3.597,3.244c-0.013,0.007-0.026,0.013-0.039,0.019l-3.618-3.271l0,0L5.302,11.431"/>
		<path fill="#FABF2B" d="M5.241,11.422l3.618,3.271c-0.01,0.004-0.02,0.009-0.029,0.014l-3.636-3.292L5.241,11.422"/>
		<path fill="#FABB1F" d="M5.194,11.416l3.636,3.292c-0.01,0.004-0.02,0.009-0.029,0.015L5.148,11.41L5.194,11.416"/>
		<path fill="#F9B200" d="M5.147,11.409L8.8,14.721c-0.01,0.004-0.02,0.01-0.029,0.014L5.1,11.402L5.147,11.409"/>
		<path fill="#F4AE00" d="M5.101,11.402l3.671,3.333c-0.01,0.004-0.02,0.01-0.029,0.014l-3.689-3.354L5.101,11.402"/>
		
			<linearGradient id="SVGID_14_" gradientUnits="userSpaceOnUse" x1="4.2451" y1="10.0693" x2="5.8687" y2="11.2762" gradientTransform="matrix(1 0 0 -1 0.04 23.1543)">
			<stop  offset="0" style="stop-color:#815D00"/>
			<stop  offset="1" style="stop-color:#EFAB00"/>
		</linearGradient>
		<path fill="url(#SVGID_14_)" d="M9.051,14.602c-1.057-0.942-2.361-2.329-3.52-3.142c-0.005-0.004-0.014-0.002-0.021-0.002
			c-0.528-0.061-0.903-0.14-1.233-0.21c-0.552-0.123-1.057-0.241-1.496-0.347c-0.168-0.041-0.328-0.08-0.475-0.117
			c-0.019-0.004-0.041-0.01-0.06-0.015c-0.172-0.044-0.324-0.083-0.458-0.12c-0.025-0.007-0.047-0.013-0.07-0.02
			c-0.102-0.028-0.188-0.053-0.26-0.076c-0.023-0.007-0.048-0.015-0.068-0.021c-0.077-0.025-0.14-0.048-0.168-0.063L1.114,10.41
			c-0.009-0.004-0.015-0.008-0.019-0.012l0.191,0.176l0.05,0.045c1.554,1.425,2.319,2.139,2.671,2.469l0.023,0.021l0.162,0.154
			L4.2,13.27l0.257,0.242L4.72,13.75l0.051,0.045l0.179,0.159l0.043,0.038c0.482,0.434,0.968,0.865,1.448,1.304
			c0.007,0.005,0.014,0.011,0.021,0.015l0.108,0.06c0.031,0.017,0.077,0.024,0.136,0.026c0.018,0,0.042-0.004,0.063-0.004
			c0.046-0.002,0.092-0.004,0.149-0.013c0.029-0.004,0.066-0.013,0.099-0.021c0.057-0.01,0.112-0.021,0.177-0.037
			c0.04-0.01,0.085-0.023,0.128-0.036c0.066-0.019,0.132-0.037,0.204-0.06c0.012-0.004,0.021-0.006,0.033-0.011
			c0.046-0.015,0.092-0.03,0.14-0.046c0.035-0.012,0.071-0.025,0.108-0.038c0.005-0.001,0.01-0.003,0.015-0.005
			c0.009-0.003,0.018-0.006,0.027-0.01c0.017-0.006,0.034-0.014,0.052-0.02c0.023-0.009,0.048-0.018,0.071-0.025
			s0.046-0.018,0.069-0.027c0.02-0.007,0.039-0.016,0.058-0.021c0.018-0.008,0.035-0.015,0.053-0.021s0.035-0.014,0.053-0.021
			c0.005-0.002,0.01-0.004,0.015-0.006c0.001,0,0.002,0,0.002,0c0.011-0.004,0.021-0.009,0.03-0.013
			c0.015-0.006,0.029-0.012,0.044-0.019c0.015-0.006,0.029-0.012,0.044-0.019c0.015-0.006,0.03-0.012,0.045-0.019
			c0.013-0.006,0.025-0.012,0.038-0.018c0.014-0.005,0.026-0.011,0.039-0.017c0.014-0.006,0.026-0.011,0.039-0.017
			c0.014-0.006,0.026-0.012,0.04-0.018c0.012-0.005,0.023-0.01,0.035-0.016c0.011-0.006,0.022-0.01,0.034-0.016
			c0.002,0,0.004-0.002,0.006-0.002c0.008-0.002,0.016-0.007,0.023-0.01c0.002-0.001,0.003-0.002,0.005-0.002
			c0.012-0.005,0.023-0.012,0.035-0.016c0.011-0.006,0.022-0.012,0.034-0.016c0.01-0.006,0.02-0.01,0.029-0.015l-0.001-0.001
			C8.844,14.7,8.947,14.652,9.051,14.602z"/>
		
			<linearGradient id="SVGID_15_" gradientUnits="userSpaceOnUse" x1="16.3076" y1="5.354" x2="17.8505" y2="5.6265" gradientTransform="matrix(1 0 0 -1 0.04 23.1543)">
			<stop  offset="0.4524" style="stop-color:#FBCA51"/>
			<stop  offset="0.7798" style="stop-color:#FABB1F"/>
			<stop  offset="0.9048" style="stop-color:#F9B200"/>
		</linearGradient>
		<path fill="url(#SVGID_15_)" d="M16.522,18.893c-0.251-1.566-0.586-3.656-0.837-5.224c0.99,0.208,1.667,0.3,1.656,0.231
			c0.209,1.305,0.418,2.608,0.627,3.914c0.167,1.039,0.334,2.08,0.5,3.121l0,0c0.035,0.215,0.081,0.502,0.115,0.719
			C18.56,21.5,16.701,19.018,16.522,18.893z"/>
	</g>
	<g>
		<g enable-background="new    ">
			<g>
				<path fill="#171418" d="M14.037,8.095c0.458-0.064,0.832,0.912,0.83,2.174c-0.003,1.262-0.381,2.344-0.838,2.409
					c-0.457,0.063-0.831-0.913-0.828-2.175C13.203,9.241,13.581,8.159,14.037,8.095z M14.033,10.386
					c0.193-0.027,0.354-0.482,0.354-1.019c0.001-0.536-0.158-0.945-0.351-0.918c-0.192,0.027-0.353,0.482-0.354,1.018
					C13.682,10.003,13.841,10.413,14.033,10.386"/>
			</g>
			<g>
				<path fill="#DFDFDF" d="M14.037,8.449c0.192-0.027,0.352,0.383,0.351,0.918c-0.001,0.536-0.161,0.991-0.354,1.019
					c-0.192,0.027-0.351-0.383-0.35-0.919C13.685,8.931,13.845,8.476,14.037,8.449z"/>
			</g>
		</g>
		<g enable-background="new    ">
			<g>
				<path fill="#DFDFDF" d="M10.721,8.915c0.192-0.027,0.352,0.383,0.351,0.919c-0.001,0.536-0.161,0.991-0.354,1.018
					c-0.193,0.027-0.353-0.383-0.352-0.919S10.529,8.942,10.721,8.915z"/>
			</g>
			<g>
				<path d="M10.722,8.561c0.456-0.064,0.831,0.912,0.828,2.175c-0.002,1.262-0.38,2.344-0.837,2.409
					c-0.456,0.063-0.831-0.913-0.829-2.174C9.887,9.707,10.266,8.625,10.722,8.561z M10.718,10.852
					c0.192-0.027,0.353-0.482,0.354-1.018c0.001-0.536-0.158-0.946-0.351-0.918c-0.191,0.027-0.354,0.482-0.354,1.018
					C10.365,10.469,10.525,10.879,10.718,10.852"/>
			</g>
		</g>
	</g>
</g>
<g id="Clic">
	<g>
		<g enable-background="new    ">
			<g>
				<defs>
					<path id="SVGID_16_" d="M64.398,19.186c-0.188-0.233-0.422-0.524-0.852-0.824c-0.02-0.116-0.044-0.272-0.063-0.391
						C63.797,18.393,64.105,18.803,64.398,19.186z"/>
				</defs>
				<clipPath id="SVGID_17_">
					<use xlink:href="#SVGID_16_"  overflow="visible"/>
				</clipPath>
				<path clip-path="url(#SVGID_17_)" fill="#815D00" d="M64.398,19.186l-0.14-0.174l-0.138-0.152l-0.109-0.112l-0.152-0.142
					l-0.15-0.125l-0.15-0.11l-0.011-0.009l-0.063-0.391C63.797,18.393,64.105,18.803,64.398,19.186"/>
			</g>
		</g>
		<g enable-background="new    ">
			<g>
				<defs>
					<path id="SVGID_18_" d="M63.82,18.115c0.156,0.42,0.268,0.646,0.584,1.076c-0.295-0.385-0.605-0.795-0.92-1.219L63.82,18.115z"
						/>
				</defs>
				<clipPath id="SVGID_19_">
					<use xlink:href="#SVGID_18_"  overflow="visible"/>
				</clipPath>
				<path clip-path="url(#SVGID_19_)" fill="#815D00" d="M64.079,18.697l0.103,0.172l0.115,0.176l0.107,0.146
					c-0.295-0.385-0.605-0.795-0.92-1.219l0.336,0.144l0.068,0.184l0.082,0.187l0.096,0.191L64.079,18.697"/>
			</g>
		</g>
		<path fill="#FBC94B" d="M64.521,18.893l-0.836-5.224c0.051,0.011,0.102,0.021,0.149,0.031l0.853,5.315l-0.146-0.109L64.521,18.893
			"/>
		<g enable-background="new    ">
			<g>
				
					<linearGradient id="SVGID_20_" gradientUnits="userSpaceOnUse" x1="66.749" y1="12.8418" x2="67.6291" y2="12.1033" gradientTransform="matrix(1 0 0 -1 0.04 23.1543)">
					<stop  offset="0.369" style="stop-color:#FBC744"/>
					<stop  offset="0.7202" style="stop-color:#F9B200"/>
					<stop  offset="0.9464" style="stop-color:#E0A000"/>
					<stop  offset="1" style="stop-color:#A47500"/>
				</linearGradient>
				<path id="SVGID_170_" fill="url(#SVGID_20_)" d="M67.902,9.212c0.201-0.076,0.283-0.113,0.518-0.233
					c1.184-0.632,2.021-1.158,2.223-1.398L70.16,8.157c-0.521,0.623-1.044,1.245-1.566,1.868c-1.263,1.508-1.914,2.286-3.254,3.883
					c-0.045,0.053-0.705-0.04-1.654-0.239l3.597-4.29C67.479,9.339,67.666,9.302,67.902,9.212z"/>
			</g>
		</g>
		<g enable-background="new    ">
			<g>
				
					<linearGradient id="SVGID_21_" gradientUnits="userSpaceOnUse" x1="63.8623" y1="4.8594" x2="62.9545" y2="2.908" gradientTransform="matrix(1 0 0 -1 0.04 23.1543)">
					<stop  offset="0" style="stop-color:#FABF2B"/>
					<stop  offset="0.75" style="stop-color:#E5A400"/>
					<stop  offset="1" style="stop-color:#815D00"/>
				</linearGradient>
				<path id="SVGID_173_" fill="url(#SVGID_21_)" d="M65.046,19.236c0.104,0.199,0.154,0.273,0.277,0.455
					c0.876,1.231,1.392,2.054,1.233,1.986c-2.207-0.947-4.412-1.895-6.617-2.839c0.233,0.101,0.426-0.825,0.429-2.092l4.428,1.899
					C64.854,18.807,64.934,19.023,65.046,19.236z"/>
			</g>
		</g>
		
			<linearGradient id="SVGID_22_" gradientUnits="userSpaceOnUse" x1="66.4951" y1="13.4482" x2="66.5338" y2="15.6672" gradientTransform="matrix(1 0 0 -1 0.04 23.1543)">
			<stop  offset="0" style="stop-color:#FBCE5C"/>
			<stop  offset="0.7202" style="stop-color:#FDDF96"/>
			<stop  offset="0.9226" style="stop-color:#FABB1F"/>
			<stop  offset="1" style="stop-color:#BD8700"/>
		</linearGradient>
		<path fill="url(#SVGID_22_)" d="M70.666,7.455l-0.107-0.059l-0.004-0.001c-0.002-0.001-0.004-0.002-0.007-0.003
			c-0.002-0.001-0.005-0.002-0.007-0.002c-0.003-0.001-0.006-0.001-0.008-0.002c-0.004-0.001-0.006-0.001-0.01-0.002
			c-0.002-0.001-0.006-0.001-0.01-0.001s-0.008-0.001-0.012-0.001c-0.005,0-0.011,0-0.018-0.001l-1.799-0.031h-0.041l-0.369-0.006
			L67.908,7.34L67.74,7.335l-1.397-0.024l-0.282-0.005l-0.74-0.013l-0.37-0.006l-0.37-0.006l-0.24-0.004L64.1,7.273l-0.263-0.005
			L63.52,7.263l-0.424-0.007l0,0c0.021,0,0.038,0.004,0.055,0.013l0.108,0.059c0.239,0.13-0.136,1.156-0.838,2.291
			c1.489,0.025,3.481,0.243,4.963,0.084c0.028-0.003,0.05-0.043,0.071-0.062c0.396-0.344,0.753-0.544,0.967-0.665
			C69.908,8.183,70.852,7.555,70.666,7.455z"/>
		<g enable-background="new    ">
			<g>
				
					<linearGradient id="SVGID_23_" gradientUnits="userSpaceOnUse" x1="56.3975" y1="3.6943" x2="57.4129" y2="2.299" gradientTransform="matrix(1 0 0 -1 0.04 23.1543)">
					<stop  offset="0" style="stop-color:#FBC744"/>
					<stop  offset="0.7024" style="stop-color:#EAA700"/>
					<stop  offset="1" style="stop-color:#815D00"/>
				</linearGradient>
				<path id="SVGID_177_" fill="url(#SVGID_23_)" d="M55.652,20.557c0.041-0.082,0.164-0.328,0.259-0.623
					c0.004-0.012,0.003-0.031,0.013-0.039c1.271-1.026,3.111-2.203,4.444-3.147c-0.002,1.101-0.147,1.944-0.339,2.08
					c-2.191,1.551-4.383,3.103-6.573,4.653c0.335-0.236,1.048-1.146,1.881-2.389C55.486,20.857,55.555,20.752,55.652,20.557z"/>
			</g>
		</g>
		
			<linearGradient id="SVGID_24_" gradientUnits="userSpaceOnUse" x1="53.4668" y1="4.5332" x2="56.2938" y2="3.7757" gradientTransform="matrix(1 0 0 -1 0.04 23.1543)">
			<stop  offset="0" style="stop-color:#815D00"/>
			<stop  offset="0.4405" style="stop-color:#EFAB00"/>
			<stop  offset="1" style="stop-color:#FBC94B"/>
		</linearGradient>
		<path fill="url(#SVGID_24_)" d="M54.57,15.369l-0.108-0.059c-0.036-0.021-0.05-0.049-0.044-0.088L54.41,15.27l-0.064,0.414
			l-0.063,0.412l-0.026,0.17c-0.048,0.303-0.096,0.605-0.143,0.908l-0.024,0.153l-0.063,0.409l-0.027,0.174
			c-0.025,0.165-0.053,0.33-0.077,0.494l-0.022,0.148l-0.047,0.295c-0.056,0.354-0.11,0.709-0.168,1.065l-0.039,0.257l-0.025,0.161
			c-0.021,0.135-0.042,0.271-0.063,0.403l-0.037,0.238l-0.063,0.397l-0.029,0.192c-0.03,0.189-0.061,0.379-0.09,0.569l-0.005,0.031
			l-0.008,0.049c-0.057,0.362-0.113,0.724-0.17,1.084c-0.016,0.099-0.006,0.159,0.029,0.179l0.108,0.06
			c0.187,0.101,1.028-0.923,2.05-2.448c0.358-0.525,0.697-1.209,0.918-1.43l0.793-5.057C55.92,15.156,54.811,15.5,54.57,15.369z"/>
		
			<linearGradient id="SVGID_25_" gradientUnits="userSpaceOnUse" x1="60.4502" y1="17.6992" x2="61.9932" y2="18.4253" gradientTransform="matrix(1 0 0 -1 0.04 23.1543)">
			<stop  offset="0" style="stop-color:#FBCA51"/>
			<stop  offset="0.75" style="stop-color:#FBD26A"/>
			<stop  offset="1" style="stop-color:#F9B200"/>
		</linearGradient>
		<path fill="url(#SVGID_25_)" d="M62.63,5.984c0.226,0.466,0.452,0.932,0.677,1.398c0.125,0.255-0.244,1.201-0.886,2.237
			L60.219,5.07c0.055-0.227,0.102-0.422,0.127-0.703c0.021-0.252,0.021-0.357,0.018-0.616c-0.053-1.592-0.18-2.824-0.338-3.15
			c0.539,1.114,1.078,2.228,1.617,3.342l0.328,0.679L62.63,5.984z"/>
		
			<linearGradient id="SVGID_26_" gradientUnits="userSpaceOnUse" x1="60.1689" y1="17.3896" x2="57.8535" y2="18.2978" gradientTransform="matrix(1 0 0 -1 0.04 23.1543)">
			<stop  offset="0" style="stop-color:#FBC94B"/>
			<stop  offset="0.5893" style="stop-color:#FBCC57"/>
			<stop  offset="0.8631" style="stop-color:#D69900"/>
			<stop  offset="1" style="stop-color:#8F6600"/>
		</linearGradient>
		<path fill="url(#SVGID_26_)" d="M60.532,4.938c-0.028-0.103-0.05-0.201-0.068-0.299l-0.017-0.084
			c-0.059-0.326-0.075-0.611-0.086-0.801c-0.004-0.148-0.01-0.294-0.016-0.436c-0.002-0.021-0.003-0.04-0.004-0.061
			c-0.013-0.27-0.025-0.529-0.042-0.769c0-0.009,0-0.02-0.001-0.029c-0.006-0.081-0.012-0.16-0.018-0.237
			c-0.006-0.061-0.01-0.121-0.016-0.179c-0.004-0.041-0.008-0.081-0.011-0.12c-0.004-0.039-0.008-0.078-0.012-0.116
			c-0.003-0.029-0.007-0.058-0.009-0.086c-0.004-0.027-0.006-0.055-0.01-0.082c-0.002-0.027-0.006-0.053-0.009-0.079
			c-0.002-0.018-0.004-0.035-0.006-0.052c-0.001-0.003-0.001-0.005-0.001-0.008c0.001-0.002,0.001-0.004,0.001-0.005
			c-0.003-0.021-0.005-0.043-0.008-0.063C60.199,1.41,60.195,1.39,60.193,1.37l-0.008-0.059c-0.002-0.019-0.006-0.037-0.009-0.055
			c-0.002-0.018-0.005-0.036-0.008-0.054s-0.006-0.035-0.008-0.052c-0.001-0.008-0.003-0.016-0.004-0.024
			c-0.003-0.01-0.005-0.019-0.007-0.029c0,0,0,0,0-0.001c-0.002-0.018-0.006-0.035-0.008-0.052c-0.004-0.017-0.006-0.034-0.01-0.05
			c-0.004-0.018-0.007-0.035-0.011-0.052c-0.004-0.018-0.007-0.035-0.011-0.051c-0.004-0.016-0.008-0.033-0.012-0.048
			c-0.002-0.007-0.004-0.013-0.004-0.021l-0.004-0.01c0.001-0.007,0-0.013-0.002-0.019c-0.004-0.016-0.008-0.031-0.012-0.045
			s-0.01-0.028-0.014-0.041c-0.004-0.012-0.008-0.024-0.012-0.035C60.05,0.661,60.046,0.65,60.042,0.64l-0.009-0.019l-0.004-0.007
			c0,0,0-0.001,0-0.002c-0.004-0.009-0.008-0.018-0.012-0.025c-0.004-0.007-0.01-0.015-0.014-0.021
			C60,0.558,59.995,0.551,59.99,0.545c-0.006-0.007-0.012-0.012-0.016-0.016c-0.004-0.003-0.008-0.005-0.012-0.007l-0.107-0.059
			c-0.004-0.002-0.008-0.003-0.012-0.004c-0.011-0.003-0.021,0.006-0.031,0.011c-0.006,0.003-0.012,0.001-0.019,0.007
			c-0.019,0.017-0.035,0.044-0.053,0.084c-0.3,0.697-0.601,1.393-0.899,2.09l-0.063,0.143l-0.01,0.028l-1.957,4.545l-0.02,0.046
			l-0.038,0.089l-0.299,0.694c0.008-0.018,0.03-0.018,0.069,0.003l0.108,0.059c0.029,0.016,0.067,0.043,0.111,0.081
			c0.002,0.002,0.004,0.003,0.006,0.005l0,0c0.042,0.035,0.09,0.08,0.144,0.131c0.004,0.004,0.008,0.009,0.014,0.014
			c0.004,0.003,0.008,0.007,0.012,0.011c0.048,0.048,0.102,0.103,0.155,0.162c0.004,0.003,0.007,0.007,0.01,0.01
			c0.007,0.007,0.015,0.014,0.021,0.021c0.058,0.063,0.119,0.131,0.183,0.203c0.007,0.007,0.014,0.015,0.021,0.022
			c0.01,0.011,0.02,0.023,0.029,0.034c0.051,0.058,0.104,0.12,0.156,0.183c0.054,0.063,0.109,0.131,0.165,0.199
			c0.03,0.038,0.063,0.076,0.094,0.115c0.08,0.098,0.161,0.201,0.243,0.305c0.016,0.02,0.029,0.038,0.046,0.058
			c0.097,0.125,0.192,0.252,0.289,0.38c0.668-1.551,1.718-3.561,2.226-5.171L60.532,4.938z"/>
		
			<linearGradient id="SVGID_27_" gradientUnits="userSpaceOnUse" x1="53.4912" y1="10.6172" x2="67.415" y2="10.6172" gradientTransform="matrix(1 0 0 -1 0.04 23.1543)">
			<stop  offset="0" style="stop-color:#FCD266"/>
			<stop  offset="1" style="stop-color:#F9B200"/>
		</linearGradient>
		<path fill="url(#SVGID_27_)" d="M60.387,5.416c0,0,0.496,1.025,2.034,4.203c3.461,0.059,5.034,0.023,5.034,0.023
			s-1.264,1.037-3.77,4.027c0.584,3.644,0.836,5.224,0.836,5.224s-1.062-0.82-4.153-2.146c-3.103,2.196-4.11,2.911-4.11,2.911
			s0.195-1.248,0.793-5.057c-1.938-1.771-3.52-3.142-3.52-3.142s1.337-0.233,4.799-1.265C59.884,6.583,60.387,5.416,60.387,5.416z"
			/>
		
			<linearGradient id="SVGID_28_" gradientUnits="userSpaceOnUse" x1="54.04" y1="11.7275" x2="53.3134" y2="13.9521" gradientTransform="matrix(1 0 0 -1 0.04 23.1543)">
			<stop  offset="0.1786" style="stop-color:#FBCA51"/>
			<stop  offset="0.5119" style="stop-color:#FDE099"/>
			<stop  offset="0.8631" style="stop-color:#F9B200"/>
			<stop  offset="1" style="stop-color:#BB8600"/>
		</linearGradient>
		<path fill="url(#SVGID_28_)" d="M58.288,10.137c-0.021-0.028-0.042-0.056-0.063-0.084c-0.018-0.023-0.035-0.046-0.052-0.069
			c-0.019-0.022-0.034-0.045-0.053-0.068c-0.015-0.019-0.029-0.038-0.043-0.057c-0.015-0.019-0.029-0.038-0.044-0.057
			c-0.014-0.017-0.026-0.034-0.04-0.051l-0.038-0.048c-0.014-0.016-0.023-0.032-0.037-0.047c-0.012-0.015-0.023-0.029-0.034-0.043
			c-0.012-0.014-0.022-0.028-0.032-0.042c-0.013-0.014-0.022-0.028-0.033-0.042c-0.012-0.013-0.021-0.026-0.031-0.039l-0.029-0.037
			c-0.011-0.013-0.021-0.024-0.029-0.037c-0.01-0.013-0.021-0.024-0.029-0.036c-0.01-0.012-0.02-0.023-0.028-0.035
			c-0.009-0.011-0.019-0.023-0.028-0.034c-0.009-0.011-0.019-0.022-0.026-0.034c-0.007-0.009-0.013-0.014-0.021-0.022
			c-0.188-0.227-0.363-0.429-0.517-0.591c-0.005-0.005-0.011-0.011-0.015-0.016c-0.006-0.006-0.012-0.013-0.019-0.019
			c-0.003-0.003-0.007-0.007-0.01-0.01s-0.007-0.007-0.011-0.01c-0.002-0.003-0.006-0.007-0.01-0.01
			c-0.002-0.003-0.006-0.007-0.01-0.01C57.003,8.587,57,8.583,56.997,8.58c-0.004-0.003-0.007-0.006-0.011-0.01
			c-0.002-0.003-0.006-0.006-0.01-0.009l-0.009-0.01c-0.004-0.003-0.007-0.006-0.01-0.01c-0.004-0.003-0.007-0.006-0.01-0.01
			c-0.003-0.003-0.007-0.006-0.011-0.009c-0.002-0.003-0.006-0.006-0.01-0.01c-0.003-0.003-0.006-0.006-0.009-0.009
			s-0.006-0.006-0.009-0.009c-0.002-0.001-0.004-0.003-0.006-0.005c-0.004-0.004-0.008-0.008-0.012-0.012l-0.006-0.006
			c-0.006-0.005-0.011-0.009-0.015-0.014c-0.005-0.005-0.011-0.009-0.015-0.013s-0.01-0.009-0.014-0.013
			c-0.006-0.005-0.012-0.01-0.017-0.015c-0.013-0.011-0.022-0.021-0.034-0.032l-0.025-0.023c-0.006-0.004-0.011-0.008-0.016-0.013
			c-0.005-0.004-0.01-0.008-0.014-0.012c-0.006-0.004-0.01-0.007-0.014-0.011c-0.004-0.003-0.009-0.006-0.012-0.008
			s-0.006-0.004-0.009-0.006c-0.002-0.002-0.005-0.004-0.007-0.006c-0.004-0.002-0.006-0.004-0.008-0.005
			c-0.004-0.002-0.006-0.004-0.008-0.005c-0.002-0.002-0.006-0.004-0.008-0.005c-0.003-0.002-0.005-0.003-0.007-0.005
			c-0.003-0.002-0.005-0.003-0.007-0.005c-0.003-0.001-0.006-0.003-0.008-0.004s-0.004-0.003-0.006-0.004s-0.004-0.002-0.008-0.004
			c-0.002-0.001-0.004-0.002-0.006-0.003s-0.004-0.002-0.005-0.003L56.525,8.2l0,0c-0.004-0.001-0.006-0.002-0.008-0.003
			s-0.004-0.002-0.006-0.003c-0.004-0.001-0.006-0.002-0.008-0.003c-0.002,0-0.004-0.001-0.006-0.002s-0.005-0.001-0.007-0.002
			c-0.003-0.001-0.007-0.001-0.009-0.002c-0.002,0-0.006,0-0.008,0s-0.004,0-0.007,0.001l-0.042,0.012l-0.263,0.079
			c-0.083,0.025-0.166,0.049-0.249,0.074L55.682,8.42l-0.744,0.222l-0.371,0.111l-0.742,0.221l-0.37,0.11l-0.369,0.11l-0.737,0.22
			l-0.369,0.11l-0.733,0.219l-0.366,0.109L50.514,9.96l-0.729,0.217l-0.322,0.096l-0.361,0.108c-0.004,0-0.006,0.001-0.008,0.003
			c-0.002,0.001-0.002,0.002-0.003,0.003c0,0.001,0,0.002,0.001,0.004c0,0.001,0.001,0.002,0.002,0.003l0.004,0.003
			c0,0.001,0.002,0.002,0.004,0.003s0.004,0.002,0.006,0.003s0.004,0.002,0.006,0.004c0,0,0,0,0.002,0l0.107,0.059
			c0.002,0.001,0.004,0.002,0.006,0.003s0.004,0.002,0.006,0.003c0.004,0.001,0.006,0.002,0.009,0.003s0.006,0.002,0.009,0.003
			s0.006,0.002,0.01,0.004c0.002,0.002,0.006,0.002,0.01,0.004c0.002,0.001,0.006,0.003,0.01,0.004
			c0.004,0.001,0.007,0.002,0.011,0.004l0.022,0.009c0.004,0.001,0.01,0.003,0.014,0.004s0.007,0.002,0.01,0.003l0.012,0.004
			c0.004,0.001,0.008,0.002,0.012,0.004c0.008,0.002,0.016,0.005,0.023,0.008s0.018,0.005,0.025,0.008
			c0.008,0.003,0.018,0.006,0.027,0.009c0.017,0.005,0.033,0.01,0.051,0.016c0.019,0.005,0.037,0.011,0.057,0.016
			c0.012,0.003,0.021,0.006,0.032,0.009c0.006,0.002,0.011,0.003,0.017,0.005l0.029,0.009c0.01,0.002,0.02,0.005,0.029,0.008
			c0.009,0.003,0.021,0.006,0.029,0.008c0.012,0.003,0.021,0.006,0.031,0.009l0.021,0.006c0.007,0.002,0.014,0.004,0.021,0.006
			l0.021,0.006c0.008,0.002,0.016,0.004,0.021,0.006c0.008,0.002,0.016,0.004,0.021,0.006c0.008,0.002,0.016,0.004,0.021,0.006
			c0.008,0.002,0.016,0.004,0.021,0.006c0.009,0.002,0.016,0.004,0.022,0.006s0.015,0.004,0.022,0.006
			c0.007,0.002,0.015,0.004,0.021,0.006c0.008,0.002,0.016,0.004,0.022,0.006s0.015,0.004,0.022,0.006
			c0.006,0.002,0.016,0.004,0.022,0.006l0.022,0.006c0.008,0.002,0.017,0.004,0.023,0.006c0.016,0.003,0.027,0.007,0.043,0.011
			c0.027,0.007,0.059,0.015,0.088,0.022c0.006,0.001,0.016,0.003,0.021,0.005c0.164,0.042,0.348,0.087,0.543,0.134
			c0.068,0.017,0.143,0.034,0.215,0.052c0.128,0.031,0.261,0.062,0.398,0.094c0.069,0.016,0.131,0.031,0.203,0.048
			c0.026,0.006,0.053,0.012,0.08,0.018c0.026,0.006,0.055,0.013,0.08,0.019c0.027,0.006,0.055,0.013,0.082,0.02
			c0.027,0.007,0.057,0.013,0.085,0.02c0.028,0.007,0.058,0.013,0.087,0.02c0.028,0.007,0.059,0.013,0.088,0.02
			c0.029,0.007,0.061,0.014,0.092,0.021c0.031,0.007,0.063,0.015,0.098,0.022c0.009,0.002,0.018,0.004,0.027,0.006
			c0.277,0.065,0.481,0.135,0.648,0.205l0.018,0.007h0.002l0.008,0.003c0.162,0.07,0.291,0.142,0.414,0.211l4.965-1.479
			C58.316,10.175,58.302,10.156,58.288,10.137z"/>
		<path fill="#FBC94B" d="M53.531,11.459l3.52,3.143c-0.007,0.002-0.014,0.006-0.021,0.01l-3.527-3.155L53.531,11.459"/>
		<path fill="#FBC744" d="M53.502,11.456l3.527,3.155c-0.021,0.011-0.043,0.021-0.065,0.031l-3.562-3.2L53.502,11.456"/>
		<path fill="#FAC43D" d="M53.402,11.444l3.562,3.201c-0.021,0.01-0.044,0.021-0.065,0.03l-3.597-3.244L53.402,11.444"/>
		<path fill="#FAC235" d="M53.302,11.431l3.597,3.244c-0.012,0.007-0.025,0.013-0.039,0.019l-3.617-3.271l0,0L53.302,11.431"/>
		<path fill="#FABF2B" d="M53.241,11.422l3.618,3.271c-0.01,0.004-0.021,0.009-0.029,0.014l-3.637-3.292L53.241,11.422"/>
		<path fill="#FABB1F" d="M53.193,11.416l3.637,3.292c-0.01,0.004-0.02,0.009-0.029,0.015l-3.652-3.313L53.193,11.416"/>
		<path fill="#F9B200" d="M53.146,11.409l3.653,3.312c-0.01,0.004-0.021,0.01-0.028,0.014L53.1,11.402L53.146,11.409"/>
		<path fill="#F4AE00" d="M53.102,11.402l3.67,3.333c-0.01,0.004-0.02,0.01-0.028,0.014l-3.688-3.354L53.102,11.402"/>
		
			<linearGradient id="SVGID_29_" gradientUnits="userSpaceOnUse" x1="52.2451" y1="10.0693" x2="53.8683" y2="11.2759" gradientTransform="matrix(1 0 0 -1 0.04 23.1543)">
			<stop  offset="0" style="stop-color:#815D00"/>
			<stop  offset="1" style="stop-color:#EFAB00"/>
		</linearGradient>
		<path fill="url(#SVGID_29_)" d="M57.051,14.602c-1.057-0.942-2.361-2.329-3.52-3.142c-0.006-0.004-0.014-0.002-0.021-0.002
			c-0.527-0.061-0.902-0.14-1.232-0.21c-0.553-0.123-1.057-0.241-1.496-0.347c-0.168-0.041-0.328-0.08-0.475-0.117
			c-0.02-0.004-0.041-0.01-0.061-0.015c-0.172-0.044-0.324-0.083-0.458-0.12c-0.024-0.007-0.047-0.013-0.07-0.02
			c-0.102-0.028-0.188-0.053-0.26-0.076c-0.022-0.007-0.048-0.015-0.067-0.021c-0.078-0.025-0.141-0.048-0.168-0.063l-0.109-0.059
			c-0.008-0.004-0.014-0.008-0.018-0.012l0.19,0.176l0.05,0.045c1.555,1.425,2.318,2.139,2.671,2.469l0.022,0.021l0.162,0.154
			L52.2,13.27l0.257,0.242l0.262,0.238l0.051,0.045l0.18,0.159l0.043,0.038c0.482,0.434,0.968,0.865,1.447,1.304
			c0.008,0.005,0.015,0.011,0.021,0.015l0.107,0.06c0.031,0.017,0.078,0.024,0.137,0.026c0.018,0,0.042-0.004,0.063-0.004
			c0.047-0.002,0.092-0.004,0.149-0.013c0.028-0.004,0.065-0.013,0.099-0.021c0.057-0.01,0.112-0.021,0.178-0.037
			c0.039-0.01,0.084-0.023,0.127-0.036c0.066-0.019,0.133-0.037,0.205-0.06c0.012-0.004,0.021-0.006,0.033-0.011
			c0.045-0.015,0.092-0.03,0.139-0.046c0.035-0.012,0.072-0.025,0.109-0.038c0.004-0.001,0.01-0.003,0.014-0.005
			c0.01-0.003,0.019-0.006,0.027-0.01c0.018-0.006,0.034-0.014,0.053-0.02c0.022-0.009,0.047-0.018,0.07-0.025
			s0.047-0.018,0.069-0.027c0.021-0.007,0.039-0.016,0.058-0.021c0.019-0.008,0.035-0.015,0.053-0.021
			c0.019-0.007,0.035-0.014,0.054-0.021c0.005-0.002,0.01-0.004,0.015-0.006c0.002,0,0.002,0,0.002,0
			c0.012-0.004,0.021-0.009,0.03-0.013c0.015-0.006,0.028-0.012,0.044-0.019c0.016-0.006,0.029-0.012,0.044-0.019
			c0.015-0.006,0.03-0.012,0.045-0.019c0.013-0.006,0.025-0.012,0.038-0.018c0.014-0.005,0.025-0.011,0.039-0.017
			s0.025-0.011,0.039-0.017s0.025-0.012,0.04-0.018c0.012-0.005,0.022-0.01,0.035-0.016c0.011-0.006,0.022-0.01,0.034-0.016
			c0.002,0,0.004-0.002,0.006-0.002c0.008-0.002,0.016-0.007,0.023-0.01c0.002-0.001,0.002-0.002,0.004-0.002
			c0.012-0.005,0.023-0.012,0.035-0.016c0.012-0.006,0.022-0.012,0.034-0.016c0.011-0.006,0.021-0.01,0.029-0.015l-0.001-0.001
			C56.844,14.7,56.947,14.652,57.051,14.602z"/>
		
			<linearGradient id="SVGID_30_" gradientUnits="userSpaceOnUse" x1="64.3066" y1="5.3535" x2="65.8509" y2="5.6262" gradientTransform="matrix(1 0 0 -1 0.04 23.1543)">
			<stop  offset="0.4524" style="stop-color:#FBCA51"/>
			<stop  offset="0.7798" style="stop-color:#FABB1F"/>
			<stop  offset="0.9048" style="stop-color:#F9B200"/>
		</linearGradient>
		<path fill="url(#SVGID_30_)" d="M64.521,18.893c-0.25-1.566-0.586-3.656-0.836-5.224c0.989,0.208,1.666,0.3,1.655,0.231
			c0.209,1.305,0.418,2.608,0.627,3.914c0.167,1.039,0.334,2.08,0.5,3.121l0,0c0.035,0.215,0.081,0.502,0.115,0.719
			C66.561,21.5,64.701,19.018,64.521,18.893z"/>
	</g>
	<g>
		<g enable-background="new    ">
			<g>
				<path fill="#171418" d="M62.037,8.095c0.458-0.064,0.832,0.912,0.83,2.174c-0.004,1.262-0.381,2.344-0.838,2.409
					c-0.457,0.063-0.831-0.913-0.828-2.175C61.203,9.241,61.581,8.159,62.037,8.095z M62.033,10.386
					c0.193-0.027,0.354-0.482,0.354-1.019c0.002-0.536-0.158-0.945-0.351-0.918c-0.192,0.027-0.353,0.482-0.354,1.018
					C61.682,10.003,61.841,10.413,62.033,10.386"/>
			</g>
			<g>
				<path fill="#DFDFDF" d="M62.037,8.449c0.191-0.027,0.352,0.383,0.352,0.918c-0.002,0.536-0.162,0.991-0.354,1.019
					c-0.192,0.027-0.351-0.383-0.351-0.919C61.686,8.931,61.846,8.476,62.037,8.449z"/>
			</g>
		</g>
		<g enable-background="new    ">
			<g>
				<path fill="#DFDFDF" d="M58.721,8.915c0.192-0.027,0.353,0.383,0.352,0.919c-0.002,0.536-0.161,0.991-0.354,1.018
					c-0.192,0.027-0.353-0.383-0.352-0.919S58.529,8.942,58.721,8.915z"/>
			</g>
			<g>
				<path d="M58.723,8.561c0.455-0.064,0.83,0.912,0.827,2.175c-0.002,1.262-0.38,2.344-0.837,2.409
					c-0.456,0.063-0.831-0.913-0.829-2.174C57.887,9.707,58.266,8.625,58.723,8.561z M58.718,10.852
					c0.192-0.027,0.353-0.482,0.354-1.018c0.001-0.536-0.158-0.946-0.352-0.918c-0.191,0.027-0.354,0.482-0.354,1.018
					C58.365,10.469,58.525,10.879,58.718,10.852"/>
			</g>
		</g>
	</g>
</g>
<g id="inactif">
	<path fill="#888A8B" d="M46.716,7.511c0-0.003-0.001-0.006-0.002-0.009s-0.003-0.006-0.004-0.009c0-0.001-0.001-0.001-0.001-0.002
		c-0.001,0-0.001-0.001-0.001-0.002c-0.001-0.001-0.001-0.001-0.002-0.002l-0.001-0.001c-0.002-0.002-0.004-0.005-0.006-0.008
		c-0.002-0.002-0.004-0.005-0.007-0.007C46.691,7.47,46.69,7.47,46.689,7.469c0,0-0.001,0-0.001-0.001
		c-0.001,0-0.002-0.001-0.003-0.002s-0.001-0.001-0.002-0.001c-0.003-0.002-0.006-0.004-0.01-0.006
		c-0.001-0.001-0.003-0.002-0.005-0.003L46.56,7.397c-0.002-0.001-0.004-0.002-0.006-0.003c-0.004-0.002-0.009-0.004-0.013-0.005
		c-0.004-0.002-0.009-0.003-0.013-0.004c-0.001,0-0.002,0-0.003-0.001c-0.01-0.003-0.021-0.005-0.031-0.008
		c-0.006-0.001-0.012-0.001-0.018-0.002c-0.002,0-0.004,0-0.006-0.001c-0.001,0-0.003,0-0.004,0c-0.003,0-0.005,0-0.008-0.001
		c-0.003,0-0.005,0-0.008,0c-0.002,0-0.003,0-0.005,0c-0.009,0-0.018-0.001-0.027-0.001l-0.371-0.006h-0.002h-0.043l-1.268-0.021
		l-0.15-0.002l-0.367-0.006l-0.141-0.002l-1.35-0.023l-0.352-0.006L42.008,7.29l-0.371-0.006l-0.141-0.002l-2.229-0.038l-0.072-0.15
		L39.029,6.75l-0.332-0.684L38.54,5.743l-0.015-0.029l-0.159-0.33l-0.087-0.178L38.1,4.838l-0.064-0.134L37.879,4.38
		c-0.005-0.01-0.01-0.019-0.015-0.029l-0.157-0.325l-0.164-0.338l-0.142-0.291c-0.021-0.044-0.042-0.088-0.063-0.131l-0.122-0.251
		l-0.163-0.336l-0.162-0.335L36.729,2.01l-0.162-0.333l-0.161-0.332L36.262,1.05c-0.06-0.122-0.118-0.244-0.178-0.366
		c-0.001-0.001-0.001-0.001-0.002-0.002c-0.004-0.008-0.008-0.017-0.012-0.024c-0.007-0.014-0.015-0.027-0.023-0.04
		c0-0.001-0.001-0.002-0.001-0.003c-0.001,0-0.001,0-0.001-0.001c-0.009-0.014-0.019-0.027-0.028-0.039
		c-0.011-0.013-0.021-0.024-0.032-0.034c-0.009-0.007-0.017-0.013-0.025-0.017l-0.108-0.059c-0.006-0.003-0.012-0.006-0.018-0.008
		c-0.021-0.007-0.04,0.007-0.06,0.016c-0.008,0.003-0.017-0.003-0.024,0.002c-0.002,0.001-0.004,0.004-0.006,0.006
		c-0.003,0.001-0.007,0-0.01,0.003c-0.02,0.017-0.037,0.055-0.056,0.084c-0.008,0.013-0.016,0.02-0.023,0.036
		c-0.005,0.01-0.011,0.012-0.016,0.023c-0.001,0.001-0.001,0.003-0.002,0.004c0,0.001-0.001,0.002-0.002,0.003l-0.151,0.352
		L35.331,1.34l-0.067,0.157c-0.054,0.126-0.108,0.252-0.162,0.379l-0.08,0.185l-0.125,0.292c-0.06,0.139-0.119,0.278-0.18,0.417
		l-0.01,0.024l-0.008,0.019c-0.148,0.345-0.296,0.69-0.444,1.035l-0.029,0.068L34.189,4c-0.092,0.213-0.183,0.425-0.274,0.638
		l-0.016,0.037l-0.01,0.023c-0.097,0.225-0.193,0.449-0.289,0.674l-0.031,0.072l-0.076,0.179c-0.14,0.324-0.278,0.647-0.417,0.971
		l-0.008,0.017l-0.005,0.011c-0.155,0.362-0.311,0.724-0.467,1.086l-0.035,0.083l-0.163,0.381c-0.163,0.048-0.326,0.097-0.49,0.146
		L31.665,8.39l-0.374,0.111l-0.373,0.111l-0.744,0.222l-0.74,0.221l-0.369,0.11l-0.368,0.11L28.33,9.384l-0.365,0.109l-0.19,0.057
		c-0.109,0.033-0.219,0.065-0.328,0.098L27.236,9.71l-0.362,0.108l-0.36,0.107l-0.296,0.088c-0.103,0.031-0.206,0.062-0.309,0.092
		l-0.112,0.034l-0.356,0.106l-0.352,0.105c-0.001,0-0.002,0-0.002,0c-0.001,0-0.001,0-0.001,0c-0.005,0.001-0.008,0.003-0.011,0.005
		h-0.001l-0.003,0.001c-0.001,0.001,0,0.002-0.001,0.002c-0.001,0.001-0.002,0.003-0.002,0.004s0,0.002,0,0.003v0.001l0.001,0.001
		v0.001c0.001,0.002,0.003,0.004,0.005,0.007c0.001,0,0.002,0.001,0.002,0.002c0.001,0,0.001,0.001,0.002,0.002
		c0.256,0.234,0.481,0.442,0.688,0.631l0.045,0.041l0.063,0.059l0.16,0.147c0.1,0.092,0.206,0.19,0.294,0.271l0.057,0.052
		c0.12,0.111,0.224,0.207,0.323,0.299l0.011,0.01l0.043,0.04c0.426,0.397,0.863,0.809,1.22,1.156l0.112,0.108l0.156,0.148l0.105,0.1
		l0.191,0.175l0.07,0.063l0.004,0.004l0.092,0.08l0.07,0.062l0.096,0.083l0.098,0.085l0.016,0.014
		c0.457,0.404,0.916,0.806,1.368,1.214l-0.053,0.336l-0.011,0.067c-0.393,2.504-0.785,5.008-1.178,7.513c0,0,0,0,0,0.002
		s-0.001,0.002-0.001,0.004c-0.001,0.01-0.003,0.021-0.004,0.031s-0.002,0.021-0.003,0.03c-0.001,0.01-0.002,0.021-0.003,0.028
		c0,0.011-0.001,0.021-0.001,0.029v0.027c0.001,0.009,0.001,0.018,0.002,0.025c0,0.008,0.001,0.018,0.003,0.024
		c0.001,0.005,0.001,0.007,0.002,0.011c0,0.002,0,0.004,0.001,0.004c0,0.004,0,0.006,0.001,0.008
		c0.002,0.008,0.003,0.014,0.005,0.02c0,0.001,0,0.001,0.001,0.002c0,0,0,0,0,0.001c0.002,0.007,0.005,0.015,0.007,0.021
		c0.003,0.007,0.007,0.014,0.01,0.02c0.004,0.006,0.008,0.012,0.012,0.018c0.005,0.006,0.01,0.011,0.015,0.016
		c0.006,0.005,0.012,0.009,0.019,0.014h0.001l0.108,0.059c0.007,0.005,0.014,0.008,0.021,0.01c0.009,0.003,0.018,0.004,0.027,0.005
		c0.006,0,0.013,0,0.019,0c0.002,0,0.003,0.001,0.004,0.001c0.001,0,0.003,0,0.004-0.001c0.002,0,0.004,0,0.006,0
		c0.015-0.001,0.029-0.004,0.044-0.009c0.002,0,0.004-0.002,0.007-0.002c0.001,0,0.001,0,0.002-0.002c0.001,0,0.003,0,0.004,0
		c0.007-0.002,0.015-0.006,0.022-0.008c0.009-0.004,0.019-0.006,0.027-0.01c0.001,0,0.003-0.002,0.004-0.002
		s0.003-0.002,0.004-0.002c0.019-0.009,0.037-0.019,0.057-0.031l0.009-0.006c0.001,0,0.002,0,0.003-0.002
		c0.015-0.009,0.028-0.018,0.044-0.027c0.003-0.002,0.007-0.006,0.01-0.008c0.001,0,0.001,0,0.001,0l0.308-0.217L30.229,23
		l0.225-0.16c0.058-0.041,0.114-0.082,0.172-0.121l0.23-0.164l0.316-0.225l0.187-0.133c0.17-0.12,0.341-0.241,0.512-0.362
		l0.142-0.101c0.023-0.016,0.047-0.033,0.071-0.049c0.045-0.033,0.09-0.064,0.136-0.098l0.24-0.17l0.315-0.225
		c0.018-0.012,0.035-0.024,0.053-0.037l0.285-0.201l0.24-0.17l0.149-0.105l0.271-0.191l0.332-0.235l0.333-0.235l0.334-0.238
		l0.164-0.115l0.137-0.098c0.065-0.045,0.131-0.092,0.197-0.139l0.174-0.123l0.337-0.24l0.256-0.181
		c0.266,0.114,0.532,0.229,0.799,0.343l0.102,0.043l0.121,0.053c0.569,0.244,1.139,0.488,1.708,0.732l0.156,0.067l0.027,0.012
		c0.28,0.12,0.561,0.24,0.84,0.36l0.125,0.054l0.197,0.084c0.152,0.065,0.304,0.13,0.456,0.196c0.443,0.189,0.887,0.38,1.331,0.57
		c0.198,0.086,0.463,0.199,0.661,0.285c0.004,0.002,0.002-0.006,0.006-0.004c0.037,0.012,0.058,0.002,0.052-0.041l0,0l0,0l0,0
		c-0.098-0.609-0.195-1.218-0.293-1.826l-0.006-0.041l-0.01-0.062c-0.035-0.222-0.071-0.442-0.106-0.665
		c-0.072-0.453-0.146-0.906-0.218-1.359l-0.034-0.213l-0.063-0.389l-0.002-0.014c-0.005-0.029-0.01-0.059-0.015-0.088
		c-0.028-0.183-0.058-0.363-0.087-0.545l-0.021-0.135L41.7,15.911l-0.039-0.242c-0.004-0.024-0.008-0.048-0.012-0.071
		c-0.011-0.072-0.022-0.142-0.033-0.213l-0.042-0.261l-0.063-0.396l-0.063-0.396l-0.063-0.388c0.491-0.586,0.981-1.17,1.473-1.755
		l0.16-0.19l0.032-0.039c0.154-0.183,0.309-0.367,0.462-0.55l0.043-0.051l0.267-0.317l0.134-0.16c0.25-0.298,0.5-0.597,0.751-0.895
		l0.166-0.198l0.258-0.308l0.257-0.306l0.244-0.291c0.089-0.106,0.179-0.213,0.268-0.32l0.245-0.291l0.247-0.295l0.245-0.292
		c0.01-0.012,0.007-0.019,0.015-0.03c0.017-0.021,0.034-0.043,0.043-0.062c0.003-0.006,0.013-0.015,0.015-0.021
		c0.002-0.006,0.004-0.011,0.005-0.017c0.002-0.005,0.003-0.011,0.003-0.016c0.001-0.004,0.001-0.008,0.001-0.012v-0.01
		C46.717,7.517,46.717,7.514,46.716,7.511z M33.426,8.996c-0.001,0-0.001-0.001-0.002-0.002c-0.029-0.034-0.058-0.065-0.087-0.099
		c-0.001-0.001-0.003-0.003-0.004-0.005c0.021,0.024,0.042,0.044,0.063,0.069c0,0.001,0.001,0.002,0.002,0.003
		C33.408,8.973,33.416,8.984,33.426,8.996z M33.121,8.663L33.121,8.663c-0.002-0.002-0.003-0.004-0.005-0.006
		C33.118,8.659,33.12,8.661,33.121,8.663z M32.858,8.417c-0.001,0-0.001-0.001-0.002-0.001c-0.002-0.001-0.004-0.003-0.006-0.005
		c-0.001-0.001-0.003-0.002-0.004-0.003c0.002,0.001,0.003,0.002,0.005,0.003l0.003,0.003C32.855,8.415,32.857,8.417,32.858,8.417z
		 M30.86,15.418c0.007,0,0.013,0,0.019,0c0.048,0,0.102-0.006,0.154-0.012c-0.06,0.007-0.12,0.014-0.173,0.014V15.418z
		 M27.127,11.009c0.004,0.001,0.008,0.002,0.013,0.002c0.008,0.002,0.015,0.004,0.022,0.005c-0.005-0.001-0.009-0.002-0.014-0.003
		C27.141,11.012,27.134,11.01,27.127,11.009z M27.534,11.098c-0.001,0-0.001,0-0.002,0c-0.002,0-0.004-0.001-0.006-0.001
		c0.001,0,0.003,0,0.004,0.001c0.006,0.001,0.012,0.002,0.018,0.004C27.543,11.1,27.539,11.099,27.534,11.098z M35.416,17.869
		c0.002,0.013,0.004,0.025,0.007,0.037c-0.002-0.008-0.005-0.018-0.006-0.026C35.416,17.876,35.417,17.873,35.416,17.869z
		 M38.393,7.637c-0.002,0.002-0.004,0.004-0.006,0.006C38.389,7.641,38.391,7.639,38.393,7.637z M38.126,7.993l0.724,0.012
		l0.252,0.519l4.689,0.08l-3.997,4.763l1.028,6.419l-5.438-2.332l-4.258,3.019l0.836-5.338l-4.397-4.03l6.096-1.817l2.392-5.568
		L38.126,7.993z M40.217,13.469c-0.004-0.002-0.008-0.003-0.011-0.004c-0.004-0.001-0.009-0.002-0.013-0.003c0,0,0.001,0,0.002,0
		c0.006,0.001,0.011,0.003,0.016,0.004C40.213,13.466,40.215,13.467,40.217,13.469z M31.103,15.402
		c0.034-0.004,0.065-0.008,0.101-0.016c0.055-0.01,0.113-0.027,0.169-0.041c-0.07,0.018-0.144,0.041-0.211,0.053h-0.003
		C31.138,15.4,31.123,15.398,31.103,15.402z M31.543,15.303c0.006-0.002,0.012-0.004,0.018-0.006c0.001,0,0.001,0,0.002,0
		c-0.002,0-0.003,0.001-0.005,0.002c-0.001,0-0.001,0-0.001,0C31.552,15.3,31.548,15.301,31.543,15.303z"/>
	<path fill="#DFDFDF" d="M38.04,8.449c0.192-0.027,0.352,0.383,0.351,0.918c-0.001,0.536-0.161,0.991-0.354,1.019
		c-0.192,0.027-0.351-0.383-0.35-0.919C37.688,8.931,37.848,8.476,38.04,8.449z"/>
	<path fill="#888A8B" d="M38.04,8.095c0.457-0.064,0.832,0.912,0.829,2.175c-0.002,1.262-0.38,2.343-0.838,2.408
		c-0.464,0.065-0.83-0.912-0.828-2.174C37.205,9.242,37.576,8.16,38.04,8.095z M38.036,10.387c0.193-0.027,0.354-0.482,0.354-1.019
		c0.001-0.535-0.158-0.945-0.352-0.918c-0.191,0.027-0.353,0.482-0.354,1.017C37.685,10.003,37.844,10.414,38.036,10.387"/>
	<path fill="#888A8B" d="M34.725,8.561c0.456-0.064,0.823,0.914,0.82,2.175c-0.002,1.263-0.373,2.343-0.829,2.407
		c-0.465,0.065-0.83-0.912-0.828-2.173C33.89,9.707,34.26,8.626,34.725,8.561z M34.721,10.853c0.191-0.027,0.354-0.482,0.354-1.019
		c0.001-0.535-0.159-0.945-0.351-0.918c-0.201,0.028-0.354,0.482-0.355,1.017C34.368,10.47,34.521,10.881,34.721,10.853"/>
	<path fill="#DFDFDF" d="M34.725,8.915c0.191-0.027,0.352,0.383,0.351,0.919s-0.163,0.991-0.354,1.018
		c-0.2,0.028-0.353-0.383-0.352-0.919C34.37,9.397,34.524,8.943,34.725,8.915z"/>
</g>
<g id="Gris_1_">
	<path fill="#888A8B" d="M94.977,7.455l-0.107-0.059l-0.003-0.001c-0.003-0.001-0.005-0.002-0.007-0.003S94.854,7.39,94.852,7.39
		c-0.002-0.001-0.006-0.001-0.008-0.002c-0.003-0.001-0.006-0.001-0.009-0.002s-0.006-0.001-0.01-0.001
		c-0.005,0-0.009-0.001-0.013-0.001s-0.011,0-0.017-0.001l-1.8-0.031h-0.04l-0.369-0.006l-0.366-0.009l-0.17-0.002l-1.396-0.024
		l-0.282-0.005l-0.74-0.013L89.26,7.287l-0.369-0.006l-0.24-0.004l-0.24-0.004l-0.264-0.005l-0.317-0.005l-0.271-0.005
		c-0.205-0.425-0.412-0.85-0.617-1.274l-0.659-1.362l-0.328-0.679c-0.539-1.114-1.079-2.228-1.618-3.342l0,0
		c-0.002-0.005-0.005-0.01-0.007-0.015c-0.004-0.008-0.009-0.015-0.013-0.021c-0.006-0.007-0.01-0.014-0.016-0.02
		c-0.005-0.007-0.011-0.012-0.016-0.016c-0.004-0.003-0.008-0.005-0.012-0.007l-0.107-0.059c-0.004-0.002-0.007-0.003-0.012-0.004
		c-0.01-0.003-0.021,0.006-0.03,0.011c-0.006,0.003-0.013,0.001-0.019,0.007c-0.019,0.017-0.035,0.044-0.054,0.084
		c-0.3,0.697-0.6,1.393-0.899,2.09l-0.062,0.143L83.08,2.822l-1.957,4.545l-0.02,0.046l-0.039,0.089L80.77,8.188l-0.031,0.009
		l-0.264,0.079c-0.082,0.025-0.166,0.049-0.248,0.074l-0.233,0.069l-0.744,0.222l-0.371,0.111l-0.741,0.221l-0.371,0.11l-0.369,0.11
		l-0.737,0.22l-0.368,0.11l-0.734,0.219l-0.365,0.109L74.824,9.96l-0.729,0.217l-0.322,0.096l-0.362,0.108
		c-0.003,0-0.005,0.001-0.007,0.003c-0.002,0.001-0.002,0.002-0.004,0.003c0,0.001,0,0.002,0.002,0.004c0,0.001,0,0.002,0.002,0.003
		l0.003,0.003l0,0l0.19,0.174l0.049,0.045c1.555,1.425,2.319,2.139,2.672,2.469l0.022,0.022l0.162,0.152l0.009,0.008l0.256,0.24
		l0.262,0.239l0.052,0.045l0.179,0.159l0.043,0.037c0.473,0.426,0.947,0.85,1.418,1.277v0.002l-0.063,0.412l-0.064,0.412
		l-0.026,0.17c-0.047,0.303-0.096,0.606-0.143,0.909L78.4,17.324l-0.064,0.41l-0.027,0.172c-0.024,0.166-0.052,0.33-0.076,0.496
		l-0.023,0.146l-0.046,0.295c-0.056,0.355-0.111,0.711-0.168,1.066l-0.04,0.257l-0.025,0.161c-0.021,0.135-0.041,0.27-0.063,0.404
		l-0.037,0.236l-0.063,0.398l-0.029,0.191c-0.03,0.19-0.062,0.381-0.09,0.57l-0.006,0.031l-0.008,0.049
		c-0.057,0.361-0.113,0.723-0.17,1.084c-0.015,0.098-0.006,0.159,0.03,0.18l0.108,0.059c0.041,0.023,0.121-0.02,0.227-0.105
		c-0.02,0.018-0.043,0.038-0.061,0.051c2.176-1.541,4.353-3.082,6.528-4.623c2.19,0.938,4.382,1.879,6.571,2.818
		c0.023,0.01,0.027-0.005,0.021-0.031c0.002,0,0.006,0.006,0.006,0.008c-0.035-0.217-0.08-0.504-0.115-0.719
		c-0.166-1.041-0.333-2.082-0.5-3.121c-0.209-1.304-0.418-2.606-0.627-3.91c1.339-1.594,1.99-2.373,3.252-3.879
		c0.521-0.623,1.044-1.245,1.566-1.868l0.481-0.577c-0.007,0.008-0.021,0.02-0.028,0.028C94.996,7.532,95.02,7.478,94.977,7.455z
		 M94.884,7.648c-0.03,0.029-0.069,0.062-0.112,0.096C94.814,7.71,94.854,7.678,94.884,7.648z M87.527,8.022
		c-0.016,0.042-0.029,0.084-0.047,0.129C87.498,8.107,87.514,8.064,87.527,8.022z M87.637,7.549c0,0.028-0.005,0.059-0.01,0.09
		C87.632,7.608,87.637,7.577,87.637,7.549z M87.604,7.758c-0.008,0.036-0.018,0.073-0.028,0.112
		C87.587,7.831,87.598,7.794,87.604,7.758z M87.621,7.404c0.007,0.017,0.009,0.04,0.012,0.062
		C87.63,7.443,87.628,7.421,87.621,7.404z M89.518,13.92c0.021,0.001,0.035,0,0.051,0C89.553,13.921,89.538,13.921,89.518,13.92z
		 M89.368,13.909c0.032,0.003,0.062,0.005,0.088,0.007C89.43,13.914,89.4,13.912,89.368,13.909z M89.172,13.884
		c0.047,0.007,0.087,0.013,0.127,0.017C89.259,13.896,89.219,13.891,89.172,13.884z M87.996,13.669
		c0.216,0.045,0.414,0.084,0.596,0.118C88.409,13.753,88.212,13.714,87.996,13.669z M88.652,13.798
		c0.076,0.015,0.147,0.026,0.219,0.039C88.801,13.824,88.729,13.813,88.652,13.798z M88.93,13.848
		c0.062,0.01,0.115,0.018,0.17,0.025C89.045,13.865,88.99,13.855,88.93,13.848z M87.406,8.335c-0.02,0.046-0.037,0.091-0.061,0.139
		C87.368,8.427,87.387,8.381,87.406,8.335z M87.244,8.691c-0.021,0.047-0.044,0.093-0.068,0.142
		C87.2,8.784,87.223,8.738,87.244,8.691z M87.037,9.091c-0.023,0.042-0.044,0.083-0.068,0.125
		C86.993,9.174,87.014,9.133,87.037,9.091z M84.615,2.564c0.015,0.218,0.027,0.449,0.037,0.691
		C84.643,3.013,84.629,2.783,84.615,2.564z M84.673,3.753L84.673,3.753c-0.001-0.015-0.001-0.028-0.002-0.042
		c0.001,0.014,0.002,0.026,0.002,0.04C84.673,3.752,84.673,3.752,84.673,3.753z M84.498,1.324l-0.002-0.01
		C84.497,1.317,84.498,1.321,84.498,1.324z M80.131,15.126C80.131,15.126,80.132,15.126,80.131,15.126
		c0.008-0.002,0.016-0.005,0.021-0.008C80.145,15.121,80.139,15.124,80.131,15.126z M80.939,14.799L80.939,14.799L80.939,14.799z
		 M80.535,14.973c-0.002,0-0.003,0-0.006,0.002h0.002C80.533,14.973,80.534,14.973,80.535,14.973z M79.197,21.746
		c-0.074,0.105-0.146,0.208-0.219,0.307C79.051,21.954,79.123,21.852,79.197,21.746z M78.881,15.369
		c0.031,0.018,0.077,0.023,0.135,0.027C78.958,15.395,78.912,15.387,78.881,15.369z M79.229,15.378
		c0.016-0.002,0.031-0.006,0.049-0.009c-0.07,0.012-0.131,0.02-0.188,0.021C79.133,15.389,79.175,15.387,79.229,15.378z
		 M79.504,15.32c0.04-0.01,0.085-0.022,0.128-0.035c0.065-0.02,0.132-0.037,0.202-0.059c-0.189,0.06-0.355,0.103-0.501,0.131
		C79.389,15.348,79.441,15.336,79.504,15.32z M80.582,19.572c-0.003,0.015-0.005,0.027-0.006,0.037L80.582,19.572z M81.234,8.506
		c0.002,0.002,0.006,0.006,0.008,0.009c-0.001-0.001-0.001-0.002-0.002-0.002C81.238,8.51,81.236,8.508,81.234,8.506z M81.415,8.695
		c0.058,0.063,0.119,0.131,0.183,0.203c0.008,0.007,0.014,0.015,0.021,0.022c0.01,0.011,0.021,0.023,0.03,0.034
		c0.05,0.058,0.103,0.12,0.156,0.183c0.018,0.022,0.037,0.046,0.057,0.068c-0.17-0.204-0.332-0.389-0.471-0.538
		c0.002,0.002,0.004,0.004,0.006,0.006C81.402,8.681,81.409,8.688,81.415,8.695z M76.587,11.247c-0.002,0-0.003-0.001-0.004-0.001
		C76.584,11.246,76.585,11.246,76.587,11.247C76.586,11.247,76.587,11.247,76.587,11.247z M74.617,10.783
		c-0.02-0.004-0.041-0.01-0.061-0.015c-0.01-0.002-0.016-0.004-0.024-0.007c0.157,0.04,0.331,0.083,0.519,0.128
		c0.04,0.01,0.083,0.02,0.125,0.03c-0.025-0.006-0.058-0.014-0.084-0.02C74.924,10.859,74.764,10.82,74.617,10.783z M78.866,22.207
		c-0.069,0.094-0.138,0.184-0.202,0.27C78.729,22.391,78.797,22.301,78.866,22.207z M78.57,22.598
		c-0.079,0.104-0.155,0.198-0.229,0.286C78.415,22.796,78.491,22.7,78.57,22.598z M78.307,22.928
		c-0.084,0.104-0.164,0.193-0.236,0.271C78.143,23.121,78.223,23.029,78.307,22.928z M77.879,23.387
		c0.047-0.041,0.1-0.094,0.156-0.152C77.979,23.293,77.926,23.346,77.879,23.387z M79.307,21.591c0.111-0.159,0.226-0.325,0.342-0.5
		c0,0.001,0,0.001,0,0.001C79.531,21.266,79.418,21.432,79.307,21.591z M84.413,18.734c0.005-0.01,0.011-0.023,0.017-0.034
		C84.424,18.711,84.419,18.727,84.413,18.734z M84.48,18.57c0.008-0.021,0.015-0.049,0.021-0.071
		C84.495,18.523,84.488,18.549,84.48,18.57z M84.542,18.34c0.007-0.029,0.013-0.063,0.021-0.096
		C84.555,18.277,84.549,18.309,84.542,18.34z M84.596,18.047c0.004-0.035,0.01-0.072,0.014-0.109
		C84.604,17.975,84.6,18.012,84.596,18.047z M84.637,17.695c0.002-0.037,0.006-0.073,0.01-0.112
		C84.643,17.622,84.639,17.658,84.637,17.695z M84.664,17.284c0.002-0.034,0.004-0.065,0.006-0.101
		C84.668,17.219,84.666,17.25,84.664,17.284z M89.611,13.919c0.011-0.001,0.016-0.004,0.021-0.006
		C89.627,13.915,89.622,13.917,89.611,13.919z M92.73,8.979c-0.002,0-0.002,0.001-0.004,0.001c0.002,0,0.004-0.002,0.006-0.003
		c0.178-0.095,0.346-0.187,0.506-0.276C93.077,8.791,92.909,8.883,92.73,8.979z M94.163,8.161c0.116-0.073,0.224-0.142,0.317-0.205
		C94.387,8.02,94.279,8.088,94.163,8.161z M93.313,8.66c0.129-0.073,0.254-0.143,0.371-0.211C93.564,8.517,93.441,8.587,93.313,8.66
		z M93.781,8.392c0.107-0.064,0.21-0.125,0.306-0.184C93.991,8.267,93.891,8.328,93.781,8.392z M94.716,7.788
		c-0.067,0.051-0.144,0.106-0.233,0.167C94.572,7.895,94.648,7.839,94.716,7.788z"/>
	<g opacity="0.5">
		<g enable-background="new    ">
			<g>
				<path fill="#171418" d="M86.348,8.095c0.459-0.064,0.832,0.912,0.83,2.174c-0.003,1.262-0.381,2.344-0.838,2.409
					c-0.457,0.063-0.831-0.913-0.828-2.175C85.514,9.241,85.893,8.159,86.348,8.095z M86.344,10.386
					c0.193-0.027,0.354-0.482,0.354-1.019c0.001-0.536-0.158-0.945-0.351-0.918c-0.193,0.027-0.354,0.482-0.354,1.018
					C85.992,10.003,86.15,10.413,86.344,10.386"/>
			</g>
			<g>
				<path fill="#DFDFDF" d="M86.348,8.449c0.192-0.027,0.353,0.383,0.352,0.918c-0.001,0.536-0.161,0.991-0.354,1.019
					c-0.193,0.027-0.352-0.383-0.351-0.919C85.995,8.931,86.154,8.476,86.348,8.449z"/>
			</g>
		</g>
		<g enable-background="new    ">
			<g>
				<path fill="#DFDFDF" d="M83.031,8.915c0.191-0.027,0.352,0.383,0.351,0.919s-0.161,0.991-0.354,1.018
					c-0.192,0.027-0.353-0.383-0.352-0.919C82.678,9.397,82.84,8.942,83.031,8.915z"/>
			</g>
			<g>
				<path d="M83.032,8.561c0.456-0.064,0.831,0.912,0.827,2.175c-0.002,1.262-0.379,2.344-0.836,2.409
					c-0.457,0.063-0.832-0.913-0.83-2.174C82.197,9.707,82.576,8.625,83.032,8.561z M83.027,10.852
					c0.193-0.027,0.354-0.482,0.354-1.018s-0.157-0.946-0.351-0.918c-0.191,0.027-0.354,0.482-0.354,1.018
					C82.676,10.469,82.836,10.879,83.027,10.852"/>
			</g>
		</g>
	</g>
</g>
</svg>
