<?xml version="1.0" standalone="no"?>
<!DOCTYPE svg PUBLIC "-//W3C//DTD SVG 20010904//EN"
 "http://www.w3.org/TR/2001/REC-SVG-20010904/DTD/svg10.dtd">
<svg version="1.0" xmlns="http://www.w3.org/2000/svg"
 width="3047.000000pt" height="1000.000000pt" viewBox="0 0 3047.000000 1000.000000"
 preserveAspectRatio="xMidYMid meet">

<g transform="translate(0.000000,1000.000000) scale(0.100000,-0.100000)"
fill="#000000" stroke="none">
<path d="M6726 6994 c-63 -20 -146 -101 -164 -160 -19 -66 -15 -124 14 -182
48 -97 136 -144 267 -144 168 1 273 89 285 237 4 56 1 72 -23 120 -32 65 -83
108 -158 130 -63 19 -157 18 -221 -1z"/>
<path d="M18750 6555 c0 -168 -2 -305 -5 -305 -3 0 -25 15 -50 34 -125 96
-345 120 -535 60 -210 -66 -374 -241 -431 -461 -28 -109 -28 -297 0 -406 65
-250 250 -432 491 -483 77 -16 216 -18 291 -4 73 14 167 60 218 105 l41 37 0
-66 0 -66 225 0 225 0 0 930 0 930 -235 0 -235 0 0 -305z m-154 -583 c55 -28
119 -102 138 -159 23 -68 21 -208 -4 -275 -44 -117 -131 -178 -257 -178 -122
0 -194 43 -245 148 -31 62 -33 73 -33 172 0 89 4 113 24 158 29 64 97 127 160
147 62 20 164 14 217 -13z"/>
<path d="M2010 5875 l0 -875 250 0 250 0 0 230 0 230 218 0 c235 1 319 11 440
53 103 36 176 81 252 157 116 115 170 251 170 431 0 342 -213 574 -583 634
-72 12 -191 15 -544 15 l-453 0 0 -875z m925 464 c22 -8 61 -34 87 -59 56 -54
72 -105 65 -203 -6 -95 -42 -151 -122 -192 -58 -30 -59 -30 -257 -33 l-198 -4
0 257 0 257 193 -5 c127 -3 205 -9 232 -18z"/>
<path d="M11838 5892 c-208 -471 -380 -865 -384 -875 -6 -16 8 -17 246 -15
l252 3 66 165 67 165 372 3 371 2 68 -170 68 -170 258 0 258 0 -26 58 c-13 31
-188 425 -387 875 l-361 817 -246 0 -245 -1 -377 -857z m732 91 l109 -268
-216 -3 c-119 -1 -218 -1 -220 2 -2 2 45 125 104 274 59 149 109 269 111 267
2 -2 52 -124 112 -272z"/>
<path d="M10570 6485 l0 -175 -100 0 -100 0 0 -180 0 -180 99 0 99 0 4 -302
c4 -277 6 -308 25 -359 55 -149 170 -247 333 -287 128 -31 324 -23 434 19 92
34 91 23 26 204 -32 88 -62 159 -67 158 -4 -1 -28 -10 -53 -19 -56 -20 -132
-14 -168 13 -53 39 -57 58 -60 326 l-3 247 156 0 155 0 0 180 0 180 -155 0
-155 0 0 175 0 175 -235 0 -235 0 0 -175z"/>
<path d="M4544 6360 c-92 -24 -165 -61 -220 -112 l-44 -41 0 77 0 76 -230 0
-230 0 2 -677 3 -678 235 0 235 0 5 370 5 370 30 60 c54 108 147 155 307 155
l88 0 0 210 0 210 -57 -1 c-32 0 -90 -9 -129 -19z"/>
<path d="M5445 6373 c-227 -32 -441 -175 -539 -363 -103 -195 -103 -454 1
-653 44 -86 168 -214 255 -266 131 -76 332 -120 493 -107 127 11 212 34 324
88 87 42 116 62 180 126 85 86 147 191 177 302 24 89 24 281 0 370 -69 256
-281 441 -564 496 -68 13 -255 17 -327 7z m271 -397 c105 -49 159 -150 158
-296 -1 -138 -49 -232 -145 -284 -142 -78 -315 -23 -386 122 -26 52 -28 67
-28 167 0 100 2 115 27 161 31 59 102 126 150 141 62 20 168 15 224 -11z"/>
<path d="M7860 6365 c-343 -77 -560 -339 -560 -674 0 -125 20 -216 70 -316 91
-184 260 -311 488 -367 123 -31 361 -30 477 1 112 29 216 83 280 144 l54 52
-124 129 -124 129 -36 -27 c-75 -58 -142 -80 -251 -84 -118 -5 -188 11 -252
58 -42 30 -85 86 -97 128 l-6 22 490 0 489 0 7 66 c9 79 -8 225 -36 308 -32
96 -77 165 -158 247 -82 82 -185 141 -306 174 -85 24 -319 29 -405 10z m305
-344 c60 -27 101 -66 129 -123 47 -94 64 -88 -249 -88 -213 0 -275 3 -275 13
1 20 39 99 65 133 14 18 48 44 77 58 43 22 65 26 132 26 57 0 93 -6 121 -19z"/>
<path d="M9508 6370 c-251 -45 -452 -190 -550 -396 -56 -120 -74 -302 -43
-449 51 -245 256 -445 526 -514 283 -72 586 -6 754 166 45 47 124 169 113 177
-1 2 -84 45 -182 96 l-180 93 -15 -24 c-8 -13 -38 -47 -66 -76 -39 -40 -63
-55 -109 -68 -159 -46 -317 38 -362 192 -24 83 -16 212 18 278 54 104 137 154
256 155 111 0 183 -38 245 -130 l33 -48 181 94 c208 108 198 93 127 200 -72
109 -204 199 -349 239 -69 19 -322 29 -397 15z"/>
<path d="M14314 6360 c-92 -24 -165 -61 -220 -112 l-44 -41 0 77 0 76 -230 0
-230 0 2 -677 3 -678 235 0 235 0 5 370 5 370 30 60 c54 108 147 155 307 155
l88 0 0 210 0 210 -57 -1 c-32 0 -90 -9 -129 -19z"/>
<path d="M15208 6370 c-251 -45 -452 -190 -550 -396 -56 -120 -74 -302 -43
-449 51 -245 256 -445 526 -514 283 -72 586 -6 754 166 45 47 124 169 113 177
-1 2 -84 45 -182 96 l-180 93 -15 -24 c-8 -13 -38 -47 -66 -76 -39 -40 -63
-55 -109 -68 -159 -46 -317 38 -362 192 -24 83 -16 212 18 278 54 104 137 154
256 155 111 0 183 -38 245 -130 l33 -48 181 94 c208 108 198 93 127 200 -72
109 -204 199 -349 239 -69 19 -322 29 -397 15z"/>
<path d="M16555 6364 c-114 -20 -208 -50 -302 -95 l-83 -39 82 -164 82 -165
25 18 c96 67 244 106 374 98 141 -9 223 -64 245 -164 l10 -43 -132 0 c-342 -1
-514 -39 -629 -140 -136 -120 -148 -367 -25 -522 164 -208 623 -223 778 -26
l40 50 0 -86 0 -86 220 0 220 0 0 430 c0 475 -5 529 -60 646 -73 152 -221 252
-430 290 -96 17 -312 16 -415 -2z m435 -859 c0 -72 -17 -111 -68 -157 -95 -85
-255 -86 -321 -2 -29 36 -29 112 0 148 42 53 82 63 262 65 l127 1 0 -55z"/>
<path d="M20000 6365 c-343 -77 -560 -339 -560 -674 0 -125 20 -216 70 -316
91 -184 260 -311 488 -367 123 -31 361 -30 477 1 112 29 216 83 280 144 l54
52 -124 129 -124 129 -36 -27 c-75 -58 -142 -80 -251 -84 -118 -5 -188 11
-252 58 -42 30 -85 86 -97 128 l-6 22 490 0 489 0 7 66 c9 79 -8 225 -36 308
-32 96 -77 165 -158 247 -82 82 -185 141 -306 174 -85 24 -319 29 -405 10z
m305 -344 c60 -27 101 -66 129 -123 47 -94 64 -88 -249 -88 -213 0 -275 3
-275 13 1 20 39 99 65 133 14 18 48 44 77 58 43 22 65 26 132 26 57 0 93 -6
121 -19z"/>
<path d="M6607 6354 c-4 -4 -7 -316 -7 -693 0 -669 0 -686 -20 -727 -35 -72
-112 -92 -216 -56 l-52 18 -57 -164 c-68 -192 -72 -177 58 -213 98 -27 288
-32 377 -10 149 36 270 131 330 256 58 122 60 157 58 910 l-3 680 -231 3
c-127 1 -233 -1 -237 -4z"/>
<path d="M5146 2978 c-20 -57 -94 -267 -165 -468 l-128 -365 40 -3 c21 -2 41
-1 44 2 3 2 67 184 144 403 77 219 150 428 164 466 l25 67 -44 0 -44 0 -36
-102z"/>
<path d="M5426 2978 c-20 -57 -94 -267 -165 -468 l-128 -365 40 -3 c21 -2 41
-1 44 2 3 2 67 184 144 403 77 219 150 428 164 466 l25 67 -44 0 -44 0 -36
-102z"/>
<path d="M7272 2988 c-46 -23 -37 -101 13 -114 76 -19 120 83 49 114 -29 14
-32 14 -62 0z"/>
<path d="M2010 2610 l0 -370 50 0 50 0 0 168 c0 196 8 222 80 260 85 43 178
20 211 -52 16 -35 19 -67 19 -208 l0 -168 45 0 45 0 0 189 c0 187 0 189 -28
242 -20 39 -38 58 -71 76 -80 42 -226 26 -284 -31 -16 -16 -17 -10 -17 123 l0
141 -50 0 -50 0 0 -370z"/>
<path d="M11710 2840 c0 -77 -4 -140 -8 -140 -5 0 -17 9 -27 20 -54 60 -214
68 -301 15 -161 -100 -160 -361 0 -460 42 -26 61 -30 131 -33 89 -4 125 7 178
56 l27 26 0 -42 0 -42 45 0 45 0 0 370 0 370 -45 0 -45 0 0 -140z m-76 -184
c85 -65 99 -194 29 -277 -97 -114 -294 -54 -310 95 -8 66 4 112 40 153 43 49
80 64 149 60 43 -2 65 -10 92 -31z"/>
<path d="M13230 2610 l0 -370 50 0 50 0 0 168 c0 196 8 222 80 260 85 43 178
20 211 -52 16 -35 19 -67 19 -208 l0 -168 45 0 45 0 0 189 c0 187 0 189 -28
242 -20 39 -38 58 -71 76 -80 42 -226 26 -284 -31 -16 -16 -17 -10 -17 123 l0
141 -50 0 -50 0 0 -370z"/>
<path d="M14930 2840 c0 -77 -4 -140 -8 -140 -5 0 -17 9 -27 20 -54 60 -214
68 -301 15 -161 -100 -160 -361 0 -460 42 -26 61 -30 131 -33 89 -4 125 7 178
56 l27 26 0 -42 0 -42 45 0 45 0 0 370 0 370 -45 0 -45 0 0 -140z m-76 -184
c85 -65 99 -194 29 -277 -97 -114 -294 -54 -310 95 -8 66 4 112 40 153 43 49
80 64 149 60 43 -2 65 -10 92 -31z"/>
<path d="M17197 2936 c-93 -26 -174 -122 -198 -235 -18 -87 -7 -227 23 -292
54 -119 134 -174 253 -173 122 0 210 64 257 184 17 45 21 76 21 170 0 130 -18
195 -74 263 -62 75 -183 111 -282 83z m153 -98 c37 -19 51 -34 75 -83 28 -55
30 -68 30 -165 0 -97 -2 -110 -30 -165 -24 -48 -39 -64 -75 -83 -90 -46 -190
-9 -233 87 -29 64 -35 208 -13 284 37 127 139 179 246 125z"/>
<path d="M2710 2825 l0 -55 -45 0 -45 0 0 -40 0 -40 45 0 45 0 0 -175 c0 -196
6 -221 63 -255 23 -14 50 -20 95 -20 62 0 128 22 118 39 -3 4 -10 21 -16 36
-9 23 -13 25 -25 15 -8 -7 -34 -13 -56 -14 -33 -1 -46 5 -65 27 -23 27 -24 34
-24 188 l0 159 75 0 75 0 0 40 0 40 -75 0 -75 0 0 55 0 55 -45 0 -45 0 0 -55z"/>
<path d="M3110 2825 l0 -55 -45 0 -45 0 0 -40 0 -40 45 0 45 0 0 -175 c0 -196
6 -221 63 -255 23 -14 50 -20 95 -20 62 0 128 22 118 39 -3 4 -10 21 -16 36
-9 23 -13 25 -25 15 -8 -7 -34 -13 -56 -14 -33 -1 -46 5 -65 27 -23 27 -24 34
-24 188 l0 159 75 0 75 0 0 40 0 40 -75 0 -75 0 0 55 0 55 -45 0 -45 0 0 -55z"/>
<path d="M8740 2825 l0 -55 -45 0 -45 0 0 -40 0 -40 45 0 45 0 0 -175 c0 -196
6 -221 63 -255 23 -14 50 -20 95 -20 62 0 128 22 118 39 -3 4 -10 21 -16 36
-9 23 -13 25 -25 15 -8 -7 -34 -13 -56 -14 -33 -1 -46 5 -65 27 -23 27 -24 34
-24 188 l0 159 75 0 75 0 0 40 0 40 -75 0 -75 0 0 55 0 55 -45 0 -45 0 0 -55z"/>
<path d="M12840 2825 l0 -55 -45 0 -45 0 0 -40 0 -40 45 0 45 0 0 -175 c0
-196 6 -221 63 -255 23 -14 50 -20 95 -20 62 0 128 22 118 39 -3 4 -10 21 -16
36 -9 23 -13 25 -25 15 -8 -7 -34 -13 -56 -14 -33 -1 -46 5 -65 27 -23 27 -24
34 -24 188 l0 159 75 0 75 0 0 40 0 40 -75 0 -75 0 0 55 0 55 -45 0 -45 0 0
-55z"/>
<path d="M3510 2410 l0 -360 50 0 50 0 0 130 0 130 46 -33 c40 -28 55 -32 123
-35 97 -5 165 21 217 81 82 96 84 262 4 359 -86 104 -279 120 -372 31 l-28
-27 0 42 0 42 -45 0 -45 0 0 -360z m360 258 c60 -31 90 -83 90 -161 0 -110
-58 -178 -161 -185 -128 -9 -211 90 -187 226 20 118 146 176 258 120z"/>
<path d="M4253 2759 c-120 -35 -151 -198 -49 -255 22 -13 76 -29 120 -38 102
-18 132 -30 145 -55 16 -28 -3 -69 -36 -82 -42 -16 -170 -6 -224 18 l-46 20
-19 -34 c-18 -35 -18 -35 1 -49 36 -27 118 -44 205 -44 69 0 94 4 130 23 112
56 122 189 19 243 -17 8 -71 24 -121 34 -50 11 -102 27 -115 35 -32 22 -31 67
3 94 36 28 150 29 210 2 l41 -19 17 35 c9 19 14 38 11 43 -20 32 -215 51 -292
29z"/>
<path d="M4666 2754 c-11 -11 -16 -29 -14 -52 4 -46 42 -72 85 -56 37 13 53
56 32 92 -18 33 -77 43 -103 16z"/>
<path d="M5540 2410 l0 -360 50 0 50 0 0 130 0 130 46 -33 c40 -28 55 -32 123
-35 97 -5 165 21 217 81 82 96 84 262 4 359 -86 104 -279 120 -372 31 l-28
-27 0 42 0 42 -45 0 -45 0 0 -360z m360 258 c60 -31 90 -83 90 -161 0 -110
-58 -178 -161 -185 -128 -9 -211 90 -187 226 20 118 146 176 258 120z"/>
<path d="M6220 2505 l0 -265 50 0 50 0 0 163 c0 134 3 168 18 196 23 47 61 72
116 78 l46 6 0 43 c0 42 -1 44 -30 44 -41 0 -99 -25 -132 -57 l-28 -27 0 42 0
42 -45 0 -45 0 0 -265z"/>
<path d="M6725 2746 c-59 -27 -117 -88 -136 -142 -19 -56 -17 -151 4 -206 21
-53 87 -119 143 -143 22 -9 67 -15 114 -15 66 0 86 4 131 28 91 47 139 129
139 237 0 108 -48 190 -139 237 -72 38 -181 40 -256 4z m198 -70 c97 -40 135
-187 73 -278 -34 -50 -70 -71 -130 -76 -130 -11 -218 95 -192 233 8 42 58 103
101 121 39 17 107 17 148 0z"/>
<path d="M7260 2485 c0 -315 -5 -348 -55 -361 -25 -6 -63 -2 -95 10 -11 5 -19
-3 -27 -25 -15 -40 -12 -46 35 -59 94 -26 177 2 211 72 20 42 21 58 21 346 l0
302 -45 0 -45 0 0 -285z"/>
<path d="M7619 2742 c-148 -76 -182 -298 -66 -421 53 -56 119 -81 212 -81 63
0 91 5 130 24 73 33 82 48 55 85 l-21 31 -41 -27 c-57 -38 -149 -44 -212 -13
-49 23 -80 59 -91 103 l-7 27 216 0 216 0 0 38 c0 101 -60 201 -145 241 -69
32 -176 30 -246 -7z m229 -79 c33 -25 58 -61 66 -95 l6 -28 -170 0 c-155 0
-170 2 -170 18 0 23 37 83 63 102 55 40 154 41 205 3z"/>
<path d="M8255 2746 c-59 -27 -117 -88 -136 -142 -7 -22 -13 -66 -13 -99 0
-33 6 -77 13 -99 19 -54 77 -115 136 -142 106 -50 266 -22 323 55 l21 29 -36
22 -36 21 -26 -25 c-69 -66 -186 -61 -253 10 -34 37 -48 74 -48 129 0 55 14
92 48 129 67 72 184 76 254 9 l27 -25 35 22 36 22 -20 28 c-11 16 -43 40 -72
54 -71 36 -180 37 -253 2z"/>
<path d="M9196 2750 c-73 -28 -82 -40 -61 -79 9 -18 19 -31 23 -29 68 36 93
43 164 43 67 0 79 -3 102 -24 27 -25 52 -94 41 -111 -4 -6 -58 -10 -124 -10
-103 0 -123 -3 -161 -23 -76 -40 -103 -131 -57 -197 39 -58 70 -74 152 -78 89
-5 110 -1 158 32 l37 25 0 -29 c0 -29 2 -30 45 -30 l45 0 0 188 c-1 241 -14
281 -105 323 -56 26 -192 25 -259 -1z m272 -305 c9 -72 -65 -135 -155 -135
-91 0 -137 48 -109 114 19 45 52 55 171 53 l90 -2 3 -30z"/>
<path d="M9740 2505 l0 -265 50 0 50 0 0 163 c0 134 3 168 18 196 23 47 61 72
116 78 l46 6 0 43 c0 42 -1 44 -30 44 -41 0 -99 -25 -132 -57 l-28 -27 0 42 0
42 -45 0 -45 0 0 -265z"/>
<path d="M10235 2746 c-59 -27 -117 -88 -136 -142 -7 -22 -13 -66 -13 -99 0
-33 6 -77 13 -99 19 -54 77 -115 136 -142 106 -50 266 -22 323 55 l21 29 -36
22 -36 21 -26 -25 c-69 -66 -186 -61 -253 10 -34 37 -48 74 -48 129 0 55 14
92 48 129 67 72 184 76 254 9 l27 -25 35 22 36 22 -20 28 c-11 16 -43 40 -72
54 -71 36 -180 37 -253 2z"/>
<path d="M10766 2750 c-73 -28 -82 -40 -61 -79 9 -18 19 -31 23 -29 68 36 93
43 164 43 67 0 79 -3 102 -24 27 -25 52 -94 41 -111 -4 -6 -58 -10 -124 -10
-103 0 -123 -3 -161 -23 -76 -40 -103 -131 -57 -197 39 -58 70 -74 152 -78 89
-5 110 -1 158 32 l37 25 0 -29 c0 -29 2 -30 45 -30 l45 0 0 188 c-1 241 -14
281 -105 323 -56 26 -192 25 -259 -1z m272 -305 c9 -72 -65 -135 -155 -135
-91 0 -137 48 -109 114 19 45 52 55 171 53 l90 -2 3 -30z"/>
<path d="M12079 2742 c-148 -76 -182 -298 -66 -421 53 -56 119 -81 212 -81 63
0 91 5 130 24 73 33 82 48 55 85 l-21 31 -41 -27 c-57 -38 -149 -44 -212 -13
-49 23 -80 59 -91 103 l-7 27 216 0 216 0 0 38 c0 101 -60 201 -145 241 -69
32 -176 30 -246 -7z m229 -79 c33 -25 58 -61 66 -95 l6 -28 -170 0 c-155 0
-170 2 -170 18 0 23 37 83 63 102 55 40 154 41 205 3z"/>
<path d="M13999 2742 c-148 -76 -182 -298 -66 -421 53 -56 119 -81 212 -81 63
0 91 5 130 24 73 33 82 48 55 85 l-21 31 -41 -27 c-57 -38 -149 -44 -212 -13
-49 23 -80 59 -91 103 l-7 27 216 0 216 0 0 38 c0 101 -60 201 -145 241 -69
32 -176 30 -246 -7z m229 -79 c33 -25 58 -61 66 -95 l6 -28 -170 0 c-155 0
-170 2 -170 18 0 23 37 83 63 102 55 40 154 41 205 3z"/>
<path d="M15266 2750 c-73 -28 -82 -40 -61 -79 9 -18 19 -31 23 -29 68 36 93
43 164 43 67 0 79 -3 102 -24 27 -25 52 -94 41 -111 -4 -6 -58 -10 -124 -10
-103 0 -123 -3 -161 -23 -76 -40 -103 -131 -57 -197 39 -58 70 -74 152 -78 89
-5 110 -1 158 32 l37 25 0 -29 c0 -29 2 -30 45 -30 l45 0 0 188 c-1 241 -14
281 -105 323 -56 26 -192 25 -259 -1z m272 -305 c9 -72 -65 -135 -155 -135
-91 0 -137 48 -109 114 19 45 52 55 171 53 l90 -2 3 -30z"/>
<path d="M15709 2748 c5 -13 57 -131 115 -262 96 -217 105 -242 96 -270 -28
-84 -98 -117 -165 -77 l-36 21 -19 -33 c-25 -41 -26 -39 10 -61 82 -48 205
-24 254 51 20 30 147 311 277 611 l18 42 -47 0 -47 0 -90 -210 c-49 -115 -92
-206 -96 -202 -3 4 -45 98 -94 210 l-88 202 -48 0 c-46 0 -48 -1 -40 -22z"/>
<path d="M16434 2746 c-160 -74 -191 -299 -58 -416 56 -49 99 -64 184 -64 78
0 121 15 168 57 l22 20 0 -47 c0 -94 -44 -149 -132 -168 -46 -10 -67 -9 -122
5 -37 9 -81 26 -97 38 -17 12 -31 20 -33 18 -46 -63 -49 -70 -30 -84 51 -39
128 -58 234 -59 99 -1 108 1 160 30 46 25 60 40 85 90 l30 59 3 273 4 272 -46
0 -46 0 0 -42 0 -42 -27 27 c-43 40 -94 57 -175 57 -56 0 -85 -6 -124 -24z
m250 -89 c20 -16 43 -42 52 -59 21 -40 21 -116 1 -155 -21 -39 -71 -81 -105
-89 -15 -3 -35 -7 -45 -9 -34 -7 -118 22 -147 50 -57 54 -66 161 -20 225 53
74 190 93 264 37z"/>
<path d="M17700 2505 l0 -265 50 0 50 0 0 168 c0 196 8 222 80 260 85 43 178
20 211 -52 16 -35 19 -67 19 -208 l0 -168 45 0 45 0 0 189 c0 187 0 189 -28
242 -37 72 -88 99 -187 99 -56 0 -82 -5 -123 -26 -29 -14 -52 -30 -52 -35 0
-5 -4 -9 -10 -9 -5 0 -10 16 -10 35 0 35 0 35 -45 35 l-45 0 0 -265z"/>
<path d="M18469 2742 c-148 -76 -182 -298 -66 -421 53 -56 119 -81 212 -81 63
0 91 5 130 24 73 33 82 48 55 85 l-21 31 -41 -27 c-57 -38 -149 -44 -212 -13
-49 23 -80 59 -91 103 l-7 27 216 0 216 0 0 38 c0 101 -60 201 -145 241 -69
32 -176 30 -246 -7z m229 -79 c33 -25 58 -61 66 -95 l6 -28 -170 0 c-155 0
-170 2 -170 18 0 23 37 83 63 102 55 40 154 41 205 3z"/>
<path d="M19220 2505 l0 -265 50 0 50 0 0 163 c0 134 3 168 18 196 23 47 61
72 116 78 l46 6 0 43 c0 42 -1 44 -30 44 -41 0 -99 -25 -132 -57 l-28 -27 0
42 0 42 -45 0 -45 0 0 -265z"/>
<path d="M19630 2582 c0 -180 1 -190 25 -238 37 -74 80 -98 180 -102 85 -4
142 13 174 52 21 25 31 19 31 -19 0 -34 1 -35 40 -35 l40 0 0 265 0 265 -44 0
-44 0 -4 -174 c-3 -190 -7 -202 -70 -249 -38 -28 -116 -34 -163 -11 -64 30
-75 69 -75 267 l0 167 -45 0 -45 0 0 -188z"/>
<path d="M4672 2354 c-15 -10 -22 -25 -22 -49 0 -43 22 -65 65 -65 58 0 86 69
45 110 -24 24 -57 26 -88 4z"/>
<path d="M12582 2354 c-15 -10 -22 -25 -22 -49 0 -43 22 -65 65 -65 58 0 86
69 45 110 -24 24 -57 26 -88 4z"/>
<path d="M18972 2354 c-15 -10 -22 -25 -22 -49 0 -43 22 -65 65 -65 58 0 86
69 45 110 -24 24 -57 26 -88 4z"/>
</g>
</svg>
