<svg xmlns="http://www.w3.org/2000/svg" height="80.739" width="471.71" xml:space="preserve">
    <defs>
        <clipPath id="a" clipPathUnits="userSpaceOnUse">
            <path d="M0 64.592h377.368V0H0v64.592Z"/>
        </clipPath>
    </defs>
    <g clip-path="url(#a)" transform="matrix(1.25 0 0 -1.25 0 80.74)">
        <path style="fill:#0c4c8a;fill-opacity:1;fill-rule:nonzero;stroke:none" d="M0 0h-259.211l3.001-2.911H3L0 0Z" transform="translate(362.28 17.922)"/>
        <path style="fill:#e5e2e1;fill-opacity:1;fill-rule:nonzero;stroke:none" d="M0 0h-259.211l3.001-2.911H3L0 0Z" transform="translate(366.207 13.665)"/>
    </g>
    <text xml:space="preserve" style="font-style:normal;font-variant:normal;font-weight:400;font-stretch:normal;font-size:33.03963852px;line-height:1.25;font-family:Pixeled;-inkscape-font-specification:Pixeled;letter-spacing:0;word-spacing:0;fill:#000;fill-opacity:1;stroke:none;stroke-width:.82599097" x="119.76" y="57.453" transform="scale(1.13541 .88074)"><tspan x="119.76" y="57.453" style="stroke-width:.82599097">Library</tspan></text>
    <path style="fill:#fa9c23;fill-rule:evenodd;stroke:none" d="M141.11 71.643c-.298.099-.374 12.463-.372 60.49l.002 60.365.808.375c.444.207 1.455.375 2.248.375.792 0 1.44.121 1.44.268 0 .147 1.351.364 3.001.482 1.65.119 3.001.336 3.001.483 0 .147.675.268 1.5.268s1.501.12 1.501.267c0 .148 1.35.365 3 .483 1.651.118 3.001.335 3.001.482 0 .148.81.268 1.801.268.99 0 1.8.122 1.8.271 0 .149 1.418.368 3.151.486 1.733.118 3.151.334 3.151.479 0 .146.607.264 1.35.264.743 0 1.35.119 1.35.265 0 .145 1.418.361 3.151.479 1.733.118 3.151.336 3.151.486 0 .149.799.271 1.775.271.977 0 1.821.13 1.876.29.055.159 1.416.381 3.025.494 1.61.113 2.926.32 2.926.46 0 .141.675.256 1.501.256.825 0 1.5.121 1.5.268 0 .147 1.35.364 3.001.482 1.65.119 3 .336 3 .483 0 .147.811.268 1.801.268.99 0 1.8.122 1.8.271 0 .149 1.418.368 3.151.486 1.733.118 3.151.333 3.151.479 0 .145.608.264 1.35.264.743 0 1.351.118 1.351.261 0 .144 1.35.358 3 .475 1.651.117 3.001.336 3.001.488 0 .152.743.276 1.651.276.907 0 1.65.118 1.65.262 0 .144 1.485.358 3.301.475 1.815.118 3.301.338 3.301.489 0 .151.675.275 1.5.275s1.5.12 1.5.267c0 .148 1.351.365 3.001.483s3.001.335 3.001.482c0 .148.81.268 1.8.268.991 0 1.801.121 1.801.268 0 .147 1.35.364 3 .482 1.651.118 3.001.335 3.001.483 0 .147.675.267 1.501.267.825 0 1.5.118 1.5.262 0 .144 1.35.357 3.001.474 1.65.117 3 .337 3 .489 0 .152.878.276 1.951.276 1.195 0 1.95-.126 1.95-.324 0-.477-2.202-2.573-2.953-2.812-.356-.113-.647-.331-.647-.485 0-.154-.154-.28-.341-.28-.188 0-.654-.338-1.036-.75-.382-.413-.843-.751-1.024-.751-.181 0-.642-.337-1.024-.75-.382-.412-.849-.75-1.036-.75-.187 0-.341-.126-.341-.28 0-.154-.303-.376-.675-.493-.371-.117-.878-.444-1.125-.727-.248-.283-.754-.611-1.125-.728-.372-.117-.676-.339-.676-.493 0-.154-.202-.28-.45-.28-.247 0-.45-.132-.45-.294 0-.162-.337-.379-.75-.483-.413-.103-.75-.308-.75-.455 0-.148-.256-.268-.568-.268-.313 0-.646-.203-.741-.45-.095-.248-.415-.45-.71-.45-.296 0-.699-.258-.895-.573-.197-.316-.77-.664-1.273-.774-.503-.111-.914-.326-.914-.478 0-.151-.145-.276-.322-.276-.177 0-.524-.202-.772-.45-.247-.247-.748-.45-1.112-.45-.365 0-.854-.265-1.087-.589-.234-.324-.804-.672-1.267-.774-.463-.102-.842-.309-.842-.461 0-.152-.27-.277-.6-.277-.33 0-.6-.135-.6-.3 0-.165-.342-.3-.76-.3-.417 0-.837-.202-.932-.45-.095-.247-.428-.45-.741-.45-.312 0-.568-.118-.568-.262 0-.144-.54-.348-1.2-.453-.66-.106-1.2-.294-1.2-.418 0-.31-2.268-1.268-3.003-1.268-.329 0-.598-.135-.598-.3 0-.165-.203-.3-.45-.3-.248 0-.451-.117-.451-.261 0-.144-.54-.348-1.2-.454-.66-.106-1.2-.325-1.2-.489 0-.163-.338-.296-.75-.296-.413 0-.751-.127-.751-.282 0-.155-.607-.373-1.35-.484-.743-.111-1.35-.322-1.35-.468 0-.147-.338-.266-.75-.266-.413 0-.751-.118-.751-.262 0-.144-.54-.348-1.2-.454-.66-.105-1.2-.325-1.2-.488 0-.163-.338-.297-.75-.297-.413 0-.751-.122-.751-.272 0-.149-.675-.364-1.5-.478-.825-.113-1.5-.329-1.5-.478 0-.15-.33-.272-.733-.272-.403 0-.806-.119-.896-.265-.09-.146-.908-.358-1.818-.472-.91-.114-1.655-.332-1.655-.485 0-.153-.337-.279-.75-.279-.412 0-.75-.125-.75-.278 0-.153-.743-.371-1.65-.485-.908-.113-1.651-.325-1.651-.471 0-.146-.472-.266-1.05-.266-.578 0-1.05-.116-1.05-.257 0-.142-.844-.346-1.876-.453-1.031-.108-1.92-.33-1.975-.493-.055-.164-.685-.297-1.401-.297-.715 0-1.345-.131-1.4-.29-.055-.159-1.417-.382-3.026-.494-1.609-.113-2.925-.32-2.925-.461 0-.141-1.553-.256-3.451-.256-2.101 0-3.451-.117-3.451-.3 0-.165-.203-.3-.45-.3-.399 0-.45-5.737-.45-49.834 0-42.339-.064-49.897-.421-50.254-.268-.268-1.468-.494-3.301-.623-1.584-.111-2.88-.318-2.88-.458 0-.141-.799-.256-1.776-.256-.976 0-1.82-.131-1.875-.29-.055-.159-1.417-.382-3.026-.494-1.609-.113-2.925-.32-2.925-.461 0-.14-.676-.256-1.501-.256-.825 0-1.5-.122-1.5-.271 0-.149-1.418-.368-3.151-.486-1.733-.118-3.151-.333-3.151-.479 0-.145-.596-.264-1.325-.264s-1.37-.117-1.425-.26c-.106-.275-4.338-.628-4.977-.415" transform="matrix(.4771 0 0 .38294 -26.138 -16.992)"/>
    <path style="fill:#2bb98b;fill-rule:evenodd;stroke:none" d="M187.205 47.68c.372.236 1.542.12 1.542-.153 0-.063-.439-.113-.975-.111-.663.004-.845.088-.567.264m3.343.332c0 .165.27.3.6.3.33 0 .6-.135.6-.3 0-.165-.27-.3-.6-.3-.33 0-.6.135-.6.3m2.7.6c0 .165.203.3.45.3.248 0 .451-.135.451-.3 0-.165-.203-.3-.451-.3-.247 0-.45.135-.45.3m3.601.9c0 .165.203.3.45.3.248 0 .45-.135.45-.3 0-.165-.202-.3-.45-.3-.247 0-.45.135-.45.3m20.105 7.502c0 .165.203.3.45.3.248 0 .45-.135.45-.3 0-.165-.202-.3-.45-.3-.247 0-.45.135-.45.3m26.707 14.072c0 .147.214.35.475.45.734.282.807.22.318-.268-.51-.51-.793-.575-.793-.182m5.106 3.793c.008.517.557 1.179.786.949.123-.123-.005-.452-.284-.731-.279-.279-.505-.377-.502-.218m3.296 2.993c0 .282 4.244 4.349 4.539 4.349.16 0-.721-1.013-1.959-2.251-2.091-2.091-2.58-2.489-2.58-2.098m-65.266 89.57c.102.165.582.3 1.068.3.485 0 .882-.135.882-.3 0-.165-.48-.3-1.068-.3-.635 0-.993.121-.882.3m3.451.6c0 .165.202.3.45.3.247 0 .45-.135.45-.3 0-.165-.203-.3-.45-.3-.248 0-.45.135-.45.3m6.241 1.56c.28.28.44.28.72 0 .28-.28.2-.36-.36-.36s-.64.08-.36.36m5.161 1.441c0 .165.203.3.451.3.247 0 .45-.135.45-.3 0-.165-.203-.3-.45-.3-.248 0-.451.135-.451.3m3.001.9c0 .165.203.3.45.3.248 0 .45-.135.45-.3 0-.165-.202-.3-.45-.3-.247 0-.45.135-.45.3m45.454 20.891c.268.267.577.395.688.284.111-.111.004-.328-.239-.482-.709-.448-.977-.33-.449.198m3.158 2.183c0 .147.214.35.475.45.734.282.807.22.318-.268-.51-.51-.793-.575-.793-.182m2.844 2.318c.267.267.577.395.688.284.111-.111.003-.328-.24-.481-.708-.449-.976-.331-.448.197m-95.267 20.97v11.552h1.333c.733 0 1.416-.135 1.518-.3.102-.165 1.115-.3 2.25-.3 1.136 0 2.141-.122 2.234-.272.092-.15 2.058-.369 4.369-.488 2.31-.119 4.2-.335 4.2-.478 0-.144.878-.262 1.951-.262 1.072 0 1.95-.116 1.95-.257 0-.141 1.992-.352 4.426-.47 2.435-.117 4.471-.339 4.526-.493.055-.154.959-.28 2.008-.28s1.984-.123 2.076-.273c.093-.149 2.059-.369 4.369-.488 2.31-.119 4.201-.334 4.201-.478 0-.144 1.012-.262 2.25-.262s2.251-.12 2.251-.266c0-.147 1.757-.365 3.904-.484 2.147-.12 3.978-.337 4.068-.484.091-.146 1.226-.266 2.523-.266 1.297 0 2.403-.127 2.458-.282.055-.155 1.957-.377 4.226-.494 2.269-.116 4.126-.327 4.126-.468 0-.141.81-.257 1.8-.257.991 0 1.801-.119 1.801-.266 0-.146 2.025-.364 4.501-.484 2.476-.12 4.501-.337 4.501-.484 0-.146 1.013-.266 2.251-.266s2.25-.122 2.25-.272c0-.15 1.891-.37 4.201-.489 2.311-.119 4.201-.334 4.201-.478 0-.144.811-.261 1.801-.261 1.4 0 1.8-.1 1.8-.45 0-.315-.316-.451-1.05-.451-.578 0-1.05-.122-1.05-.272 0-.149-1.891-.369-4.201-.488-2.311-.119-4.201-.334-4.201-.478 0-.144-.878-.262-1.951-.262s-1.95-.118-1.95-.262c0-.143-1.891-.359-4.201-.478-2.311-.119-4.201-.338-4.201-.488 0-.15-1.005-.272-2.233-.272-1.228 0-2.309-.123-2.401-.272-.093-.15-2.059-.37-4.369-.489-2.31-.119-4.201-.334-4.201-.478 0-.144-.877-.262-1.95-.262s-1.951-.119-1.951-.266c0-.146-2.025-.364-4.501-.484-2.475-.12-4.501-.338-4.501-.484 0-.146-.87-.266-1.933-.266-1.063 0-2.008-.123-2.101-.272-.092-.15-2.058-.37-4.368-.489-2.311-.119-4.201-.334-4.201-.478 0-.144-.812-.261-1.805-.261-.992 0-2.039-.13-2.325-.288-.287-.158-2.378-.374-4.647-.481-2.27-.106-4.126-.314-4.126-.462 0-.149-.851-.27-1.891-.27s-2.019-.125-2.175-.278c-.157-.153-2.213-.375-4.57-.493s-4.356-.33-4.444-.472c-.087-.141-1.029-.257-2.092-.257-1.088 0-1.933-.131-1.933-.3 0-.175-1-.3-2.4-.3h-2.401v11.553m96.024 8.224c0 .424.155.531.6.415.33-.087.601-.344.601-.572 0-.229-.271-.416-.601-.416-.39 0-.6.201-.6.573m-3.001.028c0 .165.203.3.451.3.247 0 .45-.135.45-.3 0-.165-.203-.3-.45-.3-.248 0-.451.135-.451.3m-3.6.6c0 .165.27.3.6.3.33 0 .6-.135.6-.3 0-.165-.27-.3-.6-.3-.33 0-.6.135-.6.3m-3.601.415c0 .266 1.214.406 1.367.157.093-.15-.177-.272-.599-.272-.423 0-.768.052-.768.115m-3.001.485c0 .165.27.3.6.3.33 0 .6-.135.6-.3 0-.165-.27-.3-.6-.3-.33 0-.6.135-.6.3m-3.301.6c0 .165.27.3.6.3.33 0 .6-.135.6-.3 0-.165-.27-.3-.6-.3-.33 0-.6.135-.6.3m-6.602.9c0 .165.271.3.601.3.33 0 .6-.135.6-.3 0-.165-.27-.3-.6-.3-.33 0-.601.135-.601.3m-3.45.601c-.106.17.146.3.582.3.422 0 .768-.135.768-.3 0-.166-.262-.301-.583-.301-.32 0-.665.135-.767.301m-6.452.9c0 .165.346.3.768.3.435 0 .687-.13.582-.3-.102-.165-.447-.3-.768-.3-.32 0-.582.135-.582.3m-3.001.6c0 .165.203.3.45.3.248 0 .45-.135.45-.3 0-.165-.202-.3-.45-.3-.247 0-.45.135-.45.3m-6.601.9c0 .165.202.3.45.3.247 0 .45-.135.45-.3 0-.165-.203-.3-.45-.3-.248 0-.45.135-.45.3m-3.601.6c0 .165.27.3.6.3.33 0 .6-.135.6-.3 0-.165-.27-.3-.6-.3-.33 0-.6.135-.6.3m-6.302.901c0 .165.278.3.618.3.34 0 .534-.135.432-.3-.102-.166-.38-.301-.618-.301-.237 0-.432.135-.432.301m-3.601.6c0 .165.262.3.583.3.32 0 .666-.135.768-.3.105-.171-.147-.3-.583-.3-.422 0-.768.135-.768.3m-2.1 18.304c0 .165.337.3.75.3.412 0 .75-.135.75-.3 0-.165-.338-.3-.75-.3-.413 0-.75.135-.75.3" transform="matrix(.4771 0 0 .38294 -26.138 -16.992)"/>
    <path style="fill:#0c4c8a;fill-rule:evenodd;stroke:none" d="M185.746 107.242v59.9h1.501c.825 0 1.5.135 1.5.3 0 .165.54.3 1.2.3.661 0 1.201.121 1.201.27 0 .148.945.364 2.1.48 1.156.116 2.101.332 2.101.481 0 .148.48.269 1.068.269.587 0 .993.122.901.271-.093.149.642.365 1.632.48.99.114 1.8.33 1.8.479 0 .149.405.271.9.271.496 0 .901.122.901.272 0 .149.675.364 1.5.478.825.113 1.5.329 1.5.478 0 .15.338.272.751.272.412 0 .75.118.75.261 0 .144.675.351 1.5.461.825.109 1.501.329 1.501.489 0 .159.337.289.75.289.412 0 .75.124.75.274 0 .151.574.37 1.275.487.702.117 1.355.338 1.453.492.097.153.468.3.825.327.356.027.648.147.648.266 0 .12.608.309 1.35.421.743.111 1.351.322 1.351.468 0 .146.337.266.75.266.412 0 .75.134.75.297 0 .163.54.383 1.2.488.66.106 1.201.31 1.201.454 0 .144.27.262.6.262.33 0 .6.123.6.273 0 .151.54.365 1.2.477.66.111 1.2.326 1.2.476 0 .151.346.274.768.274.423 0 .694.12.604.266-.091.147.441.358 1.182.469.741.111 1.347.329 1.347.484 0 .155.203.281.451.281.247 0 .45.12.45.267 0 .147.472.355 1.05.464.578.108 1.05.293 1.05.41 0 .219 1.127.753 2.326 1.103.371.109.675.323.675.477 0 .154.346.28.768.28.435 0 .687.13.582.3-.102.165-.076.311.058.323.887.084 1.446.288 1.537.561.058.174.297.316.531.316.234 0 .425.12.425.267 0 .147.473.355 1.05.464.578.108 1.05.328 1.05.488 0 .16.507.525 1.126.811.619.285 1.328.736 1.575 1.002.248.266.754.579 1.125.697.372.117.676.339.676.493 0 .154.202.28.45.28.247 0 .45.135.45.3 0 .165.196.3.436.3s.774.337 1.187.75c.413.413.872.75 1.02.75.241 0 .764.402 2.533 1.943.289.252.678.458.865.458.187 0 .769.455 1.294 1.012.525.557 1.243 1.104 1.596 1.216.352.111.724.466.826.788.117.368.456.585.916.585h.73V84.042l-.89-.911c-.49-.501-1.025-.91-1.188-.91-.254 0-4.791-4.446-5.961-5.841-.213-.253-.652-.461-.975-.461-.324 0-.589-.116-.589-.258 0-.443-2.037-2.443-2.488-2.443-.236 0-.676-.329-.978-.732-.303-.402-.853-.808-1.223-.901-.369-.093-.758-.438-.862-.768-.105-.33-.414-.599-.686-.599-.272 0-.803-.359-1.18-.797-.377-.439-.685-.631-.685-.429 0 .247-.155.213-.471-.103-.26-.26-.656-.472-.88-.472-.225 0-.494-.27-.599-.6-.106-.332-.454-.6-.78-.6-.324 0-.667-.203-.762-.45-.095-.248-.428-.45-.741-.45-.312 0-.568-.125-.568-.277 0-.152-.405-.365-.9-.474-.495-.108-.9-.322-.9-.474 0-.151-.203-.276-.451-.276-.247 0-.45-.124-.45-.276 0-.152-.405-.365-.9-.474-.495-.109-.9-.322-.9-.474 0-.152-.203-.276-.45-.276-.248 0-.45-.12-.45-.267 0-.147-.473-.355-1.051-.464-.577-.108-1.05-.326-1.05-.483 0-.158-.27-.287-.6-.287-.33 0-.6-.124-.6-.276 0-.152-.405-.365-.9-.474-.495-.108-.901-.322-.901-.474 0-.152-.337-.276-.75-.276-.412 0-.75-.129-.75-.286 0-.158-.473-.376-1.05-.484-.578-.108-1.05-.317-1.05-.464 0-.146-.271-.266-.601-.266-.33 0-.6-.118-.6-.262 0-.144-.546-.349-1.214-.456-.668-.107-1.15-.298-1.072-.425.078-.127-.212-.26-.644-.295-.433-.036-.875-.209-.983-.383-.108-.175-.656-.389-1.218-.476-.561-.087-1.065-.281-1.12-.431-.055-.15-.359-.273-.676-.273-.316 0-.575-.127-.575-.282 0-.155-.607-.373-1.35-.484-.743-.111-1.35-.322-1.35-.468 0-.147-.27-.266-.6-.266-.331 0-.601-.124-.601-.274 0-.151-.54-.365-1.2-.477-.66-.111-1.2-.326-1.2-.476 0-.151-.338-.274-.75-.274-.413 0-.751-.133-.751-.296 0-.163-.54-.383-1.2-.489-.66-.105-1.2-.31-1.2-.453 0-.144-.338-.262-.75-.262-.413 0-.751-.123-.751-.272 0-.15-.675-.365-1.5-.478-.825-.114-1.5-.329-1.5-.479 0-.149-.405-.272-.901-.272-.495 0-.9-.121-.9-.27 0-.149-.81-.365-1.8-.48-.99-.115-1.801-.33-1.801-.479 0-.149-.607-.271-1.35-.271-.744 0-1.35-.142-1.35-.315 0-.184-.657-.305-1.576-.289-.866.014-1.946-.062-2.4-.17l-.826-.196v59.9m69.018 119.315c0 .165-.743.3-1.651.3-.907 0-1.65.135-1.65.3 0 .165-.72.3-1.601.3-.88 0-1.693.093-1.807.207-.114.114-.879.171-1.7.128-.914-.049-1.494.046-1.494.243 0 .19-.674.322-1.65.322-.908 0-1.651.12-1.651.267 0 .147-1.485.365-3.3.483-1.816.119-3.301.336-3.301.483 0 .147-.743.267-1.651.267-.907 0-1.65.124-1.65.275 0 .151-1.483.371-3.295.489-1.812.117-3.222.331-3.133.475.089.144-.656.262-1.656.262-1 0-1.819.12-1.819.267 0 .147-1.485.364-3.3.483-1.816.119-3.301.336-3.301.483 0 .147-.743.267-1.651.267-.907 0-1.65.124-1.65.275 0 .151-1.483.371-3.295.488-1.812.118-3.222.332-3.133.476.089.144-.581.262-1.489.262-.907 0-1.733.135-1.835.3-.102.165-.786.3-1.519.3-.863 0-1.334.132-1.337.375-.003.25-.101.225-.295-.075-.192-.296-.293 2.616-.296 8.516l-.004 8.966 1.415-.159c.779-.088 1.465-.308 1.526-.489.06-.182.436-.33.835-.33.398 0 .725-.135.725-.3 0-.165.26-.3.579-.3.318 0 .781-.203 1.028-.45.248-.248.663-.45.922-.45s.472-.129.472-.287c0-.157.472-.375 1.05-.483.577-.109 1.05-.289 1.05-.4 0-.112.292-.225.648-.252.357-.027.729-.18.828-.34.099-.16.55-.384 1.003-.498.452-.113.822-.326.822-.474 0-.147.27-.267.6-.267.33 0 .6-.118.6-.262 0-.144.54-.348 1.2-.454.661-.105 1.201-.325 1.201-.488 0-.163.202-.297.45-.297.247 0 .45-.128.45-.286 0-.158.473-.375 1.05-.484.578-.108 1.051-.317 1.051-.463 0-.147.345-.267.767-.267.423 0 .692-.123.599-.273-.093-.151.372-.365 1.033-.477.661-.112 1.201-.326 1.201-.477 0-.15.203-.273.451-.273.247 0 .45-.121.45-.268 0-.147.371-.357.825-.467 1.138-.275 2.475-.872 2.475-1.106 0-.106.473-.282 1.051-.39.577-.108 1.05-.326 1.05-.484 0-.157.439-.288.975-.291.647-.003.841-.09.576-.257-.27-.172-.004-.317.825-.45.674-.107 1.225-.329 1.225-.492 0-.163.202-.296.45-.296s.45-.127.45-.282c0-.155.608-.373 1.35-.484.743-.112 1.351-.323 1.351-.469 0-.146.202-.266.45-.266.247 0 .45-.124.45-.276 0-.152.405-.365.9-.474.495-.109.9-.322.9-.474 0-.152.271-.276.601-.276.33 0 .6-.134.6-.297 0-.163.54-.383 1.2-.488.66-.106 1.2-.31 1.2-.454 0-.144.203-.262.451-.262.247 0 .45-.12.45-.266 0-.147.472-.356 1.05-.464.578-.108 1.05-.326 1.05-.483 0-.158.27-.287.6-.287.33 0 .6-.123.6-.274 0-.15.541-.365 1.201-.476.66-.112 1.2-.326 1.2-.477 0-.15.203-.273.45-.273.248 0 .45-.127.45-.282 0-.155.607-.373 1.348-.484.741-.111 1.273-.322 1.182-.468-.09-.147.113-.267.453-.267s.618-.129.618-.286c0-.158.472-.375 1.048-.483.576-.108.973-.317.882-.464-.09-.147.147-.271.528-.277.789-.01 1.743-.639 1.743-1.148 0-.191-.464-.342-1.05-.342-.578 0-1.05.135-1.05.3" transform="matrix(.4771 0 0 .38294 -26.138 -16.992)"/>
</svg>
