<svg version="1.0" xmlns="http://www.w3.org/2000/svg" width="21.775" height="20.762" xml:space="preserve">
    <path fill="#393A3B" d="M14.152 11.931 17.161 9c.397-.388.308-.758-.148-.9-.008-.003-.012-.011-.02-.014a1.217 1.217 0 0 0-.328-.092l-4.053-.589c-.279-.04-.589-.184-.86-.379a2.667 2.667 0 0 1-.386-.345 1.655 1.655 0 0 1-.255-.365L9.298 2.64c-.02-.04-.044-.07-.066-.107l-.019-.038c-.009-.018-.021-.023-.03-.04-.012-.015-.023-.032-.035-.046-.129-.208-.28-.333-.438-.333-.15 0-.294.119-.419.309-.01.011-.018.025-.027.036-.017.029-.039.041-.055.074l-.026.052c-.02.033-.041.053-.06.093L6.309 6.314a1.674 1.674 0 0 1-.259.371 2.629 2.629 0 0 1-.376.336c-.274.199-.586.344-.867.385l-4.054.588c-.055.008-.119.033-.18.051H.572c-.05.015-.095.025-.142.048-.475.138-.572.513-.168.907l3.007 2.931c.431.422.699 1.233.622 1.842l-.687 4.005c-.004.025 0 .045-.002.068l-.022.133c-.077.446.094.708.404.708a.903.903 0 0 0 .407-.117l3.717-1.955c.276-.145.641-.216 1.003-.216.364 0 .729.072 1.004.216l3.718 1.955a.893.893 0 0 0 .406.117c.312 0 .481-.262.405-.708l-.03-.174c-.001-.012.002-.019 0-.03l-.682-3.962c-.093-.613.181-1.452.62-1.882zm-1.619 1.975.574 3.35-3.003-1.581c-.386-.203-.881-.315-1.395-.315-.511 0-1.005.112-1.393.315l-3.007 1.57.572-3.34c.153-.884-.217-2.023-.861-2.65L1.596 8.882l3.354-.487c.887-.128 1.857-.833 2.255-1.639L8.7 3.689l1.513 3.068c.397.806 1.367 1.51 2.255 1.637l3.355.496-2.432 2.367c-.638.627-1.007 1.766-.858 2.649z"/>
</svg>
