<svg version="1.2" baseProfile="tiny" xmlns="http://www.w3.org/2000/svg" width="598.189" height="350.26" xml:space="preserve">
    <path fill="#F4F4F4" d="M122.598 85.096c-20.463 0-39.631 5.67-55.979 15.504l.982 1.607C83.662 92.545 102.485 87 122.598 87c58.999 0 106.813 47.811 106.813 106.812 0 43.56-26.068 81.02-63.448 97.642l.773 1.727c38.051-16.923 64.579-55.05 64.579-99.365 0-60.027-48.687-108.717-108.717-108.717v-.003zM251.371 166.311c-5.066 0-9.196 4.132-9.196 9.196 0 5.067 4.13 9.196 9.196 9.196h19.999c5.066 0 9.196-4.129 9.196-9.196 0-5.065-4.13-9.196-9.196-9.196h-19.999zm0 1.904h19.999a7.28 7.28 0 0 1 7.292 7.292 7.279 7.279 0 0 1-7.292 7.292h-19.999a7.28 7.28 0 0 1-7.292-7.292 7.28 7.28 0 0 1 7.292-7.292z"/>
    <path fill="#F4F4F4" d="M298.263 59.889c-53.215 0-102.584 4.418-143.324 11.963-40.715 7.541-72.803 18.156-91.571 30.771-.011.007-.02.022-.03.03l-.357.208v.03c-29.565 19.43-49.1 52.896-49.1 90.914 0 60.025 48.687 108.717 108.717 108.717 16.731 0 32.593-3.781 46.753-10.535l.089-.06.06-.06.06-.029c36.176-17.553 79.873-28.659 132.667-28.659h2.738c52.799 0 96.498 11.106 132.667 28.659.032.016.059.044.09.06l.06.029c.009.004.022-.004.029 0l.03.06c14.161 6.755 30.021 10.535 46.754 10.535 60.025 0 108.717-48.687 108.717-108.717 0-38.02-19.534-71.489-49.104-90.917v-.03l-.357-.208c-.012-.007-.019-.022-.03-.03-18.751-12.612-50.834-23.227-91.556-30.768-40.74-7.544-90.108-11.963-143.324-11.963h-10.678zm0 1.904h10.654c53.11 0 102.365 4.415 142.963 11.933 40.599 7.519 72.549 18.165 90.888 30.504l.03.03.357.208c.011.008.018.021.029.03 29.033 19.091 48.211 51.957 48.211 89.31 0 58.998-47.811 106.812-106.813 106.812-16.396 0-31.919-3.697-45.801-10.297l-.03-.028a.671.671 0 0 0-.06-.03h-.029l-.066-.028c-36.465-17.733-80.5-28.961-133.648-28.961h-2.738c-53.152 0-97.213 11.229-133.687 28.957l-.03.029h-.03l-.089.06-.06.03c-13.865 6.581-29.367 10.267-45.741 10.267-59.001 0-106.813-47.807-106.813-106.813 0-37.35 19.178-70.213 48.211-89.305.012-.007.019-.022.029-.03l.357-.208.03-.03c18.339-12.34 50.291-22.986 90.888-30.504 40.597-7.519 89.861-11.934 142.962-11.934l.026-.002z"/>
    <path fill="#F4F4F4" d="M484.595 85.096c-60.028 0-108.717 48.687-108.717 108.717 0 44.319 26.528 82.446 64.578 99.365l.773-1.727c-37.369-16.627-63.443-54.091-63.443-97.65 0-58.999 47.81-106.813 106.813-106.813 20.112 0 38.936 5.546 54.996 15.208l.981-1.6c-16.342-9.833-35.512-15.504-55.978-15.504l-.003.004zM335.822 166.311c-5.064 0-9.195 4.132-9.195 9.196 0 5.067 4.131 9.196 9.195 9.196h19.999c5.065 0 9.195-4.13 9.195-9.196 0-5.064-4.13-9.196-9.195-9.196h-19.999zm0 1.904h19.999a7.28 7.28 0 0 1 7.291 7.292 7.278 7.278 0 0 1-7.291 7.292h-19.999a7.28 7.28 0 0 1-7.291-7.292 7.281 7.281 0 0 1 7.291-7.292z"/>
    <g fill="#F4F4F4">
        <path d="M95.819 171.386c0-26.145 21.194-47.337 47.339-47.337v1.904c-12.549 0-23.902 5.084-32.127 13.308-8.222 8.224-13.306 19.576-13.306 32.125s5.084 23.901 13.306 32.125c8.226 8.224 19.578 13.308 32.127 13.308 12.549 0 23.902-5.084 32.125-13.308 8.224-8.224 13.308-19.576 13.308-32.125s-5.084-23.902-13.308-32.125c-8.223-8.224-19.576-13.308-32.125-13.308v-1.904c26.144 0 47.336 21.192 47.338 47.337-.002 26.144-21.194 47.336-47.338 47.338-26.144-.002-47.339-21.195-47.339-47.338z"/>
        <path d="M130.323 216.261v-29.646c0-.936-.215-1.517-.508-1.839-.292-.318-.742-.545-1.645-.552H98.422v-1.906h29.748c1.234-.007 2.337.369 3.064 1.188.725.816.994 1.907.994 3.109v29.646h-1.905zM98.359 160.455v-1.904h29.536c1.092.002 1.672-.229 1.948-.49.275-.254.472-.691.478-1.597v-29.848h1.904v29.848c.006 1.166-.281 2.249-1.092 2.996-.813.741-1.921.993-3.238.995H98.359zM155.155 159.324c-.775-.776-1.067-1.841-1.065-2.929V126.55h1.906v29.846c.002.782.195 1.271.505 1.58.312.312.866.573 1.921.577h29.645v1.905h-29.668c-1.348-.001-2.475-.363-3.244-1.134zM154.091 216.26v-29.611c-.004-1.298.326-2.436 1.12-3.229.795-.793 1.916-1.105 3.145-1.104l29.61.003v1.904h-29.61c-.944.002-1.481.226-1.797.544-.318.317-.558.869-.562 1.882v29.611h-1.906z"/>
    </g>
    <path fill="#F4F4F4" d="M143.158 161.13c-5.653 0-10.267 4.614-10.267 10.266 0 5.653 4.614 10.237 10.267 10.237s10.267-4.584 10.267-10.237-4.613-10.266-10.267-10.266zm0 1.904a8.356 8.356 0 0 1 8.363 8.362c0 4.624-3.739 8.333-8.363 8.333s-8.362-3.709-8.362-8.333 3.739-8.362 8.362-8.362z"/>
    <path fill="#F4F4F4" d="M143.158 104.291c-37.047 0-67.109 30.062-67.109 67.109s30.062 67.08 67.109 67.08c37.048 0 67.109-30.032 67.109-67.08.001-37.047-30.062-67.109-67.109-67.109zm0 1.904c36.018 0 65.205 29.186 65.205 65.204 0 36.018-29.186 65.176-65.205 65.176-36.018 0-65.205-29.157-65.205-65.176.001-36.017 29.187-65.204 65.205-65.204zM429.036 185.062c-13.567 0-24.611 11.015-24.611 24.581 0 13.567 11.043 24.612 24.611 24.612 13.566 0 24.58-11.044 24.58-24.612 0-13.567-11.013-24.581-24.58-24.581zm0 1.904c12.538 0 22.676 10.141 22.676 22.677 0 12.538-10.139 22.707-22.676 22.707-12.538 0-22.707-10.169-22.707-22.707s10.169-22.677 22.707-22.677zM472.747 146.759c-13.566 0-24.581 11.014-24.581 24.581 0 13.566 11.015 24.581 24.581 24.581 13.567 0 24.581-11.015 24.581-24.581 0-13.567-11.014-24.581-24.581-24.581zm0 1.904c12.538 0 22.677 10.139 22.677 22.677s-10.14 22.677-22.677 22.677c-12.539 0-22.677-10.14-22.677-22.677 0-12.539 10.14-22.677 22.677-22.677zM524.649 119.319c-13.567 0-24.582 11.014-24.582 24.582 0 13.566 11.015 24.611 24.582 24.611 13.566 0 24.58-11.044 24.58-24.611 0-13.568-11.013-24.582-24.58-24.582zm0 1.904c12.537 0 22.677 10.14 22.677 22.678s-10.141 22.706-22.677 22.706c-12.539 0-22.678-10.168-22.678-22.706.001-12.539 10.141-22.678 22.678-22.678zM315.081 262.467v3.987h-22.975v-3.958h-1.905V268.359H316.986v-5.892h-1.905zM359.603 265.856l-1.515 1.162c5.073 6.614 13.05 10.862 22.022 10.862a27.72 27.72 0 0 0 12.976-3.214l-.894-1.666a25.776 25.776 0 0 1-12.082 2.976c-8.37 0-15.779-3.956-20.506-10.118l-.001-.002z"/>
</svg>
