<svg height="334.242" viewBox="0 0 1514.447 434.515" width="1164.96" xmlns="http://www.w3.org/2000/svg">
    <g fill="#f4f4f4" fill-opacity=".5">
        <path d="M1421.032 431.116q0 .32-.077.539-.114.325-.368.325-.168 0-.352-.077-.221-.094-.242-.23.075 0 .176.027.234.061.293.061.227 0 .341-.226.091-.182.091-.435 0-.179-.117-.51-.115-.333-.115-.463 0-.04.021-.064.024-.027.064-.027.104 0 .203.48.083.405.083.6zM1422.059 431.388q0 .272-.157.427-.158.154-.435.154-.152 0-.235-.072-.083-.072-.083-.221 0-.21.275-.424.261-.203.483-.203.101 0 .133.126.019.072.019.213zm-.163.075q0-.032-.01-.062-.01-.032-.02-.072-.044.03-.142.144-.051.059-.088.086 0-.051.01-.083l.036-.077q-.117 0-.245.098-.126.099-.126.214 0 .077.085.077.163 0 .315-.08.184-.096.184-.245zM1423.158 431.497q0 .13-.1.293-.111.184-.231.184-.035 0-.06-.037-.02-.04-.02-.077 0-.048.1-.15.105-.103.105-.14 0-.025-.01-.049t-.011-.032q-.2.046-.408.23-.205.184-.312.208-.021-.06-.021-.12 0-.075.035-.158.024-.058.08-.141.093-.141.197-.32l.184-.323q.134-.23.195-.325.032-.048.056-.072.035-.032.083-.043.032.01.045.04.016.03.016.07 0 .09-.117.245-.214.277-.22.288-.12.181-.12.328l.01.027q.148-.072.174-.083.11-.045.187-.045.085 0 .125.058.04.056.04.144zM1424.395 431.34q0 .181-.088.387-.096.226-.237.312-.03-.035-.051-.078-.02-.042-.02-.085 0-.045.134-.27.059-.098.053-.173v-.034q-.1.029-.341.178l-.486.299q-.037 0-.069-.027-.029-.03-.029-.064 0-.056.179-.376.053-.096.192-.333.043.056.056.125.013.067.013.16v.061q.245-.146.384-.22.152-.084.208-.084.037 0 .069.086.035.085.035.136zM1426.712 431.857q0 .048-.043.075-.04.024-.09.024-.046 0-.115-.01-.158-.025-.203-.025-.08 0-.315.019-.133.01-.192.01-.162 0-.162-.162 0-.155.1-.443.057-.162.212-.533.138-.333.176-.47.013-.042.02-.055.022-.032.054-.032.05 0 .085.074.035.072.035.13 0 .094-.11.316-.11.218-.213.429-.115.25-.115.381 0 .067.056.094.04.018.118.018.059 0 .202-.013.144-.016.192-.016.12 0 .198.035.109.048.109.154zM1427.704 431.388q0 .272-.157.427-.157.154-.435.154-.152 0-.234-.072-.083-.072-.083-.221 0-.21.274-.424.262-.203.483-.203.101 0 .133.126.02.072.02.213zm-.162.075q0-.032-.01-.062l-.021-.072q-.043.03-.142.144-.05.059-.088.086 0-.051.011-.083l.035-.077q-.117 0-.245.098-.125.099-.125.214 0 .077.085.077.162 0 .314-.08.184-.096.184-.245zM1428.827 431.332q0 .085-.045.181-.043.096-.11.16v-.037q0-.032.01-.099t.01-.099q0-.045-.012-.066-.013-.024-.056-.024-.126 0-.312.194l-.403.424q-.016 0-.032-.003l-.053-.013q.01-.096.067-.213.157-.318.163-.339.02-.085.032-.125.01-.04.029-.083.02-.045.048-.08.029-.037.075-.056l.027.32.176-.144q.117-.093.202-.093t.139.056q.053.056.053.138zM1430.136 431.022q0 .112-.298.296-.288.176-.419.176-.061 0-.083-.042-.019-.043-.019-.12v-.072q.179 0 .325-.054.147-.053.256-.176-.08-.029-.162-.029-.195 0-.414.15-.24.162-.24.346 0 .176.24.246.037.01.451.074.243.038.243.13 0 .04-.088.065-.088.027-.224.027-.342 0-.539-.104-.261-.14-.261-.446 0-.32.32-.51.272-.16.618-.16.104 0 .19.049.104.059.104.155zM1431.198 430.545q0 .059-.142.245-.141.187-.141.286 0 .05.059.101.133.117.133.144 0 .035-.024.067-.02.032-.056.032-.029 0-.083-.032-.037-.021-.144-.104l-.06.117q-.076.142-.102.206l-.08.245q-.069.165-.173.165v-.061q0-.19.122-.448.024-.048.134-.248-.211-.115-.464-.115 0-.098.04-.144.043-.048.14-.048.092 0 .228.032l.133.032q.05-.016.139-.173.216-.379.293-.435.02.035.035.07.016.034.016.066zM1432.182 431.497q0 .13-.1.293-.111.184-.231.184-.035 0-.06-.037-.02-.04-.02-.077 0-.048.101-.15.104-.103.104-.14 0-.025-.01-.049t-.011-.032q-.2.046-.408.23-.205.184-.312.208-.021-.06-.021-.12 0-.075.035-.158.024-.058.08-.141.093-.141.197-.32l.184-.323q.134-.23.195-.325.032-.048.056-.072.035-.032.083-.043.032.01.045.04.016.03.016.07 0 .09-.117.245-.214.277-.219.288-.12.181-.12.328l.01.027q.147-.072.173-.083.11-.045.187-.045.085 0 .125.058.04.056.04.144zM1434.648 430.86q0 .09-.21.16-.211.07-.419.133-.245.099-.304.245.155.091.261.142.128.061.272.112.043.013.08.059.037.045.037.09 0 .054-.035.083-.032.027-.088.027-.099 0-.477-.224-.39-.232-.39-.312 0-.1.331-.267.331-.168.864-.352l.07.07zM1435.862 430.636q0 .085-.053.154l-.104.142q0 .043.075.173t.075.216q0 .32-.304.53-.27.188-.608.188.02-.016.02-.046l-.063-.082q-.027-.043-.027-.1.27 0 .376-.031.162-.048.306-.224.045-.053.08-.123.037-.072.037-.13 0-.073-.06-.102-.062-.03-.166-.03-.059 0-.157.012-.1.01-.12.01-.053 0-.091-.03-.035-.031-.035-.082 0-.066.317-.226.184-.094.25-.168-.05-.024-.111-.035-.06-.013-.126-.013-.072 0-.16.018-.213.046-.25.046l-.06-.022q-.015-.021-.026-.045-.011-.027-.011-.05 0-.089.17-.14.128-.037.251-.037.312 0 .443.054.13.05.13.173zM1439.046 430.67q-.035.032-.064.04-.03.006-.088.006-.118 0-.278-.027-.37-.062-.461-.062-.112 0-.15.3-.018.14-.031.551-.011.408-.051.49l-.056.03q-.126-.032-.126-.163 0-.133.08-.648.037-.24.037-.394 0-.176-.21-.224l-.392-.048q-.21-.043-.21-.203 0-.035.031-.059.032-.024.07-.024.066 0 .16.032.135.046.154.051.08.019.517.056.437.037.672.088.339.075.395.208zM1439.47 431.332q0 .085-.045.181-.043.096-.11.16v-.037q0-.032.01-.099t.01-.099q0-.045-.013-.066-.013-.024-.056-.024-.125 0-.312.194l-.402.424q-.016 0-.032-.003l-.053-.013q.01-.096.067-.213.157-.318.162-.339l.032-.125q.011-.04.03-.083.02-.045.047-.08.03-.037.075-.056l.027.32.176-.144q.118-.093.203-.093.085 0 .139.056.053.056.053.138zM1440.403 430.873q0 .035-.01.07-.01.034-.019.111l-.048-.045q-.013.003-.043.021-.029.02-.048.024-.01-.04-.011-.093-.01-.056-.01-.07 0-.122.085-.204h.048q.021.053.032.096.013.042.013.09zm-.267.4q0 .168-.192.456-.192.288-.354.357-.016-.04-.024-.066-.01-.027-.01-.062 0-.088.093-.218.072-.102.146-.203.072-.133.134-.216.104-.139.189-.152.013.059.013.104zM1441.443 431.087q0 .053-.037.082-.035.027-.091.027-.059 0-.155-.093-.096-.094-.133-.094-.144 0-.33.187-.187.187-.187.328 0 .117.106.195.096.069.222.069.048 0 .16-.013.114-.016.149-.016.072 0 .133.032.061.029.061.093 0 .056-.04.077-.04.022-.101.022h-.096q-.048 0-.096.003-.408 0-.544-.123-.123-.112-.123-.347 0-.301.184-.456.12-.101.384-.176.264-.075.326-.128.067.035.136.147.072.11.072.184zM1442.395 430.873q0 .035-.01.07-.01.034-.019.111l-.048-.045q-.013.003-.043.021-.029.02-.048.024-.01-.04-.011-.093-.01-.056-.01-.07 0-.122.085-.204h.048q.021.053.032.096.013.042.013.09zm-.267.4q0 .168-.192.456-.192.288-.354.357-.016-.04-.024-.066-.01-.027-.01-.062 0-.088.093-.218.072-.102.146-.203.072-.133.134-.216.104-.139.189-.152.013.059.013.104zM1443.782 431.905q-.075.032-.139.048-.061.016-.133.016-.107 0-.176-.059-.067-.058-.107-.168-.13.107-.267.176-.173.088-.306.088-.168 0-.254-.146-.069-.12-.069-.302 0-.277.166-.488.178-.229.45-.229.208 0 .288.13.045.076.085.313l.139-.208q.067.061.067.144 0 .067-.04.16-.088.205-.088.261 0 .083.048.144.051.059.13.059.036 0 .1-.013l.085-.02q0 .017.01.052l.013.042zm-.483-.59v-.031l-.067.03q-.019.004-.048.004-.045 0-.101-.15-.056-.149-.219-.149-.173 0-.307.216-.117.192-.117.376 0 .118.056.182.059.064.176.064.203 0 .41-.168.22-.179.22-.374zM1446.744 430.46q0 .064-.125.325-.077.163-.088.192-.168.48-.25.624-.211.37-.51.37-.125 0-.176-.255l-.035-.203-.19.278q-.154.205-.237.205-.117 0-.149-.341-.011-.112-.011-.294v-.461q0-.235.013-.336.013-.101.048-.2.101.024.136.125.024.07.024.203v.064q0 .088-.016.301-.013.214-.013.28 0 .088.01.15l.024.14q.091-.06.272-.4.077-.14.141-.164.093.037.136.29.056.326.077.368.222-.122.376-.386.083-.142.227-.515.13-.341.232-.501.035 0 .064.05.029.048.029.09zM1448.038 431.905q-.075.032-.139.048-.061.016-.133.016-.107 0-.176-.059-.067-.058-.107-.168-.13.107-.267.176-.173.088-.306.088-.168 0-.254-.146-.069-.12-.069-.302 0-.277.166-.488.178-.229.45-.229.208 0 .288.13.045.076.085.313l.139-.208q.067.061.067.144 0 .067-.04.16-.088.205-.088.261 0 .083.048.144.051.059.13.059.036 0 .1-.013l.085-.02q0 .017.01.052l.013.042zm-.483-.59v-.031l-.067.03q-.019.004-.048.004-.045 0-.101-.15-.056-.149-.219-.149-.173 0-.307.216-.117.192-.117.376 0 .118.056.182.059.064.176.064.203 0 .41-.168.22-.179.22-.374zM1448.955 430.41q0 .178-.176.535l-.33.643q-.18.376-.18.59-.068-.02-.109-.062-.037-.043-.037-.112 0-.05.013-.104.016-.056.04-.112.048-.13.131-.296.219-.437.237-.483l.256-.634q.021-.043.048-.072.03-.032.067-.054.04.078.04.16zM1450.224 430.836q0 .064-.168.226-.141.14-.341.296-.16.126-.267.2.12.115.243.23.128.141.128.298-.085-.016-.163-.112-.093-.114-.138-.138-.152-.075-.192-.099-.107-.061-.179-.13-.027.053-.037.122-.01.07-.01.15v.093q-.187-.022-.187-.203 0-.09.1-.381.1-.29.22-.552.131-.283.193-.312.029.074.029.152 0 .11-.163.474-.077.174-.077.291v.048q.208-.147.344-.25.2-.155.325-.275.158-.152.28-.323.024.061.035.096.024.067.024.099zm-1.013.666-.056.051q-.037.035-.037.043l.029-.013.021.003q.027-.005.027-.014 0-.024-.011-.032.013-.026.027-.037zM1451.491 431.022q0 .112-.299.296-.288.176-.418.176-.061 0-.083-.042-.02-.043-.02-.12v-.072q.18 0 .326-.054.147-.053.256-.176-.08-.029-.163-.029-.194 0-.413.15-.24.162-.24.346 0 .176.24.246.037.01.45.074.243.038.243.13 0 .04-.088.065-.088.027-.224.027-.341 0-.538-.104-.262-.14-.262-.446 0-.32.32-.51.272-.16.619-.16.104 0 .19.049.103.059.103.155zM1452.611 431.332q0 .085-.045.181-.043.096-.11.16v-.037q0-.032.01-.099t.01-.099q0-.045-.012-.066-.013-.024-.056-.024-.126 0-.312.194l-.403.424q-.016 0-.032-.003l-.053-.013q.01-.096.067-.213.157-.318.163-.339.02-.085.032-.125.01-.04.029-.083.02-.045.048-.08.029-.037.075-.056l.027.32.176-.144q.117-.093.202-.093t.139.056q.053.056.053.138zM1454.776 430.628q0 .125-.133.336-.085.133-.28.384-.195.248-.243.325l.2.064q.195.059.195.214l-.157.024-.03-.003v-.022q-.042-.01-.068-.01-.051 0-.16.016-.11.016-.166.016-.072 0-.117-.027-.045-.027-.045-.096 0-.056.206-.318.384-.488.386-.493.208-.283.208-.379 0-.037-.027-.056-.024-.018-.099-.018-.05 0-.21.098-.078.048-.126.048l-.045-.008q-.016-.01-.035-.04-.019-.032-.019-.05 0-.112.216-.206.184-.08.32-.08.115 0 .176.086.053.074.053.194zM1456.379 431.108q0 .322-.35.57-.32.227-.658.227-.168 0-.267-.085t-.099-.248q0-.363.318-.63.301-.253.674-.253.19 0 .286.112.096.112.096.307zm-.163.061q0-.123-.138-.184-.104-.045-.248-.045-.211 0-.44.205-.23.205-.23.413 0 .086.043.123.045.035.136.035.262 0 .544-.144.334-.17.334-.403zM1457.6 430.628q0 .125-.133.336-.085.133-.28.384-.195.248-.243.325l.2.064q.195.059.195.214l-.157.024-.03-.003v-.022q-.042-.01-.068-.01-.051 0-.16.016-.11.016-.166.016-.072 0-.117-.027-.045-.027-.045-.096 0-.056.206-.318.384-.488.386-.493.208-.283.208-.379 0-.037-.027-.056-.024-.018-.099-.018-.05 0-.21.098-.078.048-.126.048l-.045-.008q-.016-.01-.035-.04-.019-.032-.019-.05 0-.112.216-.206.184-.08.32-.08.115 0 .176.086.053.074.053.194zM1458.827 430.628q0 .125-.133.336-.085.133-.28.384-.195.248-.243.325l.2.064q.195.059.195.214l-.158.024-.029-.003v-.022q-.043-.01-.069-.01-.05 0-.16.016-.109.016-.165.016-.072 0-.117-.027-.045-.027-.045-.096 0-.056.205-.318l.387-.493q.208-.283.208-.379 0-.037-.027-.056-.024-.018-.1-.018-.05 0-.21.098-.077.048-.125.048l-.045-.008q-.016-.01-.035-.04-.02-.032-.02-.05 0-.112.217-.206.184-.08.32-.08.114 0 .176.086.053.074.053.194z"/>
    </g>
    <g fill="none">
        <g stroke="#f4f4f4">
            <rect height="432.403" rx="10.292" ry="10.292" stroke-width="2.6" width="1512.447" x="1" y="1.112"/>
            <g stroke-width="1.3">
                <g stroke-linecap="round">
                    <path d="M1166.478 305.984h93.968v12.563h-93.968zM1166.478 328.979h93.968v11.56h-93.968zM1166.478 350.183h93.968v13.827h-93.968zM1318.334 340.984h113.322v24.69h-113.322zM1353.579 306.137h40.582v28.595h-40.582z"/>
                    <path d="M1326.084 352.407h66.81v7.89h-66.81z"/>
                </g>
                <path d="M1413.263 341.317v-28.941H1394.2M1260.446 312.376h92.782M1318.334 357.357h-57.888zM1260.446 334.498h31.388v14.194h26.5"/>
                <path d="M1398.36 345.355h28.207v16.099h-28.207z" stroke-linecap="round"/>
            </g>
            <g stroke-linecap="round" stroke-width="1.3">
                <rect height="25.958" rx="2.052" width="6.513" x="692.519" y="1"/>
                <rect height="25.958" rx="2.052" width="6.513" x="707.837" y="1"/>
                <rect height="25.958" rx="2.052" width="6.513" x="738.519" y="1"/>
                <rect height="25.958" rx="2.052" width="6.513" x="723.837" y="1"/>
                <rect height="25.958" rx="2.052" width="6.513" x="754.519" y="1"/>
                <rect height="25.958" rx="2.052" width="6.513" x="769.837" y="1"/>
                <rect height="25.958" rx="2.052" width="6.513" x="800.519" y="1"/>
                <rect height="25.958" rx="2.052" width="6.513" x="785.837" y="1"/>
                <rect height="25.958" rx="2.052" width="6.513" x="816.519" y="1"/>
                <rect height="25.958" rx="2.052" width="6.513" x="831.837" y="1"/>
                <rect height="25.958" rx="2.052" width="6.513" x="862.519" y="1"/>
                <rect height="25.958" rx="2.052" width="6.513" x="847.837" y="1"/>
                <rect height="25.958" rx="2.052" width="6.513" x="878.519" y="1"/>
                <rect height="25.958" rx="2.052" width="6.513" x="893.837" y="1"/>
                <rect height="25.958" rx="2.052" width="6.513" x="924.519" y="1"/>
                <rect height="25.958" rx="2.052" width="6.513" x="909.837" y="1"/>
                <rect height="25.958" rx="2.052" width="6.513" x="940.519" y="1"/>
                <rect height="25.958" rx="2.052" width="6.513" x="955.837" y="1"/>
                <rect height="25.958" rx="2.052" width="6.513" x="986.519" y="1"/>
                <rect height="25.958" rx="2.052" width="6.513" x="971.837" y="1"/>
                <rect height="25.958" rx="2.052" width="6.513" x="1002.519" y="1"/>
                <rect height="25.958" rx="2.052" width="6.513" x="1017.837" y="1"/>
                <rect height="25.958" rx="2.052" width="6.513" x="1048.519" y="1"/>
                <rect height="25.958" rx="2.052" width="6.513" x="1033.837" y="1"/>
                <rect height="25.958" rx="2.052" width="6.513" x="1064.519" y="1"/>
                <rect height="25.958" rx="2.052" width="6.513" x="1079.837" y="1"/>
                <rect height="25.958" rx="2.052" width="6.513" x="1110.519" y="1"/>
                <rect height="25.958" rx="2.052" width="6.513" x="1095.837" y="1"/>
                <rect height="25.958" rx="2.052" width="6.513" x="1126.519" y="1"/>
                <rect height="25.958" rx="2.052" width="6.513" x="1141.837" y="1"/>
                <rect height="25.958" rx="2.052" width="6.513" x="1172.519" y="1"/>
                <rect height="25.958" rx="2.052" width="6.513" x="1157.837" y="1"/>
                <rect height="25.958" rx="2.052" width="6.513" x="1188.519" y="1"/>
                <rect height="25.958" rx="2.052" width="6.513" x="1203.837" y="1"/>
                <rect height="25.958" rx="2.052" width="6.513" x="1234.519" y="1"/>
                <rect height="25.958" rx="2.052" width="6.513" x="1219.837" y="1"/>
                <rect height="25.958" rx="2.052" width="6.513" x="1250.519" y="1"/>
                <rect height="25.958" rx="2.052" width="6.513" x="1265.837" y="1"/>
                <rect height="25.958" rx="2.052" width="6.513" x="1296.519" y="1"/>
                <rect height="25.958" rx="2.052" width="6.513" x="1281.837" y="1"/>
                <rect height="25.958" rx="2.052" width="6.513" x="1312.519" y="1"/>
                <rect height="25.958" rx="2.052" width="6.513" x="1327.837" y="1"/>
                <rect height="25.958" rx="2.052" width="6.513" x="1358.519" y="1"/>
                <rect height="25.958" rx="2.052" width="6.513" x="1343.837" y="1"/>
                <rect height="25.958" rx="2.052" width="6.513" x="1374.519" y="1"/>
                <rect height="25.958" rx="2.052" width="6.513" x="1389.837" y="1"/>
                <rect height="25.958" rx="2.052" width="6.513" x="1420.519" y="1"/>
                <rect height="25.958" rx="2.052" width="6.513" x="1405.837" y="1"/>
                <rect height="25.958" rx="2.052" width="6.513" x="1436.519" y="1"/>
                <rect height="25.958" rx="2.052" width="6.513" x="1451.837" y="1"/>
                <rect height="25.958" rx="2.052" width="6.513" x="55.837" y="1"/>
                <rect height="25.958" rx="2.052" width="6.513" x="86.519" y="1"/>
                <rect height="25.958" rx="2.052" width="6.513" x="71.837" y="1"/>
                <rect height="25.958" rx="2.052" width="6.513" x="102.519" y="1"/>
                <rect height="25.958" rx="2.052" width="6.513" x="117.837" y="1"/>
                <rect height="25.958" rx="2.052" width="6.513" x="148.519" y="1"/>
                <rect height="25.958" rx="2.052" width="6.513" x="133.837" y="1"/>
                <rect height="25.958" rx="2.052" width="6.513" x="164.519" y="1"/>
                <rect height="25.958" rx="2.052" width="6.513" x="179.837" y="1"/>
                <rect height="25.958" rx="2.052" width="6.513" x="210.519" y="1"/>
                <rect height="25.958" rx="2.052" width="6.513" x="195.837" y="1"/>
                <rect height="25.958" rx="2.052" width="6.513" x="226.519" y="1"/>
                <rect height="25.958" rx="2.052" width="6.513" x="241.837" y="1"/>
                <rect height="25.958" rx="2.052" width="6.513" x="272.519" y="1"/>
                <rect height="25.958" rx="2.052" width="6.513" x="257.837" y="1"/>
                <rect height="25.958" rx="2.052" width="6.513" x="288.519" y="1"/>
                <rect height="25.958" rx="2.052" width="6.513" x="303.837" y="1"/>
                <rect height="25.958" rx="2.052" width="6.513" x="334.519" y="1"/>
                <rect height="25.958" rx="2.052" width="6.513" x="319.837" y="1"/>
                <rect height="25.958" rx="2.052" width="6.513" x="350.519" y="1"/>
                <rect height="25.958" rx="2.052" width="6.513" x="365.837" y="1"/>
                <rect height="25.958" rx="2.052" width="6.513" x="396.519" y="1"/>
                <rect height="25.958" rx="2.052" width="6.513" x="381.837" y="1"/>
                <rect height="25.958" rx="2.052" width="6.513" x="412.519" y="1"/>
                <rect height="25.958" rx="2.052" width="6.513" x="427.837" y="1"/>
                <rect height="25.958" rx="2.052" width="6.513" x="458.519" y="1"/>
                <rect height="25.958" rx="2.052" width="6.513" x="443.837" y="1"/>
                <rect height="25.958" rx="2.052" width="6.513" x="474.519" y="1"/>
                <rect height="25.958" rx="2.052" width="6.513" x="489.837" y="1"/>
                <rect height="25.958" rx="2.052" width="6.513" x="520.519" y="1"/>
                <rect height="25.958" rx="2.052" width="6.513" x="505.837" y="1"/>
                <rect height="25.958" rx="2.052" width="6.513" x="536.519" y="1"/>
                <rect height="25.958" rx="2.052" width="6.513" x="551.837" y="1"/>
                <rect height="25.958" rx="2.052" width="6.513" x="582.519" y="1"/>
                <rect height="25.958" rx="2.052" width="6.513" x="567.837" y="1"/>
                <rect height="25.958" rx="2.052" width="6.513" x="598.519" y="1"/>
                <rect height="25.958" rx="2.052" width="6.513" x="613.837" y="1"/>
                <rect height="25.958" rx="2.052" width="6.513" x="644.519" y="1"/>
                <rect height="25.958" rx="2.052" width="6.513" x="629.837" y="1"/>
                <rect height="25.958" rx="2.052" width="6.513" x="660.519" y="1"/>
                <rect height="25.958" rx="2.052" width="6.513" x="675.837" y="1"/>
            </g>
            <g stroke-width="1.95">
                <path d="M1357.575 210.616v18.804h-112.819v-18.804M1327.795 210.616v18.804M1322.292 223.443v5.977M1317 223.443v5.977M1311.736 223.443v5.977M1306.592 223.443v5.977M1300.953 210.616v26.894M1295.854 223.443v5.977M1290.563 223.443v5.977M1285.298 223.443v5.977M1279.72 223.443v5.977M1274.68 210.616v18.804M1352.007 221.124h11.043M1239.19 221.124h11.042"/>
            </g>
            <g stroke-width="2.6">
                <g transform="translate(-163.636 -166.747)">
                    <rect height="15.047" rx="3.157" stroke-linecap="round" width="266.419" x="1330.114" y="425.446"/>
                    <circle cx="1408.198" cy="348.061" r="11.5" stroke-linecap="round"/>
                    <rect height="34.468" rx="3.157" width="64.989" x="1432.693" y="331.487"/>
                    <path d="M1307.243 377.363h315.346M1306.517 265.116h316.202V455.39h-316.202z"/>
                    <rect height="122.404" rx="1.722" width="316.202" x="1306.517" y="254.96"/>
                    <circle cx="1520.903" cy="348.422" r="11.5" stroke-linecap="round"/>
                </g>
                <rect height="71.826" rx="5.634" width="316.202" x="1142.881" y="299.04"/>
                <rect height="19.025" rx="3.157" width="66.625" x="1191.297" y="57.384"/>
            </g>
        </g>
        <g stroke-linecap="round">
            <circle cx="846.503" cy="83.044" stroke="#fff4f4" stroke-width="1.3" r="5.423"/>
            <rect height="63.189" rx="2.052" stroke="#f4f4f4" stroke-width="2.6" width="790.904" x="89.47" y="62.08"/>
            <rect height="20.88" rx="1.858" stroke="#f4f4f4" stroke-width="2.6" width="57.841" x="743.257" y="95.061"/>
            <g stroke="#f4f4f4" stroke-width="2.6">
                <rect height="46" rx="3.157" width="46" x="1196.868" y="379.409"/>
                <rect height="46" rx="3.157" width="46" x="1142.868" y="379.409"/>
                <rect height="46" rx="3.157" width="46" x="1304.868" y="379.409"/>
                <rect height="46" rx="3.157" width="46" x="1250.868" y="379.409"/>
                <rect height="46" rx="3.157" width="46" x="1412.868" y="379.409"/>
                <rect height="46" rx="3.157" width="46" x="1358.868" y="379.409"/>
            </g>
            <g stroke="#f4f4f4" stroke-width="2.6">
                <rect height="41" rx="3.157" width="41" x="1037.099" y="257.257"/>
                <rect height="41" rx="3.157" width="41" x="985.099" y="257.257"/>
                <rect height="41" rx="3.157" width="41" x="933.099" y="257.257"/>
                <rect height="41" rx="3.157" width="41" x="1037.099" y="205.257"/>
                <rect height="41" rx="3.157" width="41" x="985.099" y="205.257"/>
                <rect height="41" rx="3.157" width="41" x="933.099" y="205.257"/>
                <rect height="41" rx="3.157" width="41" x="1037.099" y="361.257"/>
                <rect height="41" rx="3.157" width="41" x="985.099" y="361.257"/>
                <rect height="41" rx="3.157" width="41" x="933.099" y="361.257"/>
                <rect height="41" rx="3.157" width="41" x="1037.099" y="309.257"/>
                <rect height="41" rx="3.157" width="41" x="985.099" y="309.257"/>
                <rect height="41" rx="3.157" width="41" x="933.099" y="309.257"/>
            </g>
            <g stroke="#f4f4f4" stroke-width="2.6">
                <rect height="41" rx="3.157" width="41" x="985.099" y="141.257"/>
                <rect height="41" rx="3.157" width="41" x="1037.099" y="89.257"/>
                <rect height="41" rx="3.157" width="41" x="985.099" y="89.257"/>
                <rect height="41" rx="3.157" width="41" x="933.099" y="89.257"/>
                <rect height="41" rx="3.157" width="41" x="985.099" y="37.257"/>
            </g>
            <g stroke="#f4f4f4" stroke-width="2.6">
                <rect height="41" rx="3.157" ry="3.157" width="457" x="255.099" y="359.257"/>
                <rect height="41" rx="3.157" width="41" x="723.099" y="359.257"/>
            </g>
            <g stroke="#f4f4f4" stroke-width="2.6">
                <rect height="41" rx="3.157" width="41" x="515.099" y="309.257"/>
                <rect height="41" rx="3.157" width="41" x="463.099" y="309.257"/>
                <rect height="41" rx="3.157" width="41" x="411.099" y="309.257"/>
                <rect height="41" rx="3.157" width="41" x="359.099" y="309.257"/>
                <rect height="41" rx="3.157" width="41" x="307.099" y="309.257"/>
                <rect height="41" rx="3.157" width="41" x="255.099" y="309.257"/>
                <rect height="41" rx="3.157" width="41" x="203.099" y="309.257"/>
                <rect height="41" rx="3.157" width="102.628" x="89.47" y="309.257"/>
                <rect height="41" rx="3.157" width="105.276" x="775.099" y="309.257"/>
                <rect height="41" rx="3.157" width="41" x="723.099" y="309.257"/>
                <rect height="41" rx="3.157" width="41" x="671.099" y="309.257"/>
                <rect height="41" rx="3.157" width="41" x="619.099" y="309.257"/>
                <rect height="41" rx="3.157" width="41" x="567.099" y="309.257"/>
            </g>
            <g stroke="#f4f4f4" stroke-width="2.6" transform="translate(-163.636 -166.747)">
                <rect height="41" rx="3.157" width="41" x="704.735" y="424.005"/>
                <rect height="41" rx="3.157" width="41" x="652.735" y="424.005"/>
                <rect height="41" rx="3.157" width="41" x="600.735" y="424.005"/>
                <rect height="41" rx="3.157" width="41" x="548.735" y="424.005"/>
                <rect height="41" rx="3.157" width="41" x="496.735" y="424.005"/>
                <rect height="41" rx="3.157" width="41" x="444.735" y="424.005"/>
                <rect height="41" rx="3.157" width="41" x="392.735" y="424.005"/>
                <rect height="41" rx="3.157" width="41" x="340.735" y="424.005"/>
                <rect height="41" rx="3.157" width="76.628" x="253.106" y="424.005"/>
                <rect height="41" rx="3.157" width="41" x="912.735" y="424.005"/>
                <rect height="41" rx="3.157" width="41" x="860.735" y="424.005"/>
                <rect height="41" rx="3.157" width="41" x="808.735" y="424.005"/>
                <rect height="41" rx="3.157" width="41" x="756.735" y="424.005"/>
                <path d="m964.757 421.564-.022 5.598v34.686a3.15 3.15 0 0 0 3.157 3.157h72.962a3.15 3.15 0 0 0 3.157-3.157v-86.686a3.15 3.15 0 0 0-3.157-3.157h-86.962a3.15 3.15 0 0 0-3.157 3.157v34.686a3.15 3.15 0 0 0 3.157 3.157h4.19l3.496-.02a3.15 3.15 0 0 1 3.157 3.158z"/>
            </g>
            <g stroke="#f4f4f4" stroke-width="2.6">
                <rect height="41" rx="3.157" width="41" x="527.099" y="205.257"/>
                <rect height="41" rx="3.157" width="41" x="475.099" y="205.257"/>
                <rect height="41" rx="3.157" width="41" x="423.099" y="205.257"/>
                <rect height="41" rx="3.157" width="41" x="371.099" y="205.257"/>
                <rect height="41" rx="3.157" width="41" x="319.099" y="205.257"/>
                <rect height="41" rx="3.157" width="41" x="267.099" y="205.257"/>
                <rect height="41" rx="3.157" width="41" x="215.099" y="205.257"/>
                <rect height="41" rx="3.157" width="41" x="163.099" y="205.257"/>
                <rect height="41" rx="3.157" width="62.628" x="89.47" y="205.257"/>
                <rect height="41" rx="3.157" width="41" x="735.099" y="205.257"/>
                <rect height="41" rx="3.157" width="41" x="683.099" y="205.257"/>
                <rect height="41" rx="3.157" width="41" x="631.099" y="205.257"/>
                <rect height="41" rx="3.157" width="41" x="579.099" y="205.257"/>
            </g>
            <g stroke="#f4f4f4" stroke-width="2.6">
                <rect height="41" rx="3.157" width="41" x="554.131" y="153.257"/>
                <rect height="41" rx="3.157" width="41" x="502.131" y="153.257"/>
                <rect height="41" rx="3.157" width="41" x="450.131" y="153.257"/>
                <rect height="41" rx="3.157" width="41" x="398.131" y="153.257"/>
                <rect height="41" rx="3.157" width="41" x="346.131" y="153.257"/>
                <rect height="41" rx="3.157" width="41" x="294.131" y="153.257"/>
                <rect height="41" rx="3.157" width="41" x="242.131" y="153.257"/>
                <rect height="41" rx="3.157" width="41" x="190.131" y="153.257"/>
                <rect height="41" rx="3.157" width="66.244" x="814.131" y="153.257"/>
                <rect height="41" rx="3.157" width="41" x="762.131" y="153.257"/>
                <rect height="41" rx="3.157" width="41" x="710.131" y="153.257"/>
                <rect height="41" rx="3.157" width="41" x="658.131" y="153.257"/>
                <rect height="41" rx="3.157" width="41" x="606.131" y="153.257"/>
                <rect height="41" rx="3.157" width="39.528" x="139.603" y="153.257"/>
                <rect height="41" rx="3.157" width="39.528" x="89.47" y="153.257"/>
            </g>
            <rect height="9.1" rx=".525" stroke="#f4f4f4" stroke-width="1.3" width="9.1" x="1242.834" y="62.316"/>
        </g>
    </g>
</svg>
