<svg version="1.2" baseProfile="tiny" xmlns="http://www.w3.org/2000/svg" width="598.189" height="350.26" xml:space="preserve">
    <path fill="#F4F4F4" d="m407.349 51.894-.313.531-6 9.281 1.688 1.094 5.656-8.781 91.5 9.906 3.375 8.188 1.844-.75-3.594-8.75-.219-.563-.594-.063-92.719-10.031-.624-.062z"/>
    <path fill="#F4F4F4" d="M398.505 58.456 17.723 79.331l-.406.031-.281.313-9.813 11.531-.25.281v139.282l.25.281 9.813 11.531.281.313.406.031L398.505 263.8l.375.031.313-.25 17.656-13.813 78.625-5.813 12.656 11.469.406.375.5-.125 5.906-1.469.313-.094.188-.25 7.625-8.813.125-.156.063-.188 4.906-14.719.063-.156V224.485h-.531v-.594h.531V98.362h-.531v-.594h.531V92.456l-.063-.156-4.906-14.75-.063-.188-.125-.125-7.625-8.844-.188-.25-.313-.094-5.906-1.469-.5-.125-.406.375-12.688 11.5-78.594-5.844-17.656-13.813-.313-.219h-.374v.002zm-.25 2.031 17.625 13.75.25.188.281.031 79.313 5.875.406.031.344-.281 12.625-11.438 5.094 1.313 7.219 8.406 4.813 14.469v2.938h-.531V100.363h.531V221.895h-.531V226.489h.531v2.938l-4.813 14.438-7.25 8.469-5.063 1.281-12.625-11.438-.344-.281-.406.031-79.313 5.875-.281.031-.25.188-17.625 13.75-379.969-20.815-9.313-10.938V92.237L18.286 81.3l379.969-20.813z"/>
    <path fill="#F4F4F4" d="m503.255 250.144-3.375 8.188-91.5 9.906-5.656-8.781-1.688 1.094 6 9.313.313.5.625-.063 92.719-10.031.594-.063.219-.563 3.594-8.75-1.845-.75zM401.692 91.831l-386.594 5.25h-.219l-5.969 1.5-.781.188v124.75l.781.188 5.969 1.469.125.031h.094l386.594 5.25h.031l125-3.969-.063-2-124.938 3.969h-.063l-386.438-5.25-5.094-1.281V100.331l5.094-1.25 386.438-5.25h.063l124.938 3.938.063-2-125-3.938h-.031z"/>
    <path fill="#F4F4F4" d="m273.879 95.144-1.031.031-257.781 3.187h-.125l-.125.031-5.906 1.719.563 1.906 5.625-1.656h.063l256.719-3.188V225.08l-256.719-3.188h-.063l-5.625-1.656-.563 1.906 5.906 1.719.125.031h.125l257.781 3.188 1.031.031V95.144zM281.418 226.729l-7.46-7.463.002-32.573v-4.283l9.912-.002v-1.219h-9.912v-4.119l9.912-.002v-1.22h-9.912v-4.763h9.91v-1.222h-9.91v-4.853h9.912v-1.224h-9.912v-4.393h9.912v-1.224h-9.912v-4.208l9.91-.002v-1.219h-9.91v-4.579h9.91v-1.222h-9.91v-4.578h9.91v-1.222h-9.91v-4.396h9.91v-1.222h-9.912v-32.532l7.46-7.458h110.2l8.32 8.316v31.674h-10.957v1.222h10.955v4.396h-10.955v1.222h10.955v4.578h-10.955v1.222h10.955v4.579h-10.955v1.221h10.955v4.208h-10.955v1.224h10.955v4.393h-10.955v1.224h10.955v4.853h-10.955v1.222h10.955v4.763l-10.955-.002v1.224h10.955v4.119h-10.955v1.221h10.957v36l-8.32 8.32h-110.2v-.001zm-5.459-40.037v31.745l6.287 6.289H390.79l7.146-7.148v-33.169h-10.955v-5.224h10.955v-.116h-10.955v-5.223h10.957v-.762h-10.957v-5.222h10.957v-.853h-10.957v-5.224h10.957v-.394h-10.957v-5.223h10.955v-.208h-10.955v-5.221h10.955v-.579h-10.955v-5.222l10.955-.002v-.577h-10.955v-5.221l10.957-.002v-.394h-10.957v-5.222h10.955v-28.844l-7.146-7.146H282.247l-6.289 6.287v29.704h9.912v5.222h-9.912v.396h9.912v5.221h-9.912v.579h9.912v5.222h-9.912v.579h9.912v5.221h-9.912v.208h9.912v5.223h-9.912v.394h9.912v5.224h-9.912v.853h9.912v5.222h-9.912v.762h9.912v5.223h-9.912v.116h9.912v5.224h-9.912l.001 2.282zM401.804 95.75l8.444.234v128.288l-7.418.184-.025-.999.025.999-1.026.023V95.75zm2.002 126.681 4.44-.109V97.929l-4.44-.125v124.627zm7.021-126.428 7.982.222v127.833l-6.956.174-.025-.999.025.999-1.026.025V96.003zm2.002 126.204 3.982-.1V98.17l-3.982-.112v124.149zm6.559-125.965 7.985.222v127.38l-6.959.175-.025-.998.025.998-1.026.025V96.242zm2.002 125.751 3.983-.101V98.411l-3.983-.112v123.694zm6.561-125.511 7.982.222V223.63l-6.958.174-.023-.999.023.999-1.024.025V96.482zm2 125.298 3.982-.099V98.651l-3.982-.112V221.78zm6.562-125.059 7.986.224v126.472l-6.961.176-.025-1.001.025 1.001-1.025.025V96.721zm2.001 124.845 3.983-.101V98.89l-3.983-.112v122.788zm6.561-124.604 7.984.224v126.018l-6.958.173-.025-.999.025.999-1.026.023V96.962zm2.002 124.39 3.98-.099V99.131l-3.98-.112v122.333zm6.56-124.149 7.984.222V222.99l-6.958.174-.025-.999.025.999-1.026.025V97.203zm2.002 123.936 3.982-.1V99.369l-3.982-.112v121.882zm6.56-123.696 7.984.222v125.112l-6.96.173-.023-.999.023.999-1.024.025V97.443zm2 123.484 3.985-.101V99.61l-3.985-.109v121.426zm6.56-123.245 7.984.222v124.66l-6.959.174-.024-.999.024.999-1.025.025V97.682zm2.002 123.032 3.982-.099V99.849l-3.982-.112v120.977zm6.562-122.793 7.984.224v124.206l-6.96.173-.025-.998.025.998-1.024.025V97.921zm1.998 122.577 3.984-.099v-120.31l-3.984-.112v120.521zm6.564-122.336 7.984.222v123.754l-6.96.173-.023-.999.023.999-1.024.023V98.162zm2 122.123 3.984-.099V100.33l-3.984-.112v120.067zm6.562-121.883 7.982.222v123.3l-6.958.174-.023-.999.023.999-1.024.025V98.402zm2 121.67 3.983-.1V100.571l-3.983-.112v119.613zm6.562-121.431 7.982.222V221.71l-6.958.175-.025-.999.025.999-1.024.023V98.641zm1.998 121.217 3.984-.099V100.81l-3.984-.112v119.16zm6.562-119.948v-1.029l8.447.234v122.369l-8.447.21V99.91zm2 119.734 4.445-.107V101.063l-4.443-.125-.002 118.706zm-1.026-118.735.027-.999-.027.999z"/>
    <path fill="#F4F4F4" d="m390.505 95.8-20.438 19.594 1.406 1.438 20.438-19.563-1.406-1.469zM282.504 95.8l-1.344 1.469 21.157 19.563 1.375-1.469L282.504 95.8zM302.317 205.425l-21.157 19.563 1.344 1.469 21.188-19.563-1.375-1.469zM371.474 205.425l-1.406 1.438 20.438 19.594 1.406-1.438-20.438-19.594zM398.13 103.675l-16.844 23.156 1.625 1.188 16.844-23.156-1.625-1.188zM275.817 102.894l-1.719 1.031 15.531 25.219 1.719-1.031-15.531-25.219zM289.629 193.112l-15.531 25.219 1.719 1.031 15.531-25.219-1.719-1.031zM382.911 194.237l-1.625 1.188 16.844 23.156 1.625-1.188-16.844-23.156zM336.349 112.706c-26.879 0-48.688 21.809-48.688 48.688 0 26.878 21.809 48.688 48.688 48.688 26.877 0 48.688-21.81 48.688-48.688-.001-26.879-21.811-48.688-48.688-48.688zm0 2c25.797 0 46.688 20.89 46.688 46.688 0 25.797-20.891 46.688-46.688 46.688-25.798 0-46.688-20.891-46.688-46.688 0-25.798 20.89-46.688 46.688-46.688z"/>
    <path fill="#F4F4F4" d="m352.864 207.148-.347-1.938c13.755-5.082 24.455-16.47 28.612-30.646l1.961.283v20.393l-11.911 11.909h-18.315v-.001zm4.868-2.001 12.619-.002 10.737-10.737v-13.829a48.838 48.838 0 0 1-23.356 24.568zm-55.143 2.001-13.103-13.109V174.52l1.962-.274c4.09 14.324 14.843 25.842 28.701 30.963l-.348 1.938h-17.212v.001zm-11.101-13.936 11.934 11.937h11.514a48.847 48.847 0 0 1-23.449-24.794l.001 12.857zm-1.962-18.417.961-.274-.961.274zm-.04-26.505v-20.073l13.104-13.107h18.825l.313 1.95c-14.615 4.81-26.038 16.642-30.281 31.504l-1.961-.274zm2-5.832a48.83 48.83 0 0 1 24.639-25.348H303.42l-11.934 11.936v13.412zm59.452-25.398.313-1.95h19.515v.999l-.708.708.708-.708v-.999h.413l11.909 11.909v20.948l-1.959.28c-4.313-14.714-15.681-26.414-30.191-31.187zm30.152 25.176-.001-14.387-10.737-10.74h-13.809a48.853 48.853 0 0 1 24.547 25.127zM534.38 173.206v2h6.5v-2h-6.5zM547.849 173.206v2h6.5v-2h-6.5zM561.317 173.206v2h6.5v-2h-6.5zM574.817 173.206v2h6.531v-2h-6.531zM588.255 173.206v2h6.531v-2h-6.531zM588.411 154.987v2h6.375v-2h-6.375zM574.911 154.987v2h6.5v-2h-6.5zM561.349 154.987v2h6.594v-2h-6.594zM547.88 154.987v2h6.563v-2h-6.563zM534.442 154.987v2h6.469v-2h-6.469z"/>
    <path fill="#F4F4F4" d="m526.091 147.933 9.241.405v33.498l-8.196.362-.043-1 .043 1-1.045.045v-34.31zm2.002 32.219 5.239-.231v-29.668l-5.239-.23v30.129zm11.748-31.613 8.964.396v32.303l-7.921.352-.043-.997.043.997-1.043.047v-33.098zm1.998 31.007 4.966-.22v-28.479l-4.966-.22v28.919zm11.473-30.415 8.966.396v31.118l-7.923.352-.043-.999.043.999-1.043.045v-31.911zm1.998 29.82 4.968-.22v-27.289l-4.968-.22v27.729zm11.472-29.223 8.968.395v29.93l-7.923.35-.043-.997.043.997-1.045.047v-30.722zm2.002 28.628 4.966-.218v-26.102l-4.966-.22v26.54zm11.469-28.035 8.968.396v28.739l-7.923.352-.043-.998.043.998-1.045.047v-29.534zm2.002 27.443 4.966-.22V152.63l-4.966-.22v25.354zm11.472-25.804v-1.045l9.489.418v27.508l-9.489.418V151.96zm1.999 25.208 5.488-.24v-23.68l-5.488-.242v24.162zm-1.044-24.208.045-1-.045 1z"/>
</svg>
