<svg xmlns="http://www.w3.org/2000/svg" width="598.885" height="350.993" viewBox="0 0 158.455 92.867">
    <defs>
        <linearGradient id="b">
            <stop offset="0" style="stop-color:#8f9299;stop-opacity:1"/>
            <stop style="stop-color:#9f9fa1;stop-opacity:1" offset=".059"/>
            <stop offset=".497" style="stop-color:#84878e;stop-opacity:1"/>
            <stop style="stop-color:#5e6166;stop-opacity:1" offset=".883"/>
            <stop offset="1" style="stop-color:#575a5f;stop-opacity:1"/>
        </linearGradient>
        <linearGradient id="a">
            <stop style="stop-color:#8f9299;stop-opacity:1" offset="0"/>
            <stop offset=".012" style="stop-color:#9f9fa1;stop-opacity:1"/>
            <stop style="stop-color:#84878e;stop-opacity:1" offset=".497"/>
            <stop offset=".883" style="stop-color:#5e6166;stop-opacity:1"/>
            <stop style="stop-color:#575a5f;stop-opacity:1" offset="1"/>
        </linearGradient>
    </defs>
    <g style="stroke-width:1.24834025;stroke-miterlimit:4;stroke-dasharray:none">
        <path d="M-4.639 263.82a4.557 4.557 0 0 0-4.56 4.56V327.844a3.97 3.97 0 0 0 3.97 3.973h79.073a3.971 3.971 0 0 0 3.972-3.972V274.12a3.971 3.971 0 0 0-3.972-3.973H23.756c-1.182 0-3.07-.806-3.76-3.132-.39-1.318-1.347-2.124-2.266-2.588-.918-.464-1.773-.606-2.166-.606l-19.91-.002zm0 .588 20.203.002c.222 0 1.078.126 1.9.541.823.416 1.634 1.102 1.97 2.233.762 2.57 2.874 3.552 4.322 3.552h50.088a3.371 3.371 0 0 1 3.385 3.385v53.723a3.371 3.371 0 0 1-3.385 3.385H-5.23a3.371 3.371 0 0 1-3.384-3.385V268.38a3.959 3.959 0 0 1 3.974-3.973z" style="color:#000;font-style:normal;font-variant:normal;font-weight:400;font-stretch:normal;font-size:medium;line-height:normal;font-family:sans-serif;text-indent:0;text-align:start;text-decoration:none;text-decoration-line:none;text-decoration-style:solid;text-decoration-color:#000;letter-spacing:normal;word-spacing:normal;text-transform:none;direction:ltr;writing-mode:lr-tb;baseline-shift:baseline;text-anchor:start;white-space:normal;clip-rule:nonzero;display:inline;overflow:visible;visibility:visible;opacity:1;isolation:auto;mix-blend-mode:normal;color-interpolation:sRGB;color-interpolation-filters:linearRGB;solid-color:#000;solid-opacity:1;fill:#fff;fill-opacity:1;fill-rule:nonzero;stroke:none;stroke-width:.58751982;stroke-linecap:butt;stroke-linejoin:miter;stroke-miterlimit:4;stroke-dasharray:none;stroke-dashoffset:0;stroke-opacity:1;color-rendering:auto;image-rendering:auto;shape-rendering:auto;text-rendering:auto;enable-background:accumulate" transform="matrix(1.07679 0 0 1.07679 42.286 -274.253)"/>
        <path d="M-4.47 274.223a4.727 4.727 0 0 0-4.731 4.73v44.162h.588V278.953c0-2.3 1.843-4.142 4.142-4.142h77.557c2.3 0 4.143 1.842 4.143 4.142v44.162h.587V278.953a4.727 4.727 0 0 0-4.73-4.73z" style="color:#000;font-style:normal;font-variant:normal;font-weight:400;font-stretch:normal;font-size:medium;line-height:normal;font-family:sans-serif;text-indent:0;text-align:start;text-decoration:none;text-decoration-line:none;text-decoration-style:solid;text-decoration-color:#000;letter-spacing:normal;word-spacing:normal;text-transform:none;direction:ltr;writing-mode:lr-tb;baseline-shift:baseline;text-anchor:start;white-space:normal;clip-rule:nonzero;display:inline;overflow:visible;visibility:visible;opacity:1;isolation:auto;mix-blend-mode:normal;color-interpolation:sRGB;color-interpolation-filters:linearRGB;solid-color:#000;solid-opacity:1;fill:#fff;fill-opacity:1;fill-rule:nonzero;stroke:none;stroke-width:.58751976;stroke-linecap:butt;stroke-linejoin:miter;stroke-miterlimit:4;stroke-dasharray:none;stroke-dashoffset:0;stroke-opacity:1;color-rendering:auto;image-rendering:auto;shape-rendering:auto;text-rendering:auto;enable-background:accumulate" transform="matrix(1.07679 0 0 1.07679 42.286 -274.253)"/>
        <path d="M-9.021 324.762V327.074h86.658v-2.312zm.228.228h86.201v1.856H-8.793z" style="color:#000;font-style:normal;font-variant:normal;font-weight:400;font-stretch:normal;font-size:medium;line-height:normal;font-family:sans-serif;text-indent:0;text-align:start;text-decoration:none;text-decoration-line:none;text-decoration-style:solid;text-decoration-color:#000;letter-spacing:normal;word-spacing:normal;text-transform:none;direction:ltr;writing-mode:lr-tb;baseline-shift:baseline;text-anchor:start;white-space:normal;clip-rule:nonzero;display:inline;overflow:visible;visibility:visible;opacity:1;isolation:auto;mix-blend-mode:normal;color-interpolation:sRGB;color-interpolation-filters:linearRGB;solid-color:#000;solid-opacity:1;fill:#fff;fill-opacity:1;fill-rule:nonzero;stroke:none;stroke-width:.22847994;stroke-linecap:butt;stroke-linejoin:miter;stroke-miterlimit:4;stroke-dasharray:none;stroke-dashoffset:0;stroke-opacity:1;color-rendering:auto;image-rendering:auto;shape-rendering:auto;text-rendering:auto;enable-background:accumulate" transform="matrix(1.07679 0 0 1.07679 42.286 -274.253)"/>
        <path d="M-9.021 326.846v2.037h86.658v-2.037zm.228.228h86.201v1.58H-8.793z" style="color:#000;font-style:normal;font-variant:normal;font-weight:400;font-stretch:normal;font-size:medium;line-height:normal;font-family:sans-serif;text-indent:0;text-align:start;text-decoration:none;text-decoration-line:none;text-decoration-style:solid;text-decoration-color:#000;letter-spacing:normal;word-spacing:normal;text-transform:none;direction:ltr;writing-mode:lr-tb;baseline-shift:baseline;text-anchor:start;white-space:normal;clip-rule:nonzero;display:inline;overflow:visible;visibility:visible;opacity:1;isolation:auto;mix-blend-mode:normal;color-interpolation:sRGB;color-interpolation-filters:linearRGB;solid-color:#000;solid-opacity:1;fill:#fff;fill-opacity:1;fill-rule:nonzero;stroke:none;stroke-width:.22847994;stroke-linecap:butt;stroke-linejoin:miter;stroke-miterlimit:4;stroke-dasharray:none;stroke-dashoffset:0;stroke-opacity:1;color-rendering:auto;image-rendering:auto;shape-rendering:auto;text-rendering:auto;enable-background:accumulate" transform="matrix(1.07679 0 0 1.07679 42.286 -274.253)"/>
        <path d="M155.445 315.316v24.305h24.305v-24.305zm1.248 1.248h21.809v21.81h-21.809zM184.549 315.316v24.305h24.305v-24.305zm1.248 1.248h21.808v21.81h-21.808zM213.652 315.316v24.305h24.305v-24.305zm1.248 1.248h21.809v21.81H214.9zM155.445 257.11v24.304h24.305V257.11zm1.248 1.247h21.809v21.809h-21.809zM184.549 257.11v24.304h24.305V257.11zm1.248 1.247h21.808v21.809h-21.808zM213.652 257.11v24.304h24.305V257.11zm1.248 1.247h21.809v21.809H214.9zM155.445 286.213v24.305h24.305v-24.305zm1.248 1.248h21.809v21.809h-21.809zM184.549 286.213v24.305h24.305v-24.305zm1.248 1.248h21.808v21.809h-21.808zM213.652 286.213v24.305h24.305v-24.305zm1.248 1.248h21.809v21.809H214.9z" style="color:#000;font-style:normal;font-variant:normal;font-weight:400;font-stretch:normal;font-size:medium;line-height:normal;font-family:sans-serif;text-indent:0;text-align:start;text-decoration:none;text-decoration-line:none;text-decoration-style:solid;text-decoration-color:#000;letter-spacing:normal;word-spacing:normal;text-transform:none;direction:ltr;writing-mode:lr-tb;baseline-shift:baseline;text-anchor:start;white-space:normal;clip-rule:nonzero;display:inline;overflow:visible;visibility:visible;opacity:1;isolation:auto;mix-blend-mode:normal;color-interpolation:sRGB;color-interpolation-filters:linearRGB;solid-color:#000;solid-opacity:1;fill:#fff;fill-opacity:1;fill-rule:nonzero;stroke:none;stroke-width:1.24834025;stroke-linecap:butt;stroke-linejoin:miter;stroke-miterlimit:4;stroke-dasharray:none;stroke-dashoffset:0;stroke-opacity:1;color-rendering:auto;image-rendering:auto;shape-rendering:auto;text-rendering:auto;enable-background:accumulate" transform="translate(-24.023 -107.866) scale(.52491)"/>
    </g>
</svg>
