<svg height="351.249" viewBox="0 0 921.666 772.748" width="418.939" xmlns="http://www.w3.org/2000/svg">
    <g fill="#f4f4f4" fill-opacity=".5" stroke-width="2.2">
        <path d="M500.518 702.809q0 .704-.17 1.185-.252.716-.81.716-.369 0-.774-.17-.487-.206-.534-.505.165 0 .388.059.516.135.645.135.499 0 .75-.499.2-.399.2-.956 0-.393-.258-1.12-.252-.734-.252-1.022 0-.088.047-.14.053-.06.14-.06.23 0 .447 1.057.181.892.181 1.32zM502.777 703.407q0 .599-.346.939-.346.34-.956.34-.335 0-.517-.158-.181-.159-.181-.487 0-.464.604-.933.575-.446 1.062-.446.223 0 .293.276.041.158.041.47zm-.358.165q0-.07-.017-.135-.012-.07-.047-.159-.094.065-.311.317-.112.13-.194.188 0-.112.024-.182.047-.1.076-.17-.258 0-.54.217-.275.217-.275.47 0 .17.187.17.358 0 .693-.177.404-.21.404-.54zM505.194 703.648q0 .287-.217.645-.246.405-.51.405-.077 0-.13-.082-.046-.088-.046-.17 0-.106.223-.329.229-.229.229-.31 0-.054-.018-.106l-.024-.07q-.44.099-.897.504-.452.405-.687.457-.046-.129-.046-.264 0-.164.076-.346.053-.129.176-.31.205-.312.434-.705l.405-.71q.293-.504.428-.715.07-.106.123-.159.077-.07.182-.094.07.024.1.088.035.065.035.153 0 .2-.258.54-.47.61-.481.633-.264.4-.264.722l.011.059q.323-.159.382-.182.24-.1.41-.1.188 0 .276.13.088.122.088.316zM507.916 703.302q0 .399-.193.85-.211.499-.522.687-.065-.077-.112-.17-.041-.094-.041-.188 0-.1.293-.593.13-.217.118-.381l-.006-.076q-.217.064-.751.393-.528.322-1.068.657-.082 0-.152-.059-.065-.064-.065-.14 0-.124.393-.828.117-.211.422-.733.094.123.124.276.029.146.029.352v.134q.54-.322.845-.486.334-.182.457-.182.082 0 .153.187.076.188.076.3zM513.014 704.44q0 .105-.093.164-.088.053-.2.053-.1 0-.252-.024-.346-.052-.446-.052-.176 0-.692.04-.294.024-.423.024-.358 0-.358-.358 0-.34.223-.974.124-.357.464-1.173.305-.733.387-1.032.03-.094.047-.124.047-.07.117-.07.112 0 .188.164.076.159.076.288 0 .205-.24.692l-.47.945q-.252.551-.252.838 0 .147.123.206.088.04.258.04.13 0 .446-.028.317-.036.423-.036.264 0 .434.077.24.105.24.34zM515.197 703.407q0 .599-.346.939-.346.34-.957.34-.334 0-.516-.158-.182-.159-.182-.487 0-.464.605-.933.575-.446 1.061-.446.223 0 .294.276.04.158.04.47zm-.358.165q0-.07-.018-.135-.011-.07-.047-.159-.093.065-.31.317-.112.13-.194.188 0-.112.023-.182.047-.1.077-.17-.258 0-.54.217-.276.217-.276.47 0 .17.188.17.358 0 .692-.177.405-.21.405-.54zM517.667 703.284q0 .188-.1.399-.094.211-.24.352l-.006-.082q0-.07.017-.217.018-.147.018-.217 0-.1-.03-.147-.029-.053-.123-.053-.276 0-.686.429l-.886.932q-.035 0-.07-.006-.088-.023-.118-.029.018-.211.147-.47.346-.697.358-.744l.07-.276q.024-.088.065-.182.047-.1.105-.176.065-.082.164-.123l.06.704.386-.317q.259-.205.446-.205.188 0 .305.123.118.123.118.305zM520.547 702.604q0 .246-.657.65-.633.388-.92.388-.136 0-.183-.094-.04-.094-.04-.264v-.158q.392 0 .715-.118.323-.117.563-.387-.176-.064-.358-.064-.428 0-.91.328-.527.358-.527.763 0 .387.528.54.082.023.991.164.534.082.534.287 0 .088-.193.141-.194.059-.493.059-.751 0-1.185-.229-.575-.305-.575-.98 0-.704.704-1.12.598-.352 1.36-.352.23 0 .417.105.23.13.23.34zM522.882 701.553q0 .13-.31.54-.312.41-.312.628 0 .111.13.223.293.258.293.317 0 .076-.053.146-.047.07-.123.07-.065 0-.182-.07-.082-.047-.317-.229l-.135.259q-.164.31-.223.451l-.176.54q-.152.364-.381.364l-.006-.135q0-.417.27-.986.053-.105.293-.545-.463-.253-1.02-.253 0-.217.087-.316.094-.106.311-.106.2 0 .499.07l.293.07q.112-.034.305-.38.475-.834.646-.957.047.076.076.153.035.076.035.146zM525.047 703.648q0 .287-.217.645-.246.405-.51.405-.077 0-.13-.082-.046-.088-.046-.17 0-.106.223-.329.228-.229.228-.31 0-.054-.017-.106l-.024-.07q-.44.099-.897.504-.452.405-.687.457-.047-.129-.047-.264 0-.164.077-.346.052-.129.176-.31.205-.312.434-.705l.405-.71q.293-.504.428-.715.07-.106.123-.159.076-.07.182-.094.07.024.1.088.035.065.035.153 0 .2-.258.54-.47.61-.481.633-.264.4-.264.722l.011.059q.323-.159.382-.182.24-.1.41-.1.188 0 .276.13.088.122.088.316zM529.864 701.735q0 .276-.294.74-.188.293-.616.844-.428.546-.534.716l.44.14q.429.13.429.47-.176.03-.347.053l-.064-.006v-.047q-.094-.023-.153-.023-.111 0-.352.035-.24.035-.363.035-.159 0-.258-.059-.1-.058-.1-.211 0-.123.452-.698.844-1.074.85-1.085.458-.622.458-.834 0-.082-.059-.123-.053-.04-.217-.04-.111 0-.463.216-.17.106-.276.106l-.1-.018q-.035-.023-.076-.088-.041-.07-.041-.111 0-.247.475-.452.405-.176.704-.176.252 0 .387.188.118.164.118.428zM533.39 702.791q0 .71-.77 1.256-.703.498-1.448.498-.37 0-.587-.187-.217-.188-.217-.546 0-.798.698-1.384.663-.558 1.484-.558.417 0 .628.247.211.246.211.674zm-.358.135q0-.27-.306-.405-.228-.1-.545-.1-.464 0-.968.452-.505.452-.505.91 0 .188.094.27.1.076.3.076.574 0 1.196-.317.734-.375.734-.886zM536.076 701.735q0 .276-.293.74-.188.293-.616.844-.428.546-.534.716l.44.14q.428.13.428.47-.176.03-.346.053l-.064-.006v-.047q-.094-.023-.153-.023-.111 0-.352.035-.24.035-.363.035-.159 0-.259-.059-.1-.058-.1-.211 0-.123.452-.698.845-1.074.851-1.085.458-.622.458-.834 0-.082-.059-.123-.053-.04-.217-.04-.112 0-.464.216-.17.106-.275.106l-.1-.018q-.035-.023-.076-.088-.041-.07-.041-.111 0-.247.475-.452.405-.176.704-.176.252 0 .387.188.117.164.117.428zM538.775 701.735q0 .276-.293.74-.188.293-.616.844-.429.546-.534.716l.44.14q.428.13.428.47-.176.03-.346.053l-.065-.006v-.047q-.093-.023-.152-.023-.112 0-.352.035t-.364.035q-.158 0-.258-.059-.1-.058-.1-.211 0-.123.452-.698.845-1.074.85-1.085.458-.622.458-.834 0-.082-.058-.123-.053-.04-.217-.04-.112 0-.464.216-.17.106-.276.106l-.1-.018q-.035-.023-.076-.088-.04-.07-.04-.111 0-.247.474-.452.405-.176.704-.176.253 0 .388.188.117.164.117.428z"/>
    </g>
    <g fill="none" stroke="#f4f4f4">
        <g transform="translate(-284.254 -127.983)">
            <path d="M745.087 896.951h443.81a13.215 13.215 0 0 0 13.244-13.243V475.615l-20-330.608c-.443-7.324-5.907-13.244-13.244-13.244l-423.81.06m.001 765.128h-443.81a13.215 13.215 0 0 1-13.244-13.243V475.615l20-330.608c.443-7.324 5.906-13.244 13.243-13.244l423.81.06" stroke-width="4.4"/>
            <rect height="290.167" rx="34.448" ry="34.448" stroke-linecap="round" stroke-width="4.4" width="851.55" x="319.618" y="567.281"/>
            <g stroke-width="2.2">
                <rect height="242.853" rx="15.31" stroke-linecap="round" width="709.885" x="390.809" y="591.718"/>
                <rect height="420.504" rx="16.813" width="913.065" x="289.133" y="475.908"/>
                <path d="M289.906 429.031h47.86a3.325 3.325 0 0 1 3.332 3.332 3.325 3.325 0 0 1-3.332 3.332h-47.86M291.165 415.138h45.861c1.846 0 5.332 1.486 5.332 3.332a3.325 3.325 0 0 1-3.332 3.331h-47.86M290.833 401.031h47.86a3.325 3.325 0 0 1 3.333 3.332 3.325 3.325 0 0 1-3.332 3.332h-47.86M291.582 387.138h45.86c1.846 0 5.332 1.486 5.332 3.332a3.325 3.325 0 0 1-3.331 3.331h-47.861M292.824 373.031h47.86a3.325 3.325 0 0 1 3.333 3.332 3.325 3.325 0 0 1-3.332 3.332h-47.86M292.397 359.138h45.86c1.846 0 5.332 1.486 5.332 3.332a3.325 3.325 0 0 1-3.332 3.331h-47.86M294.176 345.031h47.861a3.325 3.325 0 0 1 3.332 3.332 3.325 3.325 0 0 1-3.332 3.332h-47.86M294.312 331.138h45.861c1.846 0 5.332 1.486 5.332 3.332a3.325 3.325 0 0 1-3.332 3.331h-47.86M295.143 317.031h47.86a3.325 3.325 0 0 1 3.333 3.332 3.325 3.325 0 0 1-3.332 3.332h-47.861M295.74 303.138h45.861c1.846 0 5.332 1.486 5.332 3.332a3.325 3.325 0 0 1-3.332 3.331h-47.86M296.22 289.031h47.86a3.325 3.325 0 0 1 3.333 3.332 3.325 3.325 0 0 1-3.332 3.332h-47.86M300.16 275.138h41.86c1.846 0 5.332 1.486 5.332 3.332a3.325 3.325 0 0 1-3.332 3.331h-45.86M302.05 261.031h43.86a3.325 3.325 0 0 1 3.332 3.332 3.325 3.325 0 0 1-3.332 3.332h-45.86M301.803 247.138h41.86c1.846 0 5.332 1.486 5.332 3.332a3.325 3.325 0 0 1-3.332 3.331h-45.86M303.524 233.031h43.86a3.325 3.325 0 0 1 3.333 3.332 3.325 3.325 0 0 1-3.332 3.332h-45.861M303.762 219.138h41.86c1.846 0 5.332 1.486 5.332 3.332a3.325 3.325 0 0 1-3.332 3.331h-45.86M304.074 205.031h43.86a3.325 3.325 0 0 1 3.333 3.332 3.325 3.325 0 0 1-3.332 3.332h-45.86M305.144 191.138h41.86c1.847 0 5.333 1.486 5.333 3.332a3.325 3.325 0 0 1-3.332 3.331h-45.86M305.757 177.031h43.86a3.325 3.325 0 0 1 3.333 3.332 3.325 3.325 0 0 1-3.332 3.332h-45.86M306.503 163.138h41.861c1.846 0 5.332 1.486 5.332 3.332a3.325 3.325 0 0 1-3.332 3.331h-45.86M1195.586 429.031h-47.86a3.325 3.325 0 0 0-3.333 3.332 3.325 3.325 0 0 0 3.332 3.332h47.86M1194.326 415.138h-45.86c-1.846 0-5.332 1.486-5.332 3.332a3.325 3.325 0 0 0 3.332 3.331h47.86M1194.658 401.031h-47.86a3.325 3.325 0 0 0-3.332 3.332 3.325 3.325 0 0 0 3.332 3.332h47.86M1193.91 387.138h-45.861c-1.846 0-5.332 1.486-5.332 3.332a3.325 3.325 0 0 0 3.332 3.331h47.86M1192.667 373.031h-47.86a3.325 3.325 0 0 0-3.332 3.332 3.325 3.325 0 0 0 3.332 3.332h47.86M1193.095 359.138h-45.86c-1.847 0-5.333 1.486-5.333 3.332a3.325 3.325 0 0 0 3.332 3.331h47.86M1191.315 345.031h-47.86a3.325 3.325 0 0 0-3.332 3.332 3.325 3.325 0 0 0 3.331 3.332h47.861M1191.179 331.138h-45.86c-1.847 0-5.333 1.486-5.333 3.332a3.325 3.325 0 0 0 3.332 3.331h47.861M1190.348 317.031h-47.86a3.325 3.325 0 0 0-3.332 3.332 3.325 3.325 0 0 0 3.332 3.332h47.86M1189.751 303.138h-45.86c-1.847 0-5.333 1.486-5.333 3.332a3.325 3.325 0 0 0 3.332 3.331h47.861M1189.271 289.031h-47.86a3.325 3.325 0 0 0-3.332 3.332 3.325 3.325 0 0 0 3.332 3.332h47.86M1185.332 275.138h-41.86c-1.847 0-5.333 1.486-5.333 3.332a3.325 3.325 0 0 0 3.332 3.331h45.861M1183.442 261.031h-43.86a3.325 3.325 0 0 0-3.333 3.332 3.325 3.325 0 0 0 3.332 3.332h45.861M1183.689 247.138h-41.86c-1.847 0-5.333 1.486-5.333 3.332a3.325 3.325 0 0 0 3.332 3.331h45.86M1181.968 233.031h-43.861a3.325 3.325 0 0 0-3.332 3.332 3.325 3.325 0 0 0 3.332 3.332h45.86M1181.73 219.138h-41.86c-1.847 0-5.333 1.486-5.333 3.332a3.325 3.325 0 0 0 3.332 3.331h45.86M1181.417 205.031h-43.86a3.325 3.325 0 0 0-3.332 3.332 3.325 3.325 0 0 0 3.332 3.332h45.86M1180.347 191.138h-41.86c-1.846 0-5.332 1.486-5.332 3.332a3.325 3.325 0 0 0 3.332 3.331h45.86M1179.734 177.031h-43.86a3.325 3.325 0 0 0-3.332 3.332 3.325 3.325 0 0 0 3.332 3.332h45.86M1178.988 163.138h-41.86c-1.847 0-5.333 1.486-5.333 3.332a3.325 3.325 0 0 0 3.332 3.331h45.861"/>
            </g>
            <g stroke-width="1.001">
                <g stroke-width="2.2">
                    <rect height="28.747" rx="2.381" ry="2.381" width="378.083" x="556.82" y="521.442"/>
                    <path d="m702.492 524.128.454 23.147M790.39 523.747l-.14 26.523"/>
                </g>
                <g stroke-width="1.65">
                    <rect height="7.843" rx="1.481" width="19.705" x="709.238" y="532.662"/>
                    <rect height="7.843" rx="1.481" width="19.705" x="736.744" y="532.662"/>
                    <rect height="7.843" rx="1.481" width="19.705" x="763.951" y="532.662"/>
                </g>
            </g>
        </g>
        <g stroke-width="4.4">
            <rect height="27.699" rx="2.381" width="253.235" x="329.508" y="663.303"/>
            <rect height="29.11" rx="2.381" width="29.11" x="451.876" y="617.528"/>
            <rect height="29.11" rx="2.381" width="29.11" x="403.876" y="617.528"/>
            <rect height="29.11" rx="2.381" width="29.11" x="355.876" y="617.528"/>
            <rect height="29.11" rx="2.381" width="29.11" x="307.876" y="617.528"/>
            <rect height="29.11" rx="2.381" width="29.11" x="259.876" y="617.528"/>
            <rect height="29.11" rx="2.381" width="29.11" x="211.876" y="617.528"/>
            <rect height="29.11" rx="2.381" width="53.11" x="139.876" y="617.528"/>
            <rect height="29.11" rx="2.381" width="53.11" x="691.876" y="617.528"/>
            <rect height="29.11" rx="2.381" width="29.11" x="643.876" y="617.528"/>
            <rect height="29.11" rx="2.381" width="29.11" x="595.876" y="617.528"/>
            <rect height="29.11" rx="2.381" width="29.11" x="547.876" y="617.528"/>
            <rect height="29.11" rx="2.381" width="29.11" x="499.876" y="617.528"/>
            <rect height="29.11" rx="2.381" width="29.11" x="475.876" y="571.528"/>
            <rect height="29.11" rx="2.381" width="29.11" x="427.876" y="571.528"/>
            <rect height="29.11" rx="2.381" width="29.11" x="379.876" y="571.528"/>
            <rect height="29.11" rx="2.381" width="29.11" x="331.876" y="571.528"/>
            <rect height="29.11" rx="2.381" width="29.11" x="283.876" y="571.528"/>
            <rect height="29.11" rx="2.381" width="29.11" x="235.876" y="571.528"/>
            <rect height="29.11" rx="2.381" width="29.11" x="187.876" y="571.528"/>
            <rect height="29.11" rx="2.381" width="77.11" x="667.876" y="571.528"/>
            <rect height="29.11" rx="2.381" width="29.11" x="619.876" y="571.528"/>
            <rect height="29.11" rx="2.381" width="29.11" x="571.876" y="571.528"/>
            <rect height="29.11" rx="2.381" width="29.11" x="523.876" y="571.528"/>
            <rect height="29.11" rx="2.381" width="29.11" x="139.876" y="571.528"/>
            <rect height="29.11" rx="2.381" width="29.11" x="763.876" y="571.528"/>
            <rect height="29.11" rx="2.381" width="29.11" x="463.876" y="525.528"/>
            <rect height="29.11" rx="2.381" width="29.11" x="415.876" y="525.528"/>
            <rect height="29.11" rx="2.381" width="29.11" x="367.876" y="525.528"/>
            <rect height="29.11" rx="2.381" width="29.11" x="319.876" y="525.528"/>
            <rect height="29.11" rx="2.381" width="29.11" x="271.876" y="525.528"/>
            <rect height="29.11" rx="2.381" width="29.11" x="223.876" y="525.528"/>
            <rect height="29.11" rx="2.381" width="29.11" x="175.876" y="525.528"/>
            <rect height="29.11" rx="2.381" width="29.11" x="607.876" y="525.528"/>
            <rect height="29.11" rx="2.381" width="29.11" x="559.876" y="525.528"/>
            <rect height="29.11" rx="2.381" width="29.11" x="511.876" y="525.528"/>
            <rect height="29.11" rx="2.381" width="29.11" x="127.876" y="525.528"/>
            <rect height="29.11" rx="2.381" width="29.11" x="751.876" y="525.528"/>
            <rect height="29.11" rx="2.381" width="29.11" x="703.876" y="525.528"/>
            <rect height="29.11" rx="2.381" width="29.11" x="655.876" y="525.528"/>
            <rect height="29.11" rx="2.381" width="29.11" x="487.876" y="479.528"/>
            <rect height="29.11" rx="2.381" width="29.11" x="439.876" y="479.528"/>
            <rect height="29.11" rx="2.381" width="29.11" x="391.876" y="479.528"/>
            <rect height="29.11" rx="2.381" width="29.11" x="343.876" y="479.528"/>
            <rect height="29.11" rx="2.381" width="29.11" x="295.876" y="479.528"/>
            <rect height="29.11" rx="2.381" width="29.11" x="247.876" y="479.528"/>
            <rect height="29.11" rx="2.381" width="29.11" x="199.876" y="479.528"/>
            <rect height="29.11" rx="2.381" width="29.11" x="631.876" y="479.528"/>
            <rect height="29.11" rx="2.381" width="29.11" x="583.876" y="479.528"/>
            <rect height="29.11" rx="2.381" width="29.11" x="535.876" y="479.528"/>
            <rect height="29.11" rx="2.381" width="29.11" x="151.876" y="479.528"/>
            <rect height="29.11" rx="2.381" width="29.11" x="727.876" y="479.528"/>
            <rect height="29.11" rx="2.381" width="29.11" x="679.876" y="479.528"/>
        </g>
    </g>
</svg>
