<svg xmlns="http://www.w3.org/2000/svg" version="1.2" width="598.189" height="350.26" xml:space="preserve">
    <path style="fill:#f4f4f4" d="M208.382 342.854a4.668 4.668 0 0 0 4.656 4.656h140.19c2.564 0 4.639-2.093 4.639-4.656V8.16a4.637 4.637 0 0 0-4.638-4.64H213.038c-2.563 0-4.656 2.078-4.656 4.64v334.694zm1.129 0V8.16a3.506 3.506 0 0 1 3.527-3.51h140.19a3.491 3.491 0 0 1 3.51 3.51v334.694a3.507 3.507 0 0 1-3.51 3.528H213.037a3.52 3.52 0 0 1-3.526-3.528z"/>
    <path style="fill:#f4f4f4" d="M210.809 140.306H218.58V99.622H210.809v2.35l5.911-.078v35.987l-5.911.078z"/>
    <path style="color:#000;font-style:normal;font-variant:normal;font-weight:400;font-stretch:normal;font-size:medium;line-height:normal;font-family:sans-serif;text-indent:0;text-align:start;text-decoration:none;text-decoration-line:none;text-decoration-style:solid;text-decoration-color:#000;letter-spacing:normal;word-spacing:normal;text-transform:none;direction:ltr;block-progression:tb;writing-mode:lr-tb;baseline-shift:baseline;text-anchor:start;white-space:normal;clip-rule:nonzero;display:inline;overflow:visible;visibility:visible;opacity:1;isolation:auto;mix-blend-mode:normal;color-interpolation:sRGB;color-interpolation-filters:linearRGB;solid-color:#000;solid-opacity:1;fill:#f4f4f4;fill-opacity:1;fill-rule:nonzero;stroke:none;stroke-width:3.0740335;stroke-linecap:butt;stroke-linejoin:miter;stroke-miterlimit:4;stroke-dasharray:none;stroke-dashoffset:0;stroke-opacity:1;color-rendering:auto;image-rendering:auto;shape-rendering:auto;text-rendering:auto;enable-background:accumulate" d="M219.149 329.289a9.015 9.015 0 0 0 9.015 9.014h21.386a9.015 9.015 0 0 0 9.015-9.014v-20.113a9.015 9.015 0 0 0-9.015-9.014h-21.386a9.015 9.015 0 0 0-9.015 9.014v20.113zm1.84 0v-20.113a7.139 7.139 0 0 1 7.175-7.174h21.386a7.139 7.139 0 0 1 7.175 7.174v20.113a7.139 7.139 0 0 1-7.175 7.174h-21.386a7.139 7.139 0 0 1-7.175-7.174z"/>
    <path style="fill:#f4f4f4" d="M355.591 140.227H347.82V99.543H355.591v2.349l-5.911-.078V137.8l5.911.078z"/>
    <path style="color:#000;font-style:normal;font-variant:normal;font-weight:400;font-stretch:normal;font-size:medium;line-height:normal;font-family:sans-serif;text-indent:0;text-align:start;text-decoration:none;text-decoration-line:none;text-decoration-style:solid;text-decoration-color:#000;letter-spacing:normal;word-spacing:normal;text-transform:none;direction:ltr;block-progression:tb;writing-mode:lr-tb;baseline-shift:baseline;text-anchor:start;white-space:normal;clip-rule:nonzero;display:inline;overflow:visible;visibility:visible;opacity:1;isolation:auto;mix-blend-mode:normal;color-interpolation:sRGB;color-interpolation-filters:linearRGB;solid-color:#000;solid-opacity:1;fill:#f4f4f4;fill-opacity:1;fill-rule:nonzero;stroke:none;stroke-width:3.0740335;stroke-linecap:butt;stroke-linejoin:miter;stroke-miterlimit:4;stroke-dasharray:none;stroke-dashoffset:0;stroke-opacity:1;color-rendering:auto;image-rendering:auto;shape-rendering:auto;text-rendering:auto;enable-background:accumulate" d="M308.514 330.396a9.015 9.015 0 0 0 9.015 9.015h21.386a9.015 9.015 0 0 0 9.015-9.015v-20.112a9.015 9.015 0 0 0-9.015-9.015H317.53a9.015 9.015 0 0 0-9.015 9.015v20.112zm1.84 0v-20.112a7.139 7.139 0 0 1 7.175-7.175h21.386a7.139 7.139 0 0 1 7.175 7.175v20.112a7.139 7.139 0 0 1-7.175 7.175H317.53a7.139 7.139 0 0 1-7.175-7.175zM308.761 286.72a9.015 9.015 0 0 0 9.015 9.015h21.386a9.015 9.015 0 0 0 9.015-9.015v-20.112a9.015 9.015 0 0 0-9.015-9.015h-21.386a9.015 9.015 0 0 0-9.015 9.015v20.112zm1.84 0v-20.112a7.139 7.139 0 0 1 7.175-7.175h21.386a7.139 7.139 0 0 1 7.175 7.175v20.112a7.139 7.139 0 0 1-7.175 7.175h-21.386a7.139 7.139 0 0 1-7.175-7.175zM309.009 242.64a9.015 9.015 0 0 0 9.014 9.015h21.386a9.015 9.015 0 0 0 9.015-9.014v-20.112a9.015 9.015 0 0 0-9.015-9.015h-21.386a9.015 9.015 0 0 0-9.014 9.015v20.112zm1.84 0V222.53a7.139 7.139 0 0 1 7.174-7.175h21.386a7.139 7.139 0 0 1 7.175 7.175v20.112a7.139 7.139 0 0 1-7.175 7.175h-21.386a7.139 7.139 0 0 1-7.175-7.175zM309.009 200.123a9.015 9.015 0 0 0 9.014 9.014h21.386a9.015 9.015 0 0 0 9.015-9.014V180.01a9.015 9.015 0 0 0-9.015-9.014h-21.386a9.015 9.015 0 0 0-9.014 9.014v20.113zm1.84 0V180.01a7.139 7.139 0 0 1 7.174-7.174h21.386a7.139 7.139 0 0 1 7.175 7.174v20.113a7.139 7.139 0 0 1-7.175 7.174h-21.386a7.139 7.139 0 0 1-7.175-7.174zM264.513 200.123a9.015 9.015 0 0 0 9.014 9.014h21.387a9.015 9.015 0 0 0 9.014-9.014V180.01a9.015 9.015 0 0 0-9.014-9.014h-21.387a9.015 9.015 0 0 0-9.014 9.014v20.113zm1.84 0V180.01a7.139 7.139 0 0 1 7.174-7.174h21.387a7.139 7.139 0 0 1 7.175 7.174v20.113a7.139 7.139 0 0 1-7.175 7.174h-21.387a7.139 7.139 0 0 1-7.174-7.174zM264.76 242.394a9.015 9.015 0 0 0 9.015 9.014h21.386a9.015 9.015 0 0 0 9.015-9.014V222.28a9.015 9.015 0 0 0-9.015-9.014h-21.386a9.015 9.015 0 0 0-9.015 9.014v20.113zm1.84 0V222.28a7.139 7.139 0 0 1 7.175-7.174h21.386a7.139 7.139 0 0 1 7.175 7.174v20.113a7.139 7.139 0 0 1-7.175 7.174h-21.386a7.139 7.139 0 0 1-7.175-7.174zM264.76 286.473a9.015 9.015 0 0 0 9.015 9.015h21.386a9.015 9.015 0 0 0 9.015-9.015V266.36a9.015 9.015 0 0 0-9.015-9.015h-21.386a9.015 9.015 0 0 0-9.015 9.015v20.112zm1.84 0V266.36a7.139 7.139 0 0 1 7.175-7.175h21.386a7.139 7.139 0 0 1 7.175 7.175v20.112a7.139 7.139 0 0 1-7.175 7.175h-21.386a7.139 7.139 0 0 1-7.175-7.175zM264.513 330.149a9.015 9.015 0 0 0 9.014 9.015h21.387a9.015 9.015 0 0 0 9.014-9.015v-20.112a9.015 9.015 0 0 0-9.014-9.015h-21.387a9.015 9.015 0 0 0-9.014 9.015v20.112zm1.84 0v-20.112a7.139 7.139 0 0 1 7.174-7.175h21.387a7.139 7.139 0 0 1 7.175 7.175v20.112a7.139 7.139 0 0 1-7.175 7.175h-21.387a7.139 7.139 0 0 1-7.174-7.175zM220.017 286.226a9.015 9.015 0 0 0 9.015 9.014h21.386a9.015 9.015 0 0 0 9.015-9.014v-20.113a9.015 9.015 0 0 0-9.015-9.014h-21.386a9.015 9.015 0 0 0-9.015 9.014v20.113zm1.84 0v-20.113a7.139 7.139 0 0 1 7.175-7.174h21.386a7.139 7.139 0 0 1 7.175 7.174v20.113a7.139 7.139 0 0 1-7.175 7.174h-21.386a7.139 7.139 0 0 1-7.175-7.174zM220.017 242.394a9.015 9.015 0 0 0 9.015 9.014h21.386a9.015 9.015 0 0 0 9.015-9.014V222.28a9.015 9.015 0 0 0-9.015-9.014h-21.386a9.015 9.015 0 0 0-9.015 9.014v20.113zm1.84 0V222.28a7.139 7.139 0 0 1 7.175-7.174h21.386a7.139 7.139 0 0 1 7.175 7.174v20.113a7.139 7.139 0 0 1-7.175 7.174h-21.386a7.139 7.139 0 0 1-7.175-7.174zM219.523 200.123a9.015 9.015 0 0 0 9.014 9.014h21.387a9.015 9.015 0 0 0 9.014-9.014V180.01a9.015 9.015 0 0 0-9.014-9.014h-21.387a9.015 9.015 0 0 0-9.014 9.014v20.113zm1.84 0V180.01a7.139 7.139 0 0 1 7.174-7.174h21.387a7.139 7.139 0 0 1 7.175 7.174v20.113a7.139 7.139 0 0 1-7.175 7.174h-21.387a7.139 7.139 0 0 1-7.174-7.174z"/>
    <path style="color:#000;font-style:normal;font-variant:normal;font-weight:400;font-stretch:normal;font-size:medium;line-height:normal;font-family:sans-serif;text-indent:0;text-align:start;text-decoration:none;text-decoration-line:none;text-decoration-style:solid;text-decoration-color:#000;letter-spacing:normal;word-spacing:normal;text-transform:none;direction:ltr;block-progression:tb;writing-mode:lr-tb;baseline-shift:baseline;text-anchor:start;white-space:normal;clip-rule:nonzero;display:inline;overflow:visible;visibility:visible;opacity:1;isolation:auto;mix-blend-mode:normal;color-interpolation:sRGB;color-interpolation-filters:linearRGB;solid-color:#000;solid-opacity:1;fill:#f3f3f3;fill-opacity:.86666667;fill-rule:nonzero;stroke:none;stroke-width:1.8308605;stroke-linecap:butt;stroke-linejoin:miter;stroke-miterlimit:4;stroke-dasharray:none;stroke-dashoffset:0;stroke-opacity:1;color-rendering:auto;image-rendering:auto;shape-rendering:auto;text-rendering:auto;enable-background:accumulate" d="M283.979 9.326c-22.213 0-40.24 18.026-40.24 40.238 0 22.213 18.027 40.24 40.24 40.24 22.212 0 40.238-18.027 40.238-40.24 0-22.212-18.026-40.238-40.238-40.238zm0 1.83c21.223 0 38.408 17.185 38.408 38.408 0 21.224-17.185 38.409-38.408 38.409-21.224 0-38.409-17.185-38.409-38.409 0-21.223 17.185-38.408 38.409-38.408z"/>
    <path style="color:#000;font-style:normal;font-variant:normal;font-weight:400;font-stretch:normal;font-size:medium;line-height:normal;font-family:sans-serif;text-indent:0;text-align:start;text-decoration:none;text-decoration-line:none;text-decoration-style:solid;text-decoration-color:#000;letter-spacing:normal;word-spacing:normal;text-transform:none;direction:ltr;block-progression:tb;writing-mode:lr-tb;baseline-shift:baseline;text-anchor:start;white-space:normal;clip-rule:nonzero;display:inline;overflow:visible;visibility:visible;opacity:1;isolation:auto;mix-blend-mode:normal;color-interpolation:sRGB;color-interpolation-filters:linearRGB;solid-color:#000;solid-opacity:1;fill:#f3f3f3;fill-opacity:.86666667;fill-rule:nonzero;stroke:none;stroke-width:1.55559766;stroke-linecap:butt;stroke-linejoin:miter;stroke-miterlimit:4;stroke-dasharray:none;stroke-dashoffset:0;stroke-opacity:1;color-rendering:auto;image-rendering:auto;shape-rendering:auto;text-rendering:auto;enable-background:accumulate" d="M284.355 14.998c-18.873 0-34.189 15.317-34.189 34.19 0 18.872 15.316 34.189 34.19 34.189 18.872 0 34.189-15.317 34.189-34.19 0-18.872-15.317-34.189-34.19-34.189zm0 1.555c18.033 0 32.635 14.602 32.635 32.635 0 18.032-14.602 32.632-32.635 32.632-18.032 0-32.632-14.6-32.632-32.632 0-18.033 14.6-32.635 32.632-32.635z"/>
    <path style="color:#000;font-style:normal;font-variant:normal;font-weight:400;font-stretch:normal;font-size:medium;line-height:normal;font-family:sans-serif;text-indent:0;text-align:start;text-decoration:none;text-decoration-line:none;text-decoration-style:solid;text-decoration-color:#000;letter-spacing:normal;word-spacing:normal;text-transform:none;direction:ltr;block-progression:tb;writing-mode:lr-tb;baseline-shift:baseline;text-anchor:start;white-space:normal;clip-rule:nonzero;display:inline;overflow:visible;visibility:visible;opacity:1;isolation:auto;mix-blend-mode:normal;color-interpolation:sRGB;color-interpolation-filters:linearRGB;solid-color:#000;solid-opacity:1;fill:#f3f3f3;fill-opacity:.86666667;fill-rule:evenodd;stroke:none;stroke-width:1.5;stroke-linecap:butt;stroke-linejoin:miter;stroke-miterlimit:4;stroke-dasharray:none;stroke-dashoffset:0;stroke-opacity:1;color-rendering:auto;image-rendering:auto;shape-rendering:auto;text-rendering:auto;enable-background:accumulate" d="M221.39 99.207v1.5h121.098v44.955h9.09l.41 112.072-.412 33.455v51.637h1.5V291.2l.412-33.457-.416-113.58h-9.084V99.207H221.391z"/>
</svg>
