<svg version="1.2" width="598.189" height="350.26" xml:space="preserve" xmlns="http://www.w3.org/2000/svg">
    <path fill="#f4f4f4" d="M131.594 10.453c-4.58 0-16.998.85-21.523 1.237-2.314.198-4.195.73-5.5 2.176-1.303 1.447-1.929 3.681-2.045 7.102-.118 3.447-.295 31.051-.438 59.384-.144 28.328-.257 57.305-.257 63.248 0 5.955.238 32.689.53 58.772.146 13.042.308 25.915.457 35.933.148 10.02.277 17.139.384 18.835.309 4.914 1.245 8.52 2.868 11.234 1.624 2.713 3.943 4.498 6.851 5.718 5.817 2.441 14.017 2.788 24.83 4.557 21.729 3.553 32.85 3.099 35.846 3.099h15.274c2.998 0 14.1.454 35.827-3.099 10.813-1.769 19.034-2.116 24.848-4.557 2.91-1.22 5.21-3.005 6.835-5.718 1.624-2.714 2.558-6.32 2.867-11.234.107-1.696.237-8.816.385-18.835.147-10.018.31-22.892.456-35.933.292-26.084.549-52.817.549-58.772 0-5.945-.13-34.923-.274-63.255-.153-28.325-.31-55.93-.428-59.378-.117-3.42-.76-5.654-2.064-7.102-1.31-1.447-3.186-1.978-5.502-2.176-4.525-.387-16.925-1.236-21.504-1.236H131.584h.01zm0 1.18h99.281c4.434 0 16.925.852 21.413 1.236 2.192.188 3.706.653 4.732 1.79 1.025 1.136 1.64 3.057 1.754 6.346.111 3.261.277 31.033.42 59.36.143 28.327.274 57.304.274 63.231 0 5.922-.255 32.69-.548 58.772-.146 13.04-.309 25.899-.457 35.915-.148 10.015-.287 17.235-.383 18.779-.302 4.799-1.217 8.21-2.705 10.698-1.489 2.487-3.54 4.087-6.285 5.24-5.487 2.3-13.696 2.702-24.572 4.482-21.652 3.54-32.533 3.08-35.647 3.08h-15.274c-3.113 0-13.994.46-35.646-3.08l-.092-.018c-10.825-1.765-19.013-2.17-24.482-4.464-2.744-1.152-4.815-2.752-6.304-5.239-1.488-2.487-2.401-5.9-2.704-10.698-.091-1.543-.229-8.76-.377-18.778-.149-10.017-.31-22.874-.457-35.92-.292-26.08-.53-52.848-.53-58.769 0-5.927.113-34.904.256-63.232.143-28.33.327-56.1.438-59.36.112-3.288.73-5.209 1.754-6.345 1.026-1.137 2.54-1.602 4.733-1.79 4.488-.383 16.98-1.235 21.413-1.235z" style="stroke-width:.827932"/>
    <path fill="#f4f4f4" d="M177.562 21.318c-12.994 0-53.392.322-58.21.48-2.383.077-4.303.185-5.737 1.143-1.435.958-2.156 2.739-2.156 5.608 0 2.77-.036 27.417-.055 52.111-.018 24.686-.023 49.34.055 52.444v.018c.076 3.016.154 5.115 1.461 6.677 1.308 1.563 3.638 2.359 7.875 3.137 4.31.79 15.267 1.56 26.711 2.14 11.445.578 23.306.958 29.288.958h8.86c5.983 0 17.863-.38 29.307-.959 11.444-.579 22.4-1.348 26.711-2.14 4.236-.776 6.548-1.572 7.857-3.136 1.307-1.562 1.403-3.662 1.479-6.677.079-3.09.074-27.767.054-52.463-.019-24.694-.054-49.34-.054-52.11 0-2.87-.721-4.65-2.155-5.609-1.435-.957-3.353-1.066-5.737-1.143-4.817-.157-45.236-.48-58.228-.48h-7.327zm0 1.18h7.326c12.974 0 53.519.31 58.173.462 2.353.076 4.104.277 5.152.977 1.049.7 1.627 1.928 1.627 4.611 0 2.782.036 27.418.055 52.112.019 24.695.019 49.5-.055 52.426v.018c-.077 2.985-.225 4.75-1.207 5.922-.983 1.174-3.014 1.984-7.18 2.748-4.092.75-15.135 1.543-26.566 2.122-11.429.577-23.3.959-29.232.959h-8.861c-5.932 0-17.803-.381-29.233-.96-11.43-.578-22.473-1.37-26.566-2.12-4.16-.769-6.191-1.577-7.175-2.752-.983-1.175-1.111-2.94-1.187-5.939-.074-2.922-.074-27.73-.055-52.424.02-24.694.055-49.33.055-52.112 0-2.683.578-3.911 1.626-4.611 1.048-.7 2.782-.901 5.134-.977 4.653-.153 45.2-.461 58.174-.461z" style="stroke-width:.827932"/>
    <path fill="#f4f4f4" d="M136.527 34.489c-.821 0-1.498.682-1.498 1.512v80.41c0 .83.677 1.512 1.498 1.512h89.418c.82 0 1.498-.682 1.498-1.512V36c0-.829-.676-1.512-1.498-1.512zm0 1.18h89.418c.19 0 .328.141.328.332v80.41a.319.319 0 0 1-.328.332h-89.418a.32.32 0 0 1-.329-.332V36a.32.32 0 0 1 .33-.331zM170.89 233.064c-1.986 0-3.801.188-5.188.663-.694.238-1.288.55-1.735.996a2.423 2.423 0 0 0-.73 1.716c0 .666.282 1.27.73 1.717.447.446 1.042.758 1.735.995 1.387.476 3.202.645 5.189.645s3.802-.169 5.188-.645c.693-.237 1.288-.55 1.736-.995.447-.447.73-1.051.73-1.717 0-.663-.283-1.27-.73-1.716-.449-.446-1.043-.758-1.736-.996-1.386-.475-3.202-.663-5.188-.663zm0 1.18c1.916 0 3.635.19 4.806.59.585.2 1.03.453 1.298.72.267.266.383.528.383.885 0 .356-.116.6-.383.866-.268.267-.713.52-1.298.72-1.17.401-2.89.59-4.805.59-1.915 0-3.636-.189-4.806-.59-.585-.2-1.03-.453-1.297-.72-.267-.266-.384-.509-.384-.866 0-.358.117-.62.384-.886s.712-.519 1.297-.718c1.17-.401 2.89-.591 4.806-.591zM194.72 233.064c-1.987 0-3.8.188-5.188.663-.694.238-1.288.55-1.735.996a2.41 2.41 0 0 0-.712 1.716c0 .666.264 1.27.712 1.717.448.446 1.042.758 1.735.995 1.388.476 3.201.645 5.189.645 1.987 0 3.802-.169 5.19-.645.692-.237 1.287-.55 1.734-.995.448-.447.731-1.051.731-1.717 0-.663-.283-1.27-.73-1.716-.449-.446-1.044-.758-1.736-.996-1.387-.475-3.202-.663-5.19-.663zm0 1.18c1.916 0 3.636.19 4.806.59.586.2 1.03.453 1.297.72.267.266.384.528.384.885 0 .356-.117.6-.384.866-.267.267-.711.52-1.297.72-1.17.401-2.89.59-4.805.59-1.915 0-3.635-.189-4.805-.59-.585-.2-1.03-.453-1.297-.72-.267-.266-.366-.509-.366-.866 0-.358.1-.62.366-.886s.712-.519 1.297-.718c1.17-.401 2.89-.591 4.805-.591zM131.777 171.272c-1.665 0-3.033 1.38-3.033 3.063v9.352c0 .091.006.057 0 .091h-9.337a3.044 3.044 0 0 0-3.033 3.044v6.845c0 1.683 1.367 3.062 3.033 3.062h9.337v9.426c0 1.682 1.367 3.063 3.033 3.063h6.779c1.665 0 3.014-1.38 3.014-3.063v-9.333c0-.085.015-.07.018-.092h9.337c1.665 0 3.033-1.38 3.033-3.063v-6.845a3.044 3.044 0 0 0-3.033-3.044h-9.354c-.003-.015 0 .019 0-.036v-9.408c0-1.682-1.35-3.063-3.015-3.063h-6.78zm0 1.18h6.779c1.033 0 1.845.838 1.845 1.883v9.408c0 .284.048.606.274.867.226.26.568.35.859.35h9.39a1.85 1.85 0 0 1 1.864 1.863v6.844c0 1.046-.83 1.882-1.864 1.882h-9.373c-.348 0-.733.155-.932.443-.198.288-.22.579-.22.83v9.334c0 1.043-.81 1.882-1.844 1.882h-6.779a1.868 1.868 0 0 1-1.864-1.882v-9.5c0-.106.037-.344-.146-.646-.183-.301-.581-.46-.95-.46h-9.41a1.867 1.867 0 0 1-1.863-1.883v-6.844a1.85 1.85 0 0 1 1.864-1.862h9.445c.319 0 .717-.167.895-.462.18-.295.164-.558.164-.812v-9.352c.001-1.045.832-1.882 1.866-1.882z" style="stroke-width:.827932"/>
    <path fill="#f4f4f4" d="M142.52 193.077V187.414c.005-.7.565-1.265 1.259-1.265.22-.001.432.059.6.154l5.454 2.93.048.04c.275.228.454.583.454.977 0 .404-.191.772-.488 1.002l-.036.03-5.444 2.921a1.266 1.266 0 0 1-.587.145 1.267 1.267 0 0 1-1.26-1.271zm1.17 0c0 .05.038.09.09.09a.102.102 0 0 0 .04-.008l5.33-2.86a.081.081 0 0 0 .016-.05.102.102 0 0 0-.012-.044l-5.334-2.866a.084.084 0 0 0-.04-.01.092.092 0 0 0-.09.09z"/>
    <path fill="#f4f4f4" d="M135.157 185.604c-2.53 0-4.586 2.094-4.586 4.65 0 2.553 2.056 4.629 4.586 4.629 2.53 0 4.604-2.076 4.604-4.63 0-2.555-2.075-4.649-4.604-4.649zm0 1.181c1.898 0 3.434 1.551 3.434 3.468a3.433 3.433 0 0 1-3.434 3.45c-1.899 0-3.416-1.533-3.416-3.45-.001-1.916 1.517-3.468 3.416-3.468z" style="stroke-width:.827932"/>
    <path fill="#f4f4f4" d="M132.361 182.818a1.266 1.266 0 0 1-1.26-1.272c0-.223.059-.436.153-.605l2.903-5.51.037-.046a1.254 1.254 0 0 1 1.962.033l.03.04 2.891 5.496c.093.177.144.382.144.592 0 .703-.564 1.27-1.26 1.27h-5.6zm0-.59v-.59zm5.601-.593c.05 0 .091-.041.091-.089 0-.02-.003-.03-.009-.039l-2.833-5.385a.089.089 0 0 0-.05-.014.08.08 0 0 0-.042.012l-2.835 5.383a.067.067 0 0 0-.013.043c0 .044.032.082.074.09zM125.945 194.196l-5.459-2.932-.046-.038a1.28 1.28 0 0 1 .035-1.982l.043-.032 5.442-2.919c.175-.093.375-.143.583-.143.696 0 1.26.57 1.26 1.271V193.081a1.266 1.266 0 0 1-1.26 1.267c-.22 0-.426-.058-.598-.152zm.553-1.041a.09.09 0 0 0 .136-.077v-5.656a.09.09 0 0 0-.09-.091.08.08 0 0 0-.04.009l-5.332 2.86a.095.095 0 0 0-.014.052c0 .015.004.029.011.042zM134.169 205.075l-.033-.04-2.888-5.492a1.276 1.276 0 0 1-.147-.595c0-.704.563-1.272 1.26-1.273h5.602v1.181h-5.602c-.048 0-.09.042-.09.092 0 .015.004.029.01.038l2.827 5.38a.088.088 0 0 0 .054.017.074.074 0 0 0 .044-.013l2.834-5.38a.09.09 0 0 0-.077-.134v-1.182c.695.002 1.258.57 1.258 1.273 0 .221-.056.431-.153.604l-2.905 5.511-.036.046a1.257 1.257 0 0 1-.965.457c-.405 0-.766-.197-.993-.49z"/>
    <path fill="#f4f4f4" d="M210.249 184.07c-5.772 0-10.469 4.725-10.469 10.552 0 5.826 4.697 10.57 10.469 10.57 5.772 0 10.468-4.744 10.468-10.57 0-5.827-4.697-10.552-10.468-10.552zm0 1.18c5.14 0 9.3 4.181 9.3 9.372 0 5.188-4.16 9.389-9.3 9.389-5.139 0-9.299-4.2-9.299-9.39s4.16-9.37 9.299-9.37zM239.278 174.502c-5.771 0-10.469 4.742-10.469 10.568 0 5.828 4.698 10.57 10.469 10.57 5.77 0 10.451-4.743 10.451-10.57 0-5.826-4.68-10.568-10.451-10.568zm0 1.18c5.138 0 9.281 4.2 9.281 9.388 0 5.189-4.142 9.39-9.281 9.39-5.14 0-9.3-4.201-9.3-9.39 0-5.187 4.16-9.388 9.3-9.388zM219.586 240.373c-.977 0-1.79.802-1.79 1.788s.813 1.808 1.79 1.808c.977 0 1.773-.822 1.773-1.808 0-.987-.796-1.788-1.773-1.788zM219.586 249.28c-.977 0-1.79.821-1.79 1.808 0 .986.813 1.788 1.79 1.788.977 0 1.773-.803 1.773-1.788 0-.987-.796-1.808-1.773-1.808zM219.586 258.21c-.977 0-1.79.803-1.79 1.79 0 .985.813 1.807 1.79 1.807.977 0 1.773-.821 1.773-1.808 0-.986-.796-1.79-1.773-1.79zM224.17 235.283c-.978 0-1.79.804-1.79 1.789 0 .985.812 1.807 1.79 1.807.977 0 1.773-.822 1.773-1.807 0-.986-.797-1.789-1.774-1.789zM224.17 244.115c-.978 0-1.79.822-1.79 1.807 0 .986.812 1.79 1.79 1.79.977 0 1.773-.805 1.773-1.79s-.797-1.807-1.774-1.807zM224.17 252.969c-.978 0-1.79.803-1.79 1.788 0 .987.812 1.808 1.79 1.808.977 0 1.773-.821 1.773-1.808 0-.985-.797-1.788-1.774-1.788zM224.17 261.804c-.978 0-1.79.804-1.79 1.79 0 .987.812 1.808 1.79 1.808.977 0 1.773-.821 1.773-1.809 0-.985-.797-1.789-1.774-1.789zM228.59 239.025c-.977 0-1.771.822-1.771 1.808 0 .987.795 1.79 1.771 1.79.976 0 1.79-.804 1.79-1.79 0-.985-.813-1.808-1.79-1.808zM228.59 247.88c-.977 0-1.771.804-1.771 1.789 0 .987.795 1.807 1.771 1.807.976 0 1.79-.82 1.79-1.807 0-.985-.813-1.79-1.79-1.79zM228.59 256.716c-.977 0-1.771.822-1.771 1.81 0 .985.795 1.788 1.771 1.788.976 0 1.79-.804 1.79-1.789 0-.987-.813-1.809-1.79-1.809zM228.59 265.554c-.977 0-1.771.82-1.771 1.808 0 .985.795 1.79 1.771 1.79a1.8 1.8 0 0 0 1.79-1.79c0-.988-.813-1.808-1.79-1.808zM233.267 233.637c-.977 0-1.772.802-1.772 1.79 0 .985.796 1.807 1.772 1.807s1.791-.822 1.791-1.808a1.8 1.8 0 0 0-1.791-1.79zM233.267 242.472c-.977 0-1.772.822-1.772 1.808 0 .988.796 1.79 1.772 1.79a1.8 1.8 0 0 0 1.791-1.79c0-.986-.815-1.808-1.791-1.808zM233.267 251.31c-.977 0-1.772.822-1.772 1.808 0 .985.796 1.788 1.772 1.788a1.8 1.8 0 0 0 1.791-1.788c0-.985-.815-1.808-1.791-1.808zM233.267 260.165c-.977 0-1.772.803-1.772 1.788s.796 1.808 1.772 1.808 1.791-.822 1.791-1.808a1.8 1.8 0 0 0-1.791-1.788zM237.6 237.237c-.976 0-1.772.804-1.772 1.789 0 .986.797 1.808 1.771 1.808.978 0 1.792-.822 1.792-1.808a1.8 1.8 0 0 0-1.792-1.789zM237.6 246.074c-.976 0-1.772.82-1.772 1.808 0 .986.797 1.789 1.771 1.789a1.8 1.8 0 0 0 1.792-1.789c0-.987-.815-1.808-1.792-1.808zM237.6 254.929c-.976 0-1.772.802-1.772 1.79 0 .985.797 1.788 1.771 1.788a1.8 1.8 0 0 0 1.792-1.789 1.8 1.8 0 0 0-1.792-1.79zM237.6 263.759c-.976 0-1.772.803-1.772 1.79 0 .985.797 1.807 1.771 1.807.978 0 1.792-.822 1.792-1.808a1.8 1.8 0 0 0-1.792-1.79zM242.096 231.794c-.977 0-1.79.804-1.79 1.79 0 .985.813 1.788 1.79 1.788.977 0 1.771-.804 1.771-1.789 0-.985-.795-1.789-1.771-1.789zM242.096 240.631c-.977 0-1.79.804-1.79 1.789 0 .987.813 1.808 1.79 1.808.977 0 1.771-.821 1.771-1.808 0-.985-.795-1.789-1.771-1.789zM242.096 249.468c-.977 0-1.79.821-1.79 1.809 0 .985.813 1.788 1.79 1.788.977 0 1.771-.803 1.771-1.788 0-.988-.795-1.809-1.771-1.809zM242.096 258.304c-.977 0-1.79.822-1.79 1.808 0 .987.813 1.789 1.79 1.789.977 0 1.771-.803 1.771-1.789 0-.985-.795-1.808-1.771-1.808zM246.464 235.13c-.978 0-1.772.804-1.772 1.789 0 .986.795 1.807 1.772 1.807.975 0 1.79-.82 1.79-1.807a1.8 1.8 0 0 0-1.79-1.789zM246.464 243.967c-.978 0-1.772.802-1.772 1.789 0 .986.795 1.808 1.772 1.808.975 0 1.79-.822 1.79-1.808a1.8 1.8 0 0 0-1.79-1.79zM246.464 252.802c-.978 0-1.772.822-1.772 1.809s.795 1.789 1.772 1.789c.975 0 1.79-.803 1.79-1.79 0-.985-.816-1.808-1.79-1.808zM250.849 238.305c-.98 0-1.792.821-1.792 1.809 0 .986.813 1.789 1.792 1.789.975 0 1.771-.804 1.771-1.789 0-.987-.796-1.809-1.771-1.809zM250.849 247.16c-.98 0-1.792.804-1.792 1.79s.813 1.807 1.792 1.807c.975 0 1.771-.821 1.771-1.807 0-.987-.796-1.79-1.771-1.79zM250.849 255.996c-.98 0-1.792.822-1.792 1.809 0 .986.813 1.788 1.792 1.788.975 0 1.771-.803 1.771-1.788 0-.986-.796-1.809-1.771-1.809zM246.464 261.657c-.978 0-1.772.804-1.772 1.79 0 .985.795 1.807 1.772 1.807.975 0 1.79-.82 1.79-1.807a1.8 1.8 0 0 0-1.79-1.79zM358.468 64.663c-4.58 0-16.998.849-21.523 1.236-2.314.198-4.195.73-5.5 2.176-1.303 1.447-1.929 3.681-2.045 7.102-.118 3.447-.295 31.051-.438 59.384-.144 28.328-.257 57.305-.257 63.249 0 5.954.238 32.688.53 58.77.146 13.043.308 25.917.457 35.935.148 10.018.277 17.138.384 18.834.309 4.914 1.245 8.52 2.868 11.234 1.624 2.713 3.943 4.498 6.851 5.718 5.817 2.442 14.017 2.789 24.83 4.557 21.729 3.553 32.85 3.1 35.847 3.1h15.273c2.998 0 14.1.453 35.828-3.1 10.812-1.768 19.033-2.115 24.847-4.557 2.91-1.22 5.21-3.005 6.835-5.718 1.624-2.713 2.558-6.32 2.867-11.234.107-1.696.237-8.816.385-18.834.147-10.018.31-22.893.456-35.934.292-26.084.549-52.817.549-58.771 0-5.945-.13-34.924-.274-63.256-.153-28.325-.31-55.93-.428-59.378-.117-3.42-.76-5.654-2.064-7.102-1.31-1.446-3.186-1.978-5.502-2.176-4.525-.387-16.925-1.236-21.504-1.236H358.458h.01zm0 1.18h99.281c4.434 0 16.925.851 21.413 1.235 2.192.188 3.707.653 4.732 1.79 1.025 1.136 1.64 3.057 1.754 6.346.111 3.262.277 31.033.42 59.36.143 28.327.274 57.304.274 63.231 0 5.922-.255 32.69-.548 58.772-.146 13.04-.309 25.899-.457 35.915-.148 10.016-.287 17.235-.383 18.779-.302 4.8-1.217 8.21-2.705 10.698-1.489 2.487-3.54 4.088-6.284 5.24-5.488 2.3-13.697 2.703-24.573 4.482-21.652 3.54-32.533 3.08-35.647 3.08H400.47c-3.113 0-13.994.46-35.646-3.08l-.092-.018c-10.825-1.765-19.013-2.169-24.482-4.463-2.744-1.153-4.815-2.753-6.304-5.24-1.488-2.487-2.401-5.9-2.704-10.698-.091-1.543-.229-8.76-.377-18.777-.148-10.018-.31-22.875-.457-35.92-.292-26.08-.53-52.849-.53-58.77 0-5.927.113-34.904.256-63.232.143-28.329.327-56.1.438-59.36.112-3.288.73-5.209 1.755-6.345 1.025-1.137 2.539-1.602 4.732-1.79 4.488-.383 16.98-1.235 21.413-1.235z" style="stroke-width:.827932"/>
    <path fill="#f4f4f4" d="M404.436 75.527c-12.994 0-53.392.322-58.21.48-2.383.077-4.303.185-5.737 1.143-1.435.958-2.156 2.74-2.156 5.608 0 2.77-.036 27.417-.055 52.111-.018 24.687-.023 49.34.055 52.444v.018c.076 3.016.154 5.115 1.461 6.678 1.308 1.562 3.638 2.358 7.875 3.136 4.31.791 15.267 1.56 26.712 2.14 11.444.578 23.305.958 29.287.958h8.86c5.983 0 17.863-.38 29.307-.958 11.444-.58 22.4-1.349 26.711-2.14 4.236-.777 6.548-1.573 7.857-3.136 1.307-1.563 1.403-3.663 1.479-6.678.079-3.09.074-27.767.054-52.462-.019-24.695-.054-49.341-.054-52.111 0-2.87-.721-4.65-2.155-5.608-1.435-.958-3.353-1.067-5.737-1.144-4.817-.157-45.236-.48-58.228-.48h-7.327zm0 1.18h7.326c12.974 0 53.519.31 58.174.462 2.352.076 4.103.277 5.151.977 1.049.7 1.627 1.929 1.627 4.612 0 2.781.036 27.417.055 52.111.019 24.695.019 49.5-.055 52.426v.018c-.077 2.985-.225 4.75-1.207 5.922-.983 1.174-3.014 1.984-7.18 2.748-4.092.75-15.135 1.544-26.565 2.122-11.43.577-23.3.96-29.232.96h-8.862c-5.932 0-17.803-.382-29.233-.96s-22.473-1.37-26.566-2.122c-4.16-.767-6.191-1.576-7.175-2.75-.983-1.176-1.111-2.94-1.187-5.94-.074-2.921-.074-27.73-.055-52.424.02-24.694.055-49.33.055-52.111 0-2.683.578-3.912 1.626-4.612 1.048-.7 2.782-.9 5.135-.977 4.652-.153 45.198-.461 58.173-.461z" style="stroke-width:.827932"/>
    <path fill="#f4f4f4" d="M363.401 88.698c-.821 0-1.498.682-1.498 1.513v80.41c0 .83.677 1.511 1.498 1.511h89.418c.82 0 1.498-.682 1.498-1.512V90.21c0-.829-.675-1.512-1.498-1.512zm0 1.18h89.418c.19 0 .328.141.328.333v80.41a.319.319 0 0 1-.328.331h-89.418a.32.32 0 0 1-.329-.332V90.21a.32.32 0 0 1 .33-.331zM397.765 287.273c-1.987 0-3.802.189-5.189.664-.694.237-1.288.55-1.735.995a2.423 2.423 0 0 0-.73 1.717c0 .665.282 1.268.73 1.716.447.446 1.042.758 1.735.996 1.387.475 3.202.644 5.189.644s3.802-.169 5.188-.644c.693-.238 1.288-.55 1.736-.996.447-.447.73-1.05.73-1.716 0-.664-.283-1.27-.73-1.717-.449-.446-1.043-.758-1.736-.995-1.386-.476-3.202-.664-5.188-.664zm0 1.18c1.915 0 3.634.19 4.805.59.585.2 1.03.453 1.298.72.267.266.383.528.383.885s-.116.6-.383.867c-.268.266-.713.519-1.298.72-1.17.4-2.89.59-4.805.59-1.915 0-3.636-.19-4.806-.59-.585-.201-1.03-.454-1.297-.72-.266-.267-.383-.51-.383-.867 0-.358.117-.62.383-.885.267-.267.712-.52 1.297-.72 1.17-.4 2.89-.59 4.806-.59zM421.595 287.273c-1.988 0-3.801.189-5.189.664-.693.237-1.288.55-1.735.995a2.41 2.41 0 0 0-.712 1.717c0 .665.264 1.268.712 1.716.448.446 1.042.758 1.735.996 1.388.475 3.201.644 5.189.644 1.987 0 3.802-.169 5.19-.644.692-.238 1.287-.55 1.734-.996.448-.447.731-1.05.731-1.716 0-.664-.283-1.27-.73-1.717-.449-.446-1.044-.758-1.736-.995-1.387-.475-3.202-.664-5.19-.664zm0 1.18c1.915 0 3.635.19 4.805.59.586.2 1.03.453 1.297.72.267.266.384.528.384.885s-.117.6-.384.867c-.267.266-.71.519-1.297.72-1.17.4-2.89.59-4.805.59-1.915 0-3.635-.19-4.805-.59-.585-.201-1.03-.454-1.297-.72-.267-.267-.365-.51-.365-.867 0-.358.098-.62.365-.885.266-.267.712-.52 1.297-.72 1.17-.4 2.89-.59 4.805-.59zM358.651 225.481c-1.665 0-3.033 1.38-3.033 3.063v9.352c0 .092.006.058 0 .092h-9.336a3.044 3.044 0 0 0-3.034 3.044v6.844c0 1.683 1.367 3.062 3.034 3.062h9.336v9.426c0 1.682 1.367 3.063 3.033 3.063h6.779c1.665 0 3.014-1.38 3.014-3.063v-9.333c0-.085.015-.07.018-.092h9.337c1.665 0 3.033-1.38 3.033-3.062v-6.845a3.044 3.044 0 0 0-3.033-3.044h-9.354c-.003-.016 0 .018 0-.037v-9.408c0-1.681-1.35-3.062-3.015-3.062h-6.78zm0 1.181h6.779c1.033 0 1.845.837 1.845 1.882v9.408c0 .284.048.606.274.867.226.26.568.35.859.35h9.39a1.85 1.85 0 0 1 1.864 1.863v6.845c0 1.045-.83 1.881-1.864 1.881h-9.373c-.348 0-.733.155-.932.443-.198.288-.22.579-.22.83v9.334c0 1.043-.81 1.882-1.844 1.882h-6.779a1.868 1.868 0 0 1-1.864-1.882v-9.5c0-.106.037-.344-.146-.646-.183-.3-.581-.46-.95-.46h-9.41a1.867 1.867 0 0 1-1.863-1.882v-6.845a1.85 1.85 0 0 1 1.864-1.862h9.445c.319 0 .717-.167.896-.462.178-.294.163-.557.163-.812v-9.352c.001-1.045.832-1.882 1.866-1.882z" style="stroke-width:.827932"/>
    <path fill="#f4f4f4" d="M369.394 247.286v-5.663c.005-.7.565-1.264 1.259-1.264.22-.002.432.058.6.153l5.454 2.93.048.04c.275.228.454.584.454.977 0 .404-.19.772-.488 1.003l-.036.029-5.444 2.921a1.266 1.266 0 0 1-.586.145 1.267 1.267 0 0 1-1.261-1.271zm1.17 0c0 .05.038.09.09.09a.102.102 0 0 0 .04-.008l5.33-2.859a.081.081 0 0 0 .016-.05.102.102 0 0 0-.012-.045l-5.334-2.866a.084.084 0 0 0-.04-.01.092.092 0 0 0-.09.09z"/>
    <path fill="#f4f4f4" d="M362.03 239.814c-2.53 0-4.585 2.094-4.585 4.648s2.056 4.63 4.586 4.63c2.53 0 4.604-2.076 4.604-4.63 0-2.555-2.075-4.648-4.604-4.648zm0 1.18c1.9 0 3.435 1.552 3.435 3.468a3.433 3.433 0 0 1-3.434 3.45c-1.899 0-3.416-1.533-3.416-3.45-.001-1.916 1.517-3.468 3.416-3.468z" style="stroke-width:.827932"/>
    <path fill="#f4f4f4" d="M359.235 237.027a1.266 1.266 0 0 1-1.26-1.271c0-.224.059-.436.153-.606l2.903-5.51.037-.046a1.254 1.254 0 0 1 1.962.033l.03.04 2.891 5.496c.093.177.144.382.144.592 0 .704-.564 1.27-1.26 1.27h-5.6zm0-.59v-.59zm5.601-.592c.05 0 .091-.042.091-.09 0-.02-.003-.03-.009-.038l-2.833-5.385a.089.089 0 0 0-.05-.015.08.08 0 0 0-.042.012l-2.835 5.383a.067.067 0 0 0-.013.044c0 .043.032.081.074.089zM352.819 248.405l-5.459-2.932-.046-.038a1.28 1.28 0 0 1 .035-1.982l.043-.032 5.442-2.918c.175-.094.375-.144.583-.144.696 0 1.26.571 1.26 1.272v5.659a1.266 1.266 0 0 1-1.26 1.267c-.22 0-.426-.058-.598-.152zm.553-1.04c.015.007.03.012.046.012a.09.09 0 0 0 .09-.09v-5.656a.09.09 0 0 0-.09-.091.08.08 0 0 0-.04.01l-5.332 2.86a.095.095 0 0 0-.014.05c0 .017.004.03.011.043zM361.043 259.285l-.033-.04-2.888-5.493a1.276 1.276 0 0 1-.147-.595c0-.704.563-1.271 1.26-1.273h5.602v1.182h-5.602c-.048 0-.09.04-.09.09 0 .017.004.03.01.039l2.827 5.38a.088.088 0 0 0 .054.017.074.074 0 0 0 .044-.013l2.834-5.38a.09.09 0 0 0-.077-.134v-1.182c.695.002 1.258.57 1.258 1.273 0 .221-.056.432-.153.604l-2.905 5.511-.035.046a1.257 1.257 0 0 1-.966.457c-.405 0-.766-.197-.993-.49z"/>
    <path fill="#f4f4f4" d="M437.123 238.279c-5.772 0-10.469 4.725-10.469 10.552s4.697 10.57 10.469 10.57c5.772 0 10.468-4.743 10.468-10.57s-4.697-10.552-10.468-10.552zm0 1.18c5.14 0 9.3 4.181 9.3 9.372 0 5.188-4.16 9.389-9.3 9.389-5.139 0-9.299-4.2-9.299-9.39s4.16-9.37 9.299-9.37zM466.152 228.711c-5.771 0-10.469 4.742-10.469 10.569 0 5.827 4.698 10.57 10.469 10.57 5.77 0 10.451-4.744 10.451-10.57 0-5.827-4.68-10.569-10.451-10.569zm0 1.18c5.138 0 9.281 4.2 9.281 9.389 0 5.188-4.142 9.389-9.281 9.389-5.14 0-9.3-4.2-9.3-9.39 0-5.187 4.16-9.388 9.3-9.388zM446.46 294.582c-.977 0-1.79.802-1.79 1.788s.813 1.808 1.79 1.808c.977 0 1.773-.822 1.773-1.808 0-.987-.796-1.788-1.773-1.788zM446.46 303.49c-.977 0-1.79.82-1.79 1.807 0 .986.813 1.789 1.79 1.789.977 0 1.773-.804 1.773-1.79s-.796-1.807-1.773-1.807zM446.46 312.419c-.977 0-1.79.804-1.79 1.79 0 .985.813 1.807 1.79 1.807.977 0 1.773-.821 1.773-1.808 0-.986-.796-1.79-1.773-1.79zM451.044 289.492c-.978 0-1.79.804-1.79 1.789 0 .985.812 1.808 1.79 1.808.977 0 1.773-.822 1.773-1.808 0-.986-.797-1.789-1.773-1.789zM451.044 298.324c-.978 0-1.79.822-1.79 1.808 0 .985.812 1.789 1.79 1.789.977 0 1.773-.804 1.773-1.79 0-.984-.797-1.807-1.773-1.807zM451.044 307.178c-.978 0-1.79.804-1.79 1.789 0 .986.812 1.807 1.79 1.807.977 0 1.773-.82 1.773-1.807 0-.985-.797-1.79-1.773-1.79zM451.044 316.014c-.978 0-1.79.803-1.79 1.788 0 .988.812 1.809 1.79 1.809.977 0 1.773-.821 1.773-1.809 0-.985-.797-1.788-1.773-1.788zM455.464 293.234c-.977 0-1.771.822-1.771 1.808 0 .987.795 1.79 1.771 1.79.977 0 1.79-.803 1.79-1.79 0-.985-.813-1.808-1.79-1.808zM455.464 302.09c-.977 0-1.771.803-1.771 1.788 0 .987.795 1.807 1.771 1.807.977 0 1.79-.82 1.79-1.807 0-.985-.813-1.789-1.79-1.789zM455.464 310.926c-.977 0-1.771.822-1.771 1.808 0 .986.795 1.789 1.771 1.789.977 0 1.79-.804 1.79-1.789 0-.986-.813-1.808-1.79-1.808zM455.464 319.763c-.977 0-1.771.82-1.771 1.808 0 .986.795 1.79 1.771 1.79a1.8 1.8 0 0 0 1.79-1.79c0-.988-.813-1.808-1.79-1.808zM460.141 287.846c-.977 0-1.772.803-1.772 1.79 0 .985.796 1.807 1.772 1.807s1.791-.822 1.791-1.808a1.8 1.8 0 0 0-1.791-1.79zM460.141 296.682c-.977 0-1.772.822-1.772 1.807 0 .988.796 1.79 1.772 1.79a1.8 1.8 0 0 0 1.791-1.79c0-.985-.815-1.807-1.791-1.807zM460.141 305.52c-.977 0-1.772.821-1.772 1.807s.796 1.788 1.772 1.788a1.8 1.8 0 0 0 1.791-1.788c0-.985-.815-1.808-1.791-1.808zM460.141 314.374c-.977 0-1.772.804-1.772 1.789 0 .985.796 1.807 1.772 1.807s1.791-.822 1.791-1.807a1.8 1.8 0 0 0-1.791-1.79zM464.473 291.446c-.975 0-1.771.804-1.771 1.789 0 .987.797 1.809 1.771 1.809.978 0 1.792-.822 1.792-1.809a1.8 1.8 0 0 0-1.792-1.789zM464.473 300.283c-.975 0-1.771.821-1.771 1.809 0 .985.797 1.788 1.771 1.788a1.8 1.8 0 0 0 1.792-1.788c0-.988-.815-1.809-1.792-1.809zM464.473 309.138c-.975 0-1.771.803-1.771 1.79 0 .985.797 1.788 1.771 1.788a1.8 1.8 0 0 0 1.792-1.789 1.8 1.8 0 0 0-1.792-1.79zM464.473 317.968c-.975 0-1.771.803-1.771 1.79 0 .985.797 1.807 1.771 1.807.978 0 1.792-.822 1.792-1.808a1.8 1.8 0 0 0-1.792-1.79zM468.97 286.003c-.977 0-1.79.804-1.79 1.79 0 .985.813 1.788 1.79 1.788.977 0 1.771-.803 1.771-1.788 0-.986-.795-1.79-1.771-1.79zM468.97 294.84c-.977 0-1.79.804-1.79 1.79s.813 1.807 1.79 1.807c.977 0 1.771-.821 1.771-1.808 0-.985-.795-1.788-1.771-1.788zM468.97 303.677c-.977 0-1.79.821-1.79 1.809 0 .986.813 1.788 1.79 1.788.977 0 1.771-.803 1.771-1.788 0-.988-.795-1.809-1.771-1.809zM468.97 312.513c-.977 0-1.79.822-1.79 1.809 0 .986.813 1.788 1.79 1.788.977 0 1.771-.803 1.771-1.788 0-.986-.795-1.809-1.771-1.809zM473.338 289.34c-.978 0-1.772.803-1.772 1.788 0 .986.795 1.808 1.772 1.808.975 0 1.79-.822 1.79-1.808a1.8 1.8 0 0 0-1.79-1.789zM473.338 298.176c-.978 0-1.772.803-1.772 1.79 0 .985.795 1.807 1.772 1.807.975 0 1.79-.822 1.79-1.808a1.8 1.8 0 0 0-1.79-1.79zM473.338 307.012c-.978 0-1.772.821-1.772 1.808 0 .987.795 1.789 1.772 1.789.975 0 1.79-.803 1.79-1.789 0-.986-.816-1.808-1.79-1.808zM477.723 292.515c-.979 0-1.791.82-1.791 1.808 0 .986.812 1.789 1.79 1.789.976 0 1.772-.804 1.772-1.789 0-.986-.796-1.808-1.771-1.808zM477.723 301.37c-.979 0-1.791.803-1.791 1.789 0 .986.812 1.808 1.79 1.808.976 0 1.772-.822 1.772-1.808 0-.987-.796-1.79-1.771-1.79zM477.723 310.205c-.979 0-1.791.822-1.791 1.809 0 .986.812 1.788 1.79 1.788.976 0 1.772-.802 1.772-1.788s-.796-1.809-1.771-1.809zM473.338 315.866c-.978 0-1.772.804-1.772 1.79s.795 1.808 1.772 1.808c.975 0 1.79-.822 1.79-1.808a1.8 1.8 0 0 0-1.79-1.79z" style="stroke-width:.827932"/>
</svg>
