<svg version="1.2" baseProfile="tiny" xmlns="http://www.w3.org/2000/svg" width="598.189" height="350.26" xml:space="preserve">
    <g fill="#F4F4F4">
        <path d="M390.887 236.751c-3.419 0-6.711-1.672-9.7-4.674-16.063-16.074-32.129-32.146-48.184-48.224-2.918-2.915-4.54-6.164-4.54-9.522 0-3.367 1.624-6.623 4.558-9.543 16.146-16.17 32.297-32.337 48.45-48.497 2.822-2.835 6.071-4.39 9.403-4.386 3.332-.004 6.578 1.547 9.405 4.38 15.659 15.666 31.295 31.348 46.979 46.978 2.349 2.345 4.738 4.902 5.851 8.53l.065.213v4.672l-.067.219c-1.121 3.628-3.523 6.172-5.868 8.514-15.593 15.541-31.14 31.133-46.701 46.711-2.972 2.979-6.247 4.635-9.646 4.633-.001-.004-.003-.004-.005-.004zm-7.294-118.34c-16.152 16.16-32.305 32.327-48.453 48.497-2.559 2.567-3.673 5.05-3.676 7.421.003 2.366 1.115 4.844 3.661 7.402 16.056 16.078 32.119 32.148 48.185 48.225 2.645 2.642 5.176 3.797 7.577 3.797 2.394-.004 4.903-1.142 7.527-3.756 15.562-15.576 31.109-31.17 46.707-46.717 2.256-2.238 4.161-4.354 5.053-7.061v-3.76c-.883-2.713-2.78-4.836-5.032-7.076-15.688-15.634-31.325-31.321-46.982-46.98-2.438-2.427-4.903-3.5-7.284-3.504-2.383.008-4.85 1.084-7.283 3.512zM296.401 328.473c-3.618-1.157-6.12-3.603-8.44-5.929-15.527-15.606-31.102-31.166-46.665-46.746-2.967-2.965-4.621-6.233-4.619-9.619-.002-3.381 1.643-6.641 4.604-9.588 16.104-16.118 32.208-32.236 48.318-48.354 2.875-2.883 6.145-4.472 9.504-4.468 3.34-.004 6.586 1.563 9.435 4.422 16.106 16.118 32.213 32.235 48.315 48.358 2.959 2.955 4.599 6.248 4.597 9.65.002 3.385-1.624 6.657-4.56 9.588-15.695 15.715-31.416 31.403-47.072 47.147-2.276 2.285-4.791 4.544-8.324 5.548l-.201.057h-2.936v.553l-1.956-.619zm.455-1.429.453-1.43-.453 1.43zm4.013-1.502c2.623-.793 4.673-2.555 6.821-4.721 15.662-15.746 31.385-31.439 47.076-47.15 2.56-2.571 3.682-5.073 3.682-7.469 0-2.408-1.134-4.935-3.718-7.529a220284.15 220284.15 0 0 0-48.316-48.358c-2.467-2.458-4.933-3.542-7.312-3.544-2.395.002-4.886 1.104-7.381 3.59-16.112 16.116-32.215 32.234-48.32 48.352-2.592 2.603-3.722 5.094-3.722 7.469 0 2.378 1.136 4.881 3.741 7.498 15.558 15.578 31.138 31.14 46.669 46.75 2.235 2.259 4.322 4.199 6.999 5.113h3.781v-.001zM241.006 199.643c-.809-.896-1.352-2.07-1.729-3.496-.406-1.573-.421-3.138-.425-4.552-.015-11.579-.017-23.158-.017-34.735 0-7.048 0-14.095.002-21.14h-.002c0-9.89.049-19.774.049-29.649 0-8.035-.033-16.064-.151-24.086a35.273 35.273 0 0 1-.004-.462c-.035-5.21 1.438-9.77 5.647-13.357 3.088-2.666 5.89-5.812 8.914-8.844 11.805-11.817 23.61-23.637 35.421-35.45 2.953-2.961 6.222-4.605 9.606-4.603 3.388-.002 6.655 1.646 9.606 4.605 16.063 16.068 32.124 32.141 48.187 48.215 2.944 2.939 4.573 6.222 4.571 9.615.002 3.395-1.631 6.68-4.575 9.623-18.994 19.017-37.995 38.033-56.994 57.048-16.776 16.795-33.551 33.589-50.333 50.38-1.434 1.424-2.945 2.328-4.626 2.349h-.038c-1.186-.002-2.324-.574-3.109-1.461zm.828-42.784c0 11.577.002 23.153.017 34.733-.002 1.373.04 2.699.33 3.795.288 1.113.69 1.854 1.047 2.24.371.383.595.459.928.473.458.02 1.382-.336 2.504-1.469 16.781-16.791 33.556-33.585 50.333-50.379 18.999-19.016 38.001-38.031 56.994-57.048 2.566-2.584 3.696-5.099 3.696-7.502 0-2.402-1.126-4.916-3.692-7.494-16.063-16.075-32.122-32.147-48.187-48.215-2.602-2.593-5.103-3.725-7.483-3.725-2.383 0-4.884 1.129-7.487 3.722-11.809 11.813-23.612 23.633-35.419 35.45-2.943 2.945-5.789 6.153-9.075 8.995-3.49 3.057-4.57 6.337-4.607 11.085 0 .135.002.274.004.417.116 8.046.149 16.089.149 24.132 0 9.886-.047 19.77-.047 29.649-.002 7.047-.005 14.095-.005 21.141zM194.705 230.677c-7.567-7.553-15.109-15.125-22.658-22.688-8.727-8.74-17.456-17.48-26.179-26.229-2.057-2.057-3.161-4.62-3.157-7.213-.004-2.578 1.083-5.129 3.122-7.18a130316.6 130316.6 0 0 1 48.2-48.731c.383-.381.831-.924 1.446-1.441.604-.51 1.487-1.032 2.597-1.028a3.98 3.98 0 0 1 1.423.271c2.434.91 3.368 3.203 3.61 5.127.155 1.102.286 2.258.29 3.447.01 10.283.01 20.563.01 30.844v17.193h.015v1.5c0 7.482.004 14.964.004 22.447 0 8.963-.008 17.93-.038 26.901-.01 1.714-.273 3.528-.916 5.196-.688 1.893-2.117 3.404-4.056 3.404-1.405-.01-2.626-.744-3.713-1.82zm2.695-111.176c-.337.276-.742.744-1.232 1.245-16.072 16.24-32.139 32.484-48.201 48.733-1.549 1.57-2.251 3.331-2.256 5.068.004 1.746.717 3.521 2.283 5.097 8.721 8.745 17.45 17.485 26.177 26.226 7.55 7.563 15.092 15.135 22.653 22.684.762.77 1.359.962 1.597.949.242 0 .692-.117 1.257-1.483.479-1.229.71-2.724.714-4.13.029-8.967.036-17.928.036-26.891 0-6.981-.004-13.967-.004-20.947h-.012v-20.193c0-10.28-.002-20.561-.011-30.839-.002-.97-.112-1.989-.261-3.026-.251-1.527-.677-2.351-1.705-2.747a.993.993 0 0 0-.358-.077c-.161 0-.329.05-.677.331z"/>
    </g>
</svg>
