<svg height="350.702" viewBox="0 0 638.889 981.965" width="228.175" xmlns="http://www.w3.org/2000/svg">
    <g fill="#f4f4f4" fill-opacity=".5" stroke-width="2.8">
        <path d="M441.587 46.282q0 .896-.216 1.508-.321.911-1.03.911-.47 0-.986-.217-.62-.26-.68-.642.21 0 .493.075.657.172.822.172.634 0 .955-.635.254-.508.254-1.217 0-.5-.328-1.426-.321-.933-.321-1.3 0-.111.06-.179.066-.074.178-.074.292 0 .568 1.344.231 1.135.231 1.68zM444.462 47.043q0 .762-.44 1.195-.441.433-1.217.433-.426 0-.658-.201-.231-.202-.231-.62 0-.59.769-1.187.732-.568 1.352-.568.283 0 .373.351.052.202.052.597zm-.455.21q0-.09-.023-.172-.015-.09-.06-.202-.119.082-.395.403-.142.165-.247.24 0-.143.03-.232.06-.127.097-.217-.328 0-.687.277-.35.276-.35.597 0 .216.238.216.456 0 .882-.224.515-.268.515-.687zM447.538 47.35q0 .365-.276.82-.313.516-.65.516-.097 0-.164-.104-.06-.112-.06-.217 0-.134.284-.418.291-.291.291-.396 0-.067-.022-.134l-.03-.09q-.56.127-1.142.642-.575.515-.874.583-.06-.165-.06-.336 0-.21.098-.44.067-.165.224-.397.26-.395.552-.896.15-.26.515-.903.374-.642.545-.911.09-.134.157-.202.097-.09.232-.12.09.03.127.113.044.082.044.194 0 .254-.328.687-.597.777-.612.806-.336.508-.336.919l.014.074q.411-.201.486-.231.306-.127.522-.127.24 0 .351.164.112.157.112.404zM451.003 46.909q0 .508-.246 1.083-.27.634-.665.873-.082-.097-.142-.216-.052-.12-.052-.24 0-.126.373-.753.164-.277.15-.486l-.008-.097q-.276.082-.955.5-.672.411-1.36.837-.104 0-.193-.075-.082-.082-.082-.18 0-.156.5-1.052.15-.269.537-.933.12.157.157.35.038.187.038.449v.171q.686-.41 1.075-.62.425-.23.582-.23.105 0 .194.238.097.24.097.381zM457.491 48.358q0 .134-.119.209-.112.067-.254.067-.127 0-.32-.03-.441-.067-.568-.067-.224 0-.881.052-.374.03-.538.03-.456 0-.456-.456 0-.433.284-1.24.157-.455.59-1.492.388-.934.493-1.315.037-.119.06-.156.06-.09.149-.09.142 0 .239.21.097.2.097.365 0 .261-.306.881-.306.612-.598 1.202-.32.702-.32 1.068 0 .187.156.261.112.053.329.053.164 0 .567-.038.403-.045.538-.045.336 0 .552.097.306.135.306.434zM460.27 47.043q0 .762-.441 1.195-.441.433-1.218.433-.425 0-.657-.201-.231-.202-.231-.62 0-.59.769-1.187.732-.568 1.351-.568.284 0 .374.351.052.202.052.597zm-.456.21q0-.09-.023-.172-.015-.09-.06-.202-.119.082-.395.403-.142.165-.247.24 0-.143.03-.232.06-.127.097-.217-.328 0-.687.277-.35.276-.35.597 0 .216.238.216.456 0 .882-.224.515-.268.515-.687zM463.413 46.887q0 .239-.127.507-.12.27-.307.448l-.007-.104q0-.09.023-.276.022-.187.022-.277 0-.127-.037-.186-.037-.068-.157-.068-.35 0-.873.545l-1.128 1.188q-.045 0-.09-.008-.112-.03-.149-.037.023-.269.187-.597.44-.889.455-.949.06-.239.09-.35.03-.113.082-.232.06-.127.134-.224.083-.105.21-.157l.074.896q.321-.261.493-.403.329-.261.567-.261.24 0 .389.156.149.157.149.389zM467.079 46.02q0 .314-.837.83-.806.492-1.172.492-.172 0-.231-.12-.053-.119-.053-.335v-.202q.5 0 .911-.15.411-.149.717-.492-.224-.082-.455-.082-.545 0-1.158.418-.672.455-.672.97 0 .493.672.687.105.03 1.262.21.68.104.68.365 0 .112-.247.18-.246.074-.627.074-.956 0-1.508-.29-.732-.39-.732-1.248 0-.896.896-1.426.762-.448 1.732-.448.292 0 .53.134.292.165.292.433zM470.05 44.684q0 .164-.395.687-.396.523-.396.799 0 .142.164.284.374.328.374.403 0 .097-.068.186-.06.09-.156.09-.083 0-.232-.09-.104-.06-.403-.29-.112.216-.172.328-.209.395-.284.575l-.224.687q-.194.463-.485.463l-.007-.172q0-.53.344-1.255.067-.134.373-.694-.59-.321-1.3-.321 0-.276.113-.403.12-.135.395-.135.254 0 .635.09l.373.09q.142-.045.389-.486.604-1.06.821-1.217.06.097.097.194.045.097.045.187zM472.806 47.35q0 .365-.277.82-.313.516-.65.516-.096 0-.164-.104-.06-.112-.06-.217 0-.134.285-.418.29-.291.29-.396 0-.067-.022-.134l-.03-.09q-.56.127-1.142.642-.575.515-.874.583-.06-.165-.06-.336 0-.21.098-.44.067-.165.224-.397.261-.395.552-.896.15-.26.516-.903.373-.642.545-.911.09-.134.156-.202.098-.09.232-.12.09.03.127.113.045.082.045.194 0 .254-.329.687-.597.777-.612.806-.336.508-.336.919l.015.074q.41-.201.485-.231.306-.127.523-.127.239 0 .35.164.113.157.113.404zM478.936 44.915q0 .351-.374.941-.238.374-.784 1.075-.545.695-.679.911l.56.18q.545.164.545.597-.224.037-.44.067l-.083-.007v-.06q-.12-.03-.194-.03-.142 0-.448.045-.306.045-.463.045-.201 0-.328-.075t-.127-.269q0-.157.575-.888 1.075-1.367 1.082-1.382.583-.791.583-1.06 0-.105-.075-.157-.067-.052-.276-.052-.142 0-.59.276-.216.135-.35.135l-.128-.023q-.045-.03-.097-.112-.052-.09-.052-.142 0-.313.605-.575.515-.224.896-.224.32 0 .492.24.15.208.15.544zM483.423 46.26q0 .903-.978 1.597-.896.635-1.844.635-.47 0-.747-.239-.276-.239-.276-.694 0-1.016.888-1.763.844-.709 1.89-.709.53 0 .798.314.27.313.27.858zm-.455.171q0-.343-.388-.515-.292-.127-.695-.127-.59 0-1.232.575t-.642 1.157q0 .24.12.344.126.097.38.097.732 0 1.523-.403.934-.478.934-1.128zM486.843 44.915q0 .351-.373.941-.24.374-.784 1.075-.545.695-.68.911l.56.18q.545.164.545.597-.224.037-.44.067l-.082-.007v-.06q-.12-.03-.194-.03-.142 0-.448.045-.307.045-.463.045-.202 0-.329-.075t-.127-.269q0-.157.575-.888 1.075-1.367 1.083-1.382.582-.791.582-1.06 0-.105-.075-.157-.067-.052-.276-.052-.142 0-.59.276-.216.135-.35.135l-.128-.023q-.044-.03-.097-.112-.052-.09-.052-.142 0-.313.605-.575.515-.224.896-.224.32 0 .493.24.149.208.149.544zM490.278 44.915q0 .351-.374.941-.239.374-.784 1.075-.545.695-.68.911l.56.18q.546.164.546.597-.224.037-.44.067l-.083-.007v-.06q-.12-.03-.194-.03-.142 0-.448.045-.306.045-.463.045-.201 0-.328-.075t-.127-.269q0-.157.575-.888 1.075-1.367 1.082-1.382.583-.791.583-1.06 0-.105-.075-.157-.067-.052-.276-.052-.142 0-.59.276-.217.135-.351.135l-.127-.023q-.045-.03-.097-.112-.052-.09-.052-.142 0-.313.604-.575.516-.224.896-.224.322 0 .493.24.15.208.15.544z"/>
    </g>
    <g fill="none" stroke="#f4f4f4">
        <g stroke-width="5.6">
            <path d="M112.459 11.574v24.55c-2.354 1.514-3.767 4.046-3.772 6.757 0 4.51 3.826 8.168 8.547 8.168 4.72 0 8.548-3.657 8.547-8.168-.01-2.936-1.667-5.641-4.342-7.086v-24.22m502.333 130.994h-18.549c-1.515-2.354-4.046-3.767-6.758-3.772-4.51 0-8.168 3.826-8.168 8.547 0 4.72 3.658 8.548 8.168 8.547 2.936-.01 5.642-1.667 7.086-4.342h18.221m-608.475.57h18.55c1.514 2.354 4.046 3.767 6.757 3.772 4.51 0 8.168-3.826 8.168-8.547 0-4.72-3.657-8.548-8.168-8.547-2.936.01-5.641 1.667-7.086 4.342h-18.22m4.564 229.888H38.41c1.515 2.353 4.046 3.766 6.758 3.772 4.51 0 8.168-3.826 8.168-8.547s-3.658-8.548-8.168-8.547c-2.936.009-5.642 1.667-7.086 4.342H19.862m599.367-.158H600.68c-1.514-2.353-4.046-3.766-6.757-3.772-4.511 0-8.168 3.826-8.168 8.547s3.657 8.548 8.168 8.547c2.936-.009 5.641-1.667 7.086-4.342h18.22M244.602 947.49a8.547 8.167 0 0 0-8.547 8.168 8.547 8.167 0 0 0 4.341 7.086v18.22h8.981v-18.548a8.547 8.167 0 0 0 3.771-6.758 8.547 8.167 0 0 0-8.546-8.168zm74.843 32.906c61.252.1 123.308 2.836 182.024-5.37 69.053-9.208 122.931-37.369 129.291-110.585 6.881-104.752 8.268-212.81 6.328-322.872-1.554-18.918-9.348-37.818-11.163-62.409-10.525-77.345-10.194-152.025-.85-224.493 5.544-54.674-.88-117.813-10.63-178.688-7.26-46.286-45.215-55.487-60.498-59.464C484.827 5.497 398.859.776 319.685 1.008c-77.348 1.205-165.622 4.49-234.742 15.507-15.284 3.977-53.238 13.178-60.498 59.464-9.75 60.875-16.174 124.014-10.631 178.688 9.345 72.468 9.676 147.148-.85 224.493-1.815 24.591-9.608 43.491-11.163 62.41-1.94 110.06-.553 218.12 6.328 322.87 6.36 73.217 60.238 101.378 129.292 110.587 58.716 8.205 120.772 5.47 182.024 5.369"/>
            <path d="M163.124 138.375h312.764c.575 0 1.038.463 1.038 1.038v282.505c0 .575-.463 1.037-1.038 1.037H163.124a1.036 1.036 0 0 1-1.038-1.037V139.413c0-.575.463-1.038 1.038-1.038z"/>
            <path d="M118.518 88.644c134.417-7.095 269.261-5.12 403.498 4.59 23.199 3 32.83 25.61 34.022 46.534 3.714 54.103 3.7 110.199 3.059 165.418-.678 42.162-4.382 85.583-20.185 125.163-12.692 29.167-45.935 40.044-75.442 41.426-107.747 12.284-217.244 10.847-324.439-5.628-31.587-6.842-54.641-36.625-55.537-68.636-14.724-93.172-14.307-269.542.176-281.72 3.48-16.12 19.505-25.312 34.848-27.147z"/>
        </g>
        <path d="M346.38 723.516c-9.866 2.527-14.088 5.071-16.148 21.091.695 11.157 5.367 19.212 16.741 22.041 96.268-2.884 166.844-12.895 228.557-25.364 17.519-2.478 20.173-41.98-12.026-38.742-72.594 11.124-139.882 20.38-217.124 20.974z" stroke-width="2.8"/>
        <g stroke-width="5.6">
            <path d="m403.347 910.388 41.737-72.292a18.68 18.68 0 0 1 25.574-6.852 18.68 18.68 0 0 1 6.852 25.573l-41.737 72.292a18.68 18.68 0 0 1-25.574 6.852 18.68 18.68 0 0 1-6.852-25.573zM468.46 903.867l41.737-72.292c5.186-8.982 16.592-12.038 25.574-6.852s12.038 16.591 6.852 25.573l-41.737 72.292c-5.186 8.982-16.592 12.038-25.574 6.852s-12.038-16.591-6.852-25.573zM340.225 913.998l41.737-72.291a18.68 18.68 0 0 1 25.574-6.853 18.68 18.68 0 0 1 6.852 25.574l-41.737 72.291a18.68 18.68 0 0 1-25.574 6.853 18.68 18.68 0 0 1-6.852-25.574zM535.5 901.284l7.618-13.196c4.07-7.05 13.024-9.449 20.074-5.378s9.45 13.023 5.379 20.074l-7.618 13.195c-4.071 7.05-13.024 9.449-20.074 5.378s-9.45-13.023-5.38-20.073zM315.79 856.534l7.618-13.195a14.663 14.663 0 0 1 20.074-5.379 14.663 14.663 0 0 1 5.379 20.074l-7.618 13.195a14.663 14.663 0 0 1-20.074 5.38 14.663 14.663 0 0 1-5.379-20.075z"/>
        </g>
        <path d="M151.12 40.479h339.675c3.038 0 5.483 2.445 5.483 5.482s-2.445 5.483-5.483 5.483H151.12c-3.038 0-5.483-2.446-5.483-5.483s2.445-5.482 5.483-5.482z" stroke-width="2.8"/>
        <path d="M530.457 47.533a6.494 6.494 0 0 1-6.494 6.494 6.494 6.494 0 0 1-6.495-6.494 6.494 6.494 0 0 1 6.495-6.494 6.494 6.494 0 0 1 6.494 6.494z" stroke-width="5.6"/>
        <g stroke-width="5.6">
            <path d="M19.451 309.036c-7.245 2.19-12.98 30.947-12.98 66.1 0 32.114 4.786 58.89 11.138 64.95M619.76 309.036c7.246 2.19 12.98 30.947 12.98 66.1 0 32.114-4.785 58.89-11.137 64.95M438.564 603.211a43.439 43.439 0 0 1-43.438 43.439 43.439 43.439 0 0 1-43.439-43.439 43.439 43.439 0 0 1 43.439-43.438 43.439 43.439 0 0 1 43.438 43.438zM568.406 587.66a43.439 43.439 0 0 1-43.439 43.438 43.439 43.439 0 0 1-43.438-43.439 43.439 43.439 0 0 1 43.438-43.438 43.439 43.439 0 0 1 43.439 43.438zM476.376 726.692l90.899-12.775a7.796 7.796 0 0 1 8.824 6.65 7.796 7.796 0 0 1-6.65 8.824l-90.898 12.775a7.796 7.796 0 0 1-8.825-6.65 7.796 7.796 0 0 1 6.65-8.824zM348.735 736.608l91.665-4.804a7.796 7.796 0 0 1 8.212 7.393 7.796 7.796 0 0 1-7.394 8.212l-91.666 4.804a7.796 7.796 0 0 1-8.211-7.394 7.796 7.796 0 0 1 7.394-8.211zM158.94 543.56c9.417 0 17 7.582 17 17v31.163c0 9.418-7.583 17-17 17-9.419 0-17-7.582-17-17V560.56c0-9.418 7.581-17 17-17zM158.94 675.56c9.417 0 17 7.582 17 17v31.163c0 9.418-7.583 17-17 17-9.419 0-17-7.582-17-17V692.56c0-9.418 7.581-17 17-17z"/>
            <path d="M81.954 626.227c6.417-30.04 29.904-53.755 59.82-60.504m34.12-.179c30.332 6.506 54.204 30.42 60.65 60.774m-.177 33.81c-6.685 29.912-30.326 53.424-60.307 59.923m-34.12-.106c-29.83-6.66-53.297-30.184-59.878-60.043"/>
            <path d="M256.45 642.97c0 9.418-7.583 17-17.001 17h-31.163c-9.418 0-17-7.582-17-17s7.582-17 17-17h31.163c9.418 0 17 7.582 17 17zM124.45 642.97c0 9.418-7.583 17-17.001 17H76.286c-9.418 0-17-7.582-17-17s7.582-17 17-17h31.163c9.418 0 17 7.582 17 17z"/>
        </g>
    </g>
</svg>
