<svg version="1.2" baseProfile="tiny" xmlns="http://www.w3.org/2000/svg" width="598.189" height="350.26" xml:space="preserve">
    <g fill="#F4F4F4">
        <path d="M82.189 26.116v83.276h-3.15v1.708h4.859V26.116h-1.709zM47.081 25.262v85.837h29.476V25.262H47.081zm1.708 1.709h26.058v82.42H48.789v-82.42zM269.116 25.262v85.837h281.892V25.262H269.116zm1.708 1.709H549.3v82.42H270.824v-82.42zM89.532 26.116v83.276h-3.15v1.708h4.858V26.116h-1.708zM96.874 26.116v83.276h-3.15v1.708h4.859V26.116h-1.709zM104.243 26.116v83.276h-3.177v1.708h4.886V26.116h-1.709zM111.585 26.116v83.276h-3.177v1.708h4.886V26.116h-1.709zM118.928 26.116v83.276h-3.177v1.708h4.886V26.116h-1.709zM126.271 26.116v83.276h-3.177v1.708H127.98V26.116h-1.709zM133.611 26.116v83.276h-3.177v1.708h4.886V26.116h-1.709zM140.959 26.116v83.276h-3.177v1.708h4.886V26.116h-1.709zM148.298 26.116v83.276h-3.177v1.708h4.885V26.116h-1.708zM155.638 26.116v83.276h-3.177v1.708h4.886V26.116h-1.709zM162.985 26.116v83.276h-3.177v1.708h4.886V26.116h-1.709zM170.324 26.116v83.276h-3.178v1.708h4.886V26.116h-1.708zM177.663 26.116v83.276h-3.177v1.708h4.886V26.116h-1.709zM185.011 26.116v83.276h-3.177v1.708h4.886V26.116h-1.709zM192.35 26.116v83.276h-3.178v1.708h4.886V26.116h-1.708zM199.689 26.116v83.276h-3.177v1.708h4.886V26.116h-1.709zM207.037 26.116v83.276h-3.177v1.708h4.886V26.116h-1.709zM214.376 26.116v83.276h-3.178v1.708H216.085V26.116h-1.709zM221.724 26.116v83.276h-3.178v1.708h4.886V26.116h-1.708zM229.063 26.116v83.276h-3.177v1.708h4.886V26.116h-1.709zM236.402 26.116v83.276h-3.178v1.708H238.111V26.116h-1.709zM243.749 26.116v83.276h-3.177v1.708h4.886V26.116h-1.709zM251.088 26.116v83.276h-3.177v1.708h4.886V26.116h-1.709zM258.436 26.116v83.276h-3.177v1.708h4.886V26.116h-1.709zM265.775 26.116v83.276h-3.178v1.708h4.886V26.116h-1.708z"/>
        <path d="M341.737 35.461c-.906 0-1.656.749-1.656 1.655v32.893c0 .905.75 1.656 1.656 1.656H538.62c.906 0 1.655-.75 1.655-1.656V37.116c0-.905-.749-1.655-1.655-1.655H341.737zm.054 1.708h196.772v32.787H341.791V37.169z"/>
        <path d="M347.53 40.24c-1.128 0-2.082.928-2.082 2.056V64.83c0 1.128.954 2.056 2.082 2.056h148.261c.799 0 1.368-.527 1.708-1.201h.348V42.296a2.064 2.064 0 0 0-2.056-2.056H347.53zm0 1.709h148.261c.205 0 .347.142.347.347V64.83a.331.331 0 0 1-.347.347H347.53c-.204 0-.373-.143-.373-.347V42.296c0-.205.169-.347.373-.347z"/>
        <path d="M349.794 43.043c-.684 0-1.255.568-1.255 1.255v18.529c0 .687.571 1.255 1.255 1.255h143.988c.686 0 1.256-.571 1.256-1.255V44.298c0-.685-.57-1.255-1.256-1.255H349.794zm.454 1.709H493.33v17.622H350.248V44.752zM520.482 41.842c-6.465 0-11.721 5.257-11.721 11.722 0 6.464 5.255 11.721 11.721 11.721 6.465 0 11.722-5.257 11.722-11.721 0-6.465-5.257-11.722-11.722-11.722zm0 1.709a9.999 9.999 0 0 1 10.013 10.013 9.999 9.999 0 0 1-10.013 10.012 9.997 9.997 0 0 1-10.012-10.012 9.998 9.998 0 0 1 10.012-10.013z"/>
    </g>
    <path fill="#F4F4F4" d="M52.287 114.276c-.906 0-1.682.748-1.682 1.655V324.45c0 .906.774 1.656 1.682 1.656h493.505c.906 0 1.656-.751 1.656-1.656V115.932c0-.905-.752-1.655-1.656-1.655H52.287zm.026 1.709h493.429V324.4H52.313V115.985zM52.287 16.852c-.907 0-1.682.749-1.682 1.655v7.716h1.708V18.56h493.429v7.45h1.708v-7.503c0-.906-.752-1.656-1.658-1.656H52.279l.008.001z"/>
    <path fill="#F4F4F4" d="M75.354 167.06c-1.795 0-3.284 1.487-3.284 3.284v15.993c0 1.796 1.487 3.284 3.284 3.284h15.993c1.796 0 3.258-1.487 3.258-3.284V170.344c0-1.795-1.462-3.284-3.258-3.284H75.354zm0 1.708h15.993c.874 0 1.549.704 1.549 1.576v15.993c0 .872-.677 1.575-1.549 1.575H75.354a1.573 1.573 0 0 1-1.575-1.575v-15.993c0-.874.702-1.576 1.575-1.576zM99.224 167.06c-1.795 0-3.284 1.487-3.284 3.284v15.993c0 1.796 1.487 3.284 3.284 3.284h15.993c1.796 0 3.284-1.487 3.284-3.284v-15.993c0-1.796-1.489-3.284-3.284-3.284H99.224zm0 1.708h15.993c.874 0 1.575.704 1.575 1.576v15.993c0 .872-.702 1.575-1.575 1.575H99.224a1.572 1.572 0 0 1-1.575-1.575v-15.993a1.57 1.57 0 0 1 1.575-1.576zM123.093 167.06c-1.794 0-3.284 1.487-3.284 3.284v15.993c0 1.795 1.487 3.284 3.284 3.284h15.993c1.795 0 3.284-1.487 3.284-3.284v-15.993c0-1.795-1.488-3.284-3.284-3.284h-15.993zm0 1.708h15.993c.873 0 1.575.704 1.575 1.576v15.993c0 .872-.703 1.575-1.575 1.575h-15.993a1.572 1.572 0 0 1-1.575-1.575v-15.993c0-.874.703-1.576 1.575-1.576zM146.965 167.06c-1.794 0-3.256 1.487-3.256 3.284v15.993c0 1.796 1.46 3.284 3.256 3.284h15.994c1.796 0 3.284-1.487 3.284-3.284v-15.993c0-1.796-1.489-3.284-3.284-3.284h-15.994zm0 1.708h15.994c.874 0 1.575.704 1.575 1.576v15.993c0 .872-.702 1.575-1.575 1.575h-15.994c-.872 0-1.548-.704-1.548-1.575v-15.993c0-.874.674-1.576 1.548-1.576zM170.828 167.06c-1.794 0-3.257 1.487-3.257 3.284v15.993c0 1.795 1.46 3.284 3.257 3.284h16.02c1.795 0 3.257-1.487 3.257-3.284v-15.993c0-1.795-1.462-3.284-3.257-3.284h-16.02zm0 1.708h16.02c.874 0 1.548.704 1.548 1.576v15.993c0 .872-.676 1.575-1.548 1.575h-16.02c-.873 0-1.548-.704-1.548-1.575v-15.993c0-.874.675-1.576 1.548-1.576zM194.699 167.06c-1.795 0-3.257 1.487-3.257 3.284v15.993c0 1.796 1.461 3.284 3.257 3.284h16.02c1.796 0 3.257-1.487 3.257-3.284v-15.993c0-1.796-1.462-3.284-3.257-3.284h-16.02zm0 1.708h16.02c.874 0 1.549.704 1.549 1.576v15.993c0 .872-.676 1.575-1.549 1.575h-16.02c-.872 0-1.548-.704-1.548-1.575v-15.993c0-.874.675-1.576 1.548-1.576zM218.597 167.06c-1.794 0-3.284 1.487-3.284 3.284v15.993c0 1.796 1.488 3.284 3.284 3.284h15.993c1.795 0 3.257-1.487 3.257-3.284v-15.993c0-1.796-1.463-3.284-3.257-3.284h-15.993zm0 1.708h15.993c.872 0 1.548.704 1.548 1.576v15.993c0 .872-.678 1.575-1.548 1.575h-15.993a1.574 1.574 0 0 1-1.575-1.575v-15.993a1.571 1.571 0 0 1 1.575-1.576zM242.468 167.06c-1.794 0-3.284 1.487-3.284 3.284v15.993c0 1.796 1.489 3.284 3.284 3.284h15.993c1.795 0 3.284-1.487 3.284-3.284v-15.993c0-1.796-1.49-3.284-3.284-3.284h-15.993zm0 1.708h15.993c.871 0 1.576.704 1.576 1.576v15.993c0 .872-.705 1.575-1.576 1.575h-15.993a1.574 1.574 0 0 1-1.576-1.575v-15.993c0-.874.704-1.576 1.576-1.576zM266.331 167.06c-1.794 0-3.257 1.487-3.257 3.284v15.993c0 1.795 1.46 3.284 3.257 3.284h15.993c1.797 0 3.284-1.487 3.284-3.284v-15.993c0-1.796-1.488-3.284-3.284-3.284h-15.993zm0 1.708h15.993c.874 0 1.575.704 1.575 1.576v15.993c0 .872-.702 1.575-1.575 1.575h-15.993c-.873 0-1.548-.704-1.548-1.575v-15.993c-.001-.874.675-1.576 1.548-1.576zM290.202 167.06c-1.795 0-3.258 1.487-3.258 3.284v15.993c0 1.795 1.461 3.284 3.258 3.284h15.993c1.796 0 3.284-1.487 3.284-3.284v-15.993c0-1.795-1.488-3.284-3.284-3.284h-15.993zm0 1.708h15.993c.872 0 1.575.704 1.575 1.576v15.993c0 .872-.704 1.575-1.575 1.575h-15.993c-.873 0-1.549-.704-1.549-1.575v-15.993c0-.874.676-1.576 1.549-1.576zM454.755 132.723c-1.795 0-3.283 1.462-3.283 3.257v16.018c0 1.796 1.488 3.257 3.283 3.257h15.993c1.794 0 3.284-1.46 3.284-3.257V135.98c0-1.796-1.489-3.257-3.284-3.257h-15.993zm0 1.708h15.993c.871 0 1.575.677 1.575 1.549v16.018c0 .874-.704 1.549-1.575 1.549h-15.993c-.875 0-1.575-.675-1.575-1.549V135.98c0-.874.702-1.549 1.575-1.549zM478.618 132.723a3.261 3.261 0 0 0-3.258 3.257v16.018a3.261 3.261 0 0 0 3.258 3.257h15.992c1.796 0 3.284-1.461 3.284-3.257V135.98c0-1.795-1.486-3.257-3.284-3.257h-15.992zm0 1.708h15.992c.874 0 1.576.676 1.576 1.549v16.018c0 .874-.702 1.549-1.576 1.549h-15.992a1.527 1.527 0 0 1-1.549-1.549V135.98c0-.873.678-1.549 1.549-1.549zM502.489 132.723a3.263 3.263 0 0 0-3.258 3.257v16.018a3.263 3.263 0 0 0 3.258 3.257h16.02a3.262 3.262 0 0 0 3.258-3.257V135.98a3.262 3.262 0 0 0-3.258-3.257h-16.02zm0 1.708h16.02c.871 0 1.549.677 1.549 1.549v16.018c0 .874-.678 1.549-1.549 1.549h-16.02a1.527 1.527 0 0 1-1.549-1.549V135.98c0-.873.679-1.549 1.549-1.549zM314.073 167.06c-1.796 0-3.257 1.487-3.257 3.284v15.993c0 1.796 1.46 3.284 3.257 3.284h16.021c1.793 0 3.256-1.487 3.256-3.284v-15.993c0-1.796-1.463-3.284-3.256-3.284h-16.021zm0 1.708h16.021c.872 0 1.548.704 1.548 1.576v15.993c0 .871-.68 1.575-1.548 1.575h-16.021c-.872 0-1.549-.704-1.549-1.575v-15.993c0-.872.677-1.576 1.549-1.576zM337.944 167.06c-1.794 0-3.258 1.487-3.258 3.284v15.993c0 1.795 1.46 3.284 3.258 3.284h16.02c1.796 0 3.258-1.487 3.258-3.284v-15.993c0-1.795-1.462-3.284-3.258-3.284h-16.02zm0 1.708h16.02c.873 0 1.549.704 1.549 1.576v15.993c0 .872-.678 1.575-1.549 1.575h-16.02c-.873 0-1.548-.704-1.548-1.575v-15.993c0-.874.675-1.576 1.548-1.576zM361.841 167.06c-1.794 0-3.284 1.487-3.284 3.284v15.993c0 1.796 1.488 3.284 3.284 3.284h15.992c1.798 0 3.258-1.487 3.258-3.284v-15.993c0-1.795-1.462-3.284-3.258-3.284h-15.992zm0 1.708h15.992c.875 0 1.549.704 1.549 1.576v15.993c0 .872-.675 1.575-1.549 1.575h-15.992a1.574 1.574 0 0 1-1.576-1.575v-15.993c0-.872.703-1.576 1.576-1.576zM385.703 167.06c-1.794 0-3.284 1.487-3.284 3.284v15.993c0 1.795 1.489 3.284 3.284 3.284h15.993c1.797 0 3.284-1.487 3.284-3.284v-15.993c0-1.795-1.488-3.284-3.284-3.284h-15.993zm0 1.708h15.993c.874 0 1.575.704 1.575 1.576v15.993c0 .872-.703 1.575-1.575 1.575h-15.993a1.574 1.574 0 0 1-1.575-1.575v-15.993c0-.874.702-1.576 1.575-1.576zM409.576 167.06c-1.796 0-3.258 1.487-3.258 3.284v15.993c0 1.796 1.461 3.284 3.258 3.284h15.993c1.793 0 3.283-1.487 3.283-3.284v-15.993c0-1.796-1.49-3.284-3.283-3.284h-15.993zm0 1.708h15.993c.871 0 1.575.704 1.575 1.576v15.993c0 .871-.706 1.575-1.575 1.575h-15.993c-.873 0-1.549-.704-1.549-1.575v-15.993c0-.872.676-1.576 1.549-1.576zM87.556 214.854c-1.795 0-3.284 1.463-3.284 3.258v15.992c0 1.797 1.489 3.284 3.284 3.284h21.227c1.795 0 3.284-1.487 3.284-3.284V218.112c0-1.795-1.487-3.258-3.284-3.258H87.556zm0 1.709h21.227c.873 0 1.575.678 1.575 1.549v15.992c0 .874-.702 1.576-1.575 1.576H87.556a1.57 1.57 0 0 1-1.575-1.576v-15.992c-.001-.873.704-1.549 1.575-1.549zM116.659 214.854a3.26 3.26 0 0 0-3.257 3.258v15.992c0 1.796 1.46 3.284 3.257 3.284h15.993c1.795 0 3.285-1.487 3.285-3.284v-15.992c0-1.797-1.489-3.258-3.285-3.258h-15.993zm0 1.709h15.993c.874 0 1.576.676 1.576 1.549v15.992c0 .873-.702 1.576-1.576 1.576h-15.993c-.873 0-1.549-.704-1.549-1.576v-15.992c0-.875.676-1.549 1.549-1.549zM140.532 214.854a3.262 3.262 0 0 0-3.258 3.258v15.992c0 1.795 1.461 3.284 3.258 3.284h16.02c1.795 0 3.257-1.487 3.257-3.284v-15.992a3.262 3.262 0 0 0-3.257-3.258h-16.02zm0 1.709h16.02c.873 0 1.548.676 1.548 1.549v15.992c0 .873-.676 1.576-1.548 1.576h-16.02c-.873 0-1.549-.704-1.549-1.576v-15.992c0-.875.677-1.549 1.549-1.549zM164.395 214.854a3.261 3.261 0 0 0-3.257 3.258v15.992c0 1.796 1.461 3.284 3.257 3.284h16.02c1.796 0 3.258-1.487 3.258-3.284v-15.992a3.262 3.262 0 0 0-3.258-3.258h-16.02zm0 1.709h16.02c.874 0 1.549.676 1.549 1.549v15.992c0 .873-.675 1.576-1.549 1.576h-16.02c-.873 0-1.549-.704-1.549-1.576v-15.992c0-.875.675-1.549 1.549-1.549zM188.292 214.854c-1.794 0-3.284 1.461-3.284 3.258v15.992c0 1.795 1.488 3.284 3.284 3.284h15.993c1.795 0 3.257-1.487 3.257-3.284v-15.992a3.262 3.262 0 0 0-3.257-3.258h-15.993zm0 1.709h15.993c.873 0 1.548.676 1.548 1.549v15.992c0 .873-.676 1.576-1.548 1.576h-15.993a1.572 1.572 0 0 1-1.575-1.576v-15.992c-.001-.875.702-1.549 1.575-1.549zM212.163 214.854c-1.796 0-3.284 1.461-3.284 3.258v15.992c0 1.796 1.487 3.284 3.284 3.284h15.993c1.796 0 3.285-1.487 3.285-3.284v-15.992c0-1.797-1.488-3.258-3.285-3.258h-15.993zm0 1.709h15.993c.874 0 1.576.676 1.576 1.549v15.992c0 .873-.702 1.576-1.576 1.576h-15.993a1.572 1.572 0 0 1-1.575-1.576v-15.992c0-.875.702-1.549 1.575-1.549zM236.034 214.854c-1.794 0-3.284 1.461-3.284 3.258v15.992c0 1.797 1.489 3.284 3.284 3.284h15.993c1.796 0 3.284-1.487 3.284-3.284v-15.992c0-1.797-1.488-3.258-3.284-3.258h-15.993zm0 1.709h15.993c.874 0 1.575.676 1.575 1.549v15.992c0 .873-.702 1.576-1.575 1.576h-15.993a1.574 1.574 0 0 1-1.575-1.576v-15.992c0-.875.704-1.549 1.575-1.549zM259.897 214.854a3.262 3.262 0 0 0-3.257 3.258v15.992c0 1.796 1.462 3.284 3.257 3.284h15.993c1.794 0 3.284-1.487 3.284-3.284v-15.992c0-1.797-1.489-3.258-3.284-3.258h-15.993zm0 1.709h15.993c.871 0 1.576.676 1.576 1.549v15.992c0 .873-.705 1.576-1.576 1.576h-15.993c-.871 0-1.549-.704-1.549-1.576v-15.992c0-.875.677-1.549 1.549-1.549zM283.769 214.854a3.262 3.262 0 0 0-3.258 3.258v15.992c0 1.795 1.461 3.284 3.258 3.284h16.019c1.796 0 3.258-1.487 3.258-3.284v-15.992a3.262 3.262 0 0 0-3.258-3.258h-16.019zm0 1.709h16.019c.875 0 1.549.676 1.549 1.549v15.992c0 .873-.676 1.576-1.549 1.576h-16.019c-.873 0-1.549-.704-1.549-1.576v-15.992c0-.875.676-1.549 1.549-1.549zM307.64 214.854a3.26 3.26 0 0 0-3.257 3.258v15.992c0 1.795 1.461 3.284 3.257 3.284h16.02c1.795 0 3.256-1.487 3.256-3.284v-15.992a3.261 3.261 0 0 0-3.256-3.258h-16.02zm0 1.709h16.02c.874 0 1.548.676 1.548 1.549v15.992c0 .873-.676 1.576-1.548 1.576h-16.02c-.871 0-1.549-.704-1.549-1.576v-15.992c0-.875.678-1.549 1.549-1.549zM331.536 214.854c-1.795 0-3.283 1.461-3.283 3.258v15.992c0 1.796 1.488 3.284 3.283 3.284h15.994c1.795 0 3.257-1.487 3.257-3.284v-15.992a3.261 3.261 0 0 0-3.257-3.258h-15.994zm0 1.709h15.994c.872 0 1.548.676 1.548 1.549v15.992c0 .872-.678 1.576-1.548 1.576h-15.994a1.572 1.572 0 0 1-1.574-1.576v-15.992c0-.875.701-1.549 1.574-1.549zM355.407 214.854c-1.794 0-3.284 1.461-3.284 3.258v15.992c0 1.795 1.489 3.284 3.284 3.284H371.4c1.796 0 3.284-1.487 3.284-3.284v-15.992c0-1.795-1.488-3.258-3.284-3.258h-15.993zm0 1.709H371.4c.873 0 1.575.676 1.575 1.549v15.992c0 .873-.702 1.576-1.575 1.576h-15.993a1.572 1.572 0 0 1-1.574-1.576v-15.992c0-.875.702-1.549 1.574-1.549zM379.271 214.854a3.263 3.263 0 0 0-3.258 3.258v15.992c0 1.796 1.462 3.284 3.258 3.284h15.993c1.796 0 3.284-1.487 3.284-3.284v-15.992c0-1.795-1.488-3.258-3.284-3.258h-15.993zm0 1.709h15.993c.872 0 1.575.676 1.575 1.549v15.992c0 .873-.703 1.576-1.575 1.576h-15.993c-.873 0-1.549-.704-1.549-1.576v-15.992c0-.875.675-1.549 1.549-1.549zM403.141 214.854a3.263 3.263 0 0 0-3.257 3.258v15.992c0 1.795 1.462 3.284 3.257 3.284h16.021c1.796 0 3.258-1.487 3.258-3.284v-15.992a3.263 3.263 0 0 0-3.258-3.258h-16.021zm0 1.709h16.021c.872 0 1.548.676 1.548 1.549v15.992c0 .873-.676 1.576-1.548 1.576h-16.021c-.872 0-1.548-.704-1.548-1.576v-15.992c0-.875.676-1.549 1.548-1.549zM92.79 238.725c-1.796 0-3.284 1.487-3.284 3.284v15.992c0 1.796 1.488 3.285 3.284 3.285h27.26c1.795 0 3.284-1.488 3.284-3.285v-15.992c0-1.796-1.487-3.284-3.284-3.284H92.79zm0 1.708h27.26c.872 0 1.575.704 1.575 1.576v15.992c0 .874-.703 1.577-1.575 1.577H92.79a1.574 1.574 0 0 1-1.576-1.577v-15.992c0-.872.704-1.576 1.576-1.576zM127.925 238.725c-1.795 0-3.257 1.487-3.257 3.284v15.992c0 1.796 1.461 3.285 3.257 3.285h16.02c1.796 0 3.257-1.488 3.257-3.285v-15.992c0-1.796-1.46-3.284-3.257-3.284h-16.02zm0 1.708h16.02c.872 0 1.548.704 1.548 1.576v15.992c0 .874-.675 1.577-1.548 1.577h-16.02c-.873 0-1.548-.704-1.548-1.577v-15.992c0-.872.677-1.576 1.548-1.576zM151.793 238.725c-1.796 0-3.257 1.487-3.257 3.284v15.992c0 1.796 1.46 3.285 3.257 3.285h16.019c1.796 0 3.258-1.488 3.258-3.285v-15.992c0-1.796-1.461-3.284-3.258-3.284h-16.019zm0 1.708h16.019c.873 0 1.548.704 1.548 1.576v15.992c0 .874-.675 1.577-1.548 1.577h-16.019c-.873 0-1.549-.704-1.549-1.577v-15.992c0-.872.677-1.576 1.549-1.576zM175.69 238.725c-1.796 0-3.284 1.489-3.284 3.284v15.992c0 1.796 1.488 3.285 3.284 3.285h15.993c1.796 0 3.257-1.488 3.257-3.285v-15.992c0-1.796-1.46-3.284-3.257-3.284H175.69zm0 1.708h15.993c.873 0 1.549.704 1.549 1.576v15.992c0 .874-.675 1.577-1.549 1.577H175.69a1.572 1.572 0 0 1-1.575-1.577v-15.992c0-.873.701-1.576 1.575-1.576zM199.561 238.725c-1.796 0-3.284 1.489-3.284 3.284v15.992c0 1.796 1.487 3.285 3.284 3.285h15.993c1.796 0 3.284-1.488 3.284-3.285v-15.992c0-1.796-1.487-3.284-3.284-3.284h-15.993zm0 1.708h15.993c.873 0 1.575.704 1.575 1.576v15.992c0 .874-.702 1.577-1.575 1.577h-15.993a1.573 1.573 0 0 1-1.575-1.577v-15.992a1.571 1.571 0 0 1 1.575-1.576zM223.432 238.725c-1.796 0-3.284 1.489-3.284 3.284v15.992c0 1.796 1.488 3.285 3.284 3.285h15.993c1.796 0 3.284-1.488 3.284-3.285v-15.992c0-1.796-1.488-3.284-3.284-3.284h-15.993zm0 1.708h15.993c.873 0 1.575.704 1.575 1.576v15.992c0 .874-.702 1.577-1.575 1.577h-15.993a1.573 1.573 0 0 1-1.575-1.577v-15.992c0-.873.702-1.576 1.575-1.576zM247.294 238.725c-1.795 0-3.257 1.487-3.257 3.284v15.992c0 1.796 1.461 3.285 3.257 3.285h15.994c1.795 0 3.284-1.488 3.284-3.285v-15.992c0-1.795-1.488-3.284-3.284-3.284h-15.994zm0 1.708h15.994c.872 0 1.576.704 1.576 1.576v15.992c0 .874-.704 1.577-1.576 1.577h-15.994c-.873 0-1.548-.704-1.548-1.577v-15.992c0-.872.677-1.576 1.548-1.576zM271.166 238.725c-1.795 0-3.257 1.487-3.257 3.284v15.992c0 1.797 1.461 3.285 3.257 3.285h16.02c1.796 0 3.257-1.488 3.257-3.285v-15.992c0-1.795-1.46-3.284-3.257-3.284h-16.02zm0 1.708h16.02c.873 0 1.549.704 1.549 1.576v15.992c0 .874-.677 1.577-1.549 1.577h-16.02c-.871 0-1.548-.704-1.548-1.577v-15.992c0-.872.676-1.576 1.548-1.576zM295.063 238.725c-1.796 0-3.284 1.487-3.284 3.284v15.992c0 1.796 1.487 3.285 3.284 3.285h15.993c1.795 0 3.257-1.488 3.257-3.285v-15.992c0-1.795-1.46-3.284-3.257-3.284h-15.993zm0 1.708h15.993c.872 0 1.548.704 1.548 1.576v15.992c0 .874-.676 1.577-1.548 1.577h-15.993a1.573 1.573 0 0 1-1.575-1.577v-15.992c0-.872.703-1.576 1.575-1.576zM318.934 238.725c-1.795 0-3.283 1.487-3.283 3.284v15.992c0 1.797 1.488 3.285 3.283 3.285h15.993c1.796 0 3.258-1.488 3.258-3.285v-15.992c0-1.795-1.46-3.284-3.258-3.284h-15.993zm0 1.708h15.993c.873 0 1.55.704 1.55 1.576v15.992c0 .874-.677 1.577-1.55 1.577h-15.993a1.572 1.572 0 0 1-1.574-1.577v-15.992a1.572 1.572 0 0 1 1.574-1.576zM342.797 238.725c-1.795 0-3.283 1.487-3.283 3.284v15.992c0 1.796 1.488 3.285 3.283 3.285h15.993c1.796 0 3.284-1.488 3.284-3.285V242.008c0-1.795-1.487-3.284-3.284-3.284h-15.993zm0 1.708h15.993c.872 0 1.576.704 1.576 1.576v15.992c0 .874-.704 1.577-1.576 1.577h-15.993a1.573 1.573 0 0 1-1.575-1.577v-15.992c0-.872.704-1.576 1.575-1.576zM366.669 238.725c-1.796 0-3.258 1.487-3.258 3.284v15.992c0 1.797 1.462 3.285 3.258 3.285h15.992c1.795 0 3.284-1.488 3.284-3.285v-15.992c0-1.795-1.487-3.284-3.284-3.284h-15.992zm0 1.708h15.992c.873 0 1.575.704 1.575 1.576v15.992c0 .874-.702 1.577-1.575 1.577h-15.992c-.874 0-1.55-.704-1.55-1.577v-15.992c0-.872.678-1.576 1.55-1.576zM390.539 238.725c-1.795 0-3.257 1.487-3.257 3.284v15.992c0 1.796 1.462 3.285 3.257 3.285h28.89c1.795 0 3.283-1.488 3.283-3.285v-15.992c0-1.795-1.486-3.284-3.283-3.284h-28.89zm0 1.708h28.89c.872 0 1.574.704 1.574 1.576v15.992c0 .874-.702 1.577-1.574 1.577h-28.89c-.873 0-1.549-.704-1.549-1.577v-15.992c0-.872.678-1.576 1.549-1.576zM127.952 262.621c-1.795 0-3.284 1.462-3.284 3.258v16.02c0 1.796 1.488 3.258 3.284 3.258h15.993c1.796 0 3.284-1.462 3.284-3.258V265.88c0-1.796-1.487-3.258-3.284-3.258h-15.993zm0 1.71h15.993c.872 0 1.575.677 1.575 1.548v16.02c0 .873-.703 1.549-1.575 1.549h-15.993c-.872 0-1.575-.678-1.575-1.549v-16.02c0-.871.703-1.548 1.575-1.548zM151.818 262.621c-1.795 0-3.284 1.462-3.284 3.258v16.02c0 1.796 1.488 3.258 3.284 3.258h15.994c1.795 0 3.284-1.462 3.284-3.258v-16.02c0-1.796-1.489-3.258-3.284-3.258h-15.994zm0 1.71h15.994c.872 0 1.575.677 1.575 1.548v16.02c0 .873-.704 1.549-1.575 1.549h-15.994c-.872 0-1.575-.678-1.575-1.549v-16.02c0-.871.703-1.548 1.575-1.548zM175.69 262.621a3.261 3.261 0 0 0-3.257 3.258v16.02a3.261 3.261 0 0 0 3.257 3.258h186.279c1.796 0 3.284-1.462 3.284-3.258v-16.02c0-1.795-1.486-3.258-3.284-3.258H175.69zm0 1.71h186.279c.873 0 1.575.677 1.575 1.548v16.02c0 .873-.702 1.549-1.575 1.549H175.69a1.529 1.529 0 0 1-1.549-1.549v-16.02c0-.871.677-1.548 1.549-1.548zM80.588 190.956c-1.795 0-3.284 1.461-3.284 3.258v16.02c0 1.796 1.489 3.258 3.284 3.258h22.027c1.49 0 2.708-1.032 3.097-2.403h.187v-16.874c0-1.796-1.487-3.258-3.284-3.258H80.588v-.001zm0 1.709h22.027c.873 0 1.575.677 1.575 1.549v16.019c0 .873-.702 1.549-1.575 1.549H80.588c-.871 0-1.575-.678-1.575-1.549v-16.02c0-.872.704-1.548 1.575-1.548zM110.491 190.956c-1.795 0-3.284 1.461-3.284 3.258v16.02c0 1.796 1.488 3.258 3.284 3.258h15.993c1.796 0 3.284-1.462 3.284-3.258v-16.02c0-1.796-1.487-3.258-3.284-3.258h-15.993zm0 1.709h15.993c.873 0 1.575.677 1.575 1.549v16.02c0 .873-.702 1.549-1.575 1.549h-15.993c-.873 0-1.575-.677-1.575-1.549v-16.02c0-.873.703-1.549 1.575-1.549zM134.363 190.956a3.261 3.261 0 0 0-3.257 3.258v16.02a3.261 3.261 0 0 0 3.257 3.258h15.993c1.796 0 3.284-1.462 3.284-3.258v-16.02c0-1.796-1.487-3.258-3.284-3.258h-15.993zm0 1.709h15.993c.873 0 1.575.677 1.575 1.549v16.02c0 .873-.702 1.549-1.575 1.549h-15.993a1.527 1.527 0 0 1-1.548-1.549v-16.02c0-.873.676-1.549 1.548-1.549zM158.226 190.956a3.261 3.261 0 0 0-3.257 3.258v16.02a3.262 3.262 0 0 0 3.257 3.258h16.02a3.261 3.261 0 0 0 3.257-3.258v-16.02a3.261 3.261 0 0 0-3.257-3.258h-16.02zm0 1.709h16.02c.873 0 1.548.677 1.548 1.549v16.02c0 .873-.675 1.549-1.548 1.549h-16.02a1.526 1.526 0 0 1-1.548-1.549v-16.02c0-.874.675-1.549 1.548-1.549zM182.097 190.956a3.261 3.261 0 0 0-3.257 3.258v16.02a3.261 3.261 0 0 0 3.257 3.258h16.02a3.262 3.262 0 0 0 3.258-3.258v-16.02a3.262 3.262 0 0 0-3.258-3.258h-16.02zm0 1.709h16.02c.875 0 1.549.676 1.549 1.549v16.02c0 .873-.675 1.549-1.549 1.549h-16.02a1.527 1.527 0 0 1-1.548-1.549v-16.02c0-.873.676-1.549 1.548-1.549zM205.994 190.956c-1.796 0-3.284 1.462-3.284 3.258v16.02c0 1.795 1.487 3.258 3.284 3.258h15.993a3.261 3.261 0 0 0 3.257-3.258v-16.02a3.261 3.261 0 0 0-3.257-3.258h-15.993zm0 1.709h15.993c.873 0 1.548.677 1.548 1.549v16.02c0 .873-.675 1.549-1.548 1.549h-15.993c-.874 0-1.575-.676-1.575-1.549v-16.02c0-.874.701-1.549 1.575-1.549zM229.866 190.956c-1.795 0-3.284 1.461-3.284 3.258v16.02c0 1.796 1.488 3.258 3.284 3.258h15.993c1.796 0 3.285-1.462 3.285-3.258v-16.02c0-1.796-1.488-3.258-3.285-3.258h-15.993zm0 1.709h15.993c.873 0 1.576.676 1.576 1.549v16.02c0 .873-.704 1.549-1.576 1.549h-15.993c-.873 0-1.575-.677-1.575-1.549v-16.02c0-.873.703-1.549 1.575-1.549zM253.737 190.956a3.261 3.261 0 0 0-3.257 3.258v16.02a3.262 3.262 0 0 0 3.257 3.258h15.993c1.796 0 3.284-1.462 3.284-3.258v-16.02c0-1.796-1.487-3.258-3.284-3.258h-15.993zm0 1.709h15.993c.873 0 1.575.677 1.575 1.549v16.02c0 .873-.702 1.549-1.575 1.549h-15.993a1.528 1.528 0 0 1-1.548-1.549v-16.02a1.526 1.526 0 0 1 1.548-1.549zM277.6 190.956a3.262 3.262 0 0 0-3.258 3.258v16.02a3.262 3.262 0 0 0 3.258 3.258h15.993c1.796 0 3.284-1.462 3.284-3.258v-16.02c0-1.796-1.487-3.258-3.284-3.258H277.6zm0 1.709h15.993c.873 0 1.575.676 1.575 1.549v16.02c0 .873-.703 1.549-1.575 1.549H277.6a1.528 1.528 0 0 1-1.549-1.549v-16.02c0-.873.677-1.549 1.549-1.549zM301.472 190.956a3.262 3.262 0 0 0-3.258 3.258v16.02a3.262 3.262 0 0 0 3.258 3.258h16.02a3.262 3.262 0 0 0 3.257-3.258v-16.02a3.262 3.262 0 0 0-3.257-3.258h-16.02zm0 1.709h16.02c.873 0 1.548.676 1.548 1.549v16.02c0 .873-.677 1.549-1.548 1.549h-16.02a1.528 1.528 0 0 1-1.549-1.549v-16.02c0-.873.676-1.549 1.549-1.549zM325.343 190.956a3.262 3.262 0 0 0-3.258 3.258v16.02a3.262 3.262 0 0 0 3.258 3.258h16.019a3.263 3.263 0 0 0 3.259-3.258v-16.02a3.263 3.263 0 0 0-3.259-3.258h-16.019zm0 1.709h16.019c.873 0 1.55.676 1.55 1.549v16.02c0 .873-.677 1.549-1.55 1.549h-16.019c-.874 0-1.55-.677-1.55-1.549v-16.02c0-.873.676-1.549 1.55-1.549zM349.24 190.956c-1.796 0-3.284 1.461-3.284 3.258v16.02c0 1.796 1.486 3.258 3.284 3.258h15.993a3.264 3.264 0 0 0 3.258-3.258v-16.02a3.262 3.262 0 0 0-3.258-3.258H349.24zm0 1.709h15.993c.872 0 1.548.676 1.548 1.549v16.02c0 .873-.677 1.549-1.548 1.549H349.24c-.874 0-1.576-.678-1.576-1.549v-16.02c0-.873.703-1.549 1.576-1.549zM373.103 190.956c-1.795 0-3.283 1.461-3.283 3.258v16.02c0 1.796 1.486 3.258 3.283 3.258h15.993c1.794 0 3.284-1.461 3.284-3.258v-16.02c0-1.796-1.489-3.258-3.284-3.258h-15.993zm0 1.709h15.993c.873 0 1.575.677 1.575 1.549v16.02c0 .873-.704 1.549-1.575 1.549h-15.993c-.874 0-1.577-.677-1.577-1.549v-16.02c-.001-.873.704-1.549 1.577-1.549zM396.974 190.956a3.26 3.26 0 0 0-3.257 3.258v16.02a3.26 3.26 0 0 0 3.257 3.258h28.488a3.264 3.264 0 0 0 3.258-3.258v-16.02a3.262 3.262 0 0 0-3.258-3.258h-28.488zm0 1.709h28.488c.873 0 1.549.676 1.549 1.549v16.02c0 .873-.677 1.549-1.549 1.549h-28.488a1.528 1.528 0 0 1-1.548-1.549v-16.02c0-.873.676-1.549 1.548-1.549zM96.767 131.953a3.26 3.26 0 0 0-3.257 3.257v16.02a3.261 3.261 0 0 0 3.257 3.257h25.685a3.262 3.262 0 0 0 3.257-3.257v-16.02a3.261 3.261 0 0 0-3.257-3.257H96.767zm0 1.71h25.685c.871 0 1.548.675 1.548 1.548v16.02c0 .873-.677 1.549-1.548 1.549H96.767a1.526 1.526 0 0 1-1.548-1.549v-16.02c0-.874.676-1.548 1.548-1.548zM131.93 131.953c-1.796 0-3.284 1.461-3.284 3.257v16.02c0 1.794 1.488 3.257 3.284 3.257h25.658c1.795 0 3.284-1.461 3.284-3.257v-16.02c0-1.796-1.489-3.257-3.284-3.257H131.93zm0 1.71h25.658c.871 0 1.575.675 1.575 1.548v16.02c0 .873-.704 1.549-1.575 1.549H131.93c-.873 0-1.576-.676-1.576-1.549v-16.02c0-.874.704-1.548 1.576-1.548zM167.069 131.953a3.261 3.261 0 0 0-3.257 3.257v16.02a3.261 3.261 0 0 0 3.257 3.257h25.684a3.261 3.261 0 0 0 3.257-3.257v-16.02a3.261 3.261 0 0 0-3.257-3.257h-25.684zm0 1.71h25.684c.872 0 1.548.675 1.548 1.548v16.02c0 .873-.677 1.549-1.548 1.549h-25.684a1.527 1.527 0 0 1-1.549-1.549v-16.02a1.526 1.526 0 0 1 1.549-1.548zM202.227 131.953c-1.796 0-3.285 1.462-3.285 3.257v16.02c0 1.794 1.488 3.257 3.285 3.257h25.657c1.796 0 3.285-1.461 3.285-3.257v-16.02c0-1.796-1.489-3.257-3.285-3.257h-25.657zm0 1.71h25.657c.872 0 1.576.675 1.576 1.548v16.02c0 .873-.703 1.549-1.576 1.549h-25.657c-.874 0-1.576-.676-1.576-1.549v-16.02c0-.875.703-1.548 1.576-1.548zM237.367 131.953a3.261 3.261 0 0 0-3.257 3.257v16.02a3.262 3.262 0 0 0 3.257 3.257h25.685a3.261 3.261 0 0 0 3.257-3.257v-16.02a3.261 3.261 0 0 0-3.257-3.257h-25.685zm0 1.71h25.685c.873 0 1.548.674 1.548 1.548v16.02c0 .873-.676 1.549-1.548 1.549h-25.685a1.527 1.527 0 0 1-1.548-1.549v-16.02a1.525 1.525 0 0 1 1.548-1.548zM361.919 131.953c-1.795 0-3.283 1.461-3.283 3.257v16.02c0 1.796 1.488 3.257 3.283 3.257h25.657a3.26 3.26 0 0 0 3.257-3.257v-16.02a3.26 3.26 0 0 0-3.257-3.257h-25.657zm0 1.71h25.657c.874 0 1.548.674 1.548 1.548v16.02c0 .873-.674 1.549-1.548 1.549h-25.657c-.871 0-1.575-.676-1.575-1.549v-16.02c0-.873.704-1.548 1.575-1.548zM397.05 131.953a3.261 3.261 0 0 0-3.257 3.257v16.02a3.261 3.261 0 0 0 3.257 3.257h25.684a3.261 3.261 0 0 0 3.258-3.257v-16.02a3.261 3.261 0 0 0-3.258-3.257H397.05zm0 1.71h25.684c.873 0 1.549.674 1.549 1.548v16.02c0 .873-.676 1.549-1.549 1.549H397.05a1.527 1.527 0 0 1-1.548-1.549v-16.02c0-.873.678-1.548 1.548-1.548zM486.845 184.549a14.153 14.153 0 0 0-10.013 4.135l-24.675 24.675c-5.514 5.513-5.514 14.481 0 19.997l24.296 24.271c5.516 5.516 14.484 5.513 19.998 0l24.671-24.671c5.507-5.506 5.515-14.453.026-19.972l-.026-.026-24.297-24.269a14.067 14.067 0 0 0-9.986-4.139l.006-.001zm0 1.682c3.181 0 6.354 1.228 8.784 3.657l24.297 24.297a12.403 12.403 0 0 1 0 17.568l-24.671 24.669a12.4 12.4 0 0 1-17.567 0l-24.296-24.296a12.404 12.404 0 0 1 0-17.567l24.669-24.671a12.388 12.388 0 0 1 8.784-3.657z"/>
    <path fill="#F4F4F4" d="M486.657 185.882a12.08 12.08 0 0 0-8.569 3.551l-12.202 12.201-.16.16-.454.427.026.027-.16.133-12.201 12.201c-4.728 4.729-4.728 12.413 0 17.142l12.201 12.201.16.134-.026.026.454.427.16.16 12.202 12.201c4.727 4.729 12.413 4.729 17.141 0l12.199-12.201.16-.16.428-.427.16-.16 12.202-12.201c4.728-4.728 4.728-12.412 0-17.14l-12.202-12.202-.16-.16-.428-.427-.16-.161-12.199-12.199a12.088 12.088 0 0 0-8.571-3.551v-.002zm0 1.709a10.38 10.38 0 0 1 7.369 3.044l11.586 11.585-18.957 18.958L467.7 202.22l11.586-11.585a10.382 10.382 0 0 1 7.369-3.044h.002zm-20.931 16.607 18.957 18.956-18.957 18.957-11.588-11.587a10.416 10.416 0 0 1 0-14.738l11.586-11.594.002.006zm41.864 0 11.586 11.587a10.412 10.412 0 0 1 0 14.738l-11.584 11.593-18.96-18.959 18.96-18.957-.002-.002zm-20.933 20.906 18.957 18.983-11.588 11.586a10.408 10.408 0 0 1-14.738 0l-11.594-11.61 18.96-18.959h.003z"/>
    <path fill="#F4F4F4" d="M451.628 182.438c-3.129 0-5.687 2.558-5.687 5.687v70.061c0 3.129 2.558 5.687 5.687 5.687h70.059c3.132 0 5.687-2.558 5.687-5.687v-70.061c0-3.129-2.555-5.687-5.687-5.687h-70.059zm0 1.708h70.059a3.967 3.967 0 0 1 3.979 3.978v70.061a3.967 3.967 0 0 1-3.979 3.979h-70.059a3.97 3.97 0 0 1-3.979-3.979v-70.061a3.97 3.97 0 0 1 3.979-3.978zM77.25 137.584c-.908 0-1.655.75-1.655 1.656v6.968c0 .905.749 1.682 1.655 1.682h9.131c.907 0 1.655-.776 1.655-1.682v-6.968c0-.906-.748-1.656-1.655-1.656H77.25zm.053 1.709h9.024v6.889h-9.024v-6.889zM68.119 222.653c-.906 0-1.655.776-1.655 1.683v2.67c0 .905.75 1.655 1.655 1.655h7.796c.905 0 1.655-.747 1.655-1.655v-2.67c0-.907-.748-1.683-1.655-1.683h-7.796zM431.789 222.653c-.906 0-1.656.776-1.656 1.683v2.67c0 .905.751 1.655 1.656 1.655h7.769c.906 0 1.656-.747 1.656-1.655v-2.67c0-.906-.748-1.683-1.656-1.683h-7.769zM51.779 110.594v4.486h1.709v-4.486h-1.709zM543.927 110.329v4.699h1.709v-4.699h-1.709zM369.42 44.779c-.906 0-1.655.775-1.655 1.682v14.178c0 .906.749 1.655 1.655 1.655h.508c.905 0 1.654-.75 1.654-1.655V46.461c0-.905-.749-1.682-1.654-1.682h-.508zm.054 1.709h.4v14.098h-.4V46.488zM474.294 44.779c-.906 0-1.655.777-1.655 1.682v14.178c0 .905.749 1.655 1.655 1.655h.508c.906 0 1.655-.749 1.655-1.655V46.461c0-.906-.749-1.682-1.655-1.682h-.508zm.054 1.709h.4v14.098h-.4V46.488z"/>
</svg>
