<svg version="1.2" baseProfile="tiny" xmlns="http://www.w3.org/2000/svg" width="598.189" height="350.26" xml:space="preserve">
    <path fill="#F4F4F4" d="M434.132 41.827a31.078 31.078 0 0 0-11.996 3.153c-28.748 14.133-53.001 31.475-72.775 51.781-19.791 20.285-34.998 43.455-46.091 68.495-7.005 15.79.128 34.29 15.919 41.296 4.123 1.83 8.449 2.717 12.689 2.718 12 .001 23.431-6.944 28.607-18.61 8.402-18.895 19.287-35.399 33.684-50.192 14.408-14.772 32.453-27.921 55.601-39.323 15.499-7.627 21.88-26.385 14.252-41.886-5.72-11.626-17.713-18.126-29.89-17.432zm.103 1.614c11.537-.663 22.898 5.506 28.325 16.534 7.236 14.706 1.17 32.472-13.535 39.708-23.292 11.473-41.463 24.716-56.011 39.63-14.532 14.934-25.544 31.628-34.017 50.679-4.911 11.068-15.753 17.638-27.12 17.637a29.636 29.636 0 0 1-12.023-2.563c-14.979-6.648-21.718-24.164-15.072-39.144 11.021-24.875 26.109-47.87 45.757-68.008 19.634-20.16 43.715-37.387 72.314-51.448 3.676-1.809 7.536-2.804 11.382-3.025z"/>
    <path fill="#F4F4F4" d="M332.441 156.412c-11.892 0-21.559 9.641-21.559 21.533 0 11.892 9.667 21.559 21.559 21.559s21.532-9.667 21.532-21.559c.001-11.893-9.64-21.533-21.532-21.533zm0 1.64c11.005 0 19.892 8.886 19.892 19.892s-8.887 19.918-19.892 19.918-19.918-8.912-19.918-19.918 8.914-19.892 19.918-19.892zM360.178 112.475c-11.892 0-21.559 9.667-21.559 21.558 0 11.892 9.667 21.533 21.559 21.533s21.532-9.641 21.532-21.533c0-11.892-9.641-21.558-21.532-21.558zm0 1.64c11.005 0 19.892 8.912 19.892 19.917s-8.887 19.892-19.892 19.892-19.918-8.887-19.918-19.892 8.913-19.917 19.918-19.917zM395.322 75.946c-11.892 0-21.559 9.667-21.559 21.558 0 11.892 9.667 21.559 21.559 21.559s21.532-9.667 21.532-21.559c0-11.892-9.64-21.558-21.532-21.558zm0 1.64c11.005 0 19.892 8.912 19.892 19.917 0 11.006-8.887 19.918-19.892 19.918s-19.918-8.912-19.918-19.918c0-11.004 8.913-19.917 19.918-19.917zM437.311 50.696c-11.892 0-21.532 9.667-21.532 21.559 0 11.892 9.641 21.533 21.532 21.533 11.893 0 21.559-9.641 21.559-21.533-.001-11.893-9.667-21.559-21.559-21.559zm0 1.64c11.006 0 19.918 8.913 19.918 19.918s-8.912 19.892-19.918 19.892c-11.005 0-19.892-8.887-19.892-19.892s8.887-19.918 19.892-19.918zM188.71 64.564c-36.002 0-65.213 29.211-65.213 65.213s29.211 65.188 65.213 65.188c36.002 0 65.188-29.187 65.188-65.188s-29.186-65.213-65.188-65.213zm0 1.641c35.116 0 63.547 28.457 63.547 63.573s-28.432 63.548-63.547 63.548-63.573-28.432-63.573-63.548 28.458-63.573 63.573-63.573z"/>
    <path fill="#F4F4F4" d="M188.71 97.914c-17.579 0-31.863 14.285-31.863 31.863s14.285 31.838 31.863 31.838 31.837-14.259 31.837-31.838-14.258-31.863-31.837-31.863zm0 1.641c16.692 0 30.197 13.531 30.197 30.223s-13.505 30.197-30.197 30.197-30.223-13.505-30.223-30.197 13.532-30.223 30.223-30.223zM259.512 38.52c-4.084-.549-7.859 2.325-8.407 6.409-.549 4.084 2.35 7.859 6.434 8.408l18.738 2.538c4.084.549 7.859-2.351 8.408-6.434.549-4.084-2.35-7.859-6.434-8.408l-18.739-2.513zm-.205 1.64 18.739 2.512a5.817 5.817 0 0 1 4.998 6.563 5.82 5.82 0 0 1-6.563 4.999l-18.738-2.512a5.818 5.818 0 0 1-4.999-6.562 5.818 5.818 0 0 1 6.563-5zM340.645 38.52l-18.739 2.512c-4.083.549-6.957 4.324-6.408 8.408.548 4.083 4.325 6.983 8.408 6.434l18.738-2.538c4.084-.549 6.957-4.324 6.409-8.408-.549-4.084-4.325-6.957-8.408-6.408zm.23 1.64c3.204-.431 6.132 1.794 6.563 4.999s-1.794 6.132-4.999 6.562l-18.764 2.512a5.818 5.818 0 0 1-6.563-4.999c-.432-3.205 1.819-6.132 5.024-6.563l18.739-2.511z"/>
    <path fill="#F4F4F4" d="M57.873 12.809c-3.627 0-6.588 2.96-6.588 6.588v315.48c0 3.629 2.96 6.588 6.588 6.588h480.616c3.628 0 6.588-2.96 6.588-6.588V19.396c0-3.627-2.959-6.588-6.588-6.588H57.873zm0 1.64h480.616a4.935 4.935 0 0 1 4.947 4.947v315.48a4.934 4.934 0 0 1-4.947 4.947H57.873a4.935 4.935 0 0 1-4.947-4.947V19.396a4.936 4.936 0 0 1 4.947-4.947z"/>
    <path fill="#F4F4F4" d="m72.946 12.809-.103 1.641s43.037 2.578 89.925 5.152 97.59 5.152 113.175 5.152h44.476c16.201 0 66.928-2.578 113.662-5.152s89.438-5.152 89.438-5.152l-.103-1.641s-42.709 2.579-89.438 5.152c-46.729 2.574-97.533 5.152-113.56 5.152h-44.476c-15.404 0-66.215-2.578-113.098-5.152-46.882-2.574-89.898-5.152-89.898-5.152z"/>
</svg>
