<svg height="373.94" viewBox="0 0 591.875 336.546" width="657.639" xmlns="http://www.w3.org/2000/svg">
    <g fill="#f4f4f4" fill-opacity=".5" stroke-width=".9">
        <path d="M511.686 77.788q0 .216-.052.363-.077.22-.248.22-.114 0-.238-.052-.15-.063-.164-.155.05 0 .119.018.158.041.198.041.153 0 .23-.153.062-.122.062-.293 0-.12-.08-.344-.077-.225-.077-.313 0-.027.014-.043.017-.018.044-.018.07 0 .136.324.056.273.056.405zM512.38 77.971q0 .184-.107.288-.106.105-.293.105-.103 0-.159-.049-.056-.048-.056-.15 0-.141.186-.285.176-.137.326-.137.068 0 .09.084.012.049.012.144zm-.11.05q0-.02-.006-.04-.004-.022-.014-.05-.029.02-.095.098-.035.04-.06.058 0-.035.007-.056.015-.03.024-.052-.08 0-.166.066-.085.067-.085.144 0 .052.058.052.11 0 .212-.054.125-.064.125-.165zM513.12 78.045q0 .088-.066.198-.075.124-.156.124-.024 0-.04-.025-.014-.027-.014-.052 0-.032.068-.1.07-.071.07-.096 0-.016-.005-.033l-.007-.021q-.135.03-.275.155-.139.124-.21.14-.015-.04-.015-.081 0-.05.023-.106.016-.04.054-.096.063-.095.133-.216l.125-.217q.09-.155.131-.22.022-.032.038-.049.023-.021.056-.028.021.007.03.027.011.02.011.046 0 .062-.08.166-.143.187-.147.194-.08.123-.08.222l.003.018q.1-.049.117-.056.074-.03.126-.03.058 0 .085.039.027.038.027.097zM513.956 77.939q0 .122-.06.261-.064.153-.16.21-.02-.023-.034-.052-.012-.028-.012-.057 0-.03.09-.182.04-.067.036-.117l-.002-.023q-.067.02-.23.12l-.328.202q-.026 0-.047-.018-.02-.02-.02-.043 0-.038.12-.254l.13-.225q.029.038.038.084.009.045.009.108v.042q.166-.1.26-.15.102-.055.14-.055.025 0 .046.057.024.058.024.092zM515.52 78.288q0 .033-.029.05-.027.017-.06.017-.031 0-.078-.007-.106-.017-.137-.017-.054 0-.212.013-.09.007-.13.007-.11 0-.11-.11 0-.104.069-.298.037-.11.142-.36.093-.225.119-.317.009-.029.014-.038.014-.022.036-.022.034 0 .058.05.023.05.023.089 0 .063-.074.212l-.144.29q-.077.17-.077.258 0 .045.038.063.027.012.079.012.04 0 .137-.009.097-.01.13-.01.08 0 .132.023.074.032.074.104zM516.19 77.971q0 .184-.106.288-.107.105-.294.105-.102 0-.158-.049-.056-.048-.056-.15 0-.141.185-.285.177-.137.326-.137.069 0 .09.084.013.049.013.144zm-.11.05q0-.02-.005-.04-.004-.022-.014-.05-.03.02-.096.098-.034.04-.06.058 0-.035.008-.056l.023-.052q-.079 0-.165.066-.085.067-.085.144 0 .052.058.052.11 0 .212-.054.124-.064.124-.165zM516.948 77.934q0 .057-.031.122-.029.065-.074.108l-.002-.025q0-.022.005-.067.005-.045.005-.066 0-.031-.009-.045-.009-.017-.038-.017-.084 0-.21.132l-.272.286-.022-.002-.036-.009q.005-.065.045-.144.107-.214.11-.228l.022-.085q.007-.027.02-.056.014-.03.032-.054.02-.025.05-.038l.018.216.12-.097q.078-.063.136-.063.058 0 .094.038t.036.094zM517.831 77.725q0 .075-.201.2-.195.118-.283.118-.041 0-.056-.028-.012-.03-.012-.081v-.049q.12 0 .22-.036.098-.036.172-.119-.054-.02-.11-.02-.131 0-.279.101-.162.11-.162.234 0 .119.162.166.026.007.305.05.163.025.163.088 0 .027-.059.044-.06.018-.151.018-.23 0-.364-.07-.176-.094-.176-.301 0-.216.216-.344.183-.108.417-.108.07 0 .128.032.07.04.07.105zM518.548 77.403q0 .04-.096.165-.095.126-.095.193 0 .034.04.068.09.08.09.097 0 .024-.017.045-.014.022-.037.022-.02 0-.056-.022-.025-.014-.097-.07l-.042.08q-.05.095-.068.138l-.054.166q-.047.111-.117.111l-.002-.041q0-.128.083-.303.016-.032.09-.167-.143-.077-.314-.077 0-.067.027-.098.03-.032.096-.032.061 0 .153.022l.09.021q.034-.01.093-.117.146-.255.198-.293.015.023.024.047.01.023.01.045zM519.212 78.045q0 .088-.067.198-.075.124-.156.124-.024 0-.04-.025-.014-.027-.014-.052 0-.032.068-.1.07-.071.07-.096 0-.016-.005-.033l-.007-.021q-.135.03-.275.155-.139.124-.21.14-.015-.04-.015-.081 0-.05.023-.106.017-.04.054-.096.063-.095.134-.216l.124-.217q.09-.155.131-.22.022-.032.038-.049.023-.021.056-.028.021.007.03.027.011.02.011.046 0 .062-.079.166-.144.187-.148.194-.08.123-.08.222l.003.018q.1-.049.117-.056.074-.03.126-.03.058 0 .085.039.027.038.027.097zM520.69 77.458q0 .085-.09.227-.058.09-.19.26-.13.167-.163.219l.135.043q.131.04.131.144-.054.01-.106.016l-.02-.001v-.015q-.028-.007-.046-.007-.035 0-.108.01-.074.012-.112.012-.049 0-.08-.018-.03-.018-.03-.065 0-.038.139-.214.259-.33.26-.333.141-.191.141-.256 0-.025-.018-.038-.016-.012-.066-.012-.035 0-.143.066-.052.033-.084.033l-.03-.006q-.012-.007-.024-.027-.013-.021-.013-.034 0-.076.146-.139.124-.054.216-.054.077 0 .119.058.036.05.036.131zM521.772 77.782q0 .218-.236.386-.216.153-.445.153-.113 0-.18-.058-.066-.058-.066-.167 0-.245.214-.425.203-.171.455-.171.128 0 .193.075.065.076.065.207zm-.11.042q0-.083-.094-.124-.07-.031-.167-.031-.142 0-.297.139-.155.138-.155.279 0 .057.029.082.03.024.092.024.176 0 .367-.097.225-.116.225-.272zM522.596 77.458q0 .085-.09.227-.058.09-.189.26-.131.167-.164.219l.135.043q.132.04.132.144-.054.01-.107.016l-.02-.001v-.015q-.028-.007-.046-.007-.034 0-.108.01-.074.012-.112.012-.048 0-.079-.018-.03-.018-.03-.065 0-.038.138-.214.26-.33.261-.333.14-.191.14-.256 0-.025-.018-.038-.016-.012-.066-.012-.034 0-.142.066-.053.033-.085.033l-.03-.006q-.011-.007-.024-.027-.013-.021-.013-.034 0-.076.146-.139.124-.054.216-.054.078 0 .119.058.036.05.036.131zM523.424 77.458q0 .085-.09.227-.058.09-.189.26-.131.167-.164.219l.135.043q.132.04.132.144-.054.01-.107.016l-.02-.001v-.015q-.028-.007-.046-.007-.034 0-.108.01-.074.012-.112.012-.048 0-.079-.018-.03-.018-.03-.065 0-.038.138-.214.26-.33.261-.333.14-.191.14-.256 0-.025-.018-.038-.016-.012-.066-.012-.034 0-.142.066-.053.033-.085.033l-.03-.006q-.011-.007-.024-.027-.013-.021-.013-.034 0-.076.146-.139.124-.054.216-.054.078 0 .119.058.036.05.036.131z"/>
    </g>
    <g stroke-linecap="round">
        <g transform="translate(.438 .773)">
            <path d="M300.076 34.408H32.36a8.483 8.483 0 0 0-8.502 8.502l-2.081 86.848 2.081 153.253c.064 4.71 3.792 8.501 8.502 8.501h268.033m-.317-257.104H567.79a8.483 8.483 0 0 1 8.502 8.502l2.081 86.848-2.081 153.253c-.064 4.71-3.792 8.501-8.502 8.501H299.758m.318-257.104H32.36a8.483 8.483 0 0 0-8.502 8.502l-2.081 86.848 2.081 153.253c.064 4.71 3.792 8.501 8.502 8.501h268.033m-.317-257.104H567.79a8.483 8.483 0 0 1 8.502 8.502l2.081 86.848-2.081 153.253c-.064 4.71-3.792 8.501-8.502 8.501H299.758" fill="none" opacity=".98" stroke="#f4f4f4" stroke-width="1.8"/>
            <path d="M291.984 42.49H32.36c-.372-.054-.442.475-.418.397 0 .06 0 .122-.002.182l-2.078 81.913 2.08 144.656c.004.24.08.33.157.404.08.076.075.096.261.096h535.432a.326.326 0 0 0 .262-.096c.08-.075.155-.168.158-.404l2.08-144.656-2.078-81.913-.002-.182c0-.177-.041-.214-.117-.286a.396.396 0 0 0-.303-.111H308.168z" fill="none" opacity=".98" stroke="#f4f4f4" stroke-width=".9"/>
            <path d="M31.402 56.277a.45.45 0 0 0-.448.45.45.45 0 0 0 .448.452h537.242a.45.45 0 0 0 .451-.452.45.45 0 0 0-.451-.45zm0 3.6a.45.45 0 0 0-.448.452.45.45 0 0 0 .448.448H453.71a1.918 1.918 0 0 1 1.607-.865h85.602c.673 0 1.262.343 1.606.865h26.118a.45.45 0 0 0 .451-.448.45.45 0 0 0-.451-.452zm0 3.6a.45.45 0 0 0-.448.452.45.45 0 0 0 .448.448H453.39v-.9zm511.442 0v.9h25.8a.45.45 0 0 0 .451-.448.45.45 0 0 0-.451-.452zM31.402 67.079a.45.45 0 0 0-.448.448.45.45 0 0 0 .448.45H453.39v-.898zm511.442 0v.898h25.8a.45.45 0 0 0 .451-.45.45.45 0 0 0-.451-.448zm-511.442 3.6a.45.45 0 0 0-.448.448.45.45 0 0 0 .448.452H453.39v-.9zm511.442 0v.9h25.8a.45.45 0 0 0 .451-.452.45.45 0 0 0-.451-.448zM31.402 74.277a.45.45 0 0 0-.448.45.45.45 0 0 0 .448.452h423.434a1.908 1.908 0 0 1-1.181-.902zm511.18 0a1.91 1.91 0 0 1-1.183.902h27.245a.45.45 0 0 0 .451-.452.45.45 0 0 0-.451-.45zm-511.18 3.6a.45.45 0 0 0-.448.452.45.45 0 0 0 .448.448h537.242a.45.45 0 0 0 .451-.448.45.45 0 0 0-.451-.452z" fill="#f4f4f4" opacity=".98"/>
            <rect fill="none" height="15.335" opacity=".98" rx="1.926" stroke="#f4f4f4" stroke-width=".9" width="89.454" x="453.391" y="59.912"/>
        </g>
        <g fill="none" stroke="#f4f4f4" stroke-width="1.8">
            <rect height="16.38" opacity=".98" rx="1.746" width="16.38" x="136.18" y="230.768"/>
            <rect height="16.38" opacity=".98" rx="1.746" width="16.38" x="114.579" y="230.768"/>
            <rect height="16.38" opacity=".98" rx="1.746" ry="1.746" width="180.18" x="159.58" y="230.768"/>
            <rect height="16.38" opacity=".98" rx="1.746" width="16.38" x="416.979" y="230.768"/>
            <rect height="16.38" opacity=".98" rx="1.746" width="16.38" x="393.579" y="230.768"/>
            <rect height="16.38" opacity=".98" rx="1.746" width="16.38" x="370.179" y="230.768"/>
        </g>
        <g fill="none" stroke="#f4f4f4" stroke-width="1.8">
            <rect height="16.38" opacity=".98" rx="1.746" width="16.38" x="458.378" y="230.768"/>
            <rect height="16.38" opacity=".98" rx="1.746" width="16.38" x="481.778" y="230.768"/>
            <rect height="16.38" opacity=".98" rx="1.746" width="16.38" x="505.178" y="230.768"/>
            <rect height="16.38" opacity=".98" rx="1.746" width="16.38" x="528.578" y="230.768"/>
            <rect height="16.38" opacity=".98" rx="1.746" width="16.38" x="458.378" y="207.368"/>
            <rect height="16.38" opacity=".98" rx="1.746" width="16.38" x="481.778" y="207.368"/>
            <rect height="16.38" opacity=".98" rx="1.746" width="16.38" x="505.178" y="207.368"/>
            <rect height="16.38" opacity=".98" rx="1.746" width="16.38" x="528.578" y="207.368"/>
            <rect height="16.38" opacity=".98" rx="1.746" width="16.38" x="458.378" y="183.968"/>
            <rect height="16.38" opacity=".98" rx="1.746" width="16.38" x="481.778" y="183.968"/>
            <rect height="16.38" opacity=".98" rx="1.746" width="16.38" x="505.178" y="183.968"/>
            <rect height="16.38" opacity=".98" rx="1.746" width="16.38" x="528.578" y="183.968"/>
            <rect height="16.38" opacity=".98" rx="1.746" width="16.38" x="458.378" y="160.568"/>
            <rect height="16.38" opacity=".98" rx="1.746" width="16.38" x="481.778" y="160.568"/>
            <rect height="16.38" opacity=".98" rx="1.746" width="16.38" x="505.178" y="160.568"/>
            <rect height="16.38" opacity=".98" rx="1.746" width="16.38" x="528.578" y="160.568"/>
            <rect height="16.38" opacity=".98" rx="1.746" width="16.38" x="458.378" y="137.168"/>
            <rect height="16.38" opacity=".98" rx="1.746" width="16.38" x="481.778" y="137.168"/>
            <rect height="16.38" opacity=".98" rx="1.746" width="16.38" x="505.178" y="137.168"/>
            <rect height="16.38" opacity=".98" rx="1.746" width="16.38" x="528.578" y="137.168"/>
        </g>
        <g fill="none" stroke="#f4f4f4" stroke-width="1.8">
            <rect height="16.38" opacity=".98" rx="1.746" width="16.38" x="299.98" y="207.368"/>
            <rect height="16.38" opacity=".98" rx="1.746" width="16.38" x="276.58" y="207.368"/>
            <rect height="16.38" opacity=".98" rx="1.746" width="16.38" x="253.18" y="207.368"/>
            <rect height="16.38" opacity=".98" rx="1.746" width="16.38" x="229.78" y="207.368"/>
            <rect height="16.38" opacity=".98" rx="1.746" width="16.38" x="206.38" y="207.368"/>
            <rect height="16.38" opacity=".98" rx="1.746" width="16.38" x="182.98" y="207.368"/>
            <rect height="16.38" opacity=".98" rx="1.746" width="16.38" x="159.58" y="207.368"/>
            <rect height="16.38" opacity=".98" rx="1.746" width="16.38" x="136.18" y="207.368"/>
            <rect height="16.38" opacity=".98" rx="1.746" width="16.38" x="114.579" y="207.368"/>
            <rect height="16.38" opacity=".98" rx="1.746" width="51.19" x="56.369" y="207.368"/>
            <rect height="16.38" opacity=".98" rx="1.746" width="39.78" x="370.179" y="207.368"/>
            <rect height="16.38" opacity=".98" rx="1.746" width="16.38" x="346.779" y="207.368"/>
            <rect height="16.38" opacity=".98" rx="1.746" width="16.38" x="323.379" y="207.368"/>
            <rect height="16.38" opacity=".98" rx="1.746" width="16.38" x="416.979" y="207.368"/>
        </g>
        <g fill="none" stroke="#f4f4f4" stroke-width="1.8" transform="translate(1.45 .773)">
            <rect height="16.38" opacity=".98" rx="1.746" width="16.38" x="287.119" y="183.195"/>
            <rect height="16.38" opacity=".98" rx="1.746" width="16.38" x="263.719" y="183.195"/>
            <rect height="16.38" opacity=".98" rx="1.746" width="16.38" x="240.319" y="183.195"/>
            <rect height="16.38" opacity=".98" rx="1.746" width="16.38" x="216.919" y="183.195"/>
            <rect height="16.38" opacity=".98" rx="1.746" width="16.38" x="193.519" y="183.195"/>
            <rect height="16.38" opacity=".98" rx="1.746" width="16.38" x="170.119" y="183.195"/>
            <rect height="16.38" opacity=".98" rx="1.746" width="16.38" x="146.719" y="183.195"/>
            <rect height="16.38" opacity=".98" rx="1.746" width="16.38" x="123.319" y="183.195"/>
            <rect height="16.38" opacity=".98" rx="1.746" width="16.38" x="101.719" y="183.195"/>
            <rect height="16.38" opacity=".98" rx="1.746" width="16.38" x="78.319" y="183.195"/>
            <rect height="16.38" opacity=".98" rx="1.746" width="16.38" x="54.919" y="183.195"/>
            <rect height="16.38" opacity=".98" rx="1.746" width="16.38" x="357.318" y="183.195"/>
            <rect height="16.38" opacity=".98" rx="1.746" width="16.38" x="333.919" y="183.195"/>
            <rect height="16.38" opacity=".98" rx="1.746" width="16.38" x="310.519" y="183.195"/>
            <path d="M378.945 176.175h-4.584a1.742 1.742 0 0 1-1.746-1.746V161.54c0-.967.778-1.746 1.746-1.746h32.401c.968 0 1.747.779 1.747 1.746v36.288c0 .967-.78 1.746-1.747 1.746h-26.098a1.742 1.742 0 0 1-1.746-1.746l.027-21.654" opacity=".98"/>
        </g>
        <g fill="none" stroke="#f4f4f4" stroke-width="1.8">
            <rect height="16.38" opacity=".98" rx="1.746" width="16.38" x="282.266" y="160.568"/>
            <rect height="16.38" opacity=".98" rx="1.746" width="16.38" x="258.866" y="160.568"/>
            <rect height="16.38" opacity=".98" rx="1.746" width="16.38" x="235.466" y="160.568"/>
            <rect height="16.38" opacity=".98" rx="1.746" width="16.38" x="212.066" y="160.568"/>
            <rect height="16.38" opacity=".98" rx="1.746" width="16.38" x="188.666" y="160.568"/>
            <rect height="16.38" opacity=".98" rx="1.746" width="16.38" x="165.266" y="160.568"/>
            <rect height="16.38" opacity=".98" rx="1.746" width="16.38" x="141.866" y="160.568"/>
            <rect height="16.38" opacity=".98" rx="1.746" width="16.38" x="118.466" y="160.568"/>
            <rect height="16.38" opacity=".98" rx="1.746" width="16.38" x="96.866" y="160.568"/>
            <rect height="16.38" opacity=".98" rx="1.746" ry="1.746" width="33.476" x="56.369" y="160.568"/>
            <rect height="16.38" opacity=".98" rx="1.746" width="16.38" x="352.465" y="160.568"/>
            <rect height="16.38" opacity=".98" rx="1.746" width="16.38" x="329.065" y="160.568"/>
            <rect height="16.38" opacity=".98" rx="1.746" width="16.38" x="305.665" y="160.568"/>
        </g>
        <g fill="none" stroke="#f4f4f4" stroke-width="1.8">
            <rect height="16.38" opacity=".98" rx="1.746" width="16.38" x="270.649" y="137.168"/>
            <rect height="16.38" opacity=".98" rx="1.746" width="16.38" x="247.249" y="137.168"/>
            <rect height="16.38" opacity=".98" rx="1.746" width="16.38" x="223.849" y="137.168"/>
            <rect height="16.38" opacity=".98" rx="1.746" width="16.38" x="200.449" y="137.168"/>
            <rect height="16.38" opacity=".98" rx="1.746" width="16.38" x="177.049" y="137.168"/>
            <rect height="16.38" opacity=".98" rx="1.746" width="16.38" x="153.649" y="137.168"/>
            <rect height="16.38" opacity=".98" rx="1.746" width="16.38" x="130.249" y="137.168"/>
            <rect height="16.38" opacity=".98" rx="1.746" width="16.38" x="106.849" y="137.168"/>
            <rect height="16.38" opacity=".98" rx="1.746" width="16.38" x="85.249" y="137.168"/>
            <rect height="16.38" opacity=".98" rx="1.746" width="21.86" x="56.369" y="137.168"/>
            <rect height="16.38" opacity=".98" rx="1.746" width="16.38" x="340.848" y="137.168"/>
            <rect height="16.38" opacity=".98" rx="1.746" width="16.38" x="317.448" y="137.168"/>
            <rect height="16.38" opacity=".98" rx="1.746" width="16.38" x="294.049" y="137.168"/>
            <rect height="16.38" opacity=".98" rx="1.746" width="22.311" x="387.648" y="137.168"/>
            <rect height="16.38" opacity=".98" rx="1.746" width="16.38" x="364.248" y="137.168"/>
        </g>
        <g fill="none" stroke="#f4f4f4" stroke-width="1.8">
            <rect height="16.38" opacity=".98" rx="1.746" width="41.814" x="257.032" y="106.568"/>
            <rect height="16.38" opacity=".98" rx="1.746" width="41.814" x="208.432" y="106.568"/>
            <rect height="16.38" opacity=".98" rx="1.746" width="41.814" x="159.832" y="106.568"/>
            <rect height="16.38" opacity=".98" rx="1.746" width="16.38" x="370.179" y="106.568"/>
            <rect height="16.38" opacity=".98" rx="1.746" width="41.814" x="305.632" y="106.568"/>
            <rect height="16.38" opacity=".98" rx="1.746" width="16.38" x="393.579" y="106.568"/>
            <rect height="16.38" opacity=".98" rx="1.746" width="41.814" x="111.232" y="106.568"/>
            <rect height="16.38" opacity=".98" rx="1.746" width="16.38" x="77.969" y="106.568"/>
            <rect height="16.38" opacity=".98" rx="1.746" width="17.244" x="55.937" y="106.568"/>
        </g>
    </g>
</svg>
