<svg height="355.88" viewBox="0 0 365.823 142.352" width="914.558" xmlns="http://www.w3.org/2000/svg">
    <g fill="none" stroke="#f4f4f4" stroke-linecap="round" stroke-width=".8">
        <g transform="translate(-7.36 -47.091)">
            <rect height="140.352" opacity=".98" rx="3.782" ry="3.782" width="363.823" x="8.36" y="48.091"/>
            <path d="M252.963 57.2v16.164M19.103 57.55v15.814M47.5 57.186v16.178m318.81 0H13.547m2.367-16.04h347.941c1.492 0 2.693 1.2 2.693 2.693V175.47c0 1.492-1.201 2.692-2.693 2.692H15.916a2.687 2.687 0 0 1-2.693-2.692V60.017c0-1.492 1.2-2.693 2.692-2.693z" opacity=".98" stroke-width=".4"/>
        </g>
        <rect height="11.54" opacity=".98" rx="1.642" width="11.8" x="337.194" y="81.575"/>
        <rect height="11.54" opacity=".98" rx="1.642" width="11.8" x="322.194" y="81.575"/>
        <rect height="11.54" opacity=".98" rx="1.642" width="11.8" x="307.194" y="81.575"/>
        <rect height="11.54" opacity=".98" rx="1.642" width="11.8" x="292.194" y="81.575"/>
        <rect height="11.54" opacity=".98" rx="1.642" width="11.8" x="337.194" y="96.575"/>
        <rect height="11.54" opacity=".98" rx="1.642" width="11.8" x="322.194" y="96.575"/>
        <rect height="11.54" opacity=".98" rx="1.642" width="11.8" x="307.194" y="96.575"/>
        <rect height="11.54" opacity=".98" rx="1.642" width="11.8" x="292.194" y="96.575"/>
        <rect height="11.54" opacity=".98" rx="1.642" width="11.8" x="337.194" y="51.575"/>
        <rect height="11.54" opacity=".98" rx="1.642" width="11.8" x="322.194" y="51.575"/>
        <rect height="11.54" opacity=".98" rx="1.642" width="11.8" x="307.194" y="51.575"/>
        <rect height="11.54" opacity=".98" rx="1.642" width="11.8" x="292.194" y="51.575"/>
        <rect height="11.54" opacity=".98" rx="1.642" width="11.8" x="337.194" y="66.575"/>
        <rect height="11.54" opacity=".98" rx="1.642" width="11.8" x="322.194" y="66.575"/>
        <rect height="11.54" opacity=".98" rx="1.642" width="11.8" x="307.194" y="66.575"/>
        <rect height="11.54" opacity=".98" rx="1.642" width="11.8" x="292.194" y="66.575"/>
        <rect height="11.54" opacity=".98" rx="1.642" width="11.8" x="337.194" y="111.575"/>
        <rect height="11.54" opacity=".98" rx="1.642" width="11.8" x="322.194" y="111.575"/>
        <rect height="11.54" opacity=".98" rx="1.642" width="11.8" x="307.194" y="111.575"/>
        <rect height="11.54" opacity=".98" rx="1.642" width="11.8" x="292.194" y="111.575"/>
        <rect height="11.54" opacity=".98" rx="1.642" width="26.8" x="258.194" y="81.575"/>
        <rect height="11.54" opacity=".98" rx="1.642" width="11.8" x="273.194" y="96.575"/>
        <rect height="11.54" opacity=".98" rx="1.642" width="11.8" x="258.194" y="96.575"/>
        <rect height="11.54" opacity=".98" rx="1.642" width="26.8" x="258.194" y="111.575"/>
        <rect height="11.54" opacity=".98" rx="1.642" width="11.8" x="273.194" y="51.575"/>
        <rect height="11.54" opacity=".98" rx="1.642" width="11.8" x="258.194" y="51.575"/>
        <rect height="11.54" opacity=".98" rx="1.642" width="11.8" x="273.194" y="33.575"/>
        <rect height="11.54" opacity=".98" rx="1.642" width="11.8" x="258.194" y="33.575"/>
        <rect height="11.54" opacity=".98" rx="1.642" width="116.8" x="78.768" y="111.575"/>
        <rect height="11.54" opacity=".98" rx="1.642" width="11.8" x="63.768" y="111.575"/>
        <rect height="11.54" opacity=".98" rx="1.642" width="11.8" x="48.768" y="111.575"/>
        <rect height="11.54" opacity=".98" rx="1.642" width="18.8" x="198.768" y="111.575"/>
        <rect height="11.54" opacity=".98" rx="1.642" width="11.8" x="160.768" y="96.575"/>
        <rect height="11.54" opacity=".98" rx="1.642" width="11.8" x="145.768" y="96.575"/>
        <rect height="11.54" opacity=".98" rx="1.642" width="11.8" x="130.768" y="96.575"/>
        <rect height="11.54" opacity=".98" rx="1.642" width="11.8" x="115.768" y="96.575"/>
        <rect height="11.54" opacity=".98" rx="1.642" width="11.8" x="100.768" y="96.575"/>
        <rect height="11.54" opacity=".98" rx="1.642" width="11.8" x="85.768" y="96.575"/>
        <rect height="11.54" opacity=".98" rx="1.642" width="11.8" x="70.768" y="96.575"/>
        <rect height="11.54" opacity=".98" rx="1.642" width="11.8" x="55.768" y="96.575"/>
        <rect height="11.54" opacity=".98" rx="1.642" width="34.374" x="18.194" y="96.575"/>
        <rect height="11.54" opacity=".98" rx="1.642" width="22.226" x="220.768" y="96.575"/>
        <rect height="11.54" opacity=".98" rx="1.642" width="11.8" x="205.768" y="96.575"/>
        <rect height="11.54" opacity=".98" rx="1.642" width="11.8" x="190.768" y="96.575"/>
        <rect height="11.54" opacity=".98" rx="1.642" width="11.8" x="175.768" y="96.575"/>
        <g transform="translate(-7.36 -47.091)">
            <rect height="11.54" opacity=".98" rx="1.642" width="11.8" x="175.554" y="128.666"/>
            <rect height="11.54" opacity=".98" rx="1.642" width="11.8" x="160.554" y="128.666"/>
            <rect height="11.54" opacity=".98" rx="1.642" width="11.8" x="145.554" y="128.666"/>
            <rect height="11.54" opacity=".98" rx="1.642" width="11.8" x="130.554" y="128.666"/>
            <rect height="11.54" opacity=".98" rx="1.642" width="11.8" x="115.554" y="128.666"/>
            <rect height="11.54" opacity=".98" rx="1.642" width="11.8" x="100.554" y="128.666"/>
            <rect height="11.54" opacity=".98" rx="1.642" width="11.8" x="85.554" y="128.666"/>
            <rect height="11.54" opacity=".98" rx="1.642" width="11.8" x="70.554" y="128.666"/>
            <rect height="11.54" opacity=".98" rx="1.642" width="11.8" x="55.554" y="128.666"/>
            <rect height="11.54" opacity=".98" rx="1.642" width="11.8" x="40.554" y="128.666"/>
            <rect height="11.54" opacity=".98" rx="1.642" width="11.8" x="25.554" y="128.666"/>
            <rect height="11.54" opacity=".98" rx="1.642" width="11.8" x="220.554" y="128.666"/>
            <rect height="11.54" opacity=".98" rx="1.642" width="11.8" x="205.554" y="128.666"/>
            <rect height="11.54" opacity=".98" rx="1.642" width="11.8" x="190.554" y="128.666"/>
            <path d="M235.574 125.206h-2.358c-.91 0-1.662-.733-1.662-1.642v-8.256c0-.91.732-1.642 1.642-1.642h15.517c.91 0 1.641.732 1.641 1.642v23.256c0 .91-.732 1.642-1.641 1.642h-11.517c-.91 0-1.642-.733-1.642-1.642l.02-8.256z" opacity=".98"/>
        </g>
        <rect height="11.54" opacity=".98" rx="1.642" width="11.8" x="164.194" y="66.575"/>
        <rect height="11.54" opacity=".98" rx="1.642" width="11.8" x="149.194" y="66.575"/>
        <rect height="11.54" opacity=".98" rx="1.642" width="11.8" x="134.194" y="66.575"/>
        <rect height="11.54" opacity=".98" rx="1.642" width="11.8" x="119.194" y="66.575"/>
        <rect height="11.54" opacity=".98" rx="1.642" width="11.8" x="104.194" y="66.575"/>
        <rect height="11.54" opacity=".98" rx="1.642" width="11.8" x="89.194" y="66.575"/>
        <rect height="11.54" opacity=".98" rx="1.642" width="11.8" x="74.194" y="66.575"/>
        <rect height="11.54" opacity=".98" rx="1.642" width="11.8" x="59.194" y="66.575"/>
        <rect height="11.54" opacity=".98" rx="1.642" width="11.8" x="44.194" y="66.575"/>
        <rect height="11.54" opacity=".98" rx="1.642" width="22.8" x="18.194" y="66.575"/>
        <rect height="11.54" opacity=".98" rx="1.642" width="11.8" x="209.194" y="66.575"/>
        <rect height="11.54" opacity=".98" rx="1.642" width="11.8" x="194.194" y="66.575"/>
        <rect height="11.54" opacity=".98" rx="1.642" width="11.8" x="179.194" y="66.575"/>
        <rect height="11.54" opacity=".98" rx="1.642" width="11.8" x="171.194" y="51.575"/>
        <rect height="11.54" opacity=".98" rx="1.642" width="11.8" x="156.194" y="51.575"/>
        <rect height="11.54" opacity=".98" rx="1.642" width="11.8" x="141.194" y="51.575"/>
        <rect height="11.54" opacity=".98" rx="1.642" width="11.8" x="126.194" y="51.575"/>
        <rect height="11.54" opacity=".98" rx="1.642" width="11.8" x="111.194" y="51.575"/>
        <rect height="11.54" opacity=".98" rx="1.642" width="11.8" x="96.194" y="51.575"/>
        <rect height="11.54" opacity=".98" rx="1.642" width="11.8" x="81.194" y="51.575"/>
        <rect height="11.54" opacity=".98" rx="1.642" width="11.8" x="66.194" y="51.575"/>
        <rect height="11.54" opacity=".98" rx="1.642" width="11.8" x="51.194" y="51.575"/>
        <rect height="11.54" opacity=".98" rx="1.642" width="11.8" x="231.194" y="51.575"/>
        <rect height="11.54" opacity=".98" rx="1.642" width="11.8" x="216.194" y="51.575"/>
        <rect height="11.54" opacity=".98" rx="1.642" width="11.8" x="201.194" y="51.575"/>
        <rect height="11.54" opacity=".98" rx="1.642" width="11.8" x="186.194" y="51.575"/>
        <rect height="11.54" opacity=".98" rx="1.642" width="11.8" x="51.194" y="51.575"/>
        <rect height="11.54" opacity=".98" rx="1.642" width="11.8" x="36.194" y="51.575"/>
        <rect height="11.54" opacity=".98" rx="1.642" width="14.8" x="18.194" y="51.575"/>
        <rect height="11.54" opacity=".98" rx="1.642" width="11.8" x="37.194" y="33.575"/>
        <rect height="11.54" opacity=".98" rx="1.642" width="11.8" x="18.194" y="33.575"/>
        <rect height="11.54" opacity=".98" rx="1.642" width="15.5" x="229.461" y="33.575"/>
        <rect height="11.54" opacity=".98" rx="1.642" width="15.5" x="210.461" y="33.575"/>
        <rect height="11.54" opacity=".98" rx="1.642" width="15.5" x="191.461" y="33.575"/>
        <rect height="11.54" opacity=".98" rx="1.642" width="15.5" x="172.461" y="33.575"/>
        <rect height="11.54" opacity=".98" rx="1.642" width="15.5" x="153.461" y="33.575"/>
        <rect height="11.54" opacity=".98" rx="1.642" width="15.5" x="131.461" y="33.575"/>
        <rect height="11.54" opacity=".98" rx="1.642" width="15.5" x="112.461" y="33.575"/>
        <rect height="11.54" opacity=".98" rx="1.642" width="15.5" x="93.461" y="33.575"/>
        <rect height="11.54" opacity=".98" rx="1.642" width="15.5" x="74.461" y="33.575"/>
        <rect height="11.54" opacity=".98" rx="1.642" width="15.5" x="55.461" y="33.575"/>
    </g>
    <g fill="#f4f4f4" fill-opacity=".5" stroke-width=".4">
        <path d="M205.162 110.581q0 .128-.03.215-.047.13-.148.13-.067 0-.14-.03-.09-.038-.098-.092.03 0 .07.01.095.025.118.025.09 0 .137-.09.036-.073.036-.174 0-.072-.047-.204-.046-.133-.046-.186 0-.016.01-.025.01-.011.025-.011.041 0 .08.192.034.162.034.24zM205.573 110.69q0 .109-.063.17-.063.062-.174.062-.06 0-.094-.028-.033-.03-.033-.089 0-.084.11-.17.105-.08.193-.08.04 0 .053.05.007.028.007.085zm-.065.03q0-.013-.003-.025-.002-.013-.01-.029-.016.012-.056.058-.02.024-.035.034 0-.02.004-.033.01-.018.014-.03-.047 0-.098.039-.05.04-.05.085 0 .03.034.03.065 0 .126-.031.073-.039.073-.098zM206.012 110.734q0 .052-.04.117-.044.073-.092.073-.014 0-.023-.014-.01-.016-.01-.031 0-.02.041-.06.042-.042.042-.057 0-.01-.003-.019l-.004-.013q-.08.019-.163.092-.083.074-.125.083-.01-.023-.01-.048 0-.03.015-.063.01-.023.032-.056.037-.057.079-.128l.073-.13.078-.13.022-.028q.014-.013.034-.017.012.004.018.016.006.012.006.028 0 .036-.047.098-.086.11-.088.115-.048.072-.048.131l.002.01.07-.032q.043-.018.074-.018.034 0 .05.023.016.022.016.058zM206.507 110.67q0 .073-.035.155-.038.091-.095.125-.011-.014-.02-.03-.007-.018-.007-.035 0-.018.053-.108.024-.04.022-.069l-.001-.014q-.04.012-.137.072-.096.058-.194.12-.015 0-.028-.012-.012-.011-.012-.025 0-.023.072-.15.021-.039.077-.134.017.022.022.05.005.027.005.064v.025q.098-.059.154-.089.06-.033.083-.033.015 0 .028.034.014.034.014.055zM207.434 110.878q0 .019-.017.03-.016.01-.036.01-.018 0-.046-.005-.063-.01-.081-.01-.032 0-.126.007-.053.004-.077.004-.065 0-.065-.065 0-.062.04-.177.023-.065.085-.213.055-.133.07-.188.005-.017.01-.022.008-.013.02-.013.02 0 .035.03.014.029.014.052 0 .038-.044.126l-.085.172q-.046.1-.046.152 0 .027.022.038.016.007.047.007.024 0 .081-.005.058-.006.077-.006.048 0 .079.014.044.019.044.061zM207.831 110.69q0 .109-.063.17-.063.062-.174.062-.06 0-.094-.028-.033-.03-.033-.089 0-.084.11-.17.105-.08.193-.08.04 0 .054.05.007.028.007.085zm-.065.03q0-.013-.003-.025-.002-.013-.009-.029-.017.012-.057.058-.02.024-.035.034 0-.02.004-.033.01-.018.014-.03-.047 0-.098.039-.05.04-.05.085 0 .03.034.03.065 0 .126-.031.074-.039.074-.098zM208.28 110.667q0 .035-.018.073-.017.038-.044.064v-.015l.002-.04.003-.039q0-.018-.005-.027-.005-.01-.022-.01-.05 0-.125.078l-.16.17-.014-.001-.021-.005q.003-.039.027-.085.063-.127.065-.136l.013-.05q.004-.016.011-.033.01-.018.02-.032.011-.015.03-.023l.01.128.07-.057q.047-.037.082-.037.034 0 .055.022.021.022.021.055zM208.804 110.544q0 .044-.12.118-.115.07-.167.07-.025 0-.033-.017-.007-.017-.007-.048v-.028q.071 0 .13-.022.059-.021.102-.07-.032-.012-.065-.012-.078 0-.165.06-.096.065-.096.139 0 .07.096.098.015.004.18.03.097.014.097.052 0 .016-.035.025-.035.011-.09.011-.136 0-.215-.041-.104-.056-.104-.179 0-.128.128-.203.108-.064.247-.064.042 0 .076.019.041.023.041.062zM209.228 110.353q0 .023-.056.098-.057.075-.057.114 0 .02.024.04.053.047.053.058 0 .014-.01.027-.009.013-.022.013-.012 0-.033-.013l-.058-.042-.024.047q-.03.057-.04.082l-.033.098q-.028.066-.07.066v-.024q0-.076.049-.18l.053-.099q-.084-.045-.185-.045 0-.04.016-.058.017-.02.056-.02.036 0 .09.014l.054.012q.02-.006.056-.069.086-.151.117-.174.009.014.014.028.006.014.006.027zM209.622 110.734q0 .052-.04.117-.044.073-.092.073-.014 0-.024-.014-.009-.016-.009-.031 0-.02.04-.06.042-.042.042-.057 0-.01-.003-.019l-.004-.013q-.08.019-.163.092-.082.074-.125.083-.009-.023-.009-.048 0-.03.014-.063.01-.023.032-.056.038-.057.08-.128l.073-.13.078-.13q.012-.018.022-.028.014-.013.033-.017.013.004.018.016.006.012.006.028 0 .036-.047.098-.085.11-.087.115-.048.072-.048.131l.002.01.07-.032q.043-.018.074-.018.034 0 .05.023.016.022.016.058zM210.498 110.386q0 .05-.054.134-.034.054-.112.154-.077.099-.097.13l.08.026q.078.023.078.085l-.063.01-.011-.001v-.01q-.017-.003-.028-.003-.02 0-.064.006t-.066.006q-.029 0-.047-.01-.018-.012-.018-.04 0-.022.082-.126.154-.195.155-.198.083-.113.083-.151 0-.015-.01-.022-.01-.007-.04-.007-.02 0-.085.04-.03.018-.05.018l-.018-.003q-.006-.004-.014-.016-.007-.012-.007-.02 0-.045.087-.082.073-.032.128-.032.046 0 .07.034.021.03.021.078zM211.139 110.578q0 .129-.14.228-.128.09-.263.09-.068 0-.107-.033-.04-.034-.04-.1 0-.145.127-.251.12-.102.27-.102.076 0 .114.045.039.045.039.123zm-.065.024q0-.049-.056-.073-.041-.018-.099-.018-.084 0-.176.082-.092.082-.092.165 0 .034.017.05.019.013.055.013.104 0 .217-.058.134-.068.134-.16zM211.627 110.386q0 .05-.053.134-.034.054-.112.154-.078.099-.097.13l.08.026q.078.023.078.085l-.063.01-.012-.001v-.01q-.017-.003-.027-.003-.02 0-.064.006t-.067.006q-.028 0-.046-.01-.019-.012-.019-.04 0-.022.083-.126.153-.195.154-.198.083-.113.083-.151 0-.015-.01-.022-.01-.007-.04-.007-.02 0-.084.04-.031.018-.05.018l-.018-.003q-.006-.004-.014-.016-.007-.012-.007-.02 0-.045.086-.082.074-.032.128-.032.046 0 .07.034.022.03.022.078zM212.118 110.386q0 .05-.053.134-.034.054-.112.154-.078.099-.097.13l.08.026q.078.023.078.085l-.063.01-.012-.001v-.01q-.017-.003-.028-.003-.02 0-.064.006-.043.006-.066.006-.029 0-.047-.01-.018-.012-.018-.04 0-.022.082-.126.154-.195.155-.198.083-.113.083-.151 0-.015-.01-.022-.01-.007-.04-.007-.02 0-.084.04-.031.018-.05.018l-.019-.003q-.006-.004-.013-.016-.007-.012-.007-.02 0-.045.086-.082.074-.032.128-.032.046 0 .07.034.022.03.022.078z"/>
    </g>
</svg>
