<svg version="1.2" baseProfile="tiny" xmlns="http://www.w3.org/2000/svg" width="598.189" height="350.26" xml:space="preserve">
    <path fill="#F4F4F4" d="M234.975 7.421c-2.833 0-5.153 2.32-5.153 5.152v324.854c0 2.833 2.32 5.129 5.153 5.129H364.13c2.832 0 5.152-2.296 5.152-5.129V12.573c0-2.833-2.32-5.152-5.152-5.152H234.975zm0 1.534H364.13a3.611 3.611 0 0 1 3.618 3.619v324.854a3.591 3.591 0 0 1-3.618 3.596H234.975c-2.004 0-3.62-1.591-3.62-3.596V12.573a3.613 3.613 0 0 1 3.62-3.618z"/>
    <g fill="#F4F4F4">
        <path d="M299.563 84.906c-29.611 0-53.636 24.024-53.636 53.636 0 29.611 24.024 53.636 53.636 53.636 29.61 0 53.612-24.024 53.612-53.636 0-29.611-24.002-53.636-53.612-53.636zm0 1.534c28.782 0 52.077 23.319 52.077 52.102 0 28.782-23.295 52.102-52.077 52.102-28.782 0-52.103-23.319-52.103-52.102 0-28.782 23.32-52.102 52.103-52.102z"/>
        <path d="M299.563 109.876c-15.829 0-28.687 12.834-28.687 28.663s12.858 28.688 28.687 28.688 28.663-12.858 28.663-28.688-12.834-28.663-28.663-28.663zm0 1.534c15 0 27.129 12.129 27.129 27.129s-12.13 27.154-27.129 27.154c-15 0-27.153-12.154-27.153-27.154s12.153-27.129 27.153-27.129zM299.563 94.516c-1.584 0-2.9 1.292-2.9 2.876v7.597c0 1.583 1.316 2.876 2.9 2.876s2.875-1.293 2.875-2.876v-7.597a2.881 2.881 0 0 0-2.875-2.876zm0 1.533c.752 0 1.341.587 1.341 1.342v7.597c0 .755-.587 1.342-1.341 1.342s-1.366-.588-1.366-1.342v-7.597c0-.754.611-1.342 1.366-1.342z"/>
        <path d="M299.563 91.517c-25.966 0-47.045 21.055-47.045 47.021s21.079 47.045 47.045 47.045c25.965 0 47.02-21.08 47.02-47.045 0-25.968-21.051-47.02-47.02-47.021zm0 1.534c25.136 0 45.487 20.351 45.487 45.487s-20.351 45.511-45.487 45.511c-25.137 0-45.511-20.375-45.511-45.511.001-25.132 20.376-45.485 45.512-45.485l-.001-.002z"/>
        <path d="M270.444 106.563c-.74 0-1.477.279-2.037.839a2.89 2.89 0 0 0 0 4.074l5.368 5.368a2.89 2.89 0 0 0 4.074 0 2.89 2.89 0 0 0 0-4.074l-5.369-5.369a2.9 2.9 0 0 0-2.037-.836l.001-.002zm0 1.51c.343 0 .692.141.958.407l5.369 5.369a1.349 1.349 0 0 1 0 1.917 1.34 1.34 0 0 1-1.87.024l-.048-.024-5.369-5.368a1.348 1.348 0 0 1 0-1.917 1.37 1.37 0 0 1 .96-.408zM258.389 135.66a2.881 2.881 0 0 0-2.876 2.875c0 1.583 1.292 2.9 2.876 2.9h7.597c1.583 0 2.876-1.317 2.876-2.9a2.881 2.881 0 0 0-2.876-2.875h-7.597zm0 1.534h7.597c.754 0 1.342.588 1.342 1.342 0 .755-.588 1.366-1.342 1.366h-7.597c-.754 0-1.342-.612-1.342-1.366s.587-1.342 1.342-1.342zM275.813 159.412a2.865 2.865 0 0 0-2.037.838l-5.368 5.369a2.89 2.89 0 0 0 0 4.074 2.892 2.892 0 0 0 4.074 0l5.369-5.368a2.89 2.89 0 0 0 0-4.074 2.87 2.87 0 0 0-2.038-.839zm0 1.509c.344 0 .692.141.959.408.533.533.533 1.36 0 1.894l-5.369 5.368a1.349 1.349 0 0 1-1.917 0 1.32 1.32 0 0 1 0-1.893l5.369-5.369c.266-.268.614-.408.958-.408zM299.563 169.235c-1.583 0-2.9 1.293-2.9 2.876v7.597c0 1.584 1.317 2.876 2.9 2.876a2.881 2.881 0 0 0 2.875-2.876v-7.597a2.881 2.881 0 0 0-2.875-2.876zm0 1.534c.752 0 1.341.588 1.341 1.342v7.597c0 .754-.587 1.343-1.341 1.343a1.347 1.347 0 0 1-1.366-1.343v-7.597c0-.754.612-1.342 1.366-1.342zM323.291 159.412a2.863 2.863 0 0 0-2.037.838 2.89 2.89 0 0 0 0 4.074l5.368 5.368a2.892 2.892 0 0 0 4.074 0 2.892 2.892 0 0 0 0-4.074l-5.369-5.369a2.866 2.866 0 0 0-2.036-.837zm0 1.509c.343 0 .692.14.958.408l5.369 5.369a1.32 1.32 0 0 1 0 1.893 1.35 1.35 0 0 1-1.918 0l-5.368-5.368a1.322 1.322 0 0 1 0-1.894c.268-.268.615-.408.959-.408zM333.114 135.66a2.882 2.882 0 0 0-2.876 2.875c0 1.307.909 2.384 2.109 2.732v.167h8.365c1.583 0 2.875-1.317 2.875-2.9a2.881 2.881 0 0 0-2.875-2.875h-7.598v.001zm0 1.534h7.598c.754 0 1.342.588 1.342 1.342 0 .753-.587 1.366-1.342 1.366h-7.598a1.347 1.347 0 0 1-1.342-1.366c0-.755.586-1.342 1.342-1.342zM328.659 106.563c-.739 0-1.478.28-2.037.839l-5.368 5.369a2.89 2.89 0 0 0 0 4.074 2.889 2.889 0 0 0 4.073 0l5.369-5.368a2.893 2.893 0 0 0 0-4.074 2.87 2.87 0 0 0-2.037-.84zm0 1.51c.344 0 .691.141.959.407a1.35 1.35 0 0 1 0 1.917l-5.369 5.368a1.349 1.349 0 0 1-1.917 0 1.347 1.347 0 0 1 0-1.917l5.32-5.32.048-.048c.267-.266.615-.407.959-.407zM299.563 121.572c-9.361 0-16.968 7.607-16.968 16.968s7.607 16.968 16.968 16.968 16.967-7.606 16.967-16.968c0-9.361-7.606-16.968-16.967-16.968zm0 1.533c8.532 0 15.433 6.902 15.433 15.434s-6.901 15.434-15.433 15.434-15.434-6.902-15.434-15.434c0-8.531 6.901-15.434 15.434-15.434z"/>
        <path d="M299.563 115.291c-12.828 0-23.247 10.42-23.247 23.247s10.42 23.246 23.247 23.246 23.222-10.419 23.222-23.246c0-12.823-10.392-23.245-23.222-23.245v-.002zm0 1.534c11.999 0 21.689 9.715 21.689 21.713 0 11.998-9.69 21.712-21.689 21.712s-21.713-9.715-21.713-21.712c0-11.995 9.715-21.711 21.713-21.711v-.002z"/>
    </g>
    <path fill="#F4F4F4" d="M236.054 13.795V52.404h126.472V13.796H236.054zm1.533 1.534h123.404v35.542H237.587V15.329z"/>
    <path fill="#F4F4F4" d="M232.027 5.623c-3.558 0-6.471 2.89-6.471 6.447v81.745c0 3.025 2.092 5.561 4.913 6.255l.359-1.488a4.903 4.903 0 0 1-3.739-4.771V12.067a4.914 4.914 0 0 1 4.937-4.914h5.824c1.397 0 2.651.581 3.547 1.51l1.103-1.079a6.441 6.441 0 0 0-4.65-1.965h-5.823v.004zM361.321 5.623a6.439 6.439 0 0 0-4.649 1.965l1.103 1.078a4.9 4.9 0 0 1 3.543-1.51h5.848a4.893 4.893 0 0 1 4.914 4.913v81.745c0 2.32-1.592 4.24-3.739 4.769l.384 1.486a6.43 6.43 0 0 0 4.889-6.255V12.07c-.015-3.561-2.898-6.45-6.457-6.45h-5.848l.012.003z"/>
</svg>
