<svg height="351.757" shape-rendering="crispEdges" viewBox="0 0 466.628 140.703" width="1166.57" xmlns="http://www.w3.org/2000/svg">
    <g fill="#f4f4f4" fill-opacity=".5" stroke-width=".4">
        <path d="M350.815 129.628q0 .128-.031.215-.046.13-.147.13-.068 0-.141-.03-.089-.038-.097-.092.03 0 .07.01.094.025.117.025.091 0 .137-.09.036-.073.036-.175 0-.071-.047-.203-.046-.134-.046-.186 0-.016.01-.026.01-.01.025-.01.042 0 .081.192.033.162.033.24zM351.225 129.737q0 .108-.063.17-.062.062-.173.062-.061 0-.094-.029-.033-.028-.033-.088 0-.084.11-.17.104-.08.192-.08.041 0 .054.05.007.028.007.085zm-.065.03q0-.013-.003-.025-.002-.013-.009-.029-.017.012-.056.058-.02.023-.035.034 0-.02.004-.033.009-.018.013-.031-.046 0-.098.04-.05.039-.05.085 0 .03.034.03.065 0 .126-.031.074-.039.074-.098zM351.665 129.78q0 .053-.04.118-.045.073-.093.073-.013 0-.023-.015-.009-.016-.009-.03 0-.02.04-.06.042-.042.042-.057 0-.01-.003-.019l-.004-.013q-.08.018-.163.092-.082.074-.125.083-.009-.023-.009-.048 0-.03.014-.063.01-.023.032-.056.037-.057.079-.128l.073-.13.078-.13q.013-.019.023-.028.014-.013.033-.017.013.004.018.016.006.011.006.027 0 .037-.047.098-.085.111-.087.116-.048.072-.048.13l.002.012q.058-.03.069-.034.044-.018.075-.018.034 0 .05.024.016.022.016.057zM352.16 129.717q0 .073-.036.155-.038.09-.094.125-.012-.014-.02-.031t-.008-.034q0-.018.054-.108.023-.04.02-.07v-.013q-.04.012-.137.071l-.194.12q-.015 0-.027-.01-.012-.012-.012-.026 0-.023.071-.15l.077-.134q.017.022.023.05.005.027.005.064v.024q.098-.058.153-.088.06-.033.083-.033.015 0 .028.034.014.034.014.054zM353.087 129.924q0 .02-.017.03-.016.01-.037.01-.018 0-.046-.004-.063-.01-.08-.01-.033 0-.127.007-.053.004-.076.004-.066 0-.066-.065 0-.062.041-.177.022-.065.084-.213.056-.134.07-.188.006-.017.01-.022.009-.013.021-.013.02 0 .034.03.014.028.014.052 0 .037-.044.126l-.085.172q-.046.1-.046.152 0 .027.022.037.016.007.047.007.024 0 .081-.005.058-.006.077-.006.048 0 .08.014.043.02.043.062zM353.483 129.737q0 .108-.062.17-.063.062-.174.062-.061 0-.094-.029-.033-.028-.033-.088 0-.084.11-.17.104-.08.193-.08.04 0 .053.05.007.028.007.085zm-.065.03q0-.013-.003-.025-.002-.013-.009-.029-.017.012-.056.058-.02.023-.035.034 0-.02.004-.033l.014-.031q-.047 0-.099.04-.05.039-.05.085 0 .03.034.03.066 0 .126-.031.074-.039.074-.098zM353.933 129.714q0 .034-.019.073-.017.038-.043.064l-.001-.015.003-.04q.003-.026.003-.04 0-.017-.005-.026-.005-.01-.023-.01-.05 0-.124.078l-.162.17-.012-.001-.022-.005q.003-.039.027-.086.063-.127.065-.135.01-.034.013-.05.004-.016.012-.033.009-.018.019-.032.012-.015.03-.023l.01.128.07-.057q.048-.038.082-.038t.055.023q.022.022.022.055zM354.456 129.59q0 .045-.12.119-.114.07-.167.07-.024 0-.033-.017-.007-.017-.007-.048v-.029q.072 0 .13-.02.059-.022.103-.071-.032-.012-.065-.012-.078 0-.166.06-.096.065-.096.138 0 .07.096.098.015.004.18.03.098.015.098.053 0 .016-.036.025-.035.01-.09.01-.136 0-.215-.04-.104-.056-.104-.179 0-.128.128-.204.109-.064.247-.064.042 0 .076.02.042.023.042.062zM354.88 129.4q0 .023-.056.098-.056.074-.056.114 0 .02.023.04.054.047.054.058 0 .014-.01.027-.01.012-.023.012-.012 0-.033-.012l-.058-.042-.024.047q-.03.056-.04.082l-.033.098q-.027.066-.069.066v-.024q0-.076.048-.18l.054-.099q-.085-.046-.186-.046 0-.04.016-.057.017-.02.056-.02.037 0 .091.013l.053.013q.02-.006.056-.07.086-.15.117-.173.01.014.014.028.006.014.006.026zM355.274 129.78q0 .053-.04.118-.044.073-.092.073-.014 0-.023-.015-.01-.016-.01-.03 0-.02.041-.06.042-.042.042-.057 0-.01-.003-.019l-.004-.013q-.08.018-.164.092-.082.074-.124.083-.01-.023-.01-.048 0-.03.015-.063.01-.023.032-.056.037-.057.078-.128l.074-.13q.053-.091.078-.13.013-.019.022-.028.014-.013.033-.017.013.004.019.016.006.011.006.027 0 .037-.047.098-.086.111-.088.116-.048.072-.048.13l.002.012q.059-.03.07-.034.043-.018.074-.018.034 0 .05.024.016.022.016.057zM356.15 129.433q0 .05-.053.134-.034.053-.112.154-.078.099-.097.13l.08.025q.078.024.078.086l-.063.01-.012-.001v-.01q-.017-.003-.028-.003-.02 0-.064.006-.043.006-.066.006-.029 0-.047-.011-.018-.01-.018-.038 0-.023.082-.127l.155-.198q.083-.113.083-.151 0-.015-.01-.023-.01-.007-.04-.007-.02 0-.084.04-.031.02-.05.02l-.019-.004q-.006-.004-.013-.016-.007-.013-.007-.02 0-.045.086-.082.074-.032.128-.032.046 0 .07.034.022.03.022.078zM356.791 129.625q0 .129-.14.228-.128.09-.263.09-.067 0-.107-.034-.04-.034-.04-.099 0-.145.128-.251.12-.102.27-.102.075 0 .114.045.038.045.038.123zm-.065.024q0-.049-.055-.074-.042-.018-.1-.018-.084 0-.176.082-.091.083-.091.166 0 .034.017.049.018.014.054.014.105 0 .218-.058.133-.068.133-.16zM357.43 129.625q0 .129-.14.228-.128.09-.263.09-.067 0-.107-.034-.04-.034-.04-.099 0-.145.128-.251.12-.102.27-.102.075 0 .114.045.038.045.038.123zm-.065.024q0-.049-.055-.074-.042-.018-.1-.018-.084 0-.176.082-.091.083-.091.166 0 .034.017.049.018.014.054.014.105 0 .218-.058.133-.068.133-.16zM357.919 129.433q0 .05-.054.134-.034.053-.112.154-.078.099-.097.13l.08.025q.078.024.078.086l-.063.01-.011-.001v-.01q-.018-.003-.028-.003-.02 0-.064.006t-.066.006q-.03 0-.047-.011-.018-.01-.018-.038 0-.023.082-.127l.155-.198q.083-.113.083-.151 0-.015-.011-.023-.01-.007-.04-.007-.02 0-.084.04-.03.02-.05.02l-.018-.004q-.006-.004-.014-.016-.007-.013-.007-.02 0-.045.087-.082.073-.032.128-.032.045 0 .07.034.021.03.021.078z"/>
    </g>
    <g fill="none" stroke="#f4f4f4" stroke-width=".8">
        <g transform="translate(-29.893 -154.8)">
            <rect height="137.498" ry="3.916" width="463.422" x="31.496" y="156.402"/>
            <rect height="121.631" ry="3.936" width="250.842" x="140.471" y="163.83"/>
            <g stroke-width=".4">
                <path d="M140.73 205.111h251.237M140.794 223.245h251.237M140.794 242.445h251.237M140.252 262.038h251.236"/>
            </g>
            <path d="m132.39 157.798-.008 134.75M398.16 156.961l-.008 137.17"/>
        </g>
        <path d="M14.27 24.262h76.291c.924 0 1.668.744 1.668 1.668v103.658c0 .923-.744 1.667-1.668 1.667h-76.29a1.664 1.664 0 0 1-1.668-1.667V25.93c0-.924.744-1.668 1.668-1.668z"/>
        <path d="M78.24 102.815a8.396 8.396 0 0 1-8.397 8.396 8.396 8.396 0 0 1-8.396-8.396 8.396 8.396 0 0 1 8.396-8.397 8.396 8.396 0 0 1 8.396 8.397zM32.314 45.02h25.65a5.913 5.913 0 0 1 5.925 5.926V75.09a5.913 5.913 0 0 1-5.926 5.926h-25.65a5.913 5.913 0 0 1-5.925-5.926V50.946a5.913 5.913 0 0 1 5.926-5.926z"/>
        <path d="M46.575 62.964a1.486 1.486 0 0 1-1.487 1.486 1.486 1.486 0 0 1-1.486-1.486 1.486 1.486 0 0 1 1.486-1.487 1.486 1.486 0 0 1 1.487 1.487zM46.626 51.314A1.486 1.486 0 0 1 45.14 52.8a1.486 1.486 0 0 1-1.487-1.486 1.486 1.486 0 0 1 1.487-1.486 1.486 1.486 0 0 1 1.486 1.486zM59.024 62.883a1.486 1.486 0 0 1-1.486 1.486 1.486 1.486 0 0 1-1.486-1.486 1.486 1.486 0 0 1 1.486-1.486 1.486 1.486 0 0 1 1.486 1.486zM34.171 62.943a1.486 1.486 0 0 1-1.486 1.486 1.486 1.486 0 0 1-1.486-1.486 1.486 1.486 0 0 1 1.486-1.487 1.486 1.486 0 0 1 1.486 1.487zM46.618 74.743a1.486 1.486 0 0 1-1.486 1.487 1.486 1.486 0 0 1-1.486-1.487 1.486 1.486 0 0 1 1.486-1.486 1.486 1.486 0 0 1 1.486 1.486zM378.27 24.262h76.291c.924 0 1.668.744 1.668 1.668v103.658c0 .923-.744 1.667-1.668 1.667h-76.29a1.664 1.664 0 0 1-1.668-1.667V25.93c0-.924.744-1.668 1.668-1.668z"/>
        <path d="M409.378 51.662a8.396 8.396 0 0 1-8.396 8.396 8.396 8.396 0 0 1-8.397-8.396 8.396 8.396 0 0 1 8.397-8.396 8.396 8.396 0 0 1 8.396 8.396zM410.576 73.4h25.65a5.913 5.913 0 0 1 5.925 5.926v24.145a5.913 5.913 0 0 1-5.926 5.926h-25.65a5.913 5.913 0 0 1-5.925-5.926V79.326a5.913 5.913 0 0 1 5.926-5.926z"/>
        <path d="M424.837 91.344a1.486 1.486 0 0 1-1.487 1.486 1.486 1.486 0 0 1-1.486-1.486 1.486 1.486 0 0 1 1.486-1.487 1.486 1.486 0 0 1 1.487 1.487zM424.888 79.694a1.486 1.486 0 0 1-1.487 1.486 1.486 1.486 0 0 1-1.486-1.486 1.486 1.486 0 0 1 1.486-1.486 1.486 1.486 0 0 1 1.487 1.486zM437.286 91.263a1.486 1.486 0 0 1-1.486 1.486 1.486 1.486 0 0 1-1.486-1.486 1.486 1.486 0 0 1 1.486-1.486 1.486 1.486 0 0 1 1.486 1.486zM412.433 91.323a1.486 1.486 0 0 1-1.486 1.486 1.486 1.486 0 0 1-1.486-1.486 1.486 1.486 0 0 1 1.486-1.487 1.486 1.486 0 0 1 1.486 1.487zM424.88 103.123a1.486 1.486 0 0 1-1.486 1.487 1.486 1.486 0 0 1-1.486-1.487 1.486 1.486 0 0 1 1.486-1.486 1.486 1.486 0 0 1 1.486 1.486z"/>
    </g>
    <g fill="#f4f4f4" stroke-width="0">
        <path d="M156.46 77.886h-3.216l1.548-5.172h.12zm.828 2.676h.876l-2.724-8.688h-1.176l-2.724 8.688h.876l.564-1.836h3.744zM173.47 76.346h2.4c1.295 0 1.463.384 1.463 1.62s-.168 1.62-1.464 1.62h-2.4zm0-3.768h2.603c1.068 0 1.092.588 1.092 1.464 0 .888-.18 1.464-1.14 1.464h-2.556zm-.84 7.848h3.42c1.655 0 2.123-.72 2.123-2.28 0-1.416-.12-2.064-1.068-2.292v-.024c.804-.336.9-.936.9-2.028 0-1.404-.336-2.064-1.956-2.064h-3.42zM198.945 77.49h-.768v.576c0 1.188-.168 1.572-1.92 1.572-1.98 0-2.232-.264-2.232-2.184v-2.832c0-1.92.252-2.184 2.232-2.184 1.476 0 1.92.132 1.92 1.488v.564h.768v-.624c0-2.016-.768-2.268-2.688-2.268-2.292 0-3.072.432-3.072 2.976v2.928c0 2.544.78 2.976 3.072 2.976 2.1 0 2.688-.444 2.688-2.328zM213.345 80.492h3.204c2.64 0 2.784-1.512 2.784-4.692 0-2.532-.12-3.996-2.664-3.996h-3.324zm.84-7.848h2.628c1.416 0 1.68.648 1.68 3.504 0 2.76-.288 3.504-1.68 3.504h-2.628zM234.767 80.366h4.632v-.84h-3.792v-3.24h3.624v-.84h-3.624v-2.928h3.816v-.84h-4.656zM254.86 80.366h.84v-3.96h3.516v-.84H255.7v-3.048h3.66v-.84h-4.5zM277.573 76.875h2.256v.864c0 1.812-.384 1.824-2.052 1.824-1.968 0-2.22-.264-2.22-2.184v-2.832c0-1.92.252-2.184 2.22-2.184 1.764 0 2.052.18 2.052 1.512v.312h.84v-.876c0-1.644-1.188-1.788-2.892-1.788-2.28 0-3.06.432-3.06 2.976v2.928c0 2.544.78 2.976 3.06 2.976 1.872 0 2.892-.096 2.892-2.424v-1.944h-3.096zM295.049 80.443h.84v-4.008h4.188v4.008h.84v-8.688h-.852v3.768h-4.176v-3.768h-.84zM317.949 80.493h.84v-8.688h-.84zM145.247 97.864c0 .912-.336 1.128-1.428 1.128s-1.428-.216-1.428-1.128v-1.248h-.84v1.272c0 1.584.816 1.944 2.268 1.944s2.268-.36 2.268-1.944v-6.84h-.84zM162.547 99.718h.84v-4.08h.732l3.312 4.08h1.08l-3.636-4.488 3.276-4.2h-1.044l-2.94 3.768h-.78V91.03h-.84zM183.699 99.67h4.5v-.913h-3.66v-7.776h-.84zM202.331 99.741h.84v-7.776h.024l2.724 7.776h.912l2.724-7.776h.024v7.776h.84v-8.688h-1.404l-2.628 7.668h-.024l-2.628-7.668h-1.404zM223.671 99.759h.84v-7.776h.024l3.9 7.776h1.332V91.07h-.84v7.776h-.024l-3.9-7.776h-1.332zM249.556 96.804c0 1.92-.252 2.184-2.22 2.184s-2.22-.264-2.22-2.184v-2.832c0-1.92.252-2.184 2.22-2.184s2.22.264 2.22 2.184zm-5.28.048c0 2.544.78 2.976 3.06 2.976s3.06-.432 3.06-2.976v-2.928c0-2.544-.78-2.976-3.06-2.976s-3.06.432-3.06 2.976zM265.726 91.978h2.568c.924 0 1.2.216 1.2 1.812 0 1.476-.324 1.812-1.332 1.812h-2.436zm-.84 7.848h.84v-3.384h2.34c1.356 0 2.268-.336 2.268-2.652 0-1.584-.312-2.652-1.8-2.652h-3.648zM285.245 94.066c0-2.052.144-2.184 2.22-2.184s2.22.132 2.22 2.184v2.832c0 .36 0 .66-.036.888l-1.848-1.56-.456.54 2.136 1.812c-.228.456-.78.504-2.016.504-2.076 0-2.22-.132-2.22-2.184zm-.84 2.88c0 2.544.66 2.976 3.06 2.976 1.44 0 2.256-.156 2.664-.804l.432.372.456-.552-.624-.528c.096-.396.132-.876.132-1.464v-2.928c0-2.544-.66-2.976-3.06-2.976s-3.06.432-3.06 2.976zM305.279 99.72h.84V96.23h2.184c1.32 0 1.644.36 1.644 1.512v1.98h.84v-2.376c0-.816-.276-1.332-.96-1.524v-.024c.792-.204 1.104-.804 1.104-2.304 0-1.932-.576-2.46-2.1-2.46h-3.552zm.84-7.847h2.46c1.296 0 1.512.132 1.512 1.764 0 1.2-.372 1.752-1.248 1.752h-2.724zM326.023 97.721c0 1.752.708 2.148 2.7 2.148 1.956 0 2.676-.396 2.676-2.448 0-2.112-.468-2.352-2.616-2.496-1.608-.108-1.824-.324-1.824-1.56 0-1.284.132-1.536 1.776-1.536 1.44 0 1.836.276 1.836 1.416v.192h.768c-.048-2.016-.492-2.448-2.604-2.448-1.968 0-2.616.264-2.616 2.376 0 1.656.348 2.172 1.824 2.292l.888.072c1.728.144 1.728.468 1.728 1.572 0 1.644-.216 1.728-1.848 1.728s-1.92-.18-1.92-1.476v-.504h-.768zM175.082 120.842h.84v-7.848h2.376v-.84h-5.592v.84h2.376zM193.348 118.548c0 1.86.792 2.316 2.82 2.316 2.064 0 2.844-.456 2.844-2.316v-6.468h-.84v6.72c0 .936-.444 1.224-2.004 1.224-1.536 0-1.98-.288-1.98-1.224v-6.72h-.84zM215.852 120.878h1.176l2.604-8.688h-.852l-2.328 7.848h-.024l-2.328-7.848h-.852zM239.083 120.826h1.224l2.268-8.688h-.816l-2.04 7.848h-.024l-1.92-7.848h-1.272l-1.92 7.848h-.024l-2.04-7.848h-.816l2.268 8.688h1.224l1.932-7.848h.024zM253.995 120.75h.972l2.244-3.913 2.244 3.912h.972l-2.628-4.416 2.472-4.272h-.948l-2.112 3.72-2.112-3.72h-.948l2.448 4.272zM277.491 120.893h.84v-3.612l2.712-5.076h-.876l-2.256 4.224-2.256-4.224h-.876l2.712 5.076zM295.235 120.893h5.616v-.84h-4.656l4.596-7.008v-.84h-5.388v.84h4.428l-4.596 7.008zM152.593 84.683v.121c0 .745.514.728 1.089.728.67 0 1.016-.062 1.016-.794 0-.662-.219-.704-1.02-.752-.506-.031-.571-.042-.571-.36 0-.278.08-.326.575-.326.35 0 .465.01.465.29v.084h.499v-.083c0-.683-.434-.7-.964-.7-.624 0-1.075.02-1.075.734 0 .756.444.735 1.006.77.388.02.586-.028.586.343 0 .302-.063.385-.517.385-.461 0-.59-.02-.59-.319v-.121zM155.82 83.67c-.758 0-.855.226-.855.933 0 .704.097.93.856.93.76 0 .856-.226.856-.93 0-.707-.097-.933-.856-.933zm0 .333c.39 0 .42.111.42.603 0 .486-.03.593-.42.593s-.419-.107-.419-.593c0-.492.032-.603.42-.603zM174.085 82.922h-.499v2.6h1.713v-.427h-1.214zM176.3 84.704c.215 0 .403.007.403.26 0 .26-.17.28-.403.28-.294 0-.398-.024-.398-.28 0-.26.177-.26.398-.26zm.403.818h.436v-1.14c0-.61-.242-.701-.825-.701-.416 0-.78.02-.78.551h.437c0-.236.153-.253.343-.253.364 0 .389.104.389.399v.235h-.014c-.104-.204-.323-.208-.545-.208-.45 0-.68.122-.68.559 0 .492.268.579.68.579.212 0 .479-.007.565-.25h.01zM195.97 83.418h.763v-.426h-2.025v.426h.763v2.174h.499zM197.44 83.772h-.437v1.82h.437zm0-.78h-.437v.37h.437zM214.246 85.592h1.324c.787 0 .94-.479.94-1.02v-.613c0-.707-.306-.967-1.023-.967h-1.241zm.499-.427v-1.747h.742c.38 0 .523.107.523.54v.614c0 .292-.104.593-.44.593zM217.653 83.75c-.759 0-.856.226-.856.933 0 .704.097.93.856.93.76 0 .857-.226.857-.93 0-.707-.098-.932-.857-.932zm0 .334c.389 0 .42.11.42.603 0 .485-.031.593-.42.593-.388 0-.42-.108-.42-.593 0-.492.032-.603.42-.603zM236.323 84.722c.24.003.33.156.33.374v.485h.499v-.485c0-.367-.087-.558-.44-.59v-.013c.44-.066.46-.347.46-.732 0-.589-.218-.766-.786-.78h-1.328v2.6h.5v-.86zm-.766-.427v-.887h.694c.357 0 .422.066.422.433 0 .381-.09.454-.457.454zM238.747 85.002c0 .27-.17.267-.413.267-.392 0-.402-.124-.402-.516h1.251c0-.794-.1-1.012-.849-1.012-.735 0-.839.284-.839.936 0 .703.142.925.839.925.52 0 .85-.028.85-.6zm-.815-.527c0-.322.024-.402.402-.402.357 0 .413.028.413.402zM257.76 83.415h.018l-.042 2.191h.5v-2.6h-.819l-.693 1.931h-.014l-.707-1.93h-.8v2.6h.498l-.041-2.181h.01l.825 2.18h.447zM259.092 83.786h-.437v1.82h.437zm0-.78h-.437v.371h.437zM276.443 83.378h1.22v-.426h-1.72v2.6h.5v-1.075h1.158v-.41h-1.158zM278.745 84.734c.215 0 .402.007.402.26 0 .26-.17.28-.402.28-.295 0-.399-.024-.399-.28 0-.26.177-.26.399-.26zm.402.818h.437v-1.14c0-.611-.243-.701-.825-.701-.416 0-.78.02-.78.551h.436c0-.236.153-.253.344-.253.364 0 .388.104.388.399v.235h-.014c-.104-.204-.322-.208-.544-.208-.451 0-.68.122-.68.559 0 .492.267.578.68.578.211 0 .478-.007.565-.25h.01zM295.908 84.703v.122c0 .745.513.728 1.089.728.669 0 1.016-.063 1.016-.794 0-.662-.219-.704-1.02-.753-.506-.03-.572-.041-.572-.36 0-.277.08-.326.576-.326.35 0 .464.01.464.291v.083h.5v-.083c0-.683-.434-.7-.964-.7-.624 0-1.075.02-1.075.735 0 .756.444.735 1.006.77.388.02.585-.028.585.343 0 .301-.062.384-.516.384-.461 0-.59-.02-.59-.318v-.122zM299.136 83.69c-.76 0-.856.226-.856.933 0 .704.097.93.856.93s.856-.226.856-.93c0-.707-.097-.932-.856-.932zm0 .334c.388 0 .42.11.42.603 0 .485-.032.593-.42.593s-.42-.108-.42-.593c0-.492.032-.603.42-.603zM317.149 82.932h-.5v2.6h1.713v-.426h-1.213zM319.364 84.714c.215 0 .402.007.402.26 0 .26-.17.28-.402.28-.295 0-.399-.024-.399-.28 0-.26.177-.26.399-.26zm.402.818h.437v-1.14c0-.61-.243-.7-.825-.7-.416 0-.78.02-.78.55h.436c0-.235.153-.253.344-.253.364 0 .388.104.388.399v.236h-.014c-.104-.205-.322-.208-.544-.208-.45 0-.68.121-.68.558 0 .492.267.579.68.579.211 0 .478-.007.565-.25h.01zM143.705 102.646h.763v-.426h-2.025v.426h.763v2.174h.5zM145.175 103h-.437v1.82h.437zm0-.78h-.437v.37h.437zM163.33 104.879h1.325c.787 0 .94-.479.94-1.02v-.613c0-.707-.306-.967-1.023-.967h-1.241zm.5-.427v-1.747h.742c.381 0 .523.108.523.54v.614c0 .292-.104.593-.44.593zM166.738 103.038c-.759 0-.856.225-.856.932 0 .704.097.93.856.93.76 0 .857-.226.857-.93 0-.707-.097-.932-.857-.932zm0 .333c.389 0 .42.11.42.603 0 .485-.031.593-.42.593s-.419-.108-.419-.593c0-.492.031-.603.42-.603zM165.5 101.515v.26l.084.258h.108l.084-.258v-.26zM185.11 103.945c.24.003.33.156.33.374v.486h.5v-.486c0-.367-.087-.558-.441-.589v-.014c.44-.066.461-.347.461-.731 0-.59-.218-.766-.787-.78h-1.328v2.6h.5v-.86zm-.765-.426v-.888h.693c.357 0 .423.066.423.433 0 .382-.09.455-.458.455zM187.534 104.226c0 .27-.17.267-.413.267-.391 0-.402-.125-.402-.517h1.252c0-.794-.1-1.012-.85-1.012-.735 0-.839.284-.839.936 0 .704.143.926.84.926.52 0 .849-.028.849-.6zm-.815-.527c0-.323.025-.402.402-.402.357 0 .413.027.413.402zM185.92 101.505v.26l.085.258h.108l.084-.258v-.26zM206.961 102.605h.018l-.042 2.19h.5v-2.6h-.819l-.693 1.932h-.014l-.707-1.931h-.801v2.6h.499l-.042-2.18h.01l.826 2.18h.447zM208.292 102.976h-.436v1.82h.436zm0-.78h-.436v.37h.436zM206.22 101.505v.26l.083.258h.108l.084-.258v-.26zM225.458 102.588h1.22v-.427h-1.72v2.6h.5v-1.074h1.157v-.41h-1.157zM227.76 103.943c.214 0 .402.007.402.26 0 .26-.17.281-.403.281-.294 0-.398-.024-.398-.28 0-.26.177-.26.398-.26zm.402.818h.436v-1.14c0-.61-.242-.7-.825-.7-.416 0-.78.02-.78.55h.437c0-.235.153-.252.343-.252.364 0 .389.104.389.398v.236h-.014c-.104-.204-.323-.208-.545-.208-.45 0-.679.121-.679.558 0 .492.267.58.68.58.21 0 .478-.008.565-.25h.01zM226.751 101.462v.26l.084.258h.108l.084-.258v-.26zM150.95 40.913h3.286V44.2h.85v-3.286h3.286v-.85h-3.286v-3.286h-.85v3.286h-3.286zM171.613 40.944h7.69v-.851h-7.69zM192.878 44.574h.935l2.16-3.31 2.16 3.31h.936l-2.53-3.737 2.38-3.616h-.912l-2.033 3.148-2.034-3.148h-.912l2.356 3.616zM212.636 40.938h7.422v-.85h-7.422zm2.831 2.581c0 .47.41.88.895.88.454 0 .865-.44.865-.88 0-.47-.41-.88-.88-.88-.47 0-.88.396-.88.88zm0-6.013c0 .484.396.88.88.88s.88-.396.88-.88-.396-.88-.88-.88-.88.396-.88.88zM231.112 39.484h1.48v-.492h-2.056v3h2.068V41.5h-1.492v-.796h1.404v-.472h-1.404zM234.492 41c.276.004.38.18.38.432v.56h.576v-.56c0-.424-.1-.644-.508-.68v-.016c.508-.076.532-.4.532-.844 0-.68-.252-.884-.908-.9h-1.532v3h.576V41zm-.884-.492v-1.024h.8c.412 0 .488.076.488.5 0 .44-.104.524-.528.524zM237.744 41.424l.196.568h.584l-1.016-3h-.848l-.996 3h.596l.188-.568zm-.128-.436h-1.036l.512-1.556h.008zM238.644 41.036v.14c0 .86.592.84 1.256.84.772 0 1.172-.072 1.172-.916 0-.764-.252-.812-1.176-.868-.584-.036-.66-.048-.66-.416 0-.32.092-.376.664-.376.404 0 .536.012.536.336v.096h.576v-.096c0-.788-.5-.808-1.112-.808-.72 0-1.24.024-1.24.848 0 .872.512.848 1.16.888.448.024.676-.032.676.396 0 .348-.072.444-.596.444-.532 0-.68-.024-.68-.368v-.14zM242.004 39.484h1.48v-.492h-2.056v3h2.068V41.5h-1.492v-.796h1.404v-.472h-1.404zM254.612 38.966h-.576v1.228h-1.396v-1.228h-.576v3h.576v-1.28h1.396v1.28h.576zM255.676 39.458h1.48v-.492H255.1v3h2.068v-.492h-1.492v-.796h1.404v-.472h-1.404zM258.192 38.966h-.576v3h1.976v-.492h-1.4zM259.836 41.966h.576v-.972h.752c.784 0 1.068-.148 1.068-.996 0-.84-.264-1.032-1.068-1.032h-1.328zm.576-1.464v-1.044h.752c.432-.004.492.116.492.54 0 .42-.08.496-.492.504zM270.562 41.397l.196.568h.584l-1.016-3h-.848l-.996 3h.596l.188-.568zm-.128-.436h-1.036l.512-1.556h.008zM273.846 41.473h-.016l-1.284-2.508h-.952v3h.576l-.048-2.508h.02l1.276 2.508h.956v-3h-.576zM274.77 41.009v.14c0 .86.592.84 1.256.84.772 0 1.172-.072 1.172-.916 0-.764-.252-.812-1.176-.868-.584-.036-.66-.048-.66-.416 0-.32.092-.376.664-.376.404 0 .536.012.536.336v.096h.576v-.096c0-.788-.5-.808-1.112-.808-.72 0-1.24.024-1.24.848 0 .872.512.848 1.16.888.448.024.676-.032.676.396 0 .348-.072.444-.596.444-.532 0-.68-.024-.68-.368v-.14zM280.57 41.493h-.012l-.672-2.528h-.664l-.688 2.528h-.016l-.624-2.528h-.576l.78 3h.824l.62-2.288h.016l.6 2.288h.832l.808-3h-.58zM282.582 39.457h1.48v-.492h-2.056v3h2.068v-.492h-1.492v-.796h1.404v-.472h-1.404zM285.962 40.973c.276.004.38.18.38.432v.56h.576v-.56c0-.424-.1-.644-.508-.68v-.016c.508-.076.532-.4.532-.844 0-.68-.252-.884-.908-.9h-1.532v3h.576v-.992zm-.884-.492v-1.024h.8c.412 0 .488.076.488.5 0 .44-.104.524-.528.524zM294.808 39.382h.02l-.048 2.528h.576v-3h-.944l-.8 2.228h-.016l-.816-2.228h-.924v3h.576l-.048-2.516h.012l.952 2.516h.516zM296.42 39.402h1.48v-.492h-2.056v3h2.068v-.492h-1.492v-.796h1.404v-.472h-1.404zM300.612 41.418h-.016l-1.284-2.508h-.952v3h.576l-.048-2.508h.02l1.276 2.508h.956v-3h-.576zM303.584 38.91v2.132c0 .324-.144.4-.676.4-.556 0-.668-.092-.668-.4V38.91h-.576v2.132c0 .84.54.892 1.244.892.728 0 1.252-.056 1.252-.892V38.91zM312.471 39.503h1.48v-.492h-2.056v3h2.068v-.492h-1.492v-.796h1.404v-.472h-1.404zM316.663 41.52h-.016l-1.284-2.509h-.952v3h.576l-.048-2.508h.02l1.276 2.508h.956v-3h-.576zM318.92 39.503h.88v-.492h-2.337v.492h.88v2.508h.576zM320.603 39.503h1.48v-.492h-2.056v3h2.068v-.492h-1.492v-.796h1.404v-.472h-1.404zM323.983 41.02c.276.003.38.18.38.431v.56h.576v-.56c0-.424-.1-.644-.508-.68v-.016c.508-.076.532-.4.532-.844 0-.68-.252-.884-.908-.9h-1.532v3h.576v-.992zm-.884-.493v-1.024h.8c.412 0 .488.076.488.5 0 .44-.104.524-.528.524zM132.185 75.78h4.526v-.85h-4.526zM134.331 82.106a.6.6 0 0 1-.6.6.6.6 0 0 1-.6-.6.6.6 0 0 1 .6-.6.6.6 0 0 1 .6.6zM241.832 104.095h.48v-.81h.627c.653 0 .89-.123.89-.83 0-.7-.22-.86-.89-.86h-1.107zm.48-1.22v-.87h.627c.36-.003.41.097.41.45 0 .35-.067.413-.41.42zM245.506 103.622l.163.473h.487l-.847-2.5h-.707l-.83 2.5h.497l.157-.473zm-.107-.364h-.863l.426-1.296h.007zM247.962 101.595v1.777c0 .27-.12.333-.563.333-.463 0-.557-.077-.557-.333v-1.777h-.48v1.777c0 .7.45.743 1.037.743.607 0 1.043-.047 1.043-.743v-1.777zM248.77 103.298v.117c0 .717.492.7 1.046.7.643 0 .976-.06.976-.763 0-.637-.21-.677-.98-.724-.486-.03-.55-.04-.55-.346 0-.267.077-.314.554-.314.336 0 .446.01.446.28v.08h.48v-.08c0-.656-.416-.673-.926-.673-.6 0-1.034.02-1.034.707 0 .726.427.706.967.74.373.02.563-.027.563.33 0 .29-.06.37-.496.37-.444 0-.567-.02-.567-.307v-.117zM251.57 102.005h1.232v-.41h-1.713v2.5h1.723v-.41h-1.243v-.663h1.17v-.394h-1.17zM263.401 104.234h.48v-.81h.627c.653 0 .89-.124.89-.83 0-.7-.22-.86-.89-.86H263.4zm.48-1.22v-.87h.627c.36-.003.41.096.41.45 0 .35-.067.413-.41.42zM266.201 101.734h-.48v2.5h1.647v-.41H266.2zM269.108 103.76l.163.474h.487l-.847-2.5h-.706l-.83 2.5h.496l.157-.474zm-.107-.363h-.863l.427-1.297h.007zM271.805 101.734h-.554l-.603 1.066h-.01l-.593-1.066h-.547l.903 1.54v.96h.48v-.96zM285.46 103.869h-.013l-1.07-2.09h-.794v2.5h.48l-.04-2.09h.017l1.063 2.09h.797v-2.5h-.48zM286.787 102.189h1.233v-.41h-1.713v2.5h1.723v-.41h-1.243v-.664h1.17v-.393h-1.17zM290.883 103.885h-.01l-.56-2.106h-.553l-.573 2.106h-.014l-.52-2.106h-.48l.65 2.5h.687l.517-1.907h.013l.5 1.907h.693l.674-2.5h-.484zM311.872 117.008v.14c0 .86.592.84 1.256.84.772 0 1.172-.072 1.172-.916 0-.764-.252-.812-1.176-.868-.584-.036-.66-.048-.66-.416 0-.32.092-.376.664-.376.404 0 .536.012.536.336v.096h.576v-.096c0-.788-.5-.808-1.112-.808-.72 0-1.24.024-1.24.848 0 .872.512.848 1.16.888.448.024.676-.032.676.396 0 .348-.072.444-.596.444-.532 0-.68-.024-.68-.368v-.14zM314.656 117.964h.576v-.972h.752c.784 0 1.068-.148 1.068-.996 0-.84-.264-1.032-1.068-1.032h-1.328zm.576-1.464v-1.044h.752c.432-.004.492.116.492.54 0 .42-.08.496-.492.504zM319.064 117.396l.196.568h.584l-1.016-3h-.848l-.996 3h.596l.188-.568zm-.128-.436H317.9l.512-1.556h.008zM322.452 115.968v-.164c-.04-.86-.468-.864-1.216-.864-.884 0-1.256.216-1.256 1.176v.688c.012.876.2 1.224 1.256 1.184.744-.032 1.26 0 1.248-.904v-.196h-.576v.164c0 .428-.208.444-.672.444-.604 0-.676-.116-.68-.716v-.664c0-.588.1-.684.68-.684.504 0 .64.024.64.372v.164zM323.416 115.456h1.48v-.492h-2.056v3h2.068v-.492h-1.492v-.796h1.404v-.472h-1.404zM148.892 117.742v.14c0 .86.592.84 1.256.84.772 0 1.172-.072 1.172-.916 0-.764-.252-.812-1.176-.868-.584-.036-.66-.048-.66-.416 0-.32.092-.376.664-.376.404 0 .536.012.536.336v.096h.576v-.096c0-.788-.5-.808-1.112-.808-.72 0-1.24.024-1.24.848 0 .872.512.848 1.16.888.448.024.676-.032.676.396 0 .348-.072.444-.596.444-.532 0-.68-.024-.68-.368v-.14zM154.264 115.698h-.576v1.228h-1.396v-1.228h-.576v3h.576v-1.28h1.396v1.28h.576zM155.368 115.698h-.576v3h.576zM156.44 116.19h1.408v-.492h-1.984v3h.576v-1.24h1.336v-.472h-1.336zM159.424 116.19h.88v-.492h-2.336v.492h.88v2.508h.576zM144.667 64.106h.84v-8.688h-1.116l-2.088 2.592.564.516 1.776-2.268h.024zM162.742 64.048h5.316v-.84h-4.476v-.876c0-1.02.18-1.44 2.052-1.56 2.316-.144 2.484-1.068 2.484-2.964 0-2.124-.648-2.544-2.652-2.544-2.544 0-2.676.912-2.676 2.364v.516h.768v-.42c0-1.38.18-1.62 1.872-1.62 1.644 0 1.848.324 1.848 1.716 0 1.776-.204 1.956-1.812 2.112-2.148.204-2.724.588-2.724 2.58zM185.316 59.991c2.184 0 2.436.024 2.436 1.56 0 1.5-.108 1.716-1.944 1.716-1.944 0-1.968-.24-1.968-2.052h-.768v.6c0 1.884.54 2.292 2.82 2.292 2.52 0 2.7-.576 2.7-2.604 0-1.464-.42-1.716-1.08-1.92v-.024c.816-.24 1.032-.876 1.032-1.98 0-1.704-.216-2.352-2.748-2.352-1.512 0-2.532.144-2.532 1.992v.756h.768v-.672c0-1.188.552-1.236 1.86-1.236 1.764 0 1.812.324 1.812 1.464 0 1.632-.3 1.692-2.388 1.692zM207.422 61.202h-3.42l3.396-5.04h.024zm0 2.808h.84v-1.968h1.092v-.84h-1.092v-5.88h-1.248l-3.708 5.52v1.2h4.116zM224.107 59.666h.72c.252-.696.648-.768 1.764-.768 1.908 0 1.932.564 1.932 2.184 0 1.86-.072 2.184-1.884 2.184-1.8 0-1.932-.276-1.932-1.74h-.768v.648c0 1.668 1.164 1.932 2.628 1.932 2.268 0 2.796-.396 2.796-3.024 0-2.172-.324-3.024-2.532-3.024-.984 0-1.44.084-1.86.672h-.024v-2.64h4.128v-.768h-4.968zM249.856 57.458c0-1.836-.588-2.232-2.58-2.232s-2.76.324-2.76 2.7v3.48c0 2.376.768 2.7 2.76 2.7s2.76-.324 2.76-2.7c0-2.232-.48-2.7-2.58-2.7-1.104 0-1.584.06-2.076.768h-.024v-1.692c0-1.596.48-1.716 2.004-1.716 1.572 0 1.656.204 1.728 1.392zm-.66 3.912c0 1.788-.288 1.896-1.92 1.896s-1.92-.108-1.92-1.896c0-1.728.228-1.896 1.92-1.896 1.632 0 1.92.108 1.92 1.896zM265.663 64.038h.888l3.636-7.416V55.35h-5.328v.84h4.632zM285.745 61.614c0-1.5.264-1.68 1.92-1.68 1.668 0 1.92.18 1.92 1.68s-.252 1.68-1.92 1.68c-1.656 0-1.92-.18-1.92-1.68zm.048-4.02c0-1.2 0-1.572 1.872-1.572s1.872.372 1.872 1.572 0 1.572-1.872 1.572-1.872-.372-1.872-1.572zm-.888 4.116c0 2.208.756 2.424 2.76 2.424s2.76-.216 2.76-2.424c0-1.248-.108-1.848-1.068-2.172v-.024c.816-.276.948-.9.948-1.932v-.36c0-1.704-.624-1.968-2.64-1.968s-2.64.264-2.64 1.968v.36c0 1.032.132 1.656.948 1.932v.024c-.96.324-1.068.924-1.068 2.172zM305.488 61.902c0 1.836.588 2.232 2.58 2.232s2.76-.324 2.76-2.7v-3.48c0-2.376-.768-2.7-2.76-2.7s-2.76.324-2.76 2.7c0 2.232.48 2.7 2.58 2.7 1.104 0 1.584-.06 2.076-.768h.024v1.692c0 1.596-.48 1.716-2.004 1.716-1.572 0-1.656-.204-1.728-1.392zm.66-3.912c0-1.788.288-1.896 1.92-1.896s1.92.108 1.92 1.896c0 1.728-.228 1.896-1.92 1.896-1.632 0-1.92-.108-1.92-1.896zM331.385 57.784c0-2.376-.768-2.7-2.76-2.7s-2.76.324-2.76 2.7v3.48c0 2.376.768 2.7 2.76 2.7s2.76-.324 2.76-2.7zm-.84 3.732c0 1.584-.396 1.608-1.92 1.608s-1.92-.024-1.92-1.608v-3.984c0-1.584.396-1.608 1.92-1.608s1.92.024 1.92 1.608z"/>
    </g>
</svg>
