<svg height="338.178" viewBox="0 0 333.573 169.089" width="667.146" xmlns="http://www.w3.org/2000/svg">
    <text fill="#ef00eb" font-family="TrasksHand" font-size="1" stroke="#0105ff" stroke-width="1.25" x="689.326" y="6.44" transform="translate(-433.088 -2.111)"><tspan fill="#fafafa" fill-opacity=".4" stroke="none" x="689.326" y="6.44">John Loreth 2022</tspan></text>
    <g stroke="#f4f4f4" stroke-linecap="round" transform="translate(-433.088 -2.111)">
        <path d="M511.232 8.16c-11.905.08-22.47 2.864-36.32 9.654-2.874 1.41-3.289-2.235-4.209-1.332-36.949 31.16-37.593 83.48-36.262 103.649 0 55.625 54.754 59.22 97.375 38.228 29.356-15.946 47.764-17.557 64.97-17.025 17.858-.532 36.964 1.08 67.435 17.025 44.24 20.993 101.074 17.397 101.074-38.228 1.382-20.17.714-72.489-37.639-103.649-.955-.903-1.386 2.742-4.369 1.332-25.557-12.071-40.338-11.479-71.316-5.552-18.64 2.17-37 4.01-55.186 3.699-17.52.311-35.208-1.529-53.166-3.7-13.057-2.592-23.127-4.164-32.387-4.1z" fill="none"/>
        <circle cx="685.422" cy="77.576" fill="none" r="62.5" stroke-width=".5"/>
        <circle cx="513.155" cy="78.423" fill="none" r="59.375" stroke-width=".5"/>
        <ellipse cx="512.547" cy="78.211" fill="none" rx="35.905" ry="36.247"/>
        <g stroke-linejoin="round">
            <path d="M509.861 48.275a5.431 5.431 0 0 0-5.443 5.444v16.215h-16.215a5.431 5.431 0 0 0-5.443 5.443v5.629a5.431 5.431 0 0 0 5.443 5.443h16.215v16.215a5.431 5.431 0 0 0 5.443 5.443h5.631a5.431 5.431 0 0 0 5.444-5.443V86.45h16.212a5.433 5.433 0 0 0 5.446-5.443v-5.629a5.433 5.433 0 0 0-5.446-5.443h-16.212V53.719a5.431 5.431 0 0 0-5.444-5.444z" fill="none"/>
            <path d="m512.616 31.855 3.611 6.254h-7.222z" fill="#f4f4f4" stroke-width="5.877" transform="matrix(.17345 -.17345 .3338 .3338 394.538 138.075)"/>
            <path d="m512.616 31.855 3.611 6.254h-7.222z" fill="#f4f4f4" stroke-width="5.877" transform="matrix(-.17345 -.17345 -.3338 .3338 630.954 137.815)"/>
            <path d="m512.616 31.855 3.611 6.254h-7.222z" fill="#f4f4f4" stroke-width="5.877" transform="rotate(134.999 311.55 140.026) scale(.2453 .47206)"/>
            <path d="m512.616 31.855 3.611 6.254h-7.222z" fill="#f4f4f4" stroke-width="5.877" transform="matrix(.17345 .17345 .3338 -.3338 394.09 19.026)"/>
        </g>
        <g fill="none">
            <path d="m549.764 12.68.58-5.631C525.37 2.737 500.358-1.073 473.919 13l-.352 4.505M647.849 12.508l-.624-5.459C672.198 2.737 697.211-1.073 723.65 13l.351 4.505" stroke-linejoin="round"/>
            <circle cx="688.431" cy="90.281" r="15"/>
            <circle cx="656.594" cy="107.432" r="15"/>
            <circle cx="722.762" cy="80.382" r="15"/>
            <circle cx="704.849" cy="48.6" r="10.5"/>
            <circle cx="675.035" cy="57.021" r="10.5"/>
            <circle cx="645.799" cy="71.458" r="10.5"/>
            <circle cx="618.444" cy="112.024" r="6.5"/>
            <circle cx="578.042" cy="112.059" r="6.5"/>
            <circle cx="598.193" cy="111.936" r="6.5"/>
            <rect height="11.519" rx="4.308" width="28.339" x="583.999" y="72.584"/>
        </g>
    </g>
</svg>
