<svg height="353.973" viewBox="0 0 1605.211 778.741" width="729.642" xmlns="http://www.w3.org/2000/svg">
    <g fill="#f4f4f4" fill-opacity=".5" stroke-width="2.2">
        <path d="M874.69 666.166q0 .704-.17 1.185-.252.716-.81.716-.369 0-.774-.17-.487-.206-.534-.505.165 0 .387.059.517.135.646.135.499 0 .75-.5.2-.398.2-.955 0-.393-.258-1.12-.252-.734-.252-1.022 0-.088.047-.14.053-.06.14-.06.23 0 .446 1.057.182.892.182 1.32zM876.949 666.764q0 .599-.346.939-.346.34-.956.34-.335 0-.517-.158-.182-.159-.182-.487 0-.464.605-.933.575-.446 1.062-.446.223 0 .293.276.041.158.041.47zm-.358.164q0-.07-.017-.134-.012-.07-.047-.159-.094.065-.311.317-.112.129-.194.188 0-.112.024-.182.046-.1.076-.17-.258 0-.54.217-.276.217-.276.47 0 .17.188.17.358 0 .692-.177.405-.211.405-.54zM879.366 667.005q0 .287-.217.645-.246.405-.51.405-.077 0-.13-.082-.046-.088-.046-.17 0-.106.223-.329.228-.229.228-.31 0-.054-.017-.106l-.024-.07q-.44.099-.897.504-.452.405-.687.457-.047-.129-.047-.264 0-.164.077-.346.052-.129.176-.31.205-.312.434-.705l.405-.71q.293-.504.428-.715.07-.106.123-.159.076-.07.182-.094.07.024.1.088.035.065.035.153 0 .2-.258.54-.47.61-.481.633-.264.4-.264.722l.011.059q.323-.159.382-.182.24-.1.41-.1.188 0 .276.129.088.123.088.317zM882.088 666.659q0 .399-.193.85-.212.499-.523.687-.064-.077-.111-.17-.041-.094-.041-.188 0-.1.293-.593.13-.217.118-.381l-.006-.076q-.218.064-.751.393-.528.322-1.068.657-.082 0-.153-.059-.064-.064-.064-.14 0-.124.393-.828.117-.211.422-.733.094.123.124.275.029.147.029.352v.135q.54-.322.845-.487.334-.181.457-.181.082 0 .153.187.076.188.076.3zM887.186 667.797q0 .105-.094.164-.088.053-.199.053-.1 0-.252-.024-.346-.052-.446-.052-.176 0-.692.04-.294.024-.423.024-.358 0-.358-.358 0-.34.223-.974.123-.357.464-1.173.305-.733.387-1.032.03-.094.047-.124.047-.07.117-.07.112 0 .188.164.076.159.076.288 0 .205-.24.692l-.47.944q-.252.552-.252.84 0 .146.123.205.088.04.258.04.13 0 .446-.028.317-.036.423-.036.264 0 .434.077.24.105.24.34zM889.369 666.764q0 .599-.346.939-.347.34-.957.34-.334 0-.516-.158-.182-.159-.182-.487 0-.464.604-.933.575-.446 1.062-.446.223 0 .294.276.04.158.04.47zm-.358.164q0-.07-.018-.134-.011-.07-.047-.159-.094.065-.31.317-.112.129-.194.188 0-.112.023-.182.047-.1.077-.17-.259 0-.54.217-.276.217-.276.47 0 .17.188.17.358 0 .692-.177.405-.211.405-.54zM891.839 666.641q0 .188-.1.399-.094.211-.24.352l-.007-.082q0-.07.018-.217t.018-.217q0-.1-.03-.147-.029-.053-.123-.053-.276 0-.686.429l-.886.932q-.035 0-.07-.006-.089-.023-.118-.029.018-.211.147-.47.346-.697.358-.744.046-.188.07-.276.023-.088.064-.182.047-.1.106-.176.065-.082.164-.123l.059.704.387-.317q.258-.205.446-.205t.305.123q.118.123.118.305zM894.72 665.96q0 .247-.658.652-.634.387-.921.387-.135 0-.182-.094-.041-.094-.041-.264v-.158q.393 0 .716-.118.322-.117.563-.387-.176-.064-.358-.064-.428 0-.91.328-.527.358-.527.763 0 .387.528.54.082.023.991.164.534.082.534.287 0 .088-.194.141-.193.059-.492.059-.751 0-1.185-.23-.575-.304-.575-.979 0-.704.704-1.12.598-.352 1.36-.352.23 0 .417.105.23.13.23.34zM897.054 664.91q0 .13-.31.54-.312.41-.312.628 0 .111.13.223.293.258.293.317 0 .076-.053.146-.047.07-.123.07-.065 0-.182-.07-.082-.047-.317-.229l-.135.259q-.164.31-.223.451l-.176.54q-.152.364-.381.364l-.006-.135q0-.417.27-.986.052-.105.293-.545-.464-.253-1.02-.253 0-.217.087-.316.094-.106.311-.106.2 0 .499.07.146.036.293.07.112-.034.305-.38.475-.834.645-.957.047.076.077.153.035.076.035.146zM899.219 667.005q0 .287-.217.645-.247.405-.51.405-.077 0-.13-.082-.047-.088-.047-.17 0-.106.223-.329.23-.229.23-.31 0-.054-.018-.106l-.024-.07q-.44.099-.898.504-.451.405-.686.457-.047-.129-.047-.264 0-.164.076-.346.053-.129.176-.31.206-.312.435-.705l.404-.71q.294-.504.429-.715.07-.106.123-.159.076-.07.182-.094.07.024.1.088.035.065.035.153 0 .2-.258.54-.47.61-.482.633-.264.4-.264.722l.012.059q.323-.159.381-.182.241-.1.411-.1.188 0 .276.129.088.123.088.317zM904.035 665.092q0 .276-.293.74-.188.293-.616.844-.428.546-.534.716l.44.14q.428.13.428.47-.176.03-.346.053l-.064-.006v-.047q-.094-.024-.153-.024-.111 0-.352.036-.24.035-.363.035-.159 0-.259-.059t-.1-.211q0-.123.452-.698.845-1.074.851-1.085.458-.622.458-.834 0-.082-.059-.123-.053-.04-.217-.04-.111 0-.463.216-.17.106-.276.106l-.1-.018q-.035-.023-.076-.088-.041-.07-.041-.111 0-.247.475-.452.405-.176.704-.176.252 0 .387.188.117.164.117.428zM907.561 666.148q0 .71-.768 1.256-.704.498-1.45.498-.369 0-.586-.187-.217-.188-.217-.546 0-.798.698-1.385.663-.557 1.484-.557.417 0 .628.247.211.246.211.674zm-.358.135q0-.27-.305-.405-.228-.1-.545-.1-.464 0-.968.452-.505.452-.505.91 0 .187.094.27.1.076.3.076.574 0 1.196-.317.733-.375.733-.886zM910.248 665.092q0 .276-.293.74-.188.293-.616.844-.428.546-.534.716l.44.14q.428.13.428.47-.176.03-.346.053l-.064-.006v-.047q-.094-.024-.153-.024-.111 0-.352.036-.24.035-.364.035-.158 0-.258-.059t-.1-.211q0-.123.452-.698.845-1.074.851-1.085.458-.622.458-.834 0-.082-.06-.123-.052-.04-.216-.04-.112 0-.464.216-.17.106-.275.106l-.1-.018q-.035-.023-.076-.088-.042-.07-.042-.111 0-.247.476-.452.404-.176.704-.176.252 0 .387.188.117.164.117.428zM912.947 665.092q0 .276-.293.74-.188.293-.616.844-.429.546-.534.716l.44.14q.428.13.428.47-.176.03-.346.053l-.065-.006v-.047q-.094-.024-.152-.024-.112 0-.352.036-.24.035-.364.035-.158 0-.258-.059t-.1-.211q0-.123.452-.698.845-1.074.85-1.085.458-.622.458-.834 0-.082-.058-.123-.053-.04-.218-.04-.111 0-.463.216-.17.106-.276.106l-.1-.018q-.035-.023-.076-.088-.04-.07-.04-.111 0-.247.474-.452.405-.176.704-.176.253 0 .388.188.117.164.117.428z"/>
    </g>
    <g fill="none" stroke="#f4f4f4" stroke-width="4.4">
        <path d="M1568.534 129.605c0-17.661-14.518-32.178-32.18-32.178H68.857c-17.662 0-32.18 14.517-32.18 32.178v519.531c0 17.661 14.518 32.178 32.18 32.178h1467.497c17.662 0 32.18-14.517 32.18-32.178V389.371z"/>
        <path d="M1558.99 129.605a22.585 22.585 0 0 0-22.636-22.634H68.857a22.585 22.585 0 0 0-22.635 22.634v519.531a22.585 22.585 0 0 0 22.635 22.634h1467.497a22.585 22.585 0 0 0 22.635-22.634V389.371z"/>
        <g transform="matrix(1.00006 0 0 1 -14.226 -289.741)">
            <rect height="50.987" rx=".338" ry=".338" width="958.16" x="83.918" y="418.928"/>
            <g stroke-width="2.2">
                <rect height="50.897" rx=".338" ry=".338" width="34.256" x="83.918" y="418.928"/>
                <rect height="50.897" rx=".338" ry=".338" width="79.312" x="373.79" y="418.928"/>
                <rect height="50.897" rx=".338" ry=".338" width="79.312" x="697.79" y="418.928"/>
                <rect height="50.897" rx=".338" ry=".338" width="34.256" x="1007.918" y="418.928"/>
            </g>
        </g>
        <g transform="translate(-24.225 -275.741)">
            <rect height="45.864" rx=".338" width="339.84" x="656.938" y="306.822"/>
            <path d="M224.543 287.215h97.375c.188 0 .338.151.338.338v7.236c0 .187-.15.338-.338.338h-97.375a.337.337 0 0 1-.338-.338v-7.236c0-.187.15-.338.338-.338zm97.713-9.75v3.324c0 .187-.15.338-.338.338h-97.375a.337.337 0 0 1-.338-.338v-3.324m.338 25.75h97.375c.188 0 .338.151.338.338v7.236c0 .187-.15.338-.338.338h-97.375a.337.337 0 0 1-.338-.338v-7.236c0-.187.15-.338.338-.338zm0 14h97.375c.188 0 .338.151.338.338v7.236c0 .187-.15.338-.338.338h-97.375a.337.337 0 0 1-.338-.338v-7.236c0-.187.15-.338.338-.338zm97.659-41.454.009 49.028c0 .187-.15.338-.338.338h-97.33a.337.337 0 0 1-.338-.338l-.013-49.028m.012.98H61.494c-20.093 0-36.269 16.175-36.269 36.266V1017.216c0 20.091 16.176 36.266 36.269 36.266h1530.674c20.093 0 36.269-16.175 36.269-36.266V313.007c0-20.091-16.176-36.266-36.269-36.266h-157.641m-109.967 0H322.204m1106.915 10.474h-97.375a.337.337 0 0 0-.338.338v7.236c0 .187.15.338.338.338h97.375c.187 0 .338-.15.338-.338v-7.236a.337.337 0 0 0-.338-.338zm-97.713-9.75v3.324c0 .187.15.338.338.338h97.375c.187 0 .338-.15.338-.338v-3.324m-.338 25.75h-97.375a.337.337 0 0 0-.338.338v7.236c0 .187.15.338.338.338h97.375c.187 0 .338-.15.338-.338v-7.236a.337.337 0 0 0-.338-.338zm0 14h-97.375a.337.337 0 0 0-.338.338v7.236c0 .187.15.338.338.338h97.375c.187 0 .338-.15.338-.338v-7.236a.337.337 0 0 0-.338-.338zm-97.659-41.454-.01 49.028c0 .187.15.338.338.338h97.33c.188 0 .338-.15.338-.338l.013-49.028m-.012.98h162.71c20.093 0 36.269 16.175 36.269 36.266V1017.216c0 20.091-16.176 36.266-36.268 36.266H61.494c-20.093 0-36.269-16.175-36.269-36.266V313.007c0-20.091 16.176-36.266 36.269-36.266H219.1m109.263 0h1003.094"/>
        </g>
    </g>
    <g transform="translate(-24.225 -275.741)">
        <g fill="none" stroke="#f4f4f4" stroke-width="4.4">
            <g transform="matrix(1.00006 0 0 1 -38.004 76)">
                <rect height="66" rx="5.67" ry="5.67" width="66" x="1294.527" y="704.693"/>
                <rect height="66" rx="5.67" ry="5.67" width="66" x="1218.527" y="704.693"/>
                <rect height="66" rx="5.67" ry="5.67" width="66" x="610.527" y="704.693"/>
                <rect height="66" rx="5.67" ry="5.67" width="66" x="534.527" y="704.693"/>
                <rect height="66" rx="5.67" ry="5.67" width="66" x="458.527" y="704.693"/>
                <rect height="66" rx="5.67" ry="5.67" width="66" x="382.527" y="704.693"/>
                <rect height="66" rx="5.67" ry="5.67" width="66" x="306.527" y="704.693"/>
                <rect height="66" rx="5.67" ry="5.67" width="75" x="220.527" y="704.693"/>
                <rect height="66" rx="5.67" ry="5.67" width="66" x="144.527" y="704.693"/>
                <rect height="66" rx="5.67" ry="5.67" width="66" x="1522.527" y="704.693"/>
                <rect height="66" rx="5.67" ry="5.67" width="66" x="1446.527" y="704.693"/>
                <rect height="66" rx="5.67" ry="5.67" width="66" x="1370.527" y="704.693"/>
                <rect height="66" rx="5.67" ry="5.67" width="66" x="1142.527" y="704.693"/>
                <rect height="66" rx="5.67" ry="5.67" width="66" x="1066.527" y="704.693"/>
                <path d="M974.857 780.693a5.658 5.658 0 0 1 5.67 5.67v54.66a5.658 5.658 0 0 1-5.67 5.67h-586.66a5.658 5.658 0 0 1-5.67-5.67v-54.66a5.658 5.658 0 0 1 5.67-5.67h293.33z"/>
                <rect height="66" rx="5.67" ry="5.67" width="66" x="990.527" y="704.693"/>
                <rect height="66" rx="5.67" ry="5.67" width="66" x="914.527" y="704.693"/>
                <rect height="66" rx="5.67" ry="5.67" width="66" x="838.527" y="704.693"/>
                <rect height="66" rx="5.67" ry="5.67" width="66" x="762.527" y="704.693"/>
                <rect height="66" rx="5.67" ry="5.67" width="66" x="686.527" y="704.693"/>
            </g>
            <g transform="matrix(1.00006 0 0 1 -.002 0)">
                <rect height="66" rx="5.67" ry="5.67" width="66" x="762.527" y="704.693"/>
                <rect height="66" rx="5.67" ry="5.67" width="66" x="686.527" y="704.693"/>
                <rect height="66" rx="5.67" ry="5.67" width="66" x="610.527" y="704.693"/>
                <rect height="66" rx="5.67" ry="5.67" width="66" x="534.527" y="704.693"/>
                <rect height="66" rx="5.67" ry="5.67" width="66" x="458.527" y="704.693"/>
                <rect height="66" rx="5.67" ry="5.67" width="66" x="382.527" y="704.693"/>
                <rect height="66" rx="5.67" ry="5.67" width="66" x="306.527" y="704.693"/>
                <rect height="66" rx="5.67" ry="5.67" width="66" x="230.527" y="704.693"/>
                <rect height="66" rx="5.67" ry="5.67" width="114" x="106.527" y="704.693"/>
                <rect height="66" rx="5.67" ry="5.67" width="66" x="990.527" y="704.693"/>
                <rect height="66" rx="5.67" ry="5.67" width="66" x="914.527" y="704.693"/>
                <rect height="66" rx="5.67" ry="5.67" width="66" x="838.527" y="704.693"/>
                <path d="m1074.223 704.745 38.637.106c9.025.006 11.654-2.67 11.674-11.117l-.01-57.853c-.028-4.325 2.6-7.001 6.395-7.001h33.683c3.266 0 5.895 2.676 5.895 6v129.812c0 3.325-2.629 6.001-5.895 6.001h-92.18c-3.266 0-5.895 3.324-5.895 0v-58.897c0-4.374 2.629-7.051 7.695-7.051z"/>
                <rect height="66" rx="5.67" ry="5.67" width="66" x="1256.527" y="704.693"/>
                <rect height="66" rx="5.67" ry="5.67" width="66" x="1180.527" y="704.693"/>
                <rect height="66" rx="5.67" ry="5.67" width="66" x="1484.527" y="704.693"/>
                <rect height="66" rx="5.67" ry="5.67" width="66" x="1408.527" y="704.693"/>
                <rect height="66" rx="5.67" ry="5.67" width="66" x="1332.527" y="704.693"/>
            </g>
            <g transform="matrix(1.00006 0 0 1 -18.003 -76)">
                <rect height="66" rx="5.67" ry="5.67" width="66" x="762.527" y="704.693"/>
                <rect height="66" rx="5.67" ry="5.67" width="66" x="686.527" y="704.693"/>
                <rect height="66" rx="5.67" ry="5.67" width="66" x="610.527" y="704.693"/>
                <rect height="66" rx="5.67" ry="5.67" width="66" x="534.527" y="704.693"/>
                <rect height="66" rx="5.67" ry="5.67" width="66" x="458.527" y="704.693"/>
                <rect height="66" rx="5.67" ry="5.67" width="66" x="382.527" y="704.693"/>
                <rect height="66" rx="5.67" ry="5.67" width="66" x="306.527" y="704.693"/>
                <rect height="66" rx="5.67" ry="5.67" width="98" x="200.527" y="704.693"/>
                <rect height="66" rx="5.67" ry="5.67" width="66" x="124.527" y="704.693"/>
                <rect height="66" rx="5.67" ry="5.67" width="66" x="990.527" y="704.693"/>
                <rect height="66" rx="5.67" ry="5.67" width="66" x="914.527" y="704.693"/>
                <rect height="66" rx="5.67" ry="5.67" width="66" x="838.527" y="704.693"/>
                <rect height="66" rx="5.67" ry="5.67" width="66" x="1066.527" y="704.693"/>
                <rect height="66" rx="5.67" ry="5.67" width="66" x="1350.527" y="704.693"/>
                <rect height="66" rx="5.67" ry="5.67" width="66" x="1274.527" y="704.693"/>
                <rect height="66" rx="5.67" ry="5.67" width="66" x="1198.527" y="704.693"/>
                <rect height="66" rx="5.67" ry="5.67" width="66" x="1426.527" y="704.693"/>
                <rect height="66" rx="5.67" ry="5.67" width="66" x="1502.527" y="704.693"/>
            </g>
            <g transform="matrix(1.00006 0 0 1 -50.005 -152)">
                <rect height="66" rx="5.67" ry="5.67" width="66" x="762.527" y="704.693"/>
                <rect height="66" rx="5.67" ry="5.67" width="66" x="686.527" y="704.693"/>
                <rect height="66" rx="5.67" ry="5.67" width="66" x="610.527" y="704.693"/>
                <rect height="66" rx="5.67" ry="5.67" width="66" x="534.527" y="704.693"/>
                <rect height="66" rx="5.67" ry="5.67" width="66" x="458.527" y="704.693"/>
                <rect height="66" rx="5.67" ry="5.67" width="66" x="382.527" y="704.693"/>
                <rect height="66" rx="5.67" ry="5.67" width="66" x="306.527" y="704.693"/>
                <rect height="66" rx="5.67" ry="5.67" width="66" x="230.527" y="704.693"/>
                <rect height="66" rx="5.67" ry="5.67" width="66" x="154.527" y="704.693"/>
                <rect height="66" rx="5.67" ry="5.67" width="66" x="990.527" y="704.693"/>
                <rect height="66" rx="5.67" ry="5.67" width="66" x="914.527" y="704.693"/>
                <rect height="66" rx="5.67" ry="5.67" width="66" x="838.527" y="704.693"/>
                <rect height="66" rx="5.67" ry="5.67" width="66" x="1066.527" y="704.693"/>
                <rect height="66" rx="5.67" ry="5.67" width="78" x="1142.527" y="704.693"/>
                <rect height="66" rx="5.67" ry="5.67" width="66" x="1382.527" y="704.693"/>
                <rect height="66" rx="5.67" ry="5.67" width="66" x="1306.527" y="704.693"/>
                <rect height="66" rx="5.67" ry="5.67" width="66" x="1230.527" y="704.693"/>
                <rect height="66" rx="5.67" ry="5.67" width="66" x="1458.527" y="704.693"/>
                <rect height="66" rx="5.67" ry="5.67" width="66" x="1534.527" y="704.693"/>
            </g>
            <g transform="matrix(1.00006 0 0 1 -50.005 -228)">
                <rect height="66" rx="5.67" ry="5.67" width="66" x="762.527" y="704.693"/>
                <rect height="66" rx="5.67" ry="5.67" width="66" x="686.527" y="704.693"/>
                <rect height="66" rx="5.67" ry="5.67" width="66" x="610.527" y="704.693"/>
                <rect height="66" rx="5.67" ry="5.67" width="66" x="534.527" y="704.693"/>
                <rect height="66" rx="5.67" ry="5.67" width="66" x="382.527" y="704.693"/>
                <rect height="66" rx="5.67" ry="5.67" width="66" x="306.527" y="704.693"/>
                <rect height="66" rx="5.67" ry="5.67" width="66" x="230.527" y="704.693"/>
                <rect height="66" rx="5.67" ry="5.67" width="66" x="154.527" y="704.693"/>
                <rect height="66" rx="5.67" ry="5.67" width="66" x="990.527" y="704.693"/>
                <rect height="66" rx="5.67" ry="5.67" width="66" x="914.527" y="704.693"/>
                <rect height="66" rx="5.67" ry="5.67" width="66" x="1066.527" y="704.693"/>
                <rect height="66" rx="5.67" ry="5.67" width="66" x="1142.527" y="704.693"/>
                <rect height="66" rx="5.67" ry="5.67" width="102.5" x="1420.527" y="704.693"/>
                <rect height="66" rx="5.67" ry="5.67" width="66" x="1534.527" y="704.693"/>
                <rect height="66" rx="5.67" ry="5.67" width="102.5" x="1306.527" y="704.693"/>
            </g>
        </g>
        <rect fill="#f4f4f4" height="5.877" rx=".338" width="23.11" x="115.345" y="793.687"/>
        <rect fill="#f4f4f4" height="5.877" rx=".338" width="23.11" x="1266.129" y="639.652"/>
    </g>
</svg>
