<svg height="350.119" width="598.189" xmlns="http://www.w3.org/2000/svg">
    <g fill="#f4f4f4">
        <path d="M172.552 350.12c-5.794 0-10.489-4.696-10.49-10.489l.001-45.157c0-5.792 4.695-10.488 10.489-10.488h45.158c5.792 0 10.487 4.696 10.488 10.488v45.157c-.001 5.793-4.696 10.488-10.488 10.488zm-9.583-55.647v45.158a9.594 9.594 0 0 0 9.583 9.582h45.158a9.594 9.594 0 0 0 9.58-9.582l.002-45.158a9.596 9.596 0 0 0-9.582-9.582h-45.158a9.595 9.595 0 0 0-9.583 9.582z"/>
        <path d="M178.872 337.262a7.123 7.123 0 0 1-7.122-7.124v-32.515a7.123 7.123 0 0 1 7.122-7.123h32.516a7.123 7.123 0 0 1 7.122 7.123v32.515a7.123 7.123 0 0 1-7.122 7.124zm-6.216-39.639v32.515a6.226 6.226 0 0 0 6.216 6.218h32.516a6.225 6.225 0 0 0 6.216-6.218v-32.515a6.225 6.225 0 0 0-6.216-6.217h-32.516a6.227 6.227 0 0 0-6.216 6.217z"/>
    </g>
    <g fill="#f4f4f4">
        <path d="M242.762 350.12c-5.792 0-10.488-4.696-10.488-10.489v-45.157c0-5.792 4.696-10.488 10.488-10.488h45.158c5.792 0 10.488 4.696 10.488 10.488v45.157c0 5.793-4.696 10.488-10.488 10.488zm-9.582-55.647v45.158a9.594 9.594 0 0 0 9.582 9.582h45.158a9.593 9.593 0 0 0 9.582-9.582v-45.158a9.594 9.594 0 0 0-9.582-9.582h-45.158a9.595 9.595 0 0 0-9.582 9.582z"/>
        <path d="M249.084 337.262a7.124 7.124 0 0 1-7.123-7.124v-32.515a7.125 7.125 0 0 1 7.123-7.123h32.515a7.123 7.123 0 0 1 7.123 7.123v32.515a7.124 7.124 0 0 1-7.123 7.124zm-6.217-39.639v32.515a6.225 6.225 0 0 0 6.217 6.218h32.515a6.226 6.226 0 0 0 6.217-6.218v-32.515a6.226 6.226 0 0 0-6.217-6.217h-32.515a6.226 6.226 0 0 0-6.217 6.217z"/>
    </g>
    <g fill="#f4f4f4">
        <path d="M172.736 279.078c-5.793 0-10.488-4.695-10.489-10.488l.001-45.157c0-5.792 4.695-10.488 10.488-10.488h45.158c5.793 0 10.487 4.696 10.488 10.488v45.157c0 5.793-4.696 10.488-10.488 10.488zm-9.582-55.645v45.157a9.594 9.594 0 0 0 9.582 9.582h45.158a9.594 9.594 0 0 0 9.581-9.582l.001-45.157a9.596 9.596 0 0 0-9.582-9.582h-45.158a9.595 9.595 0 0 0-9.582 9.582z"/>
        <path d="M179.057 266.221a7.123 7.123 0 0 1-7.122-7.123v-32.515a7.123 7.123 0 0 1 7.122-7.124h32.515a7.123 7.123 0 0 1 7.123 7.124v32.515a7.123 7.123 0 0 1-7.123 7.123zm-6.217-39.638v32.515a6.226 6.226 0 0 0 6.217 6.217h32.515a6.225 6.225 0 0 0 6.217-6.217v-32.515a6.225 6.225 0 0 0-6.217-6.217h-32.515a6.227 6.227 0 0 0-6.217 6.217z"/>
    </g>
    <g fill="#f4f4f4">
        <path d="M242.947 279.078c-5.792 0-10.488-4.695-10.488-10.488v-45.157c0-5.792 4.696-10.488 10.488-10.488h45.158c5.792 0 10.487 4.696 10.487 10.488v45.157c0 5.793-4.695 10.488-10.487 10.488zm-9.582-55.645v45.157a9.594 9.594 0 0 0 9.582 9.582h45.158a9.593 9.593 0 0 0 9.582-9.582v-45.157a9.594 9.594 0 0 0-9.582-9.582h-45.158a9.595 9.595 0 0 0-9.582 9.582z"/>
        <path d="M249.268 266.221a7.124 7.124 0 0 1-7.122-7.123l-.001-32.515a7.125 7.125 0 0 1 7.123-7.124h32.516a7.123 7.123 0 0 1 7.122 7.124v32.515a7.124 7.124 0 0 1-7.122 7.123zm-6.216-39.638v32.515a6.225 6.225 0 0 0 6.216 6.217h32.516a6.226 6.226 0 0 0 6.217-6.217v-32.515a6.226 6.226 0 0 0-6.217-6.217h-32.516a6.226 6.226 0 0 0-6.216 6.217z"/>
    </g>
    <g fill="#f4f4f4">
        <path d="M313.158 279.078c-5.793 0-10.488-4.695-10.489-10.488l.001-45.157c0-5.792 4.695-10.487 10.488-10.487h45.157c5.793 0 10.488 4.695 10.488 10.487v45.157c0 5.793-4.695 10.488-10.488 10.488zm-9.582-55.645v45.157a9.594 9.594 0 0 0 9.582 9.582h45.157a9.594 9.594 0 0 0 9.582-9.582v-45.157a9.594 9.594 0 0 0-9.582-9.582h-45.157a9.593 9.593 0 0 0-9.582 9.582z"/>
        <path d="M312.357 259.098v-32.515a7.122 7.122 0 0 1 7.123-7.123h32.515a7.121 7.121 0 0 1 7.122 7.123v32.515a7.122 7.122 0 0 1-7.122 7.122l-32.515.001a7.124 7.124 0 0 1-7.123-7.123zm.905-32.515v32.515a6.226 6.226 0 0 0 6.218 6.217h32.515a6.227 6.227 0 0 0 6.218-6.217l-.002-32.515a6.226 6.226 0 0 0-6.216-6.217H319.48a6.227 6.227 0 0 0-6.218 6.217z"/>
    </g>
    <g fill="#f4f4f4">
        <path d="M172.644 208.603c-5.794 0-10.488-4.695-10.49-10.488l.002-45.157c0-5.793 4.694-10.489 10.488-10.489h45.158c5.792 0 10.487 4.696 10.488 10.489v45.157c0 5.793-4.696 10.488-10.488 10.488zm-9.582-55.646v45.157a9.594 9.594 0 0 0 9.582 9.582h45.158a9.594 9.594 0 0 0 9.581-9.582l.001-45.157a9.596 9.596 0 0 0-9.582-9.582h-45.158a9.595 9.595 0 0 0-9.582 9.582z"/>
        <path d="M178.965 195.746a7.123 7.123 0 0 1-7.122-7.124v-32.515a7.123 7.123 0 0 1 7.122-7.123h32.515a7.123 7.123 0 0 1 7.123 7.123v32.515a7.123 7.123 0 0 1-7.123 7.124zm-6.217-39.639v32.515a6.226 6.226 0 0 0 6.217 6.217h32.515a6.225 6.225 0 0 0 6.217-6.217v-32.515a6.225 6.225 0 0 0-6.217-6.217h-32.515a6.227 6.227 0 0 0-6.217 6.217z"/>
    </g>
    <g fill="#f4f4f4">
        <path d="M242.854 208.603c-5.792 0-10.488-4.695-10.488-10.488v-45.157c0-5.793 4.696-10.489 10.488-10.489h45.158c5.793 0 10.488 4.696 10.488 10.489v45.157c0 5.793-4.695 10.488-10.488 10.488zm-9.582-55.646v45.157a9.594 9.594 0 0 0 9.582 9.582h45.158a9.593 9.593 0 0 0 9.582-9.582v-45.157a9.594 9.594 0 0 0-9.582-9.582h-45.158a9.595 9.595 0 0 0-9.582 9.582z"/>
        <path d="M249.176 195.746a7.124 7.124 0 0 1-7.122-7.124l-.001-32.515a7.125 7.125 0 0 1 7.123-7.123h32.516a7.123 7.123 0 0 1 7.122 7.123v32.515a7.124 7.124 0 0 1-7.122 7.124zm-6.216-39.639v32.515a6.225 6.225 0 0 0 6.216 6.217h32.516a6.226 6.226 0 0 0 6.216-6.217v-32.515a6.226 6.226 0 0 0-6.216-6.217h-32.516a6.226 6.226 0 0 0-6.216 6.217z"/>
    </g>
    <g fill="#f4f4f4">
        <path d="M172.828 137.562c-5.793 0-10.488-4.695-10.489-10.488l.001-45.157c0-5.792 4.695-10.488 10.488-10.488h45.158c5.793 0 10.488 4.696 10.489 10.488v45.157c-.001 5.793-4.696 10.488-10.489 10.488zm-9.582-55.646v45.157a9.594 9.594 0 0 0 9.582 9.583h45.158a9.594 9.594 0 0 0 9.582-9.583V81.916a9.596 9.596 0 0 0-9.582-9.582h-45.158a9.595 9.595 0 0 0-9.582 9.582z"/>
        <path d="M179.15 124.705a7.123 7.123 0 0 1-7.123-7.124V85.066a7.123 7.123 0 0 1 7.122-7.123h32.516a7.123 7.123 0 0 1 7.122 7.123v32.515a7.123 7.123 0 0 1-7.122 7.124zm-6.217-39.639v32.515a6.226 6.226 0 0 0 6.216 6.217h32.516a6.225 6.225 0 0 0 6.216-6.217V85.066a6.225 6.225 0 0 0-6.216-6.217h-32.516a6.227 6.227 0 0 0-6.216 6.217z"/>
    </g>
    <g fill="#f4f4f4">
        <path d="M243.04 137.562c-5.793 0-10.49-4.695-10.49-10.488V81.917c0-5.792 4.697-10.488 10.49-10.488h45.157c5.792 0 10.488 4.696 10.488 10.488v45.157c0 5.793-4.696 10.488-10.488 10.488zm-9.583-55.646v45.157a9.594 9.594 0 0 0 9.582 9.583h45.158a9.593 9.593 0 0 0 9.582-9.583V81.916a9.594 9.594 0 0 0-9.582-9.582h-45.158a9.595 9.595 0 0 0-9.582 9.582z"/>
        <path d="M249.36 124.705a7.124 7.124 0 0 1-7.122-7.124V85.066a7.125 7.125 0 0 1 7.123-7.123h32.515A7.123 7.123 0 0 1 289 85.066v32.515a7.124 7.124 0 0 1-7.123 7.124zm-6.216-39.639v32.515a6.225 6.225 0 0 0 6.217 6.217h32.515a6.226 6.226 0 0 0 6.217-6.217V85.066a6.226 6.226 0 0 0-6.217-6.217h-32.515a6.226 6.226 0 0 0-6.217 6.217z"/>
    </g>
    <g fill="#f4f4f4">
        <path d="M313.25 137.562c-5.793 0-10.488-4.695-10.488-10.488V81.917c0-5.793 4.695-10.488 10.489-10.488h45.157c5.792 0 10.487 4.695 10.487 10.488v45.157c0 5.793-4.695 10.488-10.487 10.488zm-9.582-55.646v45.157a9.594 9.594 0 0 0 9.583 9.583h45.157a9.594 9.594 0 0 0 9.581-9.583V81.916a9.594 9.594 0 0 0-9.581-9.581H313.25a9.593 9.593 0 0 0-9.583 9.581z"/>
        <path d="M312.449 117.581V85.067a7.122 7.122 0 0 1 7.123-7.124h32.515a7.121 7.121 0 0 1 7.122 7.124v32.514a7.122 7.122 0 0 1-7.122 7.123h-32.515a7.124 7.124 0 0 1-7.123-7.123zm.905-32.514v32.514a6.226 6.226 0 0 0 6.218 6.217h32.515a6.227 6.227 0 0 0 6.218-6.217l-.002-32.514a6.226 6.226 0 0 0-6.216-6.218h-32.515a6.227 6.227 0 0 0-6.218 6.218z"/>
    </g>
    <g fill="#f4f4f4">
        <path d="M313.066 208.603c-5.793 0-10.488-4.695-10.49-10.488l.002-45.157c0-5.793 4.695-10.488 10.488-10.488h45.157c5.793 0 10.488 4.695 10.488 10.488v45.157c0 5.793-4.695 10.488-10.488 10.488zm-9.582-55.646v45.157a9.594 9.594 0 0 0 9.582 9.582h45.157a9.594 9.594 0 0 0 9.582-9.582v-45.157a9.594 9.594 0 0 0-9.582-9.582h-45.157a9.593 9.593 0 0 0-9.582 9.582z"/>
        <path d="M312.264 188.622v-32.514a7.122 7.122 0 0 1 7.124-7.124h32.514a7.121 7.121 0 0 1 7.122 7.124v32.514a7.122 7.122 0 0 1-7.122 7.123h-32.514a7.124 7.124 0 0 1-7.124-7.123zm.906-32.514v32.514a6.226 6.226 0 0 0 6.218 6.217h32.514a6.227 6.227 0 0 0 6.218-6.217l-.001-32.514a6.226 6.226 0 0 0-6.217-6.218h-32.514a6.227 6.227 0 0 0-6.218 6.218z"/>
    </g>
    <g fill="#e6e6e6">
        <path d="M383.416 350.247c-5.794 0-10.489-4.695-10.49-10.488l.001-116.42c0-5.793 4.695-10.488 10.489-10.488h45.157c5.792 0 10.487 4.695 10.487 10.488v116.42c0 5.793-4.695 10.488-10.487 10.488zm-9.583-126.909v116.42a9.594 9.594 0 0 0 9.583 9.583h45.157a9.594 9.594 0 0 0 9.581-9.582v-116.42a9.594 9.594 0 0 0-9.581-9.582h-45.157a9.593 9.593 0 0 0-9.583 9.581z"/>
        <path d="M382.614 312.723v-64.137a7.122 7.122 0 0 1 7.123-7.124h32.515a7.121 7.121 0 0 1 7.122 7.124v64.137a7.122 7.122 0 0 1-7.122 7.123h-32.515a7.124 7.124 0 0 1-7.123-7.123zm.905-64.137v64.137a6.226 6.226 0 0 0 6.218 6.218h32.515a6.227 6.227 0 0 0 6.218-6.218l-.002-64.137a6.226 6.226 0 0 0-6.216-6.218h-32.515a6.227 6.227 0 0 0-6.218 6.218z"/>
    </g>
    <g fill="#e6e6e6">
        <path d="M383.508 137.468c-5.793 0-10.488-4.695-10.49-10.489l.002-45.157c0-5.792 4.695-10.487 10.488-10.487h45.157c5.792 0 10.488 4.695 10.488 10.487v45.157c0 5.794-4.696 10.489-10.488 10.489zm-9.582-55.646v45.157a9.594 9.594 0 0 0 9.582 9.582h45.157a9.594 9.594 0 0 0 9.582-9.582V81.822a9.594 9.594 0 0 0-9.582-9.582h-45.157a9.593 9.593 0 0 0-9.582 9.582z"/>
        <path d="M382.706 117.487V84.972a7.122 7.122 0 0 1 7.123-7.123h32.515a7.121 7.121 0 0 1 7.122 7.123v32.515a7.122 7.122 0 0 1-7.122 7.123h-32.515a7.124 7.124 0 0 1-7.123-7.123zm.906-32.515v32.515a6.226 6.226 0 0 0 6.217 6.217h32.515a6.227 6.227 0 0 0 6.218-6.217l-.001-32.515a6.226 6.226 0 0 0-6.217-6.217h-32.515a6.227 6.227 0 0 0-6.217 6.217z"/>
    </g>
    <g fill="#e6e6e6">
        <path d="M383.323 208.508c-5.793 0-10.488-4.695-10.489-10.488l.001-45.157c0-5.793 4.695-10.488 10.488-10.488h45.157c5.793 0 10.488 4.695 10.488 10.488v45.157c0 5.793-4.695 10.488-10.488 10.488zm-9.582-55.645v45.157a9.594 9.594 0 0 0 9.582 9.582h45.157a9.594 9.594 0 0 0 9.582-9.582v-45.157a9.594 9.594 0 0 0-9.582-9.582h-45.157a9.593 9.593 0 0 0-9.582 9.582z"/>
        <path d="M382.521 188.528v-32.515a7.122 7.122 0 0 1 7.124-7.123h32.514a7.121 7.121 0 0 1 7.123 7.123v32.515a7.122 7.122 0 0 1-7.123 7.122l-32.514.001a7.124 7.124 0 0 1-7.124-7.123zm.906-32.515v32.515a6.226 6.226 0 0 0 6.218 6.217h32.514a6.227 6.227 0 0 0 6.218-6.217v-32.515a6.226 6.226 0 0 0-6.218-6.217h-32.514a6.227 6.227 0 0 0-6.218 6.217z"/>
    </g>
    <g fill="#e6e6e6">
        <path d="M243.15 66.227c-5.792 0-10.488-4.695-10.488-10.488V10.582c0-5.792 4.696-10.488 10.488-10.488h45.158c5.792 0 10.488 4.696 10.488 10.488V55.74c0 5.793-4.696 10.488-10.488 10.488zm-9.582-55.645v45.157a9.594 9.594 0 0 0 9.582 9.582h45.158a9.593 9.593 0 0 0 9.582-9.582V10.582a9.594 9.594 0 0 0-9.582-9.583H243.15a9.595 9.595 0 0 0-9.582 9.583z"/>
        <path d="M249.472 53.37a7.124 7.124 0 0 1-7.123-7.123V13.732a7.125 7.125 0 0 1 7.123-7.124h32.515a7.123 7.123 0 0 1 7.123 7.124v32.515a7.124 7.124 0 0 1-7.123 7.123zm-6.217-39.638v32.515a6.225 6.225 0 0 0 6.217 6.217h32.515a6.226 6.226 0 0 0 6.217-6.217V13.732a6.226 6.226 0 0 0-6.217-6.217h-32.515a6.226 6.226 0 0 0-6.217 6.217z"/>
    </g>
    <g fill="#e6e6e6">
        <path d="M313.362 66.227c-5.793 0-10.488-4.695-10.49-10.488l.002-45.157c0-5.793 4.695-10.488 10.488-10.488h45.157c5.792 0 10.487 4.695 10.487 10.488V55.74c0 5.793-4.695 10.488-10.487 10.488zm-9.583-55.645v45.157a9.594 9.594 0 0 0 9.583 9.582h45.157a9.594 9.594 0 0 0 9.582-9.582V10.582A9.594 9.594 0 0 0 358.519 1h-45.157a9.593 9.593 0 0 0-9.583 9.582z"/>
        <path d="M312.56 46.247V13.732a7.122 7.122 0 0 1 7.123-7.123h32.515a7.121 7.121 0 0 1 7.122 7.123v32.515a7.122 7.122 0 0 1-7.122 7.122l-32.515.001a7.124 7.124 0 0 1-7.123-7.123zm.905-32.515v32.515a6.226 6.226 0 0 0 6.218 6.217h32.515a6.227 6.227 0 0 0 6.218-6.217l-.001-32.515a6.226 6.226 0 0 0-6.217-6.217h-32.515a6.227 6.227 0 0 0-6.218 6.217z"/>
    </g>
    <g fill="#e6e6e6">
        <path d="M383.619 66.133c-5.793 0-10.488-4.695-10.49-10.488l.002-45.157C373.13 4.695 377.826 0 383.619 0h45.157c5.793 0 10.488 4.695 10.488 10.488v45.157c0 5.793-4.695 10.488-10.488 10.488zm-9.582-55.646v45.157a9.594 9.594 0 0 0 9.582 9.583h45.157a9.594 9.594 0 0 0 9.582-9.583V10.487a9.594 9.594 0 0 0-9.582-9.582h-45.157a9.593 9.593 0 0 0-9.582 9.582z"/>
        <path d="M382.817 46.152V13.638a7.122 7.122 0 0 1 7.124-7.124h32.514a7.121 7.121 0 0 1 7.122 7.124v32.514a7.122 7.122 0 0 1-7.122 7.123h-32.514a7.124 7.124 0 0 1-7.124-7.123zm.906-32.514v32.514a6.226 6.226 0 0 0 6.218 6.217h32.514a6.227 6.227 0 0 0 6.218-6.217l-.001-32.514a6.226 6.226 0 0 0-6.217-6.218h-32.514a6.227 6.227 0 0 0-6.218 6.218z"/>
    </g>
    <g fill="#f4f4f4">
        <path d="M194.612 321.002q-2.353 0-3.46-1.681-1.105-1.681-1.105-5.246 0-3.566 1.106-5.256 1.114-1.69 3.459-1.69 2.327 0 3.441 1.7 1.115 1.689 1.115 5.228 0 3.574-1.106 5.264-1.106 1.68-3.45 1.68zm0-12.519q-1.513 0-2.194 1.203-.681 1.195-.681 4.389 0 3.167.68 4.37.682 1.203 2.195 1.203t2.185-1.203q.681-1.203.681-4.388 0-3.123-.672-4.344-.672-1.23-2.194-1.23zM198.272 249.524h-7.096v-1.221h2.778v-9.166h-2.778v-1.08q1.628-.008 2.327-.46.699-.46.787-1.45h1.257v12.156h2.725zM269.536 249.456h-8.918v-1.725q1.415-1.221 3.176-2.84 1.77-1.62 2.627-2.849.859-1.23.859-2.46 0-1.088-.726-1.698-.716-.61-1.955-.61-1.814 0-3.566 1.15h-.088v-1.726q1.787-.849 3.698-.849 2.017 0 3.176.982 1.16.973 1.16 2.663 0 .902-.302 1.725-.292.823-.92 1.602-.628.778-1.504 1.654-.876.876-4.025 3.557h7.308zM331.035 248.529v-1.779h.142q1.796 1.186 3.715 1.186 1.416 0 2.265-.77.858-.77.858-2.14 0-1.275-.743-1.876-.743-.602-2.406-.602h-.779v-1.362h.602q1.433 0 2.247-.61.814-.611.814-1.717 0-.938-.717-1.442-.707-.513-1.955-.513-1.796 0-3.565 1.159h-.098v-1.743q1.788-.84 3.707-.84 2.062 0 3.185.866 1.133.858 1.133 2.327 0 1.08-.752 1.929t-1.885 1.08v.14q2.911.523 2.911 3.354 0 1.831-1.336 3.008-1.336 1.176-3.441 1.176-2.009 0-3.902-.831zM198.487 175.378h-1.955v3.84h-1.593v-3.84h-6.414v-1.858l6.485-7.635h1.522v8.184h1.955zm-3.548-1.31v-6.237l-5.299 6.238zM260.49 178.508v-1.77h.142q1.725 1.124 3.592 1.124 1.433 0 2.291-.814.867-.823.867-2.265 0-2.619-3.592-2.619-1.026 0-2.725.354v-6.839h7.919v1.434h-6.326v3.777q1.168-.115 1.575-.115 2.38 0 3.61 1.027 1.23 1.026 1.23 2.99 0 1.982-1.337 3.238-1.327 1.256-3.477 1.256-2.088 0-3.769-.778zM338.152 165.83v1.567h-.106q-.743-.363-1.734-.363-1.955 0-3.123 1.247-1.168 1.239-1.363 3.45 1.673-1 3.256-1 1.938 0 3.141 1.08 1.212 1.07 1.212 3.08 0 1.999-1.31 3.29-1.309 1.292-3.255 1.292-2.256 0-3.512-1.566-1.248-1.575-1.248-4.556 0-3.672 1.672-5.698 1.681-2.035 4.795-2.035.938 0 1.575.213zm-6.326 7.034q-.035.726-.035.876 0 2.106.823 3.256.823 1.141 2.274 1.141 1.336 0 2.096-.832.761-.84.761-2.344 0-1.248-.716-2.062-.717-.813-2.38-.813-1.442 0-2.823.778zM199.283 96.878l-5.981 11.483h-1.778l6.36-11.9h-7.617V95.03h9.016zM262.58 101.203v-.106q-2.114-1.15-2.114-2.981 0-1.513 1.221-2.495 1.221-.982 3.105-.982 1.956 0 3.141.929 1.186.928 1.186 2.433 0 .973-.593 1.83-.584.85-1.628 1.328v.115q2.575 1.106 2.575 3.309 0 1.716-1.336 2.857-1.336 1.133-3.345 1.133-2.132 0-3.406-1.088-1.274-1.097-1.274-2.867 0-2.309 2.469-3.415zm4.902-3.194q0-.955-.734-1.566-.735-.61-1.964-.61-1.168 0-1.911.575-.735.566-.735 1.495 0 1.026.92 1.69.92.664 2.796 1.239 1.628-1.053 1.628-2.823zm-3.822 3.513q-1.867 1.053-1.867 2.972 0 1.283.85 2.08.849.787 2.167.787 1.354 0 2.15-.69.796-.7.796-1.911 0-.823-.362-1.318-.363-.505-1.062-.85-.69-.345-2.672-1.07zM331.857 107.618v-1.566h.106q.743.354 1.734.354 4.087 0 4.494-4.734-1.77 1.062-3.255 1.062-2.018 0-3.194-1.115-1.168-1.123-1.168-3.07 0-2 1.31-3.29 1.309-1.293 3.255-1.293 2.22 0 3.486 1.531 1.274 1.522 1.274 4.592 0 3.68-1.672 5.706-1.672 2.026-4.796 2.026-.92 0-1.574-.203zm6.334-7.06.027-.788q0-2.159-.796-3.309-.797-1.159-2.3-1.159-1.319 0-2.089.85-.77.84-.77 2.327 0 1.274.717 2.096.717.814 2.371.814 1.354 0 2.84-.831zM266.438 311.146l-2.495 5.689h-1.186l1.557-5.69z"/>
    </g>
    <path d="M411.41 29.487h-11.82v-1.31h11.82zM410.526 101.34h-4.875v4.875h-1.362v-4.875h-4.875v-1.31h4.875v-4.874h1.362v4.875h4.875zM339.534 27.358l-3.566 1.947 3.557 1.981-.61 1.08-3.477-2.106.08 4.025h-1.248l.08-4.025-3.477 2.106-.61-1.08 3.556-1.981-3.566-1.947.62-1.08 3.476 2.071-.08-4.017h1.248l-.08 4.017 3.478-2.07zM257.465 34.519l15.43-12.881.778.92-15.43 12.881zM410.567 170.094h-10.493v-1.728h10.493zm0 4.905h-10.493v-1.728h10.493z" fill="#e6e6e6"/>
    <g fill="#e6e6e6">
        <path d="M172.816 66.148c-5.793 0-10.489-4.696-10.489-10.489V10.502c0-5.792 4.696-10.488 10.489-10.488h45.158c5.792 0 10.487 4.696 10.487 10.488V55.66c0 5.793-4.695 10.489-10.487 10.489zm-9.583-55.646v45.157a9.594 9.594 0 0 0 9.583 9.582h45.158a9.593 9.593 0 0 0 9.581-9.582V10.502A9.594 9.594 0 0 0 217.974.92h-45.158a9.595 9.595 0 0 0-9.583 9.582z"/>
        <path d="M179.137 53.29a7.124 7.124 0 0 1-7.122-7.123l-.001-32.515a7.125 7.125 0 0 1 7.123-7.124h32.516a7.123 7.123 0 0 1 7.122 7.124v32.515a7.124 7.124 0 0 1-7.122 7.123zm-6.216-39.638v32.515a6.225 6.225 0 0 0 6.216 6.217h32.516a6.226 6.226 0 0 0 6.216-6.217V13.652a6.226 6.226 0 0 0-6.216-6.217h-32.516a6.226 6.226 0 0 0-6.216 6.217z"/>
    </g>
    <path d="M335.867 314.82h-2.009v-2.415h2.009z" fill="#f4f4f4"/>
    <g fill="#e6e6e6">
        <path d="M387.655 275.945h5.472v1.453h-4.301v3.777h4.122v1.452h-4.122v4.623h4.406v1.453h-5.577zM395.168 275.945h1.577l3.837 10.673v-10.673h1.137v12.758h-1.577l-3.838-10.673v10.673h-1.136zM402.849 275.945h7.322v1.453h-3.073v11.305h-1.177v-11.305h-3.072zM411.307 275.945h5.472v1.453h-4.301v3.777h4.121v1.452h-4.121v4.623h4.405v1.453h-5.576zM422.924 282.721q.377.188.73.804.36.615.72 1.692l1.188 3.486h-1.258l-1.108-3.273q-.429-1.282-.834-1.7-.4-.419-1.096-.419h-1.275v5.392h-1.171v-12.758h2.643q1.484 0 2.214.915.73.914.73 2.76 0 1.204-.382 2-.376.794-1.101 1.101zm-2.933-5.357v4.529h1.472q.846 0 1.275-.573.435-.581.435-1.7 0-1.12-.435-1.684-.429-.572-1.275-.572z"/>
    </g>
    <g fill="#e6e6e6">
        <path d="M188.614 23.891v1.82q-.871-.812-1.862-1.213-.983-.402-2.094-.402-2.187 0-3.35 1.342-1.162 1.333-1.162 3.862 0 2.52 1.163 3.862 1.162 1.333 3.35 1.333 1.11 0 2.093-.401.99-.402 1.862-1.214v1.803q-.905.616-1.922.923-1.008.308-2.136.308-2.897 0-4.563-1.769-1.667-1.777-1.667-4.845 0-3.076 1.667-4.845 1.666-1.777 4.563-1.777 1.145 0 2.153.307 1.017.3 1.905.906zM191.298 22.908h1.726v11.305h6.212v1.453h-7.938zM207.089 29.685q.555.188 1.076.803.53.615 1.06 1.692l1.752 3.486h-1.855l-1.632-3.273q-.632-1.281-1.23-1.7-.59-.419-1.615-.419h-1.88v5.392h-1.726V22.908h3.896q2.188 0 3.264.915 1.077.914 1.077 2.76 0 1.205-.564 2-.555.794-1.623 1.102zm-4.324-5.358v4.529h2.17q1.248 0 1.88-.573.641-.58.641-1.7t-.64-1.684q-.633-.572-1.88-.572z"/>
    </g>
    <g fill="#f4f4f4">
        <path d="M312.974 350.12c-5.793 0-10.488-4.696-10.49-10.489l.002-45.157c0-5.793 4.695-10.488 10.488-10.488h45.157c5.792 0 10.488 4.695 10.488 10.488v45.157c0 5.793-4.696 10.488-10.488 10.488zm-9.582-55.647v45.158a9.594 9.594 0 0 0 9.582 9.582h45.157a9.594 9.594 0 0 0 9.582-9.582v-45.158a9.594 9.594 0 0 0-9.582-9.581h-45.157a9.593 9.593 0 0 0-9.582 9.581z"/>
        <path d="M312.172 330.138v-32.514a7.122 7.122 0 0 1 7.123-7.124h32.515a7.121 7.121 0 0 1 7.122 7.124v32.514a7.122 7.122 0 0 1-7.122 7.123h-32.515a7.124 7.124 0 0 1-7.123-7.123zm.905-32.514v32.514a6.226 6.226 0 0 0 6.218 6.218h32.515a6.227 6.227 0 0 0 6.218-6.218l-.001-32.514a6.226 6.226 0 0 0-6.217-6.218h-32.515a6.227 6.227 0 0 0-6.218 6.218z"/>
    </g>
</svg>
