<svg version="1.0" xmlns="http://www.w3.org/2000/svg" width="21.775" height="20.762" xml:space="preserve">
    <path fill="#393A3B" d="M8.71 2.076c-.182 0-.363.14-.501.419L6.35 6.261c-.276.56-1.008 1.091-1.624 1.18l-4.154.604c-.618.09-.757.519-.31.955l3.007 2.931c.446.437.726 1.295.62 1.909l-.71 4.14c-.077.446.094.708.404.708a.903.903 0 0 0 .407-.117l3.717-1.956c.276-.145.641-.216 1.003-.216.364 0 .729.072 1.004.216l3.718 1.956a.893.893 0 0 0 .406.117c.312 0 .481-.262.405-.708l-.711-4.14c-.104-.614.174-1.474.619-1.909L17.16 9c.446-.437.307-.865-.311-.955l-4.154-.604c-.617-.089-1.349-.62-1.624-1.18L9.213 2.495c-.139-.279-.32-.419-.503-.419z"/>
</svg>
