<?xml version="1.0" encoding="UTF-8" standalone="no"?>
<svg
   id="svg8"
   version="1.1"
   viewBox="0 0 126.99322 34.039472"
   height="128.65312"
   width="479.9744"
   sodipodi:docname="easyrpg.svg"
   inkscape:version="1.1 (c68e22c387, 2021-05-23)"
   xmlns:inkscape="http://www.inkscape.org/namespaces/inkscape"
   xmlns:sodipodi="http://sodipodi.sourceforge.net/DTD/sodipodi-0.dtd"
   xmlns="http://www.w3.org/2000/svg"
   xmlns:svg="http://www.w3.org/2000/svg"
   xmlns:rdf="http://www.w3.org/1999/02/22-rdf-syntax-ns#"
   xmlns:cc="http://creativecommons.org/ns#"
   xmlns:dc="http://purl.org/dc/elements/1.1/">
  <sodipodi:namedview
     id="namedview153"
     pagecolor="#ffffff"
     bordercolor="#111111"
     borderopacity="1"
     inkscape:pageshadow="0"
     inkscape:pageopacity="0"
     inkscape:pagecheckerboard="1"
     showgrid="false"
     inkscape:zoom="1.0166667"
     inkscape:cx="60.491801"
     inkscape:cy="59.999998"
     inkscape:window-width="1280"
     inkscape:window-height="738"
     inkscape:window-x="-8"
     inkscape:window-y="-8"
     inkscape:window-maximized="1"
     inkscape:current-layer="layer3"
     fit-margin-top="0"
     fit-margin-left="0"
     fit-margin-right="0"
     fit-margin-bottom="0" />
  <defs
     id="defs2">
    <radialGradient
       id="SVGID_1_"
       cx="405.43951"
       cy="337.29099"
       r="226.5"
       gradientUnits="userSpaceOnUse">
      <stop
         offset="0"
         style="stop-color:#D8EDCA"
         id="stop9" />
      <stop
         offset="1"
         style="stop-color:#9EBF88"
         id="stop11" />
    </radialGradient>
    <radialGradient
       id="SVGID_2_"
       cx="410.16501"
       cy="300.78909"
       r="270.06439"
       gradientUnits="userSpaceOnUse">
      <stop
         offset="0"
         style="stop-color:#688C51"
         id="stop16" />
      <stop
         offset="0.4749"
         style="stop-color:#587B42"
         id="stop18" />
      <stop
         offset="1"
         style="stop-color:#42632D"
         id="stop20" />
    </radialGradient>
    <linearGradient
       id="SVGID_3_"
       gradientUnits="userSpaceOnUse"
       x1="265.50101"
       y1="95.265602"
       x2="380.50079"
       y2="330.26489">
      <stop
         offset="0"
         style="stop-color:#FFFFFF"
         id="stop25" />
      <stop
         offset="1"
         style="stop-color:#FFFFFF"
         id="stop27" />
    </linearGradient>
    <linearGradient
       id="SVGID_4_"
       gradientUnits="userSpaceOnUse"
       x1="265.51169"
       y1="95.2603"
       x2="380.5116"
       y2="330.25949">
      <stop
         offset="0"
         style="stop-color:#FFFFFF"
         id="stop32" />
      <stop
         offset="1"
         style="stop-color:#FFFFFF"
         id="stop34" />
    </linearGradient>
    <radialGradient
       id="SVGID_1_-3"
       cx="405.43951"
       cy="337.29099"
       r="226.5"
       gradientUnits="userSpaceOnUse">
      <stop
         offset="0"
         style="stop-color:#D8EDCA"
         id="stop9-6" />
      <stop
         offset="1"
         style="stop-color:#9EBF88"
         id="stop11-7" />
    </radialGradient>
    <radialGradient
       id="SVGID_2_-5"
       cx="410.16501"
       cy="300.78909"
       r="270.06439"
       gradientUnits="userSpaceOnUse">
      <stop
         offset="0"
         style="stop-color:#688C51"
         id="stop16-3" />
      <stop
         offset="0.4749"
         style="stop-color:#587B42"
         id="stop18-5" />
      <stop
         offset="1"
         style="stop-color:#42632D"
         id="stop20-6" />
    </radialGradient>
    <linearGradient
       id="SVGID_3_-2"
       gradientUnits="userSpaceOnUse"
       x1="265.50101"
       y1="95.265602"
       x2="380.50079"
       y2="330.26489">
      <stop
         offset="0"
         style="stop-color:#FFFFFF"
         id="stop25-9" />
      <stop
         offset="1"
         style="stop-color:#FFFFFF"
         id="stop27-1" />
    </linearGradient>
    <linearGradient
       id="SVGID_4_-2"
       gradientUnits="userSpaceOnUse"
       x1="265.51169"
       y1="95.2603"
       x2="380.5116"
       y2="330.25949">
      <stop
         offset="0"
         style="stop-color:#FFFFFF"
         id="stop32-7" />
      <stop
         offset="1"
         style="stop-color:#FFFFFF"
         id="stop34-0" />
    </linearGradient>
  </defs>
  <metadata
     id="metadata5">
    <rdf:RDF>
      <cc:Work
         rdf:about="">
        <dc:format>image/svg+xml</dc:format>
        <dc:type
           rdf:resource="http://purl.org/dc/dcmitype/StillImage" />
      </cc:Work>
    </rdf:RDF>
  </metadata>
  <g
     transform="translate(-20.511366,-217.50726)"
     id="layer1">
    <g
       id="layer3"
       style="opacity:0.940083"
       transform="matrix(0.10542115,0,0,0.10542115,105.15752,283.29922)">
      <g
         id="g41"
         transform="matrix(0.56647428,0,0,0.56647428,-868.6598,-637.58717)">
        <path
           d="m 682.256,371.344 c -5.95,-22.158 -15.966,-41.487 -30.027,-58.002 -4.224,-83.34 -48.864,-156.008 -114.702,-198.825 0.009,-0.362 0.03,-0.718 0.03,-1.083 0,-10.023 -4,-19.25 -12,-27.672 -30.406,-31.281 -67.406,-46.93 -111,-46.93 -43.203,0 -79.501,14.719 -108.899,44.156 -4.755,4.76 -9.119,9.704 -13.105,14.826 -85.685,40.38 -144.996,127.516 -144.996,228.518 0,5.421 0.191,10.797 0.527,16.133 -4.942,4.795 -8.571,11.083 -10.875,18.877 -11.887,41.973 -6.939,81.84 14.857,119.594 21.602,37.414 52.497,61.488 92.689,72.23 18.347,4.905 36.408,6.426 54.185,4.585 30.963,13.548 65.158,21.081 101.117,21.081 46.198,0 89.493,-12.417 126.745,-34.081 3.282,4.959 7.652,9.033 13.138,12.2 8.682,5.012 18.672,6.16 29.965,3.443 42.293,-10.691 74.346,-34.91 96.143,-72.664 21.6,-37.414 27.001,-76.207 16.208,-116.386 z"
           id="path5"
           style="fill:#b3b3b3;fill-opacity:0;stroke:#e6e6e6;stroke-width:30;stroke-opacity:0.886275" />
        <radialGradient
           id="radialGradient373"
           cx="405.43951"
           cy="337.29099"
           r="226.5"
           gradientUnits="userSpaceOnUse">
          <stop
             offset="0"
             style="stop-color:#D8EDCA"
             id="stop369" />
          <stop
             offset="1"
             style="stop-color:#9EBF88"
             id="stop371" />
        </radialGradient>
        <radialGradient
           id="radialGradient382"
           cx="410.16501"
           cy="300.78909"
           r="270.06439"
           gradientUnits="userSpaceOnUse">
          <stop
             offset="0"
             style="stop-color:#688C51"
             id="stop376" />
          <stop
             offset="0.4749"
             style="stop-color:#587B42"
             id="stop378" />
          <stop
             offset="1"
             style="stop-color:#42632D"
             id="stop380" />
        </radialGradient>
        <path
           d="m 683.139,371.803 c -10.791,-40.186 -34.926,-71.087 -72.387,-92.716 -37.463,-21.629 -76.373,-27.125 -116.746,-16.479 -4.532,1.195 -8.94,2.567 -13.236,4.1 -3.688,-0.938 -7.661,-1.416 -11.932,-1.416 H 415.44 c -20,0 -37,-7.117 -51,-21.359 -14,-14.234 -21,-31.383 -21,-51.445 0,-20.047 6.992,-37.094 20.984,-51.133 13.984,-14.039 30.977,-21.063 50.969,-21.063 5.188,0 10.383,0.547 15.586,1.633 l -43.063,42.75 c -8.852,8.734 -13.273,18.055 -13.273,27.969 0,11.109 4.094,20.828 12.297,29.156 8.203,8.328 17.899,12.492 29.102,12.492 10,0 19.398,-4.031 28.203,-12.102 l 76.797,-75.203 c 11.594,-8.82 17.398,-19.852 17.398,-33.094 0,-10.023 -4,-19.25 -12,-27.672 -30.406,-31.281 -67.406,-46.93 -111,-46.93 -43.204,0 -79.5,14.719 -108.899,44.156 -29.406,29.438 -44.102,65.789 -44.102,109.047 0,43.258 14.695,79.703 44.102,109.344 3.539,3.568 7.181,6.917 10.92,10.055 1.031,3.403 2.527,6.821 4.51,10.256 l 26.699,46.245 c 10,17.32 12.336,35.602 7.002,54.846 -5.327,19.242 -16.678,33.879 -34.053,43.91 -17.361,10.023 -35.621,12.49 -54.775,7.393 -19.15,-5.092 -33.729,-16.295 -43.725,-33.609 -2.594,-4.492 -4.718,-9.264 -6.379,-14.314 l 58.554,15.92 c 11.99,3.297 22.272,2.467 30.858,-2.49 9.621,-5.555 15.991,-13.959 19.102,-25.227 3.111,-11.27 1.869,-21.748 -3.732,-31.449 -5,-8.66 -13.19,-14.785 -24.582,-18.375 L 193.414,336.093 c -13.436,-5.63 -25.891,-5.141 -37.359,1.48 -8.681,5.012 -14.671,13.089 -17.964,24.229 -11.887,41.973 -6.939,81.84 14.857,119.594 21.602,37.414 52.497,61.488 92.69,72.23 40.197,10.748 79.026,5.299 116.488,-16.33 37.461,-21.629 61.677,-52.578 72.643,-92.865 1.277,-4.691 2.324,-9.361 3.16,-14.012 2.413,-2.584 4.609,-5.572 6.578,-8.984 l 26.699,-46.244 c 10,-17.32 24.664,-28.484 43.998,-33.487 19.328,-5.007 37.678,-2.495 55.053,7.536 17.361,10.023 28.629,24.602 33.791,43.74 5.166,19.129 2.752,37.357 -7.244,54.67 -2.594,4.494 -5.666,8.719 -9.207,12.682 l -15.492,-58.668 c -3.137,-12.033 -8.998,-20.521 -17.584,-25.479 -9.621,-5.555 -20.084,-6.869 -31.398,-3.93 -11.314,2.941 -19.768,9.254 -25.369,18.957 -5,8.66 -6.209,18.814 -3.621,30.475 l 26.729,104.111 c 1.842,14.449 8.492,24.992 19.961,31.613 8.682,5.012 18.672,6.16 29.965,3.443 42.293,-10.691 74.346,-34.91 96.143,-72.664 21.6,-37.415 27.001,-76.208 16.208,-116.387 z"
           id="path23"
           style="fill:#ffffff;stroke:#ffffff;stroke-width:5;stroke-opacity:1" />
        <g
           id="g39"
           transform="translate(1.3073694,0.87176282)"
           style="fill:#cccccc">
          <linearGradient
             id="linearGradient389"
             gradientUnits="userSpaceOnUse"
             x1="265.50101"
             y1="95.265602"
             x2="380.50079"
             y2="330.26489">
            <stop
               offset="0"
               style="stop-color:#FFFFFF"
               id="stop385" />
            <stop
               offset="1"
               style="stop-color:#FFFFFF"
               id="stop387" />
          </linearGradient>
          <path
             d="m 137.208,361.342 c 2.304,-7.794 5.933,-14.082 10.875,-18.877 -0.336,-5.336 -0.527,-10.712 -0.527,-16.133 0,-101.002 59.312,-188.137 144.996,-228.518 3.986,-5.122 8.351,-10.065 13.105,-14.826 29.398,-29.438 65.696,-44.156 108.899,-44.156 43.594,0 80.594,15.648 111,46.93 8,8.422 12,17.648 12,27.672 0,0.365 -0.021,0.721 -0.03,1.083 38.732,25.189 70.124,60.713 90.271,102.661 4.848,-1.429 9.706,-2.847 14.579,-4.247 -20.205,-43.096 -51.554,-79.922 -90.329,-106.736 -0.645,-4.527 -1.898,-8.962 -3.729,-13.166 -2.794,-6.44 -6.867,-12.316 -11.888,-17.597 l -0.094,-0.101 -0.024,-0.024 C 519.871,58.38 501.3,45.391 480.842,36.75 460.393,28.094 438.141,23.823 414.557,23.832 c -23.298,-0.007 -45.188,3.991 -65.264,12.139 -20.079,8.131 -38.266,20.397 -54.251,36.417 -4.306,4.312 -8.334,8.776 -12.082,13.389 -89.041,43.399 -150.392,134.821 -150.404,240.553 0,3.633 0.081,7.231 0.228,10.798 -4.501,5.817 -7.804,12.614 -9.961,19.961 l -0.026,0.088 -0.022,0.076 c -4.541,16.027 -6.863,31.98 -6.861,47.741 -0.026,28.904 7.877,57.024 23.162,83.44 0.408,0.707 0.827,1.4 1.242,2.1 3.559,-3.827 7.143,-7.616 10.762,-11.353 -20.948,-37.234 -25.575,-76.515 -13.872,-117.839 z"
             id="path30"
             style="opacity:0.25;fill:#cccccc" />
          <linearGradient
             id="linearGradient396"
             gradientUnits="userSpaceOnUse"
             x1="265.51169"
             y1="95.2603"
             x2="380.5116"
             y2="330.25949">
            <stop
               offset="0"
               style="stop-color:#FFFFFF"
               id="stop392" />
            <stop
               offset="1"
               style="stop-color:#FFFFFF"
               id="stop394" />
          </linearGradient>
          <path
             d="m 537.526,114.517 c 0.009,-0.362 0.03,-0.718 0.03,-1.083 0,-10.023 -4,-19.25 -12,-27.672 -30.406,-31.281 -67.406,-46.93 -111,-46.93 -43.203,0 -79.501,14.719 -108.899,44.156 -4.755,4.76 -9.119,9.704 -13.105,14.826 -85.685,40.38 -144.996,127.516 -144.996,228.518 0,5.421 0.191,10.797 0.527,16.133 -4.942,4.795 -8.571,11.083 -10.875,18.877 -11.703,41.324 -7.076,80.605 13.871,117.84 3.641,-3.76 7.321,-7.46 11.022,-11.129 122.778,-121.7 278.53,-194.236 451.114,-246.516 4.848,-1.468 9.707,-2.922 14.581,-4.359 -20.146,-41.948 -51.537,-77.471 -90.27,-102.661 z"
             id="path37"
             style="opacity:0.25;fill:#f2f2f2;fill-opacity:1" />
        </g>
      </g>
      <g
         id="g7033">
        <path
           d="m -261.75757,-466.26036 v 10.60679 h -99.70684 c 0.94279,14.92953 5.43969,26.30242 13.4945,34.11993 8.05227,7.81879 19.26992,11.72629 33.6479,11.72629 8.32741,0 16.40114,-1.02105 24.21992,-3.06441 7.81753,-2.0421 15.57573,-5.10651 23.27712,-9.19322 v 20.50805 c -7.77839,3.29916 -15.75367,5.81456 -23.92584,7.54237 -8.17218,1.72784 -16.46047,2.59365 -24.8674,2.59365 -21.05833,0 -37.73461,-6.12756 -50.03137,-18.38519 -12.29803,-12.25763 -18.44451,-28.83547 -18.44451,-49.73604 0,-21.60609 5.83348,-38.7544 17.50171,-51.44494 11.66822,-12.688 27.40172,-19.0339 47.20173,-19.0339 17.75539,0 31.80142,5.71609 42.13434,17.14831 10.33164,11.4322 15.49874,26.97132 15.49874,46.61231 z m -21.68562,-6.36482 c -0.15776,-11.8626 -3.47585,-21.33096 -9.95932,-28.40383 -6.4822,-7.07161 -15.06709,-10.60679 -25.75213,-10.60679 -12.09986,0 -21.78531,3.4178 -29.0513,10.25466 -7.26849,6.8356 -11.45239,16.46046 -12.55169,28.87459 z"
           id="path7"
           style="fill:#ffffff;fill-opacity:0.937255;stroke-width:1.26211" />
        <path
           d="m -162.74742,-470.15019 v 75.31149 h -21.68561 v -20.03604 c -4.95,8.01568 -11.1192,13.92742 -18.50382,17.73773 -7.38714,3.81158 -16.42261,5.7161 -27.10764,5.7161 -13.5147,0 -24.26032,-3.79013 -32.23434,-11.3729 -7.97528,-7.58276 -11.9623,-17.73898 -11.9623,-30.46738 0,-14.85 4.96894,-26.04619 14.90933,-33.58857 9.93913,-7.54365 24.76895,-11.31484 44.4907,-11.31484 h 30.40681 v -2.12161 c 0,-9.977 -3.28149,-17.69607 -9.84068,-23.15975 -6.56172,-5.4599 -15.77515,-8.19111 -27.63647,-8.19111 -7.54365,0 -14.8904,0.90494 -22.03901,2.71102 -7.15111,1.80861 -14.02459,4.51836 -20.62542,8.13178 v -20.03349 c 7.93489,-3.06441 15.63504,-5.36272 23.10043,-6.89493 7.46414,-1.53219 14.73263,-2.29829 21.80298,-2.29829 19.09324,0 33.35384,4.95126 42.78181,14.85126 9.42798,9.89874 14.14323,24.90778 14.14323,45.01953 z m -43.25383,8.95848 c -17.52191,0 -29.6609,2.00296 -36.41825,6.01017 -6.75861,4.00846 -10.13602,10.84406 -10.13602,20.50805 0,7.70142 2.53432,13.80877 7.6017,18.32713 5.06864,4.51837 11.96355,6.77629 20.68475,6.77629 12.02162,0 21.66542,-4.26089 28.93392,-12.78772 7.26723,-8.52431 10.90212,-19.85808 10.90212,-34.00129 v -4.83137 h -21.56822 z"
           id="path9"
           style="fill:#ffffff;fill-opacity:0.937255;stroke-width:1.26211" />
        <path
           d="m -70.134914,-522.94937 v 20.50679 c -6.128815,-3.1414 -12.492379,-5.49776 -19.09323,-7.07161 -6.599587,-1.57133 -13.436436,-2.35762 -20.506796,-2.35762 -10.76581,0 -18.83954,1.65084 -24.21992,4.94999 -5.38291,3.30042 -8.07247,8.25043 -8.07247,14.85127 0,5.02825 1.92346,8.97614 5.77543,11.84492 3.84817,2.86879 11.5887,5.59873 23.21781,8.18985 l 7.425,1.65084 c 15.399029,3.30042 26.341534,7.95636 32.823741,13.96527 6.482202,6.01144 9.723306,14.39943 9.723306,25.16398 0,12.25637 -4.852821,21.96075 -14.555937,29.10935 -9.704369,7.15113 -23.04112,10.72543 -40.01273,10.72543 -7.07161,0 -14.43729,-0.68911 -22.09832,-2.06229 -7.66101,-1.37444 -15.73348,-3.43673 -24.21992,-6.18813 v -22.3924 c 8.0144,4.16624 15.91018,7.28871 23.68983,9.36992 7.77841,2.08249 15.47854,3.12374 23.10045,3.12374 10.21301,0 18.070908,-1.74803 23.571198,-5.24409 5.499012,-3.49604 8.250415,-8.42711 8.250415,-14.79195 0,-5.89279 -1.985292,-10.4099 -5.952119,-13.55255 -3.96808,-3.1414 -12.670334,-6.16794 -26.105524,-9.07459 l -7.54363,-1.76696 c -13.43645,-2.82838 -23.14083,-7.17005 -29.11062,-13.02373 -5.97231,-5.85241 -8.95721,-13.88701 -8.95721,-24.10129 0,-12.41413 4.39973,-21.99986 13.19918,-28.75722 8.79944,-6.75734 21.29182,-10.13602 37.47841,-10.13602 8.0144,0 15.556779,0.58941 22.628403,1.76823 7.071607,1.17628 13.592935,2.94324 19.565253,5.30087 z"
           id="path11"
           style="fill:#ffffff;fill-opacity:0.937255;stroke-width:1.26211" />
        <path
           d="m -9.3326681,-382.58107 c -6.1275599,15.71328 -12.1011259,25.96668 -17.9144179,30.76019 -5.814548,4.79224 -13.594206,7.18899 -23.335192,7.18899 h -17.325004 v -18.15044 h 12.7284 c 5.969784,0 10.606786,-1.41356 13.907206,-4.24196 3.30042,-2.82838 6.954245,-9.50748 10.961446,-20.03602 l 3.889823,-9.90001 -53.38985,-129.87889 h 22.981781 l 41.250882,103.24329 41.250866,-103.24329 h 22.980532 z"
           id="path13"
           style="fill:#ffffff;fill-opacity:0.937255;stroke-width:1.26211" />
        <path
           d="m 82.199468,-444.63029 v 49.79159 h -33.92683 v -131.57264 h 51.818532 c 17.3288,0 30.03448,2.90915 38.11451,8.72497 8.075,5.81581 12.11628,15.01283 12.11628,27.5822 0,8.69721 -2.10016,15.83445 -6.30046,21.41551 -4.20031,5.58232 -10.53107,9.69429 -18.991,12.33714 4.63953,1.05766 8.79818,3.45187 12.47093,7.18142 3.67022,3.73206 7.38588,9.38632 11.14698,16.96404 l 18.41925,37.36482 h -36.13299 l -16.03892,-32.69121 c -3.23228,-6.57939 -6.50745,-11.07378 -9.82554,-13.4844 -3.32063,-2.40811 -7.74307,-3.61344 -13.264807,-3.61344 z m 14.277013,-23.43994 c 7.106949,0 12.204629,-1.32269 15.290479,-3.96682 3.08335,-2.64412 4.62438,-6.99083 4.62438,-13.04265 0,-5.99251 -1.54103,-10.28117 -4.62438,-12.86598 -3.08585,-2.5848 -8.18353,-3.87721 -15.290479,-3.87721 H 82.198208 v 33.75266 z"
           id="path15"
           style="fill:#e6e6e6;fill-opacity:0.941176;stroke-width:1.26211" />
        <path
           d="m 169.19937,-526.41134 h 56.31165 c 16.74317,0 29.59526,3.71691 38.55626,11.14822 8.95846,7.43385 13.43643,18.02171 13.43643,31.76988 0,13.80625 -4.47922,24.42692 -13.43643,31.85697 -8.961,7.43385 -21.81309,11.14824 -38.55626,11.14824 H 203.1262 v 45.64933 h -33.92683 z m 33.92557,24.58845 v 36.74765 h 18.77139 c 6.57939,0 11.66191,-1.60035 15.24631,-4.80234 3.58186,-3.20196 5.3766,-7.74052 5.3766,-13.61566 0,-5.87386 -1.79474,-10.39853 -5.3766,-13.57148 -3.5844,-3.17295 -8.66692,-4.75943 -15.24631,-4.75943 h -18.77139 z"
           id="path17"
           style="fill:#e6e6e6;fill-opacity:0.941176;stroke-width:1.26211" />
        <path
           d="m 401.693,-404.62008 c -8.45993,4.11322 -17.24549,7.19657 -26.35162,9.25254 -9.10615,2.05599 -18.5051,3.08461 -28.20063,3.08461 -21.91406,0 -39.27314,-6.12629 -52.08232,-18.37509 -12.80791,-12.25005 -19.21061,-28.86071 -19.21061,-49.83574 0,-21.20728 6.52008,-37.8924 19.56274,-50.05536 13.04267,-12.16046 30.90154,-18.24131 53.58044,-18.24131 8.754,0 17.142,0.8229 25.16146,2.46743 8.01946,1.64579 15.58204,4.08419 22.6915,7.31393 v 27.23133 c -7.34295,-4.17127 -14.64301,-7.28365 -21.89763,-9.34088 -7.25715,-2.05598 -14.52943,-3.0846 -21.81307,-3.0846 -13.51345,0 -23.92587,3.77624 -31.2398,11.32492 -7.31395,7.54996 -10.97154,18.34606 -10.97154,32.38579 0,13.92488 3.52508,24.67556 10.57523,32.2558 7.05017,7.57772 17.06502,11.36784 30.05214,11.36784 3.52509,0 6.79901,-0.22087 9.82555,-0.66009 3.02402,-0.44173 5.74135,-1.13085 8.15198,-2.07238 v -25.55524 h -20.70874 v -22.73821 h 52.87619 v 63.27471 z"
           id="path19"
           style="fill:#e6e6e6;fill-opacity:0.941176;stroke-width:1.26211" />
        <g
           transform="matrix(1.2621119,0,0,1.2621119,-461.14728,-852.23311)"
           style="opacity:0.3;fill:#ffffff;fill-opacity:1"
           id="g21">
          <path
             style="fill:#f2f2f2;fill-opacity:1"
             id="path23-3"
             d="m 191.326,255.296 c -5.603,0 -11.362,0.607 -17.275,1.821 -5.915,1.214 -12.016,3.035 -18.303,5.463 v 15.875 c 5.229,-2.863 10.676,-5.011 16.342,-6.443 5.664,-1.432 11.486,-2.148 17.462,-2.148 9.399,0 16.699,2.164 21.897,6.49 5.197,4.328 7.797,10.444 7.797,18.35 v 1.681 h -24.092 c -15.626,0 -27.376,2.988 -35.251,8.965 -0.673,0.511 -1.307,1.05 -1.922,1.604 v -1.137 c 0,-15.563 -4.094,-27.874 -12.279,-36.933 -8.187,-9.058 -19.315,-13.587 -33.384,-13.587 -15.688,0 -28.154,5.028 -37.399,15.081 -9.245,10.055 -13.867,23.642 -13.867,40.761 0,6.486 0.758,12.438 2.252,17.874 4.784,-0.84 10.714,-1.854 17.619,-2.99 -1.02,-3.562 -1.67,-7.492 -1.942,-11.802 h 73.203 c -0.279,0.504 -0.543,1.019 -0.793,1.543 8.524,-1.083 17.378,-2.148 26.483,-3.169 5.625,-1.84 13.715,-2.763 24.285,-2.763 h 2.24 c 10.506,-1.008 21.221,-1.927 32.031,-2.724 v -4.374 c 0,-15.936 -3.735,-27.827 -11.206,-35.671 -7.472,-7.844 -18.77,-11.767 -33.898,-11.767 z m -111.785,45.57 c 0.871,-9.836 4.186,-17.462 9.945,-22.878 5.757,-5.417 13.431,-8.125 23.018,-8.125 8.466,0 15.268,2.802 20.404,8.404 5.136,5.604 7.765,13.105 7.891,22.505 z m 324.248,-42.71 0.137,-0.339 h -18.209 l -19.312,48.336 c 5.369,0.471 10.627,1.025 15.753,1.672 0.526,0.066 1.059,0.131 1.588,0.197 l 19.879,-49.458 v -0.409 h 0.164 z m -101.648,-0.339 0.262,0.636 c -2.589,-0.703 -5.288,-1.289 -8.096,-1.756 -5.603,-0.935 -11.579,-1.401 -17.929,-1.401 -12.825,0 -22.724,2.678 -29.695,8.031 -6.973,5.354 -10.458,12.949 -10.458,22.785 0,8.093 2.365,14.459 7.097,19.096 0.458,0.449 0.952,0.883 1.466,1.31 14.726,-0.99 29.573,-1.733 44.263,-2.138 -2.291,-0.659 -4.734,-1.272 -7.35,-1.833 l -5.883,-1.308 c -9.214,-2.054 -15.347,-4.216 -18.396,-6.489 -3.051,-2.272 -4.576,-5.4 -4.576,-9.385 0,-5.229 2.131,-9.151 6.396,-11.767 4.263,-2.614 10.66,-3.922 19.19,-3.922 5.603,0 11.019,0.623 16.248,1.868 5.229,1.246 10.272,3.113 15.128,5.603 v -0.679 l 11.349,27.608 c 6.02,0.063 11.973,0.198 17.841,0.412 l -18.647,-46.672 h -18.21 z m 172.74,7.252 c -6.402,-4.608 -16.469,-6.913 -30.199,-6.913 h -40.893 l -0.164,0.409 v 51.646 c 19.899,1.938 41.397,3.343 63.491,4.278 -0.868,-0.34 -1.76,-0.614 -2.675,-0.823 6.703,-2.095 11.719,-5.353 15.047,-9.775 3.328,-4.422 4.992,-10.077 4.992,-16.968 0,-9.959 -3.201,-17.245 -9.599,-21.854 z m -20.947,36.169 c -2.445,2.095 -6.484,3.143 -12.115,3.143 h -11.313 v -26.743 h 11.313 c 5.631,0 9.67,1.024 12.115,3.072 2.443,2.049 3.664,5.446 3.664,10.194 0,4.795 -1.221,8.24 -3.664,10.334 z m 120.67,-34.249 c -7.1,-5.888 -17.283,-8.833 -30.549,-8.833 h -44.617 v 57.368 c 26.091,0.577 52.332,0.563 77.152,0.056 5.767,-5.757 8.66,-13.558 8.66,-23.419 0,-10.892 -3.549,-19.282 -10.646,-25.172 z m -21.333,35.96 c -2.84,2.537 -6.867,3.805 -12.08,3.805 h -14.873 v -29.116 h 14.873 c 5.213,0 9.24,1.257 12.08,3.771 2.838,2.514 4.26,6.099 4.26,10.753 0,4.654 -1.422,8.25 -4.26,10.787 z m 88.483,1.571 v 8.396 c 15.918,-1.032 30.121,-2.297 41.895,-3.75 v -4.646 z m 3.42,-28.768 c 5.771,0 11.533,0.815 17.283,2.444 5.748,1.63 11.531,4.097 17.35,7.401 v -21.576 c -5.633,-2.559 -11.625,-4.491 -17.979,-5.795 -6.354,-1.303 -13,-1.955 -19.936,-1.955 -17.969,0 -32.119,4.818 -42.453,14.453 -10.334,9.637 -15.5,22.857 -15.5,39.66 0,1.715 0.067,3.384 0.176,5.025 9.521,-0.235 18.801,-0.544 27.752,-0.918 -0.092,-1.328 -0.139,-2.696 -0.139,-4.107 0,-11.124 2.898,-19.678 8.693,-25.66 5.796,-5.98 14.046,-8.972 24.753,-8.972 z" />
        </g>
      </g>
    </g>
    <flowRoot
       transform="matrix(0.26458333,0,0,0.26458333,43.391667,195.92915)"
       style="font-style:normal;font-variant:normal;font-weight:normal;font-stretch:normal;font-size:8.26347px;line-height:1.25;font-family:'Droid Sans';-inkscape-font-specification:'Droid Sans';font-variant-ligatures:normal;font-variant-caps:normal;font-variant-numeric:normal;font-feature-settings:normal;text-align:start;letter-spacing:0px;word-spacing:0px;writing-mode:lr-tb;text-anchor:start;fill:#000000;fill-opacity:1;stroke:none"
       id="flowRoot666"
       xml:space="preserve"><flowRegion
         id="flowRegion668"><rect
           y="74.120705"
           x="77.781746"
           height="142.91003"
           width="336.89905"
           id="rect670" /></flowRegion><flowPara
         style="font-style:normal;font-variant:normal;font-weight:normal;font-stretch:normal;font-size:29.3333px;line-height:1.25;font-family:Montserrat;-inkscape-font-specification:Montserrat;fill:#808080"
         id="flowPara672" /></flowRoot>
    <flowRoot
       transform="matrix(0.26458291,0,0,0.26458333,43.333162,256.01113)"
       style="font-style:normal;font-variant:normal;font-weight:normal;font-stretch:normal;font-size:8.26347px;line-height:1.25;font-family:'Droid Sans';-inkscape-font-specification:'Droid Sans';font-variant-ligatures:normal;font-variant-caps:normal;font-variant-numeric:normal;font-feature-settings:normal;text-align:start;letter-spacing:0px;word-spacing:0px;writing-mode:lr-tb;text-anchor:start;fill:#000000;fill-opacity:1;stroke:none"
       id="flowRoot666-9"
       xml:space="preserve"><flowRegion
         id="flowRegion668-5"><rect
           y="74.120705"
           x="77.781746"
           height="34.910027"
           width="272.89905"
           id="rect670-7" /></flowRegion><flowPara
         style="font-style:normal;font-variant:normal;font-weight:normal;font-stretch:normal;font-size:29.3333px;line-height:1.25;font-family:Montserrat;-inkscape-font-specification:Montserrat;fill:#808080"
         id="flowPara672-4" /></flowRoot>
  </g>
</svg>
