<?xml version="1.0" encoding="UTF-8" standalone="no"?>
<svg
   xmlns:dc="http://purl.org/dc/elements/1.1/"
   xmlns:cc="http://creativecommons.org/ns#"
   xmlns:rdf="http://www.w3.org/1999/02/22-rdf-syntax-ns#"
   xmlns:svg="http://www.w3.org/2000/svg"
   xmlns="http://www.w3.org/2000/svg"
   xmlns:sodipodi="http://sodipodi.sourceforge.net/DTD/sodipodi-0.dtd"
   xmlns:inkscape="http://www.inkscape.org/namespaces/inkscape"
   version="1.0"
   width="1617.000000pt"
   height="640.000000pt"
   viewBox="0 0 1617.000000 640.000000"
   preserveAspectRatio="xMidYMid meet"
   id="svg5765"
   sodipodi:docname="pygame.svg"
   inkscape:version="0.92.1 r15371">
  <metadata
     id="metadata5771">
    <rdf:RDF>
      <cc:Work
         rdf:about="">
        <dc:format>image/svg+xml</dc:format>
        <dc:type
           rdf:resource="http://purl.org/dc/dcmitype/StillImage" />
        <dc:title></dc:title>
      </cc:Work>
    </rdf:RDF>
  </metadata>
  <defs
     id="defs5769" />
  <sodipodi:namedview
     pagecolor="#ffffff"
     bordercolor="#666666"
     borderopacity="1"
     objecttolerance="10"
     gridtolerance="10"
     guidetolerance="10"
     inkscape:pageopacity="0"
     inkscape:pageshadow="2"
     inkscape:window-width="1280"
     inkscape:window-height="738"
     id="namedview5767"
     showgrid="false"
     inkscape:pagecheckerboard="true"
     inkscape:zoom="0.31301636"
     inkscape:cx="1078"
     inkscape:cy="426.66667"
     inkscape:window-x="-8"
     inkscape:window-y="-8"
     inkscape:window-maximized="1"
     inkscape:current-layer="svg5765" />
  <g
     transform="translate(0.000000,640.000000) scale(0.100000,-0.100000)"
     fill="#000000"
     stroke="none"
     id="g5763"
     style="fill:#ffffff">
    <path
       d="M14170 6210 c0 -5 -16 -10 -35 -10 -19 0 -35 -4 -35 -10 0 -5 -7 -10 -15 -10 -15 0 -85 -63 -85 -76 0 -3 -13 -19 -30 -34 -16 -15 -30 -34 -30 -42 0 -7 -9 -20 -20 -28 -11 -8 -20 -22 -20 -32 0 -10 -7 -18 -15 -18 -8 0 -15 -8 -15 -18 0 -10 -9 -24 -20 -32 -11 -8 -20 -25 -20 -37 0 -13 -4 -23 -10 -23 -5 0 -10 -9 -10 -20 0 -11 -4 -20 -10 -20 -5 0 -10 -9 -10 -20 0 -11 -4 -20 -10 -20 -5 0 -10 -13 -10 -30 0 -16 -4 -30 -10 -30 -5 0 -10 -8 -10 -18 0 -10 -9 -24 -20 -32 -11 -8 -20 -20 -20 -27 0 -7 -4 -13 -10 -13 -5 0 -10 -9 -10 -20 0 -11 -4 -20 -10 -20 -5 0 -10 -9 -10 -20 0 -11 -7 -20 -15 -20 -8 0 -15 -9 -15 -20 0 -11 -4 -20 -10 -20 -5 0 -10 -9 -10 -20 0 -11 -4 -20 -10 -20 -5 0 -10 -16 -10 -35 0 -19 -4 -35 -10 -35 -5 0 -10 -13 -10 -30 0 -16 -4 -30 -10 -30 -6 0 -10 -42 -10 -105 0 -63 4 -105 10 -105 6 0 10 -8 10 -18 0 -10 9 -24 20 -32 12 -8 20 -26 20 -42 0 -15 5 -28 10 -28 6 0 10 -9 10 -20 0 -11 7 -20 15 -20 10 0 15 -11 15 -35 0 -19 5 -35 10 -35 6 0 10 -18 10 -40 0 -22 -4 -40 -10 -40 -5 0 -10 -7 -10 -15 0 -8 -6 -15 -14 -15 -16 0 -116 -93 -116 -107 0 -5 -9 -15 -20 -23 -11 -8 -20 -22 -20 -32 0 -10 -4 -18 -10 -18 -5 0 -10 -9 -10 -20 0 -11 -4 -20 -10 -20 -5 0 -10 -9 -10 -20 0 -11 -4 -20 -9 -20 -5 0 -12 -22 -16 -50 -4 -27 -11 -50 -16 -50 -5 0 -9 5 -9 10 0 6 -3 10 -8 10 -8 0 -182 168 -182 176 0 12 -51 54 -66 54 -9 0 -24 8 -33 18 -9 9 -28 23 -43 31 -16 8 -28 18 -28 23 0 4 -9 8 -20 8 -11 0 -20 5 -20 10 0 6 -9 10 -20 10 -11 0 -20 5 -20 10 0 6 -9 10 -20 10 -11 0 -20 5 -20 10 0 6 -11 10 -24 10 -14 0 -28 5 -31 10 -3 6 -15 10 -26 10 -11 0 -22 7 -25 15 -4 10 -20 15 -45 15 -21 0 -39 5 -39 10 0 6 -22 10 -48 10 -26 0 -53 5 -58 10 -7 7 -74 9 -195 6 -201 -5 -289 -13 -289 -27 0 -5 -13 -9 -30 -9 -16 0 -30 -4 -30 -10 0 -5 -5 -10 -12 -10 -12 0 -169 -70 -178 -80 -3 -3 -17 -11 -32 -19 -16 -8 -28 -18 -28 -23 0 -4 -6 -8 -13 -8 -7 0 -33 -18 -57 -40 -25 -22 -53 -40 -62 -40 -10 0 -18 -5 -18 -11 0 -6 -22 -32 -50 -59 -27 -27 -50 -52 -50 -57 0 -15 -72 -83 -87 -83 -14 0 -43 -23 -43 -35 0 -10 -69 -75 -80 -75 -6 0 -13 14 -16 30 -4 17 -10 30 -15 30 -5 0 -9 11 -9 25 0 14 -4 25 -10 25 -5 0 -10 8 -10 18 0 10 -9 24 -20 32 -11 8 -20 21 -20 30 0 9 -9 22 -20 30 -11 8 -20 20 -20 28 0 16 -24 42 -39 42 -6 0 -11 5 -11 10 0 15 -167 180 -183 180 -7 0 -19 9 -27 20 -8 11 -23 20 -33 20 -9 0 -20 7 -23 15 -4 8 -17 15 -29 15 -13 0 -27 5 -30 10 -3 6 -15 10 -26 10 -10 0 -19 5 -19 10 0 6 -25 10 -55 10 -30 0 -55 5 -55 10 0 13 -262 14 -275 1 -6 -5 -30 -12 -55 -15 -81 -9 -120 -18 -126 -27 -3 -5 -18 -9 -35 -9 -16 0 -29 -4 -29 -9 0 -5 -14 -15 -32 -22 -40 -16 -136 -113 -163 -162 -11 -21 -27 -37 -37 -37 -10 0 -18 -7 -18 -15 0 -10 -10 -15 -30 -15 -16 0 -30 5 -30 11 0 14 -26 39 -40 39 -7 0 -25 14 -40 30 -15 17 -37 30 -49 30 -12 0 -21 3 -21 8 0 27 -310 47 -358 23 -26 -13 -86 -31 -105 -31 -9 0 -17 -4 -17 -10 0 -5 -9 -10 -20 -10 -11 0 -20 -4 -20 -8 0 -5 -11 -14 -24 -22 -14 -7 -116 -102 -227 -211 -111 -110 -204 -199 -206 -199 -1 0 -3 7 -3 15 0 14 -28 85 -51 127 -5 10 -9 25 -9 33 0 8 -3 15 -8 15 -4 0 -18 21 -32 48 -14 26 -33 56 -42 66 -10 11 -18 26 -18 33 0 7 -4 13 -10 13 -5 0 -10 4 -10 9 0 10 -113 127 -168 174 -19 16 -49 35 -68 43 -19 8 -34 19 -34 24 0 6 -20 10 -45 10 -25 0 -45 5 -45 10 0 6 -75 10 -205 10 -130 0 -205 -4 -205 -10 0 -6 -32 -10 -75 -10 -41 0 -75 -4 -75 -8 0 -5 -37 -17 -82 -27 -90 -20 -252 -69 -280 -85 -10 -6 -27 -10 -38 -10 -11 0 -20 -4 -20 -10 0 -5 -6 -10 -14 -10 -7 0 -48 -18 -91 -40 -43 -22 -83 -40 -90 -40 -7 0 -15 -7 -19 -15 -3 -8 -12 -15 -21 -15 -8 0 -15 -4 -15 -8 0 -5 -11 -14 -25 -20 -41 -19 -152 -123 -230 -214 -22 -26 -43 -48 -47 -48 -5 0 -8 18 -8 39 0 22 -4 43 -10 46 -5 3 -10 28 -10 56 0 27 -4 49 -10 49 -5 0 -10 18 -10 39 0 22 -5 43 -10 46 -6 3 -10 24 -10 46 0 21 -4 39 -10 39 -5 0 -10 14 -10 30 0 17 -4 30 -9 30 -5 0 -12 12 -16 28 -7 32 -87 122 -109 122 -8 0 -16 6 -19 13 -5 17 -369 16 -375 -1 -2 -7 -10 -12 -19 -12 -16 0 -43 -23 -43 -37 0 -5 -9 -15 -20 -23 -11 -8 -20 -20 -20 -27 0 -9 -8 -12 -22 -9 -76 16 -131 26 -188 36 -36 6 -92 16 -125 22 -33 6 -146 13 -252 15 l-192 4 -77 -37 c-78 -37 -165 -111 -193 -167 -8 -15 -18 -27 -23 -27 -4 0 -8 -7 -8 -15 0 -8 -7 -15 -15 -15 -8 0 -15 -4 -15 -10 0 -5 -8 -10 -18 -10 -13 0 -26 17 -42 53 -13 28 -32 61 -42 71 -10 11 -18 24 -18 28 0 5 -10 19 -23 32 -12 13 -38 41 -58 62 -109 118 -146 134 -311 134 -79 0 -128 -4 -128 -10 0 -5 -7 -10 -16 -10 -21 0 -144 -60 -173 -85 -88 -74 -251 -230 -251 -240 0 -4 -21 -26 -47 -48 -145 -130 -173 -173 -173 -268 0 -36 6 -88 14 -117 15 -59 15 -59 -64 -41 -65 15 -139 51 -146 71 -3 10 11 65 30 123 20 58 36 116 36 130 0 13 4 27 10 30 18 11 12 157 -7 197 -25 51 -151 179 -202 206 -38 19 -58 22 -167 22 -116 0 -204 -14 -204 -32 0 -5 -7 -8 -15 -8 -22 0 -54 -19 -110 -65 -16 -14 -36 -25 -43 -25 -13 0 -122 -104 -122 -117 0 -5 -7 -17 -15 -27 -14 -18 -15 -18 -42 10 -15 16 -40 35 -55 43 -15 8 -36 21 -45 30 -39 36 -258 131 -301 131 -12 0 -22 4 -22 9 0 5 -19 11 -42 14 -24 3 -68 11 -98 16 -147 29 -240 35 -525 35 -297 -1 -421 -8 -440 -25 -5 -5 -26 -9 -47 -9 -21 0 -38 -4 -38 -10 0 -5 -13 -10 -30 -10 -16 0 -30 -4 -30 -10 0 -5 -9 -10 -19 -10 -11 0 -22 -4 -26 -9 -3 -6 -31 -22 -63 -38 -31 -15 -70 -40 -86 -55 -16 -16 -33 -28 -38 -28 -13 0 -98 -88 -98 -101 0 -14 -96 -109 -110 -109 -12 0 -100 -86 -100 -98 0 -4 -8 -15 -17 -23 -77 -69 -121 -196 -142 -408 -14 -132 -14 -658 -1 -866 34 -527 118 -1049 184 -1148 12 -17 43 -46 69 -64 73 -49 162 -66 383 -71 203 -4 256 3 346 49 48 25 178 150 178 172 0 10 5 17 10 17 6 0 10 7 10 15 0 8 9 15 20 15 11 0 20 5 20 10 0 6 7 10 16 10 15 0 44 23 44 35 0 8 27 35 35 35 10 0 49 44 64 71 10 20 12 56 8 145 -3 66 -9 133 -12 149 l-7 31 114 11 c247 26 416 98 550 235 25 26 49 48 53 48 9 0 55 48 55 57 0 5 10 15 21 23 12 8 32 25 45 38 36 35 50 23 16 -14 -34 -37 -93 -165 -107 -231 -8 -38 -15 -98 -15 -135 l0 -68 -38 -19 c-60 -31 -174 -124 -208 -168 -73 -96 -124 -293 -102 -396 8 -40 13 -45 49 -56 68 -20 89 -9 148 78 29 43 74 94 100 114 56 43 165 96 215 104 32 5 40 1 99 -53 163 -149 454 -266 732 -295 55 -6 115 -13 133 -15 l34 -5 -49 -24 c-65 -33 -149 -109 -173 -156 -47 -91 -55 -157 -54 -449 1 -287 15 -465 55 -697 38 -223 55 -256 140 -288 77 -29 306 -29 362 -1 51 25 94 69 102 104 5 24 12 29 64 39 121 23 178 89 168 197 -3 34 -9 69 -12 77 -5 14 6 19 62 29 37 7 86 20 108 28 51 20 141 81 179 121 17 17 33 31 37 31 3 0 12 -37 19 -83 28 -189 66 -279 155 -369 182 -183 520 -246 795 -149 93 33 152 66 216 124 27 24 72 56 100 70 27 14 73 44 101 66 l51 40 34 -72 c39 -81 120 -176 182 -212 45 -26 136 -50 231 -60 78 -9 180 13 293 62 80 35 94 38 172 37 66 -1 107 -9 181 -33 113 -37 180 -39 270 -11 81 25 146 66 187 118 19 24 44 43 61 47 16 3 54 21 84 39 l55 33 63 -59 c157 -148 347 -218 587 -218 202 0 281 26 397 131 36 32 71 59 78 59 7 0 34 13 60 30 26 16 49 30 51 30 3 0 7 -19 11 -42 25 -151 125 -238 260 -225 95 8 266 93 304 150 10 16 45 41 80 57 l62 29 8 -22 c5 -12 12 -36 15 -54 11 -48 62 -113 104 -130 44 -18 112 -14 165 12 22 10 69 46 107 81 37 34 81 65 97 68 16 4 53 25 82 47 l54 41 46 -45 c95 -93 249 -172 393 -201 87 -18 287 -21 367 -6 73 14 148 53 217 114 32 29 83 65 112 79 30 15 70 40 90 57 l35 29 27 -42 c74 -117 272 -214 504 -246 182 -26 461 -9 591 34 70 24 90 39 120 89 24 41 33 47 96 67 88 28 108 43 147 117 123 231 160 617 96 1007 -17 102 -64 286 -93 360 l-19 50 29 17 c32 19 179 26 179 9 0 -8 88 -16 225 -21 101 -3 471 12 473 20 2 6 51 10 117 10 65 0 116 4 120 10 3 5 28 10 56 10 27 0 49 5 49 10 0 6 13 10 29 10 16 0 31 6 35 15 3 8 12 15 21 15 8 0 15 5 15 10 0 6 9 10 20 10 11 0 20 5 20 10 0 6 8 10 18 10 10 0 24 9 32 20 8 11 25 20 37 20 13 0 23 5 23 10 0 6 6 10 13 10 28 0 237 242 237 274 0 9 5 16 10 16 6 0 10 9 10 20 0 11 5 20 10 20 6 0 10 11 10 24 0 13 7 26 15 30 8 3 12 12 9 21 -4 9 -1 15 9 15 8 0 21 14 29 30 7 17 17 30 22 30 5 0 6 14 3 30 -6 29 6 42 16 18 3 -7 6 3 6 22 1 26 4 31 11 20 7 -11 10 -4 10 28 0 23 5 42 10 42 6 0 10 16 10 35 0 19 5 35 10 35 6 0 10 9 10 20 0 11 5 20 10 20 6 0 10 9 10 20 0 11 5 20 10 20 6 0 10 16 10 35 0 19 5 35 10 35 6 0 10 14 10 30 0 17 5 30 10 30 6 0 10 14 10 30 0 17 5 30 10 30 6 0 10 14 10 30 0 17 5 30 10 30 6 0 10 16 10 35 0 19 5 35 10 35 6 0 10 9 10 20 0 11 5 20 10 20 6 0 10 14 10 30 0 17 5 30 10 30 6 0 10 14 10 30 0 20 5 30 15 30 10 0 15 11 15 35 0 19 5 35 10 35 6 0 10 9 10 20 0 11 5 20 10 20 6 0 10 14 10 30 0 17 5 30 10 30 6 0 10 14 10 30 0 17 5 30 10 30 6 0 10 20 10 45 l0 45 85 0 c50 0 85 4 85 10 0 6 8 10 18 10 10 0 24 9 32 20 8 11 21 20 30 20 9 0 22 9 30 20 8 11 22 20 32 20 10 0 18 5 18 10 0 6 5 10 11 10 15 0 39 26 39 42 0 8 9 20 20 28 11 8 20 20 20 27 0 7 5 13 10 13 6 0 10 9 10 20 0 11 5 20 10 20 6 0 10 14 10 30 0 17 5 30 10 30 6 0 10 52 10 135 0 83 -4 135 -10 135 -5 0 -10 9 -10 20 0 11 -4 20 -10 20 -5 0 -10 9 -10 20 0 11 -4 20 -10 20 -5 0 -10 10 -10 23 0 12 -9 29 -20 37 -11 8 -20 22 -20 31 0 10 -6 20 -12 23 -10 5 -10 7 0 12 6 3 12 19 12 35 0 16 5 29 10 29 6 0 10 9 10 20 0 11 5 20 10 20 6 0 10 6 10 13 0 7 9 19 20 27 11 8 20 20 20 28 0 17 24 42 40 42 7 0 25 14 40 30 15 17 31 30 34 30 4 0 22 16 41 35 34 33 35 36 35 114 0 54 4 81 13 85 10 5 10 7 0 12 -8 3 -13 26 -13 60 0 30 -4 54 -10 54 -5 0 -10 23 -10 50 0 28 -4 50 -10 50 -5 0 -10 18 -10 40 0 22 -4 40 -10 40 -5 0 -10 16 -10 35 0 24 -5 35 -15 35 -10 0 -15 10 -15 30 0 17 -4 30 -10 30 -5 0 -10 9 -10 20 0 11 -4 20 -10 20 -14 0 -12 37 3 44 10 5 10 7 0 12 -9 4 -13 28 -13 70 0 36 -4 64 -10 64 -5 0 -10 14 -10 30 0 17 -4 30 -10 30 -5 0 -10 18 -10 40 0 22 -4 40 -10 40 -5 0 -10 7 -10 15 0 8 -4 15 -10 15 -5 0 -10 8 -10 18 0 10 -9 24 -20 32 -11 8 -20 20 -20 28 0 20 -47 62 -70 62 -11 0 -20 5 -20 10 0 6 -9 10 -20 10 -11 0 -20 5 -20 10 0 6 -13 10 -30 10 -16 0 -30 5 -30 10 0 6 -20 10 -45 10 -33 0 -45 4 -45 15 0 11 -12 15 -50 15 -38 0 -50 -4 -50 -15 0 -11 -11 -15 -40 -15 -22 0 -40 -4 -40 -10 0 -5 -11 -10 -25 -10 -14 0 -25 -4 -25 -10 0 -5 -9 -10 -20 -10 -11 0 -20 -4 -20 -10 0 -5 -9 -10 -20 -10 -11 0 -20 -4 -20 -10 0 -6 -42 -10 -105 -10 -63 0 -105 4 -105 10 0 6 -9 10 -20 10 -11 0 -20 5 -20 10 0 6 -11 10 -25 10 -26 0 -75 39 -75 60 0 5 -6 10 -13 10 -7 0 -19 9 -27 20 -8 11 -22 20 -32 20 -10 0 -18 5 -18 10 0 6 -8 10 -18 10 -10 0 -24 9 -32 20 -13 18 -26 20 -147 20 -82 0 -133 -4 -133 -10z m100 -20 c0 -6 32 -10 75 -10 43 0 75 -4 75 -10 0 -5 9 -10 20 -10 11 0 20 -4 20 -10 0 -5 9 -10 20 -10 11 0 20 -4 20 -10 0 -5 9 -10 20 -10 11 0 20 -5 20 -11 0 -12 25 -39 37 -39 5 0 15 -9 23 -20 8 -11 22 -20 32 -20 10 0 18 -4 18 -10 0 -5 9 -10 20 -10 11 0 20 -4 20 -10 0 -5 14 -10 30 -10 17 0 30 -4 30 -10 0 -6 35 -10 85 -10 50 0 85 4 85 10 0 6 9 10 20 10 11 0 20 5 20 10 0 6 9 10 20 10 11 0 20 5 20 10 0 6 16 10 35 10 19 0 35 5 35 10 0 6 14 10 30 10 17 0 30 5 30 10 0 6 32 10 75 10 43 0 75 -4 75 -10 0 -5 18 -10 40 -10 22 0 40 -4 40 -10 0 -5 12 -10 26 -10 16 0 37 -12 54 -30 15 -16 31 -30 34 -30 16 0 76 -71 76 -90 0 -11 5 -20 10 -20 6 0 10 -9 10 -20 0 -11 5 -20 10 -20 6 0 10 -13 10 -30 0 -16 5 -30 10 -30 6 0 10 -18 10 -40 0 -22 5 -40 10 -40 6 0 10 -35 10 -85 0 -50 4 -85 10 -85 6 0 10 -9 10 -20 0 -11 5 -20 10 -20 6 0 10 -13 10 -30 0 -16 5 -30 10 -30 6 0 10 -16 10 -35 0 -24 5 -35 15 -35 11 0 15 -11 15 -40 0 -22 5 -40 10 -40 6 0 10 -22 10 -50 0 -27 5 -50 10 -50 6 0 10 -38 10 -95 0 -57 -4 -95 -10 -95 -5 0 -10 -16 -10 -35 0 -19 -4 -35 -10 -35 -5 0 -10 -9 -10 -20 0 -11 -6 -20 -13 -20 -7 0 -19 -9 -27 -20 -8 -11 -21 -20 -30 -20 -9 0 -22 -9 -30 -20 -8 -11 -22 -20 -32 -20 -10 0 -18 -4 -18 -10 0 -5 -9 -10 -20 -10 -11 0 -20 -4 -20 -10 0 -5 -9 -10 -20 -10 -11 0 -20 -4 -20 -10 0 -5 -11 -10 -25 -10 -14 0 -25 -4 -25 -10 0 -5 -9 -10 -20 -10 -11 0 -20 -4 -20 -10 0 -5 -9 -10 -20 -10 -11 0 -20 5 -20 10 0 6 5 10 10 10 6 0 10 18 10 40 0 22 5 40 10 40 6 0 10 14 10 30 0 17 -4 30 -10 30 -5 0 -10 20 -10 45 0 25 -4 45 -10 45 -5 0 -10 9 -10 20 0 11 -4 20 -10 20 -5 0 -10 8 -10 18 0 10 -9 24 -20 32 -11 8 -20 20 -20 28 0 16 -24 42 -39 42 -6 0 -11 9 -11 20 0 15 7 20 25 20 14 0 25 5 25 11 0 6 23 32 50 59 28 27 50 56 50 64 0 9 5 16 10 16 6 0 10 9 10 20 0 11 5 20 10 20 6 0 10 9 10 20 0 11 5 20 10 20 6 0 10 20 10 45 0 33 4 45 15 45 12 0 15 19 15 115 0 96 -3 115 -15 115 -10 0 -15 10 -15 30 0 17 -4 30 -10 30 -5 0 -10 14 -10 30 0 17 -4 30 -10 30 -5 0 -10 8 -10 18 0 10 -9 24 -20 32 -11 8 -20 18 -20 23 0 14 -48 57 -65 57 -8 0 -15 5 -15 10 0 6 -11 10 -25 10 -14 0 -25 5 -25 10 0 6 -30 10 -70 10 -40 0 -70 -4 -70 -10 0 -5 -9 -10 -20 -10 -11 0 -20 -4 -20 -10 0 -5 -9 -10 -20 -10 -19 0 -70 -41 -70 -56 0 -3 -13 -19 -30 -34 -16 -15 -30 -34 -30 -42 0 -7 -9 -20 -20 -28 -12 -8 -20 -26 -20 -42 0 -15 -4 -28 -10 -28 -5 0 -10 -13 -10 -30 0 -16 -4 -30 -10 -30 -6 0 -10 -53 -10 -140 0 -87 4 -140 10 -140 6 0 10 -13 10 -30 0 -16 -4 -30 -10 -30 -5 0 -10 5 -10 10 0 6 -20 10 -45 10 -25 0 -45 5 -45 10 0 6 -33 10 -80 10 -47 0 -80 4 -80 10 0 6 -16 10 -35 10 -19 0 -35 -4 -35 -10 0 -5 -4 -10 -10 -10 -5 0 -10 9 -10 20 0 11 5 20 10 20 6 0 10 11 10 25 0 14 5 25 10 25 6 0 10 9 10 20 0 11 5 20 10 20 6 0 10 14 10 30 0 20 5 30 15 30 13 0 15 23 15 145 0 122 -2 145 -15 145 -10 0 -15 11 -15 35 0 19 -4 35 -10 35 -5 0 -10 8 -10 18 0 10 -9 24 -20 32 -11 8 -20 20 -20 28 0 18 -46 62 -65 62 -8 0 -15 5 -15 10 0 6 -9 10 -20 10 -11 0 -20 5 -20 10 0 6 -38 10 -95 10 -57 0 -95 -4 -95 -10 0 -5 -8 -10 -18 -10 -10 0 -24 -9 -32 -20 -8 -11 -18 -20 -22 -20 -15 0 -98 -89 -98 -105 0 -8 -4 -15 -10 -15 -5 0 -10 -11 -10 -25 0 -14 -4 -25 -10 -25 -5 0 -10 -9 -10 -20 0 -11 -4 -20 -10 -20 -5 0 -10 -18 -10 -40 0 -22 -4 -40 -10 -40 -6 0 -10 -42 -10 -105 0 -63 4 -105 10 -105 6 0 10 -18 10 -40 0 -22 5 -40 10 -40 6 0 10 -11 10 -25 0 -14 5 -25 10 -25 6 0 10 -7 10 -16 0 -8 18 -33 41 -55 36 -35 39 -41 25 -54 -8 -8 -20 -15 -26 -15 -12 0 -100 -85 -100 -98 0 -4 -9 -14 -20 -22 -11 -8 -20 -22 -20 -32 0 -10 -7 -18 -15 -18 -8 0 -15 -9 -15 -20 0 -11 -4 -20 -10 -20 -6 0 -10 -28 -10 -65 0 -37 -4 -65 -10 -65 -5 0 -10 7 -10 15 0 8 -7 15 -15 15 -9 0 -47 32 -85 70 -38 39 -72 70 -75 70 -19 0 -55 53 -55 80 0 16 -4 30 -10 30 -5 0 -10 18 -10 40 0 22 5 40 10 40 6 0 10 18 10 40 0 22 5 40 10 40 6 0 10 16 10 35 0 19 5 35 10 35 6 0 10 14 10 30 0 20 5 30 15 30 8 0 15 9 15 20 0 11 5 20 10 20 6 0 10 9 10 20 0 11 5 20 10 20 6 0 10 8 10 18 0 10 9 24 20 32 11 8 20 20 20 27 0 7 5 13 10 13 6 0 10 6 10 14 0 17 42 100 53 104 4 2 7 17 7 33 0 16 5 29 10 29 6 0 10 9 10 20 0 11 5 20 10 20 6 0 10 7 10 15 0 8 7 15 15 15 8 0 15 9 15 20 0 11 5 20 10 20 6 0 10 8 10 18 0 10 9 24 20 32 11 8 20 21 20 28 0 7 18 31 40 52 22 21 40 41 40 45 0 12 29 35 44 35 9 0 16 5 16 10 0 6 11 10 25 10 14 0 25 5 25 10 0 6 23 10 50 10 28 0 50 5 50 10 0 6 5 10 10 10 6 0 10 -4 10 -10z m90 -150 c0 -5 8 -10 18 -10 10 0 24 -9 32 -20 8 -11 22 -20 32 -20 11 0 18 -7 18 -18 0 -10 9 -24 20 -32 11 -8 20 -22 20 -32 0 -10 5 -18 10 -18 6 0 10 -11 10 -25 0 -14 5 -25 10 -25 6 0 10 -18 10 -40 0 -22 5 -40 10 -40 6 0 10 -35 10 -85 0 -50 -4 -85 -10 -85 -5 0 -10 -18 -10 -40 0 -22 -4 -40 -10 -40 -5 0 -10 -13 -10 -30 0 -16 -4 -30 -10 -30 -5 0 -10 -9 -10 -20 0 -11 -4 -20 -10 -20 -5 0 -10 -5 -10 -10 0 -6 -11 -22 -25 -35 -21 -22 -33 -25 -95 -25 -40 0 -70 -4 -70 -10 0 -5 -13 -10 -30 -10 -16 0 -30 -4 -30 -10 0 -5 -13 -10 -30 -10 -16 0 -30 -4 -30 -10 0 -5 -14 -10 -30 -10 -23 0 -42 11 -75 45 -25 24 -45 54 -45 65 0 11 -4 20 -10 20 -5 0 -10 14 -10 30 0 17 -4 30 -10 30 -6 0 -10 27 -10 60 0 33 -4 60 -10 60 -5 0 -10 11 -10 25 0 14 5 25 10 25 6 0 10 27 10 60 0 33 4 60 10 60 6 0 10 14 10 30 0 17 5 30 10 30 6 0 10 9 10 20 0 11 5 20 10 20 6 0 10 9 10 20 0 20 61 90 77 90 5 0 15 9 23 20 8 11 22 20 32 20 10 0 18 5 18 10 0 6 9 10 20 10 11 0 20 5 20 10 0 6 28 10 65 10 37 0 65 -4 65 -10z m930 -130 c8 -11 22 -20 32 -20 10 0 18 -6 18 -13 0 -7 9 -19 20 -27 11 -8 20 -22 20 -32 0 -10 5 -18 10 -18 6 0 10 -9 10 -20 0 -11 5 -20 10 -20 6 0 10 -9 10 -20 0 -11 5 -20 10 -20 6 0 10 -28 10 -65 0 -37 4 -65 10 -65 6 0 10 -13 10 -30 0 -16 -4 -30 -10 -30 -6 0 -10 -27 -10 -60 0 -33 -4 -60 -10 -60 -5 0 -10 -16 -10 -35 0 -19 -4 -35 -10 -35 -5 0 -10 -8 -10 -18 0 -10 -9 -24 -20 -32 -11 -8 -20 -20 -20 -28 0 -20 -67 -82 -90 -82 -11 0 -20 -4 -20 -10 0 -5 -9 -10 -20 -10 -11 0 -20 -7 -20 -15 0 -8 -4 -15 -10 -15 -5 0 -10 5 -10 11 0 15 -26 39 -42 39 -8 0 -20 9 -28 20 -8 11 -22 20 -32 20 -10 0 -18 5 -18 10 0 6 -11 10 -25 10 -14 0 -25 5 -25 10 0 6 -13 10 -30 10 -16 0 -30 5 -30 10 0 6 -7 10 -16 10 -20 0 -44 24 -44 44 0 9 -4 16 -10 16 -5 0 -10 20 -10 45 0 25 -4 45 -10 45 -6 0 -10 30 -10 70 0 40 4 70 10 70 6 0 10 20 10 45 0 25 5 45 10 45 6 0 10 14 10 30 0 17 5 30 10 30 6 0 10 9 10 20 0 11 5 20 10 20 6 0 10 7 10 16 0 8 18 33 40 54 22 21 40 43 40 49 0 6 7 11 15 11 8 0 15 5 15 10 0 6 9 10 20 10 11 0 20 5 20 10 0 6 38 10 93 10 81 0 94 -2 107 -20z m-600 -600 c0 -5 23 -10 50 -10 28 0 50 -4 50 -10 0 -5 20 -10 45 -10 25 0 45 -4 45 -10 0 -5 14 -10 30 -10 17 0 30 -4 30 -10 0 -5 9 -10 20 -10 11 0 20 -4 20 -10 0 -5 9 -10 20 -10 11 0 20 -4 20 -10 0 -5 11 -10 25 -10 14 0 25 -4 25 -10 0 -5 7 -10 16 -10 18 0 44 -23 44 -39 0 -6 7 -11 16 -11 8 0 37 -22 64 -50 27 -27 51 -50 55 -50 12 0 55 -50 55 -65 0 -8 5 -15 10 -15 6 0 10 -16 10 -35 0 -19 5 -35 10 -35 6 0 10 -30 10 -70 0 -40 -4 -70 -10 -70 -5 0 -10 -9 -10 -20 0 -11 -4 -20 -10 -20 -5 0 -10 -9 -10 -20 0 -19 -41 -70 -56 -70 -3 0 -19 -13 -34 -30 -15 -16 -35 -30 -44 -30 -9 0 -16 -4 -16 -10 0 -5 -9 -10 -20 -10 -11 0 -20 -4 -20 -10 0 -5 -9 -10 -20 -10 -11 0 -20 -4 -20 -10 0 -5 -16 -10 -35 -10 -19 0 -35 -4 -35 -10 0 -5 -13 -10 -30 -10 -16 0 -30 -4 -30 -10 0 -6 -27 -10 -60 -10 -47 0 -60 -3 -60 -15 0 -13 -21 -15 -125 -15 -104 0 -125 2 -125 15 0 12 -14 15 -65 15 -37 0 -65 4 -65 10 0 6 -18 10 -40 10 -22 0 -40 5 -40 10 0 6 -16 10 -35 10 -19 0 -35 5 -35 10 0 6 -9 10 -20 10 -11 0 -20 5 -20 10 0 6 -13 10 -28 10 -16 0 -34 8 -42 20 -8 11 -22 20 -32 20 -10 0 -18 5 -18 10 0 6 -10 10 -23 10 -12 0 -29 9 -37 20 -8 11 -20 20 -28 20 -14 0 -42 24 -42 35 0 4 -13 20 -30 35 -16 15 -30 34 -30 42 0 7 -9 20 -20 28 -11 8 -20 22 -20 32 0 10 -4 18 -10 18 -5 0 -10 18 -10 40 0 29 -4 40 -15 40 -11 0 -15 12 -15 45 0 33 4 45 15 45 10 0 15 10 15 28 0 16 8 34 20 42 11 8 20 21 20 30 0 9 9 22 20 30 11 8 20 18 20 23 0 14 48 57 65 57 8 0 15 5 15 10 0 6 9 10 20 10 11 0 20 5 20 10 0 6 11 10 25 10 14 0 25 5 25 10 0 6 9 10 20 10 11 0 20 5 20 10 0 6 18 10 40 10 22 0 40 5 40 10 0 6 28 10 65 10 37 0 65 4 65 10 0 6 55 10 145 10 90 0 145 -4 145 -10z m-954 -374 c8 -8 14 -18 14 -23 0 -5 9 -15 20 -23 11 -8 20 -22 20 -32 0 -11 -7 -18 -20 -18 -11 0 -20 -4 -20 -10 0 -5 -4 -10 -10 -10 -5 0 -10 9 -10 20 0 11 -4 20 -10 20 -5 0 -10 20 -10 45 0 48 4 53 26 31z m-9255 -109 c146 -87 260 -279 336 -566 l28 -106 7 103 c6 99 8 104 51 170 24 37 59 95 77 130 41 78 112 144 188 173 49 20 74 23 182 22 134 -1 234 -14 506 -64 94 -18 179 -29 189 -25 13 5 16 13 11 39 -14 72 56 102 224 96 165 -7 181 -24 240 -254 71 -276 100 -541 107 -970 9 -544 -30 -886 -123 -1082 -68 -144 -235 -247 -472 -290 -123 -23 -463 -23 -594 0 -300 52 -466 190 -535 447 -40 150 -12 434 48 491 43 40 148 54 292 39 250 -27 305 -68 291 -219 -7 -91 7 -132 62 -181 47 -41 113 -41 237 1 189 62 256 141 284 332 15 106 12 282 -6 328 -9 22 -10 20 -10 -14 -1 -54 -25 -94 -70 -117 -50 -25 -210 -46 -471 -61 -424 -24 -608 10 -635 119 -3 14 -16 40 -28 56 l-22 31 -6 -55 c-45 -380 -86 -542 -191 -743 -127 -241 -357 -399 -657 -452 -112 -19 -434 -20 -551 -1 -415 69 -735 256 -856 502 -33 66 -37 82 -38 156 -1 169 99 354 226 419 66 33 206 30 308 -6 97 -36 128 -61 175 -140 70 -121 130 -152 270 -141 217 16 464 177 468 303 1 42 -31 73 -94 92 -81 24 -130 24 -234 -3 -249 -63 -412 -72 -606 -32 -146 30 -219 67 -297 151 -62 66 -137 199 -168 297 -10 32 -19 57 -20 55 -1 -1 -7 -47 -14 -102 -30 -264 -81 -411 -184 -537 -165 -200 -390 -287 -746 -288 -126 -1 -259 -18 -299 -39 -38 -21 -36 -54 13 -242 56 -216 65 -290 39 -338 -46 -87 -152 -132 -323 -138 -221 -9 -415 40 -449 112 -31 65 -75 278 -116 559 -50 343 -79 1016 -56 1297 13 159 39 286 72 351 46 89 176 201 297 255 302 134 994 115 1364 -38 189 -78 277 -159 338 -313 l24 -60 17 82 c34 158 71 214 191 296 96 65 201 105 275 106 108 0 225 -70 272 -165 30 -61 24 -121 -30 -289 -41 -130 -45 -158 -29 -201 35 -91 162 -139 370 -140 182 0 283 39 347 134 33 49 29 83 -28 203 -86 181 -71 245 85 361 91 67 138 93 216 119 78 26 172 20 231 -15z m6279 -43 c221 -66 410 -259 525 -539 39 -93 89 -275 101 -364 4 -28 10 -51 14 -51 4 0 13 27 19 60 13 65 44 168 66 215 7 17 21 50 31 75 83 210 280 409 516 520 153 71 220 85 413 85 188 0 259 -14 418 -81 198 -83 480 -325 559 -479 8 -16 28 -55 44 -85 86 -167 113 -250 134 -420 14 -118 13 -262 -2 -283 -21 -27 -93 -47 -233 -64 -171 -21 -747 -23 -990 -3 -93 8 -192 14 -220 15 -48 0 -51 -1 -69 -39 -17 -35 -18 -46 -8 -113 7 -40 21 -92 33 -114 47 -92 171 -180 332 -235 142 -48 226 -42 299 24 37 34 118 142 118 158 0 17 54 76 77 85 14 5 87 14 162 19 75 6 170 15 211 20 279 38 340 21 340 -98 0 -134 -151 -421 -317 -601 -80 -87 -195 -181 -265 -217 -109 -55 -183 -67 -423 -68 -205 0 -228 1 -332 26 -332 79 -596 253 -760 502 -55 83 -127 232 -144 299 -7 26 -16 47 -19 47 -4 0 -12 -30 -19 -67 -20 -110 -78 -274 -120 -340 -47 -73 -133 -141 -219 -173 -111 -42 -208 -12 -317 96 -74 74 -129 176 -146 269 -12 66 -6 240 10 302 10 37 32 155 67 353 10 52 18 151 18 220 1 115 -1 129 -25 180 -33 69 -64 102 -92 98 -32 -4 -60 -83 -118 -332 -94 -401 -132 -491 -224 -526 -50 -19 -108 -4 -160 42 -48 42 -166 212 -288 414 -82 135 -156 228 -184 232 -32 5 -48 -53 -48 -173 0 -130 -6 -117 231 -525 157 -269 179 -360 134 -549 -53 -219 -169 -346 -348 -381 -166 -33 -319 33 -426 183 -124 176 -226 459 -268 752 -17 121 -17 504 1 615 54 339 144 563 281 700 85 86 158 129 274 160 109 30 200 25 281 -14 60 -30 169 -129 245 -225 58 -72 82 -47 130 131 21 82 60 149 103 182 39 30 158 71 264 91 95 18 255 13 333 -11z m3110 -3 c0 -11 -6 -22 -12 -25 -10 -5 -10 -7 0 -12 6 -3 12 -14 12 -25 0 -13 7 -19 21 -19 47 0 64 -50 27 -81 l-21 -19 21 -19 c31 -26 28 -31 -23 -31 -38 0 -45 -3 -45 -20 0 -11 -4 -20 -10 -20 -5 0 -10 -20 -10 -45 0 -38 -3 -45 -20 -45 -11 0 -20 7 -20 15 0 10 -10 15 -30 15 -20 0 -30 -5 -30 -15 0 -8 -4 -15 -10 -15 -16 0 -12 -109 4 -126 8 -8 31 -14 50 -14 29 0 36 -4 36 -20 0 -11 -4 -20 -10 -20 -15 0 -12 -60 4 -76 10 -9 37 -14 85 -14 69 0 71 1 71 25 0 14 5 25 10 25 6 0 10 14 10 30 0 29 1 30 50 30 43 0 50 3 50 20 0 11 5 20 10 20 15 0 12 70 -4 86 -8 8 -22 14 -30 14 -12 0 -16 10 -16 41 0 42 17 69 44 69 9 0 16 5 16 10 0 6 -4 10 -10 10 -5 0 -10 5 -10 10 0 6 11 10 25 10 14 0 25 -4 25 -10 0 -5 8 -10 18 -10 10 0 24 -9 32 -20 8 -11 21 -20 29 -20 7 0 22 -10 33 -22 16 -19 21 -20 29 -8 8 11 12 12 16 3 2 -7 20 -13 39 -13 24 0 34 -5 34 -15 0 -8 -7 -15 -15 -15 -8 0 -15 -4 -15 -10 0 -5 11 -10 25 -10 14 0 25 5 25 10 0 6 5 10 10 10 6 0 10 -9 10 -20 0 -13 7 -20 20 -20 11 0 20 5 20 10 0 6 27 10 60 10 33 0 60 -4 60 -10 0 -6 32 -10 75 -10 43 0 75 -4 75 -10 0 -5 9 -10 20 -10 17 0 20 -7 20 -50 0 -27 -4 -50 -10 -50 -6 0 -10 -28 -10 -65 0 -37 4 -65 10 -65 6 0 10 -18 10 -40 0 -22 5 -40 10 -40 6 0 10 -9 10 -20 0 -11 5 -20 10 -20 6 0 10 -9 10 -20 0 -11 7 -20 15 -20 8 0 15 -5 15 -10 0 -16 88 -100 105 -100 8 0 15 -4 15 -10 0 -5 9 -10 20 -10 11 0 20 -4 20 -10 0 -5 25 -10 55 -10 30 0 55 -4 55 -10 0 -5 9 -10 20 -10 11 0 20 5 20 10 0 6 35 10 85 10 50 0 85 4 85 10 0 6 8 10 18 10 10 0 24 9 32 20 8 11 20 20 28 20 20 0 82 67 82 90 0 11 5 20 11 20 16 0 39 26 39 44 0 9 5 16 10 16 6 0 10 23 10 50 0 28 5 50 10 50 6 0 10 25 10 55 0 30 -4 55 -10 55 -5 0 -10 18 -10 40 0 22 -4 40 -10 40 -5 0 -10 7 -10 16 0 18 -23 44 -39 44 -6 0 -11 9 -11 20 0 24 -82 110 -105 110 -8 0 -15 5 -15 10 0 6 -9 10 -20 10 -13 0 -20 7 -20 20 0 13 7 20 20 20 11 0 20 5 20 10 0 6 9 10 20 10 11 0 20 -7 20 -15 0 -21 65 -85 85 -85 21 0 45 -24 45 -44 0 -9 5 -16 10 -16 6 0 10 -7 10 -15 0 -8 5 -15 10 -15 6 0 10 -13 10 -30 0 -16 5 -30 10 -30 6 0 10 -13 10 -30 0 -16 5 -30 10 -30 6 0 10 -38 10 -95 0 -57 -4 -95 -10 -95 -5 0 -10 -13 -10 -30 0 -16 -4 -30 -10 -30 -5 0 -10 -13 -10 -28 0 -16 -8 -34 -20 -42 -11 -8 -20 -23 -20 -33 0 -18 -22 -47 -35 -47 -4 0 -20 -13 -35 -30 -15 -16 -35 -30 -44 -30 -9 0 -16 -4 -16 -10 0 -5 -9 -10 -20 -10 -11 0 -20 -4 -20 -10 0 -5 -9 -10 -20 -10 -11 0 -20 -4 -20 -10 0 -6 -28 -10 -65 -10 -37 0 -65 -4 -65 -10 0 -6 -32 -10 -75 -10 -43 0 -75 4 -75 10 0 6 -13 10 -30 10 -16 0 -30 5 -30 10 0 6 -9 10 -20 10 -11 0 -20 5 -20 10 0 6 -7 10 -16 10 -9 0 -29 14 -44 30 -15 17 -37 30 -49 30 -13 0 -21 6 -21 18 0 10 -9 24 -20 32 -11 8 -20 20 -20 27 0 9 -20 13 -69 13 -46 0 -71 4 -75 13 -5 10 -7 10 -12 0 -7 -15 -34 -17 -34 -3 0 6 -37 10 -90 10 -53 0 -90 4 -90 10 0 6 -20 10 -45 10 -25 0 -45 5 -45 10 0 6 -13 10 -30 10 -16 0 -30 5 -30 10 0 6 -13 10 -30 10 -16 0 -30 5 -30 10 0 6 -19 10 -43 10 -31 0 -46 -5 -57 -20 -8 -11 -20 -20 -28 -20 -20 0 -82 -67 -82 -90 0 -19 -6 -20 -95 -20 -57 0 -95 4 -95 10 0 6 -9 10 -20 10 -12 0 -20 7 -20 16 0 12 -7 15 -30 12 -16 -3 -30 -1 -30 4 0 4 -7 8 -15 8 -8 0 -15 5 -15 10 0 6 -7 10 -15 10 -20 0 -85 65 -85 85 0 8 -4 15 -10 15 -5 0 -10 8 -10 18 0 10 -9 24 -20 32 -13 9 -20 26 -20 47 0 18 -4 33 -10 33 -6 0 -10 48 -10 125 0 77 4 125 10 125 6 0 10 9 10 20 0 11 5 20 10 20 6 0 10 9 10 20 0 11 5 20 10 20 6 0 10 9 10 20 0 11 5 20 10 20 6 0 10 9 10 20 0 11 5 20 10 20 6 0 10 7 10 15 0 8 7 15 16 15 9 0 29 14 44 30 15 17 32 30 38 30 5 0 12 7 16 15 3 8 12 15 21 15 8 0 15 5 15 10 0 6 9 10 20 10 11 0 20 5 20 10 0 6 27 10 60 10 52 0 60 -2 60 -19z m-5672 -26 c89 -21 139 -49 204 -116 205 -210 346 -582 388 -1027 26 -280 -2 -555 -85 -807 -121 -372 -297 -556 -590 -616 -260 -54 -688 17 -979 163 -128 64 -215 126 -307 217 -137 137 -187 266 -176 454 10 172 88 339 229 493 149 161 378 273 558 274 88 0 152 -20 355 -110 90 -40 170 -70 187 -70 31 0 107 41 133 71 86 103 -3 323 -180 444 -52 36 -61 39 -116 37 -135 -6 -233 -59 -411 -227 -146 -137 -185 -158 -310 -163 -87 -4 -102 -2 -151 21 -104 47 -161 170 -162 347 0 111 12 143 86 224 155 169 581 349 934 395 116 14 323 12 393 -4z m7332 -65 c0 -5 -4 -10 -10 -10 -5 0 -10 -5 -10 -11 0 -14 -25 -39 -39 -39 -6 0 -11 -9 -11 -20 0 -24 -6 -25 -26 -6 -16 17 -19 46 -4 46 6 0 10 7 10 15 0 9 9 15 25 15 14 0 25 5 25 10 0 6 9 10 20 10 11 0 20 -4 20 -10z m-1520 -60 c8 -11 22 -20 32 -20 10 0 18 -4 18 -10 0 -5 -4 -10 -10 -10 -5 0 -10 -13 -10 -30 0 -16 -4 -30 -10 -30 -5 0 -10 -18 -10 -40 0 -22 -4 -40 -10 -40 -5 0 -10 -16 -10 -35 0 -19 -4 -35 -10 -35 -5 0 -10 -13 -10 -30 0 -16 -4 -30 -10 -30 -5 0 -10 23 -10 50 0 28 5 50 10 50 6 0 10 45 10 115 0 63 4 115 8 115 4 0 14 -9 22 -20z m1180 -140 c0 -11 -4 -20 -10 -20 -5 0 -10 -25 -10 -55 0 -30 -4 -55 -10 -55 -5 0 -10 -18 -10 -40 0 -22 -4 -40 -10 -40 -5 0 -10 -18 -10 -40 0 -22 -4 -40 -10 -40 -6 0 -10 55 -10 145 0 138 1 145 20 145 11 0 20 5 20 10 0 6 9 10 20 10 13 0 20 -7 20 -20z m150 -45 c0 -14 -4 -25 -10 -25 -5 0 -10 11 -10 25 0 14 5 25 10 25 6 0 10 -11 10 -25z m-110 -20 c0 -14 5 -25 10 -25 6 0 10 -9 10 -20 0 -11 7 -20 15 -20 8 0 15 -9 15 -20 0 -11 -7 -20 -15 -20 -8 0 -15 -9 -15 -20 0 -13 -7 -20 -18 -20 -10 0 -24 -9 -32 -20 -8 -11 -18 -20 -22 -20 -4 0 -8 9 -8 20 0 12 7 20 16 20 28 0 44 27 44 74 0 25 -4 46 -10 46 -5 0 -10 11 -10 25 0 14 5 25 10 25 6 0 10 -11 10 -25z m-180 -65 c0 -11 -7 -20 -15 -20 -8 0 -15 -9 -15 -20 0 -11 7 -20 15 -20 12 0 15 -15 15 -75 0 -60 -3 -75 -15 -75 -8 0 -15 -4 -15 -10 0 -5 -9 -10 -20 -10 -11 0 -20 -4 -20 -10 0 -5 -20 -10 -45 -10 -51 0 -95 32 -95 70 0 11 -4 20 -10 20 -5 0 -10 11 -10 25 0 29 59 95 85 95 8 0 15 5 15 10 0 6 9 10 20 10 11 0 20 5 20 10 0 6 9 10 20 10 11 0 20 5 20 10 0 6 11 10 25 10 18 0 25 -5 25 -20z m355 -115 c32 -31 35 -40 35 -90 0 -58 -14 -85 -44 -85 -9 0 -16 -4 -16 -10 0 -5 -9 -10 -20 -10 -11 0 -20 -4 -20 -10 0 -5 -8 -10 -18 -10 -10 0 -24 -9 -32 -20 -8 -11 -25 -20 -37 -20 -13 0 -23 -4 -23 -10 0 -5 -9 -10 -20 -10 -11 0 -20 -7 -20 -15 0 -8 -9 -15 -20 -15 -11 0 -20 -4 -20 -10 0 -5 -22 -10 -50 -10 -27 0 -50 5 -50 10 0 6 -7 10 -15 10 -8 0 -15 7 -15 15 0 8 -4 15 -10 15 -16 0 -12 109 4 126 17 16 56 19 56 4 0 -5 -4 -10 -10 -10 -5 0 -10 -9 -10 -20 0 -11 -7 -20 -15 -20 -10 0 -15 -10 -15 -30 0 -16 5 -30 11 -30 14 0 39 -25 39 -39 0 -6 18 -11 40 -11 29 0 40 4 40 15 0 8 9 15 20 15 18 0 20 7 20 60 l0 60 -30 0 c-26 0 -30 4 -30 28 0 16 8 34 20 42 11 8 20 18 20 23 0 14 27 37 44 37 9 0 16 5 16 10 0 6 10 10 23 10 12 0 29 9 37 20 24 33 74 26 115 -15z m105 15 c0 -15 -7 -20 -25 -20 -18 0 -25 5 -25 20 0 15 7 20 25 20 18 0 25 -5 25 -20z m-720 -120 c0 -5 7 -10 15 -10 8 0 15 -4 15 -10 0 -5 -11 -10 -25 -10 -18 0 -25 5 -25 20 0 11 5 20 10 20 6 0 10 -4 10 -10z m-620 -120 c0 -5 14 -10 30 -10 17 0 30 -4 30 -10 0 -5 14 -10 30 -10 17 0 30 -4 30 -10 0 -5 16 -10 35 -10 24 0 35 -5 35 -15 0 -13 21 -15 125 -15 77 0 125 -4 125 -10 0 -5 9 -10 20 -10 11 0 20 5 20 10 0 6 14 10 30 10 17 0 30 -4 30 -10 0 -5 9 -10 20 -10 13 0 20 -7 20 -18 0 -10 9 -24 20 -32 17 -13 20 -26 20 -105 0 -79 -3 -92 -20 -105 -11 -8 -20 -22 -20 -32 0 -11 -7 -18 -20 -18 -11 0 -20 -4 -20 -10 0 -5 -9 -10 -20 -10 -11 0 -20 -4 -20 -10 0 -5 -13 -10 -30 -10 -16 0 -30 -4 -30 -10 0 -6 -53 -10 -140 -10 -87 0 -140 4 -140 10 0 6 -22 10 -50 10 -27 0 -50 5 -50 10 0 6 -9 10 -20 10 -11 0 -20 5 -20 10 0 6 -13 10 -30 10 -16 0 -30 5 -30 10 0 6 -9 10 -20 10 -20 0 -90 61 -90 77 0 5 -9 15 -20 23 -11 8 -20 22 -20 32 0 10 -5 27 -12 38 -10 15 -10 26 0 53 7 18 12 45 12 60 0 15 5 27 10 27 6 0 10 5 10 10 0 6 15 26 33 45 28 30 38 34 85 34 28 1 52 -3 52 -9z m810 -75 c0 -21 -5 -25 -30 -25 -25 0 -30 4 -30 25 0 21 5 25 30 25 25 0 30 -4 30 -25z m-1270 -36 c0 -5 14 -9 30 -9 28 0 30 -2 30 -40 0 -22 5 -40 10 -40 6 0 10 -58 10 -155 0 -97 -4 -155 -10 -155 -6 0 -10 -28 -10 -65 0 -37 -4 -65 -10 -65 -5 0 -10 -13 -10 -30 0 -16 -4 -30 -10 -30 -5 0 -10 -12 -10 -26 0 -14 -6 -32 -14 -39 -12 -12 -18 -11 -42 11 -16 14 -41 28 -56 31 -32 6 -38 23 -8 23 11 0 20 5 20 10 0 6 5 10 10 10 17 0 60 47 60 65 0 8 5 15 10 15 6 0 10 48 10 125 0 77 -4 125 -10 125 -6 0 -10 35 -10 85 0 50 -4 85 -10 85 -5 0 -10 20 -10 45 0 35 3 43 15 39 8 -4 15 -10 15 -15z m210 -79 c0 -27 5 -50 10 -50 6 0 10 -9 10 -20 0 -11 5 -20 10 -20 6 0 10 -9 10 -20 0 -23 82 -110 103 -110 7 0 19 -9 27 -20 8 -11 25 -20 37 -20 13 0 23 -4 23 -10 0 -5 9 -10 20 -10 11 0 20 -4 20 -10 0 -5 18 -10 40 -10 22 0 40 -4 40 -10 0 -6 28 -10 65 -10 37 0 65 -4 65 -10 0 -5 23 -10 50 -10 28 0 50 5 50 10 0 6 28 10 65 10 37 0 65 4 65 10 0 6 14 10 30 10 17 0 30 5 30 10 0 6 7 10 16 10 8 0 33 18 54 40 21 22 43 40 49 40 6 0 11 9 11 20 0 11 5 20 10 20 6 0 10 14 10 31 0 17 6 37 14 45 17 16 126 20 126 4 0 -5 25 -10 55 -10 52 0 55 -1 55 -25 0 -14 -4 -25 -10 -25 -5 0 -10 -13 -10 -30 0 -16 -4 -30 -10 -30 -5 0 -10 -13 -10 -30 0 -20 -5 -30 -15 -30 -10 0 -15 -10 -15 -30 0 -16 -4 -30 -10 -30 -5 0 -10 -16 -10 -35 0 -19 -4 -35 -10 -35 -5 0 -10 -9 -10 -20 0 -11 -4 -20 -10 -20 -5 0 -10 -13 -10 -30 0 -16 -4 -30 -10 -30 -5 0 -10 -13 -10 -30 0 -16 -4 -30 -10 -30 -5 0 -10 -16 -10 -35 0 -19 -4 -35 -10 -35 -5 0 -10 -13 -10 -30 0 -16 -4 -30 -10 -30 -5 0 -10 -13 -10 -30 0 -16 -4 -30 -10 -30 -5 0 -10 -9 -10 -20 0 -11 -4 -20 -10 -20 -5 0 -10 -16 -10 -35 0 -19 -4 -35 -10 -35 -5 0 -10 -13 -10 -30 0 -20 -5 -30 -15 -30 -10 0 -15 -10 -15 -30 0 -16 -4 -30 -10 -30 -5 0 -10 -13 -10 -30 0 -16 -4 -30 -10 -30 -5 0 -10 -9 -10 -20 0 -11 -4 -20 -10 -20 -5 0 -10 -11 -10 -25 0 -14 -4 -25 -10 -25 -5 0 -10 -9 -10 -20 0 -11 -4 -20 -10 -20 -5 0 -10 -9 -10 -20 0 -11 -4 -20 -10 -20 -5 0 -10 -9 -10 -20 0 -11 -4 -20 -10 -20 -5 0 -10 -9 -10 -20 0 -11 -4 -20 -10 -20 -5 0 -10 -10 -10 -23 0 -12 -9 -29 -20 -37 -11 -8 -20 -22 -20 -32 0 -10 -5 -18 -11 -18 -14 0 -39 -26 -39 -40 0 -6 -27 -38 -60 -70 -33 -32 -60 -62 -60 -65 0 -13 -50 -55 -66 -55 -9 0 -29 -13 -44 -30 -15 -16 -35 -30 -44 -30 -9 0 -16 -4 -16 -10 0 -5 -13 -10 -30 -10 -16 0 -30 -4 -30 -10 0 -5 -20 -10 -45 -10 -25 0 -45 -4 -45 -10 0 -6 -62 -10 -165 -10 -103 0 -165 4 -165 10 0 6 -18 10 -40 10 -22 0 -40 5 -40 10 0 6 -13 10 -29 10 -28 0 -113 37 -119 53 -2 4 -10 7 -18 7 -17 0 -84 64 -84 80 0 5 -4 10 -10 10 -5 0 -10 7 -10 15 0 8 -4 15 -10 15 -5 0 -10 9 -10 20 0 11 -4 20 -10 20 -5 0 -10 11 -10 25 0 14 5 25 10 25 14 0 120 107 120 121 0 6 14 24 30 39 17 15 30 36 30 47 0 10 9 25 20 33 11 8 20 22 20 32 0 10 5 18 10 18 6 0 10 9 10 20 0 11 7 20 15 20 8 0 15 9 15 20 0 11 5 20 10 20 6 0 10 9 10 20 0 11 5 20 10 20 6 0 10 11 10 25 0 14 5 25 10 25 6 0 10 14 10 30 0 17 5 30 10 30 6 0 10 18 10 40 0 22 4 40 8 40 5 0 12 46 16 103 3 56 11 104 16 105 6 2 10 15 10 28 0 13 5 24 10 24 6 0 10 14 10 30 0 17 5 30 10 30 6 0 10 23 10 50 0 28 5 50 10 50 6 0 10 70 10 190 0 120 -4 190 -10 190 -14 0 -12 48 3 65 6 8 27 14 45 15 32 0 32 0 32 -50z m-11405 -690 c3 -5 -3 -10 -14 -10 -10 0 -21 -6 -24 -12 -2 -7 -8 -10 -12 -6 -9 8 15 37 32 38 6 0 15 -4 18 -10z m-85 -56 c0 -3 -7 -12 -15 -21 -20 -19 -32 -10 -14 11 14 15 29 21 29 10z m7798 -83 c11 -6 11 -20 2 -72 -14 -72 -18 -295 -7 -349 7 -35 7 -36 -38 -49 -42 -12 -100 -11 -172 4 -37 8 -40 16 -18 39 12 11 15 41 15 130 l0 115 29 20 c16 12 32 21 35 21 10 0 76 68 76 77 0 5 9 15 20 23 11 8 20 22 20 32 0 19 16 23 38 9z m2354 -1 l49 0 -26 -26 c-25 -25 -26 -25 -79 -10 -29 9 -68 23 -87 31 l-34 16 64 -5 c35 -4 86 -6 113 -6z m-6810 -91 c-3 -32 -9 -42 -29 -50 -39 -15 -71 -11 -93 13 -38 41 -27 54 53 65 39 5 72 10 72 11 0 1 -1 -16 -3 -39z m-3498 -503 c20 -38 36 -70 36 -71 0 -1 -33 -24 -72 -50 -106 -70 -185 -142 -230 -209 -37 -53 -42 -57 -56 -42 -14 14 -15 25 -5 80 6 36 22 89 35 118 35 76 187 228 228 228 11 0 20 5 20 12 0 17 5 10 44 -66z m10451 -447 c60 -15 79 -39 113 -146 67 -202 96 -401 96 -648 1 -266 -23 -394 -101 -567 -34 -75 -37 -78 -87 -96 -92 -34 -185 -47 -341 -46 -169 1 -273 14 -390 51 -186 59 -270 125 -307 245 -19 63 -22 95 -23 238 0 181 13 251 65 365 83 181 178 235 415 235 l132 0 104 -69 c57 -38 105 -68 106 -67 3 3 -99 240 -120 280 -9 16 -19 54 -23 83 -8 63 1 77 66 105 102 44 213 58 295 37z m-8465 -29 c272 -58 362 -144 364 -350 0 -109 -20 -356 -33 -407 -26 -95 -121 -193 -226 -232 -71 -27 -161 -41 -260 -41 -102 0 -194 -22 -217 -50 -24 -30 -23 -68 7 -175 33 -120 33 -167 -1 -194 -14 -11 -42 -24 -63 -28 -82 -18 -266 2 -290 31 -24 29 -69 261 -93 481 -8 73 -13 238 -13 420 1 287 2 302 23 357 27 67 84 123 162 160 48 23 80 31 200 52 69 12 339 -2 440 -24z m1259 5 c157 -37 295 -144 365 -282 64 -128 71 -177 71 -453 -1 -270 -1 -272 -73 -420 -48 -100 -159 -211 -255 -259 -218 -106 -518 -90 -705 38 -137 94 -178 172 -207 393 -35 266 -29 464 21 636 43 149 93 216 199 270 42 21 179 64 255 80 72 16 257 13 329 -3z m1038 -9 c26 -23 28 -29 27 -103 -1 -59 -12 -121 -47 -253 -25 -96 -53 -202 -62 -235 -8 -33 -22 -109 -30 -170 -21 -168 -1 -237 79 -270 47 -19 85 -13 116 20 25 27 39 115 39 263 1 96 23 204 52 250 24 41 89 71 151 72 86 0 98 -30 123 -317 15 -180 26 -224 66 -259 80 -72 199 -3 199 114 0 50 -24 186 -49 282 -94 351 -103 394 -99 468 3 69 6 76 36 103 17 16 44 32 59 35 33 9 161 -28 219 -61 93 -55 185 -196 221 -339 15 -62 15 -73 -2 -172 -20 -128 -22 -261 -5 -366 12 -71 11 -81 -10 -150 -28 -92 -69 -184 -109 -242 -67 -98 -216 -131 -365 -81 -103 34 -217 48 -283 36 -28 -6 -95 -29 -148 -52 -76 -32 -114 -42 -174 -46 -84 -6 -185 13 -250 46 -103 53 -195 229 -248 474 -14 64 -18 129 -18 292 0 188 3 219 24 300 31 122 62 175 148 255 98 91 172 127 270 129 31 1 49 -5 70 -23z m1856 0 c125 -13 268 -88 382 -201 127 -127 184 -255 192 -436 l5 -107 -73 -13 c-90 -16 -559 -16 -693 0 -99 12 -117 7 -141 -39 -34 -66 -8 -175 56 -238 71 -70 194 -122 289 -122 73 0 123 34 175 119 43 69 27 64 230 80 200 17 189 19 181 -31 -22 -139 -194 -366 -328 -434 -100 -51 -322 -54 -481 -7 -91 26 -208 94 -278 161 -197 185 -248 408 -172 752 54 247 161 388 361 477 59 26 182 53 217 47 11 -1 46 -5 78 -8z m1347 -1 c222 -30 394 -124 456 -251 26 -52 27 -61 21 -155 -10 -160 -58 -241 -179 -299 -34 -17 -69 -38 -75 -47 -34 -45 0 -113 81 -160 31 -18 81 -47 111 -65 97 -57 102 -117 22 -260 -69 -124 -175 -218 -245 -218 -67 0 -80 19 -127 196 -41 153 -66 214 -101 250 -74 73 -187 50 -211 -44 -3 -14 4 -82 16 -153 17 -95 20 -132 12 -147 -13 -24 -112 -86 -171 -107 -55 -19 -123 -19 -161 1 -42 21 -75 98 -90 209 -18 135 -6 533 20 712 40 267 87 406 155 458 51 39 130 67 226 81 113 16 119 16 240 -1z m1265 -7 c116 -24 242 -97 343 -198 119 -120 180 -260 190 -436 l5 -101 -34 -7 c-134 -27 -504 -30 -739 -5 l-95 10 -27 -31 c-24 -26 -28 -39 -28 -88 1 -109 59 -187 189 -249 93 -45 187 -55 245 -28 36 17 83 71 118 133 19 36 19 36 231 53 110 9 151 9 160 0 18 -18 -26 -136 -85 -226 -61 -95 -165 -199 -235 -237 -71 -39 -217 -55 -345 -39 -382 49 -627 314 -628 678 0 148 47 358 107 477 74 147 245 271 413 300 79 13 133 12 215 -6z m-2515 -1018 c0 -10 -17 -15 -85 -25 -65 -9 -78 -8 -125 13 l-45 21 128 0 c77 1 127 -3 127 -9z m2570 0 c0 -10 -17 -15 -90 -25 -65 -9 -70 -9 -120 14 l-45 20 128 0 c77 1 127 -3 127 -9z"
       id="path5729"
       style="fill:#ffffff" />
    <path
       d="M14360 5540 c0 -5 -9 -10 -21 -10 -11 0 -27 -6 -35 -14 -16 -17 -20 -106 -4 -106 6 0 10 -7 10 -15 0 -9 9 -15 24 -15 13 0 27 -6 30 -12 5 -10 7 -10 12 0 3 6 19 12 35 12 24 0 29 4 29 25 0 14 5 25 10 25 6 0 10 14 10 30 0 17 -4 30 -10 30 -5 0 -10 9 -10 20 0 13 -7 20 -20 20 -11 0 -20 5 -20 10 0 6 -9 10 -20 10 -11 0 -20 -4 -20 -10z"
       id="path5731"
       style="fill:#ffffff" />
    <path
       d="M14943 5445 c-17 -18 -23 -36 -23 -70 0 -59 16 -75 75 -75 35 0 51 6 70 25 25 24 35 85 15 85 -5 0 -10 9 -10 20 0 15 -7 20 -25 20 -14 0 -25 5 -25 10 0 19 -55 9 -77 -15z"
       id="path5733"
       style="fill:#ffffff" />
    <path
       d="M5578 4308 c-88 -23 -151 -155 -152 -318 -1 -106 19 -151 85 -196 114 -76 314 -57 393 37 75 89 84 258 22 395 -37 81 -66 94 -201 93 -60 -1 -127 -6 -147 -11z m-25 -337 c16 -7 31 -25 42 -56 10 -25 16 -48 13 -51 -11 -10 -60 21 -74 47 -13 26 -19 69 -10 69 3 0 16 -4 29 -9z"
       id="path5735"
       style="fill:#ffffff" />
    <path
       d="M1505 4224 c-92 -24 -145 -48 -177 -82 -90 -93 -133 -276 -92 -384 34 -89 163 -193 264 -214 184 -38 354 92 405 308 41 174 -4 282 -143 345 -44 21 -74 27 -146 29 -50 2 -100 1 -111 -2z m-90 -349 c111 -29 157 -76 157 -161 0 -69 -9 -85 -40 -78 -49 12 -120 53 -156 90 -43 44 -74 127 -56 149 15 19 22 19 95 0z"
       id="path5737"
       style="fill:#ffffff" />
    <path
       d="M12410 4157 c-71 -29 -136 -74 -183 -126 -66 -74 -48 -129 57 -170 78 -30 147 -41 266 -41 216 0 360 50 360 124 0 47 -155 163 -283 211 -83 31 -145 32 -217 2z"
       id="path5739"
       style="fill:#ffffff" />
    <path
       d="M14330 4290 c0 -5 -9 -10 -20 -10 -11 0 -20 -4 -20 -10 0 -5 -7 -10 -16 -10 -24 0 -44 -25 -44 -55 0 -15 6 -33 14 -41 17 -16 46 -19 46 -4 0 6 9 10 20 10 11 0 20 7 20 15 0 9 9 15 21 15 31 0 49 24 49 64 0 34 -2 36 -35 36 -19 0 -35 -4 -35 -10z"
       id="path5741"
       style="fill:#ffffff" />
    <path
       d="M14590 4270 c0 -5 -11 -10 -25 -10 -14 0 -25 -4 -25 -10 0 -5 -7 -10 -15 -10 -21 0 -65 -45 -65 -65 0 -9 6 -23 14 -31 17 -16 66 -19 66 -4 0 6 9 10 21 10 20 0 49 21 49 36 0 3 10 16 23 27 15 13 18 21 10 24 -7 3 -13 13 -13 24 0 12 -7 19 -20 19 -11 0 -20 -4 -20 -10z"
       id="path5743"
       style="fill:#ffffff" />
    <path
       d="M7530 3128 c-72 -44 -103 -90 -97 -145 9 -84 82 -146 224 -189 159 -48 264 -32 307 48 19 35 19 36 1 84 -24 65 -122 161 -205 202 -88 45 -155 44 -230 0z"
       id="path5745"
       style="fill:#ffffff" />
    <path
       d="M14900 4290 c0 -5 -9 -10 -20 -10 -17 0 -20 -7 -20 -51 0 -52 15 -79 44 -79 9 0 16 -4 16 -10 0 -5 9 -10 20 -10 11 0 20 5 20 10 0 6 7 10 16 10 48 0 61 84 19 125 -25 25 -95 36 -95 15z"
       id="path5747"
       style="fill:#ffffff" />
    <path
       d="M15340 4250 c0 -5 -13 -10 -30 -10 -23 0 -30 -4 -30 -20 0 -11 -7 -20 -15 -20 -11 0 -15 -12 -15 -45 0 -30 4 -45 13 -45 7 0 19 -9 27 -20 21 -29 74 -27 105 5 44 43 30 145 -19 145 -9 0 -16 5 -16 10 0 6 -4 10 -10 10 -5 0 -10 -4 -10 -10z"
       id="path5749"
       style="fill:#ffffff" />
    <path
       d="M12265 1211 c-108 -28 -159 -91 -159 -196 -1 -76 35 -145 101 -195 l47 -35 142 1 c159 1 180 8 210 66 22 42 30 145 15 191 -21 62 -75 122 -133 147 -57 25 -169 35 -223 21z m-27 -265 c25 -13 72 -76 57 -76 -18 0 -64 36 -79 61 -19 33 -16 35 22 15z"
       id="path5751"
       style="fill:#ffffff" />
    <path
       d="M3993 1670 c-82 -17 -128 -54 -163 -132 -47 -108 -35 -200 36 -274 132 -135 330 -102 409 68 100 216 -41 385 -282 338z m-63 -255 c40 -21 60 -53 60 -98 l0 -38 -31 18 c-39 22 -69 69 -69 106 0 31 2 32 40 12z"
       id="path5753"
       style="fill:#ffffff" />
    <path
       d="M5241 1535 c-125 -29 -189 -88 -212 -195 -15 -71 -6 -278 15 -346 21 -69 78 -126 147 -150 80 -28 209 -26 274 4 143 66 214 222 187 413 -20 141 -92 241 -191 269 -64 18 -154 20 -220 5z m2 -264 c70 -43 112 -186 93 -316 l-8 -48 -53 6 c-69 7 -107 30 -136 81 -20 36 -24 58 -27 175 l-4 134 50 -5 c27 -3 66 -15 85 -27z"
       id="path5755"
       style="fill:#ffffff" />
    <path
       d="M8310 1635 c-100 -34 -176 -112 -166 -174 12 -79 79 -106 261 -106 119 0 134 2 180 25 109 55 76 151 -80 230 -73 37 -135 45 -195 25z"
       id="path5757"
       style="fill:#ffffff" />
    <path
       d="M9595 1682 c-67 -42 -121 -123 -131 -196 -12 -85 26 -138 128 -181 48 -19 174 -20 221 0 74 31 136 110 137 174 0 72 -75 151 -181 190 -85 31 -139 35 -174 13z"
       id="path5759"
       style="fill:#ffffff" />
    <path
       d="M10879 1637 c-182 -68 -225 -208 -81 -264 72 -28 289 -25 355 5 47 21 67 49 67 94 0 30 -85 109 -151 142 -67 32 -141 41 -190 23z"
       id="path5761"
       style="fill:#ffffff" />
  </g>
</svg>
