<?xml version="1.0" encoding="UTF-8" standalone="no"?>
<svg
   version="1.1"
   id="svg15136"
   sodipodi:docname="msu1.svg"
   width="600"
   height="215.625"
   inkscape:version="1.1 (c68e22c387, 2021-05-23)"
   xmlns:inkscape="http://www.inkscape.org/namespaces/inkscape"
   xmlns:sodipodi="http://sodipodi.sourceforge.net/DTD/sodipodi-0.dtd"
   xmlns="http://www.w3.org/2000/svg"
   xmlns:svg="http://www.w3.org/2000/svg">
  <defs
     id="defs15140" />
  <sodipodi:namedview
     id="namedview15138"
     pagecolor="#ffffff"
     bordercolor="#111111"
     borderopacity="1"
     inkscape:pageshadow="0"
     inkscape:pageopacity="0"
     inkscape:pagecheckerboard="1"
     showgrid="false"
     fit-margin-top="0"
     fit-margin-left="0"
     fit-margin-right="0"
     fit-margin-bottom="0"
     inkscape:zoom="3.4"
     inkscape:cx="61.911765"
     inkscape:cy="33.529412"
     inkscape:window-width="1280"
     inkscape:window-height="738"
     inkscape:window-x="-8"
     inkscape:window-y="-8"
     inkscape:window-maximized="1"
     inkscape:current-layer="svg15136" />
  <path
     style="fill:#ffffff;fill-opacity:1;fill-rule:evenodd;stroke:#000000;stroke-width:0;stroke-miterlimit:4;stroke-dasharray:none;stroke-opacity:1"
     d="M 140.625,5e-7 1.2071068e-6,140.625 H 37.500001 L 131.25,46.875 v 93.75 H 150 l 93.75,-93.75 v 93.75 h 28.125 V 5e-7 h -18.75 L 159.375,93.75 V 5e-7 Z m 182.813,0 C 300.141,5e-7 281.25,18.891 281.25,42.188 c 0,23.296001 18.891,42.187 42.188,42.187 h 37.5 c 7.762,0 14.062,6.3 14.062,14.063 0,7.762 -6.3,14.062 -14.062,14.062 H 281.25 v 28.125 h 79.688 c 23.296,0 42.187,-18.891 42.187,-42.187 0,-23.296999 -18.891,-42.188 -42.187,-42.188 h -37.5 c -7.763,0 -14.063,-6.299999 -14.063,-14.062 0,-7.762999 6.3,-14.063 14.063,-14.063 h 79.687 V 5e-7 Z m 89.062,0 V 98.438 c 0,23.296 18.891,42.187 42.188,42.187 h 37.5 c 23.296,0 42.187,-18.891 42.187,-42.187 V 5e-7 H 506.25 V 98.438 c 0,7.762 -6.3,14.062 -14.062,14.062 h -37.5 c -7.763,0 -14.063,-6.3 -14.063,-14.062 V 5e-7 Z m 168.75,0 L 543.75,37.5 v 18.75 h 28.125 v 84.375 H 600 V 5e-7 Z"
     id="path3758" />
  <path
     style="fill:#ffffff;fill-opacity:1;stroke:#000000;stroke-width:0;stroke-linecap:butt;stroke-linejoin:miter;stroke-miterlimit:4;stroke-dasharray:none;stroke-opacity:1"
     d="m 1.2071068e-6,150 v 18.75 H 600 V 150 Z"
     id="path3798" />
  <path
     d="m 38.897001,177.544 h -11.531 l -6.91,29.456 -7.04,-29.456 H 1.7440012 v 37.097 h 7.434 v -31.463 l 7.1059998,31.463 h 7.885 l 7.293,-31.463 v 31.463 h 7.435 v -37.097"
     id="path3806"
     style="fill:#ffffff" />
  <path
     d="m 74.850001,177.544 h -28.219 v 37.097 h 29.128 v -6.563 h -21.309 v -9.609 h 18.769 v -6.563 h -18.769 v -7.8 h 20.4 v -6.562"
     id="path3808"
     style="fill:#ffffff" />
  <path
     d="m 82.266001,214.641 h 16.622 c 4.236999,0 7.949999,-1.397 10.489999,-3.872 3.525,-3.563 5.475,-9.047 5.475,-15.45 0,-11.26 -5.728,-17.775 -15.636999,-17.775 h -16.95 v 37.097 m 7.828,-30.741 h 7.687 c 2.606999,0 4.565999,0.675 5.934999,1.959 1.95,1.913 2.99,5.279 2.99,9.666 0,8.062 -3.253,12.759 -8.792999,12.759 h -7.819 V 183.9"
     id="path3810"
     style="fill:#ffffff" />
  <path
     d="m 128.203,177.544 h -8.015 v 37.097 h 8.015 v -37.097"
     id="path3812"
     style="fill:#ffffff" />
  <path
     d="m 143.878,207 h 14.147 l 2.475,7.641 h 8.738 l -13.557,-37.097 h -9.262 l -13.688,37.097 h 8.475 L 143.878,207 m 7.106,-21.244 4.829,14.888 h -9.779 l 4.95,-14.888"
     id="path3814"
     style="fill:#ffffff" />
  <path
     d="m 217.416,177.544 h -28.219 v 37.097 h 29.137 v -6.563 h -21.318 v -9.609 h 18.778 v -6.563 h -18.778 v -7.8 h 20.4 v -6.562"
     id="path3816"
     style="fill:#ffffff" />
  <path
     d="m 248.306,203.587 -15.384,-26.043 h -8.41 v 37.097 h 7.435 v -26.607 l 15.834,26.607 h 7.95 v -37.097 h -7.425 v 26.043"
     id="path3818"
     style="fill:#ffffff" />
  <path
     d="m 286.163,197.953 v 16.688 h 8.015 v -37.097 h -8.015 v 14.053 h -14.991 v -14.053 h -8.025 v 37.097 h 8.025 v -16.688 h 14.991"
     id="path3820"
     style="fill:#ffffff" />
  <path
     d="m 310.125,207 h 14.147 l 2.475,7.641 h 8.737 l -13.556,-37.097 h -9.253 l -13.688,37.097 h 8.466 L 310.125,207 m 7.106,-21.244 4.828,14.888 h -9.778 l 4.95,-14.888"
     id="path3822"
     style="fill:#ffffff" />
  <path
     d="m 364.012,203.587 -15.374,-26.043 h -8.41 v 37.097 h 7.425 v -26.607 l 15.844,26.607 h 7.95 v -37.097 h -7.435 v 26.043"
     id="path3824"
     style="fill:#ffffff" />
  <path
     d="m 411.647,189.684 c -0.394,-2.943 -0.975,-4.49 -2.409,-6.562 -2.935,-4.181 -7.95,-6.563 -14.016,-6.563 -10.95,0 -17.794,7.547 -17.794,19.641 0,12.038 6.713,19.425 17.597,19.425 5.081,0 9.384,-1.65 12.319,-4.809 2.222,-2.372 3.262,-4.491 4.303,-8.888 h -8.016 c -0.59,2.072 -0.975,3 -1.828,4.088 -1.565,1.912 -3.844,2.897 -6.647,2.897 -5.99,0 -9.581,-4.763 -9.581,-12.666 0,-8.166 3.647,-12.966 9.844,-12.966 2.672,0 4.95,0.928 6.319,2.475 0.853,1.088 1.303,1.913 1.893,3.928 h 8.016"
     id="path3826"
     style="fill:#ffffff" />
  <path
     d="m 445.913,177.544 h -28.219 v 37.097 h 29.137 v -6.563 h -21.318 v -9.609 h 18.778 v -6.563 h -18.778 v -7.8 h 20.4 v -6.562"
     id="path3828"
     style="fill:#ffffff" />
  <path
     d="M 490.163,177.544 H 478.622 L 471.713,207 464.681,177.544 h -11.672 v 37.097 h 7.435 v -31.463 l 7.106,31.463 h 7.884 l 7.294,-31.463 v 31.463 h 7.435 v -37.097"
     id="path3830"
     style="fill:#ffffff" />
  <path
     d="m 526.116,177.544 h -28.228 v 37.097 h 29.137 v -6.563 h -21.309 v -9.609 h 18.768 v -6.563 h -18.768 v -7.8 h 20.4 v -6.562"
     id="path3832"
     style="fill:#ffffff" />
  <path
     d="m 556.997,203.587 -15.385,-26.043 h -8.399 v 37.097 h 7.425 v -26.607 l 15.834,26.607 h 7.959 v -37.097 h -7.434 v 26.043"
     id="path3834"
     style="fill:#ffffff" />
  <path
     d="M 588.403,184.106 H 600 v -6.562 h -31.219 v 6.562 h 11.597 v 30.535 h 8.025 v -30.535"
     id="path3836"
     style="fill:#ffffff" />
</svg>
