<?xml version="1.0" encoding="UTF-8" standalone="no"?>
<!-- Created with Inkscape (http://www.inkscape.org/) -->

<svg
   xmlns:dc="http://purl.org/dc/elements/1.1/"
   xmlns:cc="http://creativecommons.org/ns#"
   xmlns:rdf="http://www.w3.org/1999/02/22-rdf-syntax-ns#"
   xmlns:svg="http://www.w3.org/2000/svg"
   xmlns="http://www.w3.org/2000/svg"
   xmlns:sodipodi="http://sodipodi.sourceforge.net/DTD/sodipodi-0.dtd"
   xmlns:inkscape="http://www.inkscape.org/namespaces/inkscape"
   width="103.57961mm"
   height="26.45834mm"
   viewBox="0 0 103.57961 26.45834"
   version="1.1"
   id="svg5117"
   inkscape:version="0.92.1 r15371"
   sodipodi:docname="tyrquake.svg">
  <defs
     id="defs5111" />
  <sodipodi:namedview
     id="base"
     pagecolor="#ffffff"
     bordercolor="#666666"
     borderopacity="1.0"
     inkscape:pageopacity="0.0"
     inkscape:pageshadow="2"
     inkscape:zoom="1.5862846"
     inkscape:cx="219.09024"
     inkscape:cy="13.666267"
     inkscape:document-units="mm"
     inkscape:current-layer="layer1"
     showgrid="false"
     inkscape:window-width="1280"
     inkscape:window-height="738"
     inkscape:window-x="-8"
     inkscape:window-y="-8"
     inkscape:window-maximized="1"
     inkscape:pagecheckerboard="true" />
  <metadata
     id="metadata5114">
    <rdf:RDF>
      <cc:Work
         rdf:about="">
        <dc:format>image/svg+xml</dc:format>
        <dc:type
           rdf:resource="http://purl.org/dc/dcmitype/StillImage" />
        <dc:title></dc:title>
      </cc:Work>
    </rdf:RDF>
  </metadata>
  <g
     inkscape:label="Layer 1"
     inkscape:groupmode="layer"
     id="layer1"
     transform="translate(-3.9592562,-5.3806162)">
    <path
       inkscape:connector-curvature="0"
       style="fill:#ffffff;stroke-width:0.26458332"
       id="Letter_Q"
       d="m 21.304016,11.086356 c 0.466461,1.26445 0.700088,2.55905 0.700088,3.88409 0,1.1594 -0.180975,2.22091 -0.541867,3.18399 -0.602721,1.62587 -1.55866,2.9808 -2.868083,4.06453 -1.355196,1.1139 -2.876286,1.76133 -4.562475,1.94178 v 2.32595 c 0,0.0905 -0.06773,0.45138 -0.2032,1.084 -0.270934,1.24936 -0.519377,2.67255 -0.745067,4.26826 -0.753004,-3.34275 -1.167077,-5.1189 -1.242484,-5.32977 v -2.3712 c -1.640681,-0.16562 -3.1241998,-0.79798 -4.4487038,-1.89626 -2.289175,-1.89627 -3.432968,-4.32065 -3.432968,-7.27128 0,-1.23429 0.203464,-2.4384 0.609864,-3.61262 0.376238,-1.1139 0.948531,-2.1145498 1.716352,-3.0032898 0.827881,-0.97816 1.761861,-1.65603 2.80035,-2.03253 -1.098814,0.64691 -2.009775,1.46791 -2.732881,2.46142 -0.978165,1.3546698 -1.467644,2.8985098 -1.467644,4.6291498 0,0.63209 0.06006,1.25703 0.180975,1.87431 0.255588,1.2946 0.880798,2.49872 1.874838,3.61209 1.023408,1.15967 2.159793,1.88992 3.4096848,2.19049 0.647436,0.22595 1.144058,0.34739 1.490398,0.36168 v -2.34923 c 0,-0.24051 -0.0074,-0.51224 -0.02223,-0.81307 -0.10504,-0.49636 -0.391319,-0.78264 -0.858308,-0.85778 -0.02963,-0.0302 -0.068,-0.0455 -0.112713,-0.0455 h 4.087813 c 0.10504,0 0.150019,0.0153 0.134938,0.0455 -0.556948,0.0902 -0.880798,0.37624 -0.970757,0.85778 -0.04577,0.2413 -0.068,0.51991 -0.068,0.83582 v 2.32648 c 0.768349,-0.16616 1.29487,-0.28575 1.58115,-0.36168 1.219729,-0.31565 2.333624,-1.016 3.342481,-2.1 1.415521,-1.53591 2.122487,-3.3946 2.122487,-5.57768 0,-1.49066 -0.376766,-2.85671 -1.129241,-4.0986598 -0.753002,-1.24169 -1.784083,-2.23917 -3.09377,-2.99271 2.062691,0.78476 3.545416,2.37305 4.448968,4.7659398 z" />
    <path
       inkscape:connector-curvature="0"
       style="fill:#ffffff;stroke-width:0.26458332"
       id="Letter_U"
       d="m 27.784191,8.0285662 c -0.135731,-1.05277 -0.579173,-1.68407 -1.331648,-1.89521 h 5.487459 c -1.114425,0.3765 -1.611048,1.02315 -1.490663,1.94046 V 19.758606 c 0,0.82735 0.10504,1.54146 0.316442,2.14286 0.842698,1.68487 2.084917,2.56434 3.726127,2.64001 -2.062427,-0.0606 -3.666067,-0.68421 -4.81039,-1.87219 -1.264972,-1.30863 -1.897062,-2.76701 -1.897062,-4.37647 z m 15.0749,-0.0159 c 0.13388,-1.05648 0.604838,-1.68249 1.411552,-1.8796 h -5.533231 c 1.094846,0.33258 1.581944,0.95858 1.461559,1.8796 V 20.012576 c 0,0.80063 -0.114036,1.42743 -0.340519,1.8796 -0.861748,1.7063 -2.093648,2.58921 -3.695965,2.64927 1.251744,-0.0304 2.322248,-0.27172 3.212042,-0.7239 0.467783,-0.2413 1.0033,-0.62626 1.60655,-1.1549 1.251479,-1.10173 1.877748,-2.55085 1.877748,-4.34764 z" />
    <path
       inkscape:connector-curvature="0"
       style="fill:#ffffff;stroke-width:0.26458332"
       id="Letter_A"
       d="m 60.540931,22.852116 -0.903552,-2.2135 c -0.512233,-1.26471 -1.19724,-2.0328 -2.055548,-2.30373 -0.301096,-0.0294 -0.707496,-0.0598 -1.2192,-0.09 -0.135467,-0.0151 -0.218546,-0.0228 -0.248708,-0.0228 l 0.382852,-0.11298 c 0.78105,-0.22595 1.171575,-0.60193 1.171575,-1.1295 0,-0.16563 -0.06059,-0.39132 -0.180182,-0.6776 -0.601662,-1.43061 -1.044575,-2.50773 -1.33006,-3.22977 -0.556154,-1.29461 -0.976577,-2.02486 -1.262327,-2.19049 -0.22569,-0.12012 -0.59346,0.33152 -1.104106,1.35467 -0.541602,1.0996 -0.886619,1.83753 -1.036638,2.21377 l -0.766233,1.96479 c -0.10504,0.27093 -0.157956,0.5043 -0.157956,0.70009 0,0.69294 0.47916,1.06204 1.437481,1.10728 -1.264708,0 -2.138098,0.32306 -2.619111,0.97023 -0.512762,0.87445 -0.941652,1.905 -1.287727,3.09456 l -0.135731,0.79058 c 0.09075,0.5715 0.429419,0.91096 1.017058,1.016 h -3.613679 c 0.662252,-0.30136 1.467909,-1.31048 2.41644,-3.02789 0.512233,-0.90382 1.13665,-2.16191 1.874308,-3.77402 1.099079,-2.41035 1.746779,-3.84863 1.942306,-4.31615 0.753005,-1.74731 1.249628,-2.90777 1.490398,-3.4800598 l 1.332707,-3.48007 3.184525,7.5329598 h -0.02249 c 0.361156,0.76782 0.58711,1.24936 0.677863,1.44515 0.797983,1.67111 1.813718,3.83117 3.048793,6.48123 0.617009,1.33959 1.339586,2.21271 2.167996,2.61885 h -5.307542 c 0.827882,-0.0447 1.196711,-0.45905 1.106488,-1.24169 z" />
    <path
       inkscape:connector-curvature="0"
       style="fill:#ffffff;stroke-width:0.26458332"
       id="Letter_K"
       d="m 73.024502,22.264476 c 0,0.9943 0.424127,1.58141 1.269471,1.76212 h -5.058834 c 0.725752,-0.18097 1.141413,-0.76782 1.24804,-1.76212 V 7.9650662 c 0,-1.02446 -0.408517,-1.62666 -1.224756,-1.80737 h 5.058304 c -0.619125,0.13574 -1.050131,0.71491 -1.292225,1.73911 v 5.0376698 c 0,0.96467 0.635794,1.64941 1.907116,2.05607 -1.271322,0.27067 -1.907116,1.07712 -1.907116,2.41724 z m 7.231327,-8.12377 c 2.16826,-2.79955 4.403725,-5.7197598 6.707717,-8.7600898 L 76.620454,15.037646 h 0.02196 l -0.02196,0.0228 h 0.068 c 1.640152,0.61754 3.078162,1.3552 4.312973,2.21377 2.935816,2.0492 4.517231,4.53337 4.742921,7.45517 0.04524,-0.43577 0.068,-0.86519 0.068,-1.28641 0,-2.84506 -0.798247,-5.17789 -2.394479,-6.99928 -0.918638,-1.05331 -1.972473,-1.82166 -3.16204,-2.30294 z" />
    <path
       inkscape:connector-curvature="0"
       style="fill:#ffffff;stroke-width:0.26458332"
       id="Letter_E"
       d="m 96.31736,15.687726 c -0.421481,0.33205 -0.632089,0.79137 -0.632089,1.37848 v 1.55998 c 0,0.45218 0.127793,1.37848 0.384439,2.77945 0.19394,0.43656 0.457465,0.85117 0.789252,1.24275 0.7366,0.85831 1.594379,1.31763 2.572015,1.37848 -1.502834,-0.0452 -2.900627,-0.57256 -4.193117,-1.58194 -1.427692,-1.0848 -2.142596,-2.35797 -2.142596,-3.819 V 7.9595162 c -0.258498,-1.06998 -0.721254,-1.71715 -1.388533,-1.94363 h 5.307806 c -0.886619,0.21087 -1.329002,0.88132 -1.329002,2.0111 v 5.1075098 c 0,0.69268 0.188383,1.19036 0.564621,1.49199 0.01402,0.15028 1.04431,0.2704 3.090862,0.36115 -1.354137,0.0447 -2.361406,0.27861 -3.023658,0.70009 z m 4.15317,-9.6718398 h 6.12008 l 0.022,6.0859398 c -0.18128,-1.67428 -0.84962,-3.0469398 -2.00982,-4.1177098 -1.03796,-0.95012 -2.41618,-1.60602 -4.13226,-1.96823 z m 1.06203,18.0784498 c 2.07672,-0.16537 4.07935,-2.12222 6.00631,-5.8719 v 5.8719 c -0.28575,-0.40693 -0.73739,-0.60987 -1.3544,-0.60987 -0.43683,0 -0.94959,0.10187 -1.53644,0.30427 -0.58684,0.20373 -1.62533,0.3056 -3.11547,0.3056 z" />
  </g>
</svg>
