<svg version="1.2" baseProfile="tiny" xmlns="http://www.w3.org/2000/svg" width="598.189" height="350.26" xml:space="preserve">
    <path fill="#F4F4F4" d="M77.009 88.543a7.803 7.803 0 0 0-7.798 7.798v152.144c0 4.303 3.496 7.822 7.798 7.822h433.85c4.304 0 7.799-3.52 7.799-7.822v-82.173a7.803 7.803 0 0 0-7.799-7.798H251.987c-2.768 0-4.417-.694-5.425-1.792-1.006-1.099-1.452-2.73-1.453-4.844V96.344a7.803 7.803 0 0 0-7.798-7.798h-35.165c-4.303 0-7.823 3.495-7.823 7.798v14.628c0 1.271-.199 2.375-.678 3.076-.479.701-1.221 1.139-2.81 1.139H123.29c-1.134 0-1.88-.216-2.398-.775-.517-.56-.896-1.6-.896-3.439V96.345c-.006-4.313-3.525-7.809-7.829-7.809H77.002l.007.007zm0 1.55h35.166c3.465 0 6.272 2.783 6.272 6.249v14.628c0 2.048.414 3.513 1.308 4.48.894.968 2.171 1.284 3.536 1.284h67.545c1.929 0 3.323-.69 4.093-1.816.77-1.127.945-2.535.945-3.948V96.341c0-3.466 2.807-6.249 6.273-6.249h35.165a6.23 6.23 0 0 1 6.248 6.249v55.532c.001 2.329.497 4.393 1.865 5.886 1.368 1.492 3.531 2.301 6.563 2.301h258.87a6.23 6.23 0 0 1 6.249 6.248v82.173c0 3.466-2.782 6.271-6.249 6.271H77.01c-3.466 0-6.249-2.806-6.249-6.271V96.338a6.23 6.23 0 0 1 6.249-6.248l-.001.003z"/>
    <path fill="#F4F4F4" d="M253.027 92.805a7.803 7.803 0 0 0-7.798 7.798v48.873a7.802 7.802 0 0 0 7.798 7.797h80.894c4.304 0 7.799-3.494 7.799-7.797v-48.873c0-4.306-3.495-7.801-7.797-7.801h-80.894l-.002.003zm0 1.55h80.894a6.23 6.23 0 0 1 6.249 6.248v48.873a6.23 6.23 0 0 1-6.249 6.249h-80.894a6.23 6.23 0 0 1-6.249-6.249v-48.873a6.23 6.23 0 0 1 6.249-6.248z"/>
    <path fill="#F4F4F4" d="M254.507 97.601c-2.667 0-4.843 2.2-4.843 4.868a4.853 4.853 0 0 0 4.843 4.844c2.668 0 4.868-2.176 4.868-4.844s-2.2-4.868-4.868-4.868zm0 1.55c1.831 0 3.318 1.488 3.318 3.318s-1.488 3.293-3.318 3.293c-1.829 0-3.293-1.463-3.293-3.293s1.464-3.318 3.293-3.318zM273.394 97.601c-2.667 0-4.844 2.2-4.844 4.868s2.177 4.844 4.844 4.844 4.843-2.176 4.843-4.844-2.175-4.868-4.843-4.868zm0 1.55c1.83 0 3.293 1.488 3.293 3.318s-1.464 3.293-3.293 3.293c-1.83 0-3.293-1.463-3.293-3.293s1.463-3.318 3.293-3.318zM292.265 97.601c-2.667 0-4.843 2.2-4.843 4.868a4.853 4.853 0 0 0 4.843 4.844c2.667 0 4.868-2.176 4.868-4.844s-2.201-4.868-4.868-4.868zm0 1.55c1.83 0 3.318 1.488 3.318 3.318s-1.488 3.293-3.318 3.293-3.293-1.463-3.293-3.293 1.463-3.318 3.293-3.318zM311.151 97.601c-2.668 0-4.844 2.2-4.844 4.868s2.176 4.844 4.844 4.844 4.843-2.176 4.843-4.844-2.175-4.868-4.843-4.868zm0 1.55c1.829 0 3.293 1.488 3.293 3.318s-1.464 3.293-3.293 3.293c-1.828 0-3.294-1.463-3.294-3.293s1.466-3.318 3.294-3.318zM263.784 108.353c-2.667 0-4.868 2.176-4.868 4.844 0 2.667 2.2 4.843 4.868 4.843s4.844-2.176 4.844-4.843a4.855 4.855 0 0 0-4.844-4.844zm0 1.55a3.279 3.279 0 0 1 3.294 3.294 3.279 3.279 0 0 1-3.294 3.293c-1.83 0-3.317-1.463-3.317-3.293-.001-1.83 1.487-3.294 3.317-3.294zM282.647 108.353a4.853 4.853 0 0 0-4.843 4.844c0 2.667 2.176 4.843 4.843 4.843s4.844-2.176 4.844-4.843a4.853 4.853 0 0 0-4.844-4.844zm0 1.55a3.279 3.279 0 0 1 3.293 3.294c0 1.83-1.463 3.293-3.293 3.293s-3.293-1.463-3.293-3.293a3.28 3.28 0 0 1 3.293-3.294zM301.542 108.353c-2.668 0-4.868 2.176-4.868 4.844 0 2.667 2.2 4.843 4.868 4.843s4.845-2.176 4.845-4.843a4.854 4.854 0 0 0-4.845-4.844zm0 1.55a3.28 3.28 0 0 1 3.295 3.294c0 1.83-1.465 3.293-3.295 3.293s-3.318-1.463-3.318-3.293 1.488-3.294 3.318-3.294zM320.405 108.353a4.853 4.853 0 0 0-4.844 4.844c0 2.667 2.176 4.843 4.844 4.843s4.844-2.176 4.844-4.843a4.853 4.853 0 0 0-4.844-4.844zm0 1.55a3.28 3.28 0 0 1 3.294 3.294c0 1.83-1.464 3.293-3.294 3.293s-3.293-1.463-3.293-3.293a3.28 3.28 0 0 1 3.293-3.294zM263.784 129.811c-2.667 0-4.868 2.176-4.868 4.844s2.2 4.844 4.868 4.844 4.844-2.176 4.844-4.844a4.855 4.855 0 0 0-4.844-4.844zm0 1.55c1.831 0 3.294 1.463 3.294 3.293s-1.463 3.293-3.294 3.293c-1.83 0-3.317-1.463-3.317-3.293s1.487-3.293 3.317-3.293zM282.647 129.811a4.853 4.853 0 0 0-4.843 4.844c0 2.668 2.176 4.844 4.843 4.844s4.844-2.176 4.844-4.844a4.853 4.853 0 0 0-4.844-4.844zm0 1.55c1.83 0 3.293 1.463 3.293 3.293s-1.463 3.293-3.293 3.293-3.293-1.463-3.293-3.293 1.463-3.293 3.293-3.293zM301.542 129.811c-2.668 0-4.868 2.176-4.868 4.844s2.2 4.844 4.868 4.844 4.845-2.176 4.845-4.844a4.854 4.854 0 0 0-4.845-4.844zm0 1.55c1.83 0 3.295 1.463 3.295 3.293s-1.465 3.293-3.295 3.293-3.318-1.463-3.318-3.293 1.488-3.293 3.318-3.293zM320.405 129.811a4.853 4.853 0 0 0-4.844 4.844c0 2.668 2.176 4.844 4.844 4.844s4.844-2.176 4.844-4.844a4.853 4.853 0 0 0-4.844-4.844zm0 1.55c1.83 0 3.294 1.463 3.294 3.293s-1.464 3.293-3.294 3.293-3.293-1.463-3.293-3.293 1.463-3.293 3.293-3.293zM330.023 97.601c-2.669 0-4.844 2.2-4.844 4.868a4.853 4.853 0 0 0 4.844 4.844c2.667 0 4.868-2.176 4.868-4.844.001-2.668-2.201-4.868-4.868-4.868zm0 1.55c1.83 0 3.318 1.488 3.318 3.318s-1.488 3.293-3.318 3.293c-1.831 0-3.294-1.463-3.294-3.293s1.463-3.318 3.294-3.318zM254.507 118.792c-2.667 0-4.843 2.2-4.843 4.868a4.854 4.854 0 0 0 4.843 4.844c2.668 0 4.868-2.176 4.868-4.844s-2.2-4.868-4.868-4.868zm0 1.549a3.32 3.32 0 0 1 3.318 3.318c0 1.83-1.488 3.294-3.318 3.294a3.28 3.28 0 0 1-3.293-3.294c-.001-1.829 1.464-3.318 3.293-3.318zM273.394 118.792c-2.667 0-4.844 2.2-4.844 4.868 0 2.667 2.177 4.844 4.844 4.844s4.843-2.176 4.843-4.844-2.175-4.868-4.843-4.868zm0 1.549c1.83 0 3.293 1.488 3.293 3.318a3.28 3.28 0 0 1-3.293 3.294 3.28 3.28 0 0 1-3.293-3.294c0-1.829 1.463-3.318 3.293-3.318zM292.265 118.792c-2.667 0-4.843 2.2-4.843 4.868a4.854 4.854 0 0 0 4.843 4.844c2.667 0 4.868-2.176 4.868-4.844s-2.201-4.868-4.868-4.868zm0 1.549a3.321 3.321 0 0 1 3.318 3.318c0 1.83-1.488 3.294-3.318 3.294a3.28 3.28 0 0 1-3.293-3.294c-.001-1.829 1.463-3.318 3.293-3.318zM311.151 118.792c-2.668 0-4.844 2.2-4.844 4.868 0 2.667 2.176 4.844 4.844 4.844s4.843-2.176 4.843-4.844-2.175-4.868-4.843-4.868zm0 1.549c1.829 0 3.293 1.488 3.293 3.318a3.28 3.28 0 0 1-3.293 3.294 3.282 3.282 0 0 1-3.294-3.294c0-1.829 1.466-3.318 3.294-3.318zM330.023 118.792c-2.669 0-4.844 2.2-4.844 4.868a4.853 4.853 0 0 0 4.844 4.844c2.667 0 4.868-2.176 4.868-4.844.001-2.668-2.201-4.868-4.868-4.868zm0 1.549a3.321 3.321 0 0 1 3.318 3.318c0 1.83-1.488 3.294-3.318 3.294a3.28 3.28 0 0 1-3.294-3.294c0-1.829 1.463-3.318 3.294-3.318zM254.507 140.007a4.853 4.853 0 0 0-4.843 4.844 4.853 4.853 0 0 0 4.843 4.843c2.668 0 4.868-2.176 4.868-4.843 0-2.668-2.2-4.844-4.868-4.844zm0 1.55c1.831 0 3.318 1.464 3.318 3.294s-1.488 3.293-3.318 3.293a3.28 3.28 0 0 1-3.293-3.293 3.28 3.28 0 0 1 3.293-3.294zM273.394 140.007a4.854 4.854 0 0 0-4.844 4.844c0 2.667 2.177 4.843 4.844 4.843s4.843-2.176 4.843-4.843a4.852 4.852 0 0 0-4.843-4.844zm0 1.55a3.28 3.28 0 0 1 3.293 3.294 3.28 3.28 0 0 1-3.293 3.293 3.28 3.28 0 0 1-3.293-3.293 3.28 3.28 0 0 1 3.293-3.294zM292.265 140.007a4.853 4.853 0 0 0-4.843 4.844 4.853 4.853 0 0 0 4.843 4.843c2.667 0 4.868-2.176 4.868-4.843 0-2.668-2.201-4.844-4.868-4.844zm0 1.55c1.83 0 3.318 1.464 3.318 3.294s-1.488 3.293-3.318 3.293a3.28 3.28 0 0 1-3.293-3.293 3.279 3.279 0 0 1 3.293-3.294zM311.151 140.007a4.853 4.853 0 0 0-4.844 4.844c0 2.667 2.176 4.843 4.844 4.843s4.843-2.176 4.843-4.843a4.852 4.852 0 0 0-4.843-4.844zm0 1.55a3.28 3.28 0 0 1 3.293 3.294 3.28 3.28 0 0 1-3.293 3.293 3.281 3.281 0 0 1-3.294-3.293 3.282 3.282 0 0 1 3.294-3.294zM330.023 140.007a4.853 4.853 0 0 0-4.844 4.844 4.852 4.852 0 0 0 4.844 4.843c2.667 0 4.868-2.176 4.868-4.843.001-2.668-2.201-4.844-4.868-4.844zm0 1.55c1.83 0 3.318 1.464 3.318 3.294s-1.488 3.293-3.318 3.293a3.28 3.28 0 0 1-3.294-3.293 3.28 3.28 0 0 1 3.294-3.294zM125.881 99.828a3.02 3.02 0 0 0-3.003 3.003v6.466a3.02 3.02 0 0 0 3.003 3.003h62.75c1.646 0 2.979-1.357 2.979-3.003v-6.466c0-1.646-1.333-3.003-2.979-3.003h-62.75zm0 1.55h62.75c.809 0 1.429.645 1.429 1.453v6.466c0 .808-.621 1.453-1.429 1.453h-62.75a1.447 1.447 0 0 1-1.453-1.453v-6.466a1.447 1.447 0 0 1 1.453-1.453z"/>
    <path fill="#F4F4F4" d="M135.135 99.828a3.02 3.02 0 0 0-3.003 3.003v6.103a3.02 3.02 0 0 0 3.003 3.003h24.243a3.02 3.02 0 0 0 3.003-3.003v-6.103a3.02 3.02 0 0 0-3.003-3.003h-24.243zm0 1.55h24.243c.808 0 1.454.645 1.454 1.453v6.103c0 .808-.646 1.453-1.454 1.453h-24.243a1.446 1.446 0 0 1-1.453-1.453v-6.103c0-.808.645-1.453 1.453-1.453zM394.394 187.138c-15.292 0-27.706 12.414-27.706 27.706s12.414 27.706 27.706 27.706 27.705-12.414 27.705-27.706-12.413-27.706-27.705-27.706zm0 1.55c14.455 0 26.155 11.702 26.155 26.156S408.849 241 394.394 241c-14.454 0-26.156-11.702-26.156-26.156s11.701-26.156 26.156-26.156z"/>
    <path fill="#F4F4F4" d="M394.394 192.245c-12.48 0-22.621 10.114-22.621 22.596 0 12.48 10.141 22.621 22.621 22.621 12.481 0 22.621-10.141 22.621-22.621 0-12.482-10.14-22.596-22.621-22.596zm0 1.55c11.645 0 21.071 9.403 21.071 21.046 0 11.644-9.427 21.071-21.071 21.071-11.644 0-21.07-9.428-21.07-21.071s9.426-21.046 21.07-21.046zM458.261 187.138c-15.291 0-27.706 12.414-27.706 27.706s12.415 27.706 27.706 27.706c15.292 0 27.706-12.414 27.706-27.706s-12.414-27.706-27.706-27.706zm0 1.55c14.455 0 26.156 11.702 26.156 26.156S472.716 241 458.261 241c-14.454 0-26.156-11.702-26.156-26.156s11.702-26.156 26.156-26.156z"/>
    <path fill="#F4F4F4" d="M458.261 192.245c-12.48 0-22.62 10.114-22.62 22.596 0 12.48 10.14 22.621 22.62 22.621 12.481 0 22.596-10.141 22.596-22.621-.001-12.482-10.115-22.596-22.596-22.596zm0 1.55c11.645 0 21.046 9.403 21.046 21.046 0 11.644-9.403 21.071-21.046 21.071s-21.07-9.428-21.07-21.071 9.427-21.046 21.07-21.046zM117.647 141.727c-3.69 0-6.709 2.995-6.709 6.685v19.205c0 1.251-.127 1.826-.194 1.914-.033.043-.041.074-.242.121s-.569.073-1.065.073H89.626c-3.69 0-6.684 3.019-6.684 6.709v30.854a6.687 6.687 0 0 0 6.684 6.684h19.617c.632 0 1.097.015 1.38.049.283.034.352.105.314.071-.036-.031-.02-.098 0 .073.021.173 0 .502 0 .945v20.173c0 3.69 3.019 6.709 6.709 6.709H148.5c3.69 0 6.684-3.019 6.684-6.709v-20.101c0-.35.02-.638.048-.8.029-.161.051-.171.073-.193.044-.045.418-.236 1.501-.218h19.69c3.69 0 6.708-2.994 6.708-6.685v-30.854c0-3.689-3.018-6.708-6.708-6.708H156.76c-.475 0-.813-.02-1.018-.073-.205-.053-.265-.107-.314-.169-.1-.124-.243-.668-.243-1.816V148.41a6.687 6.687 0 0 0-6.684-6.685l-30.854.002zm0 1.549h30.854a5.114 5.114 0 0 1 5.134 5.135v19.254c0 1.219.014 2.082.581 2.785.284.352.714.593 1.139.702.424.11.87.122 1.405.122h19.738a5.155 5.155 0 0 1 5.159 5.159v30.854c0 2.852-2.307 5.134-5.159 5.134h-19.666c-1.215-.021-2.056.084-2.64.679-.292.296-.422.667-.485 1.017a5.92 5.92 0 0 0-.072 1.065v20.102c0 2.853-2.282 5.159-5.134 5.159h-30.854a5.155 5.155 0 0 1-5.159-5.159V215.11c0-.431.018-.763-.024-1.114-.042-.351-.175-.773-.509-1.065s-.718-.384-1.138-.436a13.3 13.3 0 0 0-1.574-.073H89.627a5.112 5.112 0 0 1-5.134-5.134v-30.854c0-2.853 2.281-5.159 5.134-5.159h19.81c.541 0 .983.003 1.405-.097.421-.098.86-.338 1.138-.702.556-.726.509-1.564.509-2.858v-19.205c0-2.852 2.306-5.134 5.159-5.134l-.001-.003z"/>
    <path fill="#F4F4F4" d="M117.502 146.353a1.85 1.85 0 0 0-1.841 1.841v25.938c0 .171-.034.217-.097.217h-26.06c-1.009 0-1.84.855-1.84 1.865v31.098a1.85 1.85 0 0 0 1.84 1.84h26.035c.094.008.157.034.145.024-.014-.012-.024-.053-.024.024v26.495c0 1.01.831 1.84 1.841 1.84h31.121c1.009 0 1.84-.83 1.84-1.84V209.2c0-.03-.078-.049.146-.049h26.035a1.85 1.85 0 0 0 1.841-1.84v-31.098c0-1.009-.831-1.865-1.841-1.865h-26.059c-.054 0-.121-.042-.121-.193v-25.962a1.85 1.85 0 0 0-1.84-1.841h-31.121v.001zm0 1.55h31.121c.171 0 .291.119.291.291v25.962c0 .897.699 1.744 1.671 1.744h26.059c.173 0 .291.142.291.314v31.098c0 .171-.118.29-.291.29h-26.035c-.937 0-1.695.78-1.695 1.599v26.495c0 .173-.12.29-.291.29h-31.121a.277.277 0 0 1-.291-.29V209.2c0-.437-.177-.896-.509-1.187-.331-.292-.744-.412-1.162-.412H89.505a.277.277 0 0 1-.291-.29v-31.098c0-.173.118-.314.291-.314h26.06c.985 0 1.647-.893 1.647-1.768v-25.938a.276.276 0 0 1 .29-.29z"/>
    <path fill="#F4F4F4" d="M133.075 179.821c-6.629 0-12.037 5.408-12.037 12.037s5.408 12.012 12.037 12.012c6.628 0 12.012-5.383 12.012-12.012s-5.384-12.037-12.012-12.037zm0 1.55c5.791 0 10.462 4.695 10.462 10.487a10.445 10.445 0 0 1-10.462 10.462c-5.792 0-10.487-4.671-10.487-10.462 0-5.792 4.695-10.487 10.487-10.487zM104.594 180.644l-1.308 1.332-9.324 9.324-.557.557.557.533 9.324 9.348 1.308 1.308v-3.754h9.009v-14.87h-9.009v-3.779.001zm-1.551 3.753v1.574h9.009v11.77h-9.009v1.55l-7.435-7.436 7.435-7.458zM125.64 211.311v9.008h-3.778l1.332 1.332 9.324 9.324.557.557.532-.557 9.349-9.324 1.307-1.332h-3.753v-9.008H125.64zm1.55 1.549h11.77v9.008h1.55l-7.46 7.459-7.435-7.459h1.574v-.774l.001-8.234zM161.531 180.644v3.778h-9.009V199.292h9.009v3.754l1.332-1.309 9.324-9.354.557-.535-.557-.559-9.324-9.322-1.333-1.334.001.011zm1.551 3.753 7.459 7.459-7.459 7.436v-1.55h-9.01v-11.77h9.01V184.397zM133.075 152.193l-.557.557-9.324 9.324-1.332 1.308h3.778v9.009h14.871v-9.009h3.753l-1.308-1.308-9.348-9.324-.533-.557zm-.025 2.18 7.46 7.459h-1.55v9.009h-11.771v-9.009h-1.573l7.434-7.459z"/>
    <path fill="#F4F4F4" d="M72.165 72.849c-9.068 0-16.42 7.566-16.42 16.856v167.159c0 9.291 7.352 16.855 16.42 16.855h445.109c9.068 0 16.396-7.564 16.396-16.855V89.705c0-9.29-7.332-16.856-16.398-16.856H72.162h.003zm0 1.55h445.109c8.207 0 14.847 6.831 14.847 15.306v167.159c0 8.476-6.64 15.306-14.847 15.306H72.165c-8.208 0-14.872-6.828-14.872-15.306V89.705c0-8.476 6.664-15.306 14.872-15.306z"/>
    <path fill="#F4F4F4" d="M294.923 169.677c-5.3 0-9.614 4.315-9.614 9.615v.774H304.538v-.774c0-5.3-4.315-9.615-9.615-9.615zm0 1.55c4.188 0 7.516 3.211 7.92 7.29h-15.839c.405-4.079 3.73-7.29 7.919-7.29z"/>
    <path fill="#F4F4F4" d="M294.923 166.941c-6.807 0-12.327 5.544-12.327 12.352h1.55c0-5.97 4.809-10.802 10.777-10.802a10.797 10.797 0 0 1 10.802 10.802h1.55c-.001-6.808-5.544-12.352-12.352-12.352z"/>
</svg>
