<svg data-name="3DS" width="589" height="350" xmlns="http://www.w3.org/2000/svg">
    <path d="M149.5 336.88a9.76 9.76 0 0 1-9.75-9.75V178.38h1.5v148.75a8.26 8.26 0 0 0 8.25 8.25h290a8.26 8.26 0 0 0 8.25-8.25V178.38h1.5v148.75a9.76 9.76 0 0 1-9.75 9.75z" style="fill:#f4f4f4"/>
    <path d="M151.16 189.21a11.42 11.42 0 0 1 0-22.83h286.68a11.42 11.42 0 0 1 0 22.83zm0-21.33a9.92 9.92 0 1 0 0 19.83h286.68a9.92 9.92 0 0 0 0-19.83z" style="fill:#f4f4f4"/>
    <path d="M410.25 188.71v-25.33h37.5V25.13a8.26 8.26 0 0 0-8.25-8.25h-290a8.26 8.26 0 0 0-8.25 8.25v138.25h37.5v24.75h-1.5v-23.25h-37.5V25.13a9.76 9.76 0 0 1 9.75-9.75h290a9.76 9.76 0 0 1 9.75 9.75v139.75h-37.5v23.83z" style="fill:#f4f4f4"/>
    <path d="M213.47 331.13a4 4 0 0 1-3.94-3.94V191.57a4 4 0 0 1 3.94-3.94h162.06a4 4 0 0 1 3.94 3.94v135.61a3.94 3.94 0 0 1-3.93 3.95zm0-141.9a2.36 2.36 0 0 0-2.35 2.34v135.61a2.37 2.37 0 0 0 2.35 2.35h162.06a2.34 2.34 0 0 0 2.34-2.34V191.57a2.34 2.34 0 0 0-2.34-2.34zm5.9 123a1.85 1.85 0 0 1-1.84-1.84v-112a1.84 1.84 0 0 1 1.83-1.85h150.27a1.85 1.85 0 0 1 1.84 1.84v112a1.85 1.85 0 0 1-1.84 1.84zm-.25-1.57h150.76V198.14H219.12ZM196.92 160.54a4.76 4.76 0 0 1-4.5-4.74V27.46a4.75 4.75 0 0 1 4.75-4.75h194.67a4.75 4.75 0 0 1 4.75 4.75v128.33a4.75 4.75 0 0 1-4.75 4.75zm.25-136.33a3.26 3.26 0 0 0-3.25 3.25v128.33a3.26 3.26 0 0 0 3.25 3.25h194.67a3.26 3.26 0 0 0 3.25-3.25V27.46a3.26 3.26 0 0 0-3.25-3.25zm5.33 129.34a2.75 2.75 0 0 1-2.75-2.75V32.46a2.75 2.75 0 0 1 2.75-2.75h184a2.75 2.75 0 0 1 2.75 2.75V150.8a2.75 2.75 0 0 1-2.75 2.75zm0-122.34a1.25 1.25 0 0 0-1.25 1.25v118.33a1.25 1.25 0 0 0 1.25 1.21h184a1.25 1.25 0 0 0 1.25-1.25V32.46a1.25 1.25 0 0 0-1.25-1.25zM172 246.19a21 21 0 1 1 21-21 21 21 0 0 1-21 21zm0-40.67a19.68 19.68 0 1 0 19.68 19.71A19.71 19.71 0 0 0 172 205.52Z" style="fill:#f4f4f4"/>
    <path d="M172 239.25a14 14 0 1 1 14-14 14 14 0 0 1-14 14zm0-26.86a12.81 12.81 0 1 0 12.81 12.86v-.13A12.82 12.82 0 0 0 172 212.39ZM166.63 297.13h-.25a1.55 1.55 0 0 1-1.56-1.54v-11.18h-11.15a1.56 1.56 0 0 1-1.56-1.56v-12a1.56 1.56 0 0 1 1.56-1.55h11.15v-11.14a1.56 1.56 0 0 1 1.56-1.55h12a1.56 1.56 0 0 1 1.56 1.55v11.16h11.15a1.56 1.56 0 0 1 1.56 1.55v12a1.56 1.56 0 0 1-1.56 1.56h-11.15v11.15a1.56 1.56 0 0 1-1.55 1.55zm-1.95-14.05a1.78 1.78 0 0 1 .95.27 1.32 1.32 0 0 1 .46 1.1v11.25l.19.09h12.35v-11.23a1.62 1.62 0 0 1 .27-.94 1.36 1.36 0 0 1 1.06-.5h11.35v-12.5h-11.25a1.53 1.53 0 0 1-1-.35 1.5 1.5 0 0 1-.45-1.14v-11.26h-12.5v11.25a1.49 1.49 0 0 1-.33 1 1.33 1.33 0 0 1-1 .48h-11.4v12.5h11.3zM416 153.75a2.15 2.15 0 0 1-2.15-2.14v-4.21a2.16 2.16 0 0 1 2.15-2.15h4.2a2.15 2.15 0 0 1 2.15 2.15v4.21a2.14 2.14 0 0 1-2.14 2.14zm0-7.4a1 1 0 0 0-1 1.05v4.21a1 1 0 0 0 1 1h4.21a1 1 0 0 0 1.05-1v-4.21a1 1 0 0 0-1.05-1.05zM168.81 153.75a2.15 2.15 0 0 1-2.15-2.15v-4.2a2.17 2.17 0 0 1 .62-1.52 2.13 2.13 0 0 1 1.51-.63H173a2.15 2.15 0 0 1 2.15 2.15v4.2a2.16 2.16 0 0 1-2.15 2.15zm-1.05-2.15a1 1 0 0 0 1 1H173a1.05 1.05 0 0 0 1.05-1v-4.2a1 1 0 0 0-1-1h-4.25a1 1 0 0 0-1.05 1v.6zM416 37.25a2.15 2.15 0 0 1-2.15-2.15v-4.2a2.16 2.16 0 0 1 2.15-2.15h4.2a2.15 2.15 0 0 1 2.15 2.15v4.2a2.17 2.17 0 0 1-.62 1.52 2.13 2.13 0 0 1-1.51.63zm0-7.4a1 1 0 0 0-1.05 1v4.2a1 1 0 0 0 1.05 1h4.2a1 1 0 0 0 1.05-1V30.9a1 1 0 0 0-1.05-1zM168.8 37.25a2.15 2.15 0 0 1-2.14-2.13V30.9a2.15 2.15 0 0 1 2.15-2.15H173a2.16 2.16 0 0 1 2.15 2.15v4.2a2.15 2.15 0 0 1-2.15 2.15Zm-1-2.15a1 1 0 0 0 1.05 1H173a1 1 0 0 0 1.05-1v-4.2a1.06 1.06 0 0 0-1.05-1h-4.2a1 1 0 0 0-1.05 1v.25zM430.25 178.53c0 .4-.89.73-2 .73-1.1 0-2-.33-2-.73V176c0-.4.9-.72 2-.72 1.11 0 2 .32 2 .72zM409.11 76.11a1.21 1.21 0 1 1-1.21 1.21 1.21 1.21 0 0 1 1.21-1.21zm9-8.79a1.21 1.21 0 1 1-1.21 1.21 1.21 1.21 0 0 1 1.19-1.21zm0 8.79a1.21 1.21 0 0 1 0 2.42 1.21 1.21 0 0 1 0-2.42zm9 0a1.21 1.21 0 1 1-1.21 1.21 1.21 1.21 0 0 1 1.18-1.21zm-19.21 1.21a1.21 1.21 0 1 1 1.21 1.21 1.21 1.21 0 0 1-1.21-1.21zm9 8.79a1.21 1.21 0 1 1 1.21 1.21 1.21 1.21 0 0 1-1.23-1.19zm0-8.79a1.21 1.21 0 1 1 1.21 1.21 1.21 1.21 0 0 1-1.23-1.19zm9 0a1.21 1.21 0 1 1 1.21 1.21 1.21 1.21 0 0 1-1.24-1.18zM161.92 76.11a1.21 1.21 0 1 1-1.21 1.21 1.21 1.21 0 0 1 1.21-1.21zm9-8.79a1.21 1.21 0 1 1-1.21 1.21 1.21 1.21 0 0 1 1.21-1.21zm0 8.79a1.21 1.21 0 1 1-1.21 1.21 1.21 1.21 0 0 1 1.21-1.21zm9 0a1.21 1.21 0 1 1-1.21 1.21 1.21 1.21 0 0 1 1.21-1.21zm-19.18 1.21a1.21 1.21 0 1 1 1.26 1.21 1.21 1.21 0 0 1-1.21-1.21zm9 8.79a1.21 1.21 0 1 1 1.26 1.21 1.21 1.21 0 0 1-1.21-1.21zm0-8.79a1.21 1.21 0 1 1 1.26 1.21 1.21 1.21 0 0 1-1.21-1.21zm9 0a.86.86 0 1 1-.06.06v-.06zM393.74 313.75a4.73 4.73 0 1 1 4.75-4.75 4.75 4.75 0 0 1-4.75 4.75zm-.05-8.09a3.35 3.35 0 1 0 3.36 3.34 3.34 3.34 0 0 0-3.36-3.34zM393.74 297.33a4.75 4.75 0 1 1 4.75-4.75 4.75 4.75 0 0 1-4.75 4.75zm0-8.1a3.35 3.35 0 1 0 3.35 3.35 3.38 3.38 0 0 0-3.35-3.35zM397.26 252.36a8.58 8.58 0 1 1 8.58-8.58 8.59 8.59 0 0 1-8.58 8.58zm0-15.83a7.25 7.25 0 1 0 7.25 7.25 7.26 7.26 0 0 0-7.22-7.25zM413.69 268.78a8.58 8.58 0 1 1 8.58-8.58 8.59 8.59 0 0 1-8.58 8.58zm0-15.83a7.25 7.25 0 1 0 7.31 7.25 7.26 7.26 0 0 0-7.29-7.2zM430.57 252.36a8.58 8.58 0 1 1 8.59-8.58 8.59 8.59 0 0 1-8.59 8.58zm0-15.83a7.25 7.25 0 1 0 7.25 7.25 7.26 7.26 0 0 0-7.22-7.25zM413.69 235.78a8.58 8.58 0 1 1 8.58-8.58 8.59 8.59 0 0 1-8.58 8.58zm0-15.83a7.25 7.25 0 1 0 7.31 7.25 7.26 7.26 0 0 0-7.29-7.2zM397.45 217.68a6.75 6.75 0 1 1 6.75-6.75 6.76 6.76 0 0 1-6.75 6.75zm0-12.5a5.76 5.76 0 1 0 5.75 5.75 5.77 5.77 0 0 0-5.78-5.75z" style="fill:#f4f4f4"/>
    <g data-name="3D">
        <path d="M442.64 100.16h5.72v34.51h-5.72a1 1 0 0 1-1-1v-32.51a1 1 0 0 1 1-1z" style="fill:none;stroke:#f4f4f4;stroke-width:1.5px;stroke-miterlimit:10"/>
        <path d="M442.64 100.16h5.72v10h-5.72a1 1 0 0 1-1-1v-8a1 1 0 0 1 1-1z" style="fill:none;stroke:#f4f4f4;stroke-width:1.5px;stroke-miterlimit:10"/>
    </g>
    <path data-name="slot-2" d="M140.64 100.16h5.72a1 1 0 0 1 1 1v32.51a1 1 0 0 1-1 1h-5.72z" style="fill:none;stroke:#f4f4f4;stroke-width:1.5px;stroke-miterlimit:10"/>
    <path data-name="slider-2" d="M140.64 100.16h5.72a1 1 0 0 1 1 1v8a1 1 0 0 1-1 1h-5.72z" style="fill:none;stroke:#f4f4f4;stroke-width:1.5px;stroke-miterlimit:10"/>
</svg>
