<svg height="357.641" viewBox="0 0 2304.289 1037.159" width="794.582" xmlns="http://www.w3.org/2000/svg">
    <g fill="#f4f4f4" fill-opacity=".5" stroke-width="2.9">
        <path d="M1464.118 129.16q0 .928-.224 1.562-.333.944-1.068.944-.487 0-1.02-.225-.642-.27-.704-.665.216 0 .51.078.68.177.85.177.658 0 .99-.657.264-.526.264-1.26 0-.519-.34-1.477-.333-.967-.333-1.346 0-.116.062-.186.07-.077.185-.077.302 0 .588 1.392.24 1.176.24 1.74zM1467.095 129.949q0 .789-.456 1.237-.456.449-1.26.449-.441 0-.681-.21-.24-.208-.24-.641 0-.61.797-1.23.757-.587 1.4-.587.293 0 .386.363.054.209.054.619zm-.472.216q0-.092-.023-.177-.014-.093-.061-.21-.124.086-.41.418-.147.17-.256.248 0-.147.031-.24.062-.131.1-.224-.34 0-.71.286-.364.286-.364.619 0 .224.247.224.472 0 .913-.232.534-.279.534-.712zM1470.281 130.266q0 .379-.286.85-.325.534-.673.534-.1 0-.17-.108-.062-.116-.062-.224 0-.14.294-.433.302-.302.302-.41 0-.07-.023-.14l-.031-.092q-.58.131-1.183.665-.596.533-.905.603-.062-.17-.062-.348 0-.217.1-.456.07-.17.232-.41.271-.41.573-.928l.533-.936q.387-.665.565-.943.093-.14.162-.21.1-.092.24-.123.093.031.131.116.046.085.046.201 0 .263-.34.712-.619.804-.634.835-.348.526-.348.951l.015.077q.425-.208.503-.24.317-.13.54-.13.248 0 .364.17.116.162.116.417zM1473.87 129.81q0 .526-.256 1.121-.278.657-.688.905-.085-.1-.147-.224-.054-.124-.054-.248 0-.131.387-.781.17-.286.154-.503l-.01-.1q-.286.085-.99.518-.695.425-1.407.866-.108 0-.2-.077-.086-.085-.086-.186 0-.162.518-1.09.155-.279.557-.967.124.162.162.364.04.193.04.464v.177q.71-.425 1.113-.641.44-.24.603-.24.108 0 .201.247.1.248.1.395zM1480.59 131.31q0 .14-.124.216-.116.07-.263.07-.131 0-.332-.03-.457-.07-.588-.07-.232 0-.913.054-.386.03-.556.03-.472 0-.472-.471 0-.449.294-1.284.162-.472.61-1.547.403-.966.511-1.36.04-.124.062-.163.062-.093.155-.093.147 0 .247.217.1.208.1.379 0 .27-.316.912-.317.634-.619 1.245-.333.727-.333 1.106 0 .193.163.27.116.055.34.055.17 0 .588-.039.417-.046.557-.046.348 0 .572.1.317.14.317.449zM1483.467 129.949q0 .789-.457 1.237-.456.449-1.26.449-.44 0-.68-.21-.24-.208-.24-.641 0-.61.796-1.23.758-.587 1.4-.587.294 0 .387.363.054.209.054.619zm-.472.216q0-.092-.023-.177-.015-.093-.062-.21-.124.086-.41.418-.147.17-.255.248 0-.147.03-.24.063-.131.101-.224-.34 0-.711.286-.363.286-.363.619 0 .224.247.224.472 0 .913-.232.533-.279.533-.712zM1486.722 129.786q0 .248-.131.526-.124.279-.317.464l-.01-.108q0-.093.023-.286.023-.193.023-.286 0-.132-.04-.194-.038-.07-.161-.07-.364 0-.905.565l-1.168 1.23q-.046 0-.093-.008l-.155-.039q.023-.278.194-.618.456-.92.471-.983.062-.247.093-.363.031-.116.085-.24.062-.131.14-.232.085-.108.216-.162l.077.928q.333-.27.51-.418.34-.27.588-.27.248 0 .402.162.155.162.155.402zM1490.52 128.89q0 .324-.867.858-.835.51-1.214.51-.178 0-.24-.124-.053-.123-.053-.348v-.208q.518 0 .943-.155.425-.155.742-.51-.232-.086-.471-.086-.565 0-1.2.434-.695.471-.695 1.005 0 .51.696.711.108.031 1.307.217.704.108.704.379 0 .116-.256.185-.255.078-.65.078-.99 0-1.561-.302-.758-.402-.758-1.291 0-.928.928-1.477.789-.464 1.794-.464.302 0 .549.139.302.17.302.448zM1493.597 127.505q0 .17-.41.712-.41.54-.41.827 0 .147.17.294.387.34.387.418 0 .1-.07.193-.062.093-.162.093-.085 0-.24-.093-.108-.062-.417-.302-.116.225-.178.34-.217.41-.294.596l-.232.711q-.201.48-.503.48l-.01-.178q0-.549.356-1.3.07-.138.387-.718-.611-.333-1.346-.333 0-.286.116-.417.124-.14.41-.14.263 0 .657.093l.387.093q.147-.047.402-.503.627-1.098.85-1.26.063.1.101.2.046.101.046.194zM1496.451 130.266q0 .379-.286.85-.325.534-.673.534-.1 0-.17-.108-.062-.116-.062-.224 0-.14.294-.433.301-.302.301-.41 0-.07-.023-.14l-.03-.092q-.58.131-1.184.665-.595.533-.905.603-.062-.17-.062-.348 0-.217.1-.456.07-.17.233-.41.27-.41.572-.928l.534-.936q.387-.665.564-.943.093-.14.163-.21.1-.092.24-.123.093.031.13.116.047.085.047.201 0 .263-.34.712-.619.804-.634.835-.348.526-.348.951l.015.077q.425-.208.502-.24.317-.13.542-.13.247 0 .363.17.116.162.116.417zM1502.8 127.745q0 .363-.387.974-.247.387-.812 1.114-.564.719-.703.943l.58.186q.564.17.564.619-.232.038-.456.07l-.085-.009v-.062q-.124-.03-.201-.03-.147 0-.464.046-.317.046-.48.046-.209 0-.34-.077-.131-.077-.131-.279 0-.162.595-.92 1.114-1.415 1.121-1.43.604-.82.604-1.099 0-.108-.077-.162-.07-.054-.287-.054-.147 0-.61.286-.225.14-.364.14l-.131-.024q-.046-.03-.101-.116-.054-.093-.054-.147 0-.325.626-.595.534-.232.928-.232.333 0 .51.247.156.217.156.565zM1507.448 129.137q0 .936-1.013 1.655-.928.657-1.91.657-.488 0-.774-.247-.286-.248-.286-.72 0-1.051.92-1.825.874-.734 1.957-.734.549 0 .827.325.279.324.279.889zm-.472.178q0-.356-.402-.534-.302-.131-.72-.131-.61 0-1.275.595-.665.596-.665 1.199 0 .247.123.356.132.1.395.1.758 0 1.577-.418.967-.494.967-1.167zM1510.99 127.745q0 .363-.387.974-.247.387-.812 1.114-.564.719-.704.943l.58.186q.565.17.565.619-.232.038-.456.07l-.086-.009v-.062q-.123-.03-.2-.03-.148 0-.465.046-.317.046-.48.046-.208 0-.34-.077-.13-.077-.13-.279 0-.162.595-.92 1.113-1.415 1.121-1.43.603-.82.603-1.099 0-.108-.077-.162-.07-.054-.286-.054-.147 0-.61.286-.225.14-.364.14l-.132-.024q-.046-.03-.1-.116-.054-.093-.054-.147 0-.325.626-.595.534-.232.928-.232.333 0 .51.247.155.217.155.565zM1514.547 127.745q0 .363-.387.974-.247.387-.812 1.114-.564.719-.703.943l.58.186q.564.17.564.619-.232.038-.456.07l-.085-.009v-.062q-.124-.03-.201-.03-.147 0-.464.046-.317.046-.48.046-.208 0-.34-.077-.131-.077-.131-.279 0-.162.595-.92 1.114-1.415 1.121-1.43.604-.82.604-1.099 0-.108-.077-.162-.07-.054-.287-.054-.147 0-.61.286-.225.14-.364.14l-.131-.024q-.046-.03-.1-.116-.055-.093-.055-.147 0-.325.626-.595.534-.232.928-.232.333 0 .51.247.156.217.156.565z"/>
    </g>
    <g fill="none" stroke="#f4f4f4">
        <rect height="1035.159" rx="6.224" stroke-width="5.8" width="2302.289" x="1" y="1"/>
        <rect height="91.623" rx="8.864" stroke-width="5.8" width="1405.305" x="119.68" y="20.86"/>
        <rect height="790.078" rx="27.202" stroke-width="5.8" width="2172.462" x="64.7" y="136.583"/>
        <circle cx="2017.316" cy="966.878" r="10.054" stroke-width="2.9"/>
        <g stroke-width="5.797" transform="matrix(1.00092 0 0 1 -55.957 -60.015)">
            <path d="M216.032 834.156h93.03c1.441 0 2.6 1.16 2.6 2.6v93.03c0 1.44-1.159 2.6-2.6 2.6h-93.03c-1.44 0-2.6-1.16-2.6-2.6v-93.03c0-1.44 1.16-2.6 2.6-2.6z"/>
            <rect height="97.802" rx="2.598" ry="2.6" width="923.143" x="569.082" y="835.256"/>
        </g>
        <g stroke-width="5.799" transform="matrix(1.00032 0 0 1 -55.466 172.287)">
            <path d="M1162.352 486.156h93.03c1.44 0 2.6 1.16 2.6 2.6v93.03c0 1.44-1.16 2.6-2.6 2.6h-93.03c-1.44 0-2.6-1.16-2.6-2.6v-93.03c0-1.44 1.16-2.6 2.6-2.6zM1044.352 486.156h93.03c1.44 0 2.6 1.16 2.6 2.6v93.03c0 1.44-1.16 2.6-2.6 2.6h-93.03c-1.44 0-2.6-1.16-2.6-2.6v-93.03c0-1.44 1.16-2.6 2.6-2.6zM926.352 486.156h93.03c1.44 0 2.6 1.16 2.6 2.6v93.03c0 1.44-1.16 2.6-2.6 2.6h-93.03c-1.44 0-2.6-1.16-2.6-2.6v-93.03c0-1.44 1.16-2.6 2.6-2.6zM808.352 486.156h93.03c1.44 0 2.6 1.16 2.6 2.6v93.03c0 1.44-1.16 2.6-2.6 2.6h-93.03c-1.44 0-2.6-1.16-2.6-2.6v-93.03c0-1.44 1.16-2.6 2.6-2.6zM690.352 486.156h93.03c1.44 0 2.6 1.16 2.6 2.6v93.03c0 1.44-1.16 2.6-2.6 2.6h-93.03c-1.44 0-2.6-1.16-2.6-2.6v-93.03c0-1.44 1.16-2.6 2.6-2.6zM572.352 486.156h93.03c1.44 0 2.6 1.16 2.6 2.6v93.03c0 1.44-1.16 2.6-2.6 2.6h-93.03c-1.44 0-2.6-1.16-2.6-2.6v-93.03c0-1.44 1.16-2.6 2.6-2.6zM454.352 486.156h93.03c1.44 0 2.6 1.16 2.6 2.6v93.03c0 1.44-1.16 2.6-2.6 2.6h-93.03c-1.44 0-2.6-1.16-2.6-2.6v-93.03c0-1.44 1.16-2.6 2.6-2.6zM1516.352 486.156h93.03c1.44 0 2.6 1.16 2.6 2.6v93.03c0 1.44-1.16 2.6-2.6 2.6h-93.03c-1.44 0-2.6-1.16-2.6-2.6v-93.03c0-1.44 1.16-2.6 2.6-2.6zM1398.352 486.156h93.03c1.44 0 2.6 1.16 2.6 2.6v93.03c0 1.44-1.16 2.6-2.6 2.6h-93.03c-1.44 0-2.6-1.16-2.6-2.6v-93.03c0-1.44 1.16-2.6 2.6-2.6zM1280.352 486.156h93.03c1.44 0 2.6 1.16 2.6 2.6v93.03c0 1.44-1.16 2.6-2.6 2.6h-93.03c-1.44 0-2.6-1.16-2.6-2.6v-93.03c0-1.44 1.16-2.6 2.6-2.6z"/>
            <rect height="98.231" rx="2.51" ry="2.51" width="256.046" x="176.165" y="486.049"/>
            <rect height="98.231" rx="2.51" ry="2.51" width="241.29" x="1631.699" y="486.049"/>
        </g>
        <g stroke-width="5.828" transform="matrix(.99051 0 0 1 -54.045 -60.015)">
            <rect height="98.231" rx="2.51" ry="2.51" width="197.488" x="176.167" y="602.049"/>
            <path d="M1104.352 602.156h93.03c1.44 0 2.6 1.16 2.6 2.6v93.03c0 1.44-1.16 2.6-2.6 2.6h-93.03c-1.44 0-2.6-1.16-2.6-2.6v-93.03c0-1.44 1.16-2.6 2.6-2.6zM986.352 602.156h93.03c1.44 0 2.6 1.16 2.6 2.6v93.03c0 1.44-1.16 2.6-2.6 2.6h-93.03c-1.44 0-2.6-1.16-2.6-2.6v-93.03c0-1.44 1.16-2.6 2.6-2.6zM868.352 602.156h93.03c1.44 0 2.6 1.16 2.6 2.6v93.03c0 1.44-1.16 2.6-2.6 2.6h-93.03c-1.44 0-2.6-1.16-2.6-2.6v-93.03c0-1.44 1.16-2.6 2.6-2.6zM750.352 602.156h93.03c1.44 0 2.6 1.16 2.6 2.6v93.03c0 1.44-1.16 2.6-2.6 2.6h-93.03c-1.44 0-2.6-1.16-2.6-2.6v-93.03c0-1.44 1.16-2.6 2.6-2.6zM632.352 602.156h93.03c1.44 0 2.6 1.16 2.6 2.6v93.03c0 1.44-1.16 2.6-2.6 2.6h-93.03c-1.44 0-2.6-1.16-2.6-2.6v-93.03c0-1.44 1.16-2.6 2.6-2.6zM514.352 602.156h93.03c1.44 0 2.6 1.16 2.6 2.6v93.03c0 1.44-1.16 2.6-2.6 2.6h-93.03c-1.44 0-2.6-1.16-2.6-2.6v-93.03c0-1.44 1.16-2.6 2.6-2.6zM396.352 602.156h93.03c1.44 0 2.6 1.16 2.6 2.6v93.03c0 1.44-1.16 2.6-2.6 2.6h-93.03c-1.44 0-2.6-1.16-2.6-2.6v-93.03c0-1.44 1.16-2.6 2.6-2.6zM1889.8 697.396a2.573 2.573 0 0 1-2.579 2.578h-192.478a2.573 2.573 0 0 1-2.578-2.578v-92.249a2.573 2.573 0 0 1 2.578-2.578l96.557.007c2.663 0 3.822-1.16 3.818-4.58l-.06-108.75c-.001-1.71 1.587-3.088 3.558-3.088h87.528c1.972 0 3.558 1.377 3.56 3.088l.047 113.206zM1458.352 602.156h93.03c1.44 0 2.6 1.16 2.6 2.6v93.03c0 1.44-1.16 2.6-2.6 2.6h-93.03c-1.44 0-2.6-1.16-2.6-2.6v-93.03c0-1.44 1.16-2.6 2.6-2.6zM1340.352 602.156h93.03c1.44 0 2.6 1.16 2.6 2.6v93.03c0 1.44-1.16 2.6-2.6 2.6h-93.03c-1.44 0-2.6-1.16-2.6-2.6v-93.03c0-1.44 1.16-2.6 2.6-2.6zM1222.352 602.156h93.03c1.44 0 2.6 1.16 2.6 2.6v93.03c0 1.44-1.16 2.6-2.6 2.6h-93.03c-1.44 0-2.6-1.16-2.6-2.6v-93.03c0-1.44 1.16-2.6 2.6-2.6zM1577.485 602.156h93.03c1.44 0 2.6 1.16 2.6 2.6v93.03c0 1.44-1.16 2.6-2.6 2.6h-93.03c-1.44 0-2.6-1.16-2.6-2.6v-93.03c0-1.44 1.16-2.6 2.6-2.6z"/>
        </g>
        <g stroke-width="5.8">
            <g transform="translate(-84.882 -176.015)">
                <rect height="98.231" rx="2.51" ry="2.51" width="167.488" x="206.167" y="602.049"/>
                <path d="M1104.352 602.156h93.03c1.44 0 2.6 1.16 2.6 2.6v93.03c0 1.44-1.16 2.6-2.6 2.6h-93.03c-1.44 0-2.6-1.16-2.6-2.6v-93.03c0-1.44 1.16-2.6 2.6-2.6zM986.352 602.156h93.03c1.44 0 2.6 1.16 2.6 2.6v93.03c0 1.44-1.16 2.6-2.6 2.6h-93.03c-1.44 0-2.6-1.16-2.6-2.6v-93.03c0-1.44 1.16-2.6 2.6-2.6zM868.352 602.156h93.03c1.44 0 2.6 1.16 2.6 2.6v93.03c0 1.44-1.16 2.6-2.6 2.6h-93.03c-1.44 0-2.6-1.16-2.6-2.6v-93.03c0-1.44 1.16-2.6 2.6-2.6zM750.352 602.156h93.03c1.44 0 2.6 1.16 2.6 2.6v93.03c0 1.44-1.16 2.6-2.6 2.6h-93.03c-1.44 0-2.6-1.16-2.6-2.6v-93.03c0-1.44 1.16-2.6 2.6-2.6zM632.352 602.156h93.03c1.44 0 2.6 1.16 2.6 2.6v93.03c0 1.44-1.16 2.6-2.6 2.6h-93.03c-1.44 0-2.6-1.16-2.6-2.6v-93.03c0-1.44 1.16-2.6 2.6-2.6zM514.352 602.156h93.03c1.44 0 2.6 1.16 2.6 2.6v93.03c0 1.44-1.16 2.6-2.6 2.6h-93.03c-1.44 0-2.6-1.16-2.6-2.6v-93.03c0-1.44 1.16-2.6 2.6-2.6zM396.352 602.156h93.03c1.44 0 2.6 1.16 2.6 2.6v93.03c0 1.44-1.16 2.6-2.6 2.6h-93.03c-1.44 0-2.6-1.16-2.6-2.6v-93.03c0-1.44 1.16-2.6 2.6-2.6zM1576.352 602.156h93.03c1.44 0 2.6 1.16 2.6 2.6v93.03c0 1.44-1.16 2.6-2.6 2.6h-93.03c-1.44 0-2.6-1.16-2.6-2.6v-93.03c0-1.44 1.16-2.6 2.6-2.6zM1458.352 602.156h93.03c1.44 0 2.6 1.16 2.6 2.6v93.03c0 1.44-1.16 2.6-2.6 2.6h-93.03c-1.44 0-2.6-1.16-2.6-2.6v-93.03c0-1.44 1.16-2.6 2.6-2.6zM1340.352 602.156h93.03c1.44 0 2.6 1.16 2.6 2.6v93.03c0 1.44-1.16 2.6-2.6 2.6h-93.03c-1.44 0-2.6-1.16-2.6-2.6v-93.03c0-1.44 1.16-2.6 2.6-2.6zM1222.352 602.156h93.03c1.44 0 2.6 1.16 2.6 2.6v93.03c0 1.44-1.16 2.6-2.6 2.6h-93.03c-1.44 0-2.6-1.16-2.6-2.6v-93.03c0-1.44 1.16-2.6 2.6-2.6zM1694.352 602.156h93.03c1.44 0 2.6 1.16 2.6 2.6v93.03c0 1.44-1.16 2.6-2.6 2.6h-93.03c-1.44 0-2.6-1.16-2.6-2.6v-93.03c0-1.44 1.16-2.6 2.6-2.6z"/>
            </g>
            <path d="M1067.798 310.14h93.03c1.44 0 2.6 1.16 2.6 2.601v93.03c0 1.44-1.16 2.6-2.6 2.6h-93.03c-1.44 0-2.6-1.16-2.6-2.6v-93.03c0-1.44 1.16-2.6 2.6-2.6zM949.798 310.14h93.03c1.44 0 2.6 1.16 2.6 2.601v93.03c0 1.44-1.16 2.6-2.6 2.6h-93.03c-1.44 0-2.6-1.16-2.6-2.6v-93.03c0-1.44 1.16-2.6 2.6-2.6zM831.798 310.14h93.03c1.44 0 2.6 1.16 2.6 2.601v93.03c0 1.44-1.16 2.6-2.6 2.6h-93.03c-1.44 0-2.6-1.16-2.6-2.6v-93.03c0-1.44 1.16-2.6 2.6-2.6zM713.798 310.14h93.03c1.44 0 2.6 1.16 2.6 2.601v93.03c0 1.44-1.16 2.6-2.6 2.6h-93.03c-1.44 0-2.6-1.16-2.6-2.6v-93.03c0-1.44 1.16-2.6 2.6-2.6zM595.798 310.14h93.03c1.44 0 2.6 1.16 2.6 2.601v93.03c0 1.44-1.16 2.6-2.6 2.6h-93.03c-1.44 0-2.6-1.16-2.6-2.6v-93.03c0-1.44 1.16-2.6 2.6-2.6zM477.798 310.14h93.03c1.44 0 2.6 1.16 2.6 2.601v93.03c0 1.44-1.16 2.6-2.6 2.6h-93.03c-1.44 0-2.6-1.16-2.6-2.6v-93.03c0-1.44 1.16-2.6 2.6-2.6zM359.798 310.14h93.03c1.44 0 2.6 1.16 2.6 2.601v93.03c0 1.44-1.16 2.6-2.6 2.6h-93.03c-1.44 0-2.6-1.16-2.6-2.6v-93.03c0-1.44 1.16-2.6 2.6-2.6zM1539.798 310.14h93.03c1.44 0 2.6 1.16 2.6 2.601v93.03c0 1.44-1.16 2.6-2.6 2.6h-93.03c-1.44 0-2.6-1.16-2.6-2.6v-93.03c0-1.44 1.16-2.6 2.6-2.6zM1421.798 310.14h93.03c1.44 0 2.6 1.16 2.6 2.601v93.03c0 1.44-1.16 2.6-2.6 2.6h-93.03c-1.44 0-2.6-1.16-2.6-2.6v-93.03c0-1.44 1.16-2.6 2.6-2.6zM1303.798 310.14h93.03c1.44 0 2.6 1.16 2.6 2.601v93.03c0 1.44-1.16 2.6-2.6 2.6h-93.03c-1.44 0-2.6-1.16-2.6-2.6v-93.03c0-1.44 1.16-2.6 2.6-2.6zM1185.798 310.14h93.03c1.44 0 2.6 1.16 2.6 2.601v93.03c0 1.44-1.16 2.6-2.6 2.6h-93.03c-1.44 0-2.6-1.16-2.6-2.6v-93.03c0-1.44 1.16-2.6 2.6-2.6zM1657.798 310.14h93.03c1.44 0 2.6 1.16 2.6 2.601v93.03c0 1.44-1.16 2.6-2.6 2.6h-93.03c-1.44 0-2.6-1.16-2.6-2.6v-93.03c0-1.44 1.16-2.6 2.6-2.6zM241.798 310.14h93.03c1.44 0 2.6 1.16 2.6 2.601v93.03c0 1.44-1.16 2.6-2.6 2.6h-93.03c-1.44 0-2.6-1.16-2.6-2.6v-93.03c0-1.44 1.16-2.6 2.6-2.6zM123.798 310.14h93.03c1.44 0 2.6 1.16 2.6 2.601v93.03c0 1.44-1.16 2.6-2.6 2.6h-93.03c-1.44 0-2.6-1.16-2.6-2.6v-93.03c0-1.44 1.16-2.6 2.6-2.6zM1605.204 194.14h93.03c1.44 0 2.6 1.16 2.6 2.601v93.03c0 1.44-1.16 2.6-2.6 2.6h-93.03c-1.44 0-2.6-1.16-2.6-2.6v-93.03c0-1.44 1.16-2.6 2.6-2.6zM1723.204 194.14h93.03c1.44 0 2.6 1.16 2.6 2.601v93.03c0 1.44-1.16 2.6-2.6 2.6h-93.03c-1.44 0-2.6-1.16-2.6-2.6v-93.03c0-1.44 1.16-2.6 2.6-2.6zM241.612 193.385h93.03c1.441 0 2.6 1.16 2.6 2.6v93.03c0 1.44-1.159 2.6-2.6 2.6h-93.03c-1.44 0-2.6-1.16-2.6-2.6v-93.03c0-1.44 1.16-2.6 2.6-2.6zM123.612 193.385h93.03c1.441 0 2.6 1.16 2.6 2.6v93.03c0 1.44-1.159 2.6-2.6 2.6h-93.03c-1.44 0-2.6-1.16-2.6-2.6v-93.03c0-1.44 1.16-2.6 2.6-2.6zM811.24 194.14h151.351c2.344 0 4.23 1.16 4.23 2.601v93.03c0 1.44-1.886 2.6-4.23 2.6h-151.35c-2.344 0-4.23-1.16-4.23-2.6v-93.03c0-1.44 1.886-2.6 4.23-2.6zM991.24 194.14h151.351c2.344 0 4.23 1.16 4.23 2.601v93.03c0 1.44-1.886 2.6-4.23 2.6h-151.35c-2.344 0-4.231-1.16-4.231-2.6v-93.03c0-1.44 1.887-2.6 4.23-2.6zM451.24 194.14h151.351c2.344 0 4.23 1.16 4.23 2.601v93.03c0 1.44-1.886 2.6-4.23 2.6h-151.35c-2.344 0-4.23-1.16-4.23-2.6v-93.03c0-1.44 1.886-2.6 4.23-2.6zM631.24 194.14h151.351c2.344 0 4.23 1.16 4.23 2.601v93.03c0 1.44-1.886 2.6-4.23 2.6h-151.35c-2.344 0-4.231-1.16-4.231-2.6v-93.03c0-1.44 1.887-2.6 4.23-2.6zM1171.24 194.14h151.351c2.344 0 4.23 1.16 4.23 2.601v93.03c0 1.44-1.886 2.6-4.23 2.6h-151.35c-2.344 0-4.231-1.16-4.231-2.6v-93.03c0-1.44 1.887-2.6 4.23-2.6zM1351.24 194.14h151.351c2.344 0 4.23 1.16 4.23 2.601v93.03c0 1.44-1.886 2.6-4.23 2.6h-151.35c-2.344 0-4.231-1.16-4.231-2.6v-93.03c0-1.44 1.887-2.6 4.23-2.6zM1852.231 658.14h93.03c1.441 0 2.6 1.16 2.6 2.601v93.03c0 1.44-1.159 2.6-2.6 2.6h-93.03c-1.44 0-2.6-1.16-2.6-2.6v-93.03c0-1.44 1.16-2.6 2.6-2.6zM1970.231 658.14h93.03c1.441 0 2.6 1.16 2.6 2.601v93.03c0 1.44-1.159 2.6-2.6 2.6h-93.03c-1.44 0-2.6-1.16-2.6-2.6v-93.03c0-1.44 1.16-2.6 2.6-2.6zM1970.231 544.14h93.03c1.441 0 2.6 1.16 2.6 2.601v93.03c0 1.44-1.159 2.6-2.6 2.6h-93.03c-1.44 0-2.6-1.16-2.6-2.6v-93.03c0-1.44 1.16-2.6 2.6-2.6zM1970.231 774.14h93.03c1.441 0 2.6 1.16 2.6 2.601v93.03c0 1.44-1.159 2.6-2.6 2.6h-93.03c-1.44 0-2.6-1.16-2.6-2.6v-93.03c0-1.44 1.16-2.6 2.6-2.6zM2086.231 658.14h93.03c1.441 0 2.6 1.16 2.6 2.601v93.03c0 1.44-1.159 2.6-2.6 2.6h-93.03c-1.44 0-2.6-1.16-2.6-2.6v-93.03c0-1.44 1.16-2.6 2.6-2.6zM1970.231 310.207h93.03c1.441 0 2.6 1.16 2.6 2.6v93.03c0 1.441-1.159 2.6-2.6 2.6h-93.03c-1.44 0-2.6-1.159-2.6-2.6v-93.03c0-1.44 1.16-2.6 2.6-2.6zM1970.231 194.207h93.03c1.441 0 2.6 1.16 2.6 2.6v93.03c0 1.441-1.159 2.6-2.6 2.6h-93.03c-1.44 0-2.6-1.159-2.6-2.6v-93.03c0-1.44 1.16-2.6 2.6-2.6zM1852.231 310.207h93.03c1.441 0 2.6 1.16 2.6 2.6v93.03c0 1.441-1.159 2.6-2.6 2.6h-93.03c-1.44 0-2.6-1.159-2.6-2.6v-93.03c0-1.44 1.16-2.6 2.6-2.6zM1852.231 194.207h93.03c1.441 0 2.6 1.16 2.6 2.6v93.03c0 1.441-1.159 2.6-2.6 2.6h-93.03c-1.44 0-2.6-1.159-2.6-2.6v-93.03c0-1.44 1.16-2.6 2.6-2.6zM2088.231 310.207h93.03c1.441 0 2.6 1.16 2.6 2.6v93.03c0 1.441-1.159 2.6-2.6 2.6h-93.03c-1.44 0-2.6-1.159-2.6-2.6v-93.03c0-1.44 1.16-2.6 2.6-2.6zM2088.231 194.207h93.03c1.441 0 2.6 1.16 2.6 2.6v93.03c0 1.441-1.159 2.6-2.6 2.6h-93.03c-1.44 0-2.6-1.159-2.6-2.6v-93.03c0-1.44 1.16-2.6 2.6-2.6z"/>
        </g>
    </g>
</svg>
