<svg height="353.359" viewBox="0 0 380.879 212.016" width="634.798" xmlns="http://www.w3.org/2000/svg">
    <g fill="#f4f4f4" fill-opacity=".5" stroke-width=".6">
        <path d="M215.281 73.742q0 .192-.046.323-.069.195-.22.195-.102 0-.212-.046-.133-.056-.146-.138.045 0 .106.016.14.037.176.037.136 0 .205-.136.054-.109.054-.26 0-.108-.07-.307-.069-.2-.069-.278 0-.024.013-.038.014-.016.038-.016.063 0 .122.288.05.243.05.36zM215.897 73.905q0 .163-.094.256t-.26.093q-.092 0-.142-.044-.05-.043-.05-.132 0-.127.166-.255.156-.121.29-.121.06 0 .08.075.01.043.01.128zm-.097.045q0-.02-.005-.037-.003-.02-.013-.043-.026.017-.085.086-.03.035-.053.051 0-.03.006-.05l.021-.046q-.07 0-.147.06-.075.059-.075.127 0 .047.051.047.098 0 .189-.048.11-.058.11-.147zM216.557 73.97q0 .079-.06.176-.067.11-.139.11-.02 0-.035-.022-.013-.024-.013-.046 0-.029.061-.09.062-.062.062-.084 0-.015-.005-.03l-.006-.018q-.12.027-.244.137-.124.11-.188.125-.012-.035-.012-.072 0-.045.02-.094.015-.036.048-.085.056-.085.119-.192l.11-.194q.08-.137.117-.195.02-.029.034-.043.02-.02.05-.026.018.007.026.024.01.018.01.042 0 .054-.07.147-.128.166-.131.173-.072.109-.072.197l.003.016q.088-.044.104-.05.065-.027.112-.027.051 0 .075.035.024.034.024.086zM217.299 73.876q0 .109-.053.232-.057.136-.142.187-.018-.02-.03-.046t-.012-.051q0-.028.08-.162.035-.06.032-.104l-.002-.02q-.059.017-.205.106-.144.088-.29.18-.023 0-.042-.016-.018-.018-.018-.039 0-.033.107-.225.032-.058.115-.2.026.033.034.075.008.04.008.096v.037q.147-.088.23-.133.092-.05.125-.05.023 0 .042.051.02.052.02.082zM218.69 74.186q0 .03-.026.045-.024.015-.055.015-.027 0-.068-.007-.095-.014-.122-.014-.048 0-.189.011-.08.006-.115.006-.098 0-.098-.097 0-.093.061-.266.034-.097.127-.32.083-.2.105-.281.008-.026.013-.034.013-.02.032-.02.03 0 .051.046.021.043.021.078 0 .056-.066.189l-.128.257q-.068.15-.068.23 0 .04.033.055.024.011.07.011.036 0 .122-.008.087-.01.115-.01.072 0 .119.022.065.028.065.092zM219.285 73.905q0 .163-.095.256-.094.093-.26.093-.092 0-.141-.044-.05-.043-.05-.132 0-.127.165-.255.157-.121.29-.121.06 0 .08.075.01.043.01.128zm-.098.045q0-.02-.005-.037-.003-.02-.013-.043-.025.017-.085.086-.03.035-.052.051 0-.03.006-.05l.02-.046q-.07 0-.147.06-.075.059-.075.127 0 .047.051.047.098 0 .189-.048.11-.058.11-.147zM219.958 73.871q0 .051-.027.11-.026.057-.066.095l-.002-.022q0-.02.005-.06.005-.04.005-.059 0-.027-.008-.04-.008-.014-.033-.014-.075 0-.187.117l-.242.254-.02-.002-.031-.008q.005-.057.04-.128.094-.19.097-.203l.02-.075q.006-.024.017-.05.013-.027.029-.048.018-.022.045-.033l.016.192.105-.087q.07-.056.122-.056.051 0 .083.034.032.034.032.083zM220.744 73.686q0 .067-.18.177-.172.106-.25.106-.037 0-.05-.026-.011-.025-.011-.072v-.043q.107 0 .195-.032.088-.032.153-.106-.048-.017-.097-.017-.117 0-.248.09-.144.097-.144.207 0 .106.144.148.022.006.27.044.146.023.146.079 0 .024-.053.038-.053.016-.134.016-.205 0-.324-.062-.156-.083-.156-.267 0-.192.192-.306.163-.096.37-.096.063 0 .114.029.063.035.063.093zM221.38 73.4q0 .034-.084.146-.085.112-.085.172 0 .03.035.06.08.07.08.087 0 .02-.014.04-.013.02-.034.02-.017 0-.05-.02-.022-.013-.086-.063l-.037.07q-.044.086-.06.124l-.048.147q-.042.1-.104.1l-.002-.037q0-.114.073-.27l.08-.148q-.126-.069-.278-.069 0-.059.024-.086.025-.029.085-.029.054 0 .136.02l.08.018q.03-.01.083-.104.13-.227.176-.26.013.02.02.041.01.021.01.04zM221.971 73.97q0 .079-.06.176-.066.11-.138.11-.021 0-.036-.022-.012-.024-.012-.046 0-.029.06-.09.063-.062.063-.084 0-.015-.005-.03l-.006-.018q-.12.027-.245.137-.123.11-.187.125-.013-.035-.013-.072 0-.045.02-.094.015-.036.049-.085.056-.085.118-.192l.11-.194q.08-.137.117-.195.02-.029.034-.043.02-.02.05-.026.019.007.027.024.01.018.01.042 0 .054-.07.147-.129.166-.132.173-.072.109-.072.197l.003.016q.088-.044.104-.05.066-.027.112-.027.051 0 .075.035.024.034.024.086zM223.285 73.449q0 .075-.08.201-.052.08-.168.23-.117.15-.146.196l.12.038q.117.036.117.128l-.095.015-.017-.002v-.013q-.026-.006-.042-.006-.03 0-.096.01-.065.01-.099.01-.043 0-.07-.017-.028-.016-.028-.057 0-.034.124-.19l.232-.297q.124-.17.124-.227 0-.022-.016-.034-.014-.01-.059-.01-.03 0-.126.058-.047.03-.075.03l-.028-.006q-.01-.006-.02-.024-.012-.019-.012-.03 0-.067.13-.123.11-.048.192-.048.069 0 .106.051.032.045.032.117zM224.246 73.737q0 .193-.21.342-.191.136-.395.136-.1 0-.16-.05-.059-.052-.059-.15 0-.217.19-.377.181-.152.405-.152.114 0 .172.067.057.067.057.184zm-.097.037q0-.074-.084-.11-.062-.028-.148-.028-.127 0-.264.123-.138.123-.138.248 0 .051.026.074.027.02.081.02.157 0 .327-.086.2-.102.2-.241zM224.98 73.449q0 .075-.08.201-.052.08-.169.23-.117.15-.146.196l.12.038q.117.036.117.128l-.094.015-.018-.002v-.013q-.025-.006-.041-.006-.03 0-.096.01t-.1.01q-.043 0-.07-.017-.027-.016-.027-.057 0-.034.123-.19l.232-.297q.125-.17.125-.227 0-.022-.016-.034-.015-.01-.06-.01-.03 0-.126.058-.046.03-.075.03l-.027-.006q-.01-.006-.02-.024-.012-.019-.012-.03 0-.067.13-.123.11-.048.191-.048.07 0 .106.051.032.045.032.117zM225.715 73.449q0 .075-.08.201-.051.08-.168.23-.117.15-.146.196l.12.038q.117.036.117.128l-.094.015-.018-.002v-.013q-.025-.006-.041-.006-.03 0-.096.01t-.1.01q-.043 0-.07-.017-.027-.016-.027-.057 0-.034.123-.19l.232-.297q.125-.17.125-.227 0-.022-.016-.034-.015-.01-.06-.01-.03 0-.126.058-.046.03-.075.03l-.027-.006q-.01-.006-.021-.024-.011-.019-.011-.03 0-.067.13-.123.11-.048.191-.048.07 0 .106.051.032.045.032.117z"/>
    </g>
    <g stroke="#f4f4f4">
        <g fill="none" transform="translate(-40.55 -350.686)">
            <rect height="170.13" rx="4.381" stroke-width="1.2" width="312.466" x="74.959" y="371.511"/>
            <rect height="62.933" rx="4.381" stroke-width="1.2" width="84.501" x="189.097" y="470.497"/>
            <g stroke-width=".3">
                <rect height="36.606" rx="4.381" width="59.127" x="201.015" y="483.132"/>
                <rect height="48.458" rx="4.381" width="70.477" x="195.605" y="477.628"/>
                <path d="M231.299 488.39c-7.005 0-13.377 6.373-13.377 13.378 0 7.004 6.372 13.377 13.377 13.377s13.377-6.373 13.377-13.377-6.373-13.377-13.377-13.377z"/>
            </g>
            <rect height="66.564" rx="4.381" stroke-width="1.2" width="65.099" x="303.84" y="468.58"/>
            <rect height="66.564" rx="4.381" stroke-width="1.2" width="65.099" x="93.84" y="468.58"/>
            <rect height="8.761" rx=".816" stroke-width=".6" width="18.172" x="318.676" y="449.106"/>
            <rect height="20.479" rx=".419" stroke-width=".6" width="311.588" x="75.734" y="442.849"/>
            <path d="M230.99 351.686H45.957a4.397 4.397 0 0 0-4.406 4.406v201.202a4.397 4.397 0 0 0 4.406 4.407h185.088m-.055-210.015h185.033a4.397 4.397 0 0 1 4.406 4.406v201.202a4.397 4.397 0 0 1-4.406 4.407H230.935" stroke-width="1.2"/>
        </g>
        <g transform="translate(-40.55 -350.686)">
            <rect fill="none" height="40.519" rx="4.407" stroke-width="1.2" width="78.385" x="191.945" y="385.716"/>
            <path d="M208.813 392.76h44.905v26.991h-44.905z" fill="none" stroke-width=".6"/>
            <path d="M244.243 392.926h1.184v3.624h-1.184zm-3.094 0h1.185v3.624h-1.185zm-6.186 0h1.184v3.624h-1.184zm3.093 0h1.184v3.624h-1.184zm-9.28 0h1.184v3.624h-1.184zm3.093 0h1.185v3.624h-1.185zm-9.28 0h1.185v3.624h-1.185zm3.094 0h1.184v3.624h-1.184zm-9.28 0h1.184v3.624h-1.184zm3.093 0h1.184v3.624h-1.184zm24.747 22.8h1.184v3.624h-1.184zm-3.094 0h1.185v3.624h-1.185zm-6.186 0h1.184v3.624h-1.184zm3.093 0h1.184v3.624h-1.184zm-9.28 0h1.184v3.624h-1.184zm3.093 0h1.185v3.624h-1.185zm-9.28 0h1.185v3.624h-1.185zm3.094 0h1.184v3.624h-1.184zm-9.28 0h1.184v3.624h-1.184zm3.093 0h1.184v3.624h-1.184z" fill="#fff4f4"/>
        </g>
        <g fill="none" stroke-width="1.2">
            <circle cx="190.749" cy="151.082" r="7.4"/>
            <g transform="rotate(-45 -443.59 -126.394)">
                <rect height="16.598" rx="1.102" width="16.598" x="-136.826" y="595.982"/>
                <rect height="16.598" rx="1.102" width="16.598" x="-113.148" y="595.982"/>
                <rect height="16.598" rx="1.102" width="16.598" x="-113.148" y="572.745"/>
                <rect height="16.598" rx="1.102" width="16.598" x="-136.826" y="572.745"/>
            </g>
            <g transform="rotate(-45 -548.59 127.098)">
                <rect height="16.598" rx="1.102" width="16.598" x="-136.826" y="595.982"/>
                <rect height="16.598" rx="1.102" width="16.598" x="-113.148" y="595.982"/>
                <rect height="16.598" rx="1.102" width="16.598" x="-113.148" y="572.745"/>
                <rect height="16.598" rx="1.102" width="16.598" x="-136.826" y="572.745"/>
            </g>
        </g>
    </g>
    <rect fill="#f4f4e9" height="6" rx=".419" width="6" x="284.082" y="99.737"/>
    <circle cx="90.932" cy="102.774" fill="none" r="2" stroke="#f4f4f4" stroke-width=".6"/>
</svg>
