<svg xmlns="http://www.w3.org/2000/svg" width="598.189" height="350.26" xml:space="preserve">
    <path fill="#F4F4F4" d="M291.694 335.893c-9.292-1.254-16.413-8.771-23.026-17.755-6.609-9.034-12.749-19.825-19.404-28.344-3.337-4.287-10.311-15.482-19.251-30.418-8.923-14.916-19.733-33.478-30.489-52.182-21.515-37.419-42.787-75.357-48.308-85.853-.749-1.434-1.18-2.268-1.411-2.849l1.868-.719 1.866-.717c.071.218 1.029 2.108 2.511 4.848 1.499 2.784 3.591 6.599 6.148 11.219 5.117 9.238 12.099 21.687 19.947 35.542 15.696 27.713 34.857 61.061 49.495 85.63 9.739 16.356 17.551 28.915 20.777 33.033 6.905 8.856 13.055 19.68 19.478 28.445 6.418 8.814 13.072 15.283 20.295 16.146.379.047.845.076 1.383.076 7.037.042 25.024-4.686 45.034-11.24 20.075-6.548 42.464-14.905 59.221-22.072 11.146-4.759 19.885-9.078 23.461-11.732 4.268-3.148 6.838-5.991 8.37-8.934 1.53-2.945 2.103-6.096 2.106-10.112.011-6.603-1.644-15.375-2.805-27.897-2.518-27.321-25.835-165.589-28.378-181.247-1.87-11.978-1.623-23.052-5.079-28.273-1.121-1.746-2.482-2.909-4.597-3.628-6.931-2.322-18.682-3.609-32.979-3.599-29.925-.006-71.189 5.492-105.598 17.157-25.418 8.611-47.736 21.133-64.514 32.602-16.75 11.426-28.079 21.961-31.162 26.047-1.989 2.606-3.375 4.532-4.203 6.071-.828 1.553-1.119 2.626-1.127 3.891-.017 1.748.708 4.14 2.215 8.028l-1.866.717-1.868.719c-1.509-3.953-2.467-6.678-2.481-9.464-.011-1.998.568-3.887 1.61-5.792 1.042-1.92 2.526-3.949 4.538-6.592 3.695-4.815 15.042-15.256 32.088-26.927 17.021-11.63 39.626-24.322 65.486-33.086C286.01 24.79 327.528 19.267 357.927 19.26c14.556.01 26.519 1.245 34.243 3.807 2.973.975 5.213 2.884 6.714 5.284 1.512 2.4 2.375 5.241 2.987 8.362 1.205 6.24 1.408 13.728 2.66 21.41 2.542 15.703 25.842 153.747 28.411 181.52 1.134 12.354 2.812 21.026 2.823 28.265.003 4.384-.653 8.306-2.562 11.961-1.903 3.655-4.978 6.94-9.543 10.305-6.316 4.616-22.945 11.988-42.725 19.693-19.737 7.67-42.42 15.512-60.242 20.576-11.918 3.371-21.529 5.532-27.122 5.555a16.124 16.124 0 0 1-1.877-.105z"/>
    <path fill="#F4F4F4" d="M432.459 250.971c6.034-.586 9.69-3.927 12.979-8.401 3.263-4.452 5.781-9.89 9.484-13.861l.17-.181.21-.132c10.298-6.587 16.627-13.463 20.468-21.313 3.839-7.854 5.216-16.815 5.216-27.631.005-14.542-2.508-32.337-4.563-54.714-1.547-16.899-6.021-27.033-11.958-32.905-5.929-5.866-13.529-7.821-22.195-7.834-10.693-.013-22.73 3.095-33.827 5.227l-.752-3.929c10.928-2.08 23.142-5.288 34.579-5.298 9.221-.015 18.125 2.159 25.01 8.995 6.88 6.831 11.532 17.974 13.128 35.38 2.037 22.277 4.573 40.085 4.579 55.08 0 11.135-1.412 20.772-5.622 29.386-4.177 8.562-11.089 15.981-21.697 22.79-3.005 3.248-5.54 8.512-8.994 13.295-3.492 4.85-8.313 9.35-15.838 10.034l-.377-3.988z"/>
    <path fill="#F4F4F4" d="M425.188 212.673c1.442-5.841 6.715-9.383 12.3-12.494 5.641-3.088 11.938-5.766 16.043-8.856 2.762-2.068 4.376-4.154 4.681-6.437.692-5.048 1.528-12.293 1.528-20.486.005-11.601-1.686-25.069-7.686-36.817-2.718-5.329-5.39-8.73-7.795-10.737-2.418-2.011-4.496-2.657-6.351-2.666-3.271-.038-6.377 2.296-8.353 4.83-2.275 2.875-3.366 4.691-5.427 6.327-2.072 1.604-4.639 2.598-9.547 4.097l-1.166-3.824c4.839-1.466 6.932-2.38 8.25-3.425 1.33-1.013 2.359-2.588 4.744-5.646 2.42-3.062 6.346-6.321 11.498-6.358 2.869-.008 5.952 1.103 8.917 3.597 2.977 2.493 5.903 6.337 8.791 11.987 6.416 12.589 8.118 26.659 8.123 38.635 0 8.464-.862 15.896-1.567 21.03-.396 2.881-1.971 5.268-4.021 7.227-2.063 1.973-4.642 3.611-7.411 5.148-5.53 3.055-11.883 5.743-16.249 8.934-2.93 2.128-4.842 4.368-5.406 6.845l-3.896-.911zm-10.607-83.238.002-.001v.001h-.002zM280.404 327.919c.09-3.85 2.727-7.681 6.76-11.716 4.071-3.998 9.731-8.042 16.38-11.414 16.733-8.437 79.148-29.74 101.657-33.458 5.059-.827 9.442-1.222 13.145-1.224 4.305.009 7.68.51 10.229 1.639 2.519 1.052 4.432 3.223 4.394 5.893-.033 2.466-1.343 4.767-3.499 7.179l-2.968-2.682c1.853-2.026 2.498-3.661 2.467-4.497-.04-.803-.302-1.397-2.026-2.242-1.693-.769-4.629-1.297-8.596-1.286-3.417-.003-7.604.368-12.499 1.169-21.566 3.488-84.595 24.985-100.495 33.078-6.311 3.193-11.675 7.052-15.384 10.697-3.751 3.61-5.656 7.169-5.566 8.864.05.863.206 1.206.987 1.756v.002l-2.142 3.378c-1.832-1.105-2.892-3.137-2.844-5.136z"/>
</svg>
