<svg height="354.479" viewBox="0 0 5234.885 2516.798" width="737.308" xmlns="http://www.w3.org/2000/svg">
    <g stroke="#f4f4f4" stroke-width="14.2">
        <g fill="none">
            <path d="M2617.096 2515.799h2550.013a15.173 15.173 0 0 0 15.206-15.206V620.76a15.173 15.173 0 0 0-15.206-15.205H2617.384m.288 1910.243H67.659a15.173 15.173 0 0 1-15.206-15.206V620.76a15.173 15.173 0 0 1 15.206-15.205h2549.725"/>
            <path d="M5182.476 1224.651h36.205c8.423 0 15.204-6.736 15.204-15.104v-60.136l-51.581-.028h45.502M52.916 1224.65H16.204c-8.424 0-15.205-6.736-15.205-15.104V16.104C1 7.736 7.781 1 16.205 1h2601.238m2549.616 603.918V285.977a6.078 6.078 0 0 1 6.09-6.092h54.657l6.08-.02V16.103c0-8.368-6.782-15.104-15.205-15.104H2617.443"/>
            <g stroke-width="7.1" transform="translate(-70.264 -862.728)">
                <path d="M2687.909 1357.785h2467.307a6.078 6.078 0 0 0 6.091-6.09v-14.628a6.078 6.078 0 0 0-6.091-6.091H2687.909m0 26.81H220.602a6.078 6.078 0 0 1-6.091-6.092v-14.627a6.078 6.078 0 0 1 6.09-6.091H2687.91M2687.909 1291.785h2467.307a6.078 6.078 0 0 0 6.091-6.09v-14.628a6.078 6.078 0 0 0-6.091-6.091H2687.909m0 26.81H220.602a6.078 6.078 0 0 1-6.091-6.092v-14.627a6.078 6.078 0 0 1 6.09-6.091H2687.91M2687.909 1225.785h2467.307a6.078 6.078 0 0 0 6.091-6.09v-14.628a6.078 6.078 0 0 0-6.091-6.091H2687.909m0 26.81H220.602a6.078 6.078 0 0 1-6.091-6.092v-14.627a6.078 6.078 0 0 1 6.09-6.091H2687.91M2687.909 1159.785h2467.307a6.078 6.078 0 0 0 6.091-6.09v-14.628a6.078 6.078 0 0 0-6.091-6.091H2687.909m0 26.81H220.602a6.078 6.078 0 0 1-6.091-6.092v-14.627a6.078 6.078 0 0 1 6.09-6.091H2687.91M2687.909 1093.785h2467.307a6.078 6.078 0 0 0 6.091-6.09v-14.628a6.078 6.078 0 0 0-6.091-6.091H2687.909m0 26.81H220.602a6.078 6.078 0 0 1-6.091-6.092v-14.627a6.078 6.078 0 0 1 6.09-6.091H2687.91M2687.909 1027.785h2467.307a6.078 6.078 0 0 0 6.091-6.09v-14.628a6.078 6.078 0 0 0-6.091-6.091H2687.909m0 26.81H220.602a6.078 6.078 0 0 1-6.091-6.092v-14.627a6.078 6.078 0 0 1 6.09-6.091H2687.91M2687.909 961.785h2467.307a6.078 6.078 0 0 0 6.091-6.09v-14.628a6.078 6.078 0 0 0-6.091-6.091H2687.909m0 26.81H220.602a6.078 6.078 0 0 1-6.091-6.092v-14.627a6.078 6.078 0 0 1 6.09-6.091H2687.91"/>
                <rect height="134.754" rx="6.091" width="538.869" x="209.332" y="1547.324"/>
                <rect height="23.931" rx="6.091" width="175.634" x="4828.217" y="1798.89"/>
                <rect height="23.931" rx="6.091" width="175.634" x="4828.217" y="1888.89"/>
                <rect height="23.931" rx="6.091" width="175.634" x="4828.217" y="1976.89"/>
            </g>
            <g stroke-width="5.257">
                <path d="M3061.748 1111.505c.76 8.68 1.81 17.855 2.322 26.535.967 13.888-2.81 16.12-11.207 16.616-6.411.496-12.12.496-11.622 6.2.456 5.207 6.414 5.207 9.64 5.207 6.207 0 14.81-.992 31.938-.992 12.413 0 26.898.992 33.104.992 3.724 0 10.179 0 9.658-5.952-.39-4.463-3.888-4.711-10.45-5.951-8.55-1.24-9.415-5.456-10.674-19.84-2.405-21.823-7.459-99.446-9.67-119.037-.346-3.968-2.323-6.696-11.26-6.696-12.412 0-17.7 1.984-22.35 8.432-28.53 39.927-54.796 77.374-81.375 114.077-9.093 12.4-15.058 20.832-24.048 23.064-5.083 1.488-9.217 2.48-8.848 6.695.13 1.488.952 5.208 7.903 5.208 6.703 0 14.56-.992 22.256-.992 8.689 0 17.216.992 25.657.992 3.971 0 9.908-.248 9.452-5.456-.369-4.215-4.18-5.207-8.713-5.951-4.782-.744-10.826-1.736-11.347-7.688-.304-3.472 2.015-8.184 4.625-12.4 4.789-7.688 10.009-16.12 13.774-21.328 1.089-1.735 1.834-1.735 3.82-1.735zm-.631-12.896h-41.21c12.362-17.608 24.518-34.72 36.632-52.327l.518.248zM3167.662 1023.263c.45 5.003 7.076 5.003 8.793 5.003 3.948.239 10.595.477 11.131 6.433.237 2.62-1.095 6.91-1.84 9.53-8.156 29.304-16.803 58.608-25.429 88.151-4.834 17.154-6.794 22.633-18.956 23.825-7.073.476-9.867 2.144-9.502 6.194.343 3.812 5.56 4.527 8.75 4.527 4.417 0 12.184-.953 20.772-.953 9.57 0 19.226.953 23.152.953 3.435 0 8.79-.477 8.34-5.48-.386-4.288-4.6-4.765-9.06-5.241-4.46-.477-8.782-2.145-9.426-9.292-.687-7.624 3.497-23.825 5.914-32.401 6.549-22.634 13.364-45.03 19.935-67.424h.49c1.329 9.291 2.144 18.345 3.472 27.636 3.034 25.493 6.067 50.985 9.079 76.24.944 10.482 2.067 14.77 10.655 14.77 6.871 0 8.417-1.906 11.85-7.385 22.415-37.167 45.098-74.095 67.514-111.261l.758.238c-5.126 30.257-10.23 60.753-15.356 91.01-1.978 10.721-3.34 17.392-18.042 17.63-3.66.239-8.214 1.43-7.806 5.956.45 5.004 7.567 5.004 11.984 5.004 4.907 0 16.845-.953 29.36-.953 16.686 0 30.758.953 37.384.953 3.19 0 10.06 0 9.524-5.956-.344-3.812-4.601-4.765-10-4.765-4.193-.239-10.413-1.192-10.907-6.671-.236-2.621.583-7.148 1.178-11.436 5.328-30.734 10.166-61.468 15.27-91.963 2.574-15.01 4.834-17.154 15.588-17.63 1.942-.239 8.77-.715 8.297-5.957-.3-3.335-3.64-5.003-10.02-5.003-6.135 0-18.34.715-26.928.715-11.533 0-16.505-.715-22.885-.715-6.113.239-7.125 2.621-11.368 10.007-16.511 26.445-33.246 53.129-49.736 79.812h-.491c-3.12-26.445-6.238-52.89-9.336-79.098-.73-8.1-.475-10.72-6.12-10.72-5.888 0-16.866.714-28.4.714-12.514 0-20.92-.715-27.3-.715-3.19 0-10.798 0-10.304 5.48zM3422.244 1147.856c-.326-3.814 1.354-11.442 1.981-15.017l17.364-86.052c2.823-13.349 3.43-17.163 14.102-17.878 7.172-.715 12.052-.953 11.582-6.436-.428-5.005-6.495-5.005-8.362-5.005-9.1 0-18.351.953-34.451.953-14.467 0-23.182-.953-30.882-.953-3.267 0-12.154-.239-11.623 5.959.429 5.006 6.303 5.482 8.382 5.244 6.3 0 11.475.477 11.944 5.96.245 2.86-.402 6.197-1.394 10.964l-18.052 88.912c-2.914 15.017-4.606 19.785-13.878 20.5-8.805.715-13.685.953-13.195 6.674.286 3.338 4.182 5.244 9.549 5.244 7.7 0 18.818-.953 30.485-.953 17.733 0 28.782.953 35.315.953 3.967 0 11.433 0 10.903-6.197-.409-4.768-5.33-5.006-8.363-5.006-5.153-.238-10.855-1.43-11.386-7.628z" transform="matrix(1.31655 0 0 1.38558 -488.517 -462.904)"/>
                <path d="M3447.326 1115.864c.945 10.322 6.918 33.423 31.602 47.432 14.093 7.864 32.477 12.042 54.08 12.042 12.343 0 30.937-1.966 43.85-4.178 11.906-1.966 17.194-3.195 18.31-7.864l8.185-39.814c1.996-9.093 2.854-13.763 12.514-14.991 7.603-1.23 12.466-1.475 11.994-6.636-.472-5.16-6.644-5.16-9.988-5.16-6.429 0-20.46 1.228-35.89 1.228-10.802 0-22.487-1.229-33.288-1.229-4.886 0-11.717 1.229-11.2 6.881.45 4.916 6.88 4.916 10.76 5.161 7.76.492 11.07 2.95 11.498 7.62.248 2.702-.254 5.652-.8 8.11l-5.018 23.838c-.926 3.932-2.02 8.848-4.41 10.814-2.605 2.457-7.658 3.44-12.03 3.44-10.801 0-20.442-4.178-28.172-12.78-7.127-7.618-12.814-19.169-13.871-30.72-2.34-25.559 8.728-47.923 23.58-62.669 17.577-18.678 42.16-28.263 59.132-28.263 10.801 0 13.174 3.441 13.579 7.865.36 3.932-.283 13.762.122 18.186.427 4.67 2.655 9.34 8.57 9.34 5.657 0 7.59-4.179 9.386-9.831 2.244-6.39 5.671-16.712 7.378-23.348 1.016-2.949 1.585-5.16 1.45-6.635-.293-3.195-4.028-4.67-7.718-5.653-7.94-2.458-19.77-2.458-27.228-2.458-33.946 0-67.294 9.34-91.85 24.822-28.212 17.695-47.294 45.22-44.55 75.204zM3724.598 1113.282c1.353 8.534 3.032 17.556 4.139 26.09 1.918 13.655-1.695 15.85-10.035 16.337-6.359.488-12.053.488-11.163 6.096.812 5.12 6.754 5.12 9.972 5.12 6.19 0 14.7-.975 31.781-.975 12.379 0 26.892.976 33.081.976 3.714 0 10.15 0 9.222-5.852-.696-4.39-4.2-4.633-10.831-5.852-8.61-1.22-9.763-5.365-12.007-19.507-3.9-21.457-14.274-97.777-17.825-117.04-.62-3.901-2.778-6.584-11.69-6.584-12.378 0-17.515 1.951-21.708 8.29-25.708 39.258-49.327 76.077-73.31 112.164-8.216 12.192-13.585 20.482-22.397 22.677-4.966 1.463-9.02 2.438-8.363 6.583.232 1.463 1.308 5.12 8.24 5.12 6.684 0 14.451-.975 22.126-.975 8.665 0 17.236.976 25.654.976 3.96 0 9.864-.244 9.051-5.365-.657-4.145-4.526-5.12-9.098-5.852-4.82-.731-10.916-1.707-11.844-7.559-.542-3.413 1.446-8.046 3.76-12.191 4.247-7.56 8.873-15.85 12.27-20.97.966-1.707 1.71-1.707 3.69-1.707zm-1.517-12.68h-41.096c11.117-17.311 22.064-34.136 32.934-51.448l.534.244z" transform="matrix(1.31655 0 0 1.38558 -488.517 -462.904)"/>
            </g>
        </g>
        <path d="m252.945 766.69-13.75-14.435h-16.993v14.434zm0-31.794-13.75 14.434h-16.993v-14.434zm-43.682-25.785c-22.79 0-41.279 18.637-41.279 41.609s18.489 41.584 41.279 41.584c4.382 0 8.612-.702 12.574-1.977v-20.755a23.098 23.098 0 0 1-11.716 3.163c-12.54 0-22.699-9.856-22.699-22.015 0-12.16 10.158-22.015 22.699-22.015 4.29 0 8.295 1.157 11.716 3.162v-20.78a40.958 40.958 0 0 0-12.574-1.976z" fill="#f4f4f4" stroke="none"/>
    </g>
    <g fill="#f4f4f4" fill-opacity=".5">
        <path d="M4619.598 2242.4q0 .32-.077.539-.115.325-.368.325-.168 0-.352-.077-.222-.093-.243-.23.075 0 .176.028.235.06.293.06.227 0 .342-.226.09-.181.09-.435 0-.178-.117-.509-.114-.333-.114-.464 0-.04.02-.064.025-.027.065-.027.104 0 .202.48.083.405.083.6zM4620.624 2242.672q0 .272-.157.427-.157.154-.435.154-.152 0-.234-.072-.083-.072-.083-.221 0-.21.274-.424.262-.203.483-.203.101 0 .133.126.02.072.02.213zm-.162.075q0-.032-.01-.061l-.021-.072q-.043.029-.142.144-.05.059-.088.085 0-.051.011-.083l.035-.077q-.117 0-.245.099-.125.099-.125.213 0 .077.085.077.162 0 .314-.08.184-.096.184-.245zM4621.723 2242.781q0 .131-.099.294-.112.184-.232.184-.035 0-.059-.037-.021-.04-.021-.077 0-.048.101-.15.104-.104.104-.14 0-.025-.01-.049t-.01-.032q-.2.045-.409.23-.205.183-.312.207-.02-.059-.02-.12 0-.075.034-.157.024-.059.08-.141.093-.142.198-.32l.184-.323q.133-.23.194-.325.032-.048.056-.072.035-.032.083-.043.032.01.045.04.016.029.016.069 0 .09-.117.245-.213.277-.219.288-.12.181-.12.328l.01.027q.147-.072.174-.083.109-.045.186-.045.085 0 .126.059.04.056.04.144zM4622.96 2242.624q0 .181-.088.387-.096.226-.237.312-.029-.035-.051-.077-.019-.043-.019-.085 0-.045.133-.27.06-.099.053-.173v-.035q-.099.03-.341.179-.24.146-.485.298-.037 0-.07-.027-.028-.029-.028-.064 0-.056.178-.376.053-.096.192-.333.043.056.056.125.013.067.013.16v.061q.246-.146.384-.221.152-.083.208-.083.037 0 .07.085.034.085.034.136zM4625.278 2243.141q0 .048-.043.075-.04.024-.091.024-.045 0-.115-.01-.157-.025-.203-.025-.08 0-.314.02-.134.01-.192.01-.163 0-.163-.162 0-.155.101-.443.056-.163.211-.533.139-.334.176-.47.013-.043.021-.056.021-.032.053-.032.051 0 .085.075.035.072.035.13 0 .094-.11.316l-.213.429q-.114.25-.114.381 0 .067.056.093.04.02.117.02.059 0 .203-.014.144-.016.192-.016.12 0 .197.035.11.048.11.155zM4626.27 2242.672q0 .272-.158.427-.157.154-.434.154-.152 0-.235-.072-.083-.072-.083-.221 0-.21.275-.424.261-.203.482-.203.102 0 .134.126.019.072.019.213zm-.163.075q0-.032-.01-.061l-.021-.072q-.043.029-.141.144-.051.059-.088.085 0-.051.01-.083l.036-.077q-.118 0-.246.099-.125.099-.125.213 0 .077.085.077.163 0 .315-.08.184-.096.184-.245zM4627.392 2242.616q0 .085-.045.181-.043.096-.109.16v-.037q0-.032.01-.099t.01-.099q0-.045-.013-.067-.013-.024-.056-.024-.125 0-.312.195l-.403.424h-.032q-.04-.011-.053-.013.01-.096.067-.213.158-.318.163-.339l.032-.125q.011-.04.029-.083.021-.045.048-.08.029-.037.075-.056l.027.32.176-.144q.117-.093.203-.093.085 0 .138.056.053.056.053.138zM4628.702 2242.307q0 .112-.299.296-.288.176-.419.176-.06 0-.083-.043-.019-.043-.019-.12v-.072q.18 0 .326-.053.146-.053.256-.176-.08-.03-.163-.03-.195 0-.413.15-.24.163-.24.347 0 .176.24.245.037.01.45.075.243.037.243.13 0 .04-.088.065-.088.027-.224.027-.341 0-.539-.104-.26-.14-.26-.446 0-.32.32-.51.271-.16.618-.16.104 0 .19.049.103.059.103.155zM4629.763 2241.83q0 .058-.141.245-.142.186-.142.285 0 .05.06.101.133.118.133.144 0 .035-.024.067-.021.032-.056.032-.03 0-.083-.032-.037-.02-.144-.104l-.061.118q-.075.141-.102.205l-.08.245q-.069.166-.173.166v-.061q0-.19.123-.448.024-.048.133-.248-.21-.115-.464-.115 0-.099.04-.144.043-.048.142-.048.09 0 .226.032l.134.032q.05-.016.138-.173.216-.379.294-.435.02.035.035.07.016.034.016.066zM4630.747 2242.781q0 .131-.099.294-.112.184-.232.184-.035 0-.059-.037-.021-.04-.021-.077 0-.048.101-.15.104-.104.104-.14 0-.025-.01-.049t-.01-.032q-.2.045-.409.23-.205.183-.312.207-.02-.059-.02-.12 0-.075.034-.157.024-.059.08-.141.093-.142.198-.32l.184-.323q.133-.23.194-.325.032-.048.056-.072.035-.032.083-.043.032.01.045.04.016.029.016.069 0 .09-.117.245-.213.277-.219.288-.12.181-.12.328l.01.027q.147-.072.174-.083.109-.045.186-.045.085 0 .126.059.04.056.04.144zM4633.214 2242.144q0 .091-.211.16-.21.069-.419.133-.245.1-.304.246.155.09.262.141.128.06.272.112.043.013.08.059.037.045.037.091 0 .053-.035.083-.032.027-.088.027-.1 0-.478-.224-.389-.232-.389-.312 0-.099.33-.267.331-.168.865-.352l.069.07zM4634.427 2241.92q0 .085-.053.155l-.104.141q0 .043.075.173t.075.216q0 .32-.304.53-.27.188-.608.188.021-.016.021-.045l-.064-.083q-.027-.043-.027-.1.27 0 .376-.031.163-.048.307-.224.045-.053.08-.123.037-.072.037-.13 0-.073-.061-.102-.061-.029-.166-.029-.059 0-.157.011-.099.011-.12.011-.053 0-.091-.029-.035-.032-.035-.083 0-.067.317-.227.184-.093.251-.168-.051-.024-.112-.035-.059-.013-.125-.013-.072 0-.16.02-.214.044-.251.044l-.059-.02q-.016-.022-.027-.046-.011-.027-.011-.05 0-.089.17-.14.129-.036.251-.036.312 0 .443.053.13.05.13.173zM4637.611 2241.955q-.035.032-.064.04-.029.01-.088.01-.117 0-.277-.027-.37-.061-.462-.061-.112 0-.149.298-.019.142-.032.552-.01.408-.05.491l-.057.03q-.125-.033-.125-.164 0-.133.08-.648.037-.24.037-.394 0-.176-.21-.224l-.393-.048q-.21-.043-.21-.203 0-.035.031-.059.032-.024.07-.024.066 0 .16.032l.154.051q.08.02.517.056.438.037.672.088.34.075.395.208zM4638.035 2242.616q0 .085-.045.181-.043.096-.11.16v-.037q0-.032.01-.099t.01-.099q0-.045-.012-.067-.013-.024-.056-.024-.125 0-.312.195l-.403.424h-.032q-.04-.011-.053-.013.01-.096.067-.213.157-.318.163-.339.02-.085.032-.125.01-.04.029-.083.02-.045.048-.08.029-.037.075-.056l.027.32.176-.144q.117-.093.202-.093t.139.056q.053.056.053.138zM4638.968 2242.157q0 .035-.01.07-.01.034-.019.111l-.048-.045q-.013 0-.043.021-.029.02-.048.024-.01-.04-.01-.093-.01-.056-.01-.069 0-.122.084-.205h.048q.021.053.032.096.013.043.013.091zm-.266.4q0 .168-.192.456-.192.288-.355.358-.016-.04-.024-.067-.01-.027-.01-.061 0-.088.093-.219l.147-.203q.072-.133.133-.216.104-.138.19-.152.012.06.012.104zM4640.008 2242.37q0 .054-.037.084-.035.027-.09.027-.06 0-.155-.093-.096-.093-.134-.093-.144 0-.33.186-.187.187-.187.328 0 .118.107.195.096.069.221.069.048 0 .16-.013.115-.016.15-.016.071 0 .133.032.06.029.06.093 0 .056-.04.077-.04.021-.1.021h-.193q-.408 0-.544-.123-.122-.112-.122-.346 0-.302.184-.456.12-.102.384-.176.264-.075.325-.128.067.035.136.146.072.11.072.184zM4640.96 2242.157q0 .035-.01.07-.01.034-.019.111l-.048-.045q-.013 0-.043.021-.029.02-.048.024-.01-.04-.01-.093-.01-.056-.01-.069 0-.122.084-.205h.048q.021.053.032.096.013.043.013.091zm-.266.4q0 .168-.192.456-.192.288-.355.358-.016-.04-.024-.067-.01-.027-.01-.061 0-.088.093-.219l.147-.203q.072-.133.133-.216.104-.138.19-.152.012.06.012.104zM4642.347 2243.19q-.075.031-.139.047-.06.016-.133.016-.107 0-.176-.059-.067-.059-.107-.168-.13.107-.266.176-.174.088-.307.088-.168 0-.253-.146-.07-.12-.07-.302 0-.277.166-.488.179-.229.45-.229.209 0 .289.13.045.076.085.313l.138-.208q.067.06.067.144 0 .067-.04.16-.088.205-.088.261 0 .083.048.144.051.059.131.059.035 0 .099-.013.064-.016.085-.019 0 .016.01.051.011.032.013.043zm-.483-.59v-.032l-.067.029q-.019.01-.048.01-.045 0-.101-.15-.056-.149-.219-.149-.173 0-.306.216-.118.192-.118.376 0 .118.056.182.06.064.176.064.203 0 .411-.168.219-.179.219-.374zM4645.31 2241.744q0 .064-.126.325-.077.163-.088.192-.168.48-.25.624-.21.37-.51.37-.125.001-.176-.255l-.035-.203q-.096.139-.189.278-.155.205-.237.205-.118 0-.15-.341-.01-.112-.01-.294v-.461q0-.235.012-.336.013-.101.048-.2.102.024.136.125.024.07.024.203v.064q0 .088-.016.301-.013.214-.013.28 0 .088.01.15l.024.141q.091-.061.272-.4.077-.141.142-.165.093.037.136.29.056.326.077.368.221-.122.376-.386.083-.142.226-.515.131-.341.232-.501.035 0 .064.05.03.049.03.092zM4646.603 2243.19q-.075.031-.139.047-.06.016-.133.016-.107 0-.176-.059-.067-.059-.107-.168-.13.107-.266.176-.174.088-.307.088-.168 0-.253-.146-.07-.12-.07-.302 0-.277.166-.488.179-.229.45-.229.209 0 .289.13.045.076.085.313l.138-.208q.067.06.067.144 0 .067-.04.16-.088.205-.088.261 0 .083.048.144.051.059.131.059.035 0 .099-.013.064-.016.085-.019 0 .016.01.051.011.032.013.043zm-.483-.59v-.032l-.067.029q-.019.01-.048.01-.045 0-.101-.15-.056-.149-.219-.149-.173 0-.306.216-.118.192-.118.376 0 .118.056.182.06.064.176.064.203 0 .411-.168.219-.179.219-.374zM4647.52 2241.693q0 .179-.176.536l-.33.643q-.179.376-.179.59-.069-.02-.11-.062-.036-.043-.036-.112 0-.05.013-.104.016-.056.04-.112.048-.13.13-.296.22-.437.238-.482l.256-.635q.02-.043.048-.072.029-.032.067-.053.04.077.04.16zM4648.79 2242.12q0 .064-.168.227-.142.138-.342.296-.16.125-.266.2l.242.229q.128.141.128.299-.085-.016-.162-.112-.093-.115-.139-.14-.152-.074-.192-.098-.107-.061-.179-.13-.027.052-.037.122-.01.069-.01.15v.092q-.186-.02-.186-.202 0-.091.099-.382.101-.29.221-.552.13-.282.192-.312.029.075.029.152 0 .11-.163.475-.077.173-.077.29v.049q.208-.147.344-.251.2-.155.326-.275.157-.152.28-.322.024.06.035.096.024.067.024.099zm-1.014.667-.056.05q-.037.036-.037.044l.03-.013h.02q.027-.01.027-.013 0-.024-.01-.032.012-.027.026-.037zM4650.056 2242.307q0 .112-.298.296-.288.176-.419.176-.06 0-.083-.043-.019-.043-.019-.12v-.072q.179 0 .326-.053.146-.053.256-.176-.08-.03-.163-.03-.195 0-.413.15-.24.163-.24.347 0 .176.24.245.037.01.45.075.243.037.243.13 0 .04-.088.065-.088.027-.224.027-.341 0-.539-.104-.261-.14-.261-.446 0-.32.32-.51.272-.16.619-.16.104 0 .189.049.104.059.104.155zM4651.176 2242.616q0 .085-.045.181-.043.096-.109.16v-.037q0-.032.01-.099t.01-.099q0-.045-.013-.067-.013-.024-.056-.024-.125 0-.312.195l-.403.424h-.032q-.04-.011-.053-.013.01-.096.067-.213.158-.318.163-.339l.032-.125q.011-.04.03-.083.02-.045.047-.08.03-.037.075-.056l.027.32.176-.144q.118-.093.203-.093.085 0 .139.056.053.056.053.138zM4653.342 2241.912q0 .125-.134.336-.085.133-.28.384-.194.248-.242.325.01 0 .2.064.194.06.194.214l-.157.024h-.029v-.021q-.043-.011-.069-.011-.05 0-.16.016t-.165.016q-.072 0-.118-.027-.045-.027-.045-.096 0-.056.206-.318.384-.488.386-.493.208-.283.208-.379 0-.037-.027-.056-.024-.019-.099-.019-.05 0-.21.1-.077.047-.126.047l-.045-.01q-.016-.01-.035-.04-.019-.032-.019-.05 0-.113.216-.206.184-.08.32-.08.115 0 .176.085.053.075.053.194zM4654.944 2242.392q0 .323-.349.57-.32.227-.659.227-.168 0-.266-.085-.1-.085-.1-.248 0-.362.318-.629.301-.253.675-.253.189 0 .285.112.096.112.096.306zm-.162.061q0-.123-.139-.184-.104-.045-.248-.045-.21 0-.44.205-.23.206-.23.414 0 .085.044.122.045.035.136.035.261 0 .544-.144.333-.17.333-.402zM4656.166 2241.912q0 .125-.134.336-.085.133-.28.384-.194.248-.242.325.01 0 .2.064.194.06.194.214l-.157.024h-.029v-.021q-.043-.011-.069-.011-.05 0-.16.016t-.165.016q-.072 0-.118-.027-.045-.027-.045-.096 0-.056.206-.318.384-.488.386-.493.208-.283.208-.379 0-.037-.027-.056-.024-.019-.099-.019-.05 0-.21.1-.077.047-.126.047l-.045-.01q-.016-.01-.035-.04-.019-.032-.019-.05 0-.113.216-.206.184-.08.32-.08.115 0 .176.085.053.075.053.194zM4657.392 2241.912q0 .125-.133.336-.085.133-.28.384-.195.248-.243.325.01 0 .2.064.195.06.195.214l-.157.024h-.03v-.021q-.042-.011-.068-.011-.051 0-.16.016-.11.016-.166.016-.072 0-.117-.027-.045-.027-.045-.096 0-.056.205-.318l.387-.493q.208-.283.208-.379 0-.037-.027-.056-.024-.019-.099-.019-.051 0-.21.1-.078.047-.126.047l-.045-.01q-.016-.01-.035-.04-.019-.032-.019-.05 0-.113.216-.206.184-.08.32-.08.115 0 .176.085.053.075.053.194z"/>
    </g>
    <g fill="none" stroke="#f4f4f4" stroke-width="12.022">
        <g transform="matrix(1.19814 0 0 1.16438 317.215 -499.328)">
            <rect height="147.208" rx="1.052" ry="1.082" width="187.326" x="2034.704" y="2210.777"/>
            <rect height="147.208" rx="1.052" ry="1.082" width="1532.355" x="471.657" y="2210.777"/>
            <rect height="147.208" rx="1.052" ry="1.082" width="187.03" x="253.455" y="2210.777"/>
            <rect height="147.208" rx="1.052" ry="1.082" width="187.03" x="35.253" y="2210.777"/>
            <rect height="147.208" rx="1.052" ry="1.082" width="187.03" x="2252.907" y="2210.777"/>
        </g>
        <g transform="matrix(1.19814 0 0 1.16438 213.174 -706.72)">
            <rect height="147.208" rx="1.052" ry="1.082" width="142.981" x="1861.033" y="2210.777"/>
            <rect height="147.208" rx="1.052" ry="1.082" width="142.981" x="1687.361" y="2210.777"/>
            <rect height="147.208" rx="1.052" ry="1.082" width="142.981" x="1513.689" y="2210.777"/>
            <rect height="147.208" rx="1.052" ry="1.082" width="142.981" x="2034.704" y="2210.777"/>
            <rect height="147.208" rx="1.052" ry="1.082" width="142.981" x="1861.033" y="2210.777"/>
            <rect height="147.208" rx="1.052" ry="1.082" width="142.981" x="1687.361" y="2210.777"/>
            <rect height="147.208" rx="1.052" ry="1.082" width="142.981" x="1513.689" y="2210.777"/>
            <rect height="147.208" rx="1.052" ry="1.082" width="142.981" x="1340.017" y="2210.777"/>
            <rect height="147.208" rx="1.052" ry="1.082" width="142.981" x="1166.345" y="2210.777"/>
            <rect height="147.208" rx="1.052" ry="1.082" width="142.981" x="992.673" y="2210.777"/>
            <rect height="147.208" rx="1.052" ry="1.082" width="142.981" x="819.002" y="2210.777"/>
            <rect height="147.208" rx="1.052" ry="1.082" width="142.981" x="645.33" y="2210.777"/>
            <rect height="147.208" rx="1.052" ry="1.082" width="142.981" x="471.658" y="2210.777"/>
            <rect height="147.208" rx="1.052" ry="1.082" width="142.981" x="297.986" y="2210.777"/>
            <rect height="147.208" rx="1.052" ry="1.082" width="316.651" x="-49.356" y="2210.777"/>
            <rect height="147.208" rx="1.052" ry="1.082" width="450.246" x="2208.376" y="2210.777"/>
        </g>
        <g transform="matrix(1.19814 0 0 1.16438 109.133 -914.114)">
            <path d="M2523.238 2179.878a9.8 9.8 0 0 1-9.823-9.822v-127.564a9.8 9.8 0 0 1 9.823-9.822h212.398a9.8 9.8 0 0 1 9.822 9.822v305.67a9.8 9.8 0 0 1-9.822 9.822h-170.093a9.8 9.8 0 0 1-9.823-9.822V2220.6"/>
            <rect height="147.208" rx="1.052" ry="1.082" width="142.981" x="2034.704" y="2210.777"/>
            <rect height="147.208" rx="1.052" ry="1.082" width="142.981" x="1861.033" y="2210.777"/>
            <rect height="147.208" rx="1.052" ry="1.082" width="142.981" x="1687.361" y="2210.777"/>
            <rect height="147.208" rx="1.052" ry="1.082" width="142.981" x="1513.689" y="2210.777"/>
            <rect height="147.208" rx="1.052" ry="1.082" width="142.981" x="1340.017" y="2210.777"/>
            <rect height="147.208" rx="1.052" ry="1.082" width="142.981" x="1166.345" y="2210.777"/>
            <rect height="147.208" rx="1.052" ry="1.082" width="142.981" x="992.673" y="2210.777"/>
            <rect height="147.208" rx="1.052" ry="1.082" width="142.981" x="819.002" y="2210.777"/>
            <rect height="147.208" rx="1.052" ry="1.082" width="142.981" x="645.33" y="2210.777"/>
            <rect height="147.208" rx="1.052" ry="1.082" width="142.981" x="471.658" y="2210.777"/>
            <rect height="147.208" rx="1.052" ry="1.082" width="142.981" x="297.986" y="2210.777"/>
            <rect height="147.208" rx="1.052" ry="1.082" width="142.981" x="2382.048" y="2210.777"/>
            <rect height="147.208" rx="1.052" ry="1.082" width="142.981" x="2208.376" y="2210.777"/>
            <rect height="147.208" rx="1.052" ry="1.082" width="229.816" x="37.48" y="2210.777"/>
            <path d="M2523.238 2179.878c16.338.23 32.91-1.782 32.482 40.72"/>
        </g>
        <g transform="matrix(1.19814 0 0 1.16438 58.446 -1121.507)">
            <rect height="147.208" rx="1.052" ry="1.082" width="142.981" x="2034.704" y="2210.777"/>
            <rect height="147.208" rx="1.052" ry="1.082" width="142.981" x="1861.033" y="2210.777"/>
            <rect height="147.208" rx="1.052" ry="1.082" width="142.981" x="1687.361" y="2210.777"/>
            <rect height="147.208" rx="1.052" ry="1.082" width="142.981" x="1513.689" y="2210.777"/>
            <rect height="147.208" rx="1.052" ry="1.082" width="142.981" x="1340.017" y="2210.777"/>
            <rect height="147.208" rx="1.052" ry="1.082" width="142.981" x="1166.345" y="2210.777"/>
            <rect height="147.208" rx="1.052" ry="1.082" width="142.981" x="992.673" y="2210.777"/>
            <rect height="147.208" rx="1.052" ry="1.082" width="142.981" x="819.002" y="2210.777"/>
            <rect height="147.208" rx="1.052" ry="1.082" width="142.981" x="645.33" y="2210.777"/>
            <rect height="147.208" rx="1.052" ry="1.082" width="142.981" x="471.658" y="2210.777"/>
            <rect height="147.208" rx="1.052" ry="1.082" width="361.182" x="79.784" y="2210.777"/>
            <rect height="147.208" rx="1.052" ry="1.082" width="142.981" x="2382.048" y="2210.777"/>
            <rect height="147.208" rx="1.052" ry="1.082" width="142.981" x="2208.376" y="2210.777"/>
        </g>
        <g transform="matrix(1.19814 0 0 1.16438 162.487 -1328.9)">
            <rect height="147.208" rx="1.052" ry="1.082" width="142.981" x="2034.704" y="2210.777"/>
            <rect height="147.208" rx="1.052" ry="1.082" width="142.981" x="1861.033" y="2210.777"/>
            <rect height="147.208" rx="1.052" ry="1.082" width="142.981" x="1687.361" y="2210.777"/>
            <rect height="147.208" rx="1.052" ry="1.082" width="142.981" x="1513.689" y="2210.777"/>
            <rect height="147.208" rx="1.052" ry="1.082" width="142.981" x="1340.017" y="2210.777"/>
            <rect height="147.208" rx="1.052" ry="1.082" width="142.981" x="1166.345" y="2210.777"/>
            <rect height="147.208" rx="1.052" ry="1.082" width="142.981" x="992.673" y="2210.777"/>
            <rect height="147.208" rx="1.052" ry="1.082" width="142.981" x="819.002" y="2210.777"/>
            <rect height="147.208" rx="1.052" ry="1.082" width="142.981" x="645.33" y="2210.777"/>
            <rect height="147.208" rx="1.052" ry="1.082" width="142.981" x="471.658" y="2210.777"/>
            <rect height="147.208" rx="1.052" ry="1.082" width="142.981" x="2382.048" y="2210.777"/>
            <rect height="147.208" rx="1.052" ry="1.082" width="142.981" x="2208.376" y="2210.777"/>
            <rect height="147.208" rx="1.052" ry="1.082" width="142.981" x="2557.947" y="2210.777"/>
            <rect height="147.208" rx="1.052" ry="1.082" width="142.981" x="297.986" y="2210.777"/>
            <rect height="147.208" rx="1.052" ry="1.082" width="274.347" x="-7.051" y="2210.777"/>
        </g>
        <g transform="matrix(1.19814 0 0 1.16438 162.487 -1621.842)">
            <rect height="147.208" rx="1.052" ry="1.082" width="187.03" x="2337.517" y="2210.777"/>
            <rect height="147.208" rx="1.052" ry="1.082" width="187.03" x="2119.314" y="2210.777"/>
            <rect height="147.208" rx="1.052" ry="1.082" width="187.03" x="1901.111" y="2210.777"/>
            <rect height="147.208" rx="1.052" ry="1.082" width="187.03" x="1682.908" y="2210.777"/>
            <rect height="147.208" rx="1.052" ry="1.082" width="187.03" x="1464.704" y="2210.777"/>
            <rect height="147.208" rx="1.052" ry="1.082" width="187.03" x="1157.439" y="2210.777"/>
            <rect height="147.208" rx="1.052" ry="1.082" width="187.03" x="939.236" y="2210.777"/>
            <rect height="147.208" rx="1.052" ry="1.082" width="187.03" x="721.033" y="2210.777"/>
            <rect height="147.208" rx="1.052" ry="1.082" width="187.03" x="502.83" y="2210.777"/>
            <rect height="147.208" rx="1.052" ry="1.082" width="187.03" x="284.627" y="2210.777"/>
            <rect height="147.208" rx="1.052" ry="1.082" width="147.216" x="-7.051" y="2210.777"/>
        </g>
        <g transform="matrix(1.19814 0 0 1.16438 3182.352 -706.72)">
            <rect height="147.208" rx="1.052" ry="1.082" width="142.981" x="645.33" y="2210.777"/>
            <rect height="147.208" rx="1.052" ry="1.082" width="142.981" x="471.658" y="2210.777"/>
            <rect height="147.208" rx="1.052" ry="1.082" width="142.981" x="297.986" y="2210.777"/>
            <rect height="147.208" rx="1.052" ry="1.082" width="142.981" x="471.658" y="2032.67"/>
        </g>
        <g transform="matrix(1.19814 0 0 1.16438 3923.98 -706.72)">
            <rect height="147.208" rx="1.052" ry="1.082" width="142.981" x="645.33" y="2210.777"/>
            <rect height="147.208" rx="1.052" ry="1.082" width="142.981" x="471.658" y="2210.777"/>
            <rect height="147.208" rx="1.052" ry="1.082" width="142.981" x="297.986" y="2210.777"/>
            <rect height="147.208" rx="1.052" ry="1.082" width="142.981" x="471.658" y="2032.67"/>
            <rect height="147.208" rx="1.052" ry="1.082" width="142.981" x="295.759" y="2032.67"/>
            <rect height="147.208" rx="1.052" ry="1.082" width="142.981" x="645.33" y="2032.67"/>
            <rect height="147.208" rx="1.052" ry="1.082" width="142.981" x="471.658" y="1854.555"/>
            <rect height="147.208" rx="1.052" ry="1.082" width="142.981" x="295.759" y="1854.555"/>
            <rect height="147.208" rx="1.052" ry="1.082" width="142.981" x="645.33" y="1854.555"/>
            <rect height="147.208" rx="1.052" ry="1.082" width="142.981" x="645.33" y="2388.882"/>
            <rect height="147.208" rx="1.052" ry="1.082" width="316.652" x="297.986" y="2388.882"/>
            <rect height="325.313" rx="1.052" ry="1.082" width="142.981" x="819.002" y="2210.777"/>
            <rect height="147.208" rx="1.052" ry="1.082" width="142.981" x="819.002" y="2032.67"/>
            <rect height="147.208" rx="1.052" ry="1.082" width="142.981" x="819.002" y="1854.555"/>
            <rect height="147.208" rx="1.052" ry="1.082" width="142.981" x="471.658" y="1676.44"/>
            <rect height="147.208" rx="1.052" ry="1.082" width="142.981" x="295.759" y="1676.44"/>
            <rect height="147.208" rx="1.052" ry="1.082" width="142.981" x="645.33" y="1676.44"/>
            <rect height="147.208" rx="1.052" ry="1.082" width="142.981" x="819.002" y="1676.44"/>
        </g>
        <g transform="matrix(1.19814 0 0 1.16438 3182.352 -1328.9)">
            <rect height="147.208" rx="1.052" ry="1.082" width="253.827" x="569.627" y="2210.777"/>
            <rect height="147.208" rx="1.052" ry="1.082" width="239.413" x="297.986" y="2210.777"/>
        </g>
    </g>
</svg>
