<svg height="354.928" viewBox="0 0 3874.496 2484.495" width="553.499" xmlns="http://www.w3.org/2000/svg">
    <g fill="#f4f4ff" fill-opacity=".5" stroke-width="7">
        <path d="M3331.404 2232.243q0 2.24-.541 3.77-.803 2.278-2.576 2.278-1.176 0-2.464-.541-1.55-.654-1.699-1.606.523 0 1.232.187 1.643.43 2.053.43 1.587 0 2.39-1.587.634-1.27.634-3.043 0-1.25-.82-3.565-.804-2.334-.804-3.248 0-.28.15-.448.168-.187.448-.187.728 0 1.418 3.36.58 2.837.58 4.2zM3338.59 2234.147q0 1.904-1.1 2.987-1.102 1.082-3.043 1.082-1.064 0-1.643-.504t-.579-1.55q0-1.474 1.923-2.967 1.83-1.419 3.379-1.419.71 0 .933.878.13.504.13 1.493zm-1.138.523q0-.224-.056-.43-.037-.224-.15-.504-.298.206-.989 1.008-.354.41-.616.598 0-.355.075-.58.15-.316.243-.54-.821 0-1.717.69-.878.69-.878 1.494 0 .54.598.54 1.138 0 2.202-.56 1.288-.671 1.288-1.716zM3346.281 2234.912q0 .915-.69 2.054-.784 1.288-1.624 1.288-.243 0-.41-.262-.15-.28-.15-.541 0-.336.71-1.045.727-.728.727-.99 0-.168-.056-.336l-.075-.224q-1.4.318-2.856 1.606-1.437 1.288-2.184 1.456-.15-.411-.15-.84 0-.523.243-1.102.168-.41.56-.99.654-.988 1.382-2.24l1.288-2.258q.933-1.605 1.362-2.277.224-.336.392-.504.243-.224.58-.299.223.075.316.28.112.206.112.486 0 .634-.82 1.717-1.494 1.941-1.532 2.016-.84 1.27-.84 2.296l.037.187q1.027-.504 1.214-.58.765-.316 1.306-.316.598 0 .878.41.28.392.28 1.008zM3354.943 2233.81q0 1.27-.616 2.708-.672 1.586-1.662 2.184-.205-.243-.354-.542-.13-.298-.13-.597 0-.317.932-1.885.411-.691.374-1.214l-.02-.242q-.69.205-2.389 1.25-1.68 1.027-3.397 2.09-.261 0-.485-.186-.206-.205-.206-.448 0-.392 1.251-2.632.373-.672 1.344-2.333.299.392.392.877.093.467.093 1.12v.43q1.717-1.027 2.688-1.55 1.064-.578 1.456-.578.261 0 .485.597.243.597.243.952zM3371.164 2237.432q0 .336-.299.523-.28.168-.634.168-.318 0-.803-.075-1.101-.168-1.419-.168-.56 0-2.202.13-.934.075-1.344.075-1.139 0-1.139-1.138 0-1.083.71-3.099.391-1.139 1.474-3.733.97-2.334 1.232-3.286.093-.298.15-.392.149-.224.373-.224.354 0 .597.523.243.504.243.915 0 .653-.766 2.202-.765 1.531-1.493 3.006-.803 1.754-.803 2.669 0 .467.392.653.28.131.822.131.41 0 1.418-.093 1.008-.112 1.344-.112.84 0 1.382.243.765.336.765 1.082zM3378.108 2234.147q0 1.904-1.101 2.987-1.102 1.082-3.043 1.082-1.064 0-1.643-.504-.578-.504-.578-1.55 0-1.474 1.922-2.967 1.83-1.419 3.38-1.419.708 0 .932.878.131.504.131 1.493zm-1.139.523q0-.224-.056-.43-.037-.224-.149-.504-.299.206-.99 1.008-.354.41-.615.598 0-.355.075-.58.15-.316.243-.54-.822 0-1.718.69-.877.69-.877 1.494 0 .54.597.54 1.139 0 2.203-.56 1.288-.671 1.288-1.716zM3385.967 2233.755q0 .597-.318 1.27-.298.671-.765 1.12l-.019-.262q0-.224.056-.69.056-.467.056-.691 0-.318-.093-.467-.093-.168-.392-.168-.877 0-2.184 1.363l-2.819 2.968q-.112 0-.224-.02-.28-.074-.373-.092.056-.672.467-1.494 1.101-2.221 1.138-2.37.15-.598.224-.878.075-.28.206-.578.15-.318.336-.56.205-.262.522-.392l.187 2.24q.803-.654 1.232-1.008.821-.654 1.419-.654.597 0 .97.392.374.392.374.97zM3395.132 2231.59q0 .784-2.09 2.072-2.016 1.232-2.931 1.232-.43 0-.579-.3-.13-.298-.13-.84v-.503q1.25 0 2.277-.373 1.027-.374 1.792-1.232-.56-.206-1.139-.206-1.362 0-2.893 1.046-1.68 1.138-1.68 2.426 0 1.232 1.68 1.718.261.075 3.155.522 1.698.262 1.698.915 0 .28-.616.448-.616.187-1.568.187-2.39 0-3.77-.728-1.83-.971-1.83-3.118 0-2.24 2.24-3.565 1.904-1.12 4.33-1.12.729 0 1.326.336.728.41.728 1.083zM3402.562 2228.248q0 .41-.99 1.718-.99 1.306-.99 1.997 0 .355.412.71.933.82.933 1.007 0 .243-.168.467-.15.224-.392.224-.205 0-.579-.224-.261-.15-1.008-.728-.28.541-.43.821-.522.99-.708 1.438l-.56 1.717q-.486 1.157-1.214 1.157l-.019-.43q0-1.324.859-3.135.168-.336.933-1.736-1.474-.803-3.248-.803 0-.69.28-1.008.299-.336.99-.336.634 0 1.586.224l.934.224q.354-.112.97-1.213 1.512-2.65 2.054-3.043.149.243.242.486.112.242.112.466zM3409.45 2234.912q0 .915-.691 2.054-.784 1.288-1.624 1.288-.243 0-.41-.262-.15-.28-.15-.541 0-.336.71-1.045.727-.728.727-.99 0-.168-.056-.336l-.075-.224q-1.4.318-2.856 1.606-1.437 1.288-2.184 1.456-.149-.411-.149-.84 0-.523.243-1.102.168-.41.56-.99.653-.988 1.381-2.24l1.288-2.258q.933-1.605 1.363-2.277.224-.336.392-.504.242-.224.578-.299.224.075.318.28.112.206.112.486 0 .634-.822 1.717-1.493 1.941-1.53 2.016-.84 1.27-.84 2.296l.037.187q1.026-.504 1.213-.58.765-.316 1.307-.316.597 0 .877.41.28.392.28 1.008zM3424.775 2228.827q0 .877-.933 2.352-.598.933-1.96 2.688-1.363 1.736-1.699 2.277.056.02 1.4.448 1.363.41 1.363 1.494-.56.093-1.102.168l-.205-.02v-.149q-.299-.075-.485-.075-.355 0-1.12.112-.766.112-1.158.112-.504 0-.821-.186-.317-.187-.317-.672 0-.392 1.437-2.222 2.688-3.416 2.707-3.453 1.456-1.979 1.456-2.65 0-.262-.187-.393-.168-.13-.69-.13-.355 0-1.475.69-.542.336-.878.336l-.317-.056q-.112-.075-.243-.28-.13-.224-.13-.354 0-.784 1.512-1.438 1.288-.56 2.24-.56.802 0 1.232.598.373.522.373 1.362zM3435.994 2232.187q0 2.259-2.446 3.995-2.24 1.586-4.61 1.586-1.176 0-1.867-.597-.69-.597-.69-1.736 0-2.539 2.22-4.405 2.11-1.774 4.723-1.774 1.326 0 1.998.784.672.784.672 2.147zm-1.139.43q0-.86-.97-1.289-.729-.317-1.737-.317-1.474 0-3.08 1.437-1.605 1.438-1.605 2.894 0 .597.299.858.317.243.952.243 1.829 0 3.808-1.008 2.333-1.195 2.333-2.819zM3444.543 2228.827q0 .877-.933 2.352-.598.933-1.96 2.688-1.363 1.736-1.699 2.277.056.02 1.4.448 1.363.41 1.363 1.494-.56.093-1.102.168l-.205-.02v-.149q-.299-.075-.485-.075-.355 0-1.12.112-.766.112-1.158.112-.504 0-.821-.186-.317-.187-.317-.672 0-.392 1.437-2.222 2.688-3.416 2.707-3.453 1.456-1.979 1.456-2.65 0-.262-.187-.393-.168-.13-.69-.13-.355 0-1.475.69-.542.336-.878.336l-.317-.056q-.112-.075-.243-.28-.13-.224-.13-.354 0-.784 1.512-1.438 1.288-.56 2.24-.56.802 0 1.232.598.373.522.373 1.362zM3453.13 2228.827q0 .877-.934 2.352-.597.933-1.96 2.688-1.362 1.736-1.698 2.277.056.02 1.4.448 1.362.41 1.362 1.494-.56.093-1.101.168l-.205-.02v-.149q-.299-.075-.486-.075-.354 0-1.12.112-.765.112-1.157.112-.504 0-.821-.186-.318-.187-.318-.672 0-.392 1.438-2.222 2.688-3.416 2.706-3.453 1.456-1.979 1.456-2.65 0-.262-.186-.393-.168-.13-.691-.13-.355 0-1.475.69-.541.336-.877.336l-.317-.056q-.112-.075-.243-.28-.13-.224-.13-.354 0-.784 1.511-1.438 1.288-.56 2.24-.56.803 0 1.232.598.374.522.374 1.362z"/>
    </g>
    <circle cx="406.298" cy="1833.745" fill="#f4f4ff" r="14"/>
    <g fill="none" stroke="#f4f4f4">
        <g transform="translate(-86.52 -263.223)">
            <rect height="1462.891" rx="14.442" stroke-width="14" width="3866.937" x="90.3" y="1281.047"/>
            <path d="m175.078 903.224-56.295 362.708c-1.227 7.906 6.443 14.441 14.444 14.441h3777.38c8.001 0 15.669-6.535 14.442-14.441l-48.299-311.19-.214-1.37-23.254 3.647a2.652 2.652 0 0 1-3.037-2.217l-38.928-249.16c-.228-1.455.78-2.711 2.216-3.037l23.917-5.424-1.172-6.654-35.23-223.529c-1.224-7.907-6.44-14.443-14.44-14.443l-37.815.425-1.744-14.29-18-135.348c-1.055-7.931-6.44-14.442-14.442-14.442h-4.67v-21.998a2.663 2.663 0 0 0-2.658-2.68h-13.926a2.663 2.663 0 0 0-2.658 2.68V288.9H3663.937v-21.998a2.663 2.663 0 0 0-2.658-2.68h-13.926a2.663 2.663 0 0 0-2.658 2.68V288.9h-26.758v-21.998a2.663 2.663 0 0 0-2.658-2.68h-13.925a2.663 2.663 0 0 0-2.659 2.68V288.9h-26.757v-21.998a2.663 2.663 0 0 0-2.659-2.68h-13.925a2.663 2.663 0 0 0-2.659 2.68V288.9h-26.757v-21.998a2.663 2.663 0 0 0-2.659-2.68h-13.925a2.663 2.663 0 0 0-2.659 2.68V288.9h-26.757v-21.998a2.663 2.663 0 0 0-2.659-2.68h-13.925a2.663 2.663 0 0 0-2.659 2.68V288.9h-26.757v-21.998a2.663 2.663 0 0 0-2.659-2.68h-13.925a2.663 2.663 0 0 0-2.659 2.68V288.9h-26.757v-21.998a2.663 2.663 0 0 0-2.659-2.68h-13.925a2.663 2.663 0 0 0-2.659 2.68V288.9h-26.757v-21.998a2.663 2.663 0 0 0-2.659-2.68h-13.925a2.663 2.663 0 0 0-2.659 2.68V288.9h-26.757v-21.998a2.663 2.663 0 0 0-2.659-2.68h-13.925a2.663 2.663 0 0 0-2.659 2.68V288.9h-26.757v-21.998a2.663 2.663 0 0 0-2.659-2.68h-13.925a2.663 2.663 0 0 0-2.659 2.68V288.9h-26.757v-21.998a2.663 2.663 0 0 0-2.659-2.68h-13.925a2.663 2.663 0 0 0-2.659 2.68V288.9h-26.757v-21.998a2.663 2.663 0 0 0-2.659-2.68h-13.925a2.663 2.663 0 0 0-2.659 2.68V288.9h-26.757v-21.998a2.663 2.663 0 0 0-2.659-2.68h-13.925a2.663 2.663 0 0 0-2.659 2.68V288.9h-26.757v-21.998a2.663 2.663 0 0 0-2.659-2.68h-13.925a2.663 2.663 0 0 0-2.659 2.68V288.9h-26.757v-21.998a2.663 2.663 0 0 0-2.659-2.68h-13.925a2.663 2.663 0 0 0-2.659 2.68V288.9h-26.757v-21.998a2.663 2.663 0 0 0-2.659-2.68h-13.925a2.663 2.663 0 0 0-2.659 2.68V288.9h-26.757v-21.998a2.663 2.663 0 0 0-2.659-2.68h-13.925a2.663 2.663 0 0 0-2.659 2.68V288.9h-26.757v-21.998a2.663 2.663 0 0 0-2.659-2.68h-13.925a2.663 2.663 0 0 0-2.659 2.68V288.9h-26.757v-21.998a2.663 2.663 0 0 0-2.659-2.68h-13.925a2.663 2.663 0 0 0-2.659 2.68V288.9h-26.757v-21.998a2.663 2.663 0 0 0-2.659-2.68h-13.925a2.663 2.663 0 0 0-2.659 2.68V288.9h-26.757v-21.998a2.663 2.663 0 0 0-2.659-2.68h-13.925a2.663 2.663 0 0 0-2.659 2.68V288.9h-26.757v-21.998a2.663 2.663 0 0 0-2.659-2.68h-13.925a2.663 2.663 0 0 0-2.659 2.68V288.9h-26.757v-21.998a2.663 2.663 0 0 0-2.659-2.68h-13.925a2.663 2.663 0 0 0-2.659 2.68V288.9h-26.757v-21.998a2.663 2.663 0 0 0-2.659-2.68h-13.925a2.663 2.663 0 0 0-2.659 2.68V288.9h-26.757v-21.998a2.663 2.663 0 0 0-2.659-2.68h-13.925a2.663 2.663 0 0 0-2.659 2.68V288.9h-26.757v-21.998a2.663 2.663 0 0 0-2.659-2.68h-13.925a2.663 2.663 0 0 0-2.659 2.68V288.9h-26.757v-21.998a2.663 2.663 0 0 0-2.659-2.68h-13.925a2.663 2.663 0 0 0-2.659 2.68V288.9h-26.757v-21.998a2.663 2.663 0 0 0-2.659-2.68h-13.925a2.663 2.663 0 0 0-2.659 2.68V288.9h-26.757v-21.998a2.663 2.663 0 0 0-2.659-2.68h-13.925a2.663 2.663 0 0 0-2.659 2.68V288.9h-26.757v-21.998a2.663 2.663 0 0 0-2.659-2.68h-13.925a2.663 2.663 0 0 0-2.659 2.68V288.9h-26.757v-21.998a2.663 2.663 0 0 0-2.659-2.68h-13.925a2.663 2.663 0 0 0-2.659 2.68V288.9h-26.757v-21.998a2.663 2.663 0 0 0-2.659-2.68h-13.925a2.663 2.663 0 0 0-2.659 2.68V288.9h-26.757v-21.998a2.663 2.663 0 0 0-2.659-2.68h-13.925a2.663 2.663 0 0 0-2.659 2.68V288.9h-26.757v-21.998a2.663 2.663 0 0 0-2.659-2.68h-13.925a2.663 2.663 0 0 0-2.659 2.68V288.9h-26.757v-21.998a2.663 2.663 0 0 0-2.659-2.68h-13.925a2.663 2.663 0 0 0-2.659 2.68V288.9h-26.757v-21.998a2.663 2.663 0 0 0-2.659-2.68h-13.925a2.663 2.663 0 0 0-2.659 2.68V288.9H2007.938v-21.998a2.663 2.663 0 0 0-2.659-2.68h-13.925a2.663 2.663 0 0 0-2.659 2.68V288.9h-26.757v-21.998a2.663 2.663 0 0 0-2.659-2.68h-13.925a2.663 2.663 0 0 0-2.659 2.68V288.9h-26.757v-21.998a2.663 2.663 0 0 0-2.659-2.68h-13.925a2.663 2.663 0 0 0-2.659 2.68V288.9h-26.757v-21.998a2.663 2.663 0 0 0-2.659-2.68h-13.925a2.663 2.663 0 0 0-2.659 2.68V288.9h-26.757v-21.998a2.663 2.663 0 0 0-2.659-2.68h-13.925a2.663 2.663 0 0 0-2.659 2.68V288.9h-26.757v-21.998a2.663 2.663 0 0 0-2.659-2.68h-13.925a2.663 2.663 0 0 0-2.659 2.68V288.9h-26.757v-21.998a2.663 2.663 0 0 0-2.659-2.68h-13.925a2.663 2.663 0 0 0-2.659 2.68V288.9h-26.757v-21.998a2.663 2.663 0 0 0-2.659-2.68h-13.925a2.663 2.663 0 0 0-2.659 2.68V288.9h-26.757v-21.998a2.663 2.663 0 0 0-2.659-2.68h-13.925a2.663 2.663 0 0 0-2.659 2.68V288.9h-26.757v-21.998a2.663 2.663 0 0 0-2.659-2.68h-13.925a2.663 2.663 0 0 0-2.659 2.68V288.9h-26.757v-21.998a2.663 2.663 0 0 0-2.659-2.68h-13.925a2.663 2.663 0 0 0-2.659 2.68V288.9h-26.757v-21.998a2.663 2.663 0 0 0-2.659-2.68h-13.925a2.663 2.663 0 0 0-2.659 2.68V288.9h-26.757v-21.998a2.663 2.663 0 0 0-2.659-2.68h-13.925a2.663 2.663 0 0 0-2.659 2.68V288.9h-26.757v-21.998a2.663 2.663 0 0 0-2.659-2.68h-13.925a2.663 2.663 0 0 0-2.659 2.68V288.9h-26.757v-21.998a2.663 2.663 0 0 0-2.659-2.68h-13.925a2.663 2.663 0 0 0-2.659 2.68V288.9h-26.757v-21.998a2.663 2.663 0 0 0-2.659-2.68h-13.925a2.663 2.663 0 0 0-2.659 2.68V288.9h-26.757v-21.998a2.663 2.663 0 0 0-2.659-2.68h-13.925a2.663 2.663 0 0 0-2.659 2.68V288.9h-26.757v-21.998a2.663 2.663 0 0 0-2.659-2.68h-13.925a2.663 2.663 0 0 0-2.659 2.68V288.9h-26.757v-21.998a2.663 2.663 0 0 0-2.659-2.68h-13.925a2.663 2.663 0 0 0-2.659 2.68V288.9h-26.757v-21.998a2.663 2.663 0 0 0-2.659-2.68h-13.925a2.663 2.663 0 0 0-2.659 2.68V288.9h-26.757v-21.998a2.663 2.663 0 0 0-2.659-2.68h-13.925a2.663 2.663 0 0 0-2.659 2.68V288.9h-26.757v-21.998a2.663 2.663 0 0 0-2.659-2.68h-13.925a2.663 2.663 0 0 0-2.659 2.68V288.9h-26.757v-21.998a2.663 2.663 0 0 0-2.659-2.68h-13.925a2.663 2.663 0 0 0-2.659 2.68V288.9h-26.757v-21.998a2.663 2.663 0 0 0-2.659-2.68h-13.925a2.663 2.663 0 0 0-2.659 2.68V288.9h-26.757v-21.998a2.663 2.663 0 0 0-2.659-2.68h-13.925a2.663 2.663 0 0 0-2.659 2.68V288.9h-26.757v-21.998a2.663 2.663 0 0 0-2.659-2.68h-13.925a2.663 2.663 0 0 0-2.659 2.68V288.9h-26.757v-21.998a2.663 2.663 0 0 0-2.659-2.68h-13.925a2.663 2.663 0 0 0-2.659 2.68V288.9h-26.757v-21.998a2.663 2.663 0 0 0-2.659-2.68h-13.925a2.663 2.663 0 0 0-2.659 2.68V288.9h-26.757v-21.998a2.663 2.663 0 0 0-2.659-2.68h-13.925a2.663 2.663 0 0 0-2.659 2.68V288.9h-26.757v-21.998a2.663 2.663 0 0 0-2.659-2.68h-13.925a2.663 2.663 0 0 0-2.659 2.68V288.9h-26.757v-21.998a2.663 2.663 0 0 0-2.659-2.68h-13.925a2.663 2.663 0 0 0-2.659 2.68V288.9h-26.757v-21.998a2.663 2.663 0 0 0-2.659-2.68h-13.925a2.663 2.663 0 0 0-2.659 2.68V288.9h-26.757v-21.998a2.663 2.663 0 0 0-2.659-2.68h-13.925a2.663 2.663 0 0 0-2.659 2.68V288.9h-26.757v-21.998a2.663 2.663 0 0 0-2.659-2.68h-13.925a2.663 2.663 0 0 0-2.659 2.68V288.9h-26.757v-21.998a2.663 2.663 0 0 0-2.659-2.68h-13.925a2.663 2.663 0 0 0-2.659 2.68V288.9h-26.757v-21.998a2.663 2.663 0 0 0-2.659-2.68h-13.925a2.663 2.663 0 0 0-2.659 2.68V288.9h-26.757v-21.998a2.663 2.663 0 0 0-2.659-2.68h-13.925a2.663 2.663 0 0 0-2.659 2.68V288.9h-3.468c-8.002 0-13.389 6.51-14.444 14.442l-18 135.347-1.742 14.291-37.814-.425c-8.001 0-13.217 6.537-14.444 14.443l-64.648 416.527m0 0-3.057 19.699M295.04 452.98l3451.751.151" stroke-width="14"/>
            <rect height="119.03" rx="14.442" stroke-width="7" width="559.517" x="3253.244" y="1349.608"/>
            <path d="M1991.354 264.223h13.925a2.663 2.663 0 0 1 2.658 2.68v183.359a2.663 2.663 0 0 1-2.658 2.68h-13.925a2.663 2.663 0 0 1-2.659-2.68v-183.36a2.663 2.663 0 0 1 2.659-2.679zm-46 0h13.925a2.663 2.663 0 0 1 2.658 2.68v183.359a2.663 2.663 0 0 1-2.658 2.68h-13.925a2.663 2.663 0 0 1-2.659-2.68v-183.36a2.663 2.663 0 0 1 2.659-2.679zm-46 0h13.925a2.663 2.663 0 0 1 2.658 2.68v183.359a2.663 2.663 0 0 1-2.658 2.68h-13.925a2.663 2.663 0 0 1-2.659-2.68v-183.36a2.663 2.663 0 0 1 2.659-2.679zm-46 0h13.925a2.663 2.663 0 0 1 2.658 2.68v183.359a2.663 2.663 0 0 1-2.658 2.68h-13.925a2.663 2.663 0 0 1-2.659-2.68v-183.36a2.663 2.663 0 0 1 2.659-2.679zm-46 0h13.925a2.663 2.663 0 0 1 2.658 2.68v183.359a2.663 2.663 0 0 1-2.658 2.68h-13.925a2.663 2.663 0 0 1-2.659-2.68v-183.36a2.663 2.663 0 0 1 2.659-2.679zm-46 0h13.925a2.663 2.663 0 0 1 2.658 2.68v183.359a2.663 2.663 0 0 1-2.658 2.68h-13.925a2.663 2.663 0 0 1-2.659-2.68v-183.36a2.663 2.663 0 0 1 2.659-2.679zm-46 0h13.925a2.663 2.663 0 0 1 2.658 2.68v183.359a2.663 2.663 0 0 1-2.658 2.68h-13.925a2.663 2.663 0 0 1-2.659-2.68v-183.36a2.663 2.663 0 0 1 2.659-2.679zm-46 0h13.925a2.663 2.663 0 0 1 2.658 2.68v183.359a2.663 2.663 0 0 1-2.658 2.68h-13.925a2.663 2.663 0 0 1-2.659-2.68v-183.36a2.663 2.663 0 0 1 2.659-2.679zm-46 0h13.925a2.663 2.663 0 0 1 2.658 2.68v183.359a2.663 2.663 0 0 1-2.658 2.68h-13.925a2.663 2.663 0 0 1-2.659-2.68v-183.36a2.663 2.663 0 0 1 2.659-2.679zm-46 0h13.925a2.663 2.663 0 0 1 2.658 2.68v183.359a2.663 2.663 0 0 1-2.658 2.68h-13.925a2.663 2.663 0 0 1-2.659-2.68v-183.36a2.663 2.663 0 0 1 2.659-2.679zm-46 0h13.925a2.663 2.663 0 0 1 2.658 2.68v183.359a2.663 2.663 0 0 1-2.658 2.68h-13.925a2.663 2.663 0 0 1-2.659-2.68v-183.36a2.663 2.663 0 0 1 2.659-2.679zm-46 0h13.925a2.663 2.663 0 0 1 2.658 2.68v183.359a2.663 2.663 0 0 1-2.658 2.68h-13.925a2.663 2.663 0 0 1-2.659-2.68v-183.36a2.663 2.663 0 0 1 2.659-2.679zm-46 0h13.925a2.663 2.663 0 0 1 2.658 2.68v183.359a2.663 2.663 0 0 1-2.658 2.68h-13.925a2.663 2.663 0 0 1-2.659-2.68v-183.36a2.663 2.663 0 0 1 2.659-2.679zm-46 0h13.925a2.663 2.663 0 0 1 2.658 2.68v183.359a2.663 2.663 0 0 1-2.658 2.68h-13.925a2.663 2.663 0 0 1-2.659-2.68v-183.36a2.663 2.663 0 0 1 2.659-2.679zm-46 0h13.925a2.663 2.663 0 0 1 2.658 2.68v183.359a2.663 2.663 0 0 1-2.658 2.68h-13.925a2.663 2.663 0 0 1-2.659-2.68v-183.36a2.663 2.663 0 0 1 2.659-2.679zm-46 0h13.925a2.663 2.663 0 0 1 2.658 2.68v183.359a2.663 2.663 0 0 1-2.658 2.68h-13.925a2.663 2.663 0 0 1-2.659-2.68v-183.36a2.663 2.663 0 0 1 2.659-2.679zm-46 0h13.925a2.663 2.663 0 0 1 2.658 2.68v183.359a2.663 2.663 0 0 1-2.658 2.68h-13.925a2.663 2.663 0 0 1-2.659-2.68v-183.36a2.663 2.663 0 0 1 2.659-2.679zm-46 0h13.925a2.663 2.663 0 0 1 2.658 2.68v183.359a2.663 2.663 0 0 1-2.658 2.68h-13.925a2.663 2.663 0 0 1-2.659-2.68v-183.36a2.663 2.663 0 0 1 2.659-2.679zm-46 0h13.925a2.663 2.663 0 0 1 2.658 2.68v183.359a2.663 2.663 0 0 1-2.658 2.68h-13.925a2.663 2.663 0 0 1-2.659-2.68v-183.36a2.663 2.663 0 0 1 2.659-2.679zm-46 0h13.925a2.663 2.663 0 0 1 2.658 2.68v183.359a2.663 2.663 0 0 1-2.658 2.68h-13.925a2.663 2.663 0 0 1-2.659-2.68v-183.36a2.663 2.663 0 0 1 2.659-2.679zm-46 0h13.925a2.663 2.663 0 0 1 2.658 2.68v183.359a2.663 2.663 0 0 1-2.658 2.68h-13.925a2.663 2.663 0 0 1-2.659-2.68v-183.36a2.663 2.663 0 0 1 2.659-2.679zm-46 0h13.925a2.663 2.663 0 0 1 2.658 2.68v183.359a2.663 2.663 0 0 1-2.658 2.68h-13.925a2.663 2.663 0 0 1-2.659-2.68v-183.36a2.663 2.663 0 0 1 2.659-2.679zm-46 0h13.925a2.663 2.663 0 0 1 2.658 2.68v183.359a2.663 2.663 0 0 1-2.658 2.68h-13.925a2.663 2.663 0 0 1-2.659-2.68v-183.36a2.663 2.663 0 0 1 2.659-2.679zm-46 0h13.925a2.663 2.663 0 0 1 2.658 2.68v183.359a2.663 2.663 0 0 1-2.658 2.68h-13.925a2.663 2.663 0 0 1-2.659-2.68v-183.36a2.663 2.663 0 0 1 2.659-2.679zm-46 0h13.925a2.663 2.663 0 0 1 2.658 2.68v183.359a2.663 2.663 0 0 1-2.658 2.68h-13.925a2.663 2.663 0 0 1-2.659-2.68v-183.36a2.663 2.663 0 0 1 2.659-2.679zm-46 0h13.925a2.663 2.663 0 0 1 2.658 2.68v183.359a2.663 2.663 0 0 1-2.658 2.68h-13.925a2.663 2.663 0 0 1-2.659-2.68v-183.36a2.663 2.663 0 0 1 2.659-2.679zm-46 0h13.925a2.663 2.663 0 0 1 2.658 2.68v183.359a2.663 2.663 0 0 1-2.658 2.68h-13.925a2.663 2.663 0 0 1-2.659-2.68v-183.36a2.663 2.663 0 0 1 2.659-2.679zm-46 0h13.925a2.663 2.663 0 0 1 2.658 2.68v183.359a2.663 2.663 0 0 1-2.658 2.68h-13.925a2.663 2.663 0 0 1-2.659-2.68v-183.36a2.663 2.663 0 0 1 2.659-2.679zm-46 0h13.925a2.663 2.663 0 0 1 2.658 2.68v183.359a2.663 2.663 0 0 1-2.658 2.68h-13.925a2.663 2.663 0 0 1-2.659-2.68v-183.36a2.663 2.663 0 0 1 2.659-2.679zm-46 0h13.925a2.663 2.663 0 0 1 2.658 2.68v183.359a2.663 2.663 0 0 1-2.658 2.68h-13.925a2.663 2.663 0 0 1-2.659-2.68v-183.36a2.663 2.663 0 0 1 2.659-2.679zm-46 0h13.925a2.663 2.663 0 0 1 2.658 2.68v183.359a2.663 2.663 0 0 1-2.658 2.68h-13.925a2.663 2.663 0 0 1-2.659-2.68v-183.36a2.663 2.663 0 0 1 2.659-2.679zm-46 0h13.925a2.663 2.663 0 0 1 2.658 2.68v183.359a2.663 2.663 0 0 1-2.658 2.68h-13.925a2.663 2.663 0 0 1-2.659-2.68v-183.36a2.663 2.663 0 0 1 2.659-2.679zm-46 0h13.925a2.663 2.663 0 0 1 2.658 2.68v183.359a2.663 2.663 0 0 1-2.658 2.68h-13.925a2.663 2.663 0 0 1-2.659-2.68v-183.36a2.663 2.663 0 0 1 2.659-2.679zm-46 0h13.925a2.663 2.663 0 0 1 2.658 2.68v183.359a2.663 2.663 0 0 1-2.658 2.68h-13.925a2.663 2.663 0 0 1-2.659-2.68v-183.36a2.663 2.663 0 0 1 2.659-2.679zm-46 0h13.925a2.663 2.663 0 0 1 2.658 2.68v183.359a2.663 2.663 0 0 1-2.658 2.68h-13.925a2.663 2.663 0 0 1-2.659-2.68v-183.36a2.663 2.663 0 0 1 2.659-2.679zm-46 0h13.925a2.663 2.663 0 0 1 2.658 2.68v183.359a2.663 2.663 0 0 1-2.658 2.68h-13.925a2.663 2.663 0 0 1-2.659-2.68v-183.36a2.663 2.663 0 0 1 2.659-2.679zm-46 0h13.925a2.663 2.663 0 0 1 2.658 2.68v183.359a2.663 2.663 0 0 1-2.658 2.68h-13.925a2.663 2.663 0 0 1-2.659-2.68v-183.36a2.663 2.663 0 0 1 2.659-2.679zm3358 0h13.925a2.663 2.663 0 0 1 2.658 2.68v183.359a2.663 2.663 0 0 1-2.658 2.68h-13.925a2.663 2.663 0 0 1-2.659-2.68v-183.36a2.663 2.663 0 0 1 2.659-2.679zm-46 0h13.925a2.663 2.663 0 0 1 2.658 2.68v183.359a2.663 2.663 0 0 1-2.658 2.68h-13.925a2.663 2.663 0 0 1-2.659-2.68v-183.36a2.663 2.663 0 0 1 2.659-2.679zm-46 0h13.925a2.663 2.663 0 0 1 2.658 2.68v183.359a2.663 2.663 0 0 1-2.658 2.68h-13.925a2.663 2.663 0 0 1-2.659-2.68v-183.36a2.663 2.663 0 0 1 2.659-2.679zm-46 0h13.925a2.663 2.663 0 0 1 2.658 2.68v183.359a2.663 2.663 0 0 1-2.658 2.68h-13.925a2.663 2.663 0 0 1-2.659-2.68v-183.36a2.663 2.663 0 0 1 2.659-2.679zm-46 0h13.925a2.663 2.663 0 0 1 2.658 2.68v183.359a2.663 2.663 0 0 1-2.658 2.68h-13.925a2.663 2.663 0 0 1-2.659-2.68v-183.36a2.663 2.663 0 0 1 2.659-2.679zm-46 0h13.925a2.663 2.663 0 0 1 2.658 2.68v183.359a2.663 2.663 0 0 1-2.658 2.68h-13.925a2.663 2.663 0 0 1-2.659-2.68v-183.36a2.663 2.663 0 0 1 2.659-2.679zm-46 0h13.925a2.663 2.663 0 0 1 2.658 2.68v183.359a2.663 2.663 0 0 1-2.658 2.68h-13.925a2.663 2.663 0 0 1-2.659-2.68v-183.36a2.663 2.663 0 0 1 2.659-2.679zm-46 0h13.925a2.663 2.663 0 0 1 2.658 2.68v183.359a2.663 2.663 0 0 1-2.658 2.68h-13.925a2.663 2.663 0 0 1-2.659-2.68v-183.36a2.663 2.663 0 0 1 2.659-2.679zm-46 0h13.925a2.663 2.663 0 0 1 2.658 2.68v183.359a2.663 2.663 0 0 1-2.658 2.68h-13.925a2.663 2.663 0 0 1-2.659-2.68v-183.36a2.663 2.663 0 0 1 2.659-2.679zm-46 0h13.925a2.663 2.663 0 0 1 2.658 2.68v183.359a2.663 2.663 0 0 1-2.658 2.68h-13.925a2.663 2.663 0 0 1-2.659-2.68v-183.36a2.663 2.663 0 0 1 2.659-2.679zm-46 0h13.925a2.663 2.663 0 0 1 2.658 2.68v183.359a2.663 2.663 0 0 1-2.658 2.68h-13.925a2.663 2.663 0 0 1-2.659-2.68v-183.36a2.663 2.663 0 0 1 2.659-2.679zm-46 0h13.925a2.663 2.663 0 0 1 2.658 2.68v183.359a2.663 2.663 0 0 1-2.658 2.68h-13.925a2.663 2.663 0 0 1-2.659-2.68v-183.36a2.663 2.663 0 0 1 2.659-2.679zm-46 0h13.925a2.663 2.663 0 0 1 2.658 2.68v183.359a2.663 2.663 0 0 1-2.658 2.68h-13.925a2.663 2.663 0 0 1-2.659-2.68v-183.36a2.663 2.663 0 0 1 2.659-2.679zm-46 0h13.925a2.663 2.663 0 0 1 2.658 2.68v183.359a2.663 2.663 0 0 1-2.658 2.68h-13.925a2.663 2.663 0 0 1-2.659-2.68v-183.36a2.663 2.663 0 0 1 2.659-2.679zm-46 0h13.925a2.663 2.663 0 0 1 2.658 2.68v183.359a2.663 2.663 0 0 1-2.658 2.68h-13.925a2.663 2.663 0 0 1-2.659-2.68v-183.36a2.663 2.663 0 0 1 2.659-2.679zm-46 0h13.925a2.663 2.663 0 0 1 2.658 2.68v183.359a2.663 2.663 0 0 1-2.658 2.68h-13.925a2.663 2.663 0 0 1-2.659-2.68v-183.36a2.663 2.663 0 0 1 2.659-2.679zm-46 0h13.925a2.663 2.663 0 0 1 2.658 2.68v183.359a2.663 2.663 0 0 1-2.658 2.68h-13.925a2.663 2.663 0 0 1-2.659-2.68v-183.36a2.663 2.663 0 0 1 2.659-2.679zm-46 0h13.925a2.663 2.663 0 0 1 2.658 2.68v183.359a2.663 2.663 0 0 1-2.658 2.68h-13.925a2.663 2.663 0 0 1-2.659-2.68v-183.36a2.663 2.663 0 0 1 2.659-2.679zm-46 0h13.925a2.663 2.663 0 0 1 2.658 2.68v183.359a2.663 2.663 0 0 1-2.658 2.68h-13.925a2.663 2.663 0 0 1-2.659-2.68v-183.36a2.663 2.663 0 0 1 2.659-2.679zm-46 0h13.925a2.663 2.663 0 0 1 2.658 2.68v183.359a2.663 2.663 0 0 1-2.658 2.68h-13.925a2.663 2.663 0 0 1-2.659-2.68v-183.36a2.663 2.663 0 0 1 2.659-2.679zm-46 0h13.925a2.663 2.663 0 0 1 2.658 2.68v183.359a2.663 2.663 0 0 1-2.658 2.68h-13.925a2.663 2.663 0 0 1-2.659-2.68v-183.36a2.663 2.663 0 0 1 2.659-2.679zm-46 0h13.925a2.663 2.663 0 0 1 2.658 2.68v183.359a2.663 2.663 0 0 1-2.658 2.68h-13.925a2.663 2.663 0 0 1-2.659-2.68v-183.36a2.663 2.663 0 0 1 2.659-2.679zm-46 0h13.925a2.663 2.663 0 0 1 2.658 2.68v183.359a2.663 2.663 0 0 1-2.658 2.68h-13.925a2.663 2.663 0 0 1-2.659-2.68v-183.36a2.663 2.663 0 0 1 2.659-2.679zm-46 0h13.925a2.663 2.663 0 0 1 2.658 2.68v183.359a2.663 2.663 0 0 1-2.658 2.68h-13.925a2.663 2.663 0 0 1-2.659-2.68v-183.36a2.663 2.663 0 0 1 2.659-2.679zm-46 0h13.925a2.663 2.663 0 0 1 2.658 2.68v183.359a2.663 2.663 0 0 1-2.658 2.68h-13.925a2.663 2.663 0 0 1-2.659-2.68v-183.36a2.663 2.663 0 0 1 2.659-2.679zm-46 0h13.925a2.663 2.663 0 0 1 2.658 2.68v183.359a2.663 2.663 0 0 1-2.658 2.68h-13.925a2.663 2.663 0 0 1-2.659-2.68v-183.36a2.663 2.663 0 0 1 2.659-2.679zm-46 0h13.925a2.663 2.663 0 0 1 2.658 2.68v183.359a2.663 2.663 0 0 1-2.658 2.68h-13.925a2.663 2.663 0 0 1-2.659-2.68v-183.36a2.663 2.663 0 0 1 2.659-2.679zm-46 0h13.925a2.663 2.663 0 0 1 2.658 2.68v183.359a2.663 2.663 0 0 1-2.658 2.68h-13.925a2.663 2.663 0 0 1-2.659-2.68v-183.36a2.663 2.663 0 0 1 2.659-2.679zm-46 0h13.925a2.663 2.663 0 0 1 2.658 2.68v183.359a2.663 2.663 0 0 1-2.658 2.68h-13.925a2.663 2.663 0 0 1-2.659-2.68v-183.36a2.663 2.663 0 0 1 2.659-2.679zm-46 0h13.925a2.663 2.663 0 0 1 2.658 2.68v183.359a2.663 2.663 0 0 1-2.658 2.68h-13.925a2.663 2.663 0 0 1-2.659-2.68v-183.36a2.663 2.663 0 0 1 2.659-2.679zm-46 0h13.925a2.663 2.663 0 0 1 2.658 2.68v183.359a2.663 2.663 0 0 1-2.658 2.68h-13.925a2.663 2.663 0 0 1-2.659-2.68v-183.36a2.663 2.663 0 0 1 2.659-2.679zm-46 0h13.925a2.663 2.663 0 0 1 2.658 2.68v183.359a2.663 2.663 0 0 1-2.658 2.68h-13.925a2.663 2.663 0 0 1-2.659-2.68v-183.36a2.663 2.663 0 0 1 2.659-2.679zm-46 0h13.925a2.663 2.663 0 0 1 2.658 2.68v183.359a2.663 2.663 0 0 1-2.658 2.68h-13.925a2.663 2.663 0 0 1-2.659-2.68v-183.36a2.663 2.663 0 0 1 2.659-2.679zm-46 0h13.925a2.663 2.663 0 0 1 2.658 2.68v183.359a2.663 2.663 0 0 1-2.658 2.68h-13.925a2.663 2.663 0 0 1-2.659-2.68v-183.36a2.663 2.663 0 0 1 2.659-2.679zm-46 0h13.925a2.663 2.663 0 0 1 2.658 2.68v183.359a2.663 2.663 0 0 1-2.658 2.68h-13.925a2.663 2.663 0 0 1-2.659-2.68v-183.36a2.663 2.663 0 0 1 2.659-2.679zm-46 0h13.925a2.663 2.663 0 0 1 2.658 2.68v183.359a2.663 2.663 0 0 1-2.658 2.68h-13.925a2.663 2.663 0 0 1-2.659-2.68v-183.36a2.663 2.663 0 0 1 2.659-2.679zm-46 0h13.925a2.663 2.663 0 0 1 2.658 2.68v183.359a2.663 2.663 0 0 1-2.658 2.68h-13.925a2.663 2.663 0 0 1-2.659-2.68v-183.36a2.663 2.663 0 0 1 2.659-2.679z" stroke-width="14"/>
            <g stroke-width="7">
                <path d="M178.25 882.933h3580.53a2.653 2.653 0 0 1 2.658 2.659v14.557a2.653 2.653 0 0 1-2.659 2.66H175.096M184.78 838.933h3574a2.653 2.653 0 0 1 2.658 2.659v14.557a2.653 2.653 0 0 1-2.659 2.66H181.576M191.83 794.933h3566.95a2.653 2.653 0 0 1 2.658 2.659v14.557a2.653 2.653 0 0 1-2.659 2.66H188.902M198.712 750.933h3560.067a2.653 2.653 0 0 1 2.659 2.659v14.557a2.653 2.653 0 0 1-2.659 2.66H195.781M205.708 706.933H3758.78a2.653 2.653 0 0 1 2.659 2.659v14.557a2.653 2.653 0 0 1-2.659 2.66H202.316M212.669 662.933h3546.11a2.653 2.653 0 0 1 2.659 2.659v14.557a2.653 2.653 0 0 1-2.659 2.66H209.092M218.957 618.933H3758.78a2.653 2.653 0 0 1 2.659 2.659v14.557a2.653 2.653 0 0 1-2.659 2.66H215.578M225.6 574.933h3533.18a2.653 2.653 0 0 1 2.658 2.659v14.557a2.653 2.653 0 0 1-2.659 2.66H223.262M232.826 530.933h3525.953a2.653 2.653 0 0 1 2.659 2.659v14.557a2.653 2.653 0 0 1-2.659 2.66H229.818M3683.637 1542.522h133.507v17.81h-133.507zM3683.637 1608.522h133.507v17.81h-133.507zM3061.748 1111.505c.76 8.68 1.81 17.855 2.322 26.535.967 13.888-2.81 16.12-11.207 16.616-6.411.496-12.12.496-11.622 6.2.456 5.207 6.414 5.207 9.64 5.207 6.207 0 14.81-.992 31.938-.992 12.413 0 26.898.992 33.104.992 3.724 0 10.179 0 9.658-5.952-.39-4.463-3.888-4.711-10.45-5.951-8.55-1.24-9.415-5.456-10.674-19.84-2.405-21.823-7.459-99.446-9.67-119.037-.346-3.968-2.323-6.696-11.26-6.696-12.412 0-17.7 1.984-22.35 8.432-28.53 39.927-54.796 77.374-81.375 114.077-9.093 12.4-15.058 20.832-24.048 23.064-5.083 1.488-9.217 2.48-8.848 6.695.13 1.488.952 5.208 7.903 5.208 6.703 0 14.56-.992 22.256-.992 8.689 0 17.216.992 25.657.992 3.971 0 9.908-.248 9.452-5.456-.369-4.215-4.18-5.207-8.713-5.951-4.782-.744-10.826-1.736-11.347-7.688-.304-3.472 2.015-8.184 4.625-12.4 4.789-7.688 10.009-16.12 13.774-21.328 1.089-1.735 1.834-1.735 3.82-1.735zm-.631-12.896h-41.21c12.362-17.608 24.518-34.72 36.632-52.327l.518.248zM3167.662 1023.263c.45 5.003 7.076 5.003 8.793 5.003 3.948.239 10.595.477 11.131 6.433.237 2.62-1.095 6.91-1.84 9.53-8.156 29.304-16.803 58.608-25.429 88.151-4.834 17.154-6.794 22.633-18.956 23.825-7.073.476-9.867 2.144-9.502 6.194.343 3.812 5.56 4.527 8.75 4.527 4.417 0 12.184-.953 20.772-.953 9.57 0 19.226.953 23.152.953 3.435 0 8.79-.477 8.34-5.48-.386-4.288-4.6-4.765-9.06-5.241-4.46-.477-8.782-2.145-9.426-9.292-.687-7.624 3.497-23.825 5.914-32.401 6.549-22.634 13.364-45.03 19.935-67.424h.49c1.329 9.291 2.144 18.345 3.472 27.636 3.034 25.493 6.067 50.985 9.079 76.24.944 10.482 2.067 14.77 10.655 14.77 6.871 0 8.417-1.906 11.85-7.385 22.415-37.167 45.098-74.095 67.514-111.261l.758.238c-5.126 30.257-10.23 60.753-15.356 91.01-1.978 10.721-3.34 17.392-18.042 17.63-3.66.239-8.214 1.43-7.806 5.956.45 5.004 7.567 5.004 11.984 5.004 4.907 0 16.845-.953 29.36-.953 16.686 0 30.758.953 37.384.953 3.19 0 10.06 0 9.524-5.956-.344-3.812-4.601-4.765-10-4.765-4.193-.239-10.413-1.192-10.907-6.671-.236-2.621.583-7.148 1.178-11.436 5.328-30.734 10.166-61.468 15.27-91.963 2.574-15.01 4.834-17.154 15.588-17.63 1.942-.239 8.77-.715 8.297-5.957-.3-3.335-3.64-5.003-10.02-5.003-6.135 0-18.34.715-26.928.715-11.533 0-16.505-.715-22.885-.715-6.113.239-7.125 2.621-11.368 10.007-16.511 26.445-33.246 53.129-49.736 79.812h-.491c-3.12-26.445-6.238-52.89-9.336-79.098-.73-8.1-.475-10.72-6.12-10.72-5.888 0-16.866.714-28.4.714-12.514 0-20.92-.715-27.3-.715-3.19 0-10.798 0-10.304 5.48zM3422.244 1147.856c-.326-3.814 1.354-11.442 1.981-15.017l17.364-86.052c2.823-13.349 3.43-17.163 14.102-17.878 7.172-.715 12.052-.953 11.582-6.436-.428-5.005-6.495-5.005-8.362-5.005-9.1 0-18.351.953-34.451.953-14.467 0-23.182-.953-30.882-.953-3.267 0-12.154-.239-11.623 5.959.429 5.006 6.303 5.482 8.382 5.244 6.3 0 11.475.477 11.944 5.96.245 2.86-.402 6.197-1.394 10.964l-18.052 88.912c-2.914 15.017-4.606 19.785-13.878 20.5-8.805.715-13.685.953-13.195 6.674.286 3.338 4.182 5.244 9.549 5.244 7.7 0 18.818-.953 30.485-.953 17.733 0 28.782.953 35.315.953 3.967 0 11.433 0 10.903-6.197-.409-4.768-5.33-5.006-8.363-5.006-5.153-.238-10.855-1.43-11.386-7.628z"/>
                <path d="M3447.326 1115.864c.945 10.322 6.918 33.423 31.602 47.432 14.093 7.864 32.477 12.042 54.08 12.042 12.343 0 30.937-1.966 43.85-4.178 11.906-1.966 17.194-3.195 18.31-7.864l8.185-39.814c1.996-9.093 2.854-13.763 12.514-14.991 7.603-1.23 12.466-1.475 11.994-6.636-.472-5.16-6.644-5.16-9.988-5.16-6.429 0-20.46 1.228-35.89 1.228-10.802 0-22.487-1.229-33.288-1.229-4.886 0-11.717 1.229-11.2 6.881.45 4.916 6.88 4.916 10.76 5.161 7.76.492 11.07 2.95 11.498 7.62.248 2.702-.254 5.652-.8 8.11l-5.018 23.838c-.926 3.932-2.02 8.848-4.41 10.814-2.605 2.457-7.658 3.44-12.03 3.44-10.801 0-20.442-4.178-28.172-12.78-7.127-7.618-12.814-19.169-13.871-30.72-2.34-25.559 8.728-47.923 23.58-62.669 17.577-18.678 42.16-28.263 59.132-28.263 10.801 0 13.174 3.441 13.579 7.865.36 3.932-.283 13.762.122 18.186.427 4.67 2.655 9.34 8.57 9.34 5.657 0 7.59-4.179 9.386-9.831 2.244-6.39 5.671-16.712 7.378-23.348 1.016-2.949 1.585-5.16 1.45-6.635-.293-3.195-4.028-4.67-7.718-5.653-7.94-2.458-19.77-2.458-27.228-2.458-33.946 0-67.294 9.34-91.85 24.822-28.212 17.695-47.294 45.22-44.55 75.204zM3724.598 1113.282c1.353 8.534 3.032 17.556 4.139 26.09 1.918 13.655-1.695 15.85-10.035 16.337-6.359.488-12.053.488-11.163 6.096.812 5.12 6.754 5.12 9.972 5.12 6.19 0 14.7-.975 31.781-.975 12.379 0 26.892.976 33.081.976 3.714 0 10.15 0 9.222-5.852-.696-4.39-4.2-4.633-10.831-5.852-8.61-1.22-9.763-5.365-12.007-19.507-3.9-21.457-14.274-97.777-17.825-117.04-.62-3.901-2.778-6.584-11.69-6.584-12.378 0-17.515 1.951-21.708 8.29-25.708 39.258-49.327 76.077-73.31 112.164-8.216 12.192-13.585 20.482-22.397 22.677-4.966 1.463-9.02 2.438-8.363 6.583.232 1.463 1.308 5.12 8.24 5.12 6.684 0 14.451-.975 22.126-.975 8.665 0 17.236.976 25.654.976 3.96 0 9.864-.244 9.051-5.365-.657-4.145-4.526-5.12-9.098-5.852-4.82-.731-10.916-1.707-11.844-7.559-.542-3.413 1.446-8.046 3.76-12.191 4.247-7.56 8.873-15.85 12.27-20.97.966-1.707 1.71-1.707 3.69-1.707zm-1.517-12.68h-41.096c11.117-17.311 22.064-34.136 32.934-51.448l.534.244z"/>
            </g>
        </g>
        <g stroke-width="15.585">
            <g transform="matrix(.89825 0 0 .8983 205.782 129.095)">
                <rect height="147.208" rx="9.823" ry="9.822" width="187.326" x="2034.704" y="2210.777"/>
                <rect height="147.208" rx="9.823" ry="9.822" width="1532.355" x="471.657" y="2210.777"/>
                <rect height="147.208" rx="9.823" ry="9.822" width="187.03" x="253.455" y="2210.777"/>
                <rect height="147.208" rx="9.823" ry="9.822" width="187.03" x="35.253" y="2210.777"/>
                <rect height="147.208" rx="9.823" ry="9.822" width="187.03" x="2252.907" y="2210.777"/>
            </g>
            <g transform="matrix(.89825 0 0 .8983 127.782 -30.905)">
                <rect height="147.208" rx="9.823" ry="9.822" width="142.981" x="1861.033" y="2210.777"/>
                <rect height="147.208" rx="9.823" ry="9.822" width="142.981" x="1687.361" y="2210.777"/>
                <rect height="147.208" rx="9.823" ry="9.822" width="142.981" x="1513.689" y="2210.777"/>
                <rect height="147.208" rx="9.823" ry="9.822" width="142.981" x="2034.704" y="2210.777"/>
                <rect height="147.208" rx="9.823" ry="9.822" width="142.981" x="1861.033" y="2210.777"/>
                <rect height="147.208" rx="9.823" ry="9.822" width="142.981" x="1687.361" y="2210.777"/>
                <rect height="147.208" rx="9.823" ry="9.822" width="142.981" x="1513.689" y="2210.777"/>
                <rect height="147.208" rx="9.823" ry="9.822" width="142.981" x="1340.017" y="2210.777"/>
                <rect height="147.208" rx="9.823" ry="9.822" width="142.981" x="1166.345" y="2210.777"/>
                <rect height="147.208" rx="9.823" ry="9.822" width="142.981" x="992.673" y="2210.777"/>
                <rect height="147.208" rx="9.823" ry="9.822" width="142.981" x="819.002" y="2210.777"/>
                <rect height="147.208" rx="9.823" ry="9.822" width="142.981" x="645.33" y="2210.777"/>
                <rect height="147.208" rx="9.823" ry="9.822" width="142.981" x="471.658" y="2210.777"/>
                <rect height="147.208" rx="9.823" ry="9.822" width="142.981" x="297.986" y="2210.777"/>
                <rect height="147.208" rx="9.823" ry="9.822" width="316.651" x="-49.356" y="2210.777"/>
                <rect height="147.208" rx="9.823" ry="9.822" width="450.246" x="2208.376" y="2210.777"/>
            </g>
            <g transform="matrix(.89825 0 0 .8983 49.782 -190.905)">
                <path d="M2523.238 2179.878a9.8 9.8 0 0 1-9.823-9.822v-127.564a9.8 9.8 0 0 1 9.823-9.822h212.398a9.8 9.8 0 0 1 9.822 9.822v305.67a9.8 9.8 0 0 1-9.822 9.822h-170.093a9.8 9.8 0 0 1-9.823-9.822V2220.6"/>
                <rect height="147.208" rx="9.823" ry="9.822" width="142.981" x="2034.704" y="2210.777"/>
                <rect height="147.208" rx="9.823" ry="9.822" width="142.981" x="1861.033" y="2210.777"/>
                <rect height="147.208" rx="9.823" ry="9.822" width="142.981" x="1687.361" y="2210.777"/>
                <rect height="147.208" rx="9.823" ry="9.822" width="142.981" x="1513.689" y="2210.777"/>
                <rect height="147.208" rx="9.823" ry="9.822" width="142.981" x="1340.017" y="2210.777"/>
                <rect height="147.208" rx="9.823" ry="9.822" width="142.981" x="1166.345" y="2210.777"/>
                <rect height="147.208" rx="9.823" ry="9.822" width="142.981" x="992.673" y="2210.777"/>
                <rect height="147.208" rx="9.823" ry="9.822" width="142.981" x="819.002" y="2210.777"/>
                <rect height="147.208" rx="9.823" ry="9.822" width="142.981" x="645.33" y="2210.777"/>
                <rect height="147.208" rx="9.823" ry="9.822" width="142.981" x="471.658" y="2210.777"/>
                <rect height="147.208" rx="9.823" ry="9.822" width="142.981" x="297.986" y="2210.777"/>
                <rect height="147.208" rx="9.823" ry="9.822" width="142.981" x="2382.048" y="2210.777"/>
                <rect height="147.208" rx="9.823" ry="9.822" width="142.981" x="2208.376" y="2210.777"/>
                <rect height="147.208" rx="9.823" ry="9.822" width="229.816" x="37.48" y="2210.777"/>
                <path d="M2523.238 2179.878c16.338.23 32.91-1.782 32.482 40.72"/>
            </g>
            <g transform="matrix(.89825 0 0 .8983 11.782 -350.905)">
                <rect height="147.208" rx="9.823" ry="9.822" width="142.981" x="2034.704" y="2210.777"/>
                <rect height="147.208" rx="9.823" ry="9.822" width="142.981" x="1861.033" y="2210.777"/>
                <rect height="147.208" rx="9.823" ry="9.822" width="142.981" x="1687.361" y="2210.777"/>
                <rect height="147.208" rx="9.823" ry="9.822" width="142.981" x="1513.689" y="2210.777"/>
                <rect height="147.208" rx="9.823" ry="9.822" width="142.981" x="1340.017" y="2210.777"/>
                <rect height="147.208" rx="9.823" ry="9.822" width="142.981" x="1166.345" y="2210.777"/>
                <rect height="147.208" rx="9.823" ry="9.822" width="142.981" x="992.673" y="2210.777"/>
                <rect height="147.208" rx="9.823" ry="9.822" width="142.981" x="819.002" y="2210.777"/>
                <rect height="147.208" rx="9.823" ry="9.822" width="142.981" x="645.33" y="2210.777"/>
                <rect height="147.208" rx="9.823" ry="9.822" width="142.981" x="471.658" y="2210.777"/>
                <rect height="147.208" rx="9.823" ry="9.822" width="361.182" x="79.784" y="2210.777"/>
                <rect height="147.208" rx="9.823" ry="9.822" width="142.981" x="2382.048" y="2210.777"/>
                <rect height="147.208" rx="9.823" ry="9.822" width="142.981" x="2208.376" y="2210.777"/>
            </g>
            <g transform="matrix(.89825 0 0 .8983 89.782 -510.905)">
                <rect height="147.208" rx="9.823" ry="9.822" width="142.981" x="2034.704" y="2210.777"/>
                <rect height="147.208" rx="9.823" ry="9.822" width="142.981" x="1861.033" y="2210.777"/>
                <rect height="147.208" rx="9.823" ry="9.822" width="142.981" x="1687.361" y="2210.777"/>
                <rect height="147.208" rx="9.823" ry="9.822" width="142.981" x="1513.689" y="2210.777"/>
                <rect height="147.208" rx="9.823" ry="9.822" width="142.981" x="1340.017" y="2210.777"/>
                <rect height="147.208" rx="9.823" ry="9.822" width="142.981" x="1166.345" y="2210.777"/>
                <rect height="147.208" rx="9.823" ry="9.822" width="142.981" x="992.673" y="2210.777"/>
                <rect height="147.208" rx="9.823" ry="9.822" width="142.981" x="819.002" y="2210.777"/>
                <rect height="147.208" rx="9.823" ry="9.822" width="142.981" x="645.33" y="2210.777"/>
                <rect height="147.208" rx="9.823" ry="9.822" width="142.981" x="471.658" y="2210.777"/>
                <rect height="147.208" rx="9.823" ry="9.822" width="142.981" x="2382.048" y="2210.777"/>
                <rect height="147.208" rx="9.823" ry="9.822" width="142.981" x="2208.376" y="2210.777"/>
                <rect height="147.208" rx="9.823" ry="9.822" width="142.981" x="2557.947" y="2210.777"/>
                <rect height="147.208" rx="9.823" ry="9.822" width="142.981" x="297.986" y="2210.777"/>
                <rect height="147.208" rx="9.823" ry="9.822" width="274.347" x="-7.051" y="2210.777"/>
            </g>
            <g transform="matrix(.89825 0 0 .8983 89.782 -736.905)">
                <rect height="147.208" rx="9.823" ry="9.822" width="187.03" x="2337.517" y="2210.777"/>
                <rect height="147.208" rx="9.823" ry="9.822" width="187.03" x="2119.314" y="2210.777"/>
                <rect height="147.208" rx="9.823" ry="9.822" width="187.03" x="1901.111" y="2210.777"/>
                <rect height="147.208" rx="9.823" ry="9.822" width="187.03" x="1682.908" y="2210.777"/>
                <rect height="147.208" rx="9.823" ry="9.822" width="187.03" x="1464.704" y="2210.777"/>
                <rect height="147.208" rx="9.823" ry="9.822" width="187.03" x="1157.439" y="2210.777"/>
                <rect height="147.208" rx="9.823" ry="9.822" width="187.03" x="939.236" y="2210.777"/>
                <rect height="147.208" rx="9.823" ry="9.822" width="187.03" x="721.033" y="2210.777"/>
                <rect height="147.208" rx="9.823" ry="9.822" width="187.03" x="502.83" y="2210.777"/>
                <rect height="147.208" rx="9.823" ry="9.822" width="187.03" x="284.627" y="2210.777"/>
                <rect height="147.208" rx="9.823" ry="9.822" width="147.216" x="-7.051" y="2210.777"/>
            </g>
            <g transform="matrix(.89825 0 0 .8983 2353.782 -30.905)">
                <rect height="147.208" rx="9.823" ry="9.822" width="142.981" x="645.33" y="2210.777"/>
                <rect height="147.208" rx="9.823" ry="9.822" width="142.981" x="471.658" y="2210.777"/>
                <rect height="147.208" rx="9.823" ry="9.822" width="142.981" x="297.986" y="2210.777"/>
                <rect height="147.208" rx="9.823" ry="9.822" width="142.981" x="471.658" y="2032.67"/>
            </g>
            <g transform="matrix(.89825 0 0 .8983 2909.782 -30.905)">
                <rect height="147.208" rx="9.823" ry="9.822" width="142.981" x="645.33" y="2210.777"/>
                <rect height="147.208" rx="9.823" ry="9.822" width="142.981" x="471.658" y="2210.777"/>
                <rect height="147.208" rx="9.823" ry="9.822" width="142.981" x="297.986" y="2210.777"/>
                <rect height="147.208" rx="9.823" ry="9.822" width="142.981" x="471.658" y="2032.67"/>
                <rect height="147.208" rx="9.823" ry="9.822" width="142.981" x="295.759" y="2032.67"/>
                <rect height="147.208" rx="9.823" ry="9.822" width="142.981" x="645.33" y="2032.67"/>
                <rect height="147.208" rx="9.823" ry="9.822" width="142.981" x="471.658" y="1854.555"/>
                <rect height="147.208" rx="9.823" ry="9.822" width="142.981" x="295.759" y="1854.555"/>
                <rect height="147.208" rx="9.823" ry="9.822" width="142.981" x="645.33" y="1854.555"/>
                <rect height="147.208" rx="9.823" ry="9.822" width="142.981" x="645.33" y="2388.882"/>
                <rect height="147.208" rx="9.823" ry="9.822" width="316.652" x="297.986" y="2388.882"/>
                <rect height="325.313" rx="9.823" ry="9.822" width="142.981" x="819.002" y="2210.777"/>
                <rect height="147.208" rx="9.823" ry="9.822" width="142.981" x="819.002" y="2032.67"/>
                <rect height="147.208" rx="9.823" ry="9.822" width="142.981" x="819.002" y="1854.555"/>
                <rect height="147.208" rx="9.823" ry="9.822" width="142.981" x="471.658" y="1676.44"/>
                <rect height="147.208" rx="9.823" ry="9.822" width="142.981" x="295.759" y="1676.44"/>
                <rect height="147.208" rx="9.823" ry="9.822" width="142.981" x="645.33" y="1676.44"/>
                <rect height="147.208" rx="9.823" ry="9.822" width="142.981" x="819.002" y="1676.44"/>
            </g>
            <g transform="matrix(.89825 0 0 .8983 2353.782 -510.905)">
                <rect height="147.208" rx="9.823" ry="9.822" width="253.827" x="569.627" y="2210.777"/>
                <rect height="147.208" rx="9.823" ry="9.822" width="239.413" x="297.986" y="2210.777"/>
            </g>
        </g>
    </g>
</svg>
