<svg xmlns="http://www.w3.org/2000/svg" viewBox="0 0 480 270" height="360" width="640" version="1.0">
    <g style="fill:#fff;stroke:none">
        <path style="fill:#fff" d="M775 9768c-3-7-4-989-3-2183l3-2170 53-3 52-3V4079c0-879 3-1329 10-1329s10-315 10-924V902l31-26c17-14 38-26 47-27 172-5 17509-2 17505 4-2 4 5 7 16 7s33 12 50 26l31 26v923c0 611 3 924 10 927 7 2 10 818 10 2452 1 2210-1 2450-15 2466s-14 18 5 23c20 5 20 11 20 456v450l48 3 47 3 3 569c1 412-1 573-9 582-16 20-17917 21-17924 2zm17875-572v-525l-47-3-48-3-3-471-2-472H9767c-4830-1-8792-1-8804-1-13-1-36-13-53-28l-30-28-1-1097-2-1098h-47v4250h17820zm-112-1544c16-20 18-4702 2-4702-7 0-10-345-10-1014V922l-42-7c-52-9-17363-19-17466-10l-72 7v1014c0 669-3 1014-10 1014s-10 788-10 2343c0 2008 2 2346 14 2363 14 19 118 19 8783 24 4822 3 8775 3 8783 1s21-11 28-19z" transform="matrix(.0229 0 0 -.02216 14.144 254.384)"/>
        <path style="fill:#fff" d="M1242 9388c-18-18-14-63 6-81 17-16 625-17 8549-17h8530l21 23c27 28 28 49 4 70-17 16-626 17-8558 17-6629 0-8543-3-8552-12zM1242 9168c-18-18-14-63 6-81 17-16 625-17 8549-17h8530l21 23c27 28 28 49 4 70-17 16-626 17-8558 17-6629 0-8543-3-8552-12zM1242 8948c-18-18-14-63 6-81 17-16 625-17 8549-17h8530l21 23c27 28 28 49 4 70-17 16-626 17-8558 17-6629 0-8543-3-8552-12zM1242 8728c-18-18-14-63 6-81 17-16 625-17 8549-17h8530l21 23c27 28 28 49 4 70-17 16-626 17-8558 17-6629 0-8543-3-8552-12zM1242 8508c-18-18-14-63 6-81 17-16 625-17 8549-17h8530l21 23c27 28 28 49 4 70-17 16-626 17-8558 17-6629 0-8543-3-8552-12zM1242 8288c-18-18-14-63 6-81 17-16 625-17 8549-17h8530l21 23c27 28 28 49 4 70-17 16-626 17-8558 17-6629 0-8543-3-8552-12zM1242 8068c-18-18-14-63 6-81 17-16 625-17 8549-17h8530l21 23c27 28 28 49 4 70-17 16-626 17-8558 17-6629 0-8543-3-8552-12zM1401 6499c-50-20-50-25-50-329 0-209 3-289 12-301 28-36 51-39 322-39 298 0 317 4 329 61 8 41 8 517 0 559-12 55-38 60-331 59-142 0-269-5-282-10zm567-323c1-154-2-284-6-288-14-14-541-11-558 3-11 9-14 61-14 271 0 161 4 267 10 279 10 19 22 19 288 17l277-3zM2437 6492c-15-16-17-54-17-324 0-272 2-307 17-319 13-11 91-14 414-14 369 0 400 1 416 18 16 16 18 45 21 313 2 255 1 299-13 320l-15 24h-404c-378 0-404-1-419-18zm798-322v-285l-379-3c-297-2-381 1-388 10-13 22-10 542 4 556 9 9 104 12 388 10l375-3zM3336 6494c-14-13-16-57-16-323 0-275 2-310 17-322 13-11 89-14 387-16 204-1 388 1 408 3 30 5 39 11 47 36 7 19 11 138 11 312 0 239-2 285-16 304l-15 22h-404c-354 0-406-2-419-16zm799-324v-285l-379-3c-297-2-381 1-388 10-13 22-10 542 4 556 9 9 104 12 388 10l375-3zM4267 6492c-15-16-17-54-17-324 0-272 2-307 17-319 13-11 92-14 418-14 382 0 404 1 424 19 20 19 21 27 21 318 0 285-1 299-20 318s-33 20-423 20c-379 0-405-1-420-18zm798-322v-285l-379-3c-297-2-381 1-388 10-13 22-10 542 4 556 9 9 104 12 388 10l375-3zM5176 6494c-14-13-16-57-16-323 0-275 2-310 17-322 13-11 89-14 387-16 204-1 388 1 408 3 30 5 39 11 47 36 7 19 11 138 11 312 0 239-2 285-16 304l-15 22h-404c-354 0-406-2-419-16zm799-324v-285l-379-3c-297-2-381 1-388 10-13 22-10 542 4 556 9 9 104 12 388 10l375-3zM6086 6494c-14-13-16-57-16-323 0-275 2-310 17-322 13-11 89-14 387-16 204-1 388 1 408 3 30 5 39 11 47 36 7 19 11 138 11 312 0 239-2 285-16 304l-15 22h-404c-354 0-406-2-419-16zm799-324v-285l-379-3c-297-2-381 1-388 10-13 22-10 542 4 556 9 9 104 12 388 10l375-3zM7316 6484c-14-13-16-57-16-323 0-275 2-310 17-322 13-11 89-14 387-16 204-1 388 1 408 3 30 5 39 11 47 36 7 19 11 138 11 312 0 239-2 285-16 304l-15 22h-404c-354 0-406-2-419-16zm799-324v-285l-379-3c-297-2-381 1-388 10-13 22-10 542 4 556 9 9 104 12 388 10l375-3zM8218 6489c-17-9-18-35-18-323 0-280 2-315 17-327 13-11 92-14 419-14 392 0 404 1 418 20 23 31 23 600 1 633l-16 22h-402c-254 0-408-4-419-11zm797-329v-285l-379-3c-297-2-381 1-388 10-13 22-10 542 4 556 9 9 104 12 388 10l375-3zM9147 6482c-15-16-17-54-17-324 0-272 2-307 17-319 13-11 92-14 418-14 382 0 404 1 424 19 20 19 21 27 21 318 0 285-1 299-20 318s-33 20-423 20c-379 0-405-1-420-18zm798-322v-285l-379-3c-297-2-381 1-388 10-13 22-10 542 4 556 9 9 104 12 388 10l375-3zM10058 6489c-17-9-18-35-18-323 0-280 2-315 17-327 13-11 92-14 419-14 392 0 404 1 418 20 23 31 23 600 1 633l-16 22h-402c-254 0-408-4-419-11zm797-329v-285l-379-3c-297-2-381 1-388 10-13 22-10 542 4 556 9 9 104 12 388 10l375-3zM10968 6489c-17-9-18-35-18-323 0-280 2-315 17-327 13-11 92-14 419-14 392 0 404 1 418 20 23 31 23 600 1 633l-16 22h-402c-254 0-408-4-419-11zm797-329v-285l-379-3c-297-2-381 1-388 10-13 22-10 542 4 556 9 9 104 12 388 10l375-3zM17194 6477c-3-8-4-45-2-83l3-69h620v160l-308 3c-252 2-308 0-313-11zm566-72v-25h-510v50h510zM17194 6167c-3-8-4-45-2-83l3-69h620v160l-308 3c-252 2-308 0-313-11zm566-72v-25h-510v50h510zM17194 5867c-3-8-4-45-2-83l3-69h620v160l-308 3c-252 2-308 0-313-11zm566-72v-25h-510v50h510zM12911 5411c-20-13-21-21-21-326 0-279 2-314 17-326 13-12 105-14 505-14 477 0 490 1 501 20 21 37 21 49 22 332 0 269-1 283-20 302s-38 20-502 23c-395 2-485 1-502-11zm967-325c1-177-1-283-8-290-6-6-173-9-466-8-364 1-459 4-465 14-14 22-11 542 3 556 9 9 123 12 473 10l460-3zM14001 5411c-20-13-21-21-21-326 0-279 2-314 17-326 13-12 105-14 504-14h487l21 25c19 24 20 37 21 316 0 289 0 291-22 312-23 20-31 21-505 24-395 2-485 1-502-11zm967-325c1-177-1-283-8-290-6-6-173-9-466-8-364 1-459 4-465 14-14 22-11 542 3 556 9 9 123 12 473 10l460-3zM1347 5402c-15-16-17-54-17-324 0-272 2-307 17-319 25-21 971-14 993 7 13 12 15 61 15 315v301l-24 19c-22 18-45 19-496 19-444 0-473-1-488-18zm978-322v-285l-469-3c-369-2-471 0-478 10-13 22-10 542 4 556 9 9 124 12 478 10l465-3zM2456 5410c-66-13-66-11-66-332 0-271 1-289 19-307 29-29 79-33 354-29l249 3 24 28 24 28v558l-24 28-24 28-259 2c-142 0-276-2-297-7zm549-330v-285l-279-3c-217-2-281 1-288 10-13 22-10 542 4 556 9 9 82 12 288 10l275-3zM3165 5411c-49-21-50-25-50-332 0-287 0-289 23-311 22-23 27-23 295-26 172-2 283 1 301 7 52 21 58 54 54 352-3 264-3 269-26 291-22 23-26 23-300 25-152 1-286-2-297-6zm563-53c17-17 17-539 0-556-9-9-84-12-274-12-144 0-269 3-278 6-14 5-16 40-16 283 0 153 3 281 7 284 3 4 128 7 278 7 197 0 274-3 283-12zM3894 5410c-52-21-54-34-54-332v-277l24-28 24-28 269-3c147-2 278 0 291 3 12 3 31 14 42 25 19 19 20 35 20 306 0 167-4 293-10 304-5 10-24 23-41 29-38 13-533 14-565 1zm564-52c19-19 17-541-2-557-9-8-94-11-287-9l-274 3-3 275c-1 151 0 280 3 287 6 18 545 19 563 1zM4614 5406c-17-8-34-21-38-31-3-9-6-143-6-298 1-206 4-286 13-298 28-36 51-39 322-39 278 0 313 5 329 45 10 28 7 575-4 595-18 34-65 40-329 40-192-1-264-4-287-14zm576-55c6-12 10-117 10-271s-4-259-10-271c-10-18-24-19-285-19s-275 1-285 19c-6 12-10 117-10 271s4 259 10 271c10 18 24 19 285 19s275-1 285-19zM5344 5406c-17-8-34-21-38-31-8-21-8-568 0-590 16-40 51-45 334-45h272l29 29 29 29v561l-24 28-24 28-274 2c-214 2-280 0-304-11zm571-326v-285l-275-3c-250-2-276-1-287 15-17 22-18 514-3 544 10 19 22 19 288 17l277-3zM6073 5410c-12-5-26-18-32-29-7-13-11-122-11-305 0-271 1-287 20-306 11-11 30-22 42-25 13-3 143-5 290-3 263 3 268 3 290 26 23 22 23 24 23 312s0 290-23 312c-22 23-26 23-300 25-152 1-287-2-299-7zm572-330v-285l-274-3c-193-2-278 1-287 9-19 16-21 538-2 557 9 9 82 12 288 10l275-3zM6800 5407c-48-24-50-41-48-339 3-274 3-278 26-300 22-23 24-23 311-23 270 0 290 1 310 19 20 19 21 27 21 316s-1 297-21 316c-19 18-42 19-298 22-209 2-282-1-301-11zm568-49c17-17 17-539 0-556-9-9-84-12-274-12-144 0-269 3-278 6-14 5-16 40-16 283 0 153 3 281 7 284 3 4 128 7 278 7 197 0 274-3 283-12zM7534 5410c-52-21-54-33-54-333v-279l29-29 29-29h272c283 0 318 5 334 45 10 28 7 575-4 595-5 10-24 23-41 29-38 13-533 14-565 1zm564-52c9-9 12-86 12-285v-273l-22-5c-13-3-142-4-288-3l-265 3-3 275c-1 151 0 280 3 287 6 18 545 19 563 1zM8259 5409c-14-5-31-21-38-35-12-27-16-539-5-582 13-47 42-52 329-52 271 0 294 3 322 39 9 12 12 92 12 301 0 307 0 309-53 330-35 13-531 12-567-1zm571-58c6-12 10-119 10-279 0-208-3-262-14-271-9-8-94-11-287-9l-274 3-3 275c-1 151 0 280 3 287 3 10 67 13 279 13 262 0 276-1 286-19zM8984 5406c-17-8-34-21-38-31-8-21-8-568 0-590 16-40 51-45 328-45 281 0 305 3 325 47 7 16 11 118 11 298v274l-24 28-24 28-274 2c-214 2-280 0-304-11zm574-320c1-154-2-284-6-288-5-5-130-9-278-8-239 0-270 2-281 17-17 22-18 514-3 544 10 19 22 19 288 17l277-3zM9725 5413c-11-3-28-12-37-21-16-14-18-42-18-312 0-289 1-297 21-316 20-18 40-19 310-19 287 0 289 0 311 23 23 22 23 24 23 312s0 290-23 312c-22 23-26 23-295 25-149 0-281-1-292-4zm560-333v-285l-265-3c-146-1-275 0-287 3l-23 5v279c0 214 3 281 13 284 6 3 136 5 287 4l275-2zM10440 5407c-48-24-50-41-48-339 3-274 3-278 26-300 22-23 24-23 312-23s290 0 312 23c23 22 23 24 23 312s0 290-23 312c-22 23-26 23-300 26-210 2-283-1-302-11zm564-43c14-5 16-40 16-284 0-239-2-279-15-284-21-8-542-9-555-1-11 7-14 557-3 568 8 9 536 9 557 1zM11170 5407c-47-23-50-44-50-323 0-160 4-273 11-292 7-20 21-34 41-41 19-7 131-11 290-11 270 0 306 5 322 45 10 28 7 575-4 595-18 34-65 40-329 40-185 0-263-4-281-13zm568-49c19-19 17-541-2-557-9-8-94-11-287-9l-274 3-3 275c-1 151 0 280 3 287 6 18 545 19 563 1zM11901 5409c-50-20-50-25-50-329 0-209 3-289 12-301 28-36 51-39 322-39 298 0 317 4 329 61 8 41 8 517 0 559-12 55-38 60-331 59-142 0-269-5-282-10zm567-323c1-154-2-284-6-288-14-14-541-11-558 3-11 9-14 61-14 271 0 161 4 267 10 279 10 19 22 19 288 17l277-3zM15475 5413c-11-3-28-12-37-21-16-14-18-42-18-312 0-289 1-297 21-316 20-18 40-19 310-19 287 0 289 0 311 23 23 22 23 24 23 312s0 290-23 312c-22 23-26 23-295 25-149 0-281-1-292-4zm560-333v-285l-265-3c-146-1-275 0-287 3l-23 5v279c0 214 3 281 13 284 6 3 136 5 287 4l275-2zM16190 5407c-48-24-50-41-48-339 3-274 3-278 26-300 22-23 24-23 312-23s290 0 312 23c23 22 23 24 23 312s0 290-23 312c-22 23-26 23-300 26-210 2-283-1-302-11zm564-43c14-5 16-40 16-284 0-239-2-279-15-284-21-8-542-9-555-1-11 7-14 557-3 568 8 9 536 9 557 1zM16920 5407c-47-23-50-44-50-323 0-160 4-273 11-292 7-20 21-34 41-41 19-7 131-11 290-11 270 0 306 5 322 45 10 28 7 575-4 595-18 34-65 40-329 40-185 0-263-4-281-13zm568-49c19-19 17-541-2-557-9-8-94-11-287-9l-274 3-3 275c-1 151 0 280 3 287 6 18 545 19 563 1zM17651 5409c-50-20-50-25-50-329 0-209 3-289 12-301 28-36 51-39 322-39 298 0 317 4 329 61 8 41 8 517 0 559-12 55-38 60-331 59-142 0-269-5-282-10zm567-323c1-154-2-284-6-288-14-14-541-11-558 3-11 9-14 61-14 271 0 161 4 267 10 279 10 19 22 19 288 17l277-3zM1380 4693c-8-3-23-12-32-21-16-14-18-41-18-302 0-268 1-289 19-311l19-24 645-3c418-1 654 1 671 8 52 19 58 54 54 347l-3 265-28 24-28 24-642-1c-353 0-649-3-657-6zm1281-43c18-10 19-24 19-278 0-151-4-274-10-282-8-13-91-15-630-18-422-2-627 1-640 8-19 10-20 22-20 285 0 250 2 275 18 284 24 14 1236 15 1263 1zM2819 4671l-24-19v-594l24-19c22-18 42-19 308-19h284l24 25 25 24v578l-23 21c-23 22-29 22-309 22-266 0-287-1-309-19zm582-31c18-10 19-24 19-285s-1-275-19-285c-31-16-536-14-549 3-16 19-17 544-1 563 9 11 58 14 271 14 160 0 267-4 279-10zM3539 4671l-24-19v-594l24-19c22-18 43-19 311-19s289 1 311 19l24 19 3 274c2 150 0 283-3 296-3 12-14 31-25 42-19 19-35 20-309 20-269 0-290-1-312-19zm589-33c9-9 12-86 12-285 0-259-1-273-19-283-12-6-118-10-275-10-218 0-257 2-270 16-14 13-16 53-16 283 0 194 3 270 12 279 17 17 539 17 556 0zM4269 4669l-24-21v-590l24-19c22-18 42-19 306-19 270 0 283 1 309 21l26 20v294c0 290 0 295-22 315-21 19-34 20-308 20-276 0-288-1-311-21zm589-31c9-9 12-86 12-285 0-259-1-273-19-283-12-6-117-10-271-10s-259 4-271 10c-18 10-19 24-19 283 0 199 3 276 12 285 17 17 539 17 556 0zM4998 4679c-31-17-38-79-38-324 0-249 7-307 40-325 25-13 575-13 600 0 34 18 40 65 40 325s-6 307-40 325c-25 13-579 13-602-1zm580-41c9-9 12-86 12-285 0-259-1-273-19-283-12-6-117-10-271-10s-259 4-271 10c-18 10-19 24-19 283 0 199 3 276 12 285 17 17 539 17 556 0zM5717 4678c-9-7-21-26-27-41-13-35-14-526-1-560 22-58 18-57 327-57 173 0 293 4 304 10 33 18 40 76 40 331 0 254-6 301-40 319-29 16-582 13-603-2zm581-40c9-9 12-86 12-285 0-259-1-273-19-283-12-6-117-10-271-10s-259 4-271 10c-18 10-19 24-19 283 0 199 3 276 12 285 17 17 539 17 556 0zM6432 4667c-22-23-22-29-22-314v-292l26-20c26-20 39-21 309-21 264 0 284 1 306 19l24 19v594l-24 19c-22 18-43 19-310 19h-288zm586-29c9-9 12-86 12-285 0-259-1-273-19-283-12-6-117-10-271-10s-259 4-271 10c-18 10-19 24-19 283 0 199 3 276 12 285 17 17 539 17 556 0zM7152 4667c-22-23-22-29-22-311v-287l25-24 24-25h284c266 0 286 1 308 19l24 19v594l-24 19c-22 18-43 19-310 19h-288zm582-23c14-5 16-40 16-283 0-202-3-280-12-289s-84-12-274-12c-225 0-265 2-278 16-14 13-16 52-16 275 0 160 4 268 10 280 10 18 24 19 275 19 145 0 270-3 279-6zM7871 4664c-20-26-21-39-21-311v-284l25-24 24-25h572l24 25 25 24v572l-25 24-24 25h-580zm589-24c13-8 15-51 15-285s-2-277-15-285c-20-13-530-13-550 0-13 8-15 51-15 285s2 277 15 285c20 13 530 13 550 0zM8590 4663c-20-26-21-34-18-316l3-289 24-19c22-18 43-19 308-19h284l24 25 25 24v284c0 272-1 285-21 311l-20 26h-588zm594-29c24-23 24-535 0-558-13-14-52-16-274-16-142 0-265 3-274 6-14 5-16 40-16 289 0 217 3 285 13 288 6 3 130 6 274 6 225 1 264-1 277-15zM9319 4671l-24-19v-594l24-19c22-18 42-19 306-19 270 0 283 1 309 21l26 20v586l-23 21c-23 22-29 22-309 22-266 0-287-1-309-19zm582-31c18-10 19-24 19-285s-1-275-19-285c-12-6-117-10-271-10s-259 4-271 10c-18 10-19 24-19 283 0 199 3 276 12 285 16 16 520 17 549 2zM10046 4677c-28-21-35-85-35-322s7-301 35-322c23-17 564-19 596-2 42 22 48 63 48 317 0 262-3 291-32 321-18 20-28 21-306 21-222 0-292-3-306-13zm582-39c9-9 12-86 12-285 0-259-1-273-19-283-12-6-117-10-271-10s-259 4-271 10c-18 10-19 24-19 283 0 199 3 276 12 285 17 17 539 17 556 0zM10768 4679c-31-17-38-79-38-324 0-249 7-307 40-325 11-6 129-10 300-10s289 4 300 10c33 18 40 76 40 325s-7 307-40 325c-25 13-579 13-602-1zm580-41c9-9 12-86 12-285 0-259-1-273-19-283-12-6-117-10-271-10s-259 4-271 10c-18 10-19 24-19 283 0 199 3 276 12 285 17 17 539 17 556 0zM11472 4683c-7-3-19-18-27-33-12-24-15-80-15-299v-269l26-31c24-29 30-31 93-31 39 0 72-5 79-12 9-9 12-97 12-334v-322l26-17c23-15 65-17 410-16 245 0 391 4 404 11 38 21 40 61 34 700-6 601-7 616-27 638l-20 22-491-1c-270 0-497-3-504-6zm986-45c9-9 12-165 12-639 0-562-2-627-16-633-25-10-748-7-763 3-12 8-13 56-8 304 6 307 2 358-33 377-10 5-46 10-79 10-99 0-91-26-91 295 0 217 3 285 13 288 6 3 224 6 482 6 354 1 474-2 483-11zM15485 4683c-11-3-28-12-37-21-16-14-18-42-18-312 0-289 1-297 21-316 20-18 40-19 310-19 287 0 289 0 311 23 23 22 23 24 23 312s0 290-23 312c-22 23-26 23-295 25-149 0-281-1-292-4zm560-333v-285l-265-3c-146-1-275 0-287 3l-23 5v279c0 214 3 281 13 284 6 3 136 5 287 4l275-2zM16200 4677c-48-24-50-41-48-339 3-274 3-278 26-300 22-23 24-23 312-23s290 0 312 23c23 22 23 24 23 312s0 290-23 312c-22 23-26 23-300 26-210 2-283-1-302-11zm564-43c14-5 16-40 16-284 0-239-2-279-15-284-21-8-542-9-555-1-11 7-14 557-3 568 8 9 536 9 557 1zM16930 4677c-47-23-50-44-50-323 0-160 4-273 11-292 7-20 21-34 41-41 19-7 131-11 290-11 270 0 306 5 322 45 10 28 7 575-4 595-18 34-65 40-329 40-185 0-263-4-281-13zm568-49c19-19 17-541-2-557-9-8-94-11-287-9l-274 3-3 275c-1 151 0 280 3 287 6 18 545 19 563 1zM17661 4679c-50-20-50-25-50-329 0-209 3-289 12-301 28-36 51-39 322-39 298 0 317 4 329 61 8 41 8 517 0 559-12 55-38 60-331 59-142 0-269-5-282-10zm567-323c1-154-2-284-6-288-14-14-541-11-558 3-11 9-14 61-14 271 0 161 4 267 10 279 10 19 22 19 288 17l277-3zM1337 3972c-15-16-17-54-17-324 0-272 2-307 17-319 13-12 89-13 422-11 359 3 407 5 419 20 9 12 12 90 12 312 0 251-2 299-16 318l-15 22h-403c-378 0-404-1-419-18zm821-319-3-288-384-3c-301-2-386 1-393 10-13 22-10 542 4 556 9 9 110 12 395 12h383zM2259 3959l-29-31v-546l26-31 26-31h587l20 26c20 26 21 39 21 311v284l-25 24-24 25h-573zm601-38c13-25 14-500 0-535l-10-26h-550l-10 26c-14 35-13 510 0 535 10 18 24 19 285 19s275-1 285-19z" transform="matrix(.0229 0 0 -.02216 14.144 254.384)"/>
        <path style="fill:#fff" d="M2721 3894c-23-17-28-53-9-72 33-33 95 7 79 51-11 29-44 39-70 21zM2973 3966l-28-24v-274c0-150 3-285 8-300 13-49 29-52 342-51l289 1 23 26c23 27 23 30 23 307 0 164-4 288-10 299-19 35-64 40-346 40h-273zm595-310c2-217-1-281-10-288-7-4-133-8-279-8h-266l-7 31c-8 40-8 497 0 527l6 22 277-2 276-3zM3693 3966l-28-24v-274c0-150 3-285 8-300 4-15 17-32 28-39 14-7 116-11 311-10 260 0 293 2 310 17 17 16 18 35 18 321l-1 304-34 15c-27 11-94 14-309 14h-275zm595-310c2-217-1-281-10-288-7-4-133-8-279-8h-266l-7 31c-8 40-8 497 0 527l6 22 277-2 276-3zM4413 3966l-28-24-3-239c-4-270 1-336 29-364 18-18 37-19 312-19 286 0 294 1 313 21 18 20 19 40 19 311v290l-28 24-28 24h-558zm595-310c2-217-1-281-10-288-22-13-542-10-556 4-13 13-18 549-5 561 4 4 133 6 287 5l281-3zM5135 3965l-25-24v-291c0-277 1-291 20-310s33-20 314-20h295l20 26c20 26 21 39 21 300 0 289-3 313-47 333-16 7-119 11-299 11h-275zm590-315v-285l-274-3c-193-2-278 1-287 9-11 9-14 64-14 274 0 145 3 271 6 279 6 15 38 16 288 14l281-3zM5855 3966l-25-25v-289c0-276 1-289 20-310 20-22 25-22 315-22h294l21 27c20 26 21 34 18 315-3 260-5 289-21 305s-45 18-307 21l-290 3zm590-316v-285l-274-3c-193-2-278 1-287 9-19 16-21 555-1 562 6 3 136 5 287 4l275-2zM6579 3971l-24-19-3-289c-3-282-2-290 18-316l21-27h588l20 26c20 26 21 39 21 311v284l-25 24-24 25h-284c-265 0-286-1-308-19zm589-43c16-16 17-520 2-549-10-18-24-19-285-19-208 0-276 3-282 13-10 15-17 444-8 515l6 52h278c202 0 280-3 289-12zM7320 3983c-8-3-23-15-32-27-16-19-18-51-18-302 0-270 1-282 21-308l20-26h294c290 0 295 0 315 22 19 21 20 34 20 310v289l-25 24-24 25-278-1c-153 0-285-3-293-6zm574-65c10-40 7-518-4-539-10-18-24-19-286-19h-274l-10 26c-6 14-10 133-10 264s4 250 10 264l10 26h558zM8033 3978c-40-20-44-49-41-340 3-255 4-278 22-297 19-20 27-21 313-21 280 0 294 1 313 20s20 33 20 314v295l-26 20c-26 20-38 21-303 20-171 0-284-4-298-11zm585-317c2-193-1-278-9-287-9-11-64-14-274-14-145 0-270 3-279 6-14 5-16 40-16 283 0 153 3 281 7 284 4 4 133 6 287 5l281-3zM8739 3960l-30-29 3-285c3-263 4-285 22-305 19-20 27-21 313-21 280 0 294 1 313 20s20 33 20 314v295l-26 20c-26 20-39 21-306 21h-280zm595-36c3-9 6-134 6-278 0-190-3-265-12-274-17-17-539-17-556 0-9 9-12 86-12 283 0 150 3 275 7 278 3 4 131 7 284 7 243 0 278-2 283-16zM9463 3966l-28-24v-584l24-19c22-18 43-19 312-19 274 0 290 1 309 20 11 11 22 30 25 42 3 13 5 144 3 291l-3 269-28 24-28 24h-558zm595-305c2-193-1-278-9-287-16-19-538-21-557-2-13 13-18 549-5 561 4 4 133 6 287 5l281-3zM10183 3966l-28-24v-291c0-282 1-291 21-312 21-20 29-21 314-20 283 0 294 1 314 21s21 31 21 311v291l-28 24-28 24h-558zm595-305c2-193-1-278-9-287-16-19-538-21-557-2-13 13-18 549-5 561 4 4 133 6 287 5l281-3zM10905 3965l-25-24v-291c0-277 1-291 20-310s33-20 313-20c286 0 294 1 313 21 17 19 19 42 22 288 4 290-1 330-43 349-18 8-113 12-301 12h-275zm593-304c2-193-1-278-9-287-16-19-538-21-557-2-9 9-12 84-12 274 0 144 3 270 6 278 6 15 38 16 288 14l281-3zM13630 3967c-48-24-50-41-48-339 3-274 3-278 26-300 22-23 24-23 312-23s290 0 312 23c23 22 23 24 23 312s0 290-23 312c-22 23-26 23-300 26-210 2-283-1-302-11zm564-43c14-5 16-40 16-284 0-239-2-279-15-284-21-8-542-9-555-1-11 7-14 557-3 568 8 9 536 9 557 1zM15475 3963c-11-3-28-12-37-21-16-14-18-42-18-312 0-289 1-297 21-316 20-18 40-19 310-19 287 0 289 0 311 23 23 22 23 24 23 312s0 290-23 312c-22 23-26 23-295 25-149 0-281-1-292-4zm560-333v-285l-265-3c-146-1-275 0-287 3l-23 5v279c0 214 3 281 13 284 6 3 136 5 287 4l275-2zM16190 3957c-48-24-50-41-48-339 3-274 3-278 26-300 22-23 24-23 312-23s290 0 312 23c23 22 23 24 23 312s0 290-23 312c-22 23-26 23-300 26-210 2-283-1-302-11zm564-43c14-5 16-40 16-284 0-239-2-279-15-284-21-8-542-9-555-1-11 7-14 557-3 568 8 9 536 9 557 1zM16920 3957c-47-23-50-44-50-323 0-160 4-273 11-292 7-20 21-34 41-41 19-7 131-11 290-11 270 0 306 5 322 45 10 28 7 575-4 595-18 34-65 40-329 40-185 0-263-4-281-13zm568-49c19-19 17-541-2-557-9-8-94-11-287-9l-274 3-3 275c-1 151 0 280 3 287 6 18 545 19 563 1zM17651 3959c-50-20-50-25-50-329 0-209 3-289 12-301 28-36 51-39 322-39 298 0 317 4 329 61 8 41 8 517 0 559-12 55-38 60-331 59-142 0-269-5-282-10zm567-323c1-154-2-284-6-288-14-14-541-11-558 3-11 9-14 61-14 271 0 161 4 267 10 279 10 19 22 19 288 17l277-3zM1337 3272c-15-16-17-54-17-324 0-272 2-307 17-319 25-21 1181-14 1203 7 12 12 16 61 18 284 4 297-2 345-44 360-15 6-256 10-593 10-537 0-569-1-584-18zm1181-324 2-288h-574c-514 0-574 2-580 16-3 9-6 134-6 278 0 191 3 265 12 274s146 12 578 10l565-3zM2645 3280c-49-19-50-24-50-330 0-269 1-289 19-309 19-20 27-21 317-21h299l17 27c16 24 18 58 21 280 2 159-1 267-8 293-18 68-30 70-332 69-145 0-272-4-283-9zm563-52c14-14 17-534 4-556-7-9-71-12-288-10l-279 3-3 275c-1 151 0 280 3 287 6 18 545 19 563 1zM3360 3277c-47-24-50-43-50-333 0-259 1-272 21-298l20-26h298c290 0 298 1 317 21 18 20 19 40 19 310 0 287 0 289-23 311-22 23-26 23-300 26-210 2-283-1-302-11zm569-51c8-9 11-94 9-287l-3-274h-570l-3 265c-1 146 0 275 3 288l5 22h274c220 0 276-3 285-14zM4055 3280c-49-19-50-24-50-330 0-269 1-289 19-309 19-20 27-21 317-21h299l17 27c16 24 18 58 21 280 2 159-1 267-8 293-18 68-30 70-332 69-145 0-272-4-283-9zm563-52c14-14 17-534 4-556-7-9-71-12-288-10l-279 3-3 275c-1 151 0 280 3 287 6 18 545 19 563 1zM4770 3277c-47-24-50-43-50-333 0-259 1-272 21-298l20-26h298c290 0 298 1 317 21 18 20 19 40 19 310 0 287 0 289-23 311-22 23-26 23-300 26-210 2-283-1-302-11zm569-51c8-9 11-94 9-287l-3-274h-570l-3 265c-1 146 0 275 3 288l5 22h274c220 0 276-3 285-14zM5493 3280c-12-5-26-18-32-29-7-13-11-123-11-309 0-281 1-289 21-308 20-18 40-19 310-19 287 0 289 0 311 23 23 22 23 24 23 312s0 290-23 312c-22 23-26 23-300 25-152 1-287-2-299-7zm572-330v-285l-279-3c-217-2-281 1-288 10-13 22-10 542 4 556 9 9 82 12 288 10l275-3zM6214 3276c-17-8-34-21-38-31-3-9-6-144-6-300 0-263 1-284 19-306 19-24 19-24 288-27 174-2 281 1 305 8 56 16 60 40 56 352-3 263-3 268-26 290-22 23-26 23-295 25-213 2-279 0-303-11zm571-326v-285l-279-3c-217-2-281 1-288 10-13 22-10 542 4 556 9 9 82 12 288 10l275-3zM6934 3276c-17-8-34-21-38-31-3-9-6-144-6-300 0-263 1-284 19-306l19-24 278-3c297-3 323 0 343 44 7 17 11 117 11 299v274l-24 28-24 28-274 2c-214 2-280 0-304-11zm571-326v-285l-281-3-282-2-6 22c-10 40-7 518 4 539 10 19 22 19 288 17l277-3zM7663 3280c-52-21-54-35-51-344 3-258 5-287 21-303s43-18 312-18 296 2 312 18 18 45 21 306l3 289-25 28-24 29-274 2c-150 1-283-2-295-7zm564-52c10-16 17-467 8-525l-6-43h-279c-266 0-280 1-290 19-15 29-14 533 2 549 18 18 554 17 565 0zM8384 3280c-52-21-54-34-54-327 0-149 4-283 9-296 17-44 47-48 345-45l278 3 19 24c18 22 19 43 19 308 0 166-4 292-10 303-5 10-24 23-41 29-38 13-533 14-565 1zm566-59c6-12 10-119 10-279 0-208-3-262-14-271-9-8-94-11-287-9l-274 3-3 275c-1 151 0 280 3 287 3 10 67 13 279 13 262 0 276-1 286-19zM9100 3277c-47-24-50-43-50-329 0-182 4-275 12-293 19-42 59-47 351-43 269 3 269 3 288 27 18 22 19 43 19 308 0 166-4 292-10 303-18 34-65 40-329 40-185 0-263-4-281-13zm568-49c14-14 17-534 4-556-7-9-71-12-288-10l-279 3-3 275c-1 151 0 280 3 287 6 18 545 19 563 1zM9820 3277c-48-25-50-41-48-339 3-274 3-278 26-300 22-23 24-23 311-23 270 0 290 1 310 19 20 19 21 27 21 311 0 273-1 294-19 316l-19 24-279 3c-211 2-284-1-303-11zm568-49c14-14 17-534 4-556-7-9-71-12-288-10l-279 3-3 275c-1 151 0 280 3 287 6 18 545 19 563 1zM10550 3284c-51-22-50-16-50-334 0-289 1-297 21-316 20-18 53-19 965-22l945-2 24 24 25 25v572l-25 24-24 25h-589c-324 0-744 2-933 5s-351 2-359-1zm1868-56c9-9 12-86 12-285 0-271 0-272-22-284-35-19-1847-6-1859 13-10 15-12 528-3 552 6 14 97 16 933 16 708 0 930-3 939-12zM12925 3243c-11-3-28-12-37-21-16-14-18-42-18-312 0-289 1-297 21-316 20-18 40-19 310-19 287 0 289 0 311 23 23 22 23 24 23 312s0 290-23 312c-22 23-26 23-295 25-149 0-281-1-292-4zm560-333v-285l-265-3c-146-1-275 0-287 3l-23 5v279c0 214 3 281 13 284 6 3 136 5 287 4l275-2zM13640 3237c-48-24-50-41-48-339 3-274 3-278 26-300 22-23 24-23 312-23s290 0 312 23c23 22 23 24 23 312s0 290-23 312c-22 23-26 23-300 26-210 2-283-1-302-11zm564-43c14-5 16-40 16-284 0-239-2-279-15-284-21-8-542-9-555-1-11 7-14 557-3 568 8 9 536 9 557 1zM14370 3237c-47-23-50-44-50-323 0-160 4-273 11-292 7-20 21-34 41-41 19-7 131-11 290-11 270 0 306 5 322 45 10 28 7 575-4 595-18 34-65 40-329 40-185 0-263-4-281-13zm568-49c19-19 17-541-2-557-9-8-94-11-287-9l-274 3-3 275c-1 151 0 280 3 287 6 18 545 19 563 1zM15485 3233c-11-3-28-12-37-21-16-14-18-42-18-312 0-289 1-297 21-316 20-18 40-19 310-19 287 0 289 0 311 23 23 22 23 24 23 312s0 290-23 312c-22 23-26 23-295 25-149 0-281-1-292-4zm560-333v-285l-265-3c-146-1-275 0-287 3l-23 5v279c0 214 3 281 13 284 6 3 136 5 287 4l275-2zM16200 3227c-48-24-50-41-48-339 3-274 3-278 26-300 22-23 24-23 312-23s290 0 312 23c23 22 23 24 23 312s0 290-23 312c-22 23-26 23-300 26-210 2-283-1-302-11zm564-43c14-5 16-40 16-284 0-239-2-279-15-284-21-8-542-9-555-1-11 7-14 557-3 568 8 9 536 9 557 1zM16930 3227c-47-23-50-44-50-323 0-160 4-273 11-292 7-20 21-34 41-41 19-7 131-11 290-11 270 0 306 5 322 45 10 28 7 575-4 595-18 34-65 40-329 40-185 0-263-4-281-13zm568-49c19-19 17-541-2-557-9-8-94-11-287-9l-274 3-3 275c-1 151 0 280 3 287 6 18 545 19 563 1zM17600 3224c-11-12-13-148-11-671 1-360 5-661 8-669 11-29 76-35 346-32l269 3 24 28 24 28v628c0 539-2 634-15 665l-15 36h-309c-267 0-310-2-321-16zm608-673c1-464-1-637-9-648-10-11-63-13-288-11l-276 3-3 635c-1 349 0 641 3 648 3 10 66 12 287 10l283-3zM10216 2534c-23-23-24-625-1-644 11-9 116-12 422-11 406 0 408 0 426 22 15 19 17 50 17 311v289l-25 24-24 25h-400c-350 0-402-2-415-16zm819-324v-285l-389-3c-305-2-391 1-398 10-13 22-10 542 4 556 9 9 106 12 398 10l385-3zM11116 2535c-14-14-16-54-16-324 0-258 2-311 15-321 10-9 116-12 414-12 358 1 402 2 425 17l26 17v297c0 241-3 301-14 317-14 18-32 19-424 22-366 3-411 1-426-13zm809-325v-285l-384-3c-301-2-386 1-393 10-13 22-10 542 4 556 9 9 105 12 393 10l380-3zM1906 2514c-23-23-24-625-1-644 11-9 114-12 422-11 354 0 409 3 422 16 14 13 17 56 19 273 4 284 0 334-29 363-18 18-37 19-418 19-350 0-402-2-415-16zm819-324v-285l-389-3c-305-2-391 1-398 10-13 22-10 542 4 556 9 9 106 12 398 10l385-3zM2806 2515c-14-14-16-55-16-324 0-260 2-310 15-321 11-9 113-12 417-11 402 0 403 0 421 22 16 20 18 46 15 320-2 228-6 301-16 311s-102 14-416 16c-360 2-406 1-420-13zm809-325v-285l-384-3c-301-2-386 1-393 10-13 22-10 542 4 556 9 9 105 12 393 10l380-3z" transform="matrix(.0229 0 0 -.02216 14.144 254.384)"/>
        <path style="fill:#fff" d="m2981 2305-92-105h37c29 0 35 3 30 16-9 24 12 44 45 44s37-15 12-42c-15-17-14-18 35-18 29 0 52 5 52 10 0 6-5 10-11 10-7 0-8 30-3 95 4 62 3 95-3 95s-52-47-102-105zm49 0c0-8-7-15-16-15-14 0-14 3-4 15 7 8 14 15 16 15s4-7 4-15zM3714 2509c-18-20-19-40-19-316v-295l24-19c23-19 87-19 3196-19h3174l20 26c20 26 21 38 21 313s-1 288-20 309l-21 22H3733Zm6357-29c18-10 19-24 19-285s-1-275-19-285c-24-12-6315-9-6328 3-4 5-8 132-8 283 0 233 2 276 15 284 22 14 6295 13 6321 0zM16930 2507c-47-23-50-44-50-323 0-160 4-273 11-292 7-20 21-34 41-41 19-7 131-11 290-11 270 0 306 5 322 45 10 28 7 575-4 595-18 34-65 40-329 40-185 0-263-4-281-13zm568-49c19-19 17-541-2-557-9-8-94-11-287-9l-274 3-3 275c-1 151 0 280 3 287 6 18 545 19 563 1zM15433 2486l-28-24-3-269c-3-277 2-334 36-348 19-8 1307-6 1328 2 29 11 35 76 32 346l-3 269-28 24-28 24h-1278zm1316-40c8-9 11-94 9-287l-3-274h-1300l-3 279c-2 217 1 281 10 288 7 4 297 8 644 8 523 0 634-2 643-14z" transform="matrix(.0229 0 0 -.02216 14.144 254.384)"/>
    </g>
</svg>
