<svg height="351.538" viewBox="0 0 505.063 878.846" width="202.025" xmlns="http://www.w3.org/2000/svg">
    <g fill="#f4f4f4" fill-opacity=".5" stroke-width="2.5">
        <path d="M280.92 476.387q0 .8-.193 1.347-.287.813-.92.813-.42 0-.88-.193-.553-.233-.607-.573.187 0 .44.066.587.154.734.154.566 0 .853-.567.227-.453.227-1.087 0-.446-.294-1.273-.286-.833-.286-1.16 0-.1.053-.16.06-.067.16-.067.26 0 .507 1.2.206 1.014.206 1.5zM283.487 477.067q0 .68-.393 1.067-.394.387-1.087.387-.38 0-.587-.18-.206-.18-.206-.554 0-.526.686-1.06.654-.506 1.207-.506.253 0 .333.313.047.18.047.533zm-.407.187q0-.08-.02-.153-.013-.08-.053-.18-.107.073-.353.36-.127.146-.22.213 0-.127.026-.207.054-.113.087-.193-.293 0-.613.247-.314.246-.314.533 0 .193.214.193.406 0 .786-.2.46-.24.46-.613zM286.234 477.34q0 .327-.247.734-.28.46-.58.46-.087 0-.147-.093-.053-.1-.053-.194 0-.12.253-.373.26-.26.26-.353 0-.06-.02-.12l-.026-.08q-.5.113-1.02.573-.514.46-.78.52-.054-.147-.054-.3 0-.187.087-.393.06-.147.2-.354.233-.353.493-.8l.46-.806q.334-.574.487-.814.08-.12.14-.18.087-.08.207-.106.08.026.113.1.04.073.04.173 0 .227-.293.613-.534.694-.547.72-.3.454-.3.82l.013.067q.367-.18.434-.207.273-.113.466-.113.214 0 .314.147.1.14.1.36zM289.327 476.947q0 .454-.22.967-.24.567-.593.78-.074-.087-.127-.193-.047-.107-.047-.214 0-.113.334-.673.146-.247.133-.433l-.007-.087q-.247.073-.853.447-.6.366-1.214.746-.093 0-.173-.066-.073-.074-.073-.16 0-.14.446-.94.134-.24.48-.834.107.14.14.314.034.166.034.4v.153q.613-.367.96-.553.38-.207.52-.207.093 0 .173.213.087.214.087.34zM295.12 478.24q0 .12-.106.187-.1.06-.227.06-.113 0-.287-.026-.393-.06-.506-.06-.2 0-.787.046-.333.027-.48.027-.407 0-.407-.407 0-.386.254-1.106.14-.407.526-1.334.347-.833.44-1.173.034-.107.054-.14.053-.08.133-.08.127 0 .213.187.087.18.087.326 0 .234-.273.787-.274.547-.534 1.073-.286.627-.286.954 0 .166.14.233.1.047.293.047.147 0 .507-.033.36-.04.48-.04.3 0 .493.086.273.12.273.387zM297.6 477.067q0 .68-.393 1.067-.393.387-1.087.387-.38 0-.586-.18-.207-.18-.207-.554 0-.526.687-1.06.653-.506 1.206-.506.254 0 .334.313.046.18.046.533zm-.406.187q0-.08-.02-.153-.014-.08-.054-.18-.106.073-.353.36-.127.146-.22.213 0-.127.027-.207.053-.113.086-.193-.293 0-.613.247-.313.246-.313.533 0 .193.213.193.407 0 .787-.2.46-.24.46-.613zM300.407 476.927q0 .214-.113.454-.107.24-.274.4l-.007-.094q0-.08.02-.246.02-.167.02-.247 0-.113-.033-.167-.033-.06-.14-.06-.313 0-.78.487l-1.007 1.06q-.04 0-.08-.007-.1-.027-.133-.033.02-.24.167-.533.393-.794.406-.847l.08-.313q.027-.1.074-.207.053-.113.12-.2.073-.093.186-.14l.067.8q.287-.233.44-.36.293-.233.507-.233.213 0 .346.14.134.14.134.346zM303.68 476.154q0 .28-.746.74-.72.44-1.047.44-.153 0-.207-.107-.046-.106-.046-.3v-.18q.446 0 .813-.133.367-.133.64-.44-.2-.073-.407-.073-.486 0-1.033.373-.6.407-.6.867 0 .44.6.613.093.027 1.127.187.606.093.606.326 0 .1-.22.16-.22.067-.56.067-.853 0-1.346-.26-.654-.346-.654-1.113 0-.8.8-1.273.68-.4 1.547-.4.26 0 .473.12.26.146.26.386zM306.334 474.96q0 .147-.354.614-.353.467-.353.713 0 .127.147.254.333.293.333.36 0 .086-.06.166-.053.08-.14.08-.073 0-.207-.08-.093-.053-.36-.26l-.153.294q-.187.353-.253.513l-.2.613q-.174.414-.434.414l-.007-.154q0-.473.307-1.12.06-.12.333-.62-.526-.286-1.16-.286 0-.247.1-.36.107-.12.354-.12.226 0 .566.08l.334.08q.126-.04.346-.434.54-.946.734-1.086.053.086.086.173.04.087.04.167zM308.794 477.34q0 .327-.247.734-.28.46-.58.46-.087 0-.147-.093-.053-.1-.053-.194 0-.12.253-.373.26-.26.26-.353 0-.06-.02-.12l-.026-.08q-.5.113-1.02.573-.514.46-.78.52-.054-.147-.054-.3 0-.187.087-.393.06-.147.2-.354.233-.353.493-.8l.46-.806q.334-.574.487-.814.08-.12.14-.18.087-.08.207-.106.08.026.113.1.04.073.04.173 0 .227-.293.613-.534.694-.547.72-.3.454-.3.82l.013.067q.367-.18.434-.207.273-.113.466-.113.214 0 .314.147.1.14.1.36zM314.267 475.167q0 .314-.333.84-.214.334-.7.96-.487.62-.607.814l.5.16q.487.146.487.533-.2.033-.394.06l-.073-.007v-.053q-.107-.027-.173-.027-.127 0-.4.04-.274.04-.414.04-.18 0-.293-.067-.113-.066-.113-.24 0-.14.513-.793.96-1.22.967-1.233.52-.707.52-.947 0-.093-.067-.14-.06-.047-.247-.047-.126 0-.526.247-.194.12-.314.12l-.113-.02q-.04-.027-.087-.1-.046-.08-.046-.127 0-.28.54-.513.46-.2.8-.2.286 0 .44.213.133.187.133.487zM318.274 476.367q0 .807-.874 1.427-.8.567-1.646.567-.42 0-.667-.214-.247-.213-.247-.62 0-.906.794-1.573.753-.633 1.686-.633.474 0 .714.28t.24.766zm-.407.154q0-.307-.347-.46-.26-.114-.62-.114-.526 0-1.1.514-.573.513-.573 1.033 0 .213.107.307.113.086.34.086.653 0 1.36-.36.833-.426.833-1.006zM321.327 475.167q0 .314-.333.84-.214.334-.7.96-.487.62-.607.814l.5.16q.487.146.487.533-.2.033-.394.06l-.073-.007v-.053q-.107-.027-.173-.027-.127 0-.4.04-.274.04-.414.04-.18 0-.293-.067-.113-.066-.113-.24 0-.14.513-.793.96-1.22.967-1.233.52-.707.52-.947 0-.093-.067-.14-.06-.047-.247-.047-.126 0-.526.247-.194.12-.314.12l-.113-.02q-.04-.027-.087-.1-.046-.08-.046-.127 0-.28.54-.513.46-.2.8-.2.286 0 .44.213.133.187.133.487zM324.394 475.167q0 .314-.334.84-.213.334-.7.96-.486.62-.606.814l.5.16q.486.146.486.533-.2.033-.393.06l-.073-.007v-.053q-.107-.027-.174-.027-.126 0-.4.04-.273.04-.413.04-.18 0-.293-.067-.114-.066-.114-.24 0-.14.514-.793.96-1.22.966-1.233.52-.707.52-.947 0-.093-.066-.14-.06-.047-.247-.047-.127 0-.527.247-.193.12-.313.12l-.113-.02q-.04-.027-.087-.1-.047-.08-.047-.127 0-.28.54-.513.46-.2.8-.2.287 0 .44.213.134.187.134.487z"/>
    </g>
    <g fill="none" stroke="#f4f4f4">
        <g stroke-width="5">
            <path d="M272.757 482.349h55.767a4.506 4.506 0 0 1 4.516 4.516v55.767a4.506 4.506 0 0 1-4.516 4.516h-55.767a4.506 4.506 0 0 1-4.517-4.516v-55.767a4.506 4.506 0 0 1 4.517-4.516zM368.757 482.349h55.767a4.506 4.506 0 0 1 4.516 4.516v55.767a4.506 4.506 0 0 1-4.516 4.516h-55.767a4.506 4.506 0 0 1-4.517-4.516v-55.767a4.506 4.506 0 0 1 4.517-4.516zM176.757 482.349h55.767a4.506 4.506 0 0 1 4.516 4.516v55.767a4.506 4.506 0 0 1-4.516 4.516h-55.767a4.506 4.506 0 0 1-4.517-4.516v-55.767a4.506 4.506 0 0 1 4.517-4.516zM84.757 482.349h55.767a4.506 4.506 0 0 1 4.516 4.516v55.767a4.506 4.506 0 0 1-4.516 4.516H84.757a4.506 4.506 0 0 1-4.517-4.516v-55.767a4.506 4.506 0 0 1 4.517-4.516zM272.757 598.349h55.767a4.506 4.506 0 0 1 4.516 4.516v55.767a4.506 4.506 0 0 1-4.516 4.516h-55.767a4.506 4.506 0 0 1-4.517-4.516v-55.767a4.506 4.506 0 0 1 4.517-4.516zM368.757 598.349h55.767a4.506 4.506 0 0 1 4.516 4.516v55.767a4.506 4.506 0 0 1-4.516 4.516h-55.767a4.506 4.506 0 0 1-4.517-4.516v-55.767a4.506 4.506 0 0 1 4.517-4.516zM176.757 598.349h55.767a4.506 4.506 0 0 1 4.516 4.516v55.767a4.506 4.506 0 0 1-4.516 4.516h-55.767a4.506 4.506 0 0 1-4.517-4.516v-55.767a4.506 4.506 0 0 1 4.517-4.516zM84.757 598.349h55.767a4.506 4.506 0 0 1 4.516 4.516v55.767a4.506 4.506 0 0 1-4.516 4.516H84.757a4.506 4.506 0 0 1-4.517-4.516v-55.767a4.506 4.506 0 0 1 4.517-4.516zM272.757 718.349h55.767a4.506 4.506 0 0 1 4.516 4.516v55.767a4.506 4.506 0 0 1-4.516 4.516h-55.767a4.506 4.506 0 0 1-4.517-4.516v-55.767a4.506 4.506 0 0 1 4.517-4.516zM368.757 718.349h55.767a4.506 4.506 0 0 1 4.516 4.516v55.767a4.506 4.506 0 0 1-4.516 4.516h-55.767a4.506 4.506 0 0 1-4.517-4.516v-55.767a4.506 4.506 0 0 1 4.517-4.516zM176.757 718.349h55.767a4.506 4.506 0 0 1 4.516 4.516v55.767a4.506 4.506 0 0 1-4.516 4.516h-55.767a4.506 4.506 0 0 1-4.517-4.516v-55.767a4.506 4.506 0 0 1 4.517-4.516zM84.757 718.349h55.767a4.506 4.506 0 0 1 4.516 4.516v55.767a4.506 4.506 0 0 1-4.516 4.516H84.757a4.506 4.506 0 0 1-4.517-4.516v-55.767a4.506 4.506 0 0 1 4.517-4.516z"/>
        </g>
        <path d="M394.656 202.661a143.53 143.53 0 0 1-143.53 143.53 143.53 143.53 0 0 1-143.53-143.53 143.53 143.53 0 0 1 143.53-143.529 143.53 143.53 0 0 1 143.53 143.53z" stroke-width="5"/>
        <path d="M373.127 202.661a122 122 0 0 1-122 122 122 122 0 0 1-122-122 122 122 0 0 1 122-122 122 122 0 0 1 122 122z" stroke-width="5"/>
        <g stroke-width="2.5">
            <path d="m252.653 96.192-16.293 16.05-.049 15.512 16.272-16.013 16.394 16.013-.093-15.466zm-6.64 30.22v20.239h4.478v-20.238zm8.958 0v20.239h4.48v-20.238zM252.637 308.55l16.293-16.051.05-15.512L252.707 293l-16.395-16.014.094 15.467zm6.64-30.221V258.09H254.8v20.239zm-8.958 0V258.09h-4.48v20.239zM357.875 202.743l-16.05-16.293-15.513-.05 16.014 16.273-16.014 16.394 15.467-.093zm-30.22-6.64h-20.24v4.478h20.24zm0 8.958h-20.24v4.48h20.24zM145.517 202.727l16.051 16.293 15.512.049-16.014-16.272 16.014-16.394-15.467.093zm30.221 6.64h20.239v-4.478h-20.239zm0-8.958h20.239v-4.48h-20.239z"/>
        </g>
        <g stroke-width="5">
            <path d="M7.736 1h489.591a6.721 6.721 0 0 1 6.736 6.736V871.11a6.721 6.721 0 0 1-6.736 6.736H7.736A6.721 6.721 0 0 1 1 871.11V7.736A6.721 6.721 0 0 1 7.736 1z"/>
            <path d="M19.976 22.921h465.111c3.545 0 6.4 2.854 6.4 6.4v820.205c0 3.545-2.855 6.399-6.4 6.399H19.976a6.385 6.385 0 0 1-6.4-6.4V29.32c0-3.545 2.855-6.399 6.4-6.399z"/>
            <path d="M55.293 444.563h392.868a10.349 10.349 0 0 1 10.372 10.371v350.17a10.349 10.349 0 0 1-10.372 10.372H55.293a10.349 10.349 0 0 1-10.372-10.372v-350.17a10.349 10.349 0 0 1 10.372-10.371zM45.249 45.203h414.42a10.32 10.32 0 0 1 10.342 10.342v293.951a10.32 10.32 0 0 1-10.342 10.342H45.25a10.32 10.32 0 0 1-10.342-10.342V55.546a10.32 10.32 0 0 1 10.342-10.343z"/>
        </g>
    </g>
</svg>
