<svg height="368.221" viewBox="0 0 645.602 184.11" width="1291.204" xmlns="http://www.w3.org/2000/svg">
    <g fill="#f4f4f4" fill-opacity=".5" stroke-width=".5">
        <path d="M484.651 181.416q0 .16-.038.27-.058.162-.184.162-.084 0-.176-.039-.111-.047-.122-.114.038 0 .088.013.118.03.147.03.113 0 .17-.113.046-.09.046-.217 0-.09-.059-.255-.057-.166-.057-.232 0-.02.01-.032.013-.013.033-.013.052 0 .101.24.041.203.041.3zM485.165 181.552q0 .136-.079.213-.079.078-.217.078-.076 0-.118-.036-.041-.036-.041-.111 0-.105.137-.212.131-.101.242-.101.05 0 .066.062.01.036.01.107zm-.082.037q0-.016-.004-.03-.003-.017-.01-.037-.022.015-.071.072-.025.03-.044.043 0-.025.005-.041l.017-.039q-.058 0-.122.05-.063.049-.063.106 0 .039.043.039.081 0 .157-.04.092-.048.092-.123zM485.714 181.607q0 .065-.05.146-.055.092-.115.092-.018 0-.03-.018-.01-.02-.01-.04 0-.023.05-.074.052-.052.052-.07 0-.013-.004-.025l-.005-.016q-.1.023-.204.115-.102.092-.156.104-.01-.03-.01-.06 0-.037.017-.079.012-.029.04-.07.047-.071.099-.16l.092-.162q.066-.114.097-.162.016-.024.028-.036.017-.016.041-.022.016.005.023.02.008.015.008.035 0 .045-.059.123-.106.138-.109.144-.06.09-.06.164l.003.013q.073-.036.087-.041.054-.023.093-.023.043 0 .063.03.02.027.02.071zM486.333 181.528q0 .09-.044.193-.048.114-.119.156-.015-.017-.025-.038-.01-.022-.01-.043 0-.023.067-.135.03-.05.027-.087v-.017q-.05.015-.172.09l-.242.149q-.019 0-.035-.014-.015-.014-.015-.032 0-.028.09-.188.026-.048.096-.166.021.028.028.063.007.033.007.08v.03q.122-.073.192-.11.076-.042.104-.042.018 0 .034.043.018.043.018.068zM487.491 181.787q0 .024-.02.037-.02.012-.046.012-.023 0-.058-.005-.078-.012-.1-.012-.04 0-.158.009-.067.005-.096.005-.081 0-.081-.081 0-.078.05-.222.028-.081.106-.266.069-.167.088-.235l.01-.028q.011-.016.027-.016.025 0 .043.037.017.036.017.065 0 .047-.055.158l-.106.214q-.058.126-.058.191 0 .033.028.047.02.009.059.009.03 0 .101-.007.072-.008.096-.008.06 0 .099.017.055.024.055.077zM487.987 181.552q0 .136-.078.213-.079.078-.218.078-.076 0-.117-.036-.041-.036-.041-.111 0-.105.137-.212.13-.101.241-.101.051 0 .067.062.01.036.01.107zm-.08.037q0-.016-.005-.03-.003-.017-.01-.037-.022.015-.071.072-.026.03-.044.043 0-.025.005-.041l.017-.039q-.059 0-.123.05-.062.049-.062.106 0 .039.042.039.082 0 .158-.04.092-.048.092-.123zM488.549 181.524q0 .043-.023.09-.021.049-.055.08v-.018l.003-.05q.004-.033.004-.049 0-.022-.007-.033-.007-.012-.028-.012-.062 0-.156.097l-.201.212h-.016l-.027-.008q.004-.048.034-.106.078-.159.08-.17l.017-.062q.005-.02.015-.042.01-.022.024-.04.014-.018.037-.028l.013.16.088-.072q.059-.046.102-.046.042 0 .069.028.027.028.027.069zM489.203 181.37q0 .055-.149.147-.144.088-.21.088-.03 0-.04-.021-.01-.021-.01-.06v-.036q.09 0 .163-.027.073-.026.128-.088-.04-.014-.081-.014-.098 0-.207.074-.12.082-.12.174 0 .088.12.122.019.005.225.038.122.018.122.065 0 .02-.044.032-.044.013-.112.013-.17 0-.27-.052-.13-.07-.13-.223 0-.16.16-.254.136-.08.31-.08.051 0 .094.024.052.03.052.077zM489.734 181.13q0 .03-.07.123-.071.094-.071.143 0 .025.029.05.067.06.067.073 0 .017-.012.033-.011.016-.028.016-.015 0-.042-.016-.018-.01-.072-.052l-.03.059q-.038.07-.051.102l-.04.123q-.035.083-.087.083v-.031q0-.095.06-.224l.067-.124q-.105-.057-.232-.057 0-.05.02-.072.022-.024.071-.024.045 0 .113.016l.067.016q.025-.008.07-.087.107-.19.146-.217.01.017.017.034.008.018.008.034zM490.226 181.607q0 .065-.05.146-.055.092-.115.092-.018 0-.03-.018-.01-.02-.01-.04 0-.023.05-.074.052-.052.052-.07 0-.013-.004-.025l-.005-.016q-.1.023-.204.115-.102.092-.156.104-.01-.03-.01-.06 0-.037.017-.079.012-.029.04-.07.047-.071.099-.16l.092-.162q.066-.114.097-.162.016-.024.028-.036.017-.016.041-.022.016.005.023.02.008.015.008.035 0 .045-.059.123-.106.138-.109.144-.06.09-.06.164l.003.013q.073-.036.087-.041.054-.023.093-.023.043 0 .063.03.02.027.02.071zM491.32 181.172q0 .063-.066.168-.043.067-.14.192-.097.124-.121.163.004 0 .1.032.097.029.097.106l-.079.012h-.014v-.011q-.022-.005-.035-.005-.025 0-.08.008t-.083.008q-.036 0-.058-.014-.023-.013-.023-.048 0-.028.102-.158l.194-.247q.104-.141.104-.19 0-.018-.013-.027-.012-.01-.05-.01-.025 0-.105.05-.039.024-.063.024l-.023-.004q-.008-.005-.017-.02-.009-.016-.009-.025 0-.056.108-.103.092-.04.16-.04.057 0 .088.043.027.037.027.097zM492.122 181.412q0 .161-.175.285-.16.114-.329.114-.084 0-.133-.043-.05-.043-.05-.124 0-.181.16-.315.15-.126.336-.126.095 0 .143.056.048.056.048.153zm-.081.03q0-.06-.07-.091-.052-.023-.124-.023-.105 0-.22.103-.114.102-.114.206 0 .043.021.062.023.017.068.017.13 0 .272-.072.167-.085.167-.202zM492.733 181.172q0 .063-.067.168-.043.067-.14.192-.097.124-.121.163.004 0 .1.032.097.029.097.106l-.079.012h-.014v-.011q-.022-.005-.035-.005-.025 0-.08.008t-.083.008q-.036 0-.058-.014-.023-.013-.023-.048 0-.028.103-.158.192-.244.193-.247.104-.141.104-.19 0-.018-.013-.027-.012-.01-.05-.01-.025 0-.105.05-.039.024-.063.024l-.022-.004q-.008-.005-.018-.02-.009-.016-.009-.025 0-.056.108-.103.092-.04.16-.04.058 0 .088.043.027.037.027.097zM493.346 181.172q0 .063-.067.168-.042.067-.14.192-.097.124-.121.163.004 0 .1.032.097.029.097.106l-.078.012h-.015v-.011q-.021-.005-.035-.005-.025 0-.08.008-.054.008-.082.008-.036 0-.06-.014-.022-.013-.022-.048 0-.028.103-.158.192-.244.193-.247.104-.141.104-.19 0-.018-.013-.027-.012-.01-.05-.01-.025 0-.105.05-.038.024-.062.024l-.023-.004q-.008-.005-.017-.02-.01-.016-.01-.025 0-.056.109-.103.092-.04.16-.04.057 0 .088.043.026.037.026.097z"/>
    </g>
    <g fill="none" stroke="#f4f4f4">
        <g stroke-width=".5">
            <path d="M419.63 179.145h21.867M419.63 38.807h21.867M441.497 67.12h-21.866M441.497 94.61h-21.866M441.497 122.697h-21.866M419.63 150.413h21.867z"/>
        </g>
        <g stroke-linecap="round" transform="translate(-107.136 -211.23)">
            <path d="M608.876 245.183h54.603a6.21 6.21 0 0 1 6.223 6.222v136.713a6.21 6.21 0 0 1-6.223 6.223h-549.12a6.21 6.21 0 0 1-6.223-6.223V251.405a6.21 6.21 0 0 1 6.223-6.222h51.109l6.974.068a6.21 6.21 0 0 0 6.223-6.223V218.453a6.21 6.21 0 0 1 6.222-6.223H591.75a6.21 6.21 0 0 1 6.223 6.223v20.507a6.21 6.21 0 0 0 6.222 6.223z" stroke-width="2"/>
            <rect height="24.747" rx="4.1" width="57.27" x="253.654" y="220.432"/>
        </g>
    </g>
    <path d="M153.776 21.768 156.84 20l3.062-1.768v7.072l-3.062-1.768z" fill="#f4f4f4"/>
    <path d="M111.066 17.36c.422 0 .93.094 1.526.284.602.19 1.001.284 1.198.284.253 0 .666-.107 1.24-.321.573-.214 1.07-.321 1.492-.321a3 3 0 0 1 1.846.606c.304.232.604.547.902.945-.45.416-.778.787-.986 1.111a3.533 3.533 0 0 0-.565 1.946c0 .778.2 1.479.598 2.103.4.624.855 1.019 1.366 1.184-.213.753-.567 1.54-1.062 2.36-.748 1.23-1.49 1.845-2.226 1.845-.292 0-.697-.101-1.214-.303-.512-.202-.944-.303-1.299-.303-.354 0-.767.104-1.239.312-.467.214-.846.322-1.138.322-.883 0-1.748-.814-2.597-2.443-.849-1.61-1.273-3.188-1.273-4.737 0-1.438.323-2.61.97-3.516.651-.906 1.472-1.359 2.461-1.359m5.312-3.617c.023.08.037.15.042.211.005.061.008.122.008.184 0 .391-.084.82-.253 1.285a3.846 3.846 0 0 1-.8 1.294c-.315.337-.627.564-.937.68-.196.067-.494.12-.893.156.01-.93.233-1.735.666-2.415.438-.679 1.16-1.144 2.167-1.395" fill="none" stroke="#f4f4f4" stroke-width=".75"/>
    <g fill="none" stroke="#f4f4f4">
        <g stroke-linecap="round" stroke-width="1.134">
            <rect height="23.866" rx="6.672" width="23.866" x="529.631" y="97.007"/>
            <rect height="23.866" rx="6.672" width="23.866" x="501.631" y="97.007"/>
            <rect height="23.866" rx="6.672" width="23.866" x="473.631" y="97.007"/>
            <rect height="23.866" rx="6.672" width="23.866" x="445.631" y="97.007"/>
            <rect height="51.866" rx="6.672" width="23.866" x="529.631" y="125.007"/>
            <rect height="23.866" rx="6.672" width="23.866" x="501.631" y="125.007"/>
            <rect height="23.866" rx="6.672" width="23.866" x="473.631" y="125.007"/>
            <rect height="23.866" rx="6.672" width="23.866" x="445.631" y="125.007"/>
            <rect height="23.866" rx="6.672" width="23.866" x="501.631" y="153.007"/>
            <rect height="23.866" rx="6.672" width="51.866" x="445.631" y="153.007"/>
            <rect height="23.866" rx="6.672" width="23.866" x="529.631" y="69.007"/>
            <rect height="23.866" rx="6.672" width="23.866" x="501.631" y="69.007"/>
            <rect height="23.866" rx="6.672" width="23.866" x="473.631" y="69.007"/>
            <rect height="23.866" rx="6.672" width="23.866" x="445.631" y="69.007"/>
            <rect height="23.866" rx="6.672" width="23.866" x="529.631" y="41.007"/>
            <rect height="23.866" rx="6.672" width="23.866" x="501.631" y="41.007"/>
            <rect height="23.866" rx="6.672" width="23.866" x="473.631" y="41.007"/>
            <rect height="23.866" rx="6.672" width="23.866" x="445.631" y="41.007"/>
            <rect height="23.866" rx="6.672" width="129.155" x="145.843" y="153.007"/>
            <rect height="23.866" rx="6.672" width="23.866" x="117.843" y="153.007"/>
            <rect height="23.866" rx="6.672" width="48.866" x="64.491" y="153.007"/>
            <rect height="23.866" rx="6.672" width="23.866" x="36.991" y="153.007"/>
            <rect height="23.866" rx="6.672" width="23.866" x="335.843" y="153.007"/>
            <rect height="23.866" rx="6.672" width="23.866" x="307.843" y="153.007"/>
            <rect height="23.866" rx="6.672" width="23.866" x="279.843" y="153.007"/>
            <rect height="23.866" rx="6.672" width="23.866" x="391.843" y="153.007"/>
            <rect height="23.866" rx="6.672" width="23.866" x="363.843" y="153.007"/>
            <rect height="23.866" rx="6.672" width="23.866" x="8.991" y="153.007"/>
            <rect height="23.866" rx="6.672" width="23.866" x="239.843" y="125.007"/>
            <rect height="23.866" rx="6.672" width="23.866" x="211.843" y="125.007"/>
            <rect height="23.866" rx="6.672" width="23.866" x="183.843" y="125.007"/>
            <rect height="23.866" rx="6.672" width="23.866" x="155.843" y="125.007"/>
            <rect height="23.866" rx="6.672" width="23.866" x="127.843" y="125.007"/>
            <rect height="23.866" rx="6.672" width="23.866" x="99.843" y="125.007"/>
            <rect height="23.866" rx="6.672" width="23.866" x="71.843" y="125.007"/>
            <rect height="23.866" rx="6.672" width="58.718" x="8.991" y="125.007"/>
            <rect height="23.866" rx="6.672" width="63.866" x="351.843" y="125.007"/>
            <rect height="23.866" rx="6.672" width="23.866" x="323.843" y="125.007"/>
            <rect height="23.866" rx="6.672" width="23.866" x="295.843" y="125.007"/>
            <rect height="23.866" rx="6.672" width="23.866" x="267.843" y="125.007"/>
            <g transform="translate(-108.473 -212.016)">
                <rect height="23.866" rx="6.672" width="23.866" x="362.861" y="309.023"/>
                <rect height="23.866" rx="6.672" width="23.866" x="334.861" y="309.023"/>
                <rect height="23.866" rx="6.672" width="23.866" x="306.861" y="309.023"/>
                <rect height="23.866" rx="6.672" width="23.866" x="278.861" y="309.023"/>
                <rect height="23.866" rx="6.672" width="23.866" x="250.861" y="309.023"/>
                <rect height="23.866" rx="6.672" width="23.866" x="222.861" y="309.023"/>
                <rect height="23.866" rx="6.672" width="23.866" x="194.861" y="309.023"/>
                <rect height="23.866" rx="6.672" width="23.866" x="166.861" y="309.023"/>
                <rect height="23.866" rx="6.672" width="45.263" x="117.464" y="309.023"/>
                <rect height="23.866" rx="6.672" width="23.866" x="446.861" y="309.023"/>
                <rect height="23.866" rx="6.672" width="23.866" x="418.861" y="309.023"/>
                <rect height="23.866" rx="6.672" width="23.866" x="390.861" y="309.023"/>
                <path d="M495.323 287.695a6.658 6.658 0 0 1 6.672-6.672h15.515a6.658 6.658 0 0 1 6.672 6.672v38.522a6.658 6.658 0 0 1-6.672 6.672h-35.977a6.658 6.658 0 0 1-6.672-6.672v-10.522a6.658 6.658 0 0 1 6.672-6.672h13.79z"/>
            </g>
            <rect height="23.866" rx="6.672" width="23.866" x="246.849" y="69.007"/>
            <rect height="23.866" rx="6.672" width="23.866" x="218.849" y="69.007"/>
            <rect height="23.866" rx="6.672" width="23.866" x="190.849" y="69.007"/>
            <rect height="23.866" rx="6.672" width="23.866" x="162.849" y="69.007"/>
            <rect height="23.866" rx="6.672" width="23.866" x="134.849" y="69.007"/>
            <rect height="23.866" rx="6.672" width="23.866" x="106.849" y="69.007"/>
            <rect height="23.866" rx="6.672" width="23.866" x="78.849" y="69.007"/>
            <rect height="23.866" rx="6.672" width="23.866" x="50.849" y="69.007"/>
            <rect height="23.866" rx="6.672" width="37.725" x="8.991" y="69.007"/>
            <rect height="23.866" rx="6.672" width="23.866" x="330.849" y="69.007"/>
            <rect height="23.866" rx="6.672" width="23.866" x="302.849" y="69.007"/>
            <rect height="23.866" rx="6.672" width="23.866" x="274.849" y="69.007"/>
            <rect height="23.866" rx="6.672" width="23.866" x="358.849" y="69.007"/>
            <rect height="23.866" rx="6.672" width="23.866" x="260.991" y="41.007"/>
            <rect height="23.866" rx="6.672" width="23.866" x="232.991" y="41.007"/>
            <rect height="23.866" rx="6.672" width="23.866" x="204.991" y="41.007"/>
            <rect height="23.866" rx="6.672" width="23.866" x="176.991" y="41.007"/>
            <rect height="23.866" rx="6.672" width="23.866" x="148.991" y="41.007"/>
            <rect height="23.866" rx="6.672" width="23.866" x="120.991" y="41.007"/>
            <rect height="23.866" rx="6.672" width="23.866" x="92.991" y="41.007"/>
            <rect height="23.866" rx="6.672" width="23.866" x="64.991" y="41.007"/>
            <rect height="23.866" rx="6.672" width="23.866" x="36.991" y="41.007"/>
            <rect height="23.866" rx="6.672" width="42.718" x="372.991" y="41.007"/>
            <rect height="23.866" rx="6.672" width="23.866" x="344.991" y="41.007"/>
            <rect height="23.866" rx="6.672" width="23.866" x="316.991" y="41.007"/>
            <rect height="23.866" rx="6.672" width="23.866" x="288.991" y="41.007"/>
            <rect height="23.866" rx="6.672" width="23.866" x="8.991" y="41.007"/>
        </g>
        <path d="M588.024 153.953c.258 0 .57.06.936.178.369.119.614.178.734.178.155 0 .409-.067.76-.201.352-.134.657-.2.916-.2.424 0 .801.125 1.132.378.187.145.371.342.554.591-.276.26-.478.492-.605.694a2.24 2.24 0 0 0-.347 1.217c0 .486.123.924.367 1.314.245.39.524.637.838.74-.13.47-.348.962-.652 1.475-.458.769-.913 1.154-1.365 1.154-.18 0-.427-.064-.744-.19-.314-.126-.58-.19-.797-.19-.217 0-.47.066-.76.196-.286.134-.519.2-.698.2-.542 0-1.072-.508-1.593-1.526-.52-1.006-.781-1.993-.781-2.96 0-.9.198-1.632.595-2.199.4-.566.903-.849 1.51-.849m3.258-2.26a.742.742 0 0 1 .03.246c0 .245-.051.512-.154.803-.104.291-.268.56-.492.81-.193.21-.384.351-.574.424a2.49 2.49 0 0 1-.548.098c.007-.582.143-1.085.409-1.51.268-.424.712-.715 1.329-.872" stroke-width=".75"/>
        <g stroke-linecap="round" transform="translate(-112.136 -211.23)">
            <rect height="29.246" rx="3.479" width="41.189" x="702.748" y="281.059"/>
            <path d="M723.272 386.71h27.227a6.658 6.658 0 0 0 6.673-6.672V348.12l-4-66.412c-.223-3.69-2.976-6.673-6.673-6.673l-23.242.156m.015 111.518h-27.228a6.658 6.658 0 0 1-6.672-6.672V348.12l4-66.412c.222-3.69 2.976-6.673 6.672-6.673l23.243.156"/>
        </g>
    </g>
</svg>
