<svg height="369.847" viewBox="0 0 266.821 517.786" width="190.586" xmlns="http://www.w3.org/2000/svg">
    <g fill="#f4f4f4" fill-opacity=".5">
        <path d="M206.725 301.225q0 .32-.077.539-.115.325-.368.325-.168 0-.352-.077-.222-.094-.243-.23.075 0 .176.027.235.061.293.061.227 0 .342-.226.09-.182.09-.435 0-.179-.117-.51-.115-.333-.115-.463 0-.04.022-.064.024-.027.064-.027.104 0 .202.48.083.405.083.6zM207.752 301.497q0 .272-.158.427-.157.154-.434.154-.152 0-.235-.072-.083-.072-.083-.221 0-.21.275-.424.261-.203.483-.203.101 0 .133.126.019.072.019.213zm-.163.075q0-.032-.008-.062-.005-.032-.021-.072-.043.03-.142.144-.05.059-.088.086 0-.051.011-.083l.035-.077q-.117 0-.245.098-.126.099-.126.214 0 .077.085.077.163 0 .315-.08.184-.096.184-.245zM208.85 301.606q0 .13-.098.294-.112.184-.232.184-.035 0-.059-.038-.021-.04-.021-.077 0-.048.101-.15.104-.103.104-.14 0-.025-.008-.049l-.01-.032q-.2.046-.409.23-.205.184-.312.208-.02-.06-.02-.12 0-.075.034-.158.024-.058.08-.141.093-.141.197-.32l.184-.323q.133-.23.195-.325.032-.048.056-.072.034-.032.082-.043.032.01.046.04.016.03.016.07 0 .09-.118.245-.213.277-.218.288-.12.181-.12.328l.005.027q.146-.072.173-.083.11-.045.187-.045.085 0 .125.058.04.056.04.144zM210.088 301.449q0 .181-.088.387-.096.226-.238.312-.029-.035-.05-.078-.019-.042-.019-.085 0-.045.133-.27.06-.098.054-.173l-.003-.034q-.099.029-.342.178l-.485.299q-.037 0-.07-.027-.029-.03-.029-.064 0-.056.18-.376.052-.096.191-.333.043.056.056.125.013.067.013.16v.061q.246-.146.384-.22.152-.084.208-.084.038 0 .07.086.034.085.034.136zM212.405 301.966q0 .048-.043.075-.04.024-.09.024-.046 0-.115-.01-.157-.025-.203-.025-.08 0-.314.019-.134.01-.192.01-.163 0-.163-.162 0-.155.101-.443.056-.162.211-.533.139-.333.176-.47.013-.042.021-.055.022-.032.054-.032.05 0 .085.074.035.072.035.13 0 .094-.11.316l-.213.429q-.115.25-.115.381 0 .067.056.094.04.018.118.018.058 0 .202-.013.144-.016.192-.016.12 0 .198.035.109.048.109.154zM213.397 301.497q0 .272-.157.427-.158.154-.435.154-.152 0-.235-.072-.082-.072-.082-.221 0-.21.274-.424.262-.203.483-.203.101 0 .133.126.02.072.02.213zm-.163.075q0-.032-.008-.062-.005-.032-.02-.072-.044.03-.142.144-.05.059-.088.086 0-.051.01-.083.022-.045.035-.077-.117 0-.245.098-.125.099-.125.214 0 .077.085.077.163 0 .315-.08.184-.096.184-.245zM214.52 301.44q0 .086-.046.182-.042.096-.109.16l-.003-.037q0-.032.008-.099t.008-.099q0-.045-.013-.066-.013-.024-.056-.024-.125 0-.312.194l-.403.424q-.016 0-.032-.003l-.053-.013q.008-.096.067-.213.157-.318.162-.339l.032-.125q.01-.04.03-.083.02-.045.048-.08.029-.037.074-.056l.027.32.176-.144q.117-.093.203-.093.085 0 .138.056.054.056.054.138zM215.83 301.132q0 .112-.3.296-.288.176-.418.176-.062 0-.083-.043-.019-.043-.019-.12v-.072q.179 0 .326-.053.146-.054.256-.176-.08-.03-.163-.03-.195 0-.413.15-.24.162-.24.346 0 .176.24.246.037.01.45.074.243.038.243.13 0 .04-.088.065-.088.027-.224.027-.341 0-.539-.104-.261-.139-.261-.446 0-.32.32-.509.272-.16.619-.16.104 0 .19.048.103.059.103.155zM216.89 300.654q0 .059-.14.246-.142.186-.142.285 0 .05.058.101.134.118.134.144 0 .035-.024.067-.021.032-.056.032-.03 0-.083-.032-.037-.021-.144-.104l-.061.117q-.075.142-.102.206l-.08.245q-.069.165-.173.165l-.003-.061q0-.19.123-.448.024-.048.133-.248-.21-.115-.464-.115 0-.098.04-.144.043-.048.141-.048.091 0 .227.032l.133.032q.051-.016.14-.173.215-.379.292-.435.022.035.035.07.016.034.016.066zM217.874 301.606q0 .13-.098.294-.112.184-.232.184-.035 0-.059-.038-.021-.04-.021-.077 0-.048.101-.15.104-.103.104-.14 0-.025-.008-.049l-.01-.032q-.2.046-.409.23-.205.184-.312.208-.02-.06-.02-.12 0-.075.034-.158.024-.058.08-.141.093-.141.197-.32l.184-.323q.133-.23.195-.325.032-.048.056-.072.034-.032.082-.043.032.01.046.04.016.03.016.07 0 .09-.118.245-.213.277-.218.288-.12.181-.12.328l.005.027q.146-.072.173-.083.11-.045.187-.045.085 0 .125.058.04.056.04.144zM220.064 300.737q0 .125-.134.336-.085.133-.28.384-.194.248-.242.325l.2.064q.194.059.194.214l-.157.024-.03-.003v-.022q-.042-.01-.068-.01-.051 0-.16.016-.11.016-.166.016-.072 0-.117-.027-.045-.027-.045-.096 0-.056.205-.318l.387-.493q.208-.283.208-.379 0-.037-.027-.056-.024-.018-.099-.018-.05 0-.21.098-.078.048-.126.048l-.045-.008q-.016-.01-.035-.04-.019-.032-.019-.05 0-.112.216-.206.184-.08.32-.08.115 0 .176.086.054.074.054.194zM221.666 301.217q0 .323-.349.57-.32.227-.659.227-.168 0-.266-.085-.099-.085-.099-.248 0-.363.317-.63.302-.253.675-.253.19 0 .285.112.096.112.096.307zm-.162.061q0-.123-.139-.184-.104-.045-.248-.045-.21 0-.44.205-.23.206-.23.414 0 .085.043.122.046.035.136.035.262 0 .544-.144.334-.17.334-.403zM222.888 300.737q0 .125-.134.336-.085.133-.28.384-.194.248-.242.325l.2.064q.194.059.194.214l-.157.024-.03-.003v-.022q-.042-.01-.068-.01-.051 0-.16.016-.11.016-.166.016-.072 0-.117-.027-.045-.027-.045-.096 0-.056.205-.318l.387-.493q.208-.283.208-.379 0-.037-.027-.056-.024-.018-.099-.018-.05 0-.21.098-.078.048-.126.048l-.045-.008q-.016-.01-.035-.04-.019-.032-.019-.05 0-.112.216-.206.184-.08.32-.08.115 0 .176.086.054.074.054.194zM224.114 300.737q0 .125-.133.336-.085.133-.28.384-.195.248-.243.325l.2.064q.195.059.195.214l-.157.024-.03-.003v-.022q-.042-.01-.069-.01-.05 0-.16.016t-.165.016q-.072 0-.117-.027-.046-.027-.046-.096 0-.056.206-.318.384-.488.386-.493.208-.283.208-.379 0-.037-.026-.056-.024-.018-.1-.018-.05 0-.21.098-.077.048-.125.048l-.045-.008q-.016-.01-.035-.04-.019-.032-.019-.05 0-.112.216-.206.184-.08.32-.08.115 0 .176.086.053.074.053.194z"/>
    </g>
    <g fill="none" stroke="#f4f4f4" stroke-linecap="round">
        <g transform="translate(-945.58 -519.204)">
            <path d="M1202.203 670.473c-5.462 0-9.86 4.51-9.86 10.111v58.649c0 5.601 4.486 10.147 9.948 10.147m0 0 .01 2.094m0 0v277.344a7.155 7.155 0 0 1-7.17 7.171H962.602m-7.171-365.512V527.375a7.156 7.156 0 0 1 7.17-7.171h232.523a7.156 7.156 0 0 1 7.171 7.17v143.057m-246.77.042c5.461 0 9.864 4.51 9.858 10.111l-.065 58.636c-.006 5.602-4.397 10.111-9.859 10.111m-.028.143v277.344c0 3.973 3.198 9.171 7.17 9.171h232.523a7.156 7.156 0 0 0 7.171-7.171m0-358.341V527.375a7.156 7.156 0 0 0-7.17-7.171H962.602a7.155 7.155 0 0 0-7.171 7.17v143.057" stroke-width="2.8"/>
            <rect height="185.508" rx="4.837" stroke-width="2.8" width="227.954" x="964.386" y="841.858"/>
            <g stroke-width="1.4">
                <rect height="19.049" rx="4.837" width="203.184" x="977.493" y="822.653"/>
                <path d="M1078.685 853.307c-21.038 0-41.945 8.662-56.82 23.537-14.876 14.876-23.538 35.783-23.538 56.82 0 21.038 8.662 41.945 23.537 56.821 14.876 14.876 35.783 23.537 56.82 23.537 21.038 0 41.945-8.661 56.821-23.537 14.876-14.876 23.537-35.783 23.537-56.82 0-21.038-8.661-41.945-23.537-56.82-14.876-14.876-35.783-23.538-56.82-23.538zM1162.992 598.662h16.531v217.466h-16.531zm-185.5-.423h16.532v217.467h-16.531zm8.733.156v-5.431h184.9v5.806m0 217.31v6.573h-184.9v-6.856"/>
                <rect height="21.199" rx="4.837" width="203.184" x="977.493" y="571.668"/>
            </g>
            <rect height="35.841" rx="6.784" stroke-width="2.8" width="207.075" x="975.371" y="535.501"/>
        </g>
        <g stroke-width="2.8" transform="translate(-945.58 -519.204)">
            <circle cx="1078.863" cy="933.023" r="69.5"/>
            <circle cx="1079.02" cy="933.811" r="17"/>
            <circle cx="1079.42" cy="789.239" r="19"/>
            <circle cx="1131.628" cy="788.795" r="19"/>
            <circle cx="1026.481" cy="790.297" r="19"/>
            <circle cx="1079.42" cy="737.239" r="19"/>
            <circle cx="1131.628" cy="736.795" r="19"/>
            <circle cx="1026.481" cy="738.297" r="19"/>
            <circle cx="1079.42" cy="685.239" r="19"/>
            <circle cx="1131.628" cy="684.795" r="19"/>
            <circle cx="1026.481" cy="686.297" r="19"/>
            <circle cx="1079.42" cy="633.239" r="19"/>
            <circle cx="1131.628" cy="632.795" r="19"/>
            <circle cx="1026.481" cy="634.297" r="19"/>
            <path d="M1192.584 740.26c10.35 0 20.118-4.45 18.682-9.86m0 0c-3.351-12.623-3.185-25.487 0-38.557 1.32-5.417-8.332-9.86-18.682-9.86M965.059 740.242c-10.35 0-19.776-4.432-18.34-9.841m0 0c3.352-12.624 3.185-25.488 0-38.558-1.32-5.417 8.332-9.86 18.682-9.86"/>
        </g>
    </g>
</svg>
