<svg height="369.929" viewBox="0 0 723.919 480.907" width="556.861" xmlns="http://www.w3.org/2000/svg">
    <g fill="none" stroke="#f4f4f4" stroke-width="2.6">
        <path d="M573.214 327.762h21.092v21.092h-21.092zM600.844 327.762h21.092v21.092h-21.092zM628.57 327.762h21.091v21.092H628.57zM656.228 327.762h21.092v21.092h-21.092zM573.214 355.371h21.092v21.092h-21.092zM600.844 355.371h21.092v21.092h-21.092zM628.57 355.371h21.091v21.092H628.57zM656.228 355.371h21.092v21.092h-21.092zM573.214 383.762h21.092v21.092h-21.092zM600.844 383.762h21.092v21.092h-21.092zM628.57 383.762h21.091v21.092H628.57zM656.228 383.762h21.092v21.092h-21.092zM573.214 411.371h21.092v21.092h-21.092zM600.844 411.371h21.092v21.092h-21.092zM628.57 411.371h21.091v21.092H628.57zM656.228 412.491h21.092v46.852h-21.092zM574.314 439.371h46.394v21.092h-46.394zM628.57 439.371h21.091v21.092H628.57zM507.56 411.637h21.092v21.092H507.56zM479.93 439.246h21.092v21.091H479.93zM507.56 439.246h21.092v21.091H507.56zM535.286 439.246h21.092v21.091h-21.092zM535.286 355.371h21.092v21.092h-21.092zM507.56 355.371h21.092v21.092H507.56zM479.93 355.371h21.092v21.092H479.93zM535.286 327.762h21.092v21.092h-21.092zM507.56 327.762h21.092v21.092H507.56zM479.93 327.762h21.092v21.092H479.93zM425.2 438.91h35.309v21.909h-35.31zM354.917 438.595h34.87v22.21h-34.87zM162.775 460.804h178.639v-22.239H162.775zM117.151 438.91h32.294v21.909h-32.294zM47.118 438.91h34.671v21.909H47.118zM388.39 410.91h72.136v21.909H388.39zM360.435 410.91h21.91v21.909h-21.91zM332.563 410.91h21.91v21.909h-21.91zM304.617 410.91h21.909v21.909h-21.91zM276.39 410.91h21.91v21.909h-21.91zM248.435 410.91h21.91v21.909h-21.91zM220.563 410.91h21.91v21.909h-21.91zM192.616 410.91h21.91v21.909h-21.91zM164.39 410.91h21.91v21.909h-21.91zM136.435 410.91h21.91v21.909h-21.91zM108.563 410.91h21.91v21.909h-21.91zM46.563 410.91h55.954v21.909H46.563zM402.39 382.91h58.136v21.909H402.39zM374.435 382.91h21.91v21.909h-21.91zM346.563 382.91h21.91v21.909h-21.91zM318.617 382.91h21.909v21.909h-21.91zM290.39 382.91h21.91v21.909h-21.91zM262.435 382.91h21.91v21.909h-21.91zM234.563 382.91h21.91v21.909h-21.91zM206.616 382.91h21.91v21.909h-21.91zM178.39 382.91h21.91v21.909h-21.91zM150.435 382.91h21.91v21.909h-21.91zM122.563 382.91h21.91v21.909h-21.91zM94.39 382.91h21.91v21.909H94.39zM46.563 382.91h41.781v21.909H46.563zM424.345 354.91h36.181v21.909h-36.181zM396.39 354.91h21.91v21.909h-21.91zM368.435 354.91h21.91v21.909h-21.91zM340.563 354.91h21.91v21.909h-21.91zM312.617 354.91h21.909v21.909h-21.91zM284.39 354.91h21.91v21.909h-21.91zM256.435 354.91h21.91v21.909h-21.91zM228.563 354.91h21.91v21.909h-21.91zM200.616 354.91h21.91v21.909h-21.91zM172.39 354.91h21.91v21.909h-21.91zM144.435 354.91h21.91v21.909h-21.91zM116.563 354.91h21.91v21.909h-21.91zM88.39 354.91h21.91v21.909H88.39zM46.563 354.91h35.781v21.909H46.563zM438.617 326.91h21.909v21.909h-21.91zM410.39 326.91h21.91v21.909h-21.91zM382.435 326.91h21.91v21.909h-21.91zM354.563 326.91h21.91v21.909h-21.91zM326.617 326.91h21.909v21.909h-21.91zM298.39 326.91h21.91v21.909h-21.91zM270.435 326.91h21.91v21.909h-21.91zM242.563 326.91h21.91v21.909h-21.91zM214.616 326.91h21.91v21.909h-21.91zM186.39 326.91h21.91v21.909h-21.91zM158.435 326.91h21.91v21.909h-21.91zM130.563 326.91h21.91v21.909h-21.91zM102.39 326.91h21.91v21.909h-21.91zM74.435 326.91h21.91v21.909h-21.91zM46.48 326.91h21.91v21.909H46.48zM357.02 280.341h21.093v21.092H357.02zM384.651 280.341h21.092v21.092h-21.092zM412.377 280.341h21.092v21.092h-21.092zM440.035 280.341h21.092v21.092h-21.092zM535.286 280.341h21.092v21.092h-21.092zM507.56 280.341h21.092v21.092H507.56zM479.93 280.341h21.092v21.092H479.93zM225.14 280.341h21.092v21.092H225.14zM252.77 280.341h21.092v21.092H252.77zM280.496 280.341h21.091v21.092h-21.091zM308.154 280.341h21.092v21.092h-21.092zM93.954 280.341h21.092v21.092H93.954zM121.585 280.341h21.092v21.092h-21.092zM149.31 280.341h21.092v21.092H149.31zM176.969 280.341h21.091v21.092H176.97zM46.522 280.476h20.963v20.963H46.522z"/>
    </g>
    <g fill="none" stroke="#f4f4f4" stroke-width="2">
        <g stroke-width="1.3">
            <path d="M573.265 278.31h104.768v24.377H573.265z"/>
            <path d="M666.3 281.786h6.551v6.551H666.3zM666.503 292.38h6.551v6.551h-6.551z"/>
        </g>
        <path d="M361.96 250.589H17.03l-.085-49.469L21.6 10.935c.295-3.71 3.794-4.146 7.734-4.51l230.29-5.404M464.254 1l230.29 5.404c3.94.364 7.44.8 7.734 4.51l4.63 191.614-.001 48.061H361.967M464.252 1H361.958l-102.334.021M30.106 250.608 40.43 469.375l643.057-.457 8.917-218.458" stroke-width="2.6"/>
        <path d="M4.33 201.234a3.322 3.322 0 0 0-3.33 3.33m0 0v272.013a3.322 3.322 0 0 0 3.33 3.33h357.63M4.33 201.234l13.223-.001m690.167 0h11.87m0 0a3.322 3.322 0 0 1 3.329 3.33m0 0v272.014a3.322 3.322 0 0 1-3.33 3.33H361.96" stroke-width="2.6"/>
        <g stroke-width="1.3">
            <path d="M24.164 209.337h56.483v29.947H24.164zM178.581 3.286h3.37V165.93h-3.37zM188.581 3.286h3.37V165.93h-3.37zM198.581 2.584h3.37V165.93h-3.37zM208.581 2.499h3.37v161.39h-3.37zM168.581 3.286h3.37V165.93h-3.37zM158.581 3.474h3.37V165.93h-3.37zM148.581 3.916h3.37V165.93h-3.37zM138.581 3.982h3.37V165.93h-3.37zM128.581 4.355h3.37V165.93h-3.37zM118.581 4.334h3.37V165.93h-3.37zM108.581 4.654h3.37V165.93h-3.37zM98.581 4.973h3.37V165.93h-3.37zM88.58 5.302h3.372v158.587H88.58zM78.574 5.616h3.383V159.59h-3.383zM68.535 5.717h3.461v113.964h-3.461zM58.535 6.03h3.461V119.68h-3.461zM48.535 6.233h3.461V119.68h-3.461zM38.535 6.232h3.461v113.45h-3.461zM28.535 6.754h3.461V119.68h-3.461zM218.575 1.968h3.381v157.62h-3.38zM228.535 1.88h3.461V119.68h-3.46zM238.535 1.835h3.461v117.846h-3.46zM248.535 1.273h3.461v118.408h-3.46zM258.535 1.109h3.461v118.572h-3.46zM268.535 1.055h3.461v118.626h-3.46zM278.535.946h3.461v118.735h-3.46zM288.535 1.178h3.461V119.68h-3.46zM298.535 1.165h3.461V119.68h-3.46zM308.535 1.052h3.461v118.63h-3.46zM318.535 1.211h3.461v118.47h-3.46zM328.535 1.113h3.461v118.568h-3.46zM338.535 1.205h3.461V119.68h-3.46zM348.535 1.214h3.461v118.467h-3.46zM358.535 1.283h3.461V119.68h-3.46zM368.535 1.309h3.461V119.68h-3.46zM378.535 1.22h3.461v118.461h-3.46zM388.535.985h3.461v118.696h-3.46zM398.535 1.103h3.461v118.578h-3.46zM408.535 1.405h3.461V119.68h-3.46zM418.535 1.195h3.461v118.486h-3.46zM428.535.938h3.461V119.68h-3.46zM468.535 1.47h3.461V119.68h-3.46zM458.535 1.033h3.461v118.648h-3.46zM448.535 1.17h3.461v118.511h-3.46zM438.535 1.128h3.461V119.68h-3.46zM502.535 2.2h3.461V119.68h-3.46zM512.535 2.453h3.461v117.228h-3.46zM522.535 2.453h3.461v117.228h-3.46zM532.535 2.453h3.461v117.228h-3.46zM542.535 2.822h3.461v116.86h-3.46zM552.535 3.285h3.461v116.396h-3.46zM562.535 4.03h3.461V119.68h-3.46zM572.535 3.905h3.461v115.776h-3.46zM582.535 4.374h3.461V119.68h-3.46zM592.535 4.444h3.461v115.237h-3.46zM602.535 4.371h3.461v115.31h-3.46zM612.535 4.787h3.461V119.68h-3.46zM622.535 4.57h3.461V119.68h-3.46zM632.535 4.973h3.461v114.708h-3.46zM642.535 5.405h3.461V119.68h-3.46zM652.535 5.467h3.461V119.68h-3.46zM662.535 5.771h3.461v113.91h-3.46zM672.535 6.073h3.461v113.608h-3.46zM682.535 5.947h3.461v113.734h-3.46zM692.535 6.365h3.461V119.68h-3.46z"/>
        </g>
    </g>
    <g fill="#f4f4f4" fill-opacity=".5" stroke-width="1.3">
        <path d="M660.447 472.013q0 .416-.1.7-.15.423-.48.423-.218 0-.457-.1-.288-.122-.315-.298.097 0 .229.034.305.08.38.08.296 0 .445-.295.117-.235.117-.565 0-.232-.152-.662-.15-.433-.15-.603 0-.052.029-.083.03-.035.083-.035.135 0 .263.624.108.527.108.78zM661.781 472.367q0 .353-.204.554-.205.201-.565.201-.198 0-.305-.093-.108-.094-.108-.288 0-.274.357-.551.34-.264.628-.264.132 0 .173.163.024.094.024.278zm-.211.097q0-.042-.01-.08-.007-.041-.028-.093-.056.038-.184.187-.066.076-.114.11 0-.065.014-.107l.045-.1q-.153 0-.32.128-.162.128-.162.277 0 .1.11.1.212 0 .41-.103.24-.125.24-.32zM663.21 472.509q0 .17-.129.381-.145.24-.301.24-.045 0-.076-.05-.028-.051-.028-.1 0-.062.132-.194.135-.135.135-.184 0-.03-.01-.062l-.015-.042q-.26.06-.53.299-.267.239-.406.27-.027-.076-.027-.156 0-.097.045-.205.031-.076.104-.183.121-.184.256-.416l.24-.42q.173-.298.253-.423.041-.062.072-.093.046-.042.108-.056.042.014.059.052.02.038.02.09 0 .118-.152.32-.277.36-.284.374-.156.235-.156.426l.007.035q.19-.094.225-.108.142-.059.243-.059.11 0 .163.077.052.073.052.187zM664.818 472.304q0 .236-.114.503-.125.295-.309.406-.038-.046-.066-.101-.024-.055-.024-.11 0-.06.173-.351.077-.128.07-.225l-.003-.045q-.129.038-.444.232-.312.19-.631.388-.048 0-.09-.035-.038-.038-.038-.083 0-.073.232-.489.07-.124.25-.433.055.073.072.163.018.087.018.208v.08q.319-.191.499-.288.198-.108.27-.108.049 0 .09.111.046.111.046.177zM667.83 472.977q0 .062-.055.097-.052.031-.118.031-.059 0-.149-.014-.204-.03-.263-.03-.104 0-.41.023-.173.014-.249.014-.211 0-.211-.211 0-.201.131-.576.073-.211.274-.693.18-.433.23-.61.016-.056.027-.073.028-.042.07-.042.065 0 .11.098.045.093.045.17 0 .12-.142.408l-.277.559q-.15.325-.15.495 0 .087.073.122.052.024.153.024.076 0 .263-.017.188-.021.25-.021.156 0 .257.045.142.062.142.201zM669.12 472.367q0 .353-.204.554-.205.201-.565.201-.198 0-.305-.093-.108-.094-.108-.288 0-.274.357-.551.34-.264.628-.264.131 0 .173.163.024.094.024.278zm-.211.097q0-.042-.01-.08-.008-.041-.028-.093-.056.038-.184.187-.066.076-.114.11 0-.065.014-.107l.045-.1q-.153 0-.32.128-.162.128-.162.277 0 .1.11.1.212 0 .41-.103.239-.125.239-.32zM670.58 472.294q0 .11-.06.236-.055.124-.141.208l-.003-.049q0-.041.01-.128t.01-.128q0-.06-.017-.087-.017-.031-.073-.031-.162 0-.405.253l-.524.551q-.02 0-.041-.003-.052-.014-.07-.017.01-.125.087-.278.205-.412.212-.44l.041-.163q.014-.052.038-.107.028-.06.063-.104.038-.049.097-.073l.035.416.228-.187q.153-.122.264-.122.11 0 .18.073.07.073.07.18zM672.282 471.892q0 .145-.388.385-.375.228-.545.228-.08 0-.107-.055-.024-.056-.024-.156v-.094q.232 0 .423-.069.19-.07.332-.229-.104-.038-.211-.038-.253 0-.537.194-.312.212-.312.45 0 .23.312.32.048.014.585.097.316.048.316.17 0 .052-.114.083-.115.035-.292.035-.443 0-.7-.136-.34-.18-.34-.578 0-.416.416-.663.354-.208.805-.208.135 0 .246.063.135.076.135.2zM673.662 471.271q0 .077-.184.32-.184.242-.184.37 0 .066.077.132.173.152.173.187 0 .045-.031.087-.028.041-.073.041-.038 0-.108-.041-.048-.028-.187-.135l-.08.152q-.097.184-.131.267l-.104.319q-.09.215-.226.215l-.003-.08q0-.246.16-.582.031-.063.173-.323-.274-.149-.603-.149 0-.128.052-.187.056-.062.184-.062.118 0 .294.041l.174.042q.066-.02.18-.225.28-.493.381-.565.028.045.045.09.021.045.021.086zM674.94 472.509q0 .17-.127.381-.146.24-.302.24-.045 0-.076-.05-.028-.051-.028-.1 0-.062.132-.194.135-.135.135-.184 0-.03-.01-.062l-.014-.042q-.26.06-.53.299-.268.239-.406.27-.028-.076-.028-.156 0-.097.045-.205.031-.076.104-.183.121-.184.257-.416l.239-.42q.173-.298.253-.423.041-.062.073-.093.045-.042.107-.056.042.014.059.052.02.038.02.09 0 .118-.152.32-.277.36-.284.374-.156.235-.156.426l.007.035q.19-.094.225-.108.143-.059.243-.059.111 0 .163.077.052.073.052.187zM677.787 471.379q0 .163-.173.437-.111.173-.364.499-.253.322-.316.423l.26.083q.253.076.253.277-.104.017-.204.031l-.038-.003v-.027q-.056-.014-.09-.014-.066 0-.208.02-.143.021-.215.021-.094 0-.153-.034-.059-.035-.059-.125 0-.073.267-.413.5-.634.503-.641.27-.367.27-.492 0-.049-.034-.073-.032-.024-.129-.024-.066 0-.274.128-.1.062-.163.062l-.058-.01q-.021-.014-.046-.052-.024-.042-.024-.066 0-.146.28-.267.24-.104.417-.104.149 0 .229.111.069.097.069.253zM679.87 472.003q0 .42-.454.742-.416.294-.856.294-.218 0-.347-.11-.128-.112-.128-.323 0-.472.413-.818.391-.33.877-.33.246 0 .37.146.126.146.126.399zm-.211.08q0-.16-.18-.24-.135-.059-.323-.059-.273 0-.572.267-.298.267-.298.538 0 .11.056.159.059.045.177.045.34 0 .707-.187.433-.222.433-.524zM681.458 471.379q0 .163-.173.437-.111.173-.364.499-.253.322-.316.423l.26.083q.254.076.254.277-.104.017-.205.031l-.038-.003v-.027q-.056-.014-.09-.014-.066 0-.208.02-.142.021-.215.021-.094 0-.153-.034-.059-.035-.059-.125 0-.073.267-.413.5-.634.503-.641.27-.367.27-.492 0-.049-.034-.073-.031-.024-.129-.024-.065 0-.273.128-.1.062-.163.062l-.06-.01q-.02-.014-.044-.052-.025-.042-.025-.066 0-.146.281-.267.24-.104.416-.104.15 0 .229.111.07.097.07.253zM683.053 471.379q0 .163-.173.437-.111.173-.364.499-.253.322-.316.423l.26.083q.253.076.253.277-.104.017-.204.031l-.038-.003v-.027q-.056-.014-.09-.014-.066 0-.209.02-.142.021-.214.021-.094 0-.153-.034-.059-.035-.059-.125 0-.073.267-.413.5-.634.503-.641.27-.367.27-.492 0-.049-.035-.073-.03-.024-.128-.024-.066 0-.274.128-.1.062-.163.062l-.059-.01q-.02-.014-.045-.052-.024-.042-.024-.066 0-.146.28-.267.24-.104.417-.104.149 0 .229.111.069.097.069.253z"/>
    </g>
</svg>
