<svg xmlns="http://www.w3.org/2000/svg" width="598.189" height="350.26" xml:space="preserve">
    <path fill="#EFEFEF" d="M569.207 314.248c-2.305 0-4.921-.477-7.773-1.415-5.948-1.959-11.465-3.488-15.53-4.308a769.392 769.392 0 0 0-27.876-5.076c-4.586-.743-34.82-3.615-46.333-3.615l-.273.001c-14.33.061-27.342.454-30.601.659-3.591.226-7.671.34-12.128.34-52.567 0-147.669-15.175-161.27-23.847-2.674-.924-50.019-17.271-69.851-24.344-3.847-1.373-19.303-5.938-30.515-8.181-18.169-3.633-43.281-8.022-54.03-9.004a76.033 76.033 0 0 0-1.777-.124c-1.673-.104-3.569-.223-4.63-.494-2.974-.747-8.355-2.865-10.936-8.644-3.373-7.552-6.009-76.463-6.12-79.394.013-.277.284-4.477 1.381-6.828 6.801-16.948 34.667-74.693 106.798-104.074.526-.214 1.441-.598 2.396-.999a296.744 296.744 0 0 1 3.095-1.287c2.062-.828 5.216-1.814 8.528-1.814 4.254 0 7.573 1.598 9.864 4.751.703.965 2.015 5.001 2.228 6.854l.032.281c.157 1.379.335 2.942.548 4.37.725 4.867 2.977 11.826 9.587 17.344.338.301 31.546 27.919 61.71 27.919 1.082 0 2.165-.036 3.219-.106.951-.063 4.015-.766 5.599-1.401 3.908-1.569 11.687-4.212 19.851-4.279l133.343-6.294c.746-.052 77.02-5.376 99.973-11.61.67-.182 2.063-.512 3.52-.857 1.533-.363 3.136-.742 4.005-.975 2.07-.559 4.909-1.324 7.525-1.324 5.142 0 8.032 2.907 8.594 8.64.062 1.035 5.919 101.258.004 227.171-.005.104-.473 11.963-12.157 11.964zm-97.514-16.414c11.331 0 41.183 2.755 46.652 3.642a763.716 763.716 0 0 1 27.95 5.09c4.144.835 9.74 2.387 15.762 4.367 2.651.873 5.057 1.315 7.148 1.315 9.725-.001 10.144-9.63 10.156-10.04 5.911-125.816.062-225.94.002-226.937-.46-4.689-2.496-6.797-6.601-6.797-2.353 0-4.933.696-7.006 1.255-.882.238-2.508.623-4.063.991-1.43.338-2.798.662-3.456.84-23.143 6.285-99.61 11.624-100.38 11.677l-133.403 6.297c-7.875.064-15.383 2.619-19.16 4.136-1.733.695-4.969 1.458-6.211 1.54a50.08 50.08 0 0 1-3.352.111c-30.935 0-62.701-28.123-63.018-28.407-7.068-5.898-9.482-13.352-10.258-18.562-.218-1.462-.398-3.043-.557-4.438l-.032-.28c-.203-1.768-1.472-5.375-1.857-5.904-1.895-2.606-4.669-3.928-8.247-3.928-2.992 0-5.884.909-7.783 1.671-.654.262-1.891.781-3.065 1.274-.963.405-1.885.792-2.416 1.008-71.402 29.084-98.97 86.203-105.719 103.017-.959 2.057-1.216 6.017-1.218 6.057.933 24.585 3.375 72.791 5.948 78.553 2.236 5.008 6.976 6.861 9.602 7.521.883.226 2.757.343 4.263.437.676.042 1.312.082 1.831.128 10.822.987 36.024 5.393 54.245 9.035 11.304 2.262 26.907 6.871 30.794 8.258 20.299 7.24 69.452 24.205 69.946 24.377l.223.108c12.695 8.331 109.042 23.588 160.279 23.588 4.416 0 8.454-.112 12.003-.336 3.278-.206 16.348-.604 30.718-.663l.28-.001z"/>
    <path fill="#EFEFEF" d="m172.228 126.775.335-.077c.532-.122 1.082-.064 1.651.173.488.198.964.53 1.426.999.356.353.666.749.922 1.18.252.428.417.809.493 1.146.138.601.167 1.08.087 1.437-.081.358-.223.622-.426.793a1.563 1.563 0 0 1-.662.339c-.307.07-.602.024-.882-.14-.28-.165-.434-.397-.459-.701-.029-.258.029-.474.172-.646.145-.173.347-.303.606-.393.308-.07.55-.075.726-.011-.349-.818-.857-1.46-1.522-1.926-.666-.466-1.356-.617-2.073-.453l-.126.029c-.419.096-.82.372-1.205.828a97.489 97.489 0 0 1-1.266 1.526c-.504.116-1.109-.312-1.818-1.284-1.094-1.485-1.805-2.375-2.137-2.667-1.005-.902-2.114-1.215-3.334-.937-1.707.391-2.289 1.769-1.748 4.132a9.207 9.207 0 0 0 1.412 3.175c.686.999 1.628 1.971 2.831 2.918.97.764 2.058 1.463 3.264 2.101a22.38 22.38 0 0 0 3.619 1.533c1.207.386 2.287.603 3.24.649.622.019 1.164-.024 1.625-.13a5.522 5.522 0 0 0 1.388-.495c.846-.488 1.167-1.173.965-2.053a2.259 2.259 0 0 0-.617-1.104c-.316-.317-.737-.6-1.266-.846-.886-.402-2.014-.732-3.386-.991l-3.295-.618-.864-.2c-1.522-.417-2.565-.729-3.128-.939-1.369-.51-2.308-1.046-2.819-1.606a6.823 6.823 0 0 1-.725-.949c-.207-.328-.342-.625-.403-.891-.058-.251-.018-.4.118-.446.109-.04.405.191.888.695.343.344.772.64 1.285.887.909.431 2.643.903 5.203 1.409l1.078.258 2.217.444c.441.1.883.198 1.326.293.706.183 1.396.423 2.062.719.439.179.841.396 1.209.651.577.397 1.032.827 1.366 1.288.334.46.562.958.684 1.488a3.91 3.91 0 0 1-.152 2.276 4.048 4.048 0 0 1-1.376 1.849 3.966 3.966 0 0 1-1.554.732l-.525.12-.873.045a13.702 13.702 0 0 1-1.608-.083 12.578 12.578 0 0 1-1.611-.286c-3-.697-5.714-2.261-8.138-4.683-2.292-2.294-3.728-4.706-4.309-7.244-.398-1.738-.393-3.164.016-4.273.411-1.113 1.251-1.814 2.524-2.105 1.57-.359 2.947.127 4.139 1.459l2.769 4.576.168-.039c.242-.761.534-1.395.879-1.912.346-.512.883-.852 1.614-1.019zm-7.388-12.505a40.607 40.607 0 0 0-3.432-.913c-1.349-.295-2.226-.396-2.631-.303-.168.039-.238.114-.213.225.057.252.552.629 1.483 1.129.932.5 1.822.868 2.67 1.099.848.233 1.473.392 1.875.476a20.69 20.69 0 0 0 2.086.339c.875.093 1.789.098 2.74.013-1.107-.659-2.138-1.174-3.091-1.544l-1.487-.521zm-.624-5.133a36.191 36.191 0 0 0-2.005-.468c-.832-.163-1.381-.214-1.646-.153-.21.048-.298.149-.263.303.051.224.49.529 1.314.914.724.334 1.53.643 2.419.924l1.424.336c.478.098.919.158 1.323.183.403.026.91.02 1.52-.017a12.431 12.431 0 0 0-1.592-1.07 9.123 9.123 0 0 0-1.62-.711l-.874-.241zm2.294-7.226 3.335.777 4.944 1.134c.512.118.878.24 1.099.367.286.155.454.344.505.568a.602.602 0 0 1-.017.313c-.104.319-.296.509-.575.573-.225.051-.501.034-.83-.053l-4.759-1.29-.776-.223c.327.205.63.466.908.785.382.444.615.853.702 1.231.09.392.028.729-.187 1.014-.157.212-.412.418-.764.616.331.16.687.396 1.066.706.294.255.545.526.749.81.206.285.341.573.408.868.131.573-.003 1.111-.403 1.616-.125.16-.292.331-.5.511.132.07.263.144.393.22.144.084.264.175.36.271.384.324.73.698 1.04 1.12.311.422.509.822.596 1.2.086.377.067.728-.058 1.051a2.646 2.646 0 0 1-.619.915l-.308.292.448.316c.917.658 1.467 1.394 1.653 2.204.086.378.063.729-.067 1.053a2.543 2.543 0 0 1-.634.897l-.334.275.464.292c.385.264.679.535.881.813.204.277.349.604.435.981.151.657-.034 1.17-.553 1.54-.325.251-.739.434-1.243.549-.461.106-1.061.096-1.795-.029a9.577 9.577 0 0 1-1.771-.556 9.382 9.382 0 0 1-1.708-.944 8.228 8.228 0 0 1-1.735-1.602 4.813 4.813 0 0 1-.956-1.956c-.199-.866.051-1.379.751-1.541.259-.088.529-.033.811.167a.813.813 0 0 1 .32.435c.055.238.076.427.065.57a.898.898 0 0 1-.103.366.61.61 0 0 1-.288.242c-.133.06-.202.116-.204.167a.669.669 0 0 0 .02.184c.077.336.377.716.901 1.141.453.368.983.691 1.592.971.609.28 1.231.476 1.867.588.638.112 1.207.11 1.71-.005.224-.051.412-.127.566-.229.152-.102.2-.279.143-.53-.071-.308-.418-.634-1.04-.976-.489-.271-1.133-.543-1.931-.818a28.822 28.822 0 0 0-1.251-.397 53.2 53.2 0 0 0-1.075-.306c-.113-.048-.221-.295-.323-.742a2.732 2.732 0 0 1-.085-.71c.007-.193.063-.287.167-.281l2.101.401c.492.094.822.151.988.171.26.043.585.08.974.107.119.002.198-.001.24-.011a.326.326 0 0 0 .264-.248 1.04 1.04 0 0 0-.013-.493c-.048-.21-.282-.503-.703-.878-.419-.374-.719-.601-.89-.678l-.602.137a5.131 5.131 0 0 1-.628.101 6.108 6.108 0 0 1-1.461.157 16.434 16.434 0 0 1-1.677-.124 54.315 54.315 0 0 1-.932-.151 32.005 32.005 0 0 1-.984-.183c-1.863-.412-3.563-1.023-5.093-1.836-1.682-.896-2.619-1.762-2.811-2.601-.093-.406-.044-.723.147-.95.19-.228.496-.39.914-.486.715-.164 1.683-.143 2.908.062.888.15 1.856.392 2.904.725.284.088.567.182.848.282a22.56 22.56 0 0 1 2.734 1.139c.557.278 1.152.616 1.79 1.016l1.308.891c.35-.08.642-.264.877-.553.235-.289.306-.645.209-1.063-.064-.28-.286-.605-.665-.975a4.687 4.687 0 0 0-.915-.716l-1.335.15a10.967 10.967 0 0 1-3.195-.262l-.961-.244a15.783 15.783 0 0 1-3.99-1.713c-1.279-.766-1.979-1.416-2.102-1.947-.081-.35-.04-.62.123-.812.162-.192.439-.333.831-.422.601-.138 1.371-.134 2.309.011.943.146 1.87.374 2.772.679.603.214 1.195.456 1.776.719.694.327 1.278.657 1.751.99.385.265.757.576 1.119.936.059 0 .146-.012.257-.037.266-.062.472-.187.621-.374.147-.189.179-.472.093-.85-.077-.335-.318-.648-.723-.938-.405-.291-1.015-.541-1.828-.752l-.281-.068a25.899 25.899 0 0 1-1.646-.439 37.96 37.96 0 0 1-1.432-.467l-1.603-.538c-.048-.019-.115-.117-.2-.296a2.525 2.525 0 0 1-.187-.521 2.182 2.182 0 0 1-.07-.646c.013-.166.09-.235.229-.208.045.005.153.031.328.08.363.104.727.212 1.089.324.541.173 1.086.335 1.634.486.694.195 1.263.337 1.709.426.697.15 1.206.187 1.527.113.266-.061.373-.203.322-.426-.077-.335-.277-.629-.599-.879-.323-.25-.895-.531-1.717-.843a25.12 25.12 0 0 0-1.711-.58 45.315 45.315 0 0 0-1.661-.458l-1.351-.308c-.098-.038-.175-.137-.234-.3a4.798 4.798 0 0 1-.157-.538 2.6 2.6 0 0 1-.08-.688c.01-.178.071-.251.182-.217l1.238.294 3.314.799z"/>
    <path fill="#EFEFEF" d="M168.805 147.406c-14.018 0-25.422-11.404-25.422-25.422s11.404-25.422 25.422-25.422 25.422 11.404 25.422 25.422-11.404 25.422-25.422 25.422zm0-48.844c-12.915 0-23.422 10.507-23.422 23.422s10.507 23.422 23.422 23.422 23.422-10.507 23.422-23.422-10.507-23.422-23.422-23.422zM309.967 91.401l-.424-1.955c.738-.424 2.12-3.867 2.66-22.013l.013-.443c.055-1.796.085-2.542.102-2.916.014-.334.015-.334.007-.606-.036-1.436-.331-3.312-1.531-4.095-1.206-.788-2.871-.207-3.353-.011-.834.34-3.174 1.259-3.98 1.42-25.18 4.997-56.064-3.07-64.489-9.127-.443-.318-1.837-1.356-2.865-2.121l-1.074-.798c-3.907-2.883-10.564-.396-10.632-.371l-.712-1.869c.313-.12 7.754-2.893 12.531.63l1.082.804c1.018.758 2.398 1.786 2.838 2.101 6.937 4.987 36.712 13.992 62.93 8.791.476-.095 2.254-.754 3.615-1.312.908-.372 3.235-1.097 5.203.188 1.547 1.01 2.365 2.934 2.438 5.718.008.332.009.332-.01.741-.015.37-.045 1.111-.099 2.893l-.014.443c-.503 16.869-1.649 23.348-4.236 23.908zM88.405 225.778h-7.689l-.168-.793c-.034-.156-3.342-15.99-3.105-38.985l2 .021c-.205 19.865 2.255 34.306 2.906 37.758h5.561c.086-.068.167-.154.158-.211-.784-4.604-2.571-17.483-2.239-37.575l2 .032c-.338 20.483 1.607 33.658 2.211 37.209.224 1.318-.797 2.164-1.437 2.455l-.198.089z"/>
    <path fill="#EFEFEF" d="M80.594 225.71c-.041-.031-4.26-3.354-11.727-4.307-6.924-.891-42.922-1.358-50.067-1.443-1.735-.025-3.158-1.209-3.811-3.162-1.485-4.438-4.926-16.32-4.798-30.797l2 .018c-.125 14.174 3.241 25.805 4.694 30.146.222.663.768 1.777 1.941 1.796 10.062.12 43.438.579 50.294 1.459 8.066 1.029 12.543 4.585 12.73 4.736l-1.256 1.554zM85.828 186.813c-.331-20.078 1.456-32.965 2.239-37.574.01-.06-.076-.146-.16-.211h-5.561c-.652 3.42-3.111 17.715-2.904 37.758l-2 .021c-.229-22.184 2.871-38.977 3.372-39.483l.294-.296h7.296l.198.09c.639.292 1.661 1.137 1.436 2.457-.774 4.554-2.54 17.295-2.211 37.205l-1.999.033z"/>
    <path fill="#EFEFEF" d="M10.191 186.808c-.128-14.478 3.312-26.362 4.798-30.8.653-1.956 2.078-3.136 3.81-3.157 7.147-.086 43.149-.559 50.067-1.443 7.468-.952 11.687-4.277 11.729-4.311l1.256 1.556c-.187.151-4.665 3.71-12.731 4.738-6.85.876-40.229 1.338-50.296 1.459-1.17.014-1.716 1.128-1.938 1.792-1.453 4.343-4.82 15.973-4.694 30.147l-2.001.019z"/>
    <path fill="#EFEFEF" d="M70.95 220.921c-.072-.341-7.145-34.52 0-69.033l1.958.405c-7.056 34.09-.072 67.876 0 68.213l-1.958.415zM94.231 225.978h-1.088c-2.447 0-4.786-1.961-5.213-4.369-.026-.147-2.613-14.996-2.562-35.824l2 .006c-.05 20.652 2.506 35.322 2.532 35.469.261 1.475 1.746 2.721 3.243 2.721h1.088c.496 0 .946-.142 1.3-.407l1.201 1.6c-.703.524-1.568.804-2.501.804z"/>
    <path fill="#EFEFEF" d="M85.368 186.812c-.051-20.827 2.536-35.674 2.562-35.822.208-1.173.862-2.272 1.842-3.095l1.286 1.531c-.621.521-1.032 1.201-1.158 1.913-.026.146-2.582 14.833-2.532 35.468l-2 .005zM17.599 217.722h53.606v2H17.599zM14.958 213.413h55.606v2H14.958zM14.599 209.13h55.606v2H14.599zM13.599 204.794h56.606v2H13.599zM12.958 200.485h56.606v2H12.958zM12.599 196.203h56.606v2H12.599zM11.599 191.866h57.606v2H11.599zM11.958 187.56h56.606v2H11.958zM11.599 183.276h56.606v2H11.599zM11.599 178.938h56.606v2H11.599zM11.958 174.632h56.606v2H11.958zM12.599 170.349h56.606v2H12.599zM13.599 166.013h55.606v2H13.599zM14.958 161.704h55.606v2H14.958zM15.599 157.421h55.606v2H15.599zM17.599 153.085h53.606v2H17.599zM525.521 282.208l-1.538-.157a98.169 98.169 0 0 1-3.34-.646c-1.191-.246-2.425-.502-3.941-.747-4.993-.81-32.974-3.615-44.335-3.615l-.272.001c-14.33.061-27.342.454-30.601.659-3.59.226-7.671.34-12.129.34-52.563 0-147.655-15.173-161.264-23.844-2.095-.705-30.894-10.396-52.871-18.064-1.404-.491-3.726-2.903-4.317-5.722-.869-4.135-.833-5.754-.831-5.821V98.446c-.024-.286-.618-8.815 3.115-12.838 2.533-2.729 6.416-2.792 11.333-.058.283.189 20.677 14.143 38.329 23.46 4.958 2.617 14.252 3.944 27.623 3.944 17.882 0 38.83-2.316 52.691-3.849 5.581-.617 9.989-1.104 12.209-1.205 3.434-.156 15.335-.594 30.405-1.149 33.955-1.25 85.269-3.141 107.925-4.285 8.157-.412 32.916-4.957 33.166-5.003l.111-.021 1.096.048.073.988c-.005.168-.007.338-.007.509 0 9.178 7.467 16.645 16.645 16.645 3.046 0 6.025-.83 8.616-2.4l1.519-.92v1.947l-2.42 153.02-1.516-.98a16.508 16.508 0 0 0-8.988-2.646c-9.143 0-16.581 7.438-16.581 16.578 0 .271.002.535.021.801l.074 1.176zm-53.155-7.165c11.444 0 39.626 2.825 44.655 3.642 1.56.254 2.812.512 4.025.762.766.158 1.531.316 2.38.476.164-10.104 8.436-18.271 18.578-18.271 3.002 0 5.929.717 8.561 2.086l2.34-147.956a18.642 18.642 0 0 1-8.11 1.852c-10.065 0-18.296-8.02-18.634-18.006-4.937.895-24.95 4.463-32.349 4.836-22.671 1.146-73.992 3.036-107.954 4.287-15.063.555-26.963.993-30.389 1.149-2.154.098-6.533.582-12.078 1.195-13.906 1.537-34.918 3.86-52.912 3.86-13.892 0-23.233-1.365-28.556-4.175-17.756-9.372-38.242-23.389-38.447-23.53-3.87-2.143-6.902-2.341-8.813-.282-3.141 3.381-2.592 11.325-2.586 11.405l.003 126.25c0 .038-.018 1.541.789 5.382.469 2.235 2.353 4.011 3.019 4.243 22.694 7.92 52.668 17.996 52.968 18.097l.23.112c12.694 8.331 109.041 23.588 160.277 23.588 4.417 0 8.455-.113 12.004-.336 3.279-.206 16.349-.604 30.718-.663l.281-.003z"/>
</svg>
