<svg version="1.2" baseProfile="tiny" xmlns="http://www.w3.org/2000/svg" width="598.189" height="350.26" xml:space="preserve">
    <path fill="#F4F4F4" d="M182.867 338.215c-14.245-.002-25.792-11.549-25.794-25.794V48.52c.002-14.245 11.549-25.792 25.794-25.794h233.782c14.245.002 25.792 11.549 25.792 25.794v263.901c0 14.245-11.547 25.792-25.792 25.794H182.867zM159.074 48.52v263.901c.023 13.141 10.653 23.769 23.793 23.792h233.782c13.141-.023 23.769-10.651 23.792-23.792V48.52c-.023-13.14-10.651-23.769-23.792-23.792H182.867c-13.14.023-23.77 10.651-23.793 23.792z"/>
    <path fill="#F4F4F4" d="M186.237 194.302c-.002-18.663 4.614-36.214 12.452-51.807 1.128-2.507 1.585-4.7 1.585-6.701.006-4.4-2.233-8.056-5.031-11.888-2.818-3.89-8.196-8.733-16.787-19.029-5.747-6.888-9.485-15.64-9.485-25.361.002-21.345 17.305-38.648 38.65-38.65 14.664.002 27.068 8.356 33.937 20.142 5.403 9.333 10.979 18.705 17.652 21.122 3.67 1.366 6.47 1.841 9.08 1.841 2.415 0 4.694-.412 7.348-.967 7.914-1.655 16.112-2.651 24.546-2.651 62.933.002 113.949 51.019 113.949 113.949 0 62.933-51.017 113.949-113.949 113.949-62.931 0-113.947-51.017-113.947-113.949zm14.257-50.946c-7.722 15.35-12.257 32.598-12.257 50.945 0 30.918 12.529 58.898 32.788 79.16 20.263 20.261 48.244 32.788 79.16 32.788 30.918 0 58.898-12.527 79.16-32.788 20.261-20.262 32.788-48.244 32.788-79.16 0-30.916-12.527-58.896-32.788-79.16-20.262-20.259-48.244-32.788-79.16-32.788-8.277 0-16.335.976-24.136 2.607-2.677.56-5.11 1.011-7.757 1.011-2.862 0-5.942-.537-9.778-1.968-7.771-2.969-13.216-12.696-18.682-21.989-6.566-11.246-18.331-19.15-32.209-19.147-10.125 0-19.279 4.099-25.915 10.734-6.635 6.635-10.734 15.79-10.734 25.914 0 9.201 3.529 17.495 9.019 24.081 8.535 10.235 13.81 14.944 16.868 19.133 2.825 3.879 5.409 7.941 5.413 13.064.002 2.311-.535 4.803-1.761 7.523l-.911-.41.892.45z"/>
    <path fill="#F4F4F4" d="M205.704 194.271c.002-52.179 42.301-94.479 94.482-94.479s94.479 42.301 94.481 94.479c-.002 52.181-42.301 94.481-94.481 94.483-52.182-.002-94.48-42.303-94.482-94.483zm29.088-65.394c-16.739 16.739-27.087 39.852-27.087 65.393 0 25.541 10.349 48.656 27.087 65.396 16.737 16.736 39.852 27.088 65.394 27.088 25.541 0 48.656-10.352 65.393-27.088 16.737-16.739 27.088-39.854 27.088-65.396 0-25.541-10.351-48.654-27.088-65.393-16.736-16.737-39.852-27.088-65.393-27.088-25.542.001-48.657 10.352-65.394 27.088z"/>
    <path fill="#F4F4F4" d="M253.271 194.271c0-25.909 21.004-46.912 46.914-46.914 25.911.002 46.915 21.005 46.915 46.914 0 25.911-21.004 46.914-46.915 46.916-25.911-.002-46.914-21.005-46.914-46.916zm15.155-31.759c-8.13 8.132-13.153 19.354-13.155 31.759.002 12.407 5.025 23.629 13.155 31.761 8.13 8.128 19.354 13.153 31.759 13.153 12.405 0 23.627-5.025 31.76-13.153 8.13-8.132 13.155-19.355 13.155-31.761 0-12.405-5.025-23.627-13.155-31.759-8.133-8.128-19.354-13.154-31.76-13.154-12.405 0-23.629 5.026-31.759 13.154z"/>
    <path fill="#F4F4F4" d="M218.989 194.271c0-44.844 36.353-81.195 81.196-81.197 44.845.002 81.195 36.353 81.197 81.197-.002 44.844-36.353 81.196-81.197 81.196-44.844.001-81.196-36.352-81.196-81.196zm25.197-56c-14.334 14.336-23.197 34.128-23.197 56 0 21.873 8.863 41.664 23.197 55.999 14.333 14.334 34.128 23.197 55.999 23.197 21.873 0 41.665-8.863 56.001-23.197 14.332-14.335 23.194-34.128 23.194-55.999 0-21.873-8.862-41.665-23.194-56-14.336-14.334-34.128-23.197-56.001-23.197-21.873 0-41.666 8.863-55.999 23.197z"/>
    <path fill="#F4F4F4" d="M231.354 194.271c.002-38.014 30.817-68.829 68.831-68.832 38.013.002 68.83 30.817 68.83 68.832 0 38.013-30.817 68.83-68.83 68.83-38.014.001-68.829-30.817-68.831-68.83zm21.575-47.256c-12.095 12.098-19.574 28.799-19.574 47.257s7.479 35.158 19.574 47.255c12.097 12.096 28.797 19.574 47.256 19.576 18.458-.002 35.158-7.48 47.256-19.576 12.095-12.097 19.573-28.799 19.575-47.255-.002-18.458-7.48-35.159-19.575-47.257-12.098-12.095-28.8-19.574-47.256-19.574-18.458 0-35.159 7.478-47.256 19.574z"/>
    <path fill="#F4F4F4" d="M241.394 194.271c.002-32.469 26.322-58.791 58.791-58.791 32.469 0 58.789 26.322 58.789 58.791h.002c-.002 32.469-26.322 58.79-58.791 58.79-32.469.001-58.789-26.321-58.791-58.79zm18.635-40.156c-10.279 10.279-16.634 24.471-16.634 40.156 0 15.686 6.354 29.877 16.634 40.156 10.279 10.278 24.471 16.634 40.156 16.634 15.686 0 29.877-6.355 40.156-16.634s16.634-24.471 16.634-40.156c0-15.686-6.354-29.877-16.634-40.156-10.279-10.279-24.471-16.634-40.156-16.634-15.685 0-29.877 6.355-40.156 16.634zM179.625 78.292c.002-15.497 12.562-28.057 28.059-28.059 15.498.002 28.059 12.562 28.059 28.059 0 15.497-12.562 28.059-28.059 28.059-15.498 0-28.058-12.561-28.059-28.059zm2 0c.025 14.392 11.667 26.033 26.058 26.058 14.392-.024 26.033-11.666 26.06-26.058-.027-14.392-11.668-26.033-26.06-26.058-14.391.025-26.033 11.667-26.058 26.058z"/>
    <path fill="#F4F4F4" d="M286.464 228.397v-1.001l.708-.708-.708.708v1.001h-.414l-19.99-19.992v-28.271l19.99-19.988h28.269l19.992 19.988v28.272l-19.99 19.99h-27.857v.001zm27.027-2.001 18.819-18.82v-26.61l-18.819-18.818h-26.613l-18.817 18.816v26.612l18.819 18.82h26.611z"/>
    <path fill="#F4F4F4" d="M290.8 194.271c0-5.185 4.2-9.387 9.384-9.387 5.186 0 9.389 4.202 9.389 9.387 0 5.186-4.203 9.386-9.389 9.386a9.384 9.384 0 0 1-9.384-9.386zm1.999 0a7.396 7.396 0 0 0 7.385 7.387 7.4 7.4 0 0 0 7.39-7.387 7.402 7.402 0 0 0-7.39-7.388 7.397 7.397 0 0 0-7.385 7.388zM267.09 93.968l11.59-3.105 1.584 5.913-11.59 3.106zM250.19 101.231l10.876-5.072 2.588 5.548-10.876 5.073zM234.78 111.33l9.829-6.882 3.511 5.014-9.828 6.883zM221.377 123.952l8.484-8.485 4.33 4.33-8.485 8.484zM210.36 138.712l6.883-9.829 5.015 3.512-6.883 9.828zM202.072 155.136l5.07-10.874 5.549 2.587-5.07 10.875zM196.77 172.777l3.105-11.59 5.913 1.585-3.105 11.59zM201.759 179.639l-1.046 11.954-11.21-.412 5.652-6.305.506-5.772zM200.713 196.952l1.046 11.954-6.098.534-.58-6.622-5.578-5.515zM199.875 227.366l-3.105-11.591 5.913-1.584 3.106 11.59zM207.158 244.282l-5.07-10.875 5.548-2.587 5.07 10.875zM217.239 259.678l-6.883-9.828 5.014-3.511 6.883 9.828zM229.874 273.083l-8.485-8.484 4.329-4.329 8.485 8.485zM244.608 284.095l-9.83-6.881 3.512-5.015 9.83 6.881zM261.051 292.385l-10.875-5.07 2.587-5.547 10.874 5.07zM278.699 297.69l-11.591-3.105 1.584-5.913 11.591 3.105zM285.553 292.699l11.953 1.046-.136 9.527-6.06-3.924-6.291-.55zM302.866 293.745l11.954-1.046.534 6.099-6.226.544-6.125 3.93zM333.283 294.586l-11.59 3.106-1.585-5.913 11.59-3.105zM350.195 287.31l-10.876 5.072-2.587-5.549 10.876-5.07zM365.56 277.214l-9.83 6.883-3.511-5.014 9.83-6.883zM378.997 264.593l-8.485 8.485-4.33-4.33 8.486-8.484zM389.983 249.845l-6.883 9.83-5.015-3.511 6.883-9.83zM398.315 233.389l-5.07 10.875-5.548-2.586 5.07-10.876zM403.608 215.763l-3.105 11.59-5.913-1.585 3.105-11.59zM398.613 208.905l1.046-11.953 10.477.351-4.865 5.734-.56 6.402zM399.659 191.592l-1.047-11.953 6.1-.535.485 5.553 5.183 6.647zM400.498 161.184l3.107 11.59-5.915 1.585-3.106-11.59zM393.208 144.264l5.07 10.875-5.547 2.587-5.071-10.875zM383.134 128.893l6.884 9.83-5.016 3.512-6.883-9.83zM370.507 115.462l8.485 8.485-4.33 4.33-8.485-8.485zM355.75 104.452l9.832 6.883-3.512 5.016-9.83-6.883zM339.316 96.155l10.874 5.071-2.587 5.548-10.875-5.07zM321.677 90.855l11.59 3.105-1.585 5.914-11.59-3.105z"/>
</svg>
