<svg height="350.26" width="598.189" xmlns="http://www.w3.org/2000/svg">
    <g fill="#f4f4f4">
        <path d="M228.53 10.779v.924l1.099 189.347h1.849l-1.1-188.447h135.508l-1.1 188.447h1.823l1.1-189.347v-.924H229.455z"/>
        <path d="m231.453 200.949-1.823.2 15.39 137.706.099.825h35.2v-1.823h-33.577zM364.787 200.949l-15.29 136.908h-33.526v1.823h35.176l.075-.825 15.389-137.706zM255.461 222.86c-1.159 0-2.148.928-2.148 2.099v18.013c0 1.169.989 2.098 2.148 2.098h24.009c.804 0 1.406-.507 1.774-1.175h.375v-18.936c0-1.171-.964-2.099-2.124-2.099zm0 1.824h24.034c.199 0 .3.126.3.275v18.013c0 .147-.125.274-.325.274h-24.009c-.2 0-.324-.127-.324-.274v-18.013c0-.149.125-.275.324-.275z"/>
        <g stroke="#eaeaea" stroke-width="1.831">
            <path d="M273.416 45.92a.849.849 0 0 1-.862.836h-25.279c-.477 0-.864-.373-.864-.836V26.702c0-.463.386-.836.864-.836h25.279a.85.85 0 0 1 .862.836zM311.629 45.92c0 .463-.387.836-.864.836h-25.278a.849.849 0 0 1-.862-.836V26.702c0-.463.386-.836.862-.836h25.278a.85.85 0 0 1 .864.836zM349.843 45.92a.85.85 0 0 1-.863.836H323.7c-.476 0-.864-.373-.864-.836V26.702c0-.463.389-.836.864-.836h25.279a.85.85 0 0 1 .863.836V45.92z"/>
        </g>
        <path d="M286.466 222.86c-1.16 0-2.149.928-2.149 2.099v18.013c0 1.169.989 2.098 2.149 2.098h24.033c.804 0 1.383-.51 1.749-1.175h.4v-18.936c0-1.169-.99-2.099-2.149-2.099zm0 1.824h24.033c.199 0 .301.125.301.275v18.013c0 .148-.102.274-.301.274h-24.033c-.2 0-.326-.127-.326-.274v-18.013c.001-.149.126-.275.326-.275zM316.87 222.86c-1.159 0-2.147.93-2.147 2.099v18.013c0 1.167.988 2.098 2.147 2.098h24.033c1.159 0 2.124-.931 2.124-2.098v-18.013c0-1.169-.965-2.099-2.124-2.099zm0 1.824h24.033c.197 0 .299.125.299.275v18.013c0 .148-.102.274-.299.274H316.87c-.201 0-.325-.126-.325-.274v-18.013c0-.15.124-.275.325-.275zM255.461 250.217c-1.159 0-2.148.928-2.148 2.098v18.013c0 1.17.989 2.1 2.148 2.1h24.009c.806 0 1.409-.528 1.774-1.199h.375v-18.913c0-1.17-.964-2.098-2.124-2.098h-24.034zm0 1.823h24.034c.199 0 .3.126.3.274V270.327c0 .15-.125.274-.325.274h-24.009c-.2 0-.324-.124-.324-.274v-18.013c0-.148.125-.274.324-.274zM286.466 250.217c-1.16 0-2.149.928-2.149 2.098v18.013c0 1.17.989 2.1 2.149 2.1h24.033c.806 0 1.385-.531 1.749-1.199h.4v-18.913c0-1.168-.99-2.098-2.149-2.098h-24.033zm0 1.823h24.033c.199 0 .301.125.301.274V270.327c0 .151-.102.274-.301.274h-24.033c-.2 0-.326-.124-.326-.274v-18.013c.001-.148.126-.274.326-.274zM316.87 250.217c-1.159 0-2.147.93-2.147 2.098v18.013c0 1.169.988 2.1 2.147 2.1h24.033c1.159 0 2.124-.931 2.124-2.1v-18.013c0-1.168-.965-2.098-2.124-2.098zm0 1.823h24.033c.197 0 .299.125.299.274v18.013c0 .151-.102.274-.299.274H316.87c-.201 0-.325-.123-.325-.274v-18.013c0-.149.124-.274.325-.274zM255.461 275.474c-1.159 0-2.148.953-2.148 2.124v17.988c0 1.168.989 2.122 2.148 2.122h24.009c.804 0 1.406-.533 1.774-1.198h.375v-18.912a2.134 2.134 0 0 0-2.124-2.124zm0 1.823h24.034c.199 0 .3.152.3.301v17.988c0 .149-.125.274-.325.274h-24.009c-.2 0-.324-.125-.324-.274v-17.988c0-.149.125-.301.324-.301zM286.466 275.474c-1.16 0-2.149.953-2.149 2.124v17.988c0 1.168.989 2.122 2.149 2.122h24.033c.804 0 1.383-.534 1.749-1.198h.4v-18.912c0-1.169-.99-2.124-2.149-2.124zm0 1.823h24.033c.199 0 .301.151.301.301v17.988c0 .15-.102.274-.301.274h-24.033c-.2 0-.326-.125-.326-.274v-17.988a.313.313 0 0 1 .326-.301zM316.87 275.474c-1.159 0-2.147.955-2.147 2.124v17.988c0 1.168.988 2.122 2.147 2.122h24.033a2.135 2.135 0 0 0 2.124-2.122v-17.988a2.136 2.136 0 0 0-2.124-2.124zm0 1.823h24.033c.197 0 .299.151.299.301v17.988c0 .15-.102.274-.299.274H316.87c-.201 0-.325-.124-.325-.274v-17.988c0-.15.124-.301.325-.301zM255.461 300.382c-1.159 0-2.148.956-2.148 2.124v17.988c0 1.169.989 2.098 2.148 2.098h24.009c.804 0 1.406-.509 1.774-1.175h.375v-18.911a2.136 2.136 0 0 0-2.124-2.124zm0 1.824h24.034c.199 0 .3.15.3.3V320.495c0 .148-.125.274-.325.274h-24.009c-.2 0-.324-.126-.324-.274v-17.988c0-.151.125-.301.324-.301zM286.466 300.382c-1.16 0-2.149.956-2.149 2.124v17.988c0 1.169.989 2.098 2.149 2.098h24.033c.804 0 1.383-.512 1.749-1.175h.4v-18.911c0-1.168-.99-2.124-2.149-2.124zm0 1.824h24.033c.199 0 .301.148.301.3V320.495c0 .148-.102.274-.301.274h-24.033c-.2 0-.326-.126-.326-.274v-17.988c.001-.151.126-.301.326-.301zM316.87 300.382c-1.159 0-2.147.956-2.147 2.124v17.988c0 1.168.988 2.098 2.147 2.098h24.033c1.159 0 2.124-.93 2.124-2.098v-17.988a2.136 2.136 0 0 0-2.124-2.124zm0 1.824h24.033c.197 0 .299.148.299.3v17.988c0 .148-.102.274-.299.274H316.87c-.201 0-.325-.126-.325-.274v-17.988c0-.152.124-.3.325-.3zM279.271 325.766v15.389H316.995v-15.389H280.17zm1.824 1.823h34.051v11.717h-34.051zM230.729 180.712v1.851h135.158v-1.851zM230.729 201.224v1.85h135.158v-1.85zM300.526 149.218a1.032 1.032 0 0 0-1.026-.97 1.03 1.03 0 0 0-1.025.97l-.062.91-.91-.056a31.392 31.392 0 0 1-12.036-3.22l-.819-.406.404-.817a1.06 1.06 0 0 0 .111-.469 1.022 1.022 0 0 0-1.022-1.027c-.336 0-.667.165-.867.466l-.508.761-.762-.507a31.805 31.805 0 0 1-8.808-8.807l-.506-.761.76-.508c.301-.2.466-.533.466-.869a1.025 1.025 0 0 0-1.03-1.021c-.157 0-.312.035-.462.109l-.821.407-.407-.819a31.412 31.412 0 0 1-3.217-12.036l-.058-.91.91-.06c.545-.037.97-.481.97-1.025 0-.547-.425-.991-.97-1.028l-.91-.062.058-.91a31.362 31.362 0 0 1 3.217-12.034l.407-.817.817.405c.15.074.31.109.466.109a1.023 1.023 0 0 0 1.03-1.024c0-.334-.165-.667-.464-.865l-.764-.508.508-.761a31.751 31.751 0 0 1 8.806-8.809l.762-.51.51.764c.198.299.528.466.865.466a1.023 1.023 0 0 0 1.022-1.028 1.03 1.03 0 0 0-.107-.464l-.406-.821.819-.407a31.445 31.445 0 0 1 12.034-3.219l.91-.058.062.913c.04.544.481.972 1.028.97.542.002.989-.425 1.026-.97l.06-.91.91.056a31.445 31.445 0 0 1 12.036 3.219l.827.411-.419.825a1.023 1.023 0 0 0 .408 1.346.996.996 0 0 0 .51.138c.338-.002.666-.167.866-.466l.508-.764.764.51a31.817 31.817 0 0 1 8.805 8.806l.51.764-.766.508c-.3.198-.465.528-.465.867 0 .171.042.343.141.51.188.331.526.51.89.512.159 0 .315-.035.466-.109l.817-.405.409.817a31.402 31.402 0 0 1 3.217 12.034l.059.912-.91.06a1.03 1.03 0 0 0-.971 1.028c0 .544.424.988.971 1.025l.908.06-.057.912a31.38 31.38 0 0 1-3.217 12.034l-.409.821-.819-.409a1.016 1.016 0 0 0-.464-.109c-.361.002-.697.18-.892.512l-.793-.456.789.464a.973.973 0 0 0-.135.501c0 .334.167.667.469.867l.764.507-.508.764a31.808 31.808 0 0 1-8.809 8.807l-.762.505-.507-.757a1.04 1.04 0 0 0-.867-.468 1.024 1.024 0 0 0-1.026 1.03c0 .155.035.312.111.464l.406.819-.819.409a31.388 31.388 0 0 1-12.034 3.217l-.912.056zm-3.668-1.031a2.858 2.858 0 0 1 5.284 0 29.5 29.5 0 0 0 9.886-2.642 2.853 2.853 0 0 1 1.406-2.861 2.847 2.847 0 0 1 3.175.214 29.93 29.93 0 0 0 7.238-7.236 2.865 2.865 0 0 1-.6-1.753c0-.478.122-.975.386-1.423l-.002-.001a2.857 2.857 0 0 1 2.862-1.404 29.597 29.597 0 0 0 2.644-9.887 2.859 2.859 0 0 1 0-5.287 29.58 29.58 0 0 0-2.645-9.888 2.856 2.856 0 0 1-2.647-4.577 29.988 29.988 0 0 0-7.237-7.238 2.876 2.876 0 0 1-1.75.596c-.485 0-.98-.124-1.424-.382a2.852 2.852 0 0 1-1.406-2.86 29.578 29.578 0 0 0-9.888-2.643 2.858 2.858 0 0 1-2.64 1.771 2.864 2.864 0 0 1-2.644-1.771 29.555 29.555 0 0 0-9.889 2.644 2.86 2.86 0 0 1-1.403 2.859 2.835 2.835 0 0 1-1.426.382 2.876 2.876 0 0 1-1.75-.596 29.935 29.935 0 0 0-7.236 7.239 2.855 2.855 0 0 1 .212 3.175 2.852 2.852 0 0 1-2.86 1.402 29.548 29.548 0 0 0-2.643 9.888 2.86 2.86 0 0 1 .001 5.287 29.572 29.572 0 0 0 2.643 9.887 2.862 2.862 0 0 1 3.243 2.828c0 .631-.209 1.248-.597 1.751a29.953 29.953 0 0 0 7.237 7.238 2.848 2.848 0 0 1 3.177-.214 2.855 2.855 0 0 1 1.4 2.861 29.666 29.666 0 0 0 9.893 2.641z"/>
        <path d="M299.507 65.167c-29.471 0-53.389 23.917-53.389 53.389 0 29.471 23.917 53.388 53.389 53.388 29.473 0 53.364-23.917 53.364-53.388 0-29.472-23.892-53.389-53.364-53.389zm0 1.824c28.482 0 51.539 23.083 51.539 51.565 0 28.481-23.057 51.54-51.539 51.54-28.481 0-51.565-23.059-51.565-51.54 0-28.482 23.083-51.565 51.565-51.565z"/>
        <path d="M299.507 71.938c-25.729 0-46.619 20.889-46.619 46.618s20.89 46.593 46.619 46.593 46.593-20.865 46.593-46.593c0-25.729-20.864-46.618-46.593-46.618zm0 1.848c24.74 0 44.769 20.03 44.769 44.77 0 24.739-20.028 44.769-44.769 44.769-24.74 0-44.794-20.03-44.794-44.769-.001-24.74 20.054-44.77 44.794-44.77z"/>
        <path d="M299.507 95.671c-12.631 0-22.909 10.253-22.909 22.885 0 12.631 10.278 22.884 22.909 22.884s22.885-10.253 22.885-22.884c0-12.632-10.254-22.885-22.885-22.885zm0 1.824c11.643 0 21.061 9.419 21.061 21.062 0 11.642-9.418 21.06-21.061 21.06-11.641 0-21.061-9.418-21.061-21.06 0-11.643 9.42-21.062 21.061-21.062zM235.925 15.426V60.22h124.416V15.427H235.925zm1.824 1.824h120.742v41.146H237.749z"/>
        <path d="M240.747 20.173V52.3H355.518V20.173H241.671zm1.823 1.848h111.1v28.431h-111.1zM229.929 10.905l-.95 1.574 7.496 4.646.974-1.574z"/>
        <path d="m237.474 15.675-1.273 1.299 4.821 4.772 1.273-1.299zM366.312 10.929l-7.395 4.622.975 1.549 7.395-4.621z"/>
        <path d="m358.566 15.701-4.621 4.747 1.299 1.299 4.647-4.772zM355.37 50.902l-1.575.95 4.646 7.794 1.574-.925zM240.872 50.902l-4.821 7.919 1.574.975 4.822-7.944zM366.711 32.115v1.823h2.024c.311 0 .557.059.698.201.145.141.387.529.227 1.699-.112.805-.235 2.784-.375 5.545a1243.3 1243.3 0 0 0-.45 9.668c-.297 6.905-.566 13.886-.65 15.065-.094 1.311-.157 2.444-.399 3.123-.239.679-.425.965-1.45 1.074l.201 1.799c1.54-.165 2.572-1.119 2.973-2.248.4-1.131.411-2.371.499-3.624.101-1.385.354-8.19.651-15.09.148-3.45.31-6.917.449-9.668.141-2.751.277-4.874.35-5.396.205-1.484-.064-2.588-.726-3.248-.658-.66-1.483-.724-1.997-.724h-2.025zM227.306 32.115c-.514 0-1.339.064-1.999.724-.659.66-.929 1.763-.724 3.248.072.523.21 2.645.35 5.396.141 2.752.302 6.219.449 9.668.298 6.9.552 13.705.649 15.09.09 1.253.1 2.493.501 3.624.4 1.129 1.432 2.083 2.973 2.248l.2-1.799c-1.024-.109-1.209-.396-1.449-1.074-.241-.679-.306-1.812-.4-3.123-.083-1.179-.351-8.16-.649-15.065-.148-3.452-.31-6.907-.45-9.668-.141-2.761-.264-4.741-.375-5.545-.161-1.169.083-1.558.225-1.699.142-.142.389-.201.699-.201h2.023v-1.823h-2.023zM266.13 330.361h10.518v3.747H266.13zM319.38 330.361h10.518v3.747H319.38z"/>
    </g>
</svg>
