<svg height="349.647" width="569.055" xmlns="http://www.w3.org/2000/svg">
    <g fill="#f4f4f4" fill-opacity=".5">
        <path d="M91.466 91.668q0 .32-.077.538-.115.326-.368.326-.168 0-.352-.078-.222-.093-.243-.23.075 0 .176.028.235.06.293.06.227 0 .342-.226.09-.181.09-.434 0-.18-.117-.51-.115-.333-.115-.464 0-.04.022-.064.024-.026.064-.026.104 0 .202.48.083.405.083.6zM92.493 91.94q0 .272-.158.426-.157.155-.434.155-.152 0-.235-.072-.083-.072-.083-.221 0-.211.275-.424.261-.203.483-.203.1 0 .133.125.019.072.019.214zm-.163.074q0-.032-.008-.061-.005-.032-.021-.072-.043.03-.142.144-.05.059-.088.085 0-.05.01-.082l.036-.078q-.118 0-.246.099-.125.099-.125.213 0 .078.085.078.163 0 .315-.08.184-.096.184-.246zM93.591 92.049q0 .13-.098.293-.112.184-.232.184-.035 0-.06-.037-.02-.04-.02-.077 0-.048.1-.15.105-.104.105-.141 0-.024-.008-.048l-.01-.032q-.2.045-.409.23-.205.183-.312.207-.021-.058-.021-.12 0-.074.035-.157.024-.059.08-.141.093-.142.197-.32l.184-.323q.133-.23.195-.325.032-.048.056-.072.034-.032.082-.043.032.01.046.04.016.03.016.07 0 .09-.118.245-.213.277-.218.288-.12.18-.12.328l.005.026q.146-.072.173-.082.11-.046.187-.046.085 0 .125.059.04.056.04.144zM94.829 91.892q0 .18-.088.386-.096.227-.238.312-.03-.034-.05-.077-.02-.043-.02-.085 0-.046.134-.27.059-.098.054-.173l-.003-.035q-.099.03-.342.179l-.485.299q-.037 0-.07-.027-.029-.03-.029-.064 0-.056.18-.376.052-.096.191-.333.043.056.056.125.013.067.013.16v.061q.246-.146.384-.221.152-.083.208-.083.038 0 .07.085.034.086.034.136zM97.146 92.409q0 .048-.043.075-.04.024-.09.024-.046 0-.115-.011-.157-.024-.203-.024-.08 0-.314.019-.134.01-.192.01-.163 0-.163-.162 0-.155.101-.443.056-.163.21-.533.14-.334.177-.47.013-.042.021-.056.022-.032.054-.032.05 0 .085.075.035.072.035.13 0 .094-.11.315-.11.219-.213.43-.115.25-.115.38 0 .068.056.094.04.019.118.019.058 0 .202-.013.144-.016.192-.016.12 0 .198.034.109.048.109.155zM98.138 91.94q0 .272-.157.426-.158.155-.435.155-.152 0-.235-.072-.082-.072-.082-.221 0-.211.274-.424.262-.203.483-.203.101 0 .133.125.019.072.019.214zm-.163.074q0-.032-.008-.061-.005-.032-.021-.072-.043.03-.141.144-.051.059-.088.085 0-.05.01-.082.022-.046.035-.078-.117 0-.245.099-.126.099-.126.213 0 .078.086.078.162 0 .314-.08.184-.096.184-.246zM99.26 91.884q0 .085-.045.18-.042.097-.11.16l-.002-.036q0-.032.008-.1.008-.066.008-.098 0-.045-.013-.067-.013-.024-.056-.024-.126 0-.312.195l-.403.424q-.016 0-.032-.003l-.053-.013q.008-.096.067-.213.157-.318.162-.339l.032-.125q.01-.04.03-.083.02-.045.047-.08.03-.037.075-.056l.027.32.176-.144q.117-.093.203-.093.085 0 .138.056.054.056.054.138zM100.57 91.574q0 .112-.299.296-.288.176-.418.176-.062 0-.083-.042-.019-.043-.019-.12v-.072q.179 0 .326-.054.146-.053.256-.176-.08-.03-.163-.03-.195 0-.413.15-.24.163-.24.347 0 .176.24.245.037.01.45.075.243.037.243.13 0 .04-.088.065-.088.026-.224.026-.341 0-.539-.104-.261-.138-.261-.445 0-.32.32-.51.272-.16.619-.16.104 0 .189.049.104.058.104.154zM101.631 91.097q0 .059-.141.245-.141.187-.141.286 0 .05.058.1.134.118.134.145 0 .035-.024.067-.022.032-.056.032-.03 0-.083-.032-.037-.022-.144-.104l-.061.117q-.075.141-.102.205l-.08.246q-.07.165-.173.165l-.003-.061q0-.19.123-.448.024-.048.133-.248-.21-.115-.464-.115 0-.099.04-.144.043-.048.141-.048.09 0 .227.032l.133.032q.05-.016.139-.173.216-.38.293-.435.022.035.035.07.016.034.016.066zM102.615 92.049q0 .13-.098.293-.112.184-.232.184-.035 0-.06-.037-.02-.04-.02-.077 0-.048.1-.15.105-.104.105-.141 0-.024-.008-.048l-.01-.032q-.2.045-.409.23-.205.183-.312.207-.021-.058-.021-.12 0-.074.035-.157.024-.059.08-.141.093-.142.197-.32l.184-.323q.133-.23.195-.325.032-.048.056-.072.034-.032.082-.043.032.01.046.04.016.03.016.07 0 .09-.118.245-.213.277-.218.288-.12.18-.12.328l.005.026q.146-.072.173-.082.11-.046.187-.046.085 0 .125.059.04.056.04.144zM104.805 91.18q0 .125-.134.336-.085.133-.28.384-.194.248-.242.325l.2.064q.194.059.194.213-.08.014-.157.024l-.03-.003v-.02q-.042-.012-.069-.012-.05 0-.16.016t-.165.016q-.072 0-.117-.026-.046-.027-.046-.096 0-.056.206-.318.384-.488.386-.493.208-.283.208-.379 0-.037-.026-.056-.024-.018-.1-.018-.05 0-.21.098-.077.048-.125.048l-.045-.008q-.016-.01-.035-.04-.019-.032-.019-.05 0-.112.216-.206.184-.08.32-.08.115 0 .176.086.054.074.054.194zM106.407 91.66q0 .322-.35.57-.32.227-.658.227-.168 0-.266-.085-.1-.086-.1-.248 0-.363.318-.63.302-.253.675-.253.19 0 .285.112.096.112.096.307zm-.162.06q0-.122-.14-.183-.103-.045-.247-.045-.21 0-.44.205t-.23.413q0 .086.043.123.046.035.136.035.262 0 .544-.144.334-.171.334-.403zM107.629 91.18q0 .125-.134.336-.085.133-.28.384-.194.248-.242.325l.2.064q.194.059.194.213-.08.014-.157.024l-.03-.003v-.02q-.042-.012-.069-.012-.05 0-.16.016-.109.016-.165.016-.072 0-.117-.026-.046-.027-.046-.096 0-.056.206-.318.384-.488.386-.493.208-.283.208-.379 0-.037-.026-.056-.024-.018-.1-.018-.05 0-.21.098-.077.048-.125.048l-.045-.008q-.016-.01-.035-.04-.019-.032-.019-.05 0-.112.216-.206.184-.08.32-.08.115 0 .176.086.054.074.054.194zM108.855 91.18q0 .125-.133.336-.085.133-.28.384-.195.248-.243.325l.2.064q.195.059.195.213-.08.014-.157.024l-.03-.003v-.02q-.042-.012-.07-.012-.05 0-.16.016-.108.016-.164.016-.072 0-.118-.026-.045-.027-.045-.096 0-.056.205-.318l.387-.493q.208-.283.208-.379 0-.037-.027-.056-.024-.018-.098-.018-.051 0-.211.098-.077.048-.125.048l-.046-.008q-.016-.01-.034-.04-.02-.032-.02-.05 0-.112.217-.206.184-.08.32-.08.115 0 .176.086.053.074.053.194z"/>
    </g>
    <path d="M82.5 94.131h25.155v21.438H82.5zM112.582 92.563h168.032v24.718H112.582z" fill="none" stroke="#f4f4f4" stroke-width="2"/>
    <g fill="none" stroke="#f4f4f4" stroke-width="2">
        <path d="M69.52.55v129.887a4.609 4.609 0 0 0 4.594 4.594h159.468l2 .063v18.844H31.302v56.812h7.312v55.406h72.062v28.563h261.875v-28.563h87.063V210.75h7.28v-56.813H333.24v-18.906H494.8a4.609 4.609 0 0 0 4.594-4.594V.394"/>
        <path d="m568.555 318.515-14.729-188.993-43.59-43.553M284.846.5h-15.743m15.425 348.647h253.38a30.58 30.58 0 0 0 30.647-30.647V31.147A30.58 30.58 0 0 0 537.908.5H284.846M.5 318.515l14.73-188.993L58.82 85.97M284.21.5h15.742m-15.424 348.647H31.148A30.58 30.58 0 0 1 .5 318.5V31.147A30.58 30.58 0 0 1 31.147.5H284.21"/>
        <path d="m58.864 1.5-.044 84.469h450.512V.5H58.864zM490.364 153.938h42.03v140.53h-42.03z"/>
    </g>
    <path d="m284.31 147.51 3.317-2.47 3.317-2.47h-13.268l3.317 2.47z" fill="#fff"/>
    <g stroke="#f4f4f4">
        <path d="M239.583 135.16h-1.114v18.684h92.063v-18.685h-.565l-.622.002v-5.41h-88.938v5.409H239.583" fill="none" stroke-width="2"/>
        <g fill="#fff">
            <path d="M73.864 3.656V33.5h4.875V3.656h-4.375zm1 1h2.875V32.5h-2.875zM80.457 3.656V33.5h4.875V3.656h-4.375zm1 1h2.875V32.5h-2.875zM87.051 3.656V33.5H91.957V3.656H87.551zm1 1h2.906V32.5h-2.906zM93.645 3.656V33.5H98.55V3.656H94.145zm1 1h2.906V32.5h-2.906zM100.27 3.656V33.5h4.875V3.656h-4.375zm1 1h2.875V32.5h-2.875zM106.864 3.656V33.5h4.875V3.656h-4.375zm1 1h2.875V32.5h-2.875zM113.457 3.656V33.5h4.907V3.656h-4.407zm1 1h2.907V32.5h-2.907zM120.051 3.656V33.5H124.957V3.656H120.551zm1 1h2.906V32.5h-2.906zM126.676 3.656V33.5h4.875V3.656h-4.375zm1 1h2.875V32.5h-2.875zM133.27 3.656V33.5h4.875V3.656h-4.375zm1 1h2.875V32.5h-2.875zM139.864 3.656V33.5H144.77V3.656H140.364zm1 1h2.906V32.5h-2.906zM146.457 3.656V33.5h4.907V3.656h-4.407zm1 1h2.907V32.5h-2.907zM153.082 3.656V33.5h4.875V3.656h-4.375zm1 1h2.875V32.5h-2.875zM159.676 3.656V33.5h4.875V3.656h-4.375zm1 1h2.875V32.5h-2.875zM166.27 3.656V33.5H171.176V3.656H166.77zm1 1h2.906V32.5h-2.906zM172.864 3.656V33.5H177.77V3.656H173.364zm1 1h2.906V32.5h-2.906zM179.489 3.656V33.5h4.875V3.656h-4.375zm1 1h2.875V32.5h-2.875zM186.082 3.656V33.5h4.907V3.656h-4.407zm1 1h2.907V32.5h-2.907zM192.676 3.656V33.5H197.582V3.656H193.176zm1 1h2.906V32.5h-2.906zM199.27 3.656V33.5H204.176V3.656H199.77zm1 1h2.906V32.5h-2.906zM205.895 3.656V33.5h4.875V3.656h-4.375zm1 1h2.875V32.5h-2.875zM212.489 3.656V33.5H217.395V3.656H212.989zm1 1h2.906V32.5h-2.906zM219.082 3.656V33.5h4.907V3.656h-4.407zm1 1h2.907V32.5h-2.907zM225.707 3.656V33.5h4.875V3.656h-4.375zm1 1h2.875V32.5h-2.875zM232.301 3.656V33.5h4.875V3.656h-4.375zm1 1h2.875V32.5h-2.875zM238.895 3.656V33.5H243.8V3.656H239.395zm1 1h2.906V32.5h-2.906zM245.489 3.656V33.5H250.395V3.656H245.989zm1 1h2.906V32.5h-2.906zM252.114 3.656V33.5h4.875V3.656h-4.375zm1 1h2.875V32.5h-2.875zM258.707 3.656V33.5h4.875V3.656h-4.375zm1 1h2.875V32.5h-2.875zM265.301 3.656V33.5H270.207V3.656H265.801zm1 1h2.906V32.5h-2.906zM271.895 3.656V33.5H276.8V3.656H272.395zm1 1h2.906V32.5h-2.906zM278.52 3.656V33.5h4.875V3.656h-4.375zm1 1h2.875V32.5h-2.875zM285.114 3.656V33.5h4.875V3.656h-4.375zm1 1h2.875V32.5h-2.875zM291.707 3.656V33.5h4.907V3.656h-4.407zm1 1h2.907V32.5h-2.907zM298.301 3.656V33.5H303.207V3.656H298.801zm1 1h2.906V32.5h-2.906zM304.926 3.656V33.5h4.875V3.656h-4.375zm1 1h2.875V32.5h-2.875zM311.52 3.656V33.5H316.426V3.656H312.02zm1 1h2.906V32.5h-2.906zM318.114 3.656V33.5H323.02V3.656H318.614zm1 1h2.906V32.5h-2.906zM324.707 3.656V33.5h4.907V3.656h-4.407zm1 1h2.907V32.5h-2.907zM331.332 3.656V33.5h4.875V3.656h-4.375zm1 1h2.875V32.5h-2.875zM337.926 3.656V33.5H342.832V3.656H338.426zm1 1h2.906V32.5h-2.906zM344.52 3.656V33.5H349.426V3.656H345.02zm1 1h2.906V32.5h-2.906zM351.145 3.656V33.5h4.875V3.656h-4.375zm1 1h2.875V32.5h-2.875zM357.739 3.656V33.5h4.875V3.656h-4.375zm1 1h2.875V32.5h-2.875zM364.332 3.656V33.5h4.907V3.656h-4.407zm1 1h2.907V32.5h-2.907zM370.926 3.656V33.5H375.832V3.656H371.426zm1 1h2.906V32.5h-2.906zM377.551 3.656V33.5h4.875V3.656h-4.375zm1 1h2.875V32.5h-2.875zM384.145 3.656V33.5h4.875V3.656h-4.375zm1 1h2.875V32.5h-2.875zM390.739 3.656V33.5H395.645V3.656H391.239zm1 1h2.906V32.5h-2.906zM397.332 3.656V33.5h4.907V3.656h-4.407zm1 1h2.907V32.5h-2.907zM403.957 3.656V33.5h4.875V3.656h-4.375zm1 1h2.875V32.5h-2.875zM410.551 3.656V33.5h4.875V3.656h-4.375zm1 1h2.875V32.5h-2.875zM417.145 3.656V33.5H422.05V3.656H417.645zm1 1h2.906V32.5h-2.906zM423.739 3.656V33.5H428.645V3.656H424.239zm1 1h2.906V32.5h-2.906zM430.364 3.656V33.5h4.875V3.656h-4.375zm1 1h2.875V32.5h-2.875zM436.957 3.656V33.5h4.907V3.656h-4.407zm1 1h2.907V32.5h-2.907zM443.551 3.656V33.5H448.457V3.656H444.051zm1 1h2.906V32.5h-2.906zM450.145 3.656V33.5H455.05V3.656H450.645zm1 1h2.906V32.5h-2.906zM456.77 3.656V33.5h4.875V3.656h-4.375zm1 1h2.875V32.5h-2.875zM463.364 3.656V33.5H468.27V3.656H463.864zm1 1h2.906V32.5h-2.906zM469.957 3.656V33.5h4.907V3.656h-4.407zm1 1h2.907V32.5h-2.907zM476.551 3.656V33.5H481.457V3.656H477.051zm1 1h2.906V32.5h-2.906zM483.176 3.656V33.5h4.875V3.656h-4.375zm1 1h2.875V32.5h-2.875zM489.77 3.656V33.5H494.676V3.656H490.27zm1 1h2.906V32.5h-2.906z"/>
        </g>
    </g>
    <g fill="none" stroke="#f4f4f4">
        <g stroke-width="2" transform="translate(-12.793 -11.531)">
            <path d="M132.382 278.844H376.02c1.427 0 2.562 1.148 2.562 2.594v16.375c0 1.443-1.134 2.593-2.562 2.593H132.382c-1.426 0-2.562-1.15-2.562-2.594v-16.375c0-1.444 1.135-2.593 2.562-2.593z"/>
            <rect height="21.563" rx="2.62" width="21.563" x="298.291" y="251.651"/>
            <rect height="21.563" rx="2.62" width="21.563" x="271.291" y="251.651"/>
            <rect height="21.563" rx="2.62" width="21.563" x="244.291" y="251.651"/>
            <rect height="21.563" rx="2.62" width="21.563" x="217.291" y="251.651"/>
            <rect height="21.563" rx="2.62" width="21.563" x="190.291" y="251.651"/>
            <rect height="21.563" rx="2.62" width="21.563" x="163.291" y="251.651"/>
            <rect height="21.563" rx="2.62" width="21.563" x="136.291" y="251.651"/>
            <rect height="21.563" rx="2.62" width="21.563" x="109.745" y="251.651"/>
            <rect height="21.563" rx="2.62" width="28.844" x="433.01" y="251.651"/>
            <rect height="21.563" rx="2.62" width="21.563" x="406.291" y="251.651"/>
            <rect height="21.563" rx="2.62" width="21.563" x="379.291" y="251.651"/>
            <rect height="21.563" rx="2.62" width="21.563" x="352.291" y="251.651"/>
            <rect height="21.563" rx="2.62" width="21.563" x="325.291" y="251.651"/>
            <rect height="21.563" rx="2.62" width="37.843" x="66.464" y="251.651"/>
            <rect height="21.563" rx="2.62" width="21.563" x="278.291" y="225.225"/>
            <rect height="21.563" rx="2.62" width="21.563" x="251.291" y="225.225"/>
            <rect height="21.563" rx="2.62" width="21.563" x="224.291" y="225.225"/>
            <rect height="21.563" rx="2.62" width="21.563" x="197.291" y="225.225"/>
            <rect height="21.563" rx="2.62" width="21.563" x="170.291" y="225.225"/>
            <rect height="21.563" rx="2.62" width="21.563" x="143.291" y="225.225"/>
            <rect height="21.563" rx="2.62" width="21.563" x="116.291" y="225.225"/>
            <rect height="21.563" rx="2.62" width="44.125" x="66.464" y="225.225"/>
            <rect height="21.563" rx="2.62" width="21.563" x="440.291" y="225.225"/>
            <rect height="21.563" rx="2.62" width="21.563" x="413.291" y="225.225"/>
            <rect height="21.563" rx="2.62" width="21.563" x="386.291" y="225.225"/>
            <rect height="21.563" rx="2.62" width="21.563" x="359.291" y="225.225"/>
            <rect height="21.563" rx="2.62" width="21.563" x="332.291" y="225.225"/>
            <rect height="21.563" rx="2.62" width="21.563" x="305.291" y="225.225"/>
            <rect height="21.563" rx="2.62" width="21.563" x="265.903" y="197.995"/>
            <rect height="21.563" rx="2.62" width="21.563" x="238.903" y="197.995"/>
            <rect height="21.563" rx="2.62" width="21.563" x="211.903" y="197.995"/>
            <rect height="21.563" rx="2.62" width="21.563" x="184.903" y="197.995"/>
            <rect height="21.563" rx="2.62" width="21.563" x="157.903" y="197.995"/>
            <rect height="21.563" rx="2.62" width="21.563" x="130.903" y="197.995"/>
            <rect height="21.563" rx="2.62" width="21.563" x="103.903" y="197.995"/>
            <rect height="21.563" rx="2.62" width="44.125" x="54.076" y="197.995"/>
            <rect height="21.563" rx="2.62" width="44.125" x="428.369" y="197.995"/>
            <rect height="21.563" rx="2.62" width="21.563" x="400.903" y="197.995"/>
            <rect height="21.563" rx="2.62" width="21.563" x="373.903" y="197.995"/>
            <rect height="21.563" rx="2.62" width="21.563" x="346.903" y="197.995"/>
            <rect height="21.563" rx="2.62" width="21.563" x="319.903" y="197.995"/>
            <rect height="21.563" rx="2.62" width="21.563" x="292.903" y="197.995"/>
            <rect height="21.563" rx="2.62" width="21.563" x="251.622" y="170.995"/>
            <rect height="21.563" rx="2.62" width="21.563" x="222.622" y="170.995"/>
            <rect height="21.563" rx="2.62" width="21.563" x="193.622" y="170.995"/>
            <rect height="21.563" rx="2.62" width="21.563" x="164.622" y="170.995"/>
            <rect height="21.563" rx="2.62" width="21.563" x="135.622" y="170.995"/>
            <rect height="21.563" rx="2.62" width="21.563" x="106.622" y="170.995"/>
            <rect height="21.563" rx="2.62" width="21.563" x="77.622" y="170.995"/>
            <rect height="21.563" rx="2.62" width="21.563" x="49.076" y="170.995"/>
            <rect height="21.563" rx="2.62" width="21.563" x="423.369" y="170.995"/>
            <rect height="21.563" rx="2.62" width="21.563" x="394.622" y="170.995"/>
            <rect height="21.563" rx="2.62" width="21.563" x="365.622" y="170.995"/>
            <rect height="21.563" rx="2.62" width="21.563" x="337.622" y="170.995"/>
            <rect height="21.563" rx="2.62" width="21.563" x="308.622" y="170.995"/>
            <rect height="21.563" rx="2.62" width="21.563" x="280.622" y="170.995"/>
            <rect height="21.563" rx="2.62" width="21.563" x="452.369" y="170.995"/>
        </g>
        <g stroke-width="1.983">
            <path d="M507.154 172.08h34.052v22.575h-34.052zM507.154 198.634h34.052v22.576h-34.052zM507.154 225.189h34.052v22.576h-34.052zM507.154 251.744h34.052v22.575h-34.052zM507.154 278.299h34.052v22.575h-34.052z" transform="matrix(1 0 0 1.01677 -12.793 -16.657)"/>
        </g>
    </g>
</svg>
