<svg version="1.2" baseProfile="tiny" xmlns="http://www.w3.org/2000/svg" width="598.189" height="350.26" xml:space="preserve">
    <path fill="#F4F4F4" d="M145.241 66.026c-1.594-.039-3.974.002-8.311.079-8.635.151-51.506.314-52.49.314-.692 0-1.526.268-2.229.97-.703.702-1.338 1.785-2.045 3.513-.23.562-.615 1.825-1.206 3.933a349.91 349.91 0 0 0-2.255 8.441 627.365 627.365 0 0 0-6.158 26.928c-4.362 21.162-8.548 47.105-8.548 67.988v5.217c0 20.885 4.186 46.826 8.548 67.986a620.575 620.575 0 0 0 6.161 26.9c.883 3.477 1.664 6.361 2.255 8.469s.977 3.371 1.206 3.934c.707 1.727 1.343 2.811 2.045 3.514.702.703 1.535.969 2.229.969.986 0 43.854.164 52.49.316 4.337.074 6.717.09 8.312.051s2.417-.158 3.435-.393c.59-.137 2.312-.623 4.693-1.311 2.382-.689 5.385-1.555 8.311-2.412a4500.05 4500.05 0 0 0 11.458-3.383l-.472-1.625s-5.606 1.664-11.458 3.383c-2.925.857-5.908 1.75-8.285 2.438-2.378.688-4.216 1.191-4.615 1.285-.961.221-1.568.328-3.094.367-1.525.037-3.922-.004-8.259-.08h-.026c-8.74-.158-51.344-.326-52.488-.326-.373 0-.61-.033-1.049-.473s-1.015-1.344-1.678-2.963c-.113-.275-.541-1.684-1.127-3.775a339.995 339.995 0 0 1-2.255-8.391c-1.759-6.928-3.96-16.295-6.135-26.848-4.35-21.102-8.521-46.984-8.521-67.641v-5.217c0-20.66 4.171-46.542 8.521-67.646 2.175-10.552 4.376-19.92 6.135-26.848.879-3.464 1.668-6.326 2.255-8.416s1.015-3.474 1.127-3.75c.663-1.62 1.239-2.524 1.678-2.962.439-.439.676-.472 1.049-.472 1.145 0 43.749-.162 52.49-.314h.026c4.338-.078 6.737-.118 8.264-.081 1.525.037 2.132.146 3.094.367l.176.052c.49.12 2.148.574 4.431 1.232a2022 2022 0 0 1 8.285 2.412c5.851 1.718 11.458 3.382 11.458 3.382l.472-1.6s-5.604-1.664-11.458-3.382c-2.926-.859-5.929-1.725-8.311-2.413-2.374-.688-4.094-1.174-4.69-1.311-1.015-.234-1.837-.38-3.432-.419l-.009.012z"/>
    <path fill="#F4F4F4" d="M145.551 62.696c-1.594-.039-4-.023-8.338.053-8.618.15-66.502.314-67.488.314-1.053 0-2.155.191-3.12.892-.965.7-1.745 1.832-2.438 3.592-.215.546-.599 1.816-1.18 3.906a366.777 366.777 0 0 0-2.203 8.39 606.373 606.373 0 0 0-6.083 26.927c-4.299 21.27-8.437 47.62-8.437 69.745v8.573c0 22.118 4.138 48.474 8.442 69.743a600.575 600.575 0 0 0 6.083 26.9c.869 3.457 1.622 6.326 2.202 8.416s.965 3.359 1.18 3.906c.693 1.76 1.473 2.893 2.438 3.592.964.701 2.067.893 3.12.893.985 0 58.87.137 67.488.287 4.337.076 6.743.117 8.338.08 1.594-.039 2.418-.16 3.435-.395.608-.141 2.416-.668 4.956-1.416 2.539-.746 5.726-1.709 8.861-2.646 6.272-1.879 12.296-3.697 12.296-3.697l-.478-1.586s-6.027 1.82-12.297 3.695c-3.134.939-6.327 1.904-8.861 2.648-2.535.746-4.469 1.275-4.851 1.363v.027c-.961.221-1.595.303-3.12.34-1.525.039-3.923-.002-8.259-.078-8.728-.152-66.368-.289-67.514-.289-.876 0-1.516-.135-2.124-.576-.607-.441-1.236-1.27-1.861-2.857-.115-.291-.551-1.678-1.128-3.75a347.946 347.946 0 0 1-2.202-8.338c-1.732-6.891-3.91-16.242-6.057-26.848-4.294-21.227-8.417-47.504-8.417-69.412v-8.574c0-21.906 4.123-48.219 8.416-69.429a601.573 601.573 0 0 1 6.057-26.822 354.672 354.672 0 0 1 2.203-8.364c.576-2.073 1.013-3.433 1.127-3.723.625-1.587 1.253-2.417 1.862-2.858.607-.441 1.248-.577 2.124-.577 1.145 0 58.785-.162 67.514-.314 4.336-.076 6.734-.09 8.259-.053 1.525.038 2.159.119 3.12.341.383.088 2.316.644 4.851 1.39 2.535.746 5.728 1.71 8.862 2.648 6.276 1.876 12.3 3.697 12.3 3.697l.472-1.626s-6.025-1.819-12.296-3.697c-3.136-.938-6.323-1.875-8.862-2.622-2.533-.748-4.346-1.275-4.95-1.416-1.015-.234-1.846-.354-3.44-.393l-.002-.002z"/>
    <path fill="#F4F4F4" d="m173.507 286.87-1.443.863c1.595 2.658 3.411 3.986 5.401 3.986H413.723c1.989 0 3.779-1.328 5.375-3.986l-1.442-.865c-1.452 2.408-2.685 3.172-3.936 3.172H177.46c-1.257 0-2.512-.762-3.959-3.174l.006.004z"/>
    <path fill="#F4F4F4" d="M445.916 66.026c-1.595.039-2.418.185-3.435.419-.591.136-2.311.623-4.693 1.311-2.382.688-5.358 1.553-8.285 2.412-5.854 1.718-11.458 3.382-11.458 3.382l.473 1.599s5.607-1.665 11.457-3.382c2.926-.859 5.908-1.726 8.285-2.412 2.378-.687 4.19-1.193 4.589-1.285.961-.222 1.595-.33 3.12-.367s3.923.003 8.259.079c8.713.152 51.372.314 52.517.314.373 0 .584.033 1.022.472.439.439 1.042 1.343 1.704 2.963.113.275.542 1.659 1.128 3.75.587 2.09 1.35 4.952 2.229 8.416a616.957 616.957 0 0 1 6.161 26.849c4.351 21.104 8.521 46.986 8.521 67.645v5.218c0 20.657-4.172 46.542-8.521 67.646a617.212 617.212 0 0 1-6.161 26.848 352.237 352.237 0 0 1-2.229 8.391c-.586 2.09-1.015 3.5-1.128 3.775-.662 1.619-1.265 2.523-1.704 2.963-.438.439-.648.471-1.022.471-1.145 0-43.804.164-52.517.316-4.336.074-6.733.113-8.259.078-1.525-.037-2.159-.146-3.12-.367-.399-.092-2.211-.598-4.589-1.285-2.377-.686-5.359-1.58-8.285-2.438-5.851-1.719-11.457-3.383-11.457-3.383l-.473 1.625s5.604 1.664 11.458 3.383c2.927.859 5.903 1.725 8.285 2.412s4.104 1.174 4.693 1.311c1.017.234 1.84.354 3.435.395 1.595.037 4 .021 8.338-.053 8.635-.152 51.504-.314 52.49-.314.692 0 1.525-.27 2.229-.971.702-.703 1.338-1.787 2.045-3.514.229-.563.615-1.826 1.206-3.934s1.347-4.992 2.229-8.469a624.27 624.27 0 0 0 6.161-26.9c4.361-21.16 8.573-47.102 8.573-67.985v-5.218c0-20.883-4.212-46.824-8.573-67.985a631.733 631.733 0 0 0-6.167-26.921 390.004 390.004 0 0 0-2.224-8.442c-.596-2.107-.981-3.371-1.208-3.933-.713-1.728-1.342-2.811-2.048-3.513-.702-.703-1.536-.97-2.229-.97-.984 0-43.854-.164-52.489-.315-4.338-.076-6.746-.117-8.341-.079l.008-.008z"/>
    <path fill="#F4F4F4" d="M445.631 62.696c-1.594.039-2.444.159-3.461.394-.606.14-2.416.668-4.955 1.416-2.539.747-5.726 1.683-8.862 2.622-6.275 1.877-12.299 3.697-12.299 3.697l.498 1.626s6.001-1.821 12.271-3.697c3.135-.938 6.327-1.902 8.861-2.648 2.535-.746 4.494-1.301 4.877-1.39.961-.222 1.568-.304 3.094-.341s3.922-.023 8.259.052c8.729.154 66.396.315 67.54.315.877 0 1.517.135 2.124.577s1.235 1.27 1.861 2.858c.114.291.525 1.65 1.101 3.723a354.672 354.672 0 0 1 2.203 8.364 598.933 598.933 0 0 1 6.083 26.822c4.293 21.211 8.416 47.52 8.416 69.428v8.574c0 21.908-4.123 48.191-8.416 69.402a601.49 601.49 0 0 1-6.083 26.848 349.744 349.744 0 0 1-2.203 8.338c-.575 2.072-.986 3.459-1.101 3.75-.625 1.586-1.254 2.416-1.861 2.857s-1.247.576-2.124.576c-1.146 0-58.811.135-67.54.289-4.337.076-6.734.115-8.259.078-1.525-.037-2.133-.119-3.094-.34v-.027c-.382-.088-2.342-.617-4.877-1.363-2.534-.746-5.728-1.709-8.861-2.648-6.27-1.875-12.271-3.695-12.271-3.695l-.498 1.598s6.024 1.82 12.296 3.697c3.137.939 6.322 1.9 8.861 2.648 2.54.746 4.348 1.275 4.956 1.416 1.017.234 1.866.354 3.461.393s3.973-.002 8.312-.078c8.617-.152 66.528-.289 67.514-.289 1.053 0 2.129-.189 3.094-.891s1.745-1.832 2.438-3.592c.216-.547.599-1.816 1.18-3.906a372.299 372.299 0 0 0 2.202-8.418 601.365 601.365 0 0 0 6.083-26.898c4.305-21.271 8.469-47.625 8.469-69.743v-8.573c0-22.12-4.164-48.474-8.469-69.743a602.892 602.892 0 0 0-6.083-26.927 359.7 359.7 0 0 0-2.202-8.39c-.581-2.09-.964-3.36-1.18-3.907-.694-1.76-1.474-2.892-2.438-3.592s-2.041-.892-3.094-.892c-.986 0-58.896-.163-67.514-.314-4.346-.086-6.729-.102-8.323-.063l.014.007z"/>
    <path fill="#F4F4F4" d="M176.15 72.187c-.829 0-1.673.022-2.491.472-.817.451-1.511 1.242-2.307 2.569v.053l-.026.026c-13.206 26.729-19.448 72.691-19.448 103.643v3.697c0 30.953 6.245 76.918 19.455 103.643l.026.025v.027c.796 1.326 1.49 2.119 2.308 2.568.817.451 1.662.473 2.491.473H415.04c.83 0 1.646-.021 2.465-.473.816-.449 1.51-1.242 2.307-2.568l.026-.027v-.025c13.197-26.723 19.474-72.691 19.474-103.643v-3.697c0-30.955-6.272-76.917-19.48-103.643v-.026l-.026-.053c-.797-1.327-1.49-2.119-2.308-2.569-.817-.45-1.635-.472-2.465-.472H176.15zm0 1.678h238.882c.795 0 1.226.028 1.652.262.416.229.95.761 1.651 1.914.016.026.01.026.026.052 12.945 26.235 19.271 72.151 19.271 102.854v3.696c0 30.698-6.333 76.593-19.271 102.829-.726 1.209-1.253 1.732-1.678 1.967-.426.234-.857.262-1.652.262H176.15c-.793 0-1.252-.027-1.678-.262-.41-.227-.941-.77-1.625-1.889-.005-.01-.021-.016-.026-.025-12.954-26.227-19.272-72.162-19.272-102.879v-3.697c0-30.725 6.334-76.682 19.297-102.913.693-1.137 1.212-1.687 1.625-1.914.425-.234.884-.262 1.678-.262l.001.005z"/>
    <path fill="#F4F4F4" d="M177.467 69.854c-1.991 0-3.807 1.352-5.401 4.011l1.442.865c1.448-2.413 2.703-3.199 3.959-3.199H413.723c1.255 0 2.485.786 3.933 3.199l1.443-.864c-1.603-2.66-3.39-4.012-5.378-4.012H177.465h.002zM453.166 177.22a296.897 296.897 0 0 0-3.442-44.23c-.111-.727.445-1.419 1.247-1.547.804-.127 1.548.366 1.66 1.099a299.333 299.333 0 0 1 3.476 46.164 298.887 298.887 0 0 1-3.476 44.768c-.113.736-.856 1.227-1.66 1.1-.802-.127-1.358-.816-1.247-1.543a297.072 297.072 0 0 0 3.442-44.23v-1.581zM459.777 177.294a306.117 306.117 0 0 0-3.555-45.667c-.115-.75.462-1.465 1.29-1.595.829-.131 1.597.375 1.714 1.133a308.655 308.655 0 0 1 3.588 47.664 308.671 308.671 0 0 1-3.588 46.229c-.117.758-.885 1.266-1.714 1.133-.828-.131-1.404-.844-1.288-1.596a306.635 306.635 0 0 0 3.553-45.666c.008-.654.008-.982.008-1.637l-.008.002zM144.998 177.22a295.975 295.975 0 0 1 3.441-44.23c.111-.727-.446-1.419-1.249-1.546-.802-.126-1.547.365-1.661 1.098a299.058 299.058 0 0 0 0 90.932c.114.736.857 1.229 1.661 1.102.803-.125 1.36-.818 1.249-1.545a296.006 296.006 0 0 1-3.441-44.23v-1.581z"/>
    <path fill="#F4F4F4" d="M138.386 177.294a306.668 306.668 0 0 1 3.552-45.667c.115-.75-.459-1.464-1.288-1.595s-1.598.375-1.714 1.133a308.663 308.663 0 0 0-3.586 47.664 309.066 309.066 0 0 0 3.586 46.229c.117.758.885 1.266 1.714 1.133s1.403-.844 1.288-1.596a306.244 306.244 0 0 1-3.552-45.666 34.356 34.356 0 0 1-.008-1.637l.008.002zM467.538 177.664a288.414 288.414 0 0 0-4.057-47.394c-.132-.776.452-1.529 1.31-1.679.856-.149 1.666.367 1.799 1.152a293.579 293.579 0 0 1 4.103 49.517 293.588 293.588 0 0 1-4.103 48.021c-.133.787-.942 1.303-1.799 1.152-.857-.148-1.443-.902-1.312-1.68a288.567 288.567 0 0 0 4.059-47.393c0-.672 0-1.015-.009-1.693l.009-.003zM476.33 177.53a300.895 300.895 0 0 0-4.229-49.409c-.138-.81.473-1.593 1.366-1.749.896-.157 1.735.382 1.873 1.2a304.193 304.193 0 0 1 4.275 51.622 304.524 304.524 0 0 1-4.274 50.061c-.139.822-.979 1.357-1.874 1.201-.894-.156-1.505-.938-1.367-1.752a300.403 300.403 0 0 0 4.229-49.406c-.008-.705-.008-1.057-.008-1.763l.009-.005zM487.565 177.697a287.82 287.82 0 0 0-4.804-51.422c-.156-.843.464-1.667 1.393-1.845.928-.177 1.811.37 1.969 1.223a291.008 291.008 0 0 1 4.863 53.779 290.863 290.863 0 0 1-4.863 52.152c-.157.852-1.041 1.4-1.969 1.223-.93-.176-1.548-1.002-1.393-1.846a287.894 287.894 0 0 0 4.804-51.422c.008-.738.008-1.107 0-1.846v.004zM500.259 177.538a304.3 304.3 0 0 0-5.081-54.396c-.165-.891.492-1.765 1.474-1.951.98-.187 1.917.391 2.084 1.293a308.263 308.263 0 0 1 5.143 56.888 308.012 308.012 0 0 1-5.144 55.168c-.167.902-1.103 1.482-2.083 1.295-.981-.189-1.639-1.061-1.474-1.953a303.93 303.93 0 0 0 5.081-54.395c.009-.771.009-1.167 0-1.947v-.002zM514.287 177.128a321.344 321.344 0 0 0-5.358-57.371 1.728 1.728 0 0 1 1.365-2.021c.932-.177 1.833.447 2.01 1.397a324.737 324.737 0 0 1 5.417 59.928 323.99 323.99 0 0 1-5.419 58.117c-.176.951-1.075 1.578-2.008 1.4a1.732 1.732 0 0 1-1.365-2.023 321.15 321.15 0 0 0 5.358-57.371c-.008-.839-.008-1.25-.008-2.063l.008.007zM465.087 80.787a3.884 3.884 0 0 0-1.547.026l-26.454 5.847c-2.084.458-3.396 2.529-2.937 4.615v.052l.026.052 8.338 24.122.026.105h.025c.51 2.017 2.543 3.31 4.589 2.858l26.454-5.847a3.87 3.87 0 0 0 2.937-4.615v-.052l-.026-.053-8.338-24.122c-.005-.028-.019-.051-.026-.079a3.91 3.91 0 0 0-3.067-2.909zm-1.179 1.678a2.186 2.186 0 0 1 2.622 1.678l.025.053v.052l8.364 24.122a2.186 2.186 0 0 1-1.678 2.622l-26.455 5.821a2.185 2.185 0 0 1-2.622-1.678l-.026-.026v-.053l-8.363-24.121c-.002-.009.001-.018 0-.026a2.21 2.21 0 0 1 1.678-2.622l26.455-5.822z"/>
    <path fill="#F4F4F4" d="M455.33 86.162c-7.43 0-13.45 6.046-13.45 13.476 0 7.429 6.021 13.476 13.45 13.476s13.477-6.047 13.477-13.476c0-7.43-6.041-13.476-13.475-13.476h-.002zm0 1.678c6.522 0 11.798 5.276 11.798 11.798s-5.275 11.798-11.798 11.798-11.771-5.276-11.771-11.798c0-6.523 5.249-11.798 11.771-11.798zM501.45 72.974a3.883 3.883 0 0 0-1.547.026l-26.454 5.821a3.87 3.87 0 0 0-2.937 4.614v.053l.026.052 8.338 24.122.026.105h.026c.509 2.017 2.543 3.308 4.588 2.858l26.455-5.821c2.082-.459 3.394-2.556 2.937-4.641v-.053l-.026-.026-8.338-24.147c-.006-.028-.02-.051-.026-.079-.37-1.52-1.607-2.61-3.068-2.884zm-1.182 1.651a2.185 2.185 0 0 1 2.621 1.678l.026.052v.053l8.364 24.121a2.187 2.187 0 0 1-1.678 2.622l-26.455 5.821a2.187 2.187 0 0 1-2.622-1.678l-.026-.026v-.052l-8.363-24.122c-.002-.009.001-.017 0-.026a2.21 2.21 0 0 1 1.678-2.622l26.462-5.819-.007-.002z"/>
    <path fill="#F4F4F4" d="M491.726 78.349c-7.428 0-13.476 6.021-13.476 13.45 0 7.429 6.048 13.476 13.476 13.476 7.43 0 13.45-6.048 13.45-13.476 0-7.429-6.022-13.45-13.45-13.45zm0 1.678c6.522 0 11.772 5.25 11.772 11.772s-5.25 11.798-11.772 11.798a11.79 11.79 0 0 1-11.798-11.798c0-6.522 5.276-11.772 11.798-11.772zM481.969 248.796a3.898 3.898 0 0 0-3.041 2.883h-.026l-.026.105-8.338 24.121-.025.027v.051c-.461 2.086.853 4.184 2.936 4.643l26.455 5.82c2.045.451 4.078-.842 4.589-2.859h.025l.026-.104 8.337-24.121.026-.053v-.027c.458-2.084-.853-4.182-2.937-4.641l-26.454-5.82a3.864 3.864 0 0 0-1.547-.025zm1.179 1.65 26.454 5.848a2.186 2.186 0 0 1 1.679 2.596c-.002.01.001.018 0 .025l-8.364 24.123v.051l-.026.053a2.185 2.185 0 0 1-2.622 1.678l-26.454-5.846a2.186 2.186 0 0 1-1.679-2.596c.003-.01-.001-.018 0-.027l8.365-24.121.025-.053v-.051a2.188 2.188 0 0 1 2.622-1.68z"/>
    <path fill="#F4F4F4" d="M491.726 254.173c-7.428 0-13.476 6.021-13.476 13.451 0 7.428 6.048 13.475 13.476 13.475 7.43 0 13.45-6.047 13.45-13.475 0-7.43-6.022-13.451-13.45-13.451zm0 1.678c6.522 0 11.772 5.252 11.772 11.773s-5.25 11.797-11.772 11.797c-6.521 0-11.798-5.275-11.798-11.797s5.276-11.773 11.798-11.773zM445.605 240.96a3.897 3.897 0 0 0-3.041 2.883h-.026l-.026.105-8.338 24.121-.025.053v.025c-.46 2.086.853 4.184 2.937 4.641l26.454 5.822c2.057.451 4.119-.824 4.615-2.859.006-.027.021-.051.025-.078l8.338-24.148.026-.025v-.053c.461-2.084-.852-4.182-2.937-4.641l-26.455-5.82a3.846 3.846 0 0 0-1.547-.026zm1.18 1.65 26.455 5.848a2.184 2.184 0 0 1 1.678 2.596c-.001.008.002.018 0 .025l-8.363 24.121v.053l-.026.053a2.188 2.188 0 0 1-2.622 1.678l-26.454-5.84a2.183 2.183 0 0 1-1.678-2.596c.001-.008-.002-.016 0-.025l8.364-24.121v-.053l.025-.053a2.187 2.187 0 0 1 2.622-1.678l-.001-.008z"/>
    <path fill="#F4F4F4" d="M455.33 246.337c-7.43 0-13.45 6.047-13.45 13.477s6.021 13.449 13.45 13.449 13.477-6.021 13.477-13.449c0-7.43-6.048-13.477-13.477-13.477zm0 1.678a11.79 11.79 0 0 1 11.798 11.799c0 6.521-5.275 11.771-11.798 11.771s-11.771-5.25-11.771-11.771c0-6.524 5.249-11.799 11.771-11.799zM89.236 143.163c-2.273 0-4.143 1.869-4.143 4.143v9.622c0 2.3-1.816 4.326-4.3 4.326H71.17c-2.274 0-4.143 1.842-4.143 4.117v20.398c0 2.273 1.869 4.143 4.143 4.143h9.623c1.055 0 2.13.344 2.937 1.049.807.703 1.363 1.748 1.363 3.277v9.596a4.16 4.16 0 0 0 4.143 4.143h20.398a4.16 4.16 0 0 0 4.143-4.143v-9.596c0-1.563.435-2.598 1.154-3.277.719-.681 1.767-1.049 3.146-1.049h9.622c2.274 0 4.143-1.869 4.143-4.143V165.37c0-2.291-1.868-4.128-4.143-4.128h-9.623c-1.688 0-2.689-.439-3.33-1.127-.64-.688-.97-1.738-.97-3.199v-9.623c0-2.274-1.869-4.143-4.143-4.143H89.236v.013zm0 1.677h20.398a2.458 2.458 0 0 1 2.465 2.465v9.622c0 1.722.395 3.23 1.416 4.326 1.021 1.097 2.573 1.678 4.563 1.678h9.622c1.368 0 2.465 1.07 2.465 2.438v20.398a2.457 2.457 0 0 1-2.465 2.464h-9.622c-1.689 0-3.206.459-4.3 1.495-1.095 1.035-1.678 2.609-1.678 4.51v9.596a2.458 2.458 0 0 1-2.465 2.465H89.236a2.457 2.457 0 0 1-2.464-2.465v-9.596c0-1.959-.762-3.531-1.914-4.537-1.152-1.004-2.633-1.468-4.064-1.468h-9.623a2.457 2.457 0 0 1-2.464-2.464V165.37c0-1.369 1.098-2.438 2.464-2.438h9.623c3.4 0 5.978-2.802 5.978-6.004v-9.622a2.457 2.457 0 0 1 2.464-2.466zM214.576 253.787v-1.68h171.275c6.782.034 13.987-5.523 15.46-12.22 4.438-21.566 6.657-42.906 6.657-64.246 0-21.331-2.219-42.662-6.653-64.204-1.477-6.711-8.682-12.266-15.464-12.232H214.576c-6.784-.034-13.985 5.521-15.458 12.218-4.442 21.552-6.663 42.885-6.663 64.218 0 21.342 2.219 42.684 6.661 64.231 1.477 6.711 8.678 12.269 15.46 12.234v1.681c-7.649-.033-15.352-5.961-17.1-13.56-4.467-21.669-6.699-43.129-6.699-64.586 0-21.45 2.233-42.899 6.701-64.573 1.746-7.584 9.449-13.509 17.098-13.543 19.031.002 38.06 0 57.091 0h114.184c7.648.034 15.355 5.959 17.104 13.558 4.459 21.663 6.692 43.111 6.692 64.558 0 21.457-2.231 42.911-6.694 64.599-1.746 7.586-9.453 13.514-17.102 13.547H214.576z"/>
    <path fill="#F4F4F4" d="M219.359 122.475a3.185 3.185 0 0 0-3.172 3.172v101.025a3.185 3.185 0 0 0 3.172 3.172H379.03a3.186 3.186 0 0 0 3.173-3.172V125.647a3.186 3.186 0 0 0-3.173-3.172H219.359zm0 1.678H379.03c.836 0 1.495.66 1.495 1.495v101.025c0 .834-.659 1.494-1.495 1.494H219.359c-.833 0-1.495-.66-1.495-1.494V125.647c0-.833.661-1.494 1.495-1.494zM189.834 82.491c-1.574 0-2.858 1.284-2.858 2.858s1.284 2.884 2.858 2.884 2.858-1.311 2.858-2.884-1.284-2.858-2.858-2.858zm0 1.678c.667 0 1.18.513 1.18 1.18s-.513 1.206-1.18 1.206c-.667 0-1.18-.539-1.18-1.206s.513-1.18 1.18-1.18zM99.435 144.998c-7.008 0-12.716 5.682-12.716 12.69 0 2.105-.458 3.327-1.258 4.064-.8.737-2.107 1.127-4.09 1.127-7.008 0-12.69 5.681-12.69 12.69 0 7.008 5.682 12.716 12.69 12.716 3.348 0 5.349 2.362 5.349 5.532 0 7.008 5.708 12.689 12.716 12.689 7.009 0 12.716-5.682 12.716-12.689 0-2.031.51-3.367 1.389-4.221.88-.855 2.22-1.312 4.064-1.312 7.008 0 12.69-5.708 12.69-12.716 0-7.009-5.683-12.69-12.69-12.69-1.854 0-3.221-.274-4.064-.944-.843-.67-1.389-1.846-1.389-4.248-.001-7.007-5.709-12.688-12.717-12.688zm0 1.677c6.101 0 11.039 4.911 11.039 11.012 0 2.671.677 4.491 2.018 5.559 1.342 1.067 3.124 1.311 5.113 1.311a10.987 10.987 0 0 1 11.012 11.012c0 6.102-4.911 11.038-11.012 11.038-2.126 0-3.945.545-5.218 1.783-1.273 1.237-1.914 3.098-1.914 5.428 0 6.102-4.937 11.012-11.039 11.012-6.102 0-11.038-4.91-11.038-11.012 0-3.934-2.843-7.211-7.027-7.211-6.102 0-11.012-4.936-11.012-11.038s4.91-11.012 11.012-11.012c2.19 0 3.993-.42 5.244-1.573s1.783-2.938 1.783-5.296c.001-6.102 4.937-11.013 11.039-11.013zM173.138 125.045c-1.166-.196-2.296.616-2.491 1.783l-3.516 21.001c-.194 1.165.618 2.294 1.783 2.491l7.499 1.259c1.166.194 2.296-.618 2.491-1.783l3.513-21.001c.195-1.166-.617-2.296-1.783-2.491l-7.499-1.258h.003zm-.263 1.652 7.499 1.258c.272.045.439.28.394.551l-3.514 21.027a.465.465 0 0 1-.55.394l-7.499-1.259c-.271-.045-.465-.281-.42-.55l3.541-20.999v-.026a.466.466 0 0 1 .551-.393l-.002-.003zM175.496 195.368l-7.499 1.258a2.142 2.142 0 0 0-1.757 2.465l3.513 21.027a2.14 2.14 0 0 0 2.464 1.756l7.525-1.258a2.14 2.14 0 0 0 1.757-2.465l-3.516-21.025c-.195-1.166-1.324-1.955-2.491-1.758h.004zm.288 1.651a.467.467 0 0 1 .551.395l3.513 21a.468.468 0 0 1-.393.551l-7.499 1.26a.468.468 0 0 1-.55-.395l-3.514-21a.462.462 0 0 1 .394-.551l7.498-1.26zM167.215 160.548c-1.182 0-2.15.994-2.15 2.176v21.291c0 1.182.969 2.176 2.15 2.176h7.604c1.181 0 2.176-.994 2.176-2.176v-21.29c0-1.182-.994-2.176-2.176-2.176h-7.604v-.001zm0 1.678h7.604a.5.5 0 0 1 .498.498v21.291a.497.497 0 0 1-.498.498h-7.604c-.275 0-.472-.221-.472-.498v-21.291c0-.274.197-.498.472-.498z"/>
    <path fill="#F4F4F4" d="M171.829 121.479c-.831-.139-1.634.083-2.307.472-.673.389-1.274.963-1.416 1.81l-4.379 26.142c-.142.846.25 1.589.76 2.176.51.587 1.188 1.067 2.019 1.206l11.222 1.862c.832.139 1.634-.083 2.308-.472.673-.389 1.274-.963 1.416-1.809l4.379-26.14c.142-.846-.25-1.563-.761-2.15-.51-.587-1.188-1.066-2.019-1.206l-11.222-1.888v-.003zm-.262 1.652 11.196 1.888c.312.052.757.32 1.049.656s.379.717.367.786l-4.378 26.141c-.012.071-.218.38-.603.603-.385.222-.867.34-1.18.289l-11.222-1.888c-.312-.052-.757-.293-1.048-.629-.292-.335-.379-.716-.367-.787l4.38-26.165c.012-.071.217-.381.603-.603.385-.223.894-.341 1.206-.289l-.003-.002zM422.323 125.045l-7.499 1.258a2.184 2.184 0 0 0-1.782 2.491l3.513 21.001c.197 1.164 1.326 1.977 2.491 1.783l7.499-1.259c1.165-.196 1.98-1.324 1.782-2.491l-3.513-21.001c-.194-1.165-1.324-1.978-2.491-1.782zm.288 1.652a.465.465 0 0 1 .551.393v.026l3.514 21.001a.465.465 0 0 1-.394.55.49.49 0 0 1-.577-.393l-3.513-21.027a.465.465 0 0 1 .393-.551l7.525-1.258-7.499 1.259zM419.966 195.368c-1.167-.199-2.294.592-2.491 1.756l-3.513 21.027c-.192 1.164.617 2.27 1.782 2.465l7.499 1.258c1.166.195 2.296-.59 2.491-1.756l3.513-21.027c.198-1.166-.62-2.268-1.782-2.465l-7.499-1.258zm-.288 1.651 7.498 1.26c.272.045.466.279.42.551l-3.54 21a.47.47 0 0 1-.55.395l-7.499-1.26a.468.468 0 0 1-.394-.551l3.514-21a.466.466 0 0 1 .551-.395zM420.326 160.548c-1.182 0-2.149.995-2.149 2.176v21.291c0 1.182.968 2.176 2.149 2.176h7.604c1.182 0 2.177-.994 2.177-2.176v-21.29c0-1.181-.994-2.176-2.177-2.176h-7.604v-.001zm0 1.678h7.604c.276 0 .498.224.498.498v21.291a.496.496 0 0 1-.498.498h-7.604c-.276 0-.472-.221-.472-.498v-21.291c0-.274.197-.498.472-.498z"/>
</svg>
