<svg height="351.315" viewBox="0 0 2019.454 1229.601" width="576.987" xmlns="http://www.w3.org/2000/svg">
    <g fill="#f4f4f4" fill-opacity=".5" stroke-width="3.5">
        <path d="M1564.837 945.74q0 1.12-.27 1.885-.402 1.139-1.289 1.139-.588 0-1.232-.27-.774-.327-.849-.803.261 0 .616.093.821.215 1.027.215.793 0 1.194-.794.318-.634.318-1.521 0-.625-.411-1.783-.401-1.166-.401-1.624 0-.14.075-.224.084-.093.224-.093.364 0 .71 1.68.288 1.419.288 2.1zM1568.43 946.692q0 .952-.55 1.493-.551.542-1.522.542-.532 0-.821-.252-.29-.252-.29-.775 0-.737.962-1.484.915-.71 1.69-.71.354 0 .466.44.065.251.065.746zm-.569.261q0-.112-.028-.214-.019-.112-.075-.252-.15.102-.495.504-.177.205-.308.298 0-.177.037-.289.075-.159.122-.27-.41 0-.859.345-.439.345-.439.746 0 .271.3.271.568 0 1.1-.28.644-.336.644-.859zM1572.276 947.075q0 .457-.346 1.026-.392.644-.812.644-.121 0-.205-.13-.075-.14-.075-.271 0-.168.355-.523.364-.364.364-.494 0-.084-.028-.168l-.037-.112q-.7.158-1.428.802-.72.644-1.092.728-.075-.205-.075-.42 0-.261.12-.55.085-.206.28-.495.328-.495.692-1.12l.644-1.13q.466-.802.681-1.138.112-.168.196-.252.121-.112.29-.15.111.038.158.14.056.103.056.243 0 .318-.41.859-.747.97-.766 1.008-.42.635-.42 1.148l.019.093q.513-.252.607-.29.382-.158.653-.158.299 0 .439.206.14.196.14.504zM1576.606 946.524q0 .635-.308 1.353-.336.794-.83 1.092-.103-.121-.178-.27-.065-.15-.065-.299 0-.159.467-.943.205-.345.187-.606l-.01-.122q-.346.103-1.195.626-.84.513-1.699 1.045-.13 0-.242-.093-.103-.103-.103-.224 0-.196.625-1.316.187-.336.672-1.167.15.196.196.439.047.233.047.56v.214q.86-.513 1.344-.774.532-.29.728-.29.131 0 .243.299.121.299.121.476zM1584.717 948.335q0 .168-.15.261-.14.084-.317.084-.158 0-.401-.037-.55-.084-.71-.084-.28 0-1.1.065-.467.037-.673.037-.569 0-.569-.57 0-.54.355-1.548.196-.57.737-1.867.485-1.167.616-1.643.047-.15.075-.196.075-.112.187-.112.177 0 .298.262.122.252.122.457 0 .327-.383 1.101-.383.766-.747 1.503-.401.877-.401 1.335 0 .233.196.326.14.066.41.066.206 0 .71-.047.504-.056.672-.056.42 0 .69.121.383.168.383.542zM1588.19 946.692q0 .952-.552 1.493-.55.542-1.52.542-.533 0-.822-.252-.29-.252-.29-.775 0-.737.962-1.484.914-.71 1.69-.71.354 0 .466.44.065.251.065.746zm-.57.261q0-.112-.028-.214-.02-.112-.075-.252-.15.102-.495.504-.177.205-.308.298 0-.177.037-.289.075-.159.121-.27-.41 0-.858.345-.439.345-.439.746 0 .271.299.271.569 0 1.101-.28.644-.336.644-.859zM1592.118 946.496q0 .299-.158.635-.15.336-.383.56l-.01-.131q0-.112.028-.345.028-.234.028-.346 0-.158-.047-.233-.047-.084-.196-.084-.439 0-1.092.681l-1.41 1.484q-.055 0-.111-.009-.14-.037-.187-.046.028-.336.233-.747.551-1.11.57-1.185.075-.3.112-.44.037-.14.102-.288.075-.16.168-.28.103-.131.262-.196l.093 1.12.616-.504q.41-.327.709-.327t.485.196q.187.196.187.485zM1596.701 945.413q0 .392-1.045 1.036-1.008.616-1.466.616-.214 0-.289-.149-.065-.15-.065-.42v-.252q.625 0 1.139-.187.513-.186.896-.616-.28-.102-.57-.102-.68 0-1.446.522-.84.57-.84 1.214 0 .616.84.858.13.038 1.577.262.85.13.85.457 0 .14-.309.224-.308.093-.784.093-1.194 0-1.885-.364-.915-.485-.915-1.558 0-1.12 1.12-1.783.952-.56 2.166-.56.364 0 .662.168.364.205.364.541zM1600.416 943.743q0 .205-.495.858-.495.654-.495.999 0 .177.206.355.466.41.466.504 0 .121-.084.233-.075.112-.196.112-.102 0-.289-.112-.13-.075-.504-.364-.14.27-.215.41-.26.495-.354.72l-.28.858q-.243.579-.607.579l-.01-.215q0-.663.43-1.568.084-.168.466-.868-.737-.401-1.624-.401 0-.346.14-.504.15-.168.495-.168.317 0 .793.112l.467.112q.177-.056.485-.607.756-1.325 1.027-1.521.075.12.121.242.056.122.056.234zM1603.86 947.075q0 .457-.346 1.026-.392.644-.812.644-.12 0-.205-.13-.075-.14-.075-.271 0-.168.355-.523.364-.364.364-.494 0-.084-.028-.168l-.037-.112q-.7.158-1.428.802-.719.644-1.092.728-.075-.205-.075-.42 0-.261.121-.55.084-.206.28-.495.327-.495.69-1.12.188-.327.645-1.13.466-.802.681-1.138.112-.168.196-.252.121-.112.29-.15.111.038.158.14.056.103.056.243 0 .318-.41.859-.747.97-.766 1.008-.42.635-.42 1.148l.02.093q.512-.252.606-.29.382-.158.653-.158.299 0 .439.206.14.196.14.504zM1611.523 944.032q0 .439-.467 1.176-.299.467-.98 1.344-.681.868-.85 1.139l.7.224q.682.205.682.746-.28.047-.55.084l-.104-.009v-.074q-.149-.038-.242-.038-.177 0-.56.056-.383.056-.579.056-.252 0-.41-.093-.16-.093-.16-.336 0-.196.72-1.11 1.344-1.709 1.353-1.727.728-.99.728-1.326 0-.13-.093-.196-.084-.065-.346-.065-.177 0-.737.345-.27.168-.439.168l-.158-.028q-.056-.037-.122-.14-.065-.112-.065-.177 0-.392.756-.719.644-.28 1.12-.28.402 0 .616.299.187.261.187.681zM1617.132 945.712q0 1.13-1.223 1.997-1.12.794-2.305.794-.588 0-.933-.299-.346-.299-.346-.868 0-1.27 1.11-2.203 1.056-.886 2.362-.886.663 0 .999.392.336.392.336 1.073zm-.57.215q0-.43-.485-.644-.364-.159-.868-.159-.737 0-1.54.719-.803.718-.803 1.446 0 .299.15.43.159.121.476.121.915 0 1.904-.504 1.167-.597 1.167-1.41zM1621.407 944.032q0 .439-.467 1.176-.299.467-.98 1.344-.681.868-.85 1.139l.7.224q.682.205.682.746-.28.047-.55.084l-.104-.009v-.074q-.149-.038-.242-.038-.177 0-.56.056-.383.056-.579.056-.252 0-.41-.093-.16-.093-.16-.336 0-.196.72-1.11 1.344-1.709 1.353-1.727.728-.99.728-1.326 0-.13-.093-.196-.084-.065-.346-.065-.177 0-.737.345-.27.168-.439.168l-.158-.028q-.056-.037-.122-.14-.065-.112-.065-.177 0-.392.756-.719.644-.28 1.12-.28.402 0 .616.299.187.261.187.681zM1625.7 944.032q0 .439-.467 1.176-.298.467-.98 1.344-.681.868-.85 1.139l.7.224q.682.205.682.746-.28.047-.55.084l-.103-.009v-.074q-.15-.038-.243-.038-.177 0-.56.056-.382.056-.578.056-.252 0-.411-.093-.159-.093-.159-.336 0-.196.719-1.11 1.344-1.709 1.353-1.727.728-.99.728-1.326 0-.13-.093-.196-.084-.065-.345-.065-.178 0-.738.345-.27.168-.438.168l-.159-.028q-.056-.037-.121-.14-.065-.112-.065-.177 0-.392.756-.719.644-.28 1.12-.28.401 0 .616.299.187.261.187.681z"/>
    </g>
    <g fill="none" stroke="#f4f4f4">
        <path d="M126.754 565.601h1762.869v607.154H126.754z" stroke-width="7"/>
        <path d="M1009.202 1226.101h983.345a23.355 23.355 0 0 0 23.406-23.407v-666.83l-49.635-508.477c-1.26-12.906-12.227-23.12-25.194-23.13L1009.202 3.5m0 1222.601H25.855a23.355 23.355 0 0 1-23.406-23.407v-666.83L52.085 27.386c1.26-12.906 12.228-23.12 25.195-23.13l931.922-.757" stroke-width="7"/>
        <path d="M2.45 535.863h2013.503" stroke-width="2"/>
    </g>
    <path d="M129.011 1.957a3.614 3.614 0 0 0-3.63 3.614v561.015h7.29V5.571a3.614 3.614 0 0 0-3.63-3.614zm19.479 0a3.614 3.614 0 0 0-3.631 3.614v561.015h7.289V5.571a3.614 3.614 0 0 0-3.631-3.614zm19.166 0a3.614 3.614 0 0 0-3.631 3.614v561.015h7.289V5.571a3.614 3.614 0 0 0-3.631-3.614zm19.476 0a3.614 3.614 0 0 0-3.63 3.614v561.015h7.29V5.571a3.614 3.614 0 0 0-3.63-3.614zm19.168 0a3.614 3.614 0 0 0-3.63 3.614v561.015h7.288V5.571a3.614 3.614 0 0 0-3.63-3.614zm19.477 0a3.614 3.614 0 0 0-3.631 3.614v561.015h7.289V5.571a3.614 3.614 0 0 0-3.631-3.614zm19.168 0a3.614 3.614 0 0 0-3.631 3.614v561.015h7.289V5.571a3.614 3.614 0 0 0-3.631-3.614zm19.476 0a3.614 3.614 0 0 0-3.63 3.614v561.015h7.288V5.571a3.614 3.614 0 0 0-3.63-3.614zm19.166 0a3.614 3.614 0 0 0-3.63 3.614v561.015h7.29V5.571a3.614 3.614 0 0 0-3.63-3.614zm19.479 0a3.614 3.614 0 0 0-3.631 3.614v561.015h7.289V5.571a3.614 3.614 0 0 0-3.63-3.614zm19.166 0a3.614 3.614 0 0 0-3.631 3.614v561.015h7.289V5.571a3.614 3.614 0 0 0-3.63-3.614zm19.476 0a3.614 3.614 0 0 0-3.63 3.614v561.015h7.29V5.571a3.614 3.614 0 0 0-3.63-3.614zm19.168 0a3.614 3.614 0 0 0-3.63 3.614v561.015h7.288V5.571a3.614 3.614 0 0 0-3.63-3.614zm19.477 0a3.614 3.614 0 0 0-3.631 3.614v561.015h7.289V5.571a3.614 3.614 0 0 0-3.63-3.614zm19.168 0a3.614 3.614 0 0 0-3.631 3.614v561.015h7.289V5.571a3.614 3.614 0 0 0-3.63-3.614zm19.476 0a3.614 3.614 0 0 0-3.63 3.614v561.015h7.289V5.571a3.614 3.614 0 0 0-3.631-3.614zm19.166 0a3.614 3.614 0 0 0-3.63 3.614v561.015h7.29V5.571a3.614 3.614 0 0 0-3.63-3.614zm19.479 0a3.614 3.614 0 0 0-3.631 3.614v561.015h7.29V5.571a3.614 3.614 0 0 0-3.632-3.614zm19.166 0a3.614 3.614 0 0 0-3.63 3.614v561.015h7.288V5.571a3.614 3.614 0 0 0-3.63-3.614zm19.476 0a3.624 3.624 0 0 0-2.568 1.056 3.596 3.596 0 0 0-1.062 2.558v561.015h7.29V5.571a3.614 3.614 0 0 0-3.63-3.614zm19.168 0a3.614 3.614 0 0 0-3.63 3.614v561.015h7.289V5.571a3.614 3.614 0 0 0-3.631-3.614zm19.477 0a3.614 3.614 0 0 0-3.63 3.614v561.015h7.288V5.571a3.614 3.614 0 0 0-3.63-3.614zm19.168 0a3.614 3.614 0 0 0-3.63 3.614v561.015h7.288V5.571a3.614 3.614 0 0 0-3.63-3.614zm19.477 0a3.629 3.629 0 0 0-2.57 1.056 3.594 3.594 0 0 0-1.061 2.558v561.015h7.289V5.571a3.614 3.614 0 0 0-3.631-3.614zm19.166 0a3.624 3.624 0 0 0-2.569 1.056 3.596 3.596 0 0 0-1.062 2.558v561.015h7.29V5.571a3.614 3.614 0 0 0-3.63-3.614zm19.478 0a3.629 3.629 0 0 0-2.57 1.056 3.594 3.594 0 0 0-1.06 2.558v561.015h7.288V5.571a3.614 3.614 0 0 0-3.63-3.614zm19.166 0a3.629 3.629 0 0 0-2.57 1.056 3.594 3.594 0 0 0-1.06 2.558v561.015h7.288V5.571a3.614 3.614 0 0 0-3.63-3.614zm19.477 0a3.624 3.624 0 0 0-2.569 1.056 3.596 3.596 0 0 0-1.062 2.558v561.015h7.29V5.571a3.614 3.614 0 0 0-3.63-3.614zm19.168 0a3.629 3.629 0 0 0-2.57 1.056 3.594 3.594 0 0 0-1.061 2.558v561.015h7.289V5.571a3.614 3.614 0 0 0-3.631-3.614zm19.476 0a3.614 3.614 0 0 0-3.63 3.614v561.015h7.288V5.571a3.614 3.614 0 0 0-3.63-3.614zm19.168 0a3.614 3.614 0 0 0-3.63 3.614v561.015h7.288V5.571a3.614 3.614 0 0 0-3.63-3.614zm19.477 0a3.629 3.629 0 0 0-2.57 1.056 3.594 3.594 0 0 0-1.061 2.558v561.015h7.289V5.571a3.614 3.614 0 0 0-3.63-3.614zm19.166 0a3.614 3.614 0 0 0-3.631 3.614v561.015h7.29V5.571a3.614 3.614 0 0 0-3.63-3.614zm19.168 0a3.614 3.614 0 0 0-3.631 3.614v561.015h7.289V5.571a3.614 3.614 0 0 0-3.631-3.614zm19.476 0a3.614 3.614 0 0 0-3.63 3.614v561.015h7.288V5.571a3.614 3.614 0 0 0-3.63-3.614zm19.168 0a3.614 3.614 0 0 0-3.63 3.614v561.015h7.288V5.571a3.614 3.614 0 0 0-3.63-3.614zm19.477 0a3.614 3.614 0 0 0-3.631 3.614v561.015h7.289V5.571a3.614 3.614 0 0 0-3.63-3.614zm19.166 0a3.614 3.614 0 0 0-3.631 3.614v561.015h7.291V5.571a3.614 3.614 0 0 0-3.63-3.614zm19.478 0a3.614 3.614 0 0 0-3.63 3.614v561.015h7.289V5.571a3.614 3.614 0 0 0-3.631-3.614zm19.166 0a3.614 3.614 0 0 0-3.63 3.614v561.015h7.289V5.571a3.614 3.614 0 0 0-3.631-3.614zm19.477 0a3.614 3.614 0 0 0-3.631 3.614v561.015h7.291V5.571a3.614 3.614 0 0 0-3.63-3.614zm19.168 0a3.629 3.629 0 0 0-2.57 1.056 3.594 3.594 0 0 0-1.061 2.558v561.015h7.29V5.571a3.614 3.614 0 0 0-3.632-3.614zm19.476 0a3.629 3.629 0 0 0-2.57 1.056 3.594 3.594 0 0 0-1.06 2.558v561.015h7.289V5.571a3.614 3.614 0 0 0-3.631-3.614zm19.168 0a3.614 3.614 0 0 0-3.63 3.614v561.015h7.289V5.571a3.614 3.614 0 0 0-3.631-3.614zm19.166 0a3.614 3.614 0 0 0-3.63 3.614v561.015h7.289V5.571a3.614 3.614 0 0 0-3.631-3.614zm19.477 0a3.614 3.614 0 0 0-3.63 3.614v561.015h7.29V5.571a3.614 3.614 0 0 0-3.63-3.614zm19.168 0a3.614 3.614 0 0 0-3.63 3.614v561.015h7.288V5.571a3.614 3.614 0 0 0-3.63-3.614zm19.476 0a3.614 3.614 0 0 0-3.63 3.614v561.015h7.29V5.571a3.614 3.614 0 0 0-3.63-3.614zm19.168 0a3.614 3.614 0 0 0-3.63 3.614v561.015h7.289V5.571a3.614 3.614 0 0 0-3.631-3.614zm19.477 0a3.614 3.614 0 0 0-3.63 3.614v561.015h7.288V5.571a3.614 3.614 0 0 0-3.63-3.614zm19.166 0a3.614 3.614 0 0 0-3.63 3.614v561.015h7.29V5.571a3.614 3.614 0 0 0-3.63-3.614zm19.479 0a3.614 3.614 0 0 0-3.631 3.614v561.015h7.289V5.571a3.614 3.614 0 0 0-3.631-3.614zm19.166 0a3.614 3.614 0 0 0-3.631 3.614v561.015h7.29V5.571a3.614 3.614 0 0 0-3.63-3.614zm19.476 0a3.614 3.614 0 0 0-3.63 3.614v561.015h7.29V5.571a3.614 3.614 0 0 0-3.63-3.614zm19.168 0a3.614 3.614 0 0 0-3.63 3.614v561.015h7.288V5.571a3.614 3.614 0 0 0-3.63-3.614zm19.477 0a3.614 3.614 0 0 0-3.631 3.614v561.015h7.29V5.571a3.614 3.614 0 0 0-3.63-3.614zm19.168 0a3.614 3.614 0 0 0-3.631 3.614v561.015h7.289V5.571a3.614 3.614 0 0 0-3.631-3.614zm19.476 0a3.614 3.614 0 0 0-3.63 3.614v561.015h7.288V5.571a3.614 3.614 0 0 0-3.63-3.614zm19.166 0a3.614 3.614 0 0 0-3.63 3.614v561.015h7.29V5.571a3.614 3.614 0 0 0-3.63-3.614zm19.479 0a3.614 3.614 0 0 0-3.631 3.614v561.015h7.289V5.571a3.614 3.614 0 0 0-3.63-3.614zm19.166 0a3.614 3.614 0 0 0-3.631 3.614v561.015h7.29V5.571a3.614 3.614 0 0 0-3.63-3.614zm19.476 0a3.614 3.614 0 0 0-3.63 3.614v561.015h7.29V5.571a3.614 3.614 0 0 0-3.63-3.614zm19.168 0a3.614 3.614 0 0 0-3.63 3.614v561.015h7.288V5.571a3.614 3.614 0 0 0-3.63-3.614zm19.477 0a3.614 3.614 0 0 0-3.631 3.614v561.015h7.291V5.571a3.614 3.614 0 0 0-3.63-3.614zm19.168 0a3.614 3.614 0 0 0-3.631 3.614v561.015h7.289V5.571a3.614 3.614 0 0 0-3.63-3.614zm19.476 0a3.629 3.629 0 0 0-2.57 1.056 3.594 3.594 0 0 0-1.06 2.558v561.015h7.289V5.571a3.614 3.614 0 0 0-3.631-3.614zm19.166 0a3.614 3.614 0 0 0-3.63 3.614v561.015h7.29V5.571a3.614 3.614 0 0 0-3.63-3.614zm19.479 0a3.629 3.629 0 0 0-2.57 1.056 3.594 3.594 0 0 0-1.06 2.558v561.015h7.288V5.571a3.614 3.614 0 0 0-3.63-3.614zm19.166 0a3.614 3.614 0 0 0-3.63 3.614v561.015h7.29V5.571a3.614 3.614 0 0 0-3.63-3.614zm19.476 0a3.614 3.614 0 0 0-3.63 3.614v561.015h7.29V5.571a3.614 3.614 0 0 0-3.63-3.614zm19.168 0a3.614 3.614 0 0 0-3.63 3.614v561.015h7.289V5.571a3.614 3.614 0 0 0-3.631-3.614zm19.477 0a3.614 3.614 0 0 0-3.63 3.614v561.015h7.29V5.571a3.614 3.614 0 0 0-3.63-3.614zm19.168 0a3.629 3.629 0 0 0-2.57 1.056 3.594 3.594 0 0 0-1.06 2.558v561.015h7.288V5.571a3.614 3.614 0 0 0-3.63-3.614zm19.476 0a3.614 3.614 0 0 0-3.63 3.614v561.015h7.289V5.571a3.614 3.614 0 0 0-3.631-3.614zm19.167 0a3.614 3.614 0 0 0-3.631 3.614v561.015h7.29V5.571a3.614 3.614 0 0 0-3.63-3.614zm19.478 0a3.629 3.629 0 0 0-2.57 1.056 3.594 3.594 0 0 0-1.06 2.558v561.015h7.288V5.571a3.614 3.614 0 0 0-3.63-3.614zm19.166 0a3.629 3.629 0 0 0-2.57 1.056 3.594 3.594 0 0 0-1.06 2.558v561.015h7.29V5.571a3.614 3.614 0 0 0-3.63-3.614zm19.477 0a3.624 3.624 0 0 0-2.569 1.056 3.596 3.596 0 0 0-1.062 2.558v561.015h7.29V5.571a3.614 3.614 0 0 0-3.63-3.614zm19.168 0a3.614 3.614 0 0 0-3.631 3.614v561.015h7.289V5.571a3.614 3.614 0 0 0-3.631-3.614zm19.166 0a3.614 3.614 0 0 0-3.631 3.614v561.015h7.29V5.571a3.614 3.614 0 0 0-3.63-3.614zm19.478 0a3.614 3.614 0 0 0-3.63 3.614v561.015h7.288V5.571a3.614 3.614 0 0 0-3.63-3.614zm19.166 0a3.614 3.614 0 0 0-3.63 3.614v561.015h7.29V5.571a3.614 3.614 0 0 0-3.63-3.614zm19.477 0a3.614 3.614 0 0 0-3.631 3.614v561.015h7.29V5.571a3.614 3.614 0 0 0-3.63-3.614zm19.168 0a3.614 3.614 0 0 0-3.631 3.614v561.015h7.289V5.571a3.614 3.614 0 0 0-3.63-3.614zm19.476 0a3.614 3.614 0 0 0-3.63 3.614v561.015h7.29V5.571a3.614 3.614 0 0 0-3.63-3.614zm19.168 0a3.614 3.614 0 0 0-3.63 3.614v561.015h7.288V5.571a3.614 3.614 0 0 0-3.63-3.614zm19.477 0a3.614 3.614 0 0 0-3.631 3.614v561.015h7.289V5.571a3.614 3.614 0 0 0-3.63-3.614zm19.166 0a3.614 3.614 0 0 0-3.631 3.614v561.015h7.291V5.571a3.614 3.614 0 0 0-3.63-3.614zm19.478 0a3.614 3.614 0 0 0-3.63 3.614v561.015h7.288V5.571a3.614 3.614 0 0 0-3.63-3.614zm19.166 0a3.629 3.629 0 0 0-2.57 1.056 3.594 3.594 0 0 0-1.06 2.558v561.015h7.29V5.571a3.614 3.614 0 0 0-3.63-3.614zm19.168 0a3.614 3.614 0 0 0-3.63 3.614v561.015h7.288V5.571a3.614 3.614 0 0 0-3.63-3.614zm19.477 0a3.614 3.614 0 0 0-3.631 3.614v561.015h7.29V5.571a3.614 3.614 0 0 0-3.632-3.614zM125.38 1170.827v54.924a3.614 3.614 0 0 0 3.63 3.614h.03a3.614 3.614 0 0 0 3.63-3.614v-54.924zm19.478 0v54.924a3.614 3.614 0 0 0 3.63 3.614h.028a3.614 3.614 0 0 0 3.63-3.614v-54.924zm19.166 0v54.924a3.614 3.614 0 0 0 3.63 3.614h.028a3.614 3.614 0 0 0 3.63-3.614v-54.924zm19.476 0v54.924a3.614 3.614 0 0 0 3.631 3.614h.03a3.614 3.614 0 0 0 3.63-3.614v-54.924zm19.168 0v54.924a3.614 3.614 0 0 0 3.631 3.614h.027a3.614 3.614 0 0 0 3.631-3.614v-54.924zm19.477 0v54.924a3.614 3.614 0 0 0 3.63 3.614h.028a3.614 3.614 0 0 0 3.63-3.614v-54.924zm19.168 0v54.924a3.614 3.614 0 0 0 3.63 3.614h.028a3.614 3.614 0 0 0 3.63-3.614v-54.924zm19.476 0v54.924a3.614 3.614 0 0 0 3.631 3.614h.027a3.614 3.614 0 0 0 3.631-3.614v-54.924zm19.166 0v54.924a3.614 3.614 0 0 0 3.631 3.614h.03a3.614 3.614 0 0 0 3.63-3.614v-54.924zm19.479 0v54.924a3.614 3.614 0 0 0 3.63 3.614h.028a3.614 3.614 0 0 0 3.631-3.614v-54.924zm19.166 0v54.924a3.614 3.614 0 0 0 3.63 3.614h.028a3.614 3.614 0 0 0 3.63-3.614v-54.924zm19.476 0v54.924a3.614 3.614 0 0 0 3.631 3.614h.03a3.614 3.614 0 0 0 3.63-3.614v-54.924zm19.168 0v54.924a3.614 3.614 0 0 0 3.631 3.614h.028a3.614 3.614 0 0 0 3.63-3.614v-54.924zm19.477 0v54.924a3.614 3.614 0 0 0 3.63 3.614h.028a3.614 3.614 0 0 0 3.631-3.614v-54.924zm19.168 0v54.924a3.614 3.614 0 0 0 3.63 3.614h.028a3.614 3.614 0 0 0 3.631-3.614v-54.924zm19.477 0v54.924a3.614 3.614 0 0 0 3.63 3.614h.028a3.614 3.614 0 0 0 3.63-3.614v-54.924zm19.166 0v54.924a3.614 3.614 0 0 0 3.63 3.614h.03a3.614 3.614 0 0 0 3.63-3.614v-54.924zm19.478 0v54.924a3.614 3.614 0 0 0 3.63 3.614h.028a3.614 3.614 0 0 0 3.631-3.614v-54.924zm19.166 0v54.924a3.614 3.614 0 0 0 3.63 3.614h.028a3.614 3.614 0 0 0 3.631-3.614v-54.924zm19.477 0v54.924c0 1.001.406 1.905 1.062 2.558a3.624 3.624 0 0 0 2.568 1.056h.03a3.614 3.614 0 0 0 3.63-3.614v-54.924zm19.168 0v54.924a3.614 3.614 0 0 0 3.63 3.614h.028a3.614 3.614 0 0 0 3.63-3.614v-54.924zm19.476 0v54.924a3.614 3.614 0 0 0 3.631 3.614h.027a3.614 3.614 0 0 0 3.631-3.614v-54.924zm19.168 0v54.924a3.614 3.614 0 0 0 3.631 3.614h.027a3.614 3.614 0 0 0 3.631-3.614v-54.924zm19.477 0v54.924a3.614 3.614 0 0 0 3.63 3.614h.028a3.614 3.614 0 0 0 3.63-3.614v-54.924zm19.166 0v54.924c0 1.001.406 1.905 1.062 2.558a3.624 3.624 0 0 0 2.569 1.056h.029a3.614 3.614 0 0 0 3.63-3.614v-54.924zm19.478 0v54.924c0 1.001.404 1.905 1.06 2.558a3.629 3.629 0 0 0 2.571 1.056h.027a3.614 3.614 0 0 0 3.631-3.614v-54.924zm19.166 0v54.924c0 1.001.404 1.905 1.06 2.558a3.629 3.629 0 0 0 2.571 1.056h.027a3.614 3.614 0 0 0 3.631-3.614v-54.924zm19.477 0v54.924c0 1.001.406 1.905 1.062 2.558a3.624 3.624 0 0 0 2.569 1.056h.029a3.614 3.614 0 0 0 3.63-3.614v-54.924zm19.168 0v54.924a3.614 3.614 0 0 0 3.63 3.614h.028a3.614 3.614 0 0 0 3.63-3.614v-54.924zm19.476 0v54.924c0 1.001.405 1.905 1.06 2.558a3.629 3.629 0 0 0 2.571 1.056h.027a3.614 3.614 0 0 0 3.631-3.614v-54.924zm19.168 0v54.924c0 1.001.405 1.905 1.06 2.558a3.629 3.629 0 0 0 2.571 1.056h.028a3.614 3.614 0 0 0 3.63-3.614v-54.924zm19.477 0v54.924c0 1.001.404 1.905 1.06 2.558a3.629 3.629 0 0 0 2.57 1.056h.028a3.614 3.614 0 0 0 3.63-3.614v-54.924zm19.166 0v54.924a3.614 3.614 0 0 0 3.63 3.614h.03a3.614 3.614 0 0 0 3.63-3.614v-54.924zm19.168 0v54.924a3.614 3.614 0 0 0 3.63 3.614h.028a3.614 3.614 0 0 0 3.63-3.614v-54.924zm19.476 0v54.924a3.614 3.614 0 0 0 3.631 3.614h.028a3.614 3.614 0 0 0 3.63-3.614v-54.924zm19.168 0v54.924a3.614 3.614 0 0 0 3.631 3.614h.028a3.614 3.614 0 0 0 3.63-3.614v-54.924zm19.477 0v54.924a3.614 3.614 0 0 0 3.63 3.614h.028a3.614 3.614 0 0 0 3.63-3.614v-54.924zm19.166 0v54.924a3.614 3.614 0 0 0 3.63 3.614h.03a3.614 3.614 0 0 0 3.631-3.614v-54.924zm19.478 0v54.924a3.614 3.614 0 0 0 3.631 3.614h.028a3.614 3.614 0 0 0 3.63-3.614v-54.924zm19.166 0v54.924a3.614 3.614 0 0 0 3.631 3.614h.028a3.614 3.614 0 0 0 3.63-3.614v-54.924zm19.477 0v54.924a3.614 3.614 0 0 0 3.63 3.614h.03a3.614 3.614 0 0 0 3.631-3.614v-54.924zm19.168 0v54.924c0 1.001.404 1.905 1.06 2.558a3.629 3.629 0 0 0 2.57 1.056h.028a3.614 3.614 0 0 0 3.631-3.614v-54.924zm19.477 0v54.924a3.614 3.614 0 0 0 3.63 3.614h.028a3.614 3.614 0 0 0 3.63-3.614v-54.924zm19.168 0v54.924a3.614 3.614 0 0 0 3.63 3.614h.028a3.614 3.614 0 0 0 3.63-3.614v-54.924zm19.166 0v54.924a3.614 3.614 0 0 0 3.63 3.614h.027a3.614 3.614 0 0 0 3.631-3.614v-54.924zm19.476 0v54.924a3.614 3.614 0 0 0 3.631 3.614h.029a3.614 3.614 0 0 0 3.63-3.614v-54.924zm19.168 0v54.924a3.614 3.614 0 0 0 3.63 3.614h.028a3.614 3.614 0 0 0 3.63-3.614v-54.924zm19.477 0v54.924a3.614 3.614 0 0 0 3.63 3.614h.03a3.614 3.614 0 0 0 3.63-3.614v-54.924zm19.168 0v54.924a3.614 3.614 0 0 0 3.63 3.614h.027a3.614 3.614 0 0 0 3.631-3.614v-54.924zm19.476 0v54.924a3.614 3.614 0 0 0 3.631 3.614h.027a3.614 3.614 0 0 0 3.63-3.614v-54.924zm19.166 0v54.924a3.614 3.614 0 0 0 3.631 3.614h.03a3.614 3.614 0 0 0 3.63-3.614v-54.924zm19.479 0v54.924a3.614 3.614 0 0 0 3.63 3.614h.028a3.614 3.614 0 0 0 3.63-3.614v-54.924zm19.166 0v54.924a3.614 3.614 0 0 0 3.63 3.614h.03a3.614 3.614 0 0 0 3.63-3.614v-54.924zm19.476 0v54.924a3.614 3.614 0 0 0 3.631 3.614h.03a3.614 3.614 0 0 0 3.63-3.614v-54.924zm19.168 0v54.924a3.614 3.614 0 0 0 3.631 3.614h.027a3.614 3.614 0 0 0 3.63-3.614v-54.924zm19.477 0v54.924a3.614 3.614 0 0 0 3.63 3.614h.03a3.614 3.614 0 0 0 3.63-3.614v-54.924zm19.168 0v54.924a3.614 3.614 0 0 0 3.63 3.614h.028a3.614 3.614 0 0 0 3.63-3.614v-54.924zm19.476 0v54.924a3.614 3.614 0 0 0 3.631 3.614h.027a3.614 3.614 0 0 0 3.631-3.614v-54.924zm19.166 0v54.924a3.614 3.614 0 0 0 3.631 3.614h.03a3.614 3.614 0 0 0 3.63-3.614v-54.924zm19.479 0v54.924a3.614 3.614 0 0 0 3.63 3.614h.028a3.614 3.614 0 0 0 3.63-3.614v-54.924zm19.166 0v54.924a3.614 3.614 0 0 0 3.63 3.614h.03a3.614 3.614 0 0 0 3.63-3.614v-54.924zm19.476 0v54.924a3.614 3.614 0 0 0 3.631 3.614h.03a3.614 3.614 0 0 0 3.63-3.614v-54.924zm19.168 0v54.924a3.614 3.614 0 0 0 3.631 3.614h.027a3.614 3.614 0 0 0 3.631-3.614v-54.924zm19.477 0v54.924a3.614 3.614 0 0 0 3.63 3.614h.03a3.614 3.614 0 0 0 3.63-3.614v-54.924zm19.168 0v54.924a3.614 3.614 0 0 0 3.63 3.614h.028a3.614 3.614 0 0 0 3.63-3.614v-54.924zm19.476 0v54.924c0 1.001.405 1.905 1.061 2.558a3.629 3.629 0 0 0 2.57 1.056h.027a3.614 3.614 0 0 0 3.631-3.614v-54.924zm19.166 0v54.924a3.614 3.614 0 0 0 3.631 3.614h.03a3.614 3.614 0 0 0 3.63-3.614v-54.924zm19.48 0v54.924a3.614 3.614 0 0 0 3.63 3.614h.027a3.614 3.614 0 0 0 3.63-3.614v-54.924zm19.165 0v54.924a3.614 3.614 0 0 0 3.63 3.614h.03a3.614 3.614 0 0 0 3.63-3.614v-54.924zm19.477 0v54.924c0 1.001.406 1.905 1.062 2.558a3.624 3.624 0 0 0 2.568 1.056h.03a3.614 3.614 0 0 0 3.63-3.614v-54.924zm19.168 0v54.924c0 1.001.404 1.905 1.06 2.558a3.63 3.63 0 0 0 2.57 1.056h.027a3.614 3.614 0 0 0 3.631-3.614v-54.924zm19.476 0v54.924a3.614 3.614 0 0 0 3.631 3.614h.029a3.614 3.614 0 0 0 3.63-3.614v-54.924zm19.168 0v54.924c0 1.001.404 1.905 1.06 2.558a3.629 3.629 0 0 0 2.571 1.056h.027a3.614 3.614 0 0 0 3.63-3.614v-54.924zm19.477 0v54.924a3.614 3.614 0 0 0 3.63 3.614h.027a3.614 3.614 0 0 0 3.631-3.614v-54.924zm19.166 0v54.924a3.614 3.614 0 0 0 3.63 3.614h.03a3.614 3.614 0 0 0 3.63-3.614v-54.924zm19.478 0v54.924c0 1.001.404 1.905 1.06 2.558a3.629 3.629 0 0 0 2.571 1.056h.027a3.614 3.614 0 0 0 3.631-3.614v-54.924zm19.166 0v54.924c0 1.001.404 1.905 1.06 2.558a3.629 3.629 0 0 0 2.571 1.056h.03a3.614 3.614 0 0 0 3.63-3.614v-54.924zm19.477 0v54.924c0 1.001.406 1.905 1.062 2.558a3.624 3.624 0 0 0 2.569 1.056h.029a3.614 3.614 0 0 0 3.63-3.614v-54.924zm19.168 0v54.924a3.614 3.614 0 0 0 3.63 3.614h.028a3.614 3.614 0 0 0 3.63-3.614v-54.924zm19.166 0v54.924a3.614 3.614 0 0 0 3.63 3.614h.03a3.614 3.614 0 0 0 3.63-3.614v-54.924zm19.478 0v54.924a3.614 3.614 0 0 0 3.631 3.614h.027a3.614 3.614 0 0 0 3.631-3.614v-54.924zm19.166 0v54.924a3.614 3.614 0 0 0 3.631 3.614h.03a3.614 3.614 0 0 0 3.63-3.614v-54.924zm19.477 0v54.924a3.614 3.614 0 0 0 3.63 3.614h.03a3.614 3.614 0 0 0 3.63-3.614v-54.924zm19.168 0v54.924a3.614 3.614 0 0 0 3.63 3.614h.028a3.614 3.614 0 0 0 3.63-3.614v-54.924zm19.476 0v54.924a3.614 3.614 0 0 0 3.631 3.614h.03a3.614 3.614 0 0 0 3.63-3.614v-54.924zm19.168 0v54.924a3.614 3.614 0 0 0 3.631 3.614h.027a3.614 3.614 0 0 0 3.631-3.614v-54.924zm19.477 0v54.924a3.614 3.614 0 0 0 3.63 3.614h.028a3.614 3.614 0 0 0 3.63-3.614v-54.924zm19.166 0v54.924c0 1.001.406 1.905 1.062 2.558a3.624 3.624 0 0 0 2.569 1.056h.029a3.614 3.614 0 0 0 3.63-3.614v-54.924zm19.478 0v54.924a3.614 3.614 0 0 0 3.631 3.614h.027a3.614 3.614 0 0 0 3.631-3.614v-54.924zm19.166 0v54.924c0 1.001.405 1.905 1.061 2.558a3.629 3.629 0 0 0 2.57 1.056h.03a3.614 3.614 0 0 0 3.63-3.614v-54.924zm19.168 0v54.924a3.614 3.614 0 0 0 3.631 3.614h.027a3.614 3.614 0 0 0 3.631-3.614v-54.924zm19.477 0v54.924a3.614 3.614 0 0 0 3.63 3.614h.028a3.614 3.614 0 0 0 3.63-3.614v-54.924z" fill="#f4f4f4"/>
    <g fill="none" stroke="#f4f4f4" stroke-width="7">
        <rect height="83.106" rx="12.117" width="83.106" x="951.952" y="953.727"/>
        <rect height="83.106" rx="12.117" width="83.106" x="851.952" y="953.727"/>
        <rect height="83.106" rx="12.117" width="83.106" x="751.952" y="953.727"/>
        <rect height="83.106" rx="12.117" width="83.106" x="651.952" y="953.727"/>
        <rect height="83.106" rx="12.117" width="83.106" x="551.952" y="953.727"/>
        <rect height="83.106" rx="12.117" width="83.106" x="451.952" y="953.727"/>
        <rect height="83.106" rx="12.117" width="83.106" x="351.952" y="953.727"/>
        <rect height="83.106" rx="12.117" width="83.106" x="251.952" y="953.727"/>
        <rect height="83.106" rx="12.117" width="83.106" x="1251.952" y="953.727"/>
        <rect height="83.106" rx="12.117" width="83.106" x="1151.952" y="953.727"/>
        <rect height="83.106" rx="12.117" width="83.106" x="1051.952" y="953.727"/>
        <rect height="83.106" rx="12.117" width="83.106" x="1551.952" y="953.727"/>
        <rect height="83.106" rx="12.117" width="83.106" x="1451.952" y="953.727"/>
        <rect height="83.106" rx="12.117" width="83.106" x="1351.952" y="953.727"/>
        <rect height="83.106" rx="12.117" width="83.106" x="901.25" y="849.727"/>
        <rect height="83.106" rx="12.117" width="83.106" x="801.25" y="849.727"/>
        <rect height="83.106" rx="12.117" width="83.106" x="701.25" y="849.727"/>
        <rect height="83.106" rx="12.117" width="83.106" x="601.25" y="849.727"/>
        <rect height="83.106" rx="12.117" width="83.106" x="501.25" y="849.727"/>
        <rect height="83.106" rx="12.117" width="83.106" x="401.25" y="849.727"/>
        <rect height="83.106" rx="12.117" width="83.106" x="301.25" y="849.727"/>
        <rect height="83.106" rx="12.117" width="83.106" x="201.25" y="849.727"/>
        <rect height="83.106" rx="12.117" width="83.106" x="1201.25" y="849.727"/>
        <rect height="83.106" rx="12.117" width="83.106" x="1101.25" y="849.727"/>
        <rect height="83.106" rx="12.117" width="83.106" x="1001.25" y="849.727"/>
        <rect height="83.106" rx="12.117" width="83.106" x="1501.25" y="849.727"/>
        <rect height="83.106" rx="12.117" width="83.106" x="1401.25" y="849.727"/>
        <rect height="83.106" rx="12.117" width="83.106" x="1301.25" y="849.727"/>
        <rect height="83.106" rx="12.117" width="83.106" x="1601.25" y="849.727"/>
        <rect height="83.106" rx="12.117" width="83.106" x="975.952" y="747.727"/>
        <rect height="83.106" rx="12.117" width="83.106" x="875.952" y="747.727"/>
        <rect height="83.106" rx="12.117" width="83.106" x="775.952" y="747.727"/>
        <rect height="83.106" rx="12.117" width="83.106" x="675.952" y="747.727"/>
        <rect height="83.106" rx="12.117" width="83.106" x="575.952" y="747.727"/>
        <rect height="83.106" rx="12.117" width="83.106" x="475.952" y="747.727"/>
        <rect height="83.106" rx="12.117" width="83.106" x="375.952" y="747.727"/>
        <rect height="83.106" rx="12.117" width="83.106" x="275.952" y="747.727"/>
        <rect height="83.106" rx="12.117" width="83.106" x="1275.952" y="747.727"/>
        <rect height="83.106" rx="12.117" width="83.106" x="1175.952" y="747.727"/>
        <rect height="83.106" rx="12.117" width="83.106" x="1075.952" y="747.727"/>
        <rect height="83.106" rx="12.117" width="83.106" x="1575.952" y="747.727"/>
        <rect height="83.106" rx="12.117" width="83.106" x="1475.952" y="747.727"/>
        <rect height="83.106" rx="12.117" width="83.106" x="1375.952" y="747.727"/>
        <rect height="83.106" rx="12.117" width="83.106" x="175.952" y="747.727"/>
        <rect height="83.106" rx="12.117" width="83.106" x="1025.952" y="643.727"/>
        <rect height="83.106" rx="12.117" width="83.106" x="925.952" y="643.727"/>
        <rect height="83.106" rx="12.117" width="83.106" x="825.952" y="643.727"/>
        <rect height="83.106" rx="12.117" width="83.106" x="725.952" y="643.727"/>
        <rect height="83.106" rx="12.117" width="83.106" x="625.952" y="643.727"/>
        <rect height="83.106" rx="12.117" width="83.106" x="525.952" y="643.727"/>
        <rect height="83.106" rx="12.117" width="83.106" x="425.952" y="643.727"/>
        <rect height="83.106" rx="12.117" width="83.106" x="325.952" y="643.727"/>
        <rect height="83.106" rx="12.117" width="83.106" x="1325.952" y="643.727"/>
        <rect height="83.106" rx="12.117" width="83.106" x="1225.952" y="643.727"/>
        <rect height="83.106" rx="12.117" width="83.106" x="1125.952" y="643.727"/>
        <rect height="83.106" rx="12.117" width="83.106" x="1625.952" y="643.727"/>
        <rect height="83.106" rx="12.117" width="83.106" x="1525.952" y="643.727"/>
        <rect height="83.106" rx="12.117" width="83.106" x="1425.952" y="643.727"/>
        <rect height="83.106" rx="12.117" width="83.106" x="225.952" y="643.727"/>
    </g>
</svg>
