<svg xmlns="http://www.w3.org/2000/svg" width="598.885" height="350.993" viewBox="0 0 158.455 92.867">
    <defs>
        <linearGradient id="b">
            <stop offset="0" style="stop-color:#8f9299;stop-opacity:1"/>
            <stop style="stop-color:#9f9fa1;stop-opacity:1" offset=".059"/>
            <stop offset=".497" style="stop-color:#84878e;stop-opacity:1"/>
            <stop style="stop-color:#5e6166;stop-opacity:1" offset=".883"/>
            <stop offset="1" style="stop-color:#575a5f;stop-opacity:1"/>
        </linearGradient>
        <linearGradient id="a">
            <stop style="stop-color:#8f9299;stop-opacity:1" offset="0"/>
            <stop offset=".012" style="stop-color:#9f9fa1;stop-opacity:1"/>
            <stop style="stop-color:#84878e;stop-opacity:1" offset=".497"/>
            <stop offset=".883" style="stop-color:#5e6166;stop-opacity:1"/>
            <stop style="stop-color:#575a5f;stop-opacity:1" offset="1"/>
        </linearGradient>
    </defs>
    <path d="M-4.639 263.82a4.557 4.557 0 0 0-4.56 4.56V327.844a3.97 3.97 0 0 0 3.97 3.973h79.073a3.971 3.971 0 0 0 3.972-3.972V274.12a3.971 3.971 0 0 0-3.972-3.973H23.756c-1.182 0-3.07-.806-3.76-3.132-.39-1.318-1.347-2.124-2.266-2.588-.918-.464-1.773-.606-2.166-.606l-19.91-.002zm0 .588 20.203.002c.222 0 1.078.126 1.9.541.823.416 1.634 1.102 1.97 2.233.762 2.57 2.874 3.552 4.322 3.552h50.088a3.371 3.371 0 0 1 3.385 3.385v53.723a3.371 3.371 0 0 1-3.385 3.385H-5.23a3.371 3.371 0 0 1-3.384-3.385V268.38a3.959 3.959 0 0 1 3.974-3.973z" style="color:#000;font-style:normal;font-variant:normal;font-weight:400;font-stretch:normal;font-size:medium;line-height:normal;font-family:sans-serif;text-indent:0;text-align:start;text-decoration:none;text-decoration-line:none;text-decoration-style:solid;text-decoration-color:#000;letter-spacing:normal;word-spacing:normal;text-transform:none;direction:ltr;writing-mode:lr-tb;baseline-shift:baseline;text-anchor:start;white-space:normal;clip-rule:nonzero;display:inline;overflow:visible;visibility:visible;opacity:1;isolation:auto;mix-blend-mode:normal;color-interpolation:sRGB;color-interpolation-filters:linearRGB;solid-color:#000;solid-opacity:1;fill:#fff;fill-opacity:1;fill-rule:nonzero;stroke:none;stroke-width:.58751982;stroke-linecap:butt;stroke-linejoin:miter;stroke-miterlimit:4;stroke-dasharray:none;stroke-dashoffset:0;stroke-opacity:1;color-rendering:auto;image-rendering:auto;shape-rendering:auto;text-rendering:auto;enable-background:accumulate" transform="matrix(1.07679 0 0 1.07679 42.286 -274.253)"/>
    <path d="M-4.47 274.223a4.727 4.727 0 0 0-4.731 4.73v44.162h.588V278.953c0-2.3 1.843-4.142 4.142-4.142h77.557c2.3 0 4.143 1.842 4.143 4.142v44.162h.587V278.953a4.727 4.727 0 0 0-4.73-4.73z" style="color:#000;font-style:normal;font-variant:normal;font-weight:400;font-stretch:normal;font-size:medium;line-height:normal;font-family:sans-serif;text-indent:0;text-align:start;text-decoration:none;text-decoration-line:none;text-decoration-style:solid;text-decoration-color:#000;letter-spacing:normal;word-spacing:normal;text-transform:none;direction:ltr;writing-mode:lr-tb;baseline-shift:baseline;text-anchor:start;white-space:normal;clip-rule:nonzero;display:inline;overflow:visible;visibility:visible;opacity:1;isolation:auto;mix-blend-mode:normal;color-interpolation:sRGB;color-interpolation-filters:linearRGB;solid-color:#000;solid-opacity:1;fill:#fff;fill-opacity:1;fill-rule:nonzero;stroke:none;stroke-width:.58751976;stroke-linecap:butt;stroke-linejoin:miter;stroke-miterlimit:4;stroke-dasharray:none;stroke-dashoffset:0;stroke-opacity:1;color-rendering:auto;image-rendering:auto;shape-rendering:auto;text-rendering:auto;enable-background:accumulate" transform="matrix(1.07679 0 0 1.07679 42.286 -274.253)"/>
    <path d="M-9.021 324.762V327.074h86.658v-2.312zm.228.228h86.201v1.856H-8.793z" style="color:#000;font-style:normal;font-variant:normal;font-weight:400;font-stretch:normal;font-size:medium;line-height:normal;font-family:sans-serif;text-indent:0;text-align:start;text-decoration:none;text-decoration-line:none;text-decoration-style:solid;text-decoration-color:#000;letter-spacing:normal;word-spacing:normal;text-transform:none;direction:ltr;writing-mode:lr-tb;baseline-shift:baseline;text-anchor:start;white-space:normal;clip-rule:nonzero;display:inline;overflow:visible;visibility:visible;opacity:1;isolation:auto;mix-blend-mode:normal;color-interpolation:sRGB;color-interpolation-filters:linearRGB;solid-color:#000;solid-opacity:1;fill:#fff;fill-opacity:1;fill-rule:nonzero;stroke:none;stroke-width:.22847994;stroke-linecap:butt;stroke-linejoin:miter;stroke-miterlimit:4;stroke-dasharray:none;stroke-dashoffset:0;stroke-opacity:1;color-rendering:auto;image-rendering:auto;shape-rendering:auto;text-rendering:auto;enable-background:accumulate" transform="matrix(1.07679 0 0 1.07679 42.286 -274.253)"/>
    <g style="fill:none;fill-opacity:1;stroke:#fff;stroke-width:7.73486614;stroke-miterlimit:4;stroke-dasharray:none">
        <g style="fill:none;fill-opacity:1;stroke:#fff;stroke-width:9.66858292;stroke-miterlimit:4;stroke-dasharray:none">
            <path d="M331.5 19.57c-138.623 0-254.283 98.592-280.71 229.5H0a5.93 5.93 0 0 0-4.744 9.487l76.5 102a5.93 5.93 0 0 0 9.488 0l76.5-102A5.93 5.93 0 0 0 153 249.07h-37.557C140.651 153.22 227.67 82.43 331.5 82.43c123.557 0 223.57 100.013 223.57 223.57 0 123.557-100.013 223.57-223.57 223.57-77.498 0-145.719-39.397-185.84-99.242a5.93 5.93 0 0 0-4.926-2.629H81.65a5.93 5.93 0 0 0-5.277 8.631c47.446 92.678 143.913 156.1 255.127 156.1 158.117 0 286.43-128.313 286.43-286.43 0-158.118-128.313-286.43-286.43-286.43Z" style="fill:none;fill-opacity:1;stroke:#fff;stroke-width:9.66858292;stroke-miterlimit:4;stroke-dasharray:none" transform="matrix(.07367 0 0 .07367 56.686 26.11)"/>
            <path d="M318.75 119.744a8.572 8.572 0 0 0-8.572 8.572v186.61a8.572 8.572 0 0 0 4.22 7.385l132.881 78.308a8.572 8.572 0 0 0 11.735-3.03l12.955-21.954a8.572 8.572 0 0 0-3.002-11.723l-116.145-69.06V128.316a8.572 8.572 0 0 0-8.572-8.572Z" style="fill:none;fill-opacity:1;stroke:#fff;stroke-width:9.66858292;stroke-miterlimit:4;stroke-dasharray:none" transform="matrix(.07367 0 0 .07367 56.223 27.878)"/>
        </g>
    </g>
    <path d="M-9.021 326.846v2.037h86.658v-2.037zm.228.228h86.201v1.58H-8.793z" style="color:#000;font-style:normal;font-variant:normal;font-weight:400;font-stretch:normal;font-size:medium;line-height:normal;font-family:sans-serif;text-indent:0;text-align:start;text-decoration:none;text-decoration-line:none;text-decoration-style:solid;text-decoration-color:#000;letter-spacing:normal;word-spacing:normal;text-transform:none;direction:ltr;writing-mode:lr-tb;baseline-shift:baseline;text-anchor:start;white-space:normal;clip-rule:nonzero;display:inline;overflow:visible;visibility:visible;opacity:1;isolation:auto;mix-blend-mode:normal;color-interpolation:sRGB;color-interpolation-filters:linearRGB;solid-color:#000;solid-opacity:1;fill:#fff;fill-opacity:1;fill-rule:nonzero;stroke:none;stroke-width:.22847994;stroke-linecap:butt;stroke-linejoin:miter;stroke-miterlimit:4;stroke-dasharray:none;stroke-dashoffset:0;stroke-opacity:1;color-rendering:auto;image-rendering:auto;shape-rendering:auto;text-rendering:auto;enable-background:accumulate" transform="matrix(1.07679 0 0 1.07679 42.286 -274.253)"/>
</svg>
