<svg xmlns="http://www.w3.org/2000/svg" width="598.885" height="350.993" viewBox="0 0 158.455 92.867">
    <defs>
        <linearGradient id="b">
            <stop offset="0" style="stop-color:#8f9299;stop-opacity:1"/>
            <stop style="stop-color:#9f9fa1;stop-opacity:1" offset=".059"/>
            <stop offset=".497" style="stop-color:#84878e;stop-opacity:1"/>
            <stop style="stop-color:#5e6166;stop-opacity:1" offset=".883"/>
            <stop offset="1" style="stop-color:#575a5f;stop-opacity:1"/>
        </linearGradient>
        <linearGradient id="a">
            <stop style="stop-color:#8f9299;stop-opacity:1" offset="0"/>
            <stop offset=".012" style="stop-color:#9f9fa1;stop-opacity:1"/>
            <stop style="stop-color:#84878e;stop-opacity:1" offset=".497"/>
            <stop offset=".883" style="stop-color:#5e6166;stop-opacity:1"/>
            <stop style="stop-color:#575a5f;stop-opacity:1" offset="1"/>
        </linearGradient>
    </defs>
    <g style="stroke-width:1.24834025;stroke-miterlimit:4;stroke-dasharray:none;fill:#000">
        <g style="fill:#fff">
            <path d="M-4.639 263.82a4.557 4.557 0 0 0-4.56 4.56V327.844a3.97 3.97 0 0 0 3.97 3.973h79.073a3.971 3.971 0 0 0 3.972-3.972V274.12a3.971 3.971 0 0 0-3.972-3.973H23.756c-1.182 0-3.07-.806-3.76-3.132-.39-1.318-1.347-2.124-2.266-2.588-.918-.464-1.773-.606-2.166-.606l-19.91-.002zm0 .588 20.203.002c.222 0 1.078.126 1.9.541.823.416 1.634 1.102 1.97 2.233.762 2.57 2.874 3.552 4.322 3.552h50.088a3.371 3.371 0 0 1 3.385 3.385v53.723a3.371 3.371 0 0 1-3.385 3.385H-5.23a3.371 3.371 0 0 1-3.384-3.385V268.38a3.959 3.959 0 0 1 3.974-3.973z" style="color:#000;font-style:normal;font-variant:normal;font-weight:400;font-stretch:normal;font-size:medium;line-height:normal;font-family:sans-serif;text-indent:0;text-align:start;text-decoration:none;text-decoration-line:none;text-decoration-style:solid;text-decoration-color:#000;letter-spacing:normal;word-spacing:normal;text-transform:none;direction:ltr;writing-mode:lr-tb;baseline-shift:baseline;text-anchor:start;white-space:normal;clip-rule:nonzero;display:inline;overflow:visible;visibility:visible;opacity:1;isolation:auto;mix-blend-mode:normal;color-interpolation:sRGB;color-interpolation-filters:linearRGB;solid-color:#000;solid-opacity:1;fill:#fff;fill-opacity:1;fill-rule:nonzero;stroke:none;stroke-width:.58751982;stroke-linecap:butt;stroke-linejoin:miter;stroke-miterlimit:4;stroke-dasharray:none;stroke-dashoffset:0;stroke-opacity:1;color-rendering:auto;image-rendering:auto;shape-rendering:auto;text-rendering:auto;enable-background:accumulate" transform="matrix(1.07679 0 0 1.07679 42.286 -274.253)"/>
            <path d="M-4.47 274.223a4.727 4.727 0 0 0-4.731 4.73v44.162h.588V278.953c0-2.3 1.843-4.142 4.142-4.142h77.557c2.3 0 4.143 1.842 4.143 4.142v44.162h.587V278.953a4.727 4.727 0 0 0-4.73-4.73z" style="color:#000;font-style:normal;font-variant:normal;font-weight:400;font-stretch:normal;font-size:medium;line-height:normal;font-family:sans-serif;text-indent:0;text-align:start;text-decoration:none;text-decoration-line:none;text-decoration-style:solid;text-decoration-color:#000;letter-spacing:normal;word-spacing:normal;text-transform:none;direction:ltr;writing-mode:lr-tb;baseline-shift:baseline;text-anchor:start;white-space:normal;clip-rule:nonzero;display:inline;overflow:visible;visibility:visible;opacity:1;isolation:auto;mix-blend-mode:normal;color-interpolation:sRGB;color-interpolation-filters:linearRGB;solid-color:#000;solid-opacity:1;fill:#fff;fill-opacity:1;fill-rule:nonzero;stroke:none;stroke-width:.58751976;stroke-linecap:butt;stroke-linejoin:miter;stroke-miterlimit:4;stroke-dasharray:none;stroke-dashoffset:0;stroke-opacity:1;color-rendering:auto;image-rendering:auto;shape-rendering:auto;text-rendering:auto;enable-background:accumulate" transform="matrix(1.07679 0 0 1.07679 42.286 -274.253)"/>
            <path d="M-9.021 324.762V327.074h86.658v-2.312zm.228.228h86.201v1.856H-8.793z" style="color:#000;font-style:normal;font-variant:normal;font-weight:400;font-stretch:normal;font-size:medium;line-height:normal;font-family:sans-serif;text-indent:0;text-align:start;text-decoration:none;text-decoration-line:none;text-decoration-style:solid;text-decoration-color:#000;letter-spacing:normal;word-spacing:normal;text-transform:none;direction:ltr;writing-mode:lr-tb;baseline-shift:baseline;text-anchor:start;white-space:normal;clip-rule:nonzero;display:inline;overflow:visible;visibility:visible;opacity:1;isolation:auto;mix-blend-mode:normal;color-interpolation:sRGB;color-interpolation-filters:linearRGB;solid-color:#000;solid-opacity:1;fill:#fff;fill-opacity:1;fill-rule:nonzero;stroke:none;stroke-width:.22847994;stroke-linecap:butt;stroke-linejoin:miter;stroke-miterlimit:4;stroke-dasharray:none;stroke-dashoffset:0;stroke-opacity:1;color-rendering:auto;image-rendering:auto;shape-rendering:auto;text-rendering:auto;enable-background:accumulate" transform="matrix(1.07679 0 0 1.07679 42.286 -274.253)"/>
            <path d="M-9.021 326.846v2.037h86.658v-2.037zm.228.228h86.201v1.58H-8.793z" style="color:#000;font-style:normal;font-variant:normal;font-weight:400;font-stretch:normal;font-size:medium;line-height:normal;font-family:sans-serif;text-indent:0;text-align:start;text-decoration:none;text-decoration-line:none;text-decoration-style:solid;text-decoration-color:#000;letter-spacing:normal;word-spacing:normal;text-transform:none;direction:ltr;writing-mode:lr-tb;baseline-shift:baseline;text-anchor:start;white-space:normal;clip-rule:nonzero;display:inline;overflow:visible;visibility:visible;opacity:1;isolation:auto;mix-blend-mode:normal;color-interpolation:sRGB;color-interpolation-filters:linearRGB;solid-color:#000;solid-opacity:1;fill:#fff;fill-opacity:1;fill-rule:nonzero;stroke:none;stroke-width:.22847994;stroke-linecap:butt;stroke-linejoin:miter;stroke-miterlimit:4;stroke-dasharray:none;stroke-dashoffset:0;stroke-opacity:1;color-rendering:auto;image-rendering:auto;shape-rendering:auto;text-rendering:auto;enable-background:accumulate" transform="matrix(1.07679 0 0 1.07679 42.286 -274.253)"/>
        </g>
        <g aria-label="2p" style="font-style:normal;font-variant:normal;font-weight:700;font-stretch:normal;font-size:8.73690891px;line-height:1.25;font-family:'Caflisch Script';-inkscape-font-specification:'Caflisch Script Bold';letter-spacing:0;word-spacing:0;fill:#fff;fill-opacity:1;stroke:none;stroke-width:.5040524">
            <path style="font-style:normal;font-variant:normal;font-weight:400;font-stretch:normal;font-size:86.02494812px;font-family:'Eras Light ITC';-inkscape-font-specification:'Eras Light ITC';fill:#fff;stroke-width:.5040524" d="M170.125 261.705c-3.912.17-7.812.63-11.65 1.402.058.6-.498 1.407-.207 1.873 7.38-1.698 15.354-3.458 22.728-.785 4.17 1.55 7.447 6.032 6.485 10.581-.875 5.922-5.15 10.49-8.545 15.145-7.329 9.331-15.643 17.815-23.749 26.466.116.757-.219 1.55.038 2.285 10.613-.089 21.357.014 31.888-.043-.068-.574.546-1.905-.554-1.532-9.573.58-19.184.475-28.76.311-1.08-.432-.23-1.681.459-2.043 10.306-10.742 20.757-21.54 28.84-34.118 2.301-4.14 3.587-9.819.552-13.945-3.237-4.323-8.986-5.543-14.087-5.63-1.146-.044-2.292-.005-3.438.033zM218.314 276.57c-5.422.078-10.769 1.132-15.978 2.508-.488 19.174-1.064 38.359-2.068 57.508-.474.817.65.834 1.148.75.66.16 1.427-.146 1.087-.93-.125-9.212.374-18.432.692-27.625.644-.543.858.967 1.139 1.346 1.992 4.136 5.487 7.925 10.209 8.773 7.238 1.933 15.974-.533 19.96-7.207 5.184-8.144 5.691-19.156 1.048-27.647-2.442-4.098-6.953-6.605-11.63-7.13-1.853-.292-3.733-.37-5.607-.346zm2.04 1.14c6.568-.105 13.223 4.192 14.992 10.675 2.614 7.682 1.48 16.531-2.795 23.396-3.347 4.907-9.6 7.617-15.467 6.526-6.231-.92-12.04-5.76-12.982-12.17-1.277-6.48-.156-13.093-.09-19.626.108-1.912.264-3.822.406-5.732 5.086-1.906 10.48-3.13 15.935-3.068z" transform="translate(-24.023 -107.866) scale(.52491)"/>
        </g>
    </g>
</svg>
