<svg xmlns="http://www.w3.org/2000/svg" width="598.885" height="350.993" viewBox="0 0 158.455 92.867">
    <defs>
        <linearGradient id="b">
            <stop offset="0" style="stop-color:#8f9299;stop-opacity:1"/>
            <stop style="stop-color:#9f9fa1;stop-opacity:1" offset=".059"/>
            <stop offset=".497" style="stop-color:#84878e;stop-opacity:1"/>
            <stop style="stop-color:#5e6166;stop-opacity:1" offset=".883"/>
            <stop offset="1" style="stop-color:#575a5f;stop-opacity:1"/>
        </linearGradient>
        <linearGradient id="a">
            <stop style="stop-color:#8f9299;stop-opacity:1" offset="0"/>
            <stop offset=".012" style="stop-color:#9f9fa1;stop-opacity:1"/>
            <stop style="stop-color:#84878e;stop-opacity:1" offset=".497"/>
            <stop offset=".883" style="stop-color:#5e6166;stop-opacity:1"/>
            <stop style="stop-color:#575a5f;stop-opacity:1" offset="1"/>
        </linearGradient>
    </defs>
    <g style="stroke-width:1.24834025;stroke-miterlimit:4;stroke-dasharray:none;fill:#fff">
        <g style="fill:#fff">
            <path d="M-4.639 263.82a4.557 4.557 0 0 0-4.56 4.56V327.844a3.97 3.97 0 0 0 3.97 3.973h79.073a3.971 3.971 0 0 0 3.972-3.972V274.12a3.971 3.971 0 0 0-3.972-3.973H23.756c-1.182 0-3.07-.806-3.76-3.132-.39-1.318-1.347-2.124-2.266-2.588-.918-.464-1.773-.606-2.166-.606l-19.91-.002zm0 .588 20.203.002c.222 0 1.078.126 1.9.541.823.416 1.634 1.102 1.97 2.233.762 2.57 2.874 3.552 4.322 3.552h50.088a3.371 3.371 0 0 1 3.385 3.385v53.723a3.371 3.371 0 0 1-3.385 3.385H-5.23a3.371 3.371 0 0 1-3.384-3.385V268.38a3.959 3.959 0 0 1 3.974-3.973z" style="color:#000;font-style:normal;font-variant:normal;font-weight:400;font-stretch:normal;font-size:medium;line-height:normal;font-family:sans-serif;text-indent:0;text-align:start;text-decoration:none;text-decoration-line:none;text-decoration-style:solid;text-decoration-color:#000;letter-spacing:normal;word-spacing:normal;text-transform:none;direction:ltr;writing-mode:lr-tb;baseline-shift:baseline;text-anchor:start;white-space:normal;clip-rule:nonzero;display:inline;overflow:visible;visibility:visible;opacity:1;isolation:auto;mix-blend-mode:normal;color-interpolation:sRGB;color-interpolation-filters:linearRGB;solid-color:#000;solid-opacity:1;fill:#fff;fill-opacity:1;fill-rule:nonzero;stroke:none;stroke-width:.58751982;stroke-linecap:butt;stroke-linejoin:miter;stroke-miterlimit:4;stroke-dasharray:none;stroke-dashoffset:0;stroke-opacity:1;color-rendering:auto;image-rendering:auto;shape-rendering:auto;text-rendering:auto;enable-background:accumulate" transform="matrix(1.07679 0 0 1.07679 42.286 -274.253)"/>
            <path d="M-4.47 274.223a4.727 4.727 0 0 0-4.731 4.73v44.162h.588V278.953c0-2.3 1.843-4.142 4.142-4.142h77.557c2.3 0 4.143 1.842 4.143 4.142v44.162h.587V278.953a4.727 4.727 0 0 0-4.73-4.73z" style="color:#000;font-style:normal;font-variant:normal;font-weight:400;font-stretch:normal;font-size:medium;line-height:normal;font-family:sans-serif;text-indent:0;text-align:start;text-decoration:none;text-decoration-line:none;text-decoration-style:solid;text-decoration-color:#000;letter-spacing:normal;word-spacing:normal;text-transform:none;direction:ltr;writing-mode:lr-tb;baseline-shift:baseline;text-anchor:start;white-space:normal;clip-rule:nonzero;display:inline;overflow:visible;visibility:visible;opacity:1;isolation:auto;mix-blend-mode:normal;color-interpolation:sRGB;color-interpolation-filters:linearRGB;solid-color:#000;solid-opacity:1;fill:#fff;fill-opacity:1;fill-rule:nonzero;stroke:none;stroke-width:.58751976;stroke-linecap:butt;stroke-linejoin:miter;stroke-miterlimit:4;stroke-dasharray:none;stroke-dashoffset:0;stroke-opacity:1;color-rendering:auto;image-rendering:auto;shape-rendering:auto;text-rendering:auto;enable-background:accumulate" transform="matrix(1.07679 0 0 1.07679 42.286 -274.253)"/>
            <path d="M-9.021 324.762V327.074h86.658v-2.312zm.228.228h86.201v1.856H-8.793z" style="color:#000;font-style:normal;font-variant:normal;font-weight:400;font-stretch:normal;font-size:medium;line-height:normal;font-family:sans-serif;text-indent:0;text-align:start;text-decoration:none;text-decoration-line:none;text-decoration-style:solid;text-decoration-color:#000;letter-spacing:normal;word-spacing:normal;text-transform:none;direction:ltr;writing-mode:lr-tb;baseline-shift:baseline;text-anchor:start;white-space:normal;clip-rule:nonzero;display:inline;overflow:visible;visibility:visible;opacity:1;isolation:auto;mix-blend-mode:normal;color-interpolation:sRGB;color-interpolation-filters:linearRGB;solid-color:#000;solid-opacity:1;fill:#fff;fill-opacity:1;fill-rule:nonzero;stroke:none;stroke-width:.22847994;stroke-linecap:butt;stroke-linejoin:miter;stroke-miterlimit:4;stroke-dasharray:none;stroke-dashoffset:0;stroke-opacity:1;color-rendering:auto;image-rendering:auto;shape-rendering:auto;text-rendering:auto;enable-background:accumulate" transform="matrix(1.07679 0 0 1.07679 42.286 -274.253)"/>
            <path d="M-9.021 326.846v2.037h86.658v-2.037zm.228.228h86.201v1.58H-8.793z" style="color:#000;font-style:normal;font-variant:normal;font-weight:400;font-stretch:normal;font-size:medium;line-height:normal;font-family:sans-serif;text-indent:0;text-align:start;text-decoration:none;text-decoration-line:none;text-decoration-style:solid;text-decoration-color:#000;letter-spacing:normal;word-spacing:normal;text-transform:none;direction:ltr;writing-mode:lr-tb;baseline-shift:baseline;text-anchor:start;white-space:normal;clip-rule:nonzero;display:inline;overflow:visible;visibility:visible;opacity:1;isolation:auto;mix-blend-mode:normal;color-interpolation:sRGB;color-interpolation-filters:linearRGB;solid-color:#000;solid-opacity:1;fill:#fff;fill-opacity:1;fill-rule:nonzero;stroke:none;stroke-width:.22847994;stroke-linecap:butt;stroke-linejoin:miter;stroke-miterlimit:4;stroke-dasharray:none;stroke-dashoffset:0;stroke-opacity:1;color-rendering:auto;image-rendering:auto;shape-rendering:auto;text-rendering:auto;enable-background:accumulate" transform="matrix(1.07679 0 0 1.07679 42.286 -274.253)"/>
        </g>
    </g>
    <g aria-label="4p" style="font-style:normal;font-variant:normal;font-weight:700;font-stretch:normal;font-size:4.58611107px;line-height:1.25;font-family:'Caflisch Script';-inkscape-font-specification:'Caflisch Script Bold';letter-spacing:0;word-spacing:0;fill:#fff;fill-opacity:1;stroke:none;stroke-width:.26458332">
        <path style="font-style:normal;font-variant:normal;font-weight:400;font-stretch:normal;font-size:45.15555573px;font-family:'Eras Light ITC';-inkscape-font-specification:'Eras Light ITC';fill:#fff;stroke-width:.26458332" d="M60.2 269.117c-.866.297-1.078 1.352-1.67 1.962-3.607 4.93-7.221 9.854-10.885 14.741.087.44-.223 1.077.1 1.375 4.18-.036 8.362-.065 12.544-.084-.162 3.84-.3 7.681-.56 11.516.427-.115 1.075.257 1.332-.227-.052-3.766.1-7.532.193-11.297 1.713-.006 3.426.115 5.139.02.287-.405-.128-1.011-.598-.738-1.49.052-2.982.028-4.473.052.22-5.764.472-11.528.787-17.289-.421.062-1.272-.238-1.306.42.084 2.064-.065 4.153-.096 6.226-.095 3.444-.24 6.886-.41 10.327-.4.673-1.281.157-1.899.31H48.164c4.234-5.745 8.466-11.492 12.701-17.236-.215-.064-.44-.128-.666-.078zM80.695 276.527c-2.675.119-5.317.618-7.9 1.309-.27 10.024-.568 20.049-1.078 30.064-.27.507.419.573.752.551.648.05.358-.741.416-1.117.023-4.502.217-9 .351-13.5.462-.364.715.433.855.76 1.122 2.339 3.446 4.123 6.055 4.346 3.712.656 7.984-.896 9.791-4.34 2.547-4.403 2.737-10.263.008-14.63-1.545-2.207-4.25-3.273-6.871-3.392-.791-.07-1.586-.067-2.379-.05zm1.287.62c3.481-.147 7.106 2.04 8.086 5.48 1.404 3.955.857 8.488-1.23 12.093-1.682 2.66-4.918 4.22-8.037 3.735-3.244-.39-6.408-2.82-6.996-6.168-.729-3.254-.164-6.631-.13-9.936.069-1.201.152-2.401.24-3.601 2.592-.953 5.296-1.574 8.067-1.604z" transform="translate(9.201 -238.95)"/>
    </g>
</svg>
