<svg height="351.071" viewBox="0 0 2569.553 1965.996" width="458.849" xmlns="http://www.w3.org/2000/svg">
    <g fill="#f4f4f4" fill-opacity=".5" stroke-width="5.6">
        <path d="M402.91 1088.102q0 1.792-.433 3.016-.642 1.822-2.06 1.822-.941 0-1.972-.433-1.24-.523-1.359-1.284.418 0 .986.15 1.314.343 1.643.343 1.269 0 1.911-1.27.508-1.015.508-2.434 0-1-.657-2.852-.642-1.867-.642-2.599 0-.224.12-.358.133-.15.357-.15.583 0 1.135 2.689.463 2.27.463 3.36zM408.66 1089.625q0 1.523-.881 2.39-.881.865-2.435.865-.85 0-1.314-.403-.463-.403-.463-1.24 0-1.179 1.539-2.374 1.463-1.135 2.703-1.135.567 0 .746.702.105.404.105 1.195zm-.911.418q0-.18-.045-.343-.03-.18-.12-.404-.238.165-.791.807-.284.328-.493.478 0-.284.06-.463.12-.254.194-.433-.657 0-1.374.552-.702.553-.702 1.195 0 .433.478.433.911 0 1.762-.448 1.03-.538 1.03-1.374zM414.812 1090.237q0 .732-.552 1.643-.627 1.03-1.3 1.03-.194 0-.328-.209-.12-.224-.12-.433 0-.269.568-.836.582-.582.582-.792 0-.134-.044-.268l-.06-.18q-1.12.254-2.285 1.285-1.15 1.03-1.747 1.165-.12-.329-.12-.672 0-.419.195-.882.134-.328.448-.791.522-.791 1.105-1.792l1.03-1.807q.747-1.284 1.09-1.822.18-.269.314-.403.194-.18.463-.239.179.06.254.224.09.164.09.388 0 .508-.658 1.374-1.195 1.553-1.224 1.613-.672 1.015-.672 1.837l.03.15q.82-.404.97-.464.612-.254 1.045-.254.478 0 .702.329.224.313.224.806zM421.741 1089.356q0 1.016-.492 2.165-.538 1.27-1.33 1.748-.164-.194-.283-.433-.105-.24-.105-.478 0-.254.747-1.509.328-.552.299-.97l-.015-.194q-.553.164-1.912 1-1.344.822-2.718 1.673-.209 0-.388-.15-.164-.164-.164-.358 0-.314 1-2.106.299-.537 1.076-1.866.238.313.313.702.075.373.075.896v.343q1.374-.821 2.15-1.24.851-.462 1.165-.462.21 0 .388.478.194.477.194.761zM434.719 1092.253q0 .27-.24.418-.223.135-.507.135-.254 0-.642-.06-.881-.135-1.135-.135-.448 0-1.762.105-.747.06-1.076.06-.91 0-.91-.911 0-.866.567-2.479.314-.91 1.18-2.987.776-1.866.985-2.628.075-.239.12-.314.12-.179.298-.179.284 0 .478.418.194.404.194.732 0 .523-.612 1.762-.612 1.225-1.195 2.405-.642 1.403-.642 2.135 0 .373.314.523.224.104.657.104.329 0 1.135-.075.806-.09 1.075-.09.672 0 1.105.194.613.27.613.866zM440.274 1089.625q0 1.523-.881 2.39-.881.865-2.434.865-.852 0-1.315-.403-.463-.403-.463-1.24 0-1.179 1.539-2.374 1.463-1.135 2.703-1.135.567 0 .746.702.105.404.105 1.195zm-.911.418q0-.18-.045-.343-.03-.18-.12-.404-.238.165-.79.807-.285.328-.494.478 0-.284.06-.463.12-.254.194-.433-.657 0-1.374.552-.702.553-.702 1.195 0 .433.478.433.911 0 1.762-.448 1.03-.538 1.03-1.374zM446.56 1089.311q0 .478-.253 1.016-.24.537-.612.896l-.015-.21q0-.178.044-.552.045-.373.045-.552 0-.254-.074-.374-.075-.134-.314-.134-.702 0-1.747 1.09l-2.255 2.374q-.09 0-.18-.015-.223-.06-.298-.075.045-.537.373-1.194.881-1.777.911-1.897.12-.478.18-.702.06-.224.164-.463.12-.253.268-.448.165-.209.419-.313l.149 1.792q.642-.523.986-.807.657-.522 1.134-.522.478 0 .777.313.299.314.299.777zM453.893 1087.58q0 .626-1.673 1.657-1.612.985-2.344.985-.344 0-.463-.239-.105-.239-.105-.672v-.403q1.001 0 1.822-.299.822-.298 1.434-.985-.448-.164-.911-.164-1.09 0-2.315.836-1.344.91-1.344 1.941 0 .986 1.344 1.374.21.06 2.524.418 1.359.21 1.359.732 0 .224-.493.358-.493.15-1.254.15-1.912 0-3.017-.583-1.463-.776-1.463-2.494 0-1.792 1.792-2.852 1.523-.896 3.464-.896.583 0 1.06.269.583.329.583.866zM459.837 1084.906q0 .329-.792 1.374-.791 1.045-.791 1.598 0 .284.328.567.747.657.747.807 0 .194-.135.373-.12.18-.313.18-.165 0-.463-.18-.21-.12-.807-.582-.224.433-.343.657-.418.791-.568 1.15l-.448 1.373q-.388.926-.97.926l-.015-.343q0-1.06.687-2.509.134-.269.747-1.389-1.18-.642-2.599-.642 0-.553.224-.806.239-.27.792-.27.507 0 1.269.18l.747.18q.283-.09.776-.971 1.21-2.121 1.643-2.435.12.194.194.389.09.194.09.373zM465.347 1090.237q0 .732-.553 1.643-.627 1.03-1.299 1.03-.194 0-.328-.209-.12-.224-.12-.433 0-.269.568-.836.582-.582.582-.792 0-.134-.045-.268l-.06-.18q-1.12.254-2.284 1.285-1.15 1.03-1.747 1.165-.12-.329-.12-.672 0-.419.194-.882.135-.328.448-.791.523-.791 1.105-1.792l1.03-1.807q.747-1.284 1.09-1.822.18-.269.314-.403.195-.18.463-.239.18.06.254.224.09.164.09.388 0 .508-.657 1.374-1.195 1.553-1.225 1.613-.672 1.015-.672 1.837l.03.15q.821-.404.97-.464.613-.254 1.046-.254.478 0 .702.329.224.313.224.806zM477.607 1085.369q0 .702-.746 1.882-.478.746-1.568 2.15-1.09 1.389-1.36 1.822l1.12.358q1.09.329 1.09 1.195-.447.075-.88.134l-.165-.015v-.12q-.238-.06-.388-.06-.284 0-.896.09-.612.09-.926.09-.403 0-.657-.149t-.254-.537q0-.314 1.15-1.777 2.15-2.733 2.166-2.763 1.164-1.583 1.164-2.12 0-.21-.149-.314-.134-.105-.552-.105-.284 0-1.18.553-.433.269-.702.269l-.254-.045q-.09-.06-.194-.224-.105-.18-.105-.284 0-.627 1.21-1.15 1.03-.448 1.792-.448.642 0 .986.478.298.418.298 1.09zM486.582 1088.057q0 1.807-1.956 3.196-1.792 1.27-3.689 1.27-.94 0-1.493-.479-.552-.478-.552-1.389 0-2.03 1.777-3.524 1.687-1.419 3.778-1.419 1.06 0 1.598.628.537.627.537 1.717zm-.91.343q0-.687-.777-1.03-.583-.254-1.39-.254-1.179 0-2.463 1.15t-1.284 2.315q0 .478.239.687.253.194.761.194 1.464 0 3.047-.807 1.866-.955 1.866-2.255zM493.422 1085.369q0 .702-.747 1.882-.478.746-1.568 2.15-1.09 1.389-1.359 1.822l1.12.358q1.09.329 1.09 1.195-.448.075-.88.134l-.165-.015v-.12q-.239-.06-.388-.06-.284 0-.896.09-.613.09-.926.09-.403 0-.657-.149t-.254-.537q0-.314 1.15-1.777 2.15-2.733 2.165-2.763 1.165-1.583 1.165-2.12 0-.21-.15-.314-.134-.105-.552-.105-.284 0-1.18.553-.433.269-.702.269l-.253-.045q-.09-.06-.195-.224-.104-.18-.104-.284 0-.627 1.21-1.15 1.03-.448 1.791-.448.643 0 .986.478.299.418.299 1.09zM500.291 1085.369q0 .702-.747 1.882-.477.746-1.568 2.15-1.09 1.389-1.359 1.822l1.12.358q1.09.329 1.09 1.195-.447.075-.88.134l-.165-.015v-.12q-.239-.06-.388-.06-.284 0-.896.09-.612.09-.926.09-.403 0-.657-.149t-.254-.537q0-.314 1.15-1.777 2.15-2.733 2.165-2.763 1.165-1.583 1.165-2.12 0-.21-.15-.314-.134-.105-.552-.105-.283 0-1.18.553-.432.269-.701.269l-.254-.045q-.09-.06-.194-.224-.105-.18-.105-.284 0-.627 1.21-1.15 1.03-.448 1.792-.448.642 0 .985.478.3.418.3 1.09z"/>
    </g>
    <g fill="none" stroke="#f4f4f4">
        <path d="M2436.289 1H1284.895m-.118 1963.996H2539.32a29.17 29.17 0 0 0 29.233-29.233V932.383l-103.03-902.15C2463.683 14.144 2452.483 1 2436.288 1M133.265 1h1151.393m.119 1963.996H30.234A29.17 29.17 0 0 1 1 1935.763V932.383l103.031-902.15C105.87 14.144 117.07 1 133.265 1" stroke-linecap="round" stroke-width="11.2"/>
        <path d="M141.075 932.102h2287.367a7.9 7.9 0 0 1 7.917 7.917v926.738a7.9 7.9 0 0 1-7.917 7.917H141.075a7.9 7.9 0 0 1-7.917-7.917V940.019a7.9 7.9 0 0 1 7.917-7.917z" stroke-linecap="round" stroke-width="11.2"/>
        <g stroke-width="5.6">
            <path d="M218.674 1225.926h138v331.2h-138z" stroke-linecap="round"/>
            <path d="M2384.528 932.102v166.045m29.9-166.045v166.045M505.277 932.102v166.045m-372.12 0h2303.01"/>
            <g stroke-linecap="round" transform="translate(-365.62 -269.164)">
                <rect height="105.679" rx="7.563" width="15.126" x="548.999" y="1226.504"/>
                <rect height="105.679" rx="7.563" width="15.126" x="585.799" y="1226.504"/>
                <rect height="105.679" rx="7.563" width="15.126" x="622.599" y="1226.504"/>
                <rect height="105.679" rx="7.563" width="15.126" x="659.399" y="1226.504"/>
                <rect height="105.679" rx="7.563" width="15.126" x="696.198" y="1226.504"/>
                <rect height="105.679" rx="7.563" width="15.126" x="732.998" y="1226.504"/>
                <rect height="105.679" rx="7.563" width="15.126" x="769.798" y="1226.504"/>
                <rect height="105.679" rx="7.563" width="15.126" x="806.598" y="1226.504"/>
                <circle cx="1087.111" cy="2086.579" r="12.65"/>
                <circle cx="959.68" cy="2086.579" r="12.65"/>
                <circle cx="835.481" cy="2086.579" r="12.65"/>
            </g>
        </g>
        <g stroke-linecap="round" stroke-width="11.2">
            <rect height="96.6" rx="13.899" width="96.6" x="1417.301" y="1593.588"/>
            <rect height="96.6" rx="13.899" width="96.6" x="1536.901" y="1593.588"/>
            <rect height="96.6" rx="13.899" width="96.6" x="1651.9" y="1593.588"/>
            <rect height="96.6" rx="13.899" width="96.6" x="1771.5" y="1593.588"/>
            <rect height="96.6" rx="13.899" ry="13.899" width="156.403" x="1886.502" y="1593.588"/>
            <rect height="96.6" rx="13.899" width="96.6" x="2065.909" y="1593.588"/>
            <rect height="96.6" rx="13.899" width="96.6" x="1302.302" y="1593.588"/>
            <rect height="96.6" rx="13.899" width="96.6" x="1182.702" y="1593.588"/>
            <rect height="96.6" rx="13.899" width="96.6" x="1067.703" y="1593.588"/>
            <rect height="96.6" rx="13.899" width="96.6" x="948.104" y="1593.588"/>
            <rect height="96.6" rx="13.899" width="96.6" x="833.104" y="1593.588"/>
            <rect height="96.6" rx="13.899" width="96.6" x="713.505" y="1593.588"/>
            <rect height="96.6" rx="13.899" ry="13.899" width="156.4" x="534.106" y="1593.588"/>
            <rect height="96.6" rx="13.899" width="96.6" x="414.506" y="1593.588"/>
            <rect height="96.6" rx="13.899" width="96.6" x="2180.908" y="1593.588"/>
            <rect height="96.6" rx="13.899" width="96.6" x="1352.901" y="1473.988"/>
            <rect height="96.6" rx="13.899" width="96.6" x="1472.501" y="1473.988"/>
            <rect height="96.6" rx="13.899" width="96.6" x="1587.5" y="1473.988"/>
            <rect height="96.6" rx="13.899" width="96.6" x="1707.1" y="1473.988"/>
            <rect height="96.6" rx="13.899" width="96.6" x="1822.102" y="1473.988"/>
            <rect height="96.6" rx="13.899" width="96.6" x="1941.705" y="1473.988"/>
            <rect height="96.6" rx="13.899" width="96.6" x="1237.902" y="1473.988"/>
            <rect height="96.6" rx="13.899" width="96.6" x="1118.302" y="1473.988"/>
            <rect height="96.6" rx="13.899" width="96.6" x="1003.303" y="1473.988"/>
            <rect height="96.6" rx="13.899" width="96.6" x="883.704" y="1473.988"/>
            <rect height="96.6" rx="13.899" width="96.6" x="768.704" y="1473.988"/>
            <rect height="96.6" rx="13.899" width="96.6" x="649.105" y="1473.988"/>
            <rect height="96.6" rx="13.899" width="96.6" x="534.105" y="1473.988"/>
            <rect height="96.6" rx="13.899" width="96.6" x="414.506" y="1473.988"/>
            <rect height="96.6" rx="13.899" width="220.8" x="2056.708" y="1473.988"/>
            <rect height="96.6" rx="13.899" width="96.6" x="1320.701" y="1354.388"/>
            <rect height="96.6" rx="13.899" width="96.6" x="1440.301" y="1354.388"/>
            <rect height="96.6" rx="13.899" width="96.6" x="1555.3" y="1354.388"/>
            <rect height="96.6" rx="13.899" width="96.6" x="1674.9" y="1354.388"/>
            <rect height="96.6" rx="13.899" width="96.6" x="1789.902" y="1354.388"/>
            <rect height="96.6" rx="13.899" width="96.6" x="1909.505" y="1354.388"/>
            <rect height="96.6" rx="13.899" width="96.6" x="1205.702" y="1354.388"/>
            <rect height="96.6" rx="13.899" width="96.6" x="1086.102" y="1354.388"/>
            <rect height="96.6" rx="13.899" width="96.6" x="971.103" y="1354.388"/>
            <rect height="96.6" rx="13.899" width="96.6" x="851.504" y="1354.388"/>
            <rect height="96.6" rx="13.899" width="96.6" x="736.504" y="1354.388"/>
            <rect height="96.6" rx="13.899" width="96.6" x="616.905" y="1354.388"/>
            <rect height="96.6" rx="13.899" ry="13.899" width="151.799" x="446.706" y="1354.388"/>
            <rect height="96.6" rx="13.899" width="96.6" x="2024.507" y="1354.388"/>
            <rect height="96.6" rx="13.899" width="96.6" x="2139.51" y="1354.388"/>
            <rect height="96.6" rx="13.899" width="96.6" x="2259.112" y="1354.388"/>
            <rect height="96.6" rx="13.899" width="96.6" x="1385.101" y="1234.788"/>
            <rect height="96.6" rx="13.899" width="96.6" x="1504.701" y="1234.788"/>
            <rect height="96.6" rx="13.899" width="96.6" x="1619.7" y="1234.788"/>
            <rect height="96.6" rx="13.899" width="96.6" x="1739.3" y="1234.788"/>
            <rect height="96.6" rx="13.899" width="96.6" x="1854.302" y="1234.788"/>
            <rect height="96.6" rx="13.899" width="96.6" x="1973.905" y="1234.788"/>
            <rect height="96.6" rx="13.899" width="96.6" x="1270.102" y="1234.788"/>
            <rect height="96.6" rx="13.899" width="96.6" x="1150.502" y="1234.788"/>
            <rect height="96.6" rx="13.899" width="96.6" x="1035.503" y="1234.788"/>
            <rect height="96.6" rx="13.899" width="96.6" x="915.904" y="1234.788"/>
            <rect height="96.6" rx="13.899" width="96.6" x="800.904" y="1234.788"/>
            <rect height="96.6" rx="13.899" width="96.6" x="681.305" y="1234.788"/>
            <rect height="96.6" rx="13.899" width="96.6" x="2088.907" y="1234.788"/>
            <rect height="96.6" rx="13.899" width="96.6" x="2203.91" y="1234.788"/>
            <rect height="96.6" rx="13.899" width="96.6" x="566.305" y="1234.788"/>
            <rect height="96.6" rx="13.899" width="96.6" x="1412.701" y="1115.188"/>
            <rect height="96.6" rx="13.899" width="96.6" x="1532.301" y="1115.188"/>
            <rect height="96.6" rx="13.899" width="96.6" x="1647.3" y="1115.188"/>
            <rect height="96.6" rx="13.899" width="96.6" x="1766.9" y="1115.188"/>
            <rect height="96.6" rx="13.899" width="96.6" x="1881.902" y="1115.188"/>
            <rect height="96.6" rx="13.899" width="96.6" x="1297.702" y="1115.188"/>
            <rect height="96.6" rx="13.899" width="96.6" x="1178.102" y="1115.188"/>
            <rect height="96.6" rx="13.899" width="96.6" x="1063.103" y="1115.188"/>
            <rect height="96.6" rx="13.899" width="96.6" x="943.504" y="1115.188"/>
            <rect height="96.6" rx="13.899" width="96.6" x="828.504" y="1115.188"/>
            <rect height="96.6" rx="13.899" width="96.6" x="708.905" y="1115.188"/>
            <rect height="96.6" rx="13.899" ry="13.899" width="915.396" x="833.104" y="1713.188"/>
        </g>
    </g>
</svg>
