<svg height="361.197" viewBox="0 0 1317.12 866.873" width="548.8" xmlns="http://www.w3.org/2000/svg">
    <g fill="#f4f4f4" fill-opacity=".5" stroke-width="2.4">
        <path d="M1186.714 300.726q0 .384-.093.646-.137.39-.441.39-.202 0-.423-.092-.265-.112-.291-.275.09 0 .211.032.282.073.352.073.272 0 .41-.272.109-.217.109-.521 0-.215-.141-.612-.138-.4-.138-.556 0-.048.026-.077.03-.032.077-.032.125 0 .243.576.1.486.1.72zM1187.946 301.052q0 .327-.189.512-.188.186-.521.186-.183 0-.282-.087-.099-.086-.099-.265 0-.253.33-.51.313-.242.579-.242.122 0 .16.15.022.087.022.256zm-.195.09q0-.039-.01-.074-.01-.038-.026-.086-.051.035-.17.173-.06.07-.105.102 0-.06.013-.1.026-.054.042-.092-.141 0-.295.118-.15.119-.15.256 0 .093.102.093.196 0 .378-.096.22-.115.22-.294zM1189.265 301.183q0 .157-.119.352-.134.221-.278.221-.042 0-.07-.045-.026-.048-.026-.092 0-.058.121-.18.125-.124.125-.17 0-.028-.01-.057l-.013-.038q-.24.054-.49.275-.246.22-.374.25-.026-.07-.026-.144 0-.09.042-.19.03-.07.096-.169.112-.17.237-.384l.22-.387q.16-.275.234-.39.038-.058.067-.087.042-.038.1-.051.037.013.053.048.02.035.02.083 0 .109-.141.295-.256.332-.263.345-.144.218-.144.394l.01.032q.176-.087.208-.1.131-.054.224-.054.103 0 .15.07.049.068.049.173zM1190.75 300.995q0 .217-.106.464-.115.272-.285.374-.035-.042-.061-.093-.022-.051-.022-.102 0-.055.16-.323.07-.119.064-.208v-.042q-.118.035-.41.214-.288.176-.582.359-.045 0-.083-.032-.035-.035-.035-.077 0-.067.214-.451.064-.115.23-.4.052.067.068.15.016.08.016.192v.074q.294-.176.46-.266.183-.1.25-.1.045 0 .083.103.042.103.042.164zM1193.53 301.615q0 .058-.05.09-.049.029-.11.029-.054 0-.137-.013-.19-.029-.243-.029-.096 0-.378.023-.16.012-.23.012-.196 0-.196-.195 0-.185.122-.531.067-.195.253-.64.166-.4.21-.563.017-.051.027-.067.026-.039.064-.039.06 0 .102.09.042.086.042.157 0 .112-.13.377l-.257.515q-.137.301-.137.458 0 .08.067.112.048.022.14.022.07 0 .244-.016.172-.019.23-.019.144 0 .237.042.13.057.13.185zM1194.72 301.052q0 .327-.188.512-.19.186-.522.186-.182 0-.281-.087-.1-.086-.1-.265 0-.253.33-.51.314-.242.58-.242.12 0 .16.15.021.087.021.256zm-.195.09q0-.039-.01-.074-.01-.038-.026-.086-.05.035-.17.173-.06.07-.105.102 0-.06.013-.1.026-.054.042-.092-.14 0-.294.118-.15.119-.15.256 0 .093.102.093.195 0 .377-.096.221-.115.221-.294zM1196.068 300.985q0 .102-.054.218-.051.115-.131.192v-.045q0-.039.01-.119.01-.08.01-.118 0-.054-.016-.08-.016-.029-.067-.029-.15 0-.375.234l-.483.509q-.02 0-.038-.003l-.064-.016q.01-.116.08-.256.189-.381.195-.407l.038-.15q.013-.048.035-.1.026-.054.058-.095.035-.045.09-.068l.032.384.211-.172q.141-.112.244-.112.102 0 .166.067.064.067.064.166zM1197.639 300.614q0 .134-.358.355-.346.211-.503.211-.074 0-.099-.051-.022-.051-.022-.144v-.086q.215 0 .39-.064.177-.064.308-.212-.096-.035-.195-.035-.234 0-.496.18-.288.195-.288.415 0 .212.288.295.045.013.54.09.292.044.292.156 0 .048-.106.077-.106.032-.269.032-.41 0-.646-.125-.314-.166-.314-.534 0-.384.384-.611.327-.192.743-.192.124 0 .227.057.125.07.125.186zM1198.913 300.04q0 .071-.17.295-.17.224-.17.343 0 .06.07.121.16.141.16.173 0 .042-.029.08-.026.039-.067.039-.035 0-.099-.039-.045-.025-.172-.125l-.074.141q-.09.17-.122.247l-.096.294q-.083.198-.208.198v-.073q0-.227.147-.538l.16-.297q-.253-.138-.557-.138 0-.118.048-.173.051-.057.17-.057.109 0 .272.038l.16.038q.06-.019.166-.208.26-.454.352-.521.026.041.042.083.02.042.02.08zM1200.093 301.183q0 .157-.118.352-.134.221-.278.221-.042 0-.07-.045-.026-.048-.026-.092 0-.058.121-.18.125-.124.125-.17 0-.028-.01-.057l-.013-.038q-.24.054-.49.275-.246.22-.374.25-.026-.07-.026-.144 0-.09.042-.19.029-.07.096-.169.112-.17.237-.384l.22-.387q.16-.275.234-.39.038-.058.067-.087.042-.038.1-.051.037.013.053.048.02.035.02.083 0 .109-.142.295-.256.332-.262.345-.144.218-.144.394l.01.032q.176-.087.208-.1.131-.054.224-.054.102 0 .15.07.048.068.048.173zM1202.72 300.14q0 .15-.16.403-.102.16-.335.461-.234.298-.292.39l.24.077q.234.07.234.256l-.189.03-.035-.004v-.025q-.05-.013-.083-.013-.06 0-.192.019-.131.02-.198.02-.086 0-.141-.033-.054-.032-.054-.115 0-.067.246-.38.461-.586.464-.593.25-.34.25-.454 0-.045-.032-.067-.03-.023-.118-.023-.061 0-.253.119-.093.057-.15.057l-.055-.01q-.019-.013-.042-.048-.022-.038-.022-.06 0-.135.26-.247.22-.096.384-.096.137 0 .21.102.065.09.065.234zM1204.644 300.716q0 .387-.42.685-.383.272-.79.272-.201 0-.32-.102-.118-.103-.118-.298 0-.435.38-.755.362-.304.81-.304.227 0 .343.134.115.135.115.368zm-.195.074q0-.147-.167-.221-.125-.054-.297-.054-.253 0-.528.246-.276.246-.276.496 0 .102.051.147.054.042.164.042.313 0 .652-.173.4-.205.4-.483zM1206.11 300.14q0 .15-.16.403-.103.16-.337.461-.233.298-.29.39l.24.077q.233.07.233.256l-.19.03-.034-.004v-.025q-.051-.013-.083-.013-.061 0-.192.019-.131.02-.198.02-.086 0-.141-.033-.054-.032-.054-.115 0-.067.246-.38.46-.586.464-.593.25-.34.25-.454 0-.045-.032-.067-.03-.023-.119-.023-.06 0-.252.119-.093.057-.15.057l-.055-.01q-.019-.013-.042-.048-.022-.038-.022-.06 0-.135.26-.247.22-.096.383-.096.138 0 .212.102.064.09.064.234zM1207.581 300.14q0 .15-.16.403-.102.16-.336.461-.233.298-.29.39l.24.077q.233.07.233.256l-.19.03-.034-.004v-.025q-.051-.013-.083-.013-.061 0-.192.019-.131.02-.198.02-.086 0-.141-.033-.054-.032-.054-.115 0-.067.246-.38.46-.586.464-.593.25-.34.25-.454 0-.045-.032-.067-.03-.023-.119-.023-.06 0-.252.119-.093.057-.15.057l-.055-.01q-.019-.013-.042-.048-.022-.038-.022-.06 0-.135.26-.247.22-.096.383-.096.138 0 .212.102.064.09.064.234z"/>
    </g>
    <g fill="none" stroke="#f4f4f4">
        <path d="M658.588 865.873h647.109c5.77 0 10.654-4.65 10.415-10.415l-20-481.241c-.24-5.765-4.646-10.415-10.415-10.415H658.56m-.028 502.071H11.423c-5.77 0-10.654-4.65-10.415-10.415l20-481.241c.24-5.765 4.646-10.415 10.415-10.415H658.56" stroke-width="4.8"/>
        <path d="M1295.148 369.93c-.355-.344-14.691-60.443-14.691-60.443m-621.684 14.765h612.443c5.77 0 11.097-4.686 10.415-10.415l-36-302.422C1244.949 5.685 1240.986 1 1235.216 1H658.624M22.1 369.93c.355-.344 14.691-60.443 14.691-60.443m621.684 14.765H46.032c-5.77 0-11.097-4.686-10.415-10.415l36-302.422C72.299 5.685 76.262 1 82.032 1h576.592" stroke-width="4.8"/>
        <g stroke-width="2.4" transform="translate(-66.424 -74.155)">
            <path d="M140.982 455.874h43.105v6.557h-43.105z"/>
            <rect height="28.175" rx="2.85" width="216.921" x="1060.268" y="350.18"/>
            <path d="M724.92 252.063H118.357m.788-7.106h605.762M724.92 238.063H120.016m.826-7.106h604.065M724.92 224.063H121.323m1.345-7.106h602.24M724.92 210.063H123.318m.901-7.106h600.688M724.92 196.063H124.778m1.093-7.106h599.036M724.92 182.063H126.715m.577-7.106h597.615M724.92 168.063H128.18m1.019-7.106h595.708M724.92 154.063H129.83m.66-7.106h594.417M724.895 252.063h606.563m-.788-7.106H724.907M724.895 238.063h604.903m-.826-7.106H724.907M724.895 224.063h603.597m-1.346-7.106H724.907M724.895 210.063h601.602m-.901-7.106H724.907M724.895 196.063h600.142m-1.093-7.106H724.907M724.895 182.063h598.204m-.576-7.106H724.907M724.895 168.063h596.739m-1.018-7.106H724.907M724.895 154.063h595.09m-.661-7.106H724.907"/>
        </g>
        <g stroke-width="4.609" transform="matrix(1.04053 0 0 1.04228 -96.709 -104.56)">
            <rect height="43.001" rx="5.382" ry="5.382" width="488.933" x="348.241" y="808.947"/>
            <rect height="43.001" rx="5.382" width="43.001" x="1199.74" y="697.652"/>
            <rect height="43.001" rx="5.382" width="43.001" x="1143.998" y="697.652"/>
            <rect height="43.001" rx="5.382" width="43.001" x="1088.257" y="697.652"/>
            <rect height="98.648" rx="5.382" width="43.001" x="1255.481" y="697.652"/>
            <rect height="43.001" rx="5.382" width="43.001" x="1199.74" y="753.299"/>
            <rect height="43.001" rx="5.382" width="98.742" x="1088.257" y="753.299"/>
            <rect height="43.001" rx="5.382" width="43.001" x="1199.74" y="586.356"/>
            <rect height="43.001" rx="5.382" width="43.001" x="1143.998" y="586.356"/>
            <rect height="43.001" rx="5.382" width="43.001" x="1088.257" y="586.356"/>
            <rect height="43.001" rx="5.382" width="43.001" x="1255.481" y="586.356"/>
            <rect height="43.001" rx="5.382" width="43.001" x="1199.74" y="642.004"/>
            <rect height="43.001" rx="5.382" width="43.001" x="1143.998" y="642.004"/>
            <rect height="43.001" rx="5.382" width="43.001" x="1088.257" y="642.004"/>
            <rect height="43.001" rx="5.382" width="43.001" x="1255.481" y="642.004"/>
            <rect height="43.001" rx="5.382" width="43.001" x="682.69" y="753.299"/>
            <rect height="43.001" rx="5.382" width="43.001" x="626.949" y="753.299"/>
            <rect height="43.001" rx="5.382" width="43.001" x="571.207" y="753.299"/>
            <rect height="43.001" rx="5.382" width="43.001" x="515.466" y="753.299"/>
            <rect height="43.001" rx="5.382" width="43.001" x="459.725" y="753.299"/>
            <rect height="43.001" rx="5.382" width="43.001" x="403.984" y="753.299"/>
            <rect height="43.001" rx="5.382" width="43.001" x="348.244" y="753.299"/>
            <rect height="43.001" rx="5.382" width="43.001" x="292.503" y="753.299"/>
            <rect height="43.001" rx="5.382" width="71.832" x="207.931" y="753.299"/>
            <rect height="43.001" rx="5.382" width="43.001" x="152.191" y="753.299"/>
            <rect height="43.001" rx="5.382" width="43.001" x="988.307" y="753.299"/>
            <rect height="43.001" rx="5.382" width="43.001" x="932.566" y="753.299"/>
            <rect height="43.001" rx="5.382" width="69.91" x="849.915" y="753.299"/>
            <rect height="43.001" rx="5.382" width="43.001" x="794.173" y="753.299"/>
            <rect height="43.001" rx="5.382" width="43.001" x="738.432" y="753.299"/>
            <rect height="43.001" rx="5.382" width="43.001" x="709.6" y="697.652"/>
            <rect height="43.001" rx="5.382" width="43.001" x="653.858" y="697.652"/>
            <rect height="43.001" rx="5.382" width="43.001" x="598.117" y="697.652"/>
            <rect height="43.001" rx="5.382" width="43.001" x="542.375" y="697.652"/>
            <rect height="43.001" rx="5.382" width="43.001" x="486.634" y="697.652"/>
            <rect height="43.001" rx="5.382" width="43.001" x="430.894" y="697.652"/>
            <rect height="43.001" rx="5.382" width="43.001" x="375.153" y="697.652"/>
            <rect height="43.001" rx="5.382" width="43.001" x="319.412" y="697.652"/>
            <rect height="43.001" rx="5.382" width="43.001" x="263.672" y="697.652"/>
            <rect height="43.001" rx="5.382" width="43.001" x="207.931" y="697.652"/>
            <rect height="43.001" rx="5.382" width="43.001" x="988.307" y="697.652"/>
            <rect height="43.001" rx="5.382" width="43.001" x="932.565" y="697.652"/>
            <rect height="43.001" rx="5.382" width="43.001" x="876.824" y="697.652"/>
            <rect height="43.001" rx="5.382" width="43.001" x="821.082" y="697.652"/>
            <rect height="43.001" rx="5.382" width="43.001" x="765.341" y="697.652"/>
            <rect height="43.001" rx="5.382" width="43.001" x="152.191" y="697.652"/>
            <rect height="43.001" rx="5.382" width="43.001" x="680.768" y="642.004"/>
            <rect height="43.001" rx="5.382" width="43.001" x="625.027" y="642.004"/>
            <rect height="43.001" rx="5.382" width="43.001" x="569.285" y="642.004"/>
            <rect height="43.001" rx="5.382" width="43.001" x="513.544" y="642.004"/>
            <rect height="43.001" rx="5.382" width="43.001" x="457.803" y="642.004"/>
            <rect height="43.001" rx="5.382" width="43.001" x="402.062" y="642.004"/>
            <rect height="43.001" rx="5.382" width="43.001" x="346.322" y="642.004"/>
            <rect height="43.001" rx="5.382" width="43.001" x="290.581" y="642.004"/>
            <rect height="43.001" rx="5.382" width="43.001" x="234.841" y="642.004"/>
            <rect height="43.001" rx="5.382" width="69.91" x="152.191" y="642.004"/>
            <rect height="43.001" rx="5.382" width="71.833" x="959.475" y="642.004"/>
            <rect height="43.001" rx="5.382" width="43.001" x="903.734" y="642.004"/>
            <rect height="43.001" rx="5.382" width="43.001" x="847.993" y="642.004"/>
            <rect height="43.001" rx="5.382" width="43.001" x="792.251" y="642.004"/>
            <rect height="43.001" rx="5.382" width="43.001" x="736.51" y="642.004"/>
            <rect height="43.001" rx="5.382" width="43.001" x="653.859" y="586.357"/>
            <rect height="43.001" rx="5.382" width="43.001" x="598.117" y="586.357"/>
            <rect height="43.001" rx="5.382" width="43.001" x="542.376" y="586.357"/>
            <rect height="43.001" rx="5.382" width="43.001" x="486.635" y="586.357"/>
            <rect height="43.001" rx="5.382" width="43.001" x="430.894" y="586.357"/>
            <rect height="43.001" rx="5.382" width="43.001" x="375.153" y="586.357"/>
            <rect height="43.001" rx="5.382" width="43.001" x="319.412" y="586.357"/>
            <rect height="43.001" rx="5.382" width="43.001" x="263.672" y="586.357"/>
            <rect height="43.001" rx="5.382" width="43.001" x="207.931" y="586.357"/>
            <rect height="43.001" rx="5.382" width="43.001" x="932.566" y="586.357"/>
            <rect height="43.001" rx="5.382" width="43.001" x="876.825" y="586.357"/>
            <rect height="43.001" rx="5.382" width="43.001" x="821.083" y="586.357"/>
            <rect height="43.001" rx="5.382" width="43.001" x="765.342" y="586.357"/>
            <rect height="43.001" rx="5.382" width="43.001" x="709.6" y="586.357"/>
            <rect height="43.001" rx="5.382" width="43.001" x="152.191" y="586.357"/>
            <rect height="43.001" rx="5.382" width="43.001" x="988.307" y="586.357"/>
            <rect height="43.001" rx="5.382" width="43.001" x="653.859" y="503.846"/>
            <rect height="43.001" rx="5.382" width="43.001" x="598.117" y="503.846"/>
            <rect height="43.001" rx="5.382" width="43.001" x="542.376" y="503.846"/>
            <rect height="43.001" rx="5.382" width="43.001" x="486.635" y="503.846"/>
            <rect height="43.001" rx="5.382" width="43.001" x="319.412" y="503.846"/>
            <rect height="43.001" rx="5.382" width="43.001" x="263.672" y="503.846"/>
            <rect height="43.001" rx="5.382" width="43.001" x="207.931" y="503.846"/>
            <rect height="43.001" rx="5.382" width="43.001" x="932.566" y="503.846"/>
            <rect height="43.001" rx="5.382" width="43.001" x="876.825" y="503.846"/>
            <rect height="43.001" rx="5.382" width="43.001" x="821.083" y="503.846"/>
            <rect height="43.001" rx="5.382" width="43.001" x="152.191" y="503.846"/>
            <rect height="43.001" rx="5.382" width="43.001" x="988.307" y="503.846"/>
            <rect height="43.001" rx="5.382" width="43.001" x="1199.741" y="503.846"/>
            <rect height="43.001" rx="5.382" width="43.001" x="1143.999" y="503.846"/>
            <rect height="43.001" rx="5.382" width="43.001" x="1088.258" y="503.846"/>
            <rect height="43.001" rx="5.382" width="43.001" x="1255.482" y="503.846"/>
        </g>
    </g>
</svg>
