<svg height="360.57" viewBox="0 0 667.483 324.513" width="741.648" xmlns="http://www.w3.org/2000/svg">
    <g fill="#f4f4f4" fill-opacity=".5" stroke-width=".9">
        <path d="M649.542 55.494q0 .288-.07.485-.103.293-.33.293-.152 0-.317-.07-.2-.084-.219-.206.067 0 .159.024.21.055.264.055.204 0 .307-.204.081-.163.081-.391 0-.161-.105-.459-.103-.3-.103-.417 0-.036.019-.058.021-.024.057-.024.094 0 .183.432.074.365.074.54zM650.466 55.739q0 .245-.141.384-.142.14-.392.14-.136 0-.21-.066-.075-.064-.075-.199 0-.19.247-.381.235-.183.434-.183.092 0 .12.113.017.065.017.192zm-.146.067q0-.029-.007-.055-.005-.029-.02-.065-.038.027-.127.13-.045.053-.079.077 0-.046.01-.075.02-.04.031-.07-.105 0-.22.09-.113.088-.113.191 0 .07.077.07.146 0 .283-.072.165-.086.165-.22zM651.455 55.837q0 .118-.089.264-.1.166-.209.166-.03 0-.052-.034-.02-.036-.02-.07 0-.042.092-.134.093-.093.093-.127 0-.021-.007-.043l-.01-.029q-.18.041-.367.207-.185.165-.28.187-.02-.053-.02-.108 0-.067.031-.142.022-.053.072-.127.084-.127.178-.288l.165-.29q.12-.207.176-.293.028-.043.05-.065.031-.029.074-.038.03.01.041.036.015.026.015.062 0 .082-.106.22-.192.25-.197.26-.108.163-.108.295l.005.024q.132-.065.156-.074.099-.041.168-.041.077 0 .113.053.036.05.036.13zM652.569 55.696q0 .163-.08.348-.086.204-.213.28-.027-.03-.046-.069-.017-.038-.017-.077 0-.04.12-.242.053-.089.048-.156l-.002-.031q-.088.026-.307.16-.216.132-.437.27-.033 0-.062-.025-.026-.026-.026-.057 0-.05.16-.339.048-.086.173-.3.039.05.05.113.013.06.013.144v.055q.22-.132.345-.199.137-.074.187-.074.034 0 .063.076.031.077.031.123zM654.654 56.161q0 .044-.038.068-.036.021-.082.021-.04 0-.103-.01-.142-.021-.182-.021-.072 0-.284.017-.12.01-.172.01-.147 0-.147-.147 0-.14.091-.398.05-.147.19-.48.125-.3.158-.423.012-.038.02-.05.019-.029.048-.029.045 0 .076.067.032.065.032.118 0 .084-.099.283l-.192.386q-.103.226-.103.344 0 .06.05.084.036.016.106.016.053 0 .182-.012.13-.014.173-.014.108 0 .178.031.098.043.098.14zM655.547 55.739q0 .245-.142.384-.141.14-.39.14-.138 0-.212-.066-.074-.064-.074-.199 0-.19.247-.381.235-.183.434-.183.091 0 .12.113.017.065.017.192zm-.146.067q0-.029-.007-.055-.005-.029-.02-.065-.038.027-.127.13-.045.053-.079.077 0-.046.01-.075.02-.04.031-.07-.105 0-.22.09-.113.088-.113.191 0 .07.076.07.147 0 .284-.072.165-.086.165-.22zM656.557 55.689q0 .076-.04.163-.039.086-.099.144l-.002-.034q0-.029.007-.089t.007-.088q0-.041-.012-.06-.012-.022-.05-.022-.113 0-.281.175l-.362.382q-.015 0-.03-.003-.035-.01-.047-.012.007-.086.06-.192.141-.285.146-.304l.029-.113q.01-.036.026-.075.02-.04.044-.072.026-.033.067-.05l.024.288.158-.13q.106-.084.183-.084.076 0 .124.05.048.051.048.126zM657.736 55.41q0 .101-.269.267-.26.158-.377.158-.055 0-.074-.038-.017-.039-.017-.108v-.065q.16 0 .293-.048.132-.048.23-.159-.072-.026-.146-.026-.175 0-.372.134-.216.147-.216.312 0 .159.216.221.033.01.405.067.219.034.219.118 0 .036-.08.058-.079.024-.201.024-.307 0-.485-.094-.235-.125-.235-.4 0-.289.288-.46.245-.143.557-.143.093 0 .17.043.094.053.094.14zM658.691 54.98q0 .053-.127.221t-.127.257q0 .046.052.091.12.106.12.13 0 .031-.021.06-.02.029-.05.029-.027 0-.075-.029-.034-.02-.13-.094l-.055.106q-.067.127-.091.185l-.072.22q-.062.15-.156.15l-.002-.056q0-.17.11-.403.022-.043.12-.223-.19-.103-.417-.103 0-.09.036-.13.038-.043.127-.043.082 0 .204.029l.12.028q.046-.014.125-.156.194-.34.264-.39.019.03.031.062.014.03.014.06zM659.577 55.837q0 .118-.09.264-.1.166-.208.166-.031 0-.053-.034-.019-.036-.019-.07 0-.042.091-.134.094-.093.094-.127 0-.021-.007-.043l-.01-.029q-.18.041-.367.207-.185.165-.281.187-.02-.053-.02-.108 0-.067.032-.142.021-.053.072-.127.084-.127.177-.288l.166-.29q.12-.207.175-.293.029-.043.05-.065.032-.029.075-.038.029.01.04.036.015.026.015.062 0 .082-.105.22-.192.25-.197.26-.108.163-.108.295l.005.024q.132-.065.156-.074.098-.041.168-.041.077 0 .113.053.036.05.036.13zM661.547 55.055q0 .113-.12.302-.077.12-.252.346-.175.223-.218.293l.18.057q.175.053.175.192l-.142.022-.026-.002v-.02q-.039-.01-.063-.01-.045 0-.144.015-.098.015-.148.015-.065 0-.106-.024-.04-.024-.04-.087 0-.05.184-.285l.348-.444q.187-.255.187-.341 0-.034-.024-.05-.021-.017-.089-.017-.045 0-.19.088-.069.044-.112.044l-.04-.008q-.015-.01-.032-.036-.017-.028-.017-.045 0-.101.195-.185.165-.072.288-.072.103 0 .158.077.048.067.048.175zM662.99 55.487q0 .29-.315.514-.288.204-.593.204-.151 0-.24-.077t-.089-.223q0-.327.286-.567.271-.228.607-.228.17 0 .257.101.086.1.086.276zm-.147.055q0-.11-.125-.165-.093-.041-.223-.041-.19 0-.396.185-.206.184-.206.372 0 .076.038.11.04.031.122.031.236 0 .49-.13.3-.153.3-.362zM664.089 55.055q0 .113-.12.302-.077.12-.252.346-.176.223-.219.293l.18.057q.175.053.175.192l-.141.022-.027-.002v-.02q-.038-.01-.062-.01-.046 0-.144.015-.098.015-.149.015-.065 0-.105-.024-.041-.024-.041-.087 0-.05.185-.285l.348-.444q.187-.255.187-.341 0-.034-.024-.05-.022-.017-.089-.017-.046 0-.19.088-.07.044-.112.044l-.041-.008q-.015-.01-.031-.036-.017-.028-.017-.045 0-.101.194-.185.166-.072.288-.072.103 0 .159.077.048.067.048.175zM665.193 55.055q0 .113-.12.302-.077.12-.252.346-.176.223-.219.293l.18.057q.175.053.175.192l-.141.022-.027-.002v-.02q-.038-.01-.062-.01-.046 0-.144.015-.098.015-.149.015-.065 0-.105-.024-.041-.024-.041-.087 0-.05.185-.285l.348-.444q.187-.255.187-.341 0-.034-.024-.05-.022-.017-.089-.017-.046 0-.19.088-.07.044-.112.044l-.041-.008q-.015-.01-.031-.036-.017-.028-.017-.045 0-.101.194-.185.166-.072.288-.072.103 0 .159.077.048.067.048.175z"/>
    </g>
    <g transform="translate(-36.392 -30.55)">
        <g fill="none" stroke="#f4f4f4">
            <rect height="322.513" rx="15.852" ry="15.852" stroke-width="1.8" width="665.483" x="37.392" y="31.55"/>
            <rect height="188.314" rx="4.453" ry="4.453" stroke-width=".9" width="640.914" x="48.981" y="139.994"/>
            <g stroke-width=".45">
                <path d="M37.874 87.35H702.75M37.325 80.165h665.626M702.93 73.317h-63.31m-34.262 0h-352.73m-172.616 0H37.665M37.888 66.871h39.32m178.007 0h347.972m39.118 0h60.803M702.646 60.023H637.84m-30.927 0H251.358m-171.061 0h-43.03M38.02 53.98h664.123"/>
            </g>
            <path d="M608.427 59.911h28.372c3.07 0 5.541 2.776 5.541 6.223v1.873c0 3.448-2.471 6.223-5.541 6.223h-28.372c-3.07 0-5.542-2.775-5.542-6.223v-1.873c0-3.447 2.472-6.223 5.542-6.223z" stroke-width=".9"/>
        </g>
        <circle cx="634.699" cy="66.959" fill="#f4f4f4" r="3"/>
        <rect fill="none" height="15.676" rx="7.838" stroke="#f4f4f4" stroke-width=".9" width="178.243" x="76.933" y="59.083"/>
    </g>
    <g fill="none" stroke="#f4f4f4" transform="translate(-30.392 -29.397)">
        <rect height="27" rx="4.453" stroke-width="1.8" width="274.782" x="148.976" y="284.565"/>
        <g stroke-width="1.407" transform="matrix(1.6356 0 0 1 -351.577 -96)">
            <rect height="27" rx="2.723" ry="4.453" width="27" x="587.759" y="252.565"/>
            <rect height="27" rx="2.723" ry="4.453" width="27" x="587.759" y="284.565"/>
            <rect height="27" rx="2.723" ry="4.453" width="27" x="587.759" y="316.565"/>
            <rect height="27" rx="2.723" ry="4.453" width="27" x="587.759" y="348.565"/>
        </g>
        <g stroke-width="1.8">
            <rect height="27" rx="4.453" width="27" x="391.759" y="252.565"/>
            <rect height="27" rx="4.453" width="27" x="359.759" y="252.565"/>
            <rect height="27" rx="4.453" width="27" x="327.759" y="252.565"/>
            <rect height="27" rx="4.453" width="27" x="295.759" y="252.565"/>
            <rect height="27" rx="4.453" width="27" x="263.759" y="252.565"/>
            <rect height="27" rx="4.453" width="27" x="231.759" y="252.565"/>
            <rect height="27" rx="4.453" width="27" x="199.759" y="252.565"/>
            <rect height="27" rx="4.453" width="27" x="167.759" y="252.565"/>
            <rect height="27" rx="4.453" width="27" x="135.759" y="252.565"/>
            <rect height="27" rx="4.453" width="45" x="85.759" y="252.565"/>
            <rect height="27" rx="4.453" width="27" x="53.759" y="252.565"/>
            <rect height="27" rx="4.453" width="27" x="501.759" y="252.565"/>
            <rect height="27" rx="4.453" width="41" x="455.759" y="252.565"/>
            <rect height="27" rx="4.453" width="27" x="423.759" y="252.565"/>
            <rect height="27" rx="4.453" width="27" x="533.759" y="252.565"/>
            <rect height="27" rx="4.453" width="27" x="405.759" y="220.565"/>
            <rect height="27" rx="4.453" width="27" x="373.759" y="220.565"/>
            <rect height="27" rx="4.453" width="27" x="341.759" y="220.565"/>
            <rect height="27" rx="4.453" width="27" x="309.759" y="220.565"/>
            <rect height="27" rx="4.453" width="27" x="277.759" y="220.565"/>
            <rect height="27" rx="4.453" width="27" x="245.759" y="220.565"/>
            <rect height="27" rx="4.453" width="27" x="213.759" y="220.565"/>
            <rect height="27" rx="4.453" width="27" x="181.759" y="220.565"/>
            <rect height="27" rx="4.453" width="27" x="149.759" y="220.565"/>
            <rect height="27" rx="4.453" width="27" x="117.759" y="220.565"/>
            <rect height="27" rx="4.453" width="27" x="85.759" y="220.565"/>
            <rect height="27" rx="4.453" width="59" x="501.759" y="220.565"/>
            <rect height="27" rx="4.453" width="27" x="469.759" y="220.565"/>
            <rect height="27" rx="4.453" width="27" x="437.759" y="220.565"/>
            <rect height="27" rx="4.453" width="27" x="53.759" y="220.565"/>
            <rect height="27" rx="4.453" width="27" x="399.759" y="188.565"/>
            <rect height="27" rx="4.453" width="27" x="367.759" y="188.565"/>
            <rect height="27" rx="4.453" width="27" x="335.759" y="188.565"/>
            <rect height="27" rx="4.453" width="27" x="303.759" y="188.565"/>
            <rect height="27" rx="4.453" width="27" x="271.759" y="188.565"/>
            <rect height="27" rx="4.453" width="27" x="239.759" y="188.565"/>
            <rect height="27" rx="4.453" width="27" x="207.759" y="188.565"/>
            <rect height="27" rx="4.453" width="27" x="175.759" y="188.565"/>
            <rect height="27" rx="4.453" width="27" x="143.759" y="188.565"/>
            <rect height="27" rx="4.453" width="27" x="111.759" y="188.565"/>
            <rect height="27" rx="4.453" width="27" x="463.759" y="188.565"/>
            <rect height="27" rx="4.453" width="27" x="431.759" y="188.565"/>
            <rect height="27" rx="4.453" width="41" x="527.759" y="188.565"/>
            <rect height="27" rx="4.453" width="27" x="495.759" y="188.565"/>
            <rect height="27" rx="4.453" ry="4.453" width="45" x="61.759" y="188.565"/>
            <rect height="27" rx="4.453" width="27" x="413.759" y="156.565"/>
            <rect height="27" rx="4.453" width="27" x="381.759" y="156.565"/>
            <rect height="27" rx="4.453" width="27" x="349.759" y="156.565"/>
            <rect height="27" rx="4.453" width="27" x="317.759" y="156.565"/>
            <rect height="27" rx="4.453" width="27" x="285.759" y="156.565"/>
            <rect height="27" rx="4.453" width="27" x="253.759" y="156.565"/>
            <rect height="27" rx="4.453" width="27" x="221.759" y="156.565"/>
            <rect height="27" rx="4.453" width="27" x="189.759" y="156.565"/>
            <rect height="27" rx="4.453" width="27" x="157.759" y="156.565"/>
            <rect height="27" rx="4.453" width="27" x="125.759" y="156.565"/>
            <rect height="27" rx="4.453" width="27" x="477.759" y="156.565"/>
            <rect height="27" rx="4.453" width="27" x="445.759" y="156.565"/>
            <rect height="27" rx="4.453" width="27" x="541.759" y="156.565"/>
            <rect height="27" rx="4.453" width="27" x="509.759" y="156.565"/>
            <rect height="27" rx="4.453" width="27" x="93.759" y="156.565"/>
            <rect height="27" rx="4.453" width="27" x="61.759" y="156.565"/>
        </g>
    </g>
</svg>
