<svg height="348.942" viewBox="0 0 1208.853 697.883" width="604.426" xmlns="http://www.w3.org/2000/svg">
    <g fill="#f4f4f4" fill-opacity=".5" stroke-width="2">
        <path d="M815.457 594.233q0 .64-.155 1.077-.23.65-.736.65-.336 0-.704-.154-.443-.187-.485-.459.149 0 .352.054.469.122.586.122.454 0 .683-.453.181-.363.181-.87 0-.357-.234-1.018-.23-.667-.23-.928 0-.08.043-.128.048-.053.128-.053.208 0 .405.96.166.81.166 1.2zM817.51 594.777q0 .544-.315.853-.314.31-.87.31-.303 0-.468-.145-.166-.144-.166-.442 0-.422.55-.848.522-.406.965-.406.203 0 .267.251.037.144.037.427zm-.325.15q0-.065-.016-.124-.011-.064-.043-.144-.085.06-.283.288-.101.118-.176.171 0-.101.021-.165.043-.09.07-.155-.235 0-.49.197-.252.198-.252.427 0 .155.171.155.325 0 .63-.16.367-.192.367-.49zM819.707 594.995q0 .262-.197.587-.224.368-.464.368-.07 0-.117-.075-.043-.08-.043-.154 0-.096.202-.299.208-.208.208-.283 0-.048-.016-.096l-.02-.064q-.4.091-.817.46-.41.367-.624.415-.043-.117-.043-.24 0-.15.07-.315.048-.117.16-.282.186-.283.394-.64l.368-.646q.267-.458.39-.65.064-.096.112-.144.07-.064.165-.086.064.022.09.08.033.06.033.14 0 .18-.235.49-.427.554-.437.576-.24.362-.24.656l.01.053q.294-.144.347-.165.219-.09.374-.09.17 0 .25.116.08.112.08.288zM822.182 594.68q0 .363-.176.774-.192.453-.475.624-.058-.07-.101-.155-.037-.085-.037-.17 0-.09.266-.539.118-.197.107-.347l-.005-.069q-.197.059-.683.358-.48.293-.97.597-.075 0-.14-.053-.058-.06-.058-.128 0-.112.358-.752.106-.192.384-.667.085.112.112.25.026.134.026.32v.123q.49-.293.768-.442.304-.166.416-.166.075 0 .139.17.07.172.07.273zM826.817 595.715q0 .096-.086.15-.08.048-.181.048-.09 0-.23-.021-.314-.048-.405-.048-.16 0-.63.037-.266.021-.383.021-.325 0-.325-.325 0-.31.202-.886.112-.325.422-1.066.277-.667.352-.939.026-.085.042-.112.043-.064.107-.064.101 0 .17.15.07.143.07.26 0 .187-.219.63-.218.437-.426.859-.23.501-.23.762 0 .134.112.187.08.037.235.037.117 0 .405-.026.288-.032.384-.032.24 0 .395.069.219.096.219.31zM828.8 594.777q0 .544-.314.853-.315.31-.87.31-.303 0-.469-.145-.165-.144-.165-.442 0-.422.55-.848.522-.406.965-.406.202 0 .266.251.037.144.037.427zm-.325.15q0-.065-.016-.124-.01-.064-.042-.144-.086.06-.283.288-.102.118-.176.171 0-.101.021-.165.043-.09.07-.155-.235 0-.491.197-.25.198-.25.427 0 .155.17.155.325 0 .63-.16.367-.192.367-.49zM831.046 594.665q0 .17-.09.362-.086.192-.22.32l-.004-.074q0-.064.016-.198.016-.133.016-.197 0-.09-.027-.133-.027-.048-.112-.048-.25 0-.624.39l-.806.847q-.032 0-.064-.005l-.106-.027q.016-.192.133-.426.315-.635.325-.678l.064-.25q.022-.08.06-.166.042-.09.095-.16.059-.074.15-.112l.053.64q.23-.186.352-.288.234-.186.405-.186.17 0 .277.112.107.112.107.277zM833.665 594.046q0 .224-.598.592-.576.352-.837.352-.123 0-.165-.085-.038-.085-.038-.24v-.144q.358 0 .65-.107.294-.106.513-.352-.16-.059-.325-.059-.39 0-.827.3-.48.324-.48.692 0 .352.48.491.075.021.901.15.486.074.486.26 0 .08-.176.129-.176.053-.448.053-.683 0-1.078-.208-.522-.277-.522-.89 0-.64.64-1.02.544-.32 1.237-.32.208 0 .379.097.208.117.208.31zM835.787 593.091q0 .118-.282.491-.283.373-.283.57 0 .102.117.203.267.235.267.288 0 .07-.048.134-.043.064-.112.064-.059 0-.165-.064-.075-.043-.288-.208l-.123.234q-.15.283-.203.411l-.16.49q-.138.331-.346.331l-.005-.122q0-.379.245-.896.048-.096.267-.496-.422-.23-.928-.23 0-.197.08-.288.085-.096.282-.096.182 0 .454.064l.266.064q.102-.032.278-.346.432-.758.586-.87.043.07.07.14.032.068.032.132zM837.755 594.995q0 .262-.197.587-.224.368-.464.368-.07 0-.117-.075-.043-.08-.043-.154 0-.096.203-.299.208-.208.208-.283 0-.048-.016-.096l-.022-.064q-.4.091-.816.46-.41.367-.624.415-.042-.117-.042-.24 0-.15.069-.315.048-.117.16-.282.186-.283.394-.64l.368-.646q.267-.458.39-.65.064-.096.112-.144.07-.064.165-.086.064.022.09.08.033.06.033.14 0 .18-.235.49-.426.554-.437.576-.24.362-.24.656l.01.053q.294-.144.347-.165.219-.09.374-.09.17 0 .25.116.08.112.08.288zM842.134 593.257q0 .25-.267.672-.17.266-.56.768-.39.496-.485.65l.4.128q.39.118.39.427-.16.027-.315.048l-.06-.005v-.043q-.084-.02-.138-.02-.101 0-.32.031-.218.032-.33.032-.144 0-.235-.053-.09-.053-.09-.192 0-.112.41-.635.768-.976.773-.986.416-.566.416-.758 0-.075-.053-.112-.048-.037-.197-.037-.102 0-.422.197-.154.096-.25.096l-.091-.016q-.032-.021-.07-.08-.037-.064-.037-.101 0-.224.432-.41.368-.16.64-.16.23 0 .352.17.107.15.107.39zM845.34 594.217q0 .645-.7 1.141-.64.453-1.317.453-.336 0-.533-.17t-.197-.496q0-.726.634-1.259.603-.507 1.35-.507.378 0 .57.224.192.224.192.614zm-.326.122q0-.245-.277-.368-.208-.09-.496-.09-.422 0-.88.41-.46.411-.46.827 0 .17.086.245.09.07.272.07.523 0 1.088-.288.667-.342.667-.806zM847.782 593.257q0 .25-.267.672-.17.266-.56.768-.39.496-.485.65l.4.128q.39.118.39.427-.16.027-.315.048l-.06-.005v-.043q-.084-.02-.138-.02-.101 0-.32.031-.218.032-.33.032-.144 0-.235-.053-.09-.053-.09-.192 0-.112.41-.635.768-.976.773-.986.416-.566.416-.758 0-.075-.053-.112-.048-.037-.197-.037-.102 0-.422.197-.154.096-.25.096l-.091-.016q-.032-.021-.07-.08-.037-.064-.037-.101 0-.224.432-.41.368-.16.64-.16.23 0 .352.17.107.15.107.39zM850.235 593.257q0 .25-.266.672-.171.266-.56.768-.39.496-.486.65l.4.128q.39.118.39.427-.16.027-.315.048l-.059-.005v-.043q-.085-.02-.138-.02-.102 0-.32.031-.22.032-.331.032-.144 0-.235-.053-.09-.053-.09-.192 0-.112.41-.635.768-.976.774-.986.416-.566.416-.758 0-.075-.054-.112-.048-.037-.197-.037-.101 0-.421.197-.155.096-.251.096l-.09-.016q-.033-.021-.07-.08-.037-.064-.037-.101 0-.224.432-.41.368-.16.64-.16.229 0 .352.17.106.15.106.39z"/>
    </g>
    <g fill="none" stroke="#f4f4f4">
        <g stroke-width="4">
            <rect height="55.562" rx="5.012" width="514.007" x="341.092" y="598.486"/>
            <rect height="56.008" ry="5.012" width="56.008" x="667.092" y="531.973"/>
            <rect height="56.008" ry="5.012" width="56.008" x="733.092" y="531.973"/>
            <rect height="56.008" ry="5.012" width="56.008" x="799.092" y="531.973"/>
            <rect height="56.008" ry="5.012" width="56.008" x="865.092" y="531.973"/>
            <rect height="56.008" ry="5.012" width="56.008" x="603.092" y="531.973"/>
            <rect height="56.008" ry="5.012" width="56.008" x="537.092" y="531.973"/>
            <rect height="56.008" ry="5.012" width="56.008" x="471.092" y="531.973"/>
            <rect height="56.008" ry="5.012" width="56.008" x="405.092" y="531.973"/>
            <rect height="56.008" ry="5.012" width="56.008" x="341.092" y="531.973"/>
            <rect height="56.008" ry="5.012" width="56.008" x="275.092" y="531.973"/>
            <rect height="55.562" ry="4.972" width="84.562" x="181.315" y="532.196"/>
            <rect height="55.562" ry="4.972" width="84.562" x="87.538" y="532.419"/>
            <rect height="55.562" ry="4.972" width="84.562" x="1024.095" y="532.196"/>
            <rect height="55.562" ry="4.972" width="84.562" x="930.318" y="532.419"/>
            <rect height="56.008" ry="5.012" width="56.008" x="699.092" y="465.973"/>
            <rect height="56.008" ry="5.012" width="56.008" x="765.092" y="465.973"/>
            <rect height="56.008" ry="5.012" width="56.008" x="831.092" y="465.973"/>
            <rect height="56.008" ry="5.012" width="56.008" x="897.092" y="465.973"/>
            <rect height="56.008" ry="5.012" width="56.008" x="635.092" y="465.973"/>
            <rect height="56.008" ry="5.012" width="56.008" x="569.092" y="465.973"/>
            <rect height="56.008" ry="5.012" width="56.008" x="503.092" y="465.973"/>
            <rect height="56.008" ry="5.012" width="56.008" x="437.092" y="465.973"/>
            <rect height="56.008" ry="5.012" width="56.008" x="373.092" y="465.973"/>
            <rect height="56.008" ry="5.012" width="56.008" x="307.092" y="465.973"/>
            <rect height="56.008" ry="5.012" width="56.008" x="241.092" y="465.973"/>
            <rect height="56.008" ry="5.012" width="56.008" x="177.092" y="465.973"/>
            <rect height="56.008" ry="5.012" width="56.008" x="111.092" y="465.973"/>
            <rect height="56.008" ry="5.012" width="56.008" x="963.092" y="465.973"/>
            <rect height="56.008" ry="5.012" width="56.008" x="1029.092" y="465.973"/>
            <rect height="55.562" ry="4.972" width="84.562" x="127.538" y="400.419"/>
            <rect height="56.008" ry="5.012" width="56.008" x="681.092" y="399.973"/>
            <rect height="56.008" ry="5.012" width="56.008" x="747.092" y="399.973"/>
            <rect height="56.008" ry="5.012" width="56.008" x="813.092" y="399.973"/>
            <rect height="56.008" ry="5.012" width="56.008" x="879.092" y="399.973"/>
            <rect height="56.008" ry="5.012" width="56.008" x="617.092" y="399.973"/>
            <rect height="56.008" ry="5.012" width="56.008" x="551.092" y="399.973"/>
            <rect height="56.008" ry="5.012" width="56.008" x="485.092" y="399.973"/>
            <rect height="56.008" ry="5.012" width="56.008" x="419.092" y="399.973"/>
            <rect height="56.008" ry="5.012" width="56.008" x="355.092" y="399.973"/>
            <rect height="56.008" ry="5.012" width="56.008" x="289.092" y="399.973"/>
            <rect height="56.008" ry="5.012" width="56.008" x="223.092" y="399.973"/>
            <rect height="56.008" ry="5.012" width="56.008" x="945.092" y="399.973"/>
            <rect height="56.008" ry="5.012" width="56.008" x="1011.092" y="399.973"/>
            <rect height="55.562" ry="4.972" width="84.562" x="980.095" y="334.196"/>
            <rect height="56.008" ry="5.012" width="56.008" x="715.092" y="333.973"/>
            <rect height="56.008" ry="5.012" width="56.008" x="781.092" y="333.973"/>
            <rect height="56.008" ry="5.012" width="56.008" x="847.092" y="333.973"/>
            <rect height="56.008" ry="5.012" width="56.008" x="913.092" y="333.973"/>
            <rect height="56.008" ry="5.012" width="56.008" x="651.092" y="333.973"/>
            <rect height="56.008" ry="5.012" width="56.008" x="585.092" y="333.973"/>
            <rect height="56.008" ry="5.012" width="56.008" x="519.092" y="333.973"/>
            <rect height="56.008" ry="5.012" width="56.008" x="453.092" y="333.973"/>
            <rect height="56.008" ry="5.012" width="56.008" x="389.092" y="333.973"/>
            <rect height="56.008" ry="5.012" width="56.008" x="323.092" y="333.973"/>
            <rect height="56.008" ry="5.012" width="56.008" x="257.092" y="333.973"/>
            <rect height="56.008" ry="5.012" width="56.008" x="193.092" y="333.973"/>
            <rect height="56.008" ry="5.012" width="56.008" x="127.092" y="333.973"/>
        </g>
        <path d="M1187.446 2.57c7.39.162 12.07 6.293 12.29 13.616l8.116 269.439-23.829 396.194c-.527 10.176-7.62 13.952-12.103 13.771l-567.794 1.294-567.793-1.294c-4.483.18-11.576-3.595-12.103-13.771L.4 285.625 8.519 16.186c.218-7.323 4.9-13.454 12.289-13.616L604.127 1z" stroke-width="4"/>
        <g stroke-width="2" transform="translate(-48.076 -65.488)">
            <rect height="104.155" ry="1.201" width="10.393" x="680.546" y="74.928"/>
            <rect height="104.155" ry="1.201" width="10.393" x="658.546" y="74.928"/>
            <rect height="104.155" ry="1.201" width="10.393" x="636.546" y="74.928"/>
            <rect height="104.155" ry="1.201" width="10.393" x="614.546" y="74.928"/>
            <rect height="104.155" ry="1.201" width="10.393" x="592.546" y="74.928"/>
            <rect height="104.155" ry="1.201" width="10.393" x="570.546" y="74.928"/>
            <rect height="104.155" ry="1.201" width="10.393" x="548.546" y="74.928"/>
            <rect height="104.155" ry="1.201" width="10.393" x="526.546" y="74.928"/>
            <rect height="104.155" ry="1.201" width="10.393" x="504.546" y="74.928"/>
            <rect height="104.155" ry="1.201" width="10.393" x="482.546" y="74.928"/>
            <rect height="104.155" ry="1.201" width="10.393" x="460.546" y="74.928"/>
            <rect height="104.155" ry="1.201" width="10.393" x="438.546" y="74.928"/>
            <rect height="104.155" ry="1.201" width="10.393" x="416.546" y="74.928"/>
            <rect height="104.155" ry="1.201" width="10.393" x="394.546" y="74.928"/>
            <rect height="104.155" ry="1.201" width="10.393" x="372.546" y="74.928"/>
            <rect height="104.155" ry="1.201" width="10.393" x="350.546" y="74.928"/>
            <rect height="104.155" ry="1.201" width="10.393" x="328.546" y="74.928"/>
            <rect height="104.155" ry="1.201" width="10.393" x="306.546" y="74.928"/>
            <rect height="104.155" ry="1.201" width="10.393" x="284.546" y="74.928"/>
            <rect height="104.155" ry="1.201" width="10.393" x="262.546" y="74.928"/>
            <rect height="104.155" ry="1.201" width="10.393" x="240.546" y="74.928"/>
            <rect height="104.155" ry="1.201" width="10.393" x="218.546" y="74.928"/>
            <rect height="104.155" ry="1.201" width="10.393" x="196.546" y="74.928"/>
            <rect height="104.155" ry="1.201" width="10.393" x="174.546" y="74.928"/>
            <rect height="104.155" ry="1.201" width="10.393" x="152.546" y="74.928"/>
            <rect height="104.155" ry="1.201" width="10.393" x="130.546" y="74.928"/>
            <rect height="104.155" ry="1.201" width="10.393" x="108.546" y="74.928"/>
            <rect height="104.155" ry="1.201" width="10.393" x="86.546" y="74.928"/>
            <rect height="104.155" ry="1.201" width="10.393" x="1208.546" y="74.928"/>
            <rect height="104.155" ry="1.201" width="10.393" x="1186.546" y="74.928"/>
            <rect height="104.155" ry="1.201" width="10.393" x="1164.546" y="74.928"/>
            <rect height="104.155" ry="1.201" width="10.393" x="1142.546" y="74.928"/>
            <rect height="104.155" ry="1.201" width="10.393" x="1120.546" y="74.928"/>
            <rect height="104.155" ry="1.201" width="10.393" x="1098.546" y="74.928"/>
            <rect height="104.155" ry="1.201" width="10.393" x="1076.546" y="74.928"/>
            <rect height="104.155" ry="1.201" width="10.393" x="1054.546" y="74.928"/>
            <rect height="104.155" ry="1.201" width="10.393" x="1032.546" y="74.928"/>
            <rect height="104.155" ry="1.201" width="10.393" x="1010.546" y="74.928"/>
            <rect height="104.155" ry="1.201" width="10.393" x="988.546" y="74.928"/>
            <rect height="104.155" ry="1.201" width="10.393" x="966.546" y="74.928"/>
            <rect height="104.155" ry="1.201" width="10.393" x="944.546" y="74.928"/>
            <rect height="104.155" ry="1.201" width="10.393" x="922.546" y="74.928"/>
            <rect height="104.155" ry="1.201" width="10.393" x="900.546" y="74.928"/>
            <rect height="104.155" ry="1.201" width="10.393" x="878.546" y="74.928"/>
            <rect height="104.155" ry="1.201" width="10.393" x="856.546" y="74.928"/>
            <rect height="104.155" ry="1.201" width="10.393" x="834.546" y="74.928"/>
            <rect height="104.155" ry="1.201" width="10.393" x="812.546" y="74.928"/>
            <rect height="104.155" ry="1.201" width="10.393" x="790.546" y="74.928"/>
            <rect height="104.155" ry="1.201" width="10.393" x="768.546" y="74.928"/>
            <rect height="104.155" ry="1.201" width="10.393" x="746.546" y="74.928"/>
            <rect height="104.155" ry="1.201" width="10.393" x="724.546" y="74.928"/>
            <rect height="104.155" ry="1.201" width="10.393" x="702.546" y="74.928"/>
        </g>
        <path d="M36.758 139.264h189.885v72.429H36.758z" stroke-width="2"/>
        <path d="M.4 285.624h1207.452"/>
    </g>
</svg>
