<svg height="379.697" width="174.304" xmlns="http://www.w3.org/2000/svg">
    <g fill="#f4f4f4" fill-opacity=".5">
        <path d="M92.842 342.943q0 .24-.058.404-.086.244-.276.244-.126 0-.264-.058-.166-.07-.182-.172.056 0 .132.02.176.046.22.046.17 0 .256-.17.068-.136.068-.326 0-.134-.088-.382-.086-.25-.086-.348 0-.03.016-.048.018-.02.048-.02.078 0 .152.36.062.304.062.45zM93.612 343.147q0 .204-.118.32-.118.116-.326.116-.114 0-.176-.054-.062-.054-.062-.166 0-.158.206-.318.196-.152.362-.152.076 0 .1.094.014.054.014.16zm-.122.056q0-.024-.006-.046-.004-.024-.016-.054-.032.022-.106.108-.038.044-.066.064 0-.038.008-.062l.026-.058q-.088 0-.184.074-.094.074-.094.16 0 .058.064.058.122 0 .236-.06.138-.072.138-.184zM94.436 343.23q0 .097-.074.22-.084.137-.174.137-.026 0-.044-.028-.016-.03-.016-.058 0-.036.076-.112.078-.078.078-.106 0-.018-.006-.036l-.008-.024q-.15.034-.306.172-.154.138-.234.156-.016-.044-.016-.09 0-.056.026-.118.018-.044.06-.106.07-.106.148-.24l.138-.242q.1-.172.146-.244.024-.036.042-.054.026-.024.062-.032.024.008.034.03.012.022.012.052 0 .068-.088.184-.16.208-.164.216-.09.136-.09.246l.004.02q.11-.054.13-.062.082-.034.14-.034.064 0 .094.044.03.042.03.108zM95.364 343.111q0 .136-.066.29-.072.17-.178.234-.022-.026-.038-.058-.014-.032-.014-.064 0-.034.1-.202.044-.074.04-.13l-.002-.026q-.074.022-.256.134l-.364.224q-.028 0-.052-.02-.022-.022-.022-.048 0-.042.134-.282.04-.072.144-.25.032.042.042.094.01.05.01.12v.046q.184-.11.288-.166.114-.062.156-.062.028 0 .052.064.026.064.026.102zM97.102 343.5q0 .035-.032.055-.03.018-.068.018-.034 0-.086-.008-.118-.018-.152-.018-.06 0-.236.014-.1.008-.144.008-.122 0-.122-.122 0-.116.076-.332.042-.122.158-.4.104-.25.132-.352.01-.032.016-.042.016-.024.04-.024.038 0 .064.056.026.054.026.098 0 .07-.082.236l-.16.322q-.086.188-.086.286 0 .05.042.07.03.014.088.014.044 0 .152-.01.108-.012.144-.012.09 0 .148.026.082.036.082.116zM97.846 343.147q0 .204-.118.32-.118.116-.326.116-.114 0-.176-.054-.062-.054-.062-.166 0-.158.206-.318.196-.152.362-.152.076 0 .1.094.014.054.014.16zm-.122.056q0-.024-.006-.046-.004-.024-.016-.054-.032.022-.106.108-.038.044-.066.064 0-.038.008-.062l.026-.058q-.088 0-.184.074-.094.074-.094.16 0 .058.064.058.122 0 .236-.06.138-.072.138-.184zM98.688 343.105q0 .064-.034.136-.032.072-.082.12l-.002-.028q0-.024.006-.074.006-.05.006-.074 0-.034-.01-.05-.01-.018-.042-.018-.094 0-.234.146l-.302.318-.024-.002-.04-.01q.006-.072.05-.16.118-.238.122-.254l.024-.094q.008-.03.022-.062.016-.034.036-.06.022-.028.056-.042l.02.24.132-.108q.088-.07.152-.07t.104.042q.04.042.04.104zM99.67 342.873q0 .084-.224.222-.216.132-.314.132-.046 0-.062-.032-.014-.032-.014-.09v-.054q.134 0 .244-.04.11-.04.192-.132-.06-.022-.122-.022-.146 0-.31.112-.18.122-.18.26 0 .132.18.184.028.008.338.056.182.028.182.098 0 .03-.066.048-.066.02-.168.02-.256 0-.404-.078-.196-.104-.196-.334 0-.24.24-.382.204-.12.464-.12.078 0 .142.036.078.044.078.116zM100.466 342.515q0 .044-.106.184t-.106.214q0 .038.044.076.1.088.1.108 0 .026-.018.05-.016.024-.042.024-.022 0-.062-.024-.028-.016-.108-.078l-.046.088q-.056.106-.076.154l-.06.184q-.052.124-.13.124l-.002-.046q0-.142.092-.336.018-.036.1-.186-.158-.086-.348-.086 0-.074.03-.108.032-.036.106-.036.068 0 .17.024l.1.024q.038-.012.104-.13.162-.284.22-.326.016.026.026.052.012.026.012.05zM101.204 343.23q0 .097-.074.22-.084.137-.174.137-.026 0-.044-.028-.016-.03-.016-.058 0-.036.076-.112.078-.078.078-.106 0-.018-.006-.036l-.008-.024q-.15.034-.306.172-.154.138-.234.156-.016-.044-.016-.09 0-.056.026-.118.018-.044.06-.106.07-.106.148-.24l.138-.242q.1-.172.146-.244.024-.036.042-.054.026-.024.062-.032.024.008.034.03.012.022.012.052 0 .068-.088.184-.16.208-.164.216-.09.136-.09.246l.004.02q.11-.054.13-.062.082-.034.14-.034.064 0 .094.044.03.042.03.108zM102.846 342.577q0 .094-.1.252-.064.1-.21.288-.146.186-.182.244l.15.048q.146.044.146.16l-.118.018-.022-.002v-.016q-.032-.008-.052-.008-.038 0-.12.012-.082.012-.124.012-.054 0-.088-.02-.034-.02-.034-.072 0-.042.154-.238l.29-.37q.156-.212.156-.284 0-.028-.02-.042-.018-.014-.074-.014-.038 0-.158.074-.058.036-.094.036l-.034-.006q-.012-.008-.026-.03-.014-.024-.014-.038 0-.084.162-.154.138-.06.24-.06.086 0 .132.064.04.056.04.146zM104.048 342.937q0 .242-.262.428-.24.17-.494.17-.126 0-.2-.064-.074-.064-.074-.186 0-.272.238-.472.226-.19.506-.19.142 0 .214.084.072.084.072.23zm-.122.046q0-.092-.104-.138-.078-.034-.186-.034-.158 0-.33.154-.172.154-.172.31 0 .064.032.092.034.026.102.026.196 0 .408-.108.25-.128.25-.302zM104.964 342.577q0 .094-.1.252-.064.1-.21.288-.146.186-.182.244l.15.048q.146.044.146.16l-.118.018-.022-.002v-.016q-.032-.008-.052-.008-.038 0-.12.012-.082.012-.124.012-.054 0-.088-.02-.034-.02-.034-.072 0-.042.154-.238l.29-.37q.156-.212.156-.284 0-.028-.02-.042-.018-.014-.074-.014-.038 0-.158.074-.058.036-.094.036l-.034-.006q-.012-.008-.026-.03-.014-.024-.014-.038 0-.084.162-.154.138-.06.24-.06.086 0 .132.064.04.056.04.146zM105.884 342.577q0 .094-.1.252-.064.1-.21.288-.146.186-.182.244l.15.048q.146.044.146.16l-.118.018-.022-.002v-.016q-.032-.008-.052-.008-.038 0-.12.012-.082.012-.124.012-.054 0-.088-.02-.034-.02-.034-.072 0-.042.154-.238l.29-.37q.156-.212.156-.284 0-.028-.02-.042-.018-.014-.074-.014-.038 0-.158.074-.058.036-.094.036l-.034-.006q-.012-.008-.026-.03-.014-.024-.014-.038 0-.084.162-.154.138-.06.24-.06.086 0 .132.064.04.056.04.146z"/>
    </g>
    <g fill="none" stroke="#f4f4f4" stroke-linecap="round">
        <path d="M87.371 378.697c29.44 0 53.14-23.7 53.14-53.14v-158.16c-.265-8.622 4.084-14.497 9.748-21.288M87.37 378.697c-29.44 0-53.14-23.7-53.14-53.14v-158.16c.265-8.622-4.084-14.497-9.747-21.288" opacity=".98" stroke-width="2"/>
        <path d="M33.888 330.466c-2.254-43.659-7.373-88.383-12.677-131.166l-5.08-40.091c-1.207-12.79-17.696-38.59-15.174-72.203M140.62 330.466c2.254-43.659 7.374-88.383 12.678-131.166l5.08-40.091c1.206-12.79 17.696-38.59 15.173-72.203" opacity=".98" stroke-width="1.5"/>
        <path d="M173.304 87.11a86.11 86.11 0 0 1-86.11 86.11 86.11 86.11 0 0 1-86.11-86.11A86.11 86.11 0 0 1 87.194 1a86.11 86.11 0 0 1 86.11 86.11z" opacity=".98" stroke-width="2"/>
        <path d="M134.213 37.116c-12.588-11.808-29.753-18.638-47.02-18.638-17.414 0-34.724 6.95-47.34 18.945M18.742 91.964c1.198 16.292 8.363 32.117 19.922 43.676 12.705 12.705 30.562 20.101 48.53 20.101 17.967 0 35.824-7.396 48.529-20.101 11.557-11.557 18.723-27.377 19.924-43.666" opacity=".98"/>
    </g>
    <g fill="#f4f4f4" stroke-width=".055">
        <path d="M68.258 332.7c-.589 0-1.067.477-1.067 1.066v6.771c0 .589.478 1.067 1.067 1.067h38.248c.589 0 1.064-.478 1.064-1.067v-6.771c0-.59-.475-1.067-1.064-1.067zm.488 1.257h.623v6.592h-.623zm27.856 0h.603v.816h-.603zm-21.065.531h.549v1.319h.887v.459h-.887v3.248c0 .467.017.67.475.67.146 0 .302-.028.449-.065v.447c-.128.028-.366.112-.631.112-.54 0-.842-.239-.842-.944v-3.468h-.67v-.46h.67zm19.025 0h.55v1.319h.886v.459h-.887v3.248c0 .467.02.67.477.67.146 0 .3-.028.447-.065v.447c-.128.028-.365.112-.63.112-.54 0-.843-.239-.843-.944v-3.468h-.67v-.46h.67zM72.7 335.68c.577 0 1.107.181 1.446.675.228.34.238.697.238 1.09v3.104h-.549v-3.094c0-.851-.348-1.281-1.227-1.281-.677 0-1.144.438-1.318.924-.11.302-.12.567-.12.896v2.555h-.548v-4.742h.549v.66c.44-.467.87-.787 1.53-.787zm6.754 0c1.3 0 2.095.924 2.086 2.627h-3.68c-.009 1.025.541 1.877 1.594 1.877.714 0 1.273-.395 1.438-1.09h.613c-.275.897-.843 1.584-2.05 1.584-1.52 0-2.18-1.082-2.18-2.483 0-1.382.824-2.515 2.18-2.515zm4.934 0v.593c-1.236-.027-1.567.89-1.567 1.952v2.324h-.549v-4.742h.55v.888h.019c.302-.76.75-1.015 1.547-1.015zm2.373 0h.095c.962 0 1.721.374 1.721 1.472v2.582c0 .43.11.53.576.366v.431c-.082.028-.274.092-.43.092-.09 0-.163-.01-.245-.03-.367-.054-.43-.373-.44-.702a2.328 2.328 0 0 1-1.767.787c-.834 0-1.584-.45-1.584-1.365 0-.797.55-1.282 1.658-1.428l.76-.1c.2-.018.54-.074.722-.156.183-.082.201-.33.201-.494 0-.559-.33-.961-1.181-.961-.76 0-1.28.246-1.381 1.07h-.559c.08-1.082.864-1.537 1.854-1.564zm4.836 0c1.089 0 1.804.52 1.968 1.619h-.558c-.192-.705-.678-1.125-1.41-1.125-1.126 0-1.592 1.025-1.592 2.014 0 .997.457 1.996 1.592 1.996.814 0 1.329-.487 1.457-1.274h.586c-.193 1.053-.853 1.768-2.043 1.768-1.51 0-2.178-1.09-2.178-2.49 0-1.319.759-2.508 2.178-2.508zm12.76 0c1.3 0 2.095.924 2.085 2.627h-3.68c-.008 1.025.542 1.877 1.594 1.877.714 0 1.271-.395 1.436-1.09h.613c-.274.897-.84 1.584-2.049 1.584-1.52 0-2.18-1.082-2.18-2.483 0-1.382.826-2.515 2.18-2.515zm-7.727.127h.549v4.742h-.55zm1.08 0h.596l1.537 4.064 1.537-4.064h.596l-1.84 4.742h-.614zm-18.256.367c-.97 0-1.484.777-1.594 1.674h3.094c0-.925-.511-1.674-1.5-1.674zm24.902 0c-.97 0-1.483.777-1.593 1.674h3.093c0-.925-.51-1.674-1.5-1.674zm-16.328 1.885c-.467.192-.942.229-1.418.265-.833.064-1.338.367-1.338 1.008 0 .577.504.852 1.026.852.87 0 1.73-.422 1.73-1.383zM103.623 314.195a4.29 4.29 0 0 1-.01.244c-.03.26 0 .383-.75.383s-.721-.123-.75-.383a16.263 16.263 0 0 1 0-1.53c.029-.26 0-.383.75-.383s.72.123.75.384c.004.035.007.137.01.26h1.027a7.467 7.467 0 0 0-.03-.529c-.059-.52.146-1.018-1.756-1.018-1.903 0-1.698.498-1.757 1.018-.02.17-.037.6-.035 1.033.002.434.016.864.035 1.033.06.52-.146 1.019 1.757 1.019 1.902 0 1.697-.498 1.756-1.019.012-.099.021-.287.028-.512zM89.452 311.727l-1.498-.008v3.927h1.001v-2.926l1.002 2.926h1.001l.993-2.926v2.926h1.002v-3.927l-1.498.008-1.002 2.925zM104.874 311.719h2.878v1.001h-.938v2.926h-1.001v-2.926h-.939zM99.52 314.195l-.464-1.6-.9 3.05h-1l1.148-3.93h1.493l1.15 3.93h-1l-.237-.812h-1.314l.186-.638zM85.542 312.526c.75 0 .721.123.75.384a16.26 16.26 0 0 1 0 1.53c-.029.26 0 .382-.75.382s-.72-.123-.75-.383c-.01-.085-.018-.548-.017-.765 0-.216.008-.68.017-.764.03-.26 0-.384.75-.384l.002-.903c-1.903 0-1.698.498-1.757 1.018-.02.17-.037.6-.035 1.033.002.434.016.864.035 1.033.06.52-.146 1.019 1.757 1.019 1.902 0 1.697-.498 1.756-1.019.02-.17.034-.6.036-1.033.001-.433-.016-.863-.036-1.033-.059-.52.146-1.018-1.756-1.018zM82.162 314.195a4.29 4.29 0 0 1-.011.244c-.03.26 0 .383-.75.383s-.72-.123-.75-.383a16.312 16.312 0 0 1 0-1.53c.03-.26 0-.383.75-.383s.72.123.75.384c.004.035.008.137.01.26h1.027a7.468 7.468 0 0 0-.03-.529c-.059-.52.146-1.018-1.756-1.018-1.903 0-1.698.498-1.757 1.018-.019.17-.037.6-.035 1.033.002.434.016.864.035 1.033.06.52-.146 1.019 1.757 1.019 1.902 0 1.697-.498 1.757-1.019.01-.099.02-.287.027-.512h-1.024zM95.39 314.747h-.607v-.895l.608-.004c.75 0 .727-.123.756-.383.01-.085.008-.015.007-.232-.001-.217.003-.143-.007-.227-.03-.26-.006-.383-.756-.383l-.608.001.001 3.018h-1.003v-3.923h1.61c1.902 0 1.694.5 1.764 1.019.008.061.008.345.008.498 0 .123 0 .407-.008.497-.048.521.138 1.015-1.764 1.014zM75.918 330.43l-6.268-.007a1.642 1.642 0 0 1-1.642-1.642v-9.54c0-.907.735-1.642 1.642-1.642l3.923-.005a.853.853 0 0 0 .853-.853l.011-3.814c0-.198.16-.358.358-.358h2.3c.197 0 .357.16.357.358l.023 17.147c0 .198-.16.358-.357.358l-1.2-.001-.03.852h1.569a.853.853 0 0 0 .853-.854v-17.866a.853.853 0 0 0-.853-.853H74.44a.853.853 0 0 0-.853.853l.004 3.824c0 .197-.16.357-.358.357l-3.583-.006a2.503 2.503 0 0 0-2.504 2.503v9.54a2.503 2.503 0 0 0 2.504 2.503l6.238-.001.03-.852z"/>
        <path d="M73.587 326.919v-6.172a.937.937 0 0 0-1.874 0v6.662a.937.937 0 1 0 1.874 0v-.49l.851.03v.46a1.788 1.788 0 0 1-3.576 0v-6.662a1.788 1.788 0 0 1 3.576 0v6.201l-.851-.029zM81.875 330.43h-1.173a.358.358 0 0 1-.358-.357l.014-12.109c0-.197.16-.357.358-.357h2.3c.197 0 .357.16.357.357l.024 12.109c0 .198-.16.358-.358.358h-1.164v.848l1.503.002a.853.853 0 0 0 .853-.853V317.6a.853.853 0 0 0-.853-.853h-3.017a.853.853 0 0 0-.853.853l-.001 12.825a.85.85 0 0 0 .85.853l1.518.001v-.848zM92.709 319.99l-2.527-.004a1.408 1.408 0 0 0 0 2.815l3.462.01c.907 0 1.642.735 1.642 1.642l-.012 4.309c0 .907-.735 1.642-1.642 1.642l-6.871.012a.358.358 0 0 1-.358-.357v-1.67c0-.197.16-.357.358-.357l4.683-.015a1.408 1.408 0 1 0 0-2.816l-3.39-.013a1.642 1.642 0 0 1-1.642-1.642v-4.305c0-.907.735-1.642 1.642-1.642l6.369-.03c.197 0 .357.16.357.358v1.707c0 .197-.16.357-.357.357l-1.714-.002-.03.84h2.096a.85.85 0 0 0 .853-.85l.003-2.391a.853.853 0 0 0-.853-.853l-6.724.003a2.503 2.503 0 0 0-2.504 2.503v4.305a2.503 2.503 0 0 0 2.504 2.503l3.39-.006a.566.566 0 1 1 0 1.132l-5.047-.001a.853.853 0 0 0-.853.853v2.386c0 .472.382.853.853.853l7.235-.001a2.503 2.503 0 0 0 2.503-2.503l.012-4.31a2.503 2.503 0 0 0-2.503-2.503l-3.461.01a.566.566 0 0 1 0-1.131h2.497l.029-.839zM105.441 322.356h1.085c.198 0 .358-.16.358-.357l-.005-2.758c0-.907-.735-1.642-1.642-1.642H99.81c-.907 0-1.642.735-1.642 1.642v9.54c0 .907.735 1.642 1.642 1.642h5.428c.907 0 1.642-.735 1.642-1.642l.005-2.622a.358.358 0 0 0-.358-.357h-2.048a.358.358 0 0 0-.357.357l.011 1.25c0 .988-.621 1.788-1.609 1.788-.987 0-1.61-.8-1.61-1.788v-6.662c0-.988.623-1.788 1.61-1.788.988 0 1.61.8 1.61 1.788l-.012 1.252c0 .197.16.357.357.357h.963l-.029.86h-1.288a.853.853 0 0 1-.853-.853l.01-1.616c0-.517-.24-.937-.758-.937-.517 0-.758.42-.758.937v6.662c0 .518.24.937.758.937.517 0 .758-.42.758-.937l-.01-1.614c0-.471.382-.853.853-.853h2.765c.471 0 .853.382.853.853l-.001 2.986a2.503 2.503 0 0 1-2.504 2.503H99.81a2.503 2.503 0 0 1-2.503-2.503v-9.54a2.503 2.503 0 0 1 2.503-2.503h5.428a2.503 2.503 0 0 1 2.504 2.503l.001 3.122a.853.853 0 0 1-.853.853h-1.477l.03-.86z"/>
    </g>
    <path d="m138.123 33.528-7.358 6.755c-2.04 1.879-1.077 3.882-.083 5.266 8.272 11.311 17.154 22.059 16.615 41.5-.054 3.864 1.235 4.723 3.369 4.857l8.347.11c3.723.044 3.403-1.858 3.382-3.476-.205-19.33-5.98-37.488-20.207-53.269-2.836-3.17-2.739-2.892-4.065-1.743zM35.607 33.528l7.357 6.755c2.041 1.879 1.077 3.882.083 5.266-8.272 11.311-17.154 22.059-16.615 41.5.055 3.864-1.234 4.723-3.368 4.857l-8.347.11c-3.723.044-3.404-1.858-3.382-3.476.204-19.33 5.98-37.488 20.207-53.269 2.836-3.17 2.738-2.892 4.065-1.743z" fill="none" opacity=".98" stroke="#f4f4f4" stroke-linecap="round" stroke-width="2"/>
    <g transform="translate(-21.238 -19.602)">
        <g fill="none" stroke="#f4f4f4" stroke-linecap="round">
            <circle cx="108.469" cy="107.151" opacity=".98" r="40" stroke-width="2"/>
            <circle cx="108.553" cy="106.946" opacity=".98" r="14" stroke-width="2"/>
            <path d="M74.975 107.2h10.672M130.975 107.2h10.672M108.597 73.863v10.672M108.597 129.863v10.672" opacity=".98" stroke-width="1.5"/>
        </g>
        <circle cx="84.831" cy="130.853" fill="#f4f4f4" opacity=".98" r="1"/>
        <circle cx="85.283" cy="83.894" fill="#f4f4f4" opacity=".98" r="1"/>
        <circle cx="132.166" cy="83.657" fill="#f4f4f4" opacity=".98" r="1"/>
        <circle cx="132.049" cy="130.635" fill="#f4f4f4" opacity=".98" r="1"/>
    </g>
</svg>
