<svg version="1.2" baseProfile="tiny" xmlns="http://www.w3.org/2000/svg" width="598.189" height="350.26" xml:space="preserve">
    <path fill="#EFEFEF" d="M175.298 261.984v-99.886h2v99.886h-2zM185.064 261.984V161.096h1.999v100.888h-1.999zM192.876 261.148v-98.052h2.001v98.052h-2.001zM202.642 262.822V161.097h2.001v101.725h-2.001zM208.78 262.402V161.098h2.001v101.304h-2.001zM218.545 261.566v-99.469h2.001v99.469h-2.001zM226.359 261.984v-99.886h1.998v99.886h-1.998zM236.125 262.402V161.098h1.998v101.304h-1.998zM242.542 262.402V161.098h1.999v101.304h-1.999zM252.307 261.148v-99.051h2v99.051h-2zM260.12 261.984v-99.886h2.001v99.886h-2.001zM269.884 261.984v-99.886h2.001v99.886h-2.001zM276.861 261.984V161.096h1.998v100.888h-1.998zM286.625 261.984v-99.886h1.999v99.886h-1.999zM294.438 261.566v-99.469h2.001v99.469h-2.001zM304.204 262.402V161.098h1.999v101.304h-1.999zM310.342 262.822V161.097h1.999v101.725h-1.999zM320.105 261.148v-98.052h2.001v98.052h-2.001zM327.918 261.984v-99.886h2v99.886h-2zM337.687 261.984v-99.886h1.998v99.886h-1.998zM345.103 262.239V162.097h2v100.142h-2zM353.867 260.73v-97.633h2v97.633h-2zM361.68 262.402V161.098h2.001v101.304h-2.001zM371.444 261.566v-99.469h2v99.469h-2zM379.259 261.984v-99.886h1.999v99.886h-1.999zM389.021 262.402V161.097h2.002v101.305h-2.002zM396.836 260.309v-97.212h2.001v97.212h-2.001zM405.602 263.241V162.098h2.001v101.143h-2.001zM412.739 262.403V162.097h2v100.306h-2zM422.506 261.985v-99.888h2v99.888h-2zM430.317 261.565v-99.467h2.002v99.467h-2.002zM440.083 262.403V161.097h2.001v101.306h-2.001zM446.501 262.402V161.098h2.001v101.304h-2.001zM456.267 261.566v-99.47h2v99.47h-2zM464.078 261.565v-99.886h2.001v99.886h-2.001zM473.844 261.985v-99.887h2.001v99.887h-2.001zM480.82 261.984V161.261h2.001v100.723h-2.001zM490.584 261.565V161.259h2.001v100.306h-2.001zM498.118 261.428v-99.889h2.001v99.889h-2.001zM507.884 262.265V161.541h2.001v100.724h-2.001zM515.14 261.985v-99.888h2v99.888h-2zM524.905 262.403V161.097h1.998v101.306h-1.998zM531.88 261.984v-99.888h2v99.888h-2zM541.646 261.984v-99.887h2v99.887h-2z"/>
    <path fill="#EFEFEF" d="M571.012 176.815c.013-5.042 2.472-10.376 5.907-14.527 1.751-2.097 3.756-3.909 5.877-5.189H149.589c-.024.003-.066.01-.137.023a4.97 4.97 0 0 0-.566.155 5.84 5.84 0 0 0-1.78.986c-1.191.983-2.458 2.722-2.64 6.234 9.781 2.031 16.127 3.812 18.439 3.785l.17 1.986c-2.648.456-5.653.647-8.793.647-5.843 0-12.157-.665-17.427-1.578-5.296-.934-9.432-2.028-11.313-3.187l1.066-1.69c1.251.819 5.449 2.031 10.59 2.906 5.166.896 11.39 1.549 17.084 1.547.284 0 .567-.002.848-.005-3.148-.718-7.088-1.649-11.887-2.624l-.8-.164v-.815c-.015-4.521 1.652-7.197 3.406-8.598 1.746-1.409 3.451-1.59 3.561-1.605l.056-.004h439.707v1.999h-.099c-3.359.021-7.455 2.63-10.616 6.467-3.21 3.851-5.458 8.876-5.447 13.25h.002-2.001v.001zM154.372 137.579c.002-5.811 4.711-10.52 10.522-10.522 5.811.002 10.52 4.711 10.521 10.522-.002 5.811-4.71 10.52-10.521 10.521-5.811-.002-10.52-4.71-10.522-10.521zm2 0a8.532 8.532 0 0 0 8.522 8.521 8.533 8.533 0 0 0 8.521-8.521 8.534 8.534 0 0 0-8.521-8.522 8.532 8.532 0 0 0-8.522 8.522zM562.431 137.578c0-5.811 4.71-10.521 10.523-10.521 5.809 0 10.521 4.709 10.521 10.521 0 5.814-4.712 10.521-10.521 10.521-5.811 0-10.523-4.707-10.523-10.521zm1.999 0a8.532 8.532 0 0 0 8.524 8.521 8.531 8.531 0 0 0 8.521-8.521 8.533 8.533 0 0 0-8.521-8.521 8.534 8.534 0 0 0-8.524 8.521z"/>
    <path fill="#EFEFEF" d="M529.29 265.426c-2.041.011-3.37-1.282-4.247-2.535-.903-1.275-1.601-2.637-2.417-3.389-.547-.503-1.045-.764-1.833-.773-1.148.01-1.81.602-2.624 1.703-.79 1.079-1.487 2.544-2.664 3.674-.778.754-1.874 1.331-3.207 1.32-2.041.011-3.372-1.282-4.249-2.535-.903-1.275-1.601-2.637-2.417-3.389-.547-.503-1.045-.764-1.833-.773-1.146.01-1.808.602-2.622 1.703-.79 1.079-1.487 2.544-2.664 3.674-.78.754-1.876 1.331-3.209 1.32-2.039.011-3.367-1.282-4.247-2.535-.901-1.275-1.599-2.637-2.412-3.389-.549-.503-1.047-.764-1.836-.773-1.146.01-1.808.602-2.623 1.703-.789 1.079-1.486 2.544-2.662 3.674-.778.754-1.876 1.331-3.209 1.32-2.039.011-3.37-1.282-4.246-2.535-.904-1.275-1.6-2.637-2.416-3.389-.547-.503-1.045-.764-1.835-.773-1.147.01-1.807.602-2.622 1.703-.789 1.079-1.486 2.544-2.662 3.674-.778.754-1.876 1.331-3.209 1.32-2.039.011-3.37-1.282-4.247-2.535-.901-1.275-1.599-2.637-2.412-3.389-.549-.503-1.045-.764-1.834-.773-1.146.01-1.808.602-2.621 1.703-.791 1.079-1.488 2.544-2.665 3.674-.779.754-1.875 1.331-3.209 1.32-2.038.011-3.369-1.282-4.247-2.535-.903-1.275-1.598-2.637-2.414-3.389-.549-.503-1.045-.764-1.836-.773-1.146.01-1.808.602-2.623 1.703-.789 1.079-1.486 2.544-2.662 3.674-.778.754-1.874 1.331-3.207 1.32-2.041.011-3.372-1.282-4.25-2.535-.902-1.275-1.598-2.637-2.412-3.389-.549-.503-1.045-.764-1.833-.773-1.148.01-1.811.602-2.626 1.703-.788 1.079-1.486 2.544-2.662 3.674-.78.754-1.876 1.331-3.209 1.32-2.039.011-3.37-1.282-4.247-2.535-.901-1.275-1.599-2.637-2.412-3.389-.549-.503-1.045-.764-1.834-.773-1.146.01-1.808.602-2.624 1.703-.788 1.079-1.487 2.544-2.662 3.674-.779.754-1.878 1.331-3.209 1.32-2.041.011-3.369-1.282-4.247-2.535-.903-1.275-1.601-2.637-2.414-3.389-.549-.503-1.045-.764-1.836-.773-1.145.01-1.806.602-2.619 1.703-.791 1.079-1.488 2.544-2.664 3.674-.778.754-1.876 1.331-3.209 1.32-2.039.011-3.368-1.282-4.245-2.535-.903-1.275-1.601-2.637-2.414-3.389-.547-.503-1.045-.764-1.834-.773-1.148.01-1.81.602-2.624 1.703-.79 1.079-1.487 2.544-2.664 3.674-.777.754-1.874 1.331-3.207 1.32-2.041.011-3.37-1.282-4.247-2.535-.903-1.275-1.599-2.637-2.414-3.389-.547-.503-1.043-.764-1.833-.773-1.147.01-1.809.602-2.622 1.703-.791 1.079-1.488 2.544-2.664 3.674-.78.754-1.876 1.331-3.209 1.32-2.039.011-3.368-1.282-4.246-2.535-.902-1.275-1.598-2.637-2.411-3.389-.55-.503-1.045-.764-1.836-.773-1.146.01-1.808.602-2.622 1.703-.79 1.079-1.487 2.544-2.664 3.674-.777.754-1.873 1.331-3.207 1.32-2.039.011-3.37-1.282-4.247-2.535-.9-1.275-1.599-2.637-2.414-3.389-.547-.503-1.045-.764-1.833-.773-1.147.01-1.809.602-2.624 1.703-.789 1.079-1.486 2.544-2.662 3.674-.778.754-1.874 1.331-3.207 1.32-2.041.011-3.37-1.282-4.248-2.535-.902-1.275-1.598-2.637-2.411-3.389-.55-.503-1.048-.764-1.836-.773-1.146.01-1.808.602-2.622 1.703-.791 1.079-1.488 2.544-2.662 3.674-.78.754-1.875 1.331-3.209 1.32-2.039.011-3.37-1.282-4.248-2.535-.9-1.275-1.598-2.637-2.412-3.389-.549-.503-1.045-.764-1.835-.773-1.145.01-1.806.602-2.622 1.703-.789 1.079-1.486 2.544-2.662 3.674-.78.754-1.875 1.331-3.209 1.32-2.039.011-3.368-1.282-4.245-2.535-.903-1.275-1.598-2.637-2.414-3.389-.547-.503-1.043-.764-1.833-.773-1.146.01-1.806.602-2.622 1.703-.788 1.079-1.485 2.544-2.662 3.674-.78.754-1.876 1.331-3.209 1.32-2.039.011-3.368-1.282-4.246-2.535-.903-1.275-1.598-2.637-2.414-3.389-.547-.503-1.043-.764-1.833-.773-1.145.01-1.806.602-2.622 1.703-.789 1.079-1.486 2.544-2.662 3.674-.78.754-1.876 1.331-3.209 1.32-2.039.011-3.368-1.282-4.245-2.535-.903-1.275-1.598-2.637-2.415-3.389-.546-.503-1.042-.764-1.833-.773-1.145.01-1.806.602-2.622 1.703-.789 1.079-1.486 2.544-2.662 3.674-.778.754-1.874 1.331-3.207 1.32-2.039.011-3.37-1.282-4.246-2.535-.903-1.275-1.6-2.637-2.414-3.389-.549-.503-1.045-.764-1.835-.773-1.145.01-1.806.602-2.622 1.703-.789 1.079-1.486 2.544-2.662 3.674-.78.754-1.876 1.331-3.209 1.32-2.039.011-3.37-1.282-4.248-2.535-.901-1.275-1.598-2.637-2.412-3.389-.549-.503-1.045-.764-1.835-.773-1.146.01-1.806.602-2.622 1.703-.791 1.079-1.488 2.544-2.662 3.674-.78.754-1.876 1.331-3.209 1.32-2.041.011-3.37-1.282-4.248-2.535-.903-1.275-1.598-2.637-2.414-3.389-.547-.503-1.043-.764-1.833-.773-1.146.01-1.808.602-2.622 1.703-.791 1.079-1.488 2.544-2.665 3.674-.778.754-1.874 1.331-3.207 1.32-1.117.002-2.647-.143-3.883-1.314-1.228-1.178-1.931-3.147-1.931-6.312v-91.867c0-3.165.704-5.134 1.931-6.312 1.235-1.172 2.766-1.314 3.883-1.314 2.039-.011 3.368 1.282 4.245 2.535.903 1.274 1.598 2.637 2.412 3.389.549.502 1.045.761 1.835.771 1.146-.011 1.808-.6 2.622-1.702.791-1.079 1.488-2.543 2.664-3.673.778-.752 1.874-1.331 3.209-1.32 2.039-.011 3.368 1.282 4.245 2.535.903 1.274 1.598 2.635 2.414 3.389.547.502 1.045.761 1.833.771 1.146-.011 1.808-.6 2.622-1.702.791-1.079 1.488-2.543 2.664-3.673.78-.752 1.875-1.331 3.209-1.32 2.039-.011 3.368 1.282 4.245 2.535.903 1.274 1.598 2.637 2.414 3.389.547.502 1.045.761 1.833.771 1.146-.011 1.808-.6 2.622-1.702.791-1.079 1.488-2.543 2.664-3.673.778-.752 1.874-1.331 3.209-1.32 2.039-.011 3.368 1.282 4.243 2.535.903 1.274 1.6 2.637 2.414 3.389.547.502 1.045.761 1.833.771 1.146-.011 1.808-.6 2.622-1.702.791-1.079 1.488-2.543 2.662-3.673.78-.752 1.876-1.331 3.209-1.32 2.039-.011 3.368 1.282 4.246 2.535.903 1.274 1.598 2.637 2.414 3.389.547.502 1.045.761 1.833.771 1.147-.011 1.806-.6 2.622-1.702.789-1.079 1.486-2.543 2.662-3.673.78-.752 1.875-1.331 3.209-1.32 2.039-.011 3.368 1.282 4.245 2.535.903 1.274 1.598 2.637 2.414 3.389.547.502 1.045.761 1.833.771 1.146-.011 1.808-.6 2.622-1.702.791-1.079 1.488-2.543 2.662-3.673.78-.752 1.876-1.331 3.209-1.32 2.039-.011 3.368 1.282 4.246 2.535.903 1.274 1.598 2.637 2.414 3.389.547.502 1.043.761 1.833.771 1.146-.011 1.808-.6 2.624-1.702.789-1.079 1.486-2.543 2.662-3.673.78-.752 1.876-1.331 3.209-1.32 2.039-.011 3.368 1.282 4.246 2.535.903 1.274 1.598 2.637 2.412 3.389.549.502 1.044.761 1.835.771 1.146-.011 1.808-.6 2.622-1.702.79-1.079 1.487-2.543 2.664-3.673.777-.752 1.874-1.331 3.209-1.32 2.037-.011 3.365 1.282 4.243 2.535.903 1.274 1.601 2.635 2.414 3.389.549.502 1.045.761 1.836.771 1.145-.011 1.806-.6 2.621-1.702.791-1.079 1.488-2.543 2.664-3.673.778-.752 1.876-1.331 3.209-1.32 2.039-.011 3.368 1.282 4.243 2.535.903 1.274 1.601 2.635 2.414 3.389.55.502 1.045.761 1.836.771 1.146-.011 1.808-.6 2.622-1.702.79-1.079 1.487-2.543 2.662-3.673.779-.752 1.876-1.331 3.209-1.32 2.039-.011 3.37 1.282 4.245 2.535.902 1.274 1.601 2.635 2.414 3.389.549.502 1.045.761 1.836.771 1.146-.011 1.806-.6 2.621-1.702.789-1.079 1.486-2.543 2.664-3.673.778-.752 1.874-1.331 3.209-1.32 2.037-.011 3.368 1.282 4.246 2.535.902 1.274 1.598 2.635 2.411 3.389.55.502 1.045.761 1.838.771 1.145-.011 1.806-.6 2.622-1.702.788-1.079 1.485-2.543 2.662-3.673.78-.752 1.876-1.331 3.209-1.32 2.039-.011 3.37 1.282 4.247 2.535.901 1.274 1.599 2.637 2.412 3.389.549.502 1.045.761 1.833.771 1.147-.011 1.809-.6 2.624-1.702.789-1.079 1.486-2.543 2.665-3.673.777-.752 1.873-1.331 3.208-1.32 2.039-.011 3.368 1.282 4.246 2.535.902 1.274 1.598 2.635 2.414 3.389.547.502 1.045.761 1.835.771 1.145-.011 1.806-.6 2.622-1.702.788-1.079 1.485-2.543 2.662-3.673.778-.752 1.874-1.331 3.209-1.32 2.037-.011 3.368 1.282 4.245 2.535.903 1.274 1.599 2.635 2.414 3.389.549.502 1.047.761 1.838.771 1.145-.011 1.806-.6 2.62-1.702.79-1.079 1.487-2.543 2.664-3.673.779-.752 1.875-1.331 3.211-1.32 2.037-.011 3.368 1.282 4.243 2.535.902 1.274 1.6 2.635 2.414 3.389.549.502 1.045.761 1.835.771 1.147-.011 1.809-.6 2.624-1.702.789-1.079 1.488-2.543 2.665-3.673.777-.752 1.875-1.331 3.208-1.32 2.039-.011 3.37 1.282 4.246 2.535.902 1.274 1.6 2.635 2.414 3.389.549.502 1.045.761 1.835.771 1.145-.011 1.806-.6 2.62-1.702.79-1.079 1.487-2.543 2.664-3.673.778-.752 1.876-1.331 3.209-1.32 2.039-.011 3.368 1.282 4.245 2.535.903 1.274 1.599 2.637 2.414 3.389.549.502 1.045.761 1.834.771 1.146-.011 1.808-.6 2.624-1.702.79-1.079 1.487-2.543 2.664-3.673.779-.752 1.875-1.331 3.209-1.32 2.038-.011 3.369 1.282 4.247 2.535.9 1.274 1.598 2.635 2.412 3.389.549.502 1.045.761 1.835.771 1.147-.011 1.809-.6 2.622-1.702.791-1.079 1.488-2.543 2.664-3.673.78-.752 1.876-1.331 3.209-1.32 2.039-.011 3.37 1.282 4.245 2.535.903 1.274 1.601 2.635 2.415 3.389.549.502 1.045.761 1.835.771 1.146-.011 1.808-.6 2.622-1.702.79-1.079 1.487-2.543 2.666-3.673.778-.752 1.876-1.331 3.211-1.32 2.037-.011 3.368 1.282 4.245 2.535.903 1.274 1.599 2.635 2.415 3.389.547.502 1.045.761 1.835.771 1.146-.011 1.808-.6 2.622-1.702.79-1.079 1.487-2.543 2.664-3.673.78-.752 1.876-1.331 3.211-1.32 2.039-.011 3.368 1.282 4.247 2.535.901 1.274 1.599 2.635 2.415 3.389.546.502 1.045.761 1.833.771 1.148-.011 1.81-.6 2.624-1.702.793-1.079 1.487-2.543 2.666-3.673.78-.752 1.876-1.331 3.211-1.32 1.905-.009 3.652.731 4.835 2.155 1.185 1.42 1.799 3.427 1.799 5.89V257.379c0 2.463-.614 4.47-1.799 5.891-1.183 1.426-2.93 2.166-4.835 2.155-2.041.011-3.372-1.282-4.249-2.535-.903-1.275-1.601-2.637-2.417-3.389-.547-.503-1.045-.764-1.835-.773-1.146.01-1.808.602-2.622 1.703-.79 1.079-1.487 2.544-2.664 3.674-.772.747-1.855 1.32-3.173 1.32l-.031.001zm-4.25-6.161c.901 1.273 1.599 2.637 2.415 3.389.546.502 1.045.763 1.835.773 1.146-.011 1.808-.602 2.622-1.704.79-1.078 1.487-2.543 2.664-3.675.778-.753 1.876-1.329 3.209-1.318 2.039-.011 3.37 1.28 4.249 2.535.901 1.273 1.599 2.637 2.415 3.389.549.502 1.045.763 1.837.771 2.76-.065 4.538-1.746 4.634-6.045V166.353c-.096-4.298-1.874-5.979-4.634-6.045-1.148.011-1.81.602-2.626 1.702-.79 1.081-1.487 2.543-2.664 3.673-.78.755-1.876 1.331-3.211 1.321-2.039.01-3.368-1.283-4.248-2.535-.9-1.274-1.598-2.634-2.414-3.387-.547-.504-1.045-.763-1.833-.774-1.148.011-1.81.602-2.624 1.702-.79 1.081-1.487 2.543-2.664 3.673-.78.755-1.876 1.331-3.209 1.321-2.041.01-3.37-1.283-4.247-2.535-.903-1.274-1.599-2.634-2.414-3.387-.55-.504-1.045-.763-1.834-.774-1.148.011-1.812.602-2.626 1.702-.79 1.081-1.487 2.543-2.664 3.673-.78.752-1.876 1.331-3.209 1.321-2.039.01-3.368-1.283-4.247-2.535-.901-1.274-1.599-2.634-2.412-3.387-.549-.504-1.045-.763-1.836-.774-1.146.011-1.808.602-2.621 1.702-.791 1.081-1.488 2.543-2.665 3.673-.779.752-1.875 1.331-3.209 1.321-2.038.01-3.369-1.283-4.247-2.535-.903-1.274-1.598-2.634-2.412-3.387-.549-.504-1.045-.763-1.835-.774-1.147.011-1.809.602-2.624 1.702-.789 1.081-1.486 2.543-2.664 3.673-.778.755-1.874 1.331-3.209 1.321-2.039.01-3.368-1.283-4.246-2.535-.902-1.274-1.598-2.634-2.412-3.387-.549-.504-1.045-.763-1.835-.774-1.146.011-1.808.602-2.622 1.702-.79 1.081-1.487 2.543-2.664 3.673-.777.752-1.874 1.331-3.207 1.321-2.039.01-3.367-1.283-4.247-2.535-.901-1.274-1.599-2.634-2.412-3.387-.549-.504-1.045-.763-1.836-.774-1.146.011-1.808.602-2.623 1.702-.789 1.081-1.488 2.543-2.662 3.673-.78.752-1.878 1.331-3.212 1.321-2.038.01-3.369-1.283-4.247-2.535-.903-1.274-1.598-2.634-2.412-3.387-.549-.504-1.045-.763-1.833-.774-1.149.011-1.811.602-2.626 1.702-.789 1.081-1.486 2.543-2.662 3.673-.778.752-1.874 1.331-3.207 1.321-2.041.01-3.372-1.283-4.25-2.535-.902-1.274-1.598-2.634-2.414-3.387-.547-.504-1.045-.763-1.833-.774-1.146.011-1.808.6-2.622 1.702-.79 1.081-1.487 2.543-2.664 3.673-.777.752-1.874 1.331-3.207 1.321-2.039.01-3.37-1.283-4.247-2.535-.903-1.274-1.599-2.634-2.414-3.387-.549-.504-1.045-.763-1.834-.774-1.146.011-1.808.602-2.623 1.702-.791 1.081-1.488 2.543-2.665 3.673-.777.752-1.875 1.331-3.209 1.321-2.038.01-3.367-1.283-4.243-2.535-.902-1.274-1.6-2.634-2.414-3.387-.549-.504-1.045-.763-1.835-.774-1.146.011-1.808.602-2.622 1.702-.79 1.081-1.488 2.543-2.664 3.673-.778.752-1.874 1.331-3.207 1.321-2.041.01-3.37-1.283-4.247-2.535-.903-1.274-1.599-2.634-2.414-3.387-.549-.504-1.045-.763-1.834-.774-1.146.011-1.808.602-2.624 1.702-.788 1.081-1.485 2.543-2.662 3.673-.779.752-1.875 1.331-3.208 1.321-2.039.01-3.37-1.283-4.246-2.535-.904-1.274-1.6-2.634-2.414-3.387-.549-.504-1.045-.763-1.835-.774-1.146.011-1.806.6-2.622 1.702-.788 1.079-1.485 2.543-2.662 3.673-.78.752-1.876 1.331-3.209 1.321-2.039.01-3.37-1.283-4.247-2.535-.901-1.274-1.599-2.634-2.412-3.387-.549-.504-1.045-.763-1.834-.774-1.146.011-1.808.602-2.624 1.702-.788 1.081-1.485 2.543-2.662 3.673-.779.752-1.875 1.331-3.208 1.321-2.042.01-3.37-1.283-4.248-2.535-.902-1.274-1.598-2.634-2.412-3.387-.549-.504-1.045-.763-1.833-.774-1.146.011-1.808.602-2.624 1.702-.788 1.081-1.485 2.543-2.662 3.673-.78.752-1.876 1.331-3.209 1.321-2.039.01-3.37-1.283-4.245-2.535-.903-1.274-1.598-2.634-2.414-3.387-.547-.504-1.045-.763-1.833-.774-1.146.011-1.808.602-2.622 1.702-.791 1.081-1.488 2.543-2.665 3.673-.778.752-1.875 1.331-3.208 1.321-2.039.01-3.368-1.283-4.246-2.535-.903-1.274-1.598-2.634-2.414-3.387-.547-.504-1.043-.763-1.833-.774-1.145.011-1.806.6-2.622 1.702-.789 1.081-1.486 2.543-2.662 3.673-.78.752-1.876 1.331-3.209 1.321-2.039.01-3.368-1.283-4.246-2.535-.903-1.274-1.598-2.634-2.414-3.387-.547-.504-1.045-.763-1.833-.774-1.147.011-1.806.6-2.622 1.702-.789 1.079-1.486 2.543-2.662 3.673-.78.752-1.875 1.331-3.209 1.321-2.039.01-3.368-1.283-4.245-2.535-.903-1.274-1.598-2.634-2.412-3.387-.549-.504-1.045-.763-1.835-.774-1.146.011-1.806.6-2.622 1.702-.789 1.079-1.486 2.543-2.662 3.673-.778.752-1.874 1.331-3.209 1.321-2.039.01-3.368-1.283-4.246-2.535-.901-1.274-1.598-2.634-2.412-3.387-.549-.504-1.045-.763-1.833-.774-1.147.011-1.808.6-2.622 1.702-.791 1.081-1.488 2.543-2.664 3.673-.778.752-1.876 1.331-3.209 1.321-2.039.01-3.368-1.283-4.245-2.535-.903-1.274-1.598-2.634-2.415-3.387-.546-.504-1.044-.763-1.833-.774-1.147.011-1.808.602-2.622 1.702-.791 1.081-1.488 2.543-2.664 3.673-.78.752-1.876 1.331-3.209 1.321-2.039.01-3.368-1.283-4.245-2.535-.903-1.274-1.601-2.634-2.414-3.387-.547-.504-1.045-.763-1.833-.774-1.147.011-1.808.602-2.624 1.702-.789 1.081-1.486 2.543-2.662 3.673-.78.752-1.876 1.331-3.209 1.321-2.039.01-3.37-1.283-4.245-2.535-.903-1.274-1.601-2.634-2.414-3.387-.547-.504-1.045-.763-1.833-.774-.977.002-1.854.138-2.503.761-.655.617-1.31 1.96-1.31 4.864-.002 6.07-.002 36.62 0 36.622v18.624c-.002.036-.002 30.553 0 36.621 0 2.903.655 4.247 1.31 4.864.651.625 1.526.761 2.503.761 1.145-.009 1.806-.6 2.622-1.702.789-1.078 1.486-2.543 2.662-3.675.78-.753 1.876-1.329 3.209-1.32 2.039-.009 3.368 1.284 4.246 2.537.903 1.273 1.6 2.637 2.414 3.389.549.502 1.045.763 1.835.771 1.145-.009 1.806-.6 2.622-1.702.789-1.078 1.486-2.543 2.662-3.675.78-.753 1.876-1.329 3.209-1.32 2.039-.009 3.37 1.284 4.248 2.537.901 1.273 1.598 2.637 2.412 3.389.549.502 1.045.763 1.835.771 1.146-.009 1.806-.6 2.622-1.702.791-1.078 1.488-2.543 2.662-3.675.78-.753 1.876-1.329 3.209-1.32 2.039-.009 3.37 1.284 4.248 2.537.901 1.273 1.598 2.637 2.412 3.389.549.502 1.045.763 1.835.771 1.145-.009 1.806-.6 2.62-1.702.791-1.078 1.488-2.543 2.662-3.675.78-.753 1.875-1.329 3.209-1.318 2.039-.011 3.37 1.282 4.245 2.535.903 1.273 1.6 2.637 2.414 3.389.547.502 1.045.763 1.833.771 1.146-.009 1.806-.6 2.622-1.702.791-1.078 1.488-2.543 2.662-3.675.78-.753 1.876-1.329 3.209-1.318 2.039-.011 3.368 1.282 4.246 2.535.903 1.273 1.598 2.637 2.414 3.389.547.502 1.043.763 1.833.771 1.146-.009 1.806-.6 2.622-1.702.791-1.078 1.488-2.543 2.662-3.675.78-.753 1.876-1.329 3.209-1.32 2.039-.009 3.368 1.284 4.245 2.537.903 1.273 1.598 2.637 2.415 3.389.546.502 1.045.763 1.833.773 1.147-.011 1.806-.602 2.622-1.704.789-1.078 1.486-2.543 2.662-3.675.78-.753 1.875-1.329 3.209-1.32 2.039-.009 3.37 1.284 4.247 2.537.903 1.273 1.598 2.637 2.415 3.389.546.502 1.042.763 1.833.773 1.147-.011 1.806-.602 2.622-1.704.789-1.078 1.486-2.543 2.662-3.675.778-.753 1.874-1.329 3.208-1.32 2.039-.009 3.368 1.282 4.245 2.537.903 1.273 1.601 2.637 2.414 3.389.549.502 1.045.763 1.836.771 1.145-.009 1.806-.6 2.619-1.702.791-1.078 1.488-2.543 2.662-3.675.78-.753 1.876-1.329 3.212-1.32 2.038-.009 3.367 1.284 4.245 2.537.902 1.273 1.6 2.637 2.414 3.389.549.502 1.045.763 1.835.771 1.145-.009 1.807-.6 2.62-1.702.79-1.078 1.488-2.543 2.664-3.675.778-.753 1.874-1.329 3.209-1.32 2.039-.009 3.368 1.284 4.247 2.537.901 1.273 1.597 2.637 2.412 3.389.547.502 1.043.763 1.834.771 1.146-.009 1.808-.6 2.621-1.702.791-1.078 1.488-2.543 2.665-3.675.779-.753 1.875-1.329 3.209-1.318 2.038-.011 3.369 1.282 4.245 2.535.902 1.273 1.6 2.637 2.414 3.389.547.502 1.045.763 1.835.771 1.145-.009 1.806-.6 2.622-1.702.788-1.078 1.486-2.543 2.662-3.675.78-.753 1.876-1.329 3.211-1.32 2.039-.009 3.368 1.284 4.245 2.537.903 1.273 1.599 2.637 2.414 3.389.547.502 1.045.763 1.834.771 1.146-.009 1.808-.6 2.622-1.702.79-1.078 1.487-2.543 2.664-3.675.777-.753 1.873-1.329 3.206-1.32 2.042-.009 3.37 1.282 4.248 2.537.902 1.273 1.601 2.637 2.414 3.389.547.502 1.045.763 1.835.771 1.145-.009 1.807-.6 2.622-1.702.789-1.078 1.486-2.543 2.664-3.675.778-.753 1.874-1.329 3.209-1.32 2.039-.009 3.368 1.284 4.246 2.537.902 1.273 1.598 2.637 2.411 3.389.55.502 1.045.763 1.836.771 1.145-.009 1.806-.6 2.622-1.702.79-1.078 1.487-2.543 2.664-3.675.78-.753 1.876-1.329 3.211-1.32 2.037-.009 3.366 1.284 4.243 2.537.903 1.273 1.598 2.637 2.414 3.389.549.502 1.047.763 1.838.771 1.145-.009 1.806-.6 2.619-1.702.791-1.078 1.488-2.543 2.665-3.675.779-.753 1.875-1.329 3.208-1.32 2.042-.009 3.37 1.282 4.248 2.537.902 1.273 1.6 2.637 2.414 3.389.549.502 1.045.763 1.835.771 1.147-.009 1.809-.6 2.622-1.702.791-1.078 1.488-2.543 2.664-3.675.778-.753 1.876-1.329 3.209-1.32 2.039-.009 3.368 1.284 4.246 2.537.9 1.273 1.598 2.637 2.411 3.389.55.502 1.045.763 1.836.771 1.146-.009 1.808-.6 2.622-1.702.79-1.078 1.487-2.543 2.662-3.675.779-.753 1.875-1.329 3.209-1.318 2.038-.011 3.369 1.28 4.247 2.535.903 1.273 1.601 2.637 2.414 3.389.549.502 1.047.763 1.836.771 1.146-.009 1.808-.6 2.624-1.702.788-1.078 1.485-2.543 2.661-3.675.778-.753 1.876-1.329 3.209-1.32 2.039-.009 3.37 1.282 4.246 2.537.902 1.273 1.6 2.637 2.414 3.389.549.502 1.045.763 1.835.771 1.146-.009 1.809-.6 2.622-1.702.791-1.078 1.488-2.543 2.664-3.675.778-.753 1.876-1.329 3.209-1.32 2.039-.009 3.368 1.284 4.247 2.537.901 1.273 1.599 2.637 2.415 3.389.547.502 1.045.763 1.837.771 1.145-.009 1.806-.6 2.622-1.702.788-1.078 1.485-2.543 2.662-3.675.78-.753 1.876-1.329 3.211-1.318h.025c2.023-.001 3.344 1.285 4.22 2.535z"/>
    <path fill="#EFEFEF" d="M546.69 265.494v-1.999c1.432 0 2.894.025 4.351.023 5.176.011 10.245-.356 13.901-3.051 3.648-2.675 6.266-7.784 6.276-18.049 0-23.729 0-23.729.002-23.753v-13.602c-.002 0-.002 0 0-23.749-.013-10.265-2.63-15.379-6.278-18.052-3.654-2.696-8.726-3.062-13.903-3.053-1.457 0-2.917.027-4.349.027v-2.001c1.406 0 2.868-.026 4.349-.026 5.235.009 10.755.287 15.085 3.438 4.343 3.176 7.108 9.114 7.096 19.667v61.104c.013 10.549-2.753 16.487-7.096 19.661-4.33 3.151-9.85 3.43-15.083 3.439-1.48.002-2.94-.024-4.351-.024zm0 0v.003-.003z"/>
    <path fill="#EFEFEF" d="M167.837 268.635c-11.671-.002-18.306-.002-18.325 0h-.044l-.058-.007c-.11-.015-1.815-.195-3.561-1.603-1.754-1.402-3.42-4.078-3.404-8.598v-.817l.798-.163c4.804-.977 8.748-1.908 11.899-2.626-.285-.004-.57-.006-.858-.006-5.694 0-11.92.651-17.086 1.548-5.141.875-9.338 2.088-10.588 2.91l-1.071-1.69c1.884-1.16 6.02-2.254 11.316-3.19 5.272-.913 11.583-1.577 17.429-1.577 3.14 0 6.143.193 8.791.648l-.17 1.986c-2.311-.027-8.656 1.753-18.436 3.786.352 6.277 4.085 7.106 4.982 7.374.056.012.094.02.12.023h433.223c-2.12-1.28-4.125-3.092-5.876-5.188-3.436-4.152-5.895-9.487-5.907-14.529h2.001c-.013 4.374 2.235 9.399 5.445 13.252 3.162 3.835 7.258 6.444 10.618 6.465h.097v2.001c-12.087-.001-339.635-.001-421.335.001z"/>
    <path fill="#EFEFEF" d="M175.671 304.419c-6.471-.011-13.758.042-19.782-4.55-5.909-4.529-10.245-13.313-11.494-30.189h-14.694l-.272-.217c-.398-.355-8.527-7.158-8.538-47.03V201.3c.01-39.872 8.139-46.674 8.538-47.03l.272-.217h14.694c1.249-16.875 5.585-25.66 11.494-30.191 6.023-4.59 13.311-4.539 19.782-4.548h384.204c11.022 0 18.076 2.491 22.501 6.113 4.426 3.62 6.102 8.31 6.534 12.357.843 7.825 2.306 35.215 2.306 58.91l.002 30.344c-.002 23.695-1.465 51.086-2.308 58.91-.433 4.048-2.108 8.738-6.534 12.357-4.425 3.62-11.479 6.113-22.501 6.113-21.764-.001-371.231-.001-384.204.001zm-30.344-36.738h.935l.064.935c1.144 17.25 5.444 25.595 10.778 29.667 5.329 4.093 12.063 4.146 18.568 4.135h384.204c10.739 0 17.286-2.425 21.233-5.656 3.943-3.236 5.406-7.333 5.813-11.029.828-7.66 2.298-35.096 2.296-58.693v-30.344c.002-23.597-1.468-51.032-2.296-58.695-.406-3.694-1.869-7.79-5.813-11.024-3.947-3.234-10.494-5.659-21.233-5.659-21.764-.002-371.231-.002-384.204 0-6.504-.011-13.239.042-18.568 4.135-5.333 4.071-9.634 12.417-10.778 29.669l-.062.932h-15.798l-.013.015a8.865 8.865 0 0 0-.828 1.15c-.711 1.143-1.699 3.117-2.7 6.345-1.999 6.455-4.035 17.927-4.035 37.738v21.133c-.012 34.761 6.287 43.796 7.57 45.248 1.936-.002 10.262-.002 14.867-.002z"/>
    <path fill="#EFEFEF" d="M154.373 286.154c0-5.813 4.71-10.521 10.521-10.521 5.811 0 10.521 4.711 10.521 10.521 0 5.811-4.71 10.52-10.521 10.52-5.811 0-10.521-4.709-10.521-10.52zm1.998 0a8.533 8.533 0 0 0 8.522 8.521 8.53 8.53 0 0 0 8.521-8.521 8.53 8.53 0 0 0-8.521-8.522 8.535 8.535 0 0 0-8.522 8.522zM562.431 286.154c0-5.812 4.712-10.521 10.523-10.521 5.809 0 10.521 4.709 10.521 10.521 0 5.812-4.712 10.521-10.521 10.521-5.811 0-10.523-4.709-10.523-10.521zm1.999 0a8.533 8.533 0 0 0 8.524 8.521 8.533 8.533 0 0 0 8.521-8.521 8.533 8.533 0 0 0-8.521-8.521 8.534 8.534 0 0 0-8.524 8.521zM46.779 280.01l-.046-.09-.025-.092c-4.262-15.49-5.752-35.305-5.754-55.569.006-45.367 7.493-92.894 8.668-98.5.733-3.475 1.436-5.689 2.148-7.126.696-1.391 1.5-2.262 2.672-2.3.293 0 .565.069.8.168 8.359 1.756 11.882 4.431 13.67 9.617 1.81 5.116 2.335 12.468 5.945 24.533 7.108 23.809 26.533 31.17 31.974 32.81 2.739.823 6.162 1.592 9.147 2.515 2.981.964 5.554 1.901 6.768 3.789l.002.002-1.716 1.027c-.46-.902-2.769-2.059-5.647-2.908-2.875-.892-6.289-1.658-9.128-2.509-5.718-1.706-25.915-9.411-33.316-34.152-3.644-12.208-4.235-19.784-5.912-24.434-1.693-4.556-4.008-6.485-12.313-8.357l-.125-.027-.112-.056c-.036-.021-.036-.015-.036-.017l-.008.006a.66.66 0 0 0-.158.115c-.165.147-.427.487-.714 1.07-.583 1.163-1.273 3.265-1.981 6.647-1.137 5.385-8.63 52.964-8.626 98.087-.002 20.121 1.492 39.77 5.657 54.944.704 1.313 2.773 2.923 6.533 2.923 3.525.005 8.556-1.438 15.124-5.901 6.626-4.495 8.177-11.067 11.005-18.103 2.796-6.999 7.058-14.295 19.076-19.123 2.341-.796 6.757-.669 11.143-1.167 4.383-.445 8.391-1.612 9.514-3.935l1.771.929c-1.948 3.535-6.589 4.462-11.066 4.993-4.473.478-9.124.467-10.651 1.05-11.459 4.673-15.148 11.189-17.932 18.001-2.754 6.778-4.412 14.016-11.734 19.007-6.791 4.614-12.178 6.247-16.249 6.251-4.431 0-7.283-1.958-8.368-4.118z"/>
    <path fill="#EFEFEF" d="M20.89 268.243c-10.33-10.699-19.011-26.871-19.007-48.56 0-4.673.404-9.602 1.277-14.785 4.623-27.465 13.318-47.811 21.538-61.758 8.243-13.961 15.913-21.463 18.782-23.442 2.106-1.425 3.569-2.156 4.973-2.181 1.148-.031 2.11.685 2.608 1.552.531.867.848 1.915 1.2 3.133v.002l-1.923.548c-.333-1.183-.652-2.117-.977-2.629-.36-.515-.477-.577-.908-.606-.575-.025-1.873.462-3.843 1.833-2.433 1.647-10.108 9.074-18.188 22.805-8.102 13.747-16.705 33.857-21.29 61.077-.854 5.076-1.248 9.893-1.248 14.451.004 21.144 8.424 36.776 18.447 47.174 9.991 10.396 21.726 15.47 27.76 15.434.492 0 .94-.031 1.344-.092l.29 1.979c-.514.075-1.06.11-1.633.112-6.974-.039-18.84-5.35-29.202-16.047z"/>
</svg>
