<svg version="1.2" baseProfile="tiny" xmlns="http://www.w3.org/2000/svg" width="598.189" height="350.26" xml:space="preserve">
    <path fill="none" stroke="#EFEFEF" stroke-width="2" d="M176.299 162.097v99.888M186.064 161.097v100.888M193.876 163.097v98.051M203.642 161.097v101.724M209.78 161.097v101.306M219.545 162.097v99.469M227.358 162.097v99.888M237.124 161.097v101.306M243.542 161.097v101.306M253.307 162.097v99.051M261.12 162.097v99.888M270.885 162.097v99.888M277.86 161.097v100.888M287.625 162.097v99.888M295.438 162.097v99.469M305.204 161.097v101.306M311.342 161.097v101.724M321.106 163.097v98.051M328.919 162.097v99.888M338.687 162.097v99.888M346.103 162.097v100.144M354.868 163.097v97.633M362.681 161.097v101.306M372.445 162.097v99.469M380.259 162.097v99.888M390.023 161.097v101.306M397.837 163.097v97.213M406.603 162.097v101.144M413.74 162.097v100.306M423.506 162.097v99.888M431.318 162.097v99.469M441.084 161.097v101.306M447.502 161.097v101.306M457.268 162.097v99.469M465.079 161.679v99.887M474.845 162.097v99.888M481.821 161.261v100.724M491.585 161.261v100.305M499.119 161.54v99.888M508.885 161.54v100.724M516.14 162.097v99.888M525.905 161.097v101.306M532.88 162.097v99.888M542.646 162.097v99.888M572.013 176.815c0-9.416 9.416-20.716 17.16-20.716h-439.66s-6.069.627-6.069 9.207c10.254 2.093 16.741 3.977 19.462 3.977-12.138 2.092-32.854-1.465-36.831-3.977"/>
    <circle fill="none" stroke="#EFEFEF" stroke-width="2" cx="164.894" cy="137.579" r="9.521"/>
    <circle fill="none" stroke="#EFEFEF" stroke-width="2" cx="572.954" cy="137.579" r="9.522"/>
    <path fill="none" stroke="#EFEFEF" stroke-width="2" d="M167.719 221.179V257.8c0 6.068 2.72 6.627 4.813 6.627 4.247 0 4.247-6.697 8.494-6.697s4.247 6.697 8.494 6.697 4.247-6.697 8.494-6.697 4.247 6.697 8.494 6.697 4.247-6.697 8.494-6.697c4.248 0 4.248 6.697 8.494 6.697 4.246 0 4.246-6.697 8.492-6.697s4.246 6.697 8.492 6.697c4.247 0 4.247-6.697 8.493-6.697s4.246 6.697 8.492 6.697c4.247 0 4.247-6.697 8.493-6.697 4.247 0 4.247 6.697 8.493 6.697s4.246-6.697 8.493-6.697c4.248 0 4.248 6.697 8.495 6.697 4.246 0 4.246-6.697 8.492-6.697 4.248 0 4.248 6.697 8.495 6.697 4.245 0 4.245-6.697 8.493-6.697 4.247 0 4.247 6.697 8.495 6.697 4.245 0 4.245-6.697 8.493-6.697 4.247 0 4.247 6.697 8.492 6.697 4.248 0 4.248-6.697 8.496-6.697 4.246 0 4.246 6.697 8.493 6.697s4.247-6.697 8.495-6.697c4.247 0 4.247 6.697 8.494 6.697 4.248 0 4.248-6.697 8.493-6.697 4.248 0 4.248 6.697 8.495 6.697 4.248 0 4.248-6.697 8.495-6.697s4.247 6.697 8.493 6.697c4.247 0 4.247-6.697 8.497-6.697 4.245 0 4.245 6.697 8.495 6.697 4.245 0 4.245-6.697 8.494-6.697 4.248 0 4.248 6.697 8.496 6.697s4.248-6.697 8.495-6.697c4.245 0 4.245 6.697 8.493 6.697 4.247 0 4.247-6.697 8.493-6.697 4.249 0 4.249 6.697 8.497 6.697 4.247 0 4.247-6.697 8.494-6.697 4.248 0 4.248 6.697 8.495 6.697 4.248 0 4.248-6.697 8.495-6.697s4.247 6.697 8.498 6.697c4.247 0 4.247-6.697 8.495-6.697 4.249 0 4.249 6.697 8.497 6.697 4.249 0 4.249-6.697 8.496-6.697 4.25 0 4.25 6.697 8.5 6.697 3.334 0 5.636-2.441 5.636-7.046v-91.028c0-4.604-2.302-7.044-5.636-7.044-4.25 0-4.25 6.695-8.5 6.695-4.247 0-4.247-6.695-8.496-6.695-4.248 0-4.248 6.695-8.497 6.695-4.248 0-4.248-6.695-8.495-6.695-4.251 0-4.251 6.695-8.498 6.695s-4.247-6.695-8.495-6.695c-4.247 0-4.247 6.695-8.495 6.695-4.247 0-4.247-6.695-8.494-6.695-4.248 0-4.248 6.695-8.497 6.695-4.246 0-4.246-6.695-8.493-6.695-4.248 0-4.248 6.695-8.493 6.695-4.247 0-4.247-6.695-8.495-6.695s-4.248 6.695-8.496 6.695c-4.249 0-4.249-6.695-8.494-6.695-4.25 0-4.25 6.695-8.495 6.695-4.25 0-4.25-6.695-8.497-6.695-4.246 0-4.246 6.695-8.493 6.695s-4.247-6.695-8.495-6.695c-4.247 0-4.247 6.695-8.495 6.695-4.245 0-4.245-6.695-8.493-6.695-4.247 0-4.247 6.695-8.494 6.695-4.248 0-4.248-6.695-8.495-6.695s-4.247 6.695-8.493 6.695c-4.248 0-4.248-6.695-8.496-6.695-4.245 0-4.245 6.695-8.492 6.695-4.248 0-4.248-6.695-8.493-6.695-4.248 0-4.248 6.695-8.495 6.695-4.248 0-4.248-6.695-8.493-6.695-4.247 0-4.247 6.695-8.495 6.695-4.246 0-4.246-6.695-8.492-6.695-4.247 0-4.247 6.695-8.495 6.695-4.247 0-4.247-6.695-8.493-6.695s-4.246 6.695-8.493 6.695c-4.246 0-4.246-6.695-8.493-6.695-4.246 0-4.246 6.695-8.492 6.695s-4.246-6.695-8.493-6.695c-4.246 0-4.246 6.695-8.492 6.695-4.247 0-4.247-6.695-8.492-6.695-4.246 0-4.246 6.695-8.494 6.695-4.247 0-4.247-6.695-8.494-6.695s-4.247 6.695-8.494 6.695-4.247-6.695-8.494-6.695-4.247 6.695-8.494 6.695-4.247-6.695-8.494-6.695c-2.093 0-4.813.558-4.813 6.626v55.244z"/>
    <path fill="none" stroke="#EFEFEF" stroke-width="2" d="M546.69 264.496c11.512 0 25.53 1.675 25.53-22.077v-61.104c0-23.752-14.019-22.078-25.53-22.078"/>
    <path fill="none" stroke="#EFEFEF" stroke-width="2" d="M572.013 246.918c0 9.417 9.416 20.717 17.16 20.717h-439.66s-6.069-.628-6.069-9.206c10.254-2.094 16.741-3.978 19.462-3.978-12.138-2.092-32.854 1.466-36.831 3.978"/>
    <path fill="none" stroke="#EFEFEF" stroke-width="2" d="M121.891 222.435c0 39.76 8.161 46.247 8.161 46.247h15.276c2.302 34.737 17.369 34.737 30.343 34.737h384.204c21.764 0 27.204-9.835 28.041-17.578.837-7.742 2.302-35.155 2.302-58.803v-30.343c0-23.646-1.465-51.059-2.302-58.802-.837-7.743-6.277-17.578-28.041-17.578H175.671c-12.974 0-28.041 0-30.343 34.738h-15.276s-8.161 6.487-8.161 46.247v21.135z"/>
    <circle fill="none" stroke="#EFEFEF" stroke-width="2" cx="164.894" cy="286.154" r="9.521"/>
    <circle fill="none" stroke="#EFEFEF" stroke-width="2" cx="572.954" cy="286.154" r="9.522"/>
    <path fill="none" stroke="#EFEFEF" stroke-width="2" d="M121.891 190.279c-1.674-2.79-9.766-4.186-15.346-5.86-5.58-1.673-25.391-9.206-32.645-33.48-7.254-24.275-2.231-29.855-18.972-33.482-1.116-.559-2.652.557-4.326 8.509-1.673 7.952-16.601 103.933-2.929 153.598 1.674 3.348 9.208 6.976 23.158-2.512 13.951-9.486 6.417-27.622 29.854-37.109 3.906-1.395 18.137.279 21.206-5.58"/>
    <path fill="none" stroke="#EFEFEF" stroke-width="2" d="M51.3 122.478c-1.116-3.907-1.954-5.58-7.255-1.954-5.301 3.627-30.691 29.856-39.899 84.542-9.208 54.688 34.598 80.077 47.433 78.124"/>
</svg>
