<svg height="355.602" viewBox="0 0 3134.905 1884.688" width="591.492" xmlns="http://www.w3.org/2000/svg">
    <g fill="#f4f4f4" fill-opacity=".5">
        <path d="M1693.342 731.093q0 .32-.077.539-.115.325-.368.325-.168 0-.352-.077-.221-.094-.243-.23.075 0 .176.027.235.061.294.061.226 0 .341-.226.091-.182.091-.435 0-.179-.117-.51-.115-.333-.115-.463 0-.04.021-.064.024-.027.064-.027.104 0 .203.48.083.405.083.6zM1694.369 731.365q0 .272-.158.427-.157.154-.434.154-.152 0-.235-.072-.083-.072-.083-.221 0-.21.275-.424.261-.203.482-.203.102 0 .134.126.019.072.019.213zm-.163.075q0-.032-.01-.062-.01-.032-.02-.072-.044.03-.142.144-.051.06-.088.086 0-.051.01-.083l.036-.077q-.118 0-.246.098-.125.1-.125.214 0 .077.085.077.163 0 .315-.08.184-.096.184-.245zM1695.467 731.474q0 .131-.099.294-.112.184-.232.184-.035 0-.059-.038-.02-.04-.02-.077 0-.048.1-.15.105-.103.105-.14 0-.025-.01-.049t-.011-.032q-.2.046-.408.23-.206.184-.312.208-.021-.059-.021-.12 0-.075.035-.158.024-.058.08-.141.093-.141.197-.32l.184-.323q.133-.229.195-.325.032-.048.056-.072.035-.032.083-.043.032.011.045.04.016.03.016.07 0 .09-.118.245-.213.277-.218.288-.12.181-.12.328l.01.027q.146-.072.173-.083.11-.045.187-.045.085 0 .125.058.04.056.04.144zM1696.705 731.317q0 .181-.088.387-.096.226-.238.312-.029-.035-.05-.078-.02-.042-.02-.085 0-.045.134-.27.059-.098.053-.173v-.034q-.1.029-.342.178l-.485.299q-.037 0-.069-.027-.029-.029-.029-.064 0-.056.179-.376.053-.096.192-.333.043.056.056.125.013.067.013.16v.062q.245-.147.384-.222.152-.082.208-.082.037 0 .069.085.035.085.035.136zM1699.022 731.834q0 .048-.043.075-.04.024-.09.024-.046 0-.116-.01-.157-.025-.202-.025-.08 0-.315.019-.133.01-.192.01-.163 0-.163-.162 0-.155.102-.443.056-.162.21-.533.14-.333.176-.47.013-.042.021-.055.021-.032.053-.032.051 0 .085.074.035.072.035.131 0 .093-.109.315-.11.218-.213.43-.115.25-.115.38 0 .067.056.094.04.018.117.018.06 0 .203-.013.144-.016.192-.016.12 0 .197.035.11.048.11.154zM1700.014 731.365q0 .272-.157.427-.158.154-.435.154-.152 0-.235-.072-.083-.072-.083-.221 0-.21.275-.424.261-.203.483-.203.101 0 .133.126.02.072.02.213zm-.163.075q0-.032-.01-.062-.01-.032-.02-.072-.044.03-.142.144-.051.06-.088.086 0-.051.011-.083l.035-.077q-.117 0-.245.098-.126.1-.126.214 0 .077.085.077.163 0 .315-.08.184-.096.184-.245zM1701.137 731.309q0 .085-.045.181-.043.096-.11.16v-.037q0-.032.01-.099.01-.066.01-.098 0-.046-.013-.067-.013-.024-.056-.024-.125 0-.312.195l-.402.424q-.016 0-.032-.003l-.053-.014q.01-.096.067-.213.157-.317.162-.339l.032-.125q.011-.04.03-.083.02-.045.047-.08.03-.037.075-.056l.027.32.176-.144q.118-.093.203-.093.085 0 .139.056.053.056.053.139zM1702.446 731q0 .112-.299.296-.288.176-.418.176-.061 0-.083-.043-.02-.043-.02-.12v-.072q.18 0 .326-.053.147-.054.256-.176-.08-.03-.163-.03-.194 0-.413.15-.24.162-.24.346 0 .176.24.246.037.01.45.074.243.038.243.131 0 .04-.088.064-.088.027-.224.027-.341 0-.538-.104-.262-.139-.262-.446 0-.32.32-.509.272-.16.619-.16.104 0 .19.048.103.059.103.155zM1703.507 730.522q0 .059-.14.246-.142.186-.142.285 0 .05.059.101.133.118.133.144 0 .035-.024.067-.021.032-.056.032-.029 0-.083-.032-.037-.021-.144-.104l-.061.117q-.075.142-.101.206l-.08.245q-.07.165-.174.165v-.061q0-.19.123-.448.024-.048.133-.248-.21-.115-.464-.115 0-.098.04-.144.043-.048.142-.048.09 0 .226.032l.134.032q.05-.016.138-.173.216-.379.294-.435.02.035.035.07.016.034.016.066zM1704.491 731.474q0 .131-.099.294-.112.184-.232.184-.035 0-.059-.038-.02-.04-.02-.077 0-.048.1-.15.105-.103.105-.14 0-.025-.01-.049t-.011-.032q-.2.046-.408.23-.206.184-.312.208-.021-.059-.021-.12 0-.075.035-.158.024-.058.08-.141.093-.141.197-.32l.184-.323q.133-.229.195-.325.032-.048.056-.072.035-.032.083-.043.032.011.045.04.016.03.016.07 0 .09-.118.245-.213.277-.218.288-.12.181-.12.328l.01.027q.146-.072.173-.083.11-.045.187-.045.085 0 .125.058.04.056.04.144zM1706.68 730.605q0 .125-.133.336-.085.133-.28.384-.194.248-.242.325l.2.064q.194.059.194.214l-.157.024-.029-.003v-.022q-.043-.01-.069-.01-.05 0-.16.016t-.165.016q-.072 0-.118-.027-.045-.027-.045-.096 0-.056.206-.317.384-.488.386-.494.208-.282.208-.378 0-.038-.027-.056-.024-.02-.099-.02-.05 0-.21.1-.077.048-.126.048l-.045-.008q-.016-.011-.035-.04-.019-.032-.019-.051 0-.112.216-.205.184-.08.32-.08.115 0 .176.085.053.075.053.195zM1708.283 731.085q0 .323-.349.57-.32.227-.659.227-.168 0-.266-.085-.1-.085-.1-.248 0-.363.318-.63.301-.253.675-.253.189 0 .285.112.096.112.096.307zm-.162.061q0-.122-.139-.184-.104-.045-.248-.045-.21 0-.44.205-.23.206-.23.414 0 .085.044.122.045.035.136.035.261 0 .544-.144.333-.17.333-.403zM1709.505 730.605q0 .125-.134.336-.085.133-.28.384-.194.248-.242.325l.2.064q.194.059.194.214l-.157.024-.029-.003v-.022q-.043-.01-.069-.01-.05 0-.16.016t-.165.016q-.072 0-.118-.027-.045-.027-.045-.096 0-.056.206-.317.384-.488.386-.494.208-.282.208-.378 0-.038-.027-.056-.024-.02-.099-.02-.05 0-.21.1-.077.048-.126.048l-.045-.008q-.016-.011-.035-.04-.019-.032-.019-.051 0-.112.216-.205.184-.08.32-.08.115 0 .176.085.053.075.053.195zM1710.731 730.605q0 .125-.133.336-.085.133-.28.384-.195.248-.243.325l.2.064q.195.059.195.214l-.157.024-.03-.003v-.022q-.042-.01-.068-.01-.051 0-.16.016-.11.016-.166.016-.072 0-.117-.027-.045-.027-.045-.096 0-.056.205-.317.384-.488.387-.494.208-.282.208-.378 0-.038-.027-.056-.024-.02-.099-.02-.051 0-.21.1-.078.048-.126.048l-.045-.008q-.016-.011-.035-.04-.019-.032-.019-.051 0-.112.216-.205.184-.08.32-.08.115 0 .176.085.053.075.053.195z"/>
    </g>
    <g fill="none" stroke="#f4f4f4">
        <g transform="translate(-65.812 -239.236)">
            <g stroke-width="10.6">
                <path d="M1633.714 2122.924h1550.485a15.485 15.485 0 0 0 15.519-15.519V381.334a15.485 15.485 0 0 0-15.52-15.52h-132.667l.03-6v-72.678h-52.196M1632.816 2122.924H82.331a15.485 15.485 0 0 1-15.519-15.519V381.334a15.485 15.485 0 0 1 15.52-15.52h132.604l.032-8v-70.678h32.548"/>
                <path d="M1632.693 2019.472h1479.654a15.485 15.485 0 0 0 15.518-15.519V367.333m-1494.028 1652.14H154.183a15.485 15.485 0 0 1-15.519-15.52V367.333"/>
                <path d="M1633.265 860.258h1434.314a15.485 15.485 0 0 0 15.518-15.52V365.335M1633.265 860.258H198.95a15.485 15.485 0 0 1-15.519-15.52V365.335"/>
            </g>
            <path d="M247.516 287.136h.155m25.506 0h32.494m25.506 0h32.494m25.516 0h32.484m25.516 0h32.483m25.517 0h32.483m25.517 0h32.483m25.517 0h32.483m25.516 0h32.484m25.516 0h32.484m25.516 0h32.483m25.517 0h32.483m25.517 0h32.483m25.517 0h32.483m25.516 0h32.484m25.516 0h32.483m25.517 0h32.483m25.517 0h32.483m25.517 0h32.483m25.516 0h32.484m25.516 0h32.483m83.517 0h32.483m25.517 0h32.483m25.516 0h32.484m25.516 0h32.483m25.517 0h32.483m25.517 0h32.483m25.517 0h32.483m25.516 0h32.484m25.516 0h32.483m25.517 0h32.483m25.517 0h32.483m25.517 0h32.483m25.517 0h32.483m25.516 0h32.484m25.516 0h32.484m25.516 0h32.483m25.517 0h32.483m25.517 0h32.483m25.517 0h32.483m25.516 0h32.484m25.516 0h32.483m25.517 0h32.483m25.517 0h32.483m25.517 0h32.483m25.516 0h32.484m25.516 0h32.484m25.516 0h.186m-1564.827-.31h32.483" stroke-width="10.6"/>
            <g stroke-width="5.3">
                <path d="M1581.664 239.736h25.516v462.798h-25.516zM1523.664 239.736h25.516v462.798h-25.516zM1465.664 239.736h25.516v462.798h-25.516zM1407.664 239.736h25.516v462.798h-25.516zM1349.664 239.736h25.516v462.798h-25.516zM1291.664 239.736h25.516v462.798h-25.516zM1233.664 239.736h25.516v462.798h-25.516zM1175.664 239.736h25.516v462.798h-25.516zM1117.664 239.736h25.516v462.798h-25.516zM1059.664 239.736h25.516v462.798h-25.516zM1001.664 239.736h25.516v462.798h-25.516zM943.664 239.736h25.516v462.798h-25.516zM885.664 239.736h25.516v462.798h-25.516zM827.664 239.736h25.516v462.798h-25.516zM769.664 239.736h25.516v462.798h-25.516zM711.664 239.736h25.516v462.798h-25.516zM653.664 239.736h25.516v462.798h-25.516zM595.664 239.736h25.516v462.798h-25.516zM537.664 239.736h25.516v462.798h-25.516zM479.664 239.736h25.516v462.798h-25.516zM421.664 239.736h25.516v462.798h-25.516zM363.664 239.736h25.516v462.798h-25.516zM305.664 239.736h25.516v462.798h-25.516zM247.664 239.736h25.516v462.798h-25.516zM2973.664 239.736h25.516v462.798h-25.516zM2915.664 239.736h25.516v462.798h-25.516zM2857.664 239.736h25.516v462.798h-25.516zM2799.664 239.736h25.516v462.798h-25.516zM2741.664 239.736h25.516v462.798h-25.516zM2683.664 239.736h25.516v462.798h-25.516zM2625.664 239.736h25.516v462.798h-25.516zM2567.664 239.736h25.516v462.798h-25.516zM2509.664 239.736h25.516v462.798h-25.516zM2451.664 239.736h25.516v462.798h-25.516zM2393.664 239.736h25.516v462.798h-25.516zM2335.664 239.736h25.516v462.798h-25.516zM2277.664 239.736h25.516v462.798h-25.516zM2219.664 239.736h25.516v462.798h-25.516zM2161.664 239.736h25.516v462.798h-25.516zM2103.664 239.736h25.516v462.798h-25.516zM2045.664 239.736h25.516v462.798h-25.516zM1987.664 239.736h25.516v462.798h-25.516zM1929.664 239.736h25.516v462.798h-25.516zM1871.664 239.736h25.516v462.798h-25.516zM1813.664 239.736h25.516v462.798h-25.516zM1755.664 239.736h25.516v462.798h-25.516zM1697.664 239.736h25.516v462.798h-25.516zM1639.664 239.736h25.516v462.798h-25.516z"/>
            </g>
            <rect height="85.468" rx="8.26" stroke-width="5.3" width="1437.81" x="352.209" y="736.717"/>
        </g>
        <rect height="138" rx="8.26" stroke-width="10.6" width="1594" x="768.136" y="1572.641"/>
        <g stroke-width="10.6">
            <rect height="138" rx="8.26" width="138" x="1496.136" y="1388.641"/>
            <rect height="138" rx="8.26" width="138" x="1314.136" y="1388.641"/>
            <rect height="138" rx="8.26" width="138" x="1132.136" y="1388.641"/>
            <rect height="138" rx="8.26" width="138" x="950.136" y="1388.641"/>
            <rect height="138" rx="8.26" width="138" x="768.137" y="1388.641"/>
            <rect height="138" rx="8.26" width="138" x="586.137" y="1388.641"/>
            <rect height="138" rx="8.26" width="234" x="308.137" y="1388.641"/>
            <rect height="138" rx="8.26" width="138" x="126.137" y="1388.641"/>
            <rect height="138" rx="8.26" width="239.191" x="2406.136" y="1388.641"/>
            <rect height="138" rx="8.26" width="138" x="2224.136" y="1388.641"/>
            <rect height="138" rx="8.26" width="138" x="2042.136" y="1388.641"/>
            <rect height="138" rx="8.26" width="138" x="1860.136" y="1388.641"/>
            <rect height="138" rx="8.26" width="138" x="1678.136" y="1388.641"/>
        </g>
        <g stroke-width="10.6">
            <rect height="138" rx="8.26" width="138" x="1582.136" y="1206.641"/>
            <rect height="138" rx="8.26" width="138" x="1400.136" y="1206.641"/>
            <rect height="138" rx="8.26" width="138" x="1218.136" y="1206.641"/>
            <rect height="138" rx="8.26" width="138" x="1036.136" y="1206.641"/>
            <rect height="138" rx="8.26" width="138" x="854.137" y="1206.641"/>
            <rect height="138" rx="8.26" width="138" x="672.137" y="1206.641"/>
            <rect height="138" rx="8.26" width="138" x="490.137" y="1206.641"/>
            <rect height="138" rx="8.26" width="138" x="308.137" y="1206.641"/>
            <rect height="138" rx="8.26" width="305.63" x="2492.136" y="1206.641"/>
            <rect height="138" rx="8.26" width="138" x="2310.136" y="1206.641"/>
            <rect height="138" rx="8.26" width="138" x="2128.136" y="1206.641"/>
            <rect height="138" rx="8.26" width="138" x="1946.136" y="1206.641"/>
            <rect height="138" rx="8.26" width="138" x="1764.136" y="1206.641"/>
            <rect height="138" rx="8.26" width="138" x="126.137" y="1206.641"/>
        </g>
        <g stroke-width="10.6">
            <rect height="138" rx="8.26" width="138" x="1676.136" y="1024.641"/>
            <rect height="138" rx="8.26" width="138" x="1494.136" y="1024.641"/>
            <rect height="138" rx="8.26" width="138" x="1312.136" y="1024.641"/>
            <rect height="138" rx="8.26" width="138" x="1130.136" y="1024.641"/>
            <rect height="138" rx="8.26" width="138" x="948.137" y="1024.641"/>
            <rect height="138" rx="8.26" width="138" x="766.137" y="1024.641"/>
            <rect height="138" rx="8.26" width="138" x="584.137" y="1024.641"/>
            <rect height="138" rx="8.26" width="138" x="402.137" y="1024.641"/>
            <rect height="138" rx="8.26" width="138" x="2586.136" y="1024.641"/>
            <rect height="138" rx="8.26" width="138" x="2404.136" y="1024.641"/>
            <rect height="138" rx="8.26" width="138" x="2222.136" y="1024.641"/>
            <rect height="138" rx="8.26" width="138" x="2040.136" y="1024.641"/>
            <rect height="138" rx="8.26" width="138" x="1858.136" y="1024.641"/>
            <rect height="138" rx="8.26" width="232" x="126.137" y="1024.641"/>
            <rect height="138" rx="8.26" width="232" x="2768.136" y="1024.641"/>
        </g>
        <g stroke-width="10.6">
            <rect height="138" rx="8.26" width="138" x="1770.136" y="842.641"/>
            <rect height="138" rx="8.26" width="138" x="1588.136" y="842.641"/>
            <rect height="138" rx="8.26" width="138" x="1406.136" y="842.641"/>
            <rect height="138" rx="8.26" width="138" x="1224.136" y="842.641"/>
            <rect height="138" rx="8.26" width="138" x="1042.137" y="842.641"/>
            <rect height="138" rx="8.26" width="138" x="860.137" y="842.641"/>
            <rect height="138" rx="8.26" width="138" x="678.137" y="842.641"/>
            <rect height="138" rx="8.26" width="138" x="496.137" y="842.641"/>
            <rect height="138" rx="8.26" width="138" x="2680.136" y="842.641"/>
            <rect height="138" rx="8.26" width="138" x="2498.136" y="842.641"/>
            <rect height="138" rx="8.26" width="138" x="2316.136" y="842.641"/>
            <rect height="138" rx="8.26" width="138" x="2134.136" y="842.641"/>
            <rect height="138" rx="8.26" width="138" x="1952.136" y="842.641"/>
            <rect height="138" rx="8.26" width="138" x="2862.136" y="842.641"/>
            <rect height="138" rx="8.26" width="140.587" x="311.549" y="842.641"/>
            <rect height="138" rx="8.26" width="140.587" x="126.137" y="842.641"/>
        </g>
        <g stroke-width="5.3">
            <path d="M2872.658 1499.95v-27.41l27.41 27.41 18.818-18.816-1.91-1.955-18.528-18.92-38.95-39.694-38.949 39.694-18.499 18.89-1.858 2.067 18.735 18.735 28.985-28.986.274 28.986m0-.001v38.473h24.472v-38.473M2846.448 1656.61v27.41l-27.41-27.41-18.817 18.816 1.91 1.955 18.528 18.92 38.95 39.694 38.948-39.693 18.5-18.89 1.857-2.068-18.734-18.735-28.986 28.986-.273-28.986m0 .001v-38.473h-24.473v38.473M2780.224 1564.175h-27.41l27.41-27.41-18.817-18.817-1.955 1.91-18.92 18.528-39.694 38.95 39.694 38.948 18.89 18.499 2.067 1.858 18.735-18.735-28.986-28.985 28.986-.273m0 0h38.472v-24.473h-38.473M2938.883 1564.175h27.41l-27.41-27.41 18.817-18.817 1.954 1.91 18.92 18.528 39.694 38.95-39.693 38.948-18.89 18.499-2.068 1.858-18.734-18.735 28.985-28.985-28.985-.273m0 0h-38.472v-24.473h38.472"/>
        </g>
        <g stroke-width="5.3">
            <rect height="44.075" rx="5.289" width="306.786" x="1409.137" y="690.359"/>
            <rect height="44.075" rx="5.289" width="306.786" x="1047.137" y="690.359"/>
            <rect height="44.075" rx="5.289" width="306.786" x="685.137" y="690.359"/>
            <rect height="44.075" rx="5.289" width="306.786" x="323.137" y="690.359"/>
        </g>
        <g stroke-width="5.3">
            <path d="M2872.658 1499.95v-27.41l27.41 27.41 18.818-18.816-1.91-1.955-18.528-18.92-38.95-39.694-38.949 39.694-18.499 18.89-1.858 2.067 18.735 18.735 28.985-28.986.274 28.986m0-.001v38.473h24.472v-38.473M2846.448 1656.61v27.41l-27.41-27.41-18.817 18.816 1.91 1.955 18.528 18.92 38.95 39.694 38.948-39.693 18.5-18.89 1.857-2.068-18.734-18.735-28.986 28.986-.273-28.986m0 .001v-38.473h-24.473v38.473M2780.224 1564.175h-27.41l27.41-27.41-18.817-18.817-1.955 1.91-18.92 18.528-39.694 38.95 39.694 38.948 18.89 18.499 2.067 1.858 18.735-18.735-28.986-28.985 28.986-.273m0 0h38.472v-24.473h-38.473M2938.883 1564.175h27.41l-27.41-27.41 18.817-18.817 1.954 1.91 18.92 18.528 39.694 38.95-39.693 38.948-18.89 18.499-2.068 1.858-18.734-18.735 28.985-28.985-28.985-.273m0 0h-38.472v-24.473h38.472"/>
        </g>
        <g stroke-width="5.3">
            <rect height="44.075" rx="5.289" width="306.786" x="1409.137" y="690.359"/>
            <rect height="44.075" rx="5.289" width="306.786" x="1047.137" y="690.359"/>
            <rect height="44.075" rx="5.289" width="306.786" x="685.137" y="690.359"/>
            <rect height="44.075" rx="5.289" width="306.786" x="323.137" y="690.359"/>
        </g>
    </g>
</svg>
