<svg height="366.2" viewBox="0 0 127.618 256.34" width="182.311" xmlns="http://www.w3.org/2000/svg">
    <g fill="#f4f4f4" fill-opacity=".5" stroke-width=".7">
        <path d="M85.915 253.691q0 .168-.04.283-.06.17-.194.17-.088 0-.185-.04-.116-.049-.127-.12.04 0 .092.014.123.032.154.032.12 0 .18-.119.047-.095.047-.228 0-.094-.062-.267-.06-.175-.06-.244 0-.021.011-.034.013-.014.034-.014.055 0 .106.252.044.213.044.315zM86.454 253.834q0 .143-.083.224-.082.081-.228.081-.08 0-.123-.037-.044-.038-.044-.117 0-.11.145-.222.137-.107.253-.107.053 0 .07.066.01.038.01.112zm-.086.04q0-.017-.004-.033-.003-.017-.01-.038-.023.016-.075.076-.027.03-.046.045 0-.027.005-.044l.018-.04q-.061 0-.128.052-.066.051-.066.112 0 .04.045.04.085 0 .165-.042.096-.05.096-.129zM87.03 253.892q0 .068-.051.154-.059.096-.122.096-.018 0-.03-.02t-.012-.04q0-.025.053-.078.055-.055.055-.075 0-.012-.004-.025l-.006-.017q-.105.024-.214.12-.108.097-.164.11-.011-.03-.011-.063 0-.04.018-.083.013-.03.042-.074.05-.074.104-.168l.096-.17q.07-.12.102-.17.017-.025.03-.038.018-.017.043-.022.017.006.024.02.008.016.008.037 0 .048-.061.129l-.115.151q-.063.095-.063.172l.003.014.09-.043q.058-.024.099-.024.045 0 .066.03.02.03.02.077zM87.68 253.809q0 .095-.046.203-.05.119-.125.164-.015-.018-.026-.04-.01-.023-.01-.046t.07-.141q.03-.052.028-.091l-.001-.018q-.052.015-.18.094l-.254.156q-.02 0-.037-.014-.015-.015-.015-.033 0-.03.094-.198l.1-.175q.023.03.03.066.007.035.007.084v.032q.129-.077.201-.116.08-.043.11-.043.02 0 .036.045.018.044.018.07zM88.897 254.08q0 .026-.023.04-.02.012-.047.012-.024 0-.06-.006-.083-.012-.107-.012-.042 0-.165.01-.07.006-.1.006-.086 0-.086-.086 0-.08.053-.232.03-.085.11-.28.073-.175.093-.246.007-.023.011-.03.011-.017.028-.017.027 0 .045.04.018.037.018.068 0 .05-.057.165l-.112.226q-.06.131-.06.2 0 .035.03.049.02.01.06.01.031 0 .107-.007.076-.008.1-.008.064 0 .104.018.058.025.058.081zM89.418 253.834q0 .143-.083.224-.083.081-.228.081-.08 0-.123-.037-.044-.038-.044-.117 0-.11.144-.222.138-.107.254-.107.053 0 .07.066.01.038.01.112zm-.086.04q0-.017-.004-.033-.003-.017-.011-.038-.023.016-.074.076-.027.03-.047.045 0-.027.006-.044l.018-.04q-.061 0-.129.052-.065.051-.065.112 0 .04.044.04.086 0 .166-.042.096-.05.096-.129zM90.007 253.805q0 .045-.024.095-.022.05-.057.084l-.002-.02q0-.016.005-.051.004-.035.004-.052 0-.024-.007-.035-.007-.013-.03-.013-.065 0-.163.102l-.212.223-.017-.001-.028-.007q.005-.05.035-.112.083-.167.086-.178l.017-.066q.005-.02.015-.043.011-.024.025-.042.016-.02.04-.03l.013.169.093-.076q.061-.05.106-.05t.073.03q.028.03.028.073zM90.694 253.642q0 .06-.156.156-.152.092-.22.092-.032 0-.044-.022-.01-.023-.01-.063v-.038q.094 0 .171-.028.077-.028.135-.092-.042-.016-.086-.016-.102 0-.217.079-.126.085-.126.182 0 .092.126.128.02.006.237.04.127.02.127.068 0 .021-.046.034-.046.014-.117.014-.18 0-.283-.055-.137-.073-.137-.234 0-.168.168-.267.142-.084.324-.084.055 0 .1.025.054.03.054.081zM91.252 253.392q0 .03-.075.129-.074.098-.074.15 0 .026.031.053.07.061.07.075 0 .018-.013.035-.01.017-.029.017-.015 0-.043-.017-.02-.011-.076-.054l-.032.061q-.04.074-.053.108l-.042.129q-.037.087-.091.087l-.002-.033q0-.1.065-.235.012-.025.07-.13-.11-.06-.244-.06 0-.052.021-.076.022-.025.074-.025.048 0 .12.017l.07.017q.026-.008.072-.091.113-.2.154-.229.011.019.018.037.009.018.009.035zM91.768 253.892q0 .068-.052.154-.058.096-.121.096-.019 0-.031-.02-.011-.02-.011-.04 0-.025.053-.078.054-.055.054-.075 0-.012-.004-.025l-.005-.017q-.105.024-.215.12-.107.097-.163.11-.012-.03-.012-.063 0-.04.019-.083.012-.03.042-.074.049-.074.103-.168l.097-.17q.07-.12.102-.17.017-.025.03-.038.018-.017.043-.022.017.006.024.02.008.016.008.037 0 .048-.062.129-.112.146-.114.151-.063.095-.063.172l.002.014.091-.043q.058-.024.098-.024.045 0 .066.03.021.03.021.077zM92.918 253.435q0 .066-.07.177-.045.07-.147.201-.103.13-.128.17l.105.035q.102.03.102.112l-.082.012h-.016v-.012q-.022-.006-.036-.006-.027 0-.084.008-.057.008-.087.008-.038 0-.061-.014-.024-.014-.024-.05 0-.03.108-.167l.203-.26q.109-.147.109-.198 0-.02-.014-.03-.013-.01-.052-.01-.027 0-.11.053-.041.025-.066.025l-.024-.004q-.008-.006-.018-.021-.01-.017-.01-.027 0-.059.113-.108.097-.042.168-.042.06 0 .092.045.028.04.028.102zM93.76 253.687q0 .17-.184.3-.168.119-.346.119-.088 0-.14-.045-.052-.045-.052-.13 0-.19.167-.33.158-.134.354-.134.1 0 .15.06.05.058.05.16zm-.086.032q0-.064-.073-.096-.055-.024-.13-.024-.11 0-.231.108-.12.108-.12.217 0 .045.022.064.023.018.071.018.137 0 .286-.075.175-.09.175-.212zM94.4 253.435q0 .066-.07.177-.045.07-.147.201-.102.13-.127.17l.105.035q.102.03.102.112l-.083.012h-.015v-.012q-.022-.006-.036-.006-.027 0-.084.008-.058.008-.087.008-.038 0-.062-.014t-.024-.05q0-.03.108-.167.202-.256.203-.26.11-.147.11-.198 0-.02-.015-.03-.012-.01-.051-.01-.027 0-.11.053-.042.025-.067.025l-.024-.004q-.008-.006-.018-.021-.01-.017-.01-.027 0-.059.114-.108.096-.042.168-.042.06 0 .092.045.028.04.028.102zM95.044 253.435q0 .066-.07.177-.045.07-.147.201-.102.13-.127.17l.105.035q.102.03.102.112l-.083.012h-.015v-.012q-.022-.006-.036-.006-.027 0-.084.008-.058.008-.087.008-.038 0-.062-.014t-.024-.05q0-.03.108-.167.202-.256.203-.26.11-.147.11-.198 0-.02-.015-.03-.012-.01-.051-.01-.027 0-.11.053-.042.025-.067.025l-.024-.004q-.008-.006-.018-.021-.01-.017-.01-.027 0-.059.114-.108.096-.042.168-.042.06 0 .092.045.028.04.028.102z"/>
    </g>
    <g fill="none" stroke="#f4f4f4">
        <g transform="translate(-7.981 -8.99)">
            <rect height="254.34" opacity=".98" rx="3.304" stroke-width="1.4" width="125.618" x="8.981" y="9.99"/>
            <path d="M121.755 256.152V113.817c.275-9.069-3.227-10.287-9.05-10.594H71.634m-50.122 152.93V113.816c-.274-9.069 3.228-10.287 9.05-10.594h41.072" opacity=".98" stroke-width="1.4"/>
            <path d="M121.755 259.732H21.512m100.243-3.58v7.961m-100.243-7.96v8.19" opacity=".98" stroke-width=".7"/>
            <circle cx="71.96" cy="55.935" opacity=".98" r="28.5" stroke-width="1.4"/>
            <path d="M71.96 42.591c-6.987 0-13.345 6.357-13.345 13.344 0 6.986 6.358 13.344 13.344 13.344 6.987 0 13.344-6.358 13.344-13.344 0-6.987-6.357-13.344-13.344-13.344z" opacity=".98" stroke-width=".7"/>
        </g>
        <g stroke-width="1.4">
            <path d="M66.171 225.74h15.2v18.8h-15.2zM46.571 225.74h15.2v18.8h-15.2zM26.971 225.74h15.2v18.8h-15.2zM85.771 225.74h15.2v18.8h-15.2zM66.171 201.74h15.2v18.8h-15.2zM46.571 201.74h15.2v18.8h-15.2zM26.971 201.74h15.2v18.8h-15.2zM85.771 201.74h15.2v18.8h-15.2zM66.171 177.74h15.2v18.8h-15.2zM46.571 177.74h15.2v18.8h-15.2zM26.971 177.74h15.2v18.8h-15.2zM85.771 177.74h15.2v18.8h-15.2zM66.171 153.74h15.2v18.8h-15.2zM46.571 153.74h15.2v18.8h-15.2zM26.971 153.74h15.2v18.8h-15.2zM85.771 153.74h15.2v18.8h-15.2zM66.171 129.74h15.2v18.8h-15.2zM46.571 129.74h15.2v18.8h-15.2zM26.971 129.74h15.2v18.8h-15.2zM85.771 129.74h15.2v18.8h-15.2zM66.171 105.74h15.2v18.8h-15.2zM46.571 105.74h15.2v18.8h-15.2zM26.971 105.74h15.2v18.8h-15.2zM85.771 105.74h15.2v18.8h-15.2z" opacity=".98"/>
        </g>
    </g>
</svg>
