<svg xmlns="http://www.w3.org/2000/svg" version="1.2" width="598.189" height="350.26" xml:space="preserve">
    <path d="M299.71 100.097c-49.126 0-88.963 39.837-88.963 88.959 0 49.126 39.836 88.963 88.962 88.963 49.125 0 88.963-39.836 88.963-88.963 0-49.125-39.836-88.963-88.963-88.963v.004zm0 1.845c48.128 0 87.118 38.989 87.118 87.118s-38.99 87.119-87.118 87.119c-48.133 0-87.122-38.984-87.122-87.12 0-48.126 38.988-87.115 87.117-87.115l.004-.002z" style="fill:#f4f4f4"/>
    <path d="M299.71 151.53c-20.715 0-37.534 16.817-37.534 37.534 0 20.715 16.818 37.533 37.534 37.533 20.716 0 37.534-16.817 37.534-37.533s-16.818-37.534-37.535-37.534zm0 1.845c19.718 0 35.689 15.97 35.689 35.689 0 19.718-15.97 35.688-35.69 35.688-19.718 0-35.689-15.97-35.689-35.688 0-19.718 15.971-35.689 35.69-35.689zM299.71 129.934l4.526 17.182h-9.052l4.525-17.182zM257.88 147.231l15.365 8.965-6.37 6.4-8.994-15.365zM257.765 184.537v9.053l-17.21-4.526 17.21-4.527zM266.875 215.528l6.37 6.398-15.365 8.966 8.994-15.364zM295.183 231.002h9.052l-4.526 17.182-4.526-17.182zM332.572 215.528l8.937 15.335-15.336-8.937 6.4-6.398zM341.658 184.537l17.239 4.526-17.24 4.526v-9.052zM341.509 147.26l-8.937 15.337-6.4-6.4 15.337-8.937z" style="fill:#f4f4f4"/>
    <path d="M547.962 34.457c-18.162 0-32.892 14.731-32.892 32.892 0 18.162 14.731 32.922 32.892 32.922 18.163 0 32.893-14.76 32.893-32.922-.009-18.161-14.742-32.892-32.896-32.892h.003zm0 1.845c17.165 0 31.048 13.884 31.048 31.047 0 17.165-13.883 31.077-31.048 31.077-17.164 0-31.047-13.912-31.047-31.077 0-17.164 13.883-31.047 31.052-31.047h-.005z" style="fill:#f4f4f4" transform="translate(-11.048 121.692)"/>
    <path d="M547.962 44.979c-12.345 0-22.369 10.026-22.369 22.371 0 12.345 10.024 22.398 22.369 22.398 12.346 0 22.37-10.054 22.37-22.398s-10.024-22.371-22.37-22.371zm0 1.844c11.349 0 20.525 9.178 20.525 20.526 0 11.348-9.177 20.554-20.525 20.554-11.348 0-20.524-9.206-20.524-20.554 0-11.348 9.176-20.526 20.524-20.526z" style="fill:#f4f4f4" transform="translate(-11.048 121.692)"/>
    <path d="M547.962 34.457c-18.162 0-32.892 14.731-32.892 32.892 0 18.162 14.731 32.922 32.892 32.922 18.163 0 32.893-14.76 32.893-32.922-.009-18.161-14.742-32.892-32.896-32.892h.003zm0 1.845c17.165 0 31.048 13.884 31.048 31.047 0 17.165-13.883 31.077-31.048 31.077-17.164 0-31.047-13.912-31.047-31.077 0-17.164 13.883-31.047 31.052-31.047h-.005z" style="fill:#f4f4f4" transform="translate(-484.83 122.182)"/>
    <path d="M547.962 44.979c-12.345 0-22.369 10.026-22.369 22.371 0 12.345 10.024 22.398 22.369 22.398 12.346 0 22.37-10.054 22.37-22.398s-10.024-22.371-22.37-22.371zm0 1.844c11.349 0 20.525 9.178 20.525 20.526 0 11.348-9.177 20.554-20.525 20.554-11.348 0-20.524-9.206-20.524-20.554 0-11.348 9.176-20.526 20.524-20.526z" style="fill:#f4f4f4" transform="translate(-484.83 122.182)"/>
</svg>
