<svg xmlns="http://www.w3.org/2000/svg" viewBox="0 0 960 960" style="enable-background:new 0 0 960 960" xml:space="preserve">
    <path d="M641.7 355.8c2.2 3.6 3.8 7.6 4.5 11.9.5 3.1.7 6.2.3 9.5L635 478.8c-1.8 15.5-16.4 26-31.7 22.8l-152.7-32.5c-13.6-2.9-21.7-17-17.3-30.3l27-80.5 2.8-8.5c.6-1.7 1.2-3.3 2-4.9 1.3-2.6 2.8-5.1 4.5-7.3 3.9-5 8.9-9 14.5-11.7l-45.7-8.5c-23.4-4.4-46.8 7.4-57.3 28.7l-33.8 69c-13.8-2.8-42.4-7.4-62.7-1.7-32.1 9.1-38.8 28.8-44.8 46.1-4.7 13.7-8.8 25.6-25.2 32.8-8.5 3.7-25.9 4-39.8 4.2-12.4.2-23.1.4-29.7 2.5-23.3 7.7-40.8 26.2-46.8 49.5-2.7 10.5-2.5 19.8.6 27.7 8 20.4 30.6 28.2 38.1 30.7.4.2.8.3 1.1.4l.4.1 59.3 14.3 3.3-13.6-58.3-14.1-.9-.3c-5.9-2-24-8.1-29.5-22.5-2-5.1-2-11.6-.1-19.2 4.8-18.6 18.8-33.5 37.6-39.6 4.5-1.5 15.2-1.7 25.5-1.8 16-.3 34.2-.5 45.3-5.4 22-9.7 27.7-26.4 32.8-41.1 5.5-16.1 10.3-30 35.3-37.1 14.9-4.2 36.4-1.7 50.1.8 1.5-1.9 3.2-3.7 5.1-5.3 2.8-2.3 6.1-4.4 9.7-6 6-2.7 13-4.2 20.4-4.2 22.6 0 41 14.1 41 31.5v14.6c0 .3-.1.7-.1 1 0 .2-.1.4-.1.6 0 .3-.1.6-.2.9 0 .2-.1.4-.1.6 0 .1 0 .2-.1.3 0 .2-.1.4-.1.6 0 .2-.1.4-.2.6l-.3.9c-.1.2-.1.4-.2.6-.1.3-.2.6-.4 1-.1.2-.1.3-.2.5-.2.5-.4.9-.6 1.4-.2.5-.5 1-.8 1.5-.1.2-.2.3-.3.5-.2.3-.4.7-.6 1-.1.2-.2.4-.4.6-.2.3-.4.6-.6.8-.1.2-.3.4-.4.6-.2.3-.4.5-.6.8l-.1.1-.3.3c-.3.4-.6.8-1 1.1-.2.2-.3.3-.4.5-.3.4-.7.7-1 1.1l-.4.4c-.5.5-1 .9-1.5 1.3-.1.1-.2.2-.3.2-.4.4-.9.7-1.3 1.1-.2.1-.4.3-.5.4l-1.2.9c-.2.1-.4.2-.5.3-.6.4-1.2.8-1.8 1.1-.6.4-1.3.7-1.9 1l-.6.3c-.5.2-1 .5-1.4.7-.2.1-.4.2-.7.3-.5.2-1.1.5-1.7.7-.1 0-.3.1-.4.2-.7.3-1.4.5-2.1.7-.2.1-.4.1-.6.2-.5.2-1.1.3-1.7.5-.2.1-.5.1-.7.2-.6.1-1.1.3-1.7.4-.2 0-.4.1-.6.1-.8.1-1.5.3-2.3.4-.2 0-.3 0-.5.1-.6.1-1.3.2-2 .2-.3 0-.5.1-.8.1-.6 0-1.2.1-1.8.1h-.7c-.8 0-1.7.1-2.5.1-22.6 0-41-14.1-41-31.5V445l-6.7 13.7c-17.4 35.4 3.3 77.7 41.9 85.7l232.9 48.3c32.1 6.6 62.8-16.2 65.7-48.8l11.7-132.5c2.5-25.5-13.2-48.3-36.6-55.6zm-213.2 96.6.4-1.1c.5 12.1 9 23 21.7 25.6L604 508.4c12.6 2.6 24.7-3.9 30-14.9l-.1 1.4c-1.7 15.8-16.5 26.6-32.1 23.4l-153.4-31.2c-15.8-3.2-25.1-19.5-19.9-34.7zm227.8 88.2c-1.2 5.2-3.1 10.3-6 15l-1.1 1.8-1.2 1.7c-.4.6-.8 1.1-1.3 1.7-.4.5-.9 1.1-1.4 1.6-1.9 2.1-3.9 4-6.2 5.7-2.3 1.7-4.6 3.2-7.1 4.5-2.5 1.3-5.1 2.4-7.8 3.2-10.7 3.4-22.1 3.5-32.9 1.5-1.4-.2-2.6-.5-3.9-.8l-3.8-.8-7.6-1.6c-5.1-1.1-10.1-2.2-15.2-3.3-20.2-4.4-40.4-9-60.5-13.9-10-2.5-20.1-5-30.1-7.6-5-1.3-10-2.6-15-4l-15-4.2c5.2.6 10.3 1.3 15.4 2.1 5.1.7 10.3 1.5 15.4 2.3 10.3 1.5 20.5 3.3 30.7 5 20.4 3.5 40.8 7.3 61.1 11.3 5.1 1 10.2 2 15.2 3l15.1 3.1c9.5 1.9 19.4 2 28.6-.3 4.6-1.2 9-3 13-5.5 2-1.3 3.9-2.7 5.7-4.3 1.7-1.6 3.5-3.3 5-5.3 6.2-7.6 9.9-17.3 12.2-27.4.4 5-.1 10.3-1.3 15.5z" style="fill:none;stroke:#f4f4f4;stroke-width:3;stroke-miterlimit:4;stroke-dasharray:none;stroke-opacity:1" transform="matrix(1.60486 0 0 1.53262 -143.919 -115.254)"/>
    <path d="M521.455 572.584c0 .153 0 .306-.16.613 0 .306-.161.46-.161.766 0-.46.16-.92.32-1.38zM519.208 579.174c-.16.306-.32.766-.481 1.073.16-.307.32-.613.481-1.073zM816.909 489.822c0 .154-.16.154-.321.307-.16.153-.32.46-.481.613.32-.46.481-.766.802-.92zM824.773 478.328c0 .153-.16.306-.321.46 0 .153-.16.153-.16.306.32-.306.32-.613.48-.766z"/>
    <path d="m574.5 333.2-1.4 8.1c.9.5 1.7 1.1 2.6 1.7 5.5 3.9 9.7 9 12 14.7 1.3 3.2 2 6.6 2 10.1v.8c-.6 16.8-17.8 30.2-38.8 30.1-21.4-.1-40.7-15.3-40.6-32.5 0-3.2.7-6.2 1.9-9.1 1.7-4 4.5-7.7 8.1-10.9 2.5-2.2 5.3-4.1 8.5-5.7.8-.4 1.6-.9 2.5-1.2v-4.6l.1-8.6.5-50.2c-22.3-12.1-37.4-36-37.3-63.5.2-39.5 31.7-71.4 70.4-71.2 38.7.2 70 32.3 69.8 71.8-.2 32.6-21.6 59.9-50.8 68.5z" style="fill:none;stroke:#f4f4f4;stroke-width:2.9000001;stroke-miterlimit:4;stroke-dasharray:none;stroke-opacity:1" transform="matrix(1.60486 0 0 1.53262 -143.919 -115.254)"/>
    <path d="m607.2 374.3-2.6 39.9c0 .7-.1 1.3-.2 2 0 .2 0 .4-.1.6-.1.5-.1 1-.3 1.5 0 .2-.1.4-.1.6-.1.6-.3 1.2-.4 1.8v.2c-.2.6-.4 1.3-.6 1.9-.1.2-.1.4-.2.6-.2.5-.3.9-.5 1.3-.1.2-.2.5-.3.7l-.6 1.2-.3.6c0 .1-.1.2-.1.3-.1.3-.3.5-.4.7-.2.3-.3.6-.5.9-.2.3-.4.7-.6 1l-.6.9c-.2.3-.4.6-.7 1l-.6.9c-.2.3-.5.6-.7.9-.2.3-.5.6-.7.9 0 .1-.1.1-.2.2s-.2.3-.3.4c-.5.5-1 1.1-1.5 1.6l-.6.6c-.6.6-1.2 1.2-1.9 1.8l-.2.2c-.7.6-1.5 1.3-2.3 1.8-.2.2-.4.3-.7.5-.6.5-1.2.9-1.8 1.3-.2.2-.5.3-.7.5-.8.6-1.7 1.1-2.6 1.6-.1 0-.1.1-.2.1-.8.5-1.7.9-2.5 1.4-.3.1-.5.3-.8.4-.7.4-1.4.7-2.2 1-.3.1-.5.2-.8.3l-3 1.2c-.2.1-.4.1-.5.2-.8.3-1.7.6-2.6.9l-.9.3c-.8.3-1.7.5-2.5.7-.2.1-.5.1-.7.2-1.1.3-2.2.5-3.3.7-.3.1-.5.1-.8.2-.9.2-1.8.3-2.6.5-.3 0-.7.1-1 .1-1 .1-2 .3-3 .4h-.5c-1.2.1-2.3.2-3.5.2h-4.7c-1.2 0-2.4-.1-3.7-.1-32.1-2.1-56.9-23.2-55.4-47.3l2.6-39.9c0 .7-.1 1.3-.1 2v.3c0 2.2.2 4.4.7 6.6.3 1.4.7 2.9 1.2 4.3 1.9 5.6 5.3 10.8 9.7 15.4 10 10.4 25.8 17.6 43.9 18.7 1.2.1 2.4.1 3.7.1h4.7c1.2-.1 2.3-.1 3.5-.2.2 0 .3 0 .5-.1l3-.3c.3 0 .7-.1 1-.2.9-.1 1.8-.3 2.6-.4.3-.1.5-.1.8-.1 1.1-.2 2.2-.5 3.3-.7.2-.1.5-.1.7-.2.9-.2 1.7-.5 2.5-.7l.9-.3c.9-.3 1.7-.6 2.5-.9.2-.1.4-.1.5-.2l3-1.2c.3-.1.5-.2.8-.3.7-.3 1.5-.7 2.2-1 .3-.1.5-.3.8-.4.9-.4 1.7-.9 2.5-1.4.1 0 .1-.1.2-.1.9-.5 1.7-1 2.6-1.6.2-.2.5-.3.7-.5.6-.4 1.2-.9 1.8-1.3.2-.2.5-.3.7-.5.8-.6 1.5-1.2 2.3-1.8l.2-.2c.7-.6 1.3-1.2 1.9-1.8l.6-.6c.5-.5 1-1.1 1.5-1.6.1-.1.2-.2.3-.4 0-.1.1-.1.2-.2.2-.3.5-.6.7-.9.2-.3.5-.6.7-.9l.6-.9c.2-.3.5-.6.7-.9l.6-.9c.2-.3.4-.7.6-1 .2-.3.4-.6.5-.9.1-.2.2-.4.3-.5 0-.1.1-.1.1-.2.1-.1.1-.2.2-.3l.3-.6.6-1.2c.1-.2.2-.5.3-.7.2-.4.3-.9.5-1.3l.2-.6c.2-.6.4-1.3.6-1.9v-.2c.1-.6.3-1.2.4-1.8 0-.2.1-.4.1-.6l.3-1.5c0-.2.1-.4.1-.6.1-.9.2-1.6.2-2.2z" style="fill:none;stroke:#f4f4f4;stroke-width:3;stroke-miterlimit:4;stroke-dasharray:none;stroke-opacity:1" transform="matrix(1.60486 0 0 1.53262 -143.919 -115.254)"/>
    <path d="M333.1 444.4v-.7.7z" style="fill:#831308" transform="matrix(1.60486 0 0 1.53262 -143.919 -115.254)"/>
    <path d="M415.1 443.7v14.6c0 .3-.1.7-.1 1 0 .2-.1.4-.1.6 0 .3-.1.6-.2.9 0 .2-.1.4-.1.6 0 .1 0 .2-.1.3 0 .2-.1.4-.1.6 0 .2-.1.4-.2.6l-.3.9c-.1.2-.1.4-.2.6-.1.3-.2.6-.4 1-.1.2-.1.3-.2.5-.2.5-.4.9-.6 1.4-.2.5-.5 1-.8 1.5-.1.2-.2.3-.3.5-.2.3-.4.7-.6 1-.1.2-.2.4-.4.6-.2.3-.4.6-.6.8-.1.2-.3.4-.4.6-.2.3-.4.5-.6.8l-.1.1-.3.3c-.3.4-.6.8-1 1.1-.2.2-.3.3-.4.5-.3.4-.7.7-1 1.1l-.4.4c-.5.5-1 .9-1.5 1.3-.1.1-.2.2-.3.2-.4.4-.9.7-1.3 1.1-.2.1-.4.3-.5.4l-1.2.9c-.2.1-.4.2-.5.3-.6.4-1.2.8-1.8 1.1-.6.4-1.3.7-1.9 1l-.6.3c-.5.2-1 .5-1.4.7-.2.1-.4.2-.7.3-.5.2-1.1.5-1.7.7-.1 0-.3.1-.4.2-.7.3-1.4.5-2.1.7-.2.1-.4.1-.6.2-.5.2-1.1.3-1.7.5-.2.1-.5.1-.7.2-.6.1-1.1.3-1.7.4-.2 0-.4.1-.6.1-.8.1-1.5.3-2.3.4-.2 0-.3 0-.5.1-.6.1-1.3.2-2 .2-.3 0-.5.1-.8.1-.6 0-1.2.1-1.8.1h-.7c-.8 0-1.7.1-2.5.1-22.6 0-41-14.1-41-31.5v-11.8c.5 17.1 18.6 30.8 41 30.8.8 0 1.7 0 2.5-.1h.7c.6 0 1.2-.1 1.8-.1.3 0 .5 0 .8-.1.7-.1 1.3-.2 2-.3.2 0 .3 0 .5-.1.8-.1 1.5-.3 2.3-.4.2 0 .4-.1.6-.1.6-.1 1.1-.3 1.7-.4.2-.1.5-.1.7-.2.6-.1 1.1-.3 1.7-.5.2-.1.4-.1.6-.2.7-.2 1.4-.5 2.1-.7.1 0 .3-.1.4-.2.6-.2 1.1-.4 1.7-.7.2-.1.4-.2.7-.3.5-.2 1-.4 1.4-.7l.6-.3c.7-.3 1.3-.7 1.9-1 .6-.4 1.2-.7 1.8-1.1l.5-.4 1.2-.9.5-.4c.5-.3.9-.7 1.3-1 .1-.1.2-.2.3-.2.5-.4 1-.9 1.5-1.3l.4-.4c.4-.3.7-.7 1-1 .2-.2.3-.3.4-.5.3-.4.7-.7 1-1.1.1-.1.2-.3.3-.4.2-.3.4-.5.6-.8.1-.2.3-.4.4-.6.2-.3.4-.6.6-.8.1-.2.3-.4.4-.5.2-.3.4-.7.6-1 .1-.2.2-.3.3-.4.3-.5.5-1 .8-1.5.1-.2.2-.5.3-.7.1-.2.2-.5.3-.7.1-.1.1-.3.2-.5.1-.3.3-.6.4-1 .1-.2.1-.4.2-.6l.3-.9c.1-.2.1-.4.2-.6 0-.2.1-.3.1-.5 0-.1 0-.2.1-.4 0-.2.1-.4.1-.6 0-.3.1-.6.2-.9 0-.2.1-.4.1-.5 0-.3.1-.7.1-1v-.5c.1-.9.1-1.4.1-1.9zM374.6 438.1c1.7.4 3.4.3 5-.4s2.7-1.7 3.2-3.2c.6-1.4.5-2.7-.3-3.9-.7-1.2-1.9-2.1-3.6-2.5-2.7-.6-4.1-1-6.8-1.6l-4.7 9.9c2.9.7 4.3 1 7.2 1.7z" style="fill:none;stroke:#f4f4f4;stroke-width:3;stroke-miterlimit:4;stroke-dasharray:none;stroke-opacity:1" transform="matrix(1.60486 0 0 1.53262 -143.919 -115.254)"/>
    <path d="M412.9 453.8c.1-.2.2-.5.3-.7-.1.3-.2.5-.3.7z" style="fill:#bf1617" transform="matrix(1.60486 0 0 1.53262 -143.919 -115.254)"/>
    <path d="M380.2 454.6c1.6-.7 2.7-1.7 3.2-3 .5-1.4.4-2.7-.5-4-.8-1.3-2.1-2.1-3.8-2.5-5.7-1.4-8.5-2.1-14.2-3.4-1.8 3.9-2.7 5.8-4.6 9.6 5.9 1.5 8.8 2.2 14.7 3.6 1.9.5 3.6.4 5.2-.3z" style="fill:none;stroke:#f4f4f4;stroke-width:3;stroke-miterlimit:4;stroke-dasharray:none;stroke-opacity:1" transform="matrix(1.60486 0 0 1.53262 -143.919 -115.254)"/>
    <path style="fill:none;stroke:#f4f4f4;stroke-width:4.70496082;stroke-miterlimit:4;stroke-dasharray:none;stroke-opacity:1" d="M456.94 516.95c-11.876 0-23.11 2.299-32.74 6.437-5.777 2.452-11.073 5.517-15.567 9.195-3.049 2.453-5.777 5.211-8.184 8.123-5.778 7.204-9.148 15.633-9.148 24.522v1.073c.802 26.208 29.85 47.205 65.8 47.205 1.283 0 2.727 0 4.011-.154h1.124c.963 0 1.926-.153 2.888-.153.482 0 .803 0 1.284-.153 1.124-.154 2.087-.307 3.21-.46.321 0 .481 0 .802-.153 1.284-.154 2.408-.46 3.692-.613.32 0 .642-.154.963-.154.962-.153 1.765-.46 2.728-.613.32-.153.802-.153 1.123-.306.963-.153 1.766-.46 2.728-.766.321-.154.642-.154.963-.307 1.124-.307 2.247-.766 3.37-1.073.161 0 .482-.153.643-.306a20.107 20.107 0 0 0 2.728-1.073c.32-.153.642-.307 1.123-.46.803-.306 1.605-.613 2.247-1.073l.963-.46c1.123-.46 2.086-1.072 3.05-1.532.962-.613 1.925-1.073 2.888-1.686l.802-.613 1.926-1.38.803-.613c.802-.46 1.444-1.072 2.086-1.532.16-.153.32-.307.481-.307.803-.613 1.605-1.379 2.408-1.992l.642-.613c.641-.46 1.123-1.073 1.604-1.533.321-.306.482-.46.642-.766.482-.613 1.124-1.073 1.605-1.686.16-.153.321-.46.482-.613.32-.46.642-.766.963-1.226.16-.307.481-.613.642-.92.32-.46.641-.92.962-1.226.16-.306.482-.613.642-.766.321-.46.642-1.073.963-1.533.16-.306.321-.46.482-.613.481-.766.802-1.532 1.284-2.299.16-.306.32-.766.481-1.072.16-.307.321-.767.482-1.073.16-.154.16-.46.32-.767.161-.46.482-.92.642-1.532.16-.307.16-.613.321-.92l.482-1.38c.16-.306.16-.612.32-.919.161-.46.161-.92.322-1.379 0-.307.16-.613.16-.92 0-.46.16-.92.321-1.379 0-.306.16-.613.16-.766 0-.46.161-1.073.161-1.533v-3.066c-.481-26.667-29.85-48.123-66.28-48.123zm25.998 62.837c-.802 2.299-2.086 4.138-4.012 5.824-1.926 1.686-4.012 3.065-6.58 3.985-2.567.92-5.296 1.532-8.184 1.686-3.05.153-6.099 0-8.988-.767-9.629-2.299-14.443-3.371-24.073-5.67-3.21-.767-5.456-2.146-6.9-4.292-1.445-2.145-1.445-4.291-.321-6.437 8.024-15.02 12.036-22.682 20.06-37.702 1.284-2.299 3.21-3.985 5.938-5.058 2.729-1.073 5.457-1.379 8.185-.766 4.173 1.073 6.42 1.533 10.592 2.452 2.728.613 4.975 1.533 6.901 2.912 1.926 1.38 3.53 2.912 4.654 4.751 1.123 1.84 1.926 3.832 2.086 6.13.16 2.3 0 4.445-.963 6.591-1.283 3.218-3.53 5.824-6.58 7.97 3.531 1.992 6.26 4.75 7.864 8.122 1.445 3.219 1.605 6.744.321 10.269z"/>
</svg>
