<svg version="1.2" baseProfile="tiny" xmlns="http://www.w3.org/2000/svg" width="598.189" height="350.26" xml:space="preserve">
    <path fill="#F4F4F4" d="m214.511 219.38.833-1.75c19.309 19.472 44.469 31.342 73.396 33.873l-.174 1.992c-29.413-2.574-55.822-15.646-75.446-35.439l1.391 1.324zM310.822 251.413c40.524-3.889 74.924-27.606 93.354-61.783h.002l1.972.506c-18.737 34.746-53.925 59.312-95.136 63.27l-.192-1.993zM415.845 158.213c1.931-8.52 2.771-16.479 2.771-25.584 0-.912.085-.842.063-1.75h.003l1.901-1.023c.021.92.031 1.846.031 2.772a121.633 121.633 0 0 1-2.998 26.931l-1.771-1.346zM299.283 13.296c-47.264 0-88.025 27.066-107.355 66.915v.002l-1.879-.467c19.651-40.516 61.181-68.45 109.234-68.45 57.373.002 105.446 39.819 118.086 93.337l-2.358-.837c-12.431-52.627-59.302-90.503-115.728-90.5zM180.491 157.456l1.937.09c1.335 6.422 2.511 10.918 4.833 16.917l-1.168 1.961a120.38 120.38 0 0 1-5.602-18.968z"/>
    <path fill="#F4F4F4" d="M241.282 126.963V27.296h2v99.667c0 15.468 6.267 29.46 16.402 39.598 10.138 10.135 24.132 16.4 39.598 16.4 15.466 0 29.46-6.267 39.598-16.4 10.136-10.138 16.402-24.132 16.402-39.598V26.797h2.001c-.002.013-.002 4.811 0 12.392-.002 7.581-.002 17.929 0 29.002-.002 22.146-.002 47.187 0 58.771-.002 32.034-25.97 58-58.001 58-32.034 0-58-25.964-58-57.999z"/>
    <path fill="#F4F4F4" d="M267.533 140.504a5 5 0 0 1-5.001-5.001V78.838a5 5 0 0 1 5.001-5.001h63.499a5.001 5.001 0 0 1 5.001 5.001v56.665h-.002a4.998 4.998 0 0 1-4.999 5.001h-63.499zm-3-61.666v56.665a3.003 3.003 0 0 0 3 3h63.499a3.006 3.006 0 0 0 3.001-3h-.002l.002-56.665a3.008 3.008 0 0 0-3.001-3.002h-63.499a3.005 3.005 0 0 0-3 3.002z"/>
    <path fill="#F4F4F4" d="M264.973 144.439c-2.33-.82-3.748-1.38-4.555-2.029a8.984 8.984 0 0 1-2.636-6.363V77.754c0-2.483 1.01-4.739 2.694-6.417.75-.595 2.167-1.157 4.498-1.977 2.298-.787 5.359-1.694 8.913-2.554 7.109-1.721 16.175-3.26 24.959-3.26 11.596.004 25.542 2.857 32.835 4.884 2.455.692 4.07 1.225 4.903 1.71a9.003 9.003 0 0 1 4.198 7.613v58.292a9.012 9.012 0 0 1-4.215 7.622c-.816.477-2.433 1.008-4.888 1.702-2.432.676-5.603 1.442-9.179 2.165-7.155 1.444-15.927 2.717-23.658 2.719-13.172-.003-26.985-3.457-33.869-5.814zm.649-73.186c-2.192.731-3.75 1.475-3.789 1.551a6.98 6.98 0 0 0-2.051 4.95v58.292a6.952 6.952 0 0 0 1.994 4.895c.097.13 1.655.876 3.847 1.607 2.227.763 5.237 1.655 8.735 2.502 6.993 1.692 15.937 3.205 24.488 3.205 11.276.004 25.169-2.824 32.3-4.812 2.354-.645 4.056-1.267 4.369-1.476a6.994 6.994 0 0 0 3.268-5.921V77.754a6.988 6.988 0 0 0-3.25-5.913c-.331-.219-2.033-.841-4.387-1.485-2.377-.661-5.507-1.417-9.038-2.132-7.063-1.428-15.745-2.68-23.261-2.678h-.035c-12.817 0-26.511 3.412-33.19 5.707zM394.843 119.004c.002-7.387 5.989-13.375 13.377-13.375 7.387 0 13.373 5.988 13.375 13.375-.002 7.386-5.988 13.374-13.375 13.375-7.388-.001-13.375-5.988-13.377-13.375zm2.002 0c.012 6.282 5.094 11.362 11.375 11.375 6.281-.012 11.361-5.092 11.374-11.375-.013-6.282-5.093-11.364-11.374-11.374-6.283.012-11.366 5.094-11.375 11.374zM394.843 173.255c.002-7.388 5.989-13.375 13.377-13.375 7.387 0 13.373 5.987 13.375 13.375-.002 7.385-5.988 13.373-13.375 13.375-7.388-.002-13.375-5.99-13.377-13.375zm2.002 0c.012 6.279 5.094 11.363 11.375 11.373 6.279-.01 11.361-5.094 11.374-11.373-.013-6.282-5.093-11.364-11.374-11.375-6.283.011-11.366 5.094-11.375 11.375zM366.343 145.505c.002-7.389 5.99-13.375 13.377-13.377 7.387.002 13.373 5.99 13.375 13.377-.002 7.385-5.988 13.373-13.375 13.375-7.389-.002-13.375-5.989-13.377-13.375zm2.002 0c.012 6.281 5.094 11.362 11.375 11.373 6.279-.01 11.362-5.092 11.373-11.373-.011-6.283-5.092-11.365-11.373-11.375-6.283.011-11.366 5.093-11.375 11.375zM421.343 145.504c0-7.388 5.99-13.374 13.376-13.376 7.388.002 13.374 5.988 13.376 13.376-.002 7.386-5.988 13.374-13.376 13.376-7.388-.002-13.376-5.989-13.376-13.376zm2.001 0c.011 6.281 5.095 11.363 11.375 11.375 6.281-.013 11.363-5.094 11.373-11.375-.01-6.283-5.092-11.365-11.373-11.375-6.282.011-11.365 5.092-11.375 11.375z"/>
    <g fill="#F4F4F4">
        <path d="M192.721 338.768c-2.901-.075-5.144-2.524-6.707-4.33-13.808-16.521-25.661-42.856-30.04-61.243-3.166-13.334-16.86-66.77-16.86-132.398 0-18.782 3.224-34.483 6.684-45.828 3.439-11.247 7.036-18.132 8.122-19.737a5.852 5.852 0 0 1 2.818-2.55c.727-.348 2.667-1.014 5.65-1.958 3.015-.95 6.999-2.136 11.411-3.34 8.83-2.411 19.353-4.901 27.293-5.748h.002l.209 1.989c-11.597 1.229-29.36 6.18-38.314 9.006-2.96.93-5.058 1.679-5.383 1.854l-.04.019-.025.011c-.806.34-1.473.95-1.886 1.716l-.027.05-.034.048c-.797 1.123-4.489 8.062-7.882 19.223-3.411 11.186-6.596 26.693-6.596 45.245 0 65.371 13.638 118.603 16.806 131.935 4.271 18.033 16.104 44.277 29.626 60.423 1.408 1.741 3.613 3.69 5.173 3.614.657-.012 1.278-.23 2.035-1.049.743-.818 1.54-2.27 2.236-4.551 3.147-10.256 8.152-32.625 14.01-49.861 5.886-17.318 21.102-43.045 23.045-47.11l1.802.866c-2.056 4.268-17.175 29.872-22.955 46.889-5.809 17.098-10.802 39.396-13.991 49.805-.753 2.451-1.63 4.154-2.664 5.305-1.013 1.139-2.262 1.707-3.479 1.707-.012-.002-.026-.002-.039-.002zM402.321 337.061c-1.036-1.149-1.911-2.854-2.664-5.306-3.186-10.408-8.178-32.707-13.989-49.805-5.777-17.016-20.897-42.619-22.955-46.888l1.803-.866c1.942 4.064 17.158 29.792 23.046 47.11 5.856 17.237 10.864 39.604 14.01 49.864.695 2.279 1.49 3.729 2.233 4.547.755.818 1.378 1.039 2.036 1.05 1.563.075 3.768-1.873 5.174-3.614 13.525-16.146 25.354-42.39 29.627-60.423 3.168-13.332 16.807-66.565 16.807-131.935.002-18.552-3.186-34.059-6.596-45.245-3.394-11.161-7.084-18.1-7.883-19.223l-.035-.05-.025-.048c-.411-.766-1.08-1.376-1.948-1.746-.327-.176-2.424-.925-5.386-1.854a312.487 312.487 0 0 0-11.337-3.319c-8.77-2.396-19.252-4.867-26.979-5.687l.212-1.989c11.901 1.271 29.655 6.239 38.706 9.088 3.039.963 4.999 1.636 5.626 1.949a5.843 5.843 0 0 1 2.841 2.561c1.087 1.606 4.686 8.491 8.121 19.736 3.459 11.345 6.685 27.046 6.685 45.828 0 65.628-13.695 119.064-16.86 132.398-4.377 18.387-16.23 44.723-30.04 61.243-1.563 1.806-3.806 4.255-6.707 4.33h-.04c-1.222.001-2.47-.567-3.483-1.706z"/>
    </g>
    <path fill="#F4F4F4" d="M299.281 279.962c-34.572 0-66.163 5.211-90.265 13.783v.002l-.67-1.887c24.378-8.668 56.161-13.896 90.935-13.896 34.808 0 66.621 5.24 91.01 13.924l-.672 1.883c-24.114-8.587-55.732-13.809-90.338-13.809zM315.614 252.208h.003l1.646-1.131c3.55 5.176 5.942 11.854 6.665 19.272l-1.99.192c-.689-7.105-2.988-13.475-6.324-18.333zM274.632 270.37c.72-7.416 3.109-14.095 6.654-19.272l1.65 1.128c-3.331 4.861-5.626 11.23-6.313 18.337v.002l-1.991-.195zM299.197 266.394c-7.576-.014-13.408-.84-14.466-1.129a2.7 2.7 0 0 1-1.886-2.523v-.056c0-.299.05-.592.133-.828.258-.807 2.616-6.659 6.147-12.854 2.296-4.012 5.376-8.459 7.044-10.66.591-.762.877-1.159 1.2-1.432a2.692 2.692 0 0 1 1.692-.695.705.705 0 0 1 .14-.004h.003a2.691 2.691 0 0 1 1.773.699c.428.416 1.655 1.939 3.31 4.154 1.624 2.189 3.557 4.953 5.075 7.545 1.514 2.587 2.983 5.553 4.104 7.996 1.058 2.327 1.771 4.029 1.997 4.82.16.345.253.73.251 1.136v.999h-.188a2.688 2.688 0 0 1-2.291 1.691c-.635.049-6.979 1.141-14.021 1.141h-.017zm-14.352-3.696c0 .311.206.569.464.65.522.167 6.553 1.057 13.888 1.044 6.915-.002 12.973-1.054 13.876-1.134l.083.998-.075-.998a.692.692 0 0 0 .637-.687.67.67 0 0 0-.077-.324l-.063-.123-.029-.137c-.021-.177-.807-2.193-1.896-4.551-1.101-2.396-2.55-5.322-4.013-7.818-1.459-2.492-3.357-5.215-4.955-7.363-1.57-2.125-2.955-3.795-3.051-3.875a.694.694 0 0 0-.416-.172h-.044c-.171.002-.324.063-.5.211v.002l-.007.008-.041.044a6.213 6.213 0 0 0-.202.233c-.168.203-.395.49-.662.842a91.23 91.23 0 0 0-2.009 2.783c-1.549 2.229-3.407 5.064-4.892 7.662-3.434 5.994-5.829 11.961-5.983 12.482a.62.62 0 0 0-.034.164l.001.059zM200.838 222.261c-4.125 0-8.065-.817-11.659-2.301l-.499-.207-.102-.529-.076-.391.002-14.795h-14.813l-.879-.057-.24-.574a30.515 30.515 0 0 1-2.319-11.701c0-4.123.817-8.058 2.298-11.647l.126-.31.288-.17.345-.205h15.194v-15.19l.188-.261.331-.457.263-.11c3.614-1.506 7.406-2.263 11.551-2.261 4.123 0 8.06.817 11.65 2.298l.443.182.137.459.104.346v14.993h15.262l.296.312.308.321.072.174a29.224 29.224 0 0 1 2.311 11.527c0 4.109-.813 8.035-2.286 11.621l-.085.209-.174.154-.387.348-15.318-.002V219.1l-.145.238-.294.488-.302.125c-3.611 1.508-7.423 2.309-11.577 2.309l-.014.001zm0-2c3.719 0 7.094-.672 10.333-1.955v-14.639c-.013-.437.149-.981.569-1.306.412-.313.803-.317 1.03-.323h14.727a28.517 28.517 0 0 0 1.924-10.332c-.002-3.748-.679-7.072-1.984-10.334h-14.619v-1.556 1.556c-.405.014-.97-.142-1.301-.582-.318-.429-.339-.84-.345-1.17v-14.599a28.51 28.51 0 0 0-10.333-1.925c-3.733 0-7.093.641-10.335 1.924v14.585c-.006.333-.021.735-.333 1.173-.329.449-.904.61-1.307.594h-14.685a28.535 28.535 0 0 0-1.924 10.336c0 3.646.681 7.127 1.925 10.332h14.698c.491-.022 1.082.219 1.357.655.273.418.263.776.269.956v14.684a28.479 28.479 0 0 0 10.334 1.926zm11.98-40.74v-.146.146z"/>
    <path fill="#F4F4F4" d="M192.461 191.677a8.378 8.378 0 0 1 8.376-8.375 8.379 8.379 0 0 1 8.376 8.375 8.379 8.379 0 0 1-8.376 8.377 8.38 8.38 0 0 1-8.376-8.377zm2.002 0a6.382 6.382 0 0 0 6.375 6.375 6.382 6.382 0 0 0 6.375-6.375 6.38 6.38 0 0 0-6.375-6.373 6.38 6.38 0 0 0-6.375 6.373zM143.47 117.691c0-20.332 16.481-36.813 36.813-36.813s36.812 16.481 36.812 36.813-16.48 36.813-36.812 36.813c-20.332-.001-36.813-16.482-36.813-36.813zm12.196-24.614c-6.302 6.302-10.196 15-10.196 24.615 0 9.616 3.894 18.313 10.196 24.618 6.303 6.3 15 10.194 24.616 10.194s18.313-3.894 24.615-10.194c6.303-6.305 10.197-15.001 10.197-24.618 0-9.616-3.894-18.313-10.197-24.615-6.303-6.303-15-10.197-24.615-10.197-9.616-.001-18.313 3.893-24.616 10.197z"/>
    <path fill="#F4F4F4" d="M154.595 117.691c0-14.188 11.5-25.686 25.688-25.688 14.186.002 25.686 11.5 25.686 25.688 0 14.187-11.5 25.687-25.686 25.688-14.188-.001-25.688-11.501-25.688-25.688zm1.999 0c.022 13.082 10.605 23.664 23.689 23.687 13.082-.022 23.662-10.604 23.687-23.687-.025-13.082-10.605-23.664-23.687-23.687-13.084.024-23.666 10.606-23.689 23.687z"/>
</svg>
