<svg height="350.01" viewBox="0 0 376.444 175.005" width="752.888" xmlns="http://www.w3.org/2000/svg">
    <g fill="#f4f4f4" fill-opacity=".5" stroke-width=".5">
        <path d="M307.085 115.508q0 .16-.039.269-.057.163-.184.163-.084 0-.176-.039-.11-.047-.121-.115.037 0 .088.014.117.03.146.03.114 0 .171-.113.045-.09.045-.217 0-.09-.058-.255-.058-.167-.058-.232 0-.02.011-.032.012-.013.032-.013.052 0 .101.24.042.202.042.3zM307.598 115.644q0 .136-.079.213-.078.077-.217.077-.076 0-.117-.036-.042-.036-.042-.11 0-.106.138-.212.13-.102.241-.102.05 0 .067.063.009.036.009.107zm-.081.037q0-.016-.004-.03-.003-.017-.011-.037-.021.015-.07.072-.026.03-.045.043 0-.025.005-.041l.018-.04q-.06 0-.123.05t-.063.107q0 .039.043.039.081 0 .157-.04.092-.048.092-.123zM308.147 115.698q0 .066-.049.147-.056.092-.116.092-.017 0-.03-.019-.01-.02-.01-.038 0-.024.05-.075.053-.052.053-.07 0-.013-.004-.025l-.005-.016q-.1.023-.204.115-.103.092-.156.104-.01-.03-.01-.06 0-.037.016-.079.012-.03.04-.07.047-.071.1-.16l.091-.162q.067-.115.097-.163.016-.024.028-.036.018-.016.042-.02.016.004.022.02.008.014.008.034 0 .045-.058.123-.107.138-.11.144-.06.09-.06.164l.003.013q.074-.036.087-.041.055-.023.093-.023.043 0 .063.03.02.027.02.071zM308.766 115.62q0 .09-.044.193-.048.113-.119.156-.014-.017-.025-.039-.009-.021-.009-.042 0-.023.067-.135.03-.05.026-.087v-.017q-.05.015-.171.09l-.243.149q-.019 0-.035-.014-.014-.014-.014-.032 0-.028.089-.188l.096-.166q.021.028.028.062.007.034.007.08v.031q.123-.073.192-.11.076-.042.104-.042.019 0 .035.043.017.042.017.068zM309.925 115.878q0 .024-.022.038-.02.012-.045.012-.023 0-.057-.005-.079-.012-.102-.012-.04 0-.157.009-.067.005-.096.005-.081 0-.081-.082 0-.077.05-.221.029-.081.106-.267.07-.166.088-.234l.01-.028q.011-.016.027-.016.026 0 .043.037.017.036.017.065 0 .047-.054.158l-.107.214q-.057.126-.057.19 0 .034.028.048.02.009.058.009.03 0 .102-.007.072-.008.096-.008.06 0 .098.017.055.024.055.077zM310.42 115.644q0 .136-.078.213-.079.077-.217.077-.076 0-.118-.036-.041-.036-.041-.11 0-.106.137-.212.131-.102.242-.102.05 0 .066.063.01.036.01.107zm-.08.037q0-.016-.005-.03-.003-.017-.01-.037-.022.015-.071.072-.025.03-.044.043 0-.025.005-.041l.017-.04q-.058 0-.122.05-.063.05-.063.107 0 .039.043.039.081 0 .157-.04.092-.048.092-.123zM310.982 115.616q0 .042-.023.09-.02.048-.054.08l-.001-.018q0-.016.004-.05.004-.033.004-.049 0-.023-.007-.033-.007-.012-.028-.012-.063 0-.156.097l-.202.212h-.016l-.026-.008q.004-.048.033-.107.079-.158.081-.169l.016-.063q.005-.02.015-.041.01-.023.024-.04.015-.019.037-.028l.014.16.088-.072q.058-.047.1-.047.044 0 .07.028.027.028.027.07zM311.637 115.461q0 .056-.15.148-.144.088-.209.088-.03 0-.041-.021-.01-.022-.01-.06v-.036q.09 0 .163-.027.074-.027.128-.088-.04-.015-.08-.015-.098 0-.208.075-.12.081-.12.173 0 .088.12.123.02.005.226.037.121.019.121.066 0 .02-.044.032-.044.013-.112.013-.17 0-.27-.052-.13-.07-.13-.223 0-.16.16-.254.136-.08.31-.08.051 0 .094.024.052.029.052.077zM312.167 115.222q0 .03-.07.123-.071.093-.071.143 0 .025.03.05.066.059.066.072 0 .018-.012.034-.01.016-.028.016-.015 0-.041-.016-.019-.011-.072-.052l-.031.058q-.037.071-.05.103l-.04.123q-.035.082-.087.082l-.001-.03q0-.095.06-.224l.068-.124q-.106-.058-.232-.058 0-.049.02-.072.02-.024.07-.024.046 0 .114.016l.066.016q.026-.008.07-.086.108-.19.146-.218.011.018.018.035.008.017.008.033zM312.66 115.698q0 .066-.05.147-.056.092-.116.092-.017 0-.03-.019-.01-.02-.01-.038 0-.024.05-.075.053-.052.053-.07 0-.013-.004-.025l-.005-.016q-.1.023-.204.115-.103.092-.156.104-.01-.03-.01-.06 0-.037.016-.079.012-.03.04-.07.047-.071.1-.16l.091-.162q.067-.115.097-.163.016-.024.028-.036.018-.016.042-.02.016.004.022.02.008.014.008.034 0 .045-.058.123-.107.138-.11.144-.06.09-.06.164l.003.013q.074-.036.087-.041.055-.023.093-.023.043 0 .063.03.02.027.02.071zM313.754 115.264q0 .062-.067.168-.042.066-.14.192-.097.124-.121.162l.1.032q.097.03.097.107l-.078.012-.015-.001v-.01q-.021-.006-.035-.006-.025 0-.08.008-.054.008-.082.008-.036 0-.06-.013-.022-.013-.022-.048 0-.028.103-.159l.193-.246q.104-.142.104-.19 0-.018-.013-.028-.012-.009-.05-.009-.025 0-.105.05-.038.024-.062.024l-.023-.004q-.008-.005-.018-.02-.008-.016-.008-.026 0-.056.108-.102.092-.04.16-.04.057 0 .088.042.026.038.026.098zM314.555 115.504q0 .161-.174.285-.16.113-.33.113-.084 0-.133-.042-.05-.043-.05-.124 0-.182.16-.315.15-.127.337-.127.094 0 .142.056.048.056.048.154zm-.08.03q0-.061-.07-.092-.052-.022-.124-.022-.106 0-.22.102-.115.103-.115.207 0 .043.021.061.023.018.068.018.131 0 .272-.072.167-.086.167-.202zM315.166 115.264q0 .062-.067.168-.042.066-.14.192-.097.124-.12.162l.1.032q.096.03.096.107l-.078.012-.015-.001v-.01q-.021-.006-.035-.006-.025 0-.08.008-.054.008-.082.008-.036 0-.06-.013-.022-.013-.022-.048 0-.028.103-.159l.193-.246q.104-.142.104-.19 0-.018-.013-.028-.012-.009-.05-.009-.025 0-.105.05-.038.024-.062.024l-.023-.004q-.008-.005-.017-.02-.01-.016-.01-.026 0-.056.109-.102.092-.04.16-.04.057 0 .088.042.026.038.026.098zM315.78 115.264q0 .062-.067.168-.043.066-.14.192-.098.124-.122.162l.1.032q.098.03.098.107l-.079.012-.015-.001v-.01q-.021-.006-.034-.006-.026 0-.08.008-.055.008-.083.008-.036 0-.059-.013t-.023-.048q0-.028.103-.159l.193-.246q.104-.142.104-.19 0-.018-.013-.028-.012-.009-.05-.009-.024 0-.104.05-.04.024-.063.024l-.023-.004q-.008-.005-.017-.02-.01-.016-.01-.026 0-.056.109-.102.092-.04.16-.04.057 0 .088.042.027.038.027.098z"/>
    </g>
    <g fill="none">
        <g transform="translate(-9.563 -28.746)">
            <g stroke="#f4f4f4">
                <rect height="174.205" rx="1.33" width="375.644" x="9.963" y="29.146"/>
                <rect height="41.574" rx=".41" width="331.527" x="32.051" y="33.638"/>
                <path d="M32.051 75.202v128.094M363.578 75.202v128.183"/>
            </g>
            <g stroke="#fff" stroke-width=".178">
                <path d="M35.328 47.452h381.303M416.814 40.809H35.457M35.35 34.355h381.437M416.812 53.62H35.247M35.381 59.98H416.64M416.558 66.433H35.398M35.352 72.886h381.367l.108 6.454H35.37M229.289 30.97v51.348M223.215 82.139V31.027M216.856 31.1v51.16M210.403 82.248V31.124M204.044 30.887v51.349M197.97 82.057V30.944M191.612 31.018v51.16M185.158 82.166V31.042M178.5 30.952v51.349M172.426 82.122V31.01M166.067 31.084v51.16M159.614 82.23V31.108M153.255 30.87v51.349M147.181 82.04V30.927M140.823 31.001v51.16M134.37 82.149V31.025M127.689 30.97v51.348M121.615 82.139V31.027M115.256 31.1v51.16M108.803 82.248V31.124M102.444 30.887v51.349M96.37 82.057V30.944M90.012 31.018v51.16M83.558 82.166V31.042M76.9 30.952v51.349M70.826 82.122V31.01M64.467 31.084v51.16M58.014 82.23V31.108M51.655 30.87v51.349M45.581 82.04V30.927M39.223 31.001v51.16M413.656 31.1v51.16M407.203 82.248V31.124M400.844 30.887v51.349M394.77 82.057V30.944M388.412 31.018v51.16M381.958 82.166V31.042M375.3 30.952v51.349M369.226 82.122V31.01M362.867 31.084v51.16M356.414 82.23V31.108M350.055 30.87v51.349M343.981 82.04V30.927M337.623 31.001v51.16M331.17 82.149V31.025M324.489 30.97v51.348M318.415 82.139V31.027M312.056 31.1v51.16M305.603 82.248V31.124M299.244 30.887v51.349M293.17 82.057V30.944M286.812 31.018v51.16M280.358 82.166V31.042M273.7 30.952v51.349M267.626 82.122V31.01M261.267 31.084v51.16M254.814 82.23V31.108M248.455 30.87v51.349M242.381 82.04V30.927M236.023 31.001v51.16" transform="matrix(.8693 0 0 .81266 1.302 8.46)"/>
            </g>
            <circle cx="46.393" cy="112.677" stroke="#f4f4f4" stroke-width=".8" r="1.829"/>
        </g>
        <g stroke="#f4f4f4" transform="translate(-9.563 -28.746)">
            <g stroke-width="1.151">
                <g transform="matrix(.8693 0 0 .86906 -9.162 24.674)">
                    <rect height="20" rx=".892" ry=".892" width="20" x="209.499" y="139.239"/>
                    <rect height="20" rx=".892" ry=".892" width="20" x="185.499" y="139.239"/>
                    <rect height="20" rx=".892" ry=".892" width="20" x="161.499" y="139.239"/>
                    <rect height="20" rx=".892" ry=".892" width="20" x="137.499" y="139.239"/>
                    <rect height="20" rx=".892" ry=".892" width="20" x="113.499" y="139.239"/>
                    <rect height="20" rx=".892" ry=".892" width="31.963" x="77.536" y="139.239"/>
                    <rect height="20" rx=".892" ry=".892" width="32" x="353.498" y="139.239"/>
                    <rect height="20" rx=".892" ry=".892" width="20" x="329.498" y="139.239"/>
                    <rect height="20" rx=".892" ry=".892" width="20" x="305.499" y="139.239"/>
                    <rect height="20" rx=".892" ry=".892" width="20" x="281.499" y="139.239"/>
                    <rect height="20" rx=".892" ry=".892" width="20" x="257.499" y="139.239"/>
                    <rect height="20" rx=".892" ry=".892" width="20" x="233.499" y="139.239"/>
                    <rect height="20" rx=".892" ry=".892" width="20" x="389.497" y="139.239"/>
                </g>
                <g transform="matrix(.8693 0 0 .86906 1.302 3.816)">
                    <rect height="20" rx=".892" ry=".892" width="20" x="209.499" y="139.239"/>
                    <rect height="20" rx=".892" ry=".892" width="20" x="185.499" y="139.239"/>
                    <rect height="20" rx=".892" ry=".892" width="20" x="161.499" y="139.239"/>
                    <rect height="20" rx=".892" ry=".892" width="20" x="137.499" y="139.239"/>
                    <rect height="20" rx=".892" ry=".892" width="20" x="113.499" y="139.239"/>
                    <rect height="20" rx=".892" ry=".892" width="20" x="89.499" y="139.239"/>
                    <rect height="20" rx=".892" ry=".892" width="20" x="65.499" y="139.239"/>
                    <rect height="20" rx=".892" ry=".892" width="32" x="353.498" y="139.239"/>
                    <rect height="20" rx=".892" ry=".892" width="20" x="329.498" y="139.239"/>
                    <rect height="20" rx=".892" ry=".892" width="20" x="305.499" y="139.239"/>
                    <rect height="20" rx=".892" ry=".892" width="20" x="281.499" y="139.239"/>
                    <rect height="20" rx=".892" ry=".892" width="20" x="257.499" y="139.239"/>
                    <rect height="20" rx=".892" ry=".892" width="20" x="233.499" y="139.239"/>
                </g>
                <g transform="matrix(.8693 0 0 .86906 -4.03 -17.04)">
                    <rect height="20" rx=".892" ry=".892" width="20" x="209.499" y="139.239"/>
                    <rect height="20" rx=".892" ry=".892" width="20" x="185.499" y="139.239"/>
                    <rect height="20" rx=".892" ry=".892" width="20" x="161.499" y="139.239"/>
                    <rect height="20" rx=".892" ry=".892" width="20" x="137.499" y="139.239"/>
                    <rect height="20" rx=".892" ry=".892" width="20" x="113.499" y="139.239"/>
                    <rect height="20" rx=".892" ry=".892" width="20" x="89.499" y="139.239"/>
                    <rect height="20" rx=".892" ry=".892" width="20" x="65.499" y="139.239"/>
                    <rect height="20" rx=".892" ry=".892" width="20" x="329.498" y="139.239"/>
                    <rect height="20" rx=".892" ry=".892" width="20" x="305.499" y="139.239"/>
                    <rect height="20" rx=".892" ry=".892" width="20" x="281.499" y="139.239"/>
                    <rect height="20" rx=".892" ry=".892" width="20" x="257.499" y="139.239"/>
                    <rect height="20" rx=".892" ry=".892" width="20" x="233.499" y="139.239"/>
                    <rect height="20" rx=".892" ry=".892" width="20" x="377.498" y="139.239"/>
                    <rect height="20" rx=".892" ry=".892" width="20" x="353.498" y="139.239"/>
                </g>
                <g transform="matrix(.8693 0 0 .86906 -14.213 -37.898)">
                    <rect height="20" rx=".892" ry=".892" width="20" x="209.499" y="139.239"/>
                    <rect height="20" rx=".892" ry=".892" width="20" x="185.499" y="139.239"/>
                    <rect height="20" rx=".892" ry=".892" width="20" x="161.499" y="139.239"/>
                    <rect height="20" rx=".892" ry=".892" width="20" x="137.499" y="139.239"/>
                    <rect height="20" rx=".892" ry=".892" width="20" x="113.499" y="139.239"/>
                    <rect height="20" rx=".892" ry=".892" width="20" x="89.499" y="139.239"/>
                    <rect height="20" rx=".892" ry=".892" width="20" x="65.499" y="139.239"/>
                    <rect height="20" rx=".892" ry=".892" width="20" x="329.498" y="139.239"/>
                    <rect height="20" rx=".892" ry=".892" width="20" x="305.499" y="139.239"/>
                    <rect height="20" rx=".892" ry=".892" width="20" x="281.499" y="139.239"/>
                    <rect height="20" rx=".892" ry=".892" width="20" x="257.499" y="139.239"/>
                    <rect height="20" rx=".892" ry=".892" width="20" x="233.499" y="139.239"/>
                    <rect height="20" rx=".892" ry=".892" width="20" x="377.498" y="139.239"/>
                    <rect height="20" rx=".892" ry=".892" width="20" x="353.498" y="139.239"/>
                    <rect height="20" rx=".892" ry=".892" width="20" x="401.497" y="139.239"/>
                </g>
            </g>
            <rect height="17.381" rx=".775" width="166.9" x="119.031" y="166.538"/>
        </g>
    </g>
</svg>
