<svg height="350.26" width="598.189" xmlns="http://www.w3.org/2000/svg">
    <g fill="#f4f4f4">
        <path d="M24.594 331.629V5.63h557v325.999zm556.001-1v-.999zm-554.002-.999h553.002l-.002-322h-553z"/>
        <path d="M55.792 89.38v-8.251h4.474c.285-1.286 1.13-2.117 1.759-2.614.262-.222.472-.396.636-.551H47.293v-50h64.332v50H95.132c.169.308.444.511.851.869.549.412 1.393 1.128 1.696 2.297h4.488v8.251H55.792zm2-2.002h42.374v-4.25H95.792v-.998c-.041-.973-.319-1.097-1.068-1.746-.718-.535-1.851-1.593-1.809-3.421v-1.001h16.709V29.963H49.292v45.999h15.875v1.001c.002 1.672-1.19 2.528-1.857 3.084-.722.643-1.113.954-1.144 2.083v.999h-4.375v4.249z"/>
        <path d="M53.647 33.63h51.625v37.625H53.647zM48.261 137.628c.002-16.936 13.729-30.665 30.667-30.665 16.936 0 30.665 13.729 30.665 30.665 0 16.938-13.729 30.667-30.665 30.667-16.938.001-30.665-13.729-30.667-30.667zm2 0c.029 15.833 12.834 28.64 28.667 28.667 15.831-.027 28.638-12.834 28.667-28.667-.029-15.831-12.836-28.636-28.667-28.665-15.833.03-28.638 12.835-28.667 28.665z"/>
        <path d="M64.678 114.297c.417.583.833.75-.75 2.667s-5 4.583-5.417 5.333-5.5 2.333-5.25 12.333c-.083 2.25-.667 3.167-.25 4.333s2.25 3.75 2.5 4.833.917 1.667 1.5 2.917 1 2.75 1 2.75-.417-.083.667.5 1.583-.833 1.75.917-1.833 2-1.417 3.833 5 7.667 10.667 9.5 9 .333 9.417-.167.417-.833.667-1.25 2.333-1.166 1.583-2.083-3.417-1.834-5.167-2.417-2.667-1.416-3.917-3.083-2.25-.25-4.083-2-3.583-2.25-4.5-2.833-1.667-.75-2.5-.667c-1.583-.667-2.75-.834-2.833-1.667s1.167-2.25 0-2.917-1.667-.25-1.083-1.25 1.084-1.833.417-2-1.667.917-2.083-.333.417-4.083.417-4.083 1-1.334 2.583-.167 2.083 1.917 2.083 2.917 1.166 3.333 1 .75.167-2.75 1.583-2.917 1.417-.583 1.667-1.417 1.083-1.333 1.667-1.25.25-.417 1.5-.917 1.5-.833 1.583-.333 1.25.75 1.667.583 0-.333-.417-.75-.333-1.75.25-2 1.25.416 1.333 1.333 1.167 1.417 1.583 1-.333-1.083-.667-1.833.583-1.417-.083-1.833-1-1.917-1-3-2 1.083-1.75-.583-.167-2.333-1.083-.667-2 1.167-1.917 1.917-1.5 1.5-1.083-.167 0-2.083-.25-2.917 1.667-.917 3.167-1.75 1.75-1.083 2.167-1.75 1.333.25 1 1.5-1.333 1.416-.167 2.333 1.167-.917 1.167-1.25.834-.167.417-1.667-2.5-1.583-.917-2.583 2.417-1.916 2.583-.833.75 2.833.667 4.917.667 3.25 1.417 3.75.417-1.417 1.167-2.583 2.5-1.417 2.583-1.917 0-2.083-.167-2.917-.5-2.083-1.583-2.5-2.667-.5-3.167-.583-1.666-.75-3.083.167-1.583 1.75-2.083 1.583-1.667-.5-2.25-1-.75-.75-.917-1.333-.083-1.25.25-1.75 1.25-1.333 1-1.917-1.667-.083-2.167.25-2.668.918-2.668.918z"/>
        <path d="M64.126 130.755c.136-.613.375-1.156-1.844-.938.719.594.75.719 1.031.969s.75.25.813-.031zM63.532 131.286c-.502-.039-1.063.688-1.344 1.188s.813-.031 1.031-.5.75-.25.719.156-.281 1.219.219.813.5-.469.688-.313.313-.281.063-.594-.97-.719-1.376-.75zM63.876 133.505c-.756 0-.531.281-.063.375s1.688-.375.063-.375zM70.532 110.942c-1 .563-1.375 1.375.313.688s4.938-1.813 7.75-1.375 4.125 1 4.25 1.188-1.25.25.875.75 2.5.563 3.25 1.188.563.625 1.688 1.375 1.438 1.5 1.625 2.375 1.75 2.688.75 2.25-1.688-1.375-2.25-.875-.688.875-.375 2.5.813 2.438 1.313 3.688 1.188.875 1.188.5 1.125.188 1.188.438 1.313.188.875-.438-1.375-1.813-1.813-2.188-.875-1.313-.875-1.938-.125-.25.813.438 1.75 1.25 2.25 2.25.125 2.063-.313 2.625-.563.625-1.125 2.125-.063 2.313-.938 2.688-.188.625.438 1 1.313.313.75 1.063-1.813.688-1.875 1.25.438 1.5.563 2 1.875 1.688 2.438.625.75-1.813.75-2.875.125-1.25.625-2 1.313-.563 1.813-.5 1.563-.188 1.75.563-.188.75-.5 1.063.875.625 1.125.125.313-2-.125-2.375-1.25 0-1.875-.563.813-.688 1.375-.563 1.438 1.188 1.688 1.188.375-1.5-.125-2.25-1-2-.875-3 .5-1.688 1.125-1.125 1.125 1.313.875 2.188-.313 1.5.188 2.313 1.688.188 1.75-.375.313 1.125.25 1.688-.563 1.5-1.188 2.625.25 2.063-.813 2.5-2.75.75-3.063.25.5-2.25-1.313-.938-3.125 3.125-3.75 4-.125.75-.938 2.313-1.563 2.313-1.625 3.5.063 2.938.188 3.563 0 1.688 1.375 2.813 1.5 1.125 2.625 1.188 2-.063 3.563-1.625 2.125-1.938 2.188-1.25 1.5-1 1.625.313-.438 1.625 0 2.188 2.375.25 2.375.25 3.688-7.125 4.063-10.625-.875-6.375-1.625-6.938-2.375-1.875-2.563-2.375.75-.5 1.813 0 1.438 1.5 1.688.813-.938-3.438-1.063-4.063-1.063-.875-1.563-1.375-.063-1.813.438-1.75-.125-1.313-.438-1.625-1.313-1.563-1.563-1-.5 1.563-.875 1.063-1.813-1.563-2.5-1.938-.688-1.938-.688-1.938 1.313.875 1.938 1.375 1.5.875 1.75.125-1.688-3-1.688-3-3.563-5.25-7-6.813-10.5-4-13.125-4.125-8.063.688-8.563.875-2.252 1.932-2.252 1.932zM25.595 305.297v26h555.334v-26zm533.764 4.635h2.607v9.905h-2.607zm-511.264 5.531c-1.25 1.75-4.083 8.5-4.667 11.667-1.5-4.833 1.083-11.417 1.083-11.417-3.083 4.417-4.333 7.25-5.083 10.167-1.583-2.333 1.75-8.833 2.083-9.833-5.5 2.75-8.75 5.749-9.5 6.666 5.583-7.833 13.667-12.416 15.25-13.416s7.834 9.334 9.667 17c-4.833-8.334-8.583-10.751-8.833-10.834zm465.75 4.917h-2.125l-9.625 5.875V309.88l9 5.75h2.75zm23.144 3.224s-3.394-1.646-6.785-.048c-.825-.437-1.115-.485-1.115-.485 2.376-2.035 7.27-1.938 8.82-.145-.387.437-.92.678-.92.678zm2.887-2.815s-6.199-3.012-12.399-.089c-1.506-.797-2.037-.886-2.037-.886 4.34-3.72 13.286-3.542 16.12-.266-.708.799-1.684 1.241-1.684 1.241zm1.732-4.055s-7.884-3.83-15.769-.113c-1.915-1.014-2.591-1.126-2.591-1.126 5.52-4.73 16.896-4.506 20.5-.338-.9 1.014-2.14 1.577-2.14 1.577zm19.055 10.042a7.224 7.224 0 0 1-1.792-14.223l-.001 3.039a4.347 4.347 0 0 0 1.793 8.305 4.345 4.345 0 0 0 1.913-8.247l.021-3.06a7.228 7.228 0 0 1 5.289 6.962 7.223 7.223 0 0 1-7.223 7.224z"/>
    </g>
</svg>
