<svg height="381.698" viewBox="0 0 236.164 154.905" width="581.927" xmlns="http://www.w3.org/2000/svg">
    <g fill="#f4f4f4" fill-opacity=".5" stroke-width=".406">
        <path d="M194.076 143.315q0 .097-.024.164-.034.099-.112.099-.05 0-.107-.024-.067-.028-.074-.07.023 0 .054.009.071.018.09.018.068 0 .103-.069.028-.055.028-.132 0-.054-.036-.155-.035-.101-.035-.141 0-.012.006-.02.007-.008.02-.008.031 0 .061.146.026.124.026.183zM194.388 143.398q0 .083-.047.13-.048.047-.133.047-.046 0-.071-.022-.025-.022-.025-.068 0-.064.083-.129.08-.061.147-.061.03 0 .04.038.007.022.007.065zm-.05.023-.001-.02-.006-.021q-.013.009-.043.044-.015.018-.027.026 0-.016.003-.025l.01-.024q-.035 0-.074.03-.038.03-.038.065 0 .023.026.023.05 0 .096-.024.056-.03.056-.075zM194.723 143.431q0 .04-.03.09-.034.055-.07.055-.011 0-.019-.011-.007-.012-.007-.023 0-.015.031-.046.032-.032.032-.043l-.002-.015-.003-.01q-.061.014-.124.07-.063.056-.095.064-.006-.018-.006-.037 0-.023.01-.048.007-.018.025-.043.028-.043.06-.097l.056-.098q.04-.07.059-.1.01-.014.017-.021.01-.01.025-.013.01.003.014.012.005.009.005.02 0 .029-.036.076-.065.084-.066.087-.037.056-.037.1l.002.008.053-.025q.033-.014.057-.014.026 0 .038.018.012.017.012.044zM195.1 143.383q0 .055-.027.118-.03.069-.073.095-.009-.01-.015-.024-.006-.013-.006-.026t.04-.082q.018-.03.017-.052l-.001-.01q-.03.008-.104.054l-.148.09q-.011 0-.02-.008-.01-.009-.01-.02 0-.016.055-.114l.058-.101q.013.017.017.038.004.02.004.049v.019q.075-.045.117-.068.046-.025.063-.025.012 0 .021.026.01.026.01.041zM195.805 143.54q0 .015-.013.023-.012.007-.028.007-.014 0-.035-.003-.048-.007-.061-.007-.025 0-.096.006l-.059.003q-.05 0-.05-.05 0-.046.032-.134.017-.05.064-.162.042-.102.053-.143l.006-.017q.006-.01.017-.01.015 0 .026.023.01.021.01.04 0 .028-.033.095l-.065.13q-.035.077-.035.117 0 .02.017.028.012.006.036.006.018 0 .061-.004.044-.005.059-.005.036 0 .06.01.033.015.033.048zM196.107 143.398q0 .083-.048.13t-.133.047q-.046 0-.07-.022-.026-.022-.026-.068 0-.064.083-.129.08-.061.147-.061.031 0 .041.038.006.022.006.065zm-.05.023-.002-.02-.006-.021q-.013.009-.043.044-.015.018-.027.026 0-.016.003-.025.007-.014.01-.024-.035 0-.074.03-.038.03-.038.065 0 .023.026.023.05 0 .096-.024.056-.03.056-.075zM196.448 143.38q0 .027-.013.056-.013.03-.034.049v-.012l.001-.03.002-.03q0-.014-.004-.02-.004-.007-.017-.007-.038 0-.095.06l-.122.128h-.01l-.016-.004q.002-.03.02-.065l.05-.103.01-.039q.003-.012.009-.025.006-.014.014-.024.01-.012.023-.017l.008.097.053-.044q.036-.028.062-.028.026 0 .042.017.017.017.017.042zM196.847 143.287q0 .034-.091.09-.088.053-.127.053-.02 0-.026-.013-.006-.013-.006-.036v-.022q.055 0 .1-.016.044-.016.077-.054-.024-.009-.05-.009-.058 0-.125.046-.073.049-.073.105 0 .054.073.075.011.003.137.022.074.012.074.04 0 .012-.027.02t-.068.008q-.104 0-.164-.032-.08-.042-.08-.135 0-.098.098-.156.083-.048.188-.048.032 0 .058.014.032.018.032.047zM197.17 143.141q0 .018-.043.075-.043.057-.043.087 0 .015.018.03.04.036.04.044 0 .01-.007.02-.006.01-.017.01-.009 0-.025-.01-.011-.005-.044-.031l-.018.036q-.023.043-.031.062l-.024.075q-.021.05-.053.05v-.018q0-.058.036-.137l.041-.075q-.064-.035-.141-.035 0-.03.012-.044.013-.015.043-.015.028 0 .069.01l.04.01q.016-.005.043-.052.065-.116.089-.133.006.01.01.021.006.011.006.02zM197.47 143.431q0 .04-.03.09-.035.055-.071.055-.01 0-.018-.011-.006-.012-.006-.023 0-.015.03-.046.032-.032.032-.043l-.002-.015-.003-.01q-.06.014-.124.07-.062.056-.095.064-.006-.018-.006-.037 0-.023.01-.048.008-.018.025-.043.028-.043.06-.097l.056-.098q.04-.07.06-.1l.016-.021q.01-.01.026-.013.01.003.013.012.005.009.005.02 0 .029-.035.076l-.067.087q-.036.056-.036.1l.002.008.052-.025q.034-.014.057-.014.026 0 .038.018.013.017.013.044zM198.136 143.167q0 .038-.04.102-.027.04-.086.117-.06.075-.074.099l.061.02q.06.017.06.064l-.049.007H198v-.007q-.013-.003-.02-.003-.016 0-.05.005-.033.005-.05.005-.022 0-.035-.008-.014-.008-.014-.029 0-.017.062-.097l.118-.15q.063-.086.063-.115 0-.011-.008-.017-.007-.006-.03-.006-.015 0-.064.03-.023.015-.038.015l-.014-.002q-.005-.003-.01-.013-.006-.01-.006-.015 0-.034.066-.063.056-.024.097-.024.035 0 .054.026.016.023.016.06zM198.624 143.313q0 .098-.107.173-.097.07-.2.07-.051 0-.081-.027-.03-.026-.03-.075 0-.11.096-.192.092-.077.206-.077.057 0 .086.034.03.034.03.094zm-.05.018q0-.037-.042-.056-.032-.013-.076-.013-.064 0-.133.062-.07.063-.07.126 0 .026.013.037.014.01.041.01.08 0 .166-.043.101-.052.101-.123zM198.995 143.167q0 .038-.04.102-.026.04-.085.117-.06.075-.074.099l.06.02q.06.017.06.064l-.048.007h-.01v-.007q-.012-.003-.02-.003-.016 0-.049.005t-.05.005q-.022 0-.036-.008-.014-.008-.014-.029 0-.017.063-.097.117-.148.117-.15.064-.086.064-.115 0-.011-.008-.017-.007-.006-.03-.006-.016 0-.064.03-.024.015-.039.015l-.013-.002q-.005-.003-.01-.013-.007-.01-.007-.015 0-.034.066-.063.056-.024.097-.024.035 0 .054.026.016.023.016.06zM199.369 143.167q0 .038-.04.102-.027.04-.086.117-.06.075-.074.099l.061.02q.06.017.06.064l-.049.007h-.009v-.007q-.013-.003-.02-.003-.016 0-.05.005-.033.005-.05.005-.022 0-.035-.008-.014-.008-.014-.029 0-.017.062-.097l.118-.15q.063-.086.063-.115 0-.011-.008-.017-.007-.006-.03-.006-.015 0-.064.03-.023.015-.038.015l-.014-.002q-.005-.003-.01-.013-.006-.01-.006-.015 0-.034.065-.063.056-.024.098-.024.035 0 .053.026.017.023.017.06z"/>
    </g>
    <g fill="none">
        <path d="M4.868 65.216c-1.61 0-2.962 1.297-2.906 2.906l2.914 83.77c.056 1.61 1.296 2.907 2.906 2.907h221.086c1.61 0 2.85-1.297 2.907-2.906l2.914-83.771c.056-1.61-1.296-2.906-2.907-2.906H9.37z" stroke="#f4f4f4" stroke-width=".81173144"/>
        <path d="M229.093 92.895H7.543M118.07 150.89h107.59c.94 0 1.668-.758 1.696-1.697l4.233-144.956c.028-.94-.756-1.696-1.696-1.696H118.297m.283 148.348H10.991c-.94 0-1.669-.757-1.696-1.696L5.062 4.237c-.028-.94.756-1.696 1.696-1.696h111.595" stroke="#f4f4f4" stroke-width=".406"/>
        <path d="M118.278 59.545h115.025c.94 0 1.678-.757 1.696-1.696l1.059-56.047c.017-.94-.757-1.696-1.697-1.696H118.235m.137 59.44H3.348c-.94 0-1.679-.758-1.697-1.697L.593 1.802C.575.862 1.35.106 2.29.106h116.125" stroke="#f4f4f4" stroke-width=".812"/>
        <g stroke-width=".406" transform="translate(14.808 -73.357)">
            <path d="M102.206 102.97h113.8m.024-1.576h-5.081m-33.67 0h-75.215m.671-20.648h74.544m33.67 0h5.586m.024-1.577h-5.61m-33.67 0h-74.685m.141 5.281h74.544m33.67 0h5.585m.025-1.577h-5.61m-33.67 0h-74.685m.141 5.281h74.544m33.67 0h5.585m.025-1.577h-5.61m-33.67 0h-74.685m.141 5.281h74.544m33.67 0h5.374m.025-1.576h-5.399m-33.67 0h-74.685m.141 5.28h74.544m33.67 0h5.374m.025-1.576h-5.399m-33.67 0h-74.685m.141 5.28h74.544m33.67 0h5.162m.025-1.576h-5.187m-33.67 0h-74.685m2.12 5.28H-9.083m-.025-1.576h113.966m-.671-20.648h-113.8m-.024-1.577h113.965m-.141 5.281h-113.8m-.024-1.577h113.965m-.141 5.281H-9.402m-.024-1.577h113.753m-.141 5.281H-9.337m-.09-1.576h113.754m-.141 5.28H-9.19m-.025-1.576h113.542m-.141 5.28H-9.064m-.15-1.576h113.541" stroke="#f4f4f4"/>
            <rect height="25.669" rx=".632" stroke="#f4f4f4" width="33.67" x="177.279" y="77.252"/>
            <rect height="18.869" rx=".632" stroke="#f3f4f4" width="26.941" x="180.435" y="81.158"/>
            <circle cx="197.195" cy="85.834" r="1.25" stroke="#f3f4f4"/>
            <path d="M187.48 92.301c0-.168.136-.3.304-.304l6.298-.142h6.524c.168 0 .303.135.303.303v4.573a.303.303 0 0 1-.303.304h-6.516l-6.345-.138a.305.305 0 0 1-.303-.303zM194.085 97.034v-5.139" stroke="#f3f4f4"/>
            <path d="M17.773 217.215h-5.801a2.494 2.494 0 0 1-2.5-2.5v-.5c0-1.385 1.115-2.5 2.5-2.5h5.801z" stroke="#f4f4f4"/>
            <circle cx="12.301" cy="214.348" r="1.5" stroke="#f4f4f4"/>
            <path d="M144.41 217.215h5.802c1.384 0 2.5-1.115 2.5-2.5v-.5c0-1.385-1.116-2.5-2.5-2.5h-5.802z" stroke="#f4f4f4"/>
            <circle cx="-149.883" cy="214.348" r="1.5" stroke="#f4f4f4" transform="scale(-1 1)"/>
            <path d="M166.602 151.07h-4.415c-1.054 0-1.902-1.116-1.902-2.5v-.501c0-1.385.848-2.5 1.902-2.5h4.415z" stroke="#f4f4f4"/>
            <circle cx="163.113" cy="148.203" r="1.5" stroke="#f4f4f4"/>
        </g>
        <g stroke="#f4f4f4" stroke-width=".812">
            <rect height="7.5" rx="1.284" width="81.583" x="60.129" y="137.273"/>
            <rect height="7.5" rx="1.284" width="12.792" x="44.343" y="137.273"/>
            <rect height="7.5" rx="1.284" width="12.42" x="144.796" y="137.273"/>
            <rect height="7.5" rx="1.284" width="7.5" x="33.671" y="137.273"/>
        </g>
        <g stroke="#f4f4f4" stroke-width=".812">
            <rect height="7.5" rx="1.284" width="7.5" x="113.046" y="126.69"/>
            <rect height="7.5" rx="1.284" width="7.5" x="102.463" y="126.69"/>
            <rect height="7.5" rx="1.284" width="7.5" x="91.879" y="126.69"/>
            <rect height="7.5" rx="1.284" width="7.5" x="81.296" y="126.69"/>
            <rect height="7.5" rx="1.284" width="7.5" x="70.713" y="126.69"/>
            <rect height="7.5" rx="1.284" width="7.5" x="60.129" y="126.69"/>
            <rect height="7.5" rx="1.284" width="7.5" x="49.546" y="126.69"/>
            <rect height="7.5" rx="1.284" width="7.5" x="38.963" y="126.69"/>
            <rect height="7.5" rx="1.284" width="20.423" x="15.456" y="126.69"/>
            <rect height="7.5" rx="1.284" width="20.729" x="155.379" y="126.69"/>
            <rect height="7.5" rx="1.284" width="7.5" x="144.796" y="126.69"/>
            <rect height="7.5" rx="1.284" width="7.5" x="134.213" y="126.69"/>
            <rect height="7.5" rx="1.284" width="7.5" x="123.629" y="126.69"/>
        </g>
        <g stroke="#f4f4f4" stroke-width=".812" transform="translate(8.987 -83.411)">
            <rect height="7.5" rx="1.284" width="7.5" x="98.768" y="200.047"/>
            <rect height="7.5" rx="1.284" width="7.5" x="88.184" y="200.047"/>
            <rect height="7.5" rx="1.284" width="7.5" x="77.601" y="200.047"/>
            <rect height="7.5" rx="1.284" width="7.5" x="67.018" y="200.047"/>
            <rect height="7.5" rx="1.284" width="7.5" x="56.434" y="200.047"/>
            <rect height="7.5" rx="1.284" width="7.5" x="45.851" y="200.047"/>
            <rect height="7.5" rx="1.284" width="7.5" x="35.268" y="200.047"/>
            <rect height="7.5" rx="1.284" width="7.5" x="24.684" y="200.047"/>
            <rect height="7.5" rx="1.284" width="15.132" x="6.469" y="200.047"/>
            <rect height="7.5" rx="1.284" width="7.5" x="141.101" y="200.047"/>
            <rect height="7.5" rx="1.284" width="7.5" x="130.518" y="200.047"/>
            <rect height="7.5" rx="1.284" width="7.5" x="119.934" y="200.047"/>
            <rect height="7.5" rx="1.284" width="7.5" x="109.351" y="200.047"/>
            <path d="M167.121 201.331v4.932c0 .711-.572 1.284-1.284 1.284h-12.869a1.282 1.282 0 0 1-1.284-1.284v-7.577c-.072-.611-.33-1.118-1.361-1.193a1.282 1.282 0 0 1-1.285-1.285v-4.93c0-.712.573-1.285 1.285-1.285h15.514c.712 0 1.284.573 1.284 1.284v4.931z"/>
        </g>
        <g stroke="#f4f4f4" stroke-width=".812">
            <rect height="7.5" rx="1.284" width="7.5" x="105.109" y="106.581"/>
            <rect height="7.5" rx="1.284" width="7.5" x="94.525" y="106.581"/>
            <rect height="7.5" rx="1.284" width="7.5" x="83.942" y="106.581"/>
            <rect height="7.5" rx="1.284" width="7.5" x="73.359" y="106.581"/>
            <rect height="7.5" rx="1.284" width="7.5" x="62.775" y="106.581"/>
            <rect height="7.5" rx="1.284" width="7.5" x="52.192" y="106.581"/>
            <rect height="7.5" rx="1.284" width="7.5" x="41.609" y="106.581"/>
            <rect height="7.5" rx="1.284" width="7.5" x="31.025" y="106.581"/>
            <rect height="7.5" rx="1.284" width="12.486" x="15.456" y="106.581"/>
            <rect height="7.5" rx="1.284" width="7.5" x="147.442" y="106.581"/>
            <rect height="7.5" rx="1.284" width="7.5" x="136.859" y="106.581"/>
            <rect height="7.5" rx="1.284" width="7.5" x="126.275" y="106.581"/>
            <rect height="7.5" rx="1.284" width="7.5" x="115.692" y="106.581"/>
        </g>
        <g stroke="#f4f4f4" stroke-width=".812">
            <rect height="7.5" rx="1.284" width="7.5" x="100.123" y="96.527"/>
            <rect height="7.5" rx="1.284" width="7.5" x="89.54" y="96.527"/>
            <rect height="7.5" rx="1.284" width="7.5" x="78.956" y="96.527"/>
            <rect height="7.5" rx="1.284" width="7.5" x="68.373" y="96.527"/>
            <rect height="7.5" rx="1.284" width="7.5" x="57.79" y="96.527"/>
            <rect height="7.5" rx="1.284" width="7.5" x="47.206" y="96.527"/>
            <rect height="7.5" rx="1.284" width="7.5" x="36.623" y="96.527"/>
            <rect height="7.5" rx="1.284" width="7.5" x="26.04" y="96.527"/>
            <rect height="7.5" rx="1.284" width="7.5" x="15.456" y="96.527"/>
            <rect height="7.5" rx="1.284" width="7.5" x="142.456" y="96.527"/>
            <rect height="7.5" rx="1.284" width="7.5" x="131.873" y="96.527"/>
            <rect height="7.5" rx="1.284" width="7.5" x="121.29" y="96.527"/>
            <rect height="7.5" rx="1.284" width="7.5" x="110.706" y="96.527"/>
            <rect height="7.5" rx="1.284" width="7.5" x="153.039" y="96.527"/>
            <rect height="7.5" rx="1.284" width="12.486" x="163.623" y="96.527"/>
        </g>
        <g stroke="#f4f4f4" stroke-width=".812">
            <rect height="17.554" rx="1.284" width="7.5" x="214.116" y="126.69"/>
            <rect height="7.5" rx="1.284" width="7.5" x="203.533" y="126.69"/>
            <rect height="7.5" rx="1.284" width="7.5" x="192.95" y="126.69"/>
            <rect height="7.5" rx="1.284" width="7.5" x="182.366" y="126.69"/>
            <rect height="7.5" rx="1.284" width="7.5" x="203.533" y="136.744"/>
            <rect height="7.5" rx="1.284" width="18.083" x="182.366" y="136.744"/>
            <rect height="7.5" rx="1.284" width="7.5" x="214.116" y="116.636"/>
            <rect height="7.5" rx="1.284" width="7.5" x="203.533" y="116.636"/>
            <rect height="7.5" rx="1.284" width="7.5" x="192.95" y="116.636"/>
            <rect height="7.5" rx="1.284" width="7.5" x="182.366" y="116.636"/>
            <rect height="7.5" rx="1.284" width="7.5" x="214.116" y="106.582"/>
            <rect height="7.5" rx="1.284" width="7.5" x="203.533" y="106.582"/>
            <rect height="7.5" rx="1.284" width="7.5" x="192.95" y="106.582"/>
            <rect height="7.5" rx="1.284" width="7.5" x="182.366" y="106.582"/>
            <rect height="7.5" rx="1.284" width="7.5" x="214.116" y="96.528"/>
            <rect height="7.5" rx="1.284" width="7.5" x="203.533" y="96.528"/>
            <rect height="7.5" rx="1.284" width="7.5" x="192.95" y="96.528"/>
            <rect height="7.5" rx="1.284" width="7.5" x="182.366" y="96.528"/>
        </g>
        <g stroke="#f4f4f4" stroke-width=".812">
            <rect height="7.5" rx="1.284" width="17.949" x="100.123" y="81.711"/>
            <rect height="7.5" rx="1.284" width="18.083" x="78.956" y="81.711"/>
            <rect height="7.5" rx="1.284" width="18.083" x="57.79" y="81.711"/>
            <rect height="7.5" rx="1.284" width="18.083" x="36.623" y="81.711"/>
            <rect height="7.5" rx="1.284" width="7.5" x="15.456" y="81.711"/>
            <rect height="7.5" rx="1.284" width="18.083" x="121.29" y="81.711"/>
            <rect height="7.5" rx="1.284" width="7.5" x="153.039" y="81.711"/>
            <rect height="7.5" rx="1.284" width="7.5" x="163.622" y="81.711"/>
            <rect height="7.5" rx="1.284" width="7.5" x="153.039" y="71.657"/>
            <rect height="7.5" rx="1.284" width="7.5" x="163.622" y="71.657"/>
            <rect height="7.5" rx="1.284" width="7.5" x="198.241" y="81.711"/>
            <rect height="7.5" rx="1.284" width="13.056" x="182.366" y="81.711"/>
            <rect height="7.5" rx="1.284" width="13.056" x="182.366" y="71.657"/>
            <rect height="7.5" rx="1.284" width="7.5" x="198.241" y="71.657"/>
            <rect height="7.5" rx="1.284" width="13.056" x="208.824" y="81.711"/>
            <rect height="7.5" rx="1.284" width="13.056" x="208.601" y="71.657"/>
            <rect height="7.5" rx="1.284" width="17.949" x="100.123" y="71.657"/>
            <rect height="7.5" rx="1.284" width="18.083" x="78.956" y="71.657"/>
            <rect height="7.5" rx="1.284" width="18.083" x="57.79" y="71.657"/>
            <rect height="7.5" rx="1.284" width="18.083" x="36.623" y="71.657"/>
            <rect height="7.5" rx="1.284" width="18.083" x="121.29" y="71.657"/>
        </g>
    </g>
</svg>
