<svg height="384.1" viewBox="0 0 468.543 230.46" width="780.904" xmlns="http://www.w3.org/2000/svg">
    <g fill="none" stroke="#f4f4f4">
        <g stroke-width="1.2" transform="translate(-7.694 -8.97)">
            <path d="M241.83 185.775c58.87-.095 107.123 17.19 162.194 36.955 26.84 9.161 41.324.98 48.323-13.96 6.817-15.83 14.988-32.202 19.367-47.07 11.532-34.745-7.072-55.848-28.321-74.516C383.854 36.646 313.52 11.34 241.966 9.97m.135 175.805c-46.892-.075-87.047 10.876-129.278 25.324-10.788 3.69-21.71 7.61-32.916 11.63-26.84 9.162-41.324.982-48.322-13.959-6.817-15.83-14.988-32.202-19.368-47.07-11.532-34.745 7.072-55.848 28.321-74.516C100.078 36.646 170.411 11.34 241.966 9.97" opacity=".98"/>
            <path d="M371.713 211.25c-86.212 35.835-172.427 36.668-258.645 0" opacity=".98"/>
            <rect height="20.247" opacity=".98" rx="2.377" width="11.582" x="236.35" y="203.558"/>
        </g>
        <path d="M226.246 1.289h16.446v4.715h-16.446z" opacity=".98" stroke-width=".6"/>
    </g>
    <g transform="translate(-7.694 -8.97)">
        <g fill="none" stroke="#f4f4f4" stroke-width="1.2">
            <circle cx="395.084" cy="125.956" opacity=".98" r="22"/>
            <circle cx="347.695" cy="162.839" opacity=".98" r="22"/>
            <path d="M181.96 213.594c-.014 3.412 1.745 5.38 7.464 6.55 11.756 2.407 25.665 2.602 38.217 3.163 2.304.269 3.616-.799 3.51-2.644v-7.06m-49.192-.009c-.185-2.352 1.344-4.548 3.53-5.36 3.596-1.474 7.528-1.81 11.336-2.405 10.491-1.34 21.082-1.492 31.633-1.987 1.788-.162 3.032 1.538 2.693 3.207v6.536M302.282 213.594c.013 3.412-1.746 5.38-7.464 6.55-11.757 2.407-25.666 2.602-38.218 3.163-2.304.269-3.615-.799-3.51-2.644v-7.06m49.192-.009c.186-2.352-1.344-4.548-3.53-5.36-3.596-1.474-7.527-1.81-11.336-2.405-10.49-1.34-21.082-1.492-31.633-1.987-1.787-.162-3.031 1.538-2.693 3.207v6.536M341.986 28.493l1.646-3.415a4.936 4.936 0 0 1 6.604-2.307l49.638 23.936a4.936 4.936 0 0 1 2.307 6.604l-1.478 3.064" opacity=".98"/>
            <circle cx="118.559" cy="127.398" opacity=".98" r="45.5"/>
            <path d="M107.976 83.971v27.347c-.063 5.838-4.122 6.54-9.011 6.636H73.729m34.247 53v-27.347c-.063-5.838-4.122-6.54-9.011-6.636H73.729m55 33.983v-27.347c.063-5.838 4.122-6.54 9.011-6.636h25.236m-34.247-53v27.347c.063 5.838 4.122 6.54 9.011 6.636h25.236" opacity=".98"/>
        </g>
        <g fill="#f4f4f4">
            <path d="m118.736 90.194 2.624 4.544 2.624 4.545h-10.496l2.624-4.545zM118.736 167.283l2.624-4.545 2.624-4.544h-10.496l2.624 4.544zM156.698 128.156l-4.544 2.624-4.545 2.624V122.91l4.545 2.623zM81.167 128.565l4.544 2.624 4.545 2.624v-10.496l-4.545 2.624z" opacity=".98"/>
        </g>
        <circle cx="118.503" cy="127.243" fill="none" opacity=".98" stroke="#f4f4f4" stroke-width=".6" r="6.5"/>
    </g>
    <g fill="#f4f4f4" fill-opacity=".5">
        <path d="M248.027 211.154q0 .32-.077.539-.115.325-.368.325-.168 0-.352-.077-.222-.094-.243-.23.075 0 .176.027.235.061.293.061.227 0 .342-.226.09-.182.09-.435 0-.179-.117-.51-.115-.333-.115-.463 0-.04.022-.064.024-.027.064-.027.104 0 .202.48.083.405.083.6zM249.054 211.426q0 .272-.158.427-.157.154-.434.154-.152 0-.235-.072-.083-.072-.083-.221 0-.21.275-.424.261-.203.483-.203.1 0 .133.126.019.072.019.213zm-.163.075q0-.032-.008-.062-.005-.032-.021-.072-.043.03-.142.144-.05.06-.088.086 0-.051.011-.083l.035-.077q-.118 0-.246.098-.125.1-.125.214 0 .077.085.077.163 0 .315-.08.184-.096.184-.245zM250.152 211.535q0 .131-.098.294-.112.184-.232.184-.035 0-.06-.038-.02-.04-.02-.077 0-.048.1-.15.105-.103.105-.14 0-.025-.008-.049l-.01-.032q-.2.046-.409.23-.205.184-.312.208-.021-.059-.021-.12 0-.075.035-.158.024-.058.08-.14.093-.142.197-.32l.184-.324q.133-.229.195-.325.032-.048.056-.072.034-.032.082-.043.032.011.046.04.016.03.016.07 0 .09-.118.245-.213.277-.218.288-.12.181-.12.328l.005.027q.146-.072.173-.083.11-.045.187-.045.085 0 .125.058.04.056.04.144zM251.39 211.378q0 .181-.088.387-.096.226-.238.312-.029-.035-.05-.078-.02-.042-.02-.085 0-.045.134-.27.059-.098.054-.173l-.003-.034q-.1.029-.342.178l-.485.299q-.037 0-.07-.027-.029-.029-.029-.064 0-.056.179-.376.053-.096.192-.333.043.056.056.125.013.067.013.16v.062q.246-.147.384-.222.152-.082.208-.082.038 0 .07.085.034.085.034.136zM253.707 211.895q0 .048-.043.075-.04.024-.09.024-.046 0-.115-.01-.157-.025-.203-.025-.08 0-.314.019-.134.01-.192.01-.163 0-.163-.162 0-.155.101-.443.056-.162.21-.533.14-.333.177-.47.013-.042.021-.055.022-.032.054-.032.05 0 .085.074.035.072.035.131 0 .093-.11.315-.11.218-.213.43-.115.25-.115.38 0 .067.056.094.04.018.118.018.058 0 .202-.013.144-.016.192-.016.12 0 .198.035.109.048.109.155zM254.699 211.426q0 .272-.157.427-.158.154-.435.154-.152 0-.235-.072-.082-.072-.082-.221 0-.21.274-.424.262-.203.483-.203.101 0 .133.126.019.072.019.213zm-.163.075q0-.032-.008-.062-.005-.032-.021-.072-.043.03-.141.144-.051.06-.088.086 0-.051.01-.083.022-.045.035-.077-.117 0-.245.098-.126.1-.126.214 0 .077.086.077.162 0 .314-.08.184-.096.184-.245zM255.822 211.37q0 .085-.046.181-.042.096-.109.16l-.003-.037q0-.032.008-.099.008-.066.008-.098 0-.046-.013-.067-.014-.024-.056-.024-.126 0-.312.195l-.403.424q-.016 0-.032-.003l-.053-.014q.008-.096.066-.213.158-.317.163-.339l.032-.125q.01-.04.03-.083.02-.045.047-.08.03-.037.075-.056l.027.32.176-.144q.117-.093.202-.093.086 0 .14.056.052.056.052.139zM257.131 211.06q0 .113-.299.297-.288.176-.418.176-.062 0-.083-.043-.019-.043-.019-.12v-.072q.179 0 .326-.053.146-.054.256-.176-.08-.03-.163-.03-.195 0-.413.15-.24.162-.24.346 0 .176.24.246.037.01.45.074.243.038.243.131 0 .04-.088.064-.088.027-.224.027-.341 0-.539-.104-.261-.139-.261-.446 0-.32.32-.509.272-.16.619-.16.104 0 .189.048.104.059.104.155zM258.192 210.583q0 .059-.141.246-.141.186-.141.285 0 .05.058.101.134.118.134.144 0 .035-.024.067-.022.032-.056.032-.03 0-.083-.032-.037-.021-.144-.104l-.061.117q-.075.142-.102.206l-.08.245q-.069.165-.173.165l-.003-.06q0-.19.123-.449.024-.048.133-.248-.21-.115-.464-.115 0-.098.04-.144.043-.048.141-.048.091 0 .227.032l.133.032q.051-.016.139-.173.216-.379.293-.435.022.035.035.07.016.034.016.066zM259.176 211.535q0 .131-.098.294-.112.184-.232.184-.035 0-.06-.038-.02-.04-.02-.077 0-.048.101-.15.104-.103.104-.14 0-.025-.008-.049l-.01-.032q-.2.046-.409.23-.205.184-.312.208-.021-.059-.021-.12 0-.075.035-.158.024-.058.08-.14.093-.142.197-.32l.184-.324q.133-.229.195-.325.032-.048.056-.072.034-.032.082-.043.032.011.046.04.016.03.016.07 0 .09-.118.245-.213.277-.218.288-.12.181-.12.328l.005.027q.146-.072.173-.083.11-.045.187-.045.085 0 .125.058.04.056.04.144zM261.366 210.666q0 .125-.134.336-.085.133-.28.384-.194.248-.242.325l.2.064q.194.059.194.214l-.157.024-.03-.003v-.022q-.042-.01-.069-.01-.05 0-.16.016-.109.016-.165.016-.072 0-.117-.027-.046-.027-.046-.096 0-.056.206-.317.384-.488.386-.494.208-.282.208-.378 0-.038-.026-.056-.024-.02-.099-.02-.05 0-.21.1-.078.048-.126.048l-.045-.008q-.016-.011-.035-.04-.019-.032-.019-.051 0-.112.216-.205.184-.08.32-.08.115 0 .176.085.054.075.054.195zM262.968 211.146q0 .323-.349.57-.32.227-.659.227-.168 0-.266-.085-.099-.085-.099-.248 0-.363.317-.63.302-.253.675-.253.19 0 .285.112.096.112.096.307zm-.162.061q0-.122-.139-.184-.104-.045-.248-.045-.21 0-.44.205-.23.206-.23.414 0 .085.043.122.046.035.136.035.262 0 .544-.144.334-.17.334-.403zM264.19 210.666q0 .125-.134.336-.085.133-.28.384-.194.248-.242.325l.2.064q.194.059.194.214l-.157.024-.03-.003v-.022q-.042-.01-.069-.01-.05 0-.16.016-.109.016-.165.016-.072 0-.117-.027-.046-.027-.046-.096 0-.056.206-.317.384-.488.386-.494.208-.282.208-.378 0-.038-.026-.056-.024-.02-.099-.02-.05 0-.21.1-.078.048-.126.048l-.045-.008q-.016-.011-.035-.04-.019-.032-.019-.051 0-.112.216-.205.184-.08.32-.08.115 0 .176.085.054.075.054.195zM265.416 210.666q0 .125-.133.336-.085.133-.28.384-.195.248-.243.325l.2.064q.195.059.195.214l-.157.024-.03-.003v-.022q-.042-.01-.069-.01-.05 0-.16.016t-.165.016q-.072 0-.118-.027-.045-.027-.045-.096 0-.056.205-.317.384-.488.387-.494.208-.282.208-.378 0-.038-.027-.056-.024-.02-.098-.02-.051 0-.211.1-.077.048-.125.048l-.046-.008q-.016-.011-.034-.04-.019-.032-.019-.051 0-.112.216-.205.184-.08.32-.08.115 0 .176.085.053.075.053.195z"/>
    </g>
</svg>
