<svg height="352.604" viewBox="0 0 915.719 528.905" width="610.48" xmlns="http://www.w3.org/2000/svg">
    <g fill="#f4f4f4" fill-opacity=".5" stroke-width="1.5">
        <path d="M179.6 191.276q0 .48-.116.808-.172.488-.552.488-.252 0-.528-.116-.332-.14-.364-.344.112 0 .264.04.352.092.44.092.34 0 .512-.34.136-.272.136-.652 0-.268-.176-.764-.172-.5-.172-.696 0-.06.032-.096.036-.04.096-.04.156 0 .304.72.124.608.124.9zM181.14 191.684q0 .408-.236.64-.236.232-.652.232-.228 0-.352-.108-.124-.108-.124-.332 0-.316.412-.636.392-.304.724-.304.152 0 .2.188.028.108.028.32zm-.244.112q0-.048-.012-.092-.008-.048-.032-.108-.064.044-.212.216-.076.088-.132.128 0-.076.016-.124.032-.068.052-.116-.176 0-.368.148-.188.148-.188.32 0 .116.128.116.244 0 .472-.12.276-.144.276-.368zM182.788 191.848q0 .196-.148.44-.168.276-.348.276-.052 0-.088-.056-.032-.06-.032-.116 0-.072.152-.224.156-.156.156-.212 0-.036-.012-.072l-.016-.048q-.3.068-.612.344-.308.276-.468.312-.032-.088-.032-.18 0-.112.052-.236.036-.088.12-.212.14-.212.296-.48l.276-.484q.2-.344.292-.488.048-.072.084-.108.052-.048.124-.064.048.016.068.06.024.044.024.104 0 .136-.176.368-.32.416-.328.432-.18.272-.18.492l.008.04q.22-.108.26-.124.164-.068.28-.068.128 0 .188.088.06.084.06.216zM184.644 191.612q0 .272-.132.58-.144.34-.356.468-.044-.052-.076-.116-.028-.064-.028-.128 0-.068.2-.404.088-.148.08-.26l-.004-.052q-.148.044-.512.268-.36.22-.728.448-.056 0-.104-.04-.044-.044-.044-.096 0-.084.268-.564.08-.144.288-.5.064.084.084.188.02.1.02.24v.092q.368-.22.576-.332.228-.124.312-.124.056 0 .104.128.052.128.052.204zM188.12 192.388q0 .072-.064.112-.06.036-.136.036-.068 0-.172-.016-.236-.036-.304-.036-.12 0-.472.028-.2.016-.288.016-.244 0-.244-.244 0-.232.152-.664.084-.244.316-.8.208-.5.264-.704.02-.064.032-.084.032-.048.08-.048.076 0 .128.112.052.108.052.196 0 .14-.164.472l-.32.644q-.172.376-.172.572 0 .1.084.14.06.028.176.028.088 0 .304-.02.216-.024.288-.024.18 0 .296.052.164.072.164.232zM189.608 191.684q0 .408-.236.64-.236.232-.652.232-.228 0-.352-.108-.124-.108-.124-.332 0-.316.412-.636.392-.304.724-.304.152 0 .2.188.028.108.028.32zm-.244.112q0-.048-.012-.092-.008-.048-.032-.108-.064.044-.212.216-.076.088-.132.128 0-.076.016-.124.032-.068.052-.116-.176 0-.368.148-.188.148-.188.32 0 .116.128.116.244 0 .472-.12.276-.144.276-.368zM191.292 191.6q0 .128-.068.272-.064.144-.164.24l-.004-.056q0-.048.012-.148.012-.1.012-.148 0-.068-.02-.1-.02-.036-.084-.036-.188 0-.468.292l-.604.636q-.024 0-.048-.004l-.08-.02q.012-.144.1-.32.236-.476.244-.508l.048-.188q.016-.06.044-.124.032-.068.072-.12.044-.056.112-.084l.04.48.264-.216q.176-.14.304-.14t.208.084q.08.084.08.208zM193.256 191.136q0 .168-.448.444-.432.264-.628.264-.092 0-.124-.064-.028-.064-.028-.18v-.108q.268 0 .488-.08.22-.08.384-.264-.12-.044-.244-.044-.292 0-.62.224-.36.244-.36.52 0 .264.36.368.056.016.676.112.364.056.364.196 0 .06-.132.096-.132.04-.336.04-.512 0-.808-.156-.392-.208-.392-.668 0-.48.48-.764.408-.24.928-.24.156 0 .284.072.156.088.156.232zM194.848 190.42q0 .088-.212.368t-.212.428q0 .076.088.152.2.176.2.216 0 .052-.036.1-.032.048-.084.048-.044 0-.124-.048-.056-.032-.216-.156l-.092.176q-.112.212-.152.308l-.12.368q-.104.248-.26.248l-.004-.092q0-.284.184-.672.036-.072.2-.372-.316-.172-.696-.172 0-.148.06-.216.064-.072.212-.072.136 0 .34.048l.2.048q.076-.024.208-.26.324-.568.44-.652.032.052.052.104.024.052.024.1zM196.324 191.848q0 .196-.148.44-.168.276-.348.276-.052 0-.088-.056-.032-.06-.032-.116 0-.072.152-.224.156-.156.156-.212 0-.036-.012-.072l-.016-.048q-.3.068-.612.344-.308.276-.468.312-.032-.088-.032-.18 0-.112.052-.236.036-.088.12-.212.14-.212.296-.48l.276-.484q.2-.344.292-.488.048-.072.084-.108.052-.048.124-.064.048.016.068.06.024.044.024.104 0 .136-.176.368-.32.416-.328.432-.18.272-.18.492l.008.04q.22-.108.26-.124.164-.068.28-.068.128 0 .188.088.06.084.06.216zM199.608 190.544q0 .188-.2.504-.128.2-.42.576-.292.372-.364.488l.3.096q.292.088.292.32-.12.02-.236.036l-.044-.004v-.032q-.064-.016-.104-.016-.076 0-.24.024-.164.024-.248.024-.108 0-.176-.04-.068-.04-.068-.144 0-.084.308-.476.576-.732.58-.74.312-.424.312-.568 0-.056-.04-.084-.036-.028-.148-.028-.076 0-.316.148-.116.072-.188.072l-.068-.012q-.024-.016-.052-.06-.028-.048-.028-.076 0-.168.324-.308.276-.12.48-.12.172 0 .264.128.08.112.08.292zM202.012 191.264q0 .484-.524.856-.48.34-.988.34-.252 0-.4-.128-.148-.128-.148-.372 0-.544.476-.944.452-.38 1.012-.38.284 0 .428.168.144.168.144.46zm-.244.092q0-.184-.208-.276-.156-.068-.372-.068-.316 0-.66.308-.344.308-.344.62 0 .128.064.184.068.052.204.052.392 0 .816-.216.5-.256.5-.604zM203.844 190.544q0 .188-.2.504-.128.2-.42.576-.292.372-.364.488l.3.096q.292.088.292.32-.12.02-.236.036l-.044-.004v-.032q-.064-.016-.104-.016-.076 0-.24.024-.164.024-.248.024-.108 0-.176-.04-.068-.04-.068-.144 0-.084.308-.476.576-.732.58-.74.312-.424.312-.568 0-.056-.04-.084-.036-.028-.148-.028-.076 0-.316.148-.116.072-.188.072l-.068-.012q-.024-.016-.052-.06-.028-.048-.028-.076 0-.168.324-.308.276-.12.48-.12.172 0 .264.128.08.112.08.292zM205.684 190.544q0 .188-.2.504-.128.2-.42.576-.292.372-.364.488l.3.096q.292.088.292.32-.12.02-.236.036l-.044-.004v-.032q-.064-.016-.104-.016-.076 0-.24.024-.164.024-.248.024-.108 0-.176-.04-.068-.04-.068-.144 0-.084.308-.476.576-.732.58-.74.312-.424.312-.568 0-.056-.04-.084-.036-.028-.148-.028-.076 0-.316.148-.116.072-.188.072l-.068-.012q-.024-.016-.052-.06-.028-.048-.028-.076 0-.168.324-.308.276-.12.48-.12.172 0 .264.128.08.112.08.292z"/>
    </g>
    <g fill="none" stroke="#f4f4f4">
        <g stroke-width="3">
            <path d="M461.952 1C399.628.97 337.317 3.572 275.018 8.9c-10.256.877-18.58 8.437-18.58 18.916v3.855l-117.185 5.907C64.904 41.325 18.156 66.071 10.26 172.054c-2.63 35.306-7.734 72.249-8.44 109.209-.71 37.145-1.857 80.897 1.145 118.798C6.14 440.147 14.28 474.52 49.472 500.818c28.441 21.252 64.402 27.308 103.948 27.081l311.175-1.78 311.174-1.78c78.836-.451 135.049-39.697 136.055-130.225 3.77-56.554 3.687-109.976.744-165.696l-3.97-47.773c-8.839-106.4-39.745-136.861-130.425-142.318L667.538 31.67v-3.855c0-10.479-8.322-18.06-18.58-18.916C586.61 3.693 524.275 1.03 461.952 1z"/>
            <path d="M461.952 1C399.628.97 337.317 3.572 275.018 8.9c-10.256.877-18.58 8.437-18.58 18.916v395.443c0 10.479 8.431 17.195 18.58 18.914 124.903 21.161 249.543 20.61 373.94 0 10.155-1.682 18.58-8.435 18.58-18.914V27.815c0-10.479-8.322-18.06-18.58-18.916C586.61 3.693 524.275 1.03 461.952 1z"/>
            <path d="M326.01 62.682H602.5a4.435 4.435 0 0 1 4.444 4.445v259.108a4.435 4.435 0 0 1-4.445 4.445H326.011a4.435 4.435 0 0 1-4.445-4.445V67.127a4.435 4.435 0 0 1 4.445-4.445z"/>
        </g>
        <g stroke-width="1.027">
            <path d="M129.184 88.5a5.5 5.5 0 0 1-5.5 5.5 5.5 5.5 0 0 1-5.5-5.5 5.5 5.5 0 0 1 5.5-5.5 5.5 5.5 0 0 1 5.5 5.5zM109.184 88.5a5.5 5.5 0 0 1-5.5 5.5 5.5 5.5 0 0 1-5.5-5.5 5.5 5.5 0 0 1 5.5-5.5 5.5 5.5 0 0 1 5.5 5.5zM148.51 88.494a5.5 5.5 0 0 1-5.5 5.5 5.5 5.5 0 0 1-5.5-5.5 5.5 5.5 0 0 1 5.5-5.5 5.5 5.5 0 0 1 5.5 5.5zM167.828 88.493a5.5 5.5 0 0 1-5.5 5.5 5.5 5.5 0 0 1-5.5-5.5 5.5 5.5 0 0 1 5.5-5.5 5.5 5.5 0 0 1 5.5 5.5zM187.518 88.41a5.5 5.5 0 0 1-5.5 5.5 5.5 5.5 0 0 1-5.5-5.5 5.5 5.5 0 0 1 5.5-5.5 5.5 5.5 0 0 1 5.5 5.5zM207.283 88.403a5.5 5.5 0 0 1-5.5 5.5 5.5 5.5 0 0 1-5.5-5.5 5.5 5.5 0 0 1 5.5-5.5 5.5 5.5 0 0 1 5.5 5.5zM129.16 106.876a5.5 5.5 0 0 1-5.5 5.5 5.5 5.5 0 0 1-5.5-5.5 5.5 5.5 0 0 1 5.5-5.5 5.5 5.5 0 0 1 5.5 5.5zM109.16 106.876a5.5 5.5 0 0 1-5.5 5.5 5.5 5.5 0 0 1-5.5-5.5 5.5 5.5 0 0 1 5.5-5.5 5.5 5.5 0 0 1 5.5 5.5zM148.487 106.871a5.5 5.5 0 0 1-5.5 5.5 5.5 5.5 0 0 1-5.5-5.5 5.5 5.5 0 0 1 5.5-5.5 5.5 5.5 0 0 1 5.5 5.5zM167.804 106.87a5.5 5.5 0 0 1-5.5 5.5 5.5 5.5 0 0 1-5.5-5.5 5.5 5.5 0 0 1 5.5-5.5 5.5 5.5 0 0 1 5.5 5.5zM187.494 106.786a5.5 5.5 0 0 1-5.5 5.5 5.5 5.5 0 0 1-5.5-5.5 5.5 5.5 0 0 1 5.5-5.5 5.5 5.5 0 0 1 5.5 5.5zM207.259 106.78a5.5 5.5 0 0 1-5.5 5.5 5.5 5.5 0 0 1-5.5-5.5 5.5 5.5 0 0 1 5.5-5.5 5.5 5.5 0 0 1 5.5 5.5zM129.312 125.784a5.5 5.5 0 0 1-5.5 5.5 5.5 5.5 0 0 1-5.5-5.5 5.5 5.5 0 0 1 5.5-5.5 5.5 5.5 0 0 1 5.5 5.5zM109.312 125.784a5.5 5.5 0 0 1-5.5 5.5 5.5 5.5 0 0 1-5.5-5.5 5.5 5.5 0 0 1 5.5-5.5 5.5 5.5 0 0 1 5.5 5.5zM148.639 125.779a5.5 5.5 0 0 1-5.5 5.5 5.5 5.5 0 0 1-5.5-5.5 5.5 5.5 0 0 1 5.5-5.5 5.5 5.5 0 0 1 5.5 5.5zM167.956 125.778a5.5 5.5 0 0 1-5.5 5.5 5.5 5.5 0 0 1-5.5-5.5 5.5 5.5 0 0 1 5.5-5.5 5.5 5.5 0 0 1 5.5 5.5zM187.646 125.694a5.5 5.5 0 0 1-5.5 5.5 5.5 5.5 0 0 1-5.5-5.5 5.5 5.5 0 0 1 5.5-5.5 5.5 5.5 0 0 1 5.5 5.5zM207.411 125.687a5.5 5.5 0 0 1-5.5 5.5 5.5 5.5 0 0 1-5.5-5.5 5.5 5.5 0 0 1 5.5-5.5 5.5 5.5 0 0 1 5.5 5.5zM129.288 144.16a5.5 5.5 0 0 1-5.5 5.5 5.5 5.5 0 0 1-5.5-5.5 5.5 5.5 0 0 1 5.5-5.5 5.5 5.5 0 0 1 5.5 5.5zM109.288 144.16a5.5 5.5 0 0 1-5.5 5.5 5.5 5.5 0 0 1-5.5-5.5 5.5 5.5 0 0 1 5.5-5.5 5.5 5.5 0 0 1 5.5 5.5zM148.615 144.155a5.5 5.5 0 0 1-5.5 5.5 5.5 5.5 0 0 1-5.5-5.5 5.5 5.5 0 0 1 5.5-5.5 5.5 5.5 0 0 1 5.5 5.5zM167.933 144.154a5.5 5.5 0 0 1-5.5 5.5 5.5 5.5 0 0 1-5.5-5.5 5.5 5.5 0 0 1 5.5-5.5 5.5 5.5 0 0 1 5.5 5.5zM187.622 144.07a5.5 5.5 0 0 1-5.5 5.5 5.5 5.5 0 0 1-5.5-5.5 5.5 5.5 0 0 1 5.5-5.5 5.5 5.5 0 0 1 5.5 5.5zM207.387 144.064a5.5 5.5 0 0 1-5.5 5.5 5.5 5.5 0 0 1-5.5-5.5 5.5 5.5 0 0 1 5.5-5.5 5.5 5.5 0 0 1 5.5 5.5zM129.16 162.875a5.5 5.5 0 0 1-5.5 5.5 5.5 5.5 0 0 1-5.5-5.5 5.5 5.5 0 0 1 5.5-5.5 5.5 5.5 0 0 1 5.5 5.5zM109.16 162.875a5.5 5.5 0 0 1-5.5 5.5 5.5 5.5 0 0 1-5.5-5.5 5.5 5.5 0 0 1 5.5-5.5 5.5 5.5 0 0 1 5.5 5.5zM148.487 162.87a5.5 5.5 0 0 1-5.5 5.5 5.5 5.5 0 0 1-5.5-5.5 5.5 5.5 0 0 1 5.5-5.5 5.5 5.5 0 0 1 5.5 5.5zM167.804 162.87a5.5 5.5 0 0 1-5.5 5.5 5.5 5.5 0 0 1-5.5-5.5 5.5 5.5 0 0 1 5.5-5.5 5.5 5.5 0 0 1 5.5 5.5zM187.494 162.786a5.5 5.5 0 0 1-5.5 5.5 5.5 5.5 0 0 1-5.5-5.5 5.5 5.5 0 0 1 5.5-5.5 5.5 5.5 0 0 1 5.5 5.5zM207.259 162.779a5.5 5.5 0 0 1-5.5 5.5 5.5 5.5 0 0 1-5.5-5.5 5.5 5.5 0 0 1 5.5-5.5 5.5 5.5 0 0 1 5.5 5.5zM129.312 181.783a5.5 5.5 0 0 1-5.5 5.5 5.5 5.5 0 0 1-5.5-5.5 5.5 5.5 0 0 1 5.5-5.5 5.5 5.5 0 0 1 5.5 5.5zM109.312 181.783a5.5 5.5 0 0 1-5.5 5.5 5.5 5.5 0 0 1-5.5-5.5 5.5 5.5 0 0 1 5.5-5.5 5.5 5.5 0 0 1 5.5 5.5zM148.639 181.778a5.5 5.5 0 0 1-5.5 5.5 5.5 5.5 0 0 1-5.5-5.5 5.5 5.5 0 0 1 5.5-5.5 5.5 5.5 0 0 1 5.5 5.5zM167.956 181.777a5.5 5.5 0 0 1-5.5 5.5 5.5 5.5 0 0 1-5.5-5.5 5.5 5.5 0 0 1 5.5-5.5 5.5 5.5 0 0 1 5.5 5.5zM187.646 181.693a5.5 5.5 0 0 1-5.5 5.5 5.5 5.5 0 0 1-5.5-5.5 5.5 5.5 0 0 1 5.5-5.5 5.5 5.5 0 0 1 5.5 5.5zM207.411 181.686a5.5 5.5 0 0 1-5.5 5.5 5.5 5.5 0 0 1-5.5-5.5 5.5 5.5 0 0 1 5.5-5.5 5.5 5.5 0 0 1 5.5 5.5zM129.288 200.16a5.5 5.5 0 0 1-5.5 5.5 5.5 5.5 0 0 1-5.5-5.5 5.5 5.5 0 0 1 5.5-5.5 5.5 5.5 0 0 1 5.5 5.5zM109.288 200.16a5.5 5.5 0 0 1-5.5 5.5 5.5 5.5 0 0 1-5.5-5.5 5.5 5.5 0 0 1 5.5-5.5 5.5 5.5 0 0 1 5.5 5.5zM148.615 200.155a5.5 5.5 0 0 1-5.5 5.5 5.5 5.5 0 0 1-5.5-5.5 5.5 5.5 0 0 1 5.5-5.5 5.5 5.5 0 0 1 5.5 5.5zM167.933 200.154a5.5 5.5 0 0 1-5.5 5.5 5.5 5.5 0 0 1-5.5-5.5 5.5 5.5 0 0 1 5.5-5.5 5.5 5.5 0 0 1 5.5 5.5zM187.622 200.07a5.5 5.5 0 0 1-5.5 5.5 5.5 5.5 0 0 1-5.5-5.5 5.5 5.5 0 0 1 5.5-5.5 5.5 5.5 0 0 1 5.5 5.5zM207.387 200.063a5.5 5.5 0 0 1-5.5 5.5 5.5 5.5 0 0 1-5.5-5.5 5.5 5.5 0 0 1 5.5-5.5 5.5 5.5 0 0 1 5.5 5.5z" stroke-width="1.4999232299999998"/>
        </g>
        <g stroke-width="1.5">
            <path d="M230.429 313.36a82.817 81.94 0 0 1-82.817 81.94 82.817 81.94 0 0 1-82.818-81.94 82.817 81.94 0 0 1 82.818-81.94 82.817 81.94 0 0 1 82.817 81.94zM724.843 318.34l58.69-58.69c14.374-14.373 37.517-14.373 51.891 0 14.374 14.375 14.374 37.519 0 51.893l-58.69 58.69c-14.374 14.373-37.517 14.373-51.891 0-14.374-14.375-14.374-37.518 0-51.892zM713.716 134.57l22.647-22.647c6.707-6.707 17.505-6.707 24.212 0s6.707 17.505 0 24.212l-22.647 22.647c-6.706 6.707-17.505 6.707-24.212 0s-6.707-17.505 0-24.212zM792.039 134.325l22.647-22.647c6.706-6.707 17.505-6.707 24.212 0s6.707 17.505 0 24.212l-22.647 22.647c-6.707 6.706-17.505 6.706-24.212 0s-6.707-17.506 0-24.212z"/>
        </g>
        <g stroke-width="3">
            <path d="M776.31 345.295a26.958 26.958 0 0 1-26.958 26.959 26.958 26.958 0 0 1-26.958-26.959 26.958 26.958 0 0 1 26.958-26.958 26.958 26.958 0 0 1 26.959 26.958zM837.83 284.828a26.958 26.958 0 0 1-26.958 26.958 26.958 26.958 0 0 1-26.958-26.958 26.958 26.958 0 0 1 26.958-26.959 26.958 26.958 0 0 1 26.958 26.959z"/>
            <path d="M272.696 772.605h25.6a8.572 8.572 0 0 1 8.591 8.591v.033a8.572 8.572 0 0 1-8.59 8.591h-25.601a8.572 8.572 0 0 1-8.591-8.591v-.033a8.572 8.572 0 0 1 8.59-8.59zM327.684 828.54h25.6a8.572 8.572 0 0 1 8.591 8.59v.033a8.572 8.572 0 0 1-8.59 8.591h-25.601a8.572 8.572 0 0 1-8.591-8.591v-.033a8.572 8.572 0 0 1 8.59-8.59z" transform="matrix(.697 -.71707 .70928 .70492 -15.853 -210.855)"/>
            <path d="M218.89 313.435a71.078 71.078 0 0 1-71.077 71.078 71.078 71.078 0 0 1-71.079-71.078 71.078 71.078 0 0 1 71.079-71.079 71.078 71.078 0 0 1 71.078 71.079z"/>
            <path d="M137.022 247.711a6.508 6.508 0 0 0-6.521 6.522v42.12H88.38a6.506 6.506 0 0 0-6.521 6.52v21.188a6.508 6.508 0 0 0 6.522 6.521H130.5v42.121a6.508 6.508 0 0 0 6.521 6.522h21.188a6.508 6.508 0 0 0 6.521-6.522v-42.12h42.12a6.508 6.508 0 0 0 6.52-6.522v-21.188a6.506 6.506 0 0 0-6.52-6.52h-42.12v-42.12a6.508 6.508 0 0 0-6.521-6.522z"/>
            <g stroke-width="6.926">
                <path d="m155.288 267.119-7.494.153-7.494.153 3.614-6.567 3.615-6.566 3.88 6.413zM139.855 356.487l7.494-.153 7.494-.153-3.615 6.567-3.614 6.566-3.88-6.413zM104.18 305.85l.153 7.493.153 7.494-6.566-3.614-6.567-3.615 6.414-3.88zM194.168 321.367l-.153-7.494-.153-7.494 6.567 3.614 6.566 3.615-6.414 3.88z" stroke-width="2.9999968999999997"/>
            </g>
        </g>
    </g>
</svg>
