<svg height="354.085" viewBox="0 0 1162.194 778.988" width="528.27" xmlns="http://www.w3.org/2000/svg">
    <g fill="#f4f4f4" fill-opacity=".5" stroke-width="2.2">
        <path d="M1086.16 532.919q0 .704-.17 1.185-.252.716-.81.716-.369 0-.774-.17-.487-.206-.534-.505.165 0 .388.059.516.135.645.135.499 0 .751-.5.2-.398.2-.955 0-.393-.259-1.12-.252-.734-.252-1.022 0-.088.047-.14.053-.06.14-.06.23 0 .447 1.057.182.892.182 1.32zM1088.42 533.517q0 .599-.347.939-.346.34-.956.34-.335 0-.516-.158-.182-.159-.182-.487 0-.464.604-.933.575-.446 1.062-.446.223 0 .293.276.041.158.041.47zm-.359.164q0-.07-.018-.134-.012-.07-.047-.159-.094.065-.31.317-.112.129-.194.188 0-.112.023-.182.047-.1.076-.17-.258 0-.54.217-.276.217-.276.47 0 .17.188.17.358 0 .692-.177.405-.211.405-.54zM1090.836 533.758q0 .287-.217.645-.246.405-.51.405-.076 0-.13-.082-.046-.088-.046-.17 0-.106.223-.329.228-.229.228-.31 0-.054-.018-.106l-.023-.07q-.44.099-.897.504-.452.405-.687.457-.047-.129-.047-.264 0-.164.076-.346.053-.129.176-.31.206-.312.434-.705l.405-.71q.294-.504.429-.715.07-.106.123-.159.076-.07.182-.094.07.024.1.088.035.065.035.153 0 .2-.258.54-.47.61-.482.633-.264.4-.264.722l.013.059q.322-.159.38-.182.241-.1.412-.1.187 0 .275.129.088.123.088.317zM1093.558 533.412q0 .399-.193.85-.211.499-.522.687-.065-.077-.112-.17-.04-.094-.04-.188 0-.1.293-.593.129-.217.117-.381l-.01-.076q-.217.064-.751.393-.528.322-1.068.657-.082 0-.152-.059-.065-.064-.065-.14 0-.124.393-.828.117-.211.422-.733.094.123.123.275.03.147.03.352v.135q.54-.322.844-.487.335-.181.458-.181.082 0 .152.187.076.188.076.3zM1098.657 534.55q0 .105-.094.164-.089.053-.2.053-.1 0-.252-.024-.346-.052-.446-.052-.176 0-.692.04-.294.024-.423.024-.358 0-.358-.358 0-.34.223-.974.124-.357.464-1.173.305-.733.387-1.032.029-.094.047-.124.047-.07.117-.07.112 0 .188.164.076.159.076.288 0 .205-.24.692-.241.481-.47.944-.252.552-.252.84 0 .146.123.205.088.04.258.04.13 0 .446-.028.317-.036.422-.036.264 0 .434.077.241.105.241.34zM1100.839 533.517q0 .599-.346.939-.346.34-.956.34-.335 0-.517-.158-.182-.159-.182-.487 0-.464.605-.933.575-.446 1.061-.446.223 0 .294.276.04.158.04.47zm-.358.164q0-.07-.018-.134-.012-.07-.047-.159-.094.065-.31.317-.112.129-.194.188 0-.112.024-.182.047-.1.076-.17-.259 0-.54.217-.276.217-.276.47 0 .17.188.17.358 0 .692-.177.405-.211.405-.54zM1103.309 533.394q0 .188-.1.399-.094.211-.24.352l-.01-.082q0-.07.017-.217.018-.147.018-.217 0-.1-.029-.147-.029-.053-.123-.053-.276 0-.686.428l-.886.933q-.035 0-.07-.006-.088-.023-.118-.029.018-.211.147-.47.346-.697.358-.744l.07-.276q.023-.088.064-.182.047-.1.106-.176.064-.082.164-.123l.059.704.387-.317q.258-.205.446-.205t.305.123q.117.123.117.305zM1106.19 532.713q0 .247-.658.652-.633.387-.92.387-.136 0-.183-.094-.04-.094-.04-.264v-.158q.392 0 .715-.118.323-.117.563-.387-.176-.064-.358-.064-.428 0-.909.328-.528.358-.528.763 0 .387.528.54.082.023.992.164.533.082.533.287 0 .088-.193.141-.194.059-.493.059-.751 0-1.185-.23-.575-.304-.575-.979 0-.704.704-1.12.598-.352 1.361-.352.229 0 .416.105.23.13.23.34zM1108.524 531.663q0 .13-.31.54-.312.41-.312.628 0 .111.13.223.293.258.293.317 0 .076-.053.146-.047.07-.123.07-.064 0-.182-.07-.082-.047-.317-.229l-.135.259q-.164.31-.223.451l-.176.54q-.152.364-.381.364l-.01-.135q0-.417.27-.986.053-.105.293-.545-.464-.253-1.02-.253 0-.217.087-.316.094-.106.311-.106.2 0 .499.07.146.036.293.07.112-.034.305-.38.475-.834.645-.957.047.076.076.153.035.076.035.146zM1110.69 533.758q0 .287-.218.645-.246.405-.51.405-.076 0-.13-.082-.046-.088-.046-.17 0-.106.223-.329.228-.229.228-.31 0-.054-.018-.106l-.024-.07q-.44.099-.897.504-.452.405-.687.457-.047-.129-.047-.264 0-.164.076-.346.053-.129.176-.31.206-.312.435-.705l.404-.71q.294-.504.429-.715.07-.106.123-.159.076-.07.182-.094.07.024.1.088.035.065.035.153 0 .2-.258.54-.47.61-.481.633-.264.4-.264.722l.012.059q.322-.159.38-.182.241-.1.412-.1.187 0 .275.129.088.123.088.317zM1115.506 531.845q0 .276-.294.74-.187.293-.616.844-.428.546-.534.716l.44.14q.429.13.429.47-.176.03-.346.053l-.065-.006v-.047q-.094-.024-.153-.024-.111 0-.352.036-.24.035-.364.035-.158 0-.258-.059t-.1-.211q0-.123.452-.698.845-1.074.85-1.085.458-.622.458-.834 0-.082-.059-.123-.053-.04-.217-.04-.111 0-.463.216-.17.106-.276.106l-.1-.018q-.035-.023-.076-.088-.041-.07-.041-.111 0-.247.475-.452.405-.176.704-.176.253 0 .387.188.118.164.118.428zM1119.032 532.901q0 .71-.769 1.256-.704.498-1.45.498-.369 0-.586-.187-.217-.188-.217-.546 0-.798.698-1.385.663-.557 1.485-.557.416 0 .627.247.212.246.212.674zm-.358.135q0-.27-.305-.405-.23-.1-.546-.1-.464 0-.968.452-.505.452-.505.91 0 .187.094.27.1.076.3.076.575 0 1.196-.317.734-.375.734-.886zM1121.718 531.845q0 .276-.293.74-.188.293-.616.844-.428.546-.534.716l.44.14q.429.13.429.47-.176.03-.347.053l-.065-.006v-.047q-.094-.024-.152-.024-.112 0-.352.036-.24.035-.364.035-.158 0-.258-.059t-.1-.211q0-.123.452-.698.845-1.074.85-1.085.458-.622.458-.834 0-.082-.059-.123-.053-.04-.217-.04-.112 0-.464.216-.17.106-.275.106l-.1-.018q-.035-.023-.076-.088-.041-.07-.041-.111 0-.247.475-.452.405-.176.704-.176.252 0 .387.188.118.164.118.428zM1124.417 531.845q0 .276-.293.74-.188.293-.616.844-.429.546-.534.716l.44.14q.428.13.428.47-.176.03-.346.053l-.065-.006v-.047q-.094-.024-.152-.024-.112 0-.352.036-.241.035-.364.035-.159 0-.258-.059-.1-.059-.1-.211 0-.123.451-.698.845-1.074.851-1.085.458-.622.458-.834 0-.082-.06-.123-.052-.04-.216-.04-.112 0-.464.216-.17.106-.276.106l-.1-.018q-.035-.023-.076-.088-.04-.07-.04-.111 0-.247.475-.452.404-.176.704-.176.252 0 .387.188.117.164.117.428z"/>
    </g>
    <g stroke="#f4f4f4">
        <g stroke-width="4.4">
            <g fill="none" transform="translate(-24.802 -76.874)">
                <path d="M807.795 232.041a8.02 8.02 0 0 0-1.846.232c-.37-.103-.734-.228-1.138-.228H356.656a4.28 4.28 0 0 0-4.289 4.289v318.535a4.28 4.28 0 0 0 4.29 4.29H804.81a4.28 4.28 0 0 0 4.289-4.29v-80.56h286.88a7.987 7.987 0 0 0 8.004-8.004V240.043a7.986 7.986 0 0 0-8.003-8.002z"/>
                <rect height="307.277" ry="3.951" width="437.682" x="361.89" y="242.76"/>
                <rect height="284.479" ry="3.985" width="330" x="414.411" y="254.386"/>
                <path d="M85.19 432.806h159.99v55.625H85.19zM87.644 508.838h159.99v55.625H87.644z"/>
                <path d="M155.867 441.641h50.843v37.329h-50.843zM157.734 517.779h50.844v37.328h-50.844z"/>
                <path d="M1134.067 168.242h51.929v326.149h-51.929zM42.922 77.874h1125.722c9.484 0 17.12 7.636 17.12 17.12v742.747c0 9.485-7.636 17.121-17.12 17.121H42.922a17.083 17.083 0 0 1-17.12-17.12V94.994c0-9.485 7.635-17.12 17.12-17.12zm1110.319 416.819v103.414H59.556V121.959h1093.685v46.525M395.462 816.97v.989H59.589v-219.82h335.873m.298 220.102 212.095-202.38 545.276-.251.11-17.504"/>
            </g>
            <ellipse cx="162.949" cy="623.316" fill="none" rx="94.156" ry="94.272"/>
            <g fill="#fff" transform="translate(-24.802 -76.874)">
                <rect height="8.465" ry="3.034" width="4.861" x="184.925" y="610.978"/>
                <rect height="8.465" ry="3.034" width="4.861" x="184.925" y="780.978"/>
                <rect height="8.465" ry="3.034" transform="rotate(90)" width="4.861" x="697.631" y="-276.726"/>
                <rect height="8.465" ry="3.034" transform="rotate(90)" width="4.861" x="697.631" y="-106.726"/>
                <rect height="8.465" ry="3.034" transform="rotate(135)" width="4.861" x="359.982" y="-548.875"/>
                <rect height="8.465" ry="3.034" transform="rotate(135)" width="4.861" x="359.925" y="-715.441"/>
                <g transform="rotate(-135)">
                    <rect height="8.465" ry="3.034" width="4.861" x="-630.155" y="-449.889"/>
                    <rect height="8.465" ry="3.034" width="4.861" x="-630.188" y="-283.34"/>
                </g>
            </g>
        </g>
        <g stroke-width="2">
            <g stroke-width="4.4">
                <g fill="none">
                    <path d="M1046.13 456.26h48.627v21.613h-48.627zM936.13 456.26h48.627v21.613H936.13zM936.343 565.137h48.098v41.097h-48.098zM1046.409 565.137h48.097v41.097h-48.097zM1046.409 669.136h48.097v41.098h-48.097zM936.342 669.136h48.097v41.098h-48.097z"/>
                    <circle cx="162.508" cy="623.425" r="66.163"/>
                </g>
                <g fill="#f4f4f4" stroke="none">
                    <path d="m162.607 566.353 2.88 4.987 2.879 4.987h-11.518l2.88-4.987zM162.607 679.652l-2.88-4.987-2.879-4.987h11.518l-2.88 4.987zM105.957 623.002l4.988-2.879 4.987-2.88v11.518l-4.987-2.88zM219.257 623.002l-4.988 2.88-4.987 2.88v-11.518l4.987 2.879z"/>
                </g>
            </g>
            <g fill="#f4f4f4" stroke="none">
                <rect height="29.044" ry="3.676" width="14.573" x="135.756" y="369.509"/>
                <rect height="29.044" ry="3.676" width="14.573" x="163.892" y="445.061"/>
            </g>
        </g>
    </g>
</svg>
