<svg version="1.2" baseProfile="tiny" xmlns="http://www.w3.org/2000/svg" width="598.189" height="350.26" xml:space="preserve">
    <path fill="#F4F4F4" d="M237.668 208.918a3.17 3.17 0 0 0-3.158 3.158v11.21c0 .039.002-.002 0 .021h-11.23a3.17 3.17 0 0 0-3.158 3.158v12.066a3.17 3.17 0 0 0 3.158 3.158h11.23c.004.031 0-.012 0 .042v11.189a3.17 3.17 0 0 0 3.158 3.158h12.066a3.171 3.171 0 0 0 3.159-3.158v-11.189c0-.076-.005-.016 0-.042h11.229a3.17 3.17 0 0 0 3.159-3.158v-12.066a3.17 3.17 0 0 0-3.159-3.158h-11.209c-.032 0 0 .003-.021 0v-11.23a3.171 3.171 0 0 0-3.158-3.158h-12.066v-.001zm0 1.339h12.066c1.011 0 1.82.809 1.82 1.819v11.272c0 .391.163.813.48 1.046.318.231.634.251.879.251h11.209a1.81 1.81 0 0 1 1.82 1.819v12.067a1.81 1.81 0 0 1-1.82 1.819h-11.229c-.354-.001-.774.074-1.046.397s-.293.679-.293.983v11.188a1.81 1.81 0 0 1-1.82 1.819h-12.066a1.811 1.811 0 0 1-1.82-1.819V241.73c0-.252.029-.558-.209-.9-.236-.341-.678-.481-1.065-.481H223.28a1.81 1.81 0 0 1-1.819-1.819v-12.067a1.81 1.81 0 0 1 1.819-1.819h11.293c.297 0 .656-.06.941-.355.285-.295.335-.663.335-1.004v-11.209a1.81 1.81 0 0 1 1.819-1.819z"/>
    <path fill="#F4F4F4" d="M239.09 210.344a3.17 3.17 0 0 0-3.158 3.158v11.209c0 .038.002-.001 0 .021h-11.23a3.171 3.171 0 0 0-3.158 3.158v9.223a3.171 3.171 0 0 0 3.158 3.158h11.23c.004.031 0-.012 0 .042v11.188a3.17 3.17 0 0 0 3.158 3.158h9.243c1.734 0 3.137-1.424 3.137-3.158v-11.188c0-.077-.004-.018 0-.042h11.23a3.171 3.171 0 0 0 3.159-3.158v-9.223a3.17 3.17 0 0 0-3.159-3.158h-11.209c-.033 0-.001.003-.021 0v-11.23c0-1.735-1.402-3.158-3.137-3.158h-9.243zm0 1.338h9.243c1.011 0 1.799.808 1.799 1.82v11.272c0 .39.162.813.48 1.045.319.232.636.252.879.252H262.7c1.012 0 1.82.808 1.82 1.819v9.223a1.812 1.812 0 0 1-1.82 1.819h-11.229c-.354 0-.774.074-1.045.397-.271.323-.294.678-.294.983V251.5c0 1.011-.788 1.819-1.799 1.819h-9.243a1.812 1.812 0 0 1-1.82-1.819v-11.188c0-.252.029-.558-.209-.899-.238-.342-.7-.481-1.087-.481h-11.272a1.81 1.81 0 0 1-1.819-1.819v-9.223a1.81 1.81 0 0 1 1.819-1.819h11.272c.297 0 .676-.06.962-.355.285-.297.334-.663.334-1.005v-11.209c0-1.013.809-1.82 1.82-1.82zM280.331 269.858a3.554 3.554 0 0 0-1.381.335l-15.309 7.302c-1.787.852-2.547 3.021-1.694 4.811a3.599 3.599 0 0 0 4.789 1.693l15.309-7.299c1.786-.852 2.566-3.001 1.716-4.789-.64-1.34-2.029-2.11-3.431-2.05l.001-.003zm.063 1.339a2.26 2.26 0 0 1 2.154 1.275 2.25 2.25 0 0 1-1.066 3.013l-15.309 7.298a2.25 2.25 0 0 1-3.013-1.066 2.247 2.247 0 0 1 1.067-3.011l15.309-7.3a2.19 2.19 0 0 1 .858-.209z"/>
    <path fill="#F4F4F4" d="M280.23 267.416a6.29 6.29 0 0 0-2.447.544l-15.037 6.713c-3.188 1.425-4.624 5.177-3.2 8.364 1.425 3.188 5.198 4.626 8.387 3.2l15.016-6.712c3.188-1.426 4.625-5.178 3.2-8.366-1.069-2.391-3.45-3.791-5.919-3.743zm.041 1.339a4.978 4.978 0 0 1 4.664 2.949 4.996 4.996 0 0 1-2.53 6.608l-15.019 6.705a4.997 4.997 0 0 1-6.608-2.53 4.997 4.997 0 0 1 2.53-6.608l15.016-6.713a5.025 5.025 0 0 1 1.945-.419l.002.008zM312.12 269.858a3.54 3.54 0 0 0-1.38.335l-15.31 7.299c-1.786.853-2.546 3.022-1.693 4.811a3.599 3.599 0 0 0 4.788 1.694l15.31-7.299a3.6 3.6 0 0 0 1.694-4.79 3.612 3.612 0 0 0-3.409-2.05zm.063 1.339a2.26 2.26 0 0 1 2.154 1.275 2.251 2.251 0 0 1-1.066 3.013l-15.31 7.298a2.248 2.248 0 0 1-3.011-1.066 2.246 2.246 0 0 1 1.066-3.011l15.309-7.3a2.19 2.19 0 0 1 .858-.209z"/>
    <path fill="#F4F4F4" d="M312.02 267.416a6.29 6.29 0 0 0-2.447.544l-15.038 6.713a6.34 6.34 0 0 0-3.199 8.364c1.425 3.188 5.178 4.626 8.366 3.2l15.036-6.712c3.188-1.426 4.624-5.178 3.2-8.366-1.069-2.391-3.45-3.791-5.918-3.743zm.021 1.339a4.978 4.978 0 0 1 4.663 2.949 4.987 4.987 0 0 1-2.511 6.608l-15.037 6.705a4.974 4.974 0 0 1-6.587-2.53c-1.13-2.528-.02-5.479 2.51-6.608l15.036-6.713a4.922 4.922 0 0 1 1.925-.419l.001.008zM321.911 295.959a2.812 2.812 0 0 0-2.174 4.141l12.695 23.11a2.79 2.79 0 0 0 4.892-2.678l-12.682-23.129a2.807 2.807 0 0 0-2.74-1.442l.009-.002zm.691 1.381c.356.104.683.354.877.711l12.676 23.115a1.45 1.45 0 0 1-.564 1.987 1.448 1.448 0 0 1-1.986-.565l-12.674-23.13a1.448 1.448 0 0 1 .564-1.986 1.448 1.448 0 0 1 1.107-.126v-.006zM331.025 290.967a2.812 2.812 0 0 0-2.174 4.141l12.674 23.109c.74 1.35 2.458 1.87 3.807 1.13a2.813 2.813 0 0 0 1.108-3.806l-12.674-23.131a2.813 2.813 0 0 0-2.741-1.443zm.692 1.38c.356.104.682.354.877.711l12.674 23.131c.393.714.129 1.575-.585 1.967a1.45 1.45 0 0 1-1.987-.565l-12.673-23.131a1.455 1.455 0 0 1 .585-1.986c.357-.198.75-.232 1.109-.127zM340.127 285.987a2.777 2.777 0 0 0-1.066.314 2.813 2.813 0 0 0-1.108 3.806l12.694 23.131a2.806 2.806 0 0 0 3.785 1.107c.01-.004.013-.016.021-.021 1.33-.747 1.845-2.444 1.108-3.785l-12.694-23.131c-.554-1.01-1.653-1.529-2.74-1.421zm.69 1.36c.358.104.683.354.879.711l12.674 23.131c.393.715.15 1.596-.565 1.986a1.456 1.456 0 0 1-1.986-.585l-12.674-23.131a1.449 1.449 0 0 1 .564-1.986c.358-.198.752-.23 1.108-.126zM349.242 280.988a2.793 2.793 0 0 0-1.066.313 2.816 2.816 0 0 0-1.108 3.807l12.674 23.131a2.816 2.816 0 0 0 3.807 1.108 2.814 2.814 0 0 0 1.109-3.807l-12.683-23.115a2.81 2.81 0 0 0-2.74-1.443l.007.006zm.691 1.381c.357.104.683.333.879.689l12.674 23.131a1.455 1.455 0 0 1-.585 1.986 1.456 1.456 0 0 1-1.987-.586l-12.669-23.128c-.392-.714-.128-1.574.585-1.966.358-.196.751-.23 1.109-.126h-.006zM358.338 275.989a2.786 2.786 0 0 0-1.046.335c-.006.003-.016-.004-.021 0v.021c-1.329.746-1.844 2.424-1.108 3.765l12.695 23.13a2.814 2.814 0 0 0 3.807 1.108 2.817 2.817 0 0 0 1.108-3.807l-12.696-23.108a2.815 2.815 0 0 0-2.739-1.444zm.711 1.38c.357.104.661.333.857.69l12.674 23.131a1.45 1.45 0 0 1-.564 1.987 1.458 1.458 0 0 1-1.987-.586l-12.675-23.103a1.45 1.45 0 0 1 .564-1.987 1.501 1.501 0 0 1 1.129-.125l.002-.007zM367.459 270.99a2.812 2.812 0 0 0-1.066.334 2.815 2.815 0 0 0-1.108 3.807l12.675 23.109a2.813 2.813 0 0 0 3.806 1.108 2.814 2.814 0 0 0 1.108-3.807l-12.683-23.107a2.806 2.806 0 0 0-2.739-1.443l.007-.001zm.689 1.38c.359.104.684.354.879.712l12.676 23.115a1.457 1.457 0 0 1-.585 1.987 1.456 1.456 0 0 1-1.987-.586l-12.669-23.109a1.456 1.456 0 0 1 .585-1.986c.358-.197.751-.23 1.109-.126l-.008-.007zM291.227 324.047c-.232 0-.479.077-.69.251a1.014 1.014 0 0 0-.355.753v4.058c0 .263-.042.478.063.795a.983.983 0 0 0 .941.648h1.213a.945.945 0 0 0 .606-.23c.167-.156.217-.344.251-.481.069-.274.063-.477.063-.731v-4.058a.996.996 0 0 0-.229-.669c-.198-.228-.513-.335-.773-.335h-1.09v-.001zm.293 1.339h.46v3.723c-.001.065.002.052 0 .104h-.46c-.004-.056 0-.031 0-.104v-3.723zM295.349 324.047c-.572 0-1.024.439-1.024 1.004v4.058c0 .295-.009.516.083.795a.915.915 0 0 0 .858.648h1.337c.214 0 .473-.13.607-.293a.969.969 0 0 0 .209-.439c.052-.244.042-.449.042-.711v-4.058c0-.24-.087-.495-.272-.689a1.003 1.003 0 0 0-.711-.313l-1.129-.002zm.313 1.339h.46v3.723c0 .057.002.057 0 .104h-.46c-.003-.053 0-.035 0-.104v-3.723z"/>
    <path fill="#F4F4F4" d="M207.656 41.776c-.438 0-.877.272-1.066.607-.189.333-.23.681-.23 1.004V323.25c0 4.022 3.276 7.299 7.299 7.299h74.225c.355 0 .702-.229.879-.503.175-.273.229-.587.229-.94v-4.058c0-.229-.073-.529-.293-.731s-.51-.271-.752-.271h-10.625c-1.91 0-3.451-1.521-3.451-3.431s1.541-3.45 3.451-3.45h21.269a3.445 3.445 0 0 1 3.451 3.45 3.422 3.422 0 0 1-2.593 3.326v.021c-.31.081-.506.325-.586.522s-.104.377-.104.564v4.058c.001.222-.023.427.063.732a.98.98 0 0 0 .314.502c.184.146.419.209.606.209h49.439c23.18 0 41.975-18.816 41.975-41.996V43.17c0-.325-.092-.643-.313-.92a1.318 1.318 0 0 0-1.004-.481H207.658l-.002.007zm.084 1.339h182.053c.006.013.021.022.021.063v245.383c0 22.456-18.18 40.657-40.636 40.657h-49.085c-.002-.053.001-.04 0-.104v-3.995c1.901-.636 3.284-2.391 3.284-4.497 0-2.632-2.156-4.789-4.79-4.789h-21.269c-2.634 0-4.789 2.157-4.789 4.789 0 2.634 2.155 4.769 4.789 4.769h10.331v3.723c0 .087-.011.069-.021.104h-73.971a5.943 5.943 0 0 1-5.962-5.956V43.398c0-.153.028-.229.042-.272l.003-.011z"/>
    <path fill="#F4F4F4" d="M335.63 224.331c-6.817 0-12.359 5.542-12.359 12.359 0 6.818 5.542 12.36 12.359 12.36 6.818 0 12.36-5.542 12.36-12.36 0-6.817-5.542-12.359-12.36-12.359zm0 1.338c6.095 0 11.021 4.927 11.021 11.021s-4.927 11.022-11.021 11.022-11.021-4.927-11.021-11.022a11.01 11.01 0 0 1 11.021-11.021z"/>
    <path fill="#F4F4F4" d="M335.63 225.188c-6.344 0-11.503 5.158-11.503 11.503 0 6.344 5.158 11.503 11.503 11.503s11.503-5.159 11.503-11.503-5.158-11.503-11.503-11.503zm0 1.337a10.155 10.155 0 0 1 10.164 10.165c0 5.62-4.542 10.164-10.164 10.164-5.62 0-10.164-4.543-10.164-10.164s4.543-10.165 10.164-10.165zM366.121 210.363c-6.818 0-12.36 5.542-12.36 12.36 0 6.819 5.542 12.36 12.36 12.36s12.36-5.541 12.36-12.36c0-6.818-5.542-12.36-12.36-12.36zm0 1.338c6.095 0 11.021 4.928 11.021 11.022s-4.927 11.021-11.021 11.021-11.022-4.927-11.022-11.021a11.013 11.013 0 0 1 11.022-11.022z"/>
    <path fill="#F4F4F4" d="M366.121 211.22c-6.345 0-11.504 5.159-11.504 11.504 0 6.344 5.159 11.502 11.504 11.502 6.344 0 11.502-5.157 11.502-11.502s-5.158-11.504-11.502-11.504zm0 1.339c5.62 0 10.164 4.544 10.164 10.165 0 5.62-4.544 10.164-10.164 10.164a10.156 10.156 0 0 1-10.165-10.164 10.156 10.156 0 0 1 10.165-10.165zM226.939 50.288c-3.892 0-7.048 3.177-7.048 7.069V162.24c0 3.893 3.156 7.068 7.048 7.068H353.09c5.978 0 11.936-3.028 16.418-7.549 4.484-4.518 7.509-10.561 7.509-16.685V57.357c0-3.893-3.179-7.068-7.066-7.068l-143.012-.001zm0 1.338h143.01a5.725 5.725 0 0 1 5.73 5.73v87.71c0 5.682-2.857 11.436-7.132 15.748-4.274 4.312-9.935 7.153-15.455 7.153H226.941a5.707 5.707 0 0 1-5.709-5.73V57.355c0-3.169 2.541-5.731 5.709-5.731l-.002.002z"/>
    <path fill="#F4F4F4" d="M250.509 63.799c-.95 0-1.735.786-1.735 1.736v88.066c0 .95.785 1.735 1.735 1.735h96.832c.95 0 1.736-.786 1.736-1.735V65.535c0-.95-.786-1.736-1.736-1.736h-96.832zm0 1.338h96.832c.227 0 .397.171.397.397V153.6a.389.389 0 0 1-.397.398h-96.832a.388.388 0 0 1-.397-.398V65.535a.388.388 0 0 1 .397-.398zM232.754 91.74c-1.866 0-3.388 1.522-3.388 3.388s1.522 3.388 3.388 3.388c1.865 0 3.388-1.522 3.388-3.388s-1.523-3.388-3.388-3.388zM234.175 25.024a.916.916 0 0 0-.607.251.989.989 0 0 0-.23.397 1.905 1.905 0 0 0-.083.606v2.991c0 .24.087.495.272.69.185.195.474.293.732.293h1.109c.572 0 1.045-.417 1.045-.983v-2.991c0-.218-.001-.456-.146-.732-.146-.276-.549-.523-.879-.523h-1.213v.001zm.418 1.339h.481v2.551h-.481v-2.551zM238.253 25.024a.872.872 0 0 0-.794.648 2.298 2.298 0 0 0-.063.606v2.991c0 .181.054.42.251.648.197.228.512.335.774.335h1.088c.231 0 .477-.057.689-.23a1.01 1.01 0 0 0 .355-.752v-2.991c0-.182-.013-.41-.125-.669-.112-.26-.484-.586-.878-.586h-1.297zm.481 1.339h.48v2.551h-.48v-2.551z"/>
    <path fill="#F4F4F4" d="M223.927 25.024a1.413 1.413 0 0 0-1.379 1.422v12.966c0 .607.501 1.108 1.108 1.108h150.096c.44 0 .699-.34.816-.606s.167-.542.167-.899V26.53c0-.437-.125-.866-.418-1.15-.287-.284-.661-.355-.956-.355H242.819c-.288 0-.703.136-.9.439-.196.304-.187.575-.187.816v2.991c0 .228.093.508.313.711.22.203.489.271.731.271h16.313a3.446 3.446 0 0 1 3.451 3.451 3.445 3.445 0 0 1-3.451 3.451h-26.958c-1.91 0-3.45-1.54-3.45-3.451a3.463 3.463 0 0 1 2.614-3.346.904.904 0 0 0 .584-.522c.08-.197.084-.377.084-.565V26.28c0-.282-.067-.571-.251-.816a1.136 1.136 0 0 0-.879-.439h-6.906zm149.469 1.318c-.034-.032 0-.026 0 .188v12.485c0 .104-.011.105-.021.167H223.88V26.447c0 .019.002-.061.021-.084.019-.023 0 0 .021 0h6.692v2.844c-1.893.639-3.284 2.396-3.284 4.497a4.805 4.805 0 0 0 4.79 4.79h26.958a4.804 4.804 0 0 0 4.79-4.79 4.805 4.805 0 0 0-4.79-4.79h-16.02v-2.551h130.294c.089 0 .075.012.041-.021h.003zM214.579 25.024c-4.53 0-8.219 3.689-8.219 8.219v6.127c0 .282.12.653.397.878.278.226.602.272.92.272h12.297c.606 0 1.108-.501 1.108-1.108V26.447c0-.346-.104-.654-.313-.92s-.568-.502-.984-.502h-5.206v-.001zm0 1.339h5.124c.013.024.042.058.042.084v12.736h-12.046v-5.939a6.872 6.872 0 0 1 6.88-6.881zM377.726 25.024c-.415 0-.753.235-.962.502s-.335.574-.335.92v12.966c0 .607.522 1.108 1.13 1.108h12.297c.318 0 .642-.046.92-.272.278-.225.377-.596.377-.878v-6.127c0-4.53-3.667-8.22-8.191-8.22h-5.229l-.007.001zm.083 1.339h5.146a6.854 6.854 0 0 1 6.859 6.881v5.939h-12.046V26.447c0-.026.029-.06.041-.084z"/>
    <path fill="#F4F4F4" d="M206.736 39.811v2.614h1.338v-2.614h-1.338zM220.393 26.049v1.339h2.845v-1.339h-2.845zM231.226 26.049v1.339h2.845v-1.339h-2.845zM235.681 26.049v1.339h2.489v-1.339h-2.489zM239.906 26.049v1.339h2.488v-1.339h-2.488zM374.278 26.049v1.339h2.845v-1.339h-2.845zM389.19 39.853v2.488h1.337v-2.488h-1.337zM234.489 31.299l-.502.271-3.158 1.736-.523.293.523.292 3.158 1.736.502.272v-4.6zM256.992 31.299v4.6l.48-.272 3.158-1.736.544-.293-.544-.292-3.158-1.736-.48-.271zM243.712 226.024c-3.565 0-6.483 2.896-6.483 6.462s2.918 6.483 6.483 6.483 6.463-2.918 6.463-6.483-2.898-6.462-6.463-6.462zm0 1.338a5.109 5.109 0 0 1 5.124 5.124c0 2.843-2.282 5.145-5.124 5.145a5.144 5.144 0 0 1-5.145-5.145c0-2.841 2.303-5.124 5.145-5.124z"/>
</svg>
