<svg version="1.2" width="598.189" height="350.26" xml:space="preserve" xmlns="http://www.w3.org/2000/svg">
    <path fill="#f4f4f4" d="M92.737 186.535a3.17 3.17 0 0 0-3.158 3.158v11.21c0 .039.002-.002 0 .02H78.35a3.17 3.17 0 0 0-3.158 3.159v12.066a3.17 3.17 0 0 0 3.158 3.158h11.23c.004.03 0-.012 0 .042v11.189a3.17 3.17 0 0 0 3.158 3.158h12.066a3.171 3.171 0 0 0 3.16-3.158v-11.19c0-.075-.006-.015 0-.041h11.228a3.17 3.17 0 0 0 3.16-3.158v-12.066a3.17 3.17 0 0 0-3.16-3.158h-11.209c-.032 0 0 .003-.02 0v-11.23a3.171 3.171 0 0 0-3.159-3.158H92.737Zm0 1.339h12.066c1.011 0 1.82.809 1.82 1.819v11.272c0 .39.163.813.48 1.046.318.23.634.25.88.25h11.208a1.81 1.81 0 0 1 1.82 1.82v12.067a1.81 1.81 0 0 1-1.82 1.819h-11.229c-.354-.001-.774.074-1.046.397s-.293.679-.293.983v11.188a1.81 1.81 0 0 1-1.82 1.819H92.737a1.811 1.811 0 0 1-1.82-1.82v-11.187c0-.252.03-.558-.209-.9-.236-.341-.678-.481-1.065-.481H78.35a1.81 1.81 0 0 1-1.819-1.82V204.08a1.81 1.81 0 0 1 1.82-1.82h11.292c.297 0 .656-.06.941-.354.285-.295.335-.663.335-1.004v-11.21a1.81 1.81 0 0 1 1.82-1.818z"/>
    <path fill="#f4f4f4" d="M94.16 187.96A3.17 3.17 0 0 0 91 191.12v11.209c0 .038.002-.001 0 .02h-11.23a3.171 3.171 0 0 0-3.158 3.159v9.223a3.171 3.171 0 0 0 3.158 3.158h11.23c.004.03 0-.012 0 .042v11.188a3.17 3.17 0 0 0 3.158 3.158h9.243c1.734 0 3.137-1.424 3.137-3.158V217.93c0-.077-.004-.018 0-.042h11.23a3.171 3.171 0 0 0 3.16-3.158v-9.223a3.17 3.17 0 0 0-3.16-3.158H106.56c-.033 0 0 .003-.02 0v-11.23c0-1.735-1.403-3.158-3.138-3.158zm0 1.339h9.242c1.011 0 1.8.808 1.8 1.82v11.272c0 .39.161.813.48 1.045.318.232.635.252.878.252h11.21c1.011 0 1.82.808 1.82 1.819v9.223a1.812 1.812 0 0 1-1.82 1.819h-11.23c-.354 0-.774.074-1.045.397-.27.323-.294.678-.294.983v11.188c0 1.01-.788 1.819-1.799 1.819H94.16a1.812 1.812 0 0 1-1.82-1.82V217.93c0-.252.03-.558-.209-.9-.238-.341-.7-.48-1.087-.48H79.771a1.81 1.81 0 0 1-1.819-1.82v-9.222a1.81 1.81 0 0 1 1.82-1.82h11.271c.297 0 .676-.06.962-.354.285-.297.334-.663.334-1.005v-11.21c0-1.012.81-1.82 1.82-1.82zM135.4 247.475a3.554 3.554 0 0 0-1.38.335l-15.31 7.302c-1.787.852-2.547 3.02-1.694 4.81a3.599 3.599 0 0 0 4.79 1.694l15.308-7.3c1.786-.851 2.566-3 1.716-4.788-.64-1.34-2.029-2.11-3.43-2.05zm.063 1.339a2.26 2.26 0 0 1 2.154 1.275 2.25 2.25 0 0 1-1.066 3.013l-15.309 7.298a2.25 2.25 0 0 1-3.013-1.066 2.247 2.247 0 0 1 1.067-3.011l15.31-7.3a2.19 2.19 0 0 1 .857-.21z"/>
    <path fill="#f4f4f4" d="M135.3 245.033a6.29 6.29 0 0 0-2.448.544l-15.037 6.713c-3.188 1.425-4.624 5.177-3.2 8.364 1.425 3.188 5.198 4.626 8.387 3.2l15.016-6.712c3.188-1.426 4.625-5.178 3.2-8.366-1.069-2.391-3.45-3.791-5.919-3.743zm.04 1.339a4.978 4.978 0 0 1 4.664 2.949 4.996 4.996 0 0 1-2.53 6.608l-15.019 6.705a4.997 4.997 0 0 1-6.608-2.53 4.997 4.997 0 0 1 2.53-6.608l15.016-6.713a5.025 5.025 0 0 1 1.945-.42zM167.19 247.475a3.54 3.54 0 0 0-1.38.335l-15.31 7.299c-1.787.853-2.547 3.022-1.694 4.81a3.599 3.599 0 0 0 4.788 1.695l15.31-7.3a3.6 3.6 0 0 0 1.694-4.79 3.612 3.612 0 0 0-3.409-2.05zm.062 1.339a2.26 2.26 0 0 1 2.154 1.275 2.251 2.251 0 0 1-1.066 3.013l-15.31 7.298a2.248 2.248 0 0 1-3.01-1.066 2.246 2.246 0 0 1 1.065-3.011l15.31-7.3a2.19 2.19 0 0 1 .857-.21z"/>
    <path fill="#f4f4f4" d="M167.09 245.033a6.29 6.29 0 0 0-2.448.544l-15.038 6.713a6.34 6.34 0 0 0-3.199 8.364c1.425 3.188 5.178 4.626 8.366 3.2l15.036-6.712c3.188-1.426 4.624-5.178 3.2-8.366-1.069-2.391-3.45-3.791-5.918-3.743zm.02 1.339a4.978 4.978 0 0 1 4.663 2.949 4.987 4.987 0 0 1-2.51 6.608l-15.038 6.705a4.974 4.974 0 0 1-6.587-2.53c-1.13-2.528-.02-5.48 2.51-6.608l15.036-6.713a4.922 4.922 0 0 1 1.925-.42zM176.98 273.576a2.812 2.812 0 0 0-2.174 4.141l12.695 23.11a2.79 2.79 0 0 0 4.892-2.678l-12.682-23.13a2.807 2.807 0 0 0-2.74-1.441zm.691 1.38c.356.105.683.355.877.712l12.676 23.115a1.45 1.45 0 0 1-.564 1.987 1.448 1.448 0 0 1-1.986-.565L176 277.075a1.448 1.448 0 0 1 .564-1.986 1.448 1.448 0 0 1 1.107-.126zM186.094 268.584a2.812 2.812 0 0 0-2.174 4.141l12.674 23.109c.74 1.35 2.458 1.87 3.807 1.13a2.813 2.813 0 0 0 1.108-3.806l-12.674-23.131a2.813 2.813 0 0 0-2.74-1.443zm.692 1.38c.356.104.682.354.877.71l12.674 23.132c.393.714.13 1.575-.585 1.967a1.45 1.45 0 0 1-1.987-.565l-12.673-23.131a1.455 1.455 0 0 1 .585-1.986c.357-.198.75-.232 1.11-.127zM195.196 263.604a2.777 2.777 0 0 0-1.066.314 2.813 2.813 0 0 0-1.108 3.806l12.694 23.13a2.806 2.806 0 0 0 3.785 1.108c.01-.004.013-.016.021-.021 1.33-.747 1.845-2.444 1.108-3.785l-12.694-23.131c-.554-1.01-1.653-1.53-2.74-1.421zm.69 1.36c.358.104.683.354.88.71l12.673 23.132c.393.715.15 1.596-.565 1.986a1.456 1.456 0 0 1-1.986-.585l-12.674-23.131a1.449 1.449 0 0 1 .564-1.986c.358-.198.752-.23 1.108-.126zM204.311 258.605a2.793 2.793 0 0 0-1.066.313 2.816 2.816 0 0 0-1.108 3.807l12.674 23.13a2.816 2.816 0 0 0 3.807 1.109 2.814 2.814 0 0 0 1.11-3.807l-12.684-23.115a2.81 2.81 0 0 0-2.74-1.443zm.691 1.38c.357.105.683.334.88.69l12.673 23.13a1.455 1.455 0 0 1-.585 1.987 1.456 1.456 0 0 1-1.987-.586l-12.669-23.128c-.392-.714-.128-1.574.585-1.966.358-.196.751-.23 1.11-.126zM213.407 253.606a2.786 2.786 0 0 0-1.046.335c-.006.003-.016-.004-.02 0v.02c-1.33.747-1.845 2.425-1.109 3.766l12.695 23.13a2.814 2.814 0 0 0 3.807 1.108 2.817 2.817 0 0 0 1.108-3.807l-12.696-23.108a2.815 2.815 0 0 0-2.739-1.444zm.711 1.38c.357.104.661.333.857.69l12.674 23.13a1.45 1.45 0 0 1-.564 1.988 1.458 1.458 0 0 1-1.987-.586l-12.675-23.103a1.45 1.45 0 0 1 .564-1.987 1.501 1.501 0 0 1 1.13-.125zM222.528 248.607a2.812 2.812 0 0 0-1.066.334 2.815 2.815 0 0 0-1.108 3.807l12.675 23.109a2.813 2.813 0 0 0 3.806 1.108 2.814 2.814 0 0 0 1.108-3.807L225.26 250.05a2.806 2.806 0 0 0-2.739-1.443zm.69 1.38c.358.104.683.354.878.712l12.676 23.115a1.457 1.457 0 0 1-.585 1.987 1.456 1.456 0 0 1-1.987-.586l-12.669-23.11a1.456 1.456 0 0 1 .585-1.985c.358-.197.751-.23 1.11-.126zM146.296 301.664c-.232 0-.479.077-.69.25a1.014 1.014 0 0 0-.355.754v4.058c0 .263-.042.478.063.795a.983.983 0 0 0 .941.648h1.213a.945.945 0 0 0 .606-.23c.167-.156.217-.344.251-.481.07-.274.063-.477.063-.731v-4.058a.996.996 0 0 0-.229-.67c-.198-.227-.513-.334-.773-.334h-1.09zm.293 1.339h.46v3.723c0 .065.002.052 0 .104h-.46c-.004-.056 0-.031 0-.104zM150.418 301.664c-.572 0-1.024.439-1.024 1.004v4.058c0 .295-.009.516.083.795a.915.915 0 0 0 .858.648h1.337c.214 0 .473-.13.607-.293a.969.969 0 0 0 .21-.44c.051-.243.041-.448.041-.71v-4.058c0-.24-.087-.495-.272-.69a1.003 1.003 0 0 0-.71-.312zm.313 1.339h.46v3.723c0 .057.002.057 0 .104h-.46c-.003-.053 0-.035 0-.104z"/>
    <path fill="#f4f4f4" d="M62.725 19.393c-.438 0-.877.272-1.066.607-.189.333-.23.68-.23 1.004v279.863c0 4.022 3.276 7.299 7.3 7.299h74.224c.355 0 .702-.23.88-.503.174-.273.228-.587.228-.94v-4.058c0-.23-.073-.53-.293-.731a1.113 1.113 0 0 0-.752-.271h-10.625a3.429 3.429 0 0 1-3.45-3.431c0-1.91 1.54-3.45 3.45-3.45h21.27a3.445 3.445 0 0 1 3.45 3.45 3.422 3.422 0 0 1-2.593 3.326v.02a.895.895 0 0 0-.586.523 1.44 1.44 0 0 0-.104.564v4.058c.001.222-.023.427.063.732a.98.98 0 0 0 .314.502c.184.146.42.209.606.209h49.44c23.18 0 41.974-18.816 41.974-41.996V20.787c0-.325-.092-.643-.313-.92a1.318 1.318 0 0 0-1.004-.481H62.728Zm.084 1.339h182.053c.006.013.021.022.021.063v245.383c0 22.456-18.18 40.657-40.636 40.657h-49.085c-.002-.053.001-.04 0-.104v-3.995c1.901-.636 3.284-2.391 3.284-4.497 0-2.632-2.156-4.79-4.79-4.79h-21.269c-2.634 0-4.789 2.158-4.789 4.79 0 2.634 2.155 4.769 4.79 4.769h10.33v3.723c0 .087-.01.069-.02.104H68.725a5.943 5.943 0 0 1-5.962-5.956V21.015c0-.153.028-.23.042-.272z"/>
    <path fill="#f4f4f4" d="M190.7 201.948c-6.818 0-12.36 5.542-12.36 12.359 0 6.818 5.542 12.36 12.36 12.36 6.817 0 12.36-5.542 12.36-12.36 0-6.817-5.543-12.36-12.36-12.36zm0 1.338a11.011 11.011 0 0 1 11.02 11.02 11.013 11.013 0 0 1-11.02 11.023 11.012 11.012 0 0 1-11.022-11.022 11.01 11.01 0 0 1 11.021-11.021z"/>
    <path fill="#f4f4f4" d="M190.7 202.805c-6.345 0-11.504 5.158-11.504 11.503 0 6.344 5.158 11.503 11.503 11.503s11.503-5.16 11.503-11.503c0-6.344-5.158-11.503-11.503-11.503zm0 1.337a10.155 10.155 0 0 1 10.163 10.165c0 5.62-4.542 10.164-10.164 10.164a10.155 10.155 0 0 1-10.164-10.164 10.155 10.155 0 0 1 10.164-10.165zM221.19 187.98c-6.818 0-12.36 5.542-12.36 12.36 0 6.819 5.542 12.36 12.36 12.36s12.36-5.541 12.36-12.36c0-6.818-5.542-12.36-12.36-12.36zm0 1.338a11.012 11.012 0 0 1 11.021 11.022 11.012 11.012 0 0 1-11.02 11.02 11.013 11.013 0 0 1-11.023-11.02 11.013 11.013 0 0 1 11.022-11.022z"/>
    <path fill="#f4f4f4" d="M221.19 188.837c-6.345 0-11.504 5.159-11.504 11.504 0 6.344 5.16 11.502 11.504 11.502 6.344 0 11.502-5.157 11.502-11.502 0-6.345-5.158-11.504-11.502-11.504zm0 1.339c5.62 0 10.164 4.544 10.164 10.165 0 5.62-4.544 10.164-10.164 10.164a10.156 10.156 0 0 1-10.165-10.164 10.156 10.156 0 0 1 10.165-10.165zM82.008 27.905c-3.892 0-7.048 3.177-7.048 7.069v104.883c0 3.893 3.156 7.068 7.048 7.068H208.16c5.978 0 11.936-3.028 16.418-7.55 4.484-4.517 7.51-10.56 7.51-16.684V34.974c0-3.893-3.18-7.068-7.067-7.068zm0 1.338h143.01a5.725 5.725 0 0 1 5.73 5.73v87.71c0 5.682-2.857 11.436-7.132 15.748-4.274 4.312-9.935 7.153-15.455 7.153H82.011a5.707 5.707 0 0 1-5.71-5.73V34.972c0-3.17 2.541-5.731 5.71-5.731z"/>
    <path fill="#f4f4f4" d="M105.578 41.416c-.95 0-1.735.786-1.735 1.736v88.066c0 .95.785 1.735 1.735 1.735h96.832c.95 0 1.736-.786 1.736-1.735V43.152c0-.95-.786-1.736-1.736-1.736zm0 1.338h96.832c.227 0 .397.17.397.397v88.066a.389.389 0 0 1-.397.398h-96.832a.388.388 0 0 1-.397-.398V43.152a.388.388 0 0 1 .397-.398zM87.823 69.357a3.395 3.395 0 0 0-3.388 3.388 3.395 3.395 0 0 0 3.388 3.388 3.395 3.395 0 0 0 3.388-3.388 3.395 3.395 0 0 0-3.388-3.388zM89.244 2.64a.916.916 0 0 0-.607.252.989.989 0 0 0-.23.397 1.905 1.905 0 0 0-.083.606v2.99c0 .24.087.496.272.69.185.196.474.294.732.294h1.11c.571 0 1.044-.417 1.044-.983V3.895c0-.218 0-.456-.146-.732-.146-.276-.549-.523-.879-.523h-1.213zm.418 1.34h.481v2.55h-.48zM93.322 2.64a.872.872 0 0 0-.794.649 2.298 2.298 0 0 0-.063.606v2.99c0 .182.054.42.251.649.197.228.512.335.774.335h1.088c.231 0 .477-.057.69-.23a1.01 1.01 0 0 0 .354-.752V3.896c0-.182-.013-.41-.125-.67-.112-.26-.484-.585-.878-.585zm.481 1.34h.48v2.55h-.48z"/>
    <path fill="#f4f4f4" d="M78.996 2.64a1.413 1.413 0 0 0-1.379 1.423v12.966c0 .607.501 1.108 1.108 1.108h150.096c.44 0 .7-.34.816-.606.117-.266.167-.542.167-.9V4.148c0-.437-.125-.866-.418-1.15-.287-.284-.66-.355-.956-.355H97.888c-.288 0-.703.136-.9.439-.196.304-.187.575-.187.816v2.99c0 .229.093.509.313.712.22.203.49.27.731.27h16.313a3.446 3.446 0 0 1 3.451 3.452 3.445 3.445 0 0 1-3.45 3.45H87.2c-1.91 0-3.45-1.54-3.45-3.45a3.463 3.463 0 0 1 2.614-3.346.904.904 0 0 0 .584-.522c.08-.197.084-.377.084-.565V3.897c0-.282-.067-.571-.25-.816a1.136 1.136 0 0 0-.88-.44H78.996zm149.47 1.319c-.035-.032 0-.026 0 .188v12.485c0 .104-.012.105-.022.167H78.95V4.064c0 .019.002-.061.021-.084.02-.023 0 0 .021 0h6.692v2.844C83.79 7.463 82.4 9.22 82.4 11.32a4.805 4.805 0 0 0 4.79 4.79h26.958a4.804 4.804 0 0 0 4.79-4.79 4.805 4.805 0 0 0-4.79-4.79h-16.02V3.98h130.294c.09 0 .075.012.041-.021zM69.648 2.64c-4.53 0-8.219 3.69-8.219 8.22v6.127c0 .282.12.653.397.878.278.226.602.272.92.272h12.297c.606 0 1.108-.501 1.108-1.108V4.064a1.45 1.45 0 0 0-.313-.92c-.209-.266-.568-.502-.984-.502h-5.206zm0 1.34h5.124c.013.024.042.058.042.084V16.8H62.768v-5.94a6.872 6.872 0 0 1 6.88-6.88zM232.795 2.64c-.415 0-.753.236-.962.503a1.472 1.472 0 0 0-.335.92v12.966c0 .607.522 1.108 1.13 1.108h12.297c.318 0 .642-.046.92-.272.278-.225.377-.596.377-.878V10.86c0-4.53-3.667-8.22-8.19-8.22h-5.23zm.083 1.34h5.146a6.854 6.854 0 0 1 6.86 6.88v5.94h-12.047V4.064c0-.026.03-.06.041-.084z"/>
    <path fill="#f4f4f4" d="M61.805 17.428v2.614h1.338v-2.614zM75.462 3.666v1.339h2.845v-1.34zM86.295 3.666v1.339h2.845v-1.34zM90.75 3.666v1.339h2.49v-1.34zM94.975 3.666v1.339h2.488v-1.34zM229.347 3.666v1.339h2.845v-1.34zM244.26 17.47v2.488h1.336V17.47zM89.558 8.916l-.502.27-3.158 1.737-.523.293.523.292 3.158 1.736.502.272V9.48zM112.061 8.916v4.6l.48-.272 3.158-1.736.544-.293-.544-.292-3.158-1.736zM98.781 203.64c-3.565 0-6.483 2.897-6.483 6.463 0 3.566 2.918 6.483 6.483 6.483 3.565 0 6.463-2.918 6.463-6.483a6.468 6.468 0 0 0-6.463-6.462zm0 1.339a5.109 5.109 0 0 1 5.124 5.124c0 2.843-2.282 5.145-5.124 5.145a5.144 5.144 0 0 1-5.145-5.145c0-2.841 2.303-5.124 5.145-5.124zM349.64 225.864a3.17 3.17 0 0 0-3.158 3.158v11.21c0 .039.002-.002 0 .02h-11.23a3.17 3.17 0 0 0-3.158 3.159v12.066a3.17 3.17 0 0 0 3.158 3.158h11.23c.004.03 0-.012 0 .042v11.189a3.17 3.17 0 0 0 3.158 3.158h12.066a3.171 3.171 0 0 0 3.16-3.158v-11.19c0-.075-.006-.015 0-.041h11.228a3.17 3.17 0 0 0 3.16-3.158V243.41a3.17 3.17 0 0 0-3.16-3.158h-11.209c-.032 0 0 .003-.02 0v-11.23a3.171 3.171 0 0 0-3.159-3.158H349.64zm0 1.339h12.066c1.011 0 1.82.809 1.82 1.819v11.272c0 .39.163.813.48 1.046.318.23.634.25.88.25h11.208a1.81 1.81 0 0 1 1.82 1.82v12.067a1.81 1.81 0 0 1-1.82 1.819h-11.229c-.354-.001-.774.074-1.046.397s-.293.679-.293.983v11.188a1.81 1.81 0 0 1-1.82 1.819H349.64a1.811 1.811 0 0 1-1.82-1.82v-11.187c0-.252.03-.558-.209-.9-.236-.341-.678-.481-1.065-.481h-11.294a1.81 1.81 0 0 1-1.819-1.82V243.41a1.81 1.81 0 0 1 1.82-1.82h11.292c.297 0 .656-.06.941-.354.285-.295.335-.663.335-1.004v-11.21a1.81 1.81 0 0 1 1.82-1.818z"/>
    <path fill="#f4f4f4" d="M351.062 227.29a3.17 3.17 0 0 0-3.158 3.158v11.209c0 .038.002-.001 0 .02h-11.23a3.171 3.171 0 0 0-3.158 3.159v9.223a3.171 3.171 0 0 0 3.158 3.158h11.23c.004.03 0-.012 0 .042v11.188a3.17 3.17 0 0 0 3.158 3.158h9.243c1.734 0 3.137-1.424 3.137-3.158v-11.188c0-.077-.004-.018 0-.042h11.23a3.171 3.171 0 0 0 3.16-3.158v-9.223a3.17 3.17 0 0 0-3.16-3.158h-11.209c-.033 0 0 .003-.02 0v-11.23c0-1.735-1.403-3.158-3.138-3.158zm0 1.338h9.243c1.011 0 1.8.808 1.8 1.82v11.272c0 .39.161.813.48 1.045.318.232.635.252.878.252h11.21c1.011 0 1.82.808 1.82 1.819v9.223a1.812 1.812 0 0 1-1.82 1.819h-11.23c-.354 0-.774.074-1.045.397-.27.323-.294.678-.294.983v11.188c0 1.01-.788 1.819-1.799 1.819h-9.243a1.812 1.812 0 0 1-1.82-1.82v-11.187c0-.252.03-.558-.209-.9-.238-.341-.7-.48-1.087-.48h-11.272a1.81 1.81 0 0 1-1.819-1.82v-9.222a1.81 1.81 0 0 1 1.82-1.82h11.271c.297 0 .676-.06.962-.354.285-.297.334-.663.334-1.005v-11.21c0-1.012.81-1.82 1.82-1.82zM392.303 286.804a3.554 3.554 0 0 0-1.38.335l-15.31 7.302c-1.787.852-2.547 3.02-1.694 4.81a3.599 3.599 0 0 0 4.79 1.694l15.308-7.3c1.786-.851 2.566-3 1.716-4.788-.64-1.34-2.029-2.11-3.43-2.05zm.063 1.339a2.26 2.26 0 0 1 2.154 1.275 2.25 2.25 0 0 1-1.066 3.013l-15.309 7.298a2.25 2.25 0 0 1-3.013-1.066 2.247 2.247 0 0 1 1.067-3.011l15.31-7.3a2.19 2.19 0 0 1 .857-.21z"/>
    <path fill="#f4f4f4" d="M392.202 284.362a6.29 6.29 0 0 0-2.447.544l-15.037 6.713c-3.188 1.425-4.624 5.177-3.2 8.364 1.425 3.188 5.198 4.626 8.387 3.2l15.016-6.712c3.188-1.426 4.625-5.178 3.2-8.366-1.069-2.391-3.45-3.791-5.919-3.743zm.041 1.339a4.978 4.978 0 0 1 4.664 2.949 4.996 4.996 0 0 1-2.53 6.608l-15.019 6.705a4.997 4.997 0 0 1-6.608-2.53 4.997 4.997 0 0 1 2.53-6.608l15.016-6.713a5.025 5.025 0 0 1 1.945-.42zM424.092 286.804a3.54 3.54 0 0 0-1.38.335l-15.31 7.299c-1.786.853-2.546 3.022-1.693 4.81a3.599 3.599 0 0 0 4.788 1.695l15.31-7.3a3.6 3.6 0 0 0 1.694-4.79 3.612 3.612 0 0 0-3.409-2.05zm.063 1.339a2.26 2.26 0 0 1 2.154 1.275 2.251 2.251 0 0 1-1.066 3.013l-15.31 7.298a2.248 2.248 0 0 1-3.01-1.066 2.246 2.246 0 0 1 1.065-3.011l15.31-7.3a2.19 2.19 0 0 1 .857-.21z"/>
    <path fill="#f4f4f4" d="M423.992 284.362a6.29 6.29 0 0 0-2.447.544l-15.038 6.713a6.34 6.34 0 0 0-3.199 8.364c1.425 3.188 5.178 4.626 8.366 3.2l15.036-6.712c3.188-1.426 4.624-5.178 3.2-8.366-1.069-2.391-3.45-3.791-5.918-3.743zm.021 1.339a4.978 4.978 0 0 1 4.663 2.949 4.987 4.987 0 0 1-2.51 6.608l-15.038 6.705a4.974 4.974 0 0 1-6.587-2.53c-1.13-2.528-.02-5.48 2.51-6.608l15.036-6.713a4.922 4.922 0 0 1 1.925-.42zM433.883 312.905a2.812 2.812 0 0 0-2.174 4.141l12.695 23.11a2.79 2.79 0 0 0 4.892-2.678l-12.682-23.13a2.807 2.807 0 0 0-2.74-1.441zm.691 1.38c.356.105.683.355.877.712l12.676 23.115a1.45 1.45 0 0 1-.564 1.987 1.448 1.448 0 0 1-1.986-.565l-12.674-23.13a1.448 1.448 0 0 1 .564-1.986 1.448 1.448 0 0 1 1.107-.126zM442.997 307.913a2.812 2.812 0 0 0-2.174 4.141l12.674 23.109c.74 1.35 2.458 1.87 3.807 1.13a2.813 2.813 0 0 0 1.108-3.806l-12.674-23.131a2.813 2.813 0 0 0-2.74-1.443zm.692 1.38c.356.104.682.354.877.71l12.674 23.132c.393.714.13 1.575-.585 1.967a1.45 1.45 0 0 1-1.987-.565l-12.673-23.131a1.455 1.455 0 0 1 .585-1.986c.357-.198.75-.232 1.11-.127zM452.1 302.933a2.777 2.777 0 0 0-1.067.314 2.813 2.813 0 0 0-1.108 3.806l12.694 23.13a2.806 2.806 0 0 0 3.785 1.108c.01-.004.013-.016.021-.021 1.33-.747 1.845-2.444 1.108-3.785l-12.694-23.131c-.554-1.01-1.653-1.53-2.74-1.421zm.69 1.36c.357.104.682.354.878.71l12.674 23.132c.393.715.15 1.596-.565 1.986a1.456 1.456 0 0 1-1.986-.585l-12.674-23.131a1.449 1.449 0 0 1 .564-1.986c.358-.198.752-.23 1.108-.126zM461.214 297.934a2.793 2.793 0 0 0-1.066.313 2.816 2.816 0 0 0-1.108 3.807l12.674 23.13a2.816 2.816 0 0 0 3.807 1.109 2.814 2.814 0 0 0 1.11-3.807l-12.684-23.115a2.81 2.81 0 0 0-2.74-1.443zm.691 1.38c.357.105.683.334.88.69l12.673 23.13a1.455 1.455 0 0 1-.585 1.987 1.456 1.456 0 0 1-1.987-.586l-12.669-23.128c-.392-.714-.128-1.574.585-1.966.358-.196.751-.23 1.11-.126zM470.31 292.935a2.786 2.786 0 0 0-1.046.335c-.006.003-.016-.004-.02 0v.02c-1.33.747-1.845 2.425-1.109 3.766l12.695 23.13a2.814 2.814 0 0 0 3.807 1.108 2.817 2.817 0 0 0 1.108-3.807l-12.696-23.108a2.815 2.815 0 0 0-2.739-1.444zm.711 1.38c.357.104.661.333.857.69l12.674 23.13a1.45 1.45 0 0 1-.564 1.988 1.458 1.458 0 0 1-1.987-.586l-12.675-23.103a1.45 1.45 0 0 1 .564-1.987 1.501 1.501 0 0 1 1.13-.125zM479.431 287.936a2.812 2.812 0 0 0-1.066.334 2.815 2.815 0 0 0-1.108 3.807l12.675 23.109a2.813 2.813 0 0 0 3.806 1.108 2.814 2.814 0 0 0 1.108-3.807l-12.683-23.107a2.806 2.806 0 0 0-2.739-1.443zm.69 1.38c.358.104.683.354.878.712l12.676 23.115a1.457 1.457 0 0 1-.585 1.987 1.456 1.456 0 0 1-1.987-.586l-12.669-23.11a1.456 1.456 0 0 1 .585-1.985c.358-.197.751-.23 1.11-.126zM403.2 340.993c-.233 0-.48.077-.69.25a1.014 1.014 0 0 0-.356.754v4.058c0 .263-.042.478.063.795a.983.983 0 0 0 .941.648h1.213a.945.945 0 0 0 .606-.23c.167-.156.217-.344.251-.481.07-.274.063-.477.063-.731v-4.058a.996.996 0 0 0-.229-.67c-.198-.227-.513-.334-.773-.334h-1.09zm.292 1.339h.46v3.723c0 .065.002.052 0 .104h-.46c-.004-.056 0-.031 0-.104zM407.321 340.993c-.572 0-1.024.439-1.024 1.004v4.058c0 .295-.009.516.083.795a.915.915 0 0 0 .858.648h1.337c.214 0 .473-.13.607-.293a.969.969 0 0 0 .21-.44c.051-.243.041-.448.041-.71v-4.058c0-.24-.087-.495-.272-.69a1.003 1.003 0 0 0-.71-.312zm.313 1.339h.46v3.723c0 .057.002.057 0 .104h-.46c-.003-.053 0-.035 0-.104z"/>
    <path fill="#f4f4f4" d="M319.628 58.722c-.438 0-.877.272-1.066.607-.189.333-.23.68-.23 1.004v279.863c0 4.022 3.276 7.299 7.3 7.299h74.224c.355 0 .702-.23.88-.503.174-.273.228-.587.228-.94v-4.058c0-.23-.073-.53-.293-.731a1.113 1.113 0 0 0-.752-.271h-10.625a3.429 3.429 0 0 1-3.45-3.431c0-1.91 1.54-3.45 3.45-3.45h21.27a3.445 3.445 0 0 1 3.45 3.45 3.422 3.422 0 0 1-2.593 3.326v.02a.895.895 0 0 0-.586.523 1.44 1.44 0 0 0-.104.564v4.058c.001.222-.023.427.063.732a.98.98 0 0 0 .314.502c.184.146.42.209.606.209h49.44c23.18 0 41.974-18.816 41.974-41.996V60.116c0-.325-.092-.643-.313-.92a1.318 1.318 0 0 0-1.004-.481h-182.18zm.084 1.339h182.053c.006.013.021.022.021.063v245.383c0 22.456-18.18 40.657-40.636 40.657h-49.085c-.002-.053.001-.04 0-.104v-3.995c1.901-.636 3.284-2.391 3.284-4.497 0-2.632-2.156-4.79-4.79-4.79H389.29c-2.634 0-4.789 2.158-4.789 4.79 0 2.634 2.155 4.769 4.79 4.769h10.33v3.723c0 .087-.01.069-.02.104h-73.972a5.943 5.943 0 0 1-5.962-5.956V60.344c0-.153.028-.23.042-.272z"/>
    <path fill="#f4f4f4" d="M447.602 241.277c-6.817 0-12.359 5.542-12.359 12.359 0 6.818 5.542 12.36 12.36 12.36 6.817 0 12.36-5.542 12.36-12.36 0-6.817-5.543-12.36-12.36-12.36zm0 1.338a11.011 11.011 0 0 1 11.021 11.02 11.013 11.013 0 0 1-11.02 11.023 11.012 11.012 0 0 1-11.022-11.022 11.01 11.01 0 0 1 11.021-11.021z"/>
    <path fill="#f4f4f4" d="M447.602 242.134c-6.344 0-11.503 5.158-11.503 11.503 0 6.344 5.158 11.503 11.503 11.503s11.503-5.16 11.503-11.503c0-6.344-5.158-11.503-11.503-11.503zm0 1.337a10.155 10.155 0 0 1 10.164 10.165c0 5.62-4.542 10.164-10.164 10.164a10.155 10.155 0 0 1-10.164-10.164 10.155 10.155 0 0 1 10.164-10.165zM478.093 227.309c-6.818 0-12.36 5.542-12.36 12.36 0 6.819 5.542 12.36 12.36 12.36s12.36-5.541 12.36-12.36c0-6.818-5.542-12.36-12.36-12.36zm0 1.338a11.012 11.012 0 0 1 11.021 11.022 11.012 11.012 0 0 1-11.02 11.02 11.013 11.013 0 0 1-11.023-11.02 11.013 11.013 0 0 1 11.022-11.022z"/>
    <path fill="#f4f4f4" d="M478.093 228.166c-6.345 0-11.504 5.159-11.504 11.504 0 6.344 5.16 11.502 11.504 11.502 6.344 0 11.502-5.157 11.502-11.502 0-6.345-5.158-11.504-11.502-11.504zm0 1.339c5.62 0 10.164 4.544 10.164 10.165 0 5.62-4.544 10.164-10.164 10.164a10.156 10.156 0 0 1-10.165-10.164 10.156 10.156 0 0 1 10.165-10.165zM338.911 67.234c-3.892 0-7.048 3.177-7.048 7.069v104.883c0 3.893 3.156 7.068 7.048 7.068h126.151c5.978 0 11.936-3.028 16.418-7.55 4.484-4.517 7.51-10.56 7.51-16.684V74.303c0-3.893-3.18-7.068-7.067-7.068zm0 1.338h143.01a5.725 5.725 0 0 1 5.73 5.73v87.71c0 5.682-2.857 11.436-7.132 15.748-4.274 4.312-9.935 7.153-15.455 7.153h-126.15a5.707 5.707 0 0 1-5.71-5.73V74.3c0-3.17 2.541-5.731 5.71-5.731z"/>
    <path fill="#f4f4f4" d="M362.481 80.745c-.95 0-1.735.786-1.735 1.736v88.066c0 .95.785 1.735 1.735 1.735h96.832c.95 0 1.736-.786 1.736-1.735V82.48c0-.95-.786-1.736-1.736-1.736zm0 1.338h96.832c.227 0 .397.17.397.397v88.066a.389.389 0 0 1-.397.398h-96.832a.388.388 0 0 1-.397-.398V82.48a.388.388 0 0 1 .397-.398zM344.726 108.686a3.395 3.395 0 0 0-3.388 3.388 3.395 3.395 0 0 0 3.388 3.388 3.395 3.395 0 0 0 3.388-3.388 3.395 3.395 0 0 0-3.388-3.388zM346.147 41.97a.916.916 0 0 0-.607.25.989.989 0 0 0-.23.398 1.905 1.905 0 0 0-.083.606v2.99c0 .24.087.496.272.69.185.196.474.294.732.294h1.11c.571 0 1.044-.417 1.044-.983v-2.991c0-.218 0-.456-.146-.732-.146-.276-.549-.523-.879-.523h-1.213zm.418 1.339h.481v2.55h-.48zM350.225 41.97a.872.872 0 0 0-.794.648 2.298 2.298 0 0 0-.063.606v2.99c0 .182.054.42.251.649.197.228.512.335.774.335h1.088c.231 0 .477-.057.69-.23a1.01 1.01 0 0 0 .354-.752v-2.991c0-.182-.013-.41-.125-.67-.112-.26-.484-.585-.878-.585zm.481 1.339h.48v2.55h-.48z"/>
    <path fill="#f4f4f4" d="M335.9 41.97a1.413 1.413 0 0 0-1.38 1.422v12.966c0 .607.501 1.108 1.108 1.108h150.096c.44 0 .7-.34.816-.606.117-.266.167-.542.167-.9V43.477c0-.437-.125-.866-.418-1.15-.287-.284-.66-.355-.956-.355H354.791c-.288 0-.703.136-.9.439-.196.304-.187.575-.187.816v2.99c0 .229.093.509.313.712.22.203.49.27.731.27h16.313a3.446 3.446 0 0 1 3.451 3.452 3.445 3.445 0 0 1-3.45 3.45h-26.959c-1.91 0-3.45-1.54-3.45-3.45a3.463 3.463 0 0 1 2.614-3.346.904.904 0 0 0 .584-.522c.08-.197.084-.377.084-.565v-2.991c0-.282-.067-.571-.25-.816a1.136 1.136 0 0 0-.88-.44H335.9zm149.468 1.318c-.034-.032 0-.026 0 .188V55.96c0 .104-.01.105-.02.167H335.851V43.393c0 .019.002-.061.021-.084.02-.023 0 0 .021 0h6.692v2.844c-1.893.639-3.284 2.396-3.284 4.497a4.805 4.805 0 0 0 4.79 4.79h26.958a4.804 4.804 0 0 0 4.79-4.79 4.805 4.805 0 0 0-4.79-4.79h-16.02v-2.551h130.294c.09 0 .075.012.041-.021zM326.551 41.97c-4.53 0-8.219 3.689-8.219 8.219v6.127c0 .282.12.653.397.878.278.226.602.272.92.272h12.297c.606 0 1.108-.501 1.108-1.108V43.393a1.45 1.45 0 0 0-.313-.92c-.209-.266-.568-.502-.984-.502h-5.206zm0 1.339h5.124c.013.024.042.058.042.084v12.736h-12.046v-5.94a6.872 6.872 0 0 1 6.88-6.88zM489.698 41.97c-.415 0-.753.235-.962.502a1.472 1.472 0 0 0-.335.92v12.966c0 .607.522 1.108 1.13 1.108h12.297c.318 0 .642-.046.92-.272.278-.225.377-.596.377-.878v-6.127c0-4.53-3.667-8.22-8.19-8.22h-5.23zm.083 1.339h5.146a6.854 6.854 0 0 1 6.86 6.88v5.94H489.74V43.393c0-.026.03-.06.041-.084z"/>
    <path fill="#f4f4f4" d="M318.708 56.757v2.614h1.338v-2.614zM332.365 42.995v1.339h2.845v-1.34zM343.198 42.995v1.339h2.845v-1.34zM347.653 42.995v1.339h2.49v-1.34zM351.878 42.995v1.339h2.488v-1.34zM486.25 42.995v1.339h2.845v-1.34zM501.162 56.799v2.488h1.337v-2.488zM346.461 48.245l-.502.27-3.158 1.737-.523.293.523.292 3.158 1.736.502.272v-4.036zM368.964 48.245v4.6l.48-.272 3.158-1.736.544-.293-.544-.292-3.158-1.736zM355.684 242.97c-3.565 0-6.483 2.896-6.483 6.462s2.918 6.483 6.483 6.483c3.565 0 6.463-2.918 6.463-6.483a6.468 6.468 0 0 0-6.463-6.462zm0 1.338a5.109 5.109 0 0 1 5.124 5.124c0 2.843-2.282 5.145-5.124 5.145a5.144 5.144 0 0 1-5.145-5.145c0-2.841 2.303-5.124 5.145-5.124zM105.578 41.416c-.95 0-1.735.786-1.735 1.736v88.066c0 .95.785 1.735 1.735 1.735h96.832c.95 0 1.736-.786 1.736-1.735V43.152c0-.95-.786-1.736-1.736-1.736zm0 1.338h96.832c.227 0 .397.17.397.397v88.066a.389.389 0 0 1-.397.398h-96.832a.388.388 0 0 1-.397-.398V43.152a.388.388 0 0 1 .397-.398z"/>
</svg>
