<svg version="1.2" baseProfile="tiny" xmlns="http://www.w3.org/2000/svg" width="598.189" height="350.26" xml:space="preserve">
    <path fill="#F4F4F4" d="M239.236 13.811c-5.558 0-20.629 1.021-26.121 1.486-2.808.238-5.091.877-6.674 2.616-1.583 1.739-2.342 4.425-2.483 8.537-.143 4.143-.358 37.325-.532 71.382-.174 34.052-.311 68.884-.311 76.028 0 7.158.288 39.293.643 70.646.177 15.677.374 31.152.554 43.194.18 12.043.336 20.601.466 22.64.375 5.907 1.511 10.242 3.481 13.504 1.971 3.261 4.785 5.407 8.315 6.873 7.059 2.935 17.011 3.352 30.134 5.478 26.371 4.271 39.869 3.725 43.505 3.725h18.537c3.638 0 17.112.546 43.481-3.725 13.123-2.126 23.1-2.543 30.156-5.478 3.531-1.466 6.322-3.612 8.295-6.873 1.971-3.262 3.105-7.597 3.48-13.504.129-2.039.287-10.597.467-22.64.178-12.042.377-27.518.553-43.194.355-31.354.666-63.488.666-70.646 0-7.146-.158-41.98-.332-76.036-.186-34.048-.377-67.23-.52-71.375-.141-4.111-.922-6.797-2.504-8.537-1.59-1.739-3.867-2.378-6.678-2.616-5.492-.465-20.541-1.486-26.098-1.486H239.224h.012zm0 1.418h120.491c5.381 0 20.541 1.024 25.988 1.486 2.66.226 4.498.785 5.742 2.151s1.992 3.675 2.129 7.628c.135 3.921.336 37.304.51 71.353.174 34.051.332 68.883.332 76.008 0 7.118-.309 39.295-.664 70.646-.178 15.675-.375 31.132-.555 43.172-.18 12.039-.348 20.717-.465 22.573-.367 5.769-1.477 9.87-3.283 12.86-1.807 2.989-4.297 4.913-7.627 6.298-6.66 2.766-16.623 3.249-29.822 5.388-26.278 4.256-39.483 3.703-43.263 3.703h-18.537c-3.778 0-16.983.553-43.261-3.703l-.111-.022c-13.138-2.121-23.075-2.607-29.713-5.365-3.33-1.385-5.843-3.309-7.65-6.298-1.806-2.99-2.915-7.092-3.282-12.86-.111-1.854-.278-10.53-.458-22.571-.18-12.042-.376-27.496-.554-43.177-.355-31.35-.644-63.527-.644-70.644 0-7.125.137-41.957.311-76.008.174-34.053.397-67.435.532-71.353.136-3.953.886-6.262 2.129-7.628 1.244-1.366 3.082-1.925 5.743-2.151 5.447-.461 20.607-1.485 25.988-1.485l-.006-.001z"/>
    <path fill="#F4F4F4" d="M295.024 26.871c-15.769 0-64.798.387-70.646.576-2.892.093-5.222.223-6.962 1.375-1.741 1.151-2.617 3.292-2.617 6.741 0 3.33-.043 32.956-.066 62.64-.022 29.674-.028 59.308.066 63.04v.021c.093 3.626.187 6.149 1.774 8.027 1.587 1.878 4.415 2.835 9.557 3.77 5.231.951 18.529 1.876 32.418 2.572 13.889.695 28.284 1.152 35.544 1.152h10.754c7.26 0 21.678-.457 35.567-1.152 13.889-.696 27.186-1.621 32.418-2.572 5.141-.934 7.947-1.891 9.535-3.77 1.586-1.878 1.703-4.402 1.795-8.027.096-3.714.09-33.377.066-63.062-.023-29.684-.066-59.31-.066-62.64 0-3.449-.875-5.589-2.615-6.741-1.742-1.151-4.07-1.282-6.963-1.375-5.846-.188-54.9-.576-70.668-.576h-8.892.001zm0 1.419h8.891c15.746 0 64.953.372 70.602.554 2.855.092 4.98.333 6.252 1.175 1.273.841 1.975 2.318 1.975 5.543 0 3.344.043 32.957.066 62.641s.023 59.502-.066 63.018v.022c-.094 3.588-.273 5.709-1.465 7.118-1.193 1.412-3.658 2.385-8.713 3.304-4.967.902-18.369 1.855-32.242 2.55-13.871.694-28.278 1.153-35.477 1.153h-10.755c-7.199 0-21.606-.458-35.478-1.153-13.872-.695-27.274-1.647-32.241-2.55-5.048-.923-7.514-1.895-8.708-3.307-1.193-1.413-1.349-3.534-1.441-7.139-.09-3.512-.09-33.334-.066-63.016.023-29.684.066-59.298.066-62.641 0-3.225.702-4.702 1.974-5.543 1.272-.841 3.376-1.083 6.231-1.175 5.646-.183 54.855-.554 70.601-.554h-.006z"/>
    <path fill="#F4F4F4" d="M245.223 42.703c-.997 0-1.818.82-1.818 1.818v96.656c0 .998.821 1.818 1.818 1.818h108.521c.996 0 1.818-.82 1.818-1.818V44.521c0-.997-.82-1.818-1.818-1.818H245.223zm0 1.419h108.521c.23 0 .398.169.398.399v96.656a.385.385 0 0 1-.398.399H245.223a.387.387 0 0 1-.399-.399V44.521a.387.387 0 0 1 .399-.399zM286.928 281.399c-2.411 0-4.614.227-6.297.798-.842.286-1.563.661-2.106 1.197a2.9 2.9 0 0 0-.887 2.063c0 .8.343 1.525.887 2.063.543.536 1.265.911 2.106 1.197 1.683.572 3.886.775 6.297.775 2.412 0 4.614-.203 6.297-.775.841-.286 1.563-.661 2.106-1.197.543-.537.887-1.263.887-2.063 0-.798-.344-1.526-.887-2.063-.544-.536-1.265-.911-2.106-1.197-1.683-.572-3.886-.798-6.297-.798zm0 1.419c2.324 0 4.411.228 5.832.71.71.24 1.25.544 1.575.864.324.32.465.635.465 1.064s-.141.722-.465 1.042c-.325.32-.865.624-1.575.865-1.42.482-3.508.709-5.832.709s-4.412-.227-5.832-.709c-.71-.241-1.251-.545-1.574-.865-.324-.32-.466-.612-.466-1.042s.142-.744.466-1.064c.323-.32.864-.624 1.574-.864 1.42-.482 3.508-.71 5.832-.71zM315.849 281.399c-2.412 0-4.613.227-6.297.798-.842.286-1.563.661-2.106 1.197s-.864 1.265-.864 2.063c0 .8.32 1.525.864 2.063.544.536 1.265.911 2.106 1.197 1.684.572 3.885.775 6.297.775s4.615-.203 6.298-.775c.841-.286 1.563-.661 2.106-1.197.543-.537.887-1.263.887-2.063 0-.798-.344-1.526-.887-2.063-.544-.536-1.266-.911-2.106-1.197-1.683-.571-3.886-.798-6.298-.798zm0 1.419c2.324 0 4.412.228 5.832.71.711.24 1.25.544 1.574.864s.466.635.466 1.064-.142.722-.466 1.042-.863.624-1.574.865c-1.42.482-3.508.709-5.832.709s-4.411-.227-5.831-.709c-.71-.241-1.25-.545-1.574-.865s-.444-.612-.444-1.042.12-.744.444-1.064c.323-.32.864-.624 1.574-.864 1.42-.482 3.506-.71 5.831-.71zM239.458 207.123a3.696 3.696 0 0 0-3.681 3.681v11.242c0 .11.007.069 0 .11h-11.331c-2.022 0-3.681 1.637-3.681 3.659v8.227a3.694 3.694 0 0 0 3.681 3.681h11.331v11.331a3.696 3.696 0 0 0 3.681 3.681h8.227c2.021 0 3.658-1.659 3.658-3.681v-11.219c0-.102.018-.085.022-.111h11.332a3.695 3.695 0 0 0 3.681-3.681v-8.228c0-2.022-1.66-3.659-3.681-3.659h-11.353c-.004-.019 0 .022 0-.044v-11.309c0-2.021-1.638-3.681-3.659-3.681h-8.227v.001zm0 1.419h8.227c1.254 0 2.239 1.006 2.239 2.262v11.309c0 .342.059.729.333 1.042.274.314.689.422 1.042.422h11.397c1.254 0 2.262.983 2.262 2.239v8.227a2.253 2.253 0 0 1-2.262 2.262H251.32c-.422 0-.89.186-1.131.532-.24.346-.266.696-.266.997v11.221c0 1.254-.985 2.262-2.239 2.262h-8.227a2.256 2.256 0 0 1-2.262-2.262v-11.42c0-.127.044-.413-.178-.776-.222-.362-.705-.554-1.153-.554h-11.419a2.255 2.255 0 0 1-2.262-2.262v-8.227c0-1.256 1.006-2.239 2.262-2.239h11.463c.387 0 .87-.2 1.087-.555.217-.354.199-.67.199-.976v-11.242a2.256 2.256 0 0 1 2.264-2.262z"/>
    <path fill="#F4F4F4" d="M252.496 233.333v-6.807a1.528 1.528 0 0 1 1.528-1.52c.267-.002.524.07.729.185l6.619 3.522.058.047a1.524 1.524 0 0 1-.041 2.38l-.044.035-6.607 3.512a1.53 1.53 0 0 1-2.242-1.354zm1.421 0c0 .061.045.108.108.108a.124.124 0 0 0 .049-.009l6.468-3.437a.097.097 0 0 0 .02-.061.122.122 0 0 0-.014-.053l-6.474-3.445a.102.102 0 0 0-.049-.013.11.11 0 0 0-.108.11v6.8zM243.56 224.351c-3.071 0-5.565 2.517-5.565 5.588 0 3.07 2.495 5.565 5.565 5.565s5.588-2.495 5.588-5.565c-.001-3.072-2.518-5.588-5.588-5.588zm0 1.419a4.166 4.166 0 0 1 4.168 4.169c0 2.305-1.864 4.146-4.168 4.146s-4.146-1.842-4.146-4.146a4.146 4.146 0 0 1 4.146-4.169zM240.167 221.001a1.53 1.53 0 0 1-1.53-1.528c0-.269.072-.524.186-.728l3.523-6.624.045-.054a1.527 1.527 0 0 1 2.381.04l.038.047 3.508 6.607a1.525 1.525 0 0 1-1.354 2.237h-6.088V221h-.709v.001zm0-.709v-.71.71zm6.798-.712c.06 0 .11-.05.11-.107 0-.024-.004-.037-.011-.047l-3.438-6.473a.108.108 0 0 0-.06-.017.097.097 0 0 0-.052.014l-3.441 6.471a.08.08 0 0 0-.015.052.11.11 0 0 0 .089.107h6.818zM232.38 234.678l-6.625-3.524-.056-.046a1.53 1.53 0 0 1-.549-1.172c0-.487.232-.933.592-1.21l.052-.039 6.604-3.508a1.529 1.529 0 0 1 2.236 1.356v6.803a1.529 1.529 0 0 1-1.528 1.523c-.266 0-.517-.07-.726-.183zm.671-1.251a.11.11 0 0 0 .165-.093v-6.798a.11.11 0 0 0-.109-.11.097.097 0 0 0-.048.011l-6.472 3.438a.114.114 0 0 0-.016.062.1.1 0 0 0 .013.051l6.467 3.439zM242.361 247.756l-.04-.048-3.505-6.602a1.53 1.53 0 0 1 1.351-2.246h6.799V240.281h-6.799a.111.111 0 0 0-.11.109c0 .019.006.035.012.046l3.432 6.467a.107.107 0 0 0 .065.021.09.09 0 0 0 .054-.016l3.439-6.467a.097.097 0 0 0 .014-.052.109.109 0 0 0-.108-.109V238.859a1.53 1.53 0 0 1 1.527 1.53c0 .266-.068.519-.185.726l-3.526 6.625-.043.055a1.531 1.531 0 0 1-1.172.549 1.533 1.533 0 0 1-1.205-.588zM334.694 222.506c-7.004 0-12.705 5.68-12.705 12.684s5.701 12.705 12.705 12.705c7.006 0 12.705-5.701 12.705-12.705s-5.701-12.684-12.705-12.684zm0 1.419c6.238 0 11.287 5.026 11.287 11.265 0 6.237-5.049 11.286-11.287 11.286-6.236 0-11.285-5.049-11.285-11.286 0-6.239 5.049-11.265 11.285-11.265zM369.925 211.005c-7.004 0-12.705 5.7-12.705 12.704 0 7.005 5.701 12.705 12.705 12.705s12.684-5.701 12.684-12.705-5.68-12.704-12.684-12.704zm0 1.419c6.236 0 11.264 5.049 11.264 11.285 0 6.237-5.027 11.286-11.264 11.286s-11.287-5.049-11.287-11.286c0-6.236 5.05-11.285 11.287-11.285zM346.026 290.185c-1.186 0-2.172.964-2.172 2.15 0 1.185.986 2.173 2.172 2.173s2.152-.988 2.152-2.173a2.152 2.152 0 0 0-2.152-2.15zM346.026 300.892a2.19 2.19 0 0 0-2.172 2.173c0 1.185.986 2.15 2.172 2.15s2.152-.966 2.152-2.15c.001-1.186-.966-2.173-2.152-2.173zM346.026 311.626c-1.186 0-2.172.966-2.172 2.151s.986 2.173 2.172 2.173 2.152-.987 2.152-2.173-.966-2.151-2.152-2.151zM351.589 284.067c-1.186 0-2.172.966-2.172 2.15s.986 2.173 2.172 2.173 2.152-.988 2.152-2.173-.967-2.15-2.152-2.15zM351.589 294.683c-1.186 0-2.172.988-2.172 2.173s.986 2.151 2.172 2.151 2.152-.967 2.152-2.151-.967-2.173-2.152-2.173zM351.589 305.326c-1.186 0-2.172.966-2.172 2.15 0 1.186.986 2.173 2.172 2.173s2.152-.987 2.152-2.173c0-1.184-.967-2.15-2.152-2.15zM351.589 315.947c-1.186 0-2.172.966-2.172 2.15 0 1.187.986 2.174 2.172 2.174s2.152-.987 2.152-2.174c0-1.184-.967-2.15-2.152-2.15zM356.954 288.565c-1.186 0-2.15.988-2.15 2.173 0 1.187.965 2.151 2.15 2.151s2.172-.965 2.172-2.151a2.192 2.192 0 0 0-2.172-2.173zM356.954 299.209c-1.186 0-2.15.966-2.15 2.15 0 1.187.965 2.173 2.15 2.173s2.172-.986 2.172-2.173c0-1.184-.986-2.15-2.172-2.15zM356.954 309.831c-1.186 0-2.15.988-2.15 2.174 0 1.185.965 2.15 2.15 2.15s2.172-.966 2.172-2.15a2.191 2.191 0 0 0-2.172-2.174zM356.954 320.454c-1.186 0-2.15.986-2.15 2.173 0 1.185.965 2.151 2.15 2.151s2.172-.967 2.172-2.151a2.19 2.19 0 0 0-2.172-2.173zM362.63 282.088c-1.186 0-2.15.965-2.15 2.151 0 1.185.965 2.173 2.15 2.173s2.174-.988 2.174-2.173c0-1.186-.989-2.151-2.174-2.151zM362.63 292.709c-1.186 0-2.15.988-2.15 2.173 0 1.187.965 2.151 2.15 2.151s2.174-.965 2.174-2.151a2.194 2.194 0 0 0-2.174-2.173zM362.63 303.332c-1.186 0-2.15.988-2.15 2.173s.965 2.15 2.15 2.15 2.174-.966 2.174-2.15-.989-2.173-2.174-2.173zM362.63 313.976c-1.186 0-2.15.966-2.15 2.15s.965 2.173 2.15 2.173 2.174-.988 2.174-2.173-.989-2.15-2.174-2.15zM367.888 286.416c-1.184 0-2.15.966-2.15 2.15 0 1.186.967 2.174 2.15 2.174a2.193 2.193 0 0 0 2.174-2.174c0-1.184-.989-2.15-2.174-2.15zM367.888 297.038c-1.184 0-2.15.987-2.15 2.174 0 1.185.967 2.15 2.15 2.15 1.186 0 2.174-.966 2.174-2.15a2.193 2.193 0 0 0-2.174-2.174zM367.888 307.682c-1.184 0-2.15.965-2.15 2.151 0 1.185.967 2.15 2.15 2.15 1.186 0 2.174-.966 2.174-2.15 0-1.187-.989-2.151-2.174-2.151zM367.888 318.296c-1.184 0-2.15.966-2.15 2.151 0 1.185.967 2.173 2.15 2.173a2.193 2.193 0 0 0 2.174-2.173c0-1.185-.989-2.151-2.174-2.151zM373.345 279.873c-1.186 0-2.172.966-2.172 2.151 0 1.185.986 2.15 2.172 2.15s2.15-.966 2.15-2.15a2.154 2.154 0 0 0-2.15-2.151zM373.345 290.496c-1.186 0-2.172.966-2.172 2.15 0 1.186.986 2.173 2.172 2.173s2.15-.987 2.15-2.173c0-1.184-.965-2.15-2.15-2.15zM373.345 301.118a2.19 2.19 0 0 0-2.172 2.174c0 1.185.986 2.15 2.172 2.15s2.15-.966 2.15-2.15c0-1.187-.965-2.174-2.15-2.174zM373.345 311.739c-1.186 0-2.172.988-2.172 2.174s.986 2.15 2.172 2.15 2.15-.965 2.15-2.15-.965-2.174-2.15-2.174zM378.646 283.883c-1.186 0-2.15.966-2.15 2.15 0 1.186.965 2.173 2.15 2.173a2.192 2.192 0 0 0 2.172-2.173c-.001-1.184-.989-2.15-2.172-2.15zM378.646 294.505c-1.186 0-2.15.965-2.15 2.151 0 1.185.965 2.173 2.15 2.173a2.192 2.192 0 0 0 2.172-2.173c-.001-1.186-.989-2.151-2.172-2.151zM378.646 305.126c-1.186 0-2.15.988-2.15 2.174s.965 2.15 2.15 2.15c1.184 0 2.172-.965 2.172-2.15s-.989-2.174-2.172-2.174zM383.968 287.7a2.191 2.191 0 0 0-2.174 2.174c0 1.185.986 2.15 2.174 2.15 1.184 0 2.15-.966 2.15-2.15 0-1.186-.967-2.174-2.15-2.174zM383.968 298.344c-1.188 0-2.174.966-2.174 2.151 0 1.185.986 2.173 2.174 2.173 1.184 0 2.15-.988 2.15-2.173a2.155 2.155 0 0 0-2.15-2.151zM383.968 308.965c-1.188 0-2.174.988-2.174 2.174s.986 2.15 2.174 2.15c1.184 0 2.15-.965 2.15-2.15s-.967-2.174-2.15-2.174zM378.646 315.77c-1.186 0-2.15.966-2.15 2.151s.965 2.173 2.15 2.173c1.184 0 2.172-.987 2.172-2.173s-.989-2.151-2.172-2.151z"/>
</svg>
