<svg xmlns="http://www.w3.org/2000/svg" width="607" height="367" viewBox="-5.404 -7.37 607 367" xml:space="preserve">
    <path fill="#F4F4F4" d="M294.78.002c-91.93 0-172.38 31.981-204.97 48.531-16.879 8.574-41.048 24.857-60.093 48.375C10.672 120.422-3.241 151.232.654 188.622c5 47.998 27.068 87.064 50.562 114.66 11.747 13.795 23.846 24.715 34.375 32.469 10.529 7.754 19.426 12.371 25.094 13.469 8.126 1.572 18.219 1.686 28.031-1.938 9.813-3.622 19.294-11.037 26.094-24.375 13.446-26.375 21.082-52.288 48-66 27.04-13.775 62.088-16.375 69.594-16.375h33.375c7.508 0 42.555 2.601 69.594 16.375l.189.1c26.762 13.738 34.399 39.596 47.813 65.906 6.801 13.338 16.281 20.753 26.094 24.375 9.813 3.622 19.906 3.511 28.031 1.938 5.668-1.097 14.566-5.715 25.094-13.469 10.529-7.754 22.629-18.673 34.375-32.469 23.496-27.592 45.563-66.658 50.563-114.66 3.895-37.392-10.019-68.2-29.063-91.719-19.039-23.513-43.209-39.796-60.08-48.37C475.798 31.99 395.349.008 303.419.008h-8.625l-.014-.006zm0 2h8.625c91.467 0 171.737 31.894 204.059 48.312 16.654 8.459 40.662 24.618 59.469 47.844 18.81 23.225 32.429 53.457 28.597 90.25-4.949 47.506-26.804 86.241-50.097 113.59-11.645 13.677-23.635 24.502-34.028 32.155-10.396 7.656-19.279 12.128-24.281 13.095-7.844 1.519-17.592 1.619-26.969-1.845-9.379-3.461-18.406-10.469-25-23.404-13.345-26.171-21.188-52.77-48.875-66.875-27.568-14.043-62.551-16.596-70.5-16.596h-33.376c-7.947 0-42.907 2.537-70.469 16.563l-.031.031c-27.69 14.104-35.533 40.704-48.875 66.875-6.595 12.938-15.622 19.944-25 23.405-9.378 3.462-19.125 3.361-26.969 1.845-4.99-.972-13.873-5.438-24.269-13.09-10.395-7.66-22.385-18.48-34.031-32.16-23.291-27.351-45.145-66.09-50.094-113.59-3.833-36.8 9.786-67.03 28.594-90.254C50.067 74.929 74.074 58.77 90.728 50.31c32.331-16.419 112.59-48.312 204.06-48.312l-.008.004z"/>
    <path fill="#F4F4F4" d="M139.53 59.752c-51.186 0-92.688 41.502-92.688 92.688s41.502 92.719 92.688 92.719 92.719-41.533 92.719-92.719-41.533-92.688-92.719-92.688zm0 2c50.105 0 90.719 40.583 90.719 90.688s-40.614 90.719-90.719 90.719-90.688-40.614-90.688-90.719 40.583-90.688 90.688-90.688z"/>
    <path fill="#F4F4F4" d="M139.53 79.346c-40.373 0-73.094 32.72-73.094 73.094 0 40.374 32.72 73.125 73.094 73.125 40.373 0 73.125-32.754 73.125-73.125 0-40.373-32.752-73.094-73.125-73.094zm0 2c39.293 0 71.125 31.801 71.125 71.094 0 39.293-31.832 71.125-71.125 71.125s-71.094-31.832-71.094-71.125 31.801-71.094 71.094-71.094z"/>
    <path fill="#F4F4F4" d="M139.53 97.627c-30.273 0-54.812 24.54-54.812 54.812 0 30.273 24.54 54.843 54.812 54.843 30.273 0 54.844-24.57 54.844-54.843s-24.571-54.812-54.844-54.812zm0 2c29.192 0 52.844 23.621 52.844 52.812 0 29.192-23.652 52.843-52.844 52.843s-52.812-23.651-52.812-52.843 23.621-52.812 52.812-52.812z"/>
    <path fill="#F4F4F4" d="M129.59 101.752a3.324 3.324 0 0 0-3.313 3.313v27.875c0 2.118-.623 3.606-1.688 4.625-1.064 1.019-2.667 1.625-4.844 1.625H92.152a3.324 3.324 0 0 0-3.313 3.313v19.906a3.324 3.324 0 0 0 3.313 3.313h27.594c2.021 0 3.638.628 4.75 1.719 1.112 1.091 1.781 2.69 1.781 4.813v27.595a3.325 3.325 0 0 0 3.313 3.313h19.906a3.325 3.325 0 0 0 3.313-3.313v-27.5c0-2.115.527-3.75 1.531-4.844 1.003-1.094 2.577-1.781 5.094-1.781h27.5a3.324 3.324 0 0 0 3.313-3.313v-19.906a3.325 3.325 0 0 0-3.313-3.313h-27.469c-2.622 0-4.209-.671-5.188-1.688-.979-1.016-1.469-2.507-1.469-4.563v-27.875a3.324 3.324 0 0 0-3.313-3.313H129.59v-.001zm0 2h19.906c.74 0 1.313.571 1.313 1.313v27.875c0 2.366.584 4.466 2.031 5.969 1.447 1.502 3.666 2.281 6.625 2.281h27.469c.741 0 1.313.573 1.313 1.313v19.906c0 .739-.572 1.313-1.313 1.313h-27.5c-2.893 0-5.15.865-6.594 2.438-1.444 1.573-2.031 3.751-2.031 6.188v27.5c0 .741-.571 1.313-1.313 1.313H129.59c-.74 0-1.313-.571-1.313-1.313v-27.594c0-2.557-.878-4.72-2.406-6.219-1.528-1.499-3.68-2.313-6.125-2.313H92.152a1.296 1.296 0 0 1-1.313-1.313v-19.906c0-.739.573-1.313 1.313-1.313h27.594c2.545 0 4.707-.741 6.219-2.188 1.511-1.446 2.313-3.543 2.313-6.063v-27.875c0-.741.573-1.313 1.312-1.312z"/>
    <path fill="#F4F4F4" d="M150.78 117.092c0 12.554 10.781 24.125 24.156 24.125v-2c-12.212 0-22.156-10.723-22.156-22.125h-2zM174.22 116.312l-1.125.469-8.75 3.719-.719.281.563.531 5.156 4.844.531.5.281-.656 3.594-8.563.469-1.125zm-1.844 1.875-2.875 6.75-4.063-3.844 6.938-2.906zM139.53 140.562c-6.563 0-11.875 5.312-11.875 11.875s5.312 11.906 11.875 11.906 11.906-5.343 11.906-11.906-5.343-11.875-11.906-11.875zm0 2c5.482 0 9.906 4.393 9.906 9.875s-4.424 9.906-9.906 9.906-9.875-4.424-9.875-9.906 4.393-9.875 9.875-9.875zM126.31 117.062c0 12.212-10.723 22.156-22.125 22.156v2c12.554 0 24.125-10.781 24.125-24.156h-2zM103.41 117.782l.469 1.125 3.719 8.75.281.719.531-.563 4.844-5.156.5-.531-.656-.281-8.563-3.594-1.125-.469zm1.875 1.843 6.75 2.875-3.844 4.063-2.906-6.938zM104.16 163.692v2c12.211 0 22.156 10.721 22.156 22.125h2c0-12.555-10.782-24.125-24.156-24.125zM109.22 178.252l-.281.656-3.594 8.563-.469 1.125 1.125-.47 8.75-3.719.719-.281-.563-.53-5.156-4.845-.531-.499zm.375 1.72 4.063 3.813-6.938 2.938 2.875-6.751zM174.91 163.692c-12.554 0-24.125 10.782-24.125 24.157h2c0-12.211 10.723-22.157 22.125-22.157v-2zM171.22 176.532l-.531.563-4.844 5.156-.5.531.656.281 8.563 3.594 1.125.469-.469-1.125-3.719-8.75-.281-.719zm-.344 1.813 2.938 6.938-6.75-2.875 3.812-4.063zM503.531 81.908c-4.07.077-8.398.299-12.906.688-18.037 1.553-39 5.863-58.375 15.031-14.463 6.843-30.896 17.178-45 27.969-14.105 10.79-25.869 21.996-31 30.844-5.152 8.884-5.805 20.51-3.844 31.53 1.959 11.021 6.521 21.449 12.188 28 11.238 12.996 30.594 20.326 55.281 13.721 12.328-3.299 20.221-8.209 28.406-13.938 8.184-5.729 16.672-12.296 30.5-19.125 27.705-13.683 51.271-18.778 64.094-22.938 6.48-2.103 13.213-5.741 18.344-12.375 5.131-6.635 8.64-16.227 8.813-30.125.176-14.02-5.656-24.874-13.406-32.625s-17.39-12.442-25.126-14.376c-5.821-1.457-15.762-2.513-27.969-2.281zm.062 2.031c12.095-.219 21.894.809 27.404 2.188 7.375 1.843 16.772 6.397 24.221 13.844 7.445 7.447 12.98 17.729 12.812 31.188-.168 13.577-3.545 22.693-8.375 28.938-4.828 6.245-11.146 9.667-17.375 11.688-12.568 4.075-36.357 9.235-64.22 22.968l-.155.094c-13.99 6.91-22.652 13.561-30.781 19.25-8.129 5.691-15.691 10.432-27.75 13.656-24.082 6.445-42.508-.673-53.25-13.094-5.322-6.155-9.846-16.329-11.75-27.031-1.902-10.701-1.213-21.9 3.594-30.188 4.828-8.324 16.502-19.541 30.5-30.25s30.338-20.989 44.625-27.75c19.09-9.034 39.867-13.306 57.719-14.844 4.464-.384 8.751-.583 12.781-.657z"/>
    <path fill="#F4F4F4" d="M518.621 94.502c-8.469-.256-17.479 1.42-26.219 4.813-23.015 8.93-51.828 20.256-65.347 27.188-10.75 5.514-25.024 11.353-37.153 19.094-12.131 7.741-22.207 17.45-24.156 30.75-3.871 26.396 19.443 45.891 44.094 41.313 12.195-2.266 20.463-7.176 29-13.125 8.535-5.949 17.387-12.911 31.031-19.563 13.656-6.658 28.184-11.455 40.875-15.313 12.688-3.858 23.488-6.779 29.844-9.781 6.484-3.063 12.375-9.775 15.25-18.219 2.873-8.443 2.689-18.633-3.125-28.5-5.815-9.871-15.141-15.644-25.844-17.75a50.733 50.733 0 0 0-8.25-.907zm-.063 2c2.722.081 5.375.371 7.938.875 10.246 2.016 18.981 7.418 24.5 16.781 5.518 9.366 5.676 18.919 2.969 26.875-2.709 7.956-8.342 14.286-14.219 17.062-6.008 2.837-16.838 5.756-29.563 9.625-12.725 3.869-27.368 8.701-41.188 15.438-13.834 6.743-22.851 13.851-31.313 19.75-8.465 5.899-16.373 10.582-28.219 12.78-23.432 4.353-45.434-13.91-41.75-39.03 1.826-12.458 11.336-21.771 23.25-29.375 11.914-7.603 26.121-13.421 37-19 13.271-6.807 42.18-18.166 65.188-27.094 8.518-3.305 17.245-4.931 25.407-4.687z"/>
    <path fill="#F4F4F4" d="M403.089 149.782c-16.897 0-30.625 13.725-30.625 30.625 0 16.898 13.728 30.625 30.625 30.625 16.9 0 30.625-13.727 30.625-30.625 0-16.9-13.724-30.625-30.625-30.625zm0 2c15.82 0 28.625 12.806 28.625 28.625 0 15.818-12.805 28.625-28.625 28.625-15.817 0-28.625-12.807-28.625-28.625 0-15.819 12.807-28.625 28.625-28.625z"/>
    <path fill="#F4F4F4" d="M403.089 155.442c-13.77 0-24.938 11.198-24.938 24.969 0 13.77 11.168 24.969 24.938 24.969 13.771 0 24.969-11.197 24.969-24.969 0-13.771-11.197-24.969-24.969-24.969zm0 2c12.691 0 22.969 10.279 22.969 22.969 0 12.689-10.276 22.969-22.969 22.969-12.688 0-22.938-10.279-22.938-22.969.001-12.69 10.249-22.969 22.938-22.969zM459.781 120.442c-16.9 0-30.625 13.694-30.625 30.594s13.725 30.625 30.625 30.625c16.897 0 30.594-13.726 30.594-30.625s-13.696-30.594-30.594-30.594zm0 2c15.817 0 28.594 12.774 28.594 28.594 0 15.819-12.775 28.625-28.594 28.625-15.82 0-28.625-12.807-28.625-28.625s12.804-28.594 28.625-28.594z"/>
    <path fill="#F4F4F4" d="M459.781 126.092c-13.771 0-24.972 11.167-24.972 24.938 0 13.771 11.199 24.969 24.972 24.969 13.77 0 24.938-11.198 24.938-24.969s-11.169-24.938-24.938-24.938zm0 2c12.688 0 22.938 10.247 22.938 22.938 0 12.689-10.248 22.969-22.938 22.969-12.691 0-22.972-10.279-22.972-22.969.001-12.69 10.28-22.938 22.972-22.938zM519.781 98.783c-16.902 0-30.625 13.724-30.625 30.625s13.723 30.625 30.625 30.625c16.899 0 30.625-13.724 30.625-30.625s-13.725-30.625-30.625-30.625zm0 2c15.817 0 28.625 12.805 28.625 28.625s-12.808 28.625-28.625 28.625c-15.82 0-28.625-12.805-28.625-28.625s12.804-28.625 28.625-28.625z"/>
    <path fill="#F4F4F4" d="M519.781 104.442c-13.771 0-24.939 11.198-24.939 24.969s11.168 24.969 24.939 24.969c13.77 0 24.969-11.198 24.969-24.969s-11.2-24.969-24.969-24.969zm0 2c12.688 0 22.969 10.279 22.969 22.969s-10.279 22.969-22.969 22.969c-12.691 0-22.939-10.279-22.939-22.969s10.247-22.969 22.939-22.969zM442.91 50.346c-1.877-.129-3.799.131-5.688.781l-41.1 14.125c-7.549 2.6-11.57 10.855-8.969 18.406 2.602 7.551 10.854 11.602 18.405 9l41.101-14.156c7.551-2.601 11.569-10.855 8.969-18.406-1.951-5.662-7.089-9.362-12.718-9.75zm-.125 2a12.465 12.465 0 0 1 10.938 8.406 12.43 12.43 0 0 1-7.719 15.844l-41.09 14.156a12.432 12.432 0 0 1-15.844-7.719c-2.248-6.529 1.19-13.627 7.719-15.875l41.09-14.156a12.416 12.416 0 0 1 4.906-.656z"/>
    <path fill="#F4F4F4" d="M441.839 56.846a8.25 8.25 0 0 0-3.25.406L398.81 70.971c-4.276 1.473-6.536 6.16-5.063 10.438 1.473 4.278 6.16 6.568 10.438 5.094l39.75-13.719c4.277-1.473 6.566-6.16 5.095-10.438-1.105-3.208-3.996-5.278-7.188-5.5h-.003zm-.156 1.968a6.236 6.236 0 0 1 5.47 4.188 6.203 6.203 0 0 1-3.845 7.906l-39.78 13.688a6.202 6.202 0 0 1-7.906-3.844 6.205 6.205 0 0 1 3.844-7.906l39.791-13.688a6.193 6.193 0 0 1 2.438-.344h-.012z"/>
</svg>
