<svg height="353.574" viewBox="0 0 2274.509 1272.868" width="631.808" xmlns="http://www.w3.org/2000/svg">
    <g fill="#f4f4f4" fill-opacity=".5" stroke-width="3.6">
        <path d="M1454.67 164.393q0 1.152-.279 1.939-.413 1.17-1.325 1.17-.604 0-1.267-.277-.797-.336-.873-.826.268 0 .633.096.845.22 1.056.22.816 0 1.229-.815.326-.653.326-1.565 0-.643-.422-1.834-.413-1.2-.413-1.67 0-.144.077-.23.086-.096.23-.096.375 0 .73 1.728.298 1.459.298 2.16zM1458.366 165.372q0 .979-.567 1.536-.566.557-1.565.557-.547 0-.844-.26-.298-.259-.298-.796 0-.759.989-1.527.94-.73 1.737-.73.365 0 .48.452.067.259.067.768zm-.586.269q0-.116-.029-.221-.019-.115-.077-.26-.154.106-.509.519-.182.211-.317.307 0-.182.038-.297.077-.164.125-.279-.422 0-.883.355-.451.356-.451.768 0 .279.307.279.586 0 1.133-.288.662-.346.662-.883zM1462.32 165.765q0 .47-.354 1.056-.404.663-.836.663-.124 0-.21-.135-.078-.144-.078-.278 0-.173.365-.538.374-.374.374-.508 0-.087-.029-.173l-.038-.115q-.72.163-1.468.825-.74.663-1.124.749-.077-.211-.077-.432 0-.269.125-.566.086-.212.288-.51.336-.508.71-1.151.193-.336.663-1.162.48-.825.7-1.171.116-.173.202-.26.125-.114.298-.153.115.039.163.144.058.106.058.25 0 .326-.422.883-.768.998-.787 1.037-.432.653-.432 1.18l.019.097q.528-.26.624-.298.393-.163.672-.163.307 0 .45.21.145.203.145.52zM1466.775 165.199q0 .653-.317 1.392-.345.816-.854 1.123-.106-.125-.182-.278-.067-.154-.067-.307 0-.164.48-.97.21-.355.192-.624l-.01-.125q-.356.106-1.23.643-.863.528-1.746 1.076-.135 0-.25-.096-.106-.106-.106-.23 0-.202.644-1.354.192-.346.69-1.2.154.201.202.45.048.24.048.577v.22q.884-.527 1.383-.796.547-.298.749-.298.134 0 .25.307.124.308.124.49zM1475.118 167.061q0 .173-.154.27-.144.086-.326.086-.164 0-.413-.039-.567-.086-.73-.086-.288 0-1.133.067-.48.038-.69.038-.586 0-.586-.585 0-.557.364-1.594.202-.585.759-1.92.499-1.2.633-1.69.048-.153.077-.201.077-.115.192-.115.183 0 .308.269.124.259.124.47 0 .336-.393 1.133-.394.787-.768 1.545-.413.903-.413 1.373 0 .24.202.336.144.067.422.067.211 0 .73-.048.518-.057.69-.057.433 0 .711.125.394.172.394.556zM1478.689 165.372q0 .979-.567 1.536-.566.557-1.564.557-.548 0-.845-.26-.298-.259-.298-.796 0-.759.989-1.527.94-.73 1.738-.73.364 0 .48.452.067.259.067.768zm-.586.269q0-.116-.029-.221-.019-.115-.077-.26-.153.106-.509.519-.182.211-.316.307 0-.182.038-.297.077-.164.124-.279-.422 0-.883.355-.451.356-.451.768 0 .279.307.279.586 0 1.133-.288.662-.346.662-.883zM1482.73 165.17q0 .307-.163.653-.153.346-.393.576l-.01-.134q0-.116.029-.356t.029-.355q0-.163-.048-.24-.048-.086-.202-.086-.451 0-1.123.7l-1.45 1.527q-.058 0-.115-.01-.144-.038-.192-.048.029-.346.24-.768.566-1.142.586-1.22.077-.306.115-.45.038-.144.105-.298.077-.163.173-.288.106-.134.269-.202l.096 1.152q.413-.336.634-.518.422-.336.73-.336.306 0 .498.202.192.201.192.499zM1487.444 164.057q0 .403-1.075 1.065-1.037.634-1.507.634-.221 0-.298-.154-.067-.153-.067-.432v-.26q.643 0 1.171-.191.528-.192.922-.634-.288-.105-.586-.105-.7 0-1.488.537-.864.586-.864 1.248 0 .634.864.884.135.038 1.623.268.873.135.873.47 0 .145-.317.231-.316.096-.806.096-1.229 0-1.94-.374-.94-.5-.94-1.603 0-1.152 1.152-1.834.98-.576 2.227-.576.375 0 .682.173.374.21.374.557zM1491.265 162.338q0 .211-.509.883t-.509 1.028q0 .182.211.364.48.423.48.519 0 .125-.086.24-.077.115-.201.115-.106 0-.298-.115-.134-.077-.518-.375-.144.279-.221.423-.269.509-.365.739l-.288.883q-.25.595-.624.595l-.01-.22q0-.682.442-1.613.086-.173.48-.893-.759-.413-1.67-.413 0-.355.143-.518.154-.173.51-.173.326 0 .815.115l.48.115q.183-.057.5-.624.777-1.363 1.055-1.564.077.124.125.25.058.124.058.24zM1494.807 165.765q0 .47-.355 1.056-.403.663-.835.663-.125 0-.211-.135-.077-.144-.077-.278 0-.173.364-.538.375-.374.375-.508 0-.087-.03-.173l-.037-.115q-.72.163-1.469.825-.74.663-1.123.749-.077-.211-.077-.432 0-.269.125-.566.086-.212.288-.51.336-.508.71-1.151l.662-1.162q.48-.825.701-1.171.115-.173.202-.26.125-.114.297-.153.116.039.164.144.058.106.058.25 0 .326-.423.883-.768.998-.787 1.037-.432.653-.432 1.18l.019.097q.528-.26.624-.298.394-.163.672-.163.307 0 .451.21.144.203.144.52zM1502.689 162.636q0 .45-.48 1.21-.307.48-1.008 1.382-.7.893-.874 1.17l.72.231q.701.212.701.768-.288.048-.566.087l-.106-.01v-.077q-.153-.038-.25-.038-.182 0-.575.057-.394.058-.596.058-.259 0-.422-.096-.163-.096-.163-.346 0-.201.739-1.142 1.382-1.757 1.392-1.776.749-1.018.749-1.363 0-.135-.096-.202-.086-.067-.355-.067-.183 0-.759.355-.278.173-.451.173l-.163-.03q-.058-.037-.125-.143-.067-.115-.067-.182 0-.404.778-.74.662-.288 1.152-.288.412 0 .633.308.192.268.192.7zM1508.458 164.364q0 1.161-1.257 2.054-1.152.816-2.371.816-.605 0-.96-.307-.356-.307-.356-.893 0-1.305 1.143-2.265 1.085-.912 2.429-.912.681 0 1.027.403.345.403.345 1.104zm-.585.22q0-.441-.5-.662-.374-.163-.892-.163-.759 0-1.584.74-.826.738-.826 1.487 0 .307.154.442.163.125.49.125.94 0 1.958-.519 1.2-.614 1.2-1.45zM1512.855 162.636q0 .45-.48 1.21-.307.48-1.008 1.382-.7.893-.873 1.17l.72.231q.7.212.7.768-.287.048-.566.087l-.105-.01v-.077q-.154-.038-.25-.038-.182 0-.576.057-.394.058-.595.058-.26 0-.423-.096-.163-.096-.163-.346 0-.201.74-1.142 1.382-1.757 1.391-1.776.75-1.018.75-1.363 0-.135-.097-.202-.086-.067-.355-.067-.182 0-.758.355-.279.173-.452.173l-.163-.03q-.058-.037-.125-.143-.067-.115-.067-.182 0-.404.778-.74.662-.288 1.152-.288.413 0 .634.308.192.268.192.7zM1517.271 162.636q0 .45-.48 1.21-.307.48-1.008 1.382-.7.893-.873 1.17l.72.231q.7.212.7.768-.287.048-.566.087l-.105-.01v-.077q-.154-.038-.25-.038-.182 0-.576.057-.394.058-.595.058-.26 0-.423-.096-.163-.096-.163-.346 0-.201.74-1.142 1.382-1.757 1.391-1.776.75-1.018.75-1.363 0-.135-.097-.202-.086-.067-.355-.067-.182 0-.758.355-.279.173-.452.173l-.163-.03q-.058-.037-.125-.143-.067-.115-.067-.182 0-.404.778-.74.662-.288 1.152-.288.413 0 .634.308.192.268.192.7z"/>
    </g>
    <g fill="none" stroke="#f4f4f4">
        <path d="M838.239 898.755h-28.5a6.721 6.721 0 0 1-6.736-6.736V179.805a6.721 6.721 0 0 1 6.736-6.736h712.214a6.721 6.721 0 0 1 6.736 6.736V892.02a6.721 6.721 0 0 1-6.736 6.736h-26.873" stroke-width="7.2"/>
        <path d="M836.693 926.098h-32.804a23.982 23.982 0 0 1-24.034-24.034V177.657a23.982 23.982 0 0 1 24.034-24.034h724.407a23.982 23.982 0 0 1 24.034 24.034v724.407a23.982 23.982 0 0 1-24.034 24.034h-33.257" stroke-width="7.2"/>
        <g stroke-width="3.6">
            <path d="M205.16 314.058a16.742 16.742 0 0 1-16.743 16.743 16.742 16.742 0 0 1-16.742-16.743 16.742 16.742 0 0 1 16.742-16.742 16.742 16.742 0 0 1 16.743 16.742zM253.16 314.058a16.742 16.742 0 0 1-16.743 16.743 16.742 16.742 0 0 1-16.742-16.743 16.742 16.742 0 0 1 16.742-16.742 16.742 16.742 0 0 1 16.743 16.742zM301.16 314.058a16.742 16.742 0 0 1-16.743 16.743 16.742 16.742 0 0 1-16.742-16.743 16.742 16.742 0 0 1 16.742-16.742 16.742 16.742 0 0 1 16.743 16.742zM351.16 314.058a16.742 16.742 0 0 1-16.743 16.743 16.742 16.742 0 0 1-16.742-16.743 16.742 16.742 0 0 1 16.742-16.742 16.742 16.742 0 0 1 16.743 16.742zM205.16 364.058a16.742 16.742 0 0 1-16.743 16.743 16.742 16.742 0 0 1-16.742-16.743 16.742 16.742 0 0 1 16.742-16.742 16.742 16.742 0 0 1 16.743 16.742zM253.16 364.058a16.742 16.742 0 0 1-16.743 16.743 16.742 16.742 0 0 1-16.742-16.743 16.742 16.742 0 0 1 16.742-16.742 16.742 16.742 0 0 1 16.743 16.742zM301.16 364.058a16.742 16.742 0 0 1-16.743 16.743 16.742 16.742 0 0 1-16.742-16.743 16.742 16.742 0 0 1 16.742-16.742 16.742 16.742 0 0 1 16.743 16.742zM351.16 364.058a16.742 16.742 0 0 1-16.743 16.743 16.742 16.742 0 0 1-16.742-16.743 16.742 16.742 0 0 1 16.742-16.742 16.742 16.742 0 0 1 16.743 16.742zM205.16 414.058a16.742 16.742 0 0 1-16.743 16.743 16.742 16.742 0 0 1-16.742-16.743 16.742 16.742 0 0 1 16.742-16.742 16.742 16.742 0 0 1 16.743 16.742zM253.16 414.058a16.742 16.742 0 0 1-16.743 16.743 16.742 16.742 0 0 1-16.742-16.743 16.742 16.742 0 0 1 16.742-16.742 16.742 16.742 0 0 1 16.743 16.742zM301.16 414.058a16.742 16.742 0 0 1-16.743 16.743 16.742 16.742 0 0 1-16.742-16.743 16.742 16.742 0 0 1 16.742-16.742 16.742 16.742 0 0 1 16.743 16.742zM351.16 414.058a16.742 16.742 0 0 1-16.743 16.743 16.742 16.742 0 0 1-16.742-16.743 16.742 16.742 0 0 1 16.742-16.742 16.742 16.742 0 0 1 16.743 16.742zM205.16 462.058a16.742 16.742 0 0 1-16.743 16.743 16.742 16.742 0 0 1-16.742-16.743 16.742 16.742 0 0 1 16.742-16.742 16.742 16.742 0 0 1 16.743 16.742zM253.16 462.058a16.742 16.742 0 0 1-16.743 16.743 16.742 16.742 0 0 1-16.742-16.743 16.742 16.742 0 0 1 16.742-16.742 16.742 16.742 0 0 1 16.743 16.742zM301.16 462.058a16.742 16.742 0 0 1-16.743 16.743 16.742 16.742 0 0 1-16.742-16.743 16.742 16.742 0 0 1 16.742-16.742 16.742 16.742 0 0 1 16.743 16.742zM351.16 462.058a16.742 16.742 0 0 1-16.743 16.743 16.742 16.742 0 0 1-16.742-16.743 16.742 16.742 0 0 1 16.742-16.742 16.742 16.742 0 0 1 16.743 16.742zM157.16 364.058a16.742 16.742 0 0 1-16.743 16.743 16.742 16.742 0 0 1-16.742-16.743 16.742 16.742 0 0 1 16.742-16.742 16.742 16.742 0 0 1 16.743 16.742zM157.16 414.058a16.742 16.742 0 0 1-16.743 16.743 16.742 16.742 0 0 1-16.742-16.743 16.742 16.742 0 0 1 16.742-16.742 16.742 16.742 0 0 1 16.743 16.742z"/>
        </g>
        <g stroke-width="7.2">
            <path d="M759.746 73.993h812.917c53.935 0 97.356 43.421 97.356 97.357v725.008c0 53.936-43.42 97.357-97.356 97.357H759.746c-53.935 0-97.356-43.421-97.356-97.357V171.35c0-53.936 43.42-97.357 97.356-97.357z"/>
            <path d="M899.989 260.124h536.25v557.05H899.99z"/>
            <path d="M1980.403 139.296c-37.375 9.539-99.483 5.899-153.309 6.672-34.128-1.603-62.253 1.826-62.33 28.76v62.235M1165.29 1c260.934 6.987 520.892 9.254 785.614 34.544m-186.14 201.419.253 662.176m0 0c0 102.55-82.558 185.108-185.108 185.108H671.478c-69.003-14.044-127.956-43.105-153.262-122.446L355.926 215.54m0 0c-13.195-32.076-23.609-68.082-61.362-65.432l-174.724 12.79c-13.485-3.091-24.33-12.074-23.47-47.174 3.683-59.052 36.254-50.166 52.968-56.579C267.691 45.91 389.461 34.91 511.608 27.157 729.638 16.065 948.13 3.83 1165.29 1m815.113 138.296c13.484-3.09 24.329-12.074 23.47-47.174-3.684-59.052-36.255-50.166-52.969-56.578"/>
            <path d="m1632.265 1240.082 207.471-191.95m116.115-107.427 78.412-72.545m97.425-90.137 24.596-22.755M558.489 1252.16c-22.812-109.134-32.715-220.822-88.24-323.484-62.59-101.579-111.915-115.507-158.019-133.89l-197.144-72.61m4.754-559.279C64.048 440.251 10.98 720.194 1 1003.467c.939 108.777 89.86 201.94 203.335 219.274 640.493 60.784 1288.12 72.336 1927.611-6.484 99.819-26.996 152.2-126.697 139.757-223.021-29.202-301.297-76.926-619.718-139.655-873.425-17.843-57.404-86.645-48.111-133.223-52.595"/>
        </g>
        <g stroke-width="7.2">
            <path d="M1925.283 527.84a31.872 31.872 0 0 1-31.872 31.872 31.872 31.872 0 0 1-31.873-31.872 31.872 31.872 0 0 1 31.873-31.873 31.872 31.872 0 0 1 31.872 31.873zM2071.756 465.81a31.872 31.872 0 0 1-31.872 31.872 31.872 31.872 0 0 1-31.873-31.872 31.872 31.872 0 0 1 31.873-31.873 31.872 31.872 0 0 1 31.872 31.873zM263.828 805.001a10.91 10.91 0 0 0-10.076 6.67l-34.407 81.059L137.7 859.74a10.91 10.91 0 0 0-14.232 6.041l-24.082 59.606a10.91 10.91 0 0 0 6.04 14.232l80.253 32.424-33.82 79.674a10.908 10.908 0 0 0 5.792 14.334l59.176 25.12a10.91 10.91 0 0 0 14.336-5.792l34.406-81.058 81.645 32.986a10.908 10.908 0 0 0 14.232-6.04l24.082-59.607a10.907 10.907 0 0 0-6.04-14.23l-80.25-32.424 33.817-79.674a10.907 10.907 0 0 0-5.79-14.334l-59.178-25.119a10.944 10.944 0 0 0-4.258-.879z"/>
            <path d="M278.617 946.657a34.975 35.497 0 0 1-34.354 35.492 34.975 35.497 0 0 1-35.575-34.23 34.975 35.497 0 0 1 33.089-36.709 34.975 35.497 0 0 1 36.751 32.925M199.8 1013.574l-6.112 14.4-9.023-3.83 5.997 16.28 5.998 16.278 15.875-6.994 15.876-6.995-8.89-3.774 6.113-14.4zM288.514 878.972l6.113-14.4 9.023 3.83-5.998-16.28-5.997-16.278-15.876 6.994-15.876 6.995 8.89 3.774-6.112 14.4zM174.25 904.944l-14.4-6.113 3.831-9.023-16.28 5.998-16.278 5.997 6.994 15.876 6.995 15.876 3.773-8.89 14.4 6.112zM312.386 991.068l14.4 6.113-3.83 9.023 16.28-5.998 16.278-5.997-6.994-15.876-6.995-15.876-3.773 8.89-14.4-6.112z"/>
            <g stroke-linecap="round" transform="translate(-308.71 -446.15)">
                <circle cx="2420.873" cy="1300.275" r="79.029"/>
                <circle cx="2206.254" cy="1440.793" r="79.029"/>
            </g>
        </g>
    </g>
</svg>
