<svg version="1.2" baseProfile="tiny" xmlns="http://www.w3.org/2000/svg" width="598.189" height="350.26" xml:space="preserve">
    <path fill="#F4F4F4" d="M233.999 19.117c-2.48 0-4.514 2.011-4.514 4.492v308.506c0 2.479 2.034 4.491 4.514 4.491h132.707c2.227 0 3.999-1.646 4.358-3.772h.157V23.608c0-2.48-2.036-4.492-4.516-4.492H233.999v.001zm0 1.437h132.707a3.055 3.055 0 0 1 3.078 3.054v308.507a3.054 3.054 0 0 1-3.078 3.054H233.999a3.053 3.053 0 0 1-3.076-3.054V23.608a3.053 3.053 0 0 1 3.076-3.054z"/>
    <path fill="#F4F4F4" d="M251.517 56.173c-8.753 0-15.855 7.124-15.855 15.878v123.545c0 8.751 7.102 15.877 15.855 15.877h97.673c8.751 0 15.855-7.125 15.855-15.877V72.051c0-8.753-7.104-15.878-15.855-15.878h-97.673zm0 1.437h97.673c7.976 0 14.418 6.464 14.418 14.44v123.545c0 7.976-6.443 14.439-14.418 14.439h-97.673c-7.978 0-14.418-6.464-14.418-14.439V72.051c0-7.977 6.442-14.441 14.418-14.441z"/>
    <path fill="#F4F4F4" d="M258.097 65.335c-5.231 0-9.479 4.269-9.479 9.5v114.382c0 5.231 4.247 9.499 9.479 9.499h84.507c5.229 0 9.478-4.268 9.478-9.499V74.835c0-5.231-4.247-9.5-9.478-9.5h-84.507zm0 1.438h84.507c4.454 0 8.04 3.608 8.04 8.063v114.382c0 4.455-3.586 8.062-8.04 8.062h-84.507c-4.454 0-8.041-3.606-8.041-8.062V74.835c0-4.454 3.586-8.062 8.041-8.062zM300.363 216.409c-28.234 0-51.138 22.903-51.138 51.137s22.903 51.138 51.138 51.138S351.5 295.78 351.5 267.546s-22.902-51.137-51.137-51.137zm0 1.438c27.456 0 49.7 22.242 49.7 49.699 0 27.458-22.244 49.7-49.7 49.7-27.458 0-49.7-22.242-49.7-49.7 0-27.457 22.243-49.699 49.7-49.699z"/>
    <path fill="#F4F4F4" d="M300.363 230.739c-20.64 0-37.393 16.754-37.393 37.393 0 20.64 16.753 37.393 37.393 37.393s37.37-16.753 37.37-37.393-16.73-37.393-37.37-37.393zm0 1.438c19.862 0 35.933 16.092 35.933 35.955 0 19.862-16.07 35.956-35.933 35.956-19.864 0-35.956-16.094-35.956-35.956.003-19.864 16.095-35.955 35.958-35.955h-.002zM243.409 16.22c-.83 0-1.527.676-1.527 1.505v1.976h1.437v-1.976c0-.05.04-.067.09-.067h113.886c.05 0 .09.017.09.067v2.088h1.437v-2.088c.009-.829-.689-1.505-1.522-1.505H243.409z"/>
    <g fill="#F4F4F4">
        <path d="M258.635 99.395a3.907 3.907 0 0 1-3.908-3.908V76.358a3.905 3.905 0 0 1 3.908-3.906h20.327a3.908 3.908 0 0 1 3.909 3.906v19.13h-.002a3.908 3.908 0 0 1-3.906 3.906h-20.328v.001zm-2.47-23.037v19.128a2.473 2.473 0 0 0 2.47 2.47h20.327a2.474 2.474 0 0 0 2.47-2.47V76.358a2.475 2.475 0 0 0-2.47-2.47h-20.327a2.473 2.473 0 0 0-2.47 2.47zm25.318 19.395.662-.265-.662.265z"/>
        <path d="M268.809 75.374c-5.818 0-10.555 4.737-10.555 10.556s4.737 10.556 10.555 10.556 10.533-4.737 10.533-10.556c0-5.818-4.715-10.556-10.533-10.556zm0 1.438c5.042 0 9.095 4.077 9.095 9.118s-4.054 9.118-9.095 9.118-9.118-4.077-9.118-9.118 4.077-9.118 9.118-9.118zM290.19 99.395a3.907 3.907 0 0 1-3.907-3.907V76.359a3.907 3.907 0 0 1 3.907-3.907h20.329a3.907 3.907 0 0 1 3.906 3.907v20.665l-.238-.199a3.91 3.91 0 0 1-3.671 2.57H290.19zm-2.469-23.036v19.128a2.473 2.473 0 0 0 2.469 2.47h20.326a2.475 2.475 0 0 0 2.47-2.47v-1.532l.002.001V76.359a2.474 2.474 0 0 0-2.469-2.472H290.19a2.474 2.474 0 0 0-2.469 2.472zm25.523 19.681.46-.55-.46.55z"/>
        <path d="M300.363 75.374c-5.819 0-10.556 4.737-10.556 10.556s4.737 10.556 10.556 10.556c5.817 0 10.532-4.737 10.532-10.556.001-5.818-4.714-10.556-10.532-10.556zm0 1.438c5.041 0 9.096 4.077 9.096 9.118s-4.056 9.118-9.096 9.118c-5.042 0-9.118-4.077-9.118-9.118s4.076-9.118 9.118-9.118zM321.744 99.395a3.907 3.907 0 0 1-3.905-3.908V76.36a3.905 3.905 0 0 1 3.905-3.908h20.328a3.91 3.91 0 0 1 3.908 3.908V95.489a3.91 3.91 0 0 1-3.908 3.906h-20.328zm-2.471-23.035v19.127a2.476 2.476 0 0 0 2.471 2.471h20.328a2.476 2.476 0 0 0 2.471-2.471V76.36a2.476 2.476 0 0 0-2.471-2.471h-20.328a2.475 2.475 0 0 0-2.471 2.471z"/>
        <path d="M331.915 75.374c-5.817 0-10.555 4.737-10.555 10.556s4.737 10.556 10.555 10.556 10.533-4.737 10.533-10.556c0-5.818-4.715-10.556-10.533-10.556zm0 1.438c5.042 0 9.097 4.077 9.097 9.118s-4.055 9.118-9.097 9.118c-5.041 0-9.117-4.077-9.117-9.118s4.076-9.118 9.117-9.118z"/>
    </g>
    <g fill="#F4F4F4">
        <path d="M258.635 130.44a3.906 3.906 0 0 1-3.908-3.907v-19.13a3.909 3.909 0 0 1 3.908-3.909h20.327a3.91 3.91 0 0 1 3.909 3.909v20.868l-.282-.282a3.906 3.906 0 0 1-3.626 2.451h-20.328zm-2.47-23.037v19.13a2.474 2.474 0 0 0 2.47 2.471h20.327a2.474 2.474 0 0 0 2.47-2.471v-19.13a2.473 2.473 0 0 0-2.47-2.47h-20.327a2.471 2.471 0 0 0-2.47 2.47zm25.477 19.639.509-.509-.509.509z"/>
        <path d="M268.809 106.411c-5.818 0-10.555 4.737-10.555 10.556s4.737 10.556 10.555 10.556 10.533-4.737 10.533-10.556c0-5.818-4.715-10.556-10.533-10.556zm0 1.438c5.042 0 9.095 4.077 9.095 9.118s-4.054 9.119-9.095 9.119a9.111 9.111 0 0 1-9.118-9.119 9.111 9.111 0 0 1 9.118-9.118zM290.19 130.441a3.907 3.907 0 0 1-3.907-3.907v-19.132a3.906 3.906 0 0 1 3.907-3.907h20.329a3.907 3.907 0 0 1 3.906 3.907v20.129l-.122-.041a3.911 3.911 0 0 1-3.787 2.951H290.19zm-2.469-23.039v19.132a2.472 2.472 0 0 0 2.469 2.469h20.326a2.475 2.475 0 0 0 2.47-2.469v-.997h.002v-18.136a2.472 2.472 0 0 0-2.469-2.469H290.19a2.474 2.474 0 0 0-2.469 2.47zm25.756 19.812.229-.679-.229.679z"/>
        <path d="M300.363 106.411c-5.819 0-10.556 4.737-10.556 10.556s4.737 10.556 10.556 10.556c5.817 0 10.532-4.737 10.532-10.556.001-5.818-4.714-10.556-10.532-10.556zm0 1.438c5.041 0 9.096 4.077 9.096 9.118s-4.056 9.119-9.096 9.119a9.11 9.11 0 0 1-9.118-9.119 9.11 9.11 0 0 1 9.118-9.118zM321.744 130.441a3.907 3.907 0 0 1-3.905-3.908v-19.131a3.905 3.905 0 0 1 3.905-3.908h20.328a3.91 3.91 0 0 1 3.908 3.908v19.133a3.91 3.91 0 0 1-3.908 3.906h-20.328zm-2.471-23.039v19.131a2.476 2.476 0 0 0 2.471 2.471h20.328a2.476 2.476 0 0 0 2.471-2.471v-19.131a2.478 2.478 0 0 0-2.471-2.471h-20.328a2.478 2.478 0 0 0-2.471 2.471z"/>
        <path d="M331.915 106.411c-5.817 0-10.555 4.737-10.555 10.556s4.737 10.556 10.555 10.556 10.533-4.737 10.533-10.556c0-5.818-4.715-10.556-10.533-10.556zm0 1.438c5.042 0 9.097 4.077 9.097 9.118s-4.055 9.119-9.097 9.119a9.11 9.11 0 0 1-9.117-9.119 9.11 9.11 0 0 1 9.117-9.118z"/>
    </g>
    <g fill="#F4F4F4">
        <path d="M257.778 161.486a3.907 3.907 0 0 1-3.908-3.906v-19.132a3.907 3.907 0 0 1 3.908-3.906h20.327a3.905 3.905 0 0 1 3.908 3.906v19.218l-.001.005a3.909 3.909 0 0 1-3.907 3.815h-20.327zm-2.471-23.038v19.132a2.473 2.473 0 0 0 2.471 2.469h20.327a2.472 2.472 0 0 0 2.469-2.469v-.09l.002-.008v-19.034a2.473 2.473 0 0 0-2.471-2.469h-20.327a2.474 2.474 0 0 0-2.471 2.469z"/>
        <path d="M267.933 137.472c-5.818 0-10.533 4.716-10.533 10.533 0 5.818 4.715 10.556 10.533 10.556s10.556-4.737 10.556-10.556c0-5.818-4.737-10.533-10.556-10.533zm0 1.437c5.042 0 9.119 4.054 9.119 9.095a9.112 9.112 0 0 1-9.119 9.119c-5.041 0-9.095-4.077-9.095-9.119a9.072 9.072 0 0 1 9.095-9.095zM289.333 161.486a3.907 3.907 0 0 1-3.907-3.907v-19.132a3.908 3.908 0 0 1 3.907-3.907h20.328a3.907 3.907 0 0 1 3.904 3.907V157.579a3.904 3.904 0 0 1-3.904 3.907h-20.328zm-2.472-23.039v19.132a2.48 2.48 0 0 0 2.472 2.472h20.328a2.476 2.476 0 0 0 2.47-2.472V138.447a2.473 2.473 0 0 0-2.47-2.469h-20.328a2.477 2.477 0 0 0-2.472 2.469z"/>
        <path d="M299.487 137.472c-5.818 0-10.533 4.715-10.533 10.533 0 5.819 4.715 10.556 10.533 10.556 5.819 0 10.556-4.737 10.556-10.556s-4.737-10.533-10.556-10.533zm0 1.437c5.042 0 9.119 4.054 9.119 9.095a9.111 9.111 0 0 1-9.119 9.119c-5.042 0-9.096-4.076-9.096-9.119a9.072 9.072 0 0 1 9.096-9.095zM320.881 161.486a3.905 3.905 0 0 1-3.905-3.905v-19.133a3.903 3.903 0 0 1 3.905-3.905h20.328a3.905 3.905 0 0 1 3.907 3.905v19.133a3.906 3.906 0 0 1-3.907 3.905h-20.328zm-2.469-23.039v19.133a2.472 2.472 0 0 0 2.469 2.469h20.328a2.473 2.473 0 0 0 2.471-2.469v-19.133a2.471 2.471 0 0 0-2.471-2.468h-20.328a2.471 2.471 0 0 0-2.469 2.468z"/>
        <path d="M331.039 137.472c-5.818 0-10.532 4.716-10.532 10.533 0 5.818 4.715 10.556 10.532 10.556s10.557-4.737 10.557-10.556c0-5.818-4.739-10.533-10.557-10.533zm0 1.437c5.041 0 9.119 4.054 9.119 9.095a9.112 9.112 0 0 1-9.119 9.119c-5.041 0-9.095-4.077-9.095-9.119a9.072 9.072 0 0 1 9.095-9.095z"/>
    </g>
    <g fill="#F4F4F4">
        <path d="M257.779 192.532a3.907 3.907 0 0 1-3.908-3.906v-19.132a3.908 3.908 0 0 1 3.908-3.908h20.326a3.907 3.907 0 0 1 3.908 3.908v19.174a3.909 3.909 0 0 1-3.908 3.864h-20.326zm-2.47-23.038v19.132a2.47 2.47 0 0 0 2.47 2.469h20.326a2.473 2.473 0 0 0 2.47-2.469v-19.132a2.474 2.474 0 0 0-2.47-2.472h-20.326a2.476 2.476 0 0 0-2.47 2.472z"/>
        <path d="M267.933 168.511c-5.818 0-10.533 4.737-10.533 10.555 0 5.817 4.715 10.532 10.533 10.532s10.556-4.715 10.556-10.532c0-5.818-4.737-10.555-10.556-10.555zm0 1.437a9.11 9.11 0 0 1 9.119 9.118c0 5.041-4.077 9.095-9.119 9.095a9.072 9.072 0 0 1-9.095-9.095c0-5.041 4.054-9.118 9.095-9.118zM289.333 192.532a3.906 3.906 0 0 1-3.906-3.906v-19.132a3.907 3.907 0 0 1 3.906-3.908h20.328a3.907 3.907 0 0 1 3.907 3.908v19.132a3.907 3.907 0 0 1-3.907 3.906h-20.328zm-2.471-23.038v19.132a2.472 2.472 0 0 0 2.47 2.469h20.328a2.473 2.473 0 0 0 2.47-2.469v-19.132a2.476 2.476 0 0 0-2.47-2.472h-20.328a2.476 2.476 0 0 0-2.47 2.472z"/>
        <path d="M299.487 168.511c-5.818 0-10.533 4.736-10.533 10.555 0 5.818 4.715 10.532 10.533 10.532 5.819 0 10.556-4.715 10.556-10.532 0-5.818-4.737-10.555-10.556-10.555zm0 1.437a9.11 9.11 0 0 1 9.119 9.118c0 5.041-4.076 9.095-9.119 9.095a9.072 9.072 0 0 1-9.096-9.095c0-5.042 4.054-9.118 9.096-9.118zM320.881 192.531a3.903 3.903 0 0 1-3.905-3.905v-19.133a3.906 3.906 0 0 1 3.905-3.907h20.328a3.908 3.908 0 0 1 3.907 3.907V188.626a3.906 3.906 0 0 1-3.907 3.905h-20.328zm-2.469-23.038v19.133a2.474 2.474 0 0 0 2.469 2.471h20.328a2.477 2.477 0 0 0 2.471-2.471V169.493a2.474 2.474 0 0 0-2.471-2.47h-20.328a2.473 2.473 0 0 0-2.469 2.47z"/>
        <path d="M331.039 168.511c-5.818 0-10.532 4.737-10.532 10.555 0 5.817 4.715 10.532 10.532 10.532s10.557-4.715 10.557-10.532c0-5.818-4.739-10.555-10.557-10.555zm0 1.437a9.111 9.111 0 0 1 9.119 9.118c0 5.041-4.077 9.095-9.119 9.095a9.072 9.072 0 0 1-9.095-9.095c0-5.041 4.054-9.118 9.095-9.118z"/>
    </g>
</svg>
