<svg height="355.598" viewBox="0 0 468.684 391.158" width="426.076" xmlns="http://www.w3.org/2000/svg">
    <g fill="#f4f4f4" fill-opacity=".5" stroke-width="2.75">
        <path d="M205.96 304.143q0 .264-.063.445-.095.268-.304.268-.139 0-.29-.064-.183-.077-.2-.189.061 0 .145.022.193.05.242.05.187 0 .281-.186.075-.15.075-.359 0-.147-.097-.42-.094-.275-.094-.383 0-.033.017-.053.02-.022.053-.022.086 0 .167.396.068.335.068.495zM206.807 304.368q0 .224-.13.352-.13.127-.358.127-.125 0-.194-.06-.068-.058-.068-.182 0-.173.227-.35.215-.167.398-.167.084 0 .11.104.015.06.015.176zm-.134.061q0-.026-.007-.05-.004-.027-.017-.06-.036.025-.117.12-.042.048-.073.07 0-.042.01-.069l.028-.063q-.097 0-.202.081-.104.081-.104.176 0 .064.07.064.135 0 .26-.066.152-.08.152-.203zM207.714 304.458q0 .108-.082.242-.092.152-.19.152-.03 0-.05-.031-.017-.033-.017-.064 0-.04.084-.123.085-.086.085-.117 0-.02-.007-.04l-.009-.026q-.165.038-.336.19-.17.151-.258.171-.017-.048-.017-.099 0-.061.028-.13.02-.048.066-.116.077-.117.163-.264l.152-.266q.11-.19.16-.269.027-.04.047-.06.028-.026.068-.034.026.009.037.033.014.024.014.057 0 .075-.097.202-.176.229-.18.238-.1.15-.1.27l.004.022q.121-.059.143-.068.09-.037.154-.037.07 0 .104.048.033.046.033.119zM208.735 304.328q0 .15-.073.32-.08.186-.196.257-.024-.029-.042-.064-.015-.035-.015-.07 0-.038.11-.223.048-.081.044-.143l-.002-.028q-.081.024-.282.147l-.4.246q-.03 0-.057-.022-.024-.024-.024-.052 0-.047.147-.31.044-.08.158-.276.036.047.047.104.01.055.01.132v.05q.203-.12.317-.182.126-.068.172-.068.03 0 .057.07.029.07.029.112zM210.646 304.755q0 .04-.035.062-.033.02-.075.02-.037 0-.094-.01-.13-.02-.167-.02-.066 0-.26.016-.11.009-.158.009-.135 0-.135-.134 0-.128.084-.365.046-.135.174-.44.114-.275.145-.388.011-.035.018-.046.017-.026.044-.026.041 0 .07.061.029.06.029.108 0 .077-.09.26l-.177.354q-.094.207-.094.315 0 .055.046.077.033.015.097.015.048 0 .167-.011.119-.013.158-.013.1 0 .163.028.09.04.09.128zM211.465 304.368q0 .224-.13.352-.13.127-.359.127-.125 0-.193-.06-.068-.058-.068-.182 0-.173.226-.35.216-.167.398-.167.084 0 .11.104.016.06.016.176zm-.134.061q0-.026-.007-.05-.004-.027-.018-.06-.035.025-.117.12-.041.048-.072.07 0-.042.009-.069l.028-.063q-.096 0-.202.081-.103.081-.103.176 0 .064.07.064.134 0 .26-.066.151-.08.151-.203zM212.391 304.322q0 .07-.037.15-.036.078-.09.131l-.003-.03q0-.027.007-.082.007-.055.007-.081 0-.038-.01-.055-.012-.02-.047-.02-.103 0-.257.16l-.332.35q-.014 0-.027-.002-.033-.009-.044-.01.007-.08.055-.177.13-.262.134-.28l.027-.103q.009-.033.024-.068.018-.037.04-.066.024-.03.061-.046l.022.264.145-.119q.097-.077.168-.077.07 0 .114.046.044.047.044.115zM213.471 304.066q0 .093-.246.245-.238.145-.346.145-.05 0-.068-.035-.015-.036-.015-.1v-.059q.147 0 .268-.044.121-.044.211-.145-.066-.024-.134-.024-.16 0-.34.123-.199.134-.199.286 0 .145.198.202.031.01.372.062.2.03.2.108 0 .033-.072.053-.073.022-.185.022-.282 0-.445-.086-.215-.115-.215-.368 0-.264.264-.42.224-.132.51-.132.086 0 .156.04.086.048.086.127zM214.347 303.673q0 .048-.117.202-.116.154-.116.235 0 .042.048.084.11.097.11.119 0 .028-.02.055-.017.026-.046.026-.024 0-.068-.026-.03-.018-.119-.086l-.05.097q-.062.116-.084.17l-.066.202q-.057.136-.143.136l-.002-.05q0-.157.101-.37.02-.04.11-.205-.174-.094-.383-.094 0-.082.033-.12.035-.039.117-.039.075 0 .187.027l.11.026q.042-.013.114-.143.178-.312.242-.359.018.029.029.058.013.028.013.055zM215.159 304.458q0 .108-.082.242-.092.152-.191.152-.029 0-.049-.031-.017-.033-.017-.064 0-.04.083-.123.086-.086.086-.117 0-.02-.007-.04l-.009-.026q-.165.038-.336.19-.17.151-.258.171-.017-.048-.017-.099 0-.061.028-.13.02-.048.066-.116.077-.117.163-.264l.152-.266q.11-.19.16-.269.027-.04.047-.06.028-.026.068-.034.026.009.037.033.013.024.013.057 0 .075-.096.202-.176.229-.18.238-.1.15-.1.27l.004.022q.121-.059.143-.068.09-.037.154-.037.07 0 .104.048.033.046.033.119zM216.965 303.74q0 .104-.11.278-.07.11-.231.317-.16.204-.2.268l.165.053q.16.048.16.176l-.13.02-.024-.002v-.018q-.035-.009-.057-.009-.042 0-.132.013-.09.014-.136.014-.06 0-.097-.022-.038-.022-.038-.08 0-.046.17-.261l.319-.407q.171-.234.171-.313 0-.03-.022-.046-.02-.015-.08-.015-.043 0-.175.08-.064.04-.103.04l-.038-.006q-.013-.01-.028-.033-.016-.027-.016-.042 0-.093.179-.17.151-.066.264-.066.094 0 .145.07.044.062.044.161zM218.287 304.137q0 .266-.288.47-.264.188-.544.188-.138 0-.22-.07-.08-.071-.08-.205 0-.3.26-.52.25-.209.557-.209.157 0 .236.093.08.092.08.253zm-.134.05q0-.1-.115-.151-.085-.038-.204-.038-.174 0-.363.17-.19.169-.19.34 0 .071.036.102.037.028.112.028.216 0 .449-.118.275-.141.275-.333zM219.295 303.74q0 .104-.11.278-.07.11-.231.317-.16.204-.2.268l.164.053q.161.048.161.176l-.13.02-.024-.002v-.018q-.035-.009-.057-.009-.042 0-.132.013-.09.014-.137.014-.059 0-.096-.022-.038-.022-.038-.08 0-.046.17-.261l.319-.407q.171-.234.171-.313 0-.03-.022-.046-.02-.015-.081-.015-.042 0-.174.08-.064.04-.103.04l-.038-.006q-.013-.01-.028-.033-.016-.027-.016-.042 0-.093.178-.17.152-.066.264-.066.095 0 .146.07.044.062.044.161zM220.307 303.74q0 .104-.11.278-.07.11-.231.317-.16.204-.2.268l.164.053q.161.048.161.176l-.13.02-.024-.002v-.018q-.035-.009-.057-.009-.042 0-.132.013-.09.014-.137.014-.059 0-.096-.022-.038-.022-.038-.08 0-.046.17-.261l.319-.407q.171-.234.171-.313 0-.03-.022-.046-.02-.015-.081-.015-.042 0-.174.08-.064.04-.103.04l-.038-.006q-.013-.01-.028-.033-.016-.027-.016-.042 0-.093.178-.17.152-.066.264-.066.095 0 .146.07.044.062.044.161z"/>
    </g>
    <g fill="none" stroke="#f4f4f4" stroke-linecap="round" stroke-linejoin="round">
        <path d="M234.342 295.639h80.893c11.194 2.891 15.39-4.172 16.138-16.139v-23.248l98.5-56.869c4.008-2.675 6.853-6.27 6.395-23.868V40.297c.255-8.445-2.537-12.52-12.393-12.393H234.342m0 267.735h-80.893c-16.414 0-15.39-4.172-16.138-16.139v-23.248l-98.5-56.869c-4.472-2.612-6.64-5.973-6.395-23.868V40.297c-.543-8.888 2.537-12.52 12.393-12.393h189.533" opacity=".98" stroke-width="1.1"/>
        <path d="m234.342 390.158 71.348-.2c11.82-1.605 20.226-7.95 28.324-14.722l77.229.286c19.737-.46 50.976-19.44 53.823-58.403l2.618-110.847-12.809-14.809V31.255c-.624-18.71-15.395-29.45-30.241-30.242H234.342m0 389.145-71.348-.2c-11.82-1.605-20.226-7.95-28.324-14.722l-77.23.286c-19.493-1.226-50.899-20.371-53.822-58.403L1 206.272l12.809-14.809V31.255C13.854 13.373 28.643.532 44.05 1.013h190.292" opacity=".98" stroke-width="2.2"/>
        <path d="M234.736 91.473h-90.353a3.187 3.187 0 0 0-3.194 3.194v126.63a3.187 3.187 0 0 0 3.194 3.193h90.282m-.072-133.017h90.354a3.187 3.187 0 0 1 3.194 3.194v126.63a3.187 3.187 0 0 1-3.194 3.193h-90.282" opacity=".98" stroke-width="2.2"/>
        <g stroke-width="1.1" transform="translate(-7.73 -5.126)">
            <circle cx="405.156" cy="313.055" opacity=".98" r="52"/>
            <circle cx="-79.063" cy="313.055" opacity=".98" r="52" transform="scale(-1 1)"/>
            <path d="M242.213 311.21h-61.654c-18.691 0-33.738 15.048-33.738 33.74s15.047 33.738 33.738 33.738h61.55m-.103-67.477h61.653c18.692 0 33.739 15.047 33.739 33.738s-15.047 33.739-33.739 33.739h-61.55" opacity=".98"/>
            <path d="M242.257 358.541h-62.732c-.785 0-1.418.632-1.418 1.418 0 .785.633 1.417 1.418 1.417h62.946m-.214-2.835h62.732c.785 0 1.417.632 1.417 1.418 0 .785-.632 1.417-1.417 1.417h-62.947" opacity=".98"/>
        </g>
        <path d="M234.528 364.755h-62.732c-.786 0-1.418.652-1.418 1.462s.632 1.461 1.418 1.461h62.946m-.214-2.923h62.732c.785 0 1.417.652 1.417 1.462s-.632 1.461-1.417 1.461h-62.947" opacity=".98" stroke-width=".825"/>
        <path d="M234.528 340.766h-62.732c-.786 0-1.418.613-1.418 1.375 0 .761.632 1.374 1.418 1.374h62.946m-.214-2.75h62.732c.785 0 1.417.614 1.417 1.376 0 .761-.632 1.374-1.417 1.374h-62.947" opacity=".98" stroke-width="1.1"/>
        <path d="M234.528 327.853h-62.732c-.786 0-1.418.445-1.418.999 0 .553.632.998 1.418.998h62.946m-.214-1.997h62.732c.785 0 1.417.445 1.417.999 0 .553-.632.998-1.417.998h-62.947" opacity=".98" stroke-width=".825"/>
        <path d="M234.528 316.946h-62.732c-.786 0-1.418.378-1.418.848s.632.848 1.418.848h62.946m-.214-1.696h62.732c.785 0 1.417.378 1.417.848s-.632.848-1.417.848h-62.947" opacity=".98" stroke-width=".66"/>
        <g stroke-width="2.2">
            <rect height="11.507" opacity=".98" rx="5.754" width="23.214" x="262.137" y="271.523"/>
            <rect height="11.507" opacity=".98" rx="5.754" width="23.214" x="228.137" y="271.523"/>
            <rect height="11.507" opacity=".98" rx="5.754" width="23.214" x="194.137" y="271.523"/>
            <rect height="11.507" opacity=".98" rx="5.754" width="23.214" x="160.137" y="271.523"/>
        </g>
        <circle cx="304.184" cy="278.011" opacity=".98" r="3" stroke-width="1.1"/>
        <rect height="18.71" opacity=".98" rx="10.07" stroke-width="2.2" width="64.735" x="366.172" y="318.935"/>
        <rect height="18.71" opacity=".98" rx="10.07" stroke-width="2.2" width="64.735" x="366.172" y="278.935"/>
        <g stroke-width="2.2" transform="translate(-7.73 -5.126)">
            <ellipse cx="106.782" cy="312.688" opacity=".98" rx="10.434" ry="10.433"/>
            <ellipse cx="50.782" cy="312.688" opacity=".98" rx="10.434" ry="10.433"/>
            <path d="M78.4 274.057a10.049 10.049 0 0 0-10.07 10.07V302.3H50.158c-5.578 0-10.07 4.49-10.07 10.068v.736c0 5.579 4.492 10.07 10.07 10.07H68.33v18.175a10.047 10.047 0 0 0 10.07 10.068h.737c5.578 0 10.07-4.49 10.07-10.068v-18.174h18.174a10.047 10.047 0 0 0 10.068-10.07v-.737c0-5.578-4.49-10.068-10.068-10.068H89.207v-18.174c0-5.579-4.492-10.07-10.07-10.07z" opacity=".98"/>
            <g transform="rotate(90)">
                <ellipse cx="284.688" cy="-78.782" opacity=".98" rx="10.434" ry="10.433"/>
                <ellipse cx="340.688" cy="-78.782" opacity=".98" rx="10.434" ry="10.433"/>
            </g>
        </g>
    </g>
</svg>
