<svg xmlns="http://www.w3.org/2000/svg" width="598.191" height="350.257" xml:space="preserve">
    <switch>
        <g fill="#F7F7F7">
            <path d="M172.114 72.569c-6.331-4.029-12.152-10.911-16.46-17.732-4.291-6.859-7.088-13.497-7.128-17.628 0-6.686 5.418-12.105 12.105-12.105 5.39 0 9.957 3.522 11.524 8.391 1.567-4.868 6.134-8.391 11.525-8.391 6.709.002 11.833 5.457 12.105 12.058.007.18.009.364.011.551-.11 9.864-10.258 27.473-22.465 34.873l-.614.367-.603-.384zm-21.264-35.36c-.04 3.132 2.589 9.81 6.769 16.389 4.024 6.389 9.481 12.836 15.141 16.617 11.114-6.939 20.821-24.19 20.714-32.502 0-.156-.005-.307-.012-.454-.249-5.475-4.402-9.83-9.781-9.83a9.793 9.793 0 0 0-9.782 9.781c.008.423-.151.925-.507 1.26a1.657 1.657 0 0 1-1.152.452c-.799-.029-1.719-.458-1.827-1.712a9.792 9.792 0 0 0-9.781-9.781 9.792 9.792 0 0 0-9.782 9.78zM202.738 213.393c-1.394-3.642-2.83-6.063-4.171-7.507-1.356-1.445-2.519-1.91-3.612-1.92-2.001-.055-4.452 1.92-6.557 4.883-2.113 2.923-3.892 6.635-4.991 9.485-3.287 8.651-7.532 9.689-8.482 9.749-.189.046-.48.098-.848.1-.786.021-2.019-.313-2.883-1.474-.865-1.148-1.375-2.898-1.378-5.666 0-.271.005-.556.017-.845.048-1.417.073-3.306.073-5.49.002-10.142-.522-26.74-1.23-33.57a40.005 40.005 0 0 1-.215-4.059c.043-3.403.374-6.369 1.846-8.159.503-.595 1.293-1.047 2.166-1.037 1.987.102 3.534 1.651 5.588 4.646 3.144 4.724 4.592 8.23 6.045 10.298 1.489 2.019 2.558 2.779 6.171 2.853.227 0 .474-.009.723-.013 3.698-.17 6.042-2.021 8.834-7.751 2.712-5.692 5.45-14.979 9.423-28.883l-.001-.001c11.94-46.27 53.953-80.444 103.948-80.447 59.289 0 107.35 48.061 107.353 107.348-.003 59.287-48.063 107.349-107.353 107.349-67.302-.032-102.192-48.322-110.466-69.889zm-2.467-9.086c1.644 1.78 3.174 4.443 4.638 8.255 7.994 20.85 42.25 68.434 108.294 68.397 29.009 0 55.255-11.754 74.266-30.761 19.008-19.011 30.762-45.258 30.762-74.265 0-29.004-11.754-55.253-30.762-74.263-19.011-19.008-45.257-30.76-74.266-30.76-48.912-.004-90.016 33.44-101.696 78.702l-1.126-.29 1.117.319c-3.988 13.939-6.71 23.253-9.566 29.274-2.782 5.981-6.123 8.953-10.868 9.075-.263.006-.524.013-.788.013-4 .071-6.427-1.356-8.078-3.849-1.687-2.444-3.023-5.771-6.071-10.335-1.859-2.876-3.355-3.711-3.655-3.611-.133.009-.2.015-.417.245-.206.227-.455.686-.653 1.322-.406 1.271-.621 3.197-.619 5.305 0 1.232.07 2.533.206 3.819.723 7.031 1.24 23.577 1.243 33.81 0 2.202-.024 4.107-.076 5.578-.012.265-.016.517-.016.757-.005 2.49.49 3.729.901 4.257.414.515.73.539 1.037.559.147 0 .268-.024.312-.036l.18-.063h.203l.009-.006a1.87 1.87 0 0 0 .322-.08c.312-.1.802-.314 1.426-.798 1.243-.96 3.021-3.017 4.711-7.382 1.16-2.994 2.987-6.835 5.274-10.006 2.289-3.132 5.024-5.787 8.442-5.845h.023c1.835 0 3.668.895 5.291 2.663z"/>
            <path d="M263.09 201.21c0-7.301 5.918-13.218 13.218-13.221 7.302.003 13.218 5.92 13.221 13.221-.003 7.3-5.918 13.218-13.221 13.221-7.3-.003-13.218-5.921-13.218-13.221zm2.324 0c.012 6.017 4.878 10.885 10.895 10.895 6.016-.01 10.886-4.878 10.895-10.895-.009-6.018-4.879-10.883-10.895-10.896-6.017.014-10.884 4.879-10.895 10.896zM380.462 201.21c0-7.301 5.917-13.218 13.219-13.22 7.301.002 13.218 5.919 13.22 13.22-.002 7.3-5.919 13.217-13.22 13.221-7.302-.004-13.219-5.921-13.219-13.221zm2.323 0a10.91 10.91 0 0 0 10.896 10.894 10.906 10.906 0 0 0 10.894-10.894c-.01-6.016-4.876-10.885-10.894-10.894-6.019.01-10.883 4.879-10.896 10.894z"/>
            <circle cx="402.107" cy="177.389" r="4.793"/>
            <circle cx="271.661" cy="177.389" r="4.794"/>
            <path d="M328.467 197.014c-1.144-2.093-1.441-4.646-1.463-8.15h4.649c-.02 3.176.41 5.128.863 5.865.471.665.478.72 1.754.817.775.002 1.347-.063 1.664-.162.325-.11.398-.161.577-.37.364-.371.984-2.116.955-5.861h4.646c-.009 3.093-.27 5.294-1.004 7.099-.69 1.81-2.248 3.166-3.84 3.586-1.045.307-2.036.354-2.999.355-.09.003-.181.005-.272.005-2.139 0-4.449-1.105-5.53-3.184z"/>
            <path d="M123.928 174.627c0-41.931 15.215-80.318 40.423-109.925l1.769 1.506c-24.864 29.208-39.867 67.054-39.867 108.419 0 46.216 18.727 88.042 49.012 118.33 30.288 30.285 72.117 49.013 118.33 49.013 46.215 0 88.041-18.728 118.329-49.013 30.285-30.288 49.013-72.113 49.013-118.33 0-46.214-18.728-88.041-49.013-118.329-30.288-30.285-72.116-49.012-118.329-49.012-36.802 0-70.821 11.875-98.448 32.007l-1.369-1.88C221.787 17.005 256.29 4.96 293.595 4.96c93.703 0 169.667 75.962 169.667 169.666s-75.964 169.667-169.667 169.667c-93.704.001-169.667-75.962-169.667-169.666z"/>
        </g>
    </switch>
</svg>
