<svg height="363.693" viewBox="0 0 949.368 327.324" width="1054.853" xmlns="http://www.w3.org/2000/svg">
    <g fill="#f4f4f4" fill-opacity=".5" stroke-width=".9">
        <path d="M845.242 255.603q0 .288-.07.484-.102.293-.33.293-.152 0-.317-.07-.2-.083-.219-.206.068 0 .159.024.211.055.264.055.204 0 .307-.204.082-.163.082-.39 0-.162-.106-.46-.103-.3-.103-.417 0-.036.02-.057.02-.024.057-.024.093 0 .182.432.074.364.074.54zM846.166 255.847q0 .245-.141.384-.142.14-.391.14-.137 0-.212-.065-.074-.065-.074-.2 0-.189.247-.38.235-.183.435-.183.09 0 .12.112.016.065.016.192zm-.146.068q0-.03-.007-.056-.005-.028-.02-.064-.038.026-.126.13-.046.052-.08.076 0-.046.01-.074.02-.041.032-.07-.106 0-.221.089-.113.089-.113.192 0 .07.077.07.146 0 .283-.073.166-.086.166-.22zM847.155 255.946q0 .117-.089.264-.1.165-.208.165-.032 0-.053-.033-.02-.036-.02-.07 0-.043.092-.134.093-.094.093-.127 0-.022-.007-.044l-.01-.028q-.18.04-.367.206-.185.166-.28.187-.02-.053-.02-.108 0-.067.031-.141.022-.053.072-.128.084-.127.178-.288l.166-.29q.12-.206.175-.293.029-.043.05-.065.031-.028.075-.038.028.01.04.036.015.026.015.062 0 .082-.106.221-.192.25-.197.26-.108.163-.108.295l.005.024q.132-.065.156-.075.099-.04.168-.04.077 0 .113.052.036.05.036.13zM848.269 255.804q0 .163-.08.348-.086.204-.213.281-.026-.031-.046-.07-.016-.038-.016-.076 0-.041.12-.243.052-.089.048-.156l-.002-.03q-.09.025-.308.16-.216.132-.436.269-.034 0-.063-.024-.026-.027-.026-.058 0-.05.16-.338.049-.087.173-.3.039.05.05.112.013.06.013.144v.056q.22-.132.345-.2.137-.074.188-.074.033 0 .062.077.031.077.031.122zM850.354 256.27q0 .043-.038.067-.036.022-.082.022-.04 0-.103-.01-.141-.022-.182-.022-.072 0-.283.017-.12.01-.173.01-.147 0-.147-.147 0-.139.092-.398.05-.146.19-.48.124-.3.158-.422.012-.039.019-.05.02-.03.048-.03.045 0 .077.068.03.064.03.117 0 .084-.098.283l-.192.387q-.103.225-.103.343 0 .06.05.084.037.017.106.017.053 0 .183-.012.13-.015.172-.015.108 0 .178.032.098.043.098.139zM851.247 255.847q0 .245-.141.384-.142.14-.392.14-.136 0-.21-.065-.075-.065-.075-.2 0-.189.247-.38.235-.183.434-.183.092 0 .12.112.017.065.017.192zm-.146.068q0-.03-.007-.056-.005-.028-.02-.064-.038.026-.127.13-.045.052-.079.076 0-.046.01-.074.02-.041.031-.07-.105 0-.22.089-.113.089-.113.192 0 .07.077.07.146 0 .283-.073.165-.086.165-.22zM852.258 255.797q0 .077-.041.163-.039.087-.099.144l-.002-.033q0-.03.007-.09t.007-.088q0-.04-.012-.06-.012-.022-.05-.022-.113 0-.28.176l-.363.381q-.015 0-.029-.002l-.048-.012q.007-.086.06-.192.142-.285.146-.305l.03-.112q.01-.036.026-.075.019-.04.043-.072.026-.033.067-.05l.024.288.158-.13q.106-.084.183-.084t.125.05q.048.051.048.125zM853.436 255.519q0 .1-.269.266-.259.158-.377.158-.055 0-.074-.038-.017-.038-.017-.108v-.065q.161 0 .293-.048.132-.048.23-.158-.072-.027-.146-.027-.175 0-.372.135-.216.146-.216.312 0 .158.216.22.034.01.406.068.218.033.218.117 0 .036-.08.058-.078.024-.2.024-.308 0-.486-.094-.235-.124-.235-.4 0-.288.288-.459.245-.144.557-.144.094 0 .17.043.094.053.094.14zM854.391 255.09q0 .052-.127.22t-.127.257q0 .045.053.09.12.106.12.13 0 .032-.022.06-.02.03-.05.03-.027 0-.075-.03-.033-.019-.13-.093-.035.07-.055.105-.067.128-.09.185l-.073.221q-.062.149-.156.149l-.002-.055q0-.17.11-.404.022-.043.12-.223-.189-.103-.417-.103 0-.089.036-.13.038-.043.127-.043.082 0 .204.03l.12.028q.046-.015.125-.156.194-.34.264-.391.02.03.031.062.015.031.015.06zM855.277 255.946q0 .117-.089.264-.1.165-.209.165-.03 0-.053-.033-.019-.036-.019-.07 0-.043.091-.134.094-.094.094-.127 0-.022-.007-.044l-.01-.028q-.18.04-.367.206-.185.166-.28.187-.02-.053-.02-.108 0-.067.031-.141.022-.053.072-.128.084-.127.178-.288l.165-.29q.12-.206.175-.293.03-.043.05-.065.032-.028.075-.038.03.01.041.036.014.026.014.062 0 .082-.105.221-.192.25-.197.26-.108.163-.108.295l.005.024q.132-.065.156-.075.098-.04.168-.04.077 0 .113.052.036.05.036.13zM857.247 255.163q0 .113-.12.303-.077.12-.252.345-.175.224-.218.293l.18.058q.175.053.175.192-.072.012-.142.021l-.026-.002v-.019q-.038-.01-.062-.01-.046 0-.144.015-.099.014-.15.014-.064 0-.105-.024-.04-.024-.04-.086 0-.05.184-.286l.348-.444q.187-.254.187-.34 0-.034-.024-.051-.021-.017-.088-.017-.046 0-.19.089-.07.043-.113.043l-.04-.007q-.015-.01-.032-.036-.017-.029-.017-.046 0-.1.195-.184.165-.072.288-.072.103 0 .158.076.048.068.048.176zM858.69 255.595q0 .29-.315.514-.288.204-.593.204-.15 0-.24-.077-.088-.077-.088-.223 0-.326.285-.566.271-.228.607-.228.17 0 .257.1.087.101.087.276zm-.147.056q0-.11-.125-.166-.093-.04-.223-.04-.19 0-.396.184-.206.185-.206.372 0 .077.038.11.041.032.123.032.235 0 .49-.13.3-.154.3-.362zM859.789 255.163q0 .113-.12.303-.077.12-.252.345-.175.224-.219.293l.18.058q.176.053.176.192-.072.012-.142.021l-.026-.002v-.019q-.039-.01-.063-.01-.045 0-.144.015-.098.014-.149.014-.064 0-.105-.024-.04-.024-.04-.086 0-.05.184-.286l.348-.444q.187-.254.187-.34 0-.034-.024-.051-.022-.017-.089-.017-.045 0-.19.089-.069.043-.112.043l-.04-.007q-.015-.01-.032-.036-.017-.029-.017-.046 0-.1.194-.184.166-.072.288-.072.104 0 .159.076.048.068.048.176zM860.893 255.163q0 .113-.12.303-.077.12-.252.345-.175.224-.219.293l.18.058q.176.053.176.192-.072.012-.142.021l-.026-.002v-.019q-.039-.01-.063-.01-.045 0-.144.015-.098.014-.149.014-.064 0-.105-.024-.04-.024-.04-.086 0-.05.184-.286l.348-.444q.187-.254.187-.34 0-.034-.024-.051-.022-.017-.089-.017-.045 0-.19.089-.069.043-.112.043l-.04-.007q-.015-.01-.032-.036-.017-.029-.017-.046 0-.1.194-.184.166-.072.288-.072.104 0 .159.076.048.068.048.176z"/>
    </g>
    <g fill="none">
        <g stroke="#f4f4f4">
            <rect height="325.524" rx="13.253" ry="13.253" stroke-linecap="round" stroke-width="1.8" width="768.27" x=".9" y=".9"/>
            <g stroke-width=".9">
                <path d="M852.503 240.231c.492 0 1.087.108 1.783.322.703.215 1.17.322 1.4.322.295 0 .778-.12 1.448-.363.67-.243 1.251-.364 1.744-.364.808 0 1.528.229 2.158.686.355.263.706.62 1.055 1.07-.526.47-.91.89-1.153 1.257-.44.665-.66 1.4-.66 2.203 0 .88.233 1.672.7 2.379.465.706.998 1.153 1.595 1.34-.25.852-.663 1.742-1.241 2.67-.874 1.392-1.741 2.088-2.602 2.088-.341 0-.814-.114-1.419-.343-.597-.228-1.103-.343-1.517-.343-.414 0-.897.118-1.449.354-.545.242-.988.363-1.33.363-1.031 0-2.043-.92-3.035-2.763-.992-1.822-1.488-3.609-1.488-5.361 0-1.628.378-2.954 1.133-3.98.762-1.024 1.721-1.537 2.878-1.537m6.208-4.093c.026.09.042.17.049.239.007.07.01.138.01.208 0 .443-.099.928-.296 1.454a4.332 4.332 0 0 1-.936 1.465c-.368.38-.732.637-1.094.769-.23.076-.578.135-1.044.176.013-1.052.272-1.963.778-2.732.513-.769 1.357-1.295 2.533-1.58"/>
                <path d="M843.542 233.25h23.9v23.9h-23.9z" stroke-linecap="round"/>
            </g>
        </g>
        <path d="M74.392 244.083c.722 0 1.592.158 2.612.472 1.03.314 1.712.472 2.05.472.432 0 1.14-.178 2.12-.533.982-.355 1.833-.532 2.555-.532 1.183 0 2.236.334 3.16 1.004.52.385 1.034.908 1.544 1.567-.77.69-1.332 1.303-1.688 1.84a5.72 5.72 0 0 0-.967 3.226c0 1.288.341 2.45 1.024 3.484.683 1.035 1.463 1.69 2.338 1.963-.366 1.248-.972 2.551-1.818 3.91-1.28 2.039-2.55 3.058-3.81 3.058-.5 0-1.193-.167-2.078-.502-.875-.335-1.616-.502-2.222-.502-.606 0-1.313.173-2.121.517-.799.355-1.448.533-1.949.533-1.51 0-2.991-1.35-4.444-4.047-1.453-2.668-2.18-5.285-2.18-7.85 0-2.384.554-4.327 1.66-5.828 1.116-1.501 2.52-2.252 4.214-2.252m9.091-5.994c.039.132.063.248.072.35a3.1 3.1 0 0 1 .015.304c0 .65-.144 1.36-.433 2.13-.289.771-.746 1.486-1.37 2.145-.54.558-1.074.934-1.603 1.126-.336.112-.846.198-1.53.259.02-1.542.4-2.876 1.14-4.001.751-1.126 1.987-1.897 3.71-2.313" stroke="#f4f4f4" stroke-width=".9"/>
        <g stroke-linecap="round" transform="translate(-14.82 -147.084)">
            <path d="M76.09 380.945h35v35h-35z" stroke="#f4f4f4" stroke-width=".9"/>
            <rect height="60.673" rx="5.551" stroke="#f4f4ec" stroke-width="2" width="85.381" x="851.196" y="251.488"/>
            <rect height="144.131" rx="4.579" stroke="#f4f4f4" stroke-width=".9" width="113.478" x="837.131" y="270.619"/>
            <path d="M876.188 235.13a1.305 1.305 0 0 0-1.205 1.81h-4.553a1.301 1.301 0 0 0-.957 2.19h-30.988a13.3 13.3 0 0 0-13.328 13.328v179.14a13.3 13.3 0 0 0 13.328 13.33H949.86a13.3 13.3 0 0 0 13.328-13.33v-179.14a13.3 13.3 0 0 0-13.328-13.328h-31.092a1.303 1.303 0 0 0-.957-2.19h-4.437a1.305 1.305 0 0 0-1.205-1.81z" stroke="#f4f4ec" stroke-width="2"/>
        </g>
        <g stroke="#f4f4f4" stroke-linecap="round" stroke-width="1.8">
            <rect height="33" rx="4.255" width="33" x="394.825" y="188.924"/>
            <rect height="33" rx="4.255" width="33" x="350.825" y="188.924"/>
            <rect height="33" rx="4.255" width="33" x="308.825" y="188.924"/>
            <rect height="33" rx="4.255" width="33" x="264.825" y="188.924"/>
            <rect height="33" rx="4.255" width="33" x="220.825" y="188.924"/>
            <rect height="33" rx="4.255" width="33" x="176.825" y="188.924"/>
            <rect height="33" rx="4.255" width="77" x="90.825" y="188.924"/>
            <rect height="33" rx="4.255" width="90.045" x="612.825" y="188.924"/>
            <rect height="33" rx="4.255" width="33" x="570.825" y="188.924"/>
            <rect height="33" rx="4.255" width="33" x="526.825" y="188.924"/>
            <rect height="33" rx="4.255" width="33" x="482.825" y="188.924"/>
            <rect height="33" rx="4.255" width="33" x="438.825" y="188.924"/>
            <rect height="33" rx="4.255" width="33" x="372.825" y="144.924"/>
            <rect height="33" rx="4.255" width="33" x="328.825" y="144.924"/>
            <rect height="33" rx="4.255" width="33" x="286.825" y="144.924"/>
            <rect height="33" rx="4.255" width="33" x="242.825" y="144.924"/>
            <rect height="33" rx="4.255" width="33" x="198.825" y="144.924"/>
            <rect height="33" rx="4.255" width="33" x="154.825" y="144.924"/>
            <rect height="33" rx="4.255" width="55" x="90.825" y="144.924"/>
            <rect height="33" rx="4.255" width="68.045" x="634.825" y="144.924"/>
            <rect height="33" rx="4.255" width="33" x="590.825" y="144.924"/>
            <rect height="33" rx="4.255" width="33" x="548.825" y="144.924"/>
            <rect height="33" rx="4.255" width="33" x="504.825" y="144.924"/>
            <rect height="33" rx="4.255" width="33" x="460.825" y="144.924"/>
            <rect height="33" rx="4.255" width="33" x="416.825" y="144.924"/>
            <rect height="33" rx="4.255" width="33" x="363.871" y="100.924"/>
            <rect height="33" rx="4.255" width="33" x="319.871" y="100.924"/>
            <rect height="33" rx="4.255" width="33" x="277.871" y="100.924"/>
            <rect height="33" rx="4.255" width="33" x="233.871" y="100.924"/>
            <rect height="33" rx="4.255" width="33" x="189.871" y="100.924"/>
            <rect height="33" rx="4.255" width="33" x="145.871" y="100.924"/>
            <rect height="33" rx="4.255" width="46.045" x="90.825" y="100.924"/>
            <rect height="33" rx="4.255" width="33" x="625.871" y="100.924"/>
            <rect height="33" rx="4.255" width="33" x="581.871" y="100.924"/>
            <rect height="33" rx="4.255" width="33" x="539.871" y="100.924"/>
            <rect height="33" rx="4.255" width="33" x="495.871" y="100.924"/>
            <rect height="33" rx="4.255" width="33" x="451.871" y="100.924"/>
            <rect height="33" rx="4.255" width="33" x="407.871" y="100.924"/>
            <rect height="33" rx="4.255" width="33" x="669.871" y="100.924"/>
            <rect height="33" rx="4.255" width="33" x="352.825" y="56.924"/>
            <rect height="33" rx="4.255" width="33" x="308.825" y="56.924"/>
            <rect height="33" rx="4.255" width="33" x="266.825" y="56.924"/>
            <rect height="33" rx="4.255" width="33" x="222.825" y="56.924"/>
            <rect height="33" rx="4.255" width="33" x="178.825" y="56.924"/>
            <rect height="33" rx="4.255" width="33" x="134.825" y="56.924"/>
            <rect height="33" rx="4.255" width="33" x="614.825" y="56.924"/>
            <rect height="33" rx="4.255" width="33" x="570.825" y="56.924"/>
            <rect height="33" rx="4.255" width="33" x="528.825" y="56.924"/>
            <rect height="33" rx="4.255" width="33" x="484.825" y="56.924"/>
            <rect height="33" rx="4.255" width="33" x="440.825" y="56.924"/>
            <rect height="33" rx="4.255" width="33" x="396.825" y="56.924"/>
            <rect height="33" rx="4.255" width="33" x="90.825" y="56.924"/>
            <rect height="33" rx="4.255" width="44.045" x="658.825" y="56.924"/>
            <rect height="33" rx="4.255" width="319.695" x="228.825" y="230.924"/>
            <rect height="33" rx="4.255" width="33" x="628.825" y="230.924"/>
            <rect height="33" rx="4.255" width="57" x="560.825" y="230.924"/>
            <rect height="33" rx="4.255" width="33" x="116.825" y="230.924"/>
            <rect height="33" rx="4.255" width="57" x="160.825" y="230.924"/>
        </g>
    </g>
</svg>
