<svg version="1.2" baseProfile="tiny" xmlns="http://www.w3.org/2000/svg" width="598.189" height="350.26" xml:space="preserve">
    <path fill="#F4F4F4" d="M107.527 100.097c-49.126 0-88.963 39.837-88.963 88.959 0 49.126 39.837 88.963 88.963 88.963 49.125 0 88.963-39.836 88.963-88.963 0-49.125-39.836-88.963-88.963-88.963v.004zm0 1.845c48.128 0 87.118 38.989 87.118 87.118s-38.989 87.119-87.118 87.119c-48.133 0-87.122-38.984-87.122-87.12 0-48.126 38.989-87.115 87.118-87.115l.004-.002z"/>
    <path fill="#F4F4F4" d="M107.527 151.53c-20.715 0-37.534 16.817-37.534 37.534 0 20.715 16.818 37.533 37.534 37.533 20.716 0 37.534-16.817 37.534-37.533s-16.817-37.534-37.534-37.534zm0 1.845c19.718 0 35.689 15.97 35.689 35.689 0 19.718-15.97 35.688-35.689 35.688-19.718 0-35.689-15.97-35.689-35.688s15.971-35.689 35.689-35.689zM107.527 129.934l4.526 17.182h-9.052l4.526-17.182zM65.698 147.231l15.365 8.965-6.371 6.4-8.994-15.365zM65.583 184.537v9.053l-17.21-4.526 17.21-4.527zM74.692 215.528l6.371 6.398-15.365 8.966 8.994-15.364zM103.001 231.002h9.052l-4.526 17.182-4.526-17.182zM140.39 215.528l8.937 15.335-15.336-8.937 6.399-6.398zM149.475 184.537l17.239 4.526-17.239 4.526v-9.052zM149.326 147.26l-8.937 15.337-6.4-6.4 15.337-8.937z"/>
    <g fill="#F4F4F4">
        <path d="M299.868 115.579c-18.162 0-32.892 14.73-32.892 32.892 0 18.162 14.73 32.922 32.892 32.922 18.161 0 32.922-14.759 32.922-32.922 0-18.162-14.759-32.892-32.922-32.892zm0 1.845c17.165 0 31.076 13.882 31.076 31.047s-13.911 31.077-31.076 31.077c-17.164 0-31.047-13.912-31.047-31.077s13.883-31.047 31.047-31.047z"/>
        <path d="M299.868 126.101c-12.345 0-22.37 10.025-22.37 22.37s10.025 22.371 22.37 22.371c12.346 0 22.37-10.026 22.37-22.371s-10.024-22.37-22.37-22.37zm0 1.844c11.347 0 20.525 9.178 20.525 20.525s-9.179 20.525-20.525 20.525c-11.348 0-20.525-9.178-20.525-20.525s9.178-20.525 20.525-20.525z"/>
    </g>
    <g fill="#F4F4F4">
        <path d="M383.354 115.579c-18.164 0-32.894 14.731-32.894 32.892 0 18.162 14.731 32.893 32.894 32.893 18.161 0 32.922-14.731 32.922-32.893s-14.76-32.892-32.922-32.892zm0 1.845c17.163 0 31.076 13.883 31.076 31.047 0 17.165-13.913 31.047-31.076 31.047-17.166 0-31.048-13.883-31.048-31.047.001-17.165 13.882-31.047 31.048-31.047z"/>
        <path d="M383.354 126.101c-12.346 0-22.371 10.025-22.371 22.37s10.025 22.371 22.371 22.371c12.344 0 22.369-10.026 22.369-22.371s-10.025-22.37-22.369-22.37zm0 1.844c11.348 0 20.523 9.178 20.523 20.525s-9.178 20.525-20.523 20.525c-11.348 0-20.526-9.178-20.526-20.525s9.179-20.525 20.526-20.525z"/>
    </g>
    <g fill="#F4F4F4">
        <path d="M466.839 115.579c-18.162 0-32.893 14.731-32.893 32.892 0 18.162 14.73 32.893 32.893 32.893s32.922-14.731 32.922-32.893-14.76-32.892-32.922-32.892zm0 1.845c17.165 0 31.077 13.883 31.077 31.047 0 17.165-13.912 31.047-31.077 31.047s-31.048-13.883-31.048-31.047c0-17.165 13.884-31.047 31.048-31.047z"/>
        <path d="M466.839 126.101c-12.346 0-22.371 10.025-22.371 22.37s10.025 22.371 22.371 22.371c12.344 0 22.371-10.026 22.371-22.371s-10.027-22.37-22.371-22.37zm0 1.844c11.348 0 20.525 9.178 20.525 20.525s-9.178 20.525-20.525 20.525-20.525-9.178-20.525-20.525 9.177-20.525 20.525-20.525z"/>
    </g>
    <g fill="#F4F4F4">
        <path d="M547.962 34.457c-18.162 0-32.892 14.731-32.892 32.892 0 18.162 14.731 32.922 32.892 32.922 18.163 0 32.893-14.76 32.893-32.922-.009-18.161-14.742-32.892-32.896-32.892h.003zm0 1.845c17.165 0 31.048 13.884 31.048 31.047 0 17.165-13.883 31.077-31.048 31.077-17.164 0-31.047-13.912-31.047-31.077 0-17.164 13.883-31.047 31.052-31.047h-.005z"/>
        <path d="M547.962 44.979c-12.345 0-22.369 10.026-22.369 22.371s10.024 22.398 22.369 22.398c12.346 0 22.37-10.054 22.37-22.398s-10.024-22.371-22.37-22.371zm0 1.844c11.349 0 20.525 9.178 20.525 20.526s-9.177 20.554-20.525 20.554c-11.348 0-20.524-9.206-20.524-20.554s9.176-20.526 20.524-20.526z"/>
    </g>
    <g fill="#F4F4F4">
        <path d="M299.868 197.507c-18.162 0-32.892 14.759-32.892 32.922 0 18.161 14.73 32.892 32.892 32.892 18.161 0 32.922-14.73 32.922-32.892 0-18.162-14.759-32.922-32.922-32.922zm0 1.845c17.165 0 31.076 13.911 31.076 31.077 0 17.164-13.911 31.047-31.076 31.047-17.164 0-31.047-13.883-31.047-31.047 0-17.165 13.883-31.077 31.047-31.077z"/>
        <path d="M299.868 208.06c-12.345 0-22.37 10.026-22.37 22.371s10.025 22.37 22.37 22.37c12.346 0 22.37-10.025 22.37-22.37s-10.024-22.371-22.37-22.371zm0 1.844c11.347 0 20.525 9.179 20.525 20.526s-9.179 20.525-20.525 20.525c-11.348 0-20.525-9.179-20.525-20.525 0-11.347 9.178-20.526 20.525-20.526z"/>
    </g>
    <g fill="#F4F4F4">
        <path d="M383.354 197.507c-18.164 0-32.894 14.76-32.894 32.922 0 18.161 14.731 32.892 32.894 32.892 18.161 0 32.922-14.731 32.922-32.892 0-18.162-14.76-32.922-32.922-32.922zm0 1.845c17.163 0 31.076 13.912 31.076 31.077 0 17.164-13.913 31.047-31.076 31.047-17.166 0-31.048-13.884-31.048-31.047.001-17.165 13.882-31.077 31.048-31.077z"/>
        <path d="M383.354 208.06c-12.346 0-22.371 10.026-22.371 22.371s10.025 22.37 22.371 22.37c12.344 0 22.369-10.025 22.369-22.37s-10.025-22.371-22.369-22.371zm0 1.844c11.348 0 20.523 9.179 20.523 20.526s-9.178 20.525-20.523 20.525c-11.348 0-20.526-9.179-20.526-20.525 0-11.347 9.179-20.526 20.526-20.526z"/>
    </g>
    <path fill="#F4F4F4" d="M466.839 197.507c-18.162 0-32.893 14.76-32.893 32.922 0 18.161 14.73 32.892 32.893 32.892s32.922-14.731 32.922-32.892c0-18.162-14.76-32.922-32.922-32.922zm0 1.845c17.165 0 31.077 13.912 31.077 31.077 0 17.164-13.912 31.047-31.077 31.047s-31.048-13.884-31.048-31.047c0-17.165 13.884-31.077 31.048-31.077z"/>
    <path fill="#F4F4F4" d="M466.839 208.06c-12.346 0-22.371 10.026-22.371 22.371s10.025 22.37 22.371 22.37c12.344 0 22.371-10.025 22.371-22.37s-10.027-22.371-22.371-22.371zm0 1.844c11.348 0 20.525 9.179 20.525 20.526s-9.178 20.525-20.525 20.525-20.525-9.179-20.525-20.525c-.001-11.347 9.177-20.526 20.525-20.526z"/>
    <g fill="#F4F4F4">
        <path d="M415.382 229.877v1.845h19.604v-1.845h-19.604zM331.952 229.877v1.845h19.517v-1.845h-19.517z"/>
        <path d="M256.742 229.877v50.593h253.251v-50.593h-11.1v1.845h9.254v46.903H258.586v-46.903h9.399v-1.845h-11.243z"/>
    </g>
    <g fill="#F4F4F4">
        <path d="M415.382 148.384v1.846h19.604v-1.846h-19.604zM331.952 148.384v1.846h19.517v-1.846h-19.517z"/>
        <path d="M256.742 99.636v50.594h11.243v-1.846h-9.399v-46.903h249.561v46.903h-9.254v1.846h11.1V99.636H256.742z"/>
    </g>
</svg>
