<svg version="1.2" baseProfile="tiny" xmlns="http://www.w3.org/2000/svg" width="598.189" height="350.26" xml:space="preserve">
    <path fill="#F4F4F4" d="M148.05 114.447c-23.656 0-42.861 19.204-42.861 42.861v37.414c0 23.658 19.205 42.86 42.861 42.86h38.694c23.656 0 42.861-19.202 42.861-42.86v-37.414c0-23.657-19.205-42.861-42.861-42.861H148.05zm0 1.905h38.694c22.627 0 40.956 18.328 40.956 40.956v37.414c0 22.629-18.329 40.956-40.956 40.956H148.05c-22.628 0-40.956-18.327-40.956-40.956v-37.414c0-22.629 18.328-40.956 40.956-40.956z"/>
    <path fill="#F4F4F4" d="M167.395 123.168a5.874 5.874 0 0 0-5.863 5.864v13.037a5.873 5.873 0 0 0 5.863 5.863 5.873 5.873 0 0 0 5.863-5.863v-13.037a5.874 5.874 0 0 0-5.863-5.864zm0 1.906a3.94 3.94 0 0 1 3.958 3.958v13.037a3.94 3.94 0 0 1-3.958 3.958 3.939 3.939 0 0 1-3.958-3.958v-13.037a3.939 3.939 0 0 1 3.958-3.958zM120.425 170.135c-3.23 0-5.864 2.633-5.864 5.864s2.632 5.894 5.864 5.894h13.037c3.229 0 5.864-2.662 5.864-5.894a5.875 5.875 0 0 0-5.864-5.864h-13.037zm0 1.905h13.037a3.941 3.941 0 0 1 3.959 3.959c0 2.201-1.759 3.988-3.959 3.988h-13.037a3.973 3.973 0 0 1-3.955-3.99 3.94 3.94 0 0 1 3.958-3.959l-.003.002zM167.395 204.071c-3.23 0-5.863 2.663-5.863 5.894v13.038a5.873 5.873 0 0 0 5.863 5.863 5.873 5.873 0 0 0 5.863-5.863v-13.038c0-3.23-2.633-5.894-5.863-5.894zm0 1.906c2.201 0 3.958 1.789 3.958 3.988v13.038a3.94 3.94 0 0 1-3.958 3.958 3.94 3.94 0 0 1-3.958-3.958v-13.038c-.001-2.2 1.757-3.988 3.958-3.988zM201.321 170.135c-3.229 0-5.863 2.633-5.863 5.864s2.633 5.894 5.863 5.894h13.067c3.229 0 5.863-2.662 5.863-5.894 0-3.229-2.633-5.864-5.863-5.864h-13.067zm0 1.905h13.067c2.2 0 3.958 1.76 3.958 3.959 0 2.201-1.758 3.988-3.958 3.988h-13.067c-2.2 0-3.958-1.788-3.958-3.988s1.759-3.959 3.958-3.959zM133.878 141.176l-1.31 1.31 8.155 12.025.655.952.804-.803 3.869-3.87.804-.804-.953-.655-12.024-8.155zM141.383 196.566l-.654.952-8.156 12.024 1.31 1.31 12.025-8.155.953-.654-.804-.804-3.87-3.869-.804-.804zM193.435 196.566l-.804.804-3.869 3.869-.833.804.953.654 12.025 8.155 1.339-1.31-8.156-12.024-.655-.952zM200.912 141.176l-12.025 8.155-.953.655.833.804 3.87 3.87.804.803.655-.952 8.155-12.025-1.339-1.31z"/>
    <path fill="#F4F4F4" d="M146.354 104.833c-27.67 0-50.123 22.453-50.123 50.124v42.117c0 27.671 22.453 50.123 50.123 50.123h42.117c27.671 0 50.124-22.452 50.124-50.123v-42.117c0-27.67-22.452-50.124-50.124-50.124h-42.117zm0 1.906h42.117c26.644 0 48.219 21.577 48.219 48.218v42.117c0 26.644-21.577 48.218-48.219 48.218h-42.117c-26.642 0-48.218-21.574-48.218-48.218v-42.117c0-26.642 21.577-48.218 48.218-48.218z"/>
    <path fill="#F4F4F4" d="M69.499 75.694v204.865H267.526v-27.353h290.473V137.843H267.525V75.695H70.451l-.952-.001zm1.904 1.905H265.62v62.149h290.474V251.3H265.618V278.653H71.401V77.598l.002.001z"/>
    <path fill="#F4F4F4" d="M400.692 169.126c-19.762 0-35.777 16.046-35.777 35.807s16.018 35.807 35.777 35.807 35.807-16.046 35.807-35.807-16.047-35.807-35.807-35.807zm0 1.905c18.73 0 33.901 15.17 33.901 33.902s-15.171 33.902-33.901 33.902c-18.731 0-33.872-15.171-33.872-33.902s15.141-33.902 33.872-33.902z"/>
    <path fill="#F4F4F4" d="M400.692 177.669c-15.039 0-27.234 12.227-27.234 27.265s12.195 27.234 27.234 27.234c15.036 0 27.264-12.196 27.264-27.234s-12.227-27.265-27.264-27.265zm0 1.905c14.008 0 25.359 11.351 25.359 25.359s-11.352 25.33-25.359 25.33c-14.01 0-25.33-11.321-25.33-25.33s11.321-25.359 25.33-25.359zM489.919 169.126c-19.762 0-35.807 16.046-35.807 35.807s16.045 35.807 35.807 35.807c19.76 0 35.807-16.046 35.807-35.807s-16.047-35.807-35.807-35.807zm0 1.905c18.73 0 33.901 15.17 33.901 33.902s-15.171 33.902-33.901 33.902c-18.731 0-33.902-15.171-33.902-33.902s15.171-33.902 33.902-33.902z"/>
    <path fill="#F4F4F4" d="M489.919 177.669c-15.039 0-27.234 12.227-27.234 27.265s12.195 27.234 27.234 27.234c15.036 0 27.234-12.196 27.234-27.234s-12.196-27.265-27.234-27.265zm0 1.905c14.008 0 25.329 11.351 25.329 25.359s-11.321 25.33-25.329 25.33c-14.01 0-25.33-11.321-25.33-25.33s11.32-25.359 25.33-25.359z"/>
    <path fill="#F4F4F4" d="M39.406 68.432c-4.766 0-8.662 3.896-8.662 8.662v203.084c0 4.766 3.897 8.661 8.662 8.661h518.646c4.429 0 7.956-3.411 8.453-7.709h.179V77.093c0-4.762-3.868-8.658-8.64-8.658H39.399l.007-.003zm0 1.904h518.646c3.737 0 6.727 3.021 6.727 6.757v203.084c0 3.736-2.989 6.756-6.727 6.756H39.406c-3.732.01-6.753-3.019-6.753-6.753V77.097a6.75 6.75 0 0 1 6.756-6.756l-.003-.005z"/>
    <path fill="#F4F4F4" d="M359.021 163.559v83.37H442.392v-83.37H359.021zm1.906 1.905h79.561v79.56h-79.561v-79.56zM448.248 163.559v83.37H531.589v-83.37H448.248zm1.905 1.905h79.531v79.56h-79.531v-79.56zM83.934 94.177v163.675l1.607-1.638 25.33-25.299-1.369-1.369-23.663 23.692V98.788l23.663 23.658 1.369-1.34-25.33-25.299-1.607-1.637v.007zM222.305 232.551l-1.37 1.339 23.693 23.692H90.176l23.574-23.573-1.369-1.339L87.2 257.852l-1.637 1.637H249.209l-1.607-1.637-25.299-25.3.002-.001zM250.878 94.177l-1.637 1.637-25.211 25.182 1.369 1.369 23.574-23.603v154.509l-23.633-23.663-1.339 1.34 25.24 25.27 1.637 1.638V94.177zM85.57 92.54l1.638 1.608 25.21 25.24 1.339-1.34-23.572-23.602h154.452l-23.669 23.662 1.333 1.339 25.307-25.3 1.607-1.607H85.57zM58.961 69.533V287.59h1.905V69.533h-1.905zM359.021 145.819V160.969H442.392V145.819H359.021zm1.906 1.905h79.561v11.339h-79.561v-11.339zM448.248 145.819V160.969H531.589V145.819H448.248zm1.905 1.905h79.531v11.339h-79.531v-11.339zM276.804 73.134c-.987 0-1.815.828-1.815 1.816v53.01c0 .988.829 1.815 1.815 1.815h282.855c.985 0 1.785-.831 1.785-1.815V77.927a4.8 4.8 0 0 0-4.792-4.792H276.804zm.09 1.906H556.65a2.865 2.865 0 0 1 2.888 2.887v49.945H276.895V75.04h-.001zM276.804 260.41c-.987 0-1.815.829-1.815 1.815v20.091c0 .987.829 1.816 1.815 1.816h279.844c2.64 0 4.792-2.183 4.792-4.822v-17.085c0-.985-.8-1.815-1.785-1.815H276.8h.004zm.09 1.905h282.645v16.995c0 1.611-1.276 2.917-2.888 2.917H276.893l.001-19.912zM274.461 129.271l-6.28 6.28 1.369 1.339 6.251-6.25-1.34-1.369zM269.546 253.866l-1.369 1.34 6.281 6.28 1.339-1.369-6.251-6.251z"/>
</svg>
