<svg height="350.26" width="598.189" xmlns="http://www.w3.org/2000/svg">
    <g fill="#f4f4f4">
        <path d="M18.313 202.613c.002-48.949 39.68-88.631 88.631-88.633V115.817c-23.97 0-45.663 9.715-61.372 25.421-15.707 15.712-25.42 37.404-25.42 61.375 0 23.969 9.714 45.663 25.421 61.371 15.709 15.708 37.402 25.422 61.373 25.422 23.97 0 45.662-9.714 61.372-25.422 15.708-15.708 25.42-37.402 25.422-61.371-.002-23.971-9.714-45.663-25.422-61.374-15.71-15.706-37.402-25.421-61.372-25.421V113.981c48.95.001 88.631 39.684 88.631 88.633 0 48.948-39.682 88.63-88.631 88.632-48.952-.003-88.631-39.684-88.633-88.633z"/>
        <path d="M69.56 202.612c0-20.647 16.737-37.384 37.385-37.384v1.838c-9.818 0-18.699 3.978-25.136 10.411-6.435 6.435-10.412 15.314-10.412 25.136 0 9.818 3.977 18.701 10.412 25.136 6.437 6.436 15.316 10.412 25.136 10.412 9.822 0 18.702-3.977 25.137-10.412 6.436-6.435 10.411-15.317 10.413-25.136-.002-9.821-3.977-18.701-10.413-25.136-6.436-6.434-15.315-10.411-25.137-10.411v-1.838c20.648 0 37.385 16.736 37.388 37.384-.002 20.647-16.74 37.386-37.388 37.386S69.56 223.26 69.56 202.612zM101.843 161.286l5.103-19.374 5.103 19.374zM74.114 176.999l-10.09-17.308 17.308 10.091zM65.618 207.717l-19.373-5.104 19.373-5.103zM81.332 235.444l-17.308 10.092 10.09-17.308zM112.049 243.94l-5.103 19.373-5.103-19.373zM139.777 228.228l10.091 17.308-17.308-10.092zM148.275 197.51l19.372 5.103-19.372 5.104zM132.56 169.782l17.308-10.091-10.091 17.308zM265.771 171.37c.002-18.104 14.677-32.779 32.782-32.781v1.838c-17.09.03-30.913 13.854-30.944 30.943.031 17.086 13.854 30.91 30.944 30.94 17.087-.03 30.911-13.854 30.941-30.94-.03-17.089-13.854-30.913-30.941-30.943v-1.838c18.102.002 32.78 14.676 32.78 32.781 0 18.101-14.678 32.778-32.78 32.779-18.104-.002-32.78-14.678-32.782-32.779z"/>
        <path d="M276.264 171.37c0-12.309 9.979-22.287 22.288-22.287V150.92c-11.294.021-20.43 9.156-20.45 20.45.02 11.293 9.156 20.428 20.45 20.448 11.292-.02 20.428-9.154 20.448-20.448-.021-11.293-9.156-20.429-20.448-20.45V149.083c12.308 0 22.285 9.979 22.287 22.287-.002 12.306-9.979 22.286-22.287 22.288-12.309-.003-22.288-9.981-22.288-22.288zM348.942 162.179c.002-18.104 14.678-32.778 32.78-32.779v1.839c-17.09.03-30.911 13.854-30.94 30.94.029 17.089 13.851 30.911 30.94 30.94 17.088-.029 30.909-13.851 30.94-30.94-.031-17.088-13.853-30.91-30.94-30.94V129.4c18.103.001 32.778 14.675 32.779 32.779-.001 18.103-14.677 32.779-32.779 32.779s-32.778-14.676-32.78-32.779z"/>
        <path d="M359.436 162.179c0-12.309 9.977-22.287 22.287-22.287v1.838c-11.295.021-20.429 9.155-20.449 20.449.021 11.293 9.154 20.427 20.449 20.448 11.293-.021 20.429-9.155 20.448-20.448-.02-11.293-9.155-20.428-20.448-20.449v-1.838c12.307 0 22.285 9.978 22.287 22.287-.002 12.308-9.98 22.286-22.287 22.286-12.31.001-22.287-9.976-22.287-22.286zM432.112 152.99c.002-18.105 14.676-32.779 32.78-32.779V122.048c-17.09.03-30.911 13.853-30.94 30.941.029 17.088 13.851 30.91 30.94 30.94 17.087-.03 30.91-13.853 30.941-30.94-.031-17.088-13.854-30.912-30.941-30.941V120.211c18.1 0 32.778 14.674 32.78 32.779-.002 18.104-14.681 32.777-32.78 32.779-18.104-.002-32.778-14.676-32.78-32.779z"/>
        <path d="M442.604 152.99c.002-12.31 9.978-22.286 22.288-22.288v1.839c-11.294.02-20.43 9.154-20.448 20.448.019 11.293 9.154 20.428 20.448 20.448 11.295-.02 20.43-9.155 20.45-20.448-.02-11.294-9.155-20.428-20.45-20.448v-1.839c12.31.002 22.287 9.979 22.287 22.288 0 12.311-9.978 22.287-22.287 22.287-12.31-.001-22.287-9.978-22.288-22.287zM512.916 90.567c0-18.104 14.676-32.779 32.78-32.779V59.625c-17.09.032-30.91 13.853-30.942 30.942.032 17.088 13.853 30.91 30.942 30.94 17.088-.031 30.908-13.852 30.939-30.94-.031-17.089-13.852-30.91-30.939-30.942V57.788c18.103 0 32.778 14.675 32.778 32.779s-14.676 32.779-32.778 32.779c-18.104 0-32.78-14.675-32.78-32.779z"/>
        <path d="M523.407 90.567c.002-12.31 9.979-22.288 22.289-22.288V70.116c-11.295.021-20.428 9.155-20.449 20.449.02 11.293 9.154 20.428 20.449 20.449 11.295-.021 20.428-9.157 20.448-20.449-.021-11.294-9.153-20.429-20.448-20.449V68.28c12.31 0 22.286 9.978 22.287 22.288-.001 12.308-9.978 22.287-22.287 22.287-12.31-.001-22.287-9.98-22.289-22.288zM265.771 253.005c0-18.104 14.676-32.781 32.781-32.781v1.84c-17.09.031-30.913 13.852-30.944 30.941.031 17.088 13.854 30.91 30.944 30.942 17.087-.032 30.91-13.854 30.941-30.942-.031-17.09-13.854-30.91-30.941-30.941v-1.84c18.104 0 32.78 14.677 32.781 32.781-.001 18.104-14.678 32.778-32.781 32.78-18.103-.002-32.781-14.677-32.781-32.78z"/>
        <path d="M276.265 253.006c0-12.31 9.977-22.287 22.288-22.289v1.839c-11.296.021-20.43 9.154-20.449 20.45.019 11.294 9.154 20.429 20.449 20.45 11.292-.021 20.428-9.156 20.449-20.45-.021-11.296-9.157-20.429-20.449-20.45v-1.839c12.307.002 22.285 9.979 22.287 22.289-.003 12.31-9.979 22.286-22.287 22.288-12.311-.002-22.288-9.979-22.288-22.288zM348.942 243.816c.002-18.104 14.678-32.781 32.78-32.781v1.839c-17.09.029-30.911 13.854-30.94 30.942.029 17.087 13.851 30.909 30.94 30.938 17.088-.029 30.909-13.852 30.94-30.938-.031-17.089-13.853-30.913-30.94-30.942v-1.839c18.103 0 32.778 14.677 32.779 32.781-.001 18.103-14.677 32.779-32.779 32.779-18.102.001-32.778-14.676-32.78-32.779z"/>
        <path d="M359.436 243.816c0-12.31 9.977-22.287 22.287-22.287v1.839c-11.295.019-20.429 9.153-20.449 20.448.021 11.292 9.154 20.428 20.449 20.447 11.293-.02 20.429-9.155 20.448-20.447-.02-11.295-9.155-20.43-20.448-20.448v-1.839c12.307 0 22.285 9.978 22.287 22.287-.002 12.309-9.98 22.283-22.287 22.286-12.31-.002-22.287-9.977-22.287-22.286zM432.112 234.626c.002-18.104 14.676-32.779 32.78-32.781v1.839c-17.09.031-30.911 13.853-30.94 30.942.029 17.088 13.851 30.91 30.94 30.94 17.087-.03 30.91-13.853 30.941-30.94-.031-17.09-13.854-30.911-30.941-30.942v-1.839c18.1.002 32.778 14.677 32.78 32.781-.002 18.104-14.681 32.777-32.78 32.781-18.104-.004-32.778-14.678-32.78-32.781z"/>
        <path d="M442.604 234.626c.002-12.31 9.978-22.288 22.288-22.288v1.839c-11.294.02-20.43 9.154-20.448 20.449.019 11.293 9.154 20.429 20.448 20.447 11.295-.02 20.43-9.154 20.45-20.447-.02-11.295-9.155-20.429-20.45-20.449v-1.839c12.31 0 22.287 9.979 22.287 22.288s-9.978 22.286-22.287 22.286c-12.31 0-22.287-9.977-22.288-22.286z"/>
    </g>
</svg>
