<svg height="361.391" viewBox="0 0 1159.03 795.061" width="526.832" xmlns="http://www.w3.org/2000/svg">
    <g fill="#f4f4f4" fill-opacity=".5" stroke-width="2.2">
        <path d="M797.761 658.615q0 .704-.17 1.185-.252.716-.81.716-.37 0-.774-.17-.487-.206-.534-.505.164 0 .387.059.516.135.646.135.498 0 .75-.499.2-.399.2-.956 0-.393-.258-1.12-.252-.734-.252-1.022 0-.088.046-.14.053-.06.141-.06.229 0 .446 1.057.182.892.182 1.32zM800.02 659.213q0 .599-.346.939-.347.34-.957.34-.334 0-.516-.158-.182-.159-.182-.487 0-.464.604-.933.575-.446 1.062-.446.223 0 .294.276.04.158.04.47zm-.358.165q0-.07-.018-.135-.012-.07-.047-.159-.094.065-.31.317-.112.13-.194.188 0-.112.023-.182.047-.1.077-.17-.259 0-.54.217-.276.217-.276.47 0 .17.188.17.358 0 .692-.177.405-.21.405-.54zM802.437 659.454q0 .287-.217.645-.247.405-.51.405-.077 0-.13-.082-.047-.088-.047-.17 0-.106.223-.329.229-.229.229-.31 0-.054-.018-.106l-.023-.07q-.44.099-.898.504-.451.405-.686.457-.047-.129-.047-.264 0-.164.076-.346.053-.129.176-.31.206-.312.434-.705l.405-.71q.294-.504.429-.715.07-.106.123-.159.076-.07.182-.094.07.024.1.088.034.065.034.153 0 .2-.258.54-.469.61-.48.633-.265.4-.265.722l.012.059q.323-.159.381-.182.24-.1.411-.1.188 0 .276.13.088.122.088.316zM805.159 659.108q0 .399-.194.85-.21.499-.522.687-.064-.077-.111-.17-.041-.094-.041-.188 0-.1.293-.593.129-.217.117-.381l-.006-.076q-.217.064-.75.393-.529.322-1.068.657-.083 0-.153-.059-.064-.064-.064-.14 0-.124.393-.828.117-.211.422-.733.094.123.123.276.03.146.03.352v.134q.54-.322.844-.486.335-.182.458-.182.082 0 .152.187.077.188.077.3zM810.257 660.246q0 .105-.094.164-.088.053-.2.053-.1 0-.252-.024-.346-.052-.446-.052-.176 0-.692.04-.293.024-.422.024-.358 0-.358-.358 0-.34.223-.974.123-.357.463-1.173.305-.733.388-1.032.029-.094.046-.124.047-.07.118-.07.111 0 .188.164.076.159.076.288 0 .205-.24.692-.241.481-.47.945-.252.551-.252.838 0 .147.123.206.088.04.258.04.13 0 .446-.028.317-.036.422-.036.264 0 .434.077.241.105.241.34zM812.44 659.213q0 .599-.347.939-.346.34-.956.34-.334 0-.516-.158-.182-.159-.182-.487 0-.464.604-.933.575-.446 1.062-.446.223 0 .293.276.041.158.041.47zm-.358.165q0-.07-.018-.135-.012-.07-.047-.159-.094.065-.31.317-.112.13-.195.188 0-.112.024-.182.047-.1.076-.17-.258 0-.54.217-.275.217-.275.47 0 .17.188.17.357 0 .692-.177.405-.21.405-.54zM814.91 659.09q0 .188-.1.399-.094.211-.241.352l-.006-.082q0-.07.018-.217.017-.147.017-.217 0-.1-.03-.147-.028-.053-.122-.053-.276 0-.687.429l-.886.932q-.035 0-.07-.006-.088-.023-.117-.029.017-.211.146-.47.347-.697.358-.744l.07-.276q.024-.088.065-.182.047-.1.106-.176.064-.082.164-.123l.059.704q.252-.205.387-.317.258-.205.446-.205t.305.123q.117.123.117.305zM817.79 658.41q0 .246-.657.65-.634.388-.921.388-.135 0-.182-.094-.041-.094-.041-.264v-.158q.393 0 .715-.118.323-.117.564-.387-.176-.064-.358-.064-.428 0-.91.328-.528.358-.528.763 0 .387.528.54.083.023.992.164.534.082.534.287 0 .088-.194.141-.193.059-.493.059-.75 0-1.185-.229-.575-.305-.575-.98 0-.704.704-1.12.599-.352 1.361-.352.23 0 .417.105.229.13.229.34zM820.125 657.36q0 .128-.311.54-.311.41-.311.627 0 .111.129.223.293.258.293.317 0 .076-.053.146-.046.07-.123.07-.064 0-.182-.07-.082-.047-.316-.229l-.135.259q-.165.31-.223.451l-.176.54q-.153.364-.382.364l-.006-.135q0-.417.27-.986.053-.105.294-.545-.464-.253-1.021-.253 0-.217.088-.316.094-.106.31-.106.2 0 .5.07.146.036.293.07.111-.034.305-.38.475-.834.645-.957.047.077.076.153.036.076.036.146zM822.29 659.454q0 .287-.218.645-.246.405-.51.405-.076 0-.129-.082-.047-.088-.047-.17 0-.106.223-.329.229-.229.229-.31 0-.054-.018-.106l-.023-.07q-.44.099-.898.504-.452.405-.686.457-.047-.129-.047-.264 0-.164.076-.346.053-.129.176-.31.205-.312.434-.705l.405-.71q.293-.504.428-.715.07-.106.124-.159.076-.07.181-.094.07.024.1.088.035.065.035.153 0 .2-.258.54-.47.61-.48.633-.265.4-.265.722l.012.059q.322-.159.381-.182.24-.1.41-.1.189 0 .277.13.088.122.088.316zM827.106 657.541q0 .276-.293.74-.188.293-.616.844-.428.546-.534.716l.44.14q.428.13.428.47-.176.03-.346.053l-.064-.006v-.047q-.094-.023-.153-.023-.111 0-.352.035-.24.035-.364.035-.158 0-.258-.059-.1-.058-.1-.21 0-.124.452-.7.845-1.073.85-1.084.458-.622.458-.833 0-.083-.058-.124-.053-.04-.217-.04-.112 0-.464.216-.17.106-.276.106l-.1-.018q-.034-.023-.076-.088-.04-.07-.04-.111 0-.247.475-.452.404-.176.704-.176.252 0 .387.188.117.164.117.428zM830.632 658.597q0 .71-.769 1.256-.704.498-1.449.498-.37 0-.586-.187-.217-.188-.217-.546 0-.798.698-1.384.663-.558 1.484-.558.417 0 .628.247.211.246.211.674zm-.358.135q0-.27-.305-.405-.229-.1-.546-.1-.463 0-.968.452-.504.452-.504.91 0 .188.094.27.1.076.299.076.575 0 1.197-.317.733-.375.733-.886zM833.319 657.541q0 .276-.293.74-.188.293-.616.844-.429.546-.534.716l.44.14q.428.13.428.47-.176.03-.346.053l-.065-.006v-.047q-.094-.023-.152-.023-.112 0-.352.035t-.364.035q-.158 0-.258-.059-.1-.058-.1-.21 0-.124.452-.7.845-1.073.85-1.084.458-.622.458-.833 0-.083-.058-.124-.053-.04-.218-.04-.111 0-.463.216-.17.106-.276.106l-.1-.018q-.035-.023-.076-.088-.04-.07-.04-.111 0-.247.474-.452.405-.176.704-.176.253 0 .388.188.117.164.117.428zM836.018 657.541q0 .276-.294.74-.188.293-.616.844-.428.546-.534.716l.44.14q.429.13.429.47-.176.03-.346.053l-.065-.006v-.047q-.094-.023-.153-.023-.111 0-.352.035-.24.035-.363.035-.159 0-.258-.059-.1-.058-.1-.21 0-.124.452-.7.844-1.073.85-1.084.458-.622.458-.833 0-.083-.059-.124-.053-.04-.217-.04-.111 0-.463.216-.17.106-.276.106l-.1-.018q-.035-.023-.076-.088-.041-.07-.041-.111 0-.247.475-.452.405-.176.704-.176.252 0 .387.188.118.164.118.428z"/>
    </g>
    <g transform="translate(-34.984 -142.72)">
        <g fill="none" stroke="#f4f4f4">
            <path d="M115.146 491.947H74.154c-14.615 0-14.546-.754-14.546 14.546v415.74a14.514 14.514 0 0 0 14.546 14.547h540.384m499.498-444.833h40.806c14.614 0 14.545-.754 14.545 14.546v415.74a14.514 14.514 0 0 1-14.545 14.547H614.458" opacity=".98" stroke-width="4.4"/>
            <path d="m614.458 519.61-494.006-2.599-9.911-45.325 10.604-58.958.472-52.218c-.462-10.146 5.602-9.904 11.57-10.19l481.27.857m.08 168.432 494.007-2.598 9.91-45.325-10.604-58.958-.471-52.218c.461-10.146-5.602-9.904-11.57-10.19l-481.271.857m-493.393 61.551h195.531m319.116 0h472.058m10.605 58.958H704.9m-282.25 0h-19.968m-281.904 0H110.54M877.419 351.09V151.844" opacity=".98" stroke-width="4.4"/>
            <path d="m70.51 491.688.011-12.797m544.39-327.697h-3.967m-6.05 0h-7.95m-6.05 0h-7.948m-6.05 0h-7.954m-6.046 0h-7.953m-6.05 0h-7.95m-6.05 0h-7.948m-6.05 0h-7.95m-6.05 0h-7.949m-6.05 0h-7.953m-6.05 0h-7.95m-6.05 0h-7.949m-6.05 0h-7.949m-6.05 0h-7.95m-6.05 0h-7.953m-6.045 0h-7.954m-6.05 0h-7.95m-6.05 0h-7.948m-6.05 0h-7.95m-6.05 0h-7.949m-6.05 0h-7.953m-6.05 0h-7.95m-6.05 0h-7.949m-6.05 0h-7.949m-6.05 0h-7.95m-6.05 0h-7.953m-6.045 0h-7.954m-6.05 0h-7.949m-6.05 0h-7.95m-6.05 0h-7.948m-6.05 0h-7.95m-6.05 0h-7.953m-6.05 0h-7.95m-6.05 0h-7.949m-6.05 0h-7.949m-6.05 0h-7.949m-6.05 0h-7.954m-6.045 0h-7.954m-6.05 0h-7.949m-6.05 0H43.478a7.478 7.478 0 0 0-7.494 7.494v312.381a7.478 7.478 0 0 0 7.494 7.494h68.282m1046.715 13.125-.011-12.797m-544.39-327.697h4.82m6.05 0h7.95m6.05 0h7.954m6.05 0h7.949m6.05 0h7.949m6.05 0h7.95m6.05 0h7.948m6.05 0h7.954m6.046 0h7.953m6.05 0h7.95m6.05 0h7.949m6.05 0h7.949m6.05 0h7.95m6.049 0h7.954m6.05 0h7.949m6.05 0h7.949m6.05 0h7.95m6.05 0h336.56a7.478 7.478 0 0 1 7.494 7.494v22.836m0 249.322v40.223a7.478 7.478 0 0 1-7.494 7.494h-68.88" opacity=".98" stroke-width="4.4"/>
            <path d="M1193.148 431.828h-8.536c-4.151 0-7.494-3.38-7.494-7.58V188.113c0-4.2 3.343-7.58 7.494-7.58h9.401" opacity=".98" stroke-width="4.4"/>
            <path d="M1193.12 441.61h-45.841a7.478 7.478 0 0 1-7.494-7.494V178.051a7.478 7.478 0 0 1 7.494-7.494h45.631" opacity=".98" stroke-width="2.2"/>
            <g stroke-width="2.2">
                <rect height="48.204" opacity=".98" rx="1.354" width="6.05" x="814.896" y="143.219"/>
                <rect height="48.204" opacity=".98" rx="1.354" width="6.05" x="800.896" y="143.219"/>
                <rect height="48.204" opacity=".98" rx="1.354" width="6.05" x="842.896" y="143.219"/>
                <rect height="48.204" opacity=".98" rx="1.354" width="6.05" x="828.896" y="143.219"/>
                <rect height="48.204" opacity=".98" rx="1.354" width="6.05" x="758.896" y="143.219"/>
                <rect height="48.204" opacity=".98" rx="1.354" width="6.05" x="744.896" y="143.219"/>
                <rect height="48.204" opacity=".98" rx="1.354" width="6.05" x="786.896" y="143.219"/>
                <rect height="48.204" opacity=".98" rx="1.354" width="6.05" x="772.896" y="143.219"/>
                <rect height="48.204" opacity=".98" rx="1.354" width="6.05" x="702.896" y="143.219"/>
                <rect height="48.204" opacity=".98" rx="1.354" width="6.05" x="688.896" y="143.219"/>
                <rect height="48.204" opacity=".98" rx="1.354" width="6.05" x="730.896" y="143.219"/>
                <rect height="48.204" opacity=".98" rx="1.354" width="6.05" x="716.896" y="143.219"/>
                <rect height="48.204" opacity=".98" rx="1.354" width="6.05" x="646.896" y="143.219"/>
                <rect height="48.204" opacity=".98" rx="1.354" width="6.05" x="632.896" y="143.219"/>
                <rect height="48.204" opacity=".98" rx="1.354" width="6.05" x="674.896" y="143.219"/>
                <rect height="48.204" opacity=".98" rx="1.354" width="6.05" x="660.896" y="143.219"/>
                <rect height="48.204" opacity=".98" rx="1.354" width="6.05" x="590.896" y="143.219"/>
                <rect height="48.204" opacity=".98" rx="1.354" width="6.05" x="576.896" y="143.219"/>
                <rect height="48.204" opacity=".98" rx="1.354" width="6.05" x="618.896" y="143.219"/>
                <rect height="48.204" opacity=".98" rx="1.354" width="6.05" x="604.896" y="143.219"/>
                <rect height="48.204" opacity=".98" rx="1.354" width="6.05" x="534.896" y="143.219"/>
                <rect height="48.204" opacity=".98" rx="1.354" width="6.05" x="520.896" y="143.219"/>
                <rect height="48.204" opacity=".98" rx="1.354" width="6.05" x="562.896" y="143.219"/>
                <rect height="48.204" opacity=".98" rx="1.354" width="6.05" x="548.896" y="143.219"/>
                <rect height="48.204" opacity=".98" rx="1.354" width="6.05" x="478.896" y="143.219"/>
                <rect height="48.204" opacity=".98" rx="1.354" width="6.05" x="464.896" y="143.219"/>
                <rect height="48.204" opacity=".98" rx="1.354" width="6.05" x="506.896" y="143.219"/>
                <rect height="48.204" opacity=".98" rx="1.354" width="6.05" x="492.896" y="143.219"/>
                <rect height="48.204" opacity=".98" rx="1.354" width="6.05" x="422.896" y="143.219"/>
                <rect height="48.204" opacity=".98" rx="1.354" width="6.05" x="408.896" y="143.219"/>
                <rect height="48.204" opacity=".98" rx="1.354" width="6.05" x="450.896" y="143.219"/>
                <rect height="48.204" opacity=".98" rx="1.354" width="6.05" x="436.896" y="143.219"/>
                <rect height="48.204" opacity=".98" rx="1.354" width="6.05" x="366.896" y="143.219"/>
                <rect height="48.204" opacity=".98" rx="1.354" width="6.05" x="352.896" y="143.219"/>
                <rect height="48.204" opacity=".98" rx="1.354" width="6.05" x="394.896" y="143.219"/>
                <rect height="48.204" opacity=".98" rx="1.354" width="6.05" x="380.896" y="143.219"/>
                <rect height="48.204" opacity=".98" rx="1.354" width="6.05" x="310.896" y="143.219"/>
                <rect height="48.204" opacity=".98" rx="1.354" width="6.05" x="296.896" y="143.219"/>
                <rect height="48.204" opacity=".98" rx="1.354" width="6.05" x="338.896" y="143.219"/>
                <rect height="48.204" opacity=".98" rx="1.354" width="6.05" x="324.896" y="143.219"/>
                <rect height="48.204" opacity=".98" rx="1.354" width="6.05" x="254.896" y="143.219"/>
                <rect height="48.204" opacity=".98" rx="1.354" width="6.05" x="240.896" y="143.219"/>
                <rect height="48.204" opacity=".98" rx="1.354" width="6.05" x="282.896" y="143.219"/>
                <rect height="48.204" opacity=".98" rx="1.354" width="6.05" x="268.896" y="143.219"/>
                <rect height="48.204" opacity=".98" rx="1.354" width="6.05" x="198.896" y="143.219"/>
                <rect height="48.204" opacity=".98" rx="1.354" width="6.05" x="184.896" y="143.219"/>
                <rect height="48.204" opacity=".98" rx="1.354" width="6.05" x="226.896" y="143.219"/>
                <rect height="48.204" opacity=".98" rx="1.354" width="6.05" x="212.896" y="143.219"/>
                <rect height="48.204" opacity=".98" rx="1.354" width="6.05" x="142.896" y="143.219"/>
                <rect height="48.204" opacity=".98" rx="1.354" width="6.05" x="128.896" y="143.219"/>
                <rect height="48.204" opacity=".98" rx="1.354" width="6.05" x="170.896" y="143.219"/>
                <rect height="48.204" opacity=".98" rx="1.354" width="6.05" x="156.896" y="143.219"/>
                <rect height="48.204" opacity=".98" rx="1.354" width="6.05" x="86.896" y="143.219"/>
                <rect height="48.204" opacity=".98" rx="1.354" width="6.05" x="72.896" y="143.219"/>
                <rect height="48.204" opacity=".98" rx="1.354" width="6.05" x="114.896" y="143.219"/>
                <rect height="48.204" opacity=".98" rx="1.354" width="6.05" x="100.896" y="143.219"/>
            </g>
            <g stroke-width="2.2">
                <rect height="48.938" opacity=".98" rx="1.354" width="6.05" x="304.846" y="264.485"/>
                <rect height="48.938" opacity=".98" rx="1.354" width="6.05" x="288.846" y="264.485"/>
                <rect height="48.938" opacity=".98" rx="1.354" width="6.05" x="304.846" y="206.485"/>
                <rect height="48.938" opacity=".98" rx="1.354" width="6.05" x="288.846" y="206.485"/>
                <rect height="48.938" opacity=".98" rx="1.354" width="6.05" x="272.846" y="264.485"/>
                <rect height="48.938" opacity=".98" rx="1.354" width="6.05" x="256.846" y="264.485"/>
                <rect height="48.938" opacity=".98" rx="1.354" width="6.05" x="272.846" y="206.485"/>
                <rect height="48.938" opacity=".98" rx="1.354" width="6.05" x="256.846" y="206.485"/>
                <rect height="48.938" opacity=".98" rx="1.354" width="6.05" x="240.846" y="264.485"/>
                <rect height="48.938" opacity=".98" rx="1.354" width="6.05" x="224.846" y="264.485"/>
                <rect height="48.938" opacity=".98" rx="1.354" width="6.05" x="240.846" y="206.485"/>
                <rect height="48.938" opacity=".98" rx="1.354" width="6.05" x="224.846" y="206.485"/>
                <rect height="48.938" opacity=".98" rx="1.354" width="6.05" x="208.846" y="264.485"/>
                <rect height="48.938" opacity=".98" rx="1.354" width="6.05" x="192.846" y="264.485"/>
                <rect height="48.938" opacity=".98" rx="1.354" width="6.05" x="208.846" y="206.485"/>
                <rect height="48.938" opacity=".98" rx="1.354" width="6.05" x="192.846" y="206.485"/>
                <rect height="48.938" opacity=".98" rx="1.354" width="6.05" x="176.846" y="264.485"/>
                <rect height="48.938" opacity=".98" rx="1.354" width="6.05" x="160.846" y="264.485"/>
                <rect height="48.938" opacity=".98" rx="1.354" width="6.05" x="176.846" y="206.485"/>
                <rect height="48.938" opacity=".98" rx="1.354" width="6.05" x="160.846" y="206.485"/>
                <rect height="48.938" opacity=".98" rx="1.354" width="6.05" x="144.846" y="264.485"/>
                <rect height="48.938" opacity=".98" rx="1.354" width="6.05" x="128.846" y="264.485"/>
                <rect height="48.938" opacity=".98" rx="1.354" width="6.05" x="144.846" y="206.485"/>
                <rect height="48.938" opacity=".98" rx="1.354" width="6.05" x="128.846" y="206.485"/>
                <rect height="48.938" opacity=".98" rx="1.354" width="6.05" x="112.846" y="264.485"/>
                <rect height="48.938" opacity=".98" rx="1.354" width="6.05" x="96.846" y="264.485"/>
                <rect height="48.938" opacity=".98" rx="1.354" width="6.05" x="112.846" y="206.485"/>
                <rect height="48.938" opacity=".98" rx="1.354" width="6.05" x="96.846" y="206.485"/>
                <rect height="48.938" opacity=".98" rx="1.354" width="6.05" x="80.846" y="264.485"/>
                <rect height="48.938" opacity=".98" rx="1.354" width="6.05" x="80.846" y="206.485"/>
            </g>
            <rect height="53.133" opacity=".98" rx="2.485" stroke-width="2.2" width="318.796" x="316.969" y="364.107"/>
            <rect height="28.258" opacity=".98" rx="2.485" stroke-width="2.2" width="215.774" x="371.274" y="375.53"/>
            <path d="m405.424 485.661-2.773-13.975 4.017-23.042h-282l-4.017 23.042 2.773 13.975H395.99z" opacity=".98" stroke-width="2.2"/>
            <path d="M339.139 485.661c-1.112-3.362-2.112-7.078-2.106-13.975.147-8.65 1.496-15.96 3.05-23.042H125.935l-3.05 23.042 2.106 13.975h206.984z" opacity=".98" stroke-width="2.2"/>
            <g stroke-width="1.65" transform="translate(-302)">
                <rect height="28.013" opacity=".98" rx="2.485" width="4.68" x="438.291" y="452.382"/>
                <path d="M458.494 448.411v19.999c0 1.376-1.044 2.484-2.34 2.484s-2.34-1.108-2.34-2.484v-19.943M468.494 448.411v19.999c0 1.376-1.044 2.484-2.34 2.484s-2.34-1.108-2.34-2.484v-19.943M478.494 448.411v19.999c0 1.376-1.044 2.484-2.34 2.484s-2.34-1.108-2.34-2.484v-19.943M488.494 448.411v19.999c0 1.376-1.044 2.484-2.34 2.484s-2.34-1.108-2.34-2.484v-19.943M498.494 448.411v19.999c0 1.376-1.044 2.484-2.34 2.484s-2.34-1.108-2.34-2.484v-19.943M508.494 448.411v19.999c0 1.376-1.044 2.484-2.34 2.484s-2.34-1.108-2.34-2.484v-19.943M518.494 448.411v19.999c0 1.376-1.044 2.484-2.34 2.484s-2.34-1.108-2.34-2.484v-19.943M528.494 448.411v19.999c0 1.376-1.044 2.484-2.34 2.484s-2.34-1.108-2.34-2.484v-19.943M538.494 448.411v19.999c0 1.376-1.044 2.484-2.34 2.484s-2.34-1.108-2.34-2.484v-19.943M548.494 448.411v19.999c0 1.376-1.044 2.484-2.34 2.484s-2.34-1.108-2.34-2.484v-19.943M558.494 448.411v19.999c0 1.376-1.044 2.484-2.34 2.484s-2.34-1.108-2.34-2.484v-19.943M568.494 448.411v19.999c0 1.376-1.044 2.484-2.34 2.484s-2.34-1.108-2.34-2.484v-19.943M578.494 448.411v19.999c0 1.376-1.044 2.484-2.34 2.484s-2.34-1.108-2.34-2.484v-19.943M588.494 448.411v19.999c0 1.376-1.044 2.484-2.34 2.484s-2.34-1.108-2.34-2.484v-19.943M598.494 448.411v19.999c0 1.376-1.044 2.484-2.34 2.484s-2.34-1.108-2.34-2.484v-19.943M608.494 448.411v19.999c0 1.376-1.044 2.484-2.34 2.484s-2.34-1.108-2.34-2.484v-19.943M618.494 448.411v19.999c0 1.376-1.044 2.484-2.34 2.484s-2.34-1.108-2.34-2.484v-19.943M628.494 448.411v19.999c0 1.376-1.044 2.484-2.34 2.484s-2.34-1.108-2.34-2.484v-19.943" opacity=".98"/>
            </g>
            <g stroke-width="2.2">
                <path d="m442.838 501.5-2.5-11.757M457.75 501.5l-2.5-11.757M471.75 501.5l-2.5-11.757M486.106 503.18l-2.856-13.437M500.106 503.18l-2.856-13.437M514.106 503.18l-2.856-13.437M528.463 504.86l-3.213-15.117M543.107 504.897l-3.214-15.116M557.107 504.897l-3.214-15.116M571.464 506.577l-3.57-16.796M585.464 506.577l-3.57-16.796" opacity=".98"/>
            </g>
            <path d="m707.424 485.661-2.773-13.975 4.017-23.042h-282l-4.017 23.042 2.773 13.975H697.99z" opacity=".98" stroke-width="2.2"/>
            <path d="M640.843 485.661c-1.11-3.362-2.108-7.078-2.103-13.975.148-8.65 1.495-15.96 3.047-23.042H427.93l-3.046 23.042 2.103 13.975h206.701z" opacity=".98" stroke-width="2.2"/>
            <g stroke-width="1.65">
                <rect height="28.013" opacity=".98" rx="2.485" width="4.68" x="438.291" y="452.382"/>
                <path d="M458.494 448.411v19.999c0 1.376-1.044 2.484-2.34 2.484s-2.34-1.108-2.34-2.484v-19.943M468.494 448.411v19.999c0 1.376-1.044 2.484-2.34 2.484s-2.34-1.108-2.34-2.484v-19.943M478.494 448.411v19.999c0 1.376-1.044 2.484-2.34 2.484s-2.34-1.108-2.34-2.484v-19.943M488.494 448.411v19.999c0 1.376-1.044 2.484-2.34 2.484s-2.34-1.108-2.34-2.484v-19.943M498.494 448.411v19.999c0 1.376-1.044 2.484-2.34 2.484s-2.34-1.108-2.34-2.484v-19.943M508.494 448.411v19.999c0 1.376-1.044 2.484-2.34 2.484s-2.34-1.108-2.34-2.484v-19.943M518.494 448.411v19.999c0 1.376-1.044 2.484-2.34 2.484s-2.34-1.108-2.34-2.484v-19.943M528.494 448.411v19.999c0 1.376-1.044 2.484-2.34 2.484s-2.34-1.108-2.34-2.484v-19.943M538.494 448.411v19.999c0 1.376-1.044 2.484-2.34 2.484s-2.34-1.108-2.34-2.484v-19.943M548.494 448.411v19.999c0 1.376-1.044 2.484-2.34 2.484s-2.34-1.108-2.34-2.484v-19.943M558.494 448.411v19.999c0 1.376-1.044 2.484-2.34 2.484s-2.34-1.108-2.34-2.484v-19.943M568.494 448.411v19.999c0 1.376-1.044 2.484-2.34 2.484s-2.34-1.108-2.34-2.484v-19.943M578.494 448.411v19.999c0 1.376-1.044 2.484-2.34 2.484s-2.34-1.108-2.34-2.484v-19.943M588.494 448.411v19.999c0 1.376-1.044 2.484-2.34 2.484s-2.34-1.108-2.34-2.484v-19.943M598.494 448.411v19.999c0 1.376-1.044 2.484-2.34 2.484s-2.34-1.108-2.34-2.484v-19.943M608.494 448.411v19.999c0 1.376-1.044 2.484-2.34 2.484s-2.34-1.108-2.34-2.484v-19.943M618.494 448.411v19.999c0 1.376-1.044 2.484-2.34 2.484s-2.34-1.108-2.34-2.484v-19.943M628.494 448.411v19.999c0 1.376-1.044 2.484-2.34 2.484s-2.34-1.108-2.34-2.484v-19.943" opacity=".98"/>
            </g>
            <g stroke-width="2.2">
                <path d="m140.838 501.5-2.5-11.757M155.75 501.5l-2.5-11.757M169.75 501.5l-2.5-11.757M184.106 503.18l-2.856-13.437M198.106 503.18l-2.856-13.437M212.106 503.18l-2.856-13.437M226.463 504.86l-3.213-15.117M241.107 504.897l-3.214-15.116M255.107 504.897l-3.214-15.116M269.464 506.577l-3.57-16.796M283.464 506.577l-3.57-16.796" opacity=".98"/>
            </g>
            <rect height="13.515" opacity=".98" rx="2.485" stroke-width="2.2" width="40.824" x="732.188" y="489.612"/>
        </g>
        <path d="M744.64 493.448h15.915v5.367H744.64z" fill="#f4f4f4" opacity=".98"/>
        <rect fill="none" height="13.515" opacity=".98" rx="2.485" stroke="#f4f4f4" stroke-width="2.2" width="40.824" x="786.188" y="489.612"/>
        <path d="M798.64 493.448h15.915v5.367H798.64z" fill="#f4f4f4" opacity=".98"/>
        <rect fill="none" height="13.515" opacity=".98" rx="2.485" stroke="#f4f4f4" stroke-width="2.2" width="40.824" x="840.188" y="489.612"/>
        <path d="M852.64 493.448h15.915v5.367H852.64z" fill="#f4f4f4" opacity=".98"/>
        <rect fill="none" height="13.515" opacity=".98" rx="2.485" stroke="#f4f4f4" stroke-width="2.2" width="40.824" x="894.188" y="489.612"/>
        <path d="M906.64 493.448h15.915v5.367H906.64z" fill="#f4f4f4" opacity=".98"/>
        <rect fill="none" height="13.515" opacity=".98" rx="2.485" stroke="#f4f4f4" stroke-width="2.2" width="40.824" x="948.188" y="489.612"/>
        <path d="M960.64 493.448h15.915v5.367H960.64z" fill="#f4f4f4" opacity=".98"/>
        <rect fill="none" height="13.515" opacity=".98" rx="2.485" stroke="#f4f4f4" stroke-width="2.2" width="40.824" x="1002.188" y="489.612"/>
        <path d="M1014.64 493.448h15.915v5.367h-15.915z" fill="#f4f4f4" opacity=".98"/>
        <rect fill="none" height="13.515" opacity=".98" rx="2.485" stroke="#f4f4f4" stroke-width="2.2" width="40.824" x="1056.188" y="489.612"/>
        <path d="M1068.64 493.448h15.915v5.367h-15.915z" fill="#f4f4f4" opacity=".98"/>
        <path d="M925.543 767.988h203.927" fill="none" opacity=".98" stroke="#f4f4f4" stroke-linecap="round" stroke-width="2.2"/>
    </g>
    <g fill="none" stroke="#f4f4f4" stroke-width="4.4">
        <path d="M648.438 620.906h43v43h-43zM702.438 620.906h43v43h-43zM756.438 620.906h83.789v43h-83.79zM486.438 620.906h43v43h-43zM540.438 620.906h43v43h-43zM594.438 620.906h43v43h-43zM324.438 620.906h43v43h-43zM378.438 620.906h43v43h-43zM432.438 620.906h43v43h-43zM162.438 620.906h43v43h-43zM216.438 620.906h43v43h-43zM270.438 620.906h43v43h-43zM41.227 620.906h110.21v43H41.228zM675.407 566.906h43v43h-43zM729.407 566.906h43v43h-43zM513.407 566.906h43v43h-43zM567.407 566.906h43v43h-43zM621.407 566.906h43v43h-43zM351.407 566.906h43v43h-43zM405.407 566.906h43v43h-43zM459.407 566.906h43v43h-43zM189.407 566.906h43v43h-43zM243.407 566.906h43v43h-43zM297.407 566.906h43v43h-43zM135.407 566.906h43v43h-43zM41.227 566.906h83.18v43h-83.18z" opacity=".98"/>
        <path d="M840.227 609.906v-97h-70.82v43h13.999v54h52.42zM661.227 512.906h43v43h-43zM715.227 512.906h43v43h-43zM499.227 512.906h43v43h-43zM553.227 512.906h43v43h-43zM607.227 512.906h43v43h-43zM337.227 512.906h43v43h-43zM391.227 512.906h43v43h-43zM445.227 512.906h43v43h-43zM175.227 512.906h43v43h-43zM229.227 512.906h43v43h-43zM283.227 512.906h43v43h-43zM121.227 512.906h43v43h-43zM41.227 512.906h69v43h-69zM689.227 458.906h43v43h-43zM743.227 458.906h43v43h-43zM527.227 458.906h43v43h-43zM581.227 458.906h43v43h-43zM635.227 458.906h43v43h-43zM365.227 458.906h43v43h-43zM419.227 458.906h43v43h-43zM473.227 458.906h43v43h-43zM203.227 458.906h43v43h-43zM257.227 458.906h43v43h-43zM311.227 458.906h43v43h-43zM149.227 458.906h43v43h-43zM95.227 458.906h43v43h-43zM797.227 458.906h43v43h-43zM41.227 458.906h43v43h-43zM622.438 674.906h43v43h-43zM676.438 674.906h69v43h-69zM298.438 674.906h313v43h-313zM136.438 674.906h69v43h-69zM216.438 674.906h71v43h-71zM1051.227 458.906h43v43h-43zM997.227 458.906h43v43h-43zM943.227 458.906h43v43h-43zM889.227 458.906h43v43h-43zM1051.227 404.906h43v43h-43zM997.227 404.906h43v43h-43zM943.227 404.906h43v43h-43zM889.227 404.906h43v43h-43zM1051.227 566.906h43v43h-43zM997.227 566.906h43v43h-43zM943.227 566.906h43v43h-43zM889.227 566.906h43v43h-43zM1051.227 512.906h43v43h-43zM997.227 512.906h43v43h-43zM943.227 512.906h43v43h-43zM889.227 512.906h43v43h-43z" opacity=".98"/>
        <circle cx="822.137" cy="423.696" opacity=".98" r="12.5"/>
        <rect height="16.149" opacity=".98" rx="8.074" width="56.485" x="731.194" y="415.547"/>
        <rect height="16.149" opacity=".98" rx="8.074" width="56.485" x="659.194" y="415.547"/>
        <rect height="16.149" opacity=".98" rx="8.074" width="56.485" x="573.194" y="415.547"/>
        <rect height="16.149" opacity=".98" rx="8.074" width="56.485" x="501.194" y="415.547"/>
        <rect height="16.149" opacity=".98" rx="8.074" width="56.485" x="429.194" y="415.547"/>
        <rect height="16.149" opacity=".98" rx="8.074" width="56.485" x="341.194" y="415.547"/>
        <rect height="16.149" opacity=".98" rx="8.074" width="56.485" x="269.194" y="415.547"/>
        <rect height="16.149" opacity=".98" rx="8.074" width="56.485" x="197.194" y="415.547"/>
        <rect height="16.149" opacity=".98" rx="8.074" width="56.485" x="125.194" y="415.547"/>
        <rect height="16.149" opacity=".98" rx="8.074" width="56.485" x="53.194" y="415.547"/>
        <g transform="translate(-34.984 -142.72)">
            <rect height="108.902" opacity=".98" rx="8.074" width="197.595" x="928.76" y="784.064"/>
            <rect height="88.343" opacity=".98" rx="44.171" width="185.148" x="936.873" y="794.058"/>
            <path d="m1092.099 879.627-29.821-42.59 28.377-40.526M963.709 878.671l29.152-41.633-27.774-39.666M992.861 837.038h69.417" opacity=".98"/>
            <path d="m1011.95 819.296 7.643-6.034 7.643-6.035 7.643 6.035 7.643 6.034M1011.95 856.908l7.643 6.035 7.643 6.034 7.643-6.034 7.643-6.035M1094.813 852.323l6.035-7.643 6.034-7.642-6.034-7.643-6.035-7.643M961.659 852.323l-6.035-7.643-6.034-7.642 6.034-7.643 6.035-7.643" opacity=".98" stroke-width="2.2"/>
        </g>
        <path d="m1055.671 653.791 8.546-13.083M1057.115 736.908l8.735 13.603M928.725 735.952l-9.806 14.558M930.103 654.653l-9.93-13.14" fill="#f4f4f4" opacity=".98"/>
    </g>
</svg>
