<svg height="356.884" viewBox="0 0 3577.401 2248.368" width="567.841" xmlns="http://www.w3.org/2000/svg">
    <g fill="#f4f4f4" fill-opacity=".5" stroke-width="6.3">
        <path d="M2512.534 1963.717q0 1.512-.365 2.545-.542 1.537-1.739 1.537-.794 0-1.663-.365-1.046-.44-1.147-1.084.353 0 .832.126 1.109.29 1.386.29 1.07 0 1.613-1.07.428-.858.428-2.055 0-.844-.554-2.406-.542-1.575-.542-2.193 0-.189.1-.302.114-.126.303-.126.491 0 .958 2.268.39 1.915.39 2.835zM2517.385 1965.002q0 1.285-.743 2.016-.744.731-2.054.731-.718 0-1.109-.34-.39-.34-.39-1.046 0-.995 1.297-2.003 1.235-.958 2.281-.958.479 0 .63.592.088.34.088 1.008zm-.768.353q0-.151-.038-.29-.025-.15-.101-.34-.202.139-.668.68-.24.278-.416.404 0-.24.05-.39.101-.215.164-.366-.554 0-1.16.466-.591.466-.591 1.008 0 .365.403.365.768 0 1.487-.378.869-.453.869-1.159zM2522.576 1965.519q0 .617-.466 1.386-.529.87-1.096.87-.164 0-.277-.177-.1-.19-.1-.366-.001-.226.478-.705.491-.492.491-.668 0-.113-.038-.227l-.05-.15q-.945.213-1.928 1.083-.97.87-1.474.982-.1-.277-.1-.567 0-.352.163-.743.114-.277.378-.668.441-.668.933-1.512l.869-1.524q.63-1.084.92-1.538.151-.226.264-.34.164-.15.391-.201.151.05.214.189.076.138.076.327 0 .429-.554 1.16-1.008 1.31-1.033 1.36-.567.857-.567 1.55l.025.126q.693-.34.819-.39.516-.215.882-.215.403 0 .592.277.189.265.189.68zM2528.423 1964.775q0 .857-.416 1.827-.454 1.071-1.121 1.475-.139-.164-.24-.366-.088-.201-.088-.403 0-.214.63-1.273.277-.466.252-.819l-.013-.163q-.466.138-1.613.844-1.134.693-2.293 1.411-.176 0-.327-.126-.139-.139-.139-.302 0-.265.844-1.777.252-.454.907-1.575.202.265.265.592.063.315.063.756v.29q1.16-.693 1.814-1.046.719-.39.983-.39.177 0 .328.403.164.403.164.642zM2539.372 1967.22q0 .227-.201.353-.19.113-.429.113-.214 0-.542-.05-.743-.113-.957-.113-.378 0-1.487.088-.63.05-.907.05-.769 0-.769-.769 0-.73.48-2.092.264-.768.994-2.52.656-1.575.832-2.217.063-.202.1-.265.102-.15.253-.15.24 0 .403.352.164.34.164.617 0 .441-.517 1.487-.516 1.033-1.008 2.029-.542 1.184-.542 1.801 0 .315.265.441.19.088.554.088.278 0 .958-.063.68-.076.907-.076.567 0 .933.164.516.227.516.731zM2544.06 1965.002q0 1.285-.744 2.016-.743.731-2.054.731-.718 0-1.109-.34-.39-.34-.39-1.046 0-.995 1.298-2.003 1.234-.958 2.28-.958.479 0 .63.592.088.34.088 1.008zm-.77.353q0-.151-.037-.29-.025-.15-.101-.34-.202.139-.668.68-.24.278-.416.404 0-.24.05-.39.101-.215.164-.366-.554 0-1.159.466-.592.466-.592 1.008 0 .365.403.365.769 0 1.487-.378.87-.453.87-1.159zM2549.364 1964.738q0 .403-.214.856-.202.454-.517.756l-.013-.176q0-.151.038-.466.038-.315.038-.466 0-.215-.063-.315-.063-.114-.264-.114-.593 0-1.475.92l-1.902 2.003q-.076 0-.151-.013-.19-.05-.252-.063.038-.453.315-1.008.743-1.499.768-1.6.101-.403.151-.592.05-.189.14-.39.1-.215.226-.379.138-.176.353-.264l.126 1.512q.541-.441.831-.68.555-.442.958-.442.403 0 .655.265t.252.655zM2555.55 1963.276q0 .53-1.41 1.399-1.361.831-1.979.831-.29 0-.39-.201-.088-.202-.088-.567v-.34q.844 0 1.537-.253.693-.252 1.21-.831-.379-.139-.77-.139-.919 0-1.952.706-1.134.768-1.134 1.638 0 .831 1.134 1.16.176.05 2.13.352 1.146.176 1.146.617 0 .19-.416.303-.416.126-1.058.126-1.613 0-2.546-.492-1.234-.655-1.234-2.104 0-1.512 1.512-2.407 1.285-.756 2.923-.756.491 0 .894.227.492.277.492.731zM2560.565 1961.02q0 .278-.667 1.16-.668.882-.668 1.348 0 .24.277.479.63.554.63.68 0 .164-.113.315-.101.151-.265.151-.139 0-.39-.15-.177-.102-.681-.492-.189.365-.29.554-.353.668-.479.97l-.378 1.16q-.327.78-.819.78l-.013-.289q0-.895.58-2.117.113-.227.63-1.172-.995-.541-2.192-.541 0-.467.189-.68.201-.228.667-.228.429 0 1.071.152l.63.15q.24-.075.656-.818 1.02-1.79 1.386-2.054.1.164.163.328.076.163.076.315zM2565.215 1965.519q0 .617-.466 1.386-.53.87-1.097.87-.163 0-.277-.177-.1-.19-.1-.366 0-.226.478-.705.492-.492.492-.668 0-.113-.038-.227l-.05-.15q-.945.213-1.928 1.083-.97.87-1.474.982-.101-.277-.101-.567 0-.352.164-.743.113-.277.378-.668.44-.668.932-1.512l.87-1.524q.63-1.084.92-1.538.15-.226.264-.34.164-.15.39-.201.152.05.215.189.076.138.076.327 0 .429-.555 1.16-1.008 1.31-1.033 1.36-.567.857-.567 1.55l.025.126q.693-.34.819-.39.517-.215.882-.215.403 0 .592.277.19.265.19.68zM2575.56 1961.411q0 .592-.63 1.588-.404.63-1.324 1.814-.92 1.172-1.146 1.537l.945.303q.92.277.92 1.008-.378.063-.744.113l-.138-.013v-.1q-.202-.05-.328-.05-.24 0-.756.075-.517.076-.781.076-.34 0-.555-.126-.214-.126-.214-.453 0-.265.97-1.5 1.815-2.305 1.827-2.33.983-1.336.983-1.79 0-.176-.126-.264-.113-.088-.466-.088-.24 0-.995.466-.366.227-.593.227l-.214-.038q-.076-.05-.164-.19-.088-.15-.088-.239 0-.529 1.021-.97.87-.378 1.512-.378.542 0 .832.403.252.353.252.92zM2583.132 1963.68q0 1.524-1.65 2.696-1.513 1.07-3.113 1.07-.794 0-1.26-.403-.466-.403-.466-1.171 0-1.714 1.5-2.974 1.423-1.197 3.187-1.197.895 0 1.348.53.454.528.454 1.448zm-.769.29q0-.58-.655-.87-.491-.215-1.172-.215-.995 0-2.079.97-1.083.97-1.083 1.954 0 .403.201.58.215.163.643.163 1.235 0 2.57-.68 1.575-.807 1.575-1.903zM2588.903 1961.411q0 .592-.63 1.588-.403.63-1.323 1.814-.92 1.172-1.147 1.537l.945.303q.92.277.92 1.008-.378.063-.743.113l-.139-.013v-.1q-.202-.05-.328-.05-.239 0-.756.075-.516.076-.78.076-.34 0-.555-.126-.214-.126-.214-.453 0-.265.97-1.5 1.814-2.305 1.827-2.33.983-1.336.983-1.79 0-.176-.126-.264-.114-.088-.467-.088-.239 0-.995.466-.365.227-.592.227l-.214-.038q-.076-.05-.164-.19-.088-.15-.088-.239 0-.529 1.02-.97.87-.378 1.512-.378.542 0 .832.403.252.353.252.92zM2594.699 1961.411q0 .592-.63 1.588-.403.63-1.323 1.814-.92 1.172-1.147 1.537l.945.303q.92.277.92 1.008-.378.063-.743.113l-.139-.013v-.1q-.202-.05-.328-.05-.239 0-.756.075-.516.076-.78.076-.34 0-.555-.126-.214-.126-.214-.453 0-.265.97-1.5 1.814-2.305 1.827-2.33.983-1.336.983-1.79 0-.176-.126-.264-.114-.088-.467-.088-.239 0-.995.466-.365.227-.592.227l-.214-.038q-.076-.05-.164-.19-.088-.15-.088-.239 0-.529 1.02-.97.87-.378 1.512-.378.542 0 .832.403.252.353.252.92z"/>
    </g>
    <g transform="translate(-178.758 -393.37)">
        <path d="M1967.2 1333.407H362.125v389.028m0-387.92v1177.222c0 61.428 49.466 109.626 110.882 110.881 497.712 10.175 995.69 15.326 1493.94 15.341m.253-1304.552h1605.074v389.028m0-387.92v1177.222c0 61.428-49.466 109.626-110.881 110.881-497.712 10.175-995.69 15.326-1493.94 15.341" fill="none" opacity=".98" stroke="#f4f4f4" stroke-width="12.6"/>
        <path d="m185.016 1185.04 17.912-242.612c.726-8.183 2.572-19.449 25.312-20.934l238.591-9.241 1500.628-3.665M363.094 1445.8l-178.078-260.76c65.792-14.867 148.277-21.552 232.145-27.56l125.39.286 1424.908-11.804m1782.443 39.078-17.913-242.612c-.725-8.183-2.572-19.449-25.312-20.934l-238.59-9.241-1500.628-3.665M3571.824 1445.8l178.078-260.76c-65.793-14.867-143.639-22.057-227.507-28.063l-125.39.285-147.661-1.777-275.98.91-273.132-1.176-136.482-1.695-133.68-1.352-462.611-6.21" fill="none" opacity=".98" stroke="#f4f4f4" stroke-width="12.6"/>
        <path d="M189.327 1113.07c46.747-13.403 181.077-14.04 295.448-17.586h1481.278m.833-130.636H484.775c-196.33.747-232.834 8.494-284.574 15.572m3544.245 132.65c-46.747-13.403-181.076-14.04-295.448-17.586H1967.72m-.834-130.636h1482.112c196.33.747 232.834 8.494 284.574 15.572" fill="none" opacity=".98" stroke="#f4f4f4" stroke-width="6.3"/>
        <path d="M326.69 462.168h-35.46a18.65 18.65 0 0 0-18.692 18.691v439.108M1932.21 423.341h-50.178m-69.83 0h-50.166m-69.829 0h-50.166m-69.83 0h-50.178m-69.83 0h-50.166m-69.829 0h-50.166m-69.83 0h-50.178m-69.83 0h-50.165m-69.83 0h-50.178m-69.83 0h-50.166m-69.829 0H682.04m-69.83 0h-49.624m-114.385 0h-101.97c-11.367 0-20.52 9.688-20.52 20.52v474.293m3285.724-455.986h35.461a18.65 18.65 0 0 1 18.692 18.691v439.108M2002.04 423.341h50.166m69.83 0h50.178m69.829 0h50.166m69.83 0h50.166m69.83 0h50.178m69.829 0h50.166m69.83 0h50.166m69.841 0h50.167m69.829 0h50.166m69.83 0h50.178m69.83 0h50.166m69.829 0h50.867m114.385 0h104.602c11.368 0 20.52 9.688 20.52 20.52v474.293" fill="none" opacity=".98" stroke="#f4f4f4" stroke-width="12.6"/>
        <g fill="none" stroke="#f4f4f4" stroke-width="6.3">
            <path d="M3252.21 550.456V408.293c0-6.173 4.97-11.143 11.143-11.143h47.545c6.173 0 11.143 4.97 11.143 11.143v141.176M3132.21 550.456V408.293c0-6.173 4.97-11.143 11.143-11.143h47.545c6.173 0 11.143 4.97 11.143 11.143v141.176M3012.21 550.456V408.293c0-6.173 4.97-11.143 11.143-11.143h47.545c6.173 0 11.143 4.97 11.143 11.143v141.176M2892.21 550.456V408.293c0-6.173 4.97-11.143 11.143-11.143h47.545c6.173 0 11.143 4.97 11.143 11.143v141.176M2772.21 550.456V408.293c0-6.173 4.97-11.143 11.143-11.143h47.545c6.173 0 11.143 4.97 11.143 11.143v141.176M2652.21 550.456V408.293c0-6.173 4.97-11.143 11.143-11.143h47.545c6.173 0 11.143 4.97 11.143 11.143v141.176M2532.21 550.456V408.293c0-6.173 4.97-11.143 11.143-11.143h47.545c6.173 0 11.143 4.97 11.143 11.143v141.176M2412.21 550.456V408.293c0-6.173 4.97-11.143 11.143-11.143h47.545c6.173 0 11.143 4.97 11.143 11.143v141.176M2292.21 550.456V408.293c0-6.173 4.97-11.143 11.143-11.143h47.545c6.173 0 11.143 4.97 11.143 11.143v141.176M2172.21 550.456V408.293c0-6.173 4.97-11.143 11.143-11.143h47.545c6.173 0 11.143 4.97 11.143 11.143v141.176M2052.21 550.456V408.293c0-6.173 4.97-11.143 11.143-11.143h47.545c6.173 0 11.143 4.97 11.143 11.143v141.176M1932.21 550.456V408.293c0-6.173 4.97-11.143 11.143-11.143h47.545c6.173 0 11.143 4.97 11.143 11.143v141.176M1812.21 550.456V408.293c0-6.173 4.97-11.143 11.143-11.143h47.545c6.173 0 11.143 4.97 11.143 11.143v141.176M1692.21 550.456V408.293c0-6.173 4.97-11.143 11.143-11.143h47.545c6.173 0 11.143 4.97 11.143 11.143v141.176M1572.21 550.456V408.293c0-6.173 4.97-11.143 11.143-11.143h47.545c6.173 0 11.143 4.97 11.143 11.143v141.176M1452.21 550.456V408.293c0-6.173 4.97-11.143 11.143-11.143h47.545c6.173 0 11.143 4.97 11.143 11.143v141.176M1332.21 550.456V408.293c0-6.173 4.97-11.143 11.143-11.143h47.545c6.173 0 11.143 4.97 11.143 11.143v141.176M1212.21 550.456V408.293c0-6.173 4.97-11.143 11.143-11.143h47.545c6.173 0 11.143 4.97 11.143 11.143v141.176M1092.21 550.456V408.293c0-6.173 4.97-11.143 11.143-11.143h47.545c6.173 0 11.143 4.97 11.143 11.143v141.176M972.21 550.456V408.293c0-6.173 4.97-11.143 11.143-11.143h47.546c6.172 0 11.142 4.97 11.142 11.143v141.176M852.21 550.456V408.293c0-6.173 4.97-11.143 11.143-11.143H910.9c6.172 0 11.142 4.97 11.142 11.143v141.176M732.21 550.456V408.293c0-6.173 4.97-11.143 11.143-11.143H790.9c6.172 0 11.142 4.97 11.142 11.143v141.176M612.21 550.456V408.293c0-6.173 4.97-11.143 11.143-11.143H670.9c6.172 0 11.142 4.97 11.142 11.143v141.176M448.21 550.456V408.293c0-6.173 8.141-11.143 18.252-11.143h77.882c10.112 0 18.252 4.97 18.252 11.143v141.176M3372.907 550.456V408.293c0-6.173 8.14-11.143 18.251-11.143h77.882c10.111 0 18.251 4.97 18.251 11.143v141.176" opacity=".98"/>
        </g>
        <path d="M1967.737 549.204H373.105a15.299 15.299 0 0 0-15.332 15.332v352.507m1609.964-367.84h1594.632a15.299 15.299 0 0 1 15.332 15.333v352.507" fill="none" opacity=".98" stroke="#f4f4f4" stroke-width="12.6"/>
        <path d="M2112.182 548.91v209.542c0 6.173-4.97 11.142-11.142 11.142h-962.5a11.118 11.118 0 0 1-11.142-11.142v-208.87" fill="none" opacity=".98" stroke="#f4f4f4" stroke-width="6.3"/>
        <path d="M1701.49 768.101v63.687c0 6.172-4.97 11.142-11.143 11.142h-142.031a11.118 11.118 0 0 1-11.142-11.142v-62.182" fill="none" opacity=".98" stroke="#f4f4f4" stroke-width="6.3"/>
        <g fill="none" stroke="#f4f4f4" stroke-linecap="round" stroke-width="6.3">
            <path d="m3523.069 1098.044 3.498 56.316-14.637 23.141M3386.354 1096.071l2.19 60.82-12.353 21.339M3247.998 1095.944l1.511 60.596-10.242 22.114M3110.057 1098.849l1.729 58.671-10.879 20.799M2972.932 1098.303l1.74 57.7-9.88 22.905M2835.257 1098.898l2.165 55.7-8.159 25.358M2699.791 1099.018l1.084 55.744-6.531 25.04M2563.714 1098.044l.986 51.884-4.461 28.648M2428.29 1098.044l.016 50.268-1.962 31.596M2291.74 1099.418l.517 49.226-.578 30.08M2156.73 1099.464l.33 49.126-.574 28.629M3441.31 1302.76l14.522-26.182M3311.185 1302.33l12.482-24.716M3180.962 1301.02l10.795-23.158M3050.253 1302.941l9.292-24.22M2919.836 1300.083l8.486-20.948M2790.862 1300.608l6.416-20.773M2661.518 1302.465l6.712-26.807M2534.262 1299.39l3.815-20.107M2404.116 1300.243l3.057-21.214M2276.796 1298.852l1.532-21.399M2148.782 1296.91l-.367-19.148" opacity=".98"/>
        </g>
        <path d="m2413.583 1253.857 8.26-53.386m254.314 54.355 13.671-53.91m268.475 2.14c-4.507 19.484-11.605 33.055-16.987 50.784m289.057-52.173c-7.75 20.49-13.969 34.131-21.129 52.03m-1069.098-52.447h1380.049l-26.688 53.19H2140.146z" fill="none" opacity=".98" stroke="#f4f4f4" stroke-linecap="round" stroke-width="6.3"/>
        <rect fill="#f4f4f4" height="26.215" opacity=".98" rx=".789" width="248.663" x="2153.893" y="1214.858"/>
        <g stroke-linecap="round">
            <path d="m2432.287 1213.64 241.773.888-7.014 26.537-238.566-.073zM2698.97 1214.116l243.523.682-9.134 25.996-241.213-.05zM2967.934 1214.14l245.01.456-11.883 25.95-242.138-.15zM3243.3 1213.593l254.008.096-15.758 26.671-250.645.159z" fill="#f4f4f4" opacity=".98"/>
            <path d="m3158.011 622.873 67.459-.64.469 34.275-20.116 1.192.773 28.883 20.773-.162 1.09 34.277-20.228.072 2.633 81.539-45.36.204zM3240.988 625.245l6.655 173.142 67.4-.404c11.233-1.758 18.678-8.158 20.834-21.038l-5.372-122.334c-1.235-13.018-3.1-29.655-29.592-29.46z" fill="none" opacity=".98" stroke="#f4f4f4" stroke-width="6.3"/>
            <path d="M3280.258 653.626c9.489-1.293 15.68 3.937 15.98 8.777l4.873 96.5c.541 6.407-6.067 12.196-16.133 11.36zM3349.53 624.312l7.679 173.49 67.834.181c9.976-2.277 18.746-7.582 19.7-21.829l-6.107-121.633c-1.235-13.018-3.182-27.877-27.52-30.05z" fill="none" opacity=".98" stroke="#f4f4f4" stroke-width="6.3"/>
            <path d="M3389.062 653.18c7.868-.837 13.985 3.305 15.307 9.223l5.408 96.5c.435 5.914-4.74 11.16-15.781 10.771z" fill="none" opacity=".98" stroke="#f4f4f4" stroke-width="6.3"/>
            <path d="m3541.173 708.936-30.322 18.904-30.322 18.903-1.21-35.712-1.21-35.711 31.533 16.808z" fill="none" opacity=".98" stroke="#f4f4f4" stroke-width="6.339" transform="matrix(.83016 -.02027 .02003 1.18922 577.916 -61.67)"/>
            <path d="M924.814 1170.692H1929.45v91.412H924.814z" fill="none" opacity=".98" stroke="#f4f4f4" stroke-width="6.3"/>
            <path d="M1078.515 1212.915h407.394v49.131h-407.394z" fill="none" opacity=".98" stroke="#f4f4f4" stroke-width="6.3"/>
            <path d="M1078.515 1212.915h583.935v49.131h-583.935z" fill="none" opacity=".98" stroke="#f4f4f4" stroke-width="6.3"/>
        </g>
        <g fill="#f4f4f4">
            <circle cx="1384.444" cy="1227.287" opacity=".98" r="5.61"/>
            <circle cx="1412.444" cy="1227.287" opacity=".98" r="5.61"/>
            <circle cx="1436.444" cy="1227.287" opacity=".98" r="5.61"/>
            <circle cx="1464.444" cy="1227.287" opacity=".98" r="5.61"/>
            <circle cx="1384.444" cy="1247.287" opacity=".98" r="5.61"/>
            <circle cx="1412.444" cy="1247.287" opacity=".98" r="5.61"/>
            <circle cx="1436.444" cy="1247.287" opacity=".98" r="5.61"/>
            <circle cx="1464.444" cy="1247.287" opacity=".98" r="5.61"/>
        </g>
        <g fill="none" stroke="#f4f4f4" stroke-linecap="round" stroke-width="6.3">
            <path d="m1116.233 1186.344 4.813 14.996M1133.482 1186.344l4.813 14.996M1150.233 1186.344l4.813 14.996M1167.482 1186.344l4.813 14.996M1184.233 1186.344l4.813 14.996M1201.482 1186.344l4.813 14.996M1218.233 1186.344l4.813 14.996M1235.482 1186.344l4.813 14.996M1251.376 1186.344l4.813 14.996M1268.625 1186.344l4.813 14.996" opacity=".98"/>
        </g>
        <circle cx="995.284" cy="1201.817" fill="none" opacity=".98" r="11.11" stroke="#f4f4f4" stroke-linecap="round" stroke-width="6.3"/>
        <path d="M1952.132 1178.965h29.495v74.224h-29.495zM1722.68 1212.915h150.19v49.66h-150.19zM1842.931 1262.376v-49.46" fill="none" opacity=".98" stroke="#f4f4f4" stroke-linecap="round" stroke-width="6.3"/>
        <path d="M1745.725 1252.122v-31.046" fill="#f4f4f4" opacity=".98"/>
        <g fill="#f4f4f4">
            <circle cx="1778.444" cy="1227.287" opacity=".98" r="5.61"/>
            <circle cx="1804.444" cy="1227.287" opacity=".98" r="5.61"/>
            <circle cx="1828.444" cy="1227.287" opacity=".98" r="5.61"/>
            <circle cx="1778.444" cy="1247.287" opacity=".98" r="5.61"/>
            <circle cx="1804.444" cy="1247.287" opacity=".98" r="5.61"/>
            <circle cx="1828.444" cy="1247.287" opacity=".98" r="5.61"/>
        </g>
        <path d="M3667.564 1303.776H264.734" fill="none" opacity=".98" stroke="#f4f4f4" stroke-linecap="round" stroke-width="6.3"/>
    </g>
    <g fill="none" stroke="#f4f4f4" stroke-linecap="round" stroke-width="12.6">
        <rect height="116.22" opacity=".98" rx="13.832" width="116.22" x="2854.149" y="1503.299"/>
        <rect height="116.22" opacity=".98" rx="13.832" width="116.22" x="2700.149" y="1503.299"/>
        <rect height="116.22" opacity=".98" rx="13.832" width="116.22" x="3164.149" y="1503.299"/>
        <rect height="116.22" opacity=".98" rx="13.832" width="116.22" x="3010.149" y="1503.299"/>
        <rect height="116.22" opacity=".98" rx="13.832" width="116.22" x="2854.149" y="1349.299"/>
        <rect height="116.22" opacity=".98" rx="13.832" width="116.22" x="2700.149" y="1349.299"/>
        <rect height="116.22" opacity=".98" rx="13.832" width="116.22" x="3164.149" y="1349.299"/>
        <rect height="116.22" opacity=".98" rx="13.832" width="116.22" x="3010.149" y="1349.299"/>
        <rect height="116.22" opacity=".98" rx="13.832" width="116.22" x="2854.149" y="1195.299"/>
        <rect height="116.22" opacity=".98" rx="13.832" width="116.22" x="2700.149" y="1195.299"/>
        <rect height="116.22" opacity=".98" rx="13.832" width="116.22" x="3164.149" y="1195.299"/>
        <rect height="116.22" opacity=".98" rx="13.832" width="116.22" x="3010.149" y="1195.299"/>
        <rect height="116.22" opacity=".98" rx="13.832" width="116.22" x="2854.149" y="1041.299"/>
        <rect height="116.22" opacity=".98" rx="13.832" width="116.22" x="2700.149" y="1041.299"/>
        <rect height="116.22" opacity=".98" rx="13.832" width="116.22" x="3164.149" y="1041.299"/>
        <rect height="116.22" opacity=".98" rx="13.832" width="116.22" x="3010.149" y="1041.299"/>
        <rect height="116.22" opacity=".98" rx="13.832" width="116.22" x="836.149" y="1861.299"/>
        <rect height="116.22" opacity=".98" rx="13.832" width="116.22" x="682.149" y="1861.299"/>
        <rect height="116.22" opacity=".98" rx="13.832" ry="13.832" width="232.22" x="2376.149" y="1861.299"/>
        <rect height="116.22" opacity=".98" rx="13.832" width="116.22" x="2222.149" y="1861.299"/>
        <rect height="116.22" opacity=".98" rx="13.832" width="1194.22" x="990.149" y="1861.299"/>
        <rect height="116.22" opacity=".98" rx="13.832" width="116.22" x="1606.149" y="1707.299"/>
        <rect height="116.22" opacity=".98" rx="13.832" width="116.22" x="1452.149" y="1707.299"/>
        <rect height="116.22" opacity=".98" rx="13.832" width="116.22" x="1298.149" y="1707.299"/>
        <rect height="116.22" opacity=".98" rx="13.832" width="116.22" x="1144.149" y="1707.299"/>
        <rect height="116.22" opacity=".98" rx="13.832" width="116.22" x="990.149" y="1707.299"/>
        <rect height="116.22" opacity=".98" rx="13.832" width="116.22" x="836.149" y="1707.299"/>
        <rect height="116.22" opacity=".98" rx="13.832" width="116.22" x="682.149" y="1707.299"/>
        <rect height="116.22" opacity=".98" rx="13.832" ry="13.832" width="310.22" x="334.149" y="1707.299"/>
        <rect height="116.22" opacity=".98" rx="13.832" ry="13.832" width="232.22" x="2376.149" y="1707.299"/>
        <rect height="116.22" opacity=".98" rx="13.832" width="116.22" x="2222.149" y="1707.299"/>
        <rect height="116.22" opacity=".98" rx="13.832" width="116.22" x="2068.149" y="1707.299"/>
        <rect height="116.22" opacity=".98" rx="13.832" width="116.22" x="1914.149" y="1707.299"/>
        <rect height="116.22" opacity=".98" rx="13.832" width="116.22" x="1760.149" y="1707.299"/>
        <g transform="translate(-178.758 -393.37)">
            <rect height="116.22" opacity=".98" rx="13.832" width="116.22" x="1708.907" y="1946.67"/>
            <rect height="116.22" opacity=".98" rx="13.832" width="116.22" x="1554.907" y="1946.67"/>
            <rect height="116.22" opacity=".98" rx="13.832" width="116.22" x="1400.907" y="1946.67"/>
            <rect height="116.22" opacity=".98" rx="13.832" width="116.22" x="1246.907" y="1946.67"/>
            <rect height="116.22" opacity=".98" rx="13.832" width="116.22" x="1092.907" y="1946.67"/>
            <rect height="116.22" opacity=".98" rx="13.832" width="116.22" x="938.907" y="1946.67"/>
            <rect height="116.22" opacity=".98" rx="13.832" width="116.22" x="784.907" y="1946.67"/>
            <rect height="116.22" opacity=".98" rx="13.832" width="234.22" x="512.907" y="1946.67"/>
            <path d="M2787.128 1960.502v88.556c0 7.663-6.17 13.833-13.832 13.833h-126.557a13.802 13.802 0 0 1-13.832-13.833v-94.556l-.408-47.611h-21.76a13.802 13.802 0 0 1-13.831-13.832v-88.557a13.802 13.802 0 0 1 13.832-13.832h162.556c7.663 0 13.832 6.17 13.832 13.832v88.557z" opacity=".98"/>
            <rect height="116.22" opacity=".98" rx="13.832" width="116.22" x="2478.907" y="1946.67"/>
            <rect height="116.22" opacity=".98" rx="13.832" width="116.22" x="2324.907" y="1946.67"/>
            <rect height="116.22" opacity=".98" rx="13.832" width="116.22" x="2170.907" y="1946.67"/>
            <rect height="116.22" opacity=".98" rx="13.832" width="116.22" x="2016.907" y="1946.67"/>
            <rect height="116.22" opacity=".98" rx="13.832" width="116.22" x="1862.907" y="1946.67"/>
        </g>
        <rect height="116.22" opacity=".98" rx="13.832" width="116.22" x="1494.149" y="1397.299"/>
        <rect height="116.22" opacity=".98" rx="13.832" width="116.22" x="1340.149" y="1397.299"/>
        <rect height="116.22" opacity=".98" rx="13.832" width="116.22" x="1186.149" y="1397.299"/>
        <rect height="116.22" opacity=".98" rx="13.832" width="116.22" x="1032.149" y="1397.299"/>
        <rect height="116.22" opacity=".98" rx="13.832" width="116.22" x="878.149" y="1397.299"/>
        <rect height="116.22" opacity=".98" rx="13.832" width="116.22" x="724.149" y="1397.299"/>
        <rect height="116.22" opacity=".98" rx="13.832" width="116.22" x="570.149" y="1397.299"/>
        <rect height="116.22" opacity=".98" rx="13.832" ry="13.832" width="198.22" x="334.149" y="1397.299"/>
        <rect height="116.22" opacity=".98" rx="13.832" width="116.22" x="2264.149" y="1397.299"/>
        <rect height="116.22" opacity=".98" rx="13.832" width="116.22" x="2110.149" y="1397.299"/>
        <rect height="116.22" opacity=".98" rx="13.832" width="116.22" x="1956.149" y="1397.299"/>
        <rect height="116.22" opacity=".98" rx="13.832" width="116.22" x="1802.149" y="1397.299"/>
        <rect height="116.22" opacity=".98" rx="13.832" width="116.22" x="1648.149" y="1397.299"/>
        <rect height="116.22" opacity=".98" rx="13.832" width="116.22" x="1568.149" y="1245.299"/>
        <rect height="116.22" opacity=".98" rx="13.832" width="116.22" x="1414.149" y="1245.299"/>
        <rect height="116.22" opacity=".98" rx="13.832" width="116.22" x="1260.149" y="1245.299"/>
        <rect height="116.22" opacity=".98" rx="13.832" width="116.22" x="1106.149" y="1245.299"/>
        <rect height="116.22" opacity=".98" rx="13.832" width="116.22" x="952.149" y="1245.299"/>
        <rect height="116.22" opacity=".98" rx="13.832" width="116.22" x="798.149" y="1245.299"/>
        <rect height="116.22" opacity=".98" rx="13.832" width="116.22" x="644.149" y="1245.299"/>
        <rect height="116.22" opacity=".98" rx="13.832" width="116.22" x="490.149" y="1245.299"/>
        <rect height="116.22" opacity=".98" rx="13.832" width="116.22" x="2338.149" y="1245.299"/>
        <rect height="116.22" opacity=".98" rx="13.832" width="116.22" x="2184.149" y="1245.299"/>
        <rect height="116.22" opacity=".98" rx="13.832" width="116.22" x="2030.149" y="1245.299"/>
        <rect height="116.22" opacity=".98" rx="13.832" width="116.22" x="1876.149" y="1245.299"/>
        <rect height="116.22" opacity=".98" rx="13.832" width="116.22" x="1722.149" y="1245.299"/>
        <rect height="116.22" opacity=".98" rx="13.832" width="116.22" x="334.149" y="1245.299"/>
        <rect height="116.22" opacity=".98" rx="13.832" width="116.22" x="2492.149" y="1245.299"/>
        <path d="M1486.36 1115.416h183.688v62.53h-183.687zM1690.36 1115.416h183.688v62.53h-183.687zM1944.36 1115.416h183.688v62.53h-183.687zM2148.36 1115.416h183.688v62.53h-183.687zM1028.36 1115.416h183.688v62.53h-183.687zM1232.36 1115.416h183.688v62.53h-183.687zM620.36 1115.416h183.688v62.53H620.361zM824.36 1115.416h183.688v62.53H824.361zM416.36 1115.416h183.688v62.53H416.361zM2352.36 1115.416h183.688v62.53h-183.687zM2891.857 1700.623a13.802 13.802 0 0 0-13.832 13.832v83.123h-169.57a13.802 13.802 0 0 0-13.832 13.832v178.067c0 7.663 6.169 13.832 13.832 13.832h169.57v83.123c0 7.663 6.169 13.832 13.832 13.832h178.066c7.663 0 13.832-6.17 13.832-13.832v-83.123h169.57c7.664 0 13.833-6.17 13.833-13.832V1811.41c0-7.663-6.17-13.832-13.832-13.832h-169.57v-83.123c0-7.663-6.17-13.832-13.833-13.832z" opacity=".98"/>
        <g stroke-width="6.3">
            <path d="M2878.025 1797.578v24.312l70.666 68.666h48.247l86.42-68.496.397-24.482M3083.755 2003.309v-23.396l-86.817-75.096-48.247.595-70.82 73.632.154 24.265M2857.285 2003.366v-23.704l77.82-82.067-77.82-75.086v-24.54" opacity=".98"/>
            <path d="M3104.507 1797.449v23.654l-93.223 76.492 93.223 81.386v24.353" opacity=".98"/>
            <path d="M2857.671 1979.478h-22.108c-41.834 0-75.512-33.665-75.512-75.483v-7.228c0-41.817 33.678-75.483 75.512-75.483h21.722m246.967 0h15.91c41.834 0 75.512 33.666 75.512 75.483v7.228c0 41.818-33.678 75.483-75.511 75.483h-14.873" opacity=".98"/>
        </g>
        <path d="m3140.416 2180.237 9.467-16.398 9.467-16.397 9.467 16.397 9.468 16.398" opacity=".98" stroke-width="6.517" transform="matrix(2.51423 0 0 1.48667 -4962.757 -1439.182)"/>
        <path d="m2932.987 2003.89 23.803 24.377 23.802 24.377 23.803-24.377 23.802-24.378M3204.34 1953.746l24.378-23.802 24.378-23.803-24.378-23.802-24.377-23.803M2756.844 1953.746l-24.378-23.802-24.377-23.803 24.377-23.802 24.378-23.803" opacity=".98"/>
    </g>
</svg>
