<svg height="186.929" viewBox="0 0 326.216 224.315" width="271.847" xmlns="http://www.w3.org/2000/svg">
    <text fill="#ef00eb" font-family="TrasksHand" font-size="2.4" stroke="#0105ff" stroke-width="3" x="202.272" y="368.6" transform="translate(-137.592 -312.058)"><tspan fill="#fafafa" fill-opacity=".4" stroke="none" x="202.272" y="368.6">John Loreth 2022</tspan></text>
    <g transform="translate(-137.592 -312.058)">
        <g fill="#f4f4f4">
            <path d="m352.237 409.97 2 2.5h-4zM352.237 445.514l-2-2.5h4zM334.187 427.847l2.5-2v4zM370.553 427.847l-2.5-2v4zM369.216 444.74l-.354-3.181-2.828 2.828zM369.215 410.384l-3.181.353 2.828 2.829zM335.475 411.193l.354 3.182 2.828-2.828zM335.298 444.489l.354-3.182 2.828 2.828z"/>
        </g>
        <g fill="none" stroke="#f4f4f4">
            <g stroke-width="1.167">
                <path d="M331.854 316.647v33.405c0 .703-.499 1.27-1.119 1.27s-1.12-.567-1.12-1.27v-33.405M337.006 316.647v33.405c0 .703-.499 1.27-1.119 1.27s-1.12-.567-1.12-1.27v-33.405M341.854 316.647v33.405c0 .703-.499 1.27-1.119 1.27s-1.12-.567-1.12-1.27v-33.405M347.006 316.647v33.405c0 .703-.499 1.27-1.119 1.27s-1.12-.567-1.12-1.27v-33.405M351.854 316.647v33.405c0 .703-.499 1.27-1.119 1.27s-1.12-.567-1.12-1.27v-33.405M357.006 316.647v33.405c0 .703-.499 1.27-1.119 1.27s-1.12-.567-1.12-1.27v-33.405M361.854 316.647v33.405c0 .703-.499 1.27-1.119 1.27s-1.12-.567-1.12-1.27v-33.405M367.006 316.647v33.405c0 .703-.499 1.27-1.119 1.27s-1.12-.567-1.12-1.27v-33.405M371.854 316.647v33.405c0 .703-.499 1.27-1.119 1.27s-1.12-.567-1.12-1.27v-33.405M377.006 316.647v33.405c0 .703-.499 1.27-1.119 1.27s-1.12-.567-1.12-1.27v-33.405M381.854 316.647v33.405c0 .703-.499 1.27-1.119 1.27s-1.12-.567-1.12-1.27v-33.405M387.006 316.647v33.405c0 .703-.499 1.27-1.119 1.27s-1.12-.567-1.12-1.27v-33.405" stroke-width="1.4004"/>
            </g>
            <path d="M270.851 316.897H144.785a5.78 5.78 0 0 0-5.793 5.793v146.857a5.78 5.78 0 0 0 5.793 5.793h126.222m-.031-158.443h126.067a5.78 5.78 0 0 1 5.793 5.793v146.857a5.78 5.78 0 0 1-5.793 5.793H270.82" stroke-width="2.8"/>
            <path d="M270.934 320.978H145.207a2.297 2.297 0 0 0-2.302 2.301v145.689a2.297 2.297 0 0 0 2.302 2.301h125.667m.02-150.291h58.61m57.604 0h9.513a2.297 2.297 0 0 1 2.302 2.301v145.689a2.297 2.297 0 0 1-2.302 2.301H270.954" stroke-width="1.4"/>
            <path d="M270.944 371.718h-105.17a6.153 6.153 0 0 0-6.166 6.167v93.54m111.275-99.707h105.17a6.153 6.153 0 0 1 6.167 6.167v93.54" stroke-width="1.4"/>
            <rect height="68.203" rx="1.596" stroke-width="1.4" width="160.26" x="168.606" y="379.325"/>
            <rect height="39.522" rx="1.596" width="40.617" x="332.398" y="408.302"/>
            <rect height="26.132" rx="1.596" width="40.133" x="332.117" y="378.839"/>
        </g>
        <path d="M348.551 393.724h6.962v2.093h-6.962z" fill="#f4f4f4" fill-opacity=".977"/>
        <g fill="none" stroke="#f4f4f4">
            <path d="M402.503 358.772c9.085.54 18.74.618 25.419 3.11 4.334-2.614 8.684-5.057 13.13-6.459h3.77v-10.11h-4.029c-4.575-1.409-8.402-3.801-12.051-6.428-5.291.804-11.79 1.623-25.906 2.532z" stroke-width="1.4"/>
            <path d="M444.764 347.994v4h6.002c2.178.075 3.563.427 4.359.817.796.39 1.056.734 1.28 1.236.432.973.269 2.907.519 5.178l2.183 109.74c.008.98-.341 1.569-1.011 2.115-.671.547-1.716.933-2.768.994-1.052.062-2.063-.203-2.695-.646-.633-.443-.998-.95-1.028-2.063l-1.859-91.937-.012-.1c-.25-2.06-1.469-3.73-2.982-4.713-1.513-.983-3.297-1.39-5.057-1.318-1.759.072-3.536.633-4.949 1.848-1.413 1.214-2.355 3.15-2.316 5.369v.002l1.814 91.722c.023 1.165-.285 1.533-.836 1.899s-1.539.587-2.61.476-2.172-.547-2.859-1.095c-.686-.549-.947-1.04-.918-1.702l.004-.058-1.273-91.113c.013-2.275-1.002-4.242-2.494-5.446-1.492-1.203-3.363-1.718-5.207-1.656-1.844.062-3.715.708-5.178 2.043-1.463 1.335-2.427 3.39-2.433 5.8v.02l1.994 112.719c-.04 2.684-.68 4.624-1.791 5.897-1.112 1.271-2.792 2.09-5.637 2.199l-74.867.16.008 4 74.965-.16.035-.002c3.62-.136 6.579-1.358 8.508-3.565 1.928-2.206 2.733-5.18 2.78-8.48v-.031l-1.995-112.746v-.004c.005-1.424.464-2.245 1.129-2.852.665-.607 1.628-.967 2.615-1 .986-.033 1.942.27 2.564.771.623.502 1.01 1.127 1.004 2.309v.022l1.272 91.11.002-.118c-.094 2.078 1.002 3.876 2.418 5.008s3.16 1.764 4.943 1.949c1.783.184 3.653-.073 5.232-1.121 1.58-1.049 2.67-3.03 2.625-5.313l-1.814-91.719c-.019-1.157.336-1.756.922-2.26.587-.504 1.513-.845 2.51-.886.996-.041 2.018.225 2.713.676.684.445 1.068.968 1.18 1.812l1.85 91.682v.006c.06 2.244 1.184 4.148 2.733 5.234 1.55 1.086 3.414 1.47 5.223 1.365 1.809-.105 3.61-.702 5.062-1.886s2.505-3.074 2.485-5.256v-.01l-2.188-109.873-.011-.1c-.191-1.57.273-3.997-.85-6.521-.562-1.263-1.645-2.457-3.174-3.205-1.528-.749-3.45-1.134-5.98-1.221l-.036-.002z" stroke-width="1.4"/>
            <g stroke-width=".7">
                <path d="M412.77 340.949v18.337M431.758 341.45v17.814M414.77 340.949v18.337M413.838 340.949v18.337M416.77 340.949v18.337M418.77 340.043v20.026M417.838 340.949v18.337M415.853 340.949v18.337M420.77 340.949v18.337M422.77 340.949v18.337M421.838 340.949v18.337M424.77 340.949v18.337M426.77 340.949v18.337M425.838 340.949v18.337M423.853 340.949v18.337M420.77 340.043v20.026M422.77 340.043v20.026M421.838 340.043v20.026M424.77 339.39v21.213M426.77 339.39v22.135M425.838 339.39v21.213M423.853 339.39v21.213M419.724 340.043v20.026M428.77 338.972v22.319M430.77 340.184v19.832M429.838 340.184v20.371M427.853 339.39v22.135"/>
            </g>
        </g>
        <path d="M315.75 334.341v19.066a4.643 4.643 0 0 1-4.652 4.653H232.28a4.643 4.643 0 0 1-4.653-4.653v-19.122" fill="none" stroke="#f4f4f4" stroke-width="1.4"/>
        <path d="M227.816 334.35h87.882v19.355h-87.882zM227.07 331.325h88.78" fill="none" stroke="#f4f4f4" stroke-width="1.4"/>
        <rect fill="none" height="9.173" rx="1.596" stroke="#f4f4f4" stroke-width="2.8" width="26.853" x="338.415" y="390.171"/>
        <path d="m339.297 414.787 26.115 25.513m-26.115 0 26.115-25.513m-24.418 0h22.722c.94 0 1.696.757 1.696 1.697v22.119c0 .94-.756 1.697-1.696 1.697h-22.722c-.94 0-1.697-.757-1.697-1.697v-22.12c0-.94.757-1.696 1.697-1.696z" fill="none" stroke="#f4f4f4" stroke-width="2.8"/>
        <g fill="none" stroke="#f4f4f4" stroke-linecap="round" stroke-width="2">
            <rect height="8.863" rx=".912" width="39.884" x="257.076" y="427.895"/>
            <rect height="8.863" rx=".912" width="39.884" x="197.076" y="427.895"/>
            <rect height="10.909" rx=".912" width="9.545" x="266.765" y="390.864"/>
            <rect height="10.909" rx=".912" width="9.545" x="251.987" y="390.864"/>
            <rect height="10.909" rx=".912" width="9.545" x="237.002" y="390.864"/>
            <rect height="10.909" rx=".912" width="9.545" x="222.224" y="390.864"/>
            <rect height="10.909" rx=".912" width="9.545" x="206.765" y="390.864"/>
            <rect height="10.909" rx=".912" width="9.545" x="191.987" y="390.864"/>
            <rect height="22" rx=".912" width="9.545" x="177.002" y="390.864"/>
            <rect height="10.909" rx=".912" width="9.545" x="296.765" y="390.864"/>
            <rect height="10.909" rx=".912" width="9.545" x="281.987" y="390.864"/>
            <rect height="22" rx=".912" width="9.545" x="311.665" y="390.864"/>
            <rect height="10.909" rx=".912" width="9.545" x="266.765" y="406.864"/>
            <rect height="10.909" rx=".912" width="9.545" x="251.987" y="406.864"/>
            <rect height="10.909" rx=".912" width="9.545" x="237.002" y="406.864"/>
            <rect height="10.909" rx=".912" width="9.545" x="222.224" y="406.864"/>
            <rect height="10.909" rx=".912" width="9.545" x="206.765" y="406.864"/>
            <rect height="10.909" rx=".912" width="9.545" x="191.987" y="406.864"/>
            <rect height="10.909" rx=".912" width="9.545" x="296.765" y="406.864"/>
            <rect height="10.909" rx=".912" width="9.545" x="281.987" y="406.864"/>
        </g>
    </g>
    <g fill="none" stroke="#f4f4f4" transform="translate(-137.592 -312.058)">
        <rect height="50.448" rx="10.097" ry="10.097" stroke-width="2.8" width="118.961" x="212.803" y="484.525"/>
        <path d="M282.118 491.559h36.685v12.384h-36.685z" stroke-width="1.4"/>
        <rect height="42.377" rx="5.162" stroke-width="1.4" width="111.684" x="216.157" y="488.592"/>
        <rect height="16.038" rx="5.162" stroke-width="1.4" width="10.903" x="284.515" y="509.446"/>
        <rect height="16.038" rx="5.162" stroke-width="1.4" width="10.903" x="304.9" y="509.446"/>
        <circle cx="241.886" cy="509.385" stroke-width="1.4" r="14.5"/>
        <path d="M310.153 513.193c-1.24 0-2.188.949-2.188 2.189v4.166c0 1.24.948 2.188 2.188 2.188h.422c1.24 0 2.188-.948 2.188-2.188v-4.166c0-1.24-.949-2.189-2.188-2.189zM289.705 513.193c-1.24 0-2.189.949-2.189 2.189v4.166c0 1.24.949 2.188 2.189 2.188h.421c1.24 0 2.189-.948 2.189-2.188v-4.166c0-1.24-.949-2.189-2.189-2.189z" stroke-width="2.8000890000000003"/>
        <circle cx="241.842" cy="509.577" r="5.5" stroke-width="1.4"/>
        <path d="M241.828 496.568v5.868M241.828 516.568v5.868M254.762 509.502h-5.868M234.762 509.502h-5.868" stroke-linecap="round" stroke-width="1.4"/>
    </g>
</svg>
