<svg height="764.187" viewBox="0 0 399.96 202.191" width="1511.659" xmlns="http://www.w3.org/2000/svg">
    <g fill="none" stroke="#f4f4f4" stroke-width="2">
        <g stroke-linecap="round">
            <ellipse cx="283.152" cy="33.171" opacity=".98" rx="32.333" ry="32.332" stroke-width="1"/>
            <circle cx="283.208" cy="33.391" opacity=".98" r="21.887"/>
            <ellipse cx="359.031" cy="32.832" opacity=".98" rx="32.333" ry="32.332" stroke-width="1"/>
            <circle cx="359.087" cy="33.052" opacity=".98" r="21.887"/>
            <ellipse cx="367.127" cy="112.112" opacity=".98" rx="32.333" ry="32.332" stroke-width="1"/>
            <circle cx="367.183" cy="112.331" opacity=".98" r="21.887"/>
            <ellipse cx="292.887" cy="112.116" opacity=".98" rx="32.333" ry="32.332" stroke-width="1"/>
            <circle cx="292.942" cy="112.336" opacity=".98" r="21.887"/>
            <ellipse cx="229.435" cy="152.916" opacity=".98" rx="32.333" ry="32.332" stroke-width="1"/>
            <circle cx="229.49" cy="153.135" opacity=".98" r="21.887"/>
            <ellipse cx="223.019" cy="73.081" opacity=".98" rx="32.333" ry="32.332" stroke-width="1"/>
            <circle cx="223.075" cy="73.301" opacity=".98" r="21.887"/>
        </g>
        <g stroke-width="1">
            <path d="m89.578 54.187 4.526 17.182h-9.052zM47.75 71.484l15.364 8.965-6.37 6.4zM47.634 108.79v9.053l-17.21-4.526zM56.743 139.78l6.371 6.399-15.365 8.966zM85.052 155.255h9.052l-4.526 17.182zM122.441 139.78l8.937 15.336-15.336-8.937zM131.526 108.79l17.24 4.526-17.24 4.526zM131.377 71.513 122.44 86.85l-6.4-6.4z"/>
        </g>
        <circle cx="89.5" cy="112.691" opacity=".98" r="88.5" stroke-linecap="round"/>
        <circle cx="89.577" cy="113.169" opacity=".98" r="37" stroke-linecap="round"/>
    </g>
    <g fill="#f4f4f4" fill-opacity=".5">
        <path d="M277.591 62.94q0 .24-.058.404-.086.244-.276.244-.126 0-.264-.058-.166-.07-.182-.172.056 0 .132.02.176.046.22.046.17 0 .256-.17.068-.136.068-.326 0-.134-.088-.382-.086-.25-.086-.348 0-.03.016-.048.018-.02.048-.02.078 0 .152.36.062.304.062.45zM278.361 63.144q0 .204-.118.32-.118.116-.326.116-.114 0-.176-.054-.062-.054-.062-.166 0-.158.206-.318.196-.152.362-.152.076 0 .1.094.014.054.014.16zm-.122.056q0-.024-.006-.046-.004-.024-.016-.054-.032.022-.106.108-.038.044-.066.064 0-.038.008-.062l.026-.058q-.088 0-.184.074-.094.074-.094.16 0 .058.064.058.122 0 .236-.06.138-.072.138-.184zM279.185 63.226q0 .098-.074.22-.084.138-.174.138-.026 0-.044-.028-.016-.03-.016-.058 0-.036.076-.112.078-.078.078-.106 0-.018-.006-.036l-.008-.024q-.15.034-.306.172-.154.138-.234.156-.016-.044-.016-.09 0-.056.026-.118.018-.044.06-.106.07-.106.148-.24l.138-.242q.1-.172.146-.244.024-.036.042-.054.026-.024.062-.032.024.008.034.03.012.022.012.052 0 .068-.088.184-.16.208-.164.216-.09.136-.09.246l.004.02q.11-.054.13-.062.082-.034.14-.034.064 0 .094.044.03.042.03.108zM280.113 63.108q0 .136-.066.29-.072.17-.178.234-.022-.026-.038-.058-.014-.032-.014-.064 0-.034.1-.202.044-.074.04-.13l-.002-.026q-.074.022-.256.134l-.364.224q-.028 0-.052-.02-.022-.022-.022-.048 0-.042.134-.282.04-.072.144-.25.032.042.042.094.01.05.01.12v.046q.184-.11.288-.166.114-.062.156-.062.028 0 .052.064.026.064.026.102zM281.851 63.496q0 .036-.032.056-.03.018-.068.018-.034 0-.086-.008-.118-.018-.152-.018-.06 0-.236.014-.1.008-.144.008-.122 0-.122-.122 0-.116.076-.332.042-.122.158-.4.104-.25.132-.352.01-.032.016-.042.016-.024.04-.024.038 0 .064.056.026.054.026.098 0 .07-.082.236l-.16.322q-.086.188-.086.286 0 .05.042.07.03.014.088.014.044 0 .152-.01.108-.012.144-.012.09 0 .148.026.082.036.082.116zM282.595 63.144q0 .204-.118.32-.118.116-.326.116-.114 0-.176-.054-.062-.054-.062-.166 0-.158.206-.318.196-.152.362-.152.076 0 .1.094.014.054.014.16zm-.122.056q0-.024-.006-.046-.004-.024-.016-.054-.032.022-.106.108-.038.044-.066.064 0-.038.008-.062l.026-.058q-.088 0-.184.074-.094.074-.094.16 0 .058.064.058.122 0 .236-.06.138-.072.138-.184zM283.437 63.102q0 .064-.034.136-.032.072-.082.12l-.002-.028q0-.024.006-.074.006-.05.006-.074 0-.034-.01-.05-.01-.018-.042-.018-.094 0-.234.146l-.302.318-.024-.002-.04-.01q.006-.072.05-.16.118-.238.122-.254l.024-.094q.008-.03.022-.062.016-.034.036-.06.022-.028.056-.042l.02.24.132-.108q.088-.07.152-.07t.104.042q.04.042.04.104zM284.42 62.87q0 .084-.225.222-.216.132-.314.132-.046 0-.062-.032-.014-.032-.014-.09v-.054q.134 0 .244-.04.11-.04.192-.132-.06-.022-.122-.022-.146 0-.31.112-.18.122-.18.26 0 .132.18.184.028.008.338.056.182.028.182.098 0 .03-.066.048-.066.02-.168.02-.256 0-.404-.078-.196-.104-.196-.334 0-.24.24-.382.204-.12.464-.12.078 0 .142.036.078.044.078.116zM285.215 62.512q0 .044-.106.184t-.106.214q0 .038.044.076.1.088.1.108 0 .026-.018.05-.016.024-.042.024-.022 0-.062-.024-.028-.016-.108-.078l-.046.088q-.056.106-.076.154l-.06.184q-.052.124-.13.124l-.002-.046q0-.142.092-.336.018-.036.1-.186-.158-.086-.348-.086 0-.074.03-.108.032-.036.106-.036.068 0 .17.024l.1.024q.038-.012.104-.13.162-.284.22-.326.016.026.026.052.012.026.012.05zM285.953 63.226q0 .098-.074.22-.084.138-.174.138-.026 0-.044-.028-.016-.03-.016-.058 0-.036.076-.112.078-.078.078-.106 0-.018-.006-.036l-.008-.024q-.15.034-.306.172-.154.138-.234.156-.016-.044-.016-.09 0-.056.026-.118.018-.044.06-.106.07-.106.148-.24l.138-.242q.1-.172.146-.244.024-.036.042-.054.026-.024.062-.032.024.008.034.03.012.022.012.052 0 .068-.088.184-.16.208-.164.216-.09.136-.09.246l.004.02q.11-.054.13-.062.082-.034.14-.034.064 0 .094.044.03.042.03.108zM287.595 62.574q0 .094-.1.252-.064.1-.21.288-.146.186-.182.244l.15.048q.146.044.146.16l-.118.018-.022-.002v-.016q-.032-.008-.052-.008-.038 0-.12.012-.082.012-.124.012-.054 0-.088-.02-.034-.02-.034-.072 0-.042.154-.238l.29-.37q.156-.212.156-.284 0-.028-.02-.042-.018-.014-.074-.014-.038 0-.158.074-.058.036-.094.036l-.034-.006q-.012-.008-.026-.03-.014-.024-.014-.038 0-.084.162-.154.138-.06.24-.06.086 0 .132.064.04.056.04.146zM288.797 62.934q0 .242-.262.428-.24.17-.494.17-.126 0-.2-.064-.074-.064-.074-.186 0-.272.238-.472.226-.19.506-.19.142 0 .214.084.072.084.072.23zm-.122.046q0-.092-.104-.138-.078-.034-.186-.034-.158 0-.33.154-.172.154-.172.31 0 .064.032.092.034.026.102.026.196 0 .408-.108.25-.128.25-.302zM289.713 62.574q0 .094-.1.252-.064.1-.21.288-.146.186-.182.244l.15.048q.146.044.146.16l-.118.018-.022-.002v-.016q-.032-.008-.052-.008-.038 0-.12.012-.082.012-.124.012-.054 0-.088-.02-.034-.02-.034-.072 0-.042.154-.238l.29-.37q.156-.212.156-.284 0-.028-.02-.042-.018-.014-.074-.014-.038 0-.158.074-.058.036-.094.036l-.034-.006q-.012-.008-.026-.03-.014-.024-.014-.038 0-.084.162-.154.138-.06.24-.06.086 0 .132.064.04.056.04.146zM290.633 62.574q0 .094-.1.252-.064.1-.21.288-.146.186-.182.244l.15.048q.146.044.146.16l-.118.018-.022-.002v-.016q-.032-.008-.052-.008-.038 0-.12.012-.082.012-.124.012-.054 0-.088-.02-.034-.02-.034-.072 0-.042.154-.238l.29-.37q.156-.212.156-.284 0-.028-.02-.042-.018-.014-.074-.014-.038 0-.158.074-.058.036-.094.036l-.034-.006q-.012-.008-.026-.03-.014-.024-.014-.038 0-.084.162-.154.138-.06.24-.06.086 0 .132.064.04.056.04.146z"/>
    </g>
</svg>
