<svg version="1.2" baseProfile="tiny" xmlns="http://www.w3.org/2000/svg" width="598.189" height="350.26" xml:space="preserve">
    <path fill="#F4F4F4" d="M415.095 188.464V163.13h37.499v-138a8.011 8.011 0 0 0-8-8H154.595a8.008 8.008 0 0 0-8 8l-.002 138h37.501v24.75h-2v-22.75h-37.5V25.128c0-5.522 4.478-9.999 10.001-9.999h289.999c5.523 0 10.001 4.477 10.001 9.999V165.13l-37.5-.002v23.336h-2z"/>
    <path fill="#F4F4F4" d="M154.595 337.128c-5.525 0-10-4.478-10-10v-149h1.999v149a8.013 8.013 0 0 0 8.001 8.002h289.999a8.014 8.014 0 0 0 8.001-8.002v-149h1.999v149c0 5.522-4.478 10-10 10H154.595z"/>
    <path fill="#F4F4F4" d="M156.259 189.464v-2.002l286.67.002a9.678 9.678 0 0 0 9.663-9.668 9.678 9.678 0 0 0-9.663-9.666h-286.67a9.68 9.68 0 0 0-9.666 9.666 9.68 9.68 0 0 0 9.666 9.668v1.998c-6.441 0-11.664-5.223-11.666-11.666.002-6.444 5.225-11.666 11.666-11.666h286.67c6.441 0 11.663 5.222 11.663 11.666 0 6.443-5.222 11.666-11.663 11.666h-286.67v.002zM223.763 156.796c-2.765 0-5-2.238-5.003-5V36.462a5.002 5.002 0 0 1 5.003-5h151.666a4.996 4.996 0 0 1 4.997 5v115.333c0 2.761-2.234 5-4.997 5H223.763v.001zM220.76 36.462v115.333a3.008 3.008 0 0 0 3.003 3h151.666a3.007 3.007 0 0 0 3-3V36.462a3.006 3.006 0 0 0-3-3H223.763a3.008 3.008 0 0 0-3.003 3z"/>
    <path fill="#F4F4F4" d="M229.095 149.796a3.003 3.003 0 0 1-3.002-3l.002-105.333a3 3 0 0 1 3-3h140.999a3 3 0 0 1 2.999 3v105.333a3 3 0 0 1-2.999 3H229.095zm-1-108.334-.002 105.333c.002.549.45.998 1.002 1h140.999a1.001 1.001 0 0 0 1-1V41.462a1.002 1.002 0 0 0-1-1H229.095c-.552.002-1 .449-1 1zM218.345 317.255V197.503a3.998 3.998 0 0 1 4-3.998l154.499-.002a4 4 0 0 1 4 4v119.752a4 4 0 0 1-4 3.998l-154.499.002a4.002 4.002 0 0 1-4-4zm1.999-119.752v119.752a2.003 2.003 0 0 0 2.001 1.998h154.499a2.002 2.002 0 0 0 1.999-1.998h.002l-.002-119.752a2.002 2.002 0 0 0-1.999-2H222.345a2.005 2.005 0 0 0-2.001 2z"/>
    <path fill="#F4F4F4" d="M227.969 312.753a2 2 0 0 1-1.999-1.998v-106.75a2 2 0 0 1 1.999-2.002h143.25a2 2 0 0 1 1.999 2.002v106.75a1.998 1.998 0 0 1-1.999 1.998h-143.25zm0-108.748v106.75h143.25V204.003h-143.25v.002zM173.845 267.003a2 2 0 0 1-2.001-2v-12.062h-12.063a1.999 1.999 0 0 1-1.999-1.999v-13.251a2 2 0 0 1 1.999-2h12.063v-12.063a2 2 0 0 1 2.001-1.998h13.249c1.105 0 2 .895 2 1.998v12.063h12.063a2 2 0 0 1 1.999 2v13.251a1.998 1.998 0 0 1-1.999 1.999h-12.063v12.063a1.999 1.999 0 0 1-2 1.998h-13.249v.001zm0-2h13.249v-12.188c.006-.307.025-.742.354-1.199.334-.469.956-.693 1.502-.675h12.208v-13.25h-12.146c-.395 0-.891-.083-1.317-.455-.43-.376-.608-.954-.6-1.481v-12.127h-13.249v12.168c-.002.375-.075.842-.417 1.266-.343.428-.929.645-1.458.631h-12.188v13.249h12.085c.391.015.823-.008 1.34.345.53.393.648 1.022.638 1.469v12.247h-.001zM407.763 219.794a9.5 9.5 0 0 1 18.999 0 9.5 9.5 0 0 1-9.5 9.5 9.499 9.499 0 0 1-9.499-9.5zm1.998 0a7.512 7.512 0 0 0 7.501 7.502 7.51 7.51 0 0 0 7.5-7.502 7.508 7.508 0 0 0-7.5-7.5 7.511 7.511 0 0 0-7.501 7.5zM407.763 255.296c0-5.25 4.253-9.502 9.499-9.502a9.5 9.5 0 0 1 9.5 9.502c0 5.244-4.253 9.498-9.5 9.498-5.246 0-9.499-4.252-9.499-9.498zm1.998 0a7.513 7.513 0 0 0 7.501 7.5 7.51 7.51 0 0 0 7.5-7.5 7.508 7.508 0 0 0-7.5-7.502 7.511 7.511 0 0 0-7.501 7.502zM390.095 237.628c0-5.246 4.256-9.5 9.501-9.5 5.246 0 9.5 4.254 9.5 9.5s-4.254 9.5-9.5 9.5c-5.245 0-9.501-4.252-9.501-9.5zm2.001 0a7.513 7.513 0 0 0 7.5 7.502 7.512 7.512 0 0 0 7.5-7.502 7.509 7.509 0 0 0-7.5-7.5 7.51 7.51 0 0 0-7.5 7.5zM425.931 237.628a9.5 9.5 0 0 1 9.5-9.5c5.245 0 9.499 4.254 9.499 9.5a9.5 9.5 0 0 1-9.499 9.5 9.498 9.498 0 0 1-9.5-9.5zm1.999 0a7.512 7.512 0 0 0 7.501 7.502 7.51 7.51 0 0 0 7.499-7.502 7.508 7.508 0 0 0-7.499-7.5 7.51 7.51 0 0 0-7.501 7.5zM390.429 295.128a5.333 5.333 0 1 1 10.665 0 5.332 5.332 0 0 1-5.331 5.332 5.329 5.329 0 0 1-5.334-5.332zm1.998 0a3.338 3.338 0 0 0 3.336 3.332 3.335 3.335 0 0 0 3.331-3.332 3.337 3.337 0 0 0-3.331-3.334 3.34 3.34 0 0 0-3.336 3.334zM390.429 312.796a5.332 5.332 0 1 1 10.665 0 5.332 5.332 0 0 1-5.332 5.332 5.331 5.331 0 0 1-5.333-5.332zm1.998 0a3.34 3.34 0 0 0 3.335 3.332 3.335 3.335 0 0 0 3.332-3.332 3.336 3.336 0 0 0-3.332-3.334 3.34 3.34 0 0 0-3.335 3.334z"/>
    <g fill="#F4F4F4">
        <path d="M185.135 162.63a3 3 0 0 1-2.999-3v-5.25c0-1.658 1.342-3 2.999-3h5.251a3.001 3.001 0 0 1 3 3v5.25a3.002 3.002 0 0 1-3 3h-5.251zm-.999-8.252v5.252c0 .549.447.996.999.998h5.251c.55-.002.997-.449 1-.998v-5.252a1.002 1.002 0 0 0-1-.998h-5.251a.998.998 0 0 0-.999.998zM408.803 162.628a2.998 2.998 0 0 1-2.999-2.998v-5.252a2.999 2.999 0 0 1 2.999-2.998h5.251a2.999 2.999 0 0 1 2.999 2.998v5.252a2.999 2.999 0 0 1-2.999 2.998h-5.251zm-1.001-8.25v5.252a1 1 0 0 0 1.001.998h5.251c.549 0 .997-.447.999-.998v-5.252a1.006 1.006 0 0 0-.999-1h-5.251a1.004 1.004 0 0 0-1.001 1z"/>
    </g>
    <g fill="#F4F4F4">
        <path d="M185.136 38.629a3 3 0 0 1-3-3v-5.251a3 3 0 0 1 3-3h5.25a3 3 0 0 1 3 3v5.251a3 3 0 0 1-3 3h-5.25zm-1.001-8.251v5.251c.002.55.449.999 1 .999h5.25c.552 0 .999-.449 1-.999v-5.251a1.004 1.004 0 0 0-1-1h-5.25a1.006 1.006 0 0 0-1 1zM408.803 38.628a2.999 2.999 0 0 1-2.999-2.999v-5.251a2.999 2.999 0 0 1 2.999-2.999h5.251a3 3 0 0 1 2.999 2.999v5.251a3 3 0 0 1-2.999 2.999h-5.251zm-1.001-8.249v5.251a1 1 0 0 0 1.001.999h5.251c.549 0 .997-.448.999-.999v-5.251a1.006 1.006 0 0 0-.999-1.001h-5.251a1.004 1.004 0 0 0-1.001 1.001z"/>
    </g>
    <path fill="#F4F4F4" d="M434.262 183.798a1 1 0 0 1-1 1h-.332a1 1 0 0 1-1-1v-12a1 1 0 0 1 1-1h.332a1 1 0 0 1 1 1v12zM439.596 183.798a1 1 0 0 1-1 1h-.332a1 1 0 0 1-1-1v-12a1 1 0 0 1 1-1h.332a1 1 0 0 1 1 1v12zM301.345 179.38a1.5 1.5 0 0 1-3 0v-5.25a1.5 1.5 0 1 1 3 0v5.25z"/>
    <g fill="#F4F4F4">
        <circle cx="405.563" cy="90.942" r="1.563"/>
        <circle cx="417.188" cy="90.942" r="1.563"/>
        <circle cx="428.813" cy="90.942" r="1.563"/>
        <circle cx="405.563" cy="102.317" r="1.563"/>
        <circle cx="417.188" cy="102.317" r="1.563"/>
        <circle cx="428.813" cy="102.317" r="1.563"/>
        <circle cx="170.376" cy="90.942" r="1.563"/>
        <circle cx="182.001" cy="90.942" r="1.563"/>
        <circle cx="193.626" cy="90.942" r="1.563"/>
        <circle cx="170.376" cy="102.317" r="1.563"/>
        <circle cx="182.001" cy="102.317" r="1.563"/>
        <circle cx="193.626" cy="102.317" r="1.563"/>
    </g>
</svg>
