<svg version="1.2" baseProfile="tiny" xmlns="http://www.w3.org/2000/svg" width="598.189" height="350.26" xml:space="preserve">
    <path fill="#F4F4F4" d="M19.381 43.455c-4.282 0-7.78 3.499-7.78 7.779v234.245c0 4.282 3.498 7.75 7.78 7.75h559.24a7.749 7.749 0 0 0 7.751-7.75V51.234c0-4.281-3.47-7.779-7.753-7.779H19.381zm0 1.886h559.24c3.264 0 5.865 2.631 5.865 5.893v234.245a5.834 5.834 0 0 1-5.865 5.864H19.381c-3.264 0-5.894-2.604-5.894-5.865V51.233a5.883 5.883 0 0 1 5.894-5.892z"/>
    <path fill="#F4F4F4" d="M33.526 84.445c-2.666 0-4.833 2.196-4.833 4.863v181.023c0 2.665 2.167 4.862 4.833 4.862h530.452c2.665 0 4.832-2.197 4.832-4.862V89.308c0-2.667-2.167-4.863-4.832-4.863H33.526zm0 1.886h530.452c1.644 0 2.947 1.33 2.947 2.977v181.023c0 1.646-1.304 2.976-2.947 2.976H33.526c-1.647 0-2.947-1.33-2.947-2.976V89.308c0-1.647 1.301-2.977 2.947-2.977z"/>
    <path fill="#F4F4F4" d="M208.363 189.853c-5.901 0-10.698 4.797-10.698 10.696v37.572c0 5.9 4.798 10.727 10.698 10.727H346.48c5.566 0 9.99-4.346 10.489-9.782h.207V200.55c0-5.899-4.797-10.696-10.696-10.696H208.363v-.001zm0 1.886H346.48a8.79 8.79 0 0 1 8.81 8.81v37.572c0 4.88-3.928 8.84-8.81 8.84H208.363c-4.881 0-8.811-3.96-8.811-8.84v-37.572c0-4.88 3.929-8.81 8.811-8.81z"/>
    <path fill="#F4F4F4" d="M207.156 196.189a4.376 4.376 0 0 0-4.361 4.36v37.571a4.377 4.377 0 0 0 4.361 4.362h140.531a4.377 4.377 0 0 0 4.361-4.362v-37.57a4.376 4.376 0 0 0-4.361-4.36H207.156zm0 1.887h140.531c1.377 0 2.475 1.1 2.475 2.474v37.571a2.463 2.463 0 0 1-2.475 2.477H207.156a2.465 2.465 0 0 1-2.476-2.477V200.55a2.464 2.464 0 0 1 2.476-2.474zM205.439 154.227c-4.821 0-8.752 3.93-8.752 8.752v11.728c0 4.823 3.931 8.722 8.752 8.722h143.952c4.824 0 8.753-3.899 8.753-8.722v-11.728c0-4.822-3.929-8.752-8.753-8.752H205.439zm0 1.886h143.952a6.85 6.85 0 0 1 6.867 6.866v11.728c0 3.802-3.061 6.835-6.867 6.835H205.439c-3.802 0-6.866-3.034-6.866-6.835v-11.728a6.853 6.853 0 0 1 6.866-6.866zM205.439 119.571c-4.821 0-8.752 3.931-8.752 8.752v11.729c0 4.822 3.931 8.752 8.752 8.752h143.952c4.824 0 8.753-3.931 8.753-8.752v-11.731c0-4.82-3.929-8.751-8.753-8.751H205.439v.001zm0 1.886h143.952a6.852 6.852 0 0 1 6.867 6.866v11.729a6.85 6.85 0 0 1-6.867 6.866H205.439a6.853 6.853 0 0 1-6.866-6.866v-11.729a6.854 6.854 0 0 1 6.866-6.866zM196.688 85.388v17.563c0 4.821 3.932 8.752 8.752 8.752h143.953c4.824 0 8.753-3.932 8.753-8.752V85.388h-1.886v17.563a6.852 6.852 0 0 1-6.867 6.866H205.44a6.854 6.854 0 0 1-6.866-6.866V85.388h-1.886zM205.439 258.161c-4.821 0-8.752 3.93-8.752 8.752v7.396h1.886v-7.396a6.853 6.853 0 0 1 6.866-6.865h143.952a6.85 6.85 0 0 1 6.867 6.865v7.338h1.886v-7.338c0-4.821-3.929-8.752-8.753-8.752H205.439zM388.055 187.41c-2.934 0-5.333 2.399-5.333 5.332v53.19c0 2.936 2.399 5.335 5.333 5.335h53.19c2.936 0 5.333-2.399 5.333-5.335v-53.19c0-2.933-2.397-5.332-5.333-5.332h-53.19zm0 1.886h53.19a3.433 3.433 0 0 1 3.447 3.446v53.19a3.432 3.432 0 0 1-3.447 3.448h-53.19a3.435 3.435 0 0 1-3.447-3.448v-53.19a3.435 3.435 0 0 1 3.447-3.446z"/>
    <path fill="#F4F4F4" d="M414.639 193.276c-14.391 0-26.049 11.689-26.049 26.078 0 14.388 11.658 26.078 26.049 26.078 14.388 0 26.077-11.69 26.077-26.078s-11.69-26.078-26.077-26.078zm0 1.886c13.37 0 24.19 10.822 24.19 24.192s-10.82 24.192-24.19 24.192c-13.369 0-24.163-10.822-24.163-24.192s10.792-24.192 24.163-24.192zM462.229 187.41c-2.935 0-5.334 2.399-5.334 5.332v53.19c0 2.936 2.401 5.335 5.334 5.335h53.19c2.934 0 5.335-2.399 5.335-5.335v-53.19c0-2.933-2.401-5.332-5.335-5.332h-53.19zm0 1.886h53.19a3.433 3.433 0 0 1 3.446 3.446v53.19a3.432 3.432 0 0 1-3.446 3.448h-53.19a3.432 3.432 0 0 1-3.446-3.448v-53.19a3.433 3.433 0 0 1 3.446-3.446z"/>
    <path fill="#F4F4F4" d="M488.832 193.276c-14.39 0-26.079 11.689-26.079 26.078 0 14.388 11.689 26.078 26.079 26.078 14.388 0 26.048-11.69 26.048-26.078s-11.66-26.078-26.048-26.078zm0 1.886c13.369 0 24.161 10.822 24.161 24.192s-10.792 24.192-24.161 24.192c-13.37 0-24.193-10.822-24.193-24.192s10.823-24.192 24.193-24.192zM160.592 46.991v6.984H184.608v-6.984h-1.886v5.098h-20.245v-5.098h-1.885z"/>
    <g fill="#F4F4F4">
        <path d="M225.773 229.146h-.004V227.261h28.792a8.26 8.26 0 0 0 8.247-8.248 8.26 8.26 0 0 0-8.247-8.247H225.77a8.26 8.26 0 0 0-8.249 8.247 8.259 8.259 0 0 0 8.249 8.248V229.146c-5.597 0-10.133-4.535-10.133-10.134 0-5.598 4.536-10.133 10.133-10.133h28.792c5.596 0 10.131 4.535 10.131 10.133 0 5.599-4.536 10.134-10.131 10.134h-28.789zM300.273 229.146V227.261h28.792a8.259 8.259 0 0 0 8.246-8.248 8.26 8.26 0 0 0-8.246-8.247h-28.792a8.26 8.26 0 0 0-8.248 8.247 8.26 8.26 0 0 0 8.248 8.248V229.146c-5.595 0-10.133-4.535-10.133-10.134 0-5.598 4.536-10.133 10.133-10.133h28.792c5.594 0 10.131 4.535 10.131 10.133 0 5.599-4.537 10.134-10.131 10.134h-28.792z"/>
    </g>
    <path fill="#F4F4F4" d="M96.352 132.331c-5.361.002-9.722 4.363-9.724 9.724V165.1H63.583c-5.361.001-9.722 4.363-9.724 9.724v33.033c.002 5.361 4.363 9.721 9.724 9.723h23.044v23.046c.002 5.361 4.363 9.722 9.724 9.725h33.004c5.361-.002 9.723-4.363 9.724-9.725V217.58h23.074c5.362-.001 9.722-4.361 9.724-9.723v-33.033c-.002-5.362-4.363-9.722-9.724-9.724H139.08v-23.045c0-5.358-4.366-9.72-9.722-9.722H96.354l-.002-.002zm0 1.886h33.004a7.822 7.822 0 0 1 7.838 7.838v24.929h24.96a7.822 7.822 0 0 1 7.839 7.838v33.034a7.823 7.823 0 0 1-7.839 7.839h-24.96v24.929a7.823 7.823 0 0 1-7.838 7.839H96.352a7.824 7.824 0 0 1-7.839-7.839v-24.929h-24.93a7.823 7.823 0 0 1-7.838-7.839v-33.034a7.822 7.822 0 0 1 7.838-7.838h24.929v-24.929a7.824 7.824 0 0 1 7.84-7.838zm0 3.949c-2.125.003-3.856 1.766-3.861 3.89v25.578c-.009.567-.06 1.137-.471 1.857-.339.615-1.274 1.186-1.769 1.296l-.029.03a4.59 4.59 0 0 1-1.238.147H63.583c-2.124.004-3.886 1.735-3.89 3.86v33.033c.004 2.125 1.766 3.856 3.89 3.86h25.608c.733 0 1.776.313 2.417 1.032.694.772.856 1.678.854 2.445v25.431c.004 2.125 1.766 3.86 3.89 3.861h33.004c2.125-.003 3.885-1.737 3.89-3.861v-25.431c-.009-.884.358-1.879 1.001-2.505.647-.644 1.588-.978 2.447-.973h25.459a3.875 3.875 0 0 0 3.86-3.86v-33.033a3.873 3.873 0 0 0-3.86-3.86h-25.459c-.583-.006-1.149-.067-1.857-.442-.585-.294-1.261-1.154-1.415-1.709v-.029c-.141-.452-.169-.876-.169-1.311V142.07c-.004-2.124-1.766-3.888-3.891-3.889H96.357l-.005-.015zm0 1.886h33.004c1.106 0 2.002.896 2.004 2.004v25.431c.002.541.059 1.151.265 1.827.002.008-.002.021 0 .03a4.666 4.666 0 0 0 2.328 2.828v.03c.006.004.023-.003.03 0 1.043.542 2.038.641 2.711.648h25.459a1.954 1.954 0 0 1 1.974 1.974v33.006c-.001 1.107-.865 2-1.974 2.002h-25.459a5.317 5.317 0 0 0-3.743 1.533h-.03c-1.046 1.029-1.576 2.442-1.562 3.831v25.431c-.002 1.107-.898 1.975-2.004 1.976H96.352c-1.106-.001-2.001-.867-2.004-1.976v-25.431c.003-1.074-.242-2.505-1.326-3.713-1.091-1.227-2.616-1.651-3.831-1.651H63.583c-1.11-.002-2.002-.865-2.004-1.974v-33.034c.002-1.108.897-1.972 2.004-1.974h25.402a6.814 6.814 0 0 0 1.709-.206c.008-.002.021.002.029 0a4.59 4.59 0 0 0 2.947-2.24c.628-1.098.697-2.127.707-2.771v-25.577c.003-1.106.868-2.002 1.975-2.004z"/>
    <path fill="#F4F4F4" d="m81.058 176.707-1.621 1.621-12.317 12.347-.678.649.678.678 12.317 12.347 1.621 1.593v-5.423h8.545v-18.358h-8.545V176.707zm-1.887 4.567v2.771h8.545v14.585h-8.545V201.371L69.123 191.32l10.048-10.043v-.003zM112.858 179.159c-6.709 0-12.17 5.461-12.17 12.17 0 6.708 5.462 12.17 12.17 12.17s12.17-5.462 12.17-12.17c0-6.709-5.462-12.17-12.17-12.17zm0 1.887a10.271 10.271 0 0 1 10.284 10.283c0 5.688-4.594 10.284-10.284 10.284s-10.284-4.596-10.284-10.284a10.272 10.272 0 0 1 10.284-10.283zM103.688 214.578v8.544H98.237l1.622 1.622 12.347 12.347.648.648.678-.648 12.348-12.347 1.59-1.622H122.049v-8.544h-18.361zm1.886 1.885h14.588v8.545h2.769l-10.079 10.078-10.079-10.078h2.799v-.941l.002-7.604zM144.646 176.707V182.161H136.1v18.357h8.547v5.423l1.621-1.593 12.347-12.346.648-.678-.648-.649-12.347-12.347-1.622-1.621zm1.886 4.539 10.079 10.079-10.079 10.077v-2.77h-8.546v-14.586h8.546v-2.8zM112.858 144.91l-.648.678-12.347 12.316-1.621 1.621h5.452v8.545h18.358v-8.545h5.423l-1.591-1.621-12.348-12.316-.678-.678zm0 2.682 10.048 10.049H120.166v8.545h-14.587v-8.545h-2.77l10.049-10.049z"/>
</svg>
