<svg version="1.2" baseProfile="tiny" xmlns="http://www.w3.org/2000/svg" width="598.189" height="350.26" xml:space="preserve">
    <path fill="#F4F4F4" d="M255.844 336.128c-53.157 0-101.513-2.58-137.833-5.549-36.362-2.979-60.511-6.297-65.752-7.904l-.044-.014-.036-.016c-13.149-5.359-22.417-18.273-22.417-33.352V28.129a9.001 9.001 0 0 1 6.209-8.558l.034-.013.03-.006c2.052-.514 12.852-1.834 25.585-3.075 12.699-1.232 27.15-2.347 36.141-2.349h401.082c8.991.002 23.442 1.117 36.143 2.349 12.731 1.24 23.532 2.561 25.647 3.094a9.002 9.002 0 0 1 6.211 8.558v261.167c-.002 15.078-9.267 27.99-22.418 33.352l-.049.02-.032.01c-5.241 1.607-29.391 4.926-65.752 7.904-36.319 2.969-84.674 5.549-137.831 5.549v-2c53.092 0 101.398-2.578 137.669-5.543 36.125-2.942 60.455-6.318 65.279-7.808 12.398-5.075 21.134-17.258 21.132-31.483V28.129c.002-3.109-2.025-5.744-4.766-6.638-1.635-.429-12.656-1.803-25.285-3.024-12.661-1.229-27.105-2.338-35.948-2.338H97.761c-8.842 0-23.287 1.108-35.948 2.338-12.562 1.214-23.533 2.581-25.259 3.017a7 7 0 0 0-4.792 6.645v261.167c-.002 14.226 8.735 26.408 21.132 31.482 4.826 1.488 29.159 4.864 65.279 7.809 36.271 2.965 84.578 5.541 137.671 5.541h84.917v2.002h-84.917v-.002z"/>
    <path fill="#F4F4F4" d="M177.269 274.442c-2.873-.167-4.542-.275-5.156-.402a5.002 5.002 0 0 1-4.062-4.912V30.13c0-2.764 2.237-5 5.001-5h250.5a4.997 4.997 0 0 1 4.998 5l.002 238.998a5.01 5.01 0 0 1-3.76 4.848l-.001-.003.001.003-.001-.003c-.41.108-.767.116-1.558.19-.805.064-1.911.137-3.299.213-2.77.158-6.645.342-11.341.545-9.39.406-22.056.877-35.684 1.328-27.254.9-58.332 1.713-74.692 1.715-29.208-.002-101.102-2.408-120.948-3.522zM170.051 30.13l.002 238.998c-.004 1.465 1.051 2.686 2.465 2.955.207.057 2.072.213 4.861.362 2.822.159 6.714.345 11.391.546 9.356.4 21.862.864 35.302 1.305 26.879.883 57.508 1.668 74.147 1.668 16.052 0 46.419-.787 73.348-1.672 26.882-.877 50.531-1.875 52.655-2.238l.001.005.03-.011.044-.012a3.004 3.004 0 0 0 2.254-2.908V30.13a3.007 3.007 0 0 0-2.999-3.001h-250.5a3.009 3.009 0 0 0-3.001 3.001z"/>
    <path fill="#F4F4F4" d="M189.303 253.128a2 2 0 0 1-2.001-1.998V45.128c0-1.104.894-1.999 2.001-1.999h217.999c1.104 0 1.998.894 1.998 1.999V251.13a1.997 1.997 0 0 1-1.998 1.998H189.303zm0-1.998h217.999V45.128H189.303V251.13zM67.262 66.962c-7.181 0-13.001-5.82-13.001-12.999 0-7.181 5.82-13 13.001-13h23.165c5.87.002 10.83 3.887 12.446 9.23l.005.01a.874.874 0 0 0 .107.148c.1.109.138.114.15.112h19.376c.396-.021.357-.14.438-.236l.001.001.013-.054.024-.061a10.51 10.51 0 0 1 9.772-6.652c5.799.002 10.499 4.702 10.499 10.501 0 5.797-4.699 10.499-10.499 10.499a10.505 10.505 0 0 1-9.792-6.702.958.958 0 0 0-.125-.142c-.118-.106-.215-.156-.333-.156h-19.373c-.083 0-.143.003-.187.008-1.531 5.479-6.558 9.49-12.522 9.493H67.262zm-11-12.999c.01 6.075 4.925 10.988 11 10.998h23.165c5.095.002 9.381-3.464 10.631-8.161l.021-.071.028-.067c.077-.181.251-.572.657-.848.402-.272.863-.351 1.372-.351h19.376c1.599.065 2.173 1.301 2.234 1.37l-.876.479.876-.479.034.063.024.063a8.5 8.5 0 0 0 7.957 5.503 8.51 8.51 0 0 0 8.5-8.498 8.51 8.51 0 0 0-8.5-8.5 8.5 8.5 0 0 0-7.897 5.352 2.379 2.379 0 0 1-.443.801c-.343.428-1.037.86-1.908.846h-19.376c-.8-.002-1.36-.448-1.654-.79-.307-.353-.435-.659-.463-.718l-.022-.053-.016-.057c-1.345-4.554-5.56-7.883-10.554-7.881H67.262a11.013 11.013 0 0 0-11 10.999z"/>
    <path fill="#F4F4F4" d="M67.292 61.681V59.682h23.563a5.725 5.725 0 0 0 5.719-5.719 5.727 5.727 0 0 0-5.719-5.718H67.292a5.728 5.728 0 0 0-5.719 5.718 5.725 5.725 0 0 0 5.719 5.719V61.681a7.719 7.719 0 0 1 0-15.436h23.563a7.718 7.718 0 0 1 7.718 7.718 7.717 7.717 0 0 1-7.718 7.718H67.292z"/>
    <circle fill="#F4F4F4" cx="132.793" cy="53.963" r="6.281"/>
    <path fill="#F4F4F4" d="M57.98 138.129c0-29.134 23.617-52.749 52.75-52.75 29.132.002 52.749 23.617 52.75 52.75-.002 29.134-23.619 52.749-52.75 52.75-29.133-.001-52.75-23.616-52.75-52.75zm16.865-35.884c-9.187 9.187-14.865 21.867-14.865 35.885 0 14.018 5.678 26.7 14.865 35.885 9.187 9.186 21.867 14.863 35.885 14.863 14.016 0 26.699-5.68 35.885-14.863 9.185-9.188 14.863-21.867 14.865-35.885-.002-14.018-5.68-26.699-14.865-35.885-9.188-9.187-21.869-14.865-35.885-14.865-14.018-.001-26.698 5.678-35.885 14.865z"/>
    <path fill="#F4F4F4" d="M106.824 94.504v-6.25h7.875v6.25M67.137 142.067h-6.25v-7.875h6.25M114.699 181.755v6.25h-7.875v-6.25M154.387 134.192h6.25v7.875h-6.25M78.434 108.939l-4.42-4.418 3.094-3.095 4.419 4.42M81.541 170.427l-4.42 4.42-3.094-3.094 4.42-4.42M143.027 167.319l4.42 4.42-3.094 3.094-4.419-4.42M139.92 105.833l4.42-4.419 3.094 3.093-4.42 4.419"/>
    <path fill="#F4F4F4" d="M66.354 138.129c.002-24.509 19.868-44.374 44.376-44.376 24.506.002 44.374 19.867 44.375 44.376-.002 24.506-19.869 44.374-44.375 44.375-24.508-.001-44.373-19.868-44.376-44.375zm14.412-29.963c-7.668 7.673-12.411 18.26-12.411 29.965 0 11.705 4.742 22.292 12.411 29.962 7.673 7.67 18.26 12.41 29.965 12.41 11.705 0 22.292-4.74 29.962-12.41 7.671-7.671 12.411-18.258 12.413-29.962-.002-11.705-4.742-22.292-12.413-29.965-7.671-7.668-18.258-12.411-29.962-12.411-11.705-.001-22.293 4.742-29.965 12.411z"/>
    <path fill="#F4F4F4" d="M78.356 138.128c0-17.88 14.493-32.375 32.375-32.375 17.88 0 32.375 14.495 32.375 32.375 0 17.881-14.495 32.375-32.375 32.375-17.882 0-32.375-14.493-32.375-32.375zm1.999 0c.031 16.776 13.599 30.346 30.375 30.375 16.776-.028 30.344-13.599 30.375-30.375-.031-16.774-13.599-30.344-30.375-30.375-16.775.032-30.344 13.601-30.375 30.375z"/>
    <path fill="#F4F4F4" d="M91.917 138.129c0-10.39 8.422-18.812 18.812-18.812s18.813 8.422 18.813 18.812-8.422 18.811-18.813 18.813c-10.389-.002-18.812-8.421-18.812-18.813zm2.001 0c.016 9.284 7.528 16.795 16.812 16.812 9.286-.017 16.796-7.528 16.814-16.812-.018-9.286-7.528-16.795-16.814-16.814-9.284.019-16.796 7.528-16.812 16.814z"/>
    <g fill="#F4F4F4">
        <circle cx="91.595" cy="233.963" r="2.833"/>
        <circle cx="101.303" cy="233.963" r="2.833"/>
        <circle cx="111.011" cy="233.963" r="2.833"/>
        <circle cx="120.72" cy="233.963" r="2.833"/>
        <circle cx="130.428" cy="233.963" r="2.833"/>
    </g>
    <g fill="#F4F4F4">
        <circle cx="91.595" cy="243.742" r="2.833"/>
        <circle cx="101.303" cy="243.742" r="2.833"/>
        <circle cx="111.011" cy="243.742" r="2.833"/>
        <circle cx="120.72" cy="243.742" r="2.833"/>
        <circle cx="130.428" cy="243.742" r="2.833"/>
    </g>
    <g fill="#F4F4F4">
        <circle cx="91.595" cy="253.52" r="2.833"/>
        <circle cx="101.303" cy="253.52" r="2.833"/>
        <circle cx="111.011" cy="253.52" r="2.833"/>
        <circle cx="120.72" cy="253.52" r="2.833"/>
        <circle cx="130.428" cy="253.52" r="2.833"/>
    </g>
    <g fill="#F4F4F4">
        <circle cx="91.595" cy="263.297" r="2.833"/>
        <circle cx="101.303" cy="263.297" r="2.833"/>
        <circle cx="111.011" cy="263.297" r="2.833"/>
        <circle cx="120.72" cy="263.297" r="2.833"/>
        <circle cx="130.428" cy="263.297" r="2.833"/>
    </g>
    <g fill="#F4F4F4">
        <circle cx="462.262" cy="215.297" r="4.167"/>
        <circle cx="462.262" cy="255.047" r="4.167"/>
        <circle cx="462.262" cy="294.797" r="4.167"/>
    </g>
    <g fill="#F4F4F4">
        <circle cx="497.595" cy="211.465" r="4.167"/>
        <circle cx="497.595" cy="251.215" r="4.167"/>
        <circle cx="497.595" cy="290.965" r="4.167"/>
    </g>
    <g fill="#F4F4F4">
        <circle cx="532.928" cy="207.797" r="4.167"/>
        <circle cx="532.928" cy="247.547" r="4.167"/>
        <circle cx="532.928" cy="287.297" r="4.167"/>
    </g>
    <path fill="#F4F4F4" d="M449.26 156.253c.002-12.426 10.074-22.5 22.502-22.5 12.426 0 22.498 10.074 22.5 22.5-.002 12.425-10.074 22.5-22.5 22.5-12.428 0-22.5-10.072-22.502-22.5zm2.002 0c.021 11.324 9.179 20.48 20.5 20.5 11.321-.02 20.479-9.176 20.498-20.5-.019-11.32-9.177-20.479-20.498-20.5-11.323.022-20.481 9.181-20.5 20.5zM504.135 118.378c.002-12.426 10.074-22.499 22.501-22.499 12.427 0 22.499 10.072 22.501 22.499-.002 12.427-10.074 22.499-22.501 22.501-12.427-.002-22.499-10.073-22.501-22.501zm2 0c.021 11.323 9.18 20.479 20.501 20.5 11.322-.021 20.479-9.178 20.501-20.5-.021-11.32-9.179-20.479-20.501-20.498-11.323.019-20.48 9.179-20.501 20.498zM514.636 52.879c0-8.492 6.886-15.374 15.376-15.376 8.49.002 15.374 6.884 15.374 15.376 0 8.492-6.884 15.374-15.374 15.376-8.492-.002-15.376-6.883-15.376-15.376zm2 0c.013 7.386 5.988 13.362 13.376 13.375 7.387-.013 13.361-5.988 13.374-13.375-.013-7.386-5.987-13.361-13.374-13.374-7.388.014-13.364 5.989-13.376 13.374z"/>
    <path fill="#F4F4F4" d="M519.886 52.88c0-5.593 4.535-10.125 10.125-10.125 5.591 0 10.125 4.532 10.125 10.125 0 5.591-4.534 10.123-10.125 10.123-5.59 0-10.125-4.532-10.125-10.123zm1.999 0a8.14 8.14 0 0 0 8.126 8.125 8.138 8.138 0 0 0 8.125-8.125 8.137 8.137 0 0 0-8.125-8.126 8.138 8.138 0 0 0-8.126 8.126z"/>
</svg>
