<svg xmlns="http://www.w3.org/2000/svg" width="598.189" height="350.26" xml:space="preserve">
    <path fill="#F4F4F4" d="M59.865 151.554v-15.136h27.786v15.136H59.865zm26.786-1.001v-1 1zm-24.786-1H85.65v-11.135H61.865v11.135zM96.865 151.554v-15.136h27.786v15.136H96.865zm26.786-1.001v-1 1zm-24.785-1h23.785v-11.137H98.866v11.137zM133.867 151.554v-15.136h27.784v15.136h-27.784zm26.785-1.001v-1 1zm-24.784-1h23.783v-11.137h-23.783v11.137zM170.868 151.554v-15.136h27.786v15.136h-27.786zm26.786-1.001v-1 1zm-24.785-1h23.784l-.002-11.137h-23.782v11.137zM207.868 151.554v-15.136h27.786v15.136h-27.786zm26.786-1.001v-1 1zm-24.785-1h23.785v-11.137h-23.785v11.137zM244.871 151.554v-15.136h27.784v15.136h-27.784zm26.784-1.001v-1 1zm-24.784-1h23.783v-11.137h-23.783v11.137zM281.872 151.554v-15.136h27.785v15.135h-27.785v.001zm26.785-1.001v-1 1zm-24.786-1h23.785v-11.136h-23.785v11.136zM318.872 151.554v-15.136h27.786v15.136h-27.786zm26.785-1.001v-1.001 1.001zm-24.785-1.001h23.784l-.001-11.135h-23.783v11.135zM355.873 151.553v-15.135h27.786v15.135h-27.786zm26.785-.999v-1.001 1.001zm-24.785-1.001h23.784v-11.135h-23.784v11.135zM392.874 151.553v-15.136h27.784v15.137h-27.784v-.001zm26.784-.999v-1.001 1.001zm-24.785-1.002h23.784v-11.134h-23.784v11.134zM429.876 151.552v-15.136h27.785v15.137h-27.785v-.001zm26.784-.999v-1 1zm-24.783-1h23.783l-.002-11.136h-23.781v11.136zM466.877 151.552v-15.134h27.784v15.134h-27.784zm26.783-1v-1 1zm-24.783-1h23.783v-11.135h-23.783v11.135zM503.877 151.553v-15.135h27.786v15.135h-27.786zm26.786-1v-1 1zm-24.784-1h23.782v-11.135h-23.782v11.135zM42.837 188.041v-15.135h27.787v15.135H42.837zm26.785-1v-1.001 1.001zm-24.784-1.001h23.784v-11.135H44.838v11.135zM79.837 188.041v-15.135h27.787v15.135H79.837zm26.786-1v-1.001 1.001zm-24.784-1.001h23.784v-11.135H81.839v11.135zM116.841 188.041v-15.135h27.784v15.135h-27.784zm26.783-1v-1.001 1.001zm-24.784-1.001h23.784v-11.135H118.84v11.135zM153.841 188.041v-15.135h27.785v15.135h-27.785zm26.784-1v-1.001 1.001zm-24.784-1.001h23.784v-11.135h-23.784v11.135zM190.842 188.041v-15.135h27.785v15.135h-27.785zm26.784-1v-1.001 1.001zm-24.784-1.001h23.786v-11.135h-23.786v11.135zM227.843 188.041v-15.135h27.785v15.135h-27.785zm26.784-1v-1.001 1.001zm-24.784-1.001h23.786v-11.135h-23.786v11.135zM264.844 188.041v-15.135h27.785v15.135h-27.785zm26.786-1v-1.001 1.001zm-24.787-1.001h23.786v-11.135h-23.786v11.135zM301.845 188.04v-15.136h27.782V188.04h-27.782zm26.785-.999v-1.001 1.001zm-24.785-1.001h23.783l-.002-11.136h-23.781v11.136zM338.844 188.04v-15.135h27.787v15.135h-27.787zm26.787-.999v-1.001 1.001zm-24.785-1.001h23.783v-11.135h-23.783v11.135zM375.845 188.04v-15.136h27.787v15.136h-27.787zm26.787-1v-1.001 1.001zm-24.786-1.001h23.785v-11.134h-23.785v11.134zM412.848 188.041v-15.137h27.786v15.137h-27.786zm26.785-1v-1.002 1.002zm-24.785-1.002h23.784v-11.133h-23.784v11.133zM449.848 188.04v-15.135h27.786v15.135h-27.786zm26.787-1v-1 1zm-24.788-1h23.785v-11.135h-23.785v11.135zM486.848 188.041v-15.136h27.787v15.136h-27.787zm26.787-1v-1.002 1.002zm-24.785-1.002h23.783v-11.134H488.85v11.134zM521.878 188.041v-15.135h27.785v15.135h-27.785zm26.785-1v-1.002 1.002zm-24.785-1.002h23.785v-11.133h-23.785v11.133zM53.541 224.527V209.39h27.784V224.527H53.541zm26.785-1.001v-1.001 1.001zm-24.785-1.001h23.784V211.39H55.541v11.135zM90.541 224.527V209.39h27.786V224.527H90.541zm26.785-1.001v-1.001 1.001zm-24.785-1.001h23.784V211.39H92.541v11.135zM127.543 224.527V209.39h27.784V224.527h-27.784zm26.785-1.001v-1.001 1.001zm-24.785-1.001h23.784v-11.133h-23.784v11.133zM164.543 224.527V209.39h27.786V224.527h-27.786zm26.785-1.001v-1.001 1.001zm-24.785-1.001h23.784V211.39h-23.784v11.135zM201.545 224.527V209.39h27.784V224.527h-27.784zm26.785-1.001v-1.001 1.001zm-24.785-1.001h23.784V211.39h-23.784v11.135zM238.545 224.527V209.39h27.786V224.527h-27.786zm26.785-1.001v-1.001 1.001zm-24.785-1.001h23.784v-11.133h-23.784v11.133zM275.547 224.527V209.39h27.784V224.527h-27.784zm26.786-1.001v-1.001 1.001zm-24.786-1.001h23.784l-.002-11.133h-23.782v11.133zM312.547 224.527V209.39h27.787V224.527h-27.787zm26.785-1.001v-1.001 1.001zm-24.785-1.001h23.784v-11.133h-23.784v11.133zM349.55 224.526v-15.135h27.785v15.135H349.55zm26.785-.999v-1.002 1.002zm-24.787-1.002h23.786l-.002-11.135h-23.784v11.135zM386.548 224.527v-15.136h27.785v15.136h-27.785zm26.787-1.001v-1.001 1.001zm-24.785-1.001h23.784l-.002-11.134H388.55v11.134zM423.552 224.527v-15.136h27.785v15.136h-27.785zm26.784-1.001v-1.001 1.001zm-24.784-1.001h23.783v-11.134h-23.783v11.134zM460.551 224.526v-15.135h27.786v15.135h-27.786zm26.785-.999v-1.001 1.001zm-24.784-1.001h23.782v-11.135h-23.782v11.135zM497.552 224.527v-15.136h60.383v15.136h-60.383zm59.381-1.001v-1.001 1.001zm-57.38-1.001h56.379v-11.134h-56.379v11.134zM72.514 261.015v-15.136h27.785v15.136H72.514zm26.786-1v-1.001 1.001zm-24.785-1.001h23.784v-11.135H74.515v11.135zM109.516 261.015v-15.136H137.3v15.136h-27.784zm26.784-1v-1.001 1.001zm-24.783-1.001H135.3v-11.135h-23.783v11.135zM146.516 261.015v-15.136h27.785v15.136h-27.785zm26.785-1v-1.001 1.001zm-24.785-1.001H172.3v-11.135h-23.784v11.135zM183.518 261.015v-15.136h27.784v15.136h-27.784zm26.783-1v-1.001 1.001zm-24.783-1.001h23.783v-11.135h-23.783v11.135zM220.517 261.015v-15.136h27.787v15.136h-27.787zm26.785-1v-1.001 1.001zm-24.784-1.001h23.786l-.002-11.135h-23.784v11.135zM257.519 261.015v-15.136h27.784v15.136h-27.784zm26.785-1v-1.001 1.001zm-24.784-1.001h23.783v-11.135H259.52v11.135zM294.521 261.015v-15.136h27.785v15.136h-27.785zm26.785-1v-1.001 1.001zm-24.785-1.001h23.783v-11.135h-23.783v11.135zM331.52 261.015v-15.136h27.787v15.136H331.52zm26.785-1v-1.001 1.001zm-24.784-1.001h23.783v-11.135h-23.783v11.135zM368.521 261.015v-15.137h27.787v15.137h-27.787zm26.787-1v-1.001 1.001zm-24.786-1.001h23.785l-.002-11.135h-23.783v11.135zM405.523 261.015v-15.137h27.785v15.137h-27.785zm26.784-.999v-1.001 1.001zm-24.783-1.001h23.783V247.88h-23.783v11.135zM442.523 261.015v-15.137h27.787v15.137h-27.787zm26.786-.999v-1.001 1.001zm-24.786-1.001h23.785v-11.137h-23.785v11.137zM479.524 261.016v-15.138h27.787v15.138h-27.787zm26.785-1.001v-1.001 1.001zm-24.784-1.001h23.783v-11.135h-23.783v11.135zM143.543 297.503v-15.137h27.784V297.503h-27.784zm26.785-1.001v-1 1zm-24.786-1h23.786l-.002-11.135h-23.784v11.135zM180.545 297.503v-15.137h27.784V297.503h-27.784zm26.785-1.001v-1 1zm-24.786-1h23.784v-11.135h-23.784v11.135zM217.546 297.503v-15.137H393.47V297.503H217.546zm174.923-1.001v-1 1zm-172.922-1h171.922v-11.135H219.547v11.135zM402.441 297.503v-15.137h27.786V297.503h-27.786zm26.786-1.001v-1 1zm-24.785-1h23.784v-11.137h-23.784v11.137zM439.443 297.503v-15.137h27.786V297.503h-27.786zm26.785-1.001v-1.001 1.001zm-24.786-1.001h23.785v-11.136h-23.785v11.136zM31.513 108.903c-1.247-.017-2.251-.07-3.074-.846-.775-.824-.83-1.826-.845-3.073V14.008a5.38 5.38 0 0 1 5.378-5.38h532.231a5.382 5.382 0 0 1 5.38 5.38v90.976c-.017 1.247-.072 2.25-.847 3.073-.822.775-1.825.829-3.073.846H31.513zm535.15-2.001c1.17.015 1.626-.181 1.658-.259.081-.032.276-.488.259-1.659l.003-90.976a3.386 3.386 0 0 0-3.38-3.379H32.972a3.383 3.383 0 0 0-3.377 3.379v90.976c-.017 1.17.18 1.627.259 1.659.032.079.489.274 1.659.259h535.15z"/>
    <path fill="#F4F4F4" d="m29.215 107.93 1.999-.055 5.515 208.546-2 .054-5.514-208.545zM560.96 316.422l5.513-208.546 2.001.053-5.514 208.546-2-.053z"/>
    <path fill="#F4F4F4" d="M37.513 342.422a5.377 5.377 0 0 1-5.379-5.379v-17.188c0-1.327.265-2.486 1.089-3.316.832-.825 1.991-1.091 3.318-1.091l525.257.002c1.326-.002 2.485.264 3.317 1.089.824.83 1.089 1.989 1.089 3.316v17.188a5.38 5.38 0 0 1-5.379 5.379H37.513zm-2.877-24.47c-.273.266-.501.811-.503 1.902v17.188a3.384 3.384 0 0 0 3.379 3.379h523.312a3.38 3.38 0 0 0 3.377-3.379v-17.188c0-1.092-.227-1.637-.503-1.902-.265-.276-.809-.503-1.901-.503H36.541c-1.093 0-1.637.227-1.905.503zM455.741 46.63a4.892 4.892 0 0 1-4.893-4.891V24.711a4.895 4.895 0 0 1 4.893-4.893l76.381.002a4.894 4.894 0 0 1 4.893 4.891v17.028a4.893 4.893 0 0 1-4.893 4.891h-76.381zm-2.892-21.919v17.028a2.895 2.895 0 0 0 2.892 2.892h76.381a2.896 2.896 0 0 0 2.892-2.892V24.711a2.896 2.896 0 0 0-2.892-2.892h-76.381a2.895 2.895 0 0 0-2.892 2.892z"/>
</svg>
