<svg version="1.2" baseProfile="tiny" xmlns="http://www.w3.org/2000/svg" width="598.189" height="350.26" xml:space="preserve">
    <path fill="#F4F4F4" d="M122.456 80.856c-39.209 0-71.001 31.792-71.001 71.001s31.792 71.031 71.001 71.031c39.208 0 71.031-31.822 71.031-71.031s-31.823-71.001-71.031-71.001zm0 1.891c38.187 0 69.14 30.923 69.14 69.11s-30.953 69.14-69.14 69.14-69.11-30.953-69.11-69.14c-.001-38.187 30.923-69.11 69.11-69.11z"/>
    <path fill="#F4F4F4" d="M122.456 96.279c-30.683 0-55.548 24.896-55.548 55.578s24.866 55.578 55.548 55.578 55.578-24.896 55.578-55.578-24.896-55.578-55.578-55.578zm0 1.891c29.66 0 53.687 24.026 53.687 53.687 0 29.66-24.026 53.687-53.687 53.687-29.661 0-53.657-24.026-53.657-53.687-.001-29.66 23.996-53.687 53.657-53.687z"/>
    <path fill="#F4F4F4" d="M122.456 138.738c-7.234 0-13.119 5.885-13.119 13.119s5.885 13.119 13.119 13.119 13.119-5.884 13.119-13.119-5.885-13.119-13.119-13.119zm0 1.891a11.214 11.214 0 0 1 11.228 11.228 11.214 11.214 0 0 1-11.228 11.228 11.214 11.214 0 0 1-11.228-11.228 11.213 11.213 0 0 1 11.228-11.228zM499.119 93.532c-2.552 0-4.639 2.087-4.639 4.639s2.087 4.639 4.639 4.639c2.553 0 4.64-2.087 4.64-4.639s-2.087-4.639-4.64-4.639zm0 1.891c1.529 0 2.748 1.218 2.748 2.748s-1.219 2.748-2.748 2.748c-1.53 0-2.747-1.218-2.747-2.748s1.217-2.748 2.747-2.748zM513.656 84.579c-2.552 0-4.668 2.087-4.668 4.639s2.116 4.639 4.668 4.639c2.553 0 4.64-2.087 4.64-4.639s-2.087-4.639-4.64-4.639zm0 1.891c1.529 0 2.748 1.218 2.748 2.748s-1.219 2.748-2.748 2.748c-1.53 0-2.777-1.218-2.777-2.748s1.247-2.748 2.777-2.748zM533.275 96.22c-2.552 0-4.639 2.087-4.639 4.639s2.087 4.639 4.639 4.639c2.553 0 4.64-2.087 4.64-4.639s-2.087-4.639-4.64-4.639zm0 1.891a2.733 2.733 0 0 1 2.748 2.748 2.733 2.733 0 0 1-2.748 2.748 2.732 2.732 0 0 1-2.747-2.748 2.732 2.732 0 0 1 2.747-2.748zM549.763 111.969a4.652 4.652 0 0 0-4.639 4.639 4.653 4.653 0 0 0 4.639 4.639 4.651 4.651 0 0 0 4.639-4.639 4.653 4.653 0 0 0-4.639-4.639zm0 1.891a2.733 2.733 0 0 1 2.748 2.748 2.733 2.733 0 0 1-2.748 2.748 2.732 2.732 0 0 1-2.748-2.748 2.731 2.731 0 0 1 2.748-2.748zM562.32 131.027c-2.552 0-4.639 2.117-4.639 4.668s2.087 4.639 4.639 4.639 4.639-2.087 4.639-4.639c0-2.551-2.087-4.668-4.639-4.668zm0 1.89c1.529 0 2.748 1.248 2.748 2.778a2.733 2.733 0 0 1-2.748 2.748 2.732 2.732 0 0 1-2.748-2.748c0-1.53 1.217-2.778 2.748-2.778zM570.239 152.448c-2.553 0-4.64 2.087-4.64 4.639s2.087 4.639 4.64 4.639c2.552 0 4.639-2.087 4.639-4.639s-2.087-4.639-4.639-4.639zm0 1.891a2.733 2.733 0 0 1 2.747 2.748 2.733 2.733 0 0 1-2.747 2.748 2.732 2.732 0 0 1-2.748-2.748 2.732 2.732 0 0 1 2.748-2.748zM573.135 175.081c-2.553 0-4.64 2.088-4.64 4.639s2.087 4.64 4.64 4.64c2.552 0 4.639-2.089 4.639-4.64s-2.087-4.639-4.639-4.639zm0 1.891a2.733 2.733 0 0 1 2.747 2.748 2.733 2.733 0 0 1-2.747 2.748 2.732 2.732 0 0 1-2.748-2.748 2.732 2.732 0 0 1 2.748-2.748zM570.889 197.773a4.652 4.652 0 0 0-4.639 4.639 4.653 4.653 0 0 0 4.639 4.64 4.653 4.653 0 0 0 4.639-4.64 4.653 4.653 0 0 0-4.639-4.639zm0 1.892a2.732 2.732 0 0 1 2.748 2.747 2.734 2.734 0 0 1-2.748 2.748 2.733 2.733 0 0 1-2.748-2.748 2.73 2.73 0 0 1 2.748-2.747zM563.562 219.402a4.65 4.65 0 0 0-4.639 4.639 4.653 4.653 0 0 0 4.639 4.639 4.653 4.653 0 0 0 4.639-4.639 4.653 4.653 0 0 0-4.639-4.639zm0 1.891a2.732 2.732 0 0 1 2.748 2.748 2.734 2.734 0 0 1-2.748 2.748 2.733 2.733 0 0 1-2.748-2.748 2.73 2.73 0 0 1 2.748-2.748zM551.595 238.814a4.652 4.652 0 0 0-4.639 4.639c0 2.55 2.087 4.639 4.639 4.639s4.639-2.089 4.639-4.639a4.653 4.653 0 0 0-4.639-4.639zm0 1.891a2.732 2.732 0 0 1 2.748 2.748 2.734 2.734 0 0 1-2.748 2.748 2.732 2.732 0 0 1-2.748-2.748 2.73 2.73 0 0 1 2.748-2.748zM535.551 255.035a4.652 4.652 0 0 0-4.639 4.64c0 2.55 2.087 4.639 4.639 4.639s4.639-2.089 4.639-4.639a4.653 4.653 0 0 0-4.639-4.64zm0 1.892a2.732 2.732 0 0 1 2.748 2.748 2.733 2.733 0 0 1-2.748 2.747 2.732 2.732 0 0 1-2.748-2.747 2.731 2.731 0 0 1 2.748-2.748zM516.257 267.238a4.651 4.651 0 0 0-4.639 4.639 4.653 4.653 0 0 0 4.639 4.64 4.653 4.653 0 0 0 4.639-4.64 4.652 4.652 0 0 0-4.639-4.639zm0 1.891a2.733 2.733 0 0 1 2.748 2.748 2.734 2.734 0 0 1-2.748 2.748 2.732 2.732 0 0 1-2.748-2.748 2.732 2.732 0 0 1 2.748-2.748zM517.113 101.687a4.652 4.652 0 0 0-4.639 4.639 4.652 4.652 0 0 0 4.639 4.639 4.651 4.651 0 0 0 4.639-4.639 4.651 4.651 0 0 0-4.639-4.639zm0 1.891a2.733 2.733 0 0 1 2.748 2.748 2.733 2.733 0 0 1-2.748 2.748 2.732 2.732 0 0 1-2.748-2.748 2.732 2.732 0 0 1 2.748-2.748zM532.803 113.683a4.652 4.652 0 0 0-4.639 4.639c0 2.552 2.087 4.639 4.639 4.639s4.639-2.087 4.639-4.639a4.653 4.653 0 0 0-4.639-4.639zm0 1.891a2.733 2.733 0 0 1 2.748 2.748 2.733 2.733 0 0 1-2.748 2.748 2.732 2.732 0 0 1-2.748-2.748 2.732 2.732 0 0 1 2.748-2.748zM545.39 128.87a4.652 4.652 0 0 0-4.639 4.639 4.653 4.653 0 0 0 4.639 4.639 4.651 4.651 0 0 0 4.639-4.639 4.653 4.653 0 0 0-4.639-4.639zm0 1.891a2.733 2.733 0 0 1 2.748 2.748 2.733 2.733 0 0 1-2.748 2.748 2.732 2.732 0 0 1-2.748-2.748 2.732 2.732 0 0 1 2.748-2.748zM554.225 146.539c-2.552 0-4.639 2.087-4.639 4.639s2.087 4.639 4.639 4.639 4.639-2.087 4.639-4.639-2.088-4.639-4.639-4.639zm0 1.891a2.734 2.734 0 0 1 2.748 2.748c0 1.53-1.22 2.748-2.748 2.748a2.732 2.732 0 0 1-2.748-2.748 2.73 2.73 0 0 1 2.748-2.748zM558.863 165.715c-2.552 0-4.639 2.087-4.639 4.639s2.087 4.639 4.639 4.639 4.639-2.087 4.639-4.639-2.087-4.639-4.639-4.639zm0 1.89a2.733 2.733 0 0 1 2.748 2.748 2.733 2.733 0 0 1-2.748 2.748 2.732 2.732 0 0 1-2.748-2.748 2.732 2.732 0 0 1 2.748-2.748zM559.1 185.452a4.652 4.652 0 0 0-4.639 4.639c0 2.551 2.087 4.64 4.639 4.64s4.639-2.089 4.639-4.64a4.653 4.653 0 0 0-4.639-4.639zm0 1.892a2.732 2.732 0 0 1 2.748 2.747 2.734 2.734 0 0 1-2.748 2.748 2.732 2.732 0 0 1-2.748-2.748 2.73 2.73 0 0 1 2.748-2.747zM554.845 204.717a4.652 4.652 0 0 0-4.639 4.64c0 2.55 2.087 4.668 4.639 4.668 2.553 0 4.639-2.118 4.639-4.668a4.653 4.653 0 0 0-4.639-4.64zm0 1.891a2.732 2.732 0 0 1 2.748 2.748c0 1.528-1.219 2.777-2.748 2.777-1.531 0-2.748-1.249-2.748-2.777a2.73 2.73 0 0 1 2.748-2.748zM546.395 222.563a4.652 4.652 0 0 0-4.639 4.639c0 2.551 2.087 4.639 4.639 4.639s4.639-2.088 4.639-4.639a4.653 4.653 0 0 0-4.639-4.639zm0 1.891a2.733 2.733 0 0 1 2.748 2.748 2.734 2.734 0 0 1-2.748 2.748 2.732 2.732 0 0 1-2.748-2.748 2.73 2.73 0 0 1 2.748-2.748zM534.133 238.046a4.652 4.652 0 0 0-4.64 4.639 4.654 4.654 0 0 0 4.64 4.64 4.653 4.653 0 0 0 4.639-4.64 4.653 4.653 0 0 0-4.639-4.639zm0 1.891a2.733 2.733 0 0 1 2.747 2.748 2.733 2.733 0 0 1-2.747 2.748 2.732 2.732 0 0 1-2.748-2.748 2.731 2.731 0 0 1 2.748-2.748zM518.709 250.367a4.652 4.652 0 0 0-4.639 4.639c0 2.551 2.087 4.639 4.639 4.639s4.639-2.088 4.639-4.639a4.652 4.652 0 0 0-4.639-4.639zm0 1.891a2.732 2.732 0 0 1 2.748 2.748 2.734 2.734 0 0 1-2.748 2.748 2.732 2.732 0 0 1-2.748-2.748 2.731 2.731 0 0 1 2.748-2.748zM500.922 258.906a4.652 4.652 0 0 0-4.639 4.639c0 2.551 2.087 4.639 4.639 4.639s4.639-2.088 4.639-4.639a4.652 4.652 0 0 0-4.639-4.639zm0 1.891a2.732 2.732 0 0 1 2.748 2.748 2.734 2.734 0 0 1-2.748 2.748 2.732 2.732 0 0 1-2.748-2.748 2.731 2.731 0 0 1 2.748-2.748zM96.897 63.837c-2.552 0-4.639 2.117-4.639 4.668s2.087 4.639 4.639 4.639 4.639-2.087 4.639-4.639-2.087-4.668-4.639-4.668zm0 1.891c1.53 0 2.748 1.248 2.748 2.777s-1.218 2.748-2.748 2.748c-1.53 0-2.748-1.218-2.748-2.748s1.218-2.777 2.748-2.777zM82.36 54.884a4.652 4.652 0 0 0-4.639 4.639c0 2.552 2.087 4.639 4.639 4.639s4.639-2.087 4.639-4.639a4.653 4.653 0 0 0-4.639-4.639zm0 1.891a2.732 2.732 0 0 1 2.748 2.748 2.732 2.732 0 0 1-2.748 2.748 2.732 2.732 0 0 1-2.748-2.748 2.732 2.732 0 0 1 2.748-2.748zM62.741 66.526c-2.552 0-4.639 2.087-4.639 4.639s2.087 4.639 4.639 4.639 4.639-2.087 4.639-4.639-2.087-4.639-4.639-4.639zm0 1.891c1.53 0 2.748 1.218 2.748 2.748s-1.218 2.748-2.748 2.748c-1.53 0-2.748-1.218-2.748-2.748s1.218-2.748 2.748-2.748zM46.254 82.274c-2.552 0-4.639 2.087-4.639 4.639s2.087 4.639 4.639 4.639 4.639-2.087 4.639-4.639-2.087-4.639-4.639-4.639zm0 1.891c1.53 0 2.748 1.218 2.748 2.748s-1.218 2.748-2.748 2.748-2.748-1.218-2.748-2.748 1.218-2.748 2.748-2.748zM33.696 101.361c-2.552 0-4.639 2.087-4.639 4.639s2.087 4.639 4.639 4.639 4.639-2.087 4.639-4.639-2.087-4.639-4.639-4.639zm0 1.891c1.53 0 2.748 1.218 2.748 2.748s-1.218 2.748-2.748 2.748c-1.53 0-2.748-1.218-2.748-2.748s1.219-2.748 2.748-2.748zM25.778 122.753a4.652 4.652 0 0 0-4.639 4.639c0 2.551 2.087 4.639 4.639 4.639s4.639-2.087 4.639-4.639a4.653 4.653 0 0 0-4.639-4.639zm0 1.892a2.732 2.732 0 0 1 2.748 2.748c0 1.53-1.218 2.748-2.748 2.748s-2.748-1.218-2.748-2.748a2.732 2.732 0 0 1 2.748-2.748zM22.882 145.386c-2.552 0-4.639 2.087-4.639 4.639s2.087 4.639 4.639 4.639 4.639-2.087 4.639-4.639-2.087-4.639-4.639-4.639zm0 1.891a2.732 2.732 0 0 1 2.748 2.748c0 1.53-1.218 2.748-2.748 2.748s-2.748-1.218-2.748-2.748a2.733 2.733 0 0 1 2.748-2.748zM25.128 168.079a4.652 4.652 0 0 0-4.639 4.639c0 2.551 2.087 4.639 4.639 4.639s4.639-2.088 4.639-4.639a4.652 4.652 0 0 0-4.639-4.639zm0 1.891a2.732 2.732 0 0 1 2.748 2.748 2.733 2.733 0 0 1-2.748 2.748 2.733 2.733 0 0 1-2.748-2.748 2.732 2.732 0 0 1 2.748-2.748zM32.456 189.707c-2.552 0-4.668 2.087-4.668 4.639 0 2.551 2.117 4.64 4.668 4.64s4.639-2.089 4.639-4.64a4.653 4.653 0 0 0-4.639-4.639zm0 1.892a2.732 2.732 0 0 1 2.748 2.747c0 1.529-1.218 2.748-2.748 2.748s-2.777-1.219-2.777-2.748c-.001-1.531 1.247-2.747 2.777-2.747zM44.422 209.119a4.652 4.652 0 0 0-4.639 4.64c0 2.55 2.087 4.639 4.639 4.639s4.639-2.089 4.639-4.639a4.652 4.652 0 0 0-4.639-4.64zm0 1.892a2.732 2.732 0 0 1 2.748 2.748 2.734 2.734 0 0 1-2.748 2.748 2.734 2.734 0 0 1-2.748-2.748 2.732 2.732 0 0 1 2.748-2.748zM60.466 225.341a4.652 4.652 0 0 0-4.639 4.639c0 2.551 2.087 4.669 4.639 4.669s4.639-2.118 4.639-4.669a4.652 4.652 0 0 0-4.639-4.639zm0 1.89a2.732 2.732 0 0 1 2.748 2.748c0 1.529-1.218 2.777-2.748 2.777-1.53 0-2.748-1.248-2.748-2.777a2.732 2.732 0 0 1 2.748-2.748zM79.76 237.544a4.652 4.652 0 0 0-4.639 4.639 4.653 4.653 0 0 0 4.639 4.639 4.654 4.654 0 0 0 4.639-4.639 4.652 4.652 0 0 0-4.639-4.639zm0 1.891a2.732 2.732 0 0 1 2.748 2.748 2.733 2.733 0 0 1-2.748 2.748 2.733 2.733 0 0 1-2.748-2.748 2.731 2.731 0 0 1 2.748-2.748zM78.903 71.992c-2.552 0-4.639 2.087-4.639 4.639s2.087 4.639 4.639 4.639 4.639-2.087 4.639-4.639-2.087-4.639-4.639-4.639zm0 1.891a2.732 2.732 0 0 1 2.748 2.748 2.732 2.732 0 0 1-2.748 2.748 2.732 2.732 0 0 1-2.748-2.748 2.732 2.732 0 0 1 2.748-2.748zM63.214 83.988c-2.552 0-4.639 2.087-4.639 4.639s2.087 4.639 4.639 4.639 4.639-2.087 4.639-4.639-2.087-4.639-4.639-4.639zm0 1.891a2.732 2.732 0 0 1 2.748 2.748 2.732 2.732 0 0 1-2.748 2.748 2.732 2.732 0 0 1-2.748-2.748 2.732 2.732 0 0 1 2.748-2.748zM50.627 99.175c-2.552 0-4.639 2.087-4.639 4.639s2.087 4.668 4.639 4.668 4.639-2.117 4.639-4.668-2.087-4.639-4.639-4.639zm0 1.891c1.53 0 2.748 1.218 2.748 2.748s-1.218 2.777-2.748 2.777c-1.53 0-2.748-1.248-2.748-2.777s1.218-2.748 2.748-2.748zM41.792 116.844c-2.552 0-4.639 2.087-4.639 4.639s2.087 4.639 4.639 4.639c2.551 0 4.639-2.087 4.639-4.639s-2.087-4.639-4.639-4.639zm0 1.891c1.53 0 2.748 1.218 2.748 2.748s-1.218 2.748-2.748 2.748c-1.53 0-2.748-1.218-2.748-2.748s1.218-2.748 2.748-2.748zM37.153 136.02a4.652 4.652 0 0 0-4.639 4.639c0 2.551 2.087 4.639 4.639 4.639s4.639-2.087 4.639-4.639a4.652 4.652 0 0 0-4.639-4.639zm0 1.891a2.732 2.732 0 0 1 2.748 2.748 2.732 2.732 0 0 1-2.748 2.748 2.732 2.732 0 0 1-2.748-2.748 2.734 2.734 0 0 1 2.748-2.748zM36.917 155.757a4.652 4.652 0 0 0-4.639 4.639c0 2.551 2.087 4.639 4.639 4.639s4.639-2.087 4.639-4.639a4.653 4.653 0 0 0-4.639-4.639zm0 1.891a2.732 2.732 0 0 1 2.748 2.748 2.732 2.732 0 0 1-2.748 2.748 2.732 2.732 0 0 1-2.748-2.748 2.732 2.732 0 0 1 2.748-2.748zM41.172 175.052c-2.551 0-4.639 2.088-4.639 4.639s2.087 4.639 4.639 4.639 4.639-2.088 4.639-4.639-2.088-4.639-4.639-4.639zm0 1.89c1.529 0 2.748 1.219 2.748 2.748s-1.219 2.748-2.748 2.748c-1.529 0-2.748-1.219-2.748-2.748s1.219-2.748 2.748-2.748zM49.622 192.869a4.653 4.653 0 0 0-4.639 4.639 4.653 4.653 0 0 0 4.639 4.639 4.653 4.653 0 0 0 4.639-4.639 4.652 4.652 0 0 0-4.639-4.639zm0 1.891a2.732 2.732 0 0 1 2.748 2.748 2.733 2.733 0 0 1-2.748 2.748 2.733 2.733 0 0 1-2.748-2.748 2.732 2.732 0 0 1 2.748-2.748zM61.884 208.352a4.652 4.652 0 0 0-4.639 4.639c0 2.55 2.087 4.639 4.639 4.639s4.639-2.089 4.639-4.639a4.651 4.651 0 0 0-4.639-4.639zm0 1.89a2.732 2.732 0 0 1 2.748 2.748c0 1.529-1.218 2.748-2.748 2.748s-2.748-1.219-2.748-2.748a2.732 2.732 0 0 1 2.748-2.748zM77.308 220.673a4.651 4.651 0 0 0-4.639 4.639c0 2.55 2.087 4.639 4.639 4.639s4.639-2.089 4.639-4.639a4.652 4.652 0 0 0-4.639-4.639zm0 1.89a2.732 2.732 0 0 1 2.748 2.748 2.733 2.733 0 0 1-2.748 2.748 2.733 2.733 0 0 1-2.748-2.748 2.732 2.732 0 0 1 2.748-2.748zM95.095 229.212a4.652 4.652 0 0 0-4.639 4.639 4.653 4.653 0 0 0 4.639 4.639 4.653 4.653 0 0 0 4.639-4.639 4.652 4.652 0 0 0-4.639-4.639zm0 1.891a2.732 2.732 0 0 1 2.748 2.748 2.733 2.733 0 0 1-2.748 2.748 2.733 2.733 0 0 1-2.748-2.748 2.731 2.731 0 0 1 2.748-2.748z"/>
    <g fill="#F4F4F4">
        <path d="M458.049 105.055c-16.909 0-30.64 13.731-30.64 30.641 0 16.909 13.73 30.64 30.64 30.64 16.908 0 30.611-13.731 30.611-30.64 0-16.91-13.703-30.641-30.611-30.641zm0 1.891c15.888 0 28.72 12.862 28.72 28.75 0 15.887-12.832 28.749-28.72 28.749-15.887 0-28.749-12.862-28.749-28.749 0-15.888 12.862-28.75 28.749-28.75z"/>
        <path d="M458.049 113.978c-11.99 0-21.746 9.728-21.746 21.717 0 11.989 9.756 21.717 21.746 21.717 11.989 0 21.718-9.728 21.718-21.717 0-11.989-9.729-21.717-21.718-21.717zm0 1.891c10.968 0 19.826 8.858 19.826 19.826 0 10.967-8.858 19.826-19.826 19.826-10.967 0-19.855-8.858-19.855-19.826-.001-10.967 8.888-19.826 19.855-19.826z"/>
    </g>
    <g fill="#F4F4F4">
        <path d="M458.049 196.119c-16.909 0-30.64 13.729-30.64 30.64 0 16.908 13.73 30.641 30.64 30.641 16.908 0 30.611-13.732 30.611-30.641 0-16.91-13.703-30.64-30.611-30.64zm0 1.891c15.888 0 28.72 12.862 28.72 28.749 0 15.888-12.832 28.749-28.72 28.749-15.887 0-28.749-12.861-28.749-28.749 0-15.887 12.862-28.749 28.749-28.749z"/>
        <path d="M458.049 205.013c-11.99 0-21.746 9.756-21.746 21.746 0 11.989 9.756 21.717 21.746 21.717 11.989 0 21.718-9.728 21.718-21.717 0-11.99-9.729-21.746-21.718-21.746zm0 1.89c10.968 0 19.826 8.889 19.826 19.855 0 10.968-8.858 19.826-19.826 19.826-10.967 0-19.855-8.858-19.855-19.826-.001-10.966 8.888-19.855 19.855-19.855z"/>
    </g>
    <g fill="#F4F4F4">
        <path d="M403.003 149.789c-16.91 0-30.64 13.731-30.64 30.64s13.729 30.641 30.64 30.641c16.908 0 30.641-13.731 30.641-30.641 0-16.909-13.733-30.64-30.641-30.64zm0 1.891c15.888 0 28.75 12.862 28.75 28.749 0 15.888-12.862 28.75-28.75 28.75-15.887 0-28.749-12.862-28.749-28.75 0-15.887 12.862-28.749 28.749-28.749z"/>
        <path d="M403.003 158.712c-11.99 0-21.717 9.728-21.717 21.717s9.727 21.718 21.717 21.718c11.989 0 21.747-9.729 21.747-21.718s-9.758-21.717-21.747-21.717zm0 1.891c10.968 0 19.855 8.858 19.855 19.826 0 10.969-8.888 19.827-19.855 19.827s-19.825-8.858-19.825-19.827c0-10.968 8.858-19.826 19.825-19.826z"/>
    </g>
    <g fill="#F4F4F4">
        <path d="M512.268 149.789c-16.91 0-30.64 13.731-30.64 30.64s13.729 30.641 30.64 30.641c16.908 0 30.641-13.731 30.641-30.641-.001-16.909-13.733-30.64-30.641-30.64zm0 1.891c15.888 0 28.749 12.862 28.749 28.749 0 15.888-12.861 28.75-28.749 28.75-15.887 0-28.749-12.862-28.749-28.75 0-15.887 12.862-28.749 28.749-28.749z"/>
        <path d="M512.268 158.712c-11.99 0-21.717 9.728-21.717 21.717s9.727 21.718 21.717 21.718c11.989 0 21.747-9.729 21.747-21.718s-9.758-21.717-21.747-21.717zm0 1.891c10.968 0 19.855 8.858 19.855 19.826 0 10.969-8.888 19.827-19.855 19.827s-19.826-8.858-19.826-19.827c-.001-10.968 8.859-19.826 19.826-19.826z"/>
    </g>
    <path fill="#F4F4F4" d="M138.706 99.648c-3.81 4.599-7.014 12.519-8.391 20.358-1.377 7.838-1.012 15.661 3.162 19.855 4.509 4.533 12.249 5.746 20.18 4.846 7.932-.901 16.114-3.958 21.628-8.451l-1.182-1.448c-5.123 4.174-13.056 7.145-20.653 8.007s-14.798-.419-18.644-4.284c-3.344-3.361-3.958-10.647-2.63-18.201 1.328-7.554 4.527-15.306 7.978-19.471l-1.448-1.211zM97.399 159.096a41.507 41.507 0 0 0-5.88.266c-7.931.901-16.084 3.958-21.599 8.45l1.182 1.448c5.123-4.174 13.056-7.144 20.653-8.007 7.597-.863 14.798.419 18.644 4.285 3.344 3.362 3.957 10.647 2.629 18.202-1.328 7.553-4.527 15.305-7.978 19.471l1.448 1.212c3.81-4.599 7.014-12.521 8.392-20.358 1.377-7.838 1.012-15.661-3.162-19.855-3.38-3.401-8.589-4.941-14.329-5.114zM148.516 159.066c-5.702-.282-10.889.712-14.035 3.841-4.532 4.51-5.717 12.25-4.816 20.181.9 7.932 3.928 16.114 8.421 21.628l1.477-1.182c-4.174-5.123-7.174-13.056-8.037-20.653s.419-14.799 4.284-18.645c3.361-3.343 10.647-3.958 18.201-2.629 7.554 1.328 15.335 4.526 19.501 7.978l1.182-1.448c-4.599-3.811-12.519-7.014-20.358-8.392-1.959-.343-3.919-.584-5.82-.679zM106.825 99.618l-1.448 1.211c4.174 5.123 7.144 13.027 8.007 20.624.863 7.597-.419 14.798-4.284 18.644-3.361 3.344-10.647 3.987-18.201 2.659-7.554-1.328-15.307-4.527-19.472-7.978l-1.211 1.448c4.598 3.81 12.519 7.014 20.358 8.391 7.839 1.378 15.66 1.012 19.855-3.162 4.532-4.509 5.747-12.278 4.846-20.21-.9-7.93-3.958-16.113-8.45-21.627zM383.089 69.924l-.266.207-.178.118-.089.089-.059.088-146.493 192.676-.029.03-.029.059-.237.384-.827 1.419h159.583c2.829 0 5.969 2.984 5.969 2.984l.029.029.03.029c19.593 16.626 44.979 26.651 72.685 26.651 62.061 0 112.396-50.31 112.396-112.367 0-62.059-50.338-112.396-112.396-112.396h-90.089zm.738 1.89h89.35c61.037 0 110.506 49.469 110.506 110.506s-49.469 110.477-110.506 110.477c-27.22 0-52.128-9.834-71.385-26.149 0 0-.058-.06-.06-.06-.096-.103-3.3-3.486-7.269-3.486H238.368L383.827 71.814z"/>
    <path fill="#F4F4F4" d="M123.224 40.229c-62.06 0-112.396 50.338-112.396 112.396s50.337 112.368 112.396 112.368h106.605l.266-.296.384-.384.029-.029.03-.06L377.002 71.578l.562-.738-.709-.591-.178-.118-.266-.207H203c-1.719 0-3.858-.964-5.496-1.98-1.637-1.016-2.777-2.039-2.777-2.039h-.029c-19.427-16.032-44.324-25.676-71.474-25.676zm0 1.891c26.704 0 51.161 9.47 70.263 25.233v-.03h.029c.016.014 1.214 1.118 2.984 2.216 1.781 1.105 4.127 2.275 6.5 2.275h171.432L229.09 263.013l-.059.089H123.224c-61.038 0-110.505-49.439-110.505-110.476S62.186 42.12 123.224 42.12z"/>
    <path fill="#F4F4F4" d="M375.643 70.958v1.891h7.032v-1.891h-7.032zM230.213 262.127v1.891h6.766v-1.891h-6.766zM122.456 142.934c-4.92 0-8.923 4.002-8.923 8.923 0 4.92 4.003 8.923 8.923 8.923s8.953-4.002 8.953-8.923c-.001-4.92-4.033-8.923-8.953-8.923zm0 1.891c3.898 0 7.062 3.134 7.062 7.032s-3.164 7.032-7.062 7.032a7.014 7.014 0 0 1-7.032-7.032 7.012 7.012 0 0 1 7.032-7.032z"/>
</svg>
