<svg height="355.227" viewBox="0 0 2855.648 1314.339" width="771.797" xmlns="http://www.w3.org/2000/svg">
    <g fill="#f4f4f4" fill-opacity=".5" stroke-width="3.7">
        <path d="M879.543 835.154q0 .888-.215 1.495-.318.902-1.02.902-.467 0-.978-.214-.614-.26-.673-.637.207 0 .488.074.652.17.814.17.63 0 .948-.628.251-.504.251-1.207 0-.495-.325-1.413-.319-.925-.319-1.288 0-.11.06-.177.066-.074.177-.074.289 0 .563 1.332.229 1.125.229 1.665zM882.392 835.909q0 .754-.437 1.184-.436.429-1.206.429-.422 0-.651-.2-.23-.2-.23-.614 0-.585.763-1.177.725-.562 1.34-.562.28 0 .37.348.051.2.051.592zm-.451.207q0-.09-.023-.17-.014-.09-.059-.2-.118.08-.392.4-.14.162-.244.236 0-.14.03-.23.059-.125.096-.214-.326 0-.681.274-.348.274-.348.592 0 .215.237.215.451 0 .873-.222.51-.267.51-.681zM885.44 836.212q0 .363-.273.814-.31.51-.644.51-.096 0-.163-.103-.059-.111-.059-.215 0-.133.281-.414.289-.289.289-.392 0-.067-.022-.133l-.03-.09q-.555.126-1.132.637-.57.51-.866.577-.059-.163-.059-.333 0-.207.096-.436.067-.163.222-.393.26-.392.548-.888l.51-.895q.37-.636.54-.903.09-.133.156-.2.096-.089.23-.118.088.03.125.111.045.081.045.192 0 .252-.326.681-.592.77-.607.8-.333.503-.333.91l.015.074q.407-.2.481-.23.303-.126.518-.126.237 0 .348.163.11.156.11.4zM888.874 835.775q0 .504-.244 1.073-.266.63-.658.866-.082-.096-.141-.214-.052-.119-.052-.237 0-.126.37-.748.163-.273.148-.48l-.007-.097q-.274.081-.947.496-.666.407-1.347.829-.103 0-.192-.074-.082-.081-.082-.178 0-.155.496-1.043.148-.266.533-.925.118.155.155.348.037.185.037.444v.17q.681-.407 1.066-.614.422-.23.577-.23.104 0 .193.237.096.237.096.378zM895.305 837.211q0 .133-.118.207-.111.067-.252.067-.126 0-.318-.03-.437-.067-.563-.067-.222 0-.873.052-.37.03-.533.03-.451 0-.451-.451 0-.43.281-1.229.156-.451.585-1.48.385-.925.488-1.302.037-.118.06-.155.059-.09.147-.09.141 0 .237.208.096.2.096.362 0 .26-.303.874-.303.606-.592 1.191-.318.696-.318 1.058 0 .185.155.26.111.051.326.051.163 0 .562-.037.4-.044.533-.044.333 0 .548.096.303.133.303.43zM898.058 835.909q0 .754-.437 1.184-.436.429-1.206.429-.422 0-.651-.2-.23-.2-.23-.614 0-.585.763-1.177.725-.562 1.339-.562.281 0 .37.348.052.2.052.592zm-.452.207q0-.09-.022-.17-.015-.09-.059-.2-.118.08-.392.4-.14.162-.244.236 0-.14.03-.23.058-.125.095-.214-.325 0-.68.274-.348.274-.348.592 0 .215.237.215.451 0 .873-.222.51-.267.51-.681zM901.173 835.753q0 .237-.126.503-.118.267-.303.444l-.007-.103q0-.09.022-.274.022-.185.022-.274 0-.126-.037-.185-.037-.067-.155-.067-.348 0-.866.54l-1.117 1.177q-.045 0-.089-.01-.111-.03-.148-.037.022-.266.185-.592.437-.88.451-.94.06-.237.09-.348.029-.11.08-.229.06-.126.134-.222.081-.104.207-.155l.074.888.488-.4q.326-.259.563-.259.237 0 .385.155.148.156.148.385zM904.807 834.895q0 .31-.83.821-.798.489-1.161.489-.17 0-.23-.119-.051-.118-.051-.333v-.2q.496 0 .903-.148.407-.148.71-.488-.222-.081-.451-.081-.54 0-1.147.414-.666.452-.666.962 0 .489.666.681.103.03 1.25.207.674.104.674.363 0 .111-.245.178-.244.074-.621.074-.947 0-1.495-.289-.725-.385-.725-1.236 0-.888.888-1.413.755-.444 1.717-.444.288 0 .525.133.289.163.289.43zM907.752 833.57q0 .163-.392.681-.393.518-.393.792 0 .14.163.281.37.326.37.4 0 .096-.066.185-.06.089-.156.089-.081 0-.23-.09-.103-.058-.399-.288-.11.215-.17.326-.207.392-.281.57l-.222.68q-.193.459-.481.459l-.007-.17q0-.526.34-1.243.067-.134.37-.689-.584-.318-1.287-.318 0-.274.11-.4.119-.133.393-.133.251 0 .629.09l.37.088q.14-.044.385-.48.599-1.051.814-1.207.059.096.096.193.044.096.044.185zM910.482 836.212q0 .363-.273.814-.311.51-.644.51-.096 0-.163-.103-.06-.111-.06-.215 0-.133.282-.414.289-.289.289-.392 0-.067-.023-.133l-.03-.09q-.554.126-1.131.637-.57.51-.866.577-.06-.163-.06-.333 0-.207.097-.436.066-.163.222-.393.259-.392.547-.888l.511-.895q.37-.636.54-.903.089-.133.156-.2.096-.089.229-.118.089.03.126.111.044.081.044.192 0 .252-.325.681-.592.77-.607.8-.333.503-.333.91l.015.074q.407-.2.48-.23.304-.126.519-.126.236 0 .347.163.111.156.111.4zM916.558 833.8q0 .347-.37.932-.237.37-.777 1.066-.54.688-.674.902.023.01.555.178.54.163.54.592-.221.037-.436.067l-.081-.01v-.059q-.119-.03-.193-.03-.14 0-.444.044-.303.044-.459.044-.2 0-.325-.074-.126-.074-.126-.266 0-.156.57-.881 1.065-1.354 1.073-1.369.577-.784.577-1.05 0-.104-.074-.156-.067-.052-.274-.052-.14 0-.584.274-.215.133-.348.133l-.126-.022q-.044-.03-.096-.111-.052-.09-.052-.14 0-.312.6-.57.51-.223.887-.223.319 0 .489.237.148.207.148.54zM921.005 835.132q0 .895-.97 1.583-.887.63-1.827.63-.466 0-.74-.238-.274-.236-.274-.688 0-1.006.88-1.746.837-.703 1.873-.703.525 0 .792.31.266.311.266.852zm-.451.17q0-.34-.385-.51-.289-.127-.688-.127-.585 0-1.221.57-.637.57-.637 1.147 0 .237.119.34.126.097.377.097.725 0 1.51-.4.925-.474.925-1.117zM924.394 833.8q0 .347-.37.932-.236.37-.777 1.066-.54.688-.673.902.022.01.555.178.54.163.54.592-.222.037-.436.067l-.082-.01v-.059q-.118-.03-.192-.03-.14 0-.444.044t-.459.044q-.2 0-.326-.074-.125-.074-.125-.266 0-.156.57-.881 1.065-1.354 1.072-1.369.578-.784.578-1.05 0-.104-.074-.156-.067-.052-.274-.052-.14 0-.585.274-.214.133-.348.133l-.125-.022q-.045-.03-.097-.111-.051-.09-.051-.14 0-.312.599-.57.51-.223.888-.223.318 0 .488.237.148.207.148.54zM927.798 833.8q0 .347-.37.932-.236.37-.777 1.066-.54.688-.673.902.022.01.555.178.54.163.54.592-.222.037-.436.067l-.082-.01v-.059q-.118-.03-.192-.03-.14 0-.444.044t-.459.044q-.2 0-.326-.074-.125-.074-.125-.266 0-.156.57-.881 1.065-1.354 1.072-1.369.578-.784.578-1.05 0-.104-.074-.156-.067-.052-.274-.052-.14 0-.585.274-.214.133-.348.133l-.125-.022q-.045-.03-.097-.111-.051-.09-.051-.14 0-.312.599-.57.51-.223.888-.223.318 0 .488.237.148.207.148.54z"/>
    </g>
    <g fill="none" stroke="#f4f4f4" transform="translate(-59.878 -771.041)">
        <g stroke-width="7.4">
            <path d="M1487.783 2081.6c470.117-.066 939.168-19.44 1407.18-57.68 9.238-.756 17.55-7.499 16.73-16.731l-108-1215.638c-.82-9.232-7.462-16.73-16.73-16.73H1487.876m-.254 1306.78c-470.117-.067-939.169-19.441-1407.18-57.682-9.238-.755-17.55-7.498-16.73-16.73l108-1215.638c.82-9.232 7.461-16.73 16.73-16.73h1299.087" opacity=".98"/>
            <rect height="974.079" opacity=".98" rx="14.374" width="872.637" x="244.241" y="901.659"/>
            <rect height="445.563" opacity=".98" rx="14.374" ry="14.374" width="723.67" x="323.854" y="948.444"/>
        </g>
        <rect height="202.299" opacity=".98" rx="14.374" stroke-width="3.7" width="480.404" x="445.486" y="1070.076"/>
        <rect height="96.706" opacity=".98" rx="14.374" ry="14.374" stroke-width="3.7" width="723.67" x="323.854" y="1429.555"/>
        <rect height="227.145" opacity=".98" rx="9.689" stroke-width="7.4" width="122.857" x="907.274" y="1612.947"/>
        <g fill="#f4f4f4" stroke="none">
            <circle cx="1001.997" cy="1743.58" opacity=".98" r="7.5"/>
            <circle cx="979.997" cy="1743.58" opacity=".98" r="7.5"/>
            <circle cx="957.997" cy="1743.58" opacity=".98" r="7.5"/>
            <circle cx="935.997" cy="1743.58" opacity=".98" r="7.5"/>
            <circle cx="1001.997" cy="1765.58" opacity=".98" r="7.5"/>
            <circle cx="979.997" cy="1765.58" opacity=".98" r="7.5"/>
            <circle cx="957.997" cy="1765.58" opacity=".98" r="7.5"/>
            <circle cx="935.997" cy="1765.58" opacity=".98" r="7.5"/>
            <circle cx="1001.924" cy="1787.528" opacity=".98" r="7.5"/>
            <circle cx="979.924" cy="1787.528" opacity=".98" r="7.5"/>
            <circle cx="957.924" cy="1787.528" opacity=".98" r="7.5"/>
            <circle cx="935.924" cy="1787.528" opacity=".98" r="7.5"/>
            <circle cx="1001.924" cy="1809.528" opacity=".98" r="7.5"/>
            <circle cx="979.924" cy="1809.528" opacity=".98" r="7.5"/>
            <circle cx="957.924" cy="1809.528" opacity=".98" r="7.5"/>
            <circle cx="935.924" cy="1809.528" opacity=".98" r="7.5"/>
        </g>
        <rect height="227.145" opacity=".98" rx="9.689" stroke-width="7.4" width="122.857" x="765.274" y="1612.947"/>
        <g fill="#f4f4f4" stroke="none">
            <circle cx="859.997" cy="1743.58" opacity=".98" r="7.5"/>
            <circle cx="837.997" cy="1743.58" opacity=".98" r="7.5"/>
            <circle cx="815.997" cy="1743.58" opacity=".98" r="7.5"/>
            <circle cx="793.997" cy="1743.58" opacity=".98" r="7.5"/>
            <circle cx="859.997" cy="1765.58" opacity=".98" r="7.5"/>
            <circle cx="837.997" cy="1765.58" opacity=".98" r="7.5"/>
            <circle cx="815.997" cy="1765.58" opacity=".98" r="7.5"/>
            <circle cx="793.997" cy="1765.58" opacity=".98" r="7.5"/>
            <circle cx="859.924" cy="1787.528" opacity=".98" r="7.5"/>
            <circle cx="837.924" cy="1787.528" opacity=".98" r="7.5"/>
            <circle cx="815.924" cy="1787.528" opacity=".98" r="7.5"/>
            <circle cx="793.924" cy="1787.528" opacity=".98" r="7.5"/>
            <circle cx="859.924" cy="1809.528" opacity=".98" r="7.5"/>
            <circle cx="837.924" cy="1809.528" opacity=".98" r="7.5"/>
            <circle cx="815.924" cy="1809.528" opacity=".98" r="7.5"/>
            <circle cx="793.924" cy="1809.528" opacity=".98" r="7.5"/>
        </g>
        <rect height="227.145" opacity=".98" rx="9.689" stroke-width="7.4" width="122.857" x="625.274" y="1612.947"/>
        <g fill="#f4f4f4" stroke="none">
            <circle cx="719.997" cy="1743.58" opacity=".98" r="7.5"/>
            <circle cx="697.997" cy="1743.58" opacity=".98" r="7.5"/>
            <circle cx="675.997" cy="1743.58" opacity=".98" r="7.5"/>
            <circle cx="653.997" cy="1743.58" opacity=".98" r="7.5"/>
            <circle cx="719.997" cy="1765.58" opacity=".98" r="7.5"/>
            <circle cx="697.997" cy="1765.58" opacity=".98" r="7.5"/>
            <circle cx="675.997" cy="1765.58" opacity=".98" r="7.5"/>
            <circle cx="653.997" cy="1765.58" opacity=".98" r="7.5"/>
            <circle cx="719.924" cy="1787.528" opacity=".98" r="7.5"/>
            <circle cx="697.924" cy="1787.528" opacity=".98" r="7.5"/>
            <circle cx="675.924" cy="1787.528" opacity=".98" r="7.5"/>
            <circle cx="653.924" cy="1787.528" opacity=".98" r="7.5"/>
            <circle cx="719.924" cy="1809.528" opacity=".98" r="7.5"/>
            <circle cx="697.924" cy="1809.528" opacity=".98" r="7.5"/>
            <circle cx="675.924" cy="1809.528" opacity=".98" r="7.5"/>
            <circle cx="653.924" cy="1809.528" opacity=".98" r="7.5"/>
        </g>
        <rect height="227.145" opacity=".98" rx="9.689" stroke-width="7.4" width="122.857" x="483.274" y="1612.947"/>
        <g fill="#f4f4f4" stroke="none">
            <circle cx="577.997" cy="1743.58" opacity=".98" r="7.5"/>
            <circle cx="555.997" cy="1743.58" opacity=".98" r="7.5"/>
            <circle cx="533.997" cy="1743.58" opacity=".98" r="7.5"/>
            <circle cx="511.997" cy="1743.58" opacity=".98" r="7.5"/>
            <circle cx="577.997" cy="1765.58" opacity=".98" r="7.5"/>
            <circle cx="555.997" cy="1765.58" opacity=".98" r="7.5"/>
            <circle cx="533.997" cy="1765.58" opacity=".98" r="7.5"/>
            <circle cx="511.997" cy="1765.58" opacity=".98" r="7.5"/>
            <circle cx="577.924" cy="1787.528" opacity=".98" r="7.5"/>
            <circle cx="555.924" cy="1787.528" opacity=".98" r="7.5"/>
            <circle cx="533.924" cy="1787.528" opacity=".98" r="7.5"/>
            <circle cx="511.924" cy="1787.528" opacity=".98" r="7.5"/>
            <circle cx="577.924" cy="1809.528" opacity=".98" r="7.5"/>
            <circle cx="555.924" cy="1809.528" opacity=".98" r="7.5"/>
            <circle cx="533.924" cy="1809.528" opacity=".98" r="7.5"/>
            <circle cx="511.924" cy="1809.528" opacity=".98" r="7.5"/>
        </g>
        <rect height="227.145" opacity=".98" rx="9.689" stroke-width="7.4" width="122.857" x="343.274" y="1612.947"/>
        <g fill="#f4f4f4" stroke="none">
            <circle cx="437.997" cy="1743.58" opacity=".98" r="7.5"/>
            <circle cx="415.997" cy="1743.58" opacity=".98" r="7.5"/>
            <circle cx="393.997" cy="1743.58" opacity=".98" r="7.5"/>
            <circle cx="371.997" cy="1743.58" opacity=".98" r="7.5"/>
            <circle cx="437.997" cy="1765.58" opacity=".98" r="7.5"/>
            <circle cx="415.997" cy="1765.58" opacity=".98" r="7.5"/>
            <circle cx="393.997" cy="1765.58" opacity=".98" r="7.5"/>
            <circle cx="371.997" cy="1765.58" opacity=".98" r="7.5"/>
            <circle cx="437.924" cy="1787.528" opacity=".98" r="7.5"/>
            <circle cx="415.924" cy="1787.528" opacity=".98" r="7.5"/>
            <circle cx="393.924" cy="1787.528" opacity=".98" r="7.5"/>
            <circle cx="371.924" cy="1787.528" opacity=".98" r="7.5"/>
            <circle cx="437.924" cy="1809.528" opacity=".98" r="7.5"/>
            <circle cx="415.924" cy="1809.528" opacity=".98" r="7.5"/>
            <circle cx="393.924" cy="1809.528" opacity=".98" r="7.5"/>
            <circle cx="371.924" cy="1809.528" opacity=".98" r="7.5"/>
        </g>
        <path d="M323.854 1876.23v-287.319c0-7.963 6.41-14.374 14.374-14.374h694.922c7.963 0 14.374 6.41 14.374 14.374v286.23" opacity=".98" stroke-width="3.7"/>
        <g stroke-width=".952">
            <path d="M1829.412 1557.56h-370.7m0-87.232h370.7m0-87.233h-370.7m0-87.233h370.7m-278.025 348.932v-436.165m92.675 0v436.165m92.675 0v-436.165m92.675 436.165v-436.165h-370.7v436.165z" opacity=".98" stroke-width="3.523" transform="matrix(1.05013 0 0 1.05043 844.23 -69.953)"/>
            <g stroke-linecap="round" stroke-linejoin="round" stroke-width="7.046" transform="matrix(1.05013 0 0 1.05043 844.23 -69.953)">
                <rect height="58.622" rx="23.126" ry="23.12" width="62.293" x="1565.854" y="1571.892"/>
                <rect height="58.622" rx="23.126" ry="23.12" width="62.293" x="1473.125" y="1571.892"/>
                <rect height="58.622" rx="23.126" ry="23.12" width="62.293" x="1565.854" y="1484.659"/>
                <rect height="58.622" rx="23.126" ry="23.12" width="62.293" x="1473.125" y="1484.659"/>
                <rect height="58.622" rx="23.126" ry="23.12" width="62.293" x="1751.259" y="1484.659"/>
                <rect height="58.622" rx="23.126" ry="23.12" width="62.293" x="1658.529" y="1484.659"/>
                <rect height="58.622" rx="23.126" ry="23.12" width="62.293" x="1565.909" y="1397.426"/>
                <rect height="58.622" rx="23.126" ry="23.12" width="62.293" x="1473.179" y="1397.426"/>
                <rect height="58.622" rx="23.126" ry="23.12" width="62.293" x="1751.313" y="1397.426"/>
                <rect height="58.622" rx="23.126" ry="23.12" width="62.293" x="1658.584" y="1397.426"/>
                <rect height="58.622" rx="23.126" ry="23.12" width="62.293" x="1565.909" y="1310.193"/>
                <rect height="58.622" rx="23.126" ry="23.12" width="62.293" x="1473.179" y="1310.193"/>
                <rect height="58.622" rx="23.126" ry="23.12" width="62.293" x="1751.313" y="1310.193"/>
                <rect height="58.622" rx="23.126" ry="23.12" width="62.293" x="1658.584" y="1310.193"/>
                <rect height="58.622" rx="23.126" ry="23.12" width="62.293" x="1565.909" y="1222.96"/>
                <rect height="58.622" rx="23.126" ry="23.12" width="62.293" x="1473.179" y="1222.96"/>
                <rect height="58.622" rx="23.126" ry="23.12" width="62.293" x="1751.313" y="1222.96"/>
                <rect height="58.622" rx="23.126" ry="23.12" width="62.293" x="1658.584" y="1222.96"/>
                <rect height="58.622" rx="23.126" ry="23.12" width="62.293" x="1751.259" y="1571.891"/>
                <rect height="58.622" rx="23.126" ry="23.12" width="62.293" x="1658.529" y="1571.892"/>
            </g>
            <path d="M1810.068 1571.85c-.824 0-1.628.073-2.407.214a13.66 13.66 0 0 0-2.099-.168h-37.136c-7.004 0-12.64 5.293-12.64 11.871v34.865c0 6.578 5.636 11.886 12.64 11.886h37.136c.818 0 1.618-.076 2.392-.214a13.68 13.68 0 0 0 2.114.168h37.137c.731 0 1.45-.057 2.147-.168.779.14 1.584.214 2.408.214h37.137c7.003 0 12.639-5.308 12.639-11.886v-34.865c0-6.578-5.636-11.871-12.64-11.871h-37.136c-.737 0-1.462.056-2.164.168a13.624 13.624 0 0 0-2.391-.214z" stroke-linecap="round" stroke-linejoin="round" stroke-width="7.046" transform="matrix(1.05013 0 0 1.05043 -128.976 -69.953)"/>
            <path d="M2199.361 1644.794v-436.165m-92.675 0v436.165m-92.675 0v-436.165m-92.675 0v436.165m-92.675-87.233v-348.932m-92.675 0V1644.8m-92.675-.01v-436.165m-92.675 0v436.165m-92.675-436.165v436.165m-92.675 0v-436.165m926.75 348.939-1019.425-.01m0-87.23h926.75m92.675-87.226-1019.425-.01m0-87.23h1019.425m-1019.425-87.233v436.165h1019.425v-436.165z" opacity=".98" stroke-width="3.523" transform="matrix(1.05013 0 0 1.05043 -128.976 -69.953)"/>
            <g stroke-linecap="round" stroke-linejoin="round" stroke-width="7.046" transform="matrix(1.05013 0 0 1.05043 -128.976 -69.953)">
                <rect height="58.622" rx="23.126" ry="23.12" width="62.293" x="2214.58" y="1571.892"/>
                <rect height="58.622" rx="23.126" ry="23.12" width="62.293" x="2121.85" y="1571.892"/>
                <rect height="58.622" rx="23.126" ry="23.12" width="62.293" x="2029.284" y="1571.891"/>
                <rect height="58.622" rx="23.126" ry="23.12" width="62.293" x="1936.554" y="1571.892"/>
                <rect height="58.622" rx="23.126" ry="23.12" width="62.293" x="1565.854" y="1571.892"/>
                <rect height="58.622" rx="23.126" ry="23.12" width="62.293" x="1473.125" y="1571.892"/>
                <rect height="58.622" rx="23.126" ry="23.12" width="62.293" x="1380.559" y="1571.891"/>
                <rect height="58.622" rx="23.126" ry="23.12" width="62.293" x="1287.829" y="1571.892"/>
                <rect height="58.622" rx="23.126" ry="23.12" width="62.293" x="2121.85" y="1484.659"/>
                <rect height="58.622" rx="23.126" ry="23.12" width="62.293" x="2029.284" y="1484.659"/>
                <rect height="58.622" rx="23.126" ry="23.12" width="62.293" x="1936.554" y="1484.659"/>
                <rect height="58.622" rx="23.126" ry="23.12" width="62.293" x="1565.854" y="1484.659"/>
                <rect height="58.622" rx="23.126" ry="23.12" width="62.293" x="1473.125" y="1484.659"/>
                <rect height="58.622" rx="23.126" ry="23.12" width="62.293" x="1380.559" y="1484.659"/>
                <rect height="58.622" rx="23.126" ry="23.12" width="62.293" x="1287.829" y="1484.659"/>
                <rect height="58.622" rx="23.126" ry="23.12" width="62.293" x="1843.825" y="1484.659"/>
                <rect height="58.622" rx="23.126" ry="23.12" width="62.293" x="1751.259" y="1484.659"/>
                <rect height="58.622" rx="23.126" ry="23.12" width="62.293" x="1658.529" y="1484.659"/>
                <rect height="58.622" rx="23.126" ry="23.12" width="62.293" x="2121.905" y="1397.426"/>
                <rect height="58.622" rx="23.126" ry="23.12" width="62.293" x="2029.339" y="1397.426"/>
                <rect height="58.622" rx="23.126" ry="23.12" width="62.293" x="1936.609" y="1397.426"/>
                <rect height="58.622" rx="23.126" ry="23.12" width="62.293" x="1565.909" y="1397.426"/>
                <rect height="58.622" rx="23.126" ry="23.12" width="62.293" x="1473.179" y="1397.426"/>
                <rect height="58.622" rx="23.126" ry="23.12" width="62.293" x="1380.613" y="1397.426"/>
                <rect height="58.622" rx="23.126" ry="23.12" width="62.293" x="1287.883" y="1397.426"/>
                <rect height="58.622" rx="23.126" ry="23.12" width="62.293" x="1843.879" y="1397.426"/>
                <rect height="58.622" rx="23.126" ry="23.12" width="62.293" x="1751.313" y="1397.426"/>
                <rect height="58.622" rx="23.126" ry="23.12" width="62.293" x="1658.584" y="1397.426"/>
                <rect height="58.622" rx="23.126" ry="23.12" width="62.293" x="2121.905" y="1310.193"/>
                <rect height="58.622" rx="23.126" ry="23.12" width="62.293" x="2029.339" y="1310.193"/>
                <rect height="58.622" rx="23.126" ry="23.12" width="62.293" x="1936.609" y="1310.193"/>
                <rect height="58.622" rx="23.126" ry="23.12" width="62.293" x="1565.909" y="1310.193"/>
                <rect height="58.622" rx="23.126" ry="23.12" width="62.293" x="1473.179" y="1310.193"/>
                <rect height="58.622" rx="23.126" ry="23.12" width="62.293" x="1380.613" y="1310.193"/>
                <rect height="58.622" rx="23.126" ry="23.12" width="62.293" x="1287.884" y="1310.193"/>
                <rect height="58.622" rx="23.126" ry="23.12" width="62.293" x="1843.88" y="1310.193"/>
                <rect height="58.622" rx="23.126" ry="23.12" width="62.293" x="1751.313" y="1310.193"/>
                <rect height="58.622" rx="23.126" ry="23.12" width="62.293" x="1658.584" y="1310.193"/>
                <rect height="58.622" rx="23.126" ry="23.12" width="62.293" x="2121.905" y="1222.96"/>
                <rect height="58.622" rx="23.126" ry="23.12" width="62.293" x="2029.339" y="1222.96"/>
                <rect height="58.622" rx="23.126" ry="23.12" width="62.293" x="1936.609" y="1222.96"/>
                <rect height="58.622" rx="23.126" ry="23.12" width="62.293" x="1565.909" y="1222.96"/>
                <rect height="58.622" rx="23.126" ry="23.12" width="62.293" x="1473.179" y="1222.96"/>
                <rect height="58.622" rx="23.126" ry="23.12" width="62.293" x="1380.613" y="1222.96"/>
                <rect height="58.622" rx="23.126" ry="23.12" width="62.293" x="1287.884" y="1222.96"/>
                <rect height="58.622" rx="23.126" ry="23.12" width="62.293" x="1843.88" y="1222.96"/>
                <rect height="58.622" rx="23.126" ry="23.12" width="62.293" x="1751.313" y="1222.96"/>
                <rect height="58.622" rx="23.126" ry="23.12" width="62.293" x="1658.584" y="1222.96"/>
                <rect height="58.622" rx="23.126" ry="23.12" width="62.293" x="2214.58" y="1310.193"/>
                <rect height="58.622" rx="23.126" ry="23.12" width="62.293" x="2214.58" y="1222.96"/>
                <path d="M2227.194 1401.794c-6.99 0-12.614 5.305-12.614 11.896v34.938c0 .726.08 1.438.21 2.128-.13.69-.21 1.401-.21 2.128v34.937c0 .727.08 1.438.21 2.128-.13.69-.21 1.402-.21 2.128v34.938c0 6.592 5.624 11.911 12.614 11.911h37.064c6.99 0 12.614-5.32 12.614-11.911v-34.938c0-.726-.08-1.438-.21-2.128.13-.69.21-1.401.21-2.128v-34.937c0-.727-.08-1.438-.21-2.128.13-.69.21-1.402.21-2.128v-34.938c0-6.591-5.624-11.896-12.614-11.896z"/>
                <rect height="58.622" rx="23.126" ry="23.12" width="62.293" x="1658.529" y="1571.892"/>
            </g>
        </g>
    </g>
</svg>
