<svg height="355.876" viewBox="0 0 795.884 996.453" width="284.244" xmlns="http://www.w3.org/2000/svg">
    <g fill="none" stroke="#f4f4f4">
        <g stroke-width="5.6">
            <g transform="translate(-235.594 -11.816)">
                <ellipse cx="632.714" cy="351.645" rx="293.72" ry="222.87"/>
                <path d="M449.605 222.296h367.617a13.898 13.898 0 0 1 13.928 13.929v231.153a13.898 13.898 0 0 1-13.928 13.928H449.605a13.898 13.898 0 0 1-13.928-13.928V236.225a13.898 13.898 0 0 1 13.928-13.929z"/>
                <path d="M632.734 931.381c94.14.2 179.926 43.699 267.364 72.565 49.312 14.783 97.65-21.893 110.208-68.804 19.425-66.767 14.062-137.492 19.902-206.124 1.738-126.276-5.092-252.677-15.448-378.477-10.002-79.103-21.74-159.619-51.943-233.799-26.408-60.765-91.757-93.185-155.581-96.008-57.84-7.475-116.257-9.01-174.502-7.266m0 917.913c-101.46-2.905-206.336-2.92-302.815-37.96-61.836-24.609-92.558-93.055-90.816-156.643-6.776-128.748 1.215-257.907 11.604-386.237 10.002-79.103 21.74-159.619 51.943-233.799 26.408-60.765 91.757-93.185 155.582-96.008 57.838-7.475 116.256-9.01 174.502-7.266"/>
            </g>
            <circle cx="397.478" cy="691.938" r="18.72"/>
            <circle cx="533.472" cy="754.672" r="48.72"/>
            <circle cx="675.673" cy="647.411" r="48.72"/>
        </g>
        <circle cx="397.787" cy="813.306" r="11.22" stroke-width="2.8"/>
    </g>
    <g stroke-width="2" transform="translate(-235.594 -11.816)">
        <path d="M418.986 615.436a20.569 20.569 0 0 0-20.613 20.613v54.978h-54.978a20.566 20.566 0 0 0-20.612 20.612v18.447a20.567 20.567 0 0 0 20.612 20.613h54.978v54.979a20.567 20.567 0 0 0 20.613 20.611h18.446a20.567 20.567 0 0 0 20.613-20.611v-54.979h54.978a20.569 20.569 0 0 0 20.614-20.613v-18.447a20.567 20.567 0 0 0-20.614-20.612h-54.978V636.05a20.569 20.569 0 0 0-20.613-20.613z" fill="none" stroke="#f4f4f4" stroke-width="5.6"/>
        <g fill="#f4f4f4">
            <path d="m427.912 807.39-8.668-13.144-8.669-13.145h34.673l-8.668 13.145zM515.527 719.775l-13.144 8.668-13.145 8.668v-34.673l13.145 8.668zM342.296 719.775l13.145-8.668 13.144-8.669v34.673l-13.144-8.668zM427.912 632.16l8.668 13.144 8.668 13.144h-34.673l8.669-13.144z"/>
        </g>
        <circle cx="428.183" cy="721.014" fill="none" stroke="#f4f4f4" stroke-width="2.8" r="19.22"/>
    </g>
    <g fill="#f4f4f4" fill-opacity=".5" stroke-width="2.8">
        <path d="M231.033 732.086q0 .896-.217 1.508-.321.91-1.03.91-.47 0-.986-.216-.62-.261-.68-.642.21 0 .493.075.657.171.822.171.634 0 .955-.634.254-.508.254-1.217 0-.5-.328-1.426-.321-.934-.321-1.3 0-.112.06-.179.067-.074.179-.074.29 0 .567 1.344.232 1.134.232 1.68zM233.907 732.847q0 .762-.44 1.195-.44.433-1.217.433-.426 0-.657-.202-.232-.201-.232-.62 0-.59.77-1.187.731-.567 1.35-.567.284 0 .374.35.052.202.052.598zm-.455.21q0-.09-.023-.173-.014-.09-.06-.201-.119.082-.395.403-.142.164-.246.239 0-.142.03-.231.06-.127.097-.217-.329 0-.687.276-.351.277-.351.598 0 .216.239.216.455 0 .88-.224.516-.269.516-.687zM236.984 733.153q0 .366-.277.822-.313.515-.65.515-.096 0-.164-.105-.06-.112-.06-.216 0-.135.284-.418.292-.292.292-.396 0-.067-.023-.135l-.03-.09q-.56.128-1.142.643-.575.515-.874.582-.06-.164-.06-.336 0-.209.098-.44.067-.164.224-.396.261-.396.552-.896l.515-.903q.374-.642.546-.911.09-.135.156-.202.097-.09.232-.12.09.03.127.113.045.082.045.194 0 .254-.329.687-.597.776-.612.806-.336.508-.336.919l.015.074q.41-.201.485-.231.306-.127.523-.127.239 0 .35.164.113.157.113.403zM240.448 732.713q0 .507-.246 1.082-.27.635-.665.874-.082-.097-.142-.217-.052-.119-.052-.238 0-.127.373-.755.165-.276.15-.485l-.007-.097q-.277.082-.956.5-.672.41-1.359.836-.105 0-.194-.074-.082-.082-.082-.18 0-.156.5-1.052.15-.269.538-.934.12.157.156.351.038.187.038.448v.172q.687-.41 1.075-.62.426-.231.582-.231.105 0 .194.239.098.239.098.38zM246.937 734.161q0 .135-.12.21-.112.067-.254.067-.127 0-.32-.03-.441-.068-.568-.068-.224 0-.881.053-.374.03-.538.03-.455 0-.455-.456 0-.433.283-1.24.157-.455.59-1.493.389-.933.493-1.314.037-.12.06-.157.06-.09.15-.09.14 0 .238.21.097.201.097.366 0 .261-.306.88-.306.613-.597 1.203-.321.702-.321 1.068 0 .186.156.261.112.052.329.052.164 0 .567-.037.404-.045.538-.045.336 0 .553.097.306.135.306.433zM249.714 732.847q0 .762-.44 1.195-.44.433-1.217.433-.426 0-.657-.202-.232-.201-.232-.62 0-.59.77-1.187.73-.567 1.35-.567.284 0 .374.35.052.202.052.598zm-.455.21q0-.09-.023-.173-.015-.09-.06-.201-.119.082-.395.403-.142.164-.246.239 0-.142.03-.231.06-.127.097-.217-.329 0-.687.276-.351.277-.351.598 0 .216.239.216.455 0 .88-.224.516-.269.516-.687zM252.858 732.69q0 .24-.127.508-.12.269-.306.448l-.007-.104q0-.09.022-.277.022-.186.022-.276 0-.127-.037-.187-.037-.067-.157-.067-.35 0-.873.545l-1.128 1.187q-.045 0-.09-.007-.111-.03-.149-.037.023-.269.187-.597.44-.889.455-.949.06-.238.09-.35.03-.112.082-.232.06-.127.135-.224.082-.104.209-.157l.074.896q.321-.261.493-.403.329-.261.568-.261.239 0 .388.157.15.156.15.388zM256.524 731.824q0 .314-.836.829-.807.493-1.173.493-.171 0-.231-.12-.052-.12-.052-.336v-.201q.5 0 .91-.15.411-.149.717-.492-.224-.083-.455-.083-.545 0-1.157.419-.673.455-.673.97 0 .493.672.687.105.03 1.262.21.68.104.68.365 0 .112-.247.18-.246.074-.627.074-.955 0-1.508-.291-.732-.388-.732-1.247 0-.896.896-1.426.762-.448 1.732-.448.292 0 .53.134.292.164.292.433zM259.496 730.488q0 .164-.396.687-.396.522-.396.799 0 .141.164.283.374.329.374.403 0 .098-.067.187-.06.09-.157.09-.082 0-.232-.09-.104-.06-.403-.291-.112.216-.172.328-.209.396-.283.575l-.224.687q-.195.463-.486.463l-.007-.171q0-.53.344-1.255.067-.134.373-.694-.59-.321-1.3-.321 0-.277.113-.404.12-.134.396-.134.253 0 .634.09l.374.09q.141-.046.388-.486.605-1.06.821-1.217.06.097.097.194.045.097.045.187zM262.25 733.153q0 .366-.275.822-.314.515-.65.515-.097 0-.164-.105-.06-.112-.06-.216 0-.135.284-.418.29-.292.29-.396 0-.067-.021-.135l-.03-.09q-.56.128-1.143.643-.575.515-.873.582-.06-.164-.06-.336 0-.209.097-.44.067-.164.224-.396.261-.396.553-.896l.515-.903q.373-.642.545-.911.09-.135.157-.202.097-.09.231-.12.09.03.127.113.045.082.045.194 0 .254-.329.687-.597.776-.612.806-.336.508-.336.919l.015.074q.41-.201.485-.231.306-.127.523-.127.239 0 .35.164.113.157.113.403zM268.381 730.72q0 .35-.373.94-.24.373-.784 1.075-.545.695-.68.911l.56.18q.545.164.545.597-.224.037-.44.067l-.082-.007v-.06q-.12-.03-.195-.03-.141 0-.448.045-.306.045-.462.045-.202 0-.329-.075t-.127-.269q0-.157.575-.888 1.075-1.367 1.083-1.382.582-.791.582-1.06 0-.104-.075-.157-.067-.052-.276-.052-.142 0-.59.276-.216.135-.35.135l-.128-.023q-.044-.03-.097-.112-.052-.09-.052-.142 0-.313.605-.574.515-.224.896-.224.32 0 .493.238.149.21.149.546zM272.868 732.063q0 .904-.978 1.598-.896.635-1.844.635-.47 0-.747-.24-.276-.238-.276-.694 0-1.015.889-1.762.843-.71 1.889-.71.53 0 .799.314.268.314.268.86zm-.455.172q0-.344-.388-.515-.291-.127-.695-.127-.59 0-1.232.575t-.642 1.157q0 .239.12.343.127.098.38.098.732 0 1.524-.404.933-.478.933-1.127zM276.288 730.72q0 .35-.373.94-.24.373-.784 1.075-.545.695-.68.911l.56.18q.545.164.545.597-.224.037-.44.067l-.082-.007v-.06q-.12-.03-.194-.03-.142 0-.448.045-.306.045-.463.045-.202 0-.329-.075t-.127-.269q0-.157.575-.888 1.075-1.367 1.083-1.382.582-.791.582-1.06 0-.104-.074-.157-.068-.052-.277-.052-.142 0-.59.276-.216.135-.35.135l-.127-.023q-.045-.03-.098-.112-.052-.09-.052-.142 0-.313.605-.574.515-.224.896-.224.321 0 .493.238.15.21.15.546zM279.723 730.72q0 .35-.373.94-.24.373-.784 1.075-.546.695-.68.911l.56.18q.545.164.545.597-.224.037-.44.067l-.083-.007v-.06q-.119-.03-.194-.03-.142 0-.448.045-.306.045-.463.045-.201 0-.328-.075t-.127-.269q0-.157.575-.888 1.075-1.367 1.083-1.382.582-.791.582-1.06 0-.104-.075-.157-.067-.052-.276-.052-.142 0-.59.276-.216.135-.35.135l-.128-.023q-.045-.03-.097-.112-.052-.09-.052-.142 0-.313.605-.574.515-.224.896-.224.32 0 .492.238.15.21.15.546z"/>
    </g>
</svg>
