<svg width="589" height="350" xmlns="http://www.w3.org/2000/svg">
    <path data-name="back" d="M531.22 117.77c0-.18-.05-.36-.08-.54l-.06-.42a63.88 63.88 0 0 0-1.44-7c-.14-.59-.31-1.18-.47-1.77l-.06-.2A82.15 82.15 0 0 0 406 60.52h-92.77a3.21 3.21 0 0 0-1.59.45c-8.26 4.85-26 4.85-34.28 0a3.21 3.21 0 0 0-1.59-.45H183a82.15 82.15 0 0 0-123.11 47.37l-.06.2c-.16.59-.33 1.18-.47 1.77a63.88 63.88 0 0 0-1.44 7l-.06.42c0 .18-.06.36-.08.54l-24 164.73a55.16 55.16 0 0 0 55 55c45.74 4.65 64.72-57.61 85.47-86.9l.47-.1c31.94 31.89 82.78 17.68 101.62-19.75h36.3c18.78 37.42 69.78 51.63 101.62 19.75l.47.1c20.7 29.28 39.85 91.62 85.47 86.9a55.16 55.16 0 0 0 55-55z" style="fill:none;stroke:#f4f4f4;stroke-width:1.5px;stroke-miterlimit:10"/>
    <path d="M531.22 117.77c0-.18-.05-.36-.08-.54l-.06-.42a63.88 63.88 0 0 0-1.44-7c-.14-.59-.31-1.18-.47-1.77l-.06-.2a82.33 82.33 0 0 0-35.91-47.76l-5.52-25.51a15.16 15.16 0 0 0-8-10.27c-20.57-10.39-40.95-10.54-61.16.13a14.78 14.78 0 0 0-7.47 10l-5.65 26.1h-92.17a3.21 3.21 0 0 0-1.59.45c-8.26 4.85-26 4.85-34.28 0a3.21 3.21 0 0 0-1.59-.45h-92.16L178 34.57a15.13 15.13 0 0 0-8-10.27c-20.56-10.39-40.95-10.54-61.15.13a14.78 14.78 0 0 0-7.47 10L95.8 60.08a82.33 82.33 0 0 0-35.91 47.81l-.06.2c-.16.59-.33 1.18-.47 1.77a63.88 63.88 0 0 0-1.44 7l-.06.42c0 .18-.06.36-.08.54l-24 164.73a55.16 55.16 0 0 0 55 55c45.74 4.65 64.72-57.61 85.47-86.9l.47-.1c31.94 31.89 82.78 17.68 101.62-19.75h36.3c18.78 37.42 69.78 51.63 101.62 19.75l.47.1c20.7 29.28 39.85 91.62 85.47 86.9a55.16 55.16 0 0 0 55-55z" style="fill:none;stroke:#f4f4f4;stroke-width:1.5px;stroke-miterlimit:10"/>
    <path d="M531.22 117.77c0-.18-.05-.36-.08-.54l-.06-.42a63.88 63.88 0 0 0-1.44-7c-.14-.59-.31-1.18-.47-1.77l-.06-.2a82.33 82.33 0 0 0-35.91-47.76l-5.52-25.51a14.94 14.94 0 0 0-7.77-10.15c-.83-.42-1.66-.82-2.48-1.21l-.74-3.39a3 3 0 0 0-1.77-2.14c-17.23-7.12-34.3-7.24-51.19 0a3 3 0 0 0-1.73 2.11l-.7 3.21c-.87.41-1.74.84-2.61 1.3A15 15 0 0 0 411 34.42l-5.65 26.1h-92.12a3.21 3.21 0 0 0-1.59.45c-8.26 4.85-26 4.85-34.28 0a3.21 3.21 0 0 0-1.59-.45h-92.16L178 34.57a14.92 14.92 0 0 0-7.77-10.15c-.82-.42-1.65-.82-2.48-1.21l-.75-3.39a3 3 0 0 0-1.77-2.14c-17.24-7.12-34.31-7.24-51.19 0a3 3 0 0 0-1.74 2.12l-.7 3.25c-.87.41-1.74.84-2.61 1.3a14.91 14.91 0 0 0-7.64 10.08L95.8 60.08a82.33 82.33 0 0 0-35.91 47.81l-.06.2c-.16.59-.33 1.18-.47 1.77a63.88 63.88 0 0 0-1.44 7l-.06.42c0 .18-.06.36-.08.54l-24 164.73a55.16 55.16 0 0 0 55 55c45.74 4.65 64.72-57.61 85.47-86.9l.47-.1c31.94 31.89 82.78 17.68 101.62-19.75h36.3c18.78 37.42 69.78 51.63 101.62 19.75l.47.1c20.7 29.28 39.85 91.62 85.47 86.9a55.16 55.16 0 0 0 55-55z" style="fill:none;stroke:#f4f4f4;stroke-width:1.5px;stroke-miterlimit:10"/>
    <path data-name="center" d="M221.25 129.94a82.39 82.39 0 0 1-3.25 22.95c32.75-.43 58.54 30.21 52.69 62.39h47.66c-5.85-32.18 19.94-62.82 52.69-62.39-9.3-30 1.69-65.32 24.7-84.69H193.28a82 82 0 0 1 27.97 61.74z" style="fill:none;stroke:#f4f4f4;stroke-width:1.5px;stroke-miterlimit:10"/>
    <path style="fill:none;stroke:#f4f4f4;stroke-width:1.5px;stroke-linejoin:round" d="M282.05 195.72h24.9v8h-24.9z"/>
    <path data-name="back" style="fill:none;stroke:#f4f4f4;stroke-width:1.5px;stroke-linejoin:round" d="M282.05 171.22h24.9v12h-24.9z"/>
    <rect x="275" y="167.72" width="39" height="19" rx="3" style="fill:none;stroke:#f4f4f4;stroke-width:1.5px;stroke-linejoin:round"/>
    <rect x="235.18" y="115.75" width="19.86" height="28.44" rx="4" transform="rotate(90 245.105 129.975)" style="fill:none;stroke:#f4f4f4;stroke-width:1.5px;stroke-linejoin:round"/>
    <rect x="233.89" y="123.05" width="22.44" height="13.86" rx="2" style="fill:none;stroke:#f4f4f4;stroke-width:1.5px;stroke-linejoin:round"/>
    <path data-name="outside" d="m328.63 119.81 27.25 7.27a3 3 0 0 1 0 5.79l-27.25 7.27a2 2 0 0 1-2.52-1.93v-16.46a2 2 0 0 1 2.52-1.94z" style="fill:none;stroke:#f4f4f4;stroke-width:1.5px;stroke-linejoin:round"/>
    <path data-name="inside" style="fill:none;stroke:#f4f4f4;stroke-width:1.5px;stroke-linejoin:round" d="M329.11 123.05v13.85l26-6.93z"/>
    <g data-name="front">
        <path d="M370.89 152.88h.11A82.2 82.2 0 1 1 424.19 208a53.33 53.33 0 1 1-53.3-55.11z" style="fill:none;stroke:#f4f4f4;stroke-width:1.5px;stroke-linejoin:round"/>
        <circle data-name="outside" cx="370.89" cy="206.22" r="40" style="fill:none;stroke:#f4f4f4;stroke-width:1.5px;stroke-miterlimit:10"/>
        <circle data-name="inside" cx="370.89" cy="206.22" r="35" style="fill:none;stroke:#f4f4f4;stroke-width:1.5px;stroke-miterlimit:10"/>
        <path d="M391.2 107.06h32.86a3 3 0 0 0 3-3V71.2a3 3 0 0 1 3-3h39.75a3 3 0 0 1 3 3v32.86a3 3 0 0 0 3 3h32.87a3 3 0 0 1 3 3v39.75a3 3 0 0 1-3 3h-32.87a3 3 0 0 0-3 3v32.87a3 3 0 0 1-3 3h-39.75a3 3 0 0 1-3-3v-32.87a3 3 0 0 0-3-3H391.2a3 3 0 0 1-3-3v-39.75a3 3 0 0 1 3-3z" style="fill:none;stroke:#f4f4f4;stroke-width:1.5px;stroke-miterlimit:10"/>
        <path d="M468.59 167.94a18.65 18.65 0 1 1-18.65-18.65 18.65 18.65 0 0 1 18.65 18.65zm-18.65-94.65a18.65 18.65 0 1 0 18.65 18.65 18.65 18.65 0 0 0-18.65-18.65zm38 38a18.65 18.65 0 1 1-18.65 18.65 18.65 18.65 0 0 1 18.65-18.65zm-94.65 18.65a18.65 18.65 0 1 0 18.65-18.65 18.65 18.65 0 0 0-18.65 18.65z" style="fill:none;stroke:#f4f4f4;stroke-width:1.5px;stroke-miterlimit:10"/>
        <path data-name="body" d="M218.11 152.88H218A82.2 82.2 0 1 0 164.81 208a53.33 53.33 0 1 0 53.3-55.11z" style="fill:none;stroke:#f4f4f4;stroke-width:1.5px;stroke-linejoin:round"/>
        <circle data-name="outside" cx="218.11" cy="206.22" r="40" style="fill:none;stroke:#f4f4f4;stroke-width:1.5px;stroke-miterlimit:10"/>
        <circle data-name="inside" cx="218.11" cy="206.22" r="35" style="fill:none;stroke:#f4f4f4;stroke-width:1.5px;stroke-miterlimit:10"/>
        <path data-name="cross" d="M197.8 107.06h-32.86a3 3 0 0 1-3-3V71.2a3 3 0 0 0-3-3h-39.75a3 3 0 0 0-3 3v32.86a3 3 0 0 1-3 3H80.32a3 3 0 0 0-3 3v39.75a3 3 0 0 0 3 3h32.87a3 3 0 0 1 3 3v32.87a3 3 0 0 0 3 3h39.75a3 3 0 0 0 3-3v-32.87a3 3 0 0 1 3-3h32.86a3 3 0 0 0 3-3v-39.75a3 3 0 0 0-3-3z" style="fill:none;stroke:#f4f4f4;stroke-width:1.5px;stroke-miterlimit:10"/>
        <path d="M155.3 109.8a79.4 79.4 0 0 1-15.19 12.27 2 2 0 0 1-2.1 0 74.91 74.91 0 0 1-15.2-12.28 2 2 0 0 1-.55-1.39V86.51a2 2 0 0 1 2-2h29.6a2 2 0 0 1 2 2v21.88a2.06 2.06 0 0 1-.56 1.41zm-15.69 7.85a75.65 75.65 0 0 0 12-9.77 1 1 0 0 0 .29-.71V89.51a1 1 0 0 0-1-1h-23.6a1 1 0 0 0-1 1v17.68a1 1 0 0 0 .29.71 71.27 71.27 0 0 0 12 9.75 1 1 0 0 0 1.02 0zm16.25 33.84v21.88a2 2 0 0 1-2 2h-29.6a2 2 0 0 1-2-2v-21.89a2.07 2.07 0 0 1 .55-1.4A75.2 75.2 0 0 1 138 137.81a2 2 0 0 1 2.1 0 79 79 0 0 1 15.19 12.27 2 2 0 0 1 .57 1.41zm-17.36-9.26a70.72 70.72 0 0 0-12 9.74 1 1 0 0 0-.29.71v17.69a1 1 0 0 0 1 1h23.6a1 1 0 0 0 1-1v-17.66a1 1 0 0 0-.29-.71 75.65 75.65 0 0 0-12-9.77 1 1 0 0 0-1.02 0zm-19.58-28.53a79 79 0 0 1 12.27 15.19 2 2 0 0 1 0 2.1 75.2 75.2 0 0 1-12.27 15.2 2.07 2.07 0 0 1-1.4.55H95.63a2 2 0 0 1-2-2v-29.6a2 2 0 0 1 2-2h21.88a2 2 0 0 1 1.41.56zm7.85 15.69a75.65 75.65 0 0 0-9.77-12 1 1 0 0 0-.71-.29H98.63a1 1 0 0 0-1 1v23.6a1 1 0 0 0 1 1h17.69a1 1 0 0 0 .71-.29 70.72 70.72 0 0 0 9.74-11.95 1 1 0 0 0 0-1.07zm33.84-16.25h21.88a2 2 0 0 1 2 2v29.6a2 2 0 0 1-2 2H160.6a2 2 0 0 1-1.39-.55A74.91 74.91 0 0 1 146.93 131a2 2 0 0 1 0-2.1 79.4 79.4 0 0 1 12.27-15.2 2.06 2.06 0 0 1 1.41-.56zm-9.26 17.36a71.27 71.27 0 0 0 9.75 11.95 1 1 0 0 0 .71.29h17.68a1 1 0 0 0 1-1v-23.6a1 1 0 0 0-1-1h-17.66a1 1 0 0 0-.71.29 75.65 75.65 0 0 0-9.77 12 1 1 0 0 0 0 1.07z" style="fill:none;stroke:#f4f4f4;stroke-width:1.5px;stroke-miterlimit:10"/>
        <path d="M146 79.94h-13.87l6.93-7.5zm0 100h-13.87l6.93 7.5zM89.06 123v13.86l-7.5-6.93zm100 0v13.86l7.5-6.93z" style="fill:none;stroke:#f4f4f4;stroke-width:1.5px;stroke-linejoin:round"/>
    </g>
</svg>
