<svg width="589" height="350" xmlns="http://www.w3.org/2000/svg">
    <g data-name="ps3">
        <path data-name="back" d="M406 60.52a82.15 82.15 0 0 1 123.14 47.37l.06.2c.16.59.33 1.18.47 1.77a63.88 63.88 0 0 1 1.44 7l.06.42c0 .18.06.36.08.54l24 164.73a55.16 55.16 0 0 1-55 55c-45.62 4.72-64.77-57.62-85.47-86.9l-.47-.1c-31.84 31.88-82.84 17.67-101.62-19.75h-36.3c-18.84 37.43-69.68 51.64-101.62 19.75l-.47.1c-20.75 29.29-39.73 91.55-85.47 86.9a55.16 55.16 0 0 1-55-55l24-164.73c0-.18 0-.36.08-.54l.06-.42a63.88 63.88 0 0 1 1.44-7c.14-.59.31-1.18.47-1.77l.06-.2A82.15 82.15 0 0 1 183 60.52m.58-3.5h92.16a3.21 3.21 0 0 1 1.59.45c8.26 4.85 26 4.85 34.28 0a3.21 3.21 0 0 1 1.59-.45h92.16" style="fill:none;stroke:#f4f4f4;stroke-linecap:round;stroke-miterlimit:10;stroke-width:1.5px"/>
        <path d="m405.39 60.52 5.61-26.1a14.78 14.78 0 0 1 7.47-10c20.21-10.67 40.59-10.52 61.16-.13a15.16 15.16 0 0 1 8 10.27l5.52 25.51a82.33 82.33 0 0 1 35.91 47.81l.06.2c.16.59.33 1.18.47 1.77a63.88 63.88 0 0 1 1.44 7l.06.42c0 .18.06.36.08.54l24 164.73a55.16 55.16 0 0 1-55 55c-45.62 4.72-64.77-57.62-85.47-86.9l-.47-.1c-31.84 31.88-82.84 17.67-101.62-19.75h-36.3c-18.84 37.43-69.68 51.64-101.62 19.75l-.47.1c-20.75 29.29-39.73 91.55-85.47 86.9a55.16 55.16 0 0 1-55-55l24-164.73c0-.18 0-.36.08-.54l.06-.42a63.88 63.88 0 0 1 1.44-7c.14-.59.31-1.18.47-1.77l.06-.2a82.33 82.33 0 0 1 35.94-47.8l5.56-25.66a14.78 14.78 0 0 1 7.47-10C129 13.76 149.42 13.91 170 24.3a15.13 15.13 0 0 1 8 10.27l5.62 26m0-3.5h92.16a3.21 3.21 0 0 1 1.59.45c8.26 4.85 26 4.85 34.28 0a3.21 3.21 0 0 1 1.59-.45h92.16" style="fill:none;stroke:#f4f4f4;stroke-miterlimit:10;stroke-width:1.5px"/>
        <path d="m405.39 60.52 5.61-26.1a15 15 0 0 1 7.65-10.08c.87-.46 1.74-.89 2.61-1.3l.7-3.25a3 3 0 0 1 1.73-2.12c16.89-7.23 34-7.11 51.19 0a3 3 0 0 1 1.77 2.14l.74 3.39c.82.39 1.65.79 2.48 1.21a14.94 14.94 0 0 1 7.77 10.15l5.52 25.51a82.33 82.33 0 0 1 35.91 47.81l.06.2c.16.59.33 1.18.47 1.77a63.88 63.88 0 0 1 1.44 7l.06.42c0 .18.06.36.08.54l24 164.73a55.16 55.16 0 0 1-55 55c-45.62 4.72-64.77-57.62-85.47-86.9l-.47-.1c-31.84 31.88-82.84 17.67-101.62-19.75h-36.3c-18.84 37.43-69.68 51.64-101.62 19.75l-.47.1c-20.75 29.29-39.73 91.55-85.47 86.9a55.16 55.16 0 0 1-55-55l24-164.73c0-.18 0-.36.08-.54l.06-.42a63.88 63.88 0 0 1 1.44-7c.14-.59.31-1.18.47-1.77l.06-.2a82.33 82.33 0 0 1 35.93-47.8l5.56-25.66A14.91 14.91 0 0 1 109 24.34c.87-.46 1.74-.89 2.61-1.3l.7-3.25a3 3 0 0 1 1.74-2.12c16.88-7.23 34-7.11 51.19 0a3 3 0 0 1 1.76 2.15l.73 3.39c.83.39 1.66.79 2.48 1.21A14.92 14.92 0 0 1 178 34.57l5.62 26m0-3.5h92.16a3.21 3.21 0 0 1 1.59.45c8.26 4.85 26 4.85 34.28 0a3.21 3.21 0 0 1 1.59-.45h92.16" style="fill:none;stroke:#f4f4f4;stroke-linecap:round;stroke-miterlimit:10;stroke-width:1.5px"/>
        <path data-name="center" d="M221.25 129.94a82.39 82.39 0 0 1-3.25 22.95c32.75-.43 58.54 30.21 52.69 62.39h47.66c-5.85-32.18 19.94-62.82 52.69-62.39-9.3-30 1.69-65.32 24.7-84.69H193.28a82 82 0 0 1 27.97 61.74Z" style="fill:none;stroke:#f4f4f4;stroke-miterlimit:10;stroke-width:1.5px"/>
        <circle cx="294.5" cy="170" r="16.5" style="fill:none;stroke:#f4f4f4;stroke-miterlimit:10;stroke-width:1.5px"/>
        <rect x="235.18" y="115.75" width="19.86" height="28.44" rx="4" transform="rotate(90 245.105 129.975)" style="fill:none;stroke:#f4f4f4;stroke-linejoin:round;stroke-width:1.5px"/>
        <rect x="233.89" y="123.05" width="22.44" height="13.86" rx="2" style="fill:none;stroke:#f4f4f4;stroke-linejoin:round;stroke-width:1.5px"/>
        <path data-name="outside" d="m328.63 119.81 27.25 7.27a3 3 0 0 1 0 5.79l-27.25 7.27a2 2 0 0 1-2.52-1.93v-16.46a2 2 0 0 1 2.52-1.94Z" style="fill:none;stroke:#f4f4f4;stroke-linejoin:round;stroke-width:1.5px"/>
        <path data-name="inside" style="fill:none;stroke:#f4f4f4;stroke-linejoin:round;stroke-width:1.5px" d="m355.11 129.97-26-6.92v13.85l26-6.93z"/>
        <path style="fill:#f4f4f4" d="M255.73 61.55h-5v2h5v-2z" data-name="1"/>
        <path style="fill:#f4f4f4" d="M239.4 61.55h-5v2h5v-2z" data-name="2"/>
        <path style="fill:#f4f4f4" d="M223.06 61.55h-5v2h5v-2z" data-name="3"/>
        <path style="fill:#f4f4f4" d="M206.73 61.55h-5v2h5v-2z" data-name="4"/>
        <g data-name="front">
            <path d="M370.89 152.88h.11A82.2 82.2 0 1 1 424.19 208a53.33 53.33 0 1 1-53.3-55.11Z" style="fill:none;stroke:#f4f4f4;stroke-linejoin:round;stroke-width:1.5px"/>
            <circle data-name="outside" cx="370.89" cy="206.22" r="40" style="fill:none;stroke:#f4f4f4;stroke-miterlimit:10;stroke-width:1.5px"/>
            <circle data-name="inside" cx="370.89" cy="206.22" r="35" style="fill:none;stroke:#f4f4f4;stroke-miterlimit:10;stroke-width:1.5px"/>
            <path d="M391.2 107.06h32.86a3 3 0 0 0 3-3V71.2a3 3 0 0 1 3-3h39.75a3 3 0 0 1 3 3v32.86a3 3 0 0 0 3 3h32.87a3 3 0 0 1 3 3v39.75a3 3 0 0 1-3 3h-32.87a3 3 0 0 0-3 3v32.87a3 3 0 0 1-3 3h-39.75a3 3 0 0 1-3-3v-32.87a3 3 0 0 0-3-3H391.2a3 3 0 0 1-3-3v-39.75a3 3 0 0 1 3-3Z" style="fill:none;stroke:#f4f4f4;stroke-miterlimit:10;stroke-width:1.5px"/>
            <path d="M468.59 167.94a18.65 18.65 0 1 1-18.65-18.65 18.65 18.65 0 0 1 18.65 18.65Zm-18.65-94.65a18.65 18.65 0 1 0 18.65 18.65 18.65 18.65 0 0 0-18.65-18.65Zm38 38a18.65 18.65 0 1 1-18.65 18.65 18.65 18.65 0 0 1 18.65-18.65Zm-94.65 18.65a18.65 18.65 0 1 0 18.65-18.65 18.65 18.65 0 0 0-18.65 18.65Z" style="fill:none;stroke:#f4f4f4;stroke-miterlimit:10;stroke-width:1.5px"/>
            <path data-name="body" d="M218.11 152.88H218A82.2 82.2 0 1 0 164.81 208a53.33 53.33 0 1 0 53.3-55.11Z" style="fill:none;stroke:#f4f4f4;stroke-linejoin:round;stroke-width:1.5px"/>
            <circle data-name="outside" cx="218.11" cy="206.22" r="40" style="fill:none;stroke:#f4f4f4;stroke-miterlimit:10;stroke-width:1.5px"/>
            <circle data-name="inside" cx="218.11" cy="206.22" r="35" style="fill:none;stroke:#f4f4f4;stroke-miterlimit:10;stroke-width:1.5px"/>
            <path data-name="cross" d="M197.8 107.06h-32.86a3 3 0 0 1-3-3V71.2a3 3 0 0 0-3-3h-39.75a3 3 0 0 0-3 3v32.86a3 3 0 0 1-3 3H80.32a3 3 0 0 0-3 3v39.75a3 3 0 0 0 3 3h32.87a3 3 0 0 1 3 3v32.87a3 3 0 0 0 3 3h39.75a3 3 0 0 0 3-3v-32.87a3 3 0 0 1 3-3h32.86a3 3 0 0 0 3-3v-39.75a3 3 0 0 0-3-3Z" style="fill:none;stroke:#f4f4f4;stroke-miterlimit:10;stroke-width:1.5px"/>
            <path d="M154 111.07a79.09 79.09 0 0 1-10.37 8.66 8 8 0 0 1-9.15.06 74.13 74.13 0 0 1-10.48-8.73 6.08 6.08 0 0 1-1.78-4.27v-20.3a2 2 0 0 1 2-2h29.64a2 2 0 0 1 2 2v20.27a6 6 0 0 1-1.86 4.31Zm-12.69 5.41a76.44 76.44 0 0 0 10.23-8.6 1 1 0 0 0 .29-.71V89.49a1 1 0 0 0-1-1h-23.59a1 1 0 0 0-1 1v17.71a1 1 0 0 0 .28.7 70.81 70.81 0 0 0 10.22 8.58 4 4 0 0 0 4.6 0Zm14.52 36.64v20.26a2 2 0 0 1-2 2h-29.59a2 2 0 0 1-2-2v-20.29a6 6 0 0 1 1.78-4.27 74.13 74.13 0 0 1 10.47-8.73 8 8 0 0 1 9.15 0 80 80 0 0 1 10.36 8.72 6 6 0 0 1 1.86 4.31Zm-19.11-9.72a71.27 71.27 0 0 0-10.18 8.6 1 1 0 0 0-.28.7v17.7a1 1 0 0 0 1 1h23.64a1 1 0 0 0 1-1v-17.69a1 1 0 0 0-.29-.71 76.27 76.27 0 0 0-10.22-8.59 4 4 0 0 0-4.64-.01ZM120.19 115a80 80 0 0 1 8.67 10.37 8 8 0 0 1 0 9.15 74.13 74.13 0 0 1-8.68 10.48 6 6 0 0 1-4.27 1.78H95.62a2 2 0 0 1-2-2v-29.66a2 2 0 0 1 2-2h20.26a6 6 0 0 1 4.31 1.88Zm5.4 12.68a76.27 76.27 0 0 0-8.59-10.25 1 1 0 0 0-.71-.29H98.62a1 1 0 0 0-1 1v23.64a1 1 0 0 0 1 1h17.7a1 1 0 0 0 .7-.28 71.27 71.27 0 0 0 8.58-10.21 4 4 0 0 0-.01-4.64Zm36.65-14.51h20.27a2 2 0 0 1 2 2v29.64a2 2 0 0 1-2 2h-20.3a6.08 6.08 0 0 1-4.27-1.78 74.13 74.13 0 0 1-8.73-10.47 8 8 0 0 1 .06-9.15 79.09 79.09 0 0 1 8.66-10.41 6 6 0 0 1 4.31-1.86Zm-9.72 19.1a70.81 70.81 0 0 0 8.58 10.22 1 1 0 0 0 .7.28h17.71a1 1 0 0 0 1-1v-23.65a1 1 0 0 0-1-1h-17.68a1 1 0 0 0-.71.29 76.44 76.44 0 0 0-8.6 10.23 4 4 0 0 0 0 4.6Z" style="fill:none;stroke:#f4f4f4;stroke-miterlimit:10;stroke-width:1.5px"/>
            <path d="M146 79.94h-13.87l6.93-7.5Zm0 100h-13.87l6.93 7.5ZM89.06 123v13.86l-7.5-6.93Zm100 0v13.86l7.5-6.93Z" style="fill:none;stroke:#f4f4f4;stroke-linejoin:round;stroke-width:1.5px"/>
        </g>
    </g>
</svg>
