<svg version="1.2" baseProfile="tiny" xmlns="http://www.w3.org/2000/svg" width="598.189" height="350.26" xml:space="preserve">
    <path fill="#F4F4F4" d="M39.845 85.162c.893-1.426 4.216-6.902 6.056-9.507 4.764-7.16 12.915-11.879 22.161-11.879h38.659v2.001H68.062c-8.555-.002-16.083 4.362-20.512 11.009-1.775 2.513-5.108 7.996-6.009 9.435v.002l-1.696-1.061zM68.982 303.271a26.558 26.558 0 0 1-22.143-11.855c-1.858-2.626-5.181-8.103-6.072-9.529l1.695-1.061c.9 1.44 4.232 6.924 6.023 9.459 4.412 6.625 11.941 10.988 20.496 10.986l38.661.002v2l-38.66-.002zM548.069 76.762c-4.41-6.624-11.938-10.987-20.496-10.987h-38.658v-2h38.658c9.249 0 17.398 4.72 22.146 11.856 1.857 2.627 5.18 8.104 6.072 9.528v.002l-1.693 1.06c-.904-1.44-4.235-6.923-6.029-9.459zM132.685 272.844a3.15 3.15 0 0 1-3.151-3.15V81.98a3.15 3.15 0 0 1 3.151-3.151h330.268a3.15 3.15 0 0 1 3.15 3.151v187.713h-.002c0 1.741-1.41 3.15-3.148 3.15H132.685v.001zM131.533 81.98v187.713a1.15 1.15 0 0 0 1.152 1.149l330.268.002a1.152 1.152 0 0 0 1.149-1.151V81.98a1.154 1.154 0 0 0-1.149-1.151H132.685a1.154 1.154 0 0 0-1.152 1.151zM103.197 121.587a4.11 4.11 0 0 1 0-8.218h6.758a4.108 4.108 0 1 1 0 8.218h-6.758zM486.167 121.587a4.109 4.109 0 1 1 0-8.218h6.759a4.108 4.108 0 1 1 0 8.218h-6.759zM242.617 291.092a1.894 1.894 0 0 1 0-3.789h4.455a1.895 1.895 0 0 1 0 3.789h-4.455zM53.491 246.307c.002-11.773 9.545-21.316 21.316-21.318 11.773.002 21.314 9.545 21.316 21.318-.002 11.771-9.543 21.315-21.316 21.318-11.771-.003-21.314-9.547-21.316-21.318zm2.002 0c.019 10.667 8.649 19.297 19.314 19.315 10.667-.019 19.297-8.648 19.316-19.315-.019-10.668-8.649-19.298-19.316-19.316-10.665.018-19.295 8.648-19.314 19.316zM27.977 227.222a3.148 3.148 0 1 1-6.298-.002 3.148 3.148 0 0 1 6.298.002z"/>
    <g fill="#F4F4F4">
        <path d="M71.049 163.092a5.16 5.16 0 0 1-3.282-1.172l-.043-.035-9.49-9.753a5.163 5.163 0 0 1-1.281-3.41v-16.369a3.2 3.2 0 0 1 .942-2.258 3.594 3.594 0 0 1 1.599-.908c3.708-1.014 7.604-1.381 11.555-1.381h.152c3.954 0 7.85.368 11.547 1.377.714.181 1.248.566 1.638.94.563.571.911 1.365.911 2.229v16.369a5.198 5.198 0 0 1-1.315 3.451l-9.451 9.708-.045.039a5.18 5.18 0 0 1-3.284 1.172v-2a3.168 3.168 0 0 0 1.988-.698l9.323-9.578a3.153 3.153 0 0 0 .784-2.094v-16.369c0-.329-.125-.612-.306-.796-.252-.228-.404-.341-.759-.439-3.479-.953-7.201-1.312-11.03-1.312h-.152c-3.829 0-7.548.359-11.038 1.313-.347.097-.499.208-.718.407a1.17 1.17 0 0 0-.339.827v16.369c0 .805.296 1.534.75 2.055l9.369 9.626a3.16 3.16 0 0 0 1.977.689h.152v2h-.154v.001zM59.5 208.407c-.712-.182-1.243-.565-1.639-.941a3.185 3.185 0 0 1-.908-2.228v-16.369c0-1.303.485-2.502 1.317-3.45l9.451-9.709.048-.039a5.176 5.176 0 0 1 3.28-1.17v2.001c-.751 0-1.433.256-1.978.688l-9.331 9.586a3.154 3.154 0 0 0-.787 2.094v16.369c0 .326.128.611.305.797.252.228.407.341.762.442 3.48.949 7.199 1.309 11.028 1.309h.153c3.828 0 7.548-.359 11.037-1.312.347-.099.502-.212.719-.406.212-.219.338-.504.34-.83V188.87a3.137 3.137 0 0 0-.75-2.053l-9.369-9.628a3.16 3.16 0 0 0-1.977-.688h-.153v-1.999l.153-.002c1.241 0 2.391.442 3.283 1.17l.043.035 9.489 9.752a5.168 5.168 0 0 1 1.282 3.411l-.002 16.369a3.202 3.202 0 0 1-.941 2.261 3.607 3.607 0 0 1-1.598.906c-3.706 1.014-7.604 1.379-11.555 1.379l-.153.002c-3.952-.001-7.849-.366-11.549-1.378zM91.199 182.966c-1.303.002-2.5-.481-3.451-1.313l-9.714-9.459-.034-.039a5.179 5.179 0 0 1-1.171-3.282v-.152A5.17 5.17 0 0 1 78 165.439l.033-.041 9.756-9.493a5.168 5.168 0 0 1 3.41-1.28h16.37c.866 0 1.658.35 2.261.942.344.362.727.893.903 1.597 1.015 3.708 1.383 7.604 1.383 11.557v.152c0 3.953-.368 7.848-1.378 11.545-.181.715-.566 1.247-.938 1.639a3.18 3.18 0 0 1-2.23.911l-16.371-.002zm-2.095-2.782a3.171 3.171 0 0 0 2.095.782l16.37.002a1.16 1.16 0 0 0 .796-.305c.228-.255.339-.405.44-.764.951-3.479 1.311-7.197 1.311-11.027v-.152c0-3.83-.36-7.548-1.313-11.038-.099-.348-.21-.5-.405-.72a1.181 1.181 0 0 0-.829-.337h-16.37c-.805 0-1.531.294-2.056.749l-9.625 9.369a3.157 3.157 0 0 0-.688 1.978v.152c.002.752.255 1.434.688 1.977l9.586 9.334zM34.683 182.966a3.198 3.198 0 0 1-2.261-.94 3.607 3.607 0 0 1-.903-1.597c-1.015-3.708-1.383-7.604-1.383-11.556v-.152c0-3.953.368-7.848 1.378-11.546.181-.716.566-1.247.94-1.64a3.176 3.176 0 0 1 2.229-.91h16.37c1.303 0 2.5.483 3.449 1.315l9.713 9.456.037.043a5.161 5.161 0 0 1 1.169 3.282l.002.152a5.17 5.17 0 0 1-1.171 3.282l-.035.041-9.754 9.492a5.175 5.175 0 0 1-3.41 1.28l-16.37-.002zm-.799-26.035c-.227.251-.337.403-.438.759-.951 3.482-1.311 7.2-1.311 11.03v.152c0 3.83.358 7.547 1.313 11.038.097.346.209.5.405.72.216.21.502.336.829.336h16.37c.805 0 1.531-.294 2.054-.747l9.618-9.36a3.165 3.165 0 0 0 .697-1.986v-.152a3.182 3.182 0 0 0-.691-1.98l-9.585-9.332a3.161 3.161 0 0 0-2.093-.784h-16.37c-.327 0-.611.127-.798.306z"/>
    </g>
    <path fill="#F4F4F4" d="M25.577 168.796c.002-25.155 20.394-45.547 45.549-45.547 25.156 0 45.547 20.392 45.547 45.547 0 25.155-20.392 45.547-45.547 45.549-25.155-.002-45.547-20.394-45.549-45.549zm14.756-30.793c-7.882 7.883-12.755 18.764-12.755 30.792 0 12.028 4.873 22.908 12.755 30.792 7.883 7.883 18.765 12.756 30.792 12.756 12.028 0 22.908-4.873 30.792-12.756 7.883-7.884 12.755-18.764 12.755-30.792 0-12.028-4.873-22.91-12.755-30.792-7.884-7.882-18.764-12.753-30.792-12.755-12.027.002-22.909 4.873-30.792 12.755z"/>
    <g fill="#F4F4F4">
        <path d="m490.574 185.438 1.812-.844a36.56 36.56 0 0 0 16.792 17.281h.002l-.896 1.79a38.548 38.548 0 0 1-17.71-18.227zM540.75 202.306a36.537 36.537 0 0 0 17.18-16.671v.003l1.785.896a38.543 38.543 0 0 1-18.119 17.585l-.846-1.813zM541.691 136.767h.002l.894-1.788a38.523 38.523 0 0 1 17.705 18.301l-1.818.835a36.526 36.526 0 0 0-16.783-17.348zM491.033 152.227a38.527 38.527 0 0 1 18.332-17.792l.835 1.816a36.53 36.53 0 0 0-17.377 16.868l-1.79-.892z"/>
    </g>
    <path fill="#F4F4F4" d="M508.75 135.847c0-9.491 7.691-17.182 17.18-17.182 9.488 0 17.18 7.691 17.182 17.182-.002 9.489-7.693 17.18-17.182 17.18-9.491 0-17.18-7.691-17.18-17.18zm2.001 0c.015 8.384 6.795 15.165 15.179 15.179 8.384-.015 15.167-6.795 15.18-15.179-.013-8.385-6.796-15.167-15.18-15.181-8.384.015-15.164 6.796-15.179 15.181zM541.689 169.829c.002-9.489 7.693-17.181 17.181-17.181 9.489 0 17.181 7.691 17.183 17.181-.002 9.487-7.693 17.179-17.183 17.181-9.487-.002-17.179-7.694-17.181-17.181zm2.002 0c.015 8.384 6.797 15.164 15.179 15.181 8.385-.017 15.166-6.797 15.181-15.181-.015-8.384-6.796-15.166-15.181-15.181-8.382.015-15.164 6.797-15.179 15.181zM507.709 202.771c0-9.49 7.689-17.183 17.18-17.183 9.489 0 17.18 7.692 17.18 17.183h.002c-.002 9.487-7.692 17.18-17.182 17.18-9.491-.001-17.18-7.693-17.18-17.18zm2 0c.015 8.384 6.797 15.164 15.18 15.179 8.385-.015 15.166-6.795 15.179-15.179h.003c-.016-8.387-6.797-15.167-15.182-15.182-8.383.015-15.165 6.795-15.18 15.182zM474.77 168.788c0-9.488 7.689-17.18 17.18-17.18 9.488 0 17.178 7.692 17.178 17.18h.002c-.002 9.488-7.691 17.18-17.18 17.182-9.491-.002-17.18-7.695-17.18-17.182zm2.001 0c.012 8.383 6.795 15.167 15.179 15.181 8.381-.015 15.164-6.798 15.179-15.181-.015-8.383-6.798-15.165-15.179-15.179-8.387.014-15.168 6.795-15.179 15.179zM174.437 297.155v-2.001h5.174a5.766 5.766 0 0 0 5.758-5.76 5.764 5.764 0 0 0-5.758-5.757h-5.174a5.765 5.765 0 0 0-5.759 5.757 5.77 5.77 0 0 0 5.759 5.76v2.001a7.76 7.76 0 0 1 0-15.519h5.174a7.759 7.759 0 0 1 7.759 7.758 7.763 7.763 0 0 1-7.759 7.761h-5.174zM212.074 297.155v-2.001h5.172a5.765 5.765 0 0 0 5.758-5.76 5.763 5.763 0 0 0-5.758-5.757h-5.172a5.766 5.766 0 0 0-5.761 5.757 5.769 5.769 0 0 0 5.761 5.76v2.001a7.762 7.762 0 0 1-7.759-7.761 7.758 7.758 0 0 1 7.759-7.758h5.172a7.757 7.757 0 0 1 7.759 7.758 7.762 7.762 0 0 1-7.759 7.761h-5.172zM382.582 297.155v-2.001h5.175a5.768 5.768 0 0 0 5.758-5.76 5.764 5.764 0 0 0-5.758-5.757h-5.175a5.764 5.764 0 0 0-5.759 5.757 5.769 5.769 0 0 0 5.759 5.76v2.001a7.76 7.76 0 1 1 0-15.519h5.175a7.76 7.76 0 0 1 7.759 7.758 7.763 7.763 0 0 1-7.759 7.761h-5.175zM358.006 297.155v-2.001h5.173a5.766 5.766 0 0 0 5.758-5.76 5.762 5.762 0 0 0-5.758-5.757h-5.173a5.764 5.764 0 0 0-5.761 5.757 5.767 5.767 0 0 0 5.761 5.76v2.001a7.763 7.763 0 0 1-7.761-7.761 7.758 7.758 0 0 1 7.761-7.758h5.173a7.759 7.759 0 0 1 7.759 7.758 7.762 7.762 0 0 1-7.759 7.761h-5.173z"/>
    <circle fill="#F4F4F4" cx="560.803" cy="255.362" r="3.149"/>
    <circle fill="#F4F4F4" cx="34.889" cy="255.408" r="3.149"/>
    <circle fill="#F4F4F4" cx="570.738" cy="229.094" r="3.149"/>
    <path fill="#F4F4F4" d="M110.867 303.635c-3.488-.009-6.423-1.269-8.168-3.02-2.173-2.201-4.784-5.297-7.025-8.009-2.222-2.692-4.152-5.069-4.68-5.552-2.962-2.782-6.878-4.542-11.23-4.542 0 0-28.303.077-37.33.077-1.22 0-2.456-.435-3.282-1.427-18.513-22.505-30.45-65.229-30.478-93.558v-8.168c.028-28.328 11.965-71.053 30.478-93.559.824-.989 2.062-1.426 3.282-1.428 9.027 0 37.33.079 37.328.079 4.354-.002 8.27-1.76 11.232-4.542.527-.485 2.458-2.862 4.68-5.552 2.241-2.711 4.852-5.81 7.025-8.011 1.745-1.751 4.68-3.011 8.168-3.02H485.26c3.488.008 6.423 1.268 8.17 3.02 2.173 2.201 4.782 5.299 7.023 8.011 2.222 2.69 4.152 5.067 4.68 5.552 2.96 2.782 6.878 4.54 11.232 4.542 0 0 28.303-.079 37.33-.079 1.218.002 2.456.438 3.279 1.428 18.516 22.505 30.45 65.23 30.48 93.559v8.168c-.03 28.328-11.965 71.053-30.48 93.558-.823.992-2.062 1.427-3.279 1.427-9.027 0-37.33-.077-37.328-.077-4.356 0-8.274 1.76-11.234 4.542-.527.482-2.458 2.859-4.68 5.552-2.241 2.712-4.851 5.808-7.025 8.009-1.745 1.751-4.68 3.011-8.168 3.02H110.867zm374.393-2c2.99.006 5.477-1.131 6.747-2.425 2.081-2.106 4.678-5.182 6.905-7.878 2.252-2.716 4.057-4.978 4.851-5.735 3.292-3.097 7.701-5.084 12.607-5.084.038 0 28.304.078 37.325.078.751 0 1.4-.28 1.736-.7 18.073-21.86 30.05-64.494 30.021-92.285v-8.168c.029-27.792-11.947-70.425-30.021-92.286-.336-.419-.985-.703-1.736-.7-9.021 0-37.287.077-37.328.077-4.903.002-9.313-1.986-12.604-5.082-.794-.758-2.599-3.02-4.851-5.735-2.228-2.697-4.824-5.774-6.905-7.879-1.271-1.296-3.757-2.432-6.747-2.426H110.867c-2.99-.006-5.476 1.13-6.744 2.426-2.083 2.105-4.68 5.182-6.908 7.879-2.251 2.715-4.056 4.978-4.85 5.735-3.292 3.096-7.702 5.084-12.607 5.082-.036 0-28.303-.077-37.324-.077-.751-.002-1.4.281-1.739.7-18.07 21.86-30.048 64.494-30.02 92.286v8.168c-.028 27.791 11.95 70.425 30.02 92.285.336.42.985.7 1.739.698 9.021.002 37.288-.076 37.328-.076 4.903 0 9.311 1.987 12.603 5.084.794.758 2.599 3.02 4.85 5.735 2.229 2.696 4.825 5.771 6.908 7.878 1.266 1.294 3.754 2.431 6.744 2.425H485.26z"/>
    <path fill="#F4F4F4" d="M126.614 298.96v-2.001h17.356a7.691 7.691 0 0 0 7.68-7.68 7.688 7.688 0 0 0-7.68-7.678l-17.356-.002a7.688 7.688 0 0 0-7.68 7.68 7.687 7.687 0 0 0 7.68 7.68V298.958a9.677 9.677 0 0 1-9.679-9.679c0-5.345 4.333-9.68 9.679-9.68h17.356c5.347 0 9.679 4.335 9.681 9.68a9.683 9.683 0 0 1-9.681 9.681h-17.356zM451.656 298.958v-1.998h17.359a7.694 7.694 0 0 0 7.681-7.681 7.693 7.693 0 0 0-7.681-7.679h-17.359a7.69 7.69 0 0 0-7.677 7.679 7.691 7.691 0 0 0 7.677 7.681v1.998c-5.345 0-9.677-4.332-9.677-9.679 0-5.345 4.332-9.679 9.677-9.679h17.359c5.345 0 9.679 4.332 9.681 9.679-.002 5.347-4.336 9.679-9.681 9.679h-17.359zM413.256 298.959v-2.002l17.357.003a7.693 7.693 0 0 0 7.679-7.68 7.69 7.69 0 0 0-7.679-7.679h-17.357a7.688 7.688 0 0 0-7.681 7.679 7.687 7.687 0 0 0 7.681 7.677v2.002c-5.348 0-9.681-4.333-9.681-9.679a9.68 9.68 0 0 1 9.681-9.68h17.357c5.345 0 9.678 4.333 9.68 9.68-.002 5.346-4.335 9.679-9.68 9.679h-17.357z"/>
</svg>
