<svg version="1.2" baseProfile="tiny" xmlns="http://www.w3.org/2000/svg" width="598.189" height="350.26" xml:space="preserve">
    <path fill="#F4F4F4" d="M146.177 40.312c-48.809 0-88.395 39.583-88.395 88.394 0 48.808 39.584 88.395 88.395 88.395 48.809 0 88.395-39.583 88.395-88.395-.008-48.807-39.587-88.394-88.395-88.394zm0 1.713c47.882 0 86.681 38.795 86.681 86.68 0 47.882-38.795 86.681-86.681 86.681-47.883 0-86.681-38.799-86.681-86.681 0-47.88 38.797-86.68 86.681-86.68z"/>
    <path fill="#F4F4F4" d="M146.177 10.776c-14.385 0-27.405 3.786-37.755 9.345-1.877 1.009-3.052 3.353-4.097 6.32-1.045 2.968-1.875 6.625-2.544 10.309-1.336 7.369-2.094 15.019-2.57 17.218l1.685.375c.564-2.604 1.251-10.025 2.571-17.299.66-3.637 1.471-7.198 2.463-10.015.992-2.816 2.248-4.833 3.321-5.409 10.108-5.429 22.841-9.131 36.925-9.131 14.19 0 27.281 3.327 37.113 9.238 1.636.983 3.057 3.295 4.124 6.346 1.067 3.051 1.792 6.798 2.302 10.47.51 3.671.803 7.274.991 10.122.094 1.424.153 2.656.214 3.615.062.959.098 1.589.187 2.035l1.688-.347c-.031-.154-.1-.848-.161-1.794-.061-.948-.12-2.182-.214-3.615-.19-2.866-.499-6.519-1.018-10.256-.519-3.736-1.254-7.563-2.383-10.791-1.129-3.229-2.606-5.91-4.847-7.257-10.163-6.109-23.538-9.477-37.994-9.477l-.001-.002z"/>
    <path fill="#F4F4F4" d="M146.177 8.5c-8.937 0-17.073 1.168-23.324 3.106h-.053a5.022 5.022 0 0 0-2.651 2.168c-.243.402-.399.795-.509 1.098s-.184.581-.188.589l1.634.536c.057-.172.078-.309.161-.536.083-.228.205-.523.375-.803.333-.549.854-1.1 1.714-1.419.021-.009.032-.02.053-.027 6.026-1.861 14.026-2.999 22.788-2.999 8.607 0 16.481 1.115 22.466 2.918.008.001.02-.002.027 0a4.977 4.977 0 0 1 2.222 1.5c.242.282.403.543.509.75.105.206.134.416.134.214h1.714c0-.442-.149-.655-.321-.991a4.919 4.919 0 0 0-.72-1.098 6.639 6.639 0 0 0-3.025-2.008h-.026C162.96 9.628 154.949 8.5 146.183 8.5h-.006zM452.269 40.312c-48.809 0-88.395 39.583-88.395 88.394 0 48.808 39.584 88.395 88.395 88.395 48.809 0 88.395-39.583 88.395-88.395-.009-48.807-39.588-88.394-88.395-88.394zm0 1.713c47.883 0 86.681 38.795 86.681 86.68 0 47.882-38.795 86.681-86.681 86.681-47.883 0-86.681-38.795-86.681-86.681 0-47.881 38.796-86.68 86.681-86.68z"/>
    <path fill="#F4F4F4" d="M57.812 118.205c-.96 14.776-3.274 52.669-5.355 87.932-1.041 17.635-2.038 34.618-2.758 47.72-.721 13.11-1.178 22.271-1.178 24.532 0 31.678 25.706 57.384 57.383 57.384 10.802 0 18.655-2.999 24.93-8.221 6.274-5.222 10.974-12.604 15.691-21.396 8.933-16.649 19.282-36.637 28.357-53.821 9.074-17.185 16.917-31.636 20.671-37.033 3.798-5.459 7.15-8.669 11.247-10.631 4.097-1.962 9.012-2.679 15.933-2.919 13.863-.478 46.765 0 57.838 0h37.301c11.072 0 43.977-.478 57.839 0 6.921.24 11.836.957 15.933 2.919 4.097 1.963 7.476 5.173 11.273 10.631 3.754 5.396 11.569 19.848 20.645 37.033s19.449 37.172 28.384 53.821c4.718 8.792 9.391 16.174 15.665 21.396s14.128 8.221 24.93 8.221c31.678 0 57.384-25.705 57.384-57.384 0-2.264-.457-11.421-1.179-24.527a12238.72 12238.72 0 0 0-2.73-47.718c-2.082-35.266-4.422-73.161-5.383-87.933l-1.713.134c.96 14.765 3.3 52.646 5.382 87.907 1.04 17.632 2.011 34.614 2.731 47.717s1.178 22.403 1.178 24.421c0 30.752-24.918 55.67-55.67 55.67-10.489 0-17.847-2.84-23.832-7.819-5.983-4.979-10.579-12.186-15.261-20.911-8.926-16.634-19.278-36.576-28.358-53.77-9.079-17.194-16.849-31.57-20.779-37.222-3.889-5.589-7.486-9.098-11.915-11.219-4.431-2.122-9.619-2.838-16.629-3.08-13.994-.482-46.869 0-57.893 0h-37.3c-11.023 0-43.896-.482-57.892 0-7.009.242-12.199.958-16.628 3.08-4.43 2.121-8.027 5.63-11.916 11.219-3.931 5.651-11.7 20.026-20.779 37.222-9.08 17.193-19.434 37.137-28.357 53.77-4.683 8.726-9.279 15.933-15.263 20.911-5.984 4.979-13.342 7.819-23.832 7.819-30.74 0-55.658-24.918-55.658-55.671 0-2.019.458-11.318 1.178-24.421.72-13.102 1.69-30.085 2.731-47.717 2.081-35.264 4.422-73.145 5.382-87.907l-1.714-.134-.014-.005zM452.269 10.776c-14.456 0-27.806 3.369-37.969 9.479-2.243 1.347-3.745 4.028-4.875 7.256-1.128 3.229-1.862 7.055-2.383 10.792-.519 3.737-.828 7.389-1.017 10.256-.095 1.433-.153 2.667-.215 3.615-.061.946-.129 1.64-.16 1.794l1.687.348c.09-.447.127-1.077.188-2.035.063-.959.121-2.192.215-3.615.188-2.848.48-6.451.99-10.122.511-3.671 1.236-7.418 2.303-10.47 1.066-3.052 2.488-5.363 4.124-6.346 9.833-5.911 22.923-9.238 37.113-9.238 14.083 0 26.843 3.702 36.952 9.131 1.072.576 2.303 2.593 3.293 5.409.992 2.816 1.805 6.378 2.465 10.015 1.317 7.273 2.005 14.695 2.57 17.299l1.679-.377c-.477-2.199-1.234-9.849-2.57-17.218-.668-3.685-1.472-7.341-2.517-10.309-1.046-2.968-2.247-5.312-4.124-6.32-10.351-5.559-23.367-9.344-37.754-9.344h.005z"/>
    <path fill="#F4F4F4" d="M452.269 8.5c-8.766 0-16.777 1.128-22.973 2.999h-.026a6.677 6.677 0 0 0-3.025 2.008 5.606 5.606 0 0 0-.724 1.098c-.172.336-.321.549-.321.99h1.714c0 .202.028-.009.134-.214.105-.206.269-.466.509-.75a5.002 5.002 0 0 1 2.223-1.5c.007-.002.019.002.027 0 5.98-1.803 13.854-2.918 22.467-2.918 8.762 0 16.763 1.138 22.788 2.999.017.005.035.021.053.027.861.319 1.382.87 1.714 1.418.17.281.292.576.375.803s.103.362.161.535l1.636-.562a10.036 10.036 0 0 0-.187-.563 5.892 5.892 0 0 0-.516-1.098c-.488-.805-1.318-1.703-2.646-2.168h-.027c-6.255-1.938-14.412-3.106-23.35-3.106h-.006zM207.572 65.054v1.714h183.722v-1.714H207.572zM124.406 59.136c-2.055 0-3.749 1.695-3.749 3.749v37.969l-.134.161H82.526a3.723 3.723 0 0 0-3.722 3.722v43.567a3.723 3.723 0 0 0 3.722 3.722h38.078l.054.054v38.077c0 2.056 1.694 3.748 3.749 3.748h43.539c2.055 0 3.749-1.692 3.749-3.748v-38.023l.08-.107h38.05c2.054 0 3.749-1.667 3.749-3.722v-43.566c0-2.054-1.695-3.722-3.749-3.722h-38.023l-.107-.134V62.885c0-2.055-1.695-3.749-3.749-3.749h-43.54zm0 1.714h43.539a2.03 2.03 0 0 1 2.035 2.035v38.587l.188.241.509.669.268.348h38.881c1.128 0 2.035.88 2.035 2.008v43.567c0 1.129-.907 2.008-2.035 2.008h-38.961l-.241.375-.482.669-.161.214v38.586a2.029 2.029 0 0 1-2.035 2.034h-43.539a2.029 2.029 0 0 1-2.035-2.034v-38.774l-.241-.241-.55-.548-.24-.266H82.539a1.984 1.984 0 0 1-2.008-2.008v-43.566c0-1.128.881-2.009 2.008-2.009h38.854l.268-.348.563-.724.161-.214V62.902a2.03 2.03 0 0 1 2.035-2.035l-.014-.017zM432.45 56.807a3.815 3.815 0 0 0-3.803 3.802v38.826l-.134.161h-38.827a3.816 3.816 0 0 0-3.803 3.803v44.477a3.817 3.817 0 0 0 3.803 3.802h38.881l.08.053v38.935a3.817 3.817 0 0 0 3.803 3.802h44.504a3.816 3.816 0 0 0 3.802-3.802v-38.88l.08-.107h38.882a3.815 3.815 0 0 0 3.802-3.802v-44.476a3.815 3.815 0 0 0-3.802-3.802h-38.854l-.107-.134V60.608a3.817 3.817 0 0 0-3.802-3.803l-44.505.002zm0 1.714h44.504c1.162 0 2.088.925 2.088 2.088v39.442l.188.214.509.696.269.349h39.711c1.162 0 2.088.925 2.088 2.088v44.477a2.076 2.076 0 0 1-2.088 2.089h-39.765l-.269.375-.481.696-.161.214V190.665a2.077 2.077 0 0 1-2.088 2.088H432.45a2.078 2.078 0 0 1-2.089-2.088v-39.63l-.24-.241-.563-.563-.269-.268h-39.604a2.078 2.078 0 0 1-2.089-2.089v-44.477c0-1.162.927-2.088 2.089-2.088h39.684l.241-.348.59-.723.16-.241V60.61a2.078 2.078 0 0 1 2.09-2.089z"/>
    <path fill="#F4F4F4" d="M134.498 78.978c-3.644 0-6.611 2.993-6.611 6.641v14.405c0 1.175.291 2.281.831 3.24l.053.081.081.08 11.407 12.049.026.054.027-.026c1.389 1.716 3.487 2.838 5.864 2.838 2.428 0 4.585-1.188 5.971-2.972l.027.027.054-.081 11.407-12.077.081-.08.053-.134a6.525 6.525 0 0 0 .723-2.999V85.618c0-3.648-2.968-6.641-6.614-6.641h-23.376l-.004.001zm0 1.714h23.376c2.721 0 4.9 2.206 4.9 4.927v14.405c0 .788-.182 1.512-.508 2.169l-11.354 12.022-.027.027-.027.054a5.862 5.862 0 0 1-4.686 2.33c-1.866 0-3.502-.872-4.579-2.222l-.027-.027-.027-.027-11.353-11.97a4.878 4.878 0 0 1-.59-2.356l-.006-14.404c0-2.721 2.18-4.927 4.9-4.927l.008-.001zM146.177 65.349l-.589.616-6.881 6.854-1.446 1.473h17.86l-1.473-1.473-6.855-6.854-.616-.616zm.026 2.436 4.793 4.793h-9.613l4.824-4.793h-.004zM105.288 108.223c-3.646 0-6.641 2.966-6.641 6.614v23.375c0 3.647 2.995 6.615 6.641 6.615h14.406a6.594 6.594 0 0 0 3.24-.856l.08-.027.08-.081 12.05-11.407c.02-.016.034-.038.053-.054a7.568 7.568 0 0 0 2.785-5.891c0-2.428-1.162-4.558-2.945-5.945l.034-.042-.08-.054-12.077-11.407-.107-.081-.107-.053a6.544 6.544 0 0 0-2.999-.723h-14.406l-.007.017zm0 1.714h14.406c.798 0 1.532.2 2.196.535.007.004.019-.004.026 0l11.97 11.3.027.053.053.027a5.788 5.788 0 0 1 2.303 4.66 5.853 5.853 0 0 1-2.195 4.605l-.027.027-.027.027-11.996 11.354a4.782 4.782 0 0 1-2.33.589h-14.406c-2.72 0-4.927-2.18-4.927-4.9v-23.376c0-2.722 2.206-4.901 4.927-4.901zM93.934 117.588l-1.447 1.448-6.881 6.881-.589.589.589.616 6.881 6.855 1.446 1.473v-17.861l.001-.001zm-1.714 4.151v9.56l-3.319-6.212 4.766-4.79-1.447 1.442zM146.177 134.7c-2.428 0-4.584 1.163-5.971 2.945-.016.02-.038.034-.054.054l-11.406 12.104-.08.08-.054.107a6.624 6.624 0 0 0-.723 3.026v14.406c0 3.646 2.967 6.615 6.614 6.615h23.376a6.623 6.623 0 0 0 6.614-6.615v-14.406a6.602 6.602 0 0 0-.856-3.24l-.054-.107-.053-.054-11.407-12.049c-.016-.02-.038-.034-.053-.054a7.598 7.598 0 0 0-5.893-2.812zm0 1.714c1.867 0 3.531.872 4.605 2.222l.027.027.027.027 11.354 12.022c.367.688.589 1.465.589 2.303v14.405c0 2.721-2.18 4.9-4.9 4.9h-23.376a4.881 4.881 0 0 1-4.9-4.9v-14.405c0-.789.181-1.539.509-2.196l11.327-11.996.027-.053.034-.026a5.864 5.864 0 0 1 4.687-2.33h-.01zM137.257 178.752l1.446 1.473 6.881 6.855.589.615.616-.615 6.855-6.855 1.473-1.473h-17.86zm4.124 1.713h9.613l-4.793 4.821-4.82-4.821zM172.689 108.223c-1.175 0-2.281.29-3.24.83l-.107.053-.08.08-12.023 11.407-.053.054c-1.709 1.389-2.812 3.493-2.812 5.864a7.576 7.576 0 0 0 2.946 5.998l.053.026 12.104 11.434.08.081.107.053a6.637 6.637 0 0 0 3.026.723h14.405a6.621 6.621 0 0 0 6.614-6.614v-23.376a6.622 6.622 0 0 0-6.614-6.614l-14.406.001zm0 1.714h14.405c2.72 0 4.9 2.18 4.9 4.9v23.375a4.882 4.882 0 0 1-4.9 4.901h-14.405c-.77 0-1.498-.196-2.143-.509l-12.049-11.354-.053-.027-.027-.026a5.867 5.867 0 0 1-2.329-4.686c0-1.867.872-3.504 2.222-4.58l.027-.027.027-.026 11.916-11.328h.027a4.876 4.876 0 0 1 2.382-.613zM198.421 117.588v17.86l1.473-1.473 6.855-6.855.616-.616-.616-.589-6.855-6.881-1.473-1.446zm1.713 4.124 4.82 4.82-4.82 4.793v-9.613zM257.673 150.715c-2.32 0-4.204 1.911-4.204 4.23v12.157c0 2.321 1.884 4.23 4.204 4.23h20.512c2.017 0 3.633-1.475 4.043-3.374h.161v-13.014c0-2.319-1.884-4.23-4.204-4.23h-20.512v.001zm0 1.714h20.512c1.395 0 2.49 1.125 2.49 2.517v12.157c0 1.395-1.096 2.517-2.49 2.517h-20.512c-1.394 0-2.491-1.122-2.491-2.517v-12.157c.001-1.393 1.097-2.517 2.491-2.517zM324.697 150.715c-2.188 0-3.989 1.802-3.989 3.989v12.8c0 2.188 1.804 3.99 3.989 3.99.567 0 1.093-.162 1.581-.375v.027l.134-.054 21.931-6.721.08-.026.054-.054a3.968 3.968 0 0 0 2.115-3.507 3.99 3.99 0 0 0-2.035-3.481l-.08-.053-.107-.027-22.306-6.266a3.937 3.937 0 0 0-1.367-.242zm0 1.714c.276 0 .534.045.776.134l.027.026h.026l22.253 6.239a2.253 2.253 0 0 1 1.098 1.955c0 .847-.473 1.564-1.152 1.954l-21.957 6.775h-.054l-.053.026a2.198 2.198 0 0 1-.965.242 2.27 2.27 0 0 1-2.275-2.276v-12.8a2.271 2.271 0 0 1 2.276-2.275zM411.833 103.287c-12.334 0-22.359 10.025-22.359 22.36 0 12.333 10.025 22.331 22.359 22.331s22.358-9.998 22.358-22.331c0-12.334-10.024-22.36-22.358-22.36zm0 1.713c11.409 0 20.645 9.237 20.645 20.646 0 11.408-9.235 20.618-20.645 20.618-11.408 0-20.646-9.21-20.646-20.618.001-11.408 9.238-20.646 20.646-20.646zM454.702 146.165c-12.334 0-22.359 10.025-22.359 22.36s10.025 22.359 22.359 22.359 22.359-10.024 22.359-22.359-10.025-22.36-22.359-22.36zm0 1.713c11.408 0 20.646 9.237 20.646 20.646 0 11.407-9.237 20.646-20.646 20.646s-20.646-9.238-20.646-20.646c.001-11.408 9.238-20.646 20.646-20.646zM497.572 103.287c-12.331 0-22.331 10.026-22.331 22.365 0 12.334 9.999 22.332 22.332 22.332 12.334 0 22.359-9.998 22.359-22.332s-10.024-22.359-22.359-22.359l-.001-.006zm0 1.713c11.407 0 20.645 9.237 20.645 20.646 0 11.408-9.237 20.618-20.645 20.618-11.409 0-20.618-9.21-20.618-20.618 0-11.408 9.21-20.646 20.618-20.646zM454.702 60.394c-12.334 0-22.359 10.024-22.359 22.359 0 12.334 10.025 22.359 22.359 22.359s22.359-10.024 22.359-22.359c.001-12.335-10.025-22.359-22.359-22.359zm0 1.714c11.408 0 20.646 9.237 20.646 20.645 0 11.409-9.237 20.646-20.646 20.646s-20.646-9.237-20.646-20.646c.001-11.408 9.238-20.645 20.646-20.645zM222.362 189.942v1.714h153.731v-1.714H222.362z"/>
</svg>
