<svg height="359.811" viewBox="0 0 180 431.773" width="150" xmlns="http://www.w3.org/2000/svg">
    <g fill="#f4f4f4" fill-opacity=".5" stroke-width="1.2">
        <path d="M80.955 427.152q0 .384-.093.647-.138.39-.442.39-.201 0-.422-.093-.266-.112-.291-.275.09 0 .211.032.282.074.352.074.272 0 .41-.272.108-.218.108-.522 0-.214-.14-.61-.138-.4-.138-.558 0-.048.026-.077.028-.032.076-.032.125 0 .244.576.099.487.099.72zM82.187 427.479q0 .326-.189.512-.189.185-.522.185-.182 0-.281-.086-.1-.086-.1-.266 0-.252.33-.508.314-.244.58-.244.121 0 .16.15.022.087.022.257zm-.195.09q0-.039-.01-.074-.006-.039-.026-.087-.05.036-.17.173-.06.07-.105.103 0-.061.013-.1.026-.054.042-.092-.141 0-.295.118-.15.118-.15.256 0 .093.102.093.195 0 .378-.096.22-.115.22-.295zM83.505 427.61q0 .157-.118.352-.135.22-.279.22-.041 0-.07-.044-.026-.048-.026-.093 0-.057.122-.179.125-.125.125-.17 0-.028-.01-.057l-.013-.039q-.24.055-.49.276-.246.22-.374.25-.025-.071-.025-.145 0-.09.041-.189.03-.07.096-.17.112-.169.237-.383l.221-.387q.16-.276.234-.39.038-.058.067-.087.041-.039.099-.051.038.012.054.048.02.035.02.083 0 .109-.141.294-.256.333-.263.346-.144.217-.144.393l.007.032q.176-.086.208-.099.131-.054.224-.054.102 0 .15.07.048.067.048.173zM84.99 427.421q0 .218-.106.464-.115.272-.284.375-.036-.042-.061-.093-.023-.051-.023-.103 0-.054.16-.323.07-.118.064-.208l-.003-.041q-.118.035-.41.214l-.582.358q-.045 0-.083-.032-.035-.035-.035-.076 0-.068.214-.452.064-.115.23-.4.052.068.068.15.016.08.016.193v.073q.294-.176.46-.265.183-.1.25-.1.045 0 .083.103.042.102.042.163zM87.77 428.042q0 .058-.05.09-.048.028-.11.028-.054 0-.137-.012-.189-.03-.243-.03-.096 0-.378.023-.16.013-.23.013-.195 0-.195-.195 0-.186.121-.531.068-.196.253-.64.167-.4.211-.564.016-.05.026-.067.026-.038.064-.038.06 0 .102.09.042.086.042.156 0 .112-.131.378l-.256.515q-.138.3-.138.458 0 .08.067.112.048.022.141.022.07 0 .243-.016.173-.02.23-.02.145 0 .238.042.13.058.13.186zM88.961 427.479q0 .326-.189.512-.188.185-.521.185-.183 0-.282-.086-.099-.086-.099-.266 0-.252.33-.508.313-.244.579-.244.121 0 .16.15.022.087.022.257zm-.195.09q0-.039-.01-.074-.006-.039-.025-.087-.051.036-.17.173-.06.07-.105.103 0-.061.012-.1.026-.054.042-.092-.14 0-.294.118-.15.118-.15.256 0 .093.102.093.195 0 .377-.096.221-.115.221-.295zM90.308 427.412q0 .102-.054.217-.051.115-.131.192l-.003-.045q0-.038.01-.118.009-.08.009-.118 0-.055-.016-.08-.016-.03-.067-.03-.15 0-.375.234l-.483.51q-.02 0-.038-.004l-.064-.016q.01-.115.08-.256.188-.38.195-.406.025-.103.038-.15.013-.049.035-.1.026-.054.058-.096.035-.045.09-.067l.032.384.21-.173q.142-.112.244-.112.102 0 .166.067.064.068.064.167zM91.88 427.04q0 .135-.359.356-.345.21-.502.21-.074 0-.1-.05-.022-.052-.022-.144v-.087q.215 0 .39-.064.177-.064.308-.21-.096-.036-.195-.036-.234 0-.496.18-.288.194-.288.415 0 .211.288.294.044.013.54.09.292.045.292.157 0 .048-.106.077-.106.032-.269.032-.41 0-.646-.125-.314-.167-.314-.535 0-.384.384-.61.327-.193.743-.193.124 0 .227.058.125.07.125.185zM93.153 426.468q0 .07-.17.294-.169.224-.169.342 0 .061.07.122.16.14.16.173 0 .041-.028.08-.026.038-.068.038-.035 0-.099-.038-.045-.026-.173-.125l-.073.14q-.09.17-.122.247l-.096.295q-.083.198-.208.198l-.003-.074q0-.227.147-.537.029-.058.16-.298-.253-.137-.557-.137 0-.119.048-.173.052-.058.17-.058.109 0 .272.039l.16.038q.06-.02.166-.208.26-.454.352-.522.026.042.042.084.02.041.02.08zM94.334 427.61q0 .157-.118.352-.135.22-.279.22-.041 0-.07-.044-.026-.048-.026-.093 0-.057.122-.179.125-.125.125-.17 0-.028-.01-.057l-.013-.039q-.24.055-.49.276-.246.22-.374.25-.025-.071-.025-.145 0-.09.041-.189.029-.07.096-.17.112-.169.237-.383l.22-.387q.16-.276.234-.39.039-.058.068-.087.041-.039.099-.051.038.012.054.048.02.035.02.083 0 .109-.141.294-.256.333-.263.346-.144.217-.144.393l.007.032q.176-.086.208-.099.13-.054.224-.054.102 0 .15.07.048.067.048.173zM96.961 426.567q0 .15-.16.403-.102.16-.336.46-.233.298-.291.391l.24.077q.234.07.234.256-.096.016-.19.029l-.034-.003v-.026q-.052-.013-.084-.013-.06 0-.192.02-.13.019-.198.019-.086 0-.14-.032-.055-.032-.055-.115 0-.068.246-.381.461-.586.464-.592.25-.34.25-.455 0-.044-.032-.067-.029-.022-.119-.022-.06 0-.252.118-.093.058-.15.058l-.055-.01q-.02-.013-.042-.048-.022-.039-.022-.06 0-.135.259-.247.22-.096.384-.096.138 0 .211.102.064.09.064.234zM98.884 427.143q0 .387-.419.685-.384.272-.79.272-.202 0-.32-.103-.119-.102-.119-.297 0-.436.381-.756.362-.304.81-.304.227 0 .342.135.115.134.115.368zm-.195.073q0-.147-.166-.22-.125-.055-.298-.055-.253 0-.528.247-.275.246-.275.496 0 .102.051.147.055.041.163.041.314 0 .653-.172.4-.205.4-.484zM100.35 426.567q0 .15-.16.403-.102.16-.336.46-.234.298-.291.391l.24.077q.233.07.233.256-.096.016-.188.029l-.036-.003v-.026q-.05-.013-.083-.013-.06 0-.192.02-.131.019-.198.019-.087 0-.141-.032-.054-.032-.054-.115 0-.068.246-.381l.464-.592q.25-.34.25-.455 0-.044-.032-.067-.03-.022-.119-.022-.06 0-.253.118-.092.058-.15.058l-.054-.01q-.02-.013-.042-.048-.022-.039-.022-.06 0-.135.259-.247.22-.096.384-.096.137 0 .211.102.064.09.064.234zM101.822 426.567q0 .15-.16.403-.102.16-.336.46-.234.298-.291.391l.24.077q.233.07.233.256-.096.016-.188.029l-.036-.003v-.026q-.05-.013-.083-.013-.06 0-.192.02-.131.019-.198.019-.087 0-.141-.032-.054-.032-.054-.115 0-.068.246-.381l.464-.592q.25-.34.25-.455 0-.044-.032-.067-.03-.022-.119-.022-.06 0-.253.118-.092.058-.15.058l-.054-.01q-.02-.013-.042-.048-.022-.039-.022-.06 0-.135.259-.247.22-.096.384-.096.137 0 .211.102.064.09.064.234z"/>
    </g>
    <g fill="none" stroke="#f4f4f4">
        <path d="M1 331.947V91.27m0 0V1h178v90.176m0 0v240.6M1 91.354V90m178 0v251.773c0 49.306-39.694 89-89 89s-89-39.694-89-89V91.354" stroke-linecap="round" stroke-width="2.4"/>
        <path d="M90.293 266.717c-19.825 0-39.528 8.162-53.547 22.18-14.019 14.019-22.18 33.722-22.18 53.547s8.161 39.528 22.18 53.547c14.019 14.018 33.722 22.18 53.547 22.18s39.528-8.162 53.547-22.18c14.018-14.019 22.18-33.722 22.18-53.547s-8.162-39.528-22.18-53.547c-14.019-14.018-33.722-22.18-53.547-22.18z" stroke-linecap="round"/>
        <g stroke-width="1.2">
            <path d="M165.96 343.8V1.107M14.573 13.146V343.8M179.294 55.972c-5.908-1.28-9.833-.278-13.334 1.073M179.294 49.972c-5.908-1.28-9.833-.278-13.334 1.073M179.294 77.972c-5.908-1.28-9.833-.278-13.334 1.073M179.294 71.972c-5.908-1.28-9.833-.278-13.334 1.073M179.294 99.972c-5.908-1.28-9.833-.278-13.334 1.073M179.294 93.972c-5.908-1.28-9.833-.278-13.334 1.073M179.294 121.972c-5.908-1.28-9.833-.278-13.334 1.073M179.294 115.972c-5.908-1.28-9.833-.278-13.334 1.073M179.294 145.972c-5.908-1.28-9.833-.278-13.334 1.073M179.294 139.972c-5.908-1.28-9.833-.278-13.334 1.073M179.294 167.972c-5.908-1.28-9.833-.278-13.334 1.073M179.294 161.972c-5.908-1.28-9.833-.278-13.334 1.073M179.294 189.972c-5.908-1.28-9.833-.278-13.334 1.073M179.294 183.972c-5.908-1.28-9.833-.278-13.334 1.073M179.294 211.972c-5.908-1.28-9.833-.278-13.334 1.073M179.294 205.972c-5.908-1.28-9.833-.278-13.334 1.073M179.294 237.972c-5.908-1.28-9.833-.278-13.334 1.073M179.294 231.972c-5.908-1.28-9.833-.278-13.334 1.073M179.294 259.972c-5.908-1.28-9.833-.278-13.334 1.073M179.294 253.972c-5.908-1.28-9.833-.278-13.334 1.073M14.664 55.972c-5.908-1.28-9.833-.278-13.333 1.073M14.664 49.972c-5.908-1.28-9.833-.278-13.333 1.073M14.664 77.972c-5.908-1.28-9.833-.278-13.333 1.073M14.664 71.972c-5.908-1.28-9.833-.278-13.333 1.073M14.664 99.972c-5.908-1.28-9.833-.278-13.333 1.073M14.664 93.972c-5.908-1.28-9.833-.278-13.333 1.073M14.664 121.972c-5.908-1.28-9.833-.278-13.333 1.073M14.664 115.972c-5.908-1.28-9.833-.278-13.333 1.073M14.664 145.972c-5.908-1.28-9.833-.278-13.333 1.073M14.664 139.972c-5.908-1.28-9.833-.278-13.333 1.073M14.664 167.972c-5.908-1.28-9.833-.278-13.333 1.073M14.664 161.972c-5.908-1.28-9.833-.278-13.333 1.073M14.664 189.972c-5.908-1.28-9.833-.278-13.333 1.073M14.664 183.972c-5.908-1.28-9.833-.278-13.333 1.073M14.664 211.972c-5.908-1.28-9.833-.278-13.333 1.073M14.664 205.972c-5.908-1.28-9.833-.278-13.333 1.073M14.664 237.972c-5.908-1.28-9.833-.278-13.333 1.073M14.664 231.972c-5.908-1.28-9.833-.278-13.333 1.073M14.664 259.972c-5.908-1.28-9.833-.278-13.333 1.073M14.664 253.972c-5.908-1.28-9.833-.278-13.333 1.073M14.573 13.146 14.543.843"/>
        </g>
        <g stroke-linecap="round" stroke-width="2.4" transform="translate(-355.02 -221.1)">
            <rect height="38.671" rx="7.381" width="129.852" x="380.089" y="293.544"/>
            <circle cx="403.887" cy="403.981" r="23"/>
            <circle cx="485.887" cy="403.981" r="23"/>
            <circle cx="445.577" cy="563.554" r="64"/>
            <path d="M445.776 506.067c-19.039 0-37.514 10.754-34.366 23.706 5.159 21.226 8.967 42.755 0 67.145-4.68 12.73 15.327 23.706 34.366 23.706m0-114.557c19.038 0 37.513 10.754 34.365 23.706-5.158 21.226-8.967 42.755 0 67.145 4.68 12.73-15.327 23.706-34.365 23.706"/>
            <circle cx="445.42" cy="563.398" r="16.5"/>
        </g>
    </g>
</svg>
