<svg xmlns="http://www.w3.org/2000/svg" width="598.189" height="350.26" xml:space="preserve">
    <path fill="#F4F4F4" d="M58.296 111.342a2.003 2.003 0 0 1-2.005-2.005V86.56c0-1.107.897-2.005 2.005-2.005h22.776c1.108 0 2.005.897 2.005 2.005v22.776a2.004 2.004 0 0 1-2.005 2.005H58.296v.001zm-.007-24.782v22.776l.006.006h22.776l.006-.006h-.002l.002-22.776-.006-.006H58.296l-.007.006zM86.065 111.342a2.006 2.006 0 0 1-2.005-2.005V86.56a2.006 2.006 0 0 1 2.005-2.005h22.778a2.007 2.007 0 0 1 2.005 2.005v22.776a2.004 2.004 0 0 1-2.005 2.005H86.065v.001zm-.004-24.782v22.776l.004.006h22.778l.006-.006h-.002l.002-22.776-.006-.006H86.065l-.004.006zM113.837 111.342a2.005 2.005 0 0 1-2.005-2.005V86.56c0-1.107.897-2.005 2.005-2.005h22.778c1.106 0 2.003.897 2.005 2.005v22.776h-.002a2.003 2.003 0 0 1-2.003 2.005h-22.778v.001zm-.004-24.782-.002 22.776.006.006h22.778l.004-.006V86.56l-.004-.006h-22.778s-.006.006-.004.006zM141.609 111.342a2.005 2.005 0 0 1-2.005-2.005V86.56c0-1.107.898-2.005 2.005-2.005h22.776c1.107 0 2.005.897 2.005 2.005v22.776a2.004 2.004 0 0 1-2.005 2.005h-22.776v.001zm-.007-24.782v22.776l.006.006h22.776l.006-.006h-.002l.002-22.776-.006-.006h-22.776l-.006.006zM169.38 111.342a2.006 2.006 0 0 1-2.007-2.005V86.56c0-1.107.899-2.005 2.007-2.005h22.776c1.108 0 2.005.897 2.005 2.005v22.776a2.005 2.005 0 0 1-2.005 2.005H169.38v.001zm-.006-24.782v22.776l.006.006h22.776l.004-.006V86.56l-.004-.006H169.38l-.006.006zM197.15 111.342a2.005 2.005 0 0 1-2.005-2.005V86.56c0-1.107.897-2.005 2.005-2.005h22.776a2.008 2.008 0 0 1 2.007 2.005v22.776a2.005 2.005 0 0 1-2.007 2.005H197.15v.001zm-.004-24.782v22.776l.004.006h22.776l.006-.006V86.56l-.006-.006H197.15l-.004.006zM224.922 111.342a2.006 2.006 0 0 1-2.006-2.005l.002-22.777c0-1.108.897-2.005 2.004-2.005H247.7c1.107 0 2.004.897 2.004 2.005v22.777a2.005 2.005 0 0 1-2.004 2.005h-22.778zm22.777-1.999.004-.006V86.56l-.004-.004h-22.778l-.006.004v22.777s.006.006.006.004l22.778.002zM252.693 111.341a2.004 2.004 0 0 1-2.005-2.003V86.561c0-1.107.898-2.005 2.005-2.005h22.777c1.107 0 2.003.898 2.003 2.005v22.777a2.006 2.006 0 0 1-2.003 2.005l-22.777-.002zm-.006-24.78v22.777l.006.004h22.777l.004-.004V86.561l-.004-.006h-22.777l-.006.006zM280.463 111.342a2.007 2.007 0 0 1-2.006-2.004l.002-22.777c0-1.109.897-2.006 2.004-2.006h22.777a2.008 2.008 0 0 1 2.006 2.006v22.777a2.008 2.008 0 0 1-2.006 2.004h-22.777zm-.004-24.781v22.777l.004.004h22.777l.006-.004V86.561l-.006-.006h-22.777l-.004.006zM308.234 111.342a2.005 2.005 0 0 1-2.005-2.004V86.56c0-1.109.898-2.005 2.005-2.005h22.777c1.106 0 2.005.896 2.007 2.005v22.777h-.002a2.003 2.003 0 0 1-2.005 2.004h-22.777v.001zm-.004-24.782-.002 22.777.006.004h22.777l.007-.004h-.002l.002-22.777s-.007-.006-.007-.004l-22.777-.002s-.006.006-.004.006zM336.008 111.341a2.005 2.005 0 0 1-2.008-2.005V86.561a2.01 2.01 0 0 1 2.008-2.007l22.775.002a2.009 2.009 0 0 1 2.005 2.005v22.776h-.002a2.005 2.005 0 0 1-2.003 2.007l-22.775-.003zm-.007-24.78-.002 22.776.009.006h22.775l.004-.006V86.561l-.004-.006h-22.775c0-.001-.009.006-.007.006zM363.778 111.342a2.008 2.008 0 0 1-2.008-2.006l.002-22.775a2.01 2.01 0 0 1 2.006-2.007l22.775.002c1.107 0 2.005.896 2.007 2.005v22.775h-.002a2.005 2.005 0 0 1-2.005 2.006h-22.775zm-.007-24.781v22.775l.007.006h22.775l.006-.006V86.561l-.006-.006h-22.775l-.007.006zM100.64 139.056a2.005 2.005 0 0 1-2.006-2.005v-22.776c0-1.107.899-2.006 2.006-2.006h22.778c1.107 0 2.004.898 2.004 2.006v22.776a2.003 2.003 0 0 1-2.004 2.005H100.64zm-.006-24.782v22.776l.006.006h22.778l.004-.006v-22.776s-.004-.006-.004-.004l-22.778-.002-.006.006zM128.41 139.056a2.003 2.003 0 0 1-2.004-2.005v-22.776c0-1.107.896-2.006 2.004-2.006h22.778a2.01 2.01 0 0 1 2.006 2.006v22.776a2.007 2.007 0 0 1-2.006 2.005H128.41zm-.004-24.782v22.776l.004.006h22.778l.006-.006h-.002l.002-22.776s-.006-.006-.006-.004l-22.778-.002-.004.006zM156.182 139.056a2.005 2.005 0 0 1-2.006-2.005v-22.776c0-1.107.899-2.006 2.006-2.006h22.776c1.107 0 2.006.898 2.006 2.006v22.776a2.004 2.004 0 0 1-2.006 2.005h-22.776zm-.005-24.782v22.776l.006.006h22.776l.006-.006v-22.776s-.006-.006-.006-.004l-22.776-.002-.006.006zM183.953 139.056a2.006 2.006 0 0 1-2.006-2.005l.002-22.776c0-1.107.896-2.006 2.004-2.006h22.778c1.107 0 2.004.898 2.004 2.006v22.776a2.003 2.003 0 0 1-2.004 2.005h-22.778zm-.005-24.782v22.776l.004.006h22.778l.004-.006v-22.776s-.004-.006-.004-.004l-22.778-.002-.004.006zM211.725 139.056a2.005 2.005 0 0 1-2.006-2.005v-22.776c0-1.107.899-2.006 2.006-2.006h22.776c1.107 0 2.006.898 2.006 2.006v22.776a2.004 2.004 0 0 1-2.006 2.005h-22.776zm-.006-24.782v22.776l.006.006h22.776l.006-.006v-22.776s-.006-.006-.006-.004l-22.776-.002-.006.006zM239.495 139.055a2.003 2.003 0 0 1-2.004-2.004v-22.778c0-1.107.897-2.004 2.004-2.006l22.777.002c1.107 0 2.004.896 2.006 2.004v22.778h-.002a2.006 2.006 0 0 1-2.004 2.006l-22.777-.002zm-.004-24.782v22.778l.004.004h22.777l.006-.004h-.002l.002-22.778s-.006-.006-.006-.004l-22.777-.002-.004.006zM267.266 139.056a2.005 2.005 0 0 1-2.005-2.005v-22.777c0-1.107.898-2.005 2.005-2.005h22.777c1.109 0 2.004.897 2.006 2.005v22.777h-.002a2.004 2.004 0 0 1-2.004 2.005h-22.777zm22.777-1.999.006-.006v-22.777s-.006-.006-.006-.004l-22.777-.002-.004.006v22.777s.004.006.004.004l22.777.002zM295.039 139.057a2.007 2.007 0 0 1-2.007-2.005l.002-22.778c0-1.107.896-2.005 2.005-2.005h22.776a2.009 2.009 0 0 1 2.005 2.005v22.778h-.002a2.005 2.005 0 0 1-2.003 2.005h-22.776zm-.006-24.784v22.778l.006.004h22.776l.004-.004v-22.778l-.004-.004h-22.776l-.006.004zM322.808 139.055a2.007 2.007 0 0 1-2.006-2.004l.002-22.777c0-1.108.897-2.006 2.004-2.006h22.778a2.01 2.01 0 0 1 2.007 2.006v22.777h-.003a2.006 2.006 0 0 1-2.004 2.006l-22.778-.002zm22.779-1.997.005-.006v-22.777l-.005-.006h-22.778s-.006.006-.004.006l-.002 22.777s.006.006.006.004l22.778.002zM350.578 139.056a2.004 2.004 0 0 1-2.004-2.004v-22.776c0-1.108.898-2.006 2.004-2.006h22.779c1.107 0 2.004.898 2.006 2.006v22.776h-.002a2.002 2.002 0 0 1-2.004 2.004h-22.779zm-.004-24.781v22.776l.004.004h22.779l.006-.004h-.002l.002-22.776-.006-.006h-22.779l-.004.006zM378.351 139.055a2.01 2.01 0 0 1-2.007-2.005l.002-22.776a2.01 2.01 0 0 1 2.005-2.007l22.775.002a2.01 2.01 0 0 1 2.007 2.005v22.776h-.002a2.01 2.01 0 0 1-2.005 2.007l-22.775-.002zm-.005-24.781-.002 22.776.007.006h22.775l.007-.006h-.002l.002-22.776-.007-.006h-22.775s-.007.006-.005.006zM406.122 139.055a2.007 2.007 0 0 1-2.007-2.003l.002-22.777c0-1.109.898-2.005 2.005-2.005h22.777c1.107 0 2.005.896 2.008 2.005v22.777h-.003a2.006 2.006 0 0 1-2.005 2.005l-22.777-.002zm-.006-24.781v22.777l.006.004h22.777l.006-.004v-22.777l-.006-.006h-22.777l-.006.006zM107.526 166.77a2.007 2.007 0 0 1-2.006-2.004l.002-22.778c0-1.107.897-2.004 2.004-2.004h22.778c1.107 0 2.004.897 2.004 2.004v22.778a2.004 2.004 0 0 1-2.004 2.004h-22.778zm22.777-1.999.004-.006v-22.778s-.004-.006-.004-.004l-22.778-.002-.006.006v22.778s.006.006.006.004l22.778.002zM135.296 166.77a2.004 2.004 0 0 1-2.004-2.004v-22.778c0-1.107.897-2.004 2.004-2.004h22.778c1.107 0 2.006.897 2.006 2.004v22.778a2.005 2.005 0 0 1-2.006 2.004h-22.778zm22.777-1.999.006-.006v-22.778s-.006-.006-.006-.004l-22.778-.002-.004.006v22.778s.004.006.004.004l22.778.002zM163.068 166.77a2.007 2.007 0 0 1-2.007-2.004l.002-22.778c0-1.107.895-2.004 2.004-2.004h22.777c1.107 0 2.004.897 2.004 2.004v22.778a2.004 2.004 0 0 1-2.004 2.004h-22.776zm22.777-1.999.004-.006v-22.778s-.004-.006-.004-.004l-22.777-.002s-.006.006-.004.006l-.002 22.778s.006.006.006.004l22.777.002zM190.84 166.77a2.004 2.004 0 0 1-2.006-2.004v-22.778c0-1.107.897-2.004 2.006-2.004h22.778c1.107 0 2.002.897 2.004 2.004v22.778h-.002a2.002 2.002 0 0 1-2.002 2.004H190.84zm22.778-1.999.004-.006h-.002l.002-22.778s-.004-.006-.004-.004l-22.778-.002-.006.006v22.778s.006.006.006.004l22.778.002zM218.61 166.77a2.007 2.007 0 0 1-2.006-2.004l.002-22.778c0-1.107.897-2.004 2.004-2.004h22.778c1.107 0 2.004.897 2.004 2.004v22.778a2.004 2.004 0 0 1-2.004 2.004H218.61zm22.778-1.999.004-.006v-22.778s-.004-.006-.004-.004l-22.778-.002-.006.006v22.778s.006.006.006.004l22.778.002zM246.38 166.77a2.004 2.004 0 0 1-2.004-2.004v-22.778c0-1.107.897-2.004 2.004-2.004h22.778c1.107 0 2.006.897 2.006 2.004v22.778a2.005 2.005 0 0 1-2.006 2.004H246.38zm22.778-1.999.006-.006v-22.778s-.006-.006-.006-.004l-22.778-.002-.004.006v22.778s.004.006.004.004l22.778.002zM274.152 166.769a2.002 2.002 0 0 1-2.004-2.004v-22.776c0-1.108.896-2.006 2.004-2.006h22.778c1.108 0 2.004.898 2.004 2.006v22.776a2.005 2.005 0 0 1-2.004 2.006l-22.778-.002zm-.004-24.78v22.776l.004.006h22.778l.004-.006v-22.776l-.004-.006h-22.778l-.004.006zM301.925 166.77a2.01 2.01 0 0 1-2.007-2.005v-22.776a2.008 2.008 0 0 1 2.007-2.005h22.776c1.107 0 2.003.897 2.005 2.005v22.776h-.002a2.004 2.004 0 0 1-2.003 2.005h-22.776zm22.776-1.999.004-.006v-22.776l-.004-.006h-22.776l-.007.006v22.776s.007.006.007.004l22.776.002zM329.695 166.769a2.005 2.005 0 0 1-2.006-2.003v-22.777c0-1.109.898-2.005 2.006-2.005h22.775a2.012 2.012 0 0 1 2.007 2.005v22.777h-.002a2.01 2.01 0 0 1-2.005 2.006l-22.775-.003zm-.006-24.781v22.777l.006.004h22.775l.006-.004v-22.777l-.006-.006h-22.775l-.006.006zM357.465 166.771a2.005 2.005 0 0 1-2.004-2.006v-22.777c0-1.107.896-2.004 2.004-2.006l22.778.002c1.107 0 2.005.895 2.005 2.004v22.777a2.006 2.006 0 0 1-2.005 2.006h-22.778zm-.004-24.783v22.777l.004.006h22.778l.005-.006v-22.777s-.005-.006-.005-.004l-22.778-.002-.004.006zM385.237 166.77a2.009 2.009 0 0 1-2.007-2.004l.002-22.776c0-1.108.896-2.004 2.005-2.006h22.776c1.106 0 2.004.898 2.004 2.006v22.776a2.003 2.003 0 0 1-2.004 2.004h-22.776zm22.776-1.999.006-.006h-.002l.002-22.776-.006-.006h-22.776l-.006.006v22.776s.006.006.006.004l22.776.002z"/>
    <path fill="#F4F4F4" d="M413.008 167.114a2.006 2.006 0 0 1-2.006-2.005v-22.777c0-1.108.899-2.005 2.006-2.005h17.685c.683-.048.639-.069.83-.344.19-.324.355-1.251.352-2.758h-.002l.002-22.779c0-1.107.897-2.004 2.006-2.006l22.777.002c.547-.021 1.138.285 1.421.717.293.426.366.872.371 1.287l-.003 50.664a2.005 2.005 0 0 1-2.005 2.005h-43.434v-.001zm-.006-24.782v22.777l.006.004h43.434s.006-.004.004-.004l.002-50.664v-.004H433.88l-.007.004v22.779h-.999l.999.002c-.019 1.616-.104 2.741-.58 3.687-.476.995-1.604 1.463-2.601 1.413h-17.685l-.005.006zM121.297 194.482a2.003 2.003 0 0 1-2.005-2.003v-22.778c0-1.108.898-2.005 2.005-2.007l22.778.002c1.107 0 2.003.896 2.003 2.005v22.778a2.006 2.006 0 0 1-2.003 2.006l-22.778-.003zm22.778-1.998.004-.005v-22.778l-.004-.006h-22.778l-.006.006v22.778s.006.005.006.003l22.778.002zM58.294 194.482a2.004 2.004 0 0 1-2.005-2.003v-22.778c0-1.108.898-2.005 2.005-2.005h57.894c1.106 0 2.005.896 2.005 2.005v22.778a2.01 2.01 0 0 1-2.005 2.006l-57.894-.003zm57.894-1.998.004-.005v-22.778s-.004-.006-.004-.004l-57.894-.002-.004.006v22.778s.004.005.004.003l57.894.002zM149.068 194.482a2.003 2.003 0 0 1-2.005-2.003v-22.778c0-1.108.896-2.005 2.005-2.007l22.776.002c1.109 0 2.005.896 2.007 2.005v22.778h-.002a2.007 2.007 0 0 1-2.005 2.006l-22.776-.003zm22.776-1.998.006-.005v-22.778l-.006-.006h-22.776s-.006.006-.004.006l-.002 22.778s.006.005.006.003l22.776.002zM176.84 194.482a2.005 2.005 0 0 1-2.007-2.003l.002-22.778c0-1.108.896-2.005 2.005-2.007l22.776.002c1.108 0 2.005.896 2.005 2.005v22.778a2.007 2.007 0 0 1-2.005 2.006l-22.776-.003zm22.776-1.998.004-.005v-22.778l-.004-.006H176.84l-.006.006v22.778s.006.005.006.003l22.776.002zM204.611 194.482a2.005 2.005 0 0 1-2.007-2.003v-22.778c0-1.108.898-2.005 2.007-2.007l22.776.002c1.108 0 2.005.896 2.005 2.005v22.778a2.008 2.008 0 0 1-2.005 2.006l-22.776-.003zm22.776-1.998.004-.005v-22.778l-.004-.006h-22.776l-.006.006v22.778s.006.005.006.003l22.776.002zM232.38 194.482a2.006 2.006 0 0 1-2.005-2.003v-22.778a2.01 2.01 0 0 1 2.005-2.007l22.779.002a2.007 2.007 0 0 1 2.005 2.005v22.778a2.01 2.01 0 0 1-2.005 2.006l-22.779-.003zm22.779-1.998.004-.005v-22.778l-.004-.006H232.38l-.004.006v22.778s.004.005.004.003l22.779.002zM260.152 194.482a2.004 2.004 0 0 1-2.005-2.003v-22.778c0-1.108.896-2.005 2.005-2.007l22.776.002c1.109 0 2.007.896 2.007 2.005v22.778a2.01 2.01 0 0 1-2.007 2.006l-22.776-.003zm22.776-1.998.006-.005v-22.778l-.006-.006h-22.776l-.004.006v22.778s.004.005.004.003l22.776.002zM287.923 194.482a2.003 2.003 0 0 1-2.005-2.003v-22.778c0-1.108.896-2.005 2.005-2.007l22.779.002c1.106.002 2 .898 2.003 2.005v22.778a2.006 2.006 0 0 1-2.003 2.006l-22.779-.003zm22.779-1.998.004-.005h-.002l.002-22.778-.004-.006h-22.779s-.006.006-.004.006l-.002 22.778s.006.005.006.003l22.779.002zM315.694 194.483a2.003 2.003 0 0 1-2.005-2.004v-22.778a2.007 2.007 0 0 1 2.005-2.006h22.779c1.107 0 2 .899 2.004 2.006v22.778h-.002a2.003 2.003 0 0 1-2.002 2.004h-22.779zm-.005-24.781v22.778l.005.004h22.779l.004-.004h-.002l.002-22.778-.004-.006h-22.779l-.005.006zM343.466 194.482a2.005 2.005 0 0 1-2.007-2.003l.002-22.777c0-1.109.897-2.007 2.005-2.007h22.777a2.01 2.01 0 0 1 2.005 2.007v22.777h-.002a2.006 2.006 0 0 1-2.003 2.005l-22.777-.002zm-.006-24.78v22.777l.006.004h22.777l.005-.004v-22.777l-.005-.006h-22.777l-.006.006zM371.235 194.483a2.007 2.007 0 0 1-2.006-2.004v-22.777c0-1.108.899-2.007 2.006-2.007h22.779c1.106 0 2.003.899 2.005 2.007v22.777h-.002a2.004 2.004 0 0 1-2.003 2.004h-22.779zm22.779-1.999.004-.005v-22.777s-.004-.008-.004-.006l-22.779-.002-.004.008v22.777s.004.005.004.003l22.779.002zM399.009 194.483a2.006 2.006 0 0 1-2.008-2.004l.003-22.777c0-1.108.896-2.005 2.005-2.008h56.859a2.01 2.01 0 0 1 2.006 2.008v22.777h-.003a2.004 2.004 0 0 1-2.003 2.004h-56.859zm-.006-24.78-.002 22.777.008.005h56.859l.004-.005v-22.777l-.004-.006h-56.859c0-.001-.008.006-.006.006zM462.295 111.342a2.005 2.005 0 0 1-2.006-2.004V86.56c0-1.108.897-2.004 2.006-2.006h22.777a2.01 2.01 0 0 1 2.006 2.006v22.777h-.002a2.004 2.004 0 0 1-2.004 2.004h-22.777v.001zm-.006-24.782v22.777l.006.004h22.777l.007-.004h-.003l.003-22.777-.007-.006h-22.777l-.006.006zM489.32 111.341a2.005 2.005 0 0 1-2.006-2.004l.002-22.777a2.008 2.008 0 0 1 2.004-2.006l22.777.002c1.105 0 2.004.896 2.006 2.004v22.777h-.002a2.006 2.006 0 0 1-2.004 2.006l-22.777-.002zm22.777-1.998.006-.006h-.002l.002-22.777s-.006-.006-.006-.004l-22.777-.002s-.006.006-.004.006l-.002 22.777s.006.006.006.004l22.777.002zM516.518 111.341a2.007 2.007 0 0 1-2.008-2.004l.002-22.777c0-1.109.897-2.004 2.006-2.006l22.777.002c1.106 0 2.004.896 2.006 2.004v22.777h-.001a2.005 2.005 0 0 1-2.004 2.006l-22.778-.002zm-.006-24.781-.002 22.777.008.006h22.777l.006-.006h-.001l.002-22.777s-.006-.006-.006-.004l-22.777-.002c-.001 0-.009.006-.007.006zM462.295 139.057a2.007 2.007 0 0 1-2.006-2.006v-22.777c0-1.108.897-2.004 2.006-2.004h22.777c1.106 0 2.004.896 2.006 2.004v22.777h-.002a2.006 2.006 0 0 1-2.004 2.006h-22.777zm-.006-24.784v22.777l.006.006h22.777l.007-.006h-.003l.003-22.777-.007-.004h-22.777l-.006.004zM489.32 139.055a2.007 2.007 0 0 1-2.006-2.004l.002-22.777a2.01 2.01 0 0 1 2.004-2.007l22.777.002c1.105 0 2.004.896 2.006 2.004v22.777h-.002a2.007 2.007 0 0 1-2.004 2.006l-22.777-.001zm22.777-1.998.006-.006h-.002l.002-22.777s-.006-.006-.006-.004l-22.777-.002s-.006.006-.004.006l-.002 22.777s.006.006.006.004l22.777.002zM516.518 139.056a2.008 2.008 0 0 1-2.008-2.004l.002-22.776c0-1.109.897-2.007 2.006-2.007h22.777c1.106 0 2.004.897 2.006 2.007v22.776h-.001a2.004 2.004 0 0 1-2.004 2.004h-22.778zm-.006-24.781-.002 22.776.008.004h22.777l.006-.004h-.001l.002-22.776-.006-.006h-22.777c-.001 0-.009.006-.007.006zM462.295 166.77a2.005 2.005 0 0 1-2.006-2.004v-22.777c0-1.108.897-2.006 2.006-2.006h22.777c1.106 0 2.004.898 2.006 2.006v22.777h-.002a2.004 2.004 0 0 1-2.004 2.004h-22.777zm-.006-24.782v22.777l.006.004h22.777l.007-.004h-.003l.003-22.777-.007-.006h-22.777l-.006.006zM489.32 166.771a2.011 2.011 0 0 1-2.006-2.007l.002-22.777a2.007 2.007 0 0 1 2.004-2.004h22.777c1.105 0 2.004.896 2.006 2.004v22.777h-.002a2.006 2.006 0 0 1-2.004 2.007H489.32zm-.004-24.784-.002 22.777.006.006h22.777l.006-.006h-.002l.002-22.777s-.006-.006-.006-.004l-22.777-.002s-.006.006-.004.006zM516.518 166.77a2.008 2.008 0 0 1-2.008-2.004l.002-22.778c0-1.107.897-2.004 2.006-2.004h22.777c1.106 0 2.004.897 2.006 2.004v22.778h-.001a2.004 2.004 0 0 1-2.004 2.004h-22.778zm-.006-24.783-.002 22.778.008.004h22.777l.006-.004h-.001l.002-22.778-.006-.004h-22.777l-.007.004zM462.295 194.482a2.005 2.005 0 0 1-2.006-2.004v-22.777c0-1.108.897-2.004 2.006-2.006h22.777a2.01 2.01 0 0 1 2.006 2.006v22.777h-.002a2.005 2.005 0 0 1-2.004 2.006l-22.777-.002zm22.777-1.998.007-.006h-.003l.003-22.777-.007-.006h-22.777l-.006.006v22.777s.006.006.006.004l22.777.002zM489.32 194.482a2.004 2.004 0 0 1-2.006-2.002l.002-22.779a2.007 2.007 0 0 1 2.004-2.006l22.777.002c1.105 0 2.004.897 2.006 2.004v22.779h-.002a2.006 2.006 0 0 1-2.004 2.004l-22.777-.002zm22.777-1.998.006-.004h-.002l.002-22.779s-.006-.006-.006-.004l-22.777-.002s-.006.006-.004.006l-.002 22.779s.006.004.006.002l22.777.002zM516.518 194.482a2.007 2.007 0 0 1-2.008-2.002l.002-22.779c0-1.109.897-2.006 2.006-2.006h22.777c1.106 0 2.004.897 2.006 2.006v22.779h-.001a2.006 2.006 0 0 1-2.004 2.004l-22.778-.002zm22.778-1.998.006-.004h-.002l.002-22.779-.006-.006h-22.777s-.008.006-.006.006l-.002 22.779s.008.004.008.002l22.777.002zM462.295 222.197a2.005 2.005 0 0 1-2.006-2.004v-22.777a2.008 2.008 0 0 1 2.006-2.006h22.777a2.008 2.008 0 0 1 2.006 2.006v22.777h-.002a2.003 2.003 0 0 1-2.004 2.004h-22.777zm-.006-24.781v22.777l.006.004h22.777l.007-.004h-.003l.003-22.777-.007-.006h-22.777l-.006.006zM489.32 222.196a2.008 2.008 0 0 1-2.006-2.003l.002-22.778c0-1.108.895-2.005 2.004-2.005h22.777c1.107 0 2.004.896 2.006 2.005v22.778h-.002a2.006 2.006 0 0 1-2.004 2.005l-22.777-.002zm22.777-1.998.006-.005h-.002l.002-22.778-.006-.005H489.32s-.006.005-.004.005l-.002 22.778s.006.005.006.003l22.777.002zM516.518 222.197a2.007 2.007 0 0 1-2.008-2.003l.002-22.778c0-1.109.897-2.005 2.006-2.007l22.777.002c1.106 0 2.004.896 2.006 2.005v22.778h-.001a2.003 2.003 0 0 1-2.004 2.003h-22.778zm22.778-1.998.006-.005h-.002l.002-22.778s-.006-.007-.006-.004l-22.777-.003s-.008.007-.006.007l-.002 22.778s.008.005.008.002l22.777.003zM391.548 111.342a2.006 2.006 0 0 1-2.006-2.006V86.56c0-1.107.899-2.004 2.006-2.006l22.777.002a2.01 2.01 0 0 1 2.006 2.004v22.777h-.002a2.004 2.004 0 0 1-2.004 2.006h-22.777v-.001zm-.006-24.782v22.777l.006.006h22.777l.006-.006h-.002l.002-22.777-.006-.004h-22.777l-.006.004zM420.294 111.343a2.008 2.008 0 0 1-2.006-2.005V86.56c0-1.108.899-2.006 2.006-2.006h36.205a2.01 2.01 0 0 1 2.005 2.006v22.777h-.002a2.004 2.004 0 0 1-2.003 2.005h-36.205v.001zm-.005-24.783-.002 22.777.007.004h36.205l.004-.004V86.56s-.004-.006-.004-.004l-36.205-.002s-.007.006-.005.006zM413.065 222.196a2.005 2.005 0 0 1-2.008-2.002l.002-22.779c0-1.108.896-2.003 2.006-2.006l43.434.003c1.108 0 2.003.896 2.005 2.003v22.779h-.002c0 1.106-.896 2-2.003 2.004l-43.434-.002zm43.434-1.997.004-.005v-22.779s-.004-.006-.004-.004l-43.434-.002-.007.006v22.779s.007.005.007.002l43.434.003zM58.296 222.196a2.004 2.004 0 0 1-2.006-2.002v-22.778c0-1.108.897-2.006 2.006-2.006h41.367c1.108 0 2.005.897 2.005 2.006v22.778a2.006 2.006 0 0 1-2.005 2.004l-41.367-.002zm41.367-1.997.006-.005v-22.778s-.006-.007-.006-.004l-41.367-.003-.006.007v22.778s.006.005.006.002l41.367.003zM58.295 166.77a2.005 2.005 0 0 1-2.005-2.004v-22.778c0-1.107.897-2.004 2.005-2.004h43.434c1.109 0 2.006.897 2.006 2.004v22.778a2.004 2.004 0 0 1-2.006 2.004H58.295zm43.433-1.999.006-.006v-22.778s-.006-.006-.006-.004l-43.434-.002-.004.006v22.778s.004.006.004.004l43.434.002zM58.295 139.056a2.005 2.005 0 0 1-2.006-2.003v-22.778c0-1.107.898-2.006 2.006-2.006h37.236c1.107 0 2.006.898 2.006 2.006v22.778a2.004 2.004 0 0 1-2.006 2.003H58.295zm-.004-24.782-.002 22.778.006.004h37.236l.006-.004v-22.778s-.006-.006-.006-.004l-37.236-.002s-.006.006-.004.006zM370.029 222.196a2.006 2.006 0 0 1-2.006-2.003l.002-22.779c0-1.106.897-2.004 2.004-2.004H408.3c1.109 0 2.003.897 2.005 2.004v22.779h-.002a2.007 2.007 0 0 1-2.003 2.005l-38.271-.002zm-.004-24.782-.002 22.779.006.005H408.3l.005-.005h-.002l.002-22.779-.005-.004h-38.271s-.006.004-.004.004zM104.943 222.196a2.005 2.005 0 0 1-2.007-2.002l.002-22.778c0-1.108.897-2.006 2.005-2.006h40.335c1.108 0 2.004.897 2.006 2.006v22.778h-.002a2.006 2.006 0 0 1-2.004 2.004l-40.335-.002zm40.335-1.997.004-.005v-22.778s-.004-.007-.004-.004l-40.335-.003-.006.007v22.778s.006.005.006.002l40.335.003zM150.387 222.198a2.006 2.006 0 0 1-2.007-2.005v-22.777c0-1.108.898-2.004 2.007-2.007l214.879.003c1.106 0 2.005.896 2.005 2.004v22.777a2.004 2.004 0 0 1-2.005 2.005H150.387zm-.006-24.782v22.777l.006.004h214.879l.006-.004h-.002l.002-22.777-.006-.006H150.387l-.006.006z"/>
    <path fill="#F4F4F4" d="M49.62 228.18V77.711h498.522V228.179H49.62v.001zm497.522-1.002v-.999.999zm-495.522-.999h494.52V79.713H51.62v146.466z"/>
    <path fill="#F4F4F4" d="M32.675 324.102v-1.001l.999-.032-.999.032v1.001h-.969L22.863 43.759h550.485l-8.843 280.342H32.675v.001zm529.893-2.002 8.716-276.341H24.926L33.642 322.1h528.926z"/>
    <path fill="#F4F4F4" d="M7.403 346.308V2.963h580.891v343.345H7.403zm579.89-1v-1.002 1.002zm-577.89-1.002h576.888V4.964H9.403v339.342z"/>
    <path fill="#F4F4F4" d="M31.674 345.306v-22.204h2v22.204h-2zM197.956 345.049v-21.947h2v21.947h-2zM396.256 345.306v-22.204h2v22.204h-2zM562.537 345.048v-21.945h2.001v21.945h-2.001zM37.354 44.931V19.078h-1.442v25.853h-1.999V17.079h5.442v27.852h-2.001zM55.37 44.931V19.078h-1.443v25.853h-2V17.079h5.442v27.852H55.37zM73.384 44.931V19.078h-1.442v25.853h-1.999V17.079h5.442v27.852h-2.001zM91.4 44.931V19.078h-1.443v25.853h-2V17.079h5.442v27.852H91.4zM109.414 44.931V19.078h-1.443v25.853h-1.999V17.079h5.441l.002 27.852h-2.001zM127.429 44.931V19.078h-1.442v25.853h-2V17.079h5.441v27.852h-1.999zM145.444 44.931V19.078h-1.443v25.853h-1.999V17.079h5.441l.002 27.852h-2.001zM163.459 44.931l-.002-25.853h-1.442v25.853h.002-2.001V17.079h5.442v27.852h-1.999zM181.474 44.931l-.002-25.853h-1.441v25.853h-2V17.079h5.441v27.852h-1.998zM199.488 44.932V19.078h-1.442v25.854h-2.001V17.079h5.442l.002 27.853h-2.001zM217.502 44.93V19.078h-1.441V44.93h-2.001V17.078h5.441l.003 27.852h-2.002zM235.517 44.932V19.078h-1.442v25.854h-2V17.079h5.442v27.853h-2zM253.532 44.931V19.078h-1.441v25.853h-2V17.078h5.441v27.853h-2zM271.548 44.932V19.079h-1.443v25.853h-2V17.079h5.441l.002 27.853h-2zM289.562 44.93V19.078h-1.442V44.93h-2.001V17.077h5.443V44.93h-2zM307.577 44.932l-.002-25.854h-1.441v25.854h-1.999V17.079h5.44l.002 27.853h-2zM325.591 44.931V19.078h-1.445v25.853h.003-2.002V17.079h5.443l.002 27.852h-2.001zM343.606 44.931V19.079h-1.443v25.852h.002-2.001V17.078h5.441l.002 27.853h-2.001zM361.62 44.932V19.077h-1.443v25.855h-1.999V17.078h5.442v27.854h-2zM379.636 44.932l-.001-25.855h-1.444v25.855h.002-2.001V17.079h5.443l.001 27.853h-2zM397.651 44.931V19.078h-1.444v25.853h.002-2V17.078h5.441v27.853h-1.999zM415.666 44.931V19.078h-1.444v25.853h-2V17.078h5.442l.002 27.853h-2zM433.68 44.931V19.079h-1.444v25.852h.002-2V17.079h5.44l.002 27.852h-2zM451.696 44.932l-.002-25.854h-1.441v25.854h-2.001V17.078h5.442l.002 27.854h-2zM469.711 44.932l-.002-25.854h-1.443v25.854h.002-2V17.079h5.441l.002 27.853h-2zM487.724 44.932V19.076h-1.443v25.856h.002-2.001V17.078h5.44l.002 27.854h-2zM505.74 44.932V19.077h-1.444v25.855h-2.001V17.079h5.443l.002 27.853h-2zM523.756 44.932l-.003-25.855h-1.443v25.855h.002-2.001V17.079h5.443l.002 27.853h-2zM541.769 44.932V19.077h-1.443v25.855h-1.999V17.078h5.441l.002 27.854h-2.001zM559.784 44.931V19.077h-1.444v25.854h.002-2.001V17.079h5.442l.002 27.852h-2.001zM2.929 73.592a14.47 14.47 0 0 1 4.953-10.921l1.317 1.504a12.484 12.484 0 0 0-4.271 9.417c0 3.692 1.596 7.002 4.139 9.297l-1.34 1.484a14.465 14.465 0 0 1-4.798-10.781zM2.929 293.237a14.474 14.474 0 0 1 4.953-10.921L9.2 283.82a12.476 12.476 0 0 0-4.272 9.417 12.47 12.47 0 0 0 4.139 9.295v.002l-1.34 1.484a14.47 14.47 0 0 1-4.798-10.781zM586.423 82.889a12.478 12.478 0 0 0 4.138-9.297 12.49 12.49 0 0 0-4.27-9.417l1.315-1.503a14.473 14.473 0 0 1 4.953 10.92 14.467 14.467 0 0 1-4.798 10.781v.002l-1.338-1.486zM586.423 302.532a12.477 12.477 0 0 0 4.138-9.295c0-3.759-1.65-7.119-4.27-9.417l1.315-1.505a14.485 14.485 0 0 1 4.955 10.922c0 4.275-1.854 8.128-4.8 10.781l-1.338-1.486z"/>
</svg>
