<svg height="350.26" width="598.189" xmlns="http://www.w3.org/2000/svg">
    <g fill="#f4f4f4">
        <path d="M131.387 26.941c-22.057 0-42.807 4.733-60.807 14.856-.007.004-.022-.004-.03 0v.03a3.19 3.19 0 0 0-1.628 2.435c-.109.954 0 1.939 0 3.218h1.925c0-1.383-.098-2.417-.03-3.007s.095-.689.662-.992h.03c17.677-9.946 38.082-14.616 59.878-14.616h62.638c1.36 0 2.875.173 3.909.632s1.563.988 1.563 2.255h1.925c0-1.977-1.232-3.375-2.707-4.03-1.481-.654-3.205-.782-4.696-.782h-62.641.009z"/>
        <path d="M130.357 30.76C61.765 30.76 6.131 86.365 6.131 154.957c0 68.594 55.634 124.226 124.226 124.226 27.078 0 52.123-8.655 72.535-23.366l.03-.03 2.556-1.955v-.03h.029a23.89 23.89 0 0 1 14.976-5.231h156.286c5.674 0 10.867 1.95 14.976 5.231h.03v.03l2.556 1.955.03.03c20.411 14.711 45.457 23.366 72.534 23.366 68.595 0 124.227-55.634 124.227-124.226 0-68.594-55.635-124.197-124.227-124.197H305.921V32.985h-14.314V30.76H130.36zm0 1.925h159.321v2.226h18.163v-2.226H466.891c67.556 0 122.301 54.721 122.301 122.272 0 67.555-54.749 122.301-122.301 122.301-26.657 0-51.299-8.531-71.393-23.006h-.029l-2.526-1.954a25.837 25.837 0 0 0-16.179-5.653H220.479a25.832 25.832 0 0 0-16.178 5.653l-2.526 1.954h-.03c-20.084 14.483-44.719 23.01-71.385 23.01-67.552 0-122.301-54.746-122.301-122.301 0-67.552 54.75-122.272 122.301-122.272z"/>
        <path d="M403.241 26.941c-1.495 0-3.217.127-4.691.782s-2.706 2.053-2.706 4.03h1.925c0-1.267.529-1.796 1.563-2.255 1.029-.459 2.541-.632 3.907-.632h62.637c21.793 0 42.197 4.669 59.874 14.616h.031c.566.303.594.402.661.992.068.591-.03 1.624-.03 3.007h1.925c0-1.279.109-2.264 0-3.218a3.195 3.195 0 0 0-1.624-2.436c-.007-.004.007-.027 0-.03-.008-.004-.022.004-.029 0-18.006-10.123-38.754-14.856-60.81-14.856h-62.641zM130.963 87.868c-36.827 0-66.7 29.874-66.7 66.7 0 36.827 29.874 66.701 66.7 66.701 36.827 0 66.731-29.876 66.731-66.701 0-36.827-29.903-66.7-66.731-66.7zm0 1.924c35.787 0 64.807 28.99 64.807 64.775 0 35.786-29.02 64.776-64.807 64.776s-64.776-28.99-64.776-64.776c.001-35.787 28.991-64.775 64.776-64.775z"/>
        <path d="M119.801 105.34a5.631 5.631 0 0 0-5.624 5.624v26.223c0 .511-.074.657 0 .572.074-.086.001.029-.631.029H87.382c-3.1 0-5.654 2.524-5.654 5.624v22.314c0 3.1 2.554 5.624 5.654 5.624h26.073c.457 0 .606.098.631.12s.091.113.091.511v26.193a5.63 5.63 0 0 0 5.624 5.624h22.344a5.63 5.63 0 0 0 5.624-5.624v-26.282c0-.294.048-.351.09-.391.042-.041.183-.15.571-.15h26.133c3.1 0 5.654-2.523 5.654-5.624v-22.314c0-3.1-2.554-5.624-5.654-5.624H148.4c-.32 0-.453-.092-.512-.15-.059-.057-.12-.154-.12-.451v-26.222a5.631 5.631 0 0 0-5.624-5.624zm0 1.925h22.344a3.677 3.677 0 0 1 3.699 3.699v26.223c0 .678.21 1.361.692 1.835.481.473 1.179.691 1.864.691h26.164c2.06 0 3.729 1.639 3.729 3.699v22.314c0 2.06-1.669 3.699-3.729 3.699H148.43c-.714 0-1.404.217-1.895.691-.491.476-.692 1.13-.692 1.775v26.283a3.676 3.676 0 0 1-3.699 3.699H119.8a3.677 3.677 0 0 1-3.699-3.699v-26.193c0-.705-.193-1.44-.722-1.925-.529-.484-1.213-.631-1.925-.631H87.383c-2.061 0-3.729-1.639-3.729-3.699v-22.315c0-2.06 1.669-3.699 3.729-3.699h26.163c.828 0 1.568-.108 2.075-.691.507-.584.481-1.244.481-1.834v-26.223a3.677 3.677 0 0 1 3.699-3.699z"/>
        <path d="M117.731 102.754a5.63 5.63 0 0 0-5.624 5.624v26.223c0 .511-.075.626 0 .542.075-.086 0 .03-.631.03H85.313c-3.1 0-5.654 2.552-5.654 5.653v27.484c0 3.102 2.554 5.654 5.654 5.654h26.073c.456 0 .606.098.632.121.025.023.09.083.09.481v26.193a5.629 5.629 0 0 0 5.624 5.623h26.494a5.63 5.63 0 0 0 5.624-5.623v-26.253c0-.293.048-.38.09-.42.042-.041.182-.122.572-.121h26.132c3.1 0 5.653-2.553 5.653-5.654v-27.485c0-3.1-2.553-5.653-5.653-5.653H150.48c-.319 0-.452-.063-.511-.121-.059-.059-.12-.156-.12-.451v-26.223c0-3.1-2.523-5.624-5.624-5.624zm0 1.924h26.494a3.677 3.677 0 0 1 3.699 3.699V134.6c0 .677.21 1.361.692 1.834.481.472 1.178.662 1.865.662h26.163a3.728 3.728 0 0 1 3.729 3.729v27.484a3.728 3.728 0 0 1-3.729 3.729h-26.132c-.716 0-1.404.188-1.895.661-.491.476-.691 1.16-.691 1.804v26.254c0 2.06-1.64 3.699-3.699 3.699h-26.494a3.678 3.678 0 0 1-3.699-3.699v-26.193c0-.704-.193-1.44-.722-1.925s-1.213-.601-1.925-.601H85.314a3.728 3.728 0 0 1-3.729-3.729v-27.485a3.728 3.728 0 0 1 3.729-3.729h26.163c.828 0 1.568-.108 2.075-.692.507-.583.481-1.213.481-1.804v-26.223a3.676 3.676 0 0 1 3.698-3.698z"/>
        <path d="M130.963 141.938c-6.97 0-12.63 5.661-12.63 12.63s5.661 12.63 12.63 12.63 12.66-5.661 12.66-12.63-5.691-12.63-12.66-12.63zm0 1.925c5.929 0 10.736 4.776 10.736 10.706 0 5.929-4.807 10.706-10.736 10.706s-10.706-4.777-10.706-10.706c0-5.93 4.777-10.706 10.706-10.706zM130.963 109.49a3.755 3.755 0 0 0-3.278 1.955v.03l-.029.03-7.277 15.216a3.785 3.785 0 0 0-.361 1.594c0 2.061 1.699 3.729 3.759 3.729h14.404c2.061 0 3.759-1.668 3.759-3.729a3.85 3.85 0 0 0-.36-1.624l-7.338-15.277-.03-.06-.03-.03c-.657-1.09-1.861-1.835-3.219-1.834zm0 1.925c.656 0 1.24.363 1.563.872l.03.03 7.278 15.216c.112.237.18.499.18.782 0 1.021-.814 1.804-1.834 1.804h-14.405c-1.021 0-1.835-.783-1.835-1.804 0-.28.071-.546.181-.782l7.247-15.157.03-.06a1.82 1.82 0 0 1 1.565-.901zM104.711 143.623c-.571 0-1.106.13-1.593.361l-15.307 7.338h-.03l-.06.03a3.751 3.751 0 0 0-1.804 3.218c0 1.408.767 2.638 1.925 3.278l.03.03h.03l15.216 7.277v.03a3.765 3.765 0 0 0 1.594.331c2.06 0 3.759-1.668 3.759-3.729v-14.405c-.001-2.062-1.7-3.759-3.76-3.759zm0 1.924c1.021 0 1.834.813 1.834 1.835v14.404c0 1.022-.813 1.805-1.834 1.805-.269 0-.523-.049-.752-.15h-.029l-15.157-7.277c-.007-.004-.023.003-.03 0-.554-.314-.902-.905-.902-1.594 0-.643.322-1.176.812-1.503l15.277-7.338c.236-.114.499-.182.781-.182zM123.775 177.091c-2.061 0-3.759 1.697-3.759 3.76 0 .57.129 1.105.361 1.594l7.338 15.307.03.031.03.029c.657 1.087 1.831 1.834 3.188 1.834a3.803 3.803 0 0 0 3.308-1.954v-.03h.03l7.277-15.217v-.03c.225-.482.36-.998.36-1.563 0-2.061-1.698-3.76-3.758-3.76h-14.405zm0 1.926h14.405c1.021 0 1.834.813 1.834 1.834 0 .279-.071.517-.18.752l-7.248 15.157c-.01.018-.019.041-.03.06a1.87 1.87 0 0 1-1.593.902 1.821 1.821 0 0 1-1.504-.813l-.03-.061c-.008-.012-.022-.018-.03-.029l-7.285-15.195c-.004-.009.004-.021 0-.03a1.79 1.79 0 0 1-.18-.752c0-1.021.813-1.834 1.833-1.834zM157.245 143.623a3.778 3.778 0 0 0-3.759 3.759v14.404c0 2.061 1.698 3.729 3.759 3.729.57 0 1.105-.129 1.594-.361l15.306-7.338h.03l.06-.03a3.752 3.752 0 0 0 1.804-3.218 3.727 3.727 0 0 0-1.924-3.278l-.03-.03h-.03l-15.216-7.278a3.782 3.782 0 0 0-1.594-.359zm0 1.924c.268 0 .523.077.751.181.008.004.021-.004.03 0l15.156 7.248.03.03c.542.315.902.881.902 1.563a1.81 1.81 0 0 1-.812 1.534c-.019.011-.041.019-.061.03l-15.216 7.308c-.24.124-.5.163-.789.163-1.021 0-1.834-.784-1.834-1.804v-14.405c0-1.022.814-1.834 1.834-1.834zM258.769 152.735a8.869 8.869 0 0 0-6.466 2.045l-25.17 21.111c-3.73 3.127-4.24 8.721-1.113 12.451 3.126 3.729 8.72 4.208 12.451 1.082l25.201-21.112c3.73-3.126 4.208-8.72 1.083-12.451a8.788 8.788 0 0 0-5.984-3.127h-.002zm-.181 1.925a6.876 6.876 0 0 1 4.692 2.435c2.458 2.934 2.091 7.285-.842 9.744l-25.201 21.111c-2.933 2.457-7.285 2.091-9.744-.842-2.458-2.933-2.061-7.286.872-9.743l25.203-21.114a6.84 6.84 0 0 1 5.022-1.594z"/>
        <path d="M256.575 148.01a13.507 13.507 0 0 0-7.308 3.097l-25.204 21.142c-5.744 4.816-6.497 13.383-1.684 19.126 4.815 5.744 13.412 6.498 19.156 1.685l25.202-21.111c5.743-4.816 6.498-13.382 1.684-19.126a13.636 13.636 0 0 0-11.848-4.812zm2.436 1.895a11.696 11.696 0 0 1 7.938 4.15c4.147 4.947 3.473 12.273-1.473 16.418l-25.171 21.111c-4.947 4.147-12.304 3.504-16.45-1.443s-3.504-12.273 1.443-16.418l25.201-21.112c2.475-2.072 5.54-2.968 8.512-2.706zM321.743 152.735a8.798 8.798 0 0 0-6.436 2.045l-25.201 21.111c-3.724 3.12-4.22 8.689-1.113 12.418v.031c3.126 3.73 8.721 4.209 12.451 1.082l25.201-21.111c3.729-3.126 4.208-8.719 1.082-12.45a8.8 8.8 0 0 0-5.984-3.126zm-.181 1.925a6.876 6.876 0 0 1 4.692 2.435c2.458 2.934 2.091 7.285-.843 9.744L300.21 187.95c-2.931 2.457-7.284 2.091-9.743-.842s-2.061-7.286.872-9.743l25.201-21.112a6.838 6.838 0 0 1 5.023-1.593z"/>
        <path d="M319.549 148.01a13.507 13.507 0 0 0-7.308 3.097l-25.203 21.142c-5.744 4.816-6.499 13.383-1.684 19.126 4.813 5.744 13.412 6.498 19.156 1.685l25.193-21.113c5.745-4.816 6.498-13.382 1.685-19.126a13.638 13.638 0 0 0-11.849-4.812zm2.436 1.895a11.698 11.698 0 0 1 7.938 4.15c4.146 4.947 3.474 12.273-1.474 16.418l-25.171 21.111c-4.947 4.147-12.304 3.503-16.449-1.443a11.63 11.63 0 0 1 1.443-16.418l25.202-21.112c2.474-2.072 5.54-2.968 8.511-2.706zM467.448 44.233c-61.001 0-110.483 49.486-110.483 110.483 0 61 49.484 110.455 110.483 110.455 34.631 0 65.541-15.923 85.796-40.868l.089-.12.061-.12.211-.512.481-1.143-1.233-.181c-.691-.095-1.232-.657-1.232-1.383 0-.795.619-1.414 1.413-1.414.663 0 1.221.428 1.384 1.022l.57 2.135 1.174-1.863.541-.902.03-.061c13.317-18.248 21.171-40.731 21.171-65.046 0-61-49.455-110.484-110.455-110.484v.002zm0 1.924c59.96 0 108.529 48.603 108.529 108.559 0 23.837-7.697 45.849-20.72 63.753-.6-.564-1.343-.963-2.226-.963a3.352 3.352 0 0 0-3.338 3.339c0 1.184.744 2.053 1.684 2.646-19.908 24.258-50.098 39.757-83.932 39.757-59.96 0-108.56-48.571-108.56-108.531s48.603-108.559 108.56-108.559z"/>
        <path d="M411.209 132.825c-12.558 0-22.764 10.207-22.764 22.765s10.206 22.765 22.764 22.765c12.559 0 22.766-10.207 22.766-22.765s-10.207-22.765-22.766-22.765zm0 1.924c11.519 0 20.841 9.323 20.841 20.841s-9.322 20.84-20.841 20.84c-11.517 0-20.839-9.322-20.839-20.84s9.322-20.841 20.839-20.841zM466.485 89.763c-12.559 0-22.735 10.205-22.735 22.765 0 12.557 10.177 22.764 22.735 22.764s22.765-10.207 22.765-22.764c0-12.56-10.207-22.765-22.765-22.765zm0 1.924c11.518 0 20.84 9.322 20.84 20.84s-9.322 20.839-20.84 20.839-20.811-9.321-20.811-20.839c.001-11.518 9.292-20.84 20.811-20.84z"/>
        <path d="M464.561 83.507a28.55 28.55 0 0 0-15.676 5.985l-55.274 43.064c-12.508 9.742-14.764 27.819-5.022 40.326 9.742 12.509 27.819 14.734 40.328 4.993l55.275-43.045c12.51-9.739 14.762-27.813 5.022-40.322-6.091-7.818-15.454-11.628-24.654-11.007zm.15 1.895c8.584-.583 17.287 2.98 22.975 10.285 9.104 11.689 6.998 28.519-4.69 37.621l-55.273 43.063c-11.688 9.103-28.519 6.997-37.621-4.691-9.104-11.689-6.997-28.517 4.691-37.621l55.273-43.034c4.382-3.413 9.496-5.274 14.645-5.623zM468.313 174.868c-12.559 0-22.765 10.206-22.765 22.765s10.206 22.735 22.765 22.735 22.734-10.177 22.734-22.735-10.175-22.765-22.734-22.765zm0 1.925c11.519 0 20.81 9.322 20.81 20.84 0 11.519-9.291 20.81-20.81 20.81s-20.84-9.291-20.84-20.81c.001-11.518 9.322-20.84 20.84-20.84zM523.589 131.805c-12.558 0-22.766 10.207-22.766 22.764 0 12.559 10.208 22.765 22.766 22.765 12.559 0 22.764-10.206 22.764-22.765 0-12.557-10.206-22.764-22.764-22.764zm0 1.924c11.518 0 20.84 9.322 20.84 20.839 0 11.519-9.322 20.84-20.84 20.84s-20.84-9.322-20.84-20.84c0-11.517 9.322-20.839 20.84-20.839z"/>
        <path d="M521.665 125.55a28.619 28.619 0 0 0-15.698 5.984l-55.273 43.063c-12.508 9.743-14.765 27.818-5.022 40.327 9.742 12.507 27.818 14.733 40.328 4.992l55.272-43.034c12.509-9.742 14.766-27.819 5.022-40.328-6.088-7.816-15.426-11.626-24.629-11.004zm.12 1.894c8.583-.582 17.287 2.98 22.974 10.286 9.104 11.688 7.028 28.517-4.66 37.621l-55.274 43.063c-11.688 9.103-28.518 6.996-37.62-4.691-9.103-11.689-7.025-28.518 4.662-37.62l55.303-43.034c4.382-3.416 9.464-5.275 14.615-5.625z"/>
    </g>
</svg>
