<svg version="1.2" baseProfile="tiny" xmlns="http://www.w3.org/2000/svg" width="598.189" height="350.26" xml:space="preserve">
    <path fill="#F4F4F4" d="M179.554 8.949c-17.037.789-61.16 4.455-89.405 44.125l1.625 1.156c27.71-38.916 70.96-42.498 87.88-43.281l-.094-2h-.006zM293.243 34.574c-44.134 0-91.349 3.159-132.379 13.031-41.026 9.872-75.901 26.427-95.218 53.375-20.514 28.619-31.714 57.876-32.281 84.875-.567 26.997 9.536 51.731 31.469 71.124 22.496 19.891 40.432 27.779 54.78 32.375 14.349 4.596 24.973 5.945 33.188 12.562l1.28-1.56c-8.76-7.061-19.689-8.37-33.87-12.91-14.18-4.54-31.732-12.25-54.03-31.97-21.531-19.03-31.369-43.109-30.813-69.589.557-26.47 11.568-55.34 31.906-83.718 18.877-26.333 53.278-42.779 94.067-52.592 40.78-9.813 87.867-13 131.909-13h9.688c44.037 0 91.124 3.187 131.909 13 40.78 9.813 75.217 26.26 94.093 52.593 20.339 28.374 31.35 57.244 31.905 83.719.557 26.475-9.281 50.557-30.812 69.594-22.319 19.719-39.899 27.43-54.079 31.969-14.18 4.54-25.08 5.85-33.84 12.91l1.25 1.563c8.214-6.617 18.869-7.967 33.219-12.563 14.349-4.595 32.254-12.483 54.749-32.374 21.933-19.394 32.068-44.126 31.5-71.124-.567-26.998-11.767-56.256-32.28-84.875-19.315-26.947-54.224-43.503-95.25-53.375-41.025-9.873-88.238-13.031-132.378-13.031h-9.688l.006-.009z"/>
    <path fill="#F4F4F4" d="M203.494 7.386c-11.155-.267-27.503 1.253-45.375 6.188-23.829 6.58-50.278 19.27-70.25 42.094C48.116 101.097 6.525 178.416 4.148 234.516v.031c-2.359 55.866 17.659 82.522 39.438 94.249 16.199 8.724 36.669 7.123 55.656 1.531s36.52-15.222 47-22.844c20.74-15.09 80.069-57.789 139.469-57.789h24.781c59.403 0 118.698 42.696 139.438 57.779 10.479 7.623 28.013 17.252 46.999 22.845 18.987 5.592 39.489 7.191 55.688-1.531 21.783-11.729 41.776-38.393 39.406-94.28-2.38-56.09-43.95-133.409-83.689-178.838-19.979-22.823-46.46-35.514-70.289-42.093-23.82-6.579-44.94-7.105-54.649-5.406-19.101 3.343-45.79 15.094-81.88 15.094h-6.875c-36.09 0-62.743-11.752-81.843-15.094-2.428-.425-5.595-.692-9.313-.781l.009-.003zm0 2c3.631.083 6.682.35 8.969.75 18.621 3.258 45.664 15.125 82.187 15.125h6.875c36.522 0 63.597-11.866 82.219-15.125 9.148-1.601 30.223-1.161 53.78 5.344 23.559 6.505 49.677 19.059 69.312 41.5 39.461 45.102 80.849 122.408 83.187 177.588 2.349 55.389-17.249 81.063-38.374 92.438-15.485 8.339-35.414 6.886-54.125 1.375-18.71-5.51-36.14-15.033-46.405-22.5-20.751-15.092-80.265-58.188-140.618-58.188H285.72c-60.359 0-119.869 43.096-140.619 58.188-10.267 7.467-27.696 16.989-46.406 22.5-18.711 5.511-38.669 6.965-54.155-1.375-21.131-11.38-40.728-37.049-38.38-92.439 2.339-55.18 43.756-132.488 83.217-177.598 19.634-22.44 45.724-34.994 69.284-41.5 17.669-4.878 33.949-6.341 44.839-6.094l-.006.011z"/>
    <path fill="#F4F4F4" d="m416.622 8.949-.094 2c16.911.783 60.166 4.365 87.874 43.281l1.625-1.156c-28.24-39.67-72.369-43.335-89.399-44.125h-.006zM264.243 56.26c-2.083 0-4.727.224-7.313 1.5-2.586 1.277-5.081 3.636-6.813 7.594-3.385 7.735-8.063 24.875-8.063 24.875l1.938.531s4.751-17.272 7.969-24.625c1.569-3.585 3.687-5.481 5.875-6.562 2.188-1.081 4.481-1.313 6.406-1.313h67.687c1.926 0 4.25.232 6.438 1.313 2.188 1.081 4.275 2.977 5.844 6.562 3.218 7.354 7.969 24.625 7.969 24.625l1.938-.531s-4.678-17.139-8.063-24.875c-1.731-3.958-4.227-6.316-6.813-7.594-2.585-1.276-5.229-1.5-7.313-1.5H264.243zM197.774 86.772c-32.184-22.613-80.623-8.752-108.269 30.596-27.647 39.348-24.269 89.617 7.914 112.229 32.184 22.613 80.647 8.771 108.299-30.578 27.647-39.347 24.244-89.634-7.939-112.249l-.005.002zm-1.15 1.637c31.094 21.848 34.596 70.832 7.453 109.459-27.143 38.629-74.416 51.938-105.509 30.09-31.085-21.84-34.562-70.809-7.419-109.438 27.139-38.626 74.388-51.953 105.479-30.105l-.004-.006z"/>
    <path fill="#F4F4F4" d="M148.904 98.135c-33.873 0-61.375 27.471-61.375 61.343s27.502 61.374 61.375 61.374 61.343-27.502 61.343-61.374c.001-33.872-27.47-61.343-61.343-61.343zm0 2c32.792 0 59.343 26.552 59.343 59.343 0 32.792-26.552 59.374-59.343 59.374-32.792 0-59.375-26.582-59.375-59.374.001-32.791 26.583-59.343 59.375-59.343z"/>
    <path fill="#F4F4F4" d="M146.554 106.51c-2.105.09-4.177.323-6.219.656-.01.001-.021-.002-.031 0v.031c-.613.091-1.285.361-1.688.906-.412.556-.562 1.248-.625 2.063l-1.313 16.781c-.433 5.602-2.213 9.627-5.188 12.188-2.974 2.56-7.247 3.749-12.906 3.313l-16.422-1.28c-.825-.063-1.486-.096-2.156.156-.67.252-1.195.846-1.469 1.5v.094a53.249 53.249 0 0 0-2.5 12.5 52.935 52.935 0 0 0 .438 12.156v.031c.271 1.478 1.688 2.692 3.656 2.844l16.312 1.25c5.46.422 9.459 2.272 12.031 5.375 2.572 3.102 3.76 7.557 3.313 13.344l-1.188 15.5c-.076.989-.064 1.771.219 2.469.284.697.885 1.186 1.5 1.469l.063.031.031.031c3.935 1.283 8.1 2.105 12.406 2.438a53.2 53.2 0 0 0 12.344-.469h.031l.031-.031c.684-.15 1.376-.523 1.844-1.156s.704-1.438.781-2.438l1.188-15.438c.438-5.673 2.348-9.914 5.344-12.656 2.996-2.743 7.138-4.059 12.344-3.656l16.688 1.281c.912.07 1.664.089 2.406-.25s1.24-1.023 1.563-1.844l.031-.031v-.031a53.202 53.202 0 0 0 2.344-12.062 52.977 52.977 0 0 0-.469-12.312v-.063l-.031-.063c-.155-.574-.407-1.188-.938-1.688-.531-.5-1.287-.806-2.188-.875l-17.219-1.313c-5.147-.397-9.05-2.253-11.594-5.25-2.544-2.997-3.789-7.206-3.375-12.562l1.25-16.469c.06-.778.169-1.408 0-2.125-.17-.717-.809-1.401-1.594-1.688l-.031-.031c-3.994-1.32-8.214-2.161-12.594-2.5a53.293 53.293 0 0 0-6.406-.125l-.014-.001zm.063 2a51.745 51.745 0 0 1 6.188.125 51.224 51.224 0 0 1 12.094 2.406c.01.003.022-.003.031 0 .305.109.27.07.313.25.045.192.03.742-.031 1.531l-1.281 16.469c-.444 5.749.906 10.539 3.844 14s7.421 5.509 12.969 5.938l17.229 1.34c.588.045.817.169.969.313.135.127.277.368.375.688.003.011-.003.02 0 .031.598 3.833.75 7.774.438 11.812-.309 4.007-1.054 7.892-2.219 11.562-.007.021-.024.041-.031.063-.197.473-.334.611-.5.688-.179.082-.626.156-1.438.094l-16.688-1.313c-5.626-.436-10.43 1.033-13.875 4.188-3.445 3.154-5.502 7.928-5.969 13.969l-1.17 15.439c-.06.765-.241 1.184-.406 1.406-.165.224-.317.332-.656.406-3.83.597-7.778.749-11.812.438a51.095 51.095 0 0 1-11.812-2.313c-.343-.157-.415-.197-.5-.406s-.128-.709-.063-1.563l1.188-15.5c.475-6.143-.806-11.162-3.781-14.75-2.975-3.588-7.596-5.673-13.438-6.125l-16.281-1.25c-1.291-.1-1.701-.625-1.813-1.156a51.162 51.162 0 0 1-.438-11.719c.322-4.162 1.103-8.171 2.344-11.969.013-.032.02-.004.031-.031.003-.01-.003-.021 0-.031.108-.243.166-.3.281-.344.133-.05.57-.088 1.313-.031l16.438 1.25c6.014.464 10.911-.768 14.375-3.75s5.415-7.608 5.875-13.562l1.28-16.8c.046-.595.194-.882.281-1 .087-.118.111-.157.344-.188h.031a50.345 50.345 0 0 1 6-.625l-.029.02z"/>
    <path fill="#F4F4F4" d="M148.904 147.264c-6.747 0-12.25 5.472-12.25 12.219s5.503 12.25 12.25 12.25 12.219-5.503 12.219-12.25-5.472-12.219-12.219-12.219zm0 2c5.666 0 10.219 4.553 10.219 10.219s-4.553 10.25-10.219 10.25-10.25-4.584-10.25-10.25 4.584-10.219 10.25-10.219zM116.555 121.734l.25 1 1.813 6.844.219.75.594-.5 4.656-4 .594-.5-.71-.35-6.469-2.813-.938-.438-.009.007zM114.714 183.693l-.313.719-2.844 6.469-.438.938 1-.25 6.844-1.813.75-.219-.5-.594-4-4.656-.499-.594zM178.934 188.663l-.594.5-4.656 4-.594.5.719.313 6.469 2.844.938.438-.25-1.031-1.813-6.813-.219-.751zM186.654 127.164l-1 .25-6.844 1.813-.75.219.5.593 4 4.656.5.594.344-.719 2.813-6.469.437-.937zM384.402 123.044c-11.999 0-21.75 9.751-21.75 21.75s9.751 21.75 21.75 21.75c11.998 0 21.75-9.751 21.75-21.75s-9.752-21.75-21.75-21.75zm0 2c10.918 0 19.75 8.832 19.75 19.75s-8.833 19.75-19.75 19.75c-10.918 0-19.75-8.832-19.75-19.75s8.832-19.75 19.75-19.75zM430.932 91.604c-11.999 0-21.75 9.751-21.75 21.75s9.752 21.75 21.75 21.75 21.75-9.751 21.75-21.75-9.752-21.75-21.75-21.75zm0 2c10.918 0 19.75 8.832 19.75 19.75s-8.832 19.75-19.75 19.75-19.75-8.832-19.75-19.75 8.832-19.75 19.75-19.75zM479.651 73.698c-11.998 0-21.75 9.752-21.75 21.75s9.752 21.75 21.75 21.75 21.75-9.751 21.75-21.75-9.752-21.75-21.75-21.75zm0 2c10.917 0 19.75 8.833 19.75 19.75s-8.833 19.75-19.75 19.75-19.75-8.833-19.75-19.75 8.833-19.75 19.75-19.75zM404.521 182.794c-16.686 0-30.219 13.532-30.219 30.219 0 16.686 13.533 30.249 30.219 30.249 16.687 0 30.25-13.563 30.25-30.249 0-16.687-13.563-30.219-30.25-30.219zm0 2c15.605 0 28.25 12.613 28.25 28.219 0 15.604-12.645 28.249-28.25 28.249-15.604 0-28.219-12.646-28.219-28.249.001-15.606 12.615-28.219 28.219-28.219zM460.491 145.694c-16.686 0-30.25 13.533-30.25 30.219s13.564 30.249 30.25 30.249c16.687 0 30.219-13.563 30.219-30.249s-13.532-30.219-30.219-30.219zm0 2c15.604 0 28.219 12.614 28.219 28.219 0 15.604-12.614 28.249-28.219 28.249s-28.25-12.646-28.25-28.249c0-15.605 12.646-28.219 28.25-28.219zM521.461 122.414c-16.685 0-30.25 13.565-30.25 30.25 0 16.685 13.565 30.218 30.25 30.218s30.219-13.532 30.219-30.218c0-16.685-13.534-30.25-30.219-30.25zm0 2c15.604 0 28.219 12.646 28.219 28.25s-12.614 28.218-28.219 28.218c-15.604 0-28.25-12.613-28.25-28.218 0-15.604 12.646-28.25 28.25-28.25zM298.083 187.323c-10.372 0-19.765 2.013-26.656 5.313-6.891 3.3-11.438 8-11.438 13.469s4.546 10.139 11.438 13.438c6.891 3.301 16.284 5.313 26.656 5.313 10.371 0 19.765-2.012 26.655-5.313 6.892-3.299 11.438-7.969 11.438-13.438s-4.547-10.169-11.438-13.469c-6.89-3.3-16.284-5.313-26.655-5.313zm0 2c10.113 0 19.278 1.996 25.812 5.125 6.534 3.129 10.281 7.316 10.281 11.656s-3.748 8.527-10.281 11.656c-6.533 3.128-15.698 5.094-25.812 5.094s-19.247-1.966-25.781-5.094c-6.534-3.129-10.312-7.316-10.312-11.656s3.778-8.527 10.312-11.656 15.668-5.125 25.781-5.125z"/>
    <path fill="#F4F4F4" d="M298.083 194.263c-6.976 0-13.273 1.213-17.938 3.25-2.333 1.02-4.273 2.229-5.656 3.656-1.383 1.429-2.219 3.131-2.219 4.938s.835 3.479 2.219 4.906c1.383 1.429 3.324 2.638 5.656 3.656 4.665 2.037 10.962 3.281 17.938 3.281 6.975 0 13.304-1.244 17.969-3.281 2.332-1.019 4.241-2.228 5.625-3.656 1.383-1.428 2.25-3.1 2.25-4.906s-.867-3.509-2.25-4.938c-1.384-1.428-3.293-2.637-5.625-3.656-4.665-2.037-10.993-3.25-17.969-3.25zm0 2c6.739 0 12.833 1.207 17.155 3.094 2.162.944 3.87 2.053 5 3.219 1.131 1.168 1.688 2.344 1.688 3.531 0 1.188-.558 2.365-1.688 3.531-1.13 1.167-2.838 2.275-5 3.219-4.322 1.889-10.417 3.094-17.155 3.094-6.739 0-12.833-1.205-17.156-3.094-2.161-.943-3.87-2.052-5-3.219-1.13-1.166-1.656-2.343-1.656-3.531 0-1.188.526-2.364 1.656-3.531 1.13-1.166 2.838-2.273 5-3.219 4.323-1.887 10.417-3.094 17.156-3.094z"/>
</svg>
