<svg version="1.2" baseProfile="tiny" xmlns="http://www.w3.org/2000/svg" width="598.191" height="350.257" xml:space="preserve">
    <g fill="#F4F4F4">
        <path d="M367.072 130.503a.998.998 0 0 1-.977-1.024c0-.006.061-2.612.059-6.937.004-12.041-.478-37.349-4.041-55.977-2.367-12.395-4.718-19.832-7.032-24.046-2.365-4.221-4.37-5.115-6.601-5.152-.109 0-.224.004-.34.008-2.077.12-3.404.68-4.426 2.179-1.026 1.518-1.686 4.238-1.678 8.618-.002 1.731.098 3.719.305 5.991.125 1.431.187 2.784.187 4.059.013 11.311-4.78 16.519-7.807 18.269-2.03 1.15-3.181 1.926-4.584 1.974-.696.013-1.377-.296-1.876-.759l-.071-.064-.056-.074c-4.839-6.321-12.708-14.674-20.403-22.011a1 1 0 0 1 1.378-1.449c7.722 7.364 15.593 15.704 20.548 22.159.223.177.304.188.48.2.4.048 1.586-.512 3.578-1.702 2.367-1.397 6.8-5.796 6.813-16.542 0-1.212-.059-2.504-.179-3.881-.209-2.315-.313-4.362-.314-6.169.008-4.561.634-7.633 2.015-9.727 1.387-2.113 3.589-2.979 5.995-3.066.146-.008.291-.012.436-.012 2.985-.038 5.908 1.629 8.354 6.192 2.498 4.569 4.848 12.138 7.242 24.631 3.609 18.898 4.075 44.249 4.079 56.352-.002 4.343-.062 6.979-.062 6.984a1 1 0 0 1-.999.977l-.023-.001zM301.975 50.227c-3.077-2.756-5.985-5.21-8.489-7.14-5.729-4.42-12.494-7.072-18.42-7.065-4.336.006-8.187 1.378-11.072 4.455-1.574 1.679-3.082 4.071-4.484 6.899v.002a.999.999 0 1 1-1.791-.89c1.458-2.936 3.038-5.476 4.815-7.376 3.303-3.536 7.781-5.095 12.533-5.089 6.517.006 13.617 2.845 19.64 7.481 2.559 1.97 5.498 4.451 8.604 7.234a1 1 0 0 1 .076 1.413.999.999 0 0 1-1.412.076zM203.519 163.458c-2.605-.183-4.551-1.607-5.678-3.547-1.142-1.938-1.591-4.352-1.595-6.819.002-2.063.322-4.171.891-6.083 2.028-6.629 13.025-20.153 24.452-30.621 11.203-10.201 20.976-24.801 24.723-36.401 2.279-7.027 4.931-17.341 8.286-26.219a.995.995 0 0 1 1.287-.581c.517.195.778.77.583 1.287-3.301 8.737-5.947 19.005-8.253 26.129-3.919 12.067-13.815 26.8-25.279 37.264-11.237 10.201-22.243 24.01-23.881 29.715a19.714 19.714 0 0 0-.809 5.51c-.002 2.219.431 4.313 1.318 5.801.901 1.484 2.133 2.402 4.1 2.57.154.01.298.017.429.017 2.437.018 3.904-1.778 5.723-4.207 1.772-2.351 3.806-5.21 7.59-5.959 2.533-.497 4.38-.657 5.727-.657 2.351-.002 3.207.499 3.443.673a.999.999 0 0 1-1.152 1.634l-.014-.006a1.41 1.41 0 0 0-.29-.101c-.328-.09-.953-.201-1.987-.201-1.187 0-2.909.144-5.345.62-2.87.548-4.568 2.78-6.373 5.198-1.759 2.34-3.718 4.989-7.322 5.005-.195 0-.382-.008-.574-.021z"/>
        <path d="M175.483 298.372a1 1 0 0 1-.883-1.104c.317-2.6 2.072-6.325 5.726-15.661 24.991-65.632 46.818-130.147 52.784-163.819a1.001 1.001 0 0 1 1.97.348c-6.035 33.997-27.875 98.481-52.888 164.19-3.675 9.32-5.421 13.262-5.603 15.163a1.002 1.002 0 0 1-.995.889 2.18 2.18 0 0 1-.111-.006zM437.165 257.995c-3.724-9.439-19.485-45.211-31.941-67.378-6.233-11.092-15.133-25.426-23.091-37.597-7.936-12.148-15.036-22.246-17.372-24.558h.003a1.001 1.001 0 1 1 1.413-1.416c2.666 2.685 9.627 12.653 17.631 24.878 7.978 12.203 16.891 26.557 23.16 37.714 12.543 22.332 28.28 58.061 32.059 67.624a1.001 1.001 0 0 1-.565 1.297.997.997 0 0 1-1.297-.564z"/>
        <path d="M170.913 308.631c-.587-1.389-.878-2.703-.878-3.948.034-4.464 3.594-7.404 8.209-9.907 4.665-2.526 10.676-4.747 16.413-7.548 13.349-6.505 39.084-18.878 69.206-26.071 20.869-4.986 63.645-10.17 103.407-10.175a405.43 405.43 0 0 1 18.121.396c44.017 2.021 52.345 4.277 57.085 7.329 2.79 1.813 4.707 4.332 4.705 7.413 0 1.966-.776 4.046-2.365 6.187-1.253 1.631-3.686 2.832-7.036 4.027-3.347 1.17-7.608 2.231-12.391 3.16-9.561 1.856-21.197 3.171-31.583 3.632-20.659.918-59.877 2.75-99.817 8.491-39.932 5.734-95.778 16.264-107.082 19.96-3.41 1.109-6.128 1.558-8.311 1.558h-.125c-4.943 0-7.144-2.543-7.558-4.504zm7.682 2.503c1.907.002 4.429-.396 7.691-1.457 11.695-3.805 67.35-14.273 107.417-20.04 40.057-5.758 79.34-7.591 100.014-8.508 15.413-.678 33.767-3.301 43.4-6.683 3.204-1.099 5.425-2.378 6.09-3.332 1.413-1.904 1.974-3.566 1.974-4.994 0-2.191-1.324-4.106-3.801-5.738-3.924-2.616-12.097-5.027-56.08-7.006a396.783 396.783 0 0 0-18.031-.394c-39.574-.002-82.327 5.187-102.942 10.118-29.877 7.135-55.474 19.431-68.794 25.925-5.85 2.851-11.869 5.082-16.337 7.508-4.517 2.451-7.193 4.965-7.16 8.149 0 .32.025.653.079 1 .077-.061.157-.119.239-.177.973-.706 2.447-1.436 4.799-2.384 4.699-1.884 12.916-4.582 27.234-8.95 29.634-9.037 80.623-16.944 104.089-19.786 21.691-2.627 66.323-6.208 117.358-6.208a977.53 977.53 0 0 1 12.647.075h.002a1 1 0 0 1 .986 1.013 1.002 1.002 0 0 1-1.012.986c-4.246-.051-8.455-.075-12.624-.075-50.938 0-95.525 3.579-117.12 6.195-23.366 2.823-74.375 10.749-103.744 19.713-21.419 6.516-29.247 9.401-31.44 11.038-.73.56-.683.714-.697.816 0 .025.002.038.006.069l.011.061a1 1 0 0 1 .076.303c.326 1.035 1.534 2.722 5.67 2.763zM252.257 63.779c-2.053-.35-3.596-1.118-4.563-2.403-.964-1.283-1.265-2.898-1.265-4.747.064-2.294 1.878-4.741 4.444-6.887 2.589-2.106 6.034-3.797 9.655-3.808.266 0 .536.008.807.031 3.788.251 5.561 2.368 7.417 4.3 1.911 1.952 4.088 3.995 9.397 5.221 1.677.381 3.18.542 4.539.542 7.221-.008 10.448-4.44 13.846-5.985 1.991-.844 5.392-1.575 8.697-1.583 3.066.024 6.178.581 7.717 2.982.511.844.778 1.598.782 2.333.01 1.452-1.155 2.28-2.008 2.533-.892.305-1.73.317-2.043.319h-.068l-.442.008-.303-.321-.011-.01a1.37 1.37 0 0 0-.123-.103 3.843 3.843 0 0 0-.579-.371c-.537-.278-1.363-.57-2.533-.572-.44.002-.927.041-1.464.144-4.294.826-6.265 2.599-8.654 4.43-2.36 1.837-5.169 3.647-10.374 3.796-.25.008-.499.012-.748.012-5.11-.004-10.139-1.695-14.102-3.553-3.979-1.88-6.802-3.849-7.725-4.751-.643-.675-2.449-1.61-3.917-1.582-1.052.024-1.86.33-2.517 1.388a1 1 0 0 1-1.372.344.999.999 0 0 1-.346-1.372c.997-1.701 2.698-2.385 4.234-2.36 2.2.029 4.214 1.083 5.332 2.167.542.561 3.39 2.599 7.161 4.356 3.79 1.784 8.588 3.367 13.251 3.363.229 0 .455-.004.682-.01 4.794-.186 6.903-1.625 9.22-3.384 2.286-1.761 4.753-3.925 9.498-4.809a9.873 9.873 0 0 1 1.839-.179c2.269 0 3.708.869 4.339 1.361.301-.019.75-.071 1.108-.2.546-.233.651-.332.663-.645.004-.212-.095-.646-.49-1.292-.73-1.32-3.165-2.051-6.009-2.024-2.986-.008-6.292.721-7.909 1.421-2.494.976-6.576 6.156-14.635 6.147-1.518 0-3.171-.179-4.981-.591-5.688-1.272-8.428-3.732-10.392-5.779-2.021-2.068-3.081-3.452-6.129-3.699a7.507 7.507 0 0 0-.657-.023c-2.972-.01-6.076 1.458-8.39 3.355-2.333 1.855-3.775 4.257-3.709 5.338-.002 1.649.282 2.784.861 3.542.573.756 1.53 1.324 3.31 1.64h.002a.999.999 0 0 1-.171 1.984.843.843 0 0 1-.172-.014z"/>
        <path d="M255.369 75.222a13.532 13.532 0 0 1-.337-2.967c.024-7.055 5.925-11.792 13.857-14.57a.999.999 0 1 1 .663 1.885c-7.671 2.718-12.546 6.951-12.521 12.684 0 .803.093 1.643.29 2.53 1.411 6.644 11.132 14.801 24.005 14.757 1.038 0 2.094-.051 3.168-.159 14.542-1.451 24.571-9.394 24.475-17.598 0-.041-.002-.105.002-.144-.056-4.19-2.328-7.566-5.02-9.934-2.641-2.368-5.842-3.628-6.855-3.581a.998.998 0 1 1 0-1.999c1.987.045 5.159 1.474 8.173 4.077 2.964 2.6 5.631 6.475 5.7 11.461a1.079 1.079 0 0 0 0 .12c-.099 9.917-11.24 18.053-26.276 19.587a33.28 33.28 0 0 1-3.368.171c-13.694-.042-24.128-8.39-25.956-16.32z"/>
        <path d="M282.127 85.874c-13.541-1.259-19.345-6.364-20.145-11.467a4.435 4.435 0 0 1-.049-.675c.097-4.265 4.981-10.65 13.767-13.191a.999.999 0 1 1 .542 1.923c-8.097 2.214-12.405 8.496-12.308 11.267 0 .14.008.261.026.375.498 3.663 5.144 8.535 18.354 9.775.691.063 1.38.095 2.067.095 5.204.004 10.138-1.817 13.74-4.434 3.622-2.611 5.821-6.01 5.849-8.915v-.146c.005-3.021-1.837-5.364-4.177-7.024-2.302-1.648-5.119-2.487-6.29-2.467-.08 0-.144.004-.17.008a1.001 1.001 0 0 1-.225-1.99c.146-.017.274-.019.395-.019 1.852.023 4.768.967 7.444 2.833 2.638 1.855 5.019 4.759 5.022 8.658v.165c-.09 3.878-2.747 7.656-6.674 10.516-3.944 2.858-9.246 4.813-14.915 4.814a24.413 24.413 0 0 1-2.253-.101zM271.435 140.415c-11.371-5.114-17.411-13.776-17.43-21.573-.002-2.542.657-4.986 1.992-7.121 5.188-8.302 13.875-13.665 32.427-19.423l.031-.01.04-.008c4.333-1.008 10.23-1.818 17.175-1.818 4.474 0 9.383.337 14.584 1.18 9.888 1.694 20.761 13.907 20.852 26.273.011 5.168-2.007 10.373-6.852 14.591-9.854 8.575-25.278 12.08-39.249 12.092-9.089-.005-17.563-1.491-23.57-4.183zm61.503-9.416c4.428-3.881 6.157-8.423 6.168-13.084.091-11.183-10.543-22.998-19.17-24.3a89.519 89.519 0 0 0-14.266-1.153c-6.766 0-12.509.789-16.682 1.755-18.429 5.738-26.485 10.872-31.294 18.567-1.128 1.804-1.688 3.858-1.688 6.058-.021 6.724 5.381 14.872 16.25 19.748 5.616 2.527 13.886 4.011 22.75 4.007 13.643.012 28.692-3.509 37.932-11.598z"/>
        <path d="M295.015 134.042c-.8 0-1.618-.013-2.451-.04-9.348-.303-15.652-1.845-19.74-4.513-4.106-2.658-5.821-6.579-5.795-10.958 0-.531.025-1.067.07-1.61.396-4.914 3.203-8.764 7.336-11.715 4.14-2.967 9.637-5.146 15.758-6.915l.278.961-.276-.961c4.071-1.164 9.018-1.762 13.958-1.762 5.994.004 11.96.873 16.348 2.809 5.805 2.592 9.589 8.638 9.607 14.532.003 2.389-.642 4.769-2.065 6.828-4.522 6.534-14.697 13.344-32.994 13.343l-.034.001zm-19.414-27.211c-3.836 2.767-6.153 6.04-6.508 10.254-.042.495-.064.978-.062 1.447.027 3.908 1.339 6.927 4.889 9.286 3.566 2.347 9.546 3.898 18.708 4.187.811.025 1.607.038 2.387.038 17.831-.008 27.28-6.571 31.383-12.483 1.172-1.694 1.709-3.65 1.709-5.689.019-5.031-3.381-10.494-8.416-12.704-3.972-1.764-9.746-2.642-15.538-2.637-4.775-.002-9.575.588-13.407 1.686v-.001c-6.005 1.73-11.318 3.866-15.145 6.616zM308.932 232.967c-.448 0-.896-.002-1.35-.008-39.697-.446-54.6-14.396-61.872-28.368-2.347-4.474-3.377-9.316-3.377-14.09.012-10.349 4.803-20.393 11.806-25.99 10.253-8.091 35.976-14.327 47.076-14.882l.046 1-.01-1c.375-.004.752-.006 1.125-.006 29.526.002 45.903 6.175 54.944 14.463 9.045 8.296 10.502 18.591 10.491 26.22 0 .937-.019 1.839-.05 2.692-.698 18.304-19.86 39.971-58.774 39.969h-.055zm-7.625-81.34c-10.564.444-36.508 6.875-45.922 14.449-6.454 5.123-11.064 14.697-11.051 24.425 0 4.487.966 9.001 3.146 13.161 7.061 13.361 20.826 26.744 60.126 27.298.445.007.885.007 1.325.007 38.23-.02 56.204-21.1 56.83-38.043.031-.833.052-1.71.05-2.618-.009-7.413-1.37-16.959-9.843-24.746-8.479-7.792-24.319-13.939-53.593-13.939-.354 0-.713.002-1.068.006z"/>
        <path d="M276.024 213.472c-8.722-2.815-15.404-7.231-18.184-13.788-1.311-3.104-1.923-6.197-1.921-9.191.013-10.911 8.051-20.308 19.281-25.119 12.821-5.492 25.456-5.749 40.581-5.75 1.683 0 3.397.004 5.146.004v2c-1.752 0-3.468-.004-5.146-.002-15.125-.004-27.417.28-39.792 5.589-10.724 4.598-18.085 13.423-18.07 23.278 0 2.723.553 5.54 1.764 8.413 2.408 5.743 8.496 9.939 16.955 12.661 8.442 2.723 19.157 3.952 30.505 3.95 2.823 0 5.687-.077 8.568-.222 25.396-1.283 38.577-18.875 38.554-31.684l-.002-.459c-.148-6.283-4.395-11.639-10.748-15.481-6.334-3.832-14.688-6.049-22.587-6.044v-2c8.268.004 16.915 2.288 23.622 6.333 6.687 4.031 11.526 9.924 11.711 17.162l.006.49c-.022 14.094-14.143 32.329-40.454 33.682-2.913.146-5.81.224-8.67.224-11.496-.003-22.378-1.233-31.119-4.046z"/>
        <path d="M281.685 242.431c-21.084-5.206-24.936-18.7-29-27.723a1 1 0 0 1 .496-1.323.998.998 0 0 1 1.325.495c4.269 9.312 7.418 21.486 27.665 26.61 6.77 1.693 14.795 2.612 23.037 2.61 16.568.017 34.006-3.753 43.912-12.073 14.988-12.507 16.653-30.918 16.643-34.899a1 1 0 1 1 2.001 0c-.013 4.349-1.68 23.273-17.358 36.434-10.578 8.815-28.334 12.525-45.197 12.542-8.393-.003-16.562-.934-23.524-2.673z"/>
        <path d="M265.342 208.353c-1.105-2.588-1.666-5.284-1.666-7.983-.004-8.427 5.47-16.737 16.305-22.136 8.038-4.009 19.071-5.308 29.218-5.314 8.103 0 15.625.842 20.603 1.897 10.848 2.291 21.465 10.034 21.504 21.978 0 .461-.017.927-.048 1.398a1 1 0 1 1-1.995-.13c.027-.433.042-.854.042-1.269.039-10.576-9.592-17.823-19.92-20.022-4.794-1.019-12.228-1.854-20.187-1.854-9.969-.006-20.794 1.328-28.325 5.104-10.363 5.192-15.196 12.829-15.2 20.348.002 2.42.503 4.845 1.506 7.199v.002a.998.998 0 0 1-.528 1.31.997.997 0 0 1-1.309-.528zM272.784 129.212c-.65-.912-.92-2.094-.926-3.418.008-4.658 3.54-11.577 12.258-14.449 4.811-1.574 13.112-3.186 21.228-3.189 5.182.004 10.282.652 14.364 2.479 4.076 1.805 7.18 4.956 7.877 9.678a1.001 1.001 0 0 1-1.979.297c-.617-3.971-3.041-6.476-6.718-8.149-3.665-1.652-8.534-2.308-13.545-2.304-7.843-.006-16.045 1.588-20.603 3.088-7.922 2.585-10.889 8.832-10.882 12.549-.004 1.038.244 1.84.547 2.249a.997.997 0 0 1-.808 1.584c-.31 0-.617-.144-.813-.415zM282.842 154.535c-11.326-5.253-18.736-12.53-20.714-19.986a1 1 0 0 1 1.935-.507c1.687 6.542 8.611 13.6 19.618 18.679a1 1 0 0 1-.419 1.907 1.012 1.012 0 0 1-.42-.093zM323.069 151.972a1 1 0 0 1 .35-1.371c9.521-5.699 11.8-12.81 12.011-21.658v.002a.999.999 0 0 1 1.018-.981.997.997 0 0 1 .981 1.016c-.124 9.152-2.845 17.375-12.989 23.344a1.004 1.004 0 0 1-1.371-.352zM278.478 97.955c-8.624-1.017-13.696-2.851-16.719-5.244-3.042-2.389-3.815-5.417-3.79-8.086 0-1.341.168-2.619.299-3.776a1 1 0 0 1 1.107-.88c.547.063.941.558.88 1.107-.135 1.175-.289 2.377-.287 3.548.024 2.36.531 4.5 3.035 6.522 2.523 2.018 7.265 3.839 15.708 4.821.548.066.941.562.876 1.112a.999.999 0 0 1-.993.882c-.037 0-.076-.002-.116-.006zM303.963 92.237a1 1 0 0 1-.144-1.408c.821-.974 1.71-3.484 1.691-6.034 0-1.138-.16-2.289-.527-3.34v.002a1 1 0 0 1 .618-1.273.998.998 0 0 1 1.271.617c.453 1.305.636 2.671.638 3.995-.021 2.988-.893 5.731-2.14 7.297a1 1 0 0 1-.776.37 1.003 1.003 0 0 1-.631-.226zM271.036 82.935c-2.107-.574-4.561-3.191-4.647-6.74-.006-1.578.576-3.293 1.948-4.884 4.151-4.82 11.218-6.853 19.009-6.861.311 0 .623.004.936.011 4.211.092 8.231 1.477 11.276 3.357 3.018 1.907 5.196 4.217 5.371 6.766a1 1 0 0 1-.957 1.043.997.997 0 0 1-1.043-.957c.007-1.284-1.649-3.473-4.422-5.151-2.747-1.701-6.475-2.983-10.266-3.059-.3-.006-.599-.01-.895-.008-7.468-.008-13.953 2.002-17.491 6.16-1.096 1.288-1.462 2.481-1.467 3.583-.086 2.455 2.208 4.672 3.101 4.792a1 1 0 0 1-.224 1.974.987.987 0 0 1-.229-.026z"/>
    </g>
</svg>
