<svg height="355.479" viewBox="0 0 292.329 408.801" width="254.199" xmlns="http://www.w3.org/2000/svg">
    <g fill="#f4f4f4" fill-opacity=".5" stroke-width="1.15">
        <path d="M256.67 334.175q0 .276-.067.465-.099.28-.317.28-.145 0-.304-.066-.19-.08-.21-.198.065 0 .152.023.203.053.253.053.196 0 .295-.196.078-.156.078-.375 0-.154-.101-.439-.099-.287-.099-.4 0-.035.018-.055.021-.023.056-.023.09 0 .174.414.072.35.072.517zM257.555 334.41q0 .234-.136.368-.135.133-.374.133-.132 0-.203-.062-.071-.062-.071-.19 0-.183.237-.367.225-.174.416-.174.087 0 .115.108.016.062.016.184zm-.14.064q0-.027-.007-.053-.005-.027-.019-.062-.036.025-.121.124-.044.05-.076.074 0-.044.009-.071l.03-.067q-.102 0-.212.085-.108.085-.108.184 0 .067.073.067.14 0 .272-.07.159-.082.159-.21zM258.503 334.504q0 .113-.085.253-.097.159-.2.159-.03 0-.051-.032-.018-.035-.018-.067 0-.042.087-.129.09-.09.09-.122 0-.02-.007-.041l-.01-.028q-.172.04-.351.198-.177.159-.27.18-.018-.051-.018-.104 0-.065.03-.136.02-.05.07-.122.08-.122.17-.276l.158-.278q.115-.198.168-.28.028-.042.048-.063.03-.027.072-.037.027.01.039.035.013.025.013.06 0 .078-.1.211-.185.24-.19.249-.103.156-.103.283l.005.023.15-.072q.094-.039.16-.039.074 0 .109.05.034.05.034.125zM259.57 334.368q0 .157-.076.334-.083.195-.205.269-.025-.03-.043-.067-.016-.037-.016-.073 0-.04.115-.233.05-.085.046-.15l-.002-.03q-.086.026-.295.155l-.418.258q-.033 0-.06-.023-.026-.026-.026-.056 0-.048.155-.324.046-.083.165-.287.037.048.048.108.012.057.012.138v.053q.212-.127.331-.191.131-.072.18-.072.032 0 .06.074.03.074.03.117zM261.569 334.815q0 .04-.037.064-.035.02-.078.02-.04 0-.1-.008-.135-.021-.174-.021-.069 0-.271.016-.115.009-.166.009-.14 0-.14-.14 0-.134.087-.382.048-.14.182-.46.12-.288.152-.405.011-.037.018-.048.018-.028.046-.028.044 0 .074.065.03.062.03.112 0 .08-.095.272l-.184.37q-.099.216-.099.329 0 .057.049.08.034.017.1.017.051 0 .176-.012.124-.014.165-.014.104 0 .17.03.095.042.095.134zM262.424 334.41q0 .234-.135.368-.136.133-.375.133-.131 0-.203-.062-.071-.062-.071-.19 0-.183.237-.367.225-.174.416-.174.088 0 .115.108.016.062.016.184zm-.14.064q0-.027-.007-.053-.005-.027-.018-.062-.037.025-.122.124-.044.05-.076.074 0-.044.009-.071l.03-.067q-.102 0-.212.085-.108.085-.108.184 0 .067.074.067.14 0 .271-.07.159-.082.159-.21zM263.393 334.361q0 .074-.04.157-.036.083-.094.138l-.002-.032q0-.028.007-.085.007-.058.007-.086 0-.039-.011-.057-.012-.02-.049-.02-.108 0-.269.167l-.347.366-.028-.002q-.034-.01-.046-.012.007-.082.058-.184.136-.273.14-.292l.028-.108q.009-.034.025-.071.018-.04.041-.07.026-.031.065-.047l.023.276.152-.125q.1-.08.174-.08.074 0 .12.048t.046.12zM264.522 334.095q0 .096-.258.255-.248.152-.36.152-.054 0-.072-.037-.016-.037-.016-.104v-.062q.154 0 .28-.046.127-.046.221-.151-.069-.026-.14-.026-.168 0-.357.129-.207.14-.207.299 0 .152.207.212.033.009.39.064.208.032.208.113 0 .034-.076.055-.075.023-.193.023-.294 0-.464-.09-.226-.12-.226-.384 0-.276.276-.44.235-.137.534-.137.09 0 .163.041.09.05.09.134zM265.437 333.683q0 .05-.122.212-.122.16-.122.246 0 .043.051.087.115.101.115.124 0 .03-.02.058-.019.027-.049.027-.025 0-.071-.027-.032-.019-.124-.09l-.053.101q-.065.122-.088.177l-.069.212q-.06.143-.15.143l-.001-.053q0-.164.106-.387.02-.041.115-.214-.182-.099-.4-.099 0-.085.034-.124.037-.041.122-.041.078 0 .195.027l.115.028q.044-.014.12-.15.186-.326.253-.374.018.03.03.06.014.03.014.057zM266.286 334.504q0 .113-.085.253-.097.159-.2.159-.03 0-.05-.032-.02-.035-.02-.067 0-.042.088-.129.09-.09.09-.122 0-.02-.007-.041l-.01-.028q-.172.04-.351.198-.177.159-.27.18-.018-.051-.018-.104 0-.065.03-.136.021-.05.07-.122.08-.122.17-.276l.158-.278q.115-.198.168-.28.028-.042.048-.063.03-.027.072-.037.027.01.039.035.014.025.014.06 0 .078-.102.211-.184.24-.188.249-.104.156-.104.283l.005.023.15-.072q.094-.039.16-.039.074 0 .109.05.034.05.034.125zM268.174 333.754q0 .108-.115.29-.073.115-.241.331-.168.214-.21.28l.173.056q.168.05.168.184-.07.012-.136.02l-.025-.001v-.019q-.037-.009-.06-.009-.044 0-.138.014-.094.014-.142.014-.063 0-.102-.023-.039-.023-.039-.083 0-.048.177-.274.332-.42.334-.425.18-.244.18-.327 0-.032-.024-.048-.02-.016-.085-.016-.044 0-.182.085-.066.041-.108.041l-.039-.007q-.014-.009-.03-.034-.016-.028-.016-.044 0-.096.187-.177.158-.069.276-.069.098 0 .151.074.046.064.046.168zM269.557 334.168q0 .279-.302.492-.276.196-.568.196-.145 0-.23-.074-.085-.073-.085-.214 0-.312.274-.542.26-.219.582-.219.163 0 .246.097.083.096.083.264zm-.14.053q0-.106-.12-.159-.09-.039-.214-.039-.182 0-.38.177-.198.178-.198.357 0 .074.037.106.04.03.118.03.225 0 .469-.125.287-.147.287-.347zM270.61 333.754q0 .108-.115.29-.074.115-.241.331-.168.214-.21.28l.173.056q.168.05.168.184-.07.012-.136.02l-.025-.001v-.019q-.037-.009-.06-.009-.044 0-.138.014-.094.014-.143.014-.062 0-.101-.023-.04-.023-.04-.083 0-.048.178-.274l.334-.425q.179-.244.179-.327 0-.032-.023-.048-.02-.016-.085-.016-.044 0-.182.085-.067.041-.108.041l-.04-.007q-.013-.009-.029-.034-.016-.028-.016-.044 0-.096.186-.177.159-.069.276-.069.1 0 .152.074.046.064.046.168zM271.668 333.754q0 .108-.115.29-.074.115-.242.331-.167.214-.209.28l.173.056q.168.05.168.184-.07.012-.136.02l-.025-.001v-.019q-.037-.009-.06-.009-.044 0-.138.014-.095.014-.143.014-.062 0-.101-.023-.04-.023-.04-.083 0-.048.178-.274.331-.42.333-.425.18-.244.18-.327 0-.032-.023-.048-.02-.016-.085-.016-.044 0-.182.085-.067.041-.108.041l-.04-.007q-.013-.009-.029-.034-.016-.028-.016-.044 0-.096.186-.177.159-.069.276-.069.1 0 .152.074.046.064.046.168z"/>
    </g>
    <g fill="none" stroke="#f4f4f4">
        <path d="M146.284 1h87.805m57.239 101.206v297.62a7.958 7.958 0 0 1-7.976 7.975H146.366M241.367 5.215v86.892a4.44 4.44 0 0 0 4.449 4.45h34.238M234.09 1c6.194.142 7.166 1.853 7.278 4.215m38.687 91.341c6.927-.191 11.239 2.24 11.274 5.65M146.284 1H58.48M1.24 102.206v297.62a7.958 7.958 0 0 0 7.976 7.975h136.986M51.202 5.215v86.892a4.44 4.44 0 0 1-4.45 4.45H12.515M58.48 1c-6.194.142-7.167 1.853-7.278 4.215M12.514 96.556c-8.045-.595-11.26 2.346-11.273 5.65" opacity=".98" stroke-width="2.3"/>
        <g stroke-linecap="round">
            <path d="M12.548 96.314v264.12c0 1.85 1.49 3.34 3.34 3.34H146.27m133.723-267.46v264.12c0 1.85-1.49 3.34-3.34 3.34H146.27" opacity=".98" stroke-width="1.15"/>
            <g stroke-width="2.3">
                <path d="m248.5 348.39 32.757-.058 8.5 1.548M248.5 336.39l32.757-.058 8.5 1.548M248.5 324.39l32.757-.058 8.5 1.548M248.5 312.39l32.757-.058 8.5 1.548M248.5 300.39l32.757-.058 8.5 1.548M248.5 288.39l32.757-.058 8.5 1.548M248.5 276.39l32.757-.058 8.5 1.548M248.5 264.39l32.757-.058 8.5 1.548M248.5 252.39l32.757-.058 8.5 1.548M248.5 240.39l32.757-.058 8.5 1.548M248.5 228.39l32.757-.058 8.5 1.548M248.5 216.39l32.757-.058 8.5 1.548M248.5 204.39l32.757-.058 8.5 1.548M248.5 192.39l32.757-.058 8.5 1.548M248.5 180.39l32.757-.058 8.5 1.548" opacity=".98"/>
            </g>
            <g stroke-width="2.3">
                <path d="M43.757 348.39 11 348.332l-8.5 1.548M43.757 336.39 11 336.332l-8.5 1.548M43.757 324.39 11 324.332l-8.5 1.548M43.757 312.39 11 312.332l-8.5 1.548M43.757 300.39 11 300.332l-8.5 1.548M43.757 288.39 11 288.332l-8.5 1.548M43.757 276.39 11 276.332l-8.5 1.548M43.757 264.39 11 264.332l-8.5 1.548M43.757 252.39 11 252.332l-8.5 1.548M43.757 240.39 11 240.332l-8.5 1.548M43.757 228.39 11 228.332l-8.5 1.548M43.757 216.39 11 216.332l-8.5 1.548M43.757 204.39 11 204.332l-8.5 1.548M43.757 192.39 11 192.332l-8.5 1.548M43.757 180.39 11 180.332l-8.5 1.548" opacity=".98"/>
            </g>
            <g stroke-width="1.15">
                <path d="M51.133 54.308h190.485m13.288 0h36.453m.033 4.742h-36.63m-13.453 0H51.25m-13.77 0H.964m.41-4.742H37.69M51.133 64.308h190.485m13.288 0h36.453m.033 4.742h-36.63m-13.453 0H51.25m-13.77 0H.964m.41-4.742H37.69M51.133 34.308h190.485m13.288 0h36.453m.033 4.742h-36.63m-13.453 0H51.25m-13.77 0H.964m.41-4.742H37.69M51.133 44.308h190.485m13.288 0h36.453m.033 4.742h-36.63m-13.453 0H51.25m-13.77 0H.964m.41-4.742H37.69" opacity=".98"/>
            </g>
            <path d="M146.256 108.364H32.665a4.44 4.44 0 0 0-4.45 4.448v45.77a4.44 4.44 0 0 0 4.45 4.448h113.627m.036-54.666H259.92a4.44 4.44 0 0 1 4.448 4.448v45.77a4.44 4.44 0 0 1-4.448 4.448H146.292" opacity=".98" stroke-width="1.15"/>
        </g>
    </g>
    <g fill="#f4f4f4">
        <path d="m215.226 18.222 7.975-2.5 7.975-2.498v9.997l-7.975-2.5zM77.176 18.222l-7.975-2.5-7.975-2.498v9.997l7.975-2.5z" opacity=".98"/>
    </g>
    <g fill="none" stroke="#f4f4f4">
        <circle cx="146.583" cy="261.588" opacity=".98" r="70" stroke-width="1.15"/>
        <circle cx="146.255" cy="261.531" opacity=".98" r="27" stroke-width="2.3"/>
        <g stroke-linecap="round">
            <g stroke-width="5">
                <path d="M146.247 321.657v-19.95M146.247 220.983v-19.95M86.142 261.73h19.95M186.55 261.73h19.95M103.622 303.94l14.106-14.107M174.809 232.752l14.106-14.106M103.496 219.064l14.107 14.106M174.496 290.064l14.106 14.106" opacity=".98"/>
            </g>
            <g stroke-width="2.3">
                <path d="M287.87 97.743v-4.872m-33.199-82.735h-13.095m45.166 9.455c1.622 1.925 4.656 3.937 4.586 8.443M273.67 6.519c-2.893-2.894-5.44-2.607-7.195-2.783m7.195 2.783 13.072 13.072m4.586 8.443v62.29a2.373 2.373 0 0 1-2.378 2.379h-31.848a2.373 2.373 0 0 1-2.378-2.378V6.114a2.373 2.373 0 0 1 2.378-2.378h9.373M4.566 97.237v-4.366m33.2-82.735 13.195-.026M5.695 19.59c-1.622 1.926-4.656 3.938-4.586 8.444M18.767 6.519c2.893-2.894 5.44-2.607 7.195-2.783m-7.195 2.783L5.695 19.59m-4.586 8.443v62.29a2.373 2.373 0 0 0 2.378 2.379h31.848a2.373 2.373 0 0 0 2.378-2.378V6.114a2.373 2.373 0 0 0-2.378-2.378h-9.373" opacity=".98"/>
            </g>
        </g>
    </g>
</svg>
