<svg xmlns="http://www.w3.org/2000/svg" width="600" height="350" xml:space="preserve">
    <path fill="#F4F4F4" d="M459.44 57.99c30.22 0 58.64 11.77 80.01 33.14 21.37 21.37 33.14 49.79 33.14 80.01s-11.77 58.64-33.14 80.01c-21.37 21.37-49.79 33.14-80.01 33.14-15.68 0-30.85-3.15-45.11-9.37-13.76-6-26.04-14.56-36.5-25.45-.38-.39-.9-.61-1.44-.61H223.61c-.54 0-1.07.22-1.44.61-10.46 10.89-22.74 19.45-36.5 25.45-14.26 6.21-29.43 9.37-45.11 9.37-30.22 0-58.64-11.77-80.01-33.14-21.37-21.37-33.14-49.79-33.14-80.01s11.77-58.64 33.14-80.01c21.37-21.37 49.79-33.14 80.01-33.14h318.88m0-2H140.56c-63.6 0-115.15 51.56-115.15 115.15S76.96 286.3 140.56 286.3c32.65 0 62.1-13.61 83.05-35.43h152.78c20.96 21.82 50.4 35.43 83.05 35.43 63.6 0 115.15-51.56 115.15-115.15S523.04 55.99 459.44 55.99z"/>
    <path fill="#F4F4F4" d="M572.6 163.14v30c0 30.22-11.77 58.64-33.14 80.01-21.37 21.37-49.79 33.14-80.01 33.14-15.68 0-30.85-3.15-45.11-9.37-13.76-6-26.04-14.56-36.5-25.45-.38-.39-.9-.61-1.44-.61H223.61c-.54 0-1.07.22-1.44.61-10.46 10.89-22.74 19.45-36.5 25.45-14.26 6.21-29.43 9.37-45.11 9.37-30.22 0-58.64-11.77-80.01-33.14S27.4 223.37 27.4 193.14v-30h-2v30c0 63.6 51.56 115.15 115.15 115.15 32.65 0 62.1-13.61 83.05-35.43H376.39c20.96 21.82 50.4 35.43 83.05 35.43 63.6 0 115.15-51.56 115.15-115.15v-30h-1.99zM74.22 79.46c.62-.45 1.23-.89 1.86-1.32-2.21-.82-3.53-2.69-4.07-4.47-.71-2.35-.37-5.58 2.73-7.64 17.76-11.82 42.37-18.88 65.84-18.88h44.28c3.78 0 6.86 3.08 6.86 6.86v4h2v-4c0-4.89-3.96-8.86-8.86-8.86h-44.28c-23.54 0-48.72 7.08-66.95 19.22-5.9 3.9-4.72 12.11.59 15.09zM408.3 57.99v-4c0-3.78 3.08-6.86 6.86-6.86h44.28c23.47 0 48.08 7.06 65.84 18.88 3.09 2.06 3.44 5.3 2.73 7.64-.54 1.78-1.86 3.65-4.07 4.47.62.43 1.24.88 1.86 1.32 5.31-2.97 6.48-11.18.59-15.1-18.23-12.14-43.4-19.22-66.95-19.22h-44.28c-4.89 0-8.86 3.97-8.86 8.86v4h2zM343.4 163.08h-54.84c-.4 0-.77-.24-.92-.62-.15-.37-.07-.8.22-1.09l23.34-23.34c-.64-.9-.95-1.91-.93-3.01.07-3.1 2.79-6.05 4.41-7.53.39-.36 1-.35 1.38.03l2.44 2.45c1.38 1.38 1.52 2.71 1.4 3.58-.22 1.59-1.42 2.83-2.34 3.56l5.48 5.49c1.11-3.13 3.18-10.86-1.34-15.37l-.56-.56c-1.93-1.93-3.23-3.23-4.13-4.14a.996.996 0 0 1 0-1.41l8.64-8.63a1 1 0 0 1 1.04-.23 5.4 5.4 0 0 0 5.62-1.25 5.34 5.34 0 0 0 1.59-3.82c0-1.44-.56-2.79-1.59-3.81a5.357 5.357 0 0 0-3.81-1.59c-1.44 0-2.79.56-3.81 1.58-1.49 1.49-1.97 3.66-1.24 5.67.13.36.04.77-.23 1.05l-8.62 8.61a.996.996 0 0 1-1.41 0c-.76-.75-1.8-1.79-3.25-3.25l-1.46-1.47c-4.51-4.51-12.24-2.44-15.36-1.34l5.48 5.49c.73-.92 1.96-2.12 3.55-2.34.88-.12 2.21.02 3.59 1.4.85.86 1.67 1.69 2.44 2.44.38.38.4.99.04 1.39-1.18 1.3-4.28 4.33-7.51 4.41-1.13.02-2.13-.28-3.03-.93l-13.39 13.39c-8.74 8.74-19.02 19.03-24.89 24.9a.99.99 0 0 1-.71.29h-2.95c-.35 0-.67-.18-.85-.48-4.98-8.2-7.62-17.57-7.62-27.09 0-28.84 23.47-52.3 52.31-52.3 28.84 0 52.3 23.46 52.3 52.3 0 9.51-2.63 18.88-7.61 27.09-.19.29-.52.48-.87.48zm-52.42-2h51.85c4.6-7.78 7.03-16.6 7.03-25.57 0-27.74-22.56-50.3-50.3-50.3s-50.31 22.57-50.31 50.3c0 8.97 2.43 17.8 7.04 25.57h1.96c5.91-5.91 16-16.01 24.6-24.6l14.04-14.04a.996.996 0 0 1 1.41 0c.69.69 1.43 1.01 2.34.99 2.04-.05 4.23-1.9 5.42-3.07-.56-.56-1.15-1.16-1.75-1.76-.65-.64-1.26-.92-1.9-.83-1.29.18-2.5 1.84-2.82 2.41-.15.27-.43.46-.74.5a.991.991 0 0 1-.84-.28l-7.41-7.42c-.23-.23-.33-.56-.28-.88.06-.32.27-.6.57-.73.5-.23 12.28-5.49 18.98 1.21l1.46 1.47c1.05 1.05 1.88 1.88 2.54 2.55l7.48-7.48c-.69-2.57.01-5.26 1.9-7.15a7.314 7.314 0 0 1 5.22-2.17c1.97 0 3.83.77 5.22 2.17a7.314 7.314 0 0 1 2.17 5.22c0 1.98-.77 3.84-2.18 5.23-1.84 1.85-4.57 2.56-7.08 1.9l-7.5 7.5c.84.84 1.95 1.96 3.42 3.43l.56.56c6.71 6.71 1.43 18.49 1.21 18.99-.14.3-.41.51-.73.57a.993.993 0 0 1-.88-.28l-7.41-7.42a.972.972 0 0 1-.28-.84c.04-.31.23-.58.5-.73.61-.35 2.24-1.53 2.41-2.82.08-.62-.19-1.24-.84-1.89l-1.75-1.75c-1.17 1.2-3.03 3.41-3.07 5.43-.02.88.31 1.64.99 2.32.19.19.29.44.29.71 0 .27-.11.52-.29.71l-22.25 22.27z"/>
    <path fill="#F4F4F4" d="M150.11 113.42c2.21 0 4 1.79 4 4v31.46h31.46c2.21 0 4 1.79 4 4v18.53c0 2.21-1.79 4-4 4h-31.46v31.46c0 2.21-1.79 4-4 4h-18.53c-2.21 0-4-1.79-4-4v-31.46H96.12c-2.21 0-4-1.79-4-4v-18.53c0-2.21 1.79-4 4-4h31.46v-31.46c0-2.21 1.79-4 4-4h18.53m0-2h-18.53c-3.31 0-6 2.69-6 6v29.46H96.12c-3.31 0-6 2.69-6 6v18.53c0 3.31 2.69 6 6 6h29.46v29.46c0 3.31 2.69 6 6 6h18.53c3.31 0 6-2.69 6-6v-29.46h29.46c3.31 0 6-2.69 6-6v-18.53c0-3.31-2.69-6-6-6h-29.46v-29.46c0-3.3-2.7-6-6-6z"/>
    <path fill="#F4F4F4" d="M125.58 183.41H96.12c-2.21 0-4-1.79-4-4v-10h-2v10c0 3.31 2.69 6 6 6h29.46v-2zM154.11 204.86v10c0 2.21-1.79 4-4 4h-18.53c-2.21 0-4-1.79-4-4v-10h-2v10c0 3.31 2.69 6 6 6h18.53c3.31 0 6-2.69 6-6v-10h-2zM189.56 169.41v10c0 2.21-1.79 4-4 4H156.1v2h29.46c3.31 0 6-2.69 6-6v-10h-2zM140.84 133.17c-.55 0-1-.45-1-1v-12.75c0-.55.45-1 1-1s1 .45 1 1v12.75c0 .56-.44 1-1 1z"/>
    <path fill="#F4F4F4" d="M140.84 205.86c-.55 0-1-.45-1-1v-12.75c0-.55.45-1 1-1s1 .45 1 1v12.75c0 .55-.44 1-1 1zM110.87 163.14H98.12c-.55 0-1-.45-1-1s.45-1 1-1h12.75c.55 0 1 .45 1 1s-.44 1-1 1zM183.56 163.14h-12.75c-.55 0-1-.45-1-1s.45-1 1-1h12.75c.55 0 1 .45 1 1s-.45 1-1 1zM417.01 146.85c9.78 0 17.72 7.93 17.72 17.72 0 9.78-7.93 17.72-17.72 17.72s-17.72-7.93-17.72-17.72c.01-9.79 7.94-17.72 17.72-17.72m0-2c-10.87 0-19.72 8.84-19.72 19.72s8.84 19.72 19.72 19.72 19.72-8.84 19.72-19.72-8.85-19.72-19.72-19.72z"/>
    <path fill="#F4F4F4" d="M434.73 171.4c0 9.78-7.93 17.72-17.72 17.72-9.78 0-17.72-7.93-17.72-17.72v-6.84h-2v6.84c0 10.87 8.84 19.72 19.72 19.72s19.72-8.84 19.72-19.72v-6.84h-2v6.84zM503.88 146.85c9.78 0 17.72 7.93 17.72 17.72 0 9.78-7.93 17.72-17.72 17.72s-17.72-7.93-17.72-17.72 7.93-17.72 17.72-17.72m0-2c-10.87 0-19.72 8.84-19.72 19.72s8.84 19.72 19.72 19.72 19.72-8.84 19.72-19.72-8.85-19.72-19.72-19.72z"/>
    <path fill="#F4F4F4" d="M521.59 171.4c0 9.78-7.93 17.72-17.72 17.72-9.78 0-17.72-7.93-17.72-17.72v-6.84h-2v6.84c0 10.87 8.84 19.72 19.72 19.72 10.87 0 19.72-8.84 19.72-19.72v-6.84h-2v6.84zM460.44 111.43c9.78 0 17.72 7.93 17.72 17.72s-7.93 17.72-17.72 17.72-17.72-7.93-17.72-17.72 7.94-17.72 17.72-17.72m0-2c-10.87 0-19.72 8.84-19.72 19.72s8.84 19.72 19.72 19.72 19.72-8.84 19.72-19.72-8.85-19.72-19.72-19.72z"/>
    <path fill="#F4F4F4" d="M478.16 135.99c0 9.78-7.93 17.72-17.72 17.72-9.78 0-17.72-7.93-17.72-17.72v-6.84h-2v6.84c0 10.87 8.84 19.72 19.72 19.72s19.72-8.84 19.72-19.72v-6.84h-2v6.84zM460.44 182.58c9.78 0 17.72 7.93 17.72 17.72 0 9.78-7.93 17.72-17.72 17.72s-17.72-7.93-17.72-17.72c.01-9.79 7.94-17.72 17.72-17.72m0-2c-10.87 0-19.72 8.84-19.72 19.72s8.84 19.72 19.72 19.72 19.72-8.84 19.72-19.72-8.85-19.72-19.72-19.72z"/>
    <path fill="#F4F4F4" d="M478.16 207.14c0 9.78-7.93 17.72-17.72 17.72-9.78 0-17.72-7.93-17.72-17.72v-6.84h-2v6.84c0 10.87 8.84 19.72 19.72 19.72s19.72-8.84 19.72-19.72v-6.84h-2v6.84z"/>
    <path fill="#F4F4F4" d="M460.71 249.65c-43.13 0-78.22-35.09-78.22-78.22 0-43.13 35.09-78.23 78.22-78.23 43.13 0 78.23 35.09 78.23 78.23 0 43.13-35.1 78.22-78.23 78.22zm0-154.45c-42.03 0-76.22 34.19-76.22 76.23 0 42.03 34.19 76.22 76.22 76.22s76.23-34.19 76.23-76.22-34.2-76.23-76.23-76.23zM140.84 249.65c-43.13 0-78.23-35.09-78.23-78.22 0-43.13 35.09-78.23 78.23-78.23s78.23 35.09 78.23 78.23c0 43.13-35.09 78.22-78.23 78.22zm0-154.45c-42.03 0-76.23 34.19-76.23 76.23 0 42.03 34.19 76.22 76.23 76.22s76.23-34.19 76.23-76.22-34.2-76.23-76.23-76.23z"/>
</svg>
