<svg height="364.405" viewBox="0 0 1013.811 765.251" width="482.767" xmlns="http://www.w3.org/2000/svg">
    <g fill="#f4f4f4" fill-opacity=".5" stroke-width="2.1">
        <path d="M578.654 230.668q0 .672-.162 1.13-.24.684-.773.684-.353 0-.74-.162-.464-.196-.509-.482.157 0 .37.056.493.129.616.129.476 0 .717-.476.19-.38.19-.913 0-.375-.246-1.07-.241-.7-.241-.974 0-.084.045-.134.05-.056.134-.056.218 0 .426 1.008.173.85.173 1.26zM580.81 231.239q0 .571-.33.896-.33.325-.913.325-.32 0-.493-.151-.173-.152-.173-.465 0-.443.576-.89.55-.426 1.014-.426.213 0 .28.263.04.151.04.448zm-.341.157q0-.067-.017-.13-.011-.066-.045-.15-.09.061-.297.302-.106.123-.185.18 0-.107.023-.174.045-.095.073-.163-.247 0-.516.208-.263.207-.263.448 0 .162.18.162.341 0 .66-.168.387-.202.387-.515zM583.117 231.469q0 .274-.207.616-.235.386-.487.386-.073 0-.123-.078-.045-.084-.045-.163 0-.1.213-.313.218-.219.218-.297 0-.05-.017-.101l-.022-.067q-.42.095-.857.481-.43.387-.655.437-.045-.123-.045-.252 0-.157.073-.33.05-.123.168-.297.196-.297.414-.672l.387-.678q.28-.481.409-.683.067-.1.117-.151.073-.067.174-.09.067.023.095.084.034.062.034.146 0 .19-.247.515-.448.583-.459.605-.252.38-.252.689l.011.056q.308-.151.364-.174.23-.095.392-.095.18 0 .263.123.084.118.084.303zM585.716 231.138q0 .38-.185.812-.202.476-.498.655-.062-.072-.107-.162-.039-.09-.039-.18 0-.094.28-.565.123-.207.112-.364l-.006-.073q-.207.062-.717.376-.504.308-1.019.627-.078 0-.146-.056-.061-.062-.061-.135 0-.117.375-.79.112-.2.403-.7.09.118.118.264.028.14.028.336v.129q.515-.308.806-.465.32-.174.437-.174.078 0 .146.18.072.179.072.285zM590.582 232.225q0 .1-.09.156-.083.05-.19.05-.095 0-.24-.022-.33-.05-.426-.05-.168 0-.66.04-.28.022-.404.022-.342 0-.342-.342 0-.325.213-.93.118-.341.442-1.12.292-.7.37-.985.028-.09.045-.118.045-.067.112-.067.106 0 .18.157.072.15.072.274 0 .196-.23.66-.23.46-.448.903-.24.526-.24.8 0 .14.117.196.084.04.246.04.124 0 .426-.028.302-.034.403-.034.252 0 .415.073.23.1.23.325zM592.665 231.239q0 .571-.33.896-.33.325-.913.325-.319 0-.493-.151-.173-.152-.173-.465 0-.443.577-.89.548-.426 1.013-.426.213 0 .28.263.04.151.04.448zm-.341.157q0-.067-.017-.13-.011-.066-.045-.15-.09.061-.297.302-.106.123-.184.18 0-.107.022-.174.045-.095.073-.163-.247 0-.515.208-.264.207-.264.448 0 .162.18.162.341 0 .66-.168.387-.202.387-.515zM595.023 231.121q0 .18-.095.381-.09.202-.23.336l-.006-.078q0-.067.017-.207.017-.14.017-.208 0-.095-.028-.14-.028-.05-.118-.05-.263 0-.655.409l-.846.89q-.033 0-.067-.006l-.112-.028q.017-.201.14-.448.33-.666.342-.711l.067-.263q.022-.084.062-.174.044-.095.1-.168.062-.078.157-.117l.056.672q.241-.196.37-.303.246-.196.425-.196.18 0 .292.118.112.117.112.29zM597.773 230.472q0 .235-.628.621-.604.37-.879.37-.129 0-.173-.09-.04-.09-.04-.252v-.15q.376 0 .684-.113.308-.112.537-.37-.168-.061-.341-.061-.41 0-.868.314-.504.341-.504.728 0 .37.504.515.078.022.946.157.51.078.51.274 0 .084-.185.134-.185.056-.47.056-.717 0-1.132-.218-.549-.291-.549-.935 0-.672.672-1.07.572-.336 1.3-.336.218 0 .397.1.219.124.219.326zM600.001 229.47q0 .123-.296.515-.297.392-.297.599 0 .106.123.213.28.246.28.302 0 .073-.05.14-.045.067-.118.067-.062 0-.174-.067-.078-.045-.302-.218l-.129.246q-.156.297-.212.431l-.168.515q-.146.348-.364.348l-.006-.13q0-.397.257-.94.05-.1.28-.52-.442-.242-.974-.242 0-.207.084-.302.09-.1.297-.1.19 0 .476.066l.28.068q.106-.034.29-.364.454-.796.617-.913.044.073.072.145.034.073.034.14zM602.068 231.469q0 .274-.207.616-.235.386-.487.386-.073 0-.124-.078-.044-.084-.044-.163 0-.1.212-.313.219-.219.219-.297 0-.05-.017-.101l-.022-.067q-.42.095-.857.481-.431.387-.655.437-.045-.123-.045-.252 0-.157.073-.33.05-.123.168-.297.196-.297.414-.672l.386-.678q.28-.481.41-.683.066-.1.117-.151.073-.067.173-.09.068.023.096.084.033.062.033.146 0 .19-.246.515-.448.583-.46.605-.251.38-.251.689l.01.056q.309-.151.365-.174.23-.095.392-.095.179 0 .263.123.084.118.084.303zM606.666 229.643q0 .263-.28.706-.18.28-.588.806-.41.52-.51.683l.42.135q.409.123.409.448-.168.028-.33.05l-.062-.006v-.045q-.09-.022-.146-.022-.106 0-.336.033-.23.034-.347.034-.151 0-.246-.056-.096-.056-.096-.202 0-.117.432-.666.806-1.025.812-1.036.436-.594.436-.795 0-.079-.056-.118-.05-.04-.207-.04-.106 0-.442.208-.163.1-.263.1l-.096-.016q-.033-.022-.072-.084-.04-.067-.04-.106 0-.235.454-.431.386-.168.672-.168.24 0 .37.179.112.157.112.409zM610.031 230.65q0 .679-.733 1.2-.672.475-1.384.475-.352 0-.56-.179-.207-.18-.207-.52 0-.762.667-1.322.632-.532 1.416-.532.398 0 .6.235.201.235.201.644zm-.341.13q0-.258-.292-.387-.218-.095-.52-.095-.443 0-.924.431-.482.432-.482.868 0 .18.09.258.095.073.285.073.549 0 1.143-.303.7-.358.7-.845zM612.596 229.643q0 .263-.28.706-.18.28-.588.806-.409.52-.51.683l.42.135q.41.123.41.448-.169.028-.331.05l-.062-.006v-.045q-.09-.022-.145-.022-.107 0-.336.033-.23.034-.348.034-.15 0-.246-.056-.095-.056-.095-.202 0-.117.43-.666.807-1.025.813-1.036.437-.594.437-.795 0-.079-.056-.118-.05-.04-.207-.04-.107 0-.443.208-.162.1-.263.1l-.095-.016q-.034-.022-.073-.084-.04-.067-.04-.106 0-.235.454-.431.387-.168.672-.168.241 0 .37.179.112.157.112.409zM615.172 229.643q0 .263-.28.706-.18.28-.588.806-.409.52-.51.683l.42.135q.41.123.41.448-.169.028-.331.05l-.062-.006v-.045q-.09-.022-.145-.022-.107 0-.336.033-.23.034-.348.034-.15 0-.246-.056-.095-.056-.095-.202 0-.117.43-.666.807-1.025.813-1.036.437-.594.437-.795 0-.079-.056-.118-.05-.04-.207-.04-.107 0-.443.208-.162.1-.263.1l-.095-.016q-.034-.022-.073-.084-.04-.067-.04-.106 0-.235.454-.431.387-.168.672-.168.241 0 .37.179.112.157.112.409z"/>
    </g>
    <g fill="none" stroke="#f4f4f4">
        <path d="M944.091 224.48c17.193 53.618 31.596 110.373 44.252 167.356 9.942 40.512 12.33 83.518 18.362 125.305 3.34 31.886 7.35 65.327 3.293 98.22-7.5 53.603-25.675 77.81-44.688 99.71-36.117 31.679-62.87 42.455-86.387 46.01-14.065 2.013-29.851 4.298-43.616-2.517M506.905 537.723l147.15-1.01c23.108-.559 41.322 7.274 52.853 26.564 35.662 50.789 56.979 117.706 91.868 164.935 9.474 12.825 22 22.816 36.53 30.352M944.092 224.48c-14.186-41.305-32.47-81.625-49.956-123.639-12.845-26.654-31.47-33.75-41.941-36.865-110.908-30.66-227.98-25.988-345.289-27.523M69.72 224.48c-17.193 53.618-31.595 110.373-44.251 167.356-9.942 40.512-12.33 83.518-18.363 125.305-3.34 31.886-7.35 65.327-3.292 98.22 7.499 53.603 25.674 77.81 44.688 99.71 36.117 31.679 62.87 42.455 86.386 46.01 14.066 2.013 29.852 4.298 43.617-2.517m328.401-220.841-147.15-1.01c-23.108-.559-41.321 7.274-52.852 26.564-35.663 50.789-56.979 117.706-91.868 164.935-9.475 12.825-22 22.816-36.531 30.352M69.719 224.48c14.187-41.305 32.471-81.625 49.957-123.639 12.845-26.654 31.47-33.75 41.94-36.865 110.909-30.66 227.98-25.988 345.29-27.523" stroke-width="4.2"/>
        <path d="M388.404 307.108c-20.248 0-40.372 8.337-54.69 22.654-14.317 14.318-22.654 34.441-22.654 54.69s8.337 40.371 22.655 54.69c14.317 14.317 34.44 22.654 54.69 22.654s40.37-8.337 54.689-22.655c14.317-14.318 22.654-34.44 22.654-54.69s-8.337-40.37-22.654-54.689c-14.318-14.317-34.442-22.654-54.69-22.654z" stroke-width="1.05"/>
    </g>
    <g fill="none" stroke="#f4f4f4" stroke-width="4.2" transform="translate(-9.76 -118.83)">
        <circle cx="234.65" cy="352.136" r="129"/>
        <path d="M229.418 249.295c-7.713 0-13.922 8.027-13.922 17.998v67.344h-67.344c-9.97 0-17.998 6.209-17.998 13.922v7.619c0 7.712 8.028 13.922 17.998 13.922h67.344v67.343c0 9.971 6.21 17.996 13.922 17.996h7.62c7.712 0 13.921-8.025 13.921-17.996V370.1h67.344c9.97 0 17.998-6.21 17.998-13.922v-7.62c0-7.712-8.028-13.921-17.998-13.921h-67.344v-67.344c0-9.97-6.21-17.998-13.922-17.998z"/>
        <circle cx="398.164" cy="503.282" r="58"/>
        <rect height="23.829" rx="11.915" width="52.122" x="405.362" y="331.56"/>
        <rect height="23.829" rx="11.915" width="52.122" x="579.362" y="331.56"/>
        <circle cx="516.979" cy="343.6" r="42"/>
    </g>
    <path d="M510.033 216.492c0 .05 0 .098.002.145l-7.168 10.412a8.03 8.03 0 0 0-3.431.606 7.97 7.97 0 0 0-1.372.725l-15.74-6.48s-.364 5.992 1.154 10.457l11.127 4.592a8.116 8.116 0 0 0 4.799 5.74c4.134 1.728 8.901-.241 10.621-4.377a8.16 8.16 0 0 0 .626-3.347l10.257-7.33c.083.002.168.005.251.005 6.138 0 11.127-5.003 11.127-11.148 0-6.146-4.989-11.145-11.127-11.145-6.135 0-11.126 5-11.126 11.145zm-1.72 21.1c-1.33 3.196-5.003 4.713-8.196 3.383a6.23 6.23 0 0 1-3.226-3.078l3.622 1.501a4.614 4.614 0 0 0 6.034-2.49 4.62 4.62 0 0 0-2.485-6.042l-3.744-1.551a6.23 6.23 0 0 1 4.622.07c1.547.644 2.747 1.856 3.383 3.405s.634 3.259-.01 4.803m12.847-13.674c-4.086 0-7.413-3.332-7.413-7.427 0-4.093 3.327-7.425 7.413-7.425 4.088 0 7.415 3.332 7.415 7.425 0 4.095-3.327 7.427-7.415 7.427m-5.555-7.439c0-3.08 2.495-5.58 5.567-5.58a5.576 5.576 0 0 1 5.57 5.58 5.574 5.574 0 0 1-5.57 5.578 5.573 5.573 0 0 1-5.567-5.578z" fill="#f4f4f4"/>
    <g fill="none" stroke="#f4f4f4" stroke-width="4.2" transform="translate(-9.76 -118.83)">
        <circle cx="800.45" cy="352.136" r="129"/>
        <circle cx="644.598" cy="450.627" r="30"/>
        <circle cx="589.828" cy="505.015" r="30"/>
        <circle cx="695.962" cy="505.701" r="30"/>
        <circle cx="641.192" cy="560.088" r="30"/>
        <path d="M199.17 155.989c25.168-13.338 49.51-29.834 78.083-34.6 15.89-1.569 32.76.66 47.195 10.109 3.584 2.46 6.859 4.588 11.043 6.94"/>
        <path d="M131.599 217.732c8.974-25.749 33.947-42.93 55.338-55.162 20.017-11.547 42.108-20.135 65.24-23.544 34.342-5.797 69.42-2.761 103.71 1.832 7.54 1.719 18.424 5.798 17.484 15.258M835.17 155.989c-25.168-13.338-49.51-29.834-78.082-34.6-15.89-1.569-32.76.66-47.195 10.109-3.584 2.46-6.86 4.588-11.043 6.94"/>
        <path d="M902.742 217.732c-8.975-25.749-33.947-42.93-55.338-55.162-20.018-11.547-42.108-20.135-65.24-23.544-34.342-5.797-69.421-2.761-103.711 1.832-7.54 1.719-18.424 5.798-17.484 15.258"/>
    </g>
</svg>
