<svg xmlns="http://www.w3.org/2000/svg" version="1.2" width="598.191" height="350.257" xml:space="preserve">
    <path style="fill:#f4f4f4;fill-opacity:1" d="M260.316 318.759c-.299-.299-7.839-.575-16.755-.613-11.2-.049-16.526-.332-17.23-.916-.966-.802-8.815-1.086-14.02-.508-3.465.385-20.393-1.398-18.699-1.97 1.377-.465 7.523-1.465 15.031-2.446 1.892-.247 3.44-.695 3.44-.994 0-.3.897-.781 1.993-1.07 1.832-.48 1.876-.57.543-1.113-.836-.341-1.015-.612-.422-.642 4.763-.236-10.809-3.023-16.42-2.938-1.295.02-2.354-.258-2.354-.617 0-.75 4.171-1.547 8.16-1.558 1.499-.004 3.416-.416 4.259-.914 1.227-.724 1.6-.724 1.861 0 .18.498 1.109.906 2.062.906 2.163 0 3.99-2.645 4.17-6.037.073-1.388.242-2.417.376-2.287.617.603 5.123-1.54 7.847-3.733 1.66-1.337 3.513-2.43 4.116-2.43.604 0 1.298-.632 1.543-1.404.245-.772 1.405-1.828 2.578-2.347 1.655-.733 2.03-1.268 1.672-2.394-.396-1.246-.302-1.319.666-.516.68.565 1.297.66 1.558.238.237-.384.05-.825-.414-.98-.633-.21-.64-.634-.026-1.691.45-.776.828-.996.84-.488.017.718.383.696 1.652-.1.896-.563 2.871-1.417 4.389-1.899 2.526-.801 2.648-.956 1.448-1.837-1.223-.898-1.174-1.014.73-1.74 2.559-.978 7.837-.998 12.837-.05 4.314.818 5.074 1.254 3.686 2.112-.678.42-.384.732 1.02 1.084 2.762.693 6.478 3.448 6.585 4.882.08 1.076-.147 1.057-2.174-.178-2.386-1.456-4.798-1.827-4.798-.739 0 .356.49.835 1.087 1.064.598.23 1.087.916 1.087 1.526 0 1.25-1.13 1.489-1.811.385-.593-.959-3.985-.935-3.985.029 0 .414-.713.088-1.585-.725-1.945-1.812-2.869-1.898-2.253-.21.405 1.11.244 1.088-1.29-.18-.964-.797-1.941-1.703-2.171-2.013-.23-.31-1.534-.493-2.898-.405-2.367.152-3.382.866-9.83 6.912-2.514 2.356-2.303 5.667.468 7.351 2.749 1.672 7.737 1.882 11.123.467 2.982-1.246 5.714-5.691 5.052-8.221-.236-.906-.068-1.556.402-1.556 1.066 0 .977 2.613-.202 5.912-.792 2.218-.787 2.591.032 2.277.539-.207.984-.748.99-1.204.008-.607.155-.603.548.016.65 1.02 2.353-.053 3.637-2.292.75-1.31.833-1.218.853.948.015 1.602.295 2.228.846 1.888.453-.28 1.35.182 1.992 1.028 1.64 2.157 3.758 1.378 6.11-2.25 2.446-3.772 2.524-2.667.109 1.558-1.122 1.963-1.571 3.481-1.178 3.984.35.446.84 1.667 1.089 2.712 1.115 4.681 9.761 3.946 10.702-.91.278-1.437-.777-9.304-1.6-11.93-.815-2.6-3.839-5.72-4.905-5.06-.4.247-.919.141-1.151-.235-.233-.377.29-.79 1.16-.918 2.828-.415 2.165-1.72-1.553-3.057-2-.719-4.858-2.407-6.35-3.752-1.493-1.344-2.958-2.452-3.257-2.461-.299-.01-.543-.338-.543-.73 0-.703 3.734 1.148 7.244 3.592 3.365 2.343 8.276 2.918 10.022 1.172.972-.972.942-1.43-.275-4.201-1.914-4.355-8.007-9.987-10.827-10.008-1.199-.009-2.995-.653-3.991-1.432-2.331-1.824-2.63-1.803-5.203.362-2.335 1.965-4.43 2.248-7.608 1.028-3.029-1.163-13.111-2.834-17.251-2.859-3.171-.018-4.018-.374-6.805-2.854-3.072-2.733-3.168-2.946-2.74-6.064.414-3.022.14-3.738-4.238-11.09-4.988-8.377-5.894-10.787-2.615-6.955 1.109 1.294 2.347 2.354 2.752 2.354.867 0 2.417 3.153 2.42 4.924.002.678.616 2.238 1.365 3.467.75 1.228 1.587 3.257 1.862 4.508.583 2.656 7.027 8.832 9.216 8.832.782 0 1.891.47 2.465 1.044.574.574 2.588 1.23 4.476 1.457 1.888.227 5.662 1.122 8.388 1.99 4.945 1.572 7.359 1.329 7.359-.744 0-.442 1.14-1.767 2.535-2.944 3.096-2.613 2.736-3.533-2.945-7.53-4.581-3.224-7.08-4.039-7.987-2.607-.497.784-.638.796-.647.056-.006-.522-.3-.77-.653-.552-.354.219-1.046-.088-1.538-.681-.492-.593-1.343-1.079-1.891-1.079-1.79 0-7.52-6.312-7.52-8.283 0-.225.327-.41.725-.41.399 0 .643.287.543.638-.311 1.095 5.956 7.298 7.856 7.775 2.286.574 3.26-.305 1.456-1.314-2.722-1.524-6.957-5.85-6.957-7.108 0-.71-1.837-3.686-4.082-6.616-4.864-6.348-5.674-7.606-2.98-4.63 4.31 4.76 7.667 9.529 7.902 11.223.154 1.113 1.467 2.662 3.506 4.139 1.793 1.298 3.79 2.82 4.436 3.382.648.562 3.095 2.045 5.44 3.294 2.344 1.25 5.237 3.112 6.429 4.138 2.546 2.193 6.787 4.102 8.043 3.62.485-.186 1.32-1.255 1.858-2.376.585-1.223 1.91-2.342 3.31-2.796 3.374-1.095 5.254-3.421 5.254-6.5 0-1.434-.298-2.423-.663-2.198-.675.417-2.234-5.56-2.234-8.564 0-1.696-3.02-5.16-3.81-4.37-.242.243-1.553-.406-2.912-1.442-2.603-1.986-7.06-2.608-7.018-.979.028 1.127 1.74 3.44 2.545 3.44.329 0 1.3.66 2.157 1.465l1.559 1.465 1.966-1.547c2.246-1.767 3.099-1.466 1.946.688-.646 1.208-.463 1.818 1.028 3.427 2.106 2.272 2.19 2.706.758 3.895-.871.723-1.14.544-1.532-1.017-.581-2.314-2.289-3.305-5.694-3.305-1.562 0-2.512-.327-2.402-.828.259-1.187-4.355-2.27-7.955-1.868-1.686.188-2.89.057-2.674-.292.216-.348 1.595-.668 3.066-.71l2.673-.078-1.992-.787c-1.095-.433-1.992-1.07-1.992-1.414 0-.345.345-.415.766-.154 1.23.76 4.305-.316 4.305-1.506 0-1.205-3.353-2.762-4.774-2.217-.496.19-1.094-.157-1.33-.772-.352-.917.09-1.068 2.475-.84 3.407.325 3.496 0 1.473-5.325-.788-2.072-1.277-3.922-1.087-4.112.19-.19.345.07.345.577 0 .508.449.751.997.54.929-.356 3.05 2.744 2.754 4.025-.214.922 7.354 5.56 9.905 6.07 4.243.848 2.502-1.868-4.003-6.245-3.257-2.191-6.92-5.036-8.14-6.322-1.22-1.286-3.09-2.557-4.154-2.824-3.014-.756-12.006 1.723-13.465 3.712-.335.457-.537.405-.544-.139-.006-.475.714-1.372 1.6-1.992l1.61-1.128-1.792.032c-.985.018-3.082.492-4.66 1.054-2.913 1.037-4.471.818-2.564-.361 1.804-1.115.478-1.372-2.904-.563-3.85.921-9.904 3.686-11.953 5.46-3.63 3.141-10.502 15.63-10.459 19.007.013.996.682 2.952 1.486 4.347.805 1.394 1.279 1.934 1.054 1.2-.226-.734-.589-2.201-.807-3.26l-.397-1.924 1.043 1.81c.574.997 1.429 3.686 1.9 5.977.472 2.29 1.128 4.165 1.46 4.165.632 0 2.389 4.391 1.937 4.843-.144.144-.767.068-1.384-.169-.698-.268-1.478-2.223-2.065-5.178-.52-2.611-1.058-4.407-1.196-3.99-.14.416.262 3.25.891 6.297 1.375 6.658 1.318 6.27 1.138 7.614-.08.598-.608-1.068-1.174-3.7-.565-2.634-1.598-6.583-2.295-8.776l-1.266-3.987v9.137c0 8.446.137 9.369 1.811 12.203 1.935 3.276 2.891 3.99 4.232 3.162.598-.37.46-.928-.48-1.938-1.618-1.736-2.52-4.69-1.288-4.217.469.18 2.067 1.725 3.553 3.433l2.701 3.107 5.832-.16c3.853-.105 6.49.183 7.774.85 1.069.555 2.486.837 3.15.626.663-.21 1.416-.043 1.672.372s1.262.754 2.234.754c.973 0 1.769.326 1.769.724 0 .399.489.725 1.086.725.598 0 1.087-.266 1.087-.59 0-.325 1.304-1.286 2.897-2.137 3.795-2.026 3.72-.776-.12 2.006-2.847 2.063-3.278 2.158-7.687 1.707l-4.67-.479.442 2.1c.416 1.982-.8 6.847-2.015 8.062-.523.524-.108-2.017.855-5.237.582-1.942.196-4.225-.824-4.878-.457-.293-2.135-.547-3.728-.564-1.594-.018-5.18-.666-7.968-1.44-2.79-.773-6.472-1.415-8.185-1.427-2.955-.02-3.186-.179-4.512-3.1-1.165-2.567-1.4-4.773-1.413-13.293-.015-9.663-.12-10.406-1.938-13.763a414.01 414.01 0 0 1-2.934-5.507c-1.087-2.105-3.117-3.942-8.402-7.605-2.4-1.664-4.008-3.61-5.684-6.882-2.087-4.076-2.363-5.334-2.584-11.806-.137-3.984-.614-8.458-1.062-9.943-.735-2.44-.632-2.962 1.075-5.433 2.553-3.696 3-7.462 1.639-13.828-1.356-6.344-1.427-16.178-.142-19.692.845-2.311 3.653-6.988 5.542-9.23 1.931-2.293 3.868-8.31 4.374-13.588.74-7.718 1.27-9.653 3.5-12.79 1.993-2.805 8.63-7.363 15.324-10.523 3.404-1.608 4.232-2.396 5.344-5.084.724-1.75 1.689-3.574 2.145-4.053 2.789-2.932 3.469-5.024 3.072-9.454-.265-2.953-.188-3.846.227-2.646.424 1.225.65-1.02.699-6.932.07-8.465.132-8.795 1.95-10.376 2.48-2.156 2.757-1.673 1.008 1.756-1.158 2.271-1.423 4.164-1.362 9.73l.075 6.909 1.05-3.622c.578-1.992 1.697-5.83 2.487-8.53 2.297-7.85 7.61-11.834 14.968-11.224 3.96.328 3.965.326 2.255-.99-1.939-1.49-8.905-1.883-9.73-.548-.305.494-.67.534-.948.105-.25-.384-1.631-.914-3.07-1.179-2.44-.448-2.822-.253-5.615 2.867-1.648 1.842-2.996 3.083-2.996 2.759 0-1.36 6.192-6.802 7.74-6.802 1.003 0 2.138-.777 2.911-1.992.697-1.096 1.572-2.207 1.943-2.469.68-.479 2.668-.001 3.342.803.2.237 1.333 1.05 2.52 1.807l2.157 1.376-1.183-1.805c-1.11-1.694-1.098-1.857.188-2.66 1.692-1.057 2.347-1.095 1.732-.1-.532.861.997 3.02 1.79 2.529.287-.177 1.215 1.266 2.062 3.206 2 4.582 3.323 5.485 2.63 1.798-.28-1.497-.95-3.566-1.49-4.6-.853-1.635-.988-1.69-1.041-.429-.045 1.04-.175 1.142-.462.362-.22-.597-.896-1.657-1.503-2.354-.995-1.141-.985-1.267.094-1.267.66 0 1.204.407 1.21.905.008.666.176.646.634-.077.451-.713.764-.755 1.136-.152.283.457 1.101.645 1.82.417 1.509-.48 5.816 2.8 5.816 4.43 0 .81.316.878 1.401.297 2.347-1.256 2.887-.9 4.915 3.234 1.904 3.882 2.032 3.984 4.98 3.984 3.886 0 5.912-1.09 11.794-6.349 2.64-2.359 5.91-5.266 7.27-6.46l2.472-2.17-1.204-4.793c-1.473-5.863-1.488-5.378.192-6.277 1.11-.594 1.838-.377 3.546 1.06 1.182.995 2.47 1.81 2.863 1.81.392 0 2.052-1.774 3.688-3.94 3.094-4.098 5.825-6.463 10.395-9.001 2.028-1.126 3.904-1.479 7.606-1.43 2.703.037 5.331.399 5.841.805 1.497 1.193 5.509-2.747 8.873-8.714 1.007-1.786 2.118-3.29 2.47-3.342.962-.142 2.463 4.578 2.525 7.942.042 2.262-.6 3.984-2.7 7.244-2.046 3.175-2.643 4.745-2.318 6.089.392 1.617.126 1.906-2.496 2.705-3.9 1.189-5.325 1.144-9.83-.311-3.723-1.203-3.826-1.197-5.023.282-1.59 1.964-3.66.938-3.645-1.807.008-1.434.184-1.683.66-.93.384.606 1.701.985 3.223.928 1.416-.053 3.921.379 5.568.96 2.384.84 3.646.891 6.195.25 4.238-1.068 4.56-1.836.769-1.836-4.348 0-7.009-1.91-7.009-5.033 0-1.613-.345-2.452-1.009-2.452-1.277 0-1.987 1.787-1.368 3.44.404 1.077.304 1.129-.662.345-.945-.768-1.22-.71-1.624.341-.415 1.082-.583 1.111-1.16.2-.935-1.479-.891-1.67.79-3.474 1.561-1.676 1.346-3.025-.482-3.025-2.232 0-7.788 3.108-10.498 5.873-3.464 3.535-4.74 6.065-4.678 9.287.04 2.1.364 2.568 2.107 3.034 2.187.585 5.545-.304 5.545-1.468 0-.383-.335-1.577-.744-2.654-1.036-2.725-.32-3.069 1.014-.487 1.103 2.132.862 5.187-.48 6.073-1.006.665-6.334-.13-8.627-1.286-2.861-1.443-3.22-1.216-1.304.824.936.996 2.246 1.811 2.912 1.811.665 0 1.8.652 2.52 1.449.722.797 1.108 1.449.86 1.449-.832 0-5.911-3.022-7.425-4.417-1.421-1.31-3.213-1.85-3.213-.969 0 .226.385 1.122.857 1.992.47.87.789 2.517.706 3.659-.117 1.618.1 1.98.982 1.642.741-.285 1.332.104 1.71 1.126.383 1.035.753 1.275 1.101.712.56-.907 3.505-1.162 4.296-.371.262.262.172.843-.2 1.292-.39.47-.41 1.245-.049 1.83.537.87.812.866 1.905-.024 1.145-.931 1.226-.901.78.287-.274.73-.498 1.464-.498 1.63 0 .167-1.071.303-2.38.303-1.728 0-3.248-.762-5.54-2.775-2.691-2.364-3.288-3.41-4.03-7.063-.997-4.906-.77-6.098 1.162-6.098 1.974 0 1.694-1.128-.895-3.602-3.902-3.729-4.362-1.945-2.13 8.27 1.25 5.72 1.731 6.742 4.498 9.56 1.823 1.859 3.762 3.157 4.714 3.157.89 0 1.786.272 1.99.604.572.924 4.784.08 4.784-.96 0-.503.542-1.363 1.204-1.91.952-.785 1.27-.801 1.514-.075.17.505.808 1.417 1.417 2.026 1.458 1.458.538 2.316-1.27 1.187-1.223-.764-1.416-.692-1.416.528 0 .776-.282 1.586-.627 1.8-.697.43-.42 3.077.729 6.975.524 1.78 1.43 2.867 2.942 3.537 1.241.55 2.385.686 2.649.316.255-.358 1.952-1.036 3.771-1.506 2.679-.692 3.877-.658 6.311.18 5.726 1.973 8.307 2.062 10.468.362 1.097-.863 2.315-2.82 2.743-4.41.933-3.467 1.61-3.713 1.39-.505-.27 3.925-.01 4.89 1.316 4.867 2.645-.048 4.044-1.96 4.044-5.527 0-2.98-.304-3.657-2.448-5.446-2.784-2.325-5.346-2.634-6.428-.775-.53.91-.745.977-.76.241-.012-.564-.237-.812-.499-.55-.262.263-.848.169-1.303-.208-.55-.457-1.515-.094-2.89 1.088-1.748 1.502-5.898 3.213-7.826 3.228-1.331.01-.38-1.874 1-1.977 2.038-.154 5.993-2.06 7.138-3.439.502-.605 1.322-1.1 1.822-1.1s1.322-.497 1.826-1.105c.822-.99 1.044-.99 2.138 0 1.632 1.477 5.452 1.402 7.256-.142 1.63-1.396 1.906-3.809.588-5.127-1.36-1.36-5.033-1.022-6.784.623-.873.82-2.85 1.63-4.393 1.798-7.005.764-8.84 1.197-10.123 2.388-.755.702-1.958 1.5-2.671 1.772-.714.272-1.761 1.56-2.326 2.86-.91 2.094-1.032 2.168-1.057.647-.023-1.444-.201-1.574-1.115-.816-1.69 1.402-1.41-.853.358-2.892.794-.916 1.743-2.749 2.109-4.074.366-1.325 1.346-3.366 2.178-4.534.832-1.169 1.513-2.32 1.513-2.557 0-.852-4.233-.41-4.55.474-.177.498-.589.657-.914.354-.325-.304.148-1.552 1.052-2.774 1.627-2.2 1.558-3.89-.092-2.24-1.043 1.043-3.465 1.136-3.465.133 0-.398.796-.724 1.769-.724.972 0 1.993-.364 2.267-.808.33-.535 1.631-.63 3.846-.28 4.717.743 8.08.757 10.517.043 1.646-.482 1.974-.411 1.518.327-.4.647-.298.766.324.382.52-.321.775-1.451.6-2.648-.366-2.487-.163-2.607.938-.551.672 1.257.545 1.908-.7 3.592-1.476 1.998-1.484 2.13-.252 4.604 1.534 3.083 2.124 3.19 3.24.59.47-1.095.945-2.12 1.054-2.276.443-.636 2.406 1.636 2.406 2.786 0 .68.81 1.67 1.8 2.2.988.53 1.99 1.57 2.226 2.312.582 1.832-.265 5.37-1.537 6.426-.572.475-1.04 1.113-1.04 1.42 0 .305 1.82 2.404 4.043 4.663 4.545 4.619 7.566 10.403 9.585 18.352 1.234 4.857 1.57 5.4 4.537 7.32 6.408 4.146 11.42 10.125 13.993 16.692.692 1.766 2.102 4.21 3.134 5.433 2.565 3.038 4.514 7.526 4.533 10.44.01 1.333.641 3.302 1.406 4.375 2.191 3.077 4.196 10.063 4.726 16.463.448 5.416.336 6.182-1.43 9.78-1.131 2.306-3.084 4.781-4.775 6.052-2.196 1.651-3.115 3.028-3.957 5.925-1.138 3.912-2.709 6.38-6.335 9.95-2.02 1.988-2.344 2.067-6.82 1.649-2.583-.242-5.134-.801-5.667-1.244-.743-.616-1.698-.241-4.082 1.603-1.712 1.324-3.229 2.474-3.372 2.555-.143.08.357 1.062 1.11 2.18.754 1.119 1.96 3.328 2.678 4.909 1.154 2.536 1.395 2.72 2.048 1.553.566-1.012.38-1.808-.788-3.39-2.151-2.908-1.904-3.407.356-.72 1.044 1.24 1.7 2.721 1.47 3.321-.23.595-.117 1.87.249 2.83.489 1.287.383 1.983-.4 2.633-.586.486-1.182.756-1.326.6-.143-.157-1.782-3.219-3.641-6.804-1.86-3.586-3.156-5.868-2.88-5.071.276.797 1.186 3.73 2.023 6.52.836 2.788 1.931 5.5 2.433 6.027 1.2 1.26 1.123 3.775-.168 5.48-2.171 2.868-2.263 10.882-.157 13.763 1.96 2.68 7.032-1.706 7.032-6.081 0-.895-.319-1.33-.77-1.051-.522.322-.614-.362-.284-2.12.37-1.975.116-3.223-1.07-5.232-1.993-3.379-1.614-3.837.556-.672 2.303 3.361 2.945 9.931 1.274 13.034-.683 1.269-2.223 2.886-3.422 3.594-1.528.903-2.04 1.645-1.714 2.485.256.658.778 2.876 1.16 4.929.582 3.12.45 4.443-.809 8.078l-1.504 4.346 1.48 4.394c1.712 5.08 1.887 11.247.395 13.858-1.459 2.552-1.35 2.897.912 2.897 1.214 0 2.354.569 2.904 1.45.663 1.061 1.689 1.448 3.844 1.448 1.616 0 3.639.375 4.494.832l1.555.833-1.77.655c-1.16.429-1.86.392-2.026-.108-.14-.42-.901-.763-1.69-.763-1.537 0-4.344-1.275-5-2.27-.218-.333-1.984-.665-3.924-.739-2.315-.087-3.984-.59-4.854-1.46-1.43-1.429-1.782-2.418-.603-1.689.399.247.725.103.725-.319s-.326-.808-.725-.858c-.398-.05-1.05-.172-1.448-.271-.399-.1-1.295-.232-1.992-.294-1.17-.104-1.175-.167-.058-.819.793-.463 1.885-.45 3.167.038 1.415.538 2.245.504 3-.123.88-.73.968-.56.558 1.071-.313 1.247-.193 1.938.335 1.938 2.55 0 3.11-11.23.753-15.096-1.213-1.99-1.662-2.264-2.532-1.541-1.484 1.231-1.387.92 1.59-5.123 1.892-3.842 2.633-6.286 2.599-8.57-.052-3.412-2.153-8.994-3.153-8.376-.33.204-1.084-.782-1.673-2.193-1.174-2.81-1.338-2.9-3.318-1.84-1.08.578-1.445.432-1.812-.725-.66-2.081-1.892-1.807-5.692 1.268-3.382 2.737-4.282 4.528-2.276 4.528 1.559 0 1.341 1.986-.314 2.872-.771.412-2.156.725-3.08.694-1.234-.041-.913-.32 1.221-1.059l2.898-1.002-3.095.173c-2.265.127-3-.074-2.74-.752.23-.597-.276-.926-1.422-.926-.977 0-3.303-.408-5.168-.906-2.712-.724-3.45-.724-3.693 0-.611 1.833-1.432.8-2.705-3.404-.912-3.01-1.163-5.348-.832-7.758.364-2.662.276-3.252-.388-2.588-.959.96-1.754 12.132-1.06 14.897.52 2.074 2.589 3.113 3.535 1.775.417-.59.479-.134.169 1.243-.269 1.196-.539 3.074-.6 4.174-.07 1.273-.44 1.873-1.017 1.652-.498-.19-.905 0-.905.424 0 .503 1.325.621 3.803.34 2.092-.238 5.433-.535 7.425-.661s4.681-.787 5.976-1.468c1.295-.68 2.354-.912 2.354-.513 0 1.202 4.523-.02 7.063-1.908 1.295-.963 2.354-2.224 2.354-2.8 0-.578.326-1.05.725-1.05 1.462 0 .656 1.677-1.953 4.067-1.472 1.349-3.032 2.452-3.467 2.452-.957 0-5.446 5.708-5.446 6.925 0 1.517 2.09 2.669 4.264 2.35 1.524-.224 2.005-.047 1.74.64-.23.604-1.646.95-3.874.95h-3.51l-.215 4.472-.216 4.472-3.955 2.04c-2.61 1.346-4.2 1.797-4.673 1.324-1.032-1.033-1.876-.882-1.876.335 0 2.406-1.79 4.722-4.481 5.8-1.595.637-2.633 1.464-2.37 1.888.255.414-.144 1.307-.888 1.983-1.991 1.81-3.594 4.566-4.164 7.166-.409 1.86-.23 2.44.944 3.068 1.828.978 9.276 1.016 9.873.05.246-.399 1.042-.724 1.77-.724.726 0 2.441-1.24 3.81-2.756 3.059-3.385 7.008-6.267 7.675-5.6.273.273-.153.854-.947 1.292-.793.438-2.556 1.902-3.917 3.254-3.991 3.963-8.504 6.725-11.446 7.004-3.808.363-6.686 1.62-7.17 3.133-.226.703-.71 1.93-1.077 2.727-1.355 2.944-2.684 9.434-2.133 10.418.313.559.445 1.703.293 2.543-.151.84-.067 1.075.188.522.3-.65 1.067.306 2.174 2.716 1.753 3.815 2.534 4.227 7.077 3.743.752-.08 1.648.29 1.992.822.512.793.753.772 1.338-.119.477-.726.716-.786.724-.18.007.52.934.905 2.184.905 1.244 0 2.183-.388 2.195-.906.013-.513.337-.365.748.34.54.925 1.323 1.141 3.057.842 4.072-.702 4.693-1.07 3.055-1.813-1.229-.557-1.15-.616.521-.389 1.084.147 1.785-.033 1.557-.4-.227-.369.25-.843 1.06-1.055 1.256-.328 1.36-.635.703-2.078-.425-.931-.562-2.24-.306-2.907.382-.995.664-1.05 1.562-.305.602.5 1.299.705 1.547.457.25-.25 1.044.229 1.766 1.062 1.226 1.413 1.396 1.434 2.52.31 1.123-1.123 1.296-1.106 2.562.253.747.801 1.358 1.96 1.358 2.574 0 .615.358 1.117.796 1.117.438 0 1.762 1.034 2.942 2.298 1.18 1.263 2.702 2.338 3.382 2.388.68.05 1.64.34 2.134.646.52.322 1.056.143 1.273-.425.438-1.141 3.014-1.507 3.627-.514.732 1.184 4.68.804 4.68-.452 0-.62.287-.951.64-.734.35.218 1.471-.26 2.489-1.06 1.5-1.18 1.962-1.269 2.44-.468.323.543 1.322 1.172 2.218 1.398 1.352.34 1.63.112 1.63-1.334 0-2.019 1.073-2.319 1.772-.496.363.947.617 1.025 1.05.324.764-1.237 2.3-.82 3.833 1.044.692.84 2.767 1.95 4.61 2.466 3.562.997 3.13 1.122 11.336-3.27.744-.398 2.102-2.227 3.018-4.063 1.511-3.032 1.787-3.25 3-2.362.736.537 1.072 1.225.747 1.528-.324.303-.735.141-.914-.36-.179-.5-.626-.723-.993-.496-.857.53 1.082 2.493 2.462 2.493.578 0 1.402.424 1.831.942.83 1 .787 5.877-.059 6.723-.276.276-3.483.474-7.127.44-3.643-.034-6.396.165-6.118.444.517.516.915.618 3.042.778.664.05 1.018.28.786.511-.231.232-5.175.387-10.986.347-6.76-.048-10.566.192-10.566.665 0 .407.652.74 1.449.74 1.844 0 1.87 1.173.048 2.148-1.524.816-7.922 1.019-9.768.31-.63-.241-1.146-.879-1.146-1.416 0-1.217-3.641-1.896-8.095-1.51-1.862.162-4.697.054-6.298-.239-1.601-.292-3.206-.237-3.566.123-.36.36-5.838.94-12.174 1.29-11.655.645-18.09 1.976-20.83 4.308-1.11.945-3.436 1.138-13.401 1.113-6.632-.017-13.612-.305-15.51-.639-2.491-.438-4.51-.301-7.245.493-6.933 2.014-29.824 3.602-31.257 2.169zm-15.99-7.73c1.091-.566 2.433-.857 2.98-.647.563.216.997-.074.997-.665 0-1.49-2.847-2.593-5.636-2.183-1.753.257-2.703-.023-3.622-1.068-1.227-1.395-1.271-1.385-2.93.64l-1.685 2.055h1.866c1.026 0 1.866-.339 1.866-.753 0-.435.427-.358 1.01.181.862.795.835 1.007-.18 1.426-.966.4-.986.505-.106.555.966.055.966.14 0 .764-1.8 1.163 3.145.886 5.44-.305zm4.37-6.758c.182-.896.5-2.445.707-3.44.207-.997.068-1.812-.31-1.812s-1.127-.44-1.666-.979c-1.46-1.46-8.364-1.977-8.868-.663-.746 1.944-.4 5.664.67 7.19.884 1.262 1.759 1.507 5.1 1.429 3.566-.084 4.073-.284 4.366-1.725zm6.398 1.177c1.232-.56 2.427-.592 3.841-.1 2.62.914 6.748.323 7.271-1.04.58-1.51-2.644-8.005-4.17-8.404-.707-.185-2.692-.08-4.41.235-4.087.747-6.425 3.392-6.425 7.267 0 3.106.724 3.486 3.893 2.042zm37.578-4.136c-.545-.133-1.54-.031-2.211.226-1.06.407-.983.649.585 1.838 1.79 1.356 1.81 1.354 2.212-.226.257-1.015.044-1.683-.586-1.838zm124.991 2.312c2.4-.642 1.688-2.641-1.147-3.22-1.897-.389-2.519-.21-3.108.89-1.318 2.464.349 3.377 4.255 2.33zm-187.106-.813c1.705-1.25 2.778-4.491 2.032-6.14-.407-.9-.484-2.288-.17-3.084.314-.797.593-1.023.621-.501.028.522.372.75.764.507.442-.273.56.47.31 1.95-.362 2.151-.3 2.264.63 1.128 1.114-1.36.905-8.283-.29-9.568-.396-.427-.639-.362-.639.171 0 .472-1.494 1.235-3.321 1.695-1.827.46-3.492 1.28-3.7 1.822-.207.541-.819.985-1.358.985-1.048 0-3.029 5.494-2.258 6.265.632.632 2.66-1.14 2.465-2.152-.087-.45.575-.931 1.472-1.068.896-.137 1.63.09 1.63.503 0 .414-.408.596-.907.404-1.407-.54-2.865 2.411-2.35 4.757.515 2.343 3.302 3.622 5.069 2.326zm-2.515-1.98c0-.399.316-1.214.703-1.812.386-.597.702-.76.702-.362 0 .399-.316 1.214-.702 1.811-.387.598-.703.76-.703.362zm-11.132-.544c-.201-.498-.365-.09-.365.906s.164 1.403.365.905c.2-.498.2-1.313 0-1.81zm6.634 1.425c1.476-1.779-.204-2.385-1.977-.715-1.661 1.566-1.674 1.644-.27 1.644.812 0 1.822-.418 2.247-.93zm83.434-.96c0-.156-.896-.279-1.992-.273-1.45.008-1.714.187-.971.658.922.584 2.963.32 2.963-.384zm3.984.44c-.246-.398-1.08-.724-1.853-.724-.774 0-1.406.326-1.406.725 0 .398.834.724 1.853.724 1.052 0 1.66-.314 1.406-.724zm-89.697-2.272c-.194-.742-.127-1.35.15-1.35.276 0 .551-.651.611-1.448.06-.797-.333-1.449-.873-1.449-1.803 0-3.274.868-3.274 1.931 0 .632.362.848.905.541.684-.386.704-.292.084.38-1.296 1.408-.394 3.566 1.305 3.121.982-.256 1.332-.81 1.092-1.726zm70.512-2.798c1.616 0 3.708.505 4.649 1.121 1.28.84 2.642.998 5.407.631 2.033-.27 3.696-.774 3.696-1.121s1.285-.631 2.855-.631 3.056-.326 3.303-.724c.246-.399 1.01-.725 1.696-.725 1.09 0 1.212-.642.964-5.045-.253-4.465-.026-5.599 1.968-9.86 1.24-2.649 2.253-5.23 2.253-5.735 0-.506-1.098-1.757-2.44-2.781-2.424-1.849-2.44-1.898-2.118-6.787.313-4.751.24-5.02-2.086-7.646-1.326-1.496-2.954-2.719-3.618-2.716-.664.003-1.841-.866-2.617-1.93l-1.41-1.936-1.005 2.063c-1.327 2.725-2.384 2.967-3.383.775-.45-.988-1.81-2.308-3.023-2.935-2.129-1.101-2.622-2.336-2.304-5.767.072-.772-.094-1.18-.368-.905-.472.472-.785 2.182-.92 5.026-.034.697-.306 1.229-.604 1.182-3.36-.53-4.991.248-6.923 3.305-1.65 2.614-1.941 3.703-1.547 5.802.266 1.421.774 2.763 1.127 2.981.353.219.642 2.27.642 4.56 0 3.324-.412 4.808-2.047 7.381-1.126 1.772-2.944 3.697-4.04 4.278-2.243 1.19-2.251 1.06.611 9.446 1.02 2.988 2.036 6.974 2.258 8.857l.404 3.423 2.841-1.793c1.817-1.147 3.901-1.794 5.78-1.794zm-33.164-15.937c.497-.796 1.497-1.448 2.222-1.448.724 0 1.112-.332.862-.737-.25-.404-.747-.556-1.103-.335-.356.22-1.322-.274-2.145-1.097-2.112-2.112-8.01-2.554-8.511-.638-.195.747-.806 1.358-1.357 1.358-.551 0-1.002.326-1.002.724 0 .399.756.725 1.681.725s2.962.639 4.528 1.42c3.577 1.785 3.727 1.786 4.825.028zm-29.506-15.212c-.246-.398-.774-.724-1.172-.724-.399 0-.523.326-.277.724.246.399.774.725 1.172.725.399 0 .523-.326.277-.725zm-15.574-4.708c-.421-1.107-.931-1.846-1.134-1.643-.203.203.022 1.228.5 2.277 1.129 2.478 1.627 1.98.634-.634zm21.293-4.043c-1.237-.359-3.763-2.271-5.614-4.25-1.85-1.979-3.367-3.204-3.37-2.723-.001.481 1.547 2.41 3.442 4.285 2.606 2.58 3.974 3.402 5.618 3.375l2.173-.035-2.249-.652zm78.619-5.548c.875-1.921.937-1.94 1.934-.576.896 1.225 1.157 1.271 2.005.355 1.663-1.8 3.357-7.09 3.357-10.486 0-5.093 2.11-3.82 2.225 1.342.028 1.262.29 2.905.583 3.65.49 1.245.635 1.2 1.777-.543.998-1.523 1.815-1.899 4.135-1.899 1.59 0 3.62-.376 4.51-.837.891-.46 2.11-1.076 2.707-1.37.732-.358 1.03-1.422.914-3.258-.095-1.5-.275-2.83-.4-2.954-.125-.125-2.329.412-4.898 1.193-6.135 1.866-8.054 1.802-10.058-.33-1.418-1.51-1.655-2.536-1.655-7.145 0-6.328.742-11.376 1.673-11.376.363 0 .66-.687.66-1.527 0-1.161-.302-1.406-1.267-1.025-.697.276-2.409.682-3.803.903-3.962.627-4.963 1.444-5.806 4.74-.432 1.686-.966 3.555-1.187 4.152-.629 1.703-1.396 8.868-1.585 14.814-.088 2.758-.312 3.388-.97 2.73-1.67-1.67-3.265-20.332-2.098-24.557.35-1.268.467-2.475.26-2.682-.633-.633-2.391 1.55-3.263 4.052-1.476 4.233-6.411 7.714-7.375 5.201-.535-1.392-1.88-1.266-1.88.177 0 1.732-3.682 4.61-5.9 4.61-2.144.002-2.904-1.23-2.265-3.672.338-1.295.185-1.548-.727-1.198-.636.244-1.316.055-1.51-.42-.726-1.775-1.891 1.33-1.902 5.068-.006 2.068-.368 3.98-.805 4.25-.845.523-.607 2.878.85 8.426.78 2.97.735 3.637-.364 5.314-1.44 2.199-1.158 2.85.946 2.182 1.18-.375 1.569-1.324 1.96-4.791.645-5.693 1.748-6.234 1.748-.857 0 4.575.798 5.983 3.39 5.983 1.123 0 1.77-.523 2.018-1.63.322-1.44 2.56-17.45 2.56-18.316 0-.185.49-.337 1.087-.337 1.215 0 1.242.339.418 5.352-.32 1.948-.317 4.719.004 6.157.323 1.44.668 4.002.767 5.695.108 1.843.535 3.079 1.065 3.079.486 0 .993.282 1.126.628.132.346.997.864 1.922 1.152 1.336.415 1.762.212 2.076-.991.218-.833.637-1.514.93-1.514.85 0 4.368 3.474 4.368 4.312 0 .417 1.089.759 2.42.759 1.933 0 2.6-.398 3.323-1.985zm-101.426-21.266c.918-3.062.73-4.048-.611-3.219-.425.263-.773 1.436-.773 2.608 0 1.172-.345 2.13-.767 2.13-.422 0-.566.326-.32.725.852 1.378 1.586.712 2.471-2.244zm110.867-3.65c-.816-2.848-1.42-3.498-1.42-1.53 0 1.953.717 3.802 1.476 3.802.328 0 .303-1.022-.056-2.272zm-114.257-1.027c-.517-.923-.83-1.008-1.246-.335-.315.51-.133 1.16.422 1.502 1.32.816 1.662.33.824-1.167zm-2.325-1.763c-1.35-.833-1.773-.41-1.168 1.168.372.968.667 1.047 1.352.363.684-.685.644-1.019-.184-1.53zm9.352-1.82c0-.398-.638.043-1.42.981-.78.938-1.212 2.041-.958 2.452.459.743 2.375-2.023 2.378-3.433zm-4.538.389c0-1.895-.106-2.002-.906-.908-.635.869-.68 1.51-.153 2.147 1.028 1.238 1.059 1.202 1.059-1.239zm87.125-3.674c.852-2.802 1.861-4.902 2.244-4.666.383.237.696.085.696-.337 0-.894-.19-.926-1.807-.306-.66.254-1.494 1.232-1.852 2.173-.358.942-1.067 1.708-1.575 1.702-.64-.008-.589-.228.163-.714.926-.598.897-.704-.196-.713-1.28-.011-3.311 3.242-2.519 4.035.23.23 1.098.054 1.929-.391 1.18-.632 1.51-.597 1.51.159 0 .532-.362 1.33-.805 1.773-.68.68-.383 2.381.416 2.381.137 0 .945-2.293 1.796-5.096zm-96.763 3.285c.41-1.07-.096-3.26-.753-3.26-.185 0-.835.498-1.444 1.107-.883.883-.927 1.323-.221 2.173 1.128 1.36 1.891 1.353 2.418-.02zm5.943-1.635c-1.276-1.202-1.318-1.2-.875.064.256.73.465 1.692.465 2.137 0 .562.268.542.875-.064.683-.683.58-1.15-.465-2.137zm14.148-5.97c.36 0 .654-.653.654-1.45 0-2.244-1.433-1.71-2.332.869-.651 1.869-.895 2.067-1.261 1.024-.399-1.136-.798-.986-3.304 1.244-2.123 1.89-2.88 3.142-2.97 4.913l-.119 2.376 4.338-4.488c2.387-2.469 4.633-4.489 4.994-4.489zm-6.59 3.621c1.678-1.455 2.173-1.714 2.173-1.138 0 .637-2.305 2.587-3.06 2.587-.43 0-.031-.652.887-1.449zm49.347 3.133c-.631-1.086-.773-1.117-.79-.175-.024 1.22.737 2.318 1.25 1.805.17-.17-.037-.903-.46-1.63zm58.797.488c.208-.797.083-1.267-.278-1.044-.361.223-.657.876-.657 1.45 0 1.5.492 1.285.935-.406zm21.51-2.034c.007-.933-.31-1.474-.713-1.225-.399.246-.72 1.488-.714 2.76.008 1.758.18 2.051.714 1.224.386-.597.707-1.839.713-2.759zm-139.094-.58c.013-.441 1.355-2.316 2.982-4.165 2.741-3.114 2.838-3.361 1.31-3.361-1.453 0-1.511-.107-.49-.906.872-.681.994-1.33.494-2.618-.53-1.364-.871-1.541-1.678-.872-1.833 1.521-3.486 5.914-3.049 8.101.31 1.548.141 2.09-.65 2.09-.75 0-1.069.8-1.069 2.673 0 2.507.067 2.586 1.064 1.268.585-.773 1.074-1.768 1.086-2.21zm135.845 1.166c-.281-.887-.13-1.449.391-1.449.468 0 .663-.489.434-1.086-.697-1.816.226-3.128 1.939-2.755 1.138.248 1.311.152.617-.341-.786-.558-.752-.77.18-1.127 1.165-.447 1.483.495 1.164 3.445-.147 1.368-.11 1.368 1.909.04 1.132-.745 2.957-1.805 4.055-2.356 1.098-.55 2.355-1.671 2.794-2.49 1.138-2.127.18-7.011-1.67-8.509-1.412-1.144-1.474-1.522-.721-4.445.71-2.754.657-3.318-.383-4.1-1.651-1.239-2.2-1.143-3.103.544-.61 1.14-.55 1.449.277 1.449.578 0 1.182-.392 1.341-.87.225-.674.412-.673.832.006.325.527.017 1.09-.773 1.413-.723.296-1.347.945-1.387 1.443-.26 3.262-.104 3.171-4.61 2.662-5.155-.584-16.397.996-15.25 2.143.405.405.736 1.389.736 2.185 0 1.127.194 1.256.87.58 1.096-1.096 2.889-1.106 5.254-.029 2.345 1.07 2.37 2.057.05 2.057-1.136 0-2.198.664-2.897 1.811-.607.996-1.648 2.699-2.313 3.784l-1.21 1.973-.956-2.516-.957-2.516.446 3.26c.91 6.655 1.066 6.763 10.274 7.121 2.822.11 3.082-.02 2.667-1.327zm-2.535-2.173c0-.398.345-.724.767-.724.422 0 .566.326.32.724-.247.398-.592.724-.767.724-.176 0-.32-.326-.32-.724zm-139.464-.994c.844.324 1 .11.63-.855-.343-.894-.23-1.123.373-.75.476.294.776 1.047.666 1.673-.11.626.141 1.258.559 1.406.418.147 1.452-1.938 2.299-4.634.846-2.695 1.753-5.447 2.014-6.116.375-.958.157-1.131-1.03-.82-.927.242-1.507.048-1.507-.504 0-.713-.222-.714-1.078-.002-1.267 1.051-.681 2.454.79 1.89.656-.253 1.013.112 1.013 1.036 0 1.695-.926 1.843-2.167.347-.78-.939-1.055-.868-2.12.543-1.71 2.27-3.737 7.83-3.181 8.728.258.418.717.06 1.04-.812.375-1.015.97-1.41 1.7-1.13zm1.107-3.352c0-.399.326-.725.724-.725.398 0 .724.326.724.725a.727.727 0 0 1-.724.724.727.727 0 0 1-.724-.724zm10.865 4.35c0-.303-.502-.968-1.117-1.478-1.355-1.125-2.922.064-2.283 1.731.417 1.086 3.4.864 3.4-.253zm-15.211-1.634c0-.498.997-3.012 2.216-5.588 2.303-4.87 5.884-8.672 9.917-10.53 4.546-2.097 7.078-3.148 8.692-3.613 1.234-.354 1.63-1.008 1.63-2.685 0-2.202-.02-2.214-3.078-1.73-3.09.49-15.031 5.915-15.031 6.83 0 .268.652.895 1.448 1.393 1.739 1.085 1.897 2.34.295 2.34-.635 0-1.325-.651-1.533-1.448-.524-2.002-1.213-1.824-3.518.906-2.353 2.787-4.64 7.562-4.599 9.598.027 1.291.103 1.266.706-.236.6-1.5.795-1.565 1.765-.595 1.378 1.378 1.379 1.917.003 1.917-1.138 0-1.392 1.26-.647 3.2.523 1.363 1.733 1.53 1.734.241zm-.966-7.546c-.693-.692-.596-1.69.163-1.69.356 0 .835.49 1.064 1.087.424 1.104-.348 1.483-1.227.603zm2.57-3.157c-.586-.939-.627-1.43-.12-1.43.426 0 .573-.326.326-.725-.246-.398-.092-.724.342-.724 1.13 0 1.7 1.888.968 3.197-.537.96-.744.916-1.515-.318zm6.853-6.067c-.226-.59.158-1.159.918-1.357.99-.26 1.22-.014.952 1.015-.42 1.604-1.322 1.769-1.87.342zm4.22-1.883c-.247-.398-.103-.724.319-.724.421 0 .767.326.767.724 0 .399-.144.725-.32.725-.175 0-.52-.326-.767-.725zm1.81-1.449c0-.398.489-.724 1.087-.724.597 0 1.086.326 1.086.724 0 .399-.489.725-1.086.725-.598 0-1.087-.326-1.087-.725zm3.675-1.022c-.547-.659-.591-1.18-.125-1.469.398-.246 1.077.214 1.51 1.022.894 1.671-.102 1.993-1.385.447zm-.287 20.4c1.789-1.975 3.619-3.403 6.44-5.025 1.168-.672 2.043-1.406 1.943-1.63-.1-.224-.18-1.08-.18-1.9 0-.82-.327-1.29-.725-1.043-.399.246-.725 1.045-.725 1.776 0 1.457-2.352 2.756-2.763 1.525-.441-1.325-1.583-.832-1.583.683 0 .797-.326 1.449-.724 1.449-.399 0-.725-.346-.725-.768 0-.422-.352-.549-.783-.283-.43.266-.587 1.264-.348 2.216.325 1.295.137 1.732-.743 1.732-.822 0-1.033-.384-.7-1.268.444-1.175.392-1.18-.72-.08-.776.767-1.03 1.727-.715 2.716.617 1.945 1.216 1.925 3.051-.1zm110.981-2.536c-.082-4.12-.09-4.134-.682-1.267-.822 3.975-.811 5.433.041 5.433.409 0 .689-1.816.642-4.166zm32.619.849c.84-1.426 1.836-3.952 2.211-5.614.808-3.577.12-12.473-.79-10.235-.39.955-.542.277-.468-2.076.066-2.108-.247-3.714-.79-4.049-.493-.305-.95-1.26-1.016-2.12-.13-1.732-1.228-2.03-2.562-.695-1.046 1.045-1.15 3.942-.163 4.552.393.243.518 1.81.281 3.535-.314 2.296-.051 3.836 1.017 5.945 2.688 5.309 2.676 9.51-.032 11.276-.61.397-.177 2.073.534 2.073.137 0 .936-1.166 1.778-2.592zm.928-10.084c.014-1.196.177-1.597.36-.892.184.705.172 1.683-.026 2.173-.199.49-.35-.086-.334-1.281zm-132.748 6.81c.78 1.26 2.285.365 1.746-1.039-.509-1.325-1.662-1.322-3.423.012-.912.691-1.186 1.456-.833 2.331.466 1.154.605 1.097 1.215-.491.521-1.356.837-1.554 1.295-.813zm51.333 1.214c2.512-.539 4.794-1.21 5.071-1.491.556-.564-3.484-.032-10.724 1.41-4.152.828-4.366.946-1.81 1 1.593.033 4.952-.38 7.463-.92zm-63.995-1.324c.525-.498 1.586-1.394 2.357-1.992 3.551-2.75 12.666-7.244 14.693-7.244.646 0 1.807-.478 2.58-1.063 1.297-.98 1.305-1.066.113-1.087-1.052-.019-1.153-.284-.543-1.424 1.037-1.937.955-2.22-.64-2.22-2.33 0-3.614.78-3.172 1.93.316.825.551.872.971.192.332-.536.51-.124.443 1.025-.152 2.61-1.695 2.436-2.286-.257-.3-1.363-.786-1.99-1.298-1.673-.45.278-1.922.432-3.27.341-1.78-.12-2.333.091-2.02.768.237.513.64 1.533.895 2.266.326.934.975 1.235 2.174 1.005 2.318-.443 2.171.782-.202 1.684-2.222.845-1.995 1.018-2.899-2.211-.614-2.194-.976-2.507-2.69-2.322-2.705.291-6.224 2.356-7.944 4.66-1.356 1.815-1.368 2.038-.236 4.424.656 1.381 1.192 2.87 1.192 3.308 0 1.044.606 1.007 1.782-.11zm1.137-4.137c-.586-.37-.845-.895-.575-1.165.663-.663 2.727.18 2.727 1.114 0 .92-.75.938-2.152.051zm2.152-5.461c0-.664.35-1.09.779-.948.428.143.779.57.779.948s-.35.805-.78.948c-.427.142-.778-.284-.778-.948zm6.882-1.811c.246-.398.591-.724.767-.724.176 0 .32.326.32.724 0 .398-.346.724-.768.724-.422 0-.565-.326-.32-.724zm-26.38 1.023c.79-.841 3.545-2.763 6.121-4.27 3.114-1.82 4.685-3.193 4.685-4.092 0-.745-.364-1.354-.81-1.354-.452 0-.641-.638-.43-1.448.441-1.684.257-1.752-1.6-.592-1.037.647-1.282 1.418-1 3.152.28 1.73.065 2.414-.872 2.774-1.05.402-1.172.163-.78-1.523.256-1.1.21-1.674-.1-1.276-.311.398-1.055.724-1.652.724-.655 0-1.065.637-1.033 1.601.046 1.344-.277 1.563-2.015 1.36-2.349-.273-3.845 1.602-3.115 3.904.254.802-.334 2.898-1.409 5.02-1.015 2.002-1.841 4.223-1.836 4.933.005.71.999-.66 2.208-3.045 1.21-2.386 2.846-5.026 3.637-5.868zm88.315 8.354c1.394-.331 3.676-.928 5.07-1.327a2690.6 2690.6 0 0 1 5.071-1.443c7.796-2.208 11.706-2.936 15.893-2.96 2.566-.013 6.477-.341 8.692-.728a734.657 734.657 0 0 1 9.461-1.56c2.988-.472 5.743-1.133 6.121-1.47.379-.338 1.377-.613 2.218-.613s2.161-.58 2.934-1.287c.772-.707 2.765-1.729 4.428-2.27 3.847-1.254 7.487-4.537 7.455-6.725-.073-4.996-1.476-16.796-2.084-17.529-.388-.468-.452-1.263-.141-1.765.31-.503.473-3.263.362-6.133-.112-2.87-.222-6.956-.245-9.08l-.04-3.86-2.144.47-2.143.471 1.14-2.285c.839-1.681.927-2.5.332-3.094-.594-.594-.808-.578-.808.062 0 .478-.815.869-1.81.869-.997 0-1.812.345-1.812.767 0 .422.289.589.642.37.353-.217.796.415.986 1.407.241 1.261.024 1.802-.724 1.802-.775 0-.98.597-.75 2.173.497 3.379-.682 2.557-1.299-.905-.796-4.469-.494-8.94.768-11.38 1.612-3.117 1.408-4.375-.71-4.375-.995 0-1.83-.408-1.856-.906-.025-.498-.412-.09-.858.906-.742 1.652-.854 1.43-1.282-2.536-.47-4.35.583-8.33 2.204-8.33.924 0 .896 1.189-.07 2.994-.592 1.106-.502 1.867.38 3.212 1.696 2.59 4.417 2.33 6.201-.592 1.67-2.735 3.191-7.001 2.68-7.513-.194-.194-1.45.316-2.79 1.133-2.603 1.587-4.97 1.952-4.97.766 0-.399.764-.725 1.698-.725 2.752 0 4.357-2.378 3.901-5.778-.39-2.911.514-4.793 1.143-2.38.184.702.371-1.391.417-4.652.047-3.261-.262-6.84-.685-7.953-.543-1.429-.543-2.1 0-2.281.423-.141.77-.898.77-1.68 0-1.707-1.966-5.7-2.806-5.7-.327 0-.979-.733-1.448-1.63-.763-1.458-.808-1.362-.424.906.236 1.394.559 4.328.718 6.52l.289 3.984-.986-2.898-.987-2.898-.076 5.076c-.042 2.791-.379 6.133-.75 7.425-.415 1.449-.415 2.35 0 2.35.371 0 .7-.408.732-.906.039-.623.163-.647.396-.078.296.723-2.244 7.061-7.006 17.482-.779 1.704-1.416 3.72-1.416 4.478 0 .76-1.004 4.092-2.23 7.406a759.584 759.584 0 0 0-4.63 12.97c-1.319 3.82-2.92 7.956-3.559 9.19-.638 1.235-.978 2.722-.754 3.305.223.582.062 1.272-.36 1.532-.475.294-.608-.02-.35-.832.314-.991.05-.894-1.095.405-1.497 1.695-2.118 4.184-.849 3.4.363-.225-.086 1.141-.998 3.036-.913 1.894-1.706 4.34-1.762 5.436-.188 3.614-.31 4.105-.919 3.728-.332-.205-.605-.11-.607.213-.002.322-.842 1.564-1.866 2.76-1.323 1.543-1.532 1.653-.721.381 1.883-2.954 1.373-4.278-.705-1.83-8.295 9.768-18.212 17.818-24.593 19.965-1.594.537-3.208 1.235-3.586 1.552-.378.317-1.419.576-2.312.576-.892 0-1.824.326-2.07.725-.247.398-1.162.73-2.035.735-.873.006-2.076.33-2.674.72-1.192.777 4.187.3 8.693-.77zm16.971-6.396c.488-.79 4.76-1.478 4.76-.767 0 .534-2.55 1.38-4.208 1.398-.521.006-.77-.278-.552-.63zm29.39-17.684c0-.678.57-1.807 1.267-2.507 1.1-1.106 2.97-3.928 7.267-10.972.908-1.49 1.154-1.576 1.7-.6 1.038 1.855-.716 8.608-2.346 9.034-.753.197-1.37.7-1.37 1.12 0 .418-.223.536-.497.262s-1.74.716-3.26 2.2c-2.028 1.98-2.762 2.37-2.762 1.463zm12.06-64.074c.243-1.892.768-3.767 1.166-4.165.484-.483.576.24.277 2.173-.247 1.594-.452 3.468-.457 4.165-.004.698-.328 1.268-.718 1.268-.427 0-.534-1.374-.269-3.44zm-112.026 87.392c0-.828-1.964-.846-2.473-.023-.212.342-.199.809.028 1.036.566.566 2.445-.213 2.445-1.013zm45.636.126c.996-.333 3.202-1.022 4.9-1.533 2.588-.777 3.016-1.161 2.634-2.366-.355-1.118-.196-1.34.713-.99.84.322 1.17.035 1.17-1.02 0-.856.323-1.27.773-.991.425.262 1.23-.126 1.788-.863.875-1.155 1.018-1.177 1.038-.161.013.648.48 1.557 1.037 2.02.796.66 1.456.458 3.078-.946l2.066-1.787-2.664.205c-2.12.163-2.645-.043-2.572-1.011.05-.67.538-1.633 1.082-2.142.815-.761 1.062-.653 1.393.612.321 1.23.607 1.368 1.423.691.801-.665 1.229-.562 1.99.478.92 1.258 1.016 1.236 1.932-.436.53-.969.88-2.463.777-3.321-.103-.859.206-1.804.686-2.1.636-.394.742-.02.39 1.38-.371 1.48-.215 1.918.687 1.918.643 0 1.334-.634 1.537-1.41.203-.775.744-1.509 1.203-1.63 1.427-.376 7.48-7.317 9.035-10.361 1.748-3.423 4.001-13.84 3.26-15.075-.397-.662-.27-.661.552.003 1.803 1.458 2.96-.054 3.08-4.027.062-2.045.299-3.718.525-3.718.227 0 .895 1.019 1.485 2.265l1.073 2.265 3.14-9.69c1.726-5.33 3.393-10.343 3.703-11.14.844-2.164 4.437-14.917 4.844-17.194.586-3.277-.336-5.624-2.211-5.624-.909 0-1.989-.336-2.4-.747-1.138-1.138-11.627-1.26-16.927-.197-5.577 1.119-6.003 1.142-5.484.303.218-.353 2.6-1.22 5.294-1.926 2.694-.706 5.162-1.512 5.485-1.792.322-.28 2.115-.206 3.984.163 11.665 2.304 17.077.32 18.878-6.918.988-3.97.555-6.403-1.03-5.794-.683.262-1.053-.068-1.06-.943-.005-.74-.21-2.098-.457-3.017-.353-1.318-.106-1.763 1.163-2.095 1.468-.383 1.568-.718 1.123-3.76a133.207 133.207 0 0 0-1.21-6.76l-.72-3.421-2.107 1.558c-1.16.857-3.376 1.627-4.926 1.712-1.55.084-5.059 1.247-7.797 2.583-2.739 1.337-5.305 2.463-5.703 2.502-1.563.156-4.433 1.716-6.158 3.347-.996.942-3.435 2.472-5.42 3.399-1.984.927-4.141 2.3-4.793 3.052-.651.751-1.961 1.37-2.91 1.374-1.007.004-2.732 1.043-4.139 2.49-1.326 1.366-2.842 2.318-3.367 2.116-.526-.201-1.17-.018-1.434.407-.263.426-1.445.774-2.627.774-1.81 0-2.217.344-2.586 2.188-.24 1.204-.721 2.364-1.068 2.579-.347.214-.631 1.49-.631 2.835s-.304 3.245-.676 4.223c-1.033 2.717-5.1 7.01-6.643 7.01-.756 0-1.374.325-1.374.723 0 .399-.44.725-.976.725-.864 0-1.838 1.827-4.203 7.886-.371.95-.462 3.149-.202 4.885.812 5.414-.126 8.048-4.351 12.205-2.11 2.076-3.968 4.172-4.13 4.658-.162.486-1.754 1.07-3.539 1.297-1.784.227-3.637.723-4.119 1.103-.6.473-1.464.1-2.75-1.184-1.03-1.031-2.5-1.875-3.264-1.875-1.817 0-2.89-2.106-2.89-5.67 0-1.811-.38-3.013-1.03-3.263-.567-.217-1.137-1.148-1.268-2.07-.207-1.457-.585-1.643-2.932-1.439-4.196.366-8.72-2.611-11.191-7.365-1.234-2.372-.853-3.337.593-1.5.538.684 2.214 2.499 3.725 4.032 2.33 2.364 3.21 2.786 5.795 2.776 3.666-.013 5.056-.771 4.775-2.605-.322-2.098.772-5.528 2.064-6.472.642-.47 1.16-1.876 1.16-3.152 0-1.473.213-1.967.592-1.37.46.724.595.73.604.028.006-.498.03-1.15.053-1.448.024-.3-.679-.714-1.561-.922-1.515-.358-1.535-.449-.364-1.62 1.172-1.171 1.327-1.16 2.785.198 1.827 1.702 6.685 1.922 11.863.537 4.027-1.077 5.624-3.132 5.207-6.7-.29-2.487.878-3.547 1.968-1.785.266.431 1.677-.618 3.28-2.44 1.698-1.93 3.67-3.368 4.976-3.629 3.017-.603 4.621-3.278 3.989-6.65-.275-1.467-.703-2.371-.95-2.01-.264.388-1.716.4-3.532.029-2.378-.486-3.341-1.132-4.218-2.827-.625-1.208-.973-2.36-.774-2.56.2-.198.883.647 1.52 1.88.638 1.231 1.45 2.24 1.806 2.24.355 0 1.092.17 1.636.38.545.208 1.726-.306 2.625-1.143 1.463-1.363 1.584-1.961 1.158-5.728-.296-2.616-.147-5.203.394-6.841 1.152-3.492.373-8.14-1.445-8.615-1.916-.5-3.818 2.68-3.9 6.522-.048 2.297-.359 3.11-1.188 3.11-.618 0-1.555.407-2.083.905-.775.732-.88.697-.548-.18.227-.598.804-2.51 1.284-4.248 1.112-4.029 5.37-8.543 6.878-7.292.855.71 1.025.357 1.025-2.135 0-2.172-.297-2.986-1.087-2.986-.598 0-1.087.271-1.087.603 0 .963-7.73 8.086-8.778 8.088-.246 0-.632 1.375-.857 3.054-.226 1.68-.953 3.45-1.617 3.936-.664.486-.982 1.248-.706 1.694.721 1.167-2.595 5.765-4.516 6.263-.894.231-1.445.713-1.224 1.07.221.358 1.246.439 2.277.18 1.285-.323 1.718-.217 1.376.336-.506.818-8.41.972-8.41.163 0-.239-1.333-.307-2.96-.152-2.837.27-5.108-.749-4.043-1.814.279-.279.893-.121 1.364.35 1.512 1.512 3.02.92 6.725-2.642 3.448-3.314 5.539-4.684 7.327-4.8 1.693-.11 3.207-2.137 3.646-4.882.302-1.89 1.046-3.24 2.203-3.998.96-.63 1.584-1.568 1.385-2.087-.219-.57.023-.795.614-.568.95.365 2.62-1.107 5.44-4.794 1.256-1.643 1.492-1.706 2.534-.684.878.862 1.187 2.904 1.314 8.668l.166 7.54 3.226 3.06c1.775 1.683 4.056 3.479 5.07 3.99 1.015.511 2.615 1.503 3.557 2.204l1.71 1.274-1.939.737c-2.552.97-4.258.932-5.31-.12-1.476-1.476-1.842-.04-.872 3.423.826 2.953 1.123 3.284 2.603 2.913 2.899-.728 5.097-1.702 6.15-2.726 2.045-1.99 5.54-4.147 5.989-3.697.253.254.461.091.461-.361 0-.452.489-.635 1.087-.406.597.23 1.086.084 1.086-.325 0-.408 1.483-1.308 3.295-2 1.813-.692 3.85-1.959 4.528-2.815.678-.856 1.802-1.773 2.5-2.038.697-.265 1.267-.838 1.267-1.272 0-.435-.299-.605-.664-.38-1.016.629-3.218-6.77-3.169-10.647l.044-3.44h-3.176c-2.037 0-3.19.324-3.214.905-.022.498-.494 3.35-1.05 6.338-2.356 12.641-2.29 12.536-3.97 6.32-.515-1.903-1.217-3.634-1.56-3.846-1.149-.71-.645-3.13 1.459-7.019 2.999-5.543 4.344-14.32 2.494-16.281-1.404-1.489-3.13-1.078-3.13.744 0 .908-.508 2.375-1.129 3.261-.62.886-.926 1.94-.678 2.34.247.4-.141.912-.864 1.138-.722.225-1.88.712-2.571 1.081-.692.37-1.701.672-2.243.672-.542 0-2.013.513-3.27 1.14-2.4 1.197-4.568 1.172-4.485-.054.027-.398.957-1.05 2.067-1.448 3.482-1.25 6.433-3.848 9.535-8.393 3.996-5.853 3.668-8.027-.538-3.564-1.687 1.791-3.068 3.636-3.068 4.101 0 1.456-5.293 3.634-16.612 6.835-2.962.838-6.152 2.026-7.09 2.641l-1.707 1.118 1.525 1.42c2.18 2.03 1.194 2.446-1.409.593-1.675-1.192-2.517-1.39-3.552-.837-.951.509-1.616.467-2.223-.14-.67-.67-1.019-.622-1.548.216-.539.851-.686.87-.695.086-.008-.744-.253-.793-.973-.195-.53.439-1.589.903-2.354 1.03-4.55.761-11.169 7.013-10.172 9.61.694 1.808 3.951 2.925 5.574 1.912.88-.55 1.395-.595 1.395-.123 0 .412-.864 1.077-1.92 1.479-1.593.605-2.397.415-4.71-1.115-2.244-1.486-2.787-1.622-2.787-.7 0 1.885 1.364 3.853 3.459 4.99 1.114.605 1.494 1.084.871 1.1-.606.016-2.318-.972-3.803-2.197-1.485-1.224-2.741-1.876-2.79-1.448-.05.427-.132 1.103-.182 1.501-.05.399-.277.643-.504.543-.228-.1-.994.399-1.702 1.107-1.035 1.035-1.114 1.498-.403 2.355 1.08 1.301 2.877 1.401 2.892.16.007-.56.214-.63.543-.18.782 1.064 3.606 2.535 4.869 2.535.603 0 1.096.326 1.096.724 0 .398-.815.724-1.81.724-2.149 0-2.227.53-.404 2.717 1.672 2.004 2.348 2.034 4.025.181.721-.797 2.095-1.449 3.053-1.449.976 0 1.544-.318 1.293-.724-.246-.399.06-.725.682-.725.621 0 1.13.137 1.13.303 0 .167.193.9.43 1.63.358 1.104.299 1.144-.351.24-.532-.738-.785-.796-.793-.18-.006.498-.431.905-.944.905-.514 0-2.207.65-3.763 1.443-2.826 1.44-2.832 1.44-4.365 0-1.917-1.8-2.53-1.82-2.53-.079 0 .785.693 1.575 1.63 1.86.919.279 1.253.653.765.856-.476.198-1.514.013-2.306-.411-1.83-.98-5.159-1.003-5.159-.037 0 .403.302 1.3.672 1.992.369.692.832 1.787 1.029 2.435.196.647 1.28 1.357 2.407 1.577 3.783.74 8.565 2.286 9.016 2.915.246.344 1.498.081 2.782-.583 1.284-.664 2.77-1.04 3.303-.835.542.207 2.314-1.089 4.021-2.94 2.893-3.14 3.027-3.203 2.56-1.225-.571 2.427-3.552 5.346-5.459 5.346-.726 0-2.488.489-3.916 1.085-2.279.952-3.14.958-7.044.047-2.446-.57-4.633-1.223-4.86-1.45-.226-.226-1.16.08-2.077.68-1.492.978-1.621.975-1.238-.024.236-.614-.056-1.674-.648-2.357-1.429-1.646-2.168-6.68-1.16-7.895.434-.523 1.412-.951 2.172-.951.76 0 1.579-.51 1.818-1.133.59-1.537-.919-4.662-2.25-4.662-1.051 0-2.577-2.086-2.577-3.523 0-.396.412-1.151.915-1.677 1.602-1.676 3.488-4.942 2.854-4.942-.849 0-6.67 6.527-7.591 8.512-.416.896-.99 1.63-1.277 1.63-.768 0-2.128 3.766-1.943 5.38.1.865-.709 1.99-2.127 2.961-1.657 1.134-2.11 1.848-1.641 2.589.457.722.65.756.658.116.006-.498.5-.905 1.098-.905 1.727 0 1.263 1.136-.86 2.103-1.82.829-6.627 4.328-8.79 6.398-.527.504-1.285.916-1.686.916-.563 0 1.98-2.39 4.394-4.129.166-.12.105-.414-.135-.653-.24-.24-1.168.076-2.063.703-1.198.84-1.878.932-2.579.35-.7-.581-1.428-.476-2.765.4-2.005 1.314-2.205 1.925-1.019 3.111 1.048 1.048.133 3.84-1.259 3.84-.599 0-1.581-.492-2.183-1.093-.6-.602-1.42-.89-1.822-.643-.414.256.221 1.432 1.472 2.723l2.201 2.273-2.29 6.749c-1.746 5.15-2.737 7.014-4.179 7.865-1.672.988-6.5 7.16-6.5 8.309 0 .24 2.038.42 4.528.398 5.182-.045 8.127 1.153 9.817 3.995 1.409 2.368.853 3.176-1.368 1.988-2.443-1.308-10.03-1.154-12.731.257-3.903 2.038-5.413 4.605-5.168 8.79.201 3.439.358 3.705 2.568 4.356 1.895.558 2.355 1.07 2.355 2.626 0 1.063.212 2.996.472 4.295.461 2.305.418 2.354-1.765 2.033l-2.238-.328.39 4.204c.35 3.772.196 4.434-1.495 6.443-3.127 3.717-2.263 5.119.977 1.584 2.66-2.902 4.369-4.09 3.227-2.242-.313.506-.2.64.288.339.443-.273.658-.894.478-1.38-.371-1.002 3.696-3.853 6.504-4.558 1.027-.257 2.042-.75 2.254-1.093.54-.873 5.218-3.03 5.911-2.725.314.138-.381 1.228-1.545 2.423-1.164 1.196-1.878 1.766-1.587 1.268.29-.498.183-.905-.238-.905-1.238 0-.88 2.034.5 2.848 1.105.651 1.128.839.181 1.462-.753.495-1.175.444-1.376-.168-.432-1.317-1.52-1.834-3.027-1.44-2.145.561-3.075 2.086-2.196 3.598.693 1.19.762 1.162.782-.324.015-1.14.458-1.63 1.47-1.63.798 0 1.45.326 1.45.724 0 .399-.294.643-.652.544-.359-.1-.685.063-.725.362-.116.869.523.79 3.844-.48 2.935-1.12 3.122-1.357 3.046-3.87l-.08-2.675 7.591-1.503c4.176-.827 7.22-1.733 6.766-2.013-.454-.281-1.263-.348-1.796-.149-.603.225-1.497-.737-2.356-2.533-.76-1.592-1.657-2.895-1.992-2.895-.334 0-.593-1.06-.575-2.354l.032-2.354 1.414 2.677c1.614 3.056 5.599 6.378 7.652 6.378.763 0 1.746.575 2.186 1.279.44.704 2.476 2.192 4.525 3.307 3.267 1.779 3.782 1.883 4.179.848.822-2.143-.38-8.428-2.21-11.55-1.011-1.725-1.636-3.693-1.426-4.494.324-1.241.062-1.39-2.03-1.153-1.957.223-2.93-.213-5.249-2.349-1.566-1.442-3.756-3.158-4.867-3.815-2.017-1.191-3.31-3.08-2.109-3.08.35 0 2.462 1.487 4.695 3.306 2.433 1.983 5.09 3.474 6.633 3.725 2.423.393 2.832.145 6.95-4.213 3.38-3.576 4.111-4.102 3.212-2.311-1.596 3.179-1.476 4.256.829 7.483 2.393 3.35 3.364 3.668 8.724 2.85 3.695-.564 5.218-.968 9.747-2.588.698-.25 1.268-.741 1.268-1.093s.349-.64.775-.64c1.144 0 6.521-3.84 9.28-6.626 1.322-1.336 4.209-5.2 6.415-8.586 3.64-5.59 9.075-11.55 10.556-11.579.781-.015-.06 1.287-2.73 4.223-2.052 2.258-6.199 7.934-10.138 13.875-5.961 8.994-16.175 15.298-29.37 18.128l-3.984.854.25 7.196c.231 6.68.426 7.49 2.708 11.279 1.41 2.341 2.654 5.564 2.919 7.555.466 3.518 2.364 5.695 4.963 5.695.612 0 1.112.327 1.112.727 0 .4 1.513 1.132 3.363 1.627 1.85.495 4.478 1.921 5.842 3.17 2.25 2.062 2.825 2.242 6.235 1.96 2.066-.17 4.571-.583 5.567-.916zm17.409-13.63c.037-.872 2.154-3.441 2.835-3.441.343 0 1.635-1.06 2.873-2.355 2.26-2.365 4.76-3.435 2.961-1.267-.738.89-.689 1.086.274 1.086.646 0 1.175.326 1.175.725 0 .591-1.646.876-4.015.694-.216-.017-1.515 1.124-2.885 2.535-2.487 2.561-3.262 3.048-3.218 2.022zm12.245-9.599c-.038-.996-.233-1.403-.434-.905-.2.498-.675.905-1.054.905-.421 0-.437-.494-.042-1.267 1.168-2.286.954-7.296-.343-8.022-1.382-.773-.68-2.419.79-1.855.596.229 1.2-.252 1.498-1.19.598-1.887 1.505-1.144 2.235 1.83.468 1.904.395 2.06-.584 1.253-.942-.775-1.188-.661-1.56.725-.242.904-.44 2.46-.439 3.456 0 1.433.148 1.584.704.724.526-.815.702-.452.702 1.449 0 3.08-1.365 5.765-1.473 2.897zm3.723-5.795c.006-.597.471-2.064 1.035-3.26l1.024-2.173-.43 2.174c-.539 2.72-1.646 4.935-1.63 3.26zM203.79 173.52c-1.474-4.784-.78-7.787 1.799-7.787.783 0 1.423-.326 1.423-.725 0-.398.428-.724.95-.724.523 0 1.65-.652 2.505-1.449 3.367-3.136 3.92-1.427 1.29 3.984-2.918 6.004-7.099 9.52-7.967 6.7zm3.724-2.535c1.94-2.201 4.105-5.958 3.679-6.384-.15-.15-1.824.44-3.719 1.312-2.81 1.293-3.373 1.857-3.05 3.057.217.81.4 2.042.405 2.739.014 1.76.644 1.59 2.685-.724zm106.466 1.509c-.266-.266-.483-.82-.483-1.232 0-.454.337-.411.857.109.471.471.689 1.025.483 1.231-.206.206-.592.157-.857-.108zm-8.27-4.283c.697-.828 1.272-2.295 1.278-3.26.01-1.398.154-1.533.714-.667.397.614.707.721.713.245.018-1.34 2.389-.624 2.987.903.932 2.378.7 2.747-.847 1.347-.876-.793-1.7-1.063-1.992-.655-.275.382-1.314 1.347-2.31 2.144l-1.811 1.449 1.267-1.506zm-1.968-1.194c.203-.53-.127-1.606-.733-2.392-1.097-1.42-1.109-1.42-1.985.021-.834 1.37-.904 1.33-1.289-.724-.365-1.952-.67-2.166-2.994-2.1-2.535.071-2.56.046-1.22-1.294.752-.752 1.678-1.176 2.058-.941.379.234 1.874-.136 3.322-.823 2.692-1.277 4.627-4.464 4.627-7.616 0-.876.224-1.37.496-1.097.273.273.518 2.364.544 4.648l.047 4.152h-2.519c-1.956 0-2.57.323-2.755 1.449-.174 1.062-.06 1.19.426.482.533-.778.751-.734 1.12.227.252.657.786.99 1.188.743.443-.274.729.686.729 2.446 0 1.594-.322 3.097-.716 3.34-.394.244-.55.01-.346-.52zm-106.524-3.481c-.238-.386-1.06-.7-1.825-.7-1.717 0-2.69-3.18-1.435-4.691.48-.578 2.677-1.726 4.884-2.551 3.304-1.236 4.433-1.363 6.395-.715 3.308 1.092 4.072 2.184 3.005 4.297-1.409 2.79-9.915 6.153-11.024 4.36zm8.28-3.598c.435 0 .79-.652.79-1.45 0-1.273-.46-1.44-3.803-1.376-2.756.053-3.305.21-1.992.573 2.22.615 3.014 3.695.956 3.712-1.118.01-1.153.12-.232.72.794.519 1.41.32 2.29-.735.66-.794 1.557-1.444 1.991-1.444zm-8.297-2.01c-.442-.71-2.503.958-2.503 2.027 0 2.098 1.765 2.139 2.218.051.225-1.034.353-1.968.285-2.077zm3.654 2.01c.246-.399-.224-.725-1.044-.725-.82 0-1.491.326-1.491.725 0 .398.47.724 1.043.724.574 0 1.246-.326 1.492-.724zm112.818-.235c-1.775-4.072-2.029-5.95-.9-6.647.398-.246.724.196.724.983 0 .788.407 1.569.905 1.736.716.241.707.545-.04 1.451-.79.957-.75 1.255.24 1.81.745.417 1.097 1.362.946 2.54-.21 1.647-.44 1.417-1.875-1.873zm-7.423 1.22c-.57-.741-.747-1.102-.394-.803.353.3 1.314-.026 2.136-.724.958-.813 1.21-.878.7-.183-.438.598-.933 1.53-1.1 2.072-.232.747-.556.66-1.342-.362zm11.055-5.298c-.107-4.208.05-4.968.956-4.62.597.228 1.772-.194 2.612-.94 1.52-1.35 1.523-1.348.589.456-.516.996-1.134 1.974-1.373 2.173-.24.199-.924.993-1.522 1.765-.987 1.276-.971 1.36.181.929 1.46-.547 1.644.57.562 3.416-1.197 3.148-1.87 2.081-2.005-3.179zm-9.12.932c-.887-.886-.498-2.901.784-4.061 1.186-1.073 1.274-.963 1.363 1.699.09 2.663-.833 3.677-2.148 2.362zm-4.83-7.442c0-1.75.403-1.926.978-.429.224.585.096 1.257-.285 1.492-.381.235-.693-.243-.693-1.063zm12.09-.395c-.721-.527-1.002-1.148-.625-1.382.377-.233 1.095.07 1.595.673 1.225 1.475.65 1.894-.97.709zm-9.192-1.014c0-.353-1.117-1.172-2.482-1.82-2.342-1.111-2.445-1.31-1.811-3.519.834-2.91.859-2.712-.333-2.712-1.482 0-3.572-4.79-2.74-6.277.585-1.045.746-.974 1.225.545.303.961 1.476 2.873 2.607 4.25 1.502 1.827 1.816 2.653 1.165 3.067-.7.445-.697.568.015.577.498.006.905.693.905 1.528 0 .907.582 1.668 1.449 1.895 1.453.38 2.089 3.107.724 3.107-.398 0-.724-.288-.724-.641zm11.21-.862c-.69-2.177-.183-2.258 1.601-.255 1.456 1.634 1.471 1.758.222 1.758-.74 0-1.56-.676-1.823-1.503zm-32.91-3.022c-.02-1.301.908-3.053 2.685-5.063 3.832-4.335 4.733-5.432 8.149-9.925.993-1.307 5.106-3.667 6.39-3.667.802 0 1.648-.407 1.88-.905.338-.724.508-.723.846.002.298.638 1.207.261 3.063-1.268 1.743-1.437 3.444-2.175 5.01-2.175 2.396 0 3.446 1.416 1.102 1.486-1.065.032-1.006.22.362 1.175 1.95 1.36 2.106 2.405.362 2.42-2.893.024-4.828 1.737-4.918 4.353-.079 2.255.268 2.762 3.092 4.52 3.193 1.988 3.542 3.43.83 3.43-1.126 0-1.352.329-.996 1.45.611 1.925-1.042 1.91-3.123-.029-2.079-1.936-2.005-2.869.226-2.869.996 0 1.81-.326 1.81-.724 0-.399-.264-.725-.587-.725-.324 0-1.302-.664-2.173-1.477-.872-.812-1.586-1.138-1.586-.724 0 1.248-1.256.845-1.608-.515-.457-1.761.092-3.079 1.284-3.079.552 0 .85-.407.664-.905-.19-.506.949-1.64 2.577-2.568 2.723-1.552 2.836-1.743 1.709-2.87-1.128-1.128-1.334-1.059-3.098 1.036-1.51 1.795-2.617 2.325-5.512 2.644-1.992.22-3.703.42-3.803.445-.1.025-.181.86-.181 1.856 0 1.342-.384 1.811-1.483 1.811-.888 0-1.976.869-2.716 2.169-.679 1.192-1.754 2.17-2.39 2.173-1.546.006-3.56 2.318-3.523 4.046.022 1.082.284.92 1.178-.732l1.15-2.124 1.083 2.068 1.083 2.067.972-1.755c.535-.965.984-2.29.998-2.945.014-.654.465-1.359 1.002-1.564.742-.285.959.483.905 3.214-.06 3.042-.263 3.54-1.338 3.262-1.145-.295-1.657.694-1.353 2.617.152.963-.868.58-2.475-.93-1.283-1.205-1.915-1.34-3.487-.742-1.056.402-1.947.494-1.98.205-.032-.289-.506.453-1.053 1.648l-.995 2.173-.033-1.99zm23.481.131c-.263-.425-.322-.928-.132-1.118.19-.19.538.158.774.773.49 1.276.072 1.5-.642.345zm-97.4-7.219c0-.411.472-1.878 1.05-3.26.8-1.913 1.48-2.512 2.854-2.512.993 0 2.039.378 2.324.839.356.576.023.709-1.062.425-1.287-.336-1.847.112-3.025 2.421-1.44 2.825-2.141 3.507-2.141 2.087zm-2.173-.848c0-1.554 1.508-4.924 2.205-4.924.288 0 .694-.652.902-1.448.407-1.555 2.552-1.914 4.69-.785.692.365 2.373 1.08 3.737 1.588 1.363.508 2.112 1.047 1.664 1.196-.449.15-2.349-.407-4.223-1.236-3.153-1.394-3.504-1.419-4.706-.332-.714.647-1.967 2.525-2.783 4.175-.817 1.65-1.485 2.444-1.486 1.766zm13.916-3.04c.513-.557 1.048-.905 1.187-.772.43.408-.659 1.786-1.411 1.786-.39 0-.29-.456.224-1.014zm20.94-3.82c-.95-.909-1.962-1.507-2.25-1.329-.287.178-1.303-.561-2.258-1.641-1.297-1.469-1.355-1.646-.23-.703.83.695 2.459 1.268 3.623 1.274 1.632.009 1.868.172 1.03.713-.944.61-.93.704.103.714.655.006 1.396.546 1.647 1.201.652 1.698.296 1.65-1.666-.229zm-22.537-1.217c-4.414-1.511-6.232-3.29-4.473-4.377.376-.232.638.11.584.76-.058.684.663 1.406 1.711 1.715.996.293 3.198.951 4.893 1.463 3.451 1.04 4.78.497 2.66-1.088-1.342-1.003-1.334-1.027.234-.632 1.719.433 1.905.857 1.19 2.718-.555 1.448-1.062 1.406-6.799-.559zm-.004-3.343c0-.386.489-.514 1.087-.285.597.23 1.086.545 1.086.701 0 .157-.489.285-1.086.285-.598 0-1.087-.316-1.087-.701zm98.933-2.302c-1.371-1.32-1.362-1.343.543-1.343 1.98 0 2.326.47 1.383 1.886-.362.545-.976.372-1.926-.543zm-93.5.373c-3.799-.824-7.606-1.936-7.606-2.22 0-2.181 6.549-8.574 7.405-7.228.511.804.618.689.835-.9.05-.366.387-.936.75-1.268.383-.35.44-.224.138.302-.788 1.37.355 1.084 1.454-.362.529-.698.963-.942.965-.544.005 1.08-5.08 6.347-5.613 5.814-.253-.253.01-.75.585-1.105s.793-.898.484-1.207c-.615-.615-5.554 4.268-5.554 5.491 0 .417.896.955 1.992 1.195 1.095.24 2.937.735 4.092 1.1 2.681.849 3.333.837 3.333-.06 0-.398-.734-.734-1.63-.747-1.545-.022-4.165-1.494-4.165-2.34 0-.216 1.548.161 3.44.838 4.982 1.783 4.261 4.362-.905 3.241zm108.713-10.59c-.184-.896-.53-2.852-.77-4.346l-.438-2.717h2.65c2.647 0 2.648.001 2.16 2.6-1 5.336-2.932 7.729-3.602 4.463zm2.469-5.07c.006-.3-.478-.544-1.076-.544-1.226 0-1.27.127-.623 1.813.37.962.587 1.01 1.075.24.337-.531.618-1.21.624-1.51zm-44.177 4.837c0-.227.46-.873 1.022-1.435.562-.563 1.133-1.311 1.268-1.664s.98-.87 1.876-1.148c2.298-.715 2.156 1.237-.181 2.488-.996.533-1.811 1.24-1.811 1.571 0 .331-.49.602-1.087.602-.598 0-1.087-.186-1.087-.414zm-26.077-3.053c0-.36.699-1.275 1.554-2.034 1.543-1.37 1.548-1.37.72.21-.923 1.76-2.274 2.844-2.274 1.824zm-19.92-1.603c-1.137-.489-.814-.634 1.493-.674 1.618-.028 4.332-.722 6.03-1.542 2.67-1.29 2.959-1.645 2.142-2.63-.837-1.008-.675-1.079 1.425-.617 1.512.332 2.752.203 3.426-.357.801-.665 1.057-.67 1.057-.021 0 .47.245.711.544.536.78-.46 3.803.788 3.803 1.57 0 .363-1.386.51-3.079.329-2.376-.255-4.19.179-7.952 1.9-5.064 2.317-6.454 2.552-8.89 1.506zm62.196-4.646c2.697-2.206 7.5-3.818 8.474-2.845.483.483-.309 1.06-2.376 1.73-1.705.553-3.915 1.421-4.911 1.93-2.853 1.456-3.457 1.042-1.187-.815zm16.942.474c-1.096-.679-1.992-1.448-1.992-1.709 0-.795 5.038-2.918 5.803-2.445.394.244.716 1.565.716 2.935 0 2.884-1.285 3.23-4.527 1.22zm3.079-2.046c0-.63-.387-1.018-.86-.86-1.344.447-1.566 2.007-.287 2.007a1.15 1.15 0 0 0 1.147-1.147zm4.208 2.216c-.693-.693.314-4.08 1.33-4.47 1.283-.492 3.161 1.057 3.131 2.584-.019.99-.194.952-1.089-.23-.806-1.066-1.27-1.206-1.902-.575-.632.632-.61 1.11.091 1.953.764.92.741 1.118-.127 1.118-.58 0-1.225-.171-1.434-.38zm-67.23-1.705c0-.35.497-1.047 1.103-1.55.637-.53.922-1.485.676-2.263-.235-.74-.08-1.346.346-1.346.425 0 .773 1.304.773 2.897 0 2.415-.242 2.898-1.449 2.898-.797 0-1.449-.286-1.449-.636zm8.66-1.938c-.65-.785-.694-1.335-.148-1.88.545-.547 1.003-.338 1.564.71.97 1.812-.13 2.72-1.415 1.17zm56.62-4.127c.133-3.626.939-6.708 1.733-6.624.394.043 1.451 1.51 2.348 3.26l1.63 3.183-1.53 1.268c-.84.697-2.145 1.268-2.898 1.268-1.078 0-1.35-.5-1.282-2.355zm3.269-1.448c-.24-.897-.441-1.894-.447-2.216-.006-.323-.336-.385-.734-.139-1.223.756-.86 3.984.447 3.984.86 0 1.055-.431.734-1.63zm-61.033 1.483c-.23-.372-.874-.502-1.432-.288-.7.269-1.013-.165-1.013-1.4 0-.983.326-1.787.724-1.787.399 0 .725.3.725.666 0 .367.974.881 2.165 1.143 2.843.624 3.345 1.56 1.069 1.995-1.001.191-2.008.043-2.238-.33zm-25.283-2.058c-.235-.381.243-.693 1.064-.693 1.749 0 1.925.403.428.977-.585.225-1.256.097-1.492-.284zm76.08-.693c-.246-.399.08-.724.725-.724.644 0 .97.325.724.724-.246.398-.572.724-.724.724-.153 0-.479-.326-.725-.724zm3.763.258c.475-.193.659-.901.407-1.573-.398-1.064-.3-1.093.765-.226 1.693 1.377 1.527 2.276-.407 2.208-.897-.031-1.241-.215-.765-.409zm-75.84-1.545c0-.61 2.445-2.97 4.196-4.053 1.937-1.197.712.762-1.66 2.654-1.394 1.113-2.535 1.742-2.535 1.399zm23.906-1.568c0-.375.36-.905.802-1.177.503-.311.634-1.612.352-3.484-.318-2.108-.237-2.668.273-1.901.813 1.221.971 4.365.306 6.098-.476 1.24-1.733 1.576-1.733.464zm-17.117-4.175c.858-.858 3.942-1.02 4.429-.232.282.456-.583.742-2.24.742-1.485 0-2.47-.23-2.189-.51zm21.825-6.009c.246-.398.774-.724 1.172-.724.399 0 .523.326.277.724-.246.398-.774.724-1.172.724-.399 0-.523-.326-.277-.724zm-56.561 127.776c1.168-.448 1.644-3.906.537-3.906-.334 0-.986.83-1.449 1.845-1.23 2.7-1.16 2.857.912 2.061zm10.88-1.805c-.288-.466-.81-.422-1.469.125-1.545 1.283-1.224 2.279.447 1.385.808-.433 1.268-1.112 1.022-1.51zm-5.692-.022c.218-.354.185-1.311-.074-2.127-.708-2.233-2.679-1.407-2.968 1.244-.215 1.977-.055 2.232 1.198 1.905.795-.208 1.625-.668 1.843-1.022zm14.63.415c-.735-.734-6.326-.96-6.75-.272-.238.384 1.214.675 3.367.675 2.082 0 3.604-.181 3.382-.403zm57.583-.796c-.49-.199-1.469-.21-2.174-.027-.704.183-.303.346.892.36 1.195.015 1.772-.135 1.282-.333zM208 203.254c.425-.678.55-1.455.278-1.728-.623-.623-4.162 1.644-4.162 2.666 0 1.174 3.018.445 3.884-.938zm25.816-.215c0-2.52-2.495-2.519-2.64 0-.077 1.33.259 1.81 1.267 1.81.981 0 1.373-.516 1.373-1.81zm2.77-.122c-.342-1.76-1.736-1.96-1.736-.25 0 .802.443 1.458.985 1.458.541 0 .879-.543.75-1.208zm7.922.325c-.196-.588-4.716-2.195-7.614-2.707-.42-.074-.107 1.134.555 2.141.634.966.792.966 1.426 0 .634-.966.715-.966.728 0 .01.734.85 1.13 2.59 1.22 1.58.081 2.476-.172 2.315-.654zm45.419-.817c.84-.615 1.05-1.152.566-1.451-1.102-.681-3.073.228-3.073 1.418 0 1.27.8 1.281 2.507.033zm-96.677-1.922c0-1.412-.768-1.888-1.64-1.016-.58.58.179 2.465.993 2.465.356 0 .647-.652.647-1.449zm48.715-1.204c-.498-.2-.906-1.143-.906-2.093 0-1.314.29-1.617 1.206-1.266.836.321 1.037.19.656-.426-.51-.824-9.105-.965-9.105-.15 0 .175.57.969 1.267 1.766s.86 1.21.362.92c-.498-.292-.905-.203-.905.198 0 .4 1.548.85 3.44.998 1.893.15 3.768.305 4.166.345.398.04.317-.091-.181-.292zm-4.045-1.452c-.692-.692-.595-1.69.164-1.69.356 0 .835.489 1.064 1.086.424 1.105-.348 1.484-1.228.604zm127.734-.56c0-.177-.326-.522-.725-.768-.398-.246-.724-.102-.724.32 0 .421.326.767.724.767.399 0 .725-.144.725-.32zm-171.267-3.384c.535-.867-1.073-2.217-1.976-1.66-.678.42.048 2.465.874 2.465.332 0 .828-.362 1.102-.805zm26.027.08c-.246-.398-.102-.724.32-.724s.767.326.767.725c0 .398.598.724 1.328.724.993 0 1.328-.549 1.328-2.173 0-1.8-.293-2.173-1.708-2.173-1.167 0-1.932.588-2.415 1.858-.884 2.327-.88 2.488.061 2.488.422 0 .566-.326.32-.724zm14.011-.407c.136-.114.033-.884-.23-1.71-.31-.98-1.092-1.504-2.24-1.504-1.931 0-2.233.687-.892 2.028.676.676.596.87-.362.87-.749 0-1.232-.569-1.232-1.45 0-1.034-.483-1.448-1.69-1.448-1.384 0-1.69.382-1.69 2.108v2.109l4.044-.398c2.225-.218 4.156-.49 4.292-.605zm4.461-2.437c0-1.403-.428-2.238-1.267-2.469-.698-.192.117-.174 1.81.04 1.694.213 3.08.14 3.08-.162 0-.303-.669-1.632-1.486-2.953-1.8-2.912-3.794-3.701-9.77-3.865-1.698-.047-2.226-.41-2.315-1.591-.153-2.032-.316-2.131-2.482-1.524-1.497.419-1.744.798-1.282 1.968.314.796.594 1.001.622.454.043-.826.246-.832 1.202-.04 1.032.858.99 1.014-.41 1.532-.889.329-1.344.924-1.059 1.385.351.567.684.516 1.122-.175.49-.774.625-.722.634.242.018 2.029-1.3 2.194-2.53.316-1.887-2.879-3.56-1.987-3.59 1.913l-.026 3.325 7.539-.427c5.624-.318 7.407-.213 7.02.414-.286.462-.174.84.248.84s.767.652.767 1.449c0 .804.483 1.448 1.087 1.448.718 0 1.086-.718 1.086-2.12zm-7.968-4.448c0-.467.631-.573 1.594-.267 1.568.497 1.574.474.346-1.4-.687-1.048-.968-1.906-.624-1.906.539 0 2.306 3.08 2.306 4.018 0 .18-.815.328-1.811.328s-1.811-.348-1.811-.773zm6.52.126c0-.355.488-.834 1.086-1.063.662-.254 1.087-.001 1.087.646 0 .586-.49 1.064-1.087 1.064-.598 0-1.086-.29-1.086-.647zm5.07 5.071c0-.754-.506-1.565-1.124-1.803-.67-.257-.938-.13-.662.317.254.411.068 1.222-.413 1.802-.72.868-.602 1.055.662 1.055 1.025 0 1.537-.456 1.537-1.37zm-46.5-1.48c-.48-.77-1.132-1.242-1.447-1.048-.315.195-.168.813.326 1.375 1.336 1.517 2.13 1.287 1.122-.326zm15.41.678c.367 0 .666-1.062.666-2.36 0-1.575.481-2.663 1.445-3.264 1.276-.797 1.419-.732 1.221.56-.122.804-.61 1.849-1.082 2.321-1.625 1.626-.854 2.207 2.436 1.836 3.892-.439 3.806-.374 4.393-3.31.367-1.831.22-2.302-.716-2.302-.648 0-1.177-.326-1.177-.725 0-.398-1.122-.724-2.493-.724-1.371 0-2.694.326-2.94.724-.247.399-1.018.725-1.716.725-.697 0-1.9.469-2.673 1.042-1.19.882-1.269 1.268-.513 2.507.492.805.68 2.023.418 2.705-.37.965-.194 1.133.795.753.7-.268 1.571-.488 1.937-.488zm-12.373-2.114c0-.366-.2-1.189-.447-1.83-.338-.882-.681-.968-1.418-.357-.763.633-.783 1.02-.096 1.802 1.016 1.156 1.961 1.342 1.961.385zm2.898-1.922c0-.537-1.946-2.483-2.484-2.483-.228 0-.414.652-.414 1.448 0 .966.483 1.45 1.449 1.45.797 0 1.449-.187 1.449-.415zm157.437-7.01c1.815-2.418 4.825-8.585 4.825-9.887 0-.402-1.127-1.265-2.505-1.919-1.377-.653-3.328-2.012-4.335-3.02-1.718-1.717-1.865-1.746-2.385-.475-.646 1.58-.573 13.14.1 15.822.625 2.49 2.179 2.302 4.3-.522zm-144.09.42c.477-1.241-.823-2.568-2.12-2.163-.398.124-.828.934-.955 1.799-.17 1.159.143 1.573 1.19 1.573.782 0 1.63-.544 1.886-1.21zm8.384.243c0-1.56-.785-1.906-2.251-.99-1.89 1.18-1.715 1.956.44 1.956 1.026 0 1.811-.418 1.811-.966zm9.417-1.25c0-.375-.652-.681-1.449-.681-1.598 0-1.972 1.14-.543 1.652 1.096.394 1.992-.044 1.992-.97zm-15.212-.296c0-.648.425-.901 1.087-.647.597.229 1.086.056 1.086-.385s-.815-.802-1.81-.802c-1.329 0-1.812.386-1.812 1.449 0 .796.326 1.448.725 1.448.398 0 .724-.478.724-1.063zm157.926-.48c.604-.65 1.745-1.304 2.536-1.452 1.46-.274 4.728-5.731 5.663-9.456.268-1.069 1.936-3.13 3.706-4.58 4.338-3.555 6.195-6.875 6.195-11.08 0-7.988-3.406-17.835-7.629-22.058-1.891-1.892-1.912-1.986-.438-1.986 1.942 0 1.974-1.525.118-5.614-.977-2.152-1.84-3.079-2.868-3.079-1.005 0-1.622-.63-1.95-1.992-1.15-4.77-4.999-10.866-9.833-15.574-5.47-5.33-7.814-6.195-7.84-2.898-.022 2.637-2.045 5.154-4.71 5.862-1.73.46-2.2 1.018-2.38 2.83-.173 1.757.361 2.904 2.411 5.173 2.614 2.893 2.624 2.93 1.314 4.668-1.254 1.662-4.017 3.814-8.122 6.324-1.22.746-2.054 2.101-2.442 3.968-.324 1.56-1.431 3.715-2.46 4.789-1.254 1.308-1.994 3.045-2.244 5.267-.206 1.823-.658 3.315-1.004 3.315-.347 0-.63.326-.63.724 0 .398.652.724 1.448.724.797 0 1.45-.326 1.45-.724 0-.398.673-.724 1.497-.724 1.197 0 1.4.308 1.009 1.54-.314.989-.218 1.371.269 1.07.416-.257 1.093.11 1.504.815.687 1.18.749 1.164.769-.208.012-.82.5-2.124 1.085-2.898.585-.773 1.074-2.024 1.087-2.78.022-1.337 4.637-6.751 9.134-10.716 1.532-1.352 2.72-1.837 3.8-1.554 1.4.366.922 1.038-4.35 6.122-3.257 3.141-6.175 5.711-6.484 5.711-.31 0-.777 1.223-1.039 2.717-.262 1.494-.912 3.412-1.444 4.263-.928 1.483-.73 2.437.504 2.437.32 0 .393-.489.164-1.086-.23-.598-.078-1.087.336-1.087.414 0 .961.656 1.216 1.458.448 1.41.594 1.386 4.44-.724 2.187-1.2 4.873-2.183 5.969-2.183 1.965 0 4.695-1.92 5.351-3.762.186-.52.571-.73.857-.465 1.19 1.101-3.352 7.125-5.373 7.125-.648 0-1.488.305-1.866.678-.379.374-2.155.781-3.948.906-2.851.198-3.292.454-3.514 2.038-.14.996-.56 2-.934 2.233-1.08.671.623 4.273 2.076 4.389 3.81.304 5.134.183 7.433-.677 1.39-.52 2.795-1.424 3.123-2.011.329-.587.918-.87 1.31-.627.39.241 1.193.039 1.783-.45 1.273-1.058 1.5-.895 2.104 1.514.38 1.515.191 1.854-1.089 1.95-1.432.108-3.939 2.303-4.478 3.921-.132.394-1.385.209-2.913-.43-4.12-1.72-4.542-1.521-4.512 2.131.03 3.588.265 3.94 4.013 6.016 2.474 1.369 4.37 1.188 5.74-.547.198-.253 1.502-1.232 2.897-2.176 2.278-1.543 2.187-1.361-.906 1.798-3.826 3.91-4.346 6.28-2.284 10.415 1.275 2.555 3.398 2.834 5.373.707zm1.689-15.718c.659-.728 1.198-1.647 1.198-2.041 0-.395.532-2.488 1.182-4.652.906-3.018 1.298-3.611 1.681-2.547.747 2.073-2.843 10.565-4.466 10.565-.437 0-.255-.596.405-1.325zm-13.018-10.603c-.224-.585-.268-1.481-.097-1.993.17-.51.482-.033.692 1.063.41 2.14.072 2.667-.595.93zm15.415-2.436c-1.315-1.453-1.532-2.297-.59-2.297.334 0 .979.815 1.433 1.811.981 2.154.774 2.273-.843.486zm-5.11-4.76c.467-1.218 2.463-2.16 2.463-1.162 0 .372-.645 1.022-1.433 1.443-1.149.615-1.353.56-1.03-.28zm5.217-3.468c-.66-1.718-1.223-2.553-1.252-1.856-.064 1.526-2.227 1.724-2.227.204 0-.7-.433-.912-1.267-.618-1.035.364-1.102.267-.363-.53.498-.537.906-1.569.906-2.294 0-.725.83-2.634 1.846-4.243 1.984-3.142 1.905-4.459-.445-7.447-1.359-1.726-1.714-1.803-6.461-1.405l-5.024.42.411-2.53c.324-1.997.139-2.635-.876-3.025-.75-.288-1.534-.106-1.878.436-.438.691-.593.616-.6-.295-.022-2.366 1.414-2.06 4.305.919 2.52 2.597 3.24 2.958 5.277 2.647 2.974-.454 5.855 1.161 7.492 4.201 1.153 2.142 1.156 2.46.044 4.69-1.53 3.067-1.503 3.89.286 8.597.814 2.14 1.378 4.198 1.253 4.572-.125.374-.767-.725-1.426-2.443zm-19.146.42c-.27-.753-.959-1.918-1.532-2.588-.933-1.088-.89-1.177.4-.84.838.22 1.599 1.186 1.814 2.304.444 2.315.003 3.044-.682 1.125zm-14.395-6.803c-.254-.411.355-.725 1.406-.725 1.02 0 1.854.326 1.854.725 0 .398-.633.724-1.406.724-.773 0-1.607-.326-1.854-.724zm-123.145 42.014c.246-.399-.08-.725-.724-.725-.645 0-.971.326-.725.725.246.398.572.724.725.724.152 0 .478-.326.724-.724zm96.257-4.022c.248-.645.126-.935-.284-.682-.394.244-.716.75-.716 1.125 0 1.042.519.812 1-.443zm-123.559-2.316c-.18-2.183-.545-2.762-1.854-2.948-1.275-.181-1.63.122-1.63 1.391 0 1.657 1.87 4.273 3.053 4.273.36 0 .555-1.222.431-2.716zm163.409-7.847c.735-1.916.495-3.2-.598-3.2-.571 0-1.244.649-1.496 1.442-.783 2.469 1.186 4.123 2.094 1.758zm-102.278-9.575c.81-.81-1.387-3.255-2.377-2.644-.366.226-.663-.178-.66-.899.006-1.388 2.956-3.121 5.31-3.121.774 0 1.799.537 2.279 1.193 1.524 2.084 4.524.715 5.408-2.467 1.12-4.031.976-4.521-1.325-4.521-1.64 0-2.28-.47-2.999-2.206-1.051-2.539-.052-5.763 1.787-5.763.63 0 .916-.424.688-1.02-1.02-2.658-9.566-3.568-9.13-.972.248 1.48-.748 1.625-2.713.397-1.098-.685-1.774-.667-3.181.086-.983.526-2.194.704-2.692.396-.582-.36-.723-.264-.394.268.28.455-.186 1.564-1.037 2.466-1.32 1.397-1.468 2.12-1.008 4.899.297 1.793.496 4.468.443 5.945-.053 1.477.221 2.882.609 3.121.399.247.737-.605.778-1.96.04-1.319.333-3.213.652-4.209.556-1.737.583-1.744.652-.18.075 1.686 1.476 2.328 1.58.724.11-1.704 2.049 3.437 2.082 5.521.027 1.75-.137 1.94-1.032 1.197-.841-.697-1.527-.679-3.26.089-2.162.957-2.554 1.736-1.826 3.637.43 1.125 10.244 1.145 11.366.023zm-8.056-1.292c.035-.844.206-1.015.437-.437.21.523.184 1.147-.057 1.388-.24.24-.412-.187-.38-.95zm4.713-8.15c-1.878-3.632-.427-5.228 4.16-4.576 1.234.175 2.296.903 2.67 1.83.59 1.458.625 1.442.668-.308.026-1.016-.361-2.279-.86-2.807-.729-.773-.701-.897.142-.64.576.175 1.284 1.202 1.572 2.281.29 1.08 1.285 2.596 2.213 3.37 1.783 1.486 1.703 1.55-2.296 1.863-1.395.11-3.57.421-4.833.693-2.048.441-2.421.256-3.436-1.706zm-5.8-6.054c-1.39-1.985-1.123-2.266 1.285-1.35 1.048.398 2.397.535 2.998.305 1.933-.742 1.164.386-1.04 1.526-2.012 1.04-2.197 1.012-3.244-.481zm-50.955 14.627c1.953-.944 4.481-1.449 7.252-1.449 4.774 0 4.952-.719.539-2.175-2.462-.813-3.44-.82-5.65-.042-2.699.95-5.934 3.412-5.934 4.516 0 .865.453.764 3.793-.85zm70.705-16.748c.516-.827.552-1.453.099-1.733-.39-.241-.71-.055-.71.413 0 .495-.607.693-1.449.473-.873-.229-1.449-.023-1.449.519 0 2.03 2.31 2.246 3.509.328zm-63.57-3.543c.235-1.789.678-4.474.987-5.968.43-2.084.33-2.716-.426-2.716-1.066.001-3.521 7.337-3.521 10.525 0 1.414.322 1.834 1.268 1.653.9-.172 1.39-1.186 1.693-3.494zm4.283-7.653c0-.428-.814-1.545-1.81-2.48-2.002-1.881-2.497-1.235-.633.825 1 1.105 1.055 1.795.362 4.543-.448 1.783-.8 3.668-.782 4.188.04 1.086 2.862-5.892 2.863-7.076zm63.056 2.864c.464-1.221.473-2.199.023-2.74-.433-.522-.443-1.245-.026-1.904.37-.585.667-1.389.66-1.787-.033-2.204-1.651 2.573-1.76 5.199-.151 3.614.093 3.887 1.103 1.232zm82.633-6.535c.885-1.066.799-1.134-.817-.643-2.543.772-3.514 1.834-1.677 1.834.828 0 1.95-.536 2.494-1.191zm-143.515-2.389c0-.854-1.413-1.768-1.932-1.25-.519.52.396 1.932 1.25 1.932a.684.684 0 0 0 .682-.682zm141.504-4.364c.52-2.601-.507-9.265-1.596-10.354-.618-.618-.826.936-.826 6.178 0 5.676.19 6.93 1.005 6.618.553-.212 1.19-1.311 1.417-2.442zm-76.008.958c.666-1.734.147-1.867-.878-.225-.487.778-.59 1.416-.231 1.416s.858-.536 1.11-1.19zm3.18-3.537c-.222-.223-.627.179-.9.893-.393 1.033-.31 1.116.406.406.495-.492.718-1.076.495-1.3zm-60.346-.753c1.196-1.018 1.685-1.669 1.087-1.446-.598.224-1.634.602-2.304.84-1.227.437-2.445 2.468-1.476 2.461.286-.002 1.498-.837 2.693-1.855zm3.985-.314c.996-.78 1.384-1.424.862-1.433-.521-.01-.746-.342-.5-.74.246-.4.121-.725-.277-.725s-.926.326-1.172.724c-.246.399-.021.732.5.74.522.01.134.654-.862 1.434-.996.779-1.485 1.416-1.087 1.416.399 0 1.54-.637 2.536-1.416zm118.5-12.855c-.79-.791-1.333.467-.765 1.776.538 1.242.577 1.24.878-.025.172-.728.122-1.516-.113-1.75zm19.195 1.785c1.55-1.19 2.248-6.119 1.336-9.422-.591-2.143-1.093-2.689-2.47-2.689-1.95 0-3.203-2.534-1.898-3.84.438-.437.796-1.213.796-1.722 0-.729-.392-.748-1.837-.089-1.5.683-2.05.625-2.994-.318-1.058-1.058-1.016-1.38.487-3.814 1.641-2.655 1.642-2.659.198-4.102-1.443-1.443-1.445-1.442-1.904 1.426-.521 3.262-1.667 3.857-6.248 3.242-2.238-.3-2.989-.122-3.339.789-.248.647-.756.988-1.128.757-.63-.388-.42 1.288.638 5.136.552 2.007 4.835 7.245 9.596 11.738 4.106 3.875 6.482 4.662 8.767 2.908zm-17.429-5.596c-.376-1.6-.622-1.953-.669-.96-.074 1.578.641 4.113 1.047 3.707.12-.119-.05-1.356-.378-2.747zm-80.174-.29c.907-1.383.948-1.82.2-2.107-1.587-.608-2.822.638-2.29 2.311.611 1.93.697 1.921 2.09-.204zm-3.149.415c0-.943-.86-1.57-1.561-1.137-.75.463-.104 1.741.88 1.741.374 0 .681-.272.681-.604zm58.142-4.58c.89-.46 2.06-1.034 2.596-1.276 1.039-.468 2.979-5.34 2.997-7.527.017-2.049-1.2-.787-1.712 1.775-.269 1.345-1.678 3.463-3.384 5.085-3.068 2.92-3.172 3.326-.497 1.944zm-70.851-11.53c-.773-1.25-1.634-.68-2.432 1.61-1.133 3.251-.98 3.413 1.049 1.107.99-1.124 1.611-2.347 1.383-2.716zm109.777.778c0-.797-.152-1.45-.337-1.45-.185 0-.686.653-1.112 1.45-.619 1.156-.551 1.448.337 1.448.629 0 1.112-.629 1.112-1.448zm-50.58-5.634c.666-.11 1.42.135 1.672.544.71 1.148 2.983.88 4.088-.482.766-.944.775-1.094.043-.654-1.652.995-3.757-1.668-3.757-4.752 0-1.532-.26-2.786-.58-2.786-1.102 0-2.318 1.745-2.318 3.327 0 .874-.489 1.777-1.086 2.006-.598.23-1.087 1.025-1.087 1.768 0 1.567.801 2.589 1.4 1.784.226-.305.957-.644 1.624-.755zm-62.142-4.87c2.061-1.856 4.712-2.667 7.043-2.155 2.187.48 2.33.416 1.446-.648-1.167-1.406-5.232-1.556-7.49-.276-2.142 1.215-6.314 5.75-6.335 6.888-.015.78 1.207-.092 5.336-3.809zm16.74 2.535c-.245-.398-.917-.724-1.49-.724-.575 0-1.045.326-1.045.724 0 .399.672.725 1.492.725s1.29-.326 1.044-.725zm-.18-1.928c-.498-.201-1.313-.201-1.811 0-.498.2-.09.365.905.365.996 0 1.404-.164.906-.365zm52.554-1.114c1.127-1.128 1.108-2.028-.043-2.028-.502 0-1.32.652-1.817 1.448-.732 1.172-.724 1.45.043 1.45.521 0 1.339-.392 1.817-.87zm-42.14-3.078c-.667-1.016-1.775-1.874-2.463-1.905-.756-.035-.893-.202-.345-.423 1.2-.484 1.165-2.417-.045-2.417-1.126 0-4.12 2.652-4.12 3.65 0 .957.982.873 2.028-.173.566-.567.869-.598.869-.09 0 .43-.503 1.199-1.117 1.709-1.563 1.297-.198 2.515 1.688 1.505 1.117-.598 1.66-.523 2.365.326 1.552 1.87 2.547-.034 1.14-2.182zm-7.698-3.297c0-2.034-1.021-3.478-1.675-2.366-.561.957.356 5.27 1.032 4.852.354-.22.643-1.337.643-2.486zm66.993-2.167c1.756-.8 3.89-1.455 4.742-1.455 2.03 0 1.47-1.735-.66-2.047-.888-.13-2.07.142-2.629.605-.558.464-1.348.637-1.756.385-1.285-.795-3.61 1-5.115 3.95-1.902 3.73-1.83 4.072.387 1.855 1.011-1.011 3.275-2.493 5.031-3.293zm-69.536.309c-.276-4.38-1.079-5.063-1.079-.918 0 2.753.393 4.225 1.126 4.225.089 0 .067-1.488-.047-3.307zm-17.556-.496c.239-.712.7-.694 2.162.084 1.022.545 2.297.828 2.835.63.624-.23.283-.637-.945-1.126-1.057-.421-2.149-1.134-2.426-1.582-.528-.854-3.258 1.063-3.258 2.287 0 .953 1.291.72 1.632-.293zm98.695-2.716c.246-.399-.06-.725-.682-.725-.62 0-1.13.326-1.13.725 0 .398.308.724.682.724.375 0 .884-.326 1.13-.724zm-9.542-1.791c1.287-.357 2.664-.238 3.707.32.913.49 2.274.772 3.023.63 1.859-.355 2.193-3.357.516-4.628-1.528-1.158-6.358-1.436-5.672-.326.388.628-.467 1.01-1.89.844-.242-.028-1.37.92-2.508 2.106-2.214 2.311-2.001 2.39 2.824 1.054zm14.964-.951c-.006-.285-.276-.935-.6-1.444-.424-.67-.822-.41-1.437.94-1.146 2.516-1.085 2.698.599 1.797.797-.427 1.444-1.008 1.438-1.293zm-16.78-4.381c.302-2.055-1.774-2.874-3.334-1.314-1.089 1.089-1.07 1.26.237 2.248 1.804 1.362 2.803 1.06 3.097-.934zm3.051-12.798c.983-1.34.968-1.374-.205-.454-.697.546-1.267 1.334-1.267 1.75 0 .416.092.62.205.455.112-.166.683-.954 1.267-1.75zm7.088-5.899c1.48-2.902 1.909-4.934 1.694-8.045-.163-2.36-1.115-2.004-2.52.943-.675 1.415-3.041 4.267-5.258 6.338-2.217 2.071-4.361 4.367-4.765 5.102-.644 1.173-.527 1.272.959.808.93-.291 1.855-.73 2.054-.974.2-.246 1.177-1.098 2.173-1.895 1.811-1.449 1.811-1.449.673 0-.626.797-1.195 2.427-1.266 3.622l-.128 2.173 2.448-2.577c1.346-1.417 3.118-3.89 3.936-5.495zM188.904 304.53c0-.687 2.168-1.034 2.554-.408.236.38-.243.693-1.063.693s-1.491-.129-1.491-.285zm18.953-5.122c.876-1.921 3.261-2.928 3.261-1.376a.98.98 0 0 1-.966.987c-.531 0-.966.292-.966.647 0 .356-.475.83-1.055 1.052-.866.333-.915.098-.274-1.31zm211.039-1.113c-.247-.398-.103-.724.319-.724s.767.326.767.724c0 .398-.144.724-.32.724-.175 0-.52-.326-.766-.724zm-205.726-2.897c.247-.399.774-.725 1.172-.725.399 0 .523.326.277.725-.246.398-.774.724-1.172.724-.398 0-.523-.326-.277-.724zm201.883-3.26c.014-1.195.177-1.597.36-.892.184.705.172 1.683-.026 2.173-.199.49-.35-.086-.334-1.281zm-18.402-2.583c1.312-.87 2.216-1.75 2.01-1.957-.207-.206-.887.05-1.512.568-.959.796-1.313.69-2.274-.682-.818-1.168-1.36-1.404-1.924-.84-.951.951-1.944 1.023-1.944.14 0-.356.815-.851 1.81-1.1 2.142-.538 2.385-1.862.435-2.372-.771-.202-1.54-1.208-1.747-2.287-.429-2.23.032-3.05.913-1.625.389.63 1.352.842 2.674.589 2.021-.387 2.034-.37.59.806-1.366 1.11-1.396 1.348-.39 3.133 1.707 3.033 6.285 3.103 10.943.166 3.307-2.085 3.817-2.202 6.495-1.487 2.905.775 3.544 1.445 2.181 2.287-.398.246-.724 1.198-.724 2.115 0 1.592-.131 1.633-2.905.892-2.357-.629-3.28-.559-4.89.37-1.091.63-3.288 1.36-4.882 1.625a701.3 701.3 0 0 0-5.07.86l-2.174.381 2.385-1.582zm9.968-3.326 2.02-2.65-2.345 1.382c-1.29.76-2.863 1.952-3.496 2.65-1.06 1.168-1.035 1.267.325 1.267.847 0 2.336-1.129 3.496-2.65zm4.308-.973c.247-.398.103-.724-.32-.724-.421 0-.766.326-.766.724 0 .399.144.725.32.725.175 0 .52-.326.766-.725zm-46.722 0c-.496-1.195-1.187-2.173-1.537-2.173-.35 0-.637-.326-.637-.724 0-1.349 1.582-.735 1.974.765.215.82.785 1.338 1.268 1.153.588-.226.768.24.545 1.407-.425 2.223-.526 2.196-1.613-.428zm5.547.96c-1.036-1.036-.373-1.684 1.722-1.684 1.21 0 3-.525 3.978-1.166.98-.642 2.25-.986 2.826-.766.575.221 1.205.086 1.4-.3.195-.386.263-.286.152.222-.11.508-.738.827-1.394.71-1.386-.247-1.629 1.023-.287 1.502.498.178.689.558.424.844-.265.286-1.202.134-2.084-.338-1.247-.667-1.725-.66-2.154.034-.303.49-.928.66-1.389.375-.46-.285-1.26-.166-1.777.263-.517.43-1.155.566-1.417.304zm13.287-.533c0-.144.486-1.195 1.082-2.336 1.051-2.016 1.082-2.025 1.086-.333.004 1.677.057 1.695 1.408.472 1.434-1.297 2.988-1.004 2.886.545-.04.592-.175.57-.433-.073-.254-.633-.653-.705-1.234-.223-.96.798-4.795 2.355-4.795 1.948zm-26.36-1.022c-.203-.327.2-1.081.893-1.676 2.585-2.213 3.157-2.215 1.524-.006-1.855 2.51-1.89 2.534-2.418 1.682zm-.805-4.476c-.486-1.53-2.143-1.944-2.897-.724-.53.857-1.811.97-1.811.159 0-.311 1.012-.948 2.25-1.415 2.01-.759 2.289-.698 2.62.566.203.778.657 1.414 1.01 1.414.351 0 .64.326.64.725 0 1.298-1.34.762-1.812-.725zm16.299-2.808c0-1.07-.454-1.538-1.492-1.538-.82 0-1.308-.297-1.083-.66.433-.702 4.748.62 4.748 1.455 0 .262-.489.882-1.087 1.378-.907.754-1.086.65-1.086-.635zm-23.18-.003c0-.399.325-.926.724-1.172.398-.247.724-.122.724.276 0 .399-.326.926-.724 1.172-.399.247-.725.122-.725-.276zm37.486-1.595c-1.082-1.186-1.104-1.389-.15-1.389.614 0 1.816.652 2.671 1.449 1.478 1.377 1.486 1.446.151 1.388-.772-.033-1.974-.685-2.672-1.448zm-43.258.319c.07-1.795 2.9-3.88 5.267-3.88 1.632 0 2.678-.405 2.962-1.147.772-2.01.496-3.176-.647-2.738-1.971.757-1.13-1.057 1.268-2.733 1.295-.904 2.882-2.23 3.526-2.947 1.275-1.417 2.812-1.733 2.812-.577 0 .398-.309.724-.687.724-.377 0-1.566.815-2.64 1.811-1.075.996-1.581 1.811-1.125 1.811.457 0 .83.489.83 1.087 0 .597-.407 1.093-.905 1.102-.498.009-1.394 1.068-1.992 2.354-.686 1.477-1.707 2.427-2.772 2.577-1.108.157-1.55.591-1.29 1.268.255.665-.089 1.029-.972 1.029-.752 0-1.883.198-2.513.44-.63.242-1.135.16-1.122-.181zm39.818-2.475c0-.422.326-.566.724-.32.398.247.724.592.724.768 0 .176-.326.32-.724.32-.398 0-.724-.346-.724-.768zm-.943-2.606c.258-.672-.267-.98-1.696-.996-2.115-.024-5.2-1.798-4.442-2.555.231-.231 1.022-.102 1.758.287.736.389 2.724 1.076 4.417 1.528 3.434.916 3.971 1.872 1.334 2.376-1.25.24-1.639.058-1.371-.64zm-18.524-2.153c-.848-.958-.826-1.294.15-2.27.975-.975 1.577-1.015 4.073-.267 1.611.483 2.929 1.139 2.929 1.458 0 .474-4.89 2.33-5.88 2.231-.152-.015-.725-.533-1.272-1.152zm-16.753-8.237c0-.398.346-.724.767-.724.422 0 .566.326.32.724-.246.398-.592.724-.767.724-.176 0-.32-.326-.32-.724zm-126.767-8.112c0-.85.245-1.251.543-.89.3.36.815.858 1.148 1.106.332.248.087.649-.544.89-.826.318-1.147.008-1.147-1.106zm14.712-1.86-.74-2.368 2.21 1.705c2.816 2.172 3.088 3.029.962 3.029-1.275 0-1.873-.582-2.432-2.367zm3.217-3.093c-2.887-3.147-2.45-4.243.535-1.343 1.39 1.35 2.531 2.7 2.535 2.999.016 1.083-1.12.471-3.07-1.656zm-6.158-.379c-1.066-1.158-1.156-1.768-.258-1.768.618 0 1.775 2.18 1.362 2.566-.11.102-.606-.257-1.104-.798zm27.708-2.492c-.246-.399-.021-.73.5-.736.69-.008.652-.203-.138-.713-1.418-.917-2.377-.917-1.81 0 .245.398.12.724-.277.724-1.132 0-1.648-1.29-.65-1.623.661-.22.568-.799-.357-2.21-1.718-2.622-1.606-3.955.197-2.324.796.721 1.448 1.726 1.448 2.233 0 .507.86 1.597 1.91 2.423 1.049.826 1.519 1.501 1.043 1.501s-.663.326-.417.724c.246.399.121.725-.277.725s-.926-.326-1.172-.725zm-32.54-2.311c-1.382-1.973-.686-2.922.726-.99.565.772 1.028 1.016 1.028.541 0-.474.326-.862.724-.862.398 0 .724.652.724 1.448 0 1.924-1.813 1.846-3.202-.137zm5.194.382c.498-.201 1.313-.201 1.811 0 .498.2.091.365-.905.365s-1.404-.164-.906-.365zm20.66-.022c.704-.184 1.682-.172 2.172.027.49.198-.086.348-1.281.334-1.195-.015-1.597-.177-.892-.361zm-1.644-3.922c0-.441.489-.614 1.086-.385 1.901.73 1.21-1.738-1.086-3.884-1.196-1.116-2.169-2.47-2.162-3.007.007-.607.212-.696.543-.236.293.408 1.387 1.284 2.431 1.948 1.833 1.165 2.863 3.67 2.257 5.488-.366 1.099-3.07 1.166-3.07.076zm-7.244-8.615c0-.399.978-.725 2.173-.725s2.173.326 2.173.725c0 .398-.978.724-2.173.724s-2.173-.326-2.173-.724zm119.238-13.46c-.919-2.397-.418-3.54.652-1.488 1.263 2.422 1.298 2.633.435 2.633-.356 0-.845-.515-1.087-1.145zM228.86 81.704c0-.996.164-1.403.365-.905.201.498.201 1.313 0 1.81-.2.499-.365.091-.365-.905zm-.708-8.785c-.092-2.866.192-4.344.956-4.978 1.175-.976 1.525-.008.405 1.123-.374.378-.804 2.318-.956 4.31l-.275 3.622-.13-4.077zm93.715-1.314c-.7-.774-1.099-1.834-.885-2.355.247-.604.572-.336.898.741.367 1.213.902 1.586 1.901 1.325 1.134-.297 1.233-.174.536.666-1.064 1.282-.93 1.302-2.45-.377zm-82.457-7.323c.886-.931 1.75-1.549 1.921-1.372.172.177-.553.94-1.61 1.694l-1.92 1.372 1.61-1.694zm80.608-9.604c0-.521.479-1.58 1.064-2.354.917-1.213 1.066-1.24 1.086-.198.013.665.217 1.806.454 2.536.358 1.103.299 1.144-.351.24-.532-.739-.785-.797-.793-.181-.006.498-.337.905-.736.905-.398 0-.724-.426-.724-.948zm5.07-1.225c0-.398.346-.724.768-.724.422 0 .566.326.32.724-.247.399-.592.725-.768.725-.175 0-.32-.326-.32-.725z"/>
</svg>
