<svg height="367.738" viewBox="0 0 338.258 551.607" width="225.505" xmlns="http://www.w3.org/2000/svg">
    <g fill="#f4f4f4" fill-opacity=".5">
        <path d="M248.54 471.708q0 .32-.077.538-.114.326-.368.326-.168 0-.352-.078-.221-.093-.242-.23.074 0 .176.028.234.06.293.06.227 0 .341-.226.091-.181.091-.434 0-.18-.117-.51-.115-.333-.115-.464 0-.04.021-.064.024-.026.064-.026.104 0 .203.48.083.405.083.6zM249.567 471.98q0 .272-.157.426-.157.155-.435.155-.152 0-.234-.072-.083-.072-.083-.221 0-.211.275-.424.26-.203.482-.203.102 0 .134.125.018.072.018.214zm-.162.074q0-.032-.008-.061-.005-.032-.022-.072-.042.03-.141.144-.05.059-.088.085 0-.05.01-.082.022-.046.035-.078-.117 0-.245.099-.125.099-.125.213 0 .078.085.078.163 0 .315-.08.184-.096.184-.246zM250.666 472.089q0 .13-.099.293-.112.184-.232.184-.034 0-.058-.037-.022-.04-.022-.077 0-.048.102-.15.104-.104.104-.141 0-.024-.008-.048l-.011-.032q-.2.045-.408.23-.205.183-.312.207-.021-.058-.021-.12 0-.074.034-.157.024-.059.08-.141.094-.142.198-.32l.184-.323q.133-.23.194-.325.032-.048.056-.072.035-.032.083-.043.032.01.045.04.016.03.016.07 0 .09-.117.245-.213.277-.219.288-.12.18-.12.328l.005.026q.147-.072.174-.082.109-.046.186-.046.086 0 .126.059.04.056.04.144zM251.903 471.932q0 .18-.088.386-.096.227-.237.312-.03-.034-.05-.077-.02-.043-.02-.085 0-.046.134-.27.059-.098.053-.173l-.003-.035q-.098.03-.341.179l-.485.299q-.038 0-.07-.027-.029-.03-.029-.064 0-.056.179-.376.053-.096.192-.333.042.056.056.125.013.067.013.16v.061q.245-.146.384-.221.152-.083.208-.083.037 0 .07.085.034.086.034.136zM254.22 472.449q0 .048-.042.075-.04.024-.09.024-.046 0-.115-.011-.158-.024-.203-.024-.08 0-.315.019-.133.01-.192.01-.162 0-.162-.162 0-.155.1-.443.057-.163.212-.533.138-.334.176-.47.013-.042.02-.056.022-.032.054-.032.05 0 .085.075.035.072.035.13 0 .094-.11.315l-.213.43q-.114.25-.114.381 0 .067.056.093.04.019.117.019.059 0 .203-.013.144-.016.192-.016.12 0 .197.034.11.048.11.155zM255.213 471.98q0 .272-.158.426-.157.155-.434.155-.152 0-.235-.072-.083-.072-.083-.221 0-.211.275-.424.261-.203.483-.203.1 0 .133.125.019.072.019.214zm-.163.074q0-.032-.008-.061-.005-.032-.021-.072-.043.03-.142.144-.05.059-.088.085 0-.05.011-.082l.035-.078q-.118 0-.246.099-.125.099-.125.213 0 .078.085.078.163 0 .315-.08.184-.096.184-.246zM256.335 471.924q0 .085-.045.18-.043.097-.11.16l-.002-.036q0-.032.008-.1.008-.066.008-.098 0-.045-.014-.067-.013-.024-.056-.024-.125 0-.312.195l-.402.424q-.016 0-.032-.003l-.054-.013q.008-.096.067-.214.157-.317.163-.338l.032-.126q.01-.04.03-.082.02-.046.047-.08.03-.038.075-.056l.026.32.176-.144q.118-.094.203-.094.085 0 .139.056.053.056.053.14zM257.645 471.614q0 .112-.299.296-.288.176-.419.176-.061 0-.082-.043-.02-.042-.02-.12v-.072q.18 0 .326-.053.147-.053.256-.176-.08-.03-.162-.03-.195 0-.414.15-.24.163-.24.347 0 .176.24.245.038.01.45.075.244.037.244.13 0 .04-.088.065-.088.026-.224.026-.342 0-.54-.104-.26-.138-.26-.445 0-.32.32-.51.272-.16.618-.16.104 0 .19.049.104.058.104.154zM258.706 471.137q0 .059-.141.245-.142.187-.142.286 0 .05.059.1.133.118.133.145 0 .035-.024.067-.021.032-.056.032-.029 0-.082-.032-.038-.022-.144-.104l-.062.117q-.074.141-.101.205l-.08.246q-.07.165-.173.165l-.003-.061q0-.19.122-.448.024-.048.134-.248-.211-.115-.464-.115 0-.099.04-.144.042-.048.141-.048.09 0 .227.032l.133.032q.05-.016.139-.173.216-.38.293-.435.021.035.035.07.016.034.016.066zM259.69 472.089q0 .13-.099.293-.112.184-.232.184-.034 0-.058-.037-.022-.04-.022-.077 0-.048.102-.15.104-.104.104-.141 0-.024-.008-.048l-.011-.032q-.2.045-.408.23-.205.183-.312.207-.021-.058-.021-.12 0-.074.034-.157.024-.059.08-.141.094-.142.198-.32l.184-.323q.133-.23.194-.325.032-.048.056-.072.035-.032.083-.043.032.01.045.04.016.03.016.07 0 .09-.117.245-.213.277-.219.288-.12.18-.12.328l.005.026q.147-.072.174-.082.109-.046.186-.046.086 0 .126.059.04.056.04.144zM261.88 471.22q0 .125-.134.336-.085.133-.28.384-.195.248-.243.325l.2.064q.195.059.195.213-.08.014-.157.024l-.03-.003v-.021q-.042-.01-.069-.01-.05 0-.16.015-.11.016-.165.016-.072 0-.118-.026-.045-.027-.045-.096 0-.056.205-.318l.387-.493q.208-.283.208-.379 0-.037-.027-.056-.024-.019-.098-.019-.051 0-.211.1-.077.047-.125.047l-.046-.008q-.016-.01-.034-.04-.019-.032-.019-.05 0-.113.216-.206.184-.08.32-.08.115 0 .176.085.053.075.053.195zM263.482 471.7q0 .322-.35.57-.32.227-.658.227-.168 0-.267-.085-.098-.086-.098-.248 0-.363.317-.63.301-.253.675-.253.189 0 .285.112.096.112.096.307zm-.163.06q0-.122-.138-.183-.104-.045-.248-.045-.211 0-.44.205-.23.205-.23.413 0 .086.043.123.045.035.136.035.261 0 .544-.144.333-.171.333-.403zM264.703 471.22q0 .125-.133.336-.085.133-.28.384-.195.248-.243.325l.2.064q.195.059.195.213-.08.014-.157.024l-.03-.003v-.021q-.042-.01-.069-.01-.05 0-.16.015-.11.016-.165.016-.072 0-.118-.026-.045-.027-.045-.096 0-.056.205-.318l.387-.493q.208-.283.208-.379 0-.037-.027-.056-.024-.019-.098-.019-.051 0-.211.1-.077.047-.125.047l-.046-.008q-.016-.01-.034-.04-.019-.032-.019-.05 0-.113.216-.206.184-.08.32-.08.115 0 .176.085.053.075.053.195zM265.93 471.22q0 .125-.133.336-.086.133-.28.384-.195.248-.243.325l.2.064q.195.059.195.213-.08.014-.158.024l-.029-.003v-.021q-.043-.01-.07-.01-.05 0-.16.015-.109.016-.165.016-.072 0-.117-.026-.045-.027-.045-.096 0-.056.205-.318l.387-.493q.208-.283.208-.379 0-.037-.027-.056-.024-.019-.099-.019-.05 0-.21.1-.078.047-.126.047l-.045-.008q-.016-.01-.035-.04-.018-.032-.018-.05 0-.113.216-.206.184-.08.32-.08.114 0 .176.085.053.075.053.195z"/>
    </g>
    <g fill="none" stroke="#f4f4f4" stroke-width="3" transform="translate(-161.977 -209.776)">
        <circle cx="366.21" cy="638.479" r="19"/>
        <circle cx="421.875" cy="606.761" r="19"/>
        <rect height="8" rx="4.124" width="33" x="378.835" y="558.529"/>
        <rect height="8" rx="4.124" width="33" x="322.922" y="559.916"/>
        <rect height="60" rx="9.175" transform="rotate(-45)" width="60" x="-277.971" y="600.422"/>
        <path d="M269.217 582.654c-3.878 0-7 3.122-7 7v23.319H238.9c-3.878 0-7 3.122-7 7v2.412c0 3.878 3.122 7 7 7h23.317V652.7c0 3.878 3.122 7 7 7h2.412c3.878 0 7-3.122 7-7v-23.316h23.318c3.878 0 7-3.122 7-7v-2.412c0-3.878-3.122-7-7-7H278.63v-23.319c0-3.878-3.122-7-7-7z"/>
        <circle cx="270.377" cy="621.178" r="5.5"/>
    </g>
    <path d="M84.113 0h8.257v3.01h-8.257z" fill="#f4f4f4"/>
    <g transform="translate(-161.977 -209.776)">
        <g fill="none">
            <path d="M477.01 531.236V651.78c0 59.867-48.22 106.398-108.064 108.063-25.385.707-50.645.731-75.767 0-59.841-1.741-108.062-48.196-108.062-108.063V531.218" stroke="#f4f4f4" stroke-width="3"/>
            <path d="m476.305 591.97-19.103.383c-.265 21.241-.284 42.497-.703 63.728-2.629 25.835-14.063 51.833-35.627 67.273-25.677 18.74-49.49 19.825-90.095 19.15M185.25 591.97l19.104.382c.265 21.241.283 42.497.702 63.728 2.63 25.835 14.063 51.833 35.628 67.273 25.677 18.74 60.069 18.576 90.094 19.15" stroke="#f4f4f4" stroke-width="1.5"/>
            <g stroke-width="3">
                <path d="M185.11 530.7a5.211 5.211 0 0 1 5.222-5.223h281.416a5.211 5.211 0 0 1 5.223 5.222v.144m-291.861 0v-.144" stroke="#969696" stroke-linecap="round"/>
                <path d="M476.97 530.7v.143m0 0a5.211 5.211 0 0 1-5.222 5.223H190.332a5.211 5.211 0 0 1-5.222-5.223v-.144" stroke="#f4f4f4" stroke-linecap="round"/>
                <rect height="274.483" rx="24.587" stroke="#f4f4f4" width="336.258" x="162.977" y="212.817"/>
            </g>
        </g>
        <g fill="#f4f4f4">
            <rect height="3" rx="1.316" width="249.12" x="206.242" y="491.287"/>
            <rect height="3" rx="1.316" width="249.12" x="206.242" y="497.287"/>
            <rect height="3" rx="1.316" width="249.12" x="206.242" y="503.287"/>
            <rect height="3" rx="1.316" width="249.12" x="206.242" y="509.287"/>
            <rect height="3" rx="1.316" width="249.12" x="206.242" y="515.287"/>
            <rect height="3" rx="1.316" width="249.12" x="206.242" y="521.287"/>
            <rect height="3" rx="1.316" width="249.12" x="206.242" y="527.287"/>
        </g>
        <g fill="#969696">
            <rect height="3" rx="1.316" width="235.418" x="212.906" y="518.289"/>
            <rect height="3" rx="1.316" width="235.418" x="212.906" y="488.289"/>
            <rect height="3" rx="1.316" width="235.418" x="212.906" y="506.289"/>
            <rect height="3" rx="1.316" width="235.418" x="212.906" y="494.289"/>
            <rect height="3" rx="1.316" width="235.418" x="212.906" y="512.289"/>
            <rect height="3" rx="1.316" width="235.418" x="212.906" y="500.289"/>
            <rect height="3" rx="1.316" width="235.418" x="212.906" y="530.289"/>
            <rect height="3" rx="1.316" width="235.418" x="212.906" y="524.289"/>
        </g>
        <path d="M245.413 275.338h171.831v161.135H245.413z" fill="none" stroke="#f4f4f4" stroke-width="3"/>
        <rect fill="none" height="222.466" rx="17.662" ry="16.056" stroke="#f4f4f4" stroke-width="1.5" width="283.811" x="189.959" y="240.156"/>
        <g fill="#f4f4f4">
            <rect height="3.288" rx="1.644" width="72.883" x="195.98" y="252.564"/>
            <rect height="3.288" rx="1.644" width="72.883" x="393.285" y="252.564"/>
            <circle cx="438.594" cy="362.195" r="3"/>
            <rect height="2.631" rx="1.316" width="40.19" x="397.579" y="674.021"/>
            <rect height="2.631" rx="1.316" width="40.19" x="388.937" y="682.614"/>
            <rect height="2.631" rx="1.316" width="40.19" x="380.5" y="691.025"/>
        </g>
    </g>
</svg>
