<svg height="355.185" viewBox="0 0 540.256 261.136" width="734.832" xmlns="http://www.w3.org/2000/svg">
    <g fill="#f4f4f4" fill-opacity=".5" stroke-width=".735">
        <path d="M125.44 170.872q0 .236-.057.396-.085.24-.27.24-.124 0-.26-.057-.162-.069-.178-.169.055 0 .13.02.172.045.215.045.167 0 .25-.167.067-.133.067-.32 0-.13-.086-.374-.084-.245-.084-.341 0-.03.016-.047.017-.02.047-.02.076 0 .149.353.06.298.06.441zM126.194 171.072q0 .2-.115.314-.116.114-.32.114-.112 0-.173-.053-.06-.053-.06-.163 0-.155.202-.312.192-.149.354-.149.075 0 .098.093.014.052.014.156zm-.12.055q0-.023-.005-.045-.004-.023-.016-.053-.031.022-.104.106-.037.043-.065.063 0-.038.008-.061l.026-.057q-.086 0-.18.073-.093.072-.093.157 0 .056.063.056.12 0 .231-.058.136-.071.136-.18zM127.002 171.153q0 .096-.073.215-.082.136-.17.136-.026 0-.043-.028-.016-.03-.016-.057 0-.035.075-.11.076-.076.076-.103 0-.018-.006-.036l-.008-.023q-.147.033-.3.168-.15.136-.23.153-.015-.043-.015-.088 0-.055.026-.116.017-.043.058-.103.069-.104.145-.236l.136-.237q.098-.169.143-.24.023-.034.041-.052.026-.023.06-.031.024.008.034.029.012.022.012.051 0 .067-.086.18-.157.204-.161.212-.088.133-.088.241l.004.02q.108-.053.127-.06.08-.034.137-.034.063 0 .092.043.03.041.03.106zM127.912 171.037q0 .133-.065.284-.07.167-.175.23-.021-.026-.037-.057-.014-.032-.014-.063 0-.033.098-.198.044-.072.04-.127l-.002-.026q-.073.022-.251.132-.177.107-.357.22-.027 0-.051-.02-.022-.022-.022-.047 0-.042.132-.277l.14-.245q.032.041.042.092.01.05.01.118v.045q.18-.108.282-.163.112-.06.153-.06.028 0 .051.062.026.063.026.1zM129.615 171.417q0 .036-.031.055-.03.018-.067.018-.033 0-.084-.008-.116-.018-.149-.018-.059 0-.231.014-.098.008-.141.008-.12 0-.12-.12 0-.113.074-.325.042-.12.155-.392.102-.245.13-.345.01-.032.015-.041.016-.024.04-.024.037 0 .062.055.026.053.026.096 0 .069-.08.232-.081.16-.157.315-.085.184-.085.28 0 .05.041.07.03.013.087.013.043 0 .149-.01.106-.012.14-.012.09 0 .146.026.08.035.08.113zM130.345 171.072q0 .2-.116.314-.116.114-.32.114-.111 0-.172-.053-.06-.053-.06-.163 0-.155.201-.312.192-.149.355-.149.074 0 .098.093.014.052.014.156zm-.12.055q0-.023-.006-.045-.004-.023-.016-.053-.03.022-.103.106-.038.043-.065.063 0-.038.008-.061.016-.033.025-.057-.086 0-.18.073-.092.072-.092.157 0 .056.063.056.12 0 .23-.058.136-.071.136-.18zM131.17 171.031q0 .063-.033.133-.032.071-.08.118l-.003-.027q0-.024.006-.073.006-.049.006-.072 0-.034-.01-.05-.01-.017-.04-.017-.093 0-.23.143l-.296.312-.024-.002-.039-.01q.006-.07.05-.157.115-.233.119-.249l.023-.092q.008-.03.022-.061.016-.033.035-.059.022-.027.055-.041l.02.235.129-.106q.086-.068.149-.068t.102.041q.04.041.04.102zM132.133 170.804q0 .082-.22.217-.212.13-.308.13-.045 0-.06-.032-.014-.031-.014-.088v-.053q.131 0 .24-.039.107-.04.187-.13-.059-.021-.12-.021-.142 0-.303.11-.177.12-.177.255 0 .13.177.18.027.008.331.055.179.027.179.096 0 .03-.065.047-.065.02-.165.02-.25 0-.396-.077-.192-.102-.192-.327 0-.235.235-.375.2-.117.455-.117.077 0 .14.035.076.043.076.114zM132.913 170.453q0 .043-.104.18t-.104.21q0 .037.043.074.098.087.098.106 0 .026-.017.05-.016.023-.041.023-.022 0-.061-.024-.028-.015-.106-.076l-.045.086q-.055.104-.075.151l-.059.18q-.05.122-.127.122l-.002-.045q0-.14.09-.33l.098-.182q-.155-.084-.34-.084 0-.073.029-.106.03-.035.103-.035.067 0 .167.023l.098.024q.037-.012.102-.128.159-.278.216-.32.015.026.025.052.012.025.012.049zM133.637 171.153q0 .096-.073.215-.082.136-.17.136-.026 0-.044-.028-.015-.03-.015-.057 0-.035.074-.11.077-.076.077-.103 0-.018-.006-.036l-.008-.023q-.147.033-.3.168-.151.136-.23.153-.015-.043-.015-.088 0-.055.025-.116.018-.043.059-.103.069-.104.145-.236.04-.068.135-.237.098-.169.143-.24.024-.034.042-.052.025-.023.06-.031.024.008.034.029.011.022.011.051 0 .067-.086.18-.157.204-.16.212-.089.133-.089.241l.004.02q.108-.053.128-.06.08-.034.137-.034.063 0 .092.043.03.041.03.106zM135.246 170.514q0 .092-.098.247-.063.098-.206.282-.143.182-.178.24l.147.046q.143.043.143.157l-.116.018-.021-.002v-.016q-.032-.008-.051-.008-.038 0-.118.012-.08.012-.121.012-.053 0-.087-.02-.033-.02-.033-.07 0-.042.151-.234l.284-.363q.153-.207.153-.278 0-.027-.02-.041-.017-.014-.072-.014-.037 0-.155.073-.057.035-.092.035l-.033-.006q-.012-.008-.026-.03-.014-.023-.014-.037 0-.082.16-.15.135-.06.235-.06.084 0 .129.063.04.055.04.143zM136.424 170.866q0 .238-.256.42-.236.167-.485.167-.123 0-.196-.063-.072-.063-.072-.182 0-.267.233-.463.222-.186.496-.186.14 0 .21.082.07.082.07.225zm-.12.046q0-.09-.101-.136-.077-.033-.182-.033-.155 0-.324.15-.169.152-.169.305 0 .063.032.09.033.026.1.026.192 0 .4-.106.245-.126.245-.296zM137.322 170.514q0 .092-.098.247-.062.098-.205.282-.144.182-.179.24l.147.046q.143.043.143.157l-.115.018-.022-.002v-.016q-.031-.008-.051-.008-.037 0-.118.012-.08.012-.121.012-.053 0-.086-.02-.034-.02-.034-.07 0-.042.151-.234.283-.359.284-.363.153-.207.153-.278 0-.027-.02-.041-.017-.014-.072-.014-.037 0-.155.073-.056.035-.092.035l-.033-.006q-.012-.008-.026-.03-.013-.023-.013-.037 0-.082.159-.15.135-.06.235-.06.084 0 .13.063.038.055.038.143zM138.224 170.514q0 .092-.098.247-.062.098-.206.282-.143.182-.178.24l.147.046q.143.043.143.157l-.116.018-.021-.002v-.016q-.032-.008-.051-.008-.037 0-.118.012-.08.012-.121.012-.053 0-.087-.02-.033-.02-.033-.07 0-.042.151-.234l.284-.363q.153-.207.153-.278 0-.027-.02-.041-.017-.014-.072-.014-.037 0-.155.073-.057.035-.092.035l-.033-.006q-.012-.008-.026-.03-.013-.023-.013-.037 0-.082.158-.15.136-.06.236-.06.084 0 .13.063.038.055.038.143z"/>
    </g>
    <g fill="none" stroke="#f4f4f4">
        <g transform="translate(-15.233 -55.352)">
            <g stroke-width="1.4">
                <rect height="9.577" rx="4.788" width="29.03" x="246.006" y="238.864"/>
                <circle cx="455.995" cy="177.24" r="18.873"/>
                <circle cx="410.699" cy="212.557" r="18.873"/>
                <circle cx="501.929" cy="212.093" r="18.873"/>
                <circle cx="456.999" cy="248.398" r="18.873"/>
                <rect height="9.577" rx="4.788" width="29.03" x="299.982" y="238.864"/>
            </g>
            <path d="M107.676 175.845a3.24 3.24 0 0 0-3.248 3.247v7.508a32.018 32.018 0 0 0-16.142 16.117h-8.012a3.24 3.24 0 0 0-3.247 3.247v18.792a3.24 3.24 0 0 0 3.247 3.247h7.616a32.018 32.018 0 0 0 16.538 17.024v6.601a3.24 3.24 0 0 0 3.248 3.247h18.79a3.24 3.24 0 0 0 3.248-3.247v-6.243a32.018 32.018 0 0 0 17.357-17.382h5.739a3.24 3.24 0 0 0 3.247-3.247v-18.792a3.24 3.24 0 0 0-3.247-3.247h-6.116a32.018 32.018 0 0 0-16.98-16.49v-7.135a3.24 3.24 0 0 0-3.247-3.247z" stroke-width="1.39989278"/>
            <path d="M107.676 175.845a3.24 3.24 0 0 0-3.248 3.247v23.625H80.274a3.24 3.24 0 0 0-3.247 3.247v18.792a3.24 3.24 0 0 0 3.247 3.247h24.154v23.625a3.24 3.24 0 0 0 3.248 3.247h18.79a3.24 3.24 0 0 0 3.248-3.247v-23.625h23.096a3.24 3.24 0 0 0 3.247-3.247v-18.792a3.24 3.24 0 0 0-3.247-3.247h-23.096v-23.625a3.24 3.24 0 0 0-3.247-3.247z" stroke-width="1.39989278"/>
            <circle cx="116.586" cy="215.402" r="8.341" stroke-width="1.4"/>
            <g stroke-width="6.683">
                <path d="m440.28 772.937-61.446-25.012 52.384-40.708z" transform="matrix(-.19356 .082 -.08467 -.19084 259.839 347.844)"/>
                <path d="m440.28 772.937-61.446-25.012 52.384-40.708z" transform="matrix(.082 .19356 -.19084 .08467 249.071 71.95)"/>
                <path d="m440.28 772.937-61.446-25.012 52.384-40.708z" transform="matrix(-.082 -.19356 .19084 -.08467 -15.473 358.644)"/>
                <path d="m440.28 772.937-61.446-25.012 52.384-40.708z" transform="matrix(.19356 -.082 .08467 .19084 -26.855 83.333)"/>
            </g>
            <path d="M135.646 89.811c-.725-2.339-3.154-4.386-5.687-3.656-13.927 3.341-27.367 8.572-39.993 15.318-1.664.917-4.37 1.766-3.866 4.193-.015.94.683 2.104 1.052 2.92M434.579 89.811c.725-2.339 3.154-4.386 5.687-3.656 13.927 3.341 27.367 8.572 39.993 15.318 1.664.917 4.37 1.766 3.866 4.193.015.94-.683 2.104-1.052 2.92" stroke-width="1.4"/>
        </g>
        <path d="M398.639 30.924c18.798.806 42.539 9.254 62.943 19.032 44.261 22.214 83.622 68.026 77.303 120.343-5.522 57.006-67.035 103.568-123.303 86.59-32.116-8.854-63.775-20.124-97.267-22.66-16.018-1.968-32.104-2.9-48.181-2.893M398.639 30.924c-9.476-.773-13.442.675-18.283 3.993C343.881 12.473 307.144.812 270.128.7m110.228 34.217c-6.119 6.175-13.52 13.756-23.136 11.628-26.571-14.665-56.81-22.734-87.125-23.005M270 47.432c18.672.284 37.313 4.249 54.43 11.698 6.144 1.494 10.063 8.17 8.285 14.24-1.753 10.248-4.817 20.234-8.096 30.076-2.384 5.183-9.522 6.102-14.031 3.304-12.964-5-26.755-7.952-40.63-8.52M141.616 30.923c-18.799.806-42.54 9.254-62.943 19.032C34.413 72.17-4.948 117.982 1.37 170.3c5.521 57.006 67.035 103.568 123.303 86.59 32.115-8.854 63.775-20.124 97.267-22.66 16.018-1.968 32.104-2.9 48.181-2.893M141.617 30.924c9.476-.773 13.442.675 18.283 3.993C196.375 12.473 233.11.812 270.128.7M159.9 34.917c6.119 6.175 13.52 13.756 23.135 11.628 26.572-14.665 56.811-22.734 87.126-23.005m.094 23.892c-18.672.284-37.314 4.249-54.43 11.698-6.144 1.494-10.064 8.17-8.286 14.24 1.753 10.248 4.818 20.234 8.097 30.076 2.384 5.183 9.522 6.102 14.031 3.304 12.963-5 26.754-7.952 40.63-8.52m-121.893 61.463c0 26.005-21.08 47.087-47.086 47.087-26.005 0-47.086-21.082-47.086-47.087 0-26.005 21.081-47.086 47.086-47.086s47.086 21.081 47.086 47.086z" stroke-width="1.4"/>
    </g>
</svg>
