<svg height="353.971" viewBox="0 0 1421.141 601.75" width="835.965" xmlns="http://www.w3.org/2000/svg">
    <g fill="#f4f4f4" fill-opacity=".5" stroke-width="1.7">
        <path d="M998.025 595.192q0 .408-.099.686-.146.415-.469.415-.214 0-.449-.098-.282-.12-.309-.293.095 0 .224.034.3.078.374.078.29 0 .436-.289.115-.23.115-.554 0-.228-.15-.65-.146-.424-.146-.59 0-.052.027-.082.031-.034.082-.034.133 0 .259.612.105.516.105.765zM999.334 595.538q0 .347-.2.544-.2.198-.554.198-.194 0-.3-.092-.105-.092-.105-.282 0-.269.35-.541.333-.258.616-.258.129 0 .17.16.024.091.024.271zm-.207.096q0-.041-.01-.079-.01-.04-.027-.091-.054.037-.18.183-.065.075-.112.109 0-.065.014-.105.027-.058.044-.099-.15 0-.313.126-.16.126-.16.272 0 .098.109.098.207 0 .401-.102.235-.122.235-.312zM1000.735 595.678q0 .166-.126.374-.142.234-.295.234-.044 0-.075-.047-.027-.051-.027-.099 0-.061.129-.19.132-.133.132-.18 0-.031-.01-.062l-.014-.04q-.255.057-.52.292-.262.235-.398.265-.027-.075-.027-.153 0-.095.044-.2.031-.075.102-.18.12-.18.252-.409l.235-.411q.17-.292.248-.415.04-.061.07-.092.045-.04.106-.054.041.014.058.051.02.037.02.088 0 .116-.15.313-.271.354-.278.367-.153.232-.153.419l.01.034q.187-.092.22-.106.14-.058.239-.058.109 0 .16.075.05.072.05.184zM1002.313 595.477q0 .231-.112.493-.123.29-.303.398-.037-.044-.065-.099-.024-.054-.024-.108 0-.058.17-.344.075-.126.068-.22v-.045q-.126.037-.435.228l-.619.38q-.048 0-.088-.033-.037-.038-.037-.082 0-.071.228-.48.068-.122.245-.424.054.071.07.16.018.084.018.203v.079q.312-.187.49-.283.193-.105.264-.105.048 0 .088.109.044.109.044.173zM1005.267 596.137q0 .061-.054.095-.05.03-.115.03-.058 0-.146-.013-.201-.03-.259-.03-.102 0-.401.023-.17.014-.245.014-.207 0-.207-.208 0-.197.129-.564.071-.207.269-.68.176-.425.224-.598.017-.055.027-.072.027-.04.068-.04.065 0 .109.095.044.091.044.166 0 .12-.14.401l-.272.548q-.146.32-.146.486 0 .085.071.119.051.024.15.024.075 0 .258-.017.184-.02.245-.02.153 0 .252.044.139.06.139.197zM1006.532 595.538q0 .347-.2.544-.201.198-.555.198-.193 0-.299-.092-.105-.092-.105-.282 0-.269.35-.541.333-.258.615-.258.13 0 .17.16.024.091.024.271zm-.207.096q0-.041-.01-.079-.01-.04-.027-.091-.054.037-.18.183-.065.075-.113.109 0-.065.014-.105.027-.058.044-.099-.15 0-.312.126-.16.126-.16.272 0 .098.109.098.207 0 .4-.102.235-.122.235-.312zM1007.964 595.467q0 .109-.058.231-.054.123-.14.204v-.047q0-.041.01-.126.01-.085.01-.126 0-.058-.017-.085-.017-.03-.07-.03-.16 0-.399.248l-.513.54q-.02 0-.041-.003l-.068-.017q.01-.122.085-.272.2-.404.207-.432l.041-.16q.014-.05.037-.105.027-.058.061-.102.037-.047.095-.071l.034.408.225-.184q.15-.119.258-.119.109 0 .177.072.068.071.068.176zM1009.633 595.073q0 .142-.38.377-.368.224-.535.224-.078 0-.105-.054-.024-.054-.024-.153v-.092q.228 0 .415-.068.187-.068.326-.224-.102-.038-.207-.038-.248 0-.527.19-.306.208-.306.443 0 .224.306.313.048.013.574.095.31.047.31.166 0 .051-.112.082-.113.034-.286.034-.435 0-.687-.133-.333-.176-.333-.567 0-.408.408-.65.347-.204.789-.204.132 0 .241.061.133.075.133.198zM1010.986 594.464q0 .075-.18.313t-.18.364q0 .064.075.129.17.15.17.183 0 .045-.031.085-.027.041-.071.041-.037 0-.106-.04-.048-.028-.183-.133l-.078.15q-.095.18-.13.261l-.101.313q-.088.21-.221.21v-.077q0-.242.156-.572.031-.06.17-.316-.269-.146-.592-.146 0-.126.051-.184.054-.06.18-.06.116 0 .29.04l.17.04q.065-.02.176-.22.276-.483.374-.554.027.044.044.088.02.044.02.085zM1012.24 595.678q0 .166-.125.374-.143.234-.296.234-.044 0-.075-.047-.027-.051-.027-.099 0-.061.13-.19.132-.133.132-.18 0-.031-.01-.062l-.014-.04q-.255.057-.52.292-.262.235-.398.265-.027-.075-.027-.153 0-.095.044-.2.031-.075.102-.18.119-.18.252-.409l.234-.411q.17-.292.248-.415.041-.061.071-.092.044-.04.106-.054.04.014.058.051.02.037.02.088 0 .116-.15.313-.272.354-.279.367-.153.232-.153.419l.01.034q.187-.092.221-.106.14-.058.238-.058.11 0 .16.075.051.072.051.184zM1015.032 594.57q0 .16-.17.428-.109.17-.357.49-.248.316-.31.414l.256.082q.248.075.248.272-.102.017-.2.03l-.038-.003v-.027q-.054-.013-.088-.013-.065 0-.204.02-.139.02-.21.02-.092 0-.15-.034-.058-.034-.058-.122 0-.071.262-.405.49-.622.493-.629.265-.36.265-.482 0-.048-.034-.072-.031-.024-.126-.024-.065 0-.268.126-.1.061-.16.061l-.058-.01q-.02-.013-.044-.05-.024-.042-.024-.065 0-.143.275-.262.235-.102.408-.102.146 0 .225.109.068.095.068.248zM1017.076 595.181q0 .412-.446.728-.408.289-.84.289-.214 0-.34-.109-.125-.109-.125-.316 0-.462.404-.802.384-.323.86-.323.242 0 .364.142.123.143.123.391zm-.208.079q0-.157-.177-.235-.132-.058-.316-.058-.268 0-.56.262-.293.262-.293.527 0 .109.054.156.058.045.173.045.333 0 .694-.184.425-.218.425-.513zM1018.633 594.57q0 .16-.17.428-.109.17-.357.49-.248.316-.31.414l.255.082q.249.075.249.272-.102.017-.201.03l-.037-.003v-.027q-.054-.013-.088-.013-.065 0-.204.02-.14.02-.21.02-.093 0-.15-.034-.058-.034-.058-.122 0-.071.261-.405.49-.622.493-.629.266-.36.266-.482 0-.048-.034-.072-.031-.024-.126-.024-.065 0-.269.126-.099.061-.16.061l-.058-.01q-.02-.013-.044-.05-.024-.042-.024-.065 0-.143.276-.262.234-.102.408-.102.146 0 .224.109.068.095.068.248zM1020.197 594.57q0 .16-.17.428-.109.17-.357.49-.248.316-.31.414l.255.082q.249.075.249.272-.102.017-.201.03l-.037-.003v-.027q-.054-.013-.088-.013-.065 0-.204.02-.14.02-.21.02-.093 0-.15-.034-.058-.034-.058-.122 0-.071.261-.405.49-.622.493-.629.266-.36.266-.482 0-.048-.034-.072-.031-.024-.126-.024-.065 0-.269.126-.099.061-.16.061l-.058-.01q-.02-.013-.044-.05-.024-.042-.024-.065 0-.143.276-.262.234-.102.408-.102.146 0 .224.109.068.095.068.248z"/>
    </g>
    <g fill="none" stroke="#f4f4f4" transform="translate(-26.175 -32.12)">
        <rect height="7.65" opacity=".98" rx="2.17" stroke-width="1.7" width="100.561" x="1086.748" y="619.565"/>
        <rect height="7.65" opacity=".98" rx="2.17" stroke-width="1.7" width="100.561" x="286.577" y="618.095"/>
        <path d="M246.041 41.553h985.269c2.894-.014 3.92 1.58 3.986 3.912v11.587c-.151 7.9 3.663 9.643 9.936 9.727 3.435-.045 7.814-.413 7.814 4.054v561.35m3.987-590.63h65.172c68.37 0 123.41 55.041 123.41 123.41V508.76c0 68.37-55.04 123.41-123.41 123.41H151.284c-68.369 0-123.41-55.04-123.41-123.41V164.964c0-68.37 55.041-123.411 123.41-123.411h65.44c4.644.038 7.688 3.373 7.652 7.942" opacity=".98" stroke-width="3.4"/>
        <rect height="548.257" opacity=".98" rx="4.584" ry="4.584" stroke-width="1.7" width="967.613" x="253.638" y="64.596"/>
        <g stroke-width="3.4">
            <rect height="509.076" opacity=".98" rx="4.584" width="904.763" x="284.604" y="84.05"/>
            <path d="M224.377 70.683V49.495m-.072 582.688V70.833c0-4.467 4.38-4.099 7.815-4.054 6.273-.084 10.087-1.828 9.935-9.727V45.465c.066-2.331 1.092-3.926 3.986-3.912M1252.974 70.683V45.495m0 0c0-2.998 2.799-3.94 4.06-3.942" opacity=".98"/>
        </g>
    </g>
    <g fill="none" stroke="#f4f4f4" transform="translate(-26.175 -32.12)">
        <circle cx="132.795" cy="191.643" opacity=".98" r="45" stroke-width="3.4"/>
        <path d="M132.793 226.793v9.61m34.978-44.707h10.076m-80.244 0H87.83m44.966-34.99-.002-9.86m.002 9.86c-9.147 0-18.237 3.764-24.705 10.232-6.468 6.467-10.233 15.558-10.233 24.705 0 9.146 3.765 18.237 10.233 24.705 6.468 6.467 15.558 10.232 24.705 10.232s18.237-3.765 24.705-10.232c6.468-6.468 10.232-15.559 10.232-24.705s-3.764-18.238-10.232-24.705-15.558-10.233-24.705-10.233z" opacity=".98" stroke-width="1.7"/>
        <rect height="5.901" opacity=".98" rx=".886" stroke-width="3.4" width="28.055" x="178.668" y="97.283"/>
        <circle cx="86.667" cy="355.456" opacity=".98" r="21.5" stroke-width="3.4"/>
        <circle cx="178.667" cy="355.456" opacity=".98" r="21.5" stroke-width="3.4"/>
        <circle cx="132.667" cy="311.456" opacity=".98" r="21.5" stroke-width="3.4"/>
        <circle cx="132.667" cy="399.456" opacity=".98" r="21.5" stroke-width="3.4"/>
    </g>
    <path d="m106.755 271.844 3.427 5.593 3.428 5.592H99.9l3.428-5.592zM106.618 374.565l3.428-5.593 3.428-5.592H99.763l3.427 5.592zM53.161 323.707l5.593 3.428 5.592 3.428v-13.711l-5.592 3.427zM160.346 323.707l-5.592 3.428-5.593 3.428v-13.711l5.593 3.427z" fill="#f4f4f4" opacity=".98"/>
    <g fill="none" stroke="#f4f4f4" transform="translate(-26.175 -32.12)">
        <rect height="33.056" opacity=".98" rx="3.866" stroke-width="3.4" width="31.585" x="149.142" y="450.141"/>
        <circle cx="165.038" cy="466.843" opacity=".98" r="11" stroke-width="1.7"/>
        <g transform="translate(1209.856 164.13)">
            <circle cx="132.795" cy="191.643" opacity=".98" r="45" stroke-width="3.4"/>
            <path d="M132.793 226.793v9.61m34.978-44.707h10.076m-80.244 0H87.83m44.966-34.99-.002-9.86m.002 9.86c-9.147 0-18.237 3.764-24.705 10.232-6.468 6.467-10.233 15.558-10.233 24.705 0 9.146 3.765 18.237 10.233 24.705 6.468 6.467 15.558 10.232 24.705 10.232s18.237-3.765 24.705-10.232c6.468-6.468 10.232-15.559 10.232-24.705s-3.764-18.238-10.232-24.705-15.558-10.233-24.705-10.233z" opacity=".98" stroke-width="1.7"/>
        </g>
        <g stroke-width="3.4">
            <path d="M1280.63 86.207a.884.884 0 0 0-.886.885v10.191h-10.19a.885.885 0 0 0-.886.887v4.129c0 .49.396.885.887.885h10.19v10.191c0 .49.395.887.886.887h4.129c.49 0 .887-.396.887-.887v-10.191h10.189c.49 0 .887-.394.887-.885v-4.13a.885.885 0 0 0-.887-.886h-10.19V87.092a.884.884 0 0 0-.886-.885z" opacity=".98"/>
            <circle cx="1295.996" cy="191.325" opacity=".98" r="21.5"/>
            <circle cx="1387.996" cy="191.325" opacity=".98" r="21.5"/>
            <circle cx="1341.996" cy="147.325" opacity=".98" r="21.5"/>
            <circle cx="1341.996" cy="235.325" opacity=".98" r="21.5"/>
            <circle cx="1309.934" cy="466.979" opacity=".98" r="24"/>
            <path d="M374.886 41.63v-5.078h48.897v4.918M435.427 41.537v-4.985h48.49v4.918M35.74 118.137l-7.404-3.982C36.154 85.937 82.5 34.761 135.185 34.333c20.766-1.007 31.556-1.057 47.464-.496v7.525M1436.345 118.137l7.404-3.982c-7.818-28.218-54.165-79.394-106.85-79.822l-47.464-.496v7.525" opacity=".98"/>
        </g>
    </g>
</svg>
