<svg version="1.2" baseProfile="tiny" xmlns="http://www.w3.org/2000/svg" width="598.189" height="350.26" xml:space="preserve">
    <path fill="#F4F4F4" d="M213.29 37.7c-.172 0-.176.019-.302.031-.125.013-.303.037-.513.061-.42.047-1.022.091-1.78.181-1.515.181-3.666.447-6.397.785-5.463.674-13.18 1.647-22.391 2.806a39719.07 39719.07 0 0 0-67.261 8.54c-24.409 3.117-48.809 6.233-67.202 8.63a5222.263 5222.263 0 0 0-22.33 2.958c-2.722.367-4.894.66-6.397.875-.756.108-1.335.206-1.754.272-.209.034-.383.067-.513.091-.064.012-.096.018-.15.03-.054.012-.076-.011-.242.06-4.717 2.012-8.027 6.72-8.027 12.161V286.71c0 7.279 5.913 13.189 13.187 13.189h554.386c7.274 0 13.219-5.914 13.219-13.187V75.183c0-5.224-3.064-9.757-7.484-11.889-.169-.082-.181-.075-.241-.09s-.144-.046-.211-.061c-.136-.027-.3-.055-.514-.09-.426-.071-1.021-.16-1.78-.271a773.361 773.361 0 0 0-6.431-.905c-5.477-.75-13.191-1.775-22.423-2.988-18.463-2.426-42.94-5.583-67.438-8.721-24.5-3.138-49.007-6.241-67.508-8.57-9.251-1.164-17.014-2.159-22.512-2.836-2.748-.339-4.928-.604-6.457-.785-.766-.091-1.354-.133-1.78-.181-.214-.024-.384-.048-.514-.061-.129-.013-.172-.03-.332-.03v1.931c-.102 0 .006-.011.121 0 .114.011.304.037.513.061.419.047.988.122 1.751.211 1.523.181 3.711.446 6.457.785 5.494.677 13.261 1.642 22.512 2.807 18.499 2.328 43.006 5.433 67.504 8.57 24.495 3.136 48.98 6.295 67.441 8.721 9.23 1.213 16.957 2.269 22.42 3.018 2.732.375 4.896.653 6.398.875.752.111 1.349.205 1.75.272.2.033.354.07.452.09.009.004.021-.003.029 0 .03.006.053.028.062.031 3.703 1.842 6.275 5.682 6.275 10.109v211.53c0 6.229-5.055 11.257-11.285 11.257H21.211a11.236 11.236 0 0 1-11.259-11.261V75.18c0-4.636 2.801-8.62 6.79-10.35.02-.004.027.006.06 0 .101-.019.252-.06.453-.091.401-.063 1.003-.134 1.75-.242 1.495-.213 3.648-.539 6.367-.905 5.437-.732 13.104-1.729 22.3-2.927 18.391-2.396 42.794-5.543 67.203-8.66 24.408-3.118 48.842-6.192 67.261-8.51 9.21-1.159 16.901-2.132 22.36-2.807 2.73-.337 4.918-.604 6.427-.785.755-.09 1.338-.165 1.75-.211.206-.023.372-.049.483-.061.112-.011.24 0 .121 0v-1.932l.013.001z"/>
    <path fill="#F4F4F4" d="M216.398 26.625c-1.261 0-2.336.589-2.957 1.448-.621.86-.845 1.931-.845 2.988v76.344c0 47.394 38.426 85.851 85.82 85.851 47.395 0 85.851-38.457 85.851-85.851V31.062c0-1.106-.23-2.189-.874-3.048-.647-.857-1.729-1.386-3.023-1.386H216.396l.002-.003zm0 1.932h163.975c.836 0 1.191.222 1.479.604.285.381.483 1.058.483 1.901v76.344c0 46.351-37.571 83.919-83.92 83.919-46.352 0-83.889-37.569-83.889-83.919V31.062c0-.759.184-1.457.483-1.871.299-.413.656-.632 1.391-.632l-.002-.002zM92.498 161.002c-4.331 0-8.55.531-12.583 1.509-19.22 4.655-34.366 19.741-39.107 38.926a53.223 53.223 0 0 0-1.54 12.795c0 4.242.479 8.385 1.418 12.343 4.597 19.377 19.782 34.651 39.108 39.378a53.423 53.423 0 0 0 12.704 1.509c4.318 0 8.532-.509 12.554-1.479 19.579-4.728 34.928-20.266 39.379-39.951a53.473 53.473 0 0 0 1.298-11.799c0-4.39-.537-8.652-1.539-12.735-4.708-19.173-19.782-34.252-38.958-38.957-4.079-1-8.35-1.539-12.735-1.54l.001.001zm0 1.932c4.229.001 8.322.515 12.252 1.478 18.474 4.533 33.032 19.067 37.568 37.54a51.443 51.443 0 0 1 1.479 12.281c0 3.906-.441 7.723-1.268 11.377-4.288 18.967-19.066 33.947-37.93 38.504a51.655 51.655 0 0 1-12.101 1.419c-4.217 0-8.301-.49-12.221-1.449-18.62-4.555-33.262-19.292-37.689-37.961a51.462 51.462 0 0 1-1.389-11.89c0-4.26.502-8.385 1.479-12.34 4.568-18.486 19.171-33.024 37.689-37.51a51.54 51.54 0 0 1 12.131-1.449z"/>
    <path fill="#F4F4F4" d="M92.498 161.002c-4.331 0-8.55.531-12.583 1.509h-.091c-.87.296-1.643.832-2.142 1.629-.5.798-.695 1.781-.695 2.988v29.24c0 .939-.162 1.525-.393 1.811-.229.285-.636.543-1.811.543h-29.39c-1.049 0-1.952.06-2.776.452-.824.396-1.426 1.173-1.78 2.175v.028l-.03.062a53.204 53.204 0 0 0-1.539 12.795c0 4.242.479 8.384 1.418 12.343h.03c.261 1.012.713 1.923 1.54 2.474.827.549 1.859.693 3.138.693h29.361c.937 0 1.441.18 1.72.453s.513.816.513 1.932v29.21c0 1.397.254 2.44.785 3.198.531.757 1.294 1.15 1.931 1.388h.061l.03.03a53.474 53.474 0 0 0 12.704 1.509c4.318 0 8.531-.508 12.553-1.479h.03c.789-.219 1.57-.688 2.112-1.479.542-.789.815-1.854.815-3.167V232.1c0-.899.223-1.449.543-1.781.32-.332.851-.573 1.871-.573h29.18c1.509 0 2.656-.388 3.44-1.115.784-.729 1.158-1.668 1.388-2.565v-.029a53.473 53.473 0 0 0 1.297-11.799c0-4.389-.536-8.653-1.539-12.735v-.03c-.271-.988-.768-1.824-1.6-2.263-.831-.438-1.761-.483-2.987-.483h-29.15c-1.145 0-1.681-.248-1.961-.543-.281-.295-.483-.834-.483-1.811v-29.239c0-1.164-.073-2.105-.513-2.928-.441-.823-1.271-1.381-2.233-1.659h-.03a53.414 53.414 0 0 0-12.735-1.54l.001-.005zm0 1.932c4.219 0 8.301.518 12.222 1.478.009.002.021-.002.03 0 .628.187.848.362 1.026.694.182.34.302.987.302 2.022v29.24c0 1.217.225 2.357.996 3.169.771.81 1.956 1.116 3.38 1.116h29.15c1.144 0 1.797.121 2.082.271.279.146.436.316.634 1.026.002.009-.002.02 0 .029a51.614 51.614 0 0 1 .211 23.629c-.19.726-.421 1.261-.784 1.599-.372.346-.949.604-2.143.604h-29.18c-1.349 0-2.489.377-3.259 1.177-.771.799-1.086 1.903-1.086 3.108v29.24c0 1.038-.216 1.693-.482 2.08-.268.389-.607.57-1.057.693a51.47 51.47 0 0 1-12.041 1.42c-4.184 0-8.237-.475-12.13-1.42-.016-.006-.013-.022-.03-.028-.448-.172-.739-.342-.965-.664-.234-.334-.453-.929-.453-2.081v-29.211c0-1.389-.302-2.52-1.086-3.29-.785-.769-1.889-1.024-3.078-1.024H45.394c-1.101 0-1.712-.168-2.052-.393-.338-.229-.556-.529-.754-1.298a51.462 51.462 0 0 1-1.389-11.89c0-4.228.486-8.322 1.449-12.252h.03c.251-.711.445-.924.785-1.086.339-.162.964-.242 1.931-.242h29.392c1.482 0 2.629-.379 3.32-1.236.689-.857.814-1.948.814-3.048v-29.24c0-.992.158-1.586.393-1.962.227-.362.557-.586 1.116-.785.018-.005.012-.023.03-.03a51.619 51.619 0 0 1 12.039-1.415z"/>
    <path fill="#F4F4F4" d="M92.498 199.841c-7.934 0-14.393 6.459-14.393 14.393 0 7.936 6.459 14.395 14.393 14.395 7.935 0 14.394-6.46 14.394-14.395s-6.46-14.393-14.394-14.393zm0 1.93a12.452 12.452 0 0 1 12.463 12.463c0 6.891-5.572 12.461-12.463 12.461-6.89 0-12.462-5.57-12.462-12.461a12.452 12.452 0 0 1 12.462-12.463z"/>
    <path fill="#F4F4F4" d="M61.658 82.873c-7.274 0-13.188 5.913-13.188 13.187v56.188c0 3.152.652 5.452 1.75 7.091 1.099 1.638 2.657 2.532 4.255 2.897 3.186.727 6.448-.42 8.178-1.479.008-.005.022.005.03 0a60.88 60.88 0 0 1 29.814-7.755c33.825 0 61.227 27.401 61.227 61.226 0 20.45-10.012 38.551-25.408 49.67l-.091.061-.06.092-1.811 2.021-.061.061a10.287 10.287 0 0 0-2.957 7.212c0 5.66 4.601 10.261 10.259 10.261h372.791c25.572 0 46.319-20.748 46.319-46.32 0-9.213-2.69-17.801-7.332-25.016-.006-.011.006-.021 0-.029-.447-.754-.634-.952-.634-2.958V96.061c0-7.274-5.914-13.187-13.188-13.187H420.113c-4.325 0-7.789 1.727-10.081 4.497-2.289 2.77-3.439 6.53-3.439 10.651v8.872c0 59.757-48.423 108.15-108.18 108.15-59.756 0-108.179-48.394-108.179-108.15v-8.872c0-4.372-.792-8.106-2.776-10.833-1.989-2.721-5.185-4.31-9.482-4.31H61.646l.012-.006zm0 1.931h116.329c3.852 0 6.311 1.266 7.937 3.5 1.626 2.235 2.384 5.583 2.384 9.716v8.872c0 60.8 49.312 110.082 110.11 110.082 60.8 0 110.111-49.282 110.111-110.082V98.02c0-3.764 1.047-7.098 2.986-9.445 1.941-2.342 4.779-3.767 8.604-3.767h111.442a11.239 11.239 0 0 1 11.256 11.255v113.22c0 2.224.438 3.192.904 3.983h.03v.029c4.456 6.92 7.031 15.143 7.031 23.989 0 24.528-19.859 44.39-44.39 44.39H133.604a8.31 8.31 0 0 1-8.329-8.328c0-2.308.935-4.373 2.444-5.885l.03-.029v-.031l1.69-1.932c.022-.016.037-.044.06-.06 15.841-11.474 26.163-30.128 26.163-51.179 0-34.869-28.29-63.158-63.158-63.158a62.945 62.945 0 0 0-30.809 8.027h-.03c-1.27.781-4.339 1.82-6.76 1.268-1.21-.276-2.257-.888-3.078-2.112-.821-1.225-1.418-3.111-1.418-6.005V96.065a11.228 11.228 0 0 1 11.25-11.252l-.001-.009z"/>
    <path fill="#F4F4F4" d="M442.028 209.824c-16.033 0-29.061 13.026-29.061 29.061 0 16.031 13.026 29.06 29.061 29.06 16.03 0 29.026-13.027 29.026-29.06.002-16.032-12.993-29.061-29.026-29.061zm0 1.932c14.987 0 27.097 12.14 27.097 27.129 0 14.987-12.11 27.128-27.097 27.128-14.99 0-27.128-12.141-27.128-27.128 0-14.989 12.138-27.129 27.128-27.129z"/>
    <path fill="#F4F4F4" d="M442.028 214.257c-13.587 0-24.623 11.038-24.623 24.624 0 13.585 11.036 24.622 24.623 24.622 13.585 0 24.622-11.037 24.622-24.622 0-13.586-11.037-24.624-24.622-24.624zm0 1.931c12.54 0 22.689 10.149 22.689 22.691 0 12.541-10.149 22.691-22.689 22.691-12.542 0-22.692-10.15-22.692-22.691s10.15-22.691 22.692-22.691z"/>
    <path fill="#F4F4F4" d="M442.028 202.312c-20.189 0-36.574 16.385-36.574 36.573 0 20.19 16.385 36.573 36.574 36.573h67.684c20.189 0 36.573-16.383 36.573-36.573 0-20.188-16.384-36.573-36.573-36.573h-67.684zm0 1.931h67.684c19.146 0 34.642 15.494 34.642 34.642s-15.494 34.642-34.642 34.642h-67.684c-19.146 0-34.643-15.493-34.643-34.642.002-19.147 15.497-34.642 34.643-34.642z"/>
    <path fill="#F4F4F4" d="M509.708 209.824c-16.031 0-29.06 13.026-29.06 29.061 0 16.031 13.027 29.06 29.06 29.06s29.029-13.027 29.029-29.06-12.997-29.061-29.029-29.061zm0 1.932c14.989 0 27.098 12.14 27.098 27.129 0 14.987-12.109 27.128-27.098 27.128s-27.129-12.141-27.129-27.128c0-14.989 12.141-27.129 27.129-27.129z"/>
    <path fill="#F4F4F4" d="M509.708 214.257c-13.586 0-24.624 11.038-24.624 24.624 0 13.585 11.038 24.622 24.624 24.622s24.624-11.037 24.624-24.622c0-13.586-11.038-24.624-24.624-24.624zm0 1.931c12.541 0 22.692 10.149 22.692 22.691 0 12.541-10.151 22.691-22.692 22.691s-22.693-10.15-22.693-22.691 10.152-22.691 22.693-22.691zM251.287 229.522c-4.974 0-9.022 4.078-9.022 9.054 0 4.975 4.049 9.022 9.022 9.022h25.167c4.974 0 9.022-4.05 9.022-9.022 0-4.976-4.048-9.054-9.022-9.054h-25.167zm0 1.932h25.167c3.93 0 7.091 3.189 7.091 7.122a7.073 7.073 0 0 1-7.091 7.091h-25.167c-3.93 0-7.092-3.16-7.092-7.091s3.161-7.122 7.092-7.122z"/>
    <path fill="#F4F4F4" d="M251.287 224.492c-7.763 0-14.061 6.33-14.061 14.093 0 7.762 6.298 14.063 14.061 14.063h25.167c7.763 0 14.092-6.301 14.092-14.063 0-7.763-6.329-14.093-14.092-14.093h-25.167zm0 1.932h25.167c6.719 0 12.161 5.441 12.161 12.161 0 6.719-5.442 12.13-12.161 12.13h-25.167c-6.72 0-12.13-5.412-12.13-12.13 0-6.72 5.411-12.161 12.13-12.161zM320.928 229.522c-4.974 0-9.021 4.078-9.021 9.054 0 4.975 4.049 9.022 9.021 9.022h25.167c4.976 0 9.023-4.05 9.023-9.022 0-4.976-4.049-9.054-9.023-9.054h-25.167zm0 1.932h25.167c3.929 0 7.093 3.191 7.093 7.122a7.074 7.074 0 0 1-7.093 7.091h-25.167c-3.929 0-7.091-3.16-7.091-7.091s3.162-7.122 7.091-7.122z"/>
    <path fill="#F4F4F4" d="M320.928 224.492c-7.763 0-14.092 6.33-14.092 14.093 0 7.762 6.329 14.063 14.092 14.063h25.167c7.765 0 14.062-6.301 14.062-14.063 0-7.763-6.297-14.093-14.062-14.093h-25.167zm0 1.932h25.167c6.722 0 12.13 5.441 12.13 12.161 0 6.719-5.408 12.13-12.13 12.13h-25.167c-6.72 0-12.16-5.412-12.16-12.13 0-6.72 5.44-12.161 12.16-12.161zM92.498 137.248a76.682 76.682 0 0 0-37.388 9.687l-2.776 1.539-.845.483.453.845 3.108 5.552.483.845.845-.453 2.776-1.569c9.876-5.495 21.229-8.6 33.344-8.6 18.979.001 36.115 7.664 48.553 20.097 12.434 12.437 20.126 29.573 20.127 48.552-.002 21.893-10.248 41.368-26.192 53.955l-2.505 1.963-.754.604.604.754 3.953 5.01.604.754.754-.604 2.505-1.961c17.857-14.087 29.332-35.967 29.331-60.475-.003-42.502-34.477-76.977-76.98-76.978zm0 1.931c41.461.002 75.046 33.587 75.048 75.046.001 23.904-11.197 45.229-28.607 58.965l-1.75 1.356-2.746-3.5 1.75-1.358c16.389-12.938 26.915-32.972 26.917-55.463-.001-19.502-7.921-37.129-20.702-49.913-12.785-12.778-30.412-20.668-49.911-20.669-12.449 0-24.126 3.223-34.28 8.872l-1.931 1.086-2.173-3.893 1.932-1.086a74.76 74.76 0 0 1 36.453-9.443zM433.089 144.588v-27.375a8.937 8.937 0 0 1 8.938-8.937 8.935 8.935 0 0 1 8.937 8.937v27.375h.002a8.939 8.939 0 1 1-17.877 0zm1.999-27.375.002 27.375a6.945 6.945 0 0 0 6.938 6.937 6.945 6.945 0 0 0 6.938-6.937v-27.375a6.949 6.949 0 0 0-6.938-6.938 6.95 6.95 0 0 0-6.94 6.938z"/>
    <path fill="#F4F4F4" d="M436.026 130.902a6.005 6.005 0 0 1 6.001-6.001 6.005 6.005 0 0 1 6.001 6.001 6.002 6.002 0 0 1-12.002 0zm2.001 0a4.005 4.005 0 0 0 4 4 4.005 4.005 0 0 0 4-4 4.004 4.004 0 0 0-4-4 4.003 4.003 0 0 0-4 4zM500.771 144.588l-.002-27.374a8.942 8.942 0 0 1 8.939-8.94 8.938 8.938 0 0 1 8.936 8.94v27.374h.002a8.938 8.938 0 0 1-8.938 8.938c-4.937 0-8.937-4-8.937-8.938zm1.999-27.374v27.374a6.947 6.947 0 0 0 6.938 6.938 6.948 6.948 0 0 0 6.937-6.938v-27.374a6.945 6.945 0 0 0-6.937-6.938 6.945 6.945 0 0 0-6.938 6.938z"/>
    <path fill="#F4F4F4" d="M503.706 130.9a6.002 6.002 0 0 1 12.002 0 6.002 6.002 0 0 1-6.001 6 6.003 6.003 0 0 1-6.001-6zm2.002 0a4.006 4.006 0 0 0 3.999 4.001 4.004 4.004 0 0 0 3.999-4.001 4.004 4.004 0 0 0-3.999-4 4.006 4.006 0 0 0-3.999 4z"/>
</svg>
