<svg height="363.084" viewBox="0 0 266.712 167.019" width="579.808" xmlns="http://www.w3.org/2000/svg">
    <g fill="#f4f4f4" fill-opacity=".5" stroke-width=".46">
        <path d="M105.435 35.925q0 .11-.026.185-.04.113-.127.113-.058 0-.122-.027-.076-.032-.083-.08.025 0 .06.01.081.021.102.021.078 0 .117-.078.032-.063.032-.15 0-.062-.04-.176-.04-.115-.04-.16 0-.014.007-.022.008-.009.022-.009.036 0 .07.166.028.14.028.207zM105.79 36.018q0 .094-.055.148-.054.053-.15.053-.052 0-.08-.025-.03-.025-.03-.076 0-.073.096-.147.09-.07.166-.07.035 0 .046.044.006.025.006.073zm-.056.026q0-.01-.003-.021-.002-.011-.007-.025-.015.01-.05.05-.017.02-.03.03 0-.018.004-.03l.012-.026q-.04 0-.084.034-.043.034-.043.074 0 .026.029.026.056 0 .109-.027.063-.033.063-.085zM106.169 36.056q0 .045-.034.101-.039.064-.08.064-.012 0-.02-.013-.007-.014-.007-.027 0-.016.035-.051.035-.036.035-.049 0-.008-.003-.017l-.004-.01q-.069.015-.14.078-.071.064-.108.072-.007-.02-.007-.041 0-.026.012-.054.008-.02.028-.05.032-.048.068-.11l.063-.11q.046-.08.067-.113.011-.017.02-.025.012-.011.028-.015.011.004.016.014.006.01.006.024 0 .031-.04.085l-.076.099q-.041.063-.041.113l.002.01.06-.03q.037-.015.064-.015.03 0 .043.02.014.02.014.05zM106.596 36.002q0 .062-.03.133-.034.078-.083.108-.01-.012-.017-.027-.006-.015-.006-.03t.046-.092q.02-.034.018-.06v-.012q-.035.01-.118.062l-.168.103q-.013 0-.024-.01-.01-.01-.01-.022 0-.019.062-.13l.066-.114q.015.02.02.043.004.023.004.055v.021q.085-.05.133-.076.052-.029.071-.029.013 0 .024.03.012.03.012.047zM107.395 36.18q0 .017-.015.026-.013.008-.03.008t-.04-.003q-.055-.009-.07-.009-.028 0-.109.007l-.066.003q-.056 0-.056-.056 0-.053.035-.152.019-.056.072-.184.048-.115.061-.162l.007-.02q.007-.01.019-.01.017 0 .029.025t.012.045q0 .032-.038.109l-.073.148q-.04.086-.04.131 0 .023.02.033.013.006.04.006.02 0 .07-.005t.066-.005q.041 0 .068.012.038.016.038.053zM107.737 36.018q0 .094-.054.148-.054.053-.15.053-.052 0-.08-.025-.03-.025-.03-.076 0-.073.095-.147.09-.07.167-.07.035 0 .046.044.006.025.006.073zm-.056.026q0-.01-.003-.021-.002-.011-.007-.025-.014.01-.049.05-.017.02-.03.03 0-.018.004-.03l.012-.026q-.04 0-.085.034-.043.034-.043.074 0 .026.03.026.056 0 .108-.027.064-.033.064-.085zM108.125 36q0 .029-.016.062-.015.033-.038.055v-.013l.002-.034.003-.034q0-.016-.005-.023-.005-.008-.019-.008-.043 0-.108.067l-.138.146h-.011l-.019-.006q.003-.033.023-.073.054-.11.056-.117l.011-.043.01-.029q.007-.015.017-.027.01-.013.026-.02l.009.11q.04-.031.06-.049.041-.032.07-.032.03 0 .048.02.019.019.019.047zM108.576 35.892q0 .039-.103.102-.1.061-.144.061-.021 0-.029-.015-.006-.014-.006-.04v-.026q.062 0 .113-.018.05-.019.088-.06-.028-.011-.056-.011-.067 0-.143.052-.083.056-.083.12 0 .06.083.084l.156.026q.083.012.083.045 0 .013-.03.022t-.077.009q-.118 0-.186-.036-.09-.048-.09-.154 0-.11.11-.175.094-.056.214-.056.035 0 .065.017.036.02.036.053zM108.943 35.728q0 .02-.05.084-.048.065-.048.099 0 .017.02.035.046.04.046.05 0 .011-.008.022-.007.011-.02.011-.01 0-.028-.01-.013-.008-.05-.036l-.02.04-.036.07-.027.085q-.024.058-.06.058v-.022q0-.065.041-.154l.046-.086q-.072-.04-.16-.04 0-.033.014-.049.015-.017.049-.017.031 0 .078.011l.046.012q.018-.006.048-.06.074-.13.101-.15l.012.024q.006.012.006.023zM109.282 36.056q0 .045-.034.101-.039.064-.08.064-.012 0-.02-.013-.007-.014-.007-.027 0-.016.035-.051.036-.036.036-.049 0-.008-.003-.017l-.004-.01q-.07.015-.141.078-.07.064-.108.072-.007-.02-.007-.041 0-.026.012-.054.008-.02.028-.05.032-.048.068-.11l.064-.11q.046-.08.067-.113.01-.017.019-.025.012-.011.029-.015.01.004.015.014.006.01.006.024 0 .031-.04.085l-.076.099q-.041.063-.041.113l.002.01.06-.03q.037-.015.064-.015.03 0 .043.02.014.02.014.05zM110.037 35.756q0 .043-.046.116-.03.046-.096.133-.067.085-.084.112l.069.022q.067.02.067.074l-.054.008-.01-.001v-.007q-.015-.004-.024-.004-.018 0-.055.005-.038.006-.057.006-.025 0-.04-.01-.016-.009-.016-.033 0-.019.07-.109l.134-.17q.072-.098.072-.13 0-.014-.01-.02-.007-.007-.033-.007-.018 0-.073.034-.027.017-.043.017l-.016-.003q-.006-.003-.012-.014-.006-.01-.006-.017 0-.039.075-.07.063-.028.11-.028.04 0 .06.029.02.026.02.067zM110.59 35.922q0 .111-.12.197-.11.078-.228.078-.058 0-.092-.03-.034-.029-.034-.085 0-.125.11-.217.104-.088.233-.088.065 0 .098.039t.033.106zm-.056.021q0-.042-.048-.064-.036-.015-.085-.015-.073 0-.152.07-.08.072-.08.143 0 .03.016.043.015.012.046.012.09 0 .188-.05.115-.059.115-.139zM111.012 35.756q0 .043-.046.116-.03.046-.097.133-.067.085-.084.112l.07.022q.067.02.067.074l-.055.008-.01-.001v-.007q-.015-.004-.024-.004-.017 0-.055.005-.038.006-.057.006-.025 0-.04-.01-.016-.009-.016-.033 0-.019.07-.109l.134-.17q.072-.098.072-.13 0-.014-.01-.02-.007-.007-.033-.007-.018 0-.073.034-.026.017-.043.017l-.016-.003q-.006-.003-.012-.014-.006-.01-.006-.017 0-.039.075-.07.063-.028.11-.028.04 0 .061.029.018.026.018.067zM111.435 35.756q0 .043-.046.116-.03.046-.097.133-.067.085-.083.112l.069.022q.067.02.067.074l-.055.008-.01-.001v-.007q-.014-.004-.024-.004-.017 0-.055.005-.037.006-.057.006-.025 0-.04-.01-.016-.009-.016-.033 0-.019.07-.109l.134-.17q.072-.098.072-.13 0-.014-.009-.02-.008-.007-.034-.007-.017 0-.073.034-.026.017-.043.017l-.015-.003q-.006-.003-.012-.014-.006-.01-.006-.017 0-.039.074-.07.064-.028.11-.028.04 0 .061.029.019.026.019.067z"/>
    </g>
    <g fill="none" stroke="#f4f4f4">
        <g transform="translate(-.063 -1.959)">
            <path d="M133.216 2.459H7.996c-2.41 0-4.144 1.95-4.351 4.351-4.474 51.854-3.084 104.421 1 157.316.186 2.403 1.94 4.351 4.351 4.351h124.227M133.215 2.46h125.22c2.41 0 4.144 1.95 4.351 4.351 4.474 51.854 3.084 104.421-1 157.316-.186 2.403-1.94 4.351-4.351 4.351H133.208" opacity=".98" stroke-width=".92"/>
            <path d="M4.222 155.852h258.05M.956 59.015H265.36" opacity=".98" stroke-width=".23"/>
            <path d="M263.08 10.53H99.863c-.643 0-1.16-.518-1.16-1.161V8.14c0-.643.517-1.16 1.16-1.16H262.8m.821 10.55H99.861c-.642 0-1.16-.518-1.16-1.161V15.14c0-.643.518-1.16 1.16-1.16h163.492m.733 10.629H99.862c-.643 0-1.16-.518-1.16-1.16v-1.23c0-.642.517-1.16 1.16-1.16h163.991m.952 17.55H99.862c-.643 0-1.16-.518-1.16-1.16v-1.23c0-.642.517-1.16 1.16-1.16h164.79m-.184-3.53H99.862c-.643 0-1.16-.517-1.16-1.16V29.14c0-.643.517-1.16 1.16-1.16h164.421M3.632 6.98H16.65c.643 0 1.16.517 1.16 1.16V9.37c0 .643-.517 1.16-1.16 1.16H3.35m-.273 3.45H16.65c.643 0 1.16.518 1.16 1.161v1.229c0 .643-.517 1.16-1.16 1.16H2.81m-.232 3.53H16.65c.643 0 1.16.518 1.16 1.16v1.23c0 .642-.517 1.16-1.16 1.16H2.346m-.198 3.37H16.65c.643 0 1.16.518 1.16 1.161v1.229c0 .643-.517 1.16-1.16 1.16H1.962m-.184 3.53h14.909c.643 0 1.16.518 1.16 1.16v1.23c0 .642-.517 1.16-1.16 1.16H1.625" stroke-linecap="square" stroke-linejoin="round" stroke-width=".45678"/>
            <rect height="23.604" opacity=".98" rx=".25" stroke-width=".46" width="51.034" x="36.411" y="16.886"/>
            <path d="M36.367 28.702H87.55" opacity=".98" stroke-width=".23"/>
            <rect height="3.145" opacity=".98" rx=".25" stroke-width=".92" width="8.443" x="20.441" y="36.983"/>
        </g>
        <g stroke-width=".92">
            <rect height="10.78" opacity=".98" rx="1.71" width="56.424" x="93.45" y="132.771"/>
            <rect height="10.78" opacity=".98" rx="1.71" width="10.757" x="146.874" y="117.771"/>
            <rect height="10.78" opacity=".98" rx="1.71" width="10.757" x="131.874" y="117.771"/>
            <rect height="10.78" opacity=".98" rx="1.71" width="10.757" x="116.874" y="117.771"/>
            <rect height="10.78" opacity=".98" rx="1.71" width="10.757" x="101.874" y="117.771"/>
            <rect height="10.78" opacity=".98" rx="1.71" width="10.757" x="86.874" y="117.771"/>
            <rect height="10.78" opacity=".98" rx="1.71" width="10.757" x="71.874" y="117.771"/>
            <rect height="10.78" opacity=".98" rx="1.71" width="10.757" x="56.874" y="117.771"/>
            <rect height="10.78" opacity=".98" rx="1.71" width="25.757" x="19.322" y="117.771"/>
            <rect height="10.78" opacity=".98" rx="1.71" width="25.757" x="191.874" y="117.771"/>
            <rect height="10.78" opacity=".98" rx="1.71" width="10.757" x="176.874" y="117.771"/>
            <rect height="10.78" opacity=".98" rx="1.71" width="10.757" x="161.874" y="117.771"/>
            <rect height="10.78" opacity=".98" rx="1.71" width="10.757" x="139.322" y="102.771"/>
            <rect height="10.78" opacity=".98" rx="1.71" width="10.757" x="124.322" y="102.771"/>
            <rect height="10.78" opacity=".98" rx="1.71" width="10.757" x="109.322" y="102.771"/>
            <rect height="10.78" opacity=".98" rx="1.71" width="10.757" x="94.322" y="102.771"/>
            <rect height="10.78" opacity=".98" rx="1.71" width="10.757" x="79.322" y="102.771"/>
            <rect height="10.78" opacity=".98" rx="1.71" width="10.757" x="64.322" y="102.771"/>
            <rect height="10.78" opacity=".98" rx="1.71" width="10.757" x="49.322" y="102.771"/>
            <rect height="10.78" opacity=".98" rx="1.71" width="10.757" x="34.322" y="102.771"/>
            <rect height="10.78" opacity=".98" rx="1.71" width="10.757" x="19.322" y="102.771"/>
            <rect height="10.78" opacity=".98" rx="1.71" width="10.757" x="184.322" y="102.771"/>
            <rect height="10.78" opacity=".98" rx="1.71" width="10.757" x="169.322" y="102.771"/>
            <rect height="10.78" opacity=".98" rx="1.71" width="10.757" x="154.322" y="102.771"/>
            <rect height="10.78" opacity=".98" rx="1.71" width="18.308" x="199.322" y="102.771"/>
            <rect height="10.78" opacity=".98" rx="1.71" width="10.757" x="146.814" y="87.771"/>
            <rect height="10.78" opacity=".98" rx="1.71" width="10.757" x="131.814" y="87.771"/>
            <rect height="10.78" opacity=".98" rx="1.71" width="10.757" x="116.814" y="87.771"/>
            <rect height="10.78" opacity=".98" rx="1.71" width="10.757" x="101.814" y="87.771"/>
            <rect height="10.78" opacity=".98" rx="1.71" width="10.757" x="86.814" y="87.771"/>
            <rect height="10.78" opacity=".98" rx="1.71" width="10.757" x="71.814" y="87.771"/>
            <rect height="10.78" opacity=".98" rx="1.71" width="10.757" x="56.814" y="87.771"/>
            <rect height="10.78" opacity=".98" rx="1.71" width="10.757" x="41.814" y="87.771"/>
            <rect height="10.78" opacity=".98" rx="1.71" width="10.757" x="19.322" y="87.771"/>
            <rect height="10.78" opacity=".98" rx="1.71" width="10.757" x="191.814" y="87.771"/>
            <rect height="10.78" opacity=".98" rx="1.71" width="10.757" x="176.814" y="87.771"/>
            <rect height="10.78" opacity=".98" rx="1.71" width="10.757" x="161.814" y="87.771"/>
            <rect height="10.78" opacity=".98" rx="1.71" width="10.757" x="206.814" y="87.771"/>
            <rect height="10.78" opacity=".98" rx="1.71" width="10.757" x="154.268" y="72.771"/>
            <rect height="10.78" opacity=".98" rx="1.71" width="10.757" x="139.268" y="72.771"/>
            <rect height="10.78" opacity=".98" rx="1.71" width="10.757" x="124.268" y="72.771"/>
            <rect height="10.78" opacity=".98" rx="1.71" width="10.757" x="109.268" y="72.771"/>
            <rect height="10.78" opacity=".98" rx="1.71" width="10.757" x="94.268" y="72.771"/>
            <rect height="10.78" opacity=".98" rx="1.71" width="10.757" x="79.268" y="72.771"/>
            <rect height="10.78" opacity=".98" rx="1.71" width="10.757" x="64.268" y="72.771"/>
            <rect height="10.78" opacity=".98" rx="1.71" width="10.757" x="49.268" y="72.771"/>
            <rect height="10.78" opacity=".98" rx="1.71" width="10.757" x="199.268" y="72.771"/>
            <rect height="10.78" opacity=".98" rx="1.71" width="10.757" x="184.268" y="72.771"/>
            <rect height="10.78" opacity=".98" rx="1.71" width="10.757" x="169.268" y="72.771"/>
            <rect height="10.78" opacity=".98" rx="1.71" width="10.757" x="214.268" y="72.771"/>
            <rect height="10.78" opacity=".98" rx="1.71" width="10.757" x="34.268" y="72.771"/>
            <rect height="10.78" opacity=".98" rx="1.71" width="10.757" x="19.268" y="72.771"/>
            <rect height="10.78" opacity=".98" rx="1.71" width="10.757" x="229.268" y="72.771"/>
            <rect height="10.78" opacity=".98" rx="1.71" width="10.757" x="221.814" y="87.771"/>
            <rect height="10.78" opacity=".98" rx="1.71" width="10.757" x="236.814" y="87.771"/>
            <rect height="10.78" opacity=".98" rx="1.71" width="10.757" x="229.268" y="102.771"/>
            <rect height="10.78" opacity=".98" rx="1.71" width="10.757" x="221.814" y="117.771"/>
            <rect height="10.78" opacity=".98" rx="1.71" width="10.757" x="236.814" y="117.771"/>
        </g>
    </g>
</svg>
