<svg xmlns="http://www.w3.org/2000/svg" width="598.191" height="350.257" xml:space="preserve">
    <switch>
        <g fill="#F4F4F4">
            <path d="M90.916 323.569a7.529 7.529 0 0 1-7.528-7.525V186.645a7.53 7.53 0 0 1 7.528-7.528h268.12a7.527 7.527 0 0 1 7.528 7.528v129.398a7.526 7.526 0 0 1-7.528 7.525H90.916v.001zm-5.528-136.924v129.398a5.533 5.533 0 0 0 5.527 5.524h268.12a5.531 5.531 0 0 0 5.527-5.524V186.645a5.53 5.53 0 0 0-5.527-5.527l-268.12-.002a5.536 5.536 0 0 0-5.527 5.529z"/>
            <path d="M97.356 312.147a3.8 3.8 0 0 1-3.798-3.796v-16.556a3.801 3.801 0 0 1 3.798-3.8h16.555a3.8 3.8 0 0 1 3.798 3.8v16.556c0 2.095-1.7 3.794-3.798 3.796H97.356zm-1.795-20.352-.002 16.556a1.8 1.8 0 0 0 1.797 1.794h16.555c.993 0 1.795-.805 1.797-1.794v-16.556a1.797 1.797 0 0 0-1.797-1.798H97.356a1.798 1.798 0 0 0-1.795 1.798zM97.357 287.27a3.8 3.8 0 0 1-3.797-3.799v-16.553c0-2.099 1.7-3.799 3.797-3.799h16.555c2.097 0 3.797 1.7 3.797 3.799v16.553a3.799 3.799 0 0 1-3.797 3.799H97.357zm-1.796-20.352v16.553a1.8 1.8 0 0 0 1.796 1.797h16.555c.992 0 1.796-.805 1.796-1.797l.002-16.553a1.798 1.798 0 0 0-1.798-1.798H97.357a1.798 1.798 0 0 0-1.796 1.798z"/>
            <path d="M121.212 287.268a3.796 3.796 0 0 1-3.799-3.797v-16.553a3.799 3.799 0 0 1 3.799-3.799h16.55c2.099 0 3.799 1.7 3.799 3.799v16.553a3.801 3.801 0 0 1-3.799 3.799l-16.55-.002zm-1.799-20.35v16.553a1.8 1.8 0 0 0 1.799 1.797h16.55c.994 0 1.799-.805 1.799-1.797v-16.553c0-.994-.805-1.798-1.799-1.798h-16.55a1.798 1.798 0 0 0-1.799 1.798z"/>
            <path d="M144.917 287.268a3.796 3.796 0 0 1-3.797-3.797v-16.553a3.798 3.798 0 0 1 3.797-3.799h16.555a3.796 3.796 0 0 1 3.797 3.799v16.553a3.8 3.8 0 0 1-3.797 3.799l-16.555-.002zm-1.797-20.35v16.553c0 .992.805 1.797 1.796 1.797h16.555c.99 0 1.796-.805 1.796-1.797l.002-16.553a1.801 1.801 0 0 0-1.799-1.798h-16.555a1.797 1.797 0 0 0-1.795 1.798z"/>
            <path d="M168.77 287.268a3.796 3.796 0 0 1-3.797-3.797v-16.553a3.796 3.796 0 0 1 3.797-3.799h16.553a3.797 3.797 0 0 1 3.799 3.799v16.553a3.8 3.8 0 0 1-3.799 3.799l-16.553-.002zm-1.799-20.35v16.553a1.8 1.8 0 0 0 1.799 1.797h16.553a1.8 1.8 0 0 0 1.798-1.797v-16.553a1.8 1.8 0 0 0-1.798-1.798H168.77a1.8 1.8 0 0 0-1.799 1.798z"/>
            <path d="M192.476 287.27a3.801 3.801 0 0 1-3.799-3.799v-16.553a3.799 3.799 0 0 1 3.799-3.799h16.553c2.097 0 3.797 1.7 3.797 3.799v16.553a3.799 3.799 0 0 1-3.797 3.799h-16.553zm-1.798-20.352v16.553a1.8 1.8 0 0 0 1.798 1.797h16.553c.992 0 1.796-.805 1.799-1.797v-16.553a1.799 1.799 0 0 0-1.799-1.798h-16.553a1.799 1.799 0 0 0-1.798 1.798z"/>
            <path d="M216.329 287.27a3.8 3.8 0 0 1-3.799-3.799v-16.553a3.799 3.799 0 0 1 3.799-3.799h16.553c2.096 0 3.797 1.7 3.797 3.799v16.553a3.799 3.799 0 0 1-3.797 3.799h-16.553zm-1.798-20.352v16.553c0 .992.804 1.797 1.798 1.797h16.553c.992 0 1.794-.805 1.796-1.797v-16.553a1.798 1.798 0 0 0-1.796-1.798h-16.553a1.797 1.797 0 0 0-1.798 1.798z"/>
            <path d="M240.034 287.27a3.8 3.8 0 0 1-3.797-3.799v-16.553a3.798 3.798 0 0 1 3.797-3.799h16.555c2.096 0 3.797 1.7 3.797 3.799v16.553a3.8 3.8 0 0 1-3.797 3.799h-16.555zm-1.797-20.352v16.553c0 .992.805 1.797 1.796 1.797l16.555.002a1.801 1.801 0 0 0 1.796-1.799v-16.553c0-.994-.805-1.798-1.796-1.798h-16.555a1.798 1.798 0 0 0-1.796 1.798z"/>
            <path d="M263.887 287.268a3.796 3.796 0 0 1-3.797-3.797v-16.553a3.796 3.796 0 0 1 3.797-3.799h16.553c2.099 0 3.799 1.7 3.799 3.799v16.553a3.8 3.8 0 0 1-3.799 3.799l-16.553-.002zm-1.797-20.35v16.553c0 .992.804 1.797 1.796 1.797l16.553.002a1.803 1.803 0 0 0 1.798-1.799v-16.553a1.798 1.798 0 0 0-1.798-1.798h-16.553a1.798 1.798 0 0 0-1.796 1.798z"/>
            <path d="M287.594 287.268a3.797 3.797 0 0 1-3.799-3.797v-16.553a3.8 3.8 0 0 1 3.799-3.799h16.553c2.096 0 3.797 1.7 3.797 3.799v16.553a3.8 3.8 0 0 1-3.797 3.799l-16.553-.002zm-1.799-20.35v16.553a1.8 1.8 0 0 0 1.799 1.797l16.553.002a1.8 1.8 0 0 0 1.796-1.799l.002-16.553a1.8 1.8 0 0 0-1.798-1.798h-16.553a1.8 1.8 0 0 0-1.799 1.798z"/>
            <path d="M311.444 287.27a3.8 3.8 0 0 1-3.797-3.799v-16.553c0-2.099 1.7-3.799 3.797-3.799h16.553c2.099 0 3.799 1.7 3.799 3.799v16.553a3.8 3.8 0 0 1-3.799 3.799h-16.553zm-1.797-20.352v16.553a1.8 1.8 0 0 0 1.797 1.797l16.553.002a1.8 1.8 0 0 0 1.798-1.799l.002-16.553a1.8 1.8 0 0 0-1.8-1.798h-16.553a1.8 1.8 0 0 0-1.797 1.798zM104.483 263.265a3.794 3.794 0 0 1-3.798-3.794v-16.555a3.8 3.8 0 0 1 3.798-3.801h16.553a3.8 3.8 0 0 1 3.796 3.801v16.555h.002a3.796 3.796 0 0 1-3.798 3.794h-16.553zm-1.8-20.348v16.555a1.799 1.799 0 0 0 1.8 1.796h16.553a1.8 1.8 0 0 0 1.797-1.796v-16.555a1.802 1.802 0 0 0-1.797-1.8h-16.553a1.803 1.803 0 0 0-1.8 1.8z"/>
            <path d="M128.335 263.265a3.796 3.796 0 0 1-3.798-3.794v-16.555a3.8 3.8 0 0 1 3.798-3.801l16.553.002c2.099 0 3.796 1.7 3.798 3.799v16.555a3.795 3.795 0 0 1-3.798 3.794h-16.553zm-1.799-20.348v16.555a1.798 1.798 0 0 0 1.799 1.796h16.553a1.8 1.8 0 0 0 1.797-1.796v-16.555a1.8 1.8 0 0 0-1.797-1.8h-16.553a1.802 1.802 0 0 0-1.799 1.8z"/>
            <path d="M152.04 263.265a3.795 3.795 0 0 1-3.798-3.794v-16.555a3.802 3.802 0 0 1 3.798-3.801l16.555.002c2.097 0 3.796 1.7 3.796 3.799v16.555a3.794 3.794 0 0 1-3.796 3.794H152.04zm-1.797-20.348v16.555a1.8 1.8 0 0 0 1.797 1.796h16.555a1.797 1.797 0 0 0 1.795-1.796h.002l-.002-16.555a1.8 1.8 0 0 0-1.795-1.8H152.04a1.803 1.803 0 0 0-1.797 1.8z"/>
            <path d="M175.893 263.265a3.794 3.794 0 0 1-3.798-3.794v-16.555a3.8 3.8 0 0 1 3.798-3.801l16.555.002a3.795 3.795 0 0 1 3.796 3.799v16.555h.002a3.797 3.797 0 0 1-3.798 3.794h-16.555zm-1.8-20.348.002 16.555c0 .991.804 1.793 1.797 1.796h16.555a1.8 1.8 0 0 0 1.797-1.796v-16.555a1.803 1.803 0 0 0-1.797-1.8h-16.555a1.804 1.804 0 0 0-1.799 1.8z"/>
            <path d="M199.6 263.265a3.796 3.796 0 0 1-3.799-3.794v-16.555a3.8 3.8 0 0 1 3.799-3.801h16.555a3.8 3.8 0 0 1 3.796 3.801v16.555a3.794 3.794 0 0 1-3.796 3.794H199.6zm-1.798-20.348v16.555c0 .991.802 1.796 1.798 1.796h16.555a1.798 1.798 0 0 0 1.795-1.796v-16.555a1.8 1.8 0 0 0-1.795-1.8H199.6a1.8 1.8 0 0 0-1.798 1.8z"/>
            <path d="M223.452 263.265a3.795 3.795 0 0 1-3.798-3.794v-16.555a3.8 3.8 0 0 1 3.798-3.801h16.555a3.8 3.8 0 0 1 3.796 3.801v16.555a3.794 3.794 0 0 1-3.796 3.794h-16.555zm-1.798-20.348v16.555a1.797 1.797 0 0 0 1.797 1.796h16.555a1.798 1.798 0 0 0 1.795-1.796h.002l-.002-16.555a1.8 1.8 0 0 0-1.795-1.8h-16.555a1.8 1.8 0 0 0-1.797 1.8z"/>
            <path d="M247.159 263.265a3.794 3.794 0 0 1-3.798-3.794l-.002-16.555a3.802 3.802 0 0 1 3.8-3.801h16.553a3.8 3.8 0 0 1 3.796 3.801v16.555c0 2.099-1.7 3.794-3.796 3.794h-16.553zm-1.8-20.348v16.555a1.8 1.8 0 0 0 1.799 1.796h16.553a1.8 1.8 0 0 0 1.797-1.796v-16.555a1.802 1.802 0 0 0-1.797-1.8h-16.553a1.804 1.804 0 0 0-1.799 1.8z"/>
            <path d="M271.01 263.267a3.797 3.797 0 0 1-3.799-3.797v-16.555c0-2.099 1.7-3.799 3.799-3.799h16.555c2.097 0 3.794 1.7 3.796 3.799v16.555a3.797 3.797 0 0 1-3.796 3.797H271.01zm-1.797-20.351v16.555c0 .993.804 1.795 1.797 1.795h16.555c.991 0 1.795-.802 1.795-1.795v-16.555c0-.993-.807-1.798-1.795-1.8H271.01a1.8 1.8 0 0 0-1.797 1.8z"/>
            <path d="M294.718 263.265a3.795 3.795 0 0 1-3.799-3.794l-.002-16.555a3.804 3.804 0 0 1 3.801-3.801l16.552.002c2.099 0 3.796 1.7 3.796 3.799v16.555a3.794 3.794 0 0 1-3.796 3.794h-16.552zm-1.8-20.348v16.555a1.799 1.799 0 0 0 1.8 1.796h16.552a1.8 1.8 0 0 0 1.798-1.796v-16.555a1.804 1.804 0 0 0-1.798-1.8h-16.552a1.802 1.802 0 0 0-1.8 1.8z"/>
            <path d="M318.57 263.265a3.796 3.796 0 0 1-3.799-3.794l-.002-16.555a3.803 3.803 0 0 1 3.801-3.801l16.553.002c2.097 0 3.796 1.7 3.796 3.799v16.555a3.795 3.795 0 0 1-3.796 3.794H318.57zm-1.799-20.348v16.555a1.797 1.797 0 0 0 1.8 1.796h16.553a1.796 1.796 0 0 0 1.795-1.796h.002l-.002-16.555a1.8 1.8 0 0 0-1.795-1.8H318.57a1.8 1.8 0 0 0-1.799 1.8z"/>
            <path d="M342.277 263.265a3.795 3.795 0 0 1-3.799-3.794l-.002-16.555a3.803 3.803 0 0 1 3.801-3.801l16.553.002c2.097 0 3.796 1.7 3.796 3.799v16.555a3.795 3.795 0 0 1-3.796 3.794h-16.553zm-1.799-20.348v16.555a1.801 1.801 0 0 0 1.8 1.796h16.553a1.796 1.796 0 0 0 1.795-1.796h.002l-.002-16.555a1.8 1.8 0 0 0-1.795-1.8h-16.553a1.803 1.803 0 0 0-1.8 1.8zM98.726 239.363a3.799 3.799 0 0 1-3.798-3.8v-16.552a3.797 3.797 0 0 1 3.798-3.798h16.553c2.099 0 3.798 1.7 3.798 3.798v16.552c0 2.1-1.699 3.798-3.798 3.8H98.726zm-1.798-20.352v16.552a1.8 1.8 0 0 0 1.798 1.799h16.553a1.8 1.8 0 0 0 1.798-1.799v-16.552a1.802 1.802 0 0 0-1.798-1.799H98.726a1.8 1.8 0 0 0-1.798 1.799z"/>
            <path d="M122.578 239.363a3.799 3.799 0 0 1-3.798-3.8v-16.552a3.797 3.797 0 0 1 3.798-3.798h16.555c2.097 0 3.796 1.7 3.796 3.798v16.552c0 2.1-1.699 3.798-3.796 3.8h-16.555zm-1.798-20.352v16.552a1.8 1.8 0 0 0 1.798 1.799h16.555a1.8 1.8 0 0 0 1.796-1.799v-16.552a1.802 1.802 0 0 0-1.796-1.799h-16.555a1.801 1.801 0 0 0-1.798 1.799z"/>
            <path d="M146.285 239.363a3.802 3.802 0 0 1-3.8-3.8v-16.552c0-2.1 1.701-3.798 3.8-3.798h16.552a3.797 3.797 0 0 1 3.798 3.798v16.552a3.8 3.8 0 0 1-3.798 3.8h-16.552zm-1.798-20.352-.002 16.552a1.803 1.803 0 0 0 1.801 1.799h16.552a1.8 1.8 0 0 0 1.798-1.799v-16.552a1.802 1.802 0 0 0-1.798-1.799h-16.552a1.8 1.8 0 0 0-1.799 1.799z"/>
            <path d="M170.137 239.363a3.8 3.8 0 0 1-3.798-3.8v-16.552a3.798 3.798 0 0 1 3.798-3.798h16.553a3.799 3.799 0 0 1 3.8 3.798v16.552h-.002c0 2.1-1.699 3.798-3.798 3.8h-16.553zm-1.797-20.352-.002 16.552a1.8 1.8 0 0 0 1.798 1.799h16.553a1.8 1.8 0 0 0 1.798-1.799v-16.552a1.802 1.802 0 0 0-1.798-1.799h-16.553a1.8 1.8 0 0 0-1.796 1.799z"/>
            <path d="M193.844 239.363a3.802 3.802 0 0 1-3.8-3.8v-16.552a3.8 3.8 0 0 1 3.8-3.798h16.553c2.099 0 3.795 1.7 3.798 3.798v16.552a3.8 3.8 0 0 1-3.798 3.8h-16.553zm-1.799-20.352v16.552a1.8 1.8 0 0 0 1.798 1.799h16.553a1.8 1.8 0 0 0 1.798-1.799h-.002v-16.552a1.8 1.8 0 0 0-1.796-1.799h-16.553a1.8 1.8 0 0 0-1.798 1.799z"/>
            <path d="M217.696 239.361a3.797 3.797 0 0 1-3.798-3.798v-16.552c0-2.1 1.701-3.798 3.798-3.798h16.552c2.099 0 3.798 1.7 3.798 3.798v16.552c0 2.1-1.699 3.798-3.798 3.8l-16.552-.002zm-1.799-20.35v16.552a1.8 1.8 0 0 0 1.798 1.799h16.552a1.802 1.802 0 0 0 1.799-1.799v-16.552a1.802 1.802 0 0 0-1.799-1.799h-16.552a1.802 1.802 0 0 0-1.798 1.799z"/>
            <path d="M241.402 239.361a3.795 3.795 0 0 1-3.797-3.798v-16.552a3.797 3.797 0 0 1 3.797-3.798h16.553a3.797 3.797 0 0 1 3.798 3.798v16.552a3.8 3.8 0 0 1-3.798 3.8l-16.553-.002zm-1.798-20.35v16.552a1.8 1.8 0 0 0 1.798 1.799h16.553a1.8 1.8 0 0 0 1.798-1.799v-16.552a1.802 1.802 0 0 0-1.798-1.799h-16.553a1.802 1.802 0 0 0-1.798 1.799z"/>
            <path d="M265.254 239.363a3.8 3.8 0 0 1-3.798-3.8v-16.552a3.797 3.797 0 0 1 3.798-3.798h16.555c2.097 0 3.796 1.7 3.796 3.798v16.552c0 2.1-1.699 3.798-3.796 3.8h-16.555zm-1.798-20.352v16.552a1.8 1.8 0 0 0 1.798 1.799h16.555a1.8 1.8 0 0 0 1.796-1.799v-16.552a1.802 1.802 0 0 0-1.796-1.799h-16.555a1.802 1.802 0 0 0-1.798 1.799z"/>
            <path d="M288.961 239.363a3.8 3.8 0 0 1-3.8-3.8v-16.552a3.799 3.799 0 0 1 3.8-3.798h16.552c2.099 0 3.798 1.7 3.798 3.798v16.552a3.8 3.8 0 0 1-3.798 3.8h-16.552zm-1.798-20.352-.002 16.552a1.801 1.801 0 0 0 1.801 1.799h16.552a1.802 1.802 0 0 0 1.799-1.799v-16.552a1.804 1.804 0 0 0-1.799-1.799h-16.552a1.8 1.8 0 0 0-1.799 1.799z"/>
            <path d="M312.813 239.361a3.796 3.796 0 0 1-3.798-3.798v-16.552a3.796 3.796 0 0 1 3.798-3.798h16.554c2.098 0 3.796 1.7 3.796 3.798v16.552c0 2.1-1.698 3.798-3.796 3.8l-16.554-.002zm-1.798-20.35v16.552a1.801 1.801 0 0 0 1.799 1.799h16.554a1.8 1.8 0 0 0 1.797-1.799h-.002v-16.552c0-.993-.804-1.797-1.795-1.799h-16.554a1.802 1.802 0 0 0-1.799 1.799z"/>
            <path d="M336.52 239.363a3.799 3.799 0 0 1-3.798-3.8v-16.552a3.797 3.797 0 0 1 3.798-3.798h16.555a3.8 3.8 0 0 1 3.798 3.798v16.552h-.002c0 2.1-1.699 3.798-3.796 3.8H336.52zm-1.798-20.352v16.552a1.8 1.8 0 0 0 1.798 1.799h16.555a1.801 1.801 0 0 0 1.797-1.799v-16.552a1.803 1.803 0 0 0-1.797-1.799H336.52a1.801 1.801 0 0 0-1.798 1.799zM91.115 215.262a3.801 3.801 0 0 1-3.799-3.797l.002-16.554a3.796 3.796 0 0 1 3.797-3.799h16.554c2.097 0 3.797 1.7 3.797 3.799v16.554c0 2.097-1.7 3.795-3.797 3.797H91.115zm-1.797-20.35v16.554a1.8 1.8 0 0 0 1.797 1.796h16.554a1.8 1.8 0 0 0 1.797-1.796v-16.554a1.802 1.802 0 0 0-1.797-1.799H91.115a1.8 1.8 0 0 0-1.797 1.799z"/>
            <path d="M114.968 215.262a3.798 3.798 0 0 1-3.797-3.797v-16.554a3.796 3.796 0 0 1 3.797-3.799h16.554c2.097 0 3.797 1.7 3.797 3.799v16.554c0 2.097-1.7 3.795-3.797 3.797h-16.554zm-1.798-20.35v16.554a1.8 1.8 0 0 0 1.797 1.796h16.554a1.8 1.8 0 0 0 1.797-1.796v-16.554a1.802 1.802 0 0 0-1.797-1.799h-16.554a1.8 1.8 0 0 0-1.797 1.799z"/>
            <path d="M138.674 215.26a3.798 3.798 0 0 1-3.799-3.795l.002-16.554c0-2.099 1.7-3.799 3.797-3.799h16.554a3.8 3.8 0 0 1 3.799 3.799v16.554a3.801 3.801 0 0 1-3.799 3.797l-16.554-.002zm-1.798-20.348-.002 16.554c.002.99.806 1.793 1.8 1.796h16.554a1.802 1.802 0 0 0 1.799-1.796h-.002l.002-16.554a1.804 1.804 0 0 0-1.799-1.799h-16.554a1.8 1.8 0 0 0-1.798 1.799z"/>
            <path d="M162.526 215.26a3.795 3.795 0 0 1-3.797-3.795v-16.554c0-2.099 1.7-3.799 3.797-3.799h16.554a3.8 3.8 0 0 1 3.799 3.799v16.554h-.002c0 2.097-1.7 3.795-3.797 3.797l-16.554-.002zm-1.797-20.348v16.554c.002.99.806 1.793 1.797 1.796h16.554a1.8 1.8 0 0 0 1.797-1.796v-16.554a1.8 1.8 0 0 0-1.797-1.799h-16.554a1.801 1.801 0 0 0-1.797 1.799z"/>
            <path d="M186.232 215.26a3.795 3.795 0 0 1-3.797-3.795v-16.554a3.796 3.796 0 0 1 3.797-3.799h16.554a3.8 3.8 0 0 1 3.799 3.799v16.554h-.002c0 2.097-1.7 3.795-3.797 3.797l-16.554-.002zm-1.797-20.348v16.554c.002.99.806 1.793 1.797 1.796h16.554a1.803 1.803 0 0 0 1.799-1.796h-.002l.002-16.554a1.804 1.804 0 0 0-1.799-1.799h-16.554a1.8 1.8 0 0 0-1.797 1.799z"/>
            <path d="M210.084 215.262a3.798 3.798 0 0 1-3.797-3.797v-16.554c0-2.099 1.7-3.799 3.797-3.799h16.554c2.097 0 3.797 1.7 3.797 3.799v16.554c0 2.097-1.7 3.795-3.797 3.797h-16.554zm-1.797-20.35v16.554c.002.99.806 1.793 1.797 1.796h16.554a1.801 1.801 0 0 0 1.797-1.796v-16.554a1.802 1.802 0 0 0-1.797-1.799h-16.554a1.801 1.801 0 0 0-1.797 1.799z"/>
            <path d="M233.791 215.26a3.795 3.795 0 0 1-3.797-3.795v-16.554c0-2.099 1.7-3.799 3.797-3.799h16.554c2.099 0 3.797 1.7 3.797 3.799v16.554a3.797 3.797 0 0 1-3.797 3.797l-16.554-.002zm-1.798-20.348v16.554c.002.99.806 1.793 1.797 1.796h16.554a1.799 1.799 0 0 0 1.797-1.796v-16.554a1.802 1.802 0 0 0-1.797-1.799H233.79a1.801 1.801 0 0 0-1.797 1.799z"/>
            <path d="M257.643 215.26a3.795 3.795 0 0 1-3.797-3.795v-16.554c0-2.099 1.7-3.799 3.797-3.799h16.554c2.099 0 3.797 1.7 3.797 3.799v16.554a3.797 3.797 0 0 1-3.797 3.797l-16.554-.002zm-1.797-20.348v16.554c.002.99.806 1.793 1.797 1.796h16.554a1.799 1.799 0 0 0 1.797-1.796v-16.554a1.802 1.802 0 0 0-1.797-1.799h-16.554a1.8 1.8 0 0 0-1.797 1.799z"/>
            <path d="M281.351 215.262a3.799 3.799 0 0 1-3.799-3.797v-16.554c0-2.099 1.7-3.799 3.799-3.799h16.552a3.8 3.8 0 0 1 3.799 3.799v16.554h-.002a3.797 3.797 0 0 1-3.797 3.797h-16.552zm-1.798-20.35-.002 16.554a1.801 1.801 0 0 0 1.799 1.796h16.552a1.8 1.8 0 0 0 1.799-1.796h-.002l.002-16.554a1.802 1.802 0 0 0-1.799-1.799H281.35a1.799 1.799 0 0 0-1.797 1.799z"/>
            <path d="M305.203 215.262a3.803 3.803 0 0 1-3.802-3.797l.003-16.554c0-2.099 1.7-3.799 3.799-3.799h16.554c2.097 0 3.797 1.7 3.797 3.799v16.554c0 2.097-1.7 3.795-3.797 3.797h-16.554zm-1.8-20.35v16.554c.002.99.806 1.793 1.8 1.796h16.554a1.802 1.802 0 0 0 1.797-1.796v-16.554a1.802 1.802 0 0 0-1.797-1.799h-16.554a1.802 1.802 0 0 0-1.8 1.799z"/>
            <path d="M328.909 215.261a3.8 3.8 0 0 1-3.8-3.795l.003-16.556c0-2.098 1.7-3.798 3.797-3.798h16.554c2.097 0 3.798 1.7 3.798 3.798v16.556a3.796 3.796 0 0 1-3.798 3.795h-16.554zm-1.799-20.35v16.556c.002.99.807 1.793 1.799 1.795h16.554a1.803 1.803 0 0 0 1.8-1.795h-.003l.003-16.556a1.805 1.805 0 0 0-1.8-1.798h-16.554a1.803 1.803 0 0 0-1.799 1.798zM334.859 287.268a3.796 3.796 0 0 1-3.799-3.797v-16.553c0-2.101 1.7-3.799 3.799-3.799h24.359a3.8 3.8 0 0 1 3.797 3.799v16.553a3.803 3.803 0 0 1-3.797 3.799l-24.359-.002zm-1.798-20.35v16.553c0 .992.805 1.797 1.799 1.797l24.359.002a1.803 1.803 0 0 0 1.796-1.799v-16.553a1.798 1.798 0 0 0-1.796-1.798H334.86a1.798 1.798 0 0 0-1.799 1.798zM120.771 312.145a3.797 3.797 0 0 1-3.798-3.794v-16.556a3.8 3.8 0 0 1 3.798-3.8l16.554.002a3.8 3.8 0 0 1 3.798 3.798v16.556h-.002a3.797 3.797 0 0 1-3.796 3.796l-16.554-.002zm-1.798-20.35v16.556a1.8 1.8 0 0 0 1.798 1.794l16.554.002a1.8 1.8 0 0 0 1.797-1.796v-16.556a1.798 1.798 0 0 0-1.797-1.798l-16.554-.002a1.804 1.804 0 0 0-1.798 1.8zM327.446 312.147a3.802 3.802 0 0 1-3.801-3.796v-16.556a3.8 3.8 0 0 1 3.801-3.8h16.552a3.802 3.802 0 0 1 3.798 3.8v16.556h-.002a3.798 3.798 0 0 1-3.796 3.796h-16.552zm-1.8-20.352-.002 16.556a1.802 1.802 0 0 0 1.802 1.794h16.552a1.8 1.8 0 0 0 1.798-1.794h-.002v-16.556c0-.995-.805-1.798-1.796-1.798h-16.552a1.8 1.8 0 0 0-1.8 1.798z"/>
            <path d="M144.478 312.145a3.796 3.796 0 0 1-3.798-3.794v-16.556a3.8 3.8 0 0 1 3.798-3.8h175.579a3.8 3.8 0 0 1 3.796 3.8v16.556a3.8 3.8 0 0 1-3.796 3.796l-175.579-.002zm-1.798-20.35v16.556a1.798 1.798 0 0 0 1.797 1.794h175.579a1.8 1.8 0 0 0 1.796-1.794v-16.556a1.798 1.798 0 0 0-1.796-1.798l-175.579-.002a1.801 1.801 0 0 0-1.797 1.8zM380.003 323.137a6.467 6.467 0 0 1-6.464-6.467V143.013a6.465 6.465 0 0 1 6.464-6.462h124.486a6.465 6.465 0 0 1 6.466 6.462V316.67a6.469 6.469 0 0 1-6.466 6.467H380.003zm-4.462-180.124V316.67a4.47 4.47 0 0 0 4.462 4.467h124.486a4.473 4.473 0 0 0 4.465-4.467V143.013a4.468 4.468 0 0 0-4.465-4.46H380.003a4.463 4.463 0 0 0-4.462 4.46z"/>
            <path d="M72.49 333.672a6.462 6.462 0 0 1-6.463-6.463V18.136a6.465 6.465 0 0 1 6.463-6.465h447.221a6.468 6.468 0 0 1 6.463 6.465v309.073a6.465 6.465 0 0 1-6.463 6.463H72.49zM68.025 18.136v309.073a4.474 4.474 0 0 0 4.464 4.464H519.71a4.472 4.472 0 0 0 4.462-4.464V18.136a4.47 4.47 0 0 0-4.462-4.464H72.49a4.472 4.472 0 0 0-4.465 4.464z"/>
            <path d="M377.02 94.033a3.488 3.488 0 1 1 0-6.976h130.845a3.488 3.488 0 0 1 3.485 3.488 3.487 3.487 0 0 1-3.485 3.488H377.02zm-1.488-3.488c0 .822.665 1.487 1.487 1.489h130.845a1.487 1.487 0 0 0 0-2.976H377.02c-.821 0-1.488.667-1.488 1.487zM377.02 83.024a3.488 3.488 0 0 1-3.488-3.488 3.492 3.492 0 0 1 3.488-3.489l130.845.002a3.487 3.487 0 0 1 3.485 3.486 3.488 3.488 0 0 1-3.485 3.488H377.02v.001zm-1.488-3.488c0 .822.665 1.487 1.487 1.487l130.845.002a1.491 1.491 0 0 0 1.484-1.489 1.49 1.49 0 0 0-1.484-1.487H377.02a1.488 1.488 0 0 0-1.488 1.487zM377.02 72.017a3.49 3.49 0 0 1-3.488-3.49 3.492 3.492 0 0 1 3.488-3.489l130.845.002a3.487 3.487 0 0 1 3.485 3.486 3.49 3.49 0 0 1-3.485 3.49H377.02v.001zm-1.488-3.491a1.49 1.49 0 0 0 1.487 1.489h130.845a1.491 1.491 0 0 0 1.484-1.489 1.49 1.49 0 0 0-1.484-1.487H377.02a1.49 1.49 0 0 0-1.488 1.487zM377.02 61.007a3.49 3.49 0 0 1-3.488-3.49 3.486 3.486 0 0 1 3.488-3.486h130.845a3.487 3.487 0 0 1 3.485 3.486 3.49 3.49 0 0 1-3.485 3.49H377.02zm-1.488-3.49a1.49 1.49 0 0 0 1.487 1.489h130.845a1.491 1.491 0 0 0 1.484-1.489 1.49 1.49 0 0 0-1.484-1.487H377.02a1.49 1.49 0 0 0-1.488 1.487zM377.02 49.998a3.49 3.49 0 0 1-3.488-3.488 3.487 3.487 0 0 1 3.488-3.488h130.845a3.487 3.487 0 0 1 3.485 3.488 3.49 3.49 0 0 1-3.485 3.488H377.02zm-1.488-3.488c0 .82.665 1.485 1.487 1.487h130.845a1.49 1.49 0 0 0 1.484-1.487 1.49 1.49 0 0 0-1.484-1.489H377.02a1.49 1.49 0 0 0-1.488 1.489zM377.02 38.987a3.487 3.487 0 1 1 0-6.975h130.845a3.487 3.487 0 0 1 0 6.975H377.02zm-1.488-3.487c0 .82.665 1.484 1.487 1.487h130.845a1.49 1.49 0 0 0 1.484-1.487 1.49 1.49 0 0 0-1.484-1.489H377.02a1.49 1.49 0 0 0-1.488 1.489zM377.02 27.977a3.489 3.489 0 0 1 0-6.975h130.845a3.487 3.487 0 0 1 0 6.975H377.02zm-1.488-3.486c0 .82.665 1.484 1.487 1.487h130.845a1.49 1.49 0 0 0 1.484-1.487 1.49 1.49 0 0 0-1.484-1.489H377.02a1.489 1.489 0 0 0-1.488 1.489zM67.183 117.156v-2h457.805v2H67.183zM374.531 183.601v-1.999h135.235v1.999H374.531zM67.184 157.259v-2h307.639v2H67.184zM391.319 312.989a3.438 3.438 0 0 1-3.439-3.438v-6.83c0-1.9 1.539-3.438 3.439-3.439l101.854.002a3.44 3.44 0 0 1 3.44 3.438h-.002l.002 6.83a3.44 3.44 0 0 1-3.44 3.438H391.319v-.001zm-1.439-10.269v6.83a1.44 1.44 0 0 0 1.439 1.438h101.854a1.44 1.44 0 0 0 1.44-1.438v-6.83h-.002c0-.793-.643-1.438-1.438-1.438l-101.854-.002a1.443 1.443 0 0 0-1.439 1.44z"/>
        </g>
    </switch>
</svg>
