<svg version="1.2" baseProfile="tiny" xmlns="http://www.w3.org/2000/svg" width="598.189" height="350.26" xml:space="preserve">
    <g fill="#F4F4F4">
        <path d="M160.078 38.753v-2h4.97v2h-4.97zM160.13 28.813v-2h4.973v2h-4.973zM169.072 38.755v-2h4.972v2h-4.972zM169.125 28.813v-2h4.972v2h-4.972zM177.295 38.754v-2h4.972v2h-4.972zM177.35 28.812v-2h4.97v2h-4.97zM186.291 38.754v-2h4.971v2h-4.971zM186.345 28.813v-2h4.971v2h-4.971zM194.516 38.754v-2h4.971v2h-4.971zM194.568 28.813v-2h4.97v2h-4.97zM203.51 38.754v-2h4.971v2h-4.971zM203.562 28.813v-2h4.971v2h-4.971zM211.733 38.755v-2.001h4.97v2.001h-4.97zM211.787 28.813v-2h4.969v2h-4.969zM220.729 38.754v-2.001h4.969v2.001h-4.969zM220.782 28.813v-2.001h4.969v2.001h-4.969zM228.951 38.753v-1.998h4.972v1.998h-4.972zM229.004 28.813v-2.001h4.971v2.001h-4.971zM237.947 38.754v-1.999h4.971v1.999h-4.971zM237.999 28.811v-1.998h4.972v1.998h-4.972zM246.171 38.754v-1.999h4.969v1.999h-4.969zM246.224 28.812v-1.999h4.97v1.999h-4.97zM255.167 38.754v-2.001h4.97v2.001h-4.97zM255.218 28.813v-2.001h4.972v2.001h-4.972zM263.389 38.754v-2.001h4.97v2.001h-4.97zM263.441 28.812v-1.999h4.971v1.999h-4.971zM272.384 38.754v-2.001h4.97v2.001h-4.97zM272.436 28.813v-2.001h4.972v2.001h-4.972zM280.607 38.754v-2.001h4.971v2.001h-4.971zM280.661 28.812v-1.999h4.97v1.999h-4.97zM289.602 38.753v-1.999h4.972v1.999h-4.972zM289.655 28.812v-1.999h4.97v1.999h-4.97zM297.825 38.754v-1.999h4.971v1.999h-4.971zM297.879 28.812v-1.999h4.971v1.999h-4.971zM306.819 38.755v-2.001h4.973v2.001h-4.973zM306.873 28.813v-2.001h4.973v2.001h-4.973zM315.044 38.754v-1.999h4.972v1.999h-4.972zM315.096 28.812v-1.999h4.972v1.999h-4.972zM324.04 38.754v-2h4.97v2h-4.97zM324.091 28.813v-2.001h4.972v2.001h-4.972zM332.263 38.754v-1.999h4.969v1.999h-4.969zM332.315 28.813v-2.001h4.971v2.001h-4.971zM341.258 38.753v-1.999h4.97v1.999h-4.97zM341.309 28.813v-2.001h4.972v2.001h-4.972zM349.481 38.754v-2h4.971v2h-4.971zM349.533 28.812v-1.999h4.969v1.999h-4.969zM358.476 38.754v-2h4.972v2h-4.972zM358.529 28.813v-2.001h4.971v2.001h-4.971zM366.7 38.754v-1.999h4.971v1.999H366.7zM366.753 28.813v-2.001h4.971v2.001h-4.971zM375.694 38.755v-2.002h4.971v2.002h-4.971zM375.746 28.812v-2h4.973v2h-4.973zM383.917 38.753v-1.999h4.972v1.999h-4.972zM383.971 28.813v-2.001h4.97v2.001h-4.97zM392.913 38.754v-1.999h4.973v1.999h-4.973zM392.964 28.813v-2h4.973v2h-4.973zM401.137 38.754v-1.999h4.97v1.999h-4.97zM401.189 28.813v-2h4.971v2h-4.971zM410.131 38.754v-2h4.972v2h-4.972zM410.185 28.812v-2h4.97v2h-4.97zM418.355 38.753v-1.999h4.969v1.999h-4.969zM418.407 28.813v-2.001h4.971v2.001h-4.971zM427.35 38.755v-2.002h4.97v2.002h-4.97zM427.401 28.812v-1.999h4.973v1.999h-4.973z"/>
        <path d="M155.447 61.058V24.235h5.578v18.726a1.581 1.581 0 0 0 1.579 1.579 1.58 1.58 0 0 0 1.576-1.579V24.235h5.841l-.002 18.726a1.581 1.581 0 0 0 1.578 1.579 1.58 1.58 0 0 0 1.579-1.579V24.235h5.069l-.002 18.726a1.581 1.581 0 0 0 1.579 1.579 1.58 1.58 0 0 0 1.578-1.579V24.235h5.839v18.726a1.581 1.581 0 0 0 1.579 1.579 1.58 1.58 0 0 0 1.576-1.579V24.235h5.069l-.002 18.726a1.582 1.582 0 0 0 1.579 1.579 1.582 1.582 0 0 0 1.579-1.579V24.235h5.839v18.726a1.581 1.581 0 0 0 1.579 1.579 1.58 1.58 0 0 0 1.576-1.579V24.235h5.069v18.726a1.58 1.58 0 0 0 1.578 1.579 1.581 1.581 0 0 0 1.577-1.579V24.235h5.841l-.002 18.726a1.582 1.582 0 0 0 1.579 1.579 1.582 1.582 0 0 0 1.579-1.579V24.235h5.069l-.002 18.726a1.581 1.581 0 0 0 1.578 1.579 1.58 1.58 0 0 0 1.577-1.579V24.235h5.841v18.726a1.58 1.58 0 0 0 1.576 1.579 1.582 1.582 0 0 0 1.579-1.579V24.235h5.069v18.726a1.58 1.58 0 0 0 1.577 1.579 1.58 1.58 0 0 0 1.578-1.579V24.235h5.839v18.726a1.58 1.58 0 0 0 1.578 1.579 1.581 1.581 0 0 0 1.577-1.579V24.235h5.069v18.726a1.581 1.581 0 0 0 1.579 1.579 1.58 1.58 0 0 0 1.576-1.579V24.235h5.841v18.726c0 .873.704 1.577 1.577 1.579a1.581 1.581 0 0 0 1.578-1.579V24.235h5.067v18.726a1.58 1.58 0 0 0 1.578 1.579 1.58 1.58 0 0 0 1.576-1.579V24.235h5.841v18.726a1.58 1.58 0 0 0 1.577 1.579 1.58 1.58 0 0 0 1.578-1.579V24.235h5.069l-.002 18.726a1.577 1.577 0 1 0 3.154 0V24.235h5.842v18.726a1.581 1.581 0 0 0 1.578 1.579 1.58 1.58 0 0 0 1.576-1.579V24.235h5.069v18.726a1.577 1.577 0 1 0 3.152 0V24.235h5.844l-.002 18.726a1.582 1.582 0 0 0 1.581 1.579 1.578 1.578 0 0 0 1.573-1.579V24.235h5.071l-.002 18.726a1.58 1.58 0 0 0 1.576 1.579 1.58 1.58 0 0 0 1.579-1.579V24.235h5.841l-.002 18.726a1.578 1.578 0 1 0 3.155 0V24.235h5.071l-.003 18.726a1.577 1.577 0 1 0 3.155 0V24.235h5.841v18.726a1.582 1.582 0 0 0 1.579 1.579 1.579 1.579 0 0 0 1.574-1.579V24.235h5.071v18.726a1.577 1.577 0 1 0 3.152 0V24.235h5.844l-.003 18.726a1.583 1.583 0 0 0 1.579 1.579 1.578 1.578 0 0 0 1.576-1.579V24.235h5.069v18.726a1.581 1.581 0 0 0 1.578 1.579 1.578 1.578 0 0 0 1.574-1.579V24.235h5.844l-.003 18.726a1.583 1.583 0 0 0 1.579 1.579 1.578 1.578 0 0 0 1.576-1.579V24.235h5.071l-.002 18.726a1.581 1.581 0 0 0 1.578 1.579 1.58 1.58 0 0 0 1.578-1.579V24.235h5.84l-.003 18.726a1.583 1.583 0 0 0 1.581 1.579 1.578 1.578 0 0 0 1.574-1.579V24.235h5.071l-.002 18.726a1.58 1.58 0 0 0 1.578 1.579 1.58 1.58 0 0 0 1.578-1.579V24.235h5.84v18.726a1.58 1.58 0 0 0 1.578 1.579 1.581 1.581 0 0 0 1.576-1.579V24.246l5.842-.062-.003 18.739a1.58 1.58 0 0 0 3.157 0V24.194h143.29v36.863H155.447v.001zm2-2h424.287V26.194H442.447v16.729a3.578 3.578 0 0 1-7.156 0V26.205l-1.84.019v16.737a3.577 3.577 0 1 1-7.154 0l-.002-16.726h-1.838v16.726a3.579 3.579 0 0 1-7.156 0V26.235h-1.07v16.726a3.573 3.573 0 0 1-3.573 3.578 3.58 3.58 0 0 1-3.58-3.578V26.235h-1.838v16.726a3.579 3.579 0 0 1-7.156 0V26.235h-1.067v16.726a3.579 3.579 0 0 1-7.156 0V26.235h-1.843v16.726a3.573 3.573 0 0 1-3.573 3.578 3.577 3.577 0 0 1-3.578-3.578l-.002-16.726H381.8v16.726a3.577 3.577 0 1 1-7.156 0V26.235h-1.84v16.726a3.579 3.579 0 0 1-7.156 0V26.235h-1.068v16.726a3.577 3.577 0 0 1-3.575 3.578 3.58 3.58 0 0 1-3.58-3.578V26.235h-1.838v16.726a3.577 3.577 0 1 1-7.156 0l-.002-16.726h-1.066v16.726a3.577 3.577 0 1 1-7.155 0V26.235h-1.841v16.726a3.576 3.576 0 1 1-7.153 0l-.002-16.726h-1.066v16.726a3.579 3.579 0 0 1-7.156 0V26.235h-1.84v16.726a3.577 3.577 0 0 1-3.575 3.578 3.58 3.58 0 0 1-3.58-3.578V26.235h-1.068v16.726a3.577 3.577 0 1 1-7.154 0V26.235h-1.84v16.726a3.577 3.577 0 0 1-3.578 3.578 3.58 3.58 0 0 1-3.578-3.578V26.235h-1.068v16.726a3.577 3.577 0 0 1-3.578 3.578 3.576 3.576 0 0 1-3.576-3.578V26.235h-1.842v16.726a3.578 3.578 0 0 1-7.154 0V26.235h-1.068v16.726a3.579 3.579 0 0 1-7.156 0V26.235h-1.84v16.726a3.578 3.578 0 0 1-7.154 0V26.235h-1.07v16.726a3.578 3.578 0 0 1-7.154 0V26.235h-1.84v16.726a3.579 3.579 0 0 1-7.156 0V26.235h-1.068v16.726a3.576 3.576 0 1 1-7.154 0V26.235h-1.84v16.726a3.579 3.579 0 0 1-3.578 3.578 3.58 3.58 0 0 1-3.578-3.578V26.235h-1.068v16.726a3.579 3.579 0 0 1-3.578 3.578 3.58 3.58 0 0 1-3.578-3.578V26.235h-1.84v16.726a3.578 3.578 0 0 1-7.154 0V26.235h-1.07v16.726a3.578 3.578 0 0 1-7.154 0V26.235h-1.84v16.726a3.577 3.577 0 0 1-3.578 3.578 3.58 3.58 0 0 1-3.578-3.578V26.235h-1.068v16.726a3.578 3.578 0 0 1-7.154 0l-.002-16.726h-1.838v16.726a3.577 3.577 0 0 1-3.578 3.578 3.58 3.58 0 0 1-3.578-3.578V26.235h-1.068v16.726a3.577 3.577 0 0 1-3.578 3.578 3.58 3.58 0 0 1-3.578-3.578V26.235h-1.84v16.726a3.577 3.577 0 1 1-7.154 0V26.235h-1.579v32.823h-.003zm284-32.864v-1 1z"/>
        <path d="M436.345 38.715v-2h4.969v2h-4.969zM436.397 28.773v-1.999h4.972v1.999h-4.972zM17.418 60.532V24.13h17.467V60.531H17.418v.001zm16.466-1.001v-1 1zm-14.465-1h13.466l-.002-32.402H19.419v32.402zM6.415 305.785V74.188h586.646v231.597H6.415zm585.646-1v-1.001 1.001zM8.415 303.784h582.646l-.001-227.596H8.415v227.596z"/>
        <path d="M6.402 74.653 17.606 58.95l1.627 1.162L8.03 75.814l-1.628-1.161zM581.886 60.582l1.701-1.05 9.326 15.133-1.704 1.047-9.323-15.13z"/>
        <path d="M584.313 30.443h-1.787v-2.001h3.683l2.049 38.928-1.996.105-1.949-37.032zM11.85 66.487l3.661-38.78h2.698v2h-.878L13.84 66.674l-1.99-.187zM3.5 300.396l2.875-90.98 1.997.063-2.807 88.918h1.703v1.999H3.5zM592.225 300.396v-1.998l1.702-.002-2.806-88.917 1.999-.064 2.873 90.981h-3.768zM37.567 29.392h-3.682v-2.001l3.682.002h118.567v1.999H37.567z"/>
        <path d="M36.567 34.335v-5.942h2l-.002 3.941h113.833v-3.626h2v5.627H36.567zM132.83 59.06v-1.001l-.002-.473h-8.203v1.263H64.341v-1.263H56.03v1.263H33.884v-2h20.147v-1.263h12.31v.999l-.002.262h56.285v-1.261h12.205v1.472l21.725.002v2H132.83zM45.405 283.828c-10.838 0-19.621-8.784-19.623-19.621l.002-154.02c0-10.837 8.783-19.621 19.621-19.621h507.507c10.835 0 19.619 8.784 19.621 19.621v154.02h-.002c0 10.837-8.784 19.621-19.619 19.621H45.405zM27.783 110.187v154.02c.017 9.732 7.89 17.603 17.622 17.622l507.507-.002c9.729-.018 17.604-7.888 17.62-17.62v-154.02c-.017-9.732-7.891-17.603-17.62-17.622H45.405c-9.732.019-17.605 7.89-17.622 17.622z"/>
        <path d="M53.61 266.468c-6.129 0-11.099-4.967-11.099-11.097V119.024c0-6.129 4.97-11.099 11.099-11.099h491.095c6.131 0 11.099 4.97 11.101 11.099v136.347c-.002 6.13-4.972 11.097-11.101 11.097H53.61zm-9.099-147.444v136.347a9.115 9.115 0 0 0 9.1 9.098l491.095-.002a9.111 9.111 0 0 0 9.1-9.096V119.024a9.113 9.113 0 0 0-9.1-9.1H53.61a9.112 9.112 0 0 0-9.099 9.1z"/>
        <path d="M426.93 229.726a7.074 7.074 0 1 1 14.148 0 7.074 7.074 0 1 1-14.148 0zm1.997 0a5.085 5.085 0 0 0 5.078 5.075 5.083 5.083 0 0 0 5.074-5.075 5.083 5.083 0 0 0-5.074-5.076 5.085 5.085 0 0 0-5.078 5.076zM72.548 147.797a5.732 5.732 0 0 1-5.735-5.733v-16.728a5.736 5.736 0 0 1 5.735-5.735h17.043a5.737 5.737 0 0 1 5.735 5.735v16.728h-.002a5.734 5.734 0 0 1-5.733 5.735l-17.043-.002zm-3.735-22.46v16.728a3.738 3.738 0 0 0 3.735 3.733h17.043a3.74 3.74 0 0 0 3.735-3.733h-.002l.002-16.728a3.738 3.738 0 0 0-3.735-3.733l-17.043-.002a3.74 3.74 0 0 0-3.735 3.735z"/>
        <path d="M76.177 142.59a5.733 5.733 0 0 1-5.733-5.733v-9.311a5.735 5.735 0 0 1 5.733-5.736h9.311a5.738 5.738 0 0 1 5.735 5.736v9.311h-.002a5.732 5.732 0 0 1-5.733 5.733h-9.311zm-3.733-15.044-.002 9.311a3.737 3.737 0 0 0 3.735 3.732l9.311.002a3.742 3.742 0 0 0 3.735-3.735v-9.311a3.741 3.741 0 0 0-3.735-3.735h-9.311a3.74 3.74 0 0 0-3.733 3.736zM99.44 147.797a5.734 5.734 0 0 1-5.735-5.733l.002-16.728a5.734 5.734 0 0 1 5.733-5.735h17.043a5.735 5.735 0 0 1 5.735 5.735v16.728a5.736 5.736 0 0 1-5.735 5.735l-17.043-.002zm-3.732-22.46v16.728a3.736 3.736 0 0 0 3.733 3.733h17.043a3.739 3.739 0 0 0 3.735-3.733v-16.728a3.74 3.74 0 0 0-3.735-3.733l-17.043-.002a3.736 3.736 0 0 0-3.733 3.735z"/>
        <path d="M103.07 142.59a5.736 5.736 0 0 1-5.736-5.733v-9.311a5.74 5.74 0 0 1 5.736-5.736h9.311a5.735 5.735 0 0 1 5.733 5.736v9.311a5.732 5.732 0 0 1-5.733 5.733h-9.311zm-3.735-15.044v9.311a3.737 3.737 0 0 0 3.735 3.732l9.311.002a3.742 3.742 0 0 0 3.735-3.735h-.002l.002-9.311a3.741 3.741 0 0 0-3.735-3.735h-9.311a3.743 3.743 0 0 0-3.735 3.736zM126.333 147.797a5.73 5.73 0 0 1-5.733-5.733v-16.728a5.734 5.734 0 0 1 5.733-5.735h17.043a5.737 5.737 0 0 1 5.735 5.735v16.728a5.737 5.737 0 0 1-5.735 5.735l-17.043-.002zm-3.733-22.46v16.728a3.738 3.738 0 0 0 3.733 3.733h17.043a3.738 3.738 0 0 0 3.735-3.733v-16.728a3.737 3.737 0 0 0-3.735-3.733l-17.043-.002a3.738 3.738 0 0 0-3.733 3.735z"/>
        <path d="M129.964 142.59a5.734 5.734 0 0 1-5.736-5.733v-9.311a5.738 5.738 0 0 1 5.736-5.736h9.311a5.737 5.737 0 0 1 5.733 5.736v9.311a5.735 5.735 0 0 1-5.733 5.733h-9.311zm-3.735-15.044v9.311a3.736 3.736 0 0 0 3.735 3.732h9.311a3.736 3.736 0 0 0 3.733-3.732v-9.311a3.74 3.74 0 0 0-3.733-3.735h-9.311a3.74 3.74 0 0 0-3.735 3.735zM153.227 147.797a5.733 5.733 0 0 1-5.735-5.733v-16.728a5.736 5.736 0 0 1 5.735-5.735h17.043a5.735 5.735 0 0 1 5.733 5.735v16.728a5.736 5.736 0 0 1-5.733 5.735l-17.043-.002zm-3.735-22.46v16.728a3.738 3.738 0 0 0 3.735 3.733h17.043a3.737 3.737 0 0 0 3.733-3.733v-16.728a3.736 3.736 0 0 0-3.733-3.733l-17.043-.002a3.74 3.74 0 0 0-3.735 3.735z"/>
        <path d="M156.855 142.59a5.732 5.732 0 0 1-5.733-5.733v-9.311a5.735 5.735 0 0 1 5.733-5.736h9.311a5.738 5.738 0 0 1 5.735 5.736v9.311a5.735 5.735 0 0 1-5.735 5.733h-9.311zm-3.732-15.044-.002 9.311a3.737 3.737 0 0 0 3.735 3.732l9.311.002a3.74 3.74 0 0 0 3.735-3.735v-9.311a3.74 3.74 0 0 0-3.735-3.735h-9.311a3.739 3.739 0 0 0-3.733 3.736zM180.12 147.797a5.734 5.734 0 0 1-5.735-5.733v-16.728a5.737 5.737 0 0 1 5.735-5.735h17.043a5.738 5.738 0 0 1 5.735 5.735v16.728a5.739 5.739 0 0 1-5.735 5.735l-17.043-.002zm-3.736-22.46v16.728a3.738 3.738 0 0 0 3.735 3.733h17.043a3.74 3.74 0 0 0 3.735-3.733v-16.728a3.74 3.74 0 0 0-3.735-3.733l-17.043-.002a3.74 3.74 0 0 0-3.735 3.735z"/>
        <path d="M183.749 142.59a5.731 5.731 0 0 1-5.733-5.733v-9.311a5.735 5.735 0 0 1 5.733-5.736h9.311a5.735 5.735 0 0 1 5.733 5.736v9.311a5.731 5.731 0 0 1-5.733 5.733h-9.311zm-3.733-15.044-.002 9.311a3.737 3.737 0 0 0 3.735 3.732l9.311.002a3.742 3.742 0 0 0 3.735-3.735v-9.311a3.741 3.741 0 0 0-3.735-3.735h-9.311a3.74 3.74 0 0 0-3.733 3.736zM207.012 147.797a5.734 5.734 0 0 1-5.735-5.733v-16.728a5.737 5.737 0 0 1 5.735-5.735h17.043a5.735 5.735 0 0 1 5.735 5.735v16.728a5.736 5.736 0 0 1-5.735 5.735l-17.043-.002zm-3.734-22.46-.002 16.728a3.738 3.738 0 0 0 3.735 3.733h17.043a3.738 3.738 0 0 0 3.735-3.733v-16.728a3.737 3.737 0 0 0-3.735-3.733l-17.043-.002a3.737 3.737 0 0 0-3.733 3.735z"/>
        <path d="M210.643 142.59a5.734 5.734 0 0 1-5.736-5.733v-9.311a5.738 5.738 0 0 1 5.736-5.736h9.311a5.736 5.736 0 0 1 5.733 5.736v9.311a5.733 5.733 0 0 1-5.733 5.733h-9.311zm-3.735-15.044v9.311a3.735 3.735 0 0 0 3.735 3.732l9.311.002a3.737 3.737 0 0 0 3.732-3.735v-9.311a3.737 3.737 0 0 0-3.732-3.735h-9.311a3.74 3.74 0 0 0-3.735 3.736zM233.906 147.797a5.732 5.732 0 0 1-5.735-5.733v-16.728a5.736 5.736 0 0 1 5.735-5.735h17.041a5.736 5.736 0 0 1 5.735 5.735v16.728a5.736 5.736 0 0 1-5.735 5.735l-17.041-.002zm-3.735-22.46v16.728a3.738 3.738 0 0 0 3.735 3.733h17.041a3.738 3.738 0 0 0 3.735-3.733v-16.728a3.737 3.737 0 0 0-3.735-3.733l-17.041-.002a3.74 3.74 0 0 0-3.735 3.735z"/>
        <path d="M237.536 142.59a5.734 5.734 0 0 1-5.736-5.733v-9.311a5.738 5.738 0 0 1 5.736-5.736h9.308a5.737 5.737 0 0 1 5.736 5.736v9.311a5.734 5.734 0 0 1-5.736 5.733h-9.308zm-3.735-15.044v9.311a3.734 3.734 0 0 0 3.735 3.732l9.308.002a3.741 3.741 0 0 0 3.735-3.735v-9.311a3.741 3.741 0 0 0-3.735-3.735h-9.308a3.74 3.74 0 0 0-3.735 3.736zM260.796 147.799a5.738 5.738 0 0 1-5.733-5.735v-16.727a5.736 5.736 0 0 1 5.733-5.735h17.045a5.738 5.738 0 0 1 5.735 5.735v16.727h-.002a5.735 5.735 0 0 1-5.733 5.735h-17.045zm-3.732-22.462v16.727a3.738 3.738 0 0 0 3.732 3.734h17.045a3.74 3.74 0 0 0 3.734-3.734v-16.727a3.74 3.74 0 0 0-3.734-3.734h-17.045a3.738 3.738 0 0 0-3.732 3.734z"/>
        <path d="M264.429 142.591a5.735 5.735 0 0 1-5.736-5.734v-9.311a5.737 5.737 0 0 1 5.736-5.734h9.309a5.735 5.735 0 0 1 5.734 5.734v9.311a5.732 5.732 0 0 1-5.734 5.734h-9.309zm-3.735-15.046-.002 9.311a3.74 3.74 0 0 0 3.737 3.734h9.309a3.738 3.738 0 0 0 3.734-3.734v-9.311a3.74 3.74 0 0 0-3.734-3.735h-9.309a3.74 3.74 0 0 0-3.735 3.735zM287.69 147.798a5.734 5.734 0 0 1-5.735-5.733l.002-16.727a5.734 5.734 0 0 1 5.733-5.735h17.043a5.737 5.737 0 0 1 5.735 5.735v16.727h-.002a5.732 5.732 0 0 1-5.733 5.733H287.69zm-3.734-22.46v16.727a3.74 3.74 0 0 0 3.734 3.734h17.043a3.74 3.74 0 0 0 3.734-3.734v-16.727a3.737 3.737 0 0 0-3.734-3.734l-17.043-.002a3.74 3.74 0 0 0-3.734 3.736z"/>
        <path d="M291.32 142.59a5.735 5.735 0 0 1-5.735-5.732v-9.311a5.735 5.735 0 0 1 5.735-5.735h9.311a5.735 5.735 0 0 1 5.734 5.735v9.311h-.002a5.733 5.733 0 0 1-5.732 5.734l-9.311-.002zm-3.735-15.043v9.311a3.737 3.737 0 0 0 3.735 3.732l9.311.002a3.74 3.74 0 0 0 3.734-3.734h-.002l.002-9.311a3.74 3.74 0 0 0-3.734-3.735h-9.311a3.74 3.74 0 0 0-3.735 3.735zM314.583 147.798a5.736 5.736 0 0 1-5.735-5.733l.002-16.728a5.735 5.735 0 0 1 5.733-5.735l17.044.002a5.73 5.73 0 0 1 5.733 5.733v16.728a5.732 5.732 0 0 1-5.733 5.733h-17.044zm-3.734-22.461v16.728a3.74 3.74 0 0 0 3.734 3.734h17.044a3.74 3.74 0 0 0 3.733-3.734v-16.728a3.74 3.74 0 0 0-3.733-3.734h-17.044a3.74 3.74 0 0 0-3.734 3.734z"/>
        <path d="M318.214 142.59a5.736 5.736 0 0 1-5.737-5.732l.003-9.313a5.735 5.735 0 0 1 5.734-5.735l9.311.002a5.735 5.735 0 0 1 5.734 5.733v9.313h-.002a5.731 5.731 0 0 1-5.732 5.732h-9.311zm-3.736-15.045v9.313a3.738 3.738 0 0 0 3.736 3.732h9.311a3.736 3.736 0 0 0 3.734-3.732h-.002l.002-9.313a3.739 3.739 0 0 0-3.734-3.734h-9.311a3.74 3.74 0 0 0-3.736 3.734zM341.279 147.798a5.735 5.735 0 0 1-5.735-5.733l.002-16.729a5.732 5.732 0 0 1 5.733-5.733h17.043a5.732 5.732 0 0 1 5.734 5.733v16.729a5.734 5.734 0 0 1-5.734 5.733h-17.043zm-3.733-22.462-.002 16.729a3.74 3.74 0 0 0 3.735 3.734h17.043a3.739 3.739 0 0 0 3.734-3.734v-16.729a3.74 3.74 0 0 0-3.734-3.734h-17.043a3.738 3.738 0 0 0-3.733 3.734z"/>
        <path d="M344.909 142.59a5.735 5.735 0 0 1-5.736-5.733l.002-9.312a5.734 5.734 0 0 1 5.734-5.734h9.312a5.735 5.735 0 0 1 5.732 5.734v9.312h-.002a5.732 5.732 0 0 1-5.73 5.735l-9.312-.002zm-3.734-15.045-.002 9.312a3.74 3.74 0 0 0 3.736 3.734h9.312a3.738 3.738 0 0 0 3.732-3.734h-.002l.002-9.312a3.739 3.739 0 0 0-3.732-3.734h-9.312a3.737 3.737 0 0 0-3.734 3.734zM368.172 147.799a5.738 5.738 0 0 1-5.735-5.733l.002-16.729a5.735 5.735 0 0 1 5.733-5.735l17.043.002a5.734 5.734 0 0 1 5.735 5.733v16.729h-.002a5.733 5.733 0 0 1-5.733 5.733h-17.043zm-3.734-22.462-.002 16.729a3.738 3.738 0 0 0 3.735 3.731l17.043.002a3.74 3.74 0 0 0 3.735-3.734h-.002l.002-16.729a3.738 3.738 0 0 0-3.735-3.733l-17.043-.002a3.74 3.74 0 0 0-3.733 3.736z"/>
        <path d="M371.802 142.591a5.735 5.735 0 0 1-5.735-5.735v-9.311a5.737 5.737 0 0 1 5.735-5.735h9.311a5.737 5.737 0 0 1 5.734 5.735v9.311h-.002a5.733 5.733 0 0 1-5.732 5.735h-9.311zm-3.735-15.045-.002 9.311a3.742 3.742 0 0 0 3.736 3.734h9.311a3.737 3.737 0 0 0 3.733-3.734v-9.311a3.74 3.74 0 0 0-3.733-3.734h-9.311a3.738 3.738 0 0 0-3.734 3.734zM395.064 147.797a5.735 5.735 0 0 1-5.735-5.733l.002-16.727a5.735 5.735 0 0 1 5.733-5.735h17.044a5.735 5.735 0 0 1 5.733 5.735v16.727a5.735 5.735 0 0 1-5.733 5.735l-17.044-.002zm-3.733-22.46-.002 16.727a3.738 3.738 0 0 0 3.735 3.733l17.044.002a3.738 3.738 0 0 0 3.732-3.735v-16.727a3.738 3.738 0 0 0-3.732-3.735h-17.044a3.738 3.738 0 0 0-3.733 3.735z"/>
        <path d="M398.694 142.591a5.734 5.734 0 0 1-5.735-5.735v-9.31a5.734 5.734 0 0 1 5.735-5.734h9.312a5.735 5.735 0 0 1 5.734 5.734v9.31h-.002a5.732 5.732 0 0 1-5.732 5.735h-9.312zm-3.733-15.045-.002 9.31a3.74 3.74 0 0 0 3.735 3.734l9.312.002a3.74 3.74 0 0 0 3.733-3.736v-9.31a3.74 3.74 0 0 0-3.733-3.735h-9.312a3.74 3.74 0 0 0-3.733 3.735zM468.354 163.105a5.733 5.733 0 0 1-5.735-5.733v-16.729a5.732 5.732 0 0 1 5.735-5.733h17.042a5.736 5.736 0 0 1 5.735 5.733v16.729h-.002a5.732 5.732 0 0 1-5.733 5.733h-17.042zm-3.734-22.461-.003 16.729a3.738 3.738 0 0 0 3.737 3.732h17.042a3.736 3.736 0 0 0 3.734-3.732v-16.729a3.736 3.736 0 0 0-3.734-3.732l-17.042-.002a3.736 3.736 0 0 0-3.734 3.734z"/>
        <path d="M471.981 157.899a5.737 5.737 0 0 1-5.734-5.735l.002-9.312a5.731 5.731 0 0 1 5.732-5.733h9.313a5.735 5.735 0 0 1 5.734 5.733v9.312h-.002a5.734 5.734 0 0 1-5.732 5.735h-9.313zm-3.732-15.046-.002 9.312a3.742 3.742 0 0 0 3.734 3.735h9.313a3.742 3.742 0 0 0 3.734-3.735h-.002l.002-9.312a3.74 3.74 0 0 0-3.734-3.733h-9.313a3.736 3.736 0 0 0-3.732 3.733zM495.246 163.105a5.735 5.735 0 0 1-5.735-5.733l.002-16.728a5.733 5.733 0 0 1 5.733-5.735h17.044a5.736 5.736 0 0 1 5.734 5.735v16.728h-.002a5.732 5.732 0 0 1-5.732 5.733h-17.044zm-3.734-22.46v16.728a3.74 3.74 0 0 0 3.734 3.734h17.044a3.738 3.738 0 0 0 3.733-3.734v-16.728a3.739 3.739 0 0 0-3.733-3.734l-17.044-.002a3.741 3.741 0 0 0-3.734 3.736z"/>
        <path d="M498.876 157.898a5.734 5.734 0 0 1-5.734-5.734l.002-9.311a5.73 5.73 0 0 1 5.732-5.734h9.311a5.737 5.737 0 0 1 5.736 5.734v9.311h-.003a5.732 5.732 0 0 1-5.733 5.734h-9.311zm-3.732-15.044-.002 9.311a3.74 3.74 0 0 0 3.734 3.734h9.311a3.742 3.742 0 0 0 3.736-3.734h-.003l.003-9.311a3.741 3.741 0 0 0-3.736-3.734h-9.311a3.736 3.736 0 0 0-3.732 3.734zM522.14 163.106a5.739 5.739 0 0 1-5.736-5.734l.002-16.728a5.732 5.732 0 0 1 5.734-5.734h17.042a5.732 5.732 0 0 1 5.733 5.734v16.728a5.735 5.735 0 0 1-5.733 5.734H522.14zm-3.736-22.462v16.728a3.738 3.738 0 0 0 3.735 3.733h17.042a3.74 3.74 0 0 0 3.735-3.733v-16.728a3.738 3.738 0 0 0-3.735-3.733l-17.042-.002a3.74 3.74 0 0 0-3.735 3.735z"/>
        <path d="M525.767 157.897a5.734 5.734 0 0 1-5.733-5.733l.003-9.311a5.732 5.732 0 0 1 5.73-5.735l9.313.002a5.732 5.732 0 0 1 5.734 5.733v9.311a5.735 5.735 0 0 1-5.734 5.735l-9.313-.002zm-3.734-15.043v9.311a3.74 3.74 0 0 0 3.733 3.733l9.313.002a3.739 3.739 0 0 0 3.733-3.735v-9.311a3.736 3.736 0 0 0-3.733-3.733l-9.313-.002a3.742 3.742 0 0 0-3.733 3.735zM468.354 189.143a5.733 5.733 0 0 1-5.735-5.733v-16.727a5.737 5.737 0 0 1 5.735-5.736l17.042.002a5.734 5.734 0 0 1 5.735 5.733v16.727h-.002a5.734 5.734 0 0 1-5.733 5.735l-17.042-.001zm-3.734-22.46-.003 16.727a3.743 3.743 0 0 0 3.737 3.734h17.042a3.74 3.74 0 0 0 3.734-3.734v-16.727a3.74 3.74 0 0 0-3.734-3.735h-17.042a3.738 3.738 0 0 0-3.734 3.735z"/>
        <path d="M471.981 183.936a5.735 5.735 0 0 1-5.734-5.734l.002-9.31a5.735 5.735 0 0 1 5.732-5.735h9.313a5.738 5.738 0 0 1 5.734 5.735v9.31h-.002a5.732 5.732 0 0 1-5.732 5.734h-9.313zm-3.732-15.045-.002 9.31a3.739 3.739 0 0 0 3.734 3.734h9.313a3.74 3.74 0 0 0 3.734-3.734h-.002l.002-9.31a3.738 3.738 0 0 0-3.734-3.732l-9.313-.002a3.738 3.738 0 0 0-3.732 3.734zM495.246 189.143a5.735 5.735 0 0 1-5.735-5.732l.002-16.728a5.733 5.733 0 0 1 5.733-5.735h17.044a5.736 5.736 0 0 1 5.734 5.735v16.728h-.002a5.733 5.733 0 0 1-5.732 5.734l-17.044-.002zm-3.734-22.46v16.728a3.741 3.741 0 0 0 3.734 3.733h17.044a3.74 3.74 0 0 0 3.733-3.733v-16.728a3.739 3.739 0 0 0-3.733-3.734l-17.044-.002a3.741 3.741 0 0 0-3.734 3.736z"/>
        <path d="M498.876 183.936a5.734 5.734 0 0 1-5.734-5.734l.002-9.31a5.73 5.73 0 0 1 5.732-5.734h9.311a5.737 5.737 0 0 1 5.736 5.734v9.31h-.003a5.732 5.732 0 0 1-5.733 5.734h-9.311zm-3.732-15.044-.002 9.31a3.74 3.74 0 0 0 3.734 3.734h9.311a3.74 3.74 0 0 0 3.736-3.734h-.003l.003-9.31a3.741 3.741 0 0 0-3.736-3.734h-9.311a3.736 3.736 0 0 0-3.732 3.734zM522.14 189.143a5.734 5.734 0 0 1-5.736-5.732l.002-16.728a5.733 5.733 0 0 1 5.734-5.734h17.042a5.732 5.732 0 0 1 5.733 5.734v16.728a5.735 5.735 0 0 1-5.733 5.734l-17.042-.002zm-3.736-22.46v16.728a3.74 3.74 0 0 0 3.735 3.733h17.042a3.74 3.74 0 0 0 3.735-3.733v-16.728a3.741 3.741 0 0 0-3.735-3.735H522.14a3.74 3.74 0 0 0-3.736 3.735z"/>
        <path d="M525.767 183.936a5.735 5.735 0 0 1-5.733-5.733l.003-9.31a5.733 5.733 0 0 1 5.73-5.736h9.313a5.735 5.735 0 0 1 5.734 5.736v9.31a5.733 5.733 0 0 1-5.734 5.733h-9.313zm-3.734-15.043v9.31a3.74 3.74 0 0 0 3.733 3.733h9.313a3.737 3.737 0 0 0 3.733-3.733v-9.31a3.74 3.74 0 0 0-3.733-3.736h-9.313a3.742 3.742 0 0 0-3.733 3.736zM468.354 215.339a5.732 5.732 0 0 1-5.735-5.733v-16.727a5.735 5.735 0 0 1 5.735-5.735h17.042a5.735 5.735 0 0 1 5.735 5.735v16.727h-.002a5.73 5.73 0 0 1-5.733 5.733h-17.042zm-3.734-22.46-.003 16.727a3.738 3.738 0 0 0 3.737 3.732l17.042.002a3.739 3.739 0 0 0 3.734-3.734v-16.727a3.738 3.738 0 0 0-3.734-3.734l-17.042-.002a3.738 3.738 0 0 0-3.734 3.736z"/>
        <path d="M471.981 210.132a5.735 5.735 0 0 1-5.734-5.734l.002-9.31a5.734 5.734 0 0 1 5.732-5.735l9.313.002a5.734 5.734 0 0 1 5.734 5.733v9.31h-.002a5.732 5.732 0 0 1-5.732 5.734h-9.313zm-3.732-15.044-.002 9.31a3.74 3.74 0 0 0 3.734 3.734h9.313a3.741 3.741 0 0 0 3.734-3.734h-.002l.002-9.31a3.739 3.739 0 0 0-3.734-3.733l-9.313-.002a3.735 3.735 0 0 0-3.732 3.735zM495.246 215.339a5.734 5.734 0 0 1-5.735-5.732l.002-16.728a5.733 5.733 0 0 1 5.733-5.735h17.044a5.735 5.735 0 0 1 5.734 5.735v16.728h-.002a5.732 5.732 0 0 1-5.732 5.732h-17.044zm-3.734-22.46v16.728a3.736 3.736 0 0 0 3.734 3.731l17.044.003a3.74 3.74 0 0 0 3.733-3.734v-16.728a3.738 3.738 0 0 0-3.733-3.734l-17.044-.002a3.742 3.742 0 0 0-3.734 3.736z"/>
        <path d="M498.876 210.132a5.734 5.734 0 0 1-5.734-5.734l.002-9.31a5.73 5.73 0 0 1 5.732-5.734h9.311a5.737 5.737 0 0 1 5.736 5.734v9.31h-.003a5.732 5.732 0 0 1-5.733 5.734h-9.311zm-3.732-15.044-.002 9.31a3.74 3.74 0 0 0 3.734 3.734h9.311a3.742 3.742 0 0 0 3.736-3.734h-.003l.003-9.31a3.741 3.741 0 0 0-3.736-3.734h-9.311a3.735 3.735 0 0 0-3.732 3.734zM522.14 215.338a5.734 5.734 0 0 1-5.736-5.731l.002-16.729a5.732 5.732 0 0 1 5.734-5.734h17.042a5.734 5.734 0 0 1 5.733 5.734v16.729a5.733 5.733 0 0 1-5.733 5.733l-17.042-.002zm-3.736-22.46v16.729a3.737 3.737 0 0 0 3.735 3.732h17.042a3.739 3.739 0 0 0 3.735-3.732v-16.729a3.738 3.738 0 0 0-3.735-3.733l-17.042-.002a3.74 3.74 0 0 0-3.735 3.735z"/>
        <path d="M525.767 210.132a5.735 5.735 0 0 1-5.733-5.734l.003-9.31a5.735 5.735 0 0 1 5.73-5.736l9.313.003a5.732 5.732 0 0 1 5.734 5.733v9.31a5.734 5.734 0 0 1-5.734 5.734h-9.313zm-3.734-15.044v9.31a3.74 3.74 0 0 0 3.733 3.733h9.313a3.736 3.736 0 0 0 3.733-3.733v-9.31a3.736 3.736 0 0 0-3.733-3.733l-9.313-.003a3.742 3.742 0 0 0-3.733 3.736zM468.354 241.693a5.732 5.732 0 0 1-5.735-5.733v-16.729a5.736 5.736 0 0 1 5.735-5.735l17.042.002a5.734 5.734 0 0 1 5.735 5.733v16.729h-.002a5.732 5.732 0 0 1-5.733 5.733h-17.042zm-3.734-22.462-.003 16.729a3.739 3.739 0 0 0 3.737 3.732l17.042.003a3.742 3.742 0 0 0 3.734-3.735v-16.729a3.74 3.74 0 0 0-3.734-3.734h-17.042a3.736 3.736 0 0 0-3.734 3.734z"/>
        <path d="M471.981 236.484a5.733 5.733 0 0 1-5.734-5.732l.002-9.311a5.735 5.735 0 0 1 5.732-5.736l9.313.002a5.735 5.735 0 0 1 5.734 5.734v9.311h-.002a5.732 5.732 0 0 1-5.732 5.732h-9.313zm-3.732-15.043-.002 9.311a3.738 3.738 0 0 0 3.734 3.732h9.313a3.74 3.74 0 0 0 3.734-3.732h-.002l.002-9.311a3.739 3.739 0 0 0-3.734-3.734l-9.313-.002a3.74 3.74 0 0 0-3.732 3.736zM495.246 241.691a5.733 5.733 0 0 1-5.735-5.73l.002-16.729a5.732 5.732 0 0 1 5.733-5.734h17.044a5.735 5.735 0 0 1 5.734 5.734v16.729h-.002a5.734 5.734 0 0 1-5.732 5.733l-17.044-.003zm-3.734-22.46v16.729a3.74 3.74 0 0 0 3.734 3.732h17.044a3.739 3.739 0 0 0 3.733-3.732v-16.729a3.736 3.736 0 0 0-3.733-3.733h-17.044a3.737 3.737 0 0 0-3.734 3.733z"/>
        <path d="M498.876 236.484a5.733 5.733 0 0 1-5.734-5.731l.002-9.311a5.731 5.731 0 0 1 5.732-5.736h9.311a5.737 5.737 0 0 1 5.736 5.736v9.311h-.003a5.73 5.73 0 0 1-5.733 5.731h-9.311zm-3.732-15.042-.002 9.311a3.736 3.736 0 0 0 3.734 3.731h9.311a3.74 3.74 0 0 0 3.736-3.731h-.003l.003-9.311a3.743 3.743 0 0 0-3.736-3.736h-9.311a3.738 3.738 0 0 0-3.732 3.736zM522.14 241.692a5.735 5.735 0 0 1-5.736-5.732l.002-16.729a5.735 5.735 0 0 1 5.734-5.734l17.042.002a5.732 5.732 0 0 1 5.733 5.732v16.729a5.735 5.735 0 0 1-5.733 5.734l-17.042-.002zm-3.736-22.462v16.729a3.74 3.74 0 0 0 3.735 3.733h17.042a3.74 3.74 0 0 0 3.735-3.733V219.23a3.74 3.74 0 0 0-3.735-3.733H522.14a3.739 3.739 0 0 0-3.736 3.733z"/>
        <path d="M525.767 236.483a5.734 5.734 0 0 1-5.733-5.731l.003-9.311a5.731 5.731 0 0 1 5.73-5.735h9.313a5.734 5.734 0 0 1 5.734 5.735v9.311a5.734 5.734 0 0 1-5.734 5.733l-9.313-.002zm-3.734-15.042v9.311a3.737 3.737 0 0 0 3.733 3.731l9.313.002a3.737 3.737 0 0 0 3.733-3.733v-9.311a3.738 3.738 0 0 0-3.733-3.735h-9.313a3.742 3.742 0 0 0-3.733 3.735zM59.923 173.836a5.736 5.736 0 0 1-5.735-5.733l.002-16.728a5.733 5.733 0 0 1 5.733-5.735h17.044a5.733 5.733 0 0 1 5.733 5.735v16.728a5.731 5.731 0 0 1-5.733 5.733H59.923zm-3.733-22.461-.002 16.728a3.739 3.739 0 0 0 3.735 3.733h17.044a3.735 3.735 0 0 0 3.733-3.733v-16.728a3.738 3.738 0 0 0-3.733-3.735H59.923a3.738 3.738 0 0 0-3.733 3.735z"/>
        <path d="M63.552 168.63a5.738 5.738 0 0 1-5.735-5.735l.002-9.312a5.733 5.733 0 0 1 5.733-5.733h9.312a5.735 5.735 0 0 1 5.735 5.733v9.312h-.002a5.736 5.736 0 0 1-5.733 5.735h-9.312zm-3.735-15.046v9.312a3.742 3.742 0 0 0 3.734 3.734h9.312a3.74 3.74 0 0 0 3.735-3.734v-9.312a3.737 3.737 0 0 0-3.735-3.732h-9.312a3.74 3.74 0 0 0-3.734 3.732zM86.817 173.836a5.733 5.733 0 0 1-5.735-5.733v-16.728a5.735 5.735 0 0 1 5.735-5.735h17.042a5.733 5.733 0 0 1 5.735 5.735v16.728a5.734 5.734 0 0 1-5.735 5.733H86.817zm-3.735-22.461v16.728a3.738 3.738 0 0 0 3.735 3.733h17.042a3.737 3.737 0 0 0 3.735-3.733v-16.728a3.74 3.74 0 0 0-3.735-3.735H86.817a3.741 3.741 0 0 0-3.735 3.735z"/>
        <path d="M90.445 168.628a5.733 5.733 0 0 1-5.733-5.733v-9.312a5.733 5.733 0 0 1 5.733-5.733h9.312a5.734 5.734 0 0 1 5.735 5.733v9.312h-.002a5.734 5.734 0 0 1-5.733 5.735l-9.312-.002zm-3.733-15.044-.002 9.312a3.74 3.74 0 0 0 3.734 3.734h9.312a3.743 3.743 0 0 0 3.735-3.734v-9.312a3.737 3.737 0 0 0-3.735-3.732l-9.312-.002a3.738 3.738 0 0 0-3.732 3.734zM113.708 173.836a5.734 5.734 0 0 1-5.735-5.733v-16.728a5.736 5.736 0 0 1 5.735-5.735h17.044a5.737 5.737 0 0 1 5.735 5.735v16.728h-.002a5.732 5.732 0 0 1-5.732 5.733h-17.045zm-3.734-22.461v16.728a3.739 3.739 0 0 0 3.735 3.733h17.044a3.739 3.739 0 0 0 3.735-3.733h-.002l.002-16.728a3.74 3.74 0 0 0-3.735-3.735h-17.044a3.741 3.741 0 0 0-3.735 3.735z"/>
        <path d="M117.338 168.628a5.736 5.736 0 0 1-5.735-5.733l.002-9.312a5.732 5.732 0 0 1 5.733-5.733h9.312a5.733 5.733 0 0 1 5.733 5.733v9.312a5.735 5.735 0 0 1-5.733 5.735l-9.312-.002zm-3.734-15.044v9.312a3.74 3.74 0 0 0 3.735 3.734h9.312a3.738 3.738 0 0 0 3.732-3.734v-9.312a3.733 3.733 0 0 0-3.732-3.732l-9.312-.002a3.74 3.74 0 0 0-3.735 3.734zM140.602 173.836a5.732 5.732 0 0 1-5.734-5.733v-16.728a5.735 5.735 0 0 1 5.734-5.735h17.044a5.733 5.733 0 0 1 5.733 5.735v16.728a5.733 5.733 0 0 1-5.733 5.733h-17.044zm-3.735-22.461v16.728a3.739 3.739 0 0 0 3.735 3.733h17.044a3.736 3.736 0 0 0 3.733-3.733v-16.728a3.739 3.739 0 0 0-3.733-3.735h-17.044a3.742 3.742 0 0 0-3.735 3.735z"/>
        <path d="M144.231 168.628a5.736 5.736 0 0 1-5.735-5.733l.002-9.312a5.732 5.732 0 0 1 5.733-5.733h9.31a5.734 5.734 0 0 1 5.735 5.733v9.312a5.737 5.737 0 0 1-5.735 5.735l-9.31-.002zm-3.734-15.044v9.312a3.74 3.74 0 0 0 3.734 3.734h9.31a3.738 3.738 0 0 0 3.734-3.734v-9.312a3.736 3.736 0 0 0-3.734-3.732l-9.31-.002a3.739 3.739 0 0 0-3.734 3.734zM167.494 173.836a5.733 5.733 0 0 1-5.733-5.733v-16.728a5.733 5.733 0 0 1 5.733-5.735h17.044a5.735 5.735 0 0 1 5.734 5.735v16.728a5.735 5.735 0 0 1-5.734 5.733h-17.044zm-3.733-22.461v16.728a3.737 3.737 0 0 0 3.733 3.733h17.044a3.737 3.737 0 0 0 3.734-3.733v-16.728a3.74 3.74 0 0 0-3.734-3.735h-17.044a3.74 3.74 0 0 0-3.733 3.735z"/>
        <path d="M171.125 168.628a5.736 5.736 0 0 1-5.735-5.733v-9.312a5.735 5.735 0 0 1 5.735-5.733h9.31a5.734 5.734 0 0 1 5.735 5.733v9.312a5.736 5.736 0 0 1-5.735 5.735l-9.31-.002zm-3.735-15.044v9.312a3.74 3.74 0 0 0 3.734 3.734h9.31a3.742 3.742 0 0 0 3.736-3.734h-.002l.002-9.312a3.739 3.739 0 0 0-3.736-3.732l-9.31-.002a3.74 3.74 0 0 0-3.734 3.734zM194.388 173.836a5.733 5.733 0 0 1-5.735-5.733v-16.728a5.735 5.735 0 0 1 5.735-5.735h17.044a5.734 5.734 0 0 1 5.733 5.735v16.728a5.733 5.733 0 0 1-5.733 5.733h-17.044zm-3.735-22.461v16.728a3.739 3.739 0 0 0 3.735 3.733h17.044a3.738 3.738 0 0 0 3.733-3.733v-16.728a3.74 3.74 0 0 0-3.733-3.735h-17.044a3.741 3.741 0 0 0-3.735 3.735z"/>
        <path d="M198.018 168.628a5.736 5.736 0 0 1-5.735-5.733l.002-9.312a5.732 5.732 0 0 1 5.733-5.733h9.31a5.734 5.734 0 0 1 5.735 5.733v9.312a5.737 5.737 0 0 1-5.735 5.735l-9.31-.002zm-3.735-15.044v9.312a3.74 3.74 0 0 0 3.734 3.734h9.31a3.739 3.739 0 0 0 3.734-3.734v-9.312a3.737 3.737 0 0 0-3.734-3.732l-9.31-.002a3.739 3.739 0 0 0-3.734 3.734zM221.282 173.836a5.736 5.736 0 0 1-5.737-5.733l.002-16.728a5.734 5.734 0 0 1 5.735-5.735h17.042a5.735 5.735 0 0 1 5.735 5.735v16.728a5.733 5.733 0 0 1-5.735 5.733h-17.042zm-3.735-22.461-.002 16.728a3.74 3.74 0 0 0 3.737 3.733h17.042a3.738 3.738 0 0 0 3.735-3.733v-16.728a3.74 3.74 0 0 0-3.735-3.735h-17.042a3.739 3.739 0 0 0-3.735 3.735z"/>
        <path d="M224.911 168.628a5.736 5.736 0 0 1-5.735-5.733l.002-9.312a5.731 5.731 0 0 1 5.733-5.733h9.31a5.735 5.735 0 0 1 5.735 5.733v9.312h-.002a5.735 5.735 0 0 1-5.733 5.735l-9.31-.002zm-3.735-15.044v9.312a3.74 3.74 0 0 0 3.734 3.734h9.31a3.739 3.739 0 0 0 3.734-3.734v-9.312a3.736 3.736 0 0 0-3.734-3.732l-9.31-.002a3.739 3.739 0 0 0-3.734 3.734zM248.173 173.836a5.734 5.734 0 0 1-5.735-5.733l.002-16.728a5.733 5.733 0 0 1 5.733-5.735h17.044a5.732 5.732 0 0 1 5.732 5.735v16.728a5.732 5.732 0 0 1-5.732 5.733h-17.044zm-3.733-22.461-.002 16.728a3.739 3.739 0 0 0 3.735 3.733h17.044a3.736 3.736 0 0 0 3.733-3.733v-16.728a3.738 3.738 0 0 0-3.733-3.735h-17.044a3.739 3.739 0 0 0-3.733 3.735z"/>
        <path d="M251.802 168.628a5.733 5.733 0 0 1-5.733-5.733v-9.312a5.733 5.733 0 0 1 5.733-5.733h9.312a5.735 5.735 0 0 1 5.735 5.733v9.312a5.738 5.738 0 0 1-5.735 5.735l-9.312-.002zm-3.733-15.044-.002 9.312a3.74 3.74 0 0 0 3.734 3.734h9.312a3.741 3.741 0 0 0 3.734-3.734v-9.312a3.737 3.737 0 0 0-3.734-3.732l-9.312-.002a3.738 3.738 0 0 0-3.732 3.734zM275.066 173.835a5.734 5.734 0 0 1-5.735-5.732v-16.728a5.736 5.736 0 0 1 5.735-5.735h17.044a5.733 5.733 0 0 1 5.733 5.735v16.728a5.735 5.735 0 0 1-5.733 5.735l-17.044-.003zm-3.734-22.46v16.728a3.739 3.739 0 0 0 3.735 3.733h17.044a3.736 3.736 0 0 0 3.733-3.733v-16.728a3.74 3.74 0 0 0-3.733-3.735h-17.044a3.741 3.741 0 0 0-3.735 3.735z"/>
        <path d="M278.696 168.629a5.734 5.734 0 0 1-5.734-5.734v-9.311a5.732 5.732 0 0 1 5.734-5.734h9.311a5.734 5.734 0 0 1 5.734 5.734v9.311a5.735 5.735 0 0 1-5.734 5.734h-9.311zm-3.735-15.044v9.311a3.738 3.738 0 0 0 3.735 3.733h9.311a3.74 3.74 0 0 0 3.735-3.733v-9.311a3.741 3.741 0 0 0-3.735-3.735h-9.311a3.74 3.74 0 0 0-3.735 3.735zM301.96 173.836a5.733 5.733 0 0 1-5.735-5.733v-16.727a5.736 5.736 0 0 1 5.735-5.737l17.042.002a5.735 5.735 0 0 1 5.735 5.735v16.727h-.002a5.732 5.732 0 0 1-5.733 5.733H301.96zm-3.734-22.46v16.727a3.736 3.736 0 0 0 3.734 3.732h17.042a3.737 3.737 0 0 0 3.735-3.732h-.002l.002-16.727a3.742 3.742 0 0 0-3.735-3.737H301.96a3.74 3.74 0 0 0-3.734 3.737z"/>
        <path d="M305.588 168.63a5.737 5.737 0 0 1-5.734-5.734l.003-9.311a5.731 5.731 0 0 1 5.731-5.734h9.313a5.736 5.736 0 0 1 5.734 5.734v9.311h-.002a5.735 5.735 0 0 1-5.732 5.734h-9.313zm-3.733-15.045-.002 9.311a3.74 3.74 0 0 0 3.734 3.733l9.313.002a3.741 3.741 0 0 0 3.733-3.735v-9.311a3.743 3.743 0 0 0-3.733-3.735h-9.313a3.737 3.737 0 0 0-3.732 3.735zM328.853 173.837a5.736 5.736 0 0 1-5.735-5.733v-16.728a5.734 5.734 0 0 1 5.735-5.735h17.042a5.736 5.736 0 0 1 5.735 5.735v16.728h-.002a5.733 5.733 0 0 1-5.733 5.733h-17.042zm-3.735-22.461-.002 16.728a3.74 3.74 0 0 0 3.736 3.732h17.042a3.74 3.74 0 0 0 3.735-3.732v-16.728a3.743 3.743 0 0 0-3.735-3.736h-17.042a3.74 3.74 0 0 0-3.734 3.736z"/>
        <path d="M332.483 168.629a5.736 5.736 0 0 1-5.737-5.734l.002-9.312a5.732 5.732 0 0 1 5.735-5.732h9.308a5.735 5.735 0 0 1 5.736 5.732v9.312h-.002a5.734 5.734 0 0 1-5.734 5.734h-9.308zm-3.735-15.046-.002 9.312a3.742 3.742 0 0 0 3.737 3.735h9.308a3.741 3.741 0 0 0 3.736-3.735h-.002l.002-9.312a3.74 3.74 0 0 0-3.736-3.732h-9.308a3.735 3.735 0 0 0-3.735 3.732zM355.745 173.836a5.736 5.736 0 0 1-5.735-5.733l.002-16.729a5.736 5.736 0 0 1 5.733-5.735h17.041a5.737 5.737 0 0 1 5.737 5.735v16.729h-.002a5.733 5.733 0 0 1-5.735 5.733h-17.041zm-3.734-22.461v16.729a3.738 3.738 0 0 0 3.734 3.732l17.041.002a3.741 3.741 0 0 0 3.736-3.734v-16.729a3.741 3.741 0 0 0-3.736-3.734h-17.041a3.74 3.74 0 0 0-3.734 3.734z"/>
        <path d="M359.375 168.63a5.738 5.738 0 0 1-5.736-5.734l.002-9.311a5.734 5.734 0 0 1 5.734-5.734h9.31a5.738 5.738 0 0 1 5.736 5.734v9.311h-.002a5.735 5.735 0 0 1-5.734 5.734h-9.31zm-3.734-15.046-.002 9.311a3.742 3.742 0 0 0 3.736 3.734h9.31a3.742 3.742 0 0 0 3.736-3.734h-.002l.002-9.311a3.742 3.742 0 0 0-3.736-3.734h-9.31a3.738 3.738 0 0 0-3.734 3.734zM382.638 173.836a5.735 5.735 0 0 1-5.735-5.733l.002-16.729a5.733 5.733 0 0 1 5.733-5.735h17.043a5.736 5.736 0 0 1 5.734 5.735v16.729h-.002a5.732 5.732 0 0 1-5.732 5.733h-17.043zm-3.735-22.461v16.729a3.736 3.736 0 0 0 3.734 3.732l17.043.002a3.739 3.739 0 0 0 3.733-3.734v-16.729a3.738 3.738 0 0 0-3.733-3.734l-17.043-.002a3.741 3.741 0 0 0-3.734 3.736z"/>
        <path d="M386.267 168.628a5.734 5.734 0 0 1-5.734-5.734l.002-9.31a5.73 5.73 0 0 1 5.732-5.732h9.313a5.731 5.731 0 0 1 5.731 5.732v9.31a5.732 5.732 0 0 1-5.731 5.734h-9.313zm-3.733-15.045-.002 9.31a3.742 3.742 0 0 0 3.734 3.736h9.313a3.74 3.74 0 0 0 3.733-3.736h-.002l.002-9.31a3.74 3.74 0 0 0-3.733-3.734h-9.313a3.74 3.74 0 0 0-3.732 3.734zM408.677 173.835a5.732 5.732 0 0 1-5.734-5.732v-16.727a5.735 5.735 0 0 1 5.734-5.736h17.042a5.735 5.735 0 0 1 5.734 5.736v16.727a5.735 5.735 0 0 1-5.734 5.734l-17.042-.002zm-3.736-22.459v16.727a3.74 3.74 0 0 0 3.735 3.733h17.042a3.74 3.74 0 0 0 3.735-3.733v-16.727a3.741 3.741 0 0 0-3.735-3.735l-17.042-.002a3.743 3.743 0 0 0-3.735 3.737z"/>
        <path d="M412.306 168.63a5.735 5.735 0 0 1-5.734-5.736v-9.311a5.732 5.732 0 0 1 5.734-5.733h9.31a5.731 5.731 0 0 1 5.733 5.733v9.311a5.736 5.736 0 0 1-5.733 5.736h-9.31zm-3.734-15.046-.003 9.311a3.743 3.743 0 0 0 3.736 3.735h9.31a3.74 3.74 0 0 0 3.735-3.735h-.002l.002-9.311a3.738 3.738 0 0 0-3.735-3.733h-9.31a3.735 3.735 0 0 0-3.733 3.733zM66.235 200.031a5.735 5.735 0 0 1-5.735-5.732V177.57a5.737 5.737 0 0 1 5.735-5.734l17.045.002a5.732 5.732 0 0 1 5.732 5.732v16.729a5.735 5.735 0 0 1-5.732 5.735l-17.045-.003zM62.5 177.569v16.729a3.737 3.737 0 0 0 3.734 3.732l17.045.002a3.739 3.739 0 0 0 3.732-3.734v-16.729a3.738 3.738 0 0 0-3.732-3.734H66.235a3.742 3.742 0 0 0-3.735 3.734z"/>
        <path d="M69.866 194.823a5.733 5.733 0 0 1-5.735-5.732v-9.311a5.734 5.734 0 0 1 5.735-5.735h9.311a5.734 5.734 0 0 1 5.733 5.735v9.311a5.738 5.738 0 0 1-5.733 5.735l-9.311-.003zM66.13 179.78v9.311a3.742 3.742 0 0 0 3.736 3.734h9.311a3.742 3.742 0 0 0 3.734-3.734h-.002l.002-9.311a3.738 3.738 0 0 0-3.734-3.734l-9.311-.002a3.742 3.742 0 0 0-3.736 3.736zM93.128 200.031a5.734 5.734 0 0 1-5.734-5.732V177.57a5.736 5.736 0 0 1 5.734-5.734l17.043.002a5.732 5.732 0 0 1 5.734 5.732v16.729a5.737 5.737 0 0 1-5.734 5.735l-17.043-.003zm-3.734-22.462v16.729a3.737 3.737 0 0 0 3.734 3.732l17.043.002a3.74 3.74 0 0 0 3.734-3.734v-16.729a3.74 3.74 0 0 0-3.734-3.734H93.128a3.74 3.74 0 0 0-3.734 3.734z"/>
        <path d="M96.758 194.823a5.732 5.732 0 0 1-5.735-5.732v-9.311a5.732 5.732 0 0 1 5.735-5.735h9.311a5.737 5.737 0 0 1 5.735 5.735v9.311h-.002a5.736 5.736 0 0 1-5.733 5.735l-9.311-.003zm-3.736-15.043v9.311a3.742 3.742 0 0 0 3.736 3.734h9.311a3.742 3.742 0 0 0 3.734-3.734v-9.311a3.738 3.738 0 0 0-3.734-3.734l-9.311-.002a3.743 3.743 0 0 0-3.736 3.736zM120.021 200.031a5.734 5.734 0 0 1-5.734-5.732V177.57a5.736 5.736 0 0 1 5.734-5.734l17.043.002a5.733 5.733 0 0 1 5.734 5.732v16.729a5.738 5.738 0 0 1-5.734 5.735l-17.043-.003zm-3.734-22.462v16.729a3.737 3.737 0 0 0 3.734 3.732l17.043.002a3.74 3.74 0 0 0 3.734-3.734v-16.729a3.74 3.74 0 0 0-3.734-3.734h-17.043a3.74 3.74 0 0 0-3.734 3.734z"/>
        <path d="M123.651 194.823a5.735 5.735 0 0 1-5.735-5.732v-9.311a5.737 5.737 0 0 1 5.735-5.735h9.31a5.734 5.734 0 0 1 5.733 5.735v9.311a5.736 5.736 0 0 1-5.733 5.735l-9.31-.003zm-3.734-15.043v9.311a3.739 3.739 0 0 0 3.734 3.734h9.31a3.742 3.742 0 0 0 3.734-3.734v-9.311a3.738 3.738 0 0 0-3.734-3.734l-9.31-.002a3.74 3.74 0 0 0-3.734 3.736zM146.915 200.031a5.734 5.734 0 0 1-5.735-5.732V177.57a5.735 5.735 0 0 1 5.735-5.734l17.042.002a5.734 5.734 0 0 1 5.735 5.732v16.729a5.739 5.739 0 0 1-5.735 5.735l-17.042-.003zm-3.735-22.462-.002 16.729a3.738 3.738 0 0 0 3.737 3.732l17.042.002a3.74 3.74 0 0 0 3.734-3.734v-16.729a3.74 3.74 0 0 0-3.734-3.734h-17.042a3.738 3.738 0 0 0-3.735 3.734z"/>
        <path d="M150.544 194.823a5.735 5.735 0 0 1-5.735-5.732l.002-9.311a5.733 5.733 0 0 1 5.733-5.735h9.31a5.734 5.734 0 0 1 5.733 5.735v9.311a5.737 5.737 0 0 1-5.733 5.735l-9.31-.003zm-3.734-15.043v9.311a3.74 3.74 0 0 0 3.734 3.734h9.31a3.742 3.742 0 0 0 3.734-3.734v-9.311a3.738 3.738 0 0 0-3.734-3.734l-9.31-.002a3.74 3.74 0 0 0-3.734 3.736zM173.808 200.031a5.733 5.733 0 0 1-5.734-5.732V177.57a5.735 5.735 0 0 1 5.734-5.734l17.043.002a5.733 5.733 0 0 1 5.734 5.732v16.729h-.002a5.735 5.735 0 0 1-5.732 5.735l-17.043-.003zm-3.735-22.462v16.729a3.737 3.737 0 0 0 3.734 3.732l17.043.002a3.74 3.74 0 0 0 3.734-3.734h-.002l.002-16.729a3.74 3.74 0 0 0-3.734-3.734h-17.043a3.741 3.741 0 0 0-3.734 3.734z"/>
        <path d="M177.437 194.823a5.735 5.735 0 0 1-5.735-5.732v-9.311a5.737 5.737 0 0 1 5.735-5.735h9.311a5.737 5.737 0 0 1 5.735 5.735v9.311h-.002a5.737 5.737 0 0 1-5.733 5.735l-9.311-.003zm-3.735-15.043v9.311a3.741 3.741 0 0 0 3.734 3.734h9.311a3.741 3.741 0 0 0 3.734-3.734v-9.311a3.737 3.737 0 0 0-3.734-3.734l-9.311-.002a3.742 3.742 0 0 0-3.734 3.736zM200.701 200.031a5.731 5.731 0 0 1-5.734-5.732V177.57a5.734 5.734 0 0 1 5.734-5.734l17.043.002a5.733 5.733 0 0 1 5.734 5.732v16.729h-.002a5.735 5.735 0 0 1-5.732 5.735l-17.043-.003zm-3.735-22.462v16.729a3.736 3.736 0 0 0 3.734 3.732l17.043.002a3.742 3.742 0 0 0 3.734-3.734h-.002l.002-16.729a3.74 3.74 0 0 0-3.734-3.734H200.7a3.74 3.74 0 0 0-3.734 3.734z"/>
        <path d="M204.329 194.823a5.735 5.735 0 0 1-5.735-5.732l.002-9.311a5.733 5.733 0 0 1 5.733-5.735h9.311a5.737 5.737 0 0 1 5.735 5.735v9.311h-.002a5.737 5.737 0 0 1-5.733 5.735l-9.311-.003zm-3.734-15.043v9.311a3.741 3.741 0 0 0 3.734 3.734h9.311a3.742 3.742 0 0 0 3.734-3.734v-9.311a3.738 3.738 0 0 0-3.734-3.734l-9.311-.002a3.742 3.742 0 0 0-3.734 3.736zM227.592 200.031a5.734 5.734 0 0 1-5.734-5.732l.002-16.729a5.733 5.733 0 0 1 5.732-5.734l17.045.002a5.735 5.735 0 0 1 5.735 5.732v16.729h-.002a5.735 5.735 0 0 1-5.732 5.735l-17.046-.003zm-3.732-22.462-.002 16.729a3.738 3.738 0 0 0 3.734 3.732l17.045.002a3.742 3.742 0 0 0 3.734-3.734h-.002l.002-16.729a3.74 3.74 0 0 0-3.734-3.734h-17.045a3.738 3.738 0 0 0-3.732 3.734z"/>
        <path d="M231.222 194.823a5.735 5.735 0 0 1-5.735-5.732l.002-9.311a5.733 5.733 0 0 1 5.733-5.735h9.311a5.734 5.734 0 0 1 5.735 5.735v9.311a5.737 5.737 0 0 1-5.735 5.735l-9.311-.003zm-3.734-15.043v9.311a3.74 3.74 0 0 0 3.734 3.734h9.311a3.742 3.742 0 0 0 3.736-3.734h-.002l.002-9.311a3.739 3.739 0 0 0-3.736-3.734l-9.311-.002a3.74 3.74 0 0 0-3.734 3.736zM254.485 200.031a5.735 5.735 0 0 1-5.735-5.732V177.57a5.737 5.737 0 0 1 5.735-5.734l17.042.002a5.732 5.732 0 0 1 5.735 5.732v16.729a5.736 5.736 0 0 1-5.735 5.735l-17.042-.003zm-3.734-22.462v16.729a3.737 3.737 0 0 0 3.734 3.732l17.042.002a3.741 3.741 0 0 0 3.736-3.734h-.002l.002-16.729a3.74 3.74 0 0 0-3.736-3.734h-17.042a3.74 3.74 0 0 0-3.734 3.734z"/>
        <path d="M258.116 194.823a5.733 5.733 0 0 1-5.735-5.732v-9.311a5.734 5.734 0 0 1 5.735-5.735h9.311a5.734 5.734 0 0 1 5.733 5.735v9.311a5.736 5.736 0 0 1-5.733 5.735l-9.311-.003zm-3.734-15.043-.002 9.311a3.742 3.742 0 0 0 3.736 3.734h9.311a3.742 3.742 0 0 0 3.734-3.734h-.002l.002-9.311a3.738 3.738 0 0 0-3.734-3.734l-9.311-.002a3.74 3.74 0 0 0-3.734 3.736zM281.378 200.031a5.733 5.733 0 0 1-5.734-5.732V177.57a5.735 5.735 0 0 1 5.734-5.734l17.043.002a5.732 5.732 0 0 1 5.734 5.732v16.729a5.737 5.737 0 0 1-5.734 5.735l-17.043-.003zm-3.734-22.462v16.729a3.737 3.737 0 0 0 3.734 3.732l17.043.002a3.74 3.74 0 0 0 3.734-3.734v-16.729a3.74 3.74 0 0 0-3.734-3.734h-17.043a3.74 3.74 0 0 0-3.734 3.734z"/>
        <path d="M285.007 194.826a5.737 5.737 0 0 1-5.733-5.735v-9.311a5.734 5.734 0 0 1 5.733-5.735h9.313a5.733 5.733 0 0 1 5.732 5.735v9.311a5.736 5.736 0 0 1-5.732 5.735h-9.313zm-3.732-15.046-.002 9.311a3.741 3.741 0 0 0 3.734 3.734h9.313a3.742 3.742 0 0 0 3.734-3.734h-.002l.002-9.311a3.738 3.738 0 0 0-3.734-3.734h-9.313a3.736 3.736 0 0 0-3.732 3.734zM308.271 200.032a5.735 5.735 0 0 1-5.735-5.733l.002-16.729a5.73 5.73 0 0 1 5.733-5.733h17.043a5.736 5.736 0 0 1 5.735 5.733v16.729h-.003a5.731 5.731 0 0 1-5.732 5.733h-17.043zm-3.734-22.462v16.729a3.74 3.74 0 0 0 3.734 3.733h17.043a3.739 3.739 0 0 0 3.733-3.733V177.57a3.736 3.736 0 0 0-3.733-3.733h-17.043a3.738 3.738 0 0 0-3.734 3.733z"/>
        <path d="M311.9 194.823a5.731 5.731 0 0 1-5.734-5.732v-9.312a5.732 5.732 0 0 1 5.734-5.734h9.312a5.737 5.737 0 0 1 5.735 5.734v9.312h-.003a5.735 5.735 0 0 1-5.732 5.734l-9.312-.002zm-3.733-15.044-.002 9.312a3.738 3.738 0 0 0 3.735 3.731l9.312.003a3.741 3.741 0 0 0 3.734-3.734h-.003l.003-9.312a3.738 3.738 0 0 0-3.734-3.733l-9.312-.002a3.74 3.74 0 0 0-3.733 3.735zM335.164 200.031a5.735 5.735 0 0 1-5.735-5.731l.002-16.729a5.733 5.733 0 0 1 5.733-5.735h17.043a5.735 5.735 0 0 1 5.735 5.735V194.3h-.002a5.733 5.733 0 0 1-5.733 5.733l-17.043-.002zm-3.735-22.46V194.3a3.738 3.738 0 0 0 3.735 3.731l17.043.002a3.74 3.74 0 0 0 3.735-3.733h-.002l.002-16.729a3.74 3.74 0 0 0-3.735-3.735h-17.043a3.74 3.74 0 0 0-3.735 3.735z"/>
        <path d="M338.794 194.823a5.732 5.732 0 0 1-5.734-5.733v-9.311a5.734 5.734 0 0 1 5.734-5.734h9.311a5.737 5.737 0 0 1 5.734 5.734v9.311h-.002a5.734 5.734 0 0 1-5.732 5.735l-9.311-.002zm-3.733-15.044-.002 9.311a3.739 3.739 0 0 0 3.735 3.733l9.311.002a3.74 3.74 0 0 0 3.733-3.735v-9.311a3.737 3.737 0 0 0-3.733-3.733l-9.311-.002a3.739 3.739 0 0 0-3.733 3.735zM411.045 200.031a5.732 5.732 0 0 1-5.736-5.731v-16.73a5.733 5.733 0 0 1 5.736-5.734h17.041a5.737 5.737 0 0 1 5.736 5.734v16.73h-.003a5.735 5.735 0 0 1-5.733 5.733l-17.041-.002zm-3.736-22.461v16.73a3.737 3.737 0 0 0 3.736 3.731l17.041.002a3.74 3.74 0 0 0 3.734-3.733v-16.73a3.74 3.74 0 0 0-3.734-3.734h-17.041a3.74 3.74 0 0 0-3.736 3.734z"/>
        <path d="M414.672 194.823a5.732 5.732 0 0 1-5.734-5.733v-9.311a5.732 5.732 0 0 1 5.734-5.733h9.312a5.731 5.731 0 0 1 5.733 5.733v9.311a5.735 5.735 0 0 1-5.733 5.735l-9.312-.002zm-3.734-15.044v9.311a3.74 3.74 0 0 0 3.734 3.734h9.312a3.74 3.74 0 0 0 3.734-3.734h-.002l.002-9.311a3.74 3.74 0 0 0-3.734-3.734h-9.312a3.74 3.74 0 0 0-3.734 3.734zM106.791 226.07a5.735 5.735 0 0 1-5.734-5.734l.002-16.727a5.735 5.735 0 0 1 5.732-5.736l17.043.002a5.735 5.735 0 0 1 5.736 5.734v16.727h-.002a5.735 5.735 0 0 1-5.734 5.736l-17.043-.002zm-3.734-22.461v16.727a3.739 3.739 0 0 0 3.734 3.734l17.043.002a3.743 3.743 0 0 0 3.736-3.736h-.002l.002-16.727a3.74 3.74 0 0 0-3.736-3.735h-17.043a3.74 3.74 0 0 0-3.734 3.735z"/>
        <path d="M110.422 220.863a5.734 5.734 0 0 1-5.735-5.735v-9.311a5.736 5.736 0 0 1 5.735-5.734l9.311.002a5.732 5.732 0 0 1 5.732 5.732v9.311a5.733 5.733 0 0 1-5.732 5.735h-9.311zm-3.735-15.046v9.311a3.737 3.737 0 0 0 3.735 3.733l9.311.003a3.74 3.74 0 0 0 3.733-3.736v-9.311a3.738 3.738 0 0 0-3.733-3.733h-9.311a3.739 3.739 0 0 0-3.735 3.733zM66.393 226.071a5.735 5.735 0 0 1-5.734-5.735v-16.727a5.732 5.732 0 0 1 5.734-5.734h30.932a5.735 5.735 0 0 1 5.734 5.734v16.727h-.002a5.733 5.733 0 0 1-5.732 5.735H66.393zm-3.734-22.462v16.727a3.74 3.74 0 0 0 3.734 3.735h30.932a3.741 3.741 0 0 0 3.733-3.735v-16.727a3.74 3.74 0 0 0-3.733-3.736H66.393a3.743 3.743 0 0 0-3.734 3.736z"/>
        <path d="M70.023 220.863a5.735 5.735 0 0 1-5.734-5.735v-9.311a5.735 5.735 0 0 1 5.734-5.734l23.197.002a5.732 5.732 0 0 1 5.734 5.732v9.311a5.735 5.735 0 0 1-5.734 5.735H70.023zm-3.733-15.046-.002 9.311a3.738 3.738 0 0 0 3.735 3.733l23.197.003a3.743 3.743 0 0 0 3.735-3.736h-.002l.002-9.311a3.739 3.739 0 0 0-3.735-3.733H70.023a3.736 3.736 0 0 0-3.733 3.733zM375.484 226.071a5.732 5.732 0 0 1-5.733-5.735v-16.728a5.732 5.732 0 0 1 5.733-5.733h30.929a5.735 5.735 0 0 1 5.735 5.733v16.728h-.002a5.732 5.732 0 0 1-5.733 5.735h-30.929zm-3.733-22.463-.002 16.728a3.743 3.743 0 0 0 3.735 3.737h30.929a3.742 3.742 0 0 0 3.734-3.737v-16.728a3.742 3.742 0 0 0-3.734-3.735h-30.929a3.74 3.74 0 0 0-3.733 3.735z"/>
        <path d="M379.113 220.862a5.732 5.732 0 0 1-5.734-5.733v-9.312a5.735 5.735 0 0 1 5.734-5.734l23.198.002a5.733 5.733 0 0 1 5.734 5.732v9.312h-.002a5.735 5.735 0 0 1-5.732 5.735l-23.198-.002zm-3.732-15.045-.003 9.312a3.738 3.738 0 0 0 3.735 3.733l23.198.002a3.742 3.742 0 0 0 3.734-3.735h-.002l.002-9.312a3.736 3.736 0 0 0-3.734-3.732l-23.198-.002a3.737 3.737 0 0 0-3.732 3.734zM361.95 200.032a5.731 5.731 0 0 1-5.734-5.732v-16.728a5.732 5.732 0 0 1 5.734-5.734h39.452a5.732 5.732 0 0 1 5.732 5.734V194.3a5.735 5.735 0 0 1-5.732 5.734l-39.452-.002zm-3.733-22.46-.002 16.728a3.737 3.737 0 0 0 3.735 3.732h39.452a3.734 3.734 0 0 0 3.732-3.732v-16.728a3.738 3.738 0 0 0-3.732-3.734H361.95a3.738 3.738 0 0 0-3.733 3.734z"/>
        <path d="M365.579 194.826a5.733 5.733 0 0 1-5.733-5.735v-9.308a5.733 5.733 0 0 1 5.733-5.736h31.72a5.736 5.736 0 0 1 5.735 5.736v9.308h-.002a5.734 5.734 0 0 1-5.733 5.735h-31.72zm-3.732-15.043-.002 9.308a3.74 3.74 0 0 0 3.734 3.735h31.72a3.74 3.74 0 0 0 3.735-3.735h-.002l.002-9.308a3.74 3.74 0 0 0-3.735-3.737h-31.72a3.738 3.738 0 0 0-3.732 3.737zM133.303 252.424a5.732 5.732 0 0 1-5.733-5.733v-16.729a5.733 5.733 0 0 1 5.733-5.733h205.149a5.732 5.732 0 0 1 5.733 5.733v16.729a5.735 5.735 0 0 1-5.733 5.735l-205.149-.002zm-3.733-22.462v16.729a3.735 3.735 0 0 0 3.733 3.733l205.149.002a3.742 3.742 0 0 0 3.735-3.735h-.002l.002-16.729a3.739 3.739 0 0 0-3.735-3.733H133.303a3.735 3.735 0 0 0-3.733 3.733z"/>
        <path d="M136.933 247.216a5.733 5.733 0 0 1-5.734-5.732v-9.312a5.734 5.734 0 0 1 5.734-5.734h197.416a5.735 5.735 0 0 1 5.734 5.734v9.312h-.002a5.735 5.735 0 0 1-5.732 5.734l-197.416-.002zm-3.735-15.044v9.312a3.74 3.74 0 0 0 3.735 3.733h197.416a3.74 3.74 0 0 0 3.735-3.733h-.003l.003-9.312a3.739 3.739 0 0 0-3.735-3.733l-197.416-.002a3.742 3.742 0 0 0-3.735 3.735zM133.685 226.07a5.734 5.734 0 0 1-5.734-5.734v-16.727a5.737 5.737 0 0 1 5.734-5.736l17.043.002a5.734 5.734 0 0 1 5.734 5.734v16.727a5.737 5.737 0 0 1-5.734 5.736l-17.043-.002zm-3.734-22.461v16.727a3.738 3.738 0 0 0 3.734 3.734l17.043.002a3.74 3.74 0 0 0 3.734-3.736v-16.727a3.738 3.738 0 0 0-3.734-3.735h-17.043a3.74 3.74 0 0 0-3.734 3.735z"/>
        <path d="M137.315 220.863a5.738 5.738 0 0 1-5.737-5.735l.002-9.311a5.735 5.735 0 0 1 5.734-5.734l9.309.002a5.732 5.732 0 0 1 5.734 5.732v9.311a5.735 5.735 0 0 1-5.734 5.735h-9.308zm-3.735-15.046v9.311a3.737 3.737 0 0 0 3.735 3.733l9.309.003a3.743 3.743 0 0 0 3.735-3.736v-9.311a3.739 3.739 0 0 0-3.735-3.733h-9.309a3.739 3.739 0 0 0-3.735 3.733zM160.578 226.07a5.735 5.735 0 0 1-5.736-5.734l.002-16.727a5.735 5.735 0 0 1 5.734-5.736l17.043.002a5.732 5.732 0 0 1 5.734 5.734v16.727a5.737 5.737 0 0 1-5.734 5.736l-17.043-.002zm-3.736-22.461v16.727a3.74 3.74 0 0 0 3.736 3.734l17.043.002a3.743 3.743 0 0 0 3.734-3.736v-16.727a3.74 3.74 0 0 0-3.734-3.735h-17.043a3.742 3.742 0 0 0-3.736 3.735z"/>
        <path d="M164.208 220.863a5.736 5.736 0 0 1-5.736-5.735l.002-9.311a5.735 5.735 0 0 1 5.734-5.734l9.309.002a5.733 5.733 0 0 1 5.735 5.732v9.311a5.734 5.734 0 0 1-5.735 5.735h-9.309zm-3.735-15.046v9.311a3.737 3.737 0 0 0 3.735 3.733l9.309.003a3.741 3.741 0 0 0 3.735-3.736v-9.311a3.739 3.739 0 0 0-3.735-3.733h-9.309a3.74 3.74 0 0 0-3.735 3.733zM187.472 226.07a5.732 5.732 0 0 1-5.734-5.734v-16.727a5.735 5.735 0 0 1 5.734-5.736l17.041.002a5.734 5.734 0 0 1 5.736 5.734v16.727h-.002a5.735 5.735 0 0 1-5.734 5.736l-17.041-.002zm-3.734-22.461-.002 16.727a3.74 3.74 0 0 0 3.736 3.734l17.041.002a3.743 3.743 0 0 0 3.736-3.736v-16.727a3.74 3.74 0 0 0-3.736-3.735h-17.041a3.738 3.738 0 0 0-3.734 3.735z"/>
        <path d="M191.099 220.863a5.733 5.733 0 0 1-5.732-5.735v-9.311a5.733 5.733 0 0 1 5.732-5.734l9.313.002a5.732 5.732 0 0 1 5.732 5.732v9.311a5.735 5.735 0 0 1-5.732 5.735h-9.313zm-3.733-15.046v9.311a3.736 3.736 0 0 0 3.733 3.733l9.313.003a3.74 3.74 0 0 0 3.733-3.736h-.002l.002-9.311a3.738 3.738 0 0 0-3.733-3.733h-9.313a3.739 3.739 0 0 0-3.733 3.733zM214.363 226.072a5.737 5.737 0 0 1-5.734-5.736v-16.727a5.735 5.735 0 0 1 5.734-5.736l17.043.002a5.734 5.734 0 0 1 5.734 5.734v16.727a5.737 5.737 0 0 1-5.734 5.736h-17.043zm-3.734-22.463v16.727a3.738 3.738 0 0 0 3.734 3.734l17.043.002a3.742 3.742 0 0 0 3.734-3.736v-16.727a3.739 3.739 0 0 0-3.734-3.735h-17.043a3.74 3.74 0 0 0-3.734 3.735z"/>
        <path d="M217.993 220.863a5.737 5.737 0 0 1-5.735-5.735v-9.311a5.737 5.737 0 0 1 5.735-5.734l9.311.002a5.734 5.734 0 0 1 5.735 5.732v9.311h-.002a5.733 5.733 0 0 1-5.733 5.735h-9.311zm-3.734-15.046v9.311a3.735 3.735 0 0 0 3.734 3.733l9.311.003a3.742 3.742 0 0 0 3.734-3.736v-9.311a3.739 3.739 0 0 0-3.734-3.733h-9.311a3.738 3.738 0 0 0-3.734 3.733zM241.257 226.07a5.735 5.735 0 0 1-5.736-5.734l.002-16.727a5.735 5.735 0 0 1 5.734-5.736l17.043.002a5.734 5.734 0 0 1 5.734 5.734v16.727a5.738 5.738 0 0 1-5.734 5.736l-17.043-.002zm-3.734-22.461-.002 16.727a3.74 3.74 0 0 0 3.736 3.734l17.043.002a3.742 3.742 0 0 0 3.734-3.736v-16.727a3.74 3.74 0 0 0-3.734-3.735h-17.043a3.738 3.738 0 0 0-3.734 3.735z"/>
        <path d="M244.886 220.863a5.737 5.737 0 0 1-5.735-5.735v-9.311a5.737 5.737 0 0 1 5.735-5.734l9.311.002a5.733 5.733 0 0 1 5.734 5.732v9.311a5.736 5.736 0 0 1-5.734 5.735h-9.311zm-3.734-15.046v9.311a3.735 3.735 0 0 0 3.733 3.733l9.311.003a3.74 3.74 0 0 0 3.733-3.736v-9.311a3.738 3.738 0 0 0-3.733-3.733h-9.311a3.736 3.736 0 0 0-3.733 3.733zM268.148 226.07a5.734 5.734 0 0 1-5.734-5.734v-16.727a5.735 5.735 0 0 1 5.734-5.736l17.045.002a5.734 5.734 0 0 1 5.734 5.734v16.727a5.737 5.737 0 0 1-5.734 5.736l-17.045-.002zm-3.733-22.461v16.727a3.739 3.739 0 0 0 3.734 3.734l17.045.002a3.742 3.742 0 0 0 3.734-3.736v-16.727a3.74 3.74 0 0 0-3.734-3.735h-17.045a3.74 3.74 0 0 0-3.734 3.735z"/>
        <path d="M271.779 220.863a5.735 5.735 0 0 1-5.735-5.735v-9.311a5.736 5.736 0 0 1 5.735-5.734l9.311.002a5.733 5.733 0 0 1 5.734 5.732v9.311h-.002a5.733 5.733 0 0 1-5.732 5.735h-9.311zm-3.734-15.046-.002 9.311a3.738 3.738 0 0 0 3.735 3.733l9.311.003a3.74 3.74 0 0 0 3.733-3.736v-9.311a3.738 3.738 0 0 0-3.733-3.733h-9.311a3.738 3.738 0 0 0-3.733 3.733zM295.042 226.072a5.738 5.738 0 0 1-5.736-5.736l.002-16.727a5.735 5.735 0 0 1 5.734-5.736l17.043.002a5.736 5.736 0 0 1 5.734 5.734v16.727h-.003a5.734 5.734 0 0 1-5.731 5.736h-17.043zm-3.734-22.463-.002 16.727a3.741 3.741 0 0 0 3.736 3.734l17.043.002a3.742 3.742 0 0 0 3.733-3.736v-16.727a3.74 3.74 0 0 0-3.733-3.735h-17.043a3.74 3.74 0 0 0-3.734 3.735z"/>
        <path d="M298.672 220.863a5.735 5.735 0 0 1-5.734-5.735v-9.311a5.735 5.735 0 0 1 5.734-5.734l9.311.002a5.734 5.734 0 0 1 5.735 5.732v9.311a5.734 5.734 0 0 1-5.735 5.735h-9.311zm-3.734-15.046-.002 9.311a3.738 3.738 0 0 0 3.735 3.733l9.311.003a3.746 3.746 0 0 0 3.736-3.736h-.003l.003-9.311a3.742 3.742 0 0 0-3.736-3.733h-9.311a3.737 3.737 0 0 0-3.733 3.733zM321.934 226.07a5.735 5.735 0 0 1-5.734-5.734l.002-16.727a5.735 5.735 0 0 1 5.732-5.736l17.045.002a5.732 5.732 0 0 1 5.734 5.734v16.727a5.737 5.737 0 0 1-5.734 5.736l-17.045-.002zm-3.733-22.461-.002 16.727a3.74 3.74 0 0 0 3.734 3.734l17.045.002a3.742 3.742 0 0 0 3.735-3.736h-.002l.002-16.727a3.74 3.74 0 0 0-3.735-3.735h-17.045a3.74 3.74 0 0 0-3.732 3.735z"/>
        <path d="M325.564 220.863a5.736 5.736 0 0 1-5.736-5.735l.002-9.311a5.735 5.735 0 0 1 5.734-5.734l9.31.002a5.732 5.732 0 0 1 5.734 5.732v9.311a5.733 5.733 0 0 1-5.734 5.735h-9.31zm-3.735-15.046v9.311a3.74 3.74 0 0 0 3.735 3.733l9.31.003a3.741 3.741 0 0 0 3.735-3.736h-.002l.002-9.311a3.74 3.74 0 0 0-3.735-3.733h-9.31a3.74 3.74 0 0 0-3.735 3.733zM348.827 226.071a5.734 5.734 0 0 1-5.733-5.735v-16.727a5.736 5.736 0 0 1 5.733-5.736l17.044.002a5.734 5.734 0 0 1 5.734 5.734v16.727h-.002a5.733 5.733 0 0 1-5.732 5.735h-17.044zm-3.733-22.462v16.727a3.74 3.74 0 0 0 3.733 3.735h17.044a3.739 3.739 0 0 0 3.732-3.735v-16.727a3.738 3.738 0 0 0-3.732-3.735h-17.044a3.738 3.738 0 0 0-3.733 3.735z"/>
        <path d="M352.457 220.862a5.735 5.735 0 0 1-5.735-5.734l.002-9.31a5.734 5.734 0 0 1 5.733-5.735l9.311.002a5.734 5.734 0 0 1 5.735 5.733v9.31h-.002a5.735 5.735 0 0 1-5.733 5.736l-9.311-.002zm-3.733-15.044-.002 9.31a3.742 3.742 0 0 0 3.735 3.735h9.311a3.743 3.743 0 0 0 3.735-3.735h-.002l.002-9.31a3.738 3.738 0 0 0-3.735-3.733l-9.311-.002a3.739 3.739 0 0 0-3.733 3.735zM217.624 108.767V91.514h2.001v17.253h-2.001zM373.538 108.874v-17.36h2v17.36h-2z"/>
    </g>
</svg>
