<svg height="361.446" viewBox="0 0 328.202 614.458" width="193.06" xmlns="http://www.w3.org/2000/svg">
    <g fill="none" stroke="#f4f4f4">
        <g transform="translate(111.339 203.848)">
            <circle cx="53.929" cy="146.728" r="123.144" stroke-width="3.4"/>
            <path d="m-84.517-202.848-25.779 612.458h326.121l-23.137-612.458m-276.871 0h276.537c.185 0 .334.15.334.334V383.21a.333.333 0 0 1-.334.334H-84.183a.333.333 0 0 1-.334-.334v-585.723c0-.185.149-.334.334-.334z" stroke-width="3.4"/>
            <path d="m192.302 383.357 23.523 26.253M-84.451 383.668l-25.845 25.942"/>
        </g>
        <g stroke-width="3.4">
            <rect height="58.863" ry=".272" width="103.85" x="173.995" y="119.402"/>
            <rect height="58.863" ry=".272" width="103.85" x="53.995" y="119.402"/>
            <circle cx="165.177" cy="350.575" r="111.949"/>
        </g>
    </g>
    <g fill="#f4f4f4" fill-opacity=".5" stroke-width="1.7">
        <path d="M284.8 607.818q0 .544-.13.915-.196.554-.626.554-.286 0-.599-.132-.376-.159-.412-.39.127 0 .299.046.399.104.498.104.386 0 .58-.386.155-.308.155-.738 0-.304-.2-.866-.195-.567-.195-.79 0-.067.037-.108.04-.045.109-.045.176 0 .344.816.14.689.14 1.02zM286.546 608.28q0 .463-.268.725-.267.263-.738.263-.259 0-.4-.122-.14-.122-.14-.376 0-.358.467-.721.444-.345.82-.345.173 0 .227.213.032.123.032.363zm-.277.127q0-.054-.013-.104-.01-.055-.036-.123-.073.05-.24.245-.087.1-.15.145 0-.086.018-.14.036-.077.059-.132-.2 0-.417.168-.213.168-.213.363 0 .131.145.131.276 0 .535-.136.312-.163.312-.417zM288.414 608.466q0 .222-.168.499-.19.312-.394.312-.06 0-.1-.063-.036-.068-.036-.131 0-.082.172-.254.177-.177.177-.24 0-.041-.014-.082l-.018-.055q-.34.077-.694.39-.349.313-.53.354-.036-.1-.036-.204 0-.127.059-.268.04-.1.136-.24.158-.24.335-.544l.313-.548q.226-.39.33-.553.055-.082.096-.123.059-.054.14-.072.055.018.078.068.027.05.027.117 0 .155-.2.418-.362.471-.371.49-.204.307-.204.557l.009.045q.249-.122.294-.14.186-.078.318-.078.145 0 .213.1.068.095.068.245zM290.517 608.199q0 .308-.15.657-.163.385-.403.53-.05-.059-.086-.131-.032-.073-.032-.145 0-.077.227-.458.1-.168.09-.295l-.004-.059q-.168.05-.58.304-.409.25-.826.508-.063 0-.118-.046-.05-.05-.05-.108 0-.096.304-.64.091-.163.327-.566.072.095.095.213.023.113.023.272v.104q.417-.25.652-.376.259-.14.354-.14.063 0 .118.144.059.145.059.232zM294.457 609.078q0 .082-.073.127-.068.04-.154.04-.077 0-.195-.017-.267-.041-.344-.041-.136 0-.535.032-.227.018-.327.018-.276 0-.276-.277 0-.263.172-.752.095-.277.358-.907.236-.567.3-.798.022-.072.036-.095.036-.055.09-.055.086 0 .145.127.06.123.06.223 0 .158-.187.534l-.362.73q-.195.426-.195.649 0 .113.095.158.068.032.2.032.1 0 .344-.023.245-.027.326-.027.204 0 .336.059.186.082.186.263zM296.143 608.28q0 .463-.267.725-.268.263-.74.263-.258 0-.398-.122t-.14-.376q0-.358.466-.721.444-.345.82-.345.173 0 .227.213.032.123.032.363zm-.276.127q0-.054-.014-.104-.01-.055-.036-.123-.073.05-.24.245-.087.1-.15.145 0-.086.018-.14.036-.077.059-.132-.2 0-.417.168-.213.168-.213.363 0 .131.145.131.276 0 .535-.136.312-.163.312-.417zM298.052 608.185q0 .145-.078.308-.072.163-.185.272l-.005-.063q0-.055.013-.168.014-.113.014-.168 0-.077-.023-.113-.023-.04-.095-.04-.213 0-.53.33l-.685.72q-.027 0-.054-.004l-.091-.023q.013-.163.113-.363.268-.539.277-.575l.054-.213q.018-.068.05-.14.036-.078.082-.137.05-.063.127-.095l.045.544.3-.245q.199-.159.344-.159.145 0 .235.096.091.095.091.235zM300.277 607.66q0 .19-.507.502-.49.3-.712.3-.104 0-.14-.073-.032-.073-.032-.204v-.122q.303 0 .553-.091.25-.09.435-.3-.136-.05-.277-.05-.33 0-.702.255-.408.276-.408.589 0 .3.408.417.063.018.766.127.412.063.412.222 0 .068-.15.109-.149.045-.38.045-.58 0-.916-.177-.444-.235-.444-.757 0-.544.544-.866.462-.272 1.052-.272.177 0 .322.082.176.1.176.263zM302.082 606.848q0 .1-.24.417-.24.317-.24.485 0 .086.099.172.227.2.227.245 0 .059-.041.113-.037.055-.095.055-.05 0-.141-.055-.063-.036-.245-.177l-.104.2q-.127.24-.172.349l-.136.417q-.118.281-.295.281l-.005-.104q0-.322.209-.762.04-.081.226-.421-.358-.195-.789-.195 0-.168.068-.245.073-.082.24-.082.155 0 .386.055l.227.054q.086-.027.235-.295.368-.643.5-.739.035.06.058.118.027.06.027.114zM303.755 608.466q0 .222-.168.499-.19.312-.395.312-.059 0-.1-.063-.036-.068-.036-.131 0-.082.173-.254.176-.177.176-.24 0-.041-.013-.082l-.018-.055q-.34.077-.694.39-.349.313-.53.354-.037-.1-.037-.204 0-.127.06-.268.04-.1.135-.24.159-.24.336-.544l.313-.548q.226-.39.33-.553.055-.082.096-.123.059-.054.14-.072.055.018.077.068.028.05.028.117 0 .155-.2.418-.363.471-.372.49-.204.307-.204.557l.01.045q.249-.122.294-.14.186-.078.317-.078.145 0 .213.1.068.095.068.245zM307.476 606.988q0 .213-.226.571-.145.227-.476.653-.331.422-.413.553l.34.109q.331.1.331.363-.136.022-.267.04l-.05-.005v-.036q-.073-.018-.118-.018-.086 0-.272.027-.186.027-.281.027-.123 0-.2-.045-.077-.045-.077-.163 0-.095.35-.54.652-.83.657-.838.353-.48.353-.644 0-.063-.045-.095-.04-.032-.168-.032-.086 0-.358.168-.131.082-.213.082l-.077-.014q-.027-.018-.059-.068-.032-.054-.032-.086 0-.19.368-.35.312-.135.544-.135.194 0 .299.145.09.127.09.33zM310.2 607.804q0 .549-.593.97-.544.386-1.12.386-.285 0-.453-.145-.168-.146-.168-.422 0-.617.54-1.07.512-.43 1.147-.43.322 0 .485.19.163.19.163.521zm-.276.104q0-.208-.235-.312-.177-.077-.422-.077-.358 0-.748.349t-.39.702q0 .145.073.209.077.059.23.059.445 0 .926-.245.566-.29.566-.685zM312.277 606.988q0 .213-.226.571-.146.227-.476.653-.331.422-.413.553l.34.109q.331.1.331.363-.136.022-.268.04l-.05-.005v-.036q-.072-.018-.117-.018-.086 0-.272.027-.186.027-.281.027-.123 0-.2-.045-.077-.045-.077-.163 0-.095.35-.54.652-.83.656-.838.354-.48.354-.644 0-.063-.045-.095-.041-.032-.168-.032-.086 0-.358.168-.132.082-.213.082l-.077-.014q-.027-.018-.06-.068-.03-.054-.03-.086 0-.19.366-.35.313-.135.544-.135.195 0 .3.145.09.127.09.33zM314.363 606.988q0 .213-.227.571-.145.227-.476.653-.331.422-.413.553l.34.109q.331.1.331.363-.136.022-.267.04l-.05-.005v-.036q-.073-.018-.118-.018-.086 0-.272.027-.186.027-.281.027-.122 0-.2-.045-.077-.045-.077-.163 0-.095.35-.54.652-.83.657-.838.353-.48.353-.644 0-.063-.045-.095-.04-.032-.168-.032-.086 0-.358.168-.131.082-.213.082l-.077-.014q-.027-.018-.059-.068-.032-.054-.032-.086 0-.19.368-.35.312-.135.544-.135.195 0 .299.145.09.127.09.33z"/>
    </g>
</svg>
