<svg height="356.588" viewBox="0 0 1900.424 1176.74" width="575.886" xmlns="http://www.w3.org/2000/svg">
    <g fill="#f4f4f4" fill-opacity=".5" stroke-width="9.9">
        <path d="M544.053 1019.302q0 1.056-.255 1.777-.379 1.074-1.215 1.074-.554 0-1.161-.255-.73-.308-.801-.757.246 0 .58.088.775.202.969.202.748 0 1.126-.748.3-.598.3-1.434 0-.59-.388-1.681-.378-1.1-.378-1.531 0-.132.07-.211.08-.088.211-.088.343 0 .669 1.584.273 1.337.273 1.98zM547.44 1020.2q0 .897-.518 1.407-.52.51-1.435.51-.501 0-.774-.237-.273-.238-.273-.73 0-.696.906-1.4.863-.668 1.593-.668.335 0 .44.413.062.238.062.704zm-.536.246q0-.106-.026-.203-.018-.105-.07-.237-.142.097-.467.475-.167.193-.29.281 0-.167.035-.272.07-.15.114-.256-.387 0-.81.326-.413.326-.413.704 0 .255.281.255.537 0 1.039-.264.607-.317.607-.81zM551.066 1020.56q0 .431-.325.968-.37.607-.766.607-.114 0-.193-.123-.07-.132-.07-.255 0-.159.334-.493.343-.343.343-.466 0-.08-.027-.159l-.035-.105q-.66.15-1.346.756-.678.608-1.03.687-.07-.194-.07-.396 0-.247.114-.52.08-.193.264-.466.308-.466.651-1.056l.608-1.065q.44-.756.642-1.073.106-.159.185-.238.114-.105.273-.14.105.034.15.131.052.097.052.23 0 .298-.387.809-.704.915-.722.95-.396.599-.396 1.083l.018.088q.484-.238.572-.273.36-.15.616-.15.281 0 .413.194.132.185.132.475zM555.15 1020.04q0 .6-.29 1.277-.318.748-.784 1.03-.097-.115-.167-.256-.062-.14-.062-.281 0-.15.44-.89.194-.325.176-.571l-.009-.115q-.325.097-1.126.59-.792.484-1.602.986-.123 0-.229-.088-.096-.097-.096-.212 0-.184.59-1.24.175-.317.633-1.1.14.184.185.413.044.22.044.528v.203q.81-.484 1.267-.73.501-.274.686-.274.123 0 .23.282.113.282.113.449zM562.797 1021.748q0 .158-.14.246-.133.08-.3.08-.15 0-.379-.036-.519-.079-.668-.079-.264 0-1.039.062-.44.035-.633.035-.537 0-.537-.536 0-.51.334-1.461.185-.537.695-1.76.458-1.1.581-1.549.044-.14.07-.185.071-.105.177-.105.167 0 .281.246.115.238.115.431 0 .308-.361 1.039-.36.721-.704 1.416-.379.828-.379 1.259 0 .22.185.308.132.062.387.062.194 0 .67-.044.474-.053.633-.053.396 0 .651.114.36.159.36.51zM566.07 1020.2q0 .897-.519 1.407t-1.434.51q-.502 0-.775-.237-.272-.238-.272-.73 0-.696.906-1.4.862-.668 1.593-.668.334 0 .44.413.061.238.061.704zm-.536.246q0-.106-.027-.203-.017-.105-.07-.237-.14.097-.467.475-.167.193-.29.281 0-.167.035-.272.07-.15.115-.256-.388 0-.81.326-.414.326-.414.704 0 .255.282.255.537 0 1.038-.264.608-.317.608-.81zM569.775 1020.014q0 .282-.15.599-.14.317-.36.528l-.01-.123q0-.106.027-.326.027-.22.027-.326 0-.15-.044-.22-.044-.079-.185-.079-.414 0-1.03.643l-1.329 1.399q-.052 0-.105-.01-.132-.035-.176-.044.026-.317.22-.704.52-1.047.537-1.118.07-.281.105-.413.035-.132.097-.273.07-.15.158-.264.097-.123.247-.185l.088 1.056q.378-.308.58-.475.388-.308.67-.308.281 0 .457.185t.176.457zM574.096 1018.994q0 .37-.986.976-.95.581-1.381.581-.203 0-.273-.14-.062-.141-.062-.397v-.237q.59 0 1.074-.176.484-.176.845-.581-.264-.097-.537-.097-.642 0-1.364.493-.792.537-.792 1.144 0 .58.792.81.123.034 1.487.246.801.123.801.431 0 .132-.29.211-.29.088-.74.088-1.126 0-1.777-.343-.862-.458-.862-1.47 0-1.056 1.056-1.68.897-.528 2.041-.528.343 0 .625.158.343.194.343.51zM577.599 1017.418q0 .194-.467.81-.466.616-.466.942 0 .167.193.334.44.387.44.475 0 .115-.079.22-.07.106-.185.106-.096 0-.272-.106-.124-.07-.476-.343l-.202.387q-.246.467-.334.678l-.264.81q-.23.545-.572.545l-.01-.202q0-.625.405-1.479.08-.158.44-.818-.695-.379-1.53-.379 0-.325.131-.475.14-.158.467-.158.299 0 .748.105l.44.106q.167-.053.457-.572.713-1.25.968-1.434.07.114.115.228.052.115.052.22zM580.846 1020.56q0 .431-.326.968-.37.607-.765.607-.115 0-.194-.123-.07-.132-.07-.255 0-.159.334-.493.343-.343.343-.466 0-.08-.026-.159l-.035-.105q-.66.15-1.347.756-.677.608-1.03.687-.07-.194-.07-.396 0-.247.115-.52.079-.193.264-.466.308-.466.65-1.056.177-.308.608-1.065.44-.756.642-1.073.106-.159.185-.238.115-.105.273-.14.106.034.15.131.052.097.052.23 0 .298-.387.809-.704.915-.721.95-.396.599-.396 1.083l.017.088q.484-.238.572-.273.36-.15.616-.15.282 0 .414.194.132.185.132.475zM588.07 1017.691q0 .414-.44 1.109-.281.44-.923 1.267-.643.819-.801 1.074.026.01.66.211.642.194.642.704-.264.044-.52.079l-.096-.01v-.07q-.14-.035-.229-.035-.167 0-.528.053-.36.053-.545.053-.238 0-.387-.088-.15-.088-.15-.317 0-.185.678-1.047 1.267-1.61 1.276-1.628.686-.933.686-1.25 0-.123-.088-.184-.08-.062-.326-.062-.167 0-.695.325-.255.159-.413.159l-.15-.026q-.053-.035-.114-.132-.062-.106-.062-.168 0-.37.713-.677.607-.264 1.056-.264.378 0 .58.281.177.247.177.643zM593.36 1019.275q0 1.065-1.153 1.883-1.056.748-2.174.748-.554 0-.88-.281-.326-.282-.326-.819 0-1.196 1.048-2.076.994-.836 2.226-.836.625 0 .942.37.316.369.316 1.011zm-.537.203q0-.405-.458-.608-.343-.15-.818-.15-.696 0-1.452.678-.757.678-.757 1.364 0 .282.14.405.15.115.45.115.862 0 1.795-.476 1.1-.563 1.1-1.328zM597.39 1017.691q0 .414-.44 1.109-.282.44-.924 1.267-.643.819-.801 1.074.026.01.66.211.642.194.642.704-.264.044-.519.079l-.097-.01v-.07q-.14-.035-.228-.035-.168 0-.528.053-.361.053-.546.053-.238 0-.387-.088-.15-.088-.15-.317 0-.185.678-1.047 1.267-1.61 1.276-1.628.686-.933.686-1.25 0-.123-.088-.184-.08-.062-.325-.062-.168 0-.696.325-.255.159-.413.159l-.15-.026q-.053-.035-.114-.132-.062-.106-.062-.168 0-.37.713-.677.607-.264 1.056-.264.378 0 .58.281.177.247.177.643zM601.438 1017.691q0 .414-.44 1.109-.282.44-.924 1.267-.643.819-.801 1.074.026.01.66.211.642.194.642.704-.264.044-.519.079l-.097-.01v-.07q-.14-.035-.228-.035-.168 0-.528.053-.361.053-.546.053-.238 0-.387-.088-.15-.088-.15-.317 0-.185.678-1.047 1.267-1.61 1.276-1.628.686-.933.686-1.25 0-.123-.088-.184-.079-.062-.325-.062-.168 0-.696.325-.255.159-.413.159l-.15-.026q-.053-.035-.114-.132-.062-.106-.062-.168 0-.37.713-.677.607-.264 1.056-.264.378 0 .58.281.177.247.177.643z"/>
    </g>
    <g stroke-width="3">
        <circle cx="1460.472" cy="658.322" fill="none" r="329.214" stroke="#f4f4f4" stroke-width="6.6"/>
        <g fill="#f4f4f4" transform="translate(-120.996 -632.98)">
            <rect height="47.426" rx="10.186" width="17.426" x="1571.867" y="1476.976"/>
            <rect height="47.426" rx="10.186" width="17.426" x="1571.867" y="1058.976"/>
            <rect height="47.426" rx="10.186" transform="rotate(-90)" width="17.426" x="-1301.402" y="1348.867"/>
            <rect height="47.426" rx="10.186" transform="rotate(-90)" width="17.426" x="-1301.402" y="1764.867"/>
            <rect height="23.713" rx="5.093" transform="rotate(-135)" width="8.713" x="-2035.531" y="-18.221"/>
            <rect height="23.713" rx="5.093" transform="rotate(-135)" width="8.713" x="-2035.437" y="407.942"/>
            <g transform="rotate(135)">
                <rect height="23.713" rx="5.093" width="8.713" x="-207.479" y="-2256.249"/>
                <rect height="23.713" rx="5.093" width="8.713" x="-207.385" y="-1830.086"/>
            </g>
        </g>
    </g>
    <g fill="none" stroke="#f4f4f4" stroke-width="6.6">
        <path d="M53.59 387.404c6.036 4.554 21.073 10.419 6.407 39.956m-6.408-39.956C20.891 363.012 1.02 324.335 1 282.598c.001-72.256 58.576-130.83 130.832-130.83 3.45 0 6.881.136 10.36.417 50.552 2.409 93.853-28.277 109.871-55.923 22.958-37.925 64.559-63.256 112.076-63.256a130.078 130.078 0 0 1 43.326 7.665c10.678 3.45 20.588 5.952 29.88 7.758 58.632 11.396 92.643-4.862 95.445-8.39C556.35 15.811 589.226 1 625.56 1c43.16 0 81.438 20.898 105.331 53.302 35.49 35.238 75.05 52.474 118.067 56.32a120.818 120.818 0 0 1 16.253-1.179c72.257 0 130.832 58.576 130.832 130.832-.042 45.504-23.724 87.717-62.535 111.471a516.405 516.405 0 0 1 34.974 50.12c27.145 42.453 108.59 36.234 138.514 0 81.916-113.796 213.267-181.611 353.477-182.497a438.952 438.952 0 0 1 0 877.904c-139.848-.909-270.893-68.401-352.842-181.726-31.073-41.365-103.41-52.778-138.904 0-91.78 160.61-262.458 259.86-447.442 260.193A516.414 516.414 0 0 1 4.871 659.326 516.416 516.416 0 0 1 59.997 427.36"/>
        <path d="M876.101 345.987c9.765-5.816 23.17-7.682 34.415-11.624m-34.415 11.624c-53.975 30.916-57.079 88.987-37.395 122.852M86.141 376.633c77.604 38.857 85.046 150.32 67.56 208.551m766.113-255.812a104.504 104.504 0 0 0 49.997-89.11c-.01-58.039-46.471-104.525-104.499-104.58-4.335.032-8.49.32-12.67.912a26.235 26.235 0 0 1-6.02.157c-48.521-4.338-94.843-24.741-134.214-63.833a26.235 26.235 0 0 1-2.63-3.047c-19.15-25.97-49.527-42.639-84.217-42.639-29.195 0-55.162 11.775-73.944 31.077-3.974 4.513-5.867 4.93-8.185 6.273-2.65 1.534-5.39 2.84-8.551 4.135-6.323 2.59-14.244 5.03-23.97 6.883-19.455 3.703-46.03 4.903-78.571-1.422-10.311-2.004-21.27-4.773-32.942-8.545a26.234 26.234 0 0 1-.794-.27c-10.968-3.936-22.465-6.04-34.53-6.12-38.166.022-71.213 20.278-89.57 50.603l.256-.434c-22.078 38.105-71.974 71.924-133.817 68.977-.289-.014-.578-.033-.867-.057a101.504 101.504 0 0 0-8.244-.332c-58.075 0-104.592 46.513-104.6 104.586v.012a104.47 104.47 0 0 0 58.909 94.035m795.923 206.559a371.005 371.005 0 1 1-734.847 72.557c0-24.417 2.359-48.283 6.86-71.382m727.987-1.175a371.092 371.092 0 0 0-43.358-114.353m71.81-134.476c3.767-1.36 6.383-3.231 9.298-4.991"/>
    </g>
    <g fill="none" stroke="#f4f4f4" stroke-width="6.6" transform="translate(-120.996 -632.98)">
        <circle cx="1581.468" cy="1291.302" r="172.837"/>
        <circle cx="642.47" cy="1292.052" r="287.5"/>
        <ellipse cx="304.489" cy="1580.765" rx="38.779" ry="38.766"/>
        <ellipse cx="393.453" cy="1655.742" rx="38.779" ry="38.766"/>
        <path d="M620.778 1690.2c60.475 4.962 112.785-7.37 162.314-25.595 9.717-2.847 11.026 2.95 10.715 10.413-17.8 122.223-142.16 114.08-183.248 32.995-3.176-9.874-1.36-16.762 10.219-17.812z"/>
        <circle cx="988.015" cy="873.084" r="81.847"/>
        <circle cx="746.312" cy="765.377" r="81.847"/>
        <circle cx="485.137" cy="797.823" r="81.847"/>
        <circle cx="251.77" cy="914.18" r="81.847"/>
    </g>
    <path d="M505.677 831.293c7.003 3.907 11.457 9.068 15.573 14.396 15.815-19.02 33.435-31.15 50.955-43.66-22.75 19.48-39.225 38.705-48.698 57.644-7.08-8.43-14.409-16.383-23.79-20.441 3.785-2.471 5.233-5.17 5.96-7.94z" fill="#f4f4f4"/>
    <path d="M521.475 332.271c-85.557 0-170.587 35.22-231.084 95.717-60.498 60.498-95.717 145.528-95.717 231.084 0 85.557 35.22 170.587 95.717 231.084 60.497 60.498 145.527 95.717 231.084 95.717s170.586-35.22 231.084-95.717c60.497-60.497 95.716-145.527 95.716-231.084 0-85.556-35.219-170.586-95.716-231.084-60.498-60.497-145.528-95.717-231.084-95.717z" fill="none" stroke="#f4f4f4" stroke-width="6.6"/>
</svg>
