<svg width="589" height="350" xmlns="http://www.w3.org/2000/svg">
    <path d="M103.52 28.5c-49.16 0-88.77 35.35-88.77 79.34v134.32c0 44 39.61 79.34 88.77 79.34h382c49.16 0 88.77-35.35 88.77-79.34V107.84c0-44-39.61-79.34-88.77-79.34Z" style="fill:none;stroke:#f4f4f4;stroke-miterlimit:10;stroke-width:1.5px"/>
    <path d="M85.25 30c-3-4.81-24.9 2.44-40 12.75C30.07 53.21 19.9 68.09 24.21 72.08M564.79 72.08c4.31-4-5.86-18.87-21.08-29.29-15.06-10.31-36.93-17.56-40-12.75" style="fill:none;stroke:#f4f4f4;stroke-width:1.5px"/>
    <path d="M176.18 290.47c0 3 3.5 2.54 3.5.47V286h-3.5Zm-4.83 3.12a2.26 2.26 0 0 0 2.49 2.33h8.41a2.13 2.13 0 0 0 2.26-2.1v-6.15c0-.75-.56-1.56-1.25-1.56h-1.95v5.06c0 3.85-6.69 3.82-6.69.08V286h-1.48a1.65 1.65 0 0 0-1.79 1.56v6Zm-11.64-6.1a1.49 1.49 0 0 0 1.51 1.47 1.48 1.48 0 1 0 0-2.95 1.49 1.49 0 0 0-1.51 1.48Zm2.86 11.35v-8.43H160v8.43Zm2.43-11.35a1.55 1.55 0 1 0 1.53-1.48 1.51 1.51 0 0 0-1.53 1.48Zm2.86 11.35v-8.43h-2.61v8.43Zm-12-12.11-2.27 8.94s-1.75-6.71-2-7.68a1.73 1.73 0 0 0-3.39 0c-.27 1-2 7.68-2 7.68l-2.29-8.94h-2.74s2.63 9.53 3 10.64a2 2 0 0 0 1.92 1.56 2 2 0 0 0 1.89-1.56c.25-.75 1.95-7 1.95-7s1.71 6.29 1.94 7a2 2 0 0 0 1.89 1.56 2.08 2.08 0 0 0 1.94-1.56c.35-1.11 3-10.64 3-10.64Z" style="fill:#f4f4f4;fill-rule:evenodd"/>
    <rect x="134.95" y="82.8" width="316.89" height="184.94" rx="6.46" style="fill:none;stroke:#f4f4f4;stroke-width:1.5px"/>
    <path style="fill:none;stroke:#f4f4f4;stroke-width:1.5px" d="M142.23 89.39h302.34v171.44H142.23z"/>
    <path d="M106.1 290.74h5.73a2.27 2.27 0 1 1 0 4.49h-5.73a2.27 2.27 0 1 1 0-4.49ZM476.31 290.74H482a2.27 2.27 0 1 1 0 4.49h-5.72a2.27 2.27 0 1 1 0-4.49ZM261.72 292.82a1.06 1.06 0 1 1-1.06-1.06 1.06 1.06 0 0 1 1.06 1.06ZM384.64 293a1.7 1.7 0 1 1-1.7-1.7 1.7 1.7 0 0 1 1.7 1.7Z" style="fill:#f4f4f4"/>
    <rect data-name="TV button" x="405.13" y="286.49" width="13.04" height="13.04" rx="3.88" style="fill:none;stroke:#f4f4f4;stroke-linejoin:round;stroke-width:1.5px"/>
    <path d="m294.49 287.47-6 5.59h1.92v4.67h8.23v-4.67h1.95Zm-2.09 5.47h4.18v3h-4.18Z" style="fill:#f4f4f4"/>
    <circle cx="294.5" cy="293.57" r="12.08" style="fill:none;stroke:#f4f4f4;stroke-width:1.5px"/>
    <path data-name="button" d="M446.49 293.44a6.5 6.5 0 1 1-6.5-6.5 6.5 6.5 0 0 1 6.5 6.5Z" style="fill:none;stroke:#f4f4f4;stroke-width:1.5px"/>
    <path d="M438.43 290.8a3.11 3.11 0 0 0 1.56 5.81 3.11 3.11 0 0 0 1.56-5.81l-.39.67a2.34 2.34 0 1 1-2.33 0l-.4-.67Zm1.16-.88v3.37h.8v-3.37Z" style="fill:#f4f4f4"/>
    <g data-name="NF Comm">
        <path d="M78 221.28h21.25a1.92 1.92 0 0 1 1.93 1.93v13.53" style="fill:none;stroke:#f4f4f4;stroke-linecap:round;stroke-miterlimit:10;stroke-width:1.5px"/>
        <rect x="77.03" y="224.17" width="21.26" height="13.53" rx="1" style="fill:none;stroke:#f4f4f4;stroke-miterlimit:10;stroke-width:1.5px"/>
    </g>
    <path d="M485.87 245.93a7.14 7.14 0 1 1-14.28 0 7.14 7.14 0 1 1 14.28 0ZM485.87 217a7.14 7.14 0 1 1-14.28 0 7.14 7.14 0 1 1 14.28 0Z" style="fill:none;stroke:#f4f4f4;stroke-width:1.5px"/>
    <path data-name="player buttons" d="M536 159.72a10.26 10.26 0 1 1-10.25-10.26A10.25 10.25 0 0 1 536 159.72Zm-22.35 22.07a10.26 10.26 0 1 1-10.26-10.26 10.26 10.26 0 0 1 10.29 10.26Zm-22.11-22.09a10.26 10.26 0 1 1-10.25-10.26 10.25 10.25 0 0 1 10.25 10.26Zm22.14-22.27a10.26 10.26 0 1 1-10.26-10.25 10.26 10.26 0 0 1 10.26 10.25Z" style="fill:none;stroke:#f4f4f4;stroke-width:1.5px"/>
    <path d="M82.15 135.2a2.07 2.07 0 0 0-2.06 2.1v15.18H64.87a2.08 2.08 0 0 0-2.06 2.1v11.55a2.07 2.07 0 0 0 2.06 2.09h15.22v15.19a2.08 2.08 0 0 0 2.06 2.1h11.59a2.08 2.08 0 0 0 2.06-2.1v-15.19H111a2.07 2.07 0 0 0 2.06-2.09v-11.55a2.08 2.08 0 0 0-2.06-2.1H95.8V137.3a2.07 2.07 0 0 0-2.06-2.1Z" style="fill:none;stroke:#f4f4f4;stroke-width:1.5px"/>
    <path d="M88 171.87v8.37m0-39.77v8.36m11.52 11.52h8.36m-39.77 0h8.37" style="fill:none;stroke:#f4f4f4;stroke-linecap:round;stroke-width:1.5px"/>
    <path d="M496 97.19a29 29 0 0 1 58 0 29 29 0 1 1-58 0Z" style="fill:none;stroke:#f4f4f4;stroke-width:1.5px"/>
    <path d="M506 97.19a19 19 0 1 1 38 0 19 19 0 0 1-38 0Z" style="fill:none;stroke:#f4f4f4;stroke-width:1.5px"/>
    <path d="M512.42 97.19a12.56 12.56 0 0 1 25.12 0 12.56 12.56 0 1 1-25.12 0ZM35 97.19a29 29 0 0 1 58 0 29 29 0 1 1-58 0Z" style="fill:none;stroke:#f4f4f4;stroke-width:1.5px"/>
    <path d="M45 97.19a19 19 0 1 1 38 0 19 19 0 0 1-38 0Z" style="fill:none;stroke:#f4f4f4;stroke-width:1.5px"/>
    <path d="M51.46 97.19a12.56 12.56 0 0 1 25.12 0 12.56 12.56 0 0 1-25.12 0Z" style="fill:none;stroke:#f4f4f4;stroke-width:1.5px"/>
    <path data-name="camera bar" d="M220.25 41.58H366.4c6.18 0 11.19 4.6 11.19 10.27v.46c0 5.67-5 10.27-11.19 10.27H220.25c-6.18 0-11.2-4.6-11.2-10.27v-.46c0-5.67 5.02-10.27 11.2-10.27Z" style="fill:none;stroke:#f4f4f4;stroke-width:1.5px"/>
    <path d="M301.75 52.44a8.5 8.5 0 0 1-17 0 8.5 8.5 0 0 1 17 0Z" style="fill:none;stroke:#f4f4f4;stroke-width:1.5px"/>
    <path d="M299.25 52.48a6 6 0 0 1-12 0 6 6 0 1 1 12 0Z" style="fill:none;stroke:#f4f4f4;stroke-width:1.5px"/>
    <path d="M296.92 52.47a3.67 3.67 0 1 1-3.67-3.67 3.66 3.66 0 0 1 3.67 3.67Z" style="fill:#f4f4f4"/>
</svg>
