<svg version="1.2" baseProfile="tiny" xmlns="http://www.w3.org/2000/svg" width="598.189" height="350.26" xml:space="preserve">
    <path fill="#F4F4F4" d="M32.841 289.71c-4.099-16.084-16.586-50.963-16.58-110.748l.002-10.332c-.011-65.41 17.306-106.833 22.832-123.292 5.539-16.884 21.091-29.221 39.659-30.004 18.504-.295 98.828-2.039 184.507-2.039h79.334c11.516 0 22.771-.004 33.686-.002 74.392.002 132.889.145 151.438 2.58 16.291 2.678 29.537 14.357 34.472 29.765a43.86 43.86 0 0 1 1.587 6.807c.744 4.688 2.092 18.341 3.701 36.737 4.657 53.359 11.444 146.229 11.448 172.113-.002 15.287-8.725 28.541-21.403 35.014-12.142 7.273-65.34 29.635-128.932 29.654-42.695-.004-86.715-1.664-115.826-6.348-.004 0-.009 0-.013-.002-.643-.01-1.306-.015-1.983-.015-33.201-.005-109.069 10.721-133.124 12.028-24.687 1.334-57.696 2.334-85.386 2.336-28.057 0-51.763-18.635-59.419-44.252zM78.814 17.333c-17.691.744-32.534 12.524-37.82 28.635-5.566 16.578-22.725 57.571-22.733 122.663v10.332c.008 59.549 12.377 94.006 16.506 110.215 7.399 24.746 30.34 42.787 57.495 42.787 27.643 0 60.634-1 85.278-2.33 21.894-1.184 87.544-10.316 124.1-11.823-23.591-3.823-58.608-9.257-82.385-9.254-8.482-.007-15.537.704-19.98 2.348l-.692-1.88c4.889-1.786 12.074-2.462 20.673-2.468 28.139.004 71.391 7.476 93.669 11.063l.691.012h.002l-.002.099c28.896 4.584 72.604 6.235 114.979 6.233 63.076.021 116.206-22.328 127.961-29.399 12.097-6.181 20.374-18.755 20.372-33.267.005-25.68-6.784-118.641-11.44-171.94-1.603-18.366-2.96-32.071-3.686-36.607a41.35 41.35 0 0 0-1.515-6.5c-4.704-14.697-17.354-25.851-32.856-28.395-18.171-2.4-76.806-2.563-151.147-2.561-10.914 0-22.168.004-33.686.004h-79.334c-85.659-.005-165.96 1.738-184.45 2.033z"/>
    <path fill="#F4F4F4" d="M164.008 285.376c-1.671-4.94-19.072-63.811-19.08-129.412-.013-68.136 17.991-113.225 19.69-119.297 1.381-6.297 6.621-11.137 13.178-11.93 6.572-.397 32.784-1.106 90.049-1.106 120.614.009 194.821 14.465 197.77 15.274l.04.011.035.013a10.525 10.525 0 0 1 6.301 6.349c.621 1.383 2.167 6.683 4.307 14.833 2.161 8.263 4.856 19.303 7.493 31.443 5.269 24.284 10.3 52.919 10.304 72.577-.008 26.371-4.346 86.813-6.383 96.746-.135.596-.204.976-.393 1.367-.889 4.113-3.713 7.922-7.919 9.002-1.366.409-7.601 1.575-17.063 3.201-9.6 1.643-22.379 3.709-36.089 5.736-27.429 4.051-58.545 7.941-75.527 7.945a5.247 5.247 0 0 1-5.248-5.104l-.269-.991c-1.482-4.861-6.007-8.404-11.359-8.402h-22.249c-4.231 0-7.938 2.209-10.046 5.541-.428.881-.664 2.063-1.527 3.154l-.028.035-.029.031a5.737 5.737 0 0 1-4.119 1.736 5.73 5.73 0 0 1-3.801-1.437l-.073-.063-2.639-3.354-.025-.042a11.866 11.866 0 0 0-10.085-5.604H206.6c-6.56.013-11.864 5.316-11.877 11.875v2.418a6.372 6.372 0 0 1-6.375 6.373l-11.749.002c-5.817 0-10.764-3.719-12.591-8.92zm13.969-258.648c-5.643.679-10.209 4.899-11.42 10.422-1.787 6.373-19.616 50.949-19.629 118.814-.008 65.229 17.371 124.056 18.973 128.759 1.55 4.411 5.752 7.577 10.695 7.575h11.749a4.38 4.38 0 0 0 4.375-4.375v-2.418c0-7.662 6.21-13.875 13.876-13.875h72.624c4.953 0 9.307 2.601 11.759 6.504l2.453 3.117a3.735 3.735 0 0 0 2.413.879 3.73 3.73 0 0 0 2.657-1.104c.482-.591.735-1.619 1.277-2.787l.024-.055.03-.044a13.869 13.869 0 0 1 11.763-6.511h22.249c6.252 0 11.54 4.133 13.281 9.85l.343 1.264v.137a3.254 3.254 0 0 0 3.252 3.25c25.105.006 82.541-8.732 111.278-13.654 9.543-1.63 16.081-2.883 16.843-3.148l.044-.018.027-.005c3.282-.808 5.744-4.009 6.472-7.593l.038-.187.103-.155h-.003c.013-.035.034-.1.061-.182.049-.166.107-.41.171-.717.126-.612.27-1.473.42-2.533.301-2.126.641-5.068.994-8.613.715-7.093 1.499-16.598 2.229-26.894 1.461-20.591 2.698-44.354 2.698-58.302.01-29.031-11.268-78.819-17.731-103.515-2.136-8.193-3.816-13.786-4.203-14.535l-.024-.05-.02-.057a8.53 8.53 0 0 0-5.077-5.154c-3.22-.843-77.393-15.198-197.193-15.19-57.239.001-83.474.712-89.871 1.1z"/>
    <path fill="#F4F4F4" d="M185.261 246.298a6.998 6.998 0 0 1-5.969-3.344l-.029-.049-.023-.048c-.365-.799-1.185-3.481-2.34-8.013-1.141-4.5-2.555-10.713-3.932-18.188-2.756-14.951-5.374-34.947-5.374-56.363v-12.998c.002-32.125 5.885-61.059 9.306-74.553 1.156-4.53 1.976-7.212 2.34-8.011l.023-.051.029-.046a6.992 6.992 0 0 1 5.969-3.341h270.333a7.001 7.001 0 0 1 5.97 3.341l.026.048.023.048c.364.799 1.187 3.481 2.34 8.011 1.142 4.501 2.555 10.713 3.935 18.189 2.756 14.949 5.371 34.949 5.371 56.363v13h.002c-.002 32.121-5.887 61.055-9.308 74.549-1.153 4.531-1.976 7.214-2.34 8.013l-.023.048-.026.049a7.003 7.003 0 0 1-5.97 3.344H185.261v.002zm0-2.002h270.333a4.993 4.993 0 0 0 4.234-2.34c.233-.535 1.11-3.33 2.188-7.603 1.132-4.455 2.536-10.629 3.905-18.058 2.739-14.859 5.34-34.75 5.338-56h.002l-.002-13c.002-31.879-5.852-60.689-9.243-74.061-1.077-4.271-1.954-7.067-2.188-7.602a4.993 4.993 0 0 0-4.234-2.339H185.261a4.997 4.997 0 0 0-4.236 2.339c-.233.535-1.111 3.331-2.188 7.602-1.13 4.455-2.534 10.629-3.903 18.058-2.741 14.861-5.339 34.749-5.339 56.002v13c-.002 31.877 5.851 60.688 9.243 74.058 1.077 4.271 1.955 7.065 2.188 7.603a4.993 4.993 0 0 0 4.235 2.341z"/>
    <path fill="#F4F4F4" d="M186.594 236.96a2 2 0 0 1-2.001-1.996l.002-162.334a2 2 0 0 1 1.999-2.001h269c1.105 0 1.999.896 2.001 2.001v162.334h-.002a1.996 1.996 0 0 1-1.999 1.996h-269zm0-1.996h269V72.629h-269v162.335z"/>
    <path fill="#F4F4F4" d="M75.675 296.001c-15.797-1.281-28.914-12.028-33.665-26.556-5.025-14.678-12.411-51.385-12.417-107.481.015-49.541 14.26-98.24 19.365-110.23 5.08-12.43 16.423-21.63 30.11-23.675 13.653-2.089 75.965-11.428 173.525-11.428 123.073 0 216.363 14.994 233.998 17.501l-.141.99.161-.986c18.424 2.997 32.479 18.979 32.479 38.247-.005 19.166 1.859 41.099 3.03 46.796 1.146 5.479 4.094 10.3 8.226 13.835 8.683 8.016 18.976 17.685 24.489 23.573 5.653 5.906 9.365 13.601 10.478 22.117 1.405 10.774 2.65 37.231 2.779 46.678-.002 16.943-10.874 31.347-26.044 36.617-14.984 4.957-96.754 25.611-182.875 32.629-9.318.762-13.107 1.986-15.484 3.049-2.336 1.047-3.718 2.203-7.528 2.451-3.141.213-49.291 1-148.067 1.002-43.305-.002-97.01-4.254-112.419-5.129zm3.693-265.966c-12.977 1.937-23.743 10.668-28.564 22.47-4.976 11.627-19.223 60.333-19.208 109.458-.006 55.902 7.39 92.502 12.313 106.849 4.507 13.784 16.952 23.985 31.905 25.194 15.433.877 69.087 5.123 112.282 5.123 98.722.002 145.002-.793 147.93-.996 3.438-.252 4.186-1.082 6.85-2.28 2.623-1.181 6.711-2.454 16.139-3.22 85.879-6.984 167.685-27.651 182.396-32.528 14.367-4.993 24.687-18.653 24.687-34.711-.122-9.319-1.379-35.86-2.764-46.433-1.059-8.101-4.581-15.397-9.945-21-5.433-5.803-15.728-15.479-24.364-23.453a26.913 26.913 0 0 1-8.857-14.926c-1.229-6.045-3.064-27.869-3.068-47.202.002-18.273-13.34-33.432-30.805-36.272-17.698-2.518-110.815-17.48-233.697-17.48-97.443 0-159.628 9.328-173.23 11.407zM559.428 61.255v-2.002h4.375v2.002zM554.095 55.878v-1.999h9.125v1.999zM562.387 69.17v-1.999h2.166v1.999zM560.761 63.796v-2.001h3.292v2.001zM561.47 77.087v-1.999h3.833v1.999zM562.469 71.713v-2.001h2.459v2.001zM556.301 85.003v-2h9.71v2zM560.428 79.628v-1.999h5.208v1.999z"/>
    <path fill="#F4F4F4" d="M524.22 70.255c0-10.709 8.767-19.356 19.563-19.375 10.796.02 19.56 8.666 19.562 19.375-.002 10.708-8.766 19.354-19.562 19.374-10.798-.02-19.563-8.667-19.563-19.374zm1.999 0c.019 9.586 7.854 17.375 17.563 17.375 9.707 0 17.544-7.788 17.563-17.375-.019-9.59-7.854-17.376-17.563-17.376-9.709-.001-17.546 7.787-17.563 17.376z"/>
    <path fill="#F4F4F4" d="M564.334 88.346c-.813-.392-2.118-.587-3.662-.583-4.612-.011-11.118 1.611-15.035 1.781l-.083-1.998c3.542-.129 10.133-1.775 15.118-1.784 1.696.004 3.238.18 4.517.774 1.277.568 2.278 1.765 2.403 3.33l-1.993.191c-.113-.89-.453-1.292-1.265-1.711zm-18.7 1.199h.003-.003zM562.292 54.315c-.907-.046-1.552-.475-2.568-1.094-.771-.521-3.118-1.157-7.074-1.141-3.514 0-8.32.454-14.608 1.696l-.389-1.96c6.388-1.264 11.313-1.734 14.997-1.734 4.17.015 6.705.558 8.15 1.455.354.229.667.411.916.54l-.015-.076 1.956-.409c.076.377.127.708.127 1.043-.002.341-.04.716-.313 1.104-.262.383-.764.578-1.129.578l-.05-.002zm-24.254-.538h.002-.002zM542.427 237.452l-.051-.039-13.964-14.431a5.074 5.074 0 0 1-1.818-3.896 5.06 5.06 0 0 1 1.478-3.584l14.117-14.582.047-.041a10.299 10.299 0 0 1 6.691-2.459c4.255.002 7.91 2.57 9.482 6.22 1.663 3.649 1.795 9.024 1.81 15.552.013 8.198-.683 11.197-2.373 14.449a10.328 10.328 0 0 1-8.919 5.111 10.28 10.28 0 0 1-6.5-2.3zm6.5.301a8.305 8.305 0 0 0 7.166-4.078c1.488-2.908 2.113-5.309 2.126-13.482.016-6.475-.227-11.744-1.636-14.734a8.332 8.332 0 0 0-7.656-5.037c-2.046 0-3.91.734-5.361 1.955l-14.067 14.529a3.073 3.073 0 0 0-.903 2.184c0 .967.44 1.82 1.137 2.391l-.632.775-.719.695.719-.695.632-.775.047.036 13.959 14.424a8.283 8.283 0 0 0 5.188 1.812z"/>
    <g fill="#F4F4F4">
        <path d="M91.567 222.712A5.048 5.048 0 0 1 88 221.2l-14.456-14.271-.029-.035a10.296 10.296 0 0 1-2.394-6.615c0-.021-.002-.066 0-.102a10.328 10.328 0 0 1 6.313-9.42c3.226-1.438 7.77-1.658 13.264-1.672.75 0 1.519.006 2.305.018 8.199.066 11.19.793 14.425 2.514a10.324 10.324 0 0 1 5.024 8.867v.104a10.286 10.286 0 0 1-2.368 6.478l-.033.041-14.561 13.814a5.057 5.057 0 0 1-3.829 1.791l-.017.002h-.077v-.002zm-2.151-2.92a3.081 3.081 0 0 0 2.112.922c.048-.004.073-.004.083-.004a3.072 3.072 0 0 0 2.378-1.107l.037-.046 14.551-13.808a8.255 8.255 0 0 0 1.877-5.144c-.002-.06-.002-.104-.002-.122a8.311 8.311 0 0 0-4.004-7.124c-2.895-1.515-5.289-2.165-13.468-2.258a161.22 161.22 0 0 0-2.281-.015c-5.421-.012-9.822.291-12.465 1.504a8.356 8.356 0 0 0-5.113 7.647v.039a8.296 8.296 0 0 0 1.911 5.308l14.384 14.208zM77.459 276.929c-3.689-1.545-6.295-5.176-6.337-9.398l-.002-.136c0-2.509.9-4.823 2.396-6.612l.023-.027 14.45-14.268a5.058 5.058 0 0 1 3.519-1.521c.058-.006.084-.004.096-.004h.013c1.542 0 2.936.692 3.867 1.787l14.57 13.824.034.04a10.307 10.307 0 0 1 2.366 6.522v.057c0 3.758-2.012 7.063-5.073 8.896-3.187 1.695-6.179 2.42-14.38 2.486-.779.004-1.542.012-2.29.014-5.502-.014-10.047-.233-13.252-1.66zm-4.339-9.534c0 .039 0 .052.002.083.031 3.434 2.135 6.357 5.135 7.619 2.621 1.199 7.024 1.502 12.452 1.49.737 0 1.496-.006 2.272-.01 8.177-.095 10.571-.744 13.417-2.232a8.331 8.331 0 0 0 4.054-7.152v-.081a8.292 8.292 0 0 0-1.868-5.175l-14.515-13.773.687-.725.769-.641-.769.641-.687.725-.048-.045-.033-.041a3.072 3.072 0 0 0-2.373-1.115h-.029a3.095 3.095 0 0 0-2.183.938l-14.374 14.192a8.282 8.282 0 0 0-1.909 5.302zM125.04 254.503a10.281 10.281 0 0 1-6.479-2.364l-.046-.04-13.811-14.557a5.066 5.066 0 0 1-1.793-3.873c.001-.002-.004-.015 0-.09a5.065 5.065 0 0 1 1.512-3.531l14.26-14.443.048-.038a10.278 10.278 0 0 1 6.607-2.396c.009 0 .052-.002.124.002a10.33 10.33 0 0 1 9.404 6.313c1.438 3.231 1.658 7.783 1.668 13.288 0 .741-.004 1.5-.01 2.277-.069 8.199-.794 11.193-2.516 14.428a10.336 10.336 0 0 1-8.87 5.021c-.025-.002-.025 0-.025 0l-.038.002h-.035v.001zm-.011-2c.036-.002.063-.002.082-.002h.029a8.309 8.309 0 0 0 7.127-4.002c1.514-2.896 2.167-5.289 2.258-13.465.006-.775.012-1.527.012-2.261.011-5.435-.291-9.842-1.504-12.487a8.33 8.33 0 0 0-7.606-5.113l-.052-.002-.035-.004v.004c-2.01 0-3.848.711-5.288 1.898l-14.215 14.396a3.065 3.065 0 0 0-.924 2.172l-.002.058a3.08 3.08 0 0 0 1.115 2.345l-.64.77-.725.688.725-.688.64-.77.042.035 13.808 14.553a8.28 8.28 0 0 0 5.153 1.875zM58.492 254.503l-.027-.002c-.002.002 0 0-.033.002-3.76-.002-7.061-2.015-8.895-5.071-1.695-3.187-2.42-6.181-2.488-14.378-.008-.781-.013-1.545-.013-2.285.011-5.503.231-10.053 1.66-13.258a10.339 10.339 0 0 1 9.393-6.338c.087-.006.132-.002.144-.002a10.275 10.275 0 0 1 6.612 2.396l.033.028 14.26 14.443a5.072 5.072 0 0 1 1.522 3.582l.002.067-.002.019a5.07 5.07 0 0 1-1.783 3.828L65.06 252.095l-.05.044a10.27 10.27 0 0 1-6.477 2.364h-.041zm-.295-39.332-.052.002c-3.432.031-6.356 2.137-7.615 5.138-1.203 2.62-1.506 7.03-1.494 12.458 0 .734.002 1.488.013 2.264.091 8.178.741 10.571 2.231 13.418a8.33 8.33 0 0 0 7.152 4.055c.007 0 .044-.004.107 0a8.286 8.286 0 0 0 5.158-1.877l13.766-14.506.042-.047.044-.035a3.06 3.06 0 0 0 1.111-2.367c.001 0-.001-.014.001-.067a3.074 3.074 0 0 0-.934-2.149l-14.213-14.395a8.291 8.291 0 0 0-5.281-1.893h-.014l-.022.001z"/>
    </g>
    <path fill="#F4F4F4" d="M503.327 261.187a10.324 10.324 0 0 1-5.494-8.68 10.26 10.26 0 0 1 2.015-6.603l.043-.058 13.8-14.565a5.068 5.068 0 0 1 3.813-1.991c.06-.004.135-.008.229-.008 1.313 0 2.524.506 3.42 1.327l15.188 13.478.036.039a10.29 10.29 0 0 1 2.748 6.58c.006.153.008.307.011.451a10.335 10.335 0 0 1-5.813 9.288c-3.574 1.822-8.939 2.188-15.458 2.485-1.632.07-3.053.105-4.307.105h-.127c-4.982.001-7.474-.62-10.104-1.848zm-3.507-9.143c0 .117.004.238.01.369a8.309 8.309 0 0 0 4.383 6.981c2.4 1.097 4.388 1.63 9.347 1.642 1.219 0 2.61-.031 4.22-.105 6.469-.266 11.724-.734 14.647-2.273 2.799-1.355 4.71-4.229 4.708-7.5a8.293 8.293 0 0 0-2.195-5.641l-15.127-13.423a3.088 3.088 0 0 0-2.08-.812c-.027 0-.07.003-.137.007a3.076 3.076 0 0 0-2.34 1.238l-.036.049-13.802 14.568a8.296 8.296 0 0 0-1.598 4.9zM62.19 262.208l20.165-26.272.044-.045c.27-.235.582-1.077.567-1.986.004-.836-.229-1.707-.565-2.175l-20.379-26.08 1.397-1.407 26.192 20.104c.752.494 1.51.72 2.243.72.707 0 1.404-.204 2.081-.64l26.042-20.354 1.408 1.396-20.163 26.269c-.389.438-.709 1.283-.703 2.154 0 .729.204 1.462.653 2.058l20.379 26.078-1.396 1.41-26.2-20.111c-.38-.299-1.373-.549-2.31-.533-.925-.026-1.84.271-1.969.433l-26.079 20.379-1.407-1.398zm6.376-5.024 19.845-15.505c.877-.701 2.011-.861 3.236-.889 1.218.014 2.485.219 3.504.933l19.982 15.338-15.546-19.894c-.755-1.004-1.067-2.176-1.067-3.274.006-1.317.42-2.558 1.152-3.416l15.336-19.981-19.905 15.557-.04.027c-.979.645-2.086.989-3.208.986-1.163.003-2.327-.367-3.377-1.072l.555-.83-.607.793-19.984-15.338 15.565 19.918c.686.99.955 2.203.958 3.367-.014 1.229-.282 2.438-1.076 3.32l-15.323 19.96z"/>
    <path fill="#F4F4F4" d="M37.912 233.839c.002-29.756 24.122-53.875 53.876-53.877 29.755.002 53.875 24.121 53.875 53.877 0 29.754-24.12 53.873-53.875 53.875-29.755-.002-53.874-24.121-53.876-53.875zm17.193-36.68c-9.387 9.389-15.191 22.352-15.193 36.68 0 14.328 5.806 27.291 15.193 36.682 9.391 9.391 22.355 15.193 36.683 15.193s27.29-5.805 36.681-15.193c9.389-9.391 15.193-22.354 15.193-36.682 0-14.328-5.804-27.291-15.193-36.68-9.392-9.39-22.353-15.193-36.681-15.193-14.33-.002-27.292 5.804-36.683 15.193z"/>
    <g fill="#F4F4F4">
        <path d="M94.825 74.864a4.912 4.912 0 0 1-3.473-1.469L77.373 59.592l-.028-.035a9.985 9.985 0 0 1-2.323-6.415c0-.021-.002-.067 0-.102a10.018 10.018 0 0 1 6.125-9.136c3.129-1.394 7.521-1.607 12.833-1.618.728 0 1.471.004 2.233.012 7.928.065 10.83.768 13.965 2.437a10.019 10.019 0 0 1 4.873 8.602v.1a9.966 9.966 0 0 1-2.294 6.283l-.041.049-14.072 13.352a4.933 4.933 0 0 1-3.768 1.744l-.051-.001zm.051-2c.913 0 1.719-.411 2.264-1.063l.039-.046 14.076-13.356a7.963 7.963 0 0 0 1.799-4.939l-.002-.122a8 8 0 0 0-3.854-6.858c-2.794-1.463-5.099-2.091-13.005-2.181-.754-.008-1.492-.012-2.211-.012-5.239-.01-9.488.285-12.035 1.451a8.045 8.045 0 0 0-4.924 7.362v.043c0 1.933.682 3.698 1.82 5.087l13.925 13.753c.532.541 1.26.874 2.03.882l.048-.001h.03zM81.171 127.284c-3.58-1.5-6.106-5.021-6.147-9.113-.004-.071-.002-.119-.002-.137 0-2.436.874-4.68 2.324-6.414l.029-.035 13.966-13.791a4.926 4.926 0 0 1 3.426-1.482.503.503 0 0 1 .093-.002h.01c1.507 0 2.868.678 3.774 1.747l14.072 13.354.041.047c1.414 1.705 2.271 3.898 2.295 6.328v.055c0 3.646-1.954 6.849-4.922 8.627-3.087 1.644-5.99 2.346-13.919 2.41-.757.006-1.497.013-2.221.013-5.315-.011-9.711-.224-12.819-1.607zm-4.151-9.25c0 .041 0 .045.002.082.031 3.305 2.058 6.121 4.947 7.336 2.524 1.156 6.777 1.451 12.021 1.438.714 0 1.45-.005 2.203-.011 7.904-.09 10.21-.717 12.955-2.151a8.026 8.026 0 0 0 3.903-6.888v-.078a7.978 7.978 0 0 0-1.805-4.992L97.221 99.463l.688-.724.769-.641-.769.641-.688.724-.047-.045-.035-.041a2.938 2.938 0 0 0-2.271-1.066h-.024a2.956 2.956 0 0 0-2.089.896l-13.906 13.732a7.994 7.994 0 0 0-1.829 5.095zM120.905 103.308l-.049-.041-13.351-14.071a4.944 4.944 0 0 1-1.746-3.77c.001 0-.004-.023.003-.108a4.926 4.926 0 0 1 1.47-3.417l13.806-13.979.031-.026a9.988 9.988 0 0 1 6.409-2.321c.021 0 .069-.002.106.002a10.015 10.015 0 0 1 9.139 6.124c1.395 3.133 1.605 7.535 1.615 12.857 0 .72-.004 1.454-.01 2.205-.065 7.929-.769 10.833-2.438 13.967a10.024 10.024 0 0 1-8.602 4.873c-.041 0-.055 0-.1.002a9.973 9.973 0 0 1-6.283-2.297zm6.258.297.125-.002a8.005 8.005 0 0 0 6.86-3.855c1.462-2.795 2.091-5.1 2.18-13.002.006-.749.01-1.479.01-2.188.012-5.25-.281-9.51-1.45-12.06a8.044 8.044 0 0 0-7.36-4.924c0 .002-.008 0-.051.002-1.94 0-3.712.687-5.1 1.834l-13.734 13.907a2.94 2.94 0 0 0-.883 2.081v.057l-.001.011a2.95 2.95 0 0 0 1.064 2.227l-.638.769-.724.688.724-.688.638-.769.045.035 13.358 14.078a7.962 7.962 0 0 0 4.937 1.799zM54.157 100.683c-1.642-3.086-2.344-5.991-2.409-13.918-.01-.755-.015-1.493-.015-2.213.013-5.32.223-9.72 1.61-12.827 1.499-3.58 5.021-6.109 9.108-6.148.075-.004.12-.002.143-.002 2.434 0 4.675.873 6.414 2.321l.039.033 13.784 13.963a4.96 4.96 0 0 1 1.481 3.533s0 .004.002.004c0 1.504-.68 2.861-1.746 3.767l-13.349 14.071-.051.041a9.982 9.982 0 0 1-6.324 2.294l-.059.002c-3.647-.001-6.849-1.955-8.628-4.921zm8.353-33.107c-3.305.031-6.122 2.058-7.335 4.947-1.159 2.523-1.452 6.782-1.44 12.029 0 .714.004 1.442.012 2.193.09 7.905.716 10.209 2.152 12.957a8.02 8.02 0 0 0 6.887 3.902h.082a7.965 7.965 0 0 0 4.98-1.798l13.315-14.033.035-.037.051-.043a2.929 2.929 0 0 0 1.065-2.264s-.002-.015 0-.033a2.944 2.944 0 0 0-.896-2.089L67.689 69.4a7.999 7.999 0 0 0-5.095-1.828l-.084.004z"/>
    </g>
    <path fill="#F4F4F4" d="m66.393 112.999 19.501-25.407.043-.043c.251-.216.553-1.023.537-1.897.006-.804-.219-1.64-.537-2.083L66.231 58.354l1.397-1.409 25.339 19.447c.719.472 1.438.681 2.137.681.675 0 1.344-.197 1.995-.616l25.174-19.674 1.409 1.395-19.498 25.402c-.369.421-.678 1.229-.671 2.063 0 .699.196 1.399.625 1.967l19.706 25.218-1.396 1.408-25.33-19.445c-.357-.28-1.315-.522-2.216-.51-.89-.027-1.772.263-1.882.41l-25.218 19.706-1.409-1.398zm6.379-5.024 18.979-14.829c.864-.688 1.962-.837 3.151-.864 1.183.012 2.41.21 3.408.906l19.114 14.67-14.872-19.03c-.735-.977-1.04-2.118-1.04-3.186.008-1.282.411-2.485 1.123-3.322l14.674-19.12-19.048 14.886-.039.027c-.952.627-2.028.962-3.118.962-1.131 0-2.265-.359-3.286-1.043l.558-.832-.61.792-19.114-14.67 14.891 19.056c.668.964.927 2.142.933 3.273-.016 1.207-.28 2.389-1.071 3.255l-14.633 19.069z"/>
    <path fill="#F4F4F4" d="M42.912 85.59c.002-28.79 23.338-52.125 52.125-52.125 28.788 0 52.124 23.336 52.125 52.125-.002 28.788-23.338 52.124-52.125 52.124-28.788 0-52.123-23.336-52.125-52.124zm16.682-35.444c-9.072 9.075-14.681 21.6-14.681 35.445 0 13.844 5.609 26.37 14.681 35.444 9.075 9.071 21.598 14.68 35.443 14.68 13.844 0 26.369-5.607 35.443-14.68 9.072-9.074 14.682-21.6 14.682-35.444 0-13.846-5.609-26.371-14.682-35.445-9.074-9.072-21.6-14.679-35.443-14.681-13.846 0-26.369 5.607-35.443 14.681zM313.596 297.394v-1.866h17.869a9.413 9.413 0 0 0 9.399-9.4 9.413 9.413 0 0 0-9.399-9.401h-17.869a9.415 9.415 0 0 0-9.401 9.401 9.414 9.414 0 0 0 9.401 9.4v1.866c-6.222 0-11.267-5.044-11.267-11.266 0-6.224 5.045-11.267 11.267-11.267h17.869c6.222 0 11.265 5.043 11.265 11.267 0 6.222-5.043 11.266-11.265 11.266h-17.869zM258.844 295.462v-2.002h17.667a6.59 6.59 0 0 0 6.584-6.582 6.591 6.591 0 0 0-6.584-6.584h-17.667a6.59 6.59 0 0 0-6.582 6.584 6.59 6.59 0 0 0 6.582 6.582v2.002a8.584 8.584 0 0 1-8.582-8.584 8.583 8.583 0 0 1 8.582-8.584h17.667a8.584 8.584 0 0 1 8.583 8.584 8.585 8.585 0 0 1-8.583 8.584h-17.667zM208.679 295.462v-2.002h17.667a6.59 6.59 0 0 0 6.582-6.582 6.59 6.59 0 0 0-6.582-6.584h-17.667a6.591 6.591 0 0 0-6.584 6.584 6.59 6.59 0 0 0 6.584 6.582v2.002a8.585 8.585 0 0 1-8.583-8.584 8.583 8.583 0 0 1 8.583-8.584h17.667a8.583 8.583 0 0 1 8.582 8.584 8.584 8.584 0 0 1-8.582 8.584h-17.667z"/>
</svg>
