<svg width="589" height="350" xmlns="http://www.w3.org/2000/svg">
    <path data-name="body" d="M294.5 309.7a194.07 194.07 0 0 1-103.7-29.83M157.17 12.64A194.68 194.68 0 0 0 254 65m-96.82-52.36C47.72 103.31 86.57 268.8 97.77 300.79c11.33 32.39 35.22 40.49 45.34 38.87 10.12-1.62 47.7-59.8 47.7-59.8m207.39 0a194.07 194.07 0 0 1-103.7 29.84M335 65a194.69 194.69 0 0 0 96.84-52.35m-33.65 267.21s37.58 58.18 47.7 59.8c10.12 1.62 34-6.48 45.34-38.87 11.2-32 50-197.48-59.41-288.15m-194 198 7.07-10.42a2 2 0 0 0-.42-2.7A80.49 80.49 0 0 1 254 65m107.81 161.3-17.67-26a2 2 0 0 1 .42-2.7A80.49 80.49 0 0 0 335 65m63.2 214.87-9.2-13.61" style="fill:none;stroke:#f4f4f4;stroke-width:1.5px;stroke-miterlimit:10"/>
    <path d="m169.53 23.89 13.9-11.25q55.55 29 111.07 29m125-17.71-13.9-11.25q-55.54 29-111.07 29" style="fill:none;stroke:#f4f4f4;stroke-width:1.5px;stroke-linecap:round;stroke-miterlimit:10"/>
    <g data-name="top edge">
        <path d="M351.83 29.62q-4.5 1.21-9 2.23l-.16-.73a2 2 0 0 0-.3-.71c3.06-.69 6.11-1.44 9.17-2.26a1.86 1.86 0 0 0 .05.66zm13-4.85a2.05 2.05 0 0 1-.1-.54c-3.05 1-6.11 1.93-9.18 2.81a1.88 1.88 0 0 1 .3.62l.22.79c3-.87 6-1.78 9.06-2.78zM338.41 32a1.89 1.89 0 0 1 0-.75c-3.06.63-6.11 1.21-9.16 1.71a1.94 1.94 0 0 1 .3.79l.1.66c3-.49 6-1 8.92-1.67zm-61.57 3.1a2.07 2.07 0 0 1 .16.9l-.06.65q4.41.36 8.8.54v-.57a2 2 0 0 1 .26-.92c-3.06-.17-6.11-.34-9.16-.6zM369 23.36l.3.89q4.56-1.61 9.11-3.38l-.39-1a2.5 2.5 0 0 1-.12-.45q-4.58 1.8-9.17 3.39a2.26 2.26 0 0 1 .27.55zm-43.74 11a1.92 1.92 0 0 1 .06-.83q-4.59.68-9.17 1.14a2 2 0 0 1 .3.87l.05.6c2.95-.3 5.91-.66 8.86-1.09zM312.05 36a1.94 1.94 0 0 1 .12-.87c-3.05.26-6.1.43-9.15.56a1.9 1.9 0 0 1 .27.92v.57q4.41-.18 8.8-.54zM206.89 18.21a2.58 2.58 0 0 1 .19-.37q-3-1.24-6.06-2.57a2.73 2.73 0 0 0-3.4 1l-1.93 2.91 1.25.83 1.93-2.91a1.24 1.24 0 0 1 1.55-.45c2 .89 4 1.75 6.06 2.58zm56.78 16.89q4.44.65 8.86 1.09l.06-.61a1.91 1.91 0 0 1 .29-.86q-4.58-.47-9.16-1.14a1.88 1.88 0 0 1 0 .82zm-43.94-10.86.3-.91a1.72 1.72 0 0 1 .26-.48q-4.59-1.61-9.17-3.39a1.91 1.91 0 0 1-.11.41l-.4 1q4.54 1.78 9.12 3.37zm171.65-8a2.73 2.73 0 0 0-3.4-1q-3 1.34-6.08 2.58a1.83 1.83 0 0 1 .21.39l.4 1c2-.83 4.05-1.69 6.08-2.58a1.24 1.24 0 0 1 1.54.45l1.93 2.92 1.25-.83zm-92.51 20.47a1.92 1.92 0 0 1 .21-.92c-1.53 0-3.06.06-4.58.06s-3 0-4.57-.06a1.92 1.92 0 0 1 .21.92v.58c1.21 0 2.42.05 3.63.06h1.5l3.64-.06zm-39.42-3a2 2 0 0 1 .3-.78c-3.05-.5-6.1-1.08-9.15-1.71a2 2 0 0 1 0 .73l-.16.76c3 .62 5.95 1.18 8.92 1.67zm-26.27-6.13a2.06 2.06 0 0 1 .28-.6c-3.05-.87-6.11-1.8-9.16-2.8a2.28 2.28 0 0 1-.09.51l-.32.93c3 1 6 1.91 9.06 2.78zm13.14 3.48a2.07 2.07 0 0 1 .29-.7q-4.58-1-9.15-2.26a1.93 1.93 0 0 1-.06.63l-.23.84c3 .81 6 1.55 9 2.23z" style="fill:#f4f4f4"/>
        <path d="m383.86 22.57-4.12 1.66-1.74-4.32a2 2 0 0 1 1.11-2.61l.41-.16a2 2 0 0 1 2.6 1.1zm-14.86.79a2 2 0 0 0-2.51-1.24l-.42.14a2 2 0 0 0-1.24 2.51l1.48 4.38 4.17-1.41zm-13.15 4.3a2 2 0 0 0-2.41-1.39l-.43.12a2 2 0 0 0-1.38 2.42l1.21 4.43 4.16-1.15zm-13.14 3.46a2 2 0 0 0-2.32-1.51l-.43.09a2 2 0 0 0-1.55 2.3l.95 4.48 4.27-.89zm-13.13 2.65a2 2 0 0 0-2.23-1.66l-.43.07a2 2 0 0 0-1.66 2.23l.67 4.53 4.32-.64zm-13.13 1.82a2 2 0 0 0-2.14-1.8h-.44a2 2 0 0 0-1.82 2.21l.4 4.59 4.37-.39zm-13.13 1a2 2 0 0 0-2.05-1.93h-.44a2 2 0 0 0-1.93 2.05l.13 4.64 4.42-.13zm-13.15.13a2 2 0 0 0-1.93-2.05h-.45a2 2 0 0 0-2 1.93l-.14 4.64 4.42.13zM277 36a2 2 0 0 0-1.8-2.14h-.43a2 2 0 0 0-2.14 1.79l-.41 4.59 4.37.38zm-13.23-1.6a2 2 0 0 0-1.65-2.24l-.43-.06a2 2 0 0 0-2.24 1.66l-.67 4.53 4.32.64zM250.59 32a2 2 0 0 0-1.52-2.32l-.43-.09a2 2 0 0 0-2.32 1.52l-.94 4.48 4.27.9zm-13.19-3.22a2 2 0 0 0-1.4-2.41l-.42-.12a2 2 0 0 0-2.42 1.38L232 32.06l4.22 1.16zm-13.19-4a2 2 0 0 0-1.21-2.55l-.41-.14a2 2 0 0 0-2.59 1.24l-1.47 4.38 4.17 1.41zM211 19.87a2 2 0 0 0-1.11-2.6l-.41-.17a2 2 0 0 0-2.6 1.11l-1.75 4.32 4.12 1.67z" style="fill:none;stroke:#f4f4f4;stroke-width:1.5px;stroke-miterlimit:10"/>
    </g>
    <circle data-name="back" cx="188.48" cy="227.73" r="52.14" style="fill:none;stroke:#f4f4f4;stroke-width:1.5px;stroke-miterlimit:10"/>
    <path data-name="d-pad" d="M230 227.73c0 8.36-4.06 16.12-8.45 22.54A40.4 40.4 0 0 1 211 260.78c-6.42 4.39-14.18 8.45-22.54 8.45s-16.12-4.06-22.54-8.45a40.4 40.4 0 0 1-10.51-10.51c-4.38-6.42-8.45-14.18-8.45-22.54s4.07-16.12 8.45-22.54a40.4 40.4 0 0 1 10.51-10.51c6.42-4.39 14.18-8.45 22.54-8.45s16 4 22.37 8.33a40.44 40.44 0 0 1 10.68 10.63c4.41 6.42 8.49 14.18 8.49 22.54z" style="fill:none;stroke:#f4f4f4;stroke-width:1.5px;stroke-miterlimit:10"/>
    <circle data-name="back" cx="404.66" cy="226.4" r="42.83" style="fill:none;stroke:#f4f4f4;stroke-width:1.5px;stroke-miterlimit:10"/>
    <circle cx="404.66" cy="226.4" r="31" style="fill:none;stroke:#f4f4f4;stroke-width:1.5px;stroke-miterlimit:10"/>
    <path d="M404.66 247.4v-11m0-20v-11m-21 21h11m20 0h11m-21-10a10 10 0 1 0 10 10 10 10 0 0 0-10-10z" style="fill:none;stroke:#f4f4f4;stroke-width:1.5px;stroke-linecap:round;stroke-miterlimit:10"/>
    <g data-name="home button">
        <circle cx="294.5" cy="133.19" r="70.29" style="fill:none;stroke:#f4f4f4;stroke-width:1.5px;stroke-linecap:round;stroke-miterlimit:10"/>
        <path d="M335 159.23h4l-9.13 7.4L339 174h-4l-7.15-5.82-7.11 5.82h-4l9.18-7.41-9.18-7.4h4l7.12 5.78zm-19.48 7.4c0 3.27-.86 5.76-2.52 7.41h-14.62c-1.73-1.66-2.59-4.1-2.59-7.41 0-3.31.87-5.75 2.59-7.4H313c1.65 1.65 2.52 4.1 2.52 7.4zm-2.45 0a9.43 9.43 0 0 0-1.39-5h-12a9.35 9.35 0 0 0-1.4 5 8.7 8.7 0 0 0 .71 3.45l.69 1.55h12l.68-1.55a9.26 9.26 0 0 0 .72-3.45zm-21 .61 1.07.61a9.65 9.65 0 0 1-2.48 6.19H276a9.39 9.39 0 0 1-2.48-6.19h-2.37v-2.44h2.37a9.26 9.26 0 0 1 2.48-6.18h14.63c1.41 1.36 2.23 3.45 2.48 6.22l-1.07.57zm-2.74-5.57h-12a9.77 9.77 0 0 0-1.34 3.74h14.63a10.41 10.41 0 0 0-1.33-3.74zm1.33 6.19H276a10 10 0 0 0 1.34 3.78h12a10.67 10.67 0 0 0 1.33-3.78zm-27.52-1.23 9.12-7.4h-4l-7.15 5.77-7.11-5.77h-4l9.09 7.4L250 174h4l7.15-5.82 7.11 5.82h4z" style="fill:#f4f4f4"/>
        <path data-name="xbox X" d="M294.39 121.78a253.52 253.52 0 0 0 28.66 21.76c2.23 1.45 4.63 3 7.16 4.5a171.35 171.35 0 0 1-15.4-17.25c-3.05-3.94-6.94-9.38-11.72-16.32q5.42-5.09 20-20.87a53.68 53.68 0 0 1-7.63 4.6 209.5 209.5 0 0 1-21 9c-5-1.92-8.3-3.23-9.84-3.84-3.9-1.55-7.18-3-9.95-4.41a60.19 60.19 0 0 1-9.53-5.74q2.24 2.7 4.63 5.27c2 2.25 4.59 4.83 7.64 7.88l8.44 8.16a234.16 234.16 0 0 1-17.3 23.68 106.67 106.67 0 0 1-9.69 10.26c2.58-1.48 5-2.91 7.23-4.31a162.35 162.35 0 0 0 28.3-22.37z" style="fill:#f4f4f4"/>
    </g>
    <path data-name="back" d="M166.83 81.52a40 40 0 0 1-.33 79.78m-15.34-82.73A42.83 42.83 0 1 0 194 121.4a42.83 42.83 0 0 0-42.84-42.83Z" style="fill:none;stroke:#f4f4f4;stroke-width:1.5px;stroke-miterlimit:10"/>
    <circle data-name="stick" cx="151.16" cy="121.4" r="31" style="fill:none;stroke:#f4f4f4;stroke-width:1.5px;stroke-miterlimit:10"/>
    <path data-name="center" d="M151.16 142.9v-3m0-37v-3m-21.5 21.5h3m37 0h3m-21.5-18a18 18 0 1 0 18 18 18 18 0 0 0-18-18z" style="fill:none;stroke:#f4f4f4;stroke-width:1.5px;stroke-linecap:round;stroke-miterlimit:10"/>
    <ellipse cx="448.08" cy="164.29" rx="14.53" ry="19.5" transform="rotate(-27 448.057 164.288)" style="fill:none;stroke:#f4f4f4;stroke-width:1.5px;stroke-miterlimit:10"/>
    <ellipse cx="448.08" cy="119.29" rx="14.53" ry="19.5" transform="rotate(-27 448.046 119.285)" style="fill:none;stroke:#f4f4f4;stroke-width:1.5px;stroke-miterlimit:10"/>
    <ellipse cx="412.08" cy="144.79" rx="14.53" ry="19.5" transform="rotate(-27 412.056 144.786)" style="fill:none;stroke:#f4f4f4;stroke-width:1.5px;stroke-miterlimit:10"/>
    <ellipse cx="412.08" cy="99.79" rx="14.53" ry="19.5" transform="rotate(-27 412.066 99.787)" style="fill:none;stroke:#f4f4f4;stroke-width:1.5px;stroke-miterlimit:10"/>
    <ellipse cx="464.08" cy="82.29" rx="9.89" ry="15.49" transform="rotate(-27 464.064 82.292)" style="fill:none;stroke:#f4f4f4;stroke-width:1.5px;stroke-miterlimit:10"/>
    <ellipse cx="428.08" cy="61.29" rx="9.89" ry="15.49" transform="rotate(-27 428.07 61.294)" style="fill:none;stroke:#f4f4f4;stroke-width:1.5px;stroke-miterlimit:10"/>
    <ellipse data-name="back" cx="324.58" cy="261.79" rx="15.49" ry="9.89" style="fill:none;stroke:#f4f4f4;stroke-width:1.5px;stroke-miterlimit:10"/>
    <ellipse cx="264.42" cy="261.79" rx="15.49" ry="9.89" style="fill:none;stroke:#f4f4f4;stroke-width:1.5px;stroke-miterlimit:10"/>
</svg>
