<svg height="358.121" viewBox="0 0 709.538 716.241" width="354.769" xmlns="http://www.w3.org/2000/svg">
    <g fill="#f4f4f4" fill-opacity=".5" stroke-width="2">
        <path d="M623.031 711.104q0 .48-.116.808-.172.488-.552.488-.252 0-.528-.116-.332-.14-.364-.344.112 0 .264.04.352.092.44.092.34 0 .512-.34.136-.272.136-.652 0-.268-.176-.764-.172-.5-.172-.696 0-.06.032-.096.036-.04.096-.04.156 0 .304.72.124.608.124.9zM624.571 711.512q0 .408-.236.64-.236.232-.652.232-.228 0-.352-.108-.124-.108-.124-.332 0-.316.412-.636.392-.304.724-.304.152 0 .2.188.028.108.028.32zm-.244.112q0-.048-.012-.092-.01-.048-.032-.108-.064.044-.212.216-.076.088-.132.128 0-.076.016-.124.032-.068.052-.116-.176 0-.368.148-.188.148-.188.32 0 .116.128.116.244 0 .472-.12.276-.144.276-.368zM626.22 711.676q0 .196-.149.44-.168.276-.348.276-.052 0-.088-.056-.032-.06-.032-.116 0-.072.152-.224.156-.156.156-.212 0-.036-.012-.072l-.016-.048q-.3.068-.612.344-.308.276-.468.312-.032-.088-.032-.18 0-.112.052-.236.036-.088.12-.212.14-.212.296-.48l.276-.484q.2-.344.292-.488.048-.072.084-.108.052-.048.124-.064.048.016.068.06.024.044.024.104 0 .136-.176.368-.32.416-.328.432-.18.272-.18.492l.01.04q.22-.108.26-.124.164-.068.28-.068.128 0 .188.088.06.084.06.216zM628.075 711.44q0 .272-.132.58-.144.34-.356.468-.044-.052-.076-.116-.028-.064-.028-.128 0-.068.2-.404.088-.148.08-.26v-.052q-.148.044-.512.268-.36.22-.728.448-.056 0-.104-.04-.044-.044-.044-.096 0-.084.268-.564.08-.144.288-.5.064.084.084.188.02.1.02.24v.092q.368-.22.576-.332.228-.124.312-.124.056 0 .104.128.052.128.052.204zM631.551 712.216q0 .072-.064.112-.06.036-.136.036-.068 0-.172-.016-.236-.036-.304-.036-.12 0-.472.028-.2.016-.288.016-.244 0-.244-.244 0-.232.152-.664.084-.244.316-.8.208-.5.264-.704.02-.064.032-.084.032-.048.08-.048.076 0 .128.112.052.108.052.196 0 .14-.164.472l-.32.644q-.172.376-.172.572 0 .1.084.14.06.028.176.028.088 0 .304-.02.216-.024.288-.024.18 0 .296.052.164.072.164.232zM633.04 711.512q0 .408-.237.64-.236.232-.652.232-.228 0-.352-.108-.124-.108-.124-.332 0-.316.412-.636.392-.304.724-.304.152 0 .2.188.028.108.028.32zm-.245.112q0-.048-.012-.092-.01-.048-.032-.108-.064.044-.212.216-.076.088-.132.128 0-.076.016-.124.032-.068.052-.116-.176 0-.368.148-.188.148-.188.32 0 .116.128.116.244 0 .472-.12.276-.144.276-.368zM634.723 711.428q0 .128-.068.272-.064.144-.164.24v-.056q0-.048.012-.148.012-.1.012-.148 0-.068-.02-.1-.02-.036-.084-.036-.188 0-.468.292l-.604.636q-.024 0-.048-.004l-.08-.02q.012-.144.1-.32.236-.476.244-.508l.048-.188q.016-.06.044-.124.032-.068.072-.12.044-.056.112-.084l.04.48.264-.216q.176-.14.304-.14t.208.084q.08.084.08.208zM636.687 710.964q0 .168-.448.444-.432.264-.628.264-.092 0-.124-.064-.028-.064-.028-.18v-.108q.268 0 .488-.08.22-.08.384-.264-.12-.044-.244-.044-.292 0-.62.224-.36.244-.36.52 0 .264.36.368.056.016.676.112.364.056.364.196 0 .06-.132.096-.132.04-.336.04-.512 0-.808-.156-.392-.208-.392-.668 0-.48.48-.764.408-.24.928-.24.156 0 .284.072.156.088.156.232zM638.28 710.248q0 .088-.213.368-.212.28-.212.428 0 .076.088.152.2.176.2.216 0 .052-.036.1-.032.048-.084.048-.044 0-.124-.048-.056-.032-.216-.156l-.092.176q-.112.212-.152.308l-.12.368q-.104.248-.26.248v-.092q0-.284.184-.672.036-.072.2-.372-.316-.172-.696-.172 0-.148.06-.216.064-.072.212-.072.136 0 .34.048l.2.048q.076-.024.208-.26.324-.568.44-.652.032.052.052.104.024.052.024.1zM639.755 711.676q0 .196-.148.44-.168.276-.348.276-.052 0-.088-.056-.032-.06-.032-.116 0-.072.152-.224.156-.156.156-.212 0-.036-.012-.072l-.016-.048q-.3.068-.612.344-.308.276-.468.312-.032-.088-.032-.18 0-.112.052-.236.036-.088.12-.212.14-.212.296-.48l.276-.484q.2-.344.292-.488.048-.072.084-.108.052-.048.124-.064.048.016.068.06.024.044.024.104 0 .136-.176.368-.32.416-.328.432-.18.272-.18.492l.01.04q.22-.108.26-.124.164-.068.28-.068.128 0 .188.088.06.084.06.216zM643.04 710.372q0 .188-.2.504-.129.2-.42.576-.293.372-.365.488l.3.096q.292.088.292.32-.12.02-.236.036l-.044-.004v-.032q-.064-.016-.104-.016-.076 0-.24.024-.164.024-.248.024-.108 0-.176-.04-.068-.04-.068-.144 0-.084.308-.476.576-.732.58-.74.312-.424.312-.568 0-.056-.04-.084-.036-.028-.148-.028-.076 0-.316.148-.116.072-.188.072l-.068-.012q-.024-.016-.052-.06-.028-.048-.028-.076 0-.168.324-.308.276-.12.48-.12.172 0 .264.128.08.112.08.292zM645.443 711.092q0 .484-.524.856-.48.34-.988.34-.252 0-.4-.128-.148-.128-.148-.372 0-.544.476-.944.452-.38 1.012-.38.284 0 .428.168.144.168.144.46zm-.244.092q0-.184-.208-.276-.156-.068-.372-.068-.316 0-.66.308-.344.308-.344.62 0 .128.064.184.068.052.204.052.392 0 .816-.216.5-.256.5-.604zM647.275 710.372q0 .188-.2.504-.128.2-.42.576-.292.372-.364.488l.3.096q.292.088.292.32-.12.02-.236.036l-.044-.004v-.032q-.064-.016-.104-.016-.076 0-.24.024-.164.024-.248.024-.108 0-.176-.04-.068-.04-.068-.144 0-.084.308-.476.576-.732.58-.74.312-.424.312-.568 0-.056-.04-.084-.036-.028-.148-.028-.076 0-.316.148-.116.072-.188.072l-.068-.012q-.024-.016-.052-.06-.028-.048-.028-.076 0-.168.324-.308.276-.12.48-.12.172 0 .264.128.08.112.08.292zM649.115 710.372q0 .188-.2.504-.128.2-.42.576-.292.372-.364.488l.3.096q.292.088.292.32-.12.02-.236.036l-.044-.004v-.032q-.064-.016-.104-.016-.076 0-.24.024-.164.024-.248.024-.108 0-.176-.04-.068-.04-.068-.144 0-.084.308-.476.576-.732.58-.74.312-.424.312-.568 0-.056-.04-.084-.036-.028-.148-.028-.076 0-.316.148-.116.072-.188.072l-.068-.012q-.024-.016-.052-.06-.028-.048-.028-.076 0-.168.324-.308.276-.12.48-.12.172 0 .264.128.08.112.08.292z"/>
    </g>
    <g fill="none" stroke="#f4f4f4" stroke-linecap="round" transform="translate(-376.616 -108.18)">
        <rect height="323.317" opacity=".98" rx="12.963" stroke-width="4" width="707.42" x="377.616" y="500.105"/>
        <rect height="274.378" opacity=".98" rx="12.47" ry="12.47" stroke-width="2" width="670.849" x="394.549" y="534.148"/>
        <path d="M377.778 540.688v-422.61c0-4.929 3.97-8.898 8.902-8.898h689.571a8.881 8.881 0 0 1 8.903 8.899v422.609" opacity=".98" stroke-width="4"/>
    </g>
    <g fill="#f4f4f4" stroke-width="3.733">
        <path d="M39.92 54.64v-5.369h46.737v-6.078H39.919V26.477h53.082v5.318H46.264v6.079h46.737v16.767zM96.854 54.64V26.883h6.345V54.64zM106.654 54.64V26.883h53.083V54.64h-6.345V32.2h-40.393v22.44zM163.136 54.64V26.883h53.139V32.2h-46.738v17.121h46.738v5.319zM220.523 54.64V18.525h6.345V54.69h-6.345zM287.202 54.64V26.882h6.401v27.76zM297.456 54.64V26.883h53.082V32.2h-46.737v22.44h-6.345zM230.267 26.882V32.2h46.738v6.078h-46.738v16.362h53.14V26.88zm46.738 22.39h-40.336v-6.08h40.336v3.04zM96.854 23.843v-5.319h6.345v5.369h-6.345zM287.202 23.843v-5.319h6.401v5.369h-6.401z"/>
    </g>
    <g fill="none" stroke="#f4f4f4" stroke-linecap="round" stroke-width="2">
        <rect height="35.725" opacity=".98" rx="3.61" width="45.955" x="361.04" y="626.958"/>
        <rect height="35.725" opacity=".98" rx="3.61" width="45.955" x="301.04" y="626.958"/>
        <rect height="35.725" opacity=".98" rx="3.61" width="45.955" x="241.04" y="626.958"/>
        <rect height="35.725" opacity=".98" rx="3.61" width="45.955" x="181.04" y="626.958"/>
        <rect height="35.725" opacity=".98" rx="3.61" width="45.955" x="121.04" y="626.958"/>
        <rect height="35.725" opacity=".98" rx="3.61" width="45.955" x="61.04" y="626.958"/>
        <rect height="35.725" opacity=".98" rx="3.61" width="45.955" x="601.04" y="626.958"/>
        <rect height="35.725" opacity=".98" rx="3.61" width="45.955" x="541.04" y="626.958"/>
        <rect height="35.725" opacity=".98" rx="3.61" width="45.955" x="481.04" y="626.958"/>
        <rect height="35.725" opacity=".98" rx="3.61" width="45.955" x="421.04" y="626.958"/>
        <rect height="35.725" opacity=".98" rx="3.61" width="45.955" x="389.04" y="568.958"/>
        <rect height="35.725" opacity=".98" rx="3.61" width="45.955" x="329.04" y="568.958"/>
        <rect height="35.725" opacity=".98" rx="3.61" width="45.955" x="269.04" y="568.958"/>
        <rect height="35.725" opacity=".98" rx="3.61" width="45.955" x="209.04" y="568.958"/>
        <rect height="35.725" opacity=".98" rx="3.61" width="45.955" x="149.04" y="568.958"/>
        <rect height="35.725" opacity=".98" rx="3.61" width="45.955" x="89.04" y="568.958"/>
        <rect height="35.725" opacity=".98" rx="3.61" width="45.955" x="629.04" y="568.958"/>
        <rect height="35.725" opacity=".98" rx="3.61" width="45.955" x="569.04" y="568.958"/>
        <rect height="35.725" opacity=".98" rx="3.61" width="45.955" x="509.04" y="568.958"/>
        <rect height="35.725" opacity=".98" rx="3.61" width="45.955" x="449.04" y="568.958"/>
        <rect height="35.725" opacity=".98" rx="3.61" width="45.955" x="376.001" y="510.958"/>
        <rect height="35.725" opacity=".98" rx="3.61" width="45.955" x="316.001" y="510.958"/>
        <rect height="35.725" opacity=".98" rx="3.61" width="45.955" x="256.001" y="510.958"/>
        <rect height="35.725" opacity=".98" rx="3.61" width="45.955" x="196.001" y="510.958"/>
        <rect height="35.725" opacity=".98" rx="3.61" width="45.955" x="136.001" y="510.958"/>
        <rect height="35.725" opacity=".98" rx="3.61" width="45.955" x="76.001" y="510.958"/>
        <rect height="35.725" opacity=".98" rx="3.61" width="45.955" x="616.001" y="510.958"/>
        <rect height="35.725" opacity=".98" rx="3.61" width="45.955" x="556.001" y="510.958"/>
        <rect height="35.725" opacity=".98" rx="3.61" width="45.955" x="496.001" y="510.958"/>
        <rect height="35.725" opacity=".98" rx="3.61" width="45.955" x="436.001" y="510.958"/>
        <rect height="35.725" opacity=".98" rx="3.61" width="45.955" x="402.83" y="452.958"/>
        <rect height="35.725" opacity=".98" rx="3.61" width="45.955" x="342.83" y="452.958"/>
        <rect height="35.725" opacity=".98" rx="3.61" width="45.955" x="282.83" y="452.958"/>
        <rect height="35.725" opacity=".98" rx="3.61" width="45.955" x="222.83" y="452.958"/>
        <rect height="35.725" opacity=".98" rx="3.61" width="45.955" x="162.83" y="452.958"/>
        <rect height="35.725" opacity=".98" rx="3.61" width="45.955" x="102.83" y="452.958"/>
        <rect height="35.725" opacity=".98" rx="3.61" width="45.955" x="582.83" y="452.958"/>
        <rect height="35.725" opacity=".98" rx="3.61" width="45.955" x="522.83" y="452.958"/>
        <rect height="35.725" opacity=".98" rx="3.61" width="45.955" x="462.83" y="452.958"/>
        <rect height="35.725" opacity=".98" rx="3.61" width="45.955" x="42.83" y="452.958"/>
    </g>
</svg>
