<?xml version="1.0" encoding="utf-8"?>
<!-- Generator: Adobe Illustrator 15.0.2, SVG Export Plug-In . SVG Version: 6.00 Build 0)  -->
<!DOCTYPE svg PUBLIC "-//W3C//DTD SVG 1.1//EN" "http://www.w3.org/Graphics/SVG/1.1/DTD/svg11.dtd">
<svg version="1.1" id="Calque_1" xmlns="http://www.w3.org/2000/svg" xmlns:xlink="http://www.w3.org/1999/xlink" x="0px" y="0px"
	 width="36px" height="864px" viewBox="0 0 36 864" enable-background="new 0 0 36 864" xml:space="preserve">
<g>
	<rect fill="#E91E63" fill-opacity="0" width="36" height="864"/>
	<rect x="10.001" y="844" fill="#FF5722" width="16" height="16"/>
	
		<rect x="10.007" y="12.988" transform="matrix(0.9848 0.1736 -0.1736 0.9848 3.9169 -2.8075)" fill="#2196F3" width="16.001" height="16"/>
	<rect x="9.995" y="46.996" transform="matrix(0.866 0.5 -0.5 0.866 29.9096 -1.6292)" fill="#2196F3" width="16" height="16"/>
	
		<rect x="10.001" y="80.995" transform="matrix(0.766 0.6428 -0.6428 0.766 61.4196 9.2529)" fill="#2196F3" width="15.998" height="15.998"/>
	
		<rect x="10" y="115.022" transform="matrix(0.6427 0.7661 -0.7661 0.6427 100.6828 30.1662)" fill="#2196F3" width="16.001" height="16.001"/>
	<rect x="10.016" y="151" transform="matrix(0.5 0.866 -0.866 0.5 146.7038 63.8955)" fill="#2196F3" width="16" height="15.999"/>
	
		<rect x="9.998" y="189.002" transform="matrix(0.342 0.9397 -0.9397 0.342 196.9647 112.7104)" fill="#2196F3" width="16.001" height="16"/>
	
		<rect x="10.001" y="228.735" transform="matrix(0.1736 0.9848 -0.9848 0.1736 248.0169 177.9134)" fill="#2196F3" width="16" height="15.999"/>
	<ellipse fill="#9E9E9E" cx="18.001" cy="31.5" rx="8" ry="0.5"/>
	<ellipse fill="#9E9E9E" cx="18.001" cy="67.5" rx="7" ry="0.5"/>
	<ellipse fill="#9E9E9E" cx="18.001" cy="103.5" rx="6" ry="0.5"/>
	<ellipse fill="#9E9E9E" cx="18.001" cy="139.5" rx="6" ry="0.5"/>
	<ellipse fill="#9E9E9E" cx="18.001" cy="175.5" rx="6" ry="0.5"/>
	<ellipse fill="#9E9E9E" cx="18.001" cy="211.5" rx="7" ry="0.5"/>
	<ellipse fill="#9E9E9E" cx="18.001" cy="247.5" rx="8" ry="0.5"/>
	<rect x="10.001" y="268" fill="#2196F3" width="16" height="16"/>
	
		<rect x="10.005" y="301.001" transform="matrix(0.9848 0.1737 -0.1737 0.9848 53.9547 1.5705)" fill="#FFC107" width="16.001" height="15.999"/>
	
		<rect x="9.995" y="334.997" transform="matrix(0.866 0.5 -0.5 0.866 173.9179 36.9603)" fill="#FFC107" width="15.999" height="16"/>
	
		<rect x="10.008" y="369" transform="matrix(0.766 0.6428 -0.6428 0.766 246.5592 76.6387)" fill="#FFC107" width="15.998" height="15.999"/>
	
		<rect x="10.004" y="403.015" transform="matrix(0.6428 0.7661 -0.7661 0.6428 321.2975 133.0372)" fill="#FFC107" width="16.002" height="16.003"/>
	
		<rect x="10.019" y="439.006" transform="matrix(0.5 0.866 -0.866 0.5 396.1273 207.8982)" fill="#FFC107" width="16" height="15.998"/>
	
		<rect x="9.992" y="476.986" transform="matrix(0.342 0.9397 -0.9397 0.342 467.5781 302.2086)" fill="#FFC107" width="16" height="15.999"/>
	
		<rect x="10.003" y="516.744" transform="matrix(0.1736 0.9848 -0.9848 0.1736 531.6515 415.9105)" fill="#FFC107" width="16" height="16"/>
	<ellipse fill="#9E9E9E" cx="18.001" cy="319.5" rx="8" ry="0.5"/>
	<ellipse fill="#9E9E9E" cx="18.001" cy="355.5" rx="7" ry="0.5"/>
	<ellipse fill="#9E9E9E" cx="18.001" cy="391.5" rx="6" ry="0.5"/>
	<ellipse fill="#9E9E9E" cx="18.001" cy="427.5" rx="6" ry="0.5"/>
	<ellipse fill="#9E9E9E" cx="18.001" cy="463.5" rx="6" ry="0.5"/>
	<ellipse fill="#9E9E9E" cx="18.001" cy="499.5" rx="7" ry="0.5"/>
	<ellipse fill="#9E9E9E" cx="18.001" cy="535.5" rx="8" ry="0.5"/>
	<rect x="10.001" y="556" fill="#FFC107" width="16" height="16"/>
	
		<rect x="10.003" y="589" transform="matrix(0.9848 0.1737 -0.1737 0.9848 103.9724 5.9481)" fill="#FF5722" width="16.001" height="15.999"/>
	
		<rect x="9.995" y="622.997" transform="matrix(0.866 0.5 -0.5 0.866 317.925 75.5491)" fill="#FF5722" width="15.999" height="15.999"/>
	
		<rect x="9.989" y="656.985" transform="matrix(0.766 0.6428 -0.6428 0.766 431.684 144.0388)" fill="#FF5722" width="16" height="15.999"/>
	
		<rect x="10.005" y="691.017" transform="matrix(0.6428 0.7661 -0.7661 0.6428 541.9264 235.9222)" fill="#FF5722" width="16.002" height="16.002"/>
	<rect x="10.022" y="727.011" transform="matrix(0.5 0.866 -0.866 0.5 645.55 351.8987)" fill="#FF5722" width="16" height="16"/>
	
		<rect x="10.007" y="765.02" transform="matrix(0.342 0.9397 -0.9397 0.342 738.2522 491.7186)" fill="#FF5722" width="16" height="16"/>
	
		<rect x="9.995" y="804.704" transform="matrix(0.1736 0.9848 -0.9848 0.1736 815.2364 653.9078)" fill="#FF5722" width="16" height="15.998"/>
	<ellipse fill="#9E9E9E" cx="18.001" cy="607.5" rx="8" ry="0.5"/>
	<ellipse fill="#9E9E9E" cx="18.001" cy="643.5" rx="7" ry="0.5"/>
	<ellipse fill="#9E9E9E" cx="18.001" cy="679.5" rx="6" ry="0.5"/>
	<ellipse fill="#9E9E9E" cx="18.001" cy="715.5" rx="6" ry="0.5"/>
	<ellipse fill="#9E9E9E" cx="18.001" cy="751.5" rx="6" ry="0.5"/>
	<ellipse fill="#9E9E9E" cx="18.001" cy="787.5" rx="7" ry="0.5"/>
	<ellipse fill="#9E9E9E" cx="18.001" cy="823.5" rx="8" ry="0.5"/>
</g>
</svg>
